<?xml version="1.0" encoding="us-ascii" standalone="no"?><svg xmlns="http://www.w3.org/2000/svg" xmlns:xlink="http://www.w3.org/1999/xlink" contentStyleType="text/css" height="659.2px" preserveAspectRatio="none" style="width:1071px;height:659px;background:#FFFFFF;" version="1.1" viewBox="0 0 1071 659" width="1071.2px" zoomAndPan="magnify"><defs/><g><rect fill="#FFFFFF" height="504.1203" style="stroke:#181818;stroke-width:0.8000000000000002;" width="8" x="14" y="74.8969"/><rect fill="#FFFFFF" height="260.1922" style="stroke:#181818;stroke-width:0.8000000000000002;" width="8" x="276.4" y="93.5297"/><rect fill="#FFFFFF" height="25.0328" style="stroke:#181818;stroke-width:0.8000000000000002;" width="8" x="276.4" y="378.7547"/><rect fill="#FFFFFF" height="175.2297" style="stroke:#181818;stroke-width:0.8000000000000002;" width="8" x="538" y="153.4594"/><rect fill="#FFFFFF" height="132.3641" style="stroke:#181818;stroke-width:0.8000000000000002;" width="8" x="538" y="453.8531"/><rect fill="#FFFFFF" height="25.0328" style="stroke:#181818;stroke-width:0.8000000000000002;" width="8" x="677.2" y="178.4922"/><rect fill="#FFFFFF" height="25.0328" style="stroke:#181818;stroke-width:0.8000000000000002;" width="8" x="762.8" y="228.5578"/><rect fill="#FFFFFF" height="25.0328" style="stroke:#181818;stroke-width:0.8000000000000002;" width="8" x="861.6" y="278.6234"/><rect fill="#FFFFFF" height="50.0656" style="stroke:#181818;stroke-width:0.8000000000000002;" width="8" x="861.6" y="478.8859"/><rect fill="#FFFFFF" height="25.0328" style="stroke:#181818;stroke-width:0.8000000000000002;" width="8" x="1037.6" y="503.9188"/><line style="stroke:#181818;stroke-width:0.4000000000000001;stroke-dasharray:5.0,5.0;" x1="17.6" x2="17.6" y1="66.8969" y2="593.4172"/><line style="stroke:#181818;stroke-width:0.4000000000000001;stroke-dasharray:5.0,5.0;" x1="280" x2="280" y1="66.8969" y2="593.4172"/><line style="stroke:#181818;stroke-width:0.4000000000000001;stroke-dasharray:5.0,5.0;" x1="541.6" x2="541.6" y1="125.3781" y2="593.4172"/><line style="stroke:#181818;stroke-width:0.4000000000000001;stroke-dasharray:5.0,5.0;" x1="680.8" x2="680.8" y1="66.8969" y2="593.4172"/><line style="stroke:#181818;stroke-width:0.4000000000000001;stroke-dasharray:5.0,5.0;" x1="766.4" x2="766.4" y1="66.8969" y2="593.4172"/><line style="stroke:#181818;stroke-width:0.4000000000000001;stroke-dasharray:5.0,5.0;" x1="865.6" x2="865.6" y1="66.8969" y2="593.4172"/><line style="stroke:#181818;stroke-width:0.4000000000000001;stroke-dasharray:5.0,5.0;" x1="1041.6" x2="1041.6" y1="66.8969" y2="593.4172"/><text fill="#000000" font-family="sans-serif" font-size="11.2" lengthAdjust="spacing" textLength="23.2" x="4" y="64.0859">VFM</text><ellipse cx="18" cy="10.8" fill="#E3E3E3" rx="6.4" ry="6.4" style="stroke:#181818;stroke-width:0.4000000000000001;"/><path d="M18,17.2 L18,38.8 M7.6,23.6 L28.4,23.6 M18,38.8 L7.6,50.8 M18,38.8 L28.4,50.8 " fill="none" style="stroke:#181818;stroke-width:0.4000000000000001;"/><text fill="#000000" font-family="sans-serif" font-size="11.2" lengthAdjust="spacing" textLength="23.2" x="4" y="604.7031">VFM</text><ellipse cx="18" cy="614.3141" fill="#E3E3E3" rx="6.4" ry="6.4" style="stroke:#181818;stroke-width:0.4000000000000001;"/><path d="M18,620.7141 L18,642.3141 M7.6,627.1141 L28.4,627.1141 M18,642.3141 L7.6,654.3141 M18,642.3141 L28.4,654.3141 " fill="none" style="stroke:#181818;stroke-width:0.4000000000000001;"/><rect fill="#E3E3E3" height="26.0969" rx="2" ry="2" style="stroke:#181818;stroke-width:0.4000000000000001;" width="148" x="206.4" y="40"/><text fill="#000000" font-family="sans-serif" font-size="11.2" lengthAdjust="spacing" textLength="136.8" x="212" y="57.6859">:RegisterVehicleCheckupUI</text><rect fill="#E3E3E3" height="26.0969" rx="2" ry="2" style="stroke:#181818;stroke-width:0.4000000000000001;" width="148" x="206.4" y="592.6172"/><text fill="#000000" font-family="sans-serif" font-size="11.2" lengthAdjust="spacing" textLength="136.8" x="212" y="610.3031">:RegisterVehicleCheckupUI</text><rect fill="#E3E3E3" height="26.0969" rx="2" ry="2" style="stroke:#181818;stroke-width:0.4000000000000001;" width="184.8" x="449.6" y="592.6172"/><text fill="#000000" font-family="sans-serif" font-size="11.2" lengthAdjust="spacing" textLength="173.6" x="455.2" y="610.3031">RegisterVehicleCheckupController</text><rect fill="#E3E3E3" height="26.0969" rx="2" ry="2" style="stroke:#181818;stroke-width:0.4000000000000001;" width="77.6" x="642.4" y="40"/><text fill="#000000" font-family="sans-serif" font-size="11.2" lengthAdjust="spacing" textLength="66.4" x="648" y="57.6859">:Repositories</text><rect fill="#E3E3E3" height="26.0969" rx="2" ry="2" style="stroke:#181818;stroke-width:0.4000000000000001;" width="77.6" x="642.4" y="592.6172"/><text fill="#000000" font-family="sans-serif" font-size="11.2" lengthAdjust="spacing" textLength="66.4" x="648" y="610.3031">:Repositories</text><rect fill="#E3E3E3" height="40.9938" rx="2" ry="2" style="stroke:#181818;stroke-width:0.4000000000000001;" width="77.6" x="728" y="25.1031"/><text fill="#000000" font-family="sans-serif" font-size="11.2" lengthAdjust="spacing" textLength="59.2" x="737.2" y="42.7891">repositories</text><text fill="#000000" font-family="sans-serif" font-size="11.2" lengthAdjust="spacing" textLength="66.4" x="733.6" y="57.6859">:Repositories</text><rect fill="#E3E3E3" height="40.9938" rx="2" ry="2" style="stroke:#181818;stroke-width:0.4000000000000001;" width="77.6" x="728" y="592.6172"/><text fill="#000000" font-family="sans-serif" font-size="11.2" lengthAdjust="spacing" textLength="59.2" x="737.2" y="610.3031">repositories</text><text fill="#000000" font-family="sans-serif" font-size="11.2" lengthAdjust="spacing" textLength="66.4" x="733.6" y="625.2">:Repositories</text><rect fill="#E3E3E3" height="40.9938" rx="2" ry="2" style="stroke:#181818;stroke-width:0.4000000000000001;" width="104" x="813.6" y="25.1031"/><text fill="#000000" font-family="sans-serif" font-size="11.2" lengthAdjust="spacing" textLength="92.8" x="819.2" y="42.7891">vehicleRepository:</text><text fill="#000000" font-family="sans-serif" font-size="11.2" lengthAdjust="spacing" textLength="91.2" x="820" y="57.6859">VehicleRepository</text><rect fill="#E3E3E3" height="40.9938" rx="2" ry="2" style="stroke:#181818;stroke-width:0.4000000000000001;" width="104" x="813.6" y="592.6172"/><text fill="#000000" font-family="sans-serif" font-size="11.2" lengthAdjust="spacing" textLength="92.8" x="819.2" y="610.3031">vehicleRepository:</text><text fill="#000000" font-family="sans-serif" font-size="11.2" lengthAdjust="spacing" textLength="91.2" x="820" y="625.2">VehicleRepository</text><rect fill="#E3E3E3" height="40.9938" rx="2" ry="2" style="stroke:#181818;stroke-width:0.4000000000000001;" width="49.6" x="1016.8" y="25.1031"/><text fill="#000000" font-family="sans-serif" font-size="11.2" lengthAdjust="spacing" textLength="38.4" x="1022.4" y="42.7891">vehicle:</text><text fill="#000000" font-family="sans-serif" font-size="11.2" lengthAdjust="spacing" textLength="36.8" x="1023.2" y="57.6859">Vehicle</text><rect fill="#E3E3E3" height="40.9938" rx="2" ry="2" style="stroke:#181818;stroke-width:0.4000000000000001;" width="49.6" x="1016.8" y="592.6172"/><text fill="#000000" font-family="sans-serif" font-size="11.2" lengthAdjust="spacing" textLength="38.4" x="1022.4" y="610.3031">vehicle:</text><text fill="#000000" font-family="sans-serif" font-size="11.2" lengthAdjust="spacing" textLength="36.8" x="1023.2" y="625.2">Vehicle</text><rect fill="#FFFFFF" height="504.1203" style="stroke:#181818;stroke-width:0.8000000000000002;" width="8" x="14" y="74.8969"/><rect fill="#FFFFFF" height="260.1922" style="stroke:#181818;stroke-width:0.8000000000000002;" width="8" x="276.4" y="93.5297"/><rect fill="#FFFFFF" height="25.0328" style="stroke:#181818;stroke-width:0.8000000000000002;" width="8" x="276.4" y="378.7547"/><rect fill="#FFFFFF" height="175.2297" style="stroke:#181818;stroke-width:0.8000000000000002;" width="8" x="538" y="153.4594"/><rect fill="#FFFFFF" height="132.3641" style="stroke:#181818;stroke-width:0.8000000000000002;" width="8" x="538" y="453.8531"/><rect fill="#FFFFFF" height="25.0328" style="stroke:#181818;stroke-width:0.8000000000000002;" width="8" x="677.2" y="178.4922"/><rect fill="#FFFFFF" height="25.0328" style="stroke:#181818;stroke-width:0.8000000000000002;" width="8" x="762.8" y="228.5578"/><rect fill="#FFFFFF" height="25.0328" style="stroke:#181818;stroke-width:0.8000000000000002;" width="8" x="861.6" y="278.6234"/><rect fill="#FFFFFF" height="50.0656" style="stroke:#181818;stroke-width:0.8000000000000002;" width="8" x="861.6" y="478.8859"/><rect fill="#FFFFFF" height="25.0328" style="stroke:#181818;stroke-width:0.8000000000000002;" width="8" x="1037.6" y="503.9188"/><polygon fill="#181818" points="266.8,90.3297,274.8,93.5297,266.8,96.7297,270,93.5297" style="stroke:#181818;stroke-width:0.8000000000000002;"/><line style="stroke:#181818;stroke-width:0.8000000000000002;" x1="22" x2="271.6" y1="93.5297" y2="93.5297"/><text fill="#000000" font-family="sans-serif" font-size="10.4" font-weight="bold" lengthAdjust="spacing" textLength="5.6" x="27.6" y="89.3195">1</text><text fill="#000000" font-family="sans-serif" font-size="10.4" lengthAdjust="spacing" textLength="160.8" x="36.4" y="89.3195">asks to register a vehicle check-up</text><polygon fill="#181818" points="440,115.3625,448,118.5625,440,121.7625,443.2,118.5625" style="stroke:#181818;stroke-width:0.8000000000000002;"/><line style="stroke:#181818;stroke-width:0.8000000000000002;" x1="284.4" x2="444.8" y1="118.5625" y2="118.5625"/><text fill="#000000" font-family="sans-serif" font-size="10.4" font-weight="bold" lengthAdjust="spacing" textLength="5.6" x="290" y="114.3523">2</text><text fill="#000000" font-family="sans-serif" font-size="10.4" lengthAdjust="spacing" textLength="28.8" x="298.8" y="114.3523">create</text><rect fill="#E3E3E3" height="26.0969" rx="2" ry="2" style="stroke:#181818;stroke-width:0.4000000000000001;" width="184.8" x="449.6" y="99.9297"/><text fill="#000000" font-family="sans-serif" font-size="11.2" lengthAdjust="spacing" textLength="173.6" x="455.2" y="117.6156">RegisterVehicleCheckupController</text><polygon fill="#181818" points="528.4,150.2594,536.4,153.4594,528.4,156.6594,531.6,153.4594" style="stroke:#181818;stroke-width:0.8000000000000002;"/><line style="stroke:#181818;stroke-width:0.8000000000000002;" x1="284.4" x2="533.2" y1="153.4594" y2="153.4594"/><text fill="#000000" font-family="sans-serif" font-size="10.4" font-weight="bold" lengthAdjust="spacing" textLength="5.6" x="290" y="149.2492">3</text><text fill="#000000" font-family="sans-serif" font-size="10.4" lengthAdjust="spacing" textLength="60.8" x="298.8" y="149.2492">getVehicles()</text><polygon fill="#181818" points="667.6,175.2922,675.6,178.4922,667.6,181.6922,670.8,178.4922" style="stroke:#181818;stroke-width:0.8000000000000002;"/><line style="stroke:#181818;stroke-width:0.8000000000000002;" x1="546" x2="672.4" y1="178.4922" y2="178.4922"/><text fill="#000000" font-family="sans-serif" font-size="10.4" font-weight="bold" lengthAdjust="spacing" textLength="5.6" x="551.6" y="174.282">4</text><text fill="#000000" font-family="sans-serif" font-size="10.4" lengthAdjust="spacing" textLength="60" x="560.4" y="174.282">getInstance()</text><polygon fill="#181818" points="554.8,200.325,546.8,203.525,554.8,206.725,551.6,203.525" style="stroke:#181818;stroke-width:0.8000000000000002;"/><line style="stroke:#181818;stroke-width:0.8000000000000002;stroke-dasharray:2.0,2.0;" x1="550" x2="680.4" y1="203.525" y2="203.525"/><text fill="#000000" font-family="sans-serif" font-size="10.4" font-weight="bold" lengthAdjust="spacing" textLength="5.6" x="559.6" y="199.3148">5</text><text fill="#000000" font-family="sans-serif" font-size="10.4" lengthAdjust="spacing" textLength="53.6" x="568.4" y="199.3148">repositories</text><polygon fill="#181818" points="753.2,225.3578,761.2,228.5578,753.2,231.7578,756.4,228.5578" style="stroke:#181818;stroke-width:0.8000000000000002;"/><line style="stroke:#181818;stroke-width:0.8000000000000002;" x1="546" x2="758" y1="228.5578" y2="228.5578"/><text fill="#000000" font-family="sans-serif" font-size="10.4" font-weight="bold" lengthAdjust="spacing" textLength="5.6" x="551.6" y="224.3477">6</text><text fill="#000000" font-family="sans-serif" font-size="10.4" lengthAdjust="spacing" textLength="104.8" x="560.4" y="224.3477">getVehicleRepository()</text><polygon fill="#181818" points="554.8,250.3906,546.8,253.5906,554.8,256.7906,551.6,253.5906" style="stroke:#181818;stroke-width:0.8000000000000002;"/><line style="stroke:#181818;stroke-width:0.8000000000000002;stroke-dasharray:2.0,2.0;" x1="550" x2="766" y1="253.5906" y2="253.5906"/><text fill="#000000" font-family="sans-serif" font-size="10.4" font-weight="bold" lengthAdjust="spacing" textLength="5.6" x="559.6" y="249.3805">7</text><text fill="#000000" font-family="sans-serif" font-size="10.4" lengthAdjust="spacing" textLength="80.8" x="568.4" y="249.3805">vehicleRepository</text><polygon fill="#181818" points="852,275.4234,860,278.6234,852,281.8234,855.2,278.6234" style="stroke:#181818;stroke-width:0.8000000000000002;"/><line style="stroke:#181818;stroke-width:0.8000000000000002;" x1="546" x2="856.8" y1="278.6234" y2="278.6234"/><text fill="#000000" font-family="sans-serif" font-size="10.4" font-weight="bold" lengthAdjust="spacing" textLength="5.6" x="551.6" y="274.4133">8</text><text fill="#000000" font-family="sans-serif" font-size="10.4" lengthAdjust="spacing" textLength="60.8" x="560.4" y="274.4133">getVehicles()</text><polygon fill="#181818" points="554.8,300.4563,546.8,303.6563,554.8,306.8563,551.6,303.6563" style="stroke:#181818;stroke-width:0.8000000000000002;"/><line style="stroke:#181818;stroke-width:0.8000000000000002;stroke-dasharray:2.0,2.0;" x1="550" x2="864.8" y1="303.6563" y2="303.6563"/><text fill="#000000" font-family="sans-serif" font-size="10.4" font-weight="bold" lengthAdjust="spacing" textLength="5.6" x="559.6" y="299.4461">9</text><text fill="#000000" font-family="sans-serif" font-size="10.4" lengthAdjust="spacing" textLength="53.6" x="568.4" y="299.4461">vehiclesList</text><polygon fill="#181818" points="293.2,325.4891,285.2,328.6891,293.2,331.8891,290,328.6891" style="stroke:#181818;stroke-width:0.8000000000000002;"/><line style="stroke:#181818;stroke-width:0.8000000000000002;stroke-dasharray:2.0,2.0;" x1="288.4" x2="541.2" y1="328.6891" y2="328.6891"/><text fill="#000000" font-family="sans-serif" font-size="10.4" font-weight="bold" lengthAdjust="spacing" textLength="11.2" x="298" y="324.4789">10</text><text fill="#000000" font-family="sans-serif" font-size="10.4" lengthAdjust="spacing" textLength="53.6" x="312.4" y="324.4789">vehiclesList</text><polygon fill="#181818" points="30.8,350.5219,22.8,353.7219,30.8,356.9219,27.6,353.7219" style="stroke:#181818;stroke-width:0.8000000000000002;"/><line style="stroke:#181818;stroke-width:0.8000000000000002;stroke-dasharray:2.0,2.0;" x1="26" x2="279.6" y1="353.7219" y2="353.7219"/><text fill="#000000" font-family="sans-serif" font-size="10.4" font-weight="bold" lengthAdjust="spacing" textLength="11.2" x="35.6" y="349.5117">11</text><text fill="#000000" font-family="sans-serif" font-size="10.4" lengthAdjust="spacing" textLength="220.8" x="50" y="349.5117">shows available vehicles and asks to select one</text><polygon fill="#181818" points="266.8,375.5547,274.8,378.7547,266.8,381.9547,270,378.7547" style="stroke:#181818;stroke-width:0.8000000000000002;"/><line style="stroke:#181818;stroke-width:0.8000000000000002;" x1="22" x2="271.6" y1="378.7547" y2="378.7547"/><text fill="#000000" font-family="sans-serif" font-size="10.4" font-weight="bold" lengthAdjust="spacing" textLength="11.2" x="27.6" y="374.5445">12</text><text fill="#000000" font-family="sans-serif" font-size="10.4" lengthAdjust="spacing" textLength="76.8" x="42" y="374.5445">selects a vehicle</text><polygon fill="#181818" points="30.8,400.5875,22.8,403.7875,30.8,406.9875,27.6,403.7875" style="stroke:#181818;stroke-width:0.8000000000000002;"/><line style="stroke:#181818;stroke-width:0.8000000000000002;stroke-dasharray:2.0,2.0;" x1="26" x2="279.6" y1="403.7875" y2="403.7875"/><text fill="#000000" font-family="sans-serif" font-size="10.4" font-weight="bold" lengthAdjust="spacing" textLength="11.2" x="35.6" y="399.5773">13</text><text fill="#000000" font-family="sans-serif" font-size="10.4" lengthAdjust="spacing" textLength="140" x="50" y="399.5773">requests date and currentKms</text><polygon fill="#181818" points="270.8,425.6203,278.8,428.8203,270.8,432.0203,274,428.8203" style="stroke:#181818;stroke-width:0.8000000000000002;"/><line style="stroke:#181818;stroke-width:0.8000000000000002;" x1="22" x2="275.6" y1="428.8203" y2="428.8203"/><text fill="#000000" font-family="sans-serif" font-size="10.4" font-weight="bold" lengthAdjust="spacing" textLength="11.2" x="27.6" y="424.6102">14</text><text fill="#000000" font-family="sans-serif" font-size="10.4" lengthAdjust="spacing" textLength="97.6" x="42" y="424.6102">types requested data</text><polygon fill="#181818" points="528.4,450.6531,536.4,453.8531,528.4,457.0531,531.6,453.8531" style="stroke:#181818;stroke-width:0.8000000000000002;"/><line style="stroke:#181818;stroke-width:0.8000000000000002;" x1="280.4" x2="533.2" y1="453.8531" y2="453.8531"/><text fill="#000000" font-family="sans-serif" font-size="10.4" font-weight="bold" lengthAdjust="spacing" textLength="11.2" x="286" y="449.643">15</text><text fill="#000000" font-family="sans-serif" font-size="10.4" lengthAdjust="spacing" textLength="228" x="300.4" y="449.643">createVehicleCheckup(vehicle, date, currentKms)</text><polygon fill="#181818" points="852,475.6859,860,478.8859,852,482.0859,855.2,478.8859" style="stroke:#181818;stroke-width:0.8000000000000002;"/><line style="stroke:#181818;stroke-width:0.8000000000000002;" x1="546" x2="856.8" y1="478.8859" y2="478.8859"/><text fill="#000000" font-family="sans-serif" font-size="10.4" font-weight="bold" lengthAdjust="spacing" textLength="11.2" x="551.6" y="474.6758">16</text><text fill="#000000" font-family="sans-serif" font-size="10.4" lengthAdjust="spacing" textLength="228" x="566" y="474.6758">createVehicleCheckup(vehicle, date, currentKms)</text><polygon fill="#181818" points="1028,500.7188,1036,503.9188,1028,507.1188,1031.2,503.9188" style="stroke:#181818;stroke-width:0.8000000000000002;"/><line style="stroke:#181818;stroke-width:0.8000000000000002;" x1="869.6" x2="1032.8" y1="503.9188" y2="503.9188"/><text fill="#000000" font-family="sans-serif" font-size="10.4" font-weight="bold" lengthAdjust="spacing" textLength="11.2" x="875.2" y="499.7086">17</text><text fill="#000000" font-family="sans-serif" font-size="10.4" lengthAdjust="spacing" textLength="138.4" x="889.6" y="499.7086">addCheckup(date, currentKm)</text><polygon fill="#181818" points="554.8,525.7516,546.8,528.9516,554.8,532.1516,551.6,528.9516" style="stroke:#181818;stroke-width:0.8000000000000002;"/><line style="stroke:#181818;stroke-width:0.8000000000000002;stroke-dasharray:2.0,2.0;" x1="550" x2="864.8" y1="528.9516" y2="528.9516"/><text fill="#000000" font-family="sans-serif" font-size="10.4" font-weight="bold" lengthAdjust="spacing" textLength="11.2" x="559.6" y="524.7414">18</text><text fill="#000000" font-family="sans-serif" font-size="10.4" lengthAdjust="spacing" textLength="80" x="574" y="524.7414">status of creation</text><polygon fill="#181818" points="289.2,550.7844,281.2,553.9844,289.2,557.1844,286,553.9844" style="stroke:#181818;stroke-width:0.8000000000000002;"/><line style="stroke:#181818;stroke-width:0.8000000000000002;stroke-dasharray:2.0,2.0;" x1="284.4" x2="537.2" y1="553.9844" y2="553.9844"/><text fill="#000000" font-family="sans-serif" font-size="10.4" font-weight="bold" lengthAdjust="spacing" textLength="11.2" x="294" y="549.7742">19</text><text fill="#000000" font-family="sans-serif" font-size="10.4" lengthAdjust="spacing" textLength="80" x="308.4" y="549.7742">status of creation</text><polygon fill="#181818" points="26.8,575.8172,18.8,579.0172,26.8,582.2172,23.6,579.0172" style="stroke:#181818;stroke-width:0.8000000000000002;"/><line style="stroke:#181818;stroke-width:0.8000000000000002;stroke-dasharray:2.0,2.0;" x1="22" x2="279.6" y1="579.0172" y2="579.0172"/><text fill="#000000" font-family="sans-serif" font-size="10.4" font-weight="bold" lengthAdjust="spacing" textLength="11.2" x="31.6" y="574.807">20</text><text fill="#000000" font-family="sans-serif" font-size="10.4" lengthAdjust="spacing" textLength="107.2" x="46" y="574.807">shows operation status</text><!--SRC=[bLLDR-8m4BtxLunwWLRm1pXKgbYjX9PAgtvmucASWLWaTjPswFBlTsBdooJGnPUMySnxRyOp4tkKgk26vv1hfKLgT8xWJ8dCjZS55qT-m7TtpX0C2iVL8Uixs9Gd-akg0-nvPf4nNZgjodo7Xh59AXE4lTPkf_yoBfmsyB3v-Ve0t0BzPOJXf905LmuU5czuaDQXsM0gHORB5CMnB3vNtlrp5NkFEo-rSaPd6HeVjFnuMmz82cqbAP5elKzhEB_BAZcI7uUONiHM3G5-hry-ueXJqDGXBxPgSsaBHRYqZW9ruJwejbO5bIVkq9UIGNte1yoVgLwm8EUZ1QVfvKAnW3V18Ag2pSkY2spXgDHi0hr3M7E2VFdnIfW6_vHedOM4EmvJWtiqg0JE844hZ2oSr6e68DLUcvndi5NnZKEHAYde9Z8dfU7XFw6jUsHz0HDXi5Bct_DIsRCtFpsHjk36hhYGmm5TNKaxZIdQx3r7T5KT7qyu8zqIO5VAqd08l82DeCTQRU1TdJ6MUPr5zG9T1mx24xoFhaciwkAeG5tqhPHyyu_cu04xqOEPkALy7BMHEX1uys4ZkSDv6zK-P9XtFLHdOjSqKhUI-0-ka54phLU1Uw33xgo7inhx1QrZ_MM1dxZC-8wcl844hf9s6rZCQ9E3LiX66AhflzmZ8S9swuCD5iQedFwkGAz1b8QsXVkLXyxzXjUT2z9Ues3YLmvZCLdxBc7uu-_1jDOxymfcFVf7TcNosNsDTozhopRM7mCJaJRV0E19qk1VmFPGc_UfiXYYjTD8kygL5lG-wAUro_flqQBSRkUuVKSmGpFqMrCN6DPyxHunq6Vi7m00]--></g></svg>