<?xml version="1.0" encoding="us-ascii" standalone="no"?><svg xmlns="http://www.w3.org/2000/svg" xmlns:xlink="http://www.w3.org/1999/xlink" contentStyleType="text/css" height="759px" preserveAspectRatio="none" style="width:1268px;height:759px;background:#FFFFFF;" version="1.1" viewBox="0 0 1268 759" width="1268px" zoomAndPan="magnify"><defs/><g><!--class GreenSpace--><g id="elem_GreenSpace"><rect codeLine="9" fill="#F1F1F1" height="122.4844" id="GreenSpace" rx="2.5" ry="2.5" style="stroke:#181818;stroke-width:0.5;" width="121" x="518.5" y="283"/><ellipse cx="537.55" cy="299" fill="#ADD1B2" rx="11" ry="11" style="stroke:#181818;stroke-width:1.0;"/><path d="M540.3156,294.875 Q540.4719,294.6563 540.6594,294.5469 Q540.8469,294.4375 541.0656,294.4375 Q541.4406,294.4375 541.675,294.7031 Q541.9094,294.9531 541.9094,295.5625 L541.9094,297.0156 Q541.9094,297.625 541.675,297.8906 Q541.4406,298.1563 541.0656,298.1563 Q540.7219,298.1563 540.5188,297.9531 Q540.3156,297.7656 540.2063,297.25 Q540.1594,296.8906 539.9719,296.7031 Q539.6438,296.3281 539.0344,296.1094 Q538.425,295.8906 537.8,295.8906 Q537.0344,295.8906 536.3938,296.2188 Q535.7688,296.5469 535.2688,297.2969 Q534.7844,298.0469 534.7844,299.0781 L534.7844,300.1719 Q534.7844,301.4063 535.675,302.2344 Q536.5656,303.0469 538.1594,303.0469 Q539.0969,303.0469 539.7531,302.7969 Q540.1438,302.6406 540.5656,302.2031 Q540.8313,301.9375 540.9719,301.8594 Q541.1281,301.7813 541.3313,301.7813 Q541.6594,301.7813 541.9094,302.0469 Q542.175,302.2969 542.175,302.6406 Q542.175,302.9844 541.8313,303.3906 Q541.3313,303.9688 540.5344,304.2969 Q539.4563,304.75 538.1594,304.75 Q536.6438,304.75 535.4406,304.125 Q534.4563,303.625 533.7688,302.5625 Q533.0813,301.4844 533.0813,300.2031 L533.0813,299.0469 Q533.0813,297.7188 533.6906,296.5781 Q534.3156,295.4219 535.4094,294.8125 Q536.5031,294.1875 537.7375,294.1875 Q538.4719,294.1875 539.1125,294.3594 Q539.7688,294.5156 540.3156,294.875 Z " fill="#000000"/><text fill="#000000" font-family="sans-serif" font-size="14" lengthAdjust="spacing" textLength="80" x="552.45" y="304.7969">GreenSpace</text><line style="stroke:#181818;stroke-width:0.5;" x1="519.5" x2="638.5" y1="315" y2="315"/><text fill="#000000" font-family="sans-serif" font-size="14" lengthAdjust="spacing" textLength="109" x="524.5" y="334.1074">greenSpaceType</text><text fill="#000000" font-family="sans-serif" font-size="14" lengthAdjust="spacing" textLength="35" x="524.5" y="352.7285">name</text><text fill="#000000" font-family="sans-serif" font-size="14" lengthAdjust="spacing" textLength="29" x="524.5" y="371.3496">area</text><text fill="#000000" font-family="sans-serif" font-size="14" lengthAdjust="spacing" textLength="64" x="524.5" y="389.9707">emailGSM</text><line style="stroke:#181818;stroke-width:0.5;" x1="519.5" x2="638.5" y1="397.4844" y2="397.4844"/></g><!--class GreenSpaceDTO--><g id="elem_GreenSpaceDTO"><rect codeLine="17" fill="#F1F1F1" height="196.9688" id="GreenSpaceDTO" rx="2.5" ry="2.5" style="stroke:#181818;stroke-width:0.5;" width="142" x="716" y="7"/><ellipse cx="731" cy="23" fill="#ADD1B2" rx="11" ry="11" style="stroke:#181818;stroke-width:1.0;"/><path d="M733.7656,18.875 Q733.9219,18.6563 734.1094,18.5469 Q734.2969,18.4375 734.5156,18.4375 Q734.8906,18.4375 735.125,18.7031 Q735.3594,18.9531 735.3594,19.5625 L735.3594,21.0156 Q735.3594,21.625 735.125,21.8906 Q734.8906,22.1563 734.5156,22.1563 Q734.1719,22.1563 733.9688,21.9531 Q733.7656,21.7656 733.6563,21.25 Q733.6094,20.8906 733.4219,20.7031 Q733.0938,20.3281 732.4844,20.1094 Q731.875,19.8906 731.25,19.8906 Q730.4844,19.8906 729.8438,20.2188 Q729.2188,20.5469 728.7188,21.2969 Q728.2344,22.0469 728.2344,23.0781 L728.2344,24.1719 Q728.2344,25.4063 729.125,26.2344 Q730.0156,27.0469 731.6094,27.0469 Q732.5469,27.0469 733.2031,26.7969 Q733.5938,26.6406 734.0156,26.2031 Q734.2813,25.9375 734.4219,25.8594 Q734.5781,25.7813 734.7813,25.7813 Q735.1094,25.7813 735.3594,26.0469 Q735.625,26.2969 735.625,26.6406 Q735.625,26.9844 735.2813,27.3906 Q734.7813,27.9688 733.9844,28.2969 Q732.9063,28.75 731.6094,28.75 Q730.0938,28.75 728.8906,28.125 Q727.9063,27.625 727.2188,26.5625 Q726.5313,25.4844 726.5313,24.2031 L726.5313,23.0469 Q726.5313,21.7188 727.1406,20.5781 Q727.7656,19.4219 728.8594,18.8125 Q729.9531,18.1875 731.1875,18.1875 Q731.9219,18.1875 732.5625,18.3594 Q733.2188,18.5156 733.7656,18.875 Z " fill="#000000"/><text fill="#000000" font-family="sans-serif" font-size="14" lengthAdjust="spacing" textLength="110" x="745" y="28.7969">GreenSpaceDTO</text><line style="stroke:#181818;stroke-width:0.5;" x1="717" x2="857" y1="39" y2="39"/><text fill="#000000" font-family="sans-serif" font-size="14" lengthAdjust="spacing" textLength="28" x="722" y="58.1074">date</text><text fill="#000000" font-family="sans-serif" font-size="14" lengthAdjust="spacing" textLength="77" x="722" y="76.7285">greenSpace</text><text fill="#000000" font-family="sans-serif" font-size="14" lengthAdjust="spacing" textLength="69" x="722" y="95.3496">description</text><text fill="#000000" font-family="sans-serif" font-size="14" lengthAdjust="spacing" textLength="111" x="722" y="113.9707">expectedDuration</text><text fill="#000000" font-family="sans-serif" font-size="14" lengthAdjust="spacing" textLength="98" x="722" y="132.5918">urgencyDegree</text><text fill="#000000" font-family="sans-serif" font-size="14" lengthAdjust="spacing" textLength="72" x="722" y="151.2129">entryStatus</text><text fill="#000000" font-family="sans-serif" font-size="14" lengthAdjust="spacing" textLength="104" x="722" y="169.834">associatedTeam</text><text fill="#000000" font-family="sans-serif" font-size="14" lengthAdjust="spacing" textLength="121" x="722" y="188.4551">associatedVehicles</text><line style="stroke:#181818;stroke-width:0.5;" x1="717" x2="857" y1="195.9688" y2="195.9688"/></g><!--class SystemUser--><g id="elem_SystemUser"><rect codeLine="30" fill="#F1F1F1" height="122.4844" id="SystemUser" rx="2.5" ry="2.5" style="stroke:#181818;stroke-width:0.5;" width="107" x="94.5" y="44.5"/><ellipse cx="109.5" cy="60.5" fill="#ADD1B2" rx="11" ry="11" style="stroke:#181818;stroke-width:1.0;"/><path d="M112.2656,56.375 Q112.4219,56.1563 112.6094,56.0469 Q112.7969,55.9375 113.0156,55.9375 Q113.3906,55.9375 113.625,56.2031 Q113.8594,56.4531 113.8594,57.0625 L113.8594,58.5156 Q113.8594,59.125 113.625,59.3906 Q113.3906,59.6563 113.0156,59.6563 Q112.6719,59.6563 112.4688,59.4531 Q112.2656,59.2656 112.1563,58.75 Q112.1094,58.3906 111.9219,58.2031 Q111.5938,57.8281 110.9844,57.6094 Q110.375,57.3906 109.75,57.3906 Q108.9844,57.3906 108.3438,57.7188 Q107.7188,58.0469 107.2188,58.7969 Q106.7344,59.5469 106.7344,60.5781 L106.7344,61.6719 Q106.7344,62.9063 107.625,63.7344 Q108.5156,64.5469 110.1094,64.5469 Q111.0469,64.5469 111.7031,64.2969 Q112.0938,64.1406 112.5156,63.7031 Q112.7813,63.4375 112.9219,63.3594 Q113.0781,63.2813 113.2813,63.2813 Q113.6094,63.2813 113.8594,63.5469 Q114.125,63.7969 114.125,64.1406 Q114.125,64.4844 113.7813,64.8906 Q113.2813,65.4688 112.4844,65.7969 Q111.4063,66.25 110.1094,66.25 Q108.5938,66.25 107.3906,65.625 Q106.4063,65.125 105.7188,64.0625 Q105.0313,62.9844 105.0313,61.7031 L105.0313,60.5469 Q105.0313,59.2188 105.6406,58.0781 Q106.2656,56.9219 107.3594,56.3125 Q108.4531,55.6875 109.6875,55.6875 Q110.4219,55.6875 111.0625,55.8594 Q111.7188,56.0156 112.2656,56.375 Z " fill="#000000"/><text fill="#000000" font-family="sans-serif" font-size="14" lengthAdjust="spacing" textLength="75" x="123.5" y="66.2969">SystemUser</text><line style="stroke:#181818;stroke-width:0.5;" x1="95.5" x2="200.5" y1="76.5" y2="76.5"/><text fill="#000000" font-family="sans-serif" font-size="14" lengthAdjust="spacing" textLength="35" x="100.5" y="95.6074">name</text><text fill="#000000" font-family="sans-serif" font-size="14" lengthAdjust="spacing" textLength="33" x="100.5" y="114.2285">email</text><text fill="#000000" font-family="sans-serif" font-size="14" lengthAdjust="spacing" textLength="60" x="100.5" y="132.8496">password</text><text fill="#000000" font-family="sans-serif" font-size="14" lengthAdjust="spacing" textLength="40" x="100.5" y="151.4707">phone</text><line style="stroke:#181818;stroke-width:0.5;" x1="95.5" x2="200.5" y1="158.9844" y2="158.9844"/></g><!--class GreenSpaceRepository--><g id="elem_GreenSpaceRepository"><rect codeLine="38" fill="#F1F1F1" height="85.2422" id="GreenSpaceRepository" rx="2.5" ry="2.5" style="stroke:#181818;stroke-width:0.5;" width="448" x="255" y="667"/><ellipse cx="400.75" cy="683" fill="#ADD1B2" rx="11" ry="11" style="stroke:#181818;stroke-width:1.0;"/><path d="M403.5156,678.875 Q403.6719,678.6563 403.8594,678.5469 Q404.0469,678.4375 404.2656,678.4375 Q404.6406,678.4375 404.875,678.7031 Q405.1094,678.9531 405.1094,679.5625 L405.1094,681.0156 Q405.1094,681.625 404.875,681.8906 Q404.6406,682.1563 404.2656,682.1563 Q403.9219,682.1563 403.7188,681.9531 Q403.5156,681.7656 403.4063,681.25 Q403.3594,680.8906 403.1719,680.7031 Q402.8438,680.3281 402.2344,680.1094 Q401.625,679.8906 401,679.8906 Q400.2344,679.8906 399.5938,680.2188 Q398.9688,680.5469 398.4688,681.2969 Q397.9844,682.0469 397.9844,683.0781 L397.9844,684.1719 Q397.9844,685.4063 398.875,686.2344 Q399.7656,687.0469 401.3594,687.0469 Q402.2969,687.0469 402.9531,686.7969 Q403.3438,686.6406 403.7656,686.2031 Q404.0313,685.9375 404.1719,685.8594 Q404.3281,685.7813 404.5313,685.7813 Q404.8594,685.7813 405.1094,686.0469 Q405.375,686.2969 405.375,686.6406 Q405.375,686.9844 405.0313,687.3906 Q404.5313,687.9688 403.7344,688.2969 Q402.6563,688.75 401.3594,688.75 Q399.8438,688.75 398.6406,688.125 Q397.6563,687.625 396.9688,686.5625 Q396.2813,685.4844 396.2813,684.2031 L396.2813,683.0469 Q396.2813,681.7188 396.8906,680.5781 Q397.5156,679.4219 398.6094,678.8125 Q399.7031,678.1875 400.9375,678.1875 Q401.6719,678.1875 402.3125,678.3594 Q402.9688,678.5156 403.5156,678.875 Z " fill="#000000"/><text fill="#000000" font-family="sans-serif" font-size="14" lengthAdjust="spacing" textLength="148" x="421.25" y="688.7969">GreenSpaceRepository</text><line style="stroke:#181818;stroke-width:0.5;" x1="256" x2="702" y1="699" y2="699"/><text fill="#000000" font-family="sans-serif" font-size="14" lengthAdjust="spacing" textLength="260" x="261" y="718.1074">-ArrayList&lt;GreenSpace&gt; greenSpaceList</text><line style="stroke:#181818;stroke-width:0.5;" x1="256" x2="702" y1="725.6211" y2="725.6211"/><text fill="#000000" font-family="sans-serif" font-size="14" lengthAdjust="spacing" textLength="436" x="261" y="744.7285">+getGreenSpaceList(authenticationController.getCurrentUserEmail())</text></g><!--class Repositories--><g id="elem_Repositories"><rect codeLine="44" fill="#F1F1F1" height="122.4844" id="Repositories" rx="2.5" ry="2.5" style="stroke:#181818;stroke-width:0.5;" width="198" x="132" y="484"/><ellipse cx="187.25" cy="500" fill="#ADD1B2" rx="11" ry="11" style="stroke:#181818;stroke-width:1.0;"/><path d="M190.0156,495.875 Q190.1719,495.6563 190.3594,495.5469 Q190.5469,495.4375 190.7656,495.4375 Q191.1406,495.4375 191.375,495.7031 Q191.6094,495.9531 191.6094,496.5625 L191.6094,498.0156 Q191.6094,498.625 191.375,498.8906 Q191.1406,499.1563 190.7656,499.1563 Q190.4219,499.1563 190.2188,498.9531 Q190.0156,498.7656 189.9063,498.25 Q189.8594,497.8906 189.6719,497.7031 Q189.3438,497.3281 188.7344,497.1094 Q188.125,496.8906 187.5,496.8906 Q186.7344,496.8906 186.0938,497.2188 Q185.4688,497.5469 184.9688,498.2969 Q184.4844,499.0469 184.4844,500.0781 L184.4844,501.1719 Q184.4844,502.4063 185.375,503.2344 Q186.2656,504.0469 187.8594,504.0469 Q188.7969,504.0469 189.4531,503.7969 Q189.8438,503.6406 190.2656,503.2031 Q190.5313,502.9375 190.6719,502.8594 Q190.8281,502.7813 191.0313,502.7813 Q191.3594,502.7813 191.6094,503.0469 Q191.875,503.2969 191.875,503.6406 Q191.875,503.9844 191.5313,504.3906 Q191.0313,504.9688 190.2344,505.2969 Q189.1563,505.75 187.8594,505.75 Q186.3438,505.75 185.1406,505.125 Q184.1563,504.625 183.4688,503.5625 Q182.7813,502.4844 182.7813,501.2031 L182.7813,500.0469 Q182.7813,498.7188 183.3906,497.5781 Q184.0156,496.4219 185.1094,495.8125 Q186.2031,495.1875 187.4375,495.1875 Q188.1719,495.1875 188.8125,495.3594 Q189.4688,495.5156 190.0156,495.875 Z " fill="#000000"/><text fill="#000000" font-family="sans-serif" font-size="14" lengthAdjust="spacing" textLength="79" x="207.75" y="505.7969">Repositories</text><line style="stroke:#181818;stroke-width:0.5;" x1="133" x2="329" y1="516" y2="516"/><text fill="#000000" font-family="sans-serif" font-size="14" lengthAdjust="spacing" textLength="150" x="138" y="535.1074">-greenSpaceRepository</text><line style="stroke:#181818;stroke-width:0.5;" x1="133" x2="329" y1="542.6211" y2="542.6211"/><text fill="#000000" font-family="sans-serif" font-size="14" lengthAdjust="spacing" textLength="94" x="138" y="561.7285">-Repositories()</text><text fill="#000000" font-family="sans-serif" font-size="14" lengthAdjust="spacing" textLength="91" x="138" y="580.3496">+getInstance()</text><text fill="#000000" font-family="sans-serif" font-size="14" lengthAdjust="spacing" textLength="186" x="138" y="598.9707">+getGreenSpaceRepository()</text></g><!--class GreenSpaceMapper--><g id="elem_GreenSpaceMapper"><rect codeLine="53" fill="#F1F1F1" height="66.6211" id="GreenSpaceMapper" rx="2.5" ry="2.5" style="stroke:#181818;stroke-width:0.5;" width="224" x="675" y="310.5"/><ellipse cx="718.8" cy="326.5" fill="#ADD1B2" rx="11" ry="11" style="stroke:#181818;stroke-width:1.0;"/><path d="M721.5656,322.375 Q721.7219,322.1563 721.9094,322.0469 Q722.0969,321.9375 722.3156,321.9375 Q722.6906,321.9375 722.925,322.2031 Q723.1594,322.4531 723.1594,323.0625 L723.1594,324.5156 Q723.1594,325.125 722.925,325.3906 Q722.6906,325.6563 722.3156,325.6563 Q721.9719,325.6563 721.7688,325.4531 Q721.5656,325.2656 721.4563,324.75 Q721.4094,324.3906 721.2219,324.2031 Q720.8938,323.8281 720.2844,323.6094 Q719.675,323.3906 719.05,323.3906 Q718.2844,323.3906 717.6438,323.7188 Q717.0188,324.0469 716.5188,324.7969 Q716.0344,325.5469 716.0344,326.5781 L716.0344,327.6719 Q716.0344,328.9063 716.925,329.7344 Q717.8156,330.5469 719.4094,330.5469 Q720.3469,330.5469 721.0031,330.2969 Q721.3938,330.1406 721.8156,329.7031 Q722.0813,329.4375 722.2219,329.3594 Q722.3781,329.2813 722.5813,329.2813 Q722.9094,329.2813 723.1594,329.5469 Q723.425,329.7969 723.425,330.1406 Q723.425,330.4844 723.0813,330.8906 Q722.5813,331.4688 721.7844,331.7969 Q720.7063,332.25 719.4094,332.25 Q717.8938,332.25 716.6906,331.625 Q715.7063,331.125 715.0188,330.0625 Q714.3313,328.9844 714.3313,327.7031 L714.3313,326.5469 Q714.3313,325.2188 714.9406,324.0781 Q715.5656,322.9219 716.6594,322.3125 Q717.7531,321.6875 718.9875,321.6875 Q719.7219,321.6875 720.3625,321.8594 Q721.0188,322.0156 721.5656,322.375 Z " fill="#000000"/><text fill="#000000" font-family="sans-serif" font-size="14" lengthAdjust="spacing" textLength="128" x="739.2" y="332.2969">GreenSpaceMapper</text><line style="stroke:#181818;stroke-width:0.5;" x1="676" x2="898" y1="342.5" y2="342.5"/><line style="stroke:#181818;stroke-width:0.5;" x1="676" x2="898" y1="350.5" y2="350.5"/><text fill="#000000" font-family="sans-serif" font-size="14" lengthAdjust="spacing" textLength="212" x="681" y="369.6074">+toDTOList(greenSpaceListGSM)</text></g><!--class ListGreenSpacesController--><g id="elem_ListGreenSpacesController"><rect codeLine="60" fill="#F1F1F1" height="122.4844" id="ListGreenSpacesController" rx="2.5" ry="2.5" style="stroke:#181818;stroke-width:0.5;" width="317" x="166.5" y="283"/><ellipse cx="235.25" cy="299" fill="#ADD1B2" rx="11" ry="11" style="stroke:#181818;stroke-width:1.0;"/><path d="M238.0156,294.875 Q238.1719,294.6563 238.3594,294.5469 Q238.5469,294.4375 238.7656,294.4375 Q239.1406,294.4375 239.375,294.7031 Q239.6094,294.9531 239.6094,295.5625 L239.6094,297.0156 Q239.6094,297.625 239.375,297.8906 Q239.1406,298.1563 238.7656,298.1563 Q238.4219,298.1563 238.2188,297.9531 Q238.0156,297.7656 237.9063,297.25 Q237.8594,296.8906 237.6719,296.7031 Q237.3438,296.3281 236.7344,296.1094 Q236.125,295.8906 235.5,295.8906 Q234.7344,295.8906 234.0938,296.2188 Q233.4688,296.5469 232.9688,297.2969 Q232.4844,298.0469 232.4844,299.0781 L232.4844,300.1719 Q232.4844,301.4063 233.375,302.2344 Q234.2656,303.0469 235.8594,303.0469 Q236.7969,303.0469 237.4531,302.7969 Q237.8438,302.6406 238.2656,302.2031 Q238.5313,301.9375 238.6719,301.8594 Q238.8281,301.7813 239.0313,301.7813 Q239.3594,301.7813 239.6094,302.0469 Q239.875,302.2969 239.875,302.6406 Q239.875,302.9844 239.5313,303.3906 Q239.0313,303.9688 238.2344,304.2969 Q237.1563,304.75 235.8594,304.75 Q234.3438,304.75 233.1406,304.125 Q232.1563,303.625 231.4688,302.5625 Q230.7813,301.4844 230.7813,300.2031 L230.7813,299.0469 Q230.7813,297.7188 231.3906,296.5781 Q232.0156,295.4219 233.1094,294.8125 Q234.2031,294.1875 235.4375,294.1875 Q236.1719,294.1875 236.8125,294.3594 Q237.4688,294.5156 238.0156,294.875 Z " fill="#000000"/><text fill="#000000" font-family="sans-serif" font-size="14" lengthAdjust="spacing" textLength="171" x="255.75" y="304.7969">ListGreenSpacesController</text><line style="stroke:#181818;stroke-width:0.5;" x1="167.5" x2="482.5" y1="315" y2="315"/><text fill="#000000" font-family="sans-serif" font-size="14" lengthAdjust="spacing" textLength="305" x="172.5" y="334.1074">-GreenSpaceRepository GreenSpaceRepository</text><text fill="#000000" font-family="sans-serif" font-size="14" lengthAdjust="spacing" textLength="265" x="172.5" y="352.7285">-GreenSpaceMapper GreenSpaceMapper</text><line style="stroke:#181818;stroke-width:0.5;" x1="167.5" x2="482.5" y1="360.2422" y2="360.2422"/><text fill="#000000" font-family="sans-serif" font-size="14" lengthAdjust="spacing" textLength="177" x="172.5" y="379.3496">+getGreenSpaceDTOsList()</text><text fill="#000000" font-family="sans-serif" font-size="14" lengthAdjust="spacing" textLength="265" x="172.5" y="397.9707">+sortGreenSpaces(greenSpaceDTOsList)</text></g><!--class GreenSpaceUI--><g id="elem_GreenSpaceUI"><rect codeLine="70" fill="#F1F1F1" height="48" id="GreenSpaceUI" rx="2.5" ry="2.5" style="stroke:#181818;stroke-width:0.5;" width="124" x="7" y="320"/><ellipse cx="22" cy="336" fill="#ADD1B2" rx="11" ry="11" style="stroke:#181818;stroke-width:1.0;"/><path d="M24.7656,331.875 Q24.9219,331.6563 25.1094,331.5469 Q25.2969,331.4375 25.5156,331.4375 Q25.8906,331.4375 26.125,331.7031 Q26.3594,331.9531 26.3594,332.5625 L26.3594,334.0156 Q26.3594,334.625 26.125,334.8906 Q25.8906,335.1563 25.5156,335.1563 Q25.1719,335.1563 24.9688,334.9531 Q24.7656,334.7656 24.6563,334.25 Q24.6094,333.8906 24.4219,333.7031 Q24.0938,333.3281 23.4844,333.1094 Q22.875,332.8906 22.25,332.8906 Q21.4844,332.8906 20.8438,333.2188 Q20.2188,333.5469 19.7188,334.2969 Q19.2344,335.0469 19.2344,336.0781 L19.2344,337.1719 Q19.2344,338.4063 20.125,339.2344 Q21.0156,340.0469 22.6094,340.0469 Q23.5469,340.0469 24.2031,339.7969 Q24.5938,339.6406 25.0156,339.2031 Q25.2813,338.9375 25.4219,338.8594 Q25.5781,338.7813 25.7813,338.7813 Q26.1094,338.7813 26.3594,339.0469 Q26.625,339.2969 26.625,339.6406 Q26.625,339.9844 26.2813,340.3906 Q25.7813,340.9688 24.9844,341.2969 Q23.9063,341.75 22.6094,341.75 Q21.0938,341.75 19.8906,341.125 Q18.9063,340.625 18.2188,339.5625 Q17.5313,338.4844 17.5313,337.2031 L17.5313,336.0469 Q17.5313,334.7188 18.1406,333.5781 Q18.7656,332.4219 19.8594,331.8125 Q20.9531,331.1875 22.1875,331.1875 Q22.9219,331.1875 23.5625,331.3594 Q24.2188,331.5156 24.7656,331.875 Z " fill="#000000"/><text fill="#000000" font-family="sans-serif" font-size="14" lengthAdjust="spacing" textLength="92" x="36" y="341.7969">GreenSpaceUI</text><line style="stroke:#181818;stroke-width:0.5;" x1="8" x2="130" y1="352" y2="352"/><line style="stroke:#181818;stroke-width:0.5;" x1="8" x2="130" y1="360" y2="360"/></g><!--class SortingAlgorithm--><g id="elem_SortingAlgorithm"><rect codeLine="75" fill="#F1F1F1" height="66.6211" id="SortingAlgorithm" rx="2.5" ry="2.5" style="stroke:#181818;stroke-width:0.5;" width="181" x="972.5" y="310.5"/><ellipse cx="1007.75" cy="326.5" fill="#B4A7E5" rx="11" ry="11" style="stroke:#181818;stroke-width:1.0;"/><path d="M1008.7031,323.1406 L1008.7031,329.7969 L1010.4219,329.7969 Q1011.0313,329.7969 1011.2969,330.0313 Q1011.5625,330.2656 1011.5625,330.6563 Q1011.5625,331.0313 1011.2969,331.2656 Q1011.0313,331.5 1010.4219,331.5 L1005.2813,331.5 Q1004.6719,331.5 1004.4063,331.2656 Q1004.1406,331.0313 1004.1406,330.6406 Q1004.1406,330.2656 1004.4063,330.0313 Q1004.6719,329.7969 1005.2813,329.7969 L1007,329.7969 L1007,323.1406 L1005.2813,323.1406 Q1004.6719,323.1406 1004.4063,322.9063 Q1004.1406,322.6719 1004.1406,322.2813 Q1004.1406,321.9063 1004.4063,321.6719 Q1004.6719,321.4375 1005.2813,321.4375 L1010.4219,321.4375 Q1011.0313,321.4375 1011.2969,321.6719 Q1011.5625,321.9063 1011.5625,322.2813 Q1011.5625,322.6719 1011.2969,322.9063 Q1011.0313,323.1406 1010.4219,323.1406 L1008.7031,323.1406 Z " fill="#000000"/><text fill="#000000" font-family="sans-serif" font-size="14" font-style="italic" lengthAdjust="spacing" textLength="104" x="1026.25" y="332.2969">SortingAlgorithm</text><line style="stroke:#181818;stroke-width:0.5;" x1="973.5" x2="1152.5" y1="342.5" y2="342.5"/><line style="stroke:#181818;stroke-width:0.5;" x1="973.5" x2="1152.5" y1="350.5" y2="350.5"/><text fill="#000000" font-family="sans-serif" font-size="14" lengthAdjust="spacing" textLength="169" x="978.5" y="369.6074">+sort(GreenSpaceDTOlist)</text></g><!--class BubbleSort--><g id="elem_BubbleSort"><rect codeLine="79" fill="#F1F1F1" height="66.6211" id="BubbleSort" rx="2.5" ry="2.5" style="stroke:#181818;stroke-width:0.5;" width="181" x="864.5" y="511.5"/><ellipse cx="915.75" cy="527.5" fill="#ADD1B2" rx="11" ry="11" style="stroke:#181818;stroke-width:1.0;"/><path d="M918.5156,523.375 Q918.6719,523.1563 918.8594,523.0469 Q919.0469,522.9375 919.2656,522.9375 Q919.6406,522.9375 919.875,523.2031 Q920.1094,523.4531 920.1094,524.0625 L920.1094,525.5156 Q920.1094,526.125 919.875,526.3906 Q919.6406,526.6563 919.2656,526.6563 Q918.9219,526.6563 918.7188,526.4531 Q918.5156,526.2656 918.4063,525.75 Q918.3594,525.3906 918.1719,525.2031 Q917.8438,524.8281 917.2344,524.6094 Q916.625,524.3906 916,524.3906 Q915.2344,524.3906 914.5938,524.7188 Q913.9688,525.0469 913.4688,525.7969 Q912.9844,526.5469 912.9844,527.5781 L912.9844,528.6719 Q912.9844,529.9063 913.875,530.7344 Q914.7656,531.5469 916.3594,531.5469 Q917.2969,531.5469 917.9531,531.2969 Q918.3438,531.1406 918.7656,530.7031 Q919.0313,530.4375 919.1719,530.3594 Q919.3281,530.2813 919.5313,530.2813 Q919.8594,530.2813 920.1094,530.5469 Q920.375,530.7969 920.375,531.1406 Q920.375,531.4844 920.0313,531.8906 Q919.5313,532.4688 918.7344,532.7969 Q917.6563,533.25 916.3594,533.25 Q914.8438,533.25 913.6406,532.625 Q912.6563,532.125 911.9688,531.0625 Q911.2813,529.9844 911.2813,528.7031 L911.2813,527.5469 Q911.2813,526.2188 911.8906,525.0781 Q912.5156,523.9219 913.6094,523.3125 Q914.7031,522.6875 915.9375,522.6875 Q916.6719,522.6875 917.3125,522.8594 Q917.9688,523.0156 918.5156,523.375 Z " fill="#000000"/><text fill="#000000" font-family="sans-serif" font-size="14" lengthAdjust="spacing" textLength="70" x="936.25" y="533.2969">BubbleSort</text><line style="stroke:#181818;stroke-width:0.5;" x1="865.5" x2="1044.5" y1="543.5" y2="543.5"/><line style="stroke:#181818;stroke-width:0.5;" x1="865.5" x2="1044.5" y1="551.5" y2="551.5"/><text fill="#000000" font-family="sans-serif" font-size="14" lengthAdjust="spacing" textLength="169" x="870.5" y="570.6074">+sort(GreenSpaceDTOlist)</text></g><!--class SelectionSort--><g id="elem_SelectionSort"><rect codeLine="83" fill="#F1F1F1" height="66.6211" id="SelectionSort" rx="2.5" ry="2.5" style="stroke:#181818;stroke-width:0.5;" width="181" x="1080.5" y="511.5"/><ellipse cx="1124.75" cy="527.5" fill="#ADD1B2" rx="11" ry="11" style="stroke:#181818;stroke-width:1.0;"/><path d="M1127.5156,523.375 Q1127.6719,523.1563 1127.8594,523.0469 Q1128.0469,522.9375 1128.2656,522.9375 Q1128.6406,522.9375 1128.875,523.2031 Q1129.1094,523.4531 1129.1094,524.0625 L1129.1094,525.5156 Q1129.1094,526.125 1128.875,526.3906 Q1128.6406,526.6563 1128.2656,526.6563 Q1127.9219,526.6563 1127.7188,526.4531 Q1127.5156,526.2656 1127.4063,525.75 Q1127.3594,525.3906 1127.1719,525.2031 Q1126.8438,524.8281 1126.2344,524.6094 Q1125.625,524.3906 1125,524.3906 Q1124.2344,524.3906 1123.5938,524.7188 Q1122.9688,525.0469 1122.4688,525.7969 Q1121.9844,526.5469 1121.9844,527.5781 L1121.9844,528.6719 Q1121.9844,529.9063 1122.875,530.7344 Q1123.7656,531.5469 1125.3594,531.5469 Q1126.2969,531.5469 1126.9531,531.2969 Q1127.3438,531.1406 1127.7656,530.7031 Q1128.0313,530.4375 1128.1719,530.3594 Q1128.3281,530.2813 1128.5313,530.2813 Q1128.8594,530.2813 1129.1094,530.5469 Q1129.375,530.7969 1129.375,531.1406 Q1129.375,531.4844 1129.0313,531.8906 Q1128.5313,532.4688 1127.7344,532.7969 Q1126.6563,533.25 1125.3594,533.25 Q1123.8438,533.25 1122.6406,532.625 Q1121.6563,532.125 1120.9688,531.0625 Q1120.2813,529.9844 1120.2813,528.7031 L1120.2813,527.5469 Q1120.2813,526.2188 1120.8906,525.0781 Q1121.5156,523.9219 1122.6094,523.3125 Q1123.7031,522.6875 1124.9375,522.6875 Q1125.6719,522.6875 1126.3125,522.8594 Q1126.9688,523.0156 1127.5156,523.375 Z " fill="#000000"/><text fill="#000000" font-family="sans-serif" font-size="14" lengthAdjust="spacing" textLength="84" x="1145.25" y="533.2969">SelectionSort</text><line style="stroke:#181818;stroke-width:0.5;" x1="1081.5" x2="1260.5" y1="543.5" y2="543.5"/><line style="stroke:#181818;stroke-width:0.5;" x1="1081.5" x2="1260.5" y1="551.5" y2="551.5"/><text fill="#000000" font-family="sans-serif" font-size="14" lengthAdjust="spacing" textLength="169" x="1086.5" y="570.6074">+sort(GreenSpaceDTOlist)</text></g><!--class ApplicationSession--><g id="elem_ApplicationSession"><rect codeLine="88" fill="#F1F1F1" height="159.7266" id="ApplicationSession" rx="2.5" ry="2.5" style="stroke:#181818;stroke-width:0.5;" width="340" x="893" y="25.5"/><ellipse cx="999.25" cy="41.5" fill="#ADD1B2" rx="11" ry="11" style="stroke:#181818;stroke-width:1.0;"/><path d="M1002.0156,37.375 Q1002.1719,37.1563 1002.3594,37.0469 Q1002.5469,36.9375 1002.7656,36.9375 Q1003.1406,36.9375 1003.375,37.2031 Q1003.6094,37.4531 1003.6094,38.0625 L1003.6094,39.5156 Q1003.6094,40.125 1003.375,40.3906 Q1003.1406,40.6563 1002.7656,40.6563 Q1002.4219,40.6563 1002.2188,40.4531 Q1002.0156,40.2656 1001.9063,39.75 Q1001.8594,39.3906 1001.6719,39.2031 Q1001.3438,38.8281 1000.7344,38.6094 Q1000.125,38.3906 999.5,38.3906 Q998.7344,38.3906 998.0938,38.7188 Q997.4688,39.0469 996.9688,39.7969 Q996.4844,40.5469 996.4844,41.5781 L996.4844,42.6719 Q996.4844,43.9063 997.375,44.7344 Q998.2656,45.5469 999.8594,45.5469 Q1000.7969,45.5469 1001.4531,45.2969 Q1001.8438,45.1406 1002.2656,44.7031 Q1002.5313,44.4375 1002.6719,44.3594 Q1002.8281,44.2813 1003.0313,44.2813 Q1003.3594,44.2813 1003.6094,44.5469 Q1003.875,44.7969 1003.875,45.1406 Q1003.875,45.4844 1003.5313,45.8906 Q1003.0313,46.4688 1002.2344,46.7969 Q1001.1563,47.25 999.8594,47.25 Q998.3438,47.25 997.1406,46.625 Q996.1563,46.125 995.4688,45.0625 Q994.7813,43.9844 994.7813,42.7031 L994.7813,41.5469 Q994.7813,40.2188 995.3906,39.0781 Q996.0156,37.9219 997.1094,37.3125 Q998.2031,36.6875 999.4375,36.6875 Q1000.1719,36.6875 1000.8125,36.8594 Q1001.4688,37.0156 1002.0156,37.375 Z " fill="#000000"/><text fill="#000000" font-family="sans-serif" font-size="14" lengthAdjust="spacing" textLength="119" x="1019.75" y="47.2969">ApplicationSession</text><line style="stroke:#181818;stroke-width:0.5;" x1="894" x2="1232" y1="57.5" y2="57.5"/><text fill="#000000" font-family="sans-serif" font-size="14" lengthAdjust="spacing" textLength="328" x="899" y="76.6074">-authenticationRepository: AuthenticationRepository</text><text fill="#000000" font-family="sans-serif" font-size="14" lengthAdjust="spacing" textLength="197" x="899" y="95.2285">-emailService: SortingAlgorithm</text><text fill="#000000" font-family="sans-serif" font-size="14" lengthAdjust="spacing" textLength="193" x="899" y="113.8496">-CONFIGURATION_FILENAME</text><text fill="#000000" font-family="sans-serif" font-size="14" lengthAdjust="spacing" textLength="173" x="899" y="132.4707">-COMPANY_DESIGNATION</text><line style="stroke:#181818;stroke-width:0.5;" x1="894" x2="1232" y1="139.9844" y2="139.9844"/><text fill="#000000" font-family="sans-serif" font-size="14" lengthAdjust="spacing" textLength="173" x="899" y="159.0918">-getProperties(): Properties</text><text fill="#000000" font-family="sans-serif" font-size="14" lengthAdjust="spacing" textLength="142" x="899" y="177.7129">+getSortingAlgorithm()</text></g><!--class GSM--><g id="elem_GSM"><rect fill="#F1F1F1" height="48" id="GSM" rx="2.5" ry="2.5" style="stroke:#181818;stroke-width:0.5;" width="63" x="236.5" y="81.5"/><ellipse cx="251.5" cy="97.5" fill="#ADD1B2" rx="11" ry="11" style="stroke:#181818;stroke-width:1.0;"/><path d="M254.2656,93.375 Q254.4219,93.1563 254.6094,93.0469 Q254.7969,92.9375 255.0156,92.9375 Q255.3906,92.9375 255.625,93.2031 Q255.8594,93.4531 255.8594,94.0625 L255.8594,95.5156 Q255.8594,96.125 255.625,96.3906 Q255.3906,96.6563 255.0156,96.6563 Q254.6719,96.6563 254.4688,96.4531 Q254.2656,96.2656 254.1563,95.75 Q254.1094,95.3906 253.9219,95.2031 Q253.5938,94.8281 252.9844,94.6094 Q252.375,94.3906 251.75,94.3906 Q250.9844,94.3906 250.3438,94.7188 Q249.7188,95.0469 249.2188,95.7969 Q248.7344,96.5469 248.7344,97.5781 L248.7344,98.6719 Q248.7344,99.9063 249.625,100.7344 Q250.5156,101.5469 252.1094,101.5469 Q253.0469,101.5469 253.7031,101.2969 Q254.0938,101.1406 254.5156,100.7031 Q254.7813,100.4375 254.9219,100.3594 Q255.0781,100.2813 255.2813,100.2813 Q255.6094,100.2813 255.8594,100.5469 Q256.125,100.7969 256.125,101.1406 Q256.125,101.4844 255.7813,101.8906 Q255.2813,102.4688 254.4844,102.7969 Q253.4063,103.25 252.1094,103.25 Q250.5938,103.25 249.3906,102.625 Q248.4063,102.125 247.7188,101.0625 Q247.0313,99.9844 247.0313,98.7031 L247.0313,97.5469 Q247.0313,96.2188 247.6406,95.0781 Q248.2656,93.9219 249.3594,93.3125 Q250.4531,92.6875 251.6875,92.6875 Q252.4219,92.6875 253.0625,92.8594 Q253.7188,93.0156 254.2656,93.375 Z " fill="#000000"/><text fill="#000000" font-family="sans-serif" font-size="14" lengthAdjust="spacing" textLength="31" x="265.5" y="103.2969">GSM</text><line style="stroke:#181818;stroke-width:0.5;" x1="237.5" x2="298.5" y1="113.5" y2="113.5"/><line style="stroke:#181818;stroke-width:0.5;" x1="237.5" x2="298.5" y1="121.5" y2="121.5"/></g><!--reverse link SortingAlgorithm to BubbleSort--><g id="link_SortingAlgorithm_BubbleSort"><path d="M1036.584,393.6802 C1016.514,430.6602 992.69,474.56 972.68,511.42 " fill="none" id="SortingAlgorithm-backto-BubbleSort" style="stroke:#181818;stroke-width:1.0;stroke-dasharray:7.0,7.0;"/><polygon fill="none" points="1045.17,377.86,1031.3105,390.8182,1041.8574,396.5422,1045.17,377.86" style="stroke:#181818;stroke-width:1.0;"/></g><!--reverse link SortingAlgorithm to SelectionSort--><g id="link_SortingAlgorithm_SelectionSort"><path d="M1089.416,393.6802 C1109.486,430.6602 1133.31,474.56 1153.32,511.42 " fill="none" id="SortingAlgorithm-backto-SelectionSort" style="stroke:#181818;stroke-width:1.0;stroke-dasharray:7.0,7.0;"/><polygon fill="none" points="1080.83,377.86,1084.1426,396.5422,1094.6895,390.8182,1080.83,377.86" style="stroke:#181818;stroke-width:1.0;"/></g><!--link GreenSpaceUI to ListGreenSpacesController--><g id="link_GreenSpaceUI_ListGreenSpacesController"><path codeLine="101" d="M131.02,344 C144.25,344 154.33,344 154.33,344 C154.33,344 153.02,344 160.2,344 " fill="none" id="GreenSpaceUI-to-ListGreenSpacesController" style="stroke:#181818;stroke-width:1.0;stroke-dasharray:7.0,7.0;"/><polygon fill="#181818" points="166.2,344,157.2,340,161.2,344,157.2,348,166.2,344" style="stroke:#181818;stroke-width:1.0;"/></g><!--link ListGreenSpacesController to Repositories--><g id="link_ListGreenSpacesController_Repositories"><path codeLine="102" d="M296.54,405.25 C284.76,430.18 273.6924,453.6147 261.9224,478.5347 " fill="none" id="ListGreenSpacesController-to-Repositories" style="stroke:#181818;stroke-width:1.0;stroke-dasharray:7.0,7.0;"/><polygon fill="#181818" points="259.36,483.96,266.8205,477.5303,261.4954,479.4389,259.5868,474.1138,259.36,483.96" style="stroke:#181818;stroke-width:1.0;"/><text fill="#000000" font-family="sans-serif" font-size="13" lengthAdjust="spacing" textLength="67" x="282" y="450.0283">repositories</text></g><!--link Repositories to GreenSpaceRepository--><g id="link_Repositories_GreenSpaceRepository"><path codeLine="103" d="M322.64,606.05 C353.55,626.3 382.3211,645.1521 410.5611,663.6521 " fill="none" id="Repositories-to-GreenSpaceRepository" style="stroke:#181818;stroke-width:1.0;"/><polygon fill="#181818" points="415.58,666.94,410.2435,658.6622,411.3976,664.2001,405.8597,665.3541,415.58,666.94" style="stroke:#181818;stroke-width:1.0;"/><text fill="#000000" font-family="sans-serif" font-size="13" lengthAdjust="spacing" textLength="7" x="397.9146" y="655.8345">1</text></g><!--link Repositories to Repositories--><g id="link_Repositories_Repositories"><path codeLine="104" d="M330.05,528.74 C350.4,530.48 365,535.9 365,545 C365,554.1 356.3782,559.0088 336.0282,560.7488 " fill="none" id="Repositories-to-Repositories" style="stroke:#181818;stroke-width:1.0;"/><polygon fill="#181818" points="330.05,561.26,339.3581,564.4787,335.0318,560.834,338.6765,556.5078,330.05,561.26" style="stroke:#181818;stroke-width:1.0;"/><text fill="#000000" font-family="sans-serif" font-size="13" lengthAdjust="spacing" textLength="49" x="371" y="550.5283">instance</text></g><!--link ListGreenSpacesController to GreenSpaceMapper--><g id="link_ListGreenSpacesController_GreenSpaceMapper"><path codeLine="105" d="M442.58,282.93 C483.1,261.89 518.5,243.5 518.5,243.5 C518.5,243.5 639.5,243.5 639.5,243.5 C639.5,243.5 689.6618,277.6812 732.5118,306.8812 " fill="none" id="ListGreenSpacesController-to-GreenSpaceMapper" style="stroke:#181818;stroke-width:1.0;stroke-dasharray:7.0,7.0;"/><polygon fill="#181818" points="737.47,310.26,732.2852,301.8864,733.3381,307.4444,727.7802,308.4973,737.47,310.26" style="stroke:#181818;stroke-width:1.0;"/></g><!--link ListGreenSpacesController to GreenSpace--><g id="link_ListGreenSpacesController_GreenSpace"><path codeLine="106" d="M483.61,344 C490.14,344 494.33,344 494.33,344 C494.33,344 498.8,344 512.37,344 " fill="none" id="ListGreenSpacesController-to-GreenSpace" style="stroke:#181818;stroke-width:1.0;stroke-dasharray:7.0,7.0;"/><polygon fill="#181818" points="518.37,344,509.37,340,513.37,344,509.37,348,518.37,344" style="stroke:#181818;stroke-width:1.0;"/></g><!--link ListGreenSpacesController to GreenSpaceRepository--><g id="link_ListGreenSpacesController_GreenSpaceRepository"><path codeLine="107" d="M368.71,405.16 C396.01,442.73 426,484 426,484 C426,484 452.4511,596.0406 467.7811,660.9606 " fill="none" id="ListGreenSpacesController-to-GreenSpaceRepository" style="stroke:#181818;stroke-width:1.0;"/><polygon fill="#181818" points="469.16,666.8,470.9846,657.1216,468.0109,661.9338,463.1987,658.9602,469.16,666.8" style="stroke:#181818;stroke-width:1.0;"/><text fill="#000000" font-family="sans-serif" font-size="13" lengthAdjust="spacing" textLength="28" x="456" y="550.5283">uses</text></g><!--reverse link SystemUser to GSM--><g id="link_SystemUser_GSM"><path codeLine="109" d="M219.54,105.5 C231.15,105.5 228,105.5 228,105.5 C228,105.5 231.53,105.5 236.48,105.5 " fill="none" id="SystemUser-backto-GSM" style="stroke:#181818;stroke-width:1.0;"/><polygon fill="none" points="201.54,105.5,219.54,111.5,219.54,99.5,201.54,105.5" style="stroke:#181818;stroke-width:1.0;"/></g><!--link GSM to GreenSpaceUI--><g id="link_GSM_GreenSpaceUI"><path codeLine="112" d="M256.39,129.61 C241.9,158.44 219,204 219,204 C219,204 136.81,280.16 94.11,319.73 " fill="none" id="GSM-GreenSpaceUI" style="stroke:#181818;stroke-width:1.0;"/><text fill="#000000" font-family="sans-serif" font-size="13" lengthAdjust="spacing" textLength="7" x="245.7069" y="151.6225">1</text><text fill="#000000" font-family="sans-serif" font-size="13" lengthAdjust="spacing" textLength="7" x="92.3774" y="308.8061">1</text></g><!--reverse link GreenSpace to GreenSpaceRepository--><g id="link_GreenSpace_GreenSpaceRepository"><path codeLine="113" d="M563.3133,411.0476 C545.0033,488.1276 517,606 517,606 C517,606 504.98,638.43 494.46,666.81 " fill="none" id="GreenSpace-backto-GreenSpaceRepository" style="stroke:#181818;stroke-width:1.0;"/><polygon fill="#181818" points="564.7,405.21,558.7283,413.0419,563.5444,410.0746,566.5117,414.8908,564.7,405.21" style="stroke:#181818;stroke-width:1.0;"/><text fill="#000000" font-family="sans-serif" font-size="13" lengthAdjust="spacing" textLength="36" x="547" y="550.5283">stores</text><text fill="#000000" font-family="sans-serif" font-size="13" lengthAdjust="spacing" textLength="5" x="557.6525" y="427.7224">*</text><text fill="#000000" font-family="sans-serif" font-size="13" lengthAdjust="spacing" textLength="7" x="489.3661" y="655.6838">1</text></g><!--link GSM to GreenSpace--><g id="link_GSM_GreenSpace"><path codeLine="114" d="M298.46,129.57 C361.62,177.42 501,283 501,283 C501,283 508.24,288.57 518.31,296.32 " fill="none" id="GSM-GreenSpace" style="stroke:#181818;stroke-width:1.0;"/><polygon fill="#000000" points="465.9837,246.6671,460.5531,238.8594,457.0011,243.5426,465.9837,246.6671" style="stroke:#000000;stroke-width:1.0;"/><text fill="#000000" font-family="sans-serif" font-size="13" lengthAdjust="spacing" textLength="53" x="471" y="249.0283">manages</text><text fill="#000000" font-family="sans-serif" font-size="13" lengthAdjust="spacing" textLength="7" x="298.0315" y="151.5727">1</text><text fill="#000000" font-family="sans-serif" font-size="13" lengthAdjust="spacing" textLength="5" x="505.6087" y="286.4896">*</text></g><!--reverse link GreenSpaceDTO to GreenSpaceMapper--><g id="link_GreenSpaceDTO_GreenSpaceMapper"><path codeLine="115" d="M787,210.06 C787,247.98 787,282.82 787,310.34 " fill="none" id="GreenSpaceDTO-backto-GreenSpaceMapper" style="stroke:#181818;stroke-width:1.0;"/><polygon fill="#181818" points="787,204.06,783,213.06,787,209.06,791,213.06,787,204.06" style="stroke:#181818;stroke-width:1.0;"/><text fill="#000000" font-family="sans-serif" font-size="13" lengthAdjust="spacing" textLength="43" x="788" y="249.0283">creates</text><text fill="#000000" font-family="sans-serif" font-size="13" lengthAdjust="spacing" textLength="5" x="781.8164" y="225.9624">*</text><text fill="#000000" font-family="sans-serif" font-size="13" lengthAdjust="spacing" textLength="7" x="779.3109" y="299.134">1</text></g><!--link ApplicationSession to SortingAlgorithm--><g id="link_ApplicationSession_SortingAlgorithm"><path codeLine="118" d="M1063,185.58 C1063,228.15 1063,272.35 1063,304.41 " fill="none" id="ApplicationSession-to-SortingAlgorithm" style="stroke:#181818;stroke-width:1.0;stroke-dasharray:7.0,7.0;"/><polygon fill="#181818" points="1063,310.41,1067,301.41,1063,305.41,1059,301.41,1063,310.41" style="stroke:#181818;stroke-width:1.0;"/></g><!--SRC=[hLLTRvim57tthx3oigHLgkqrgYAn9esGchGgoQGzLIwv9LODHhPPnpx- -wuD0HD8DMdhGmFt7X-VStqlrgyyovbYAOq5qpemHl7dma0OoopYFu1-91zqWqbb9kE3aYbGemeWRIPdyIjB83Ab0AeWDYnBX0_G1xQNRpnBw0iJsiy8de4fSw2v5ALzyNTiab8PwIqwgvQu35qfW2n2LK1_4ef_IHFO8fqBPIoj7fW2vXuWPLoieZKXl_j4Y-qzSZdSdXauOQtYe6F5SyDbLl5zpx4Ki5yKYZN1GYMGnUK2xE8AbXbLHeQPGbTwj9OnnptsMs3fIUWB77WiG7iQer8RI7SQL6ssSUOCkQSSWMzIxQkNWyGou_gUoKV8fUP6ghAccj90ALRUSMskMzZSSsvJ3dgPW5brmcDMc0Ewux6pVoFHg1G2r1L2RmgbC6TbBwtCyMJYUMg4SD2Db6H09wbp_eBnf194SPimqzYCCVYn8R_ZoU2fhrcUkxgwrOx0I6m5PwzR16oSYgCcSR46eLltZP_1kWy5U_XQrcc0a86JGBNQoQqhe76MF5sUYoDok1Ixq9R1-kEP0VLYXoj2BXpgG2HOU7D8QskNr6uoxcWGZhZX_LmyFmkmwobFSm4fzeB-1xu81CuQTjd_eAmvWpmNTUz6e3N-r2VNxUlsd6OqE9CvjW-TkfcCG7tZCSnwwbhSpVtcDbpj7eDjUBzvkWtlbfjWlVJpwuTWy_LfiOp2rSQXI9l53dXG4bl2k7cOqVQj0TasETr_NFadf7FkL_FptKpEz_aLhkiCyWplXlQLT7BJwPoEFes6-x-BxB7oUiZVqpBlJyjVej_1MT63KpoZXROVQU_RVFqB9zXUBWJ_EwlJwOdZNUZLdOukHlIwX-biel4Njq728z-5ZvtHb6LuBsiw9zsRR9Yx_gpCQ8nNeh7wINy6tB7s-lOF]--></g></svg>