<?xml version="1.0" encoding="us-ascii" standalone="no"?><svg xmlns="http://www.w3.org/2000/svg" xmlns:xlink="http://www.w3.org/1999/xlink" contentStyleType="text/css" height="812px" preserveAspectRatio="none" style="width:1925px;height:812px;background:#FFFFFF;" version="1.1" viewBox="0 0 1925 812" width="1925px" zoomAndPan="magnify"><defs/><g><rect fill="#FFFFFF" height="617.5195" style="stroke:#181818;stroke-width:1.0;" width="10" x="18.5" y="93.6211"/><rect fill="#FFFFFF" height="594.2285" style="stroke:#181818;stroke-width:1.0;" width="10" x="226.5" y="116.9121"/><rect fill="#FFFFFF" height="347.5703" style="stroke:#181818;stroke-width:1.0;" width="10" x="505.5" y="191.8242"/><rect fill="#FFFFFF" height="31.291" style="stroke:#181818;stroke-width:1.0;" width="10" x="505.5" y="562.6855"/><rect fill="#FFFFFF" height="94.873" style="stroke:#181818;stroke-width:1.0;" width="10" x="505.5" y="625.2676"/><rect fill="#FFFFFF" height="31.291" style="stroke:#181818;stroke-width:1.0;" width="10" x="656.5" y="266.7363"/><rect fill="#FFFFFF" height="31.291" style="stroke:#181818;stroke-width:1.0;" width="10" x="763.5" y="329.3184"/><rect fill="#FFFFFF" height="31.291" style="stroke:#181818;stroke-width:1.0;" width="10" x="932.5" y="391.9004"/><rect fill="#FFFFFF" height="108.2031" style="stroke:#181818;stroke-width:1.0;" width="10" x="1096.5" y="454.4824"/><rect fill="none" height="62.9121" style="stroke:#000000;stroke-width:1.5;" width="490" x="1020.5" y="469.4824"/><line style="stroke:#181818;stroke-width:0.5;stroke-dasharray:5.0,5.0;" x1="23" x2="23" y1="83.6211" y2="729.1406"/><line style="stroke:#181818;stroke-width:0.5;stroke-dasharray:5.0,5.0;" x1="231.5" x2="231.5" y1="83.6211" y2="729.1406"/><line style="stroke:#181818;stroke-width:0.5;stroke-dasharray:5.0,5.0;" x1="510" x2="510" y1="156.7227" y2="729.1406"/><line style="stroke:#181818;stroke-width:0.5;stroke-dasharray:5.0,5.0;" x1="661" x2="661" y1="83.6211" y2="729.1406"/><line style="stroke:#181818;stroke-width:0.5;stroke-dasharray:5.0,5.0;" x1="768" x2="768" y1="83.6211" y2="729.1406"/><line style="stroke:#181818;stroke-width:0.5;stroke-dasharray:5.0,5.0;" x1="937.5" x2="937.5" y1="83.6211" y2="729.1406"/><line style="stroke:#181818;stroke-width:0.5;stroke-dasharray:5.0,5.0;" x1="1101.5" x2="1101.5" y1="231.6348" y2="729.1406"/><line style="stroke:#181818;stroke-width:0.5;stroke-dasharray:5.0,5.0;" x1="1438.5" x2="1438.5" y1="520.584" y2="729.1406"/><line style="stroke:#181818;stroke-width:0.5;stroke-dasharray:5.0,5.0;" x1="1572.5" x2="1572.5" y1="83.6211" y2="729.1406"/><text fill="#000000" font-family="sans-serif" font-size="14" lengthAdjust="spacing" textLength="31" x="5" y="80.1074">GSM</text><ellipse cx="23.5" cy="13.5" fill="#E3E3E3" rx="8" ry="8" style="stroke:#181818;stroke-width:0.5;"/><path d="M23.5,21.5 L23.5,48.5 M10.5,29.5 L36.5,29.5 M23.5,48.5 L10.5,63.5 M23.5,48.5 L36.5,63.5 " fill="none" style="stroke:#181818;stroke-width:0.5;"/><text fill="#000000" font-family="sans-serif" font-size="14" lengthAdjust="spacing" textLength="31" x="5" y="743.248">GSM</text><ellipse cx="23.5" cy="755.2617" fill="#E3E3E3" rx="8" ry="8" style="stroke:#181818;stroke-width:0.5;"/><path d="M23.5,763.2617 L23.5,790.2617 M10.5,771.2617 L36.5,771.2617 M23.5,790.2617 L10.5,805.2617 M23.5,790.2617 L36.5,805.2617 " fill="none" style="stroke:#181818;stroke-width:0.5;"/><rect fill="#E3E3E3" height="32.6211" rx="2.5" ry="2.5" style="stroke:#181818;stroke-width:0.5;" width="110" x="176.5" y="50"/><text fill="#000000" font-family="sans-serif" font-size="14" lengthAdjust="spacing" textLength="96" x="183.5" y="72.1074">:GreenSpaceUI</text><rect fill="#E3E3E3" height="32.6211" rx="2.5" ry="2.5" style="stroke:#181818;stroke-width:0.5;" width="110" x="176.5" y="728.1406"/><text fill="#000000" font-family="sans-serif" font-size="14" lengthAdjust="spacing" textLength="96" x="183.5" y="750.248">:GreenSpaceUI</text><rect fill="#E3E3E3" height="32.6211" rx="2.5" ry="2.5" style="stroke:#181818;stroke-width:0.5;" width="185" x="418" y="728.1406"/><text fill="#000000" font-family="sans-serif" font-size="14" lengthAdjust="spacing" textLength="171" x="425" y="750.248">ListGreenSpacesController</text><rect fill="#E3E3E3" height="32.6211" rx="2.5" ry="2.5" style="stroke:#181818;stroke-width:0.5;" width="97" x="613" y="50"/><text fill="#000000" font-family="sans-serif" font-size="14" lengthAdjust="spacing" textLength="83" x="620" y="72.1074">:Repositories</text><rect fill="#E3E3E3" height="32.6211" rx="2.5" ry="2.5" style="stroke:#181818;stroke-width:0.5;" width="97" x="613" y="728.1406"/><text fill="#000000" font-family="sans-serif" font-size="14" lengthAdjust="spacing" textLength="83" x="620" y="750.248">:Repositories</text><rect fill="#E3E3E3" height="51.2422" rx="2.5" ry="2.5" style="stroke:#181818;stroke-width:0.5;" width="97" x="720" y="31.3789"/><text fill="#000000" font-family="sans-serif" font-size="14" lengthAdjust="spacing" textLength="74" x="731.5" y="53.4863">repositories</text><text fill="#000000" font-family="sans-serif" font-size="14" lengthAdjust="spacing" textLength="83" x="727" y="72.1074">:Repositories</text><rect fill="#E3E3E3" height="51.2422" rx="2.5" ry="2.5" style="stroke:#181818;stroke-width:0.5;" width="97" x="720" y="728.1406"/><text fill="#000000" font-family="sans-serif" font-size="14" lengthAdjust="spacing" textLength="74" x="731.5" y="750.248">repositories</text><text fill="#000000" font-family="sans-serif" font-size="14" lengthAdjust="spacing" textLength="83" x="727" y="768.8691">:Repositories</text><rect fill="#E3E3E3" height="51.2422" rx="2.5" ry="2.5" style="stroke:#181818;stroke-width:0.5;" width="166" x="854.5" y="31.3789"/><text fill="#000000" font-family="sans-serif" font-size="14" lengthAdjust="spacing" textLength="149" x="863" y="53.4863">greenSpaceRepository:</text><text fill="#000000" font-family="sans-serif" font-size="14" lengthAdjust="spacing" textLength="148" x="865.5" y="72.1074">GreenSpaceRepository</text><rect fill="#E3E3E3" height="51.2422" rx="2.5" ry="2.5" style="stroke:#181818;stroke-width:0.5;" width="166" x="854.5" y="728.1406"/><text fill="#000000" font-family="sans-serif" font-size="14" lengthAdjust="spacing" textLength="149" x="863" y="750.248">greenSpaceRepository:</text><text fill="#000000" font-family="sans-serif" font-size="14" lengthAdjust="spacing" textLength="148" x="865.5" y="768.8691">GreenSpaceRepository</text><rect fill="#E3E3E3" height="32.6211" rx="2.5" ry="2.5" style="stroke:#181818;stroke-width:0.5;" width="142" x="1030.5" y="728.1406"/><text fill="#000000" font-family="sans-serif" font-size="14" lengthAdjust="spacing" textLength="128" x="1037.5" y="750.248">GreenSpaceMapper</text><rect fill="#E3E3E3" height="32.6211" rx="2.5" ry="2.5" style="stroke:#181818;stroke-width:0.5;" width="124" x="1376.5" y="728.1406"/><text fill="#000000" font-family="sans-serif" font-size="14" lengthAdjust="spacing" textLength="110" x="1383.5" y="750.248">GreenSpaceDTO</text><rect fill="#E3E3E3" height="32.6211" rx="2.5" ry="2.5" style="stroke:#181818;stroke-width:0.5;" width="125" x="1510.5" y="50"/><text fill="#000000" font-family="sans-serif" font-size="14" lengthAdjust="spacing" textLength="111" x="1517.5" y="72.1074">AplicationSession</text><rect fill="#E3E3E3" height="32.6211" rx="2.5" ry="2.5" style="stroke:#181818;stroke-width:0.5;" width="125" x="1510.5" y="728.1406"/><text fill="#000000" font-family="sans-serif" font-size="14" lengthAdjust="spacing" textLength="111" x="1517.5" y="750.248">AplicationSession</text><rect fill="#FFFFFF" height="617.5195" style="stroke:#181818;stroke-width:1.0;" width="10" x="18.5" y="93.6211"/><rect fill="#FFFFFF" height="594.2285" style="stroke:#181818;stroke-width:1.0;" width="10" x="226.5" y="116.9121"/><rect fill="#FFFFFF" height="347.5703" style="stroke:#181818;stroke-width:1.0;" width="10" x="505.5" y="191.8242"/><rect fill="#FFFFFF" height="31.291" style="stroke:#181818;stroke-width:1.0;" width="10" x="505.5" y="562.6855"/><rect fill="#FFFFFF" height="94.873" style="stroke:#181818;stroke-width:1.0;" width="10" x="505.5" y="625.2676"/><rect fill="#FFFFFF" height="31.291" style="stroke:#181818;stroke-width:1.0;" width="10" x="656.5" y="266.7363"/><rect fill="#FFFFFF" height="31.291" style="stroke:#181818;stroke-width:1.0;" width="10" x="763.5" y="329.3184"/><rect fill="#FFFFFF" height="31.291" style="stroke:#181818;stroke-width:1.0;" width="10" x="932.5" y="391.9004"/><rect fill="#FFFFFF" height="108.2031" style="stroke:#181818;stroke-width:1.0;" width="10" x="1096.5" y="454.4824"/><polygon fill="#181818" points="214.5,112.9121,224.5,116.9121,214.5,120.9121,218.5,116.9121" style="stroke:#181818;stroke-width:1.0;"/><line style="stroke:#181818;stroke-width:1.0;" x1="28.5" x2="220.5" y1="116.9121" y2="116.9121"/><text fill="#000000" font-family="sans-serif" font-size="13" font-weight="bold" lengthAdjust="spacing" textLength="7" x="35.5" y="111.6494">1</text><text fill="#000000" font-family="sans-serif" font-size="13" lengthAdjust="spacing" textLength="168" x="46.5" y="111.6494">asks to list the green spaces</text><polygon fill="#181818" points="406,144.2031,416,148.2031,406,152.2031,410,148.2031" style="stroke:#181818;stroke-width:1.0;"/><line style="stroke:#181818;stroke-width:1.0;" x1="236.5" x2="412" y1="148.2031" y2="148.2031"/><text fill="#000000" font-family="sans-serif" font-size="13" font-weight="bold" lengthAdjust="spacing" textLength="7" x="243.5" y="142.9404">2</text><text fill="#000000" font-family="sans-serif" font-size="13" lengthAdjust="spacing" textLength="36" x="254.5" y="142.9404">create</text><rect fill="#E3E3E3" height="32.6211" rx="2.5" ry="2.5" style="stroke:#181818;stroke-width:0.5;" width="185" x="418" y="124.9121"/><text fill="#000000" font-family="sans-serif" font-size="14" lengthAdjust="spacing" textLength="171" x="425" y="147.0195">ListGreenSpacesController</text><polygon fill="#181818" points="493.5,187.8242,503.5,191.8242,493.5,195.8242,497.5,191.8242" style="stroke:#181818;stroke-width:1.0;"/><line style="stroke:#181818;stroke-width:1.0;" x1="236.5" x2="499.5" y1="191.8242" y2="191.8242"/><text fill="#000000" font-family="sans-serif" font-size="13" font-weight="bold" lengthAdjust="spacing" textLength="7" x="243.5" y="186.5615">3</text><text fill="#000000" font-family="sans-serif" font-size="13" lengthAdjust="spacing" textLength="152" x="254.5" y="186.5615">getGreenSpaceDTOsList()</text><polygon fill="#181818" points="1018.5,219.1152,1028.5,223.1152,1018.5,227.1152,1022.5,223.1152" style="stroke:#181818;stroke-width:1.0;"/><line style="stroke:#181818;stroke-width:1.0;" x1="515.5" x2="1024.5" y1="223.1152" y2="223.1152"/><text fill="#000000" font-family="sans-serif" font-size="13" font-weight="bold" lengthAdjust="spacing" textLength="7" x="522.5" y="217.8525">4</text><text fill="#000000" font-family="sans-serif" font-size="13" lengthAdjust="spacing" textLength="36" x="533.5" y="217.8525">create</text><rect fill="#E3E3E3" height="32.6211" rx="2.5" ry="2.5" style="stroke:#181818;stroke-width:0.5;" width="142" x="1030.5" y="199.8242"/><text fill="#000000" font-family="sans-serif" font-size="14" lengthAdjust="spacing" textLength="128" x="1037.5" y="221.9316">GreenSpaceMapper</text><polygon fill="#181818" points="644.5,262.7363,654.5,266.7363,644.5,270.7363,648.5,266.7363" style="stroke:#181818;stroke-width:1.0;"/><line style="stroke:#181818;stroke-width:1.0;" x1="515.5" x2="650.5" y1="266.7363" y2="266.7363"/><text fill="#000000" font-family="sans-serif" font-size="13" font-weight="bold" lengthAdjust="spacing" textLength="7" x="522.5" y="261.4736">5</text><text fill="#000000" font-family="sans-serif" font-size="13" lengthAdjust="spacing" textLength="75" x="533.5" y="261.4736">getInstance()</text><polygon fill="#181818" points="526.5,294.0273,516.5,298.0273,526.5,302.0273,522.5,298.0273" style="stroke:#181818;stroke-width:1.0;"/><line style="stroke:#181818;stroke-width:1.0;stroke-dasharray:2.0,2.0;" x1="520.5" x2="660.5" y1="298.0273" y2="298.0273"/><text fill="#000000" font-family="sans-serif" font-size="13" font-weight="bold" lengthAdjust="spacing" textLength="7" x="532.5" y="292.7646">6</text><text fill="#000000" font-family="sans-serif" font-size="13" lengthAdjust="spacing" textLength="67" x="543.5" y="292.7646">repositories</text><polygon fill="#181818" points="751.5,325.3184,761.5,329.3184,751.5,333.3184,755.5,329.3184" style="stroke:#181818;stroke-width:1.0;"/><line style="stroke:#181818;stroke-width:1.0;" x1="515.5" x2="757.5" y1="329.3184" y2="329.3184"/><text fill="#000000" font-family="sans-serif" font-size="13" font-weight="bold" lengthAdjust="spacing" textLength="7" x="522.5" y="324.0557">7</text><text fill="#000000" font-family="sans-serif" font-size="13" lengthAdjust="spacing" textLength="160" x="533.5" y="324.0557">getGreenSpaceRepository()</text><polygon fill="#181818" points="526.5,356.6094,516.5,360.6094,526.5,364.6094,522.5,360.6094" style="stroke:#181818;stroke-width:1.0;"/><line style="stroke:#181818;stroke-width:1.0;stroke-dasharray:2.0,2.0;" x1="520.5" x2="767.5" y1="360.6094" y2="360.6094"/><text fill="#000000" font-family="sans-serif" font-size="13" font-weight="bold" lengthAdjust="spacing" textLength="7" x="532.5" y="355.3467">8</text><text fill="#000000" font-family="sans-serif" font-size="13" lengthAdjust="spacing" textLength="139" x="543.5" y="355.3467">greenSpaceRepository()</text><polygon fill="#181818" points="920.5,387.9004,930.5,391.9004,920.5,395.9004,924.5,391.9004" style="stroke:#181818;stroke-width:1.0;"/><line style="stroke:#181818;stroke-width:1.0;" x1="515.5" x2="926.5" y1="391.9004" y2="391.9004"/><text fill="#000000" font-family="sans-serif" font-size="13" font-weight="bold" lengthAdjust="spacing" textLength="7" x="522.5" y="386.6377">9</text><text fill="#000000" font-family="sans-serif" font-size="13" lengthAdjust="spacing" textLength="387" x="533.5" y="386.6377">getGreenSpaceList(authenticationController.getCurrentUserEmail())</text><polygon fill="#181818" points="526.5,419.1914,516.5,423.1914,526.5,427.1914,522.5,423.1914" style="stroke:#181818;stroke-width:1.0;"/><line style="stroke:#181818;stroke-width:1.0;stroke-dasharray:2.0,2.0;" x1="520.5" x2="936.5" y1="423.1914" y2="423.1914"/><text fill="#000000" font-family="sans-serif" font-size="13" font-weight="bold" lengthAdjust="spacing" textLength="14" x="532.5" y="417.9287">10</text><text fill="#000000" font-family="sans-serif" font-size="13" lengthAdjust="spacing" textLength="120" x="550.5" y="417.9287">greenSpaceListGSM</text><polygon fill="#181818" points="1084.5,450.4824,1094.5,454.4824,1084.5,458.4824,1088.5,454.4824" style="stroke:#181818;stroke-width:1.0;"/><line style="stroke:#181818;stroke-width:1.0;stroke-dasharray:2.0,2.0;" x1="515.5" x2="1090.5" y1="454.4824" y2="454.4824"/><text fill="#000000" font-family="sans-serif" font-size="13" font-weight="bold" lengthAdjust="spacing" textLength="14" x="522.5" y="449.2197">11</text><text fill="#000000" font-family="sans-serif" font-size="13" lengthAdjust="spacing" textLength="186" x="540.5" y="449.2197">toDTOList(greenSpaceListGSM)</text><path d="M1020.5,469.4824 L1093.5,469.4824 L1093.5,478.7734 L1083.5,488.7734 L1020.5,488.7734 L1020.5,469.4824 " fill="#EEEEEE" style="stroke:#000000;stroke-width:1.5;"/><rect fill="none" height="62.9121" style="stroke:#000000;stroke-width:1.5;" width="490" x="1020.5" y="469.4824"/><text fill="#000000" font-family="sans-serif" font-size="13" font-weight="bold" lengthAdjust="spacing" textLength="28" x="1035.5" y="484.5107">loop</text><text fill="#000000" font-family="sans-serif" font-size="11" font-weight="bold" lengthAdjust="spacing" textLength="225" x="1108.5" y="483.3525">[for each greenSpace in greenSpaceList]</text><polygon fill="#181818" points="1364.5,508.0645,1374.5,512.0645,1364.5,516.0645,1368.5,512.0645" style="stroke:#181818;stroke-width:1.0;"/><line style="stroke:#181818;stroke-width:1.0;" x1="1106.5" x2="1370.5" y1="512.0645" y2="512.0645"/><text fill="#000000" font-family="sans-serif" font-size="13" font-weight="bold" lengthAdjust="spacing" textLength="14" x="1113.5" y="506.8018">12</text><text fill="#000000" font-family="sans-serif" font-size="13" lengthAdjust="spacing" textLength="228" x="1131.5" y="506.8018">GreenSpaceDTO = toDTO(greenSpace)</text><rect fill="#E3E3E3" height="32.6211" rx="2.5" ry="2.5" style="stroke:#181818;stroke-width:0.5;" width="124" x="1376.5" y="488.7734"/><text fill="#000000" font-family="sans-serif" font-size="14" lengthAdjust="spacing" textLength="110" x="1383.5" y="510.8809">GreenSpaceDTO</text><polygon fill="#181818" points="526.5,558.6855,516.5,562.6855,526.5,566.6855,522.5,562.6855" style="stroke:#181818;stroke-width:1.0;"/><line style="stroke:#181818;stroke-width:1.0;stroke-dasharray:2.0,2.0;" x1="520.5" x2="1100.5" y1="562.6855" y2="562.6855"/><text fill="#000000" font-family="sans-serif" font-size="13" font-weight="bold" lengthAdjust="spacing" textLength="14" x="532.5" y="557.4229">13</text><text fill="#000000" font-family="sans-serif" font-size="13" lengthAdjust="spacing" textLength="123" x="550.5" y="557.4229">greenSpaceDTOsList</text><polygon fill="#181818" points="247.5,589.9766,237.5,593.9766,247.5,597.9766,243.5,593.9766" style="stroke:#181818;stroke-width:1.0;"/><line style="stroke:#181818;stroke-width:1.0;stroke-dasharray:2.0,2.0;" x1="241.5" x2="509.5" y1="593.9766" y2="593.9766"/><text fill="#000000" font-family="sans-serif" font-size="13" font-weight="bold" lengthAdjust="spacing" textLength="14" x="253.5" y="588.7139">14</text><text fill="#000000" font-family="sans-serif" font-size="13" lengthAdjust="spacing" textLength="123" x="271.5" y="588.7139">greenSpaceDTOsList</text><polygon fill="#181818" points="493.5,621.2676,503.5,625.2676,493.5,629.2676,497.5,625.2676" style="stroke:#181818;stroke-width:1.0;"/><line style="stroke:#181818;stroke-width:1.0;" x1="236.5" x2="499.5" y1="625.2676" y2="625.2676"/><text fill="#000000" font-family="sans-serif" font-size="13" font-weight="bold" lengthAdjust="spacing" textLength="14" x="243.5" y="620.0049">15</text><text fill="#000000" font-family="sans-serif" font-size="13" lengthAdjust="spacing" textLength="232" x="261.5" y="620.0049">sortGreenSpaces(greenSpaceDTOsList)</text><polygon fill="#181818" points="1561,664.2041,1571,668.2041,1561,672.2041,1565,668.2041" style="stroke:#181818;stroke-width:1.0;"/><line style="stroke:#181818;stroke-width:1.0;" x1="515.5" x2="1567" y1="668.2041" y2="668.2041"/><text fill="#000000" font-family="sans-serif" font-size="13" font-weight="bold" lengthAdjust="spacing" textLength="14" x="522.5" y="662.9414">16</text><text fill="#000000" font-family="sans-serif" font-size="13" lengthAdjust="spacing" textLength="122" x="540.5" y="662.9414">getSortingAlgorithm()</text><path d="M1578,638.2676 L1578,682.2676 L1918,682.2676 L1918,648.2676 L1908,638.2676 L1578,638.2676 " fill="#FAFAFA" style="stroke:#181818;stroke-width:0.5;"/><path d="M1908,638.2676 L1908,648.2676 L1918,648.2676 L1908,638.2676 " fill="#FAFAFA" style="stroke:#181818;stroke-width:0.5;"/><text fill="#000000" font-family="sans-serif" font-size="13" lengthAdjust="spacing" textLength="319" x="1584" y="657.2959">goes to the config file and gets the property of the to be</text><text fill="#000000" font-family="sans-serif" font-size="13" lengthAdjust="spacing" textLength="315" x="1588" y="674.5869">used algorithm and then sorts the list through interface</text><polygon fill="#181818" points="34.5,707.1406,24.5,711.1406,34.5,715.1406,30.5,711.1406" style="stroke:#181818;stroke-width:1.0;"/><line style="stroke:#181818;stroke-width:1.0;stroke-dasharray:2.0,2.0;" x1="28.5" x2="230.5" y1="711.1406" y2="711.1406"/><text fill="#000000" font-family="sans-serif" font-size="13" font-weight="bold" lengthAdjust="spacing" textLength="14" x="40.5" y="705.8779">17</text><text fill="#000000" font-family="sans-serif" font-size="13" lengthAdjust="spacing" textLength="139" x="58.5" y="705.8779">sorted green spaces list</text><!--SRC=[bLN1Zjem4BtxAqPS2aZR3q1g9GGhX0HgjO7RNamo91Q97TccBN_ViO748SxkuaiKU-RDlEVnZ3a9MNFDAwYKL6cXLOLWzHcPQKvgdfvuZeczb0WQKyjbNeO6fk2P-Yja3aTU6cICdwsIv-g0ch5lXSWGZahPW_h7U6gLXj4gsOw06vWljummh4X5pQM5qMob4ML28N6_zYRxTTTY8unjZSn2IQjLMQBsrelTs-O1yGrhPGI55MYyJRDnIOHZGhbsNNJWyIxx0BytyrtN8syIQi5dxn9MaVqcXov4QxhbTKrqXewNkryUehF3dBBY3xVeDMLmM_G3Bpz9H9YHpyc0LL2IWc0B19yr6AzZwz80aV8GBC8W92VmT4fegKOoOWCcP92ZxQHetCsD9ns79fQ_jywHso6mY33JQJpwtSlb4BdZQqfhQQX-Ktn8f9DCh41wrcx5ehpS59X1M4OzzmoV2tSdvchlKTmMu2DMlcgZD3ncctV-DU20GHmwl8l7b7qjK9ieK5ADSokKR5_oTp9TdBMcixr1_LfnKOuddrmO6xwYXXk4v7mZIRQVtSmGBuBiboO5i8fgtTFhXVg0GUJvz-cKIjNKIJLGXaN018Hyu1NNehCYoNSfkJxZNtfd2tvS6GRi9kmBuG1bnWPaxZ_-VdAnyhmtbI7SYAZFD1_NVNnJUoPc7sk_Rb8tIeUpQzo7VROzpklozdmID8O-_fqb58TQoRpCgVdOeegytlkIYk2ro0jBdWhzW72p8LNoA6YW2vhvN6OErVY3MYjIqbv07Vq_sH-GHjtPO0Ry7j7xkDVjELyzRtD7gtDUKCbQr4TYpdfgELhBxLKjmWodbCTW4TbfLZ4M_BiX-1y0]--></g></svg>