<?xml version="1.0" encoding="us-ascii" standalone="no"?><svg xmlns="http://www.w3.org/2000/svg" xmlns:xlink="http://www.w3.org/1999/xlink" contentStyleType="text/css" height="366px" preserveAspectRatio="none" style="width:1130px;height:366px;background:#FFFFFF;" version="1.1" viewBox="0 0 1130 366" width="1130px" zoomAndPan="magnify"><defs/><g><rect fill="#FFFFFF" height="148.4551" style="stroke:#181818;stroke-width:1.0;" width="10" x="18.5" y="116.9121"/><rect fill="#FFFFFF" height="148.4551" style="stroke:#181818;stroke-width:1.0;" width="10" x="202.5" y="116.9121"/><rect fill="#FFFFFF" height="85.873" style="stroke:#181818;stroke-width:1.0;" width="10" x="474.5" y="148.2031"/><line style="stroke:#181818;stroke-width:0.5;stroke-dasharray:5.0,5.0;" x1="23" x2="23" y1="83.6211" y2="283.3672"/><line style="stroke:#181818;stroke-width:0.5;stroke-dasharray:5.0,5.0;" x1="207.5" x2="207.5" y1="83.6211" y2="283.3672"/><line style="stroke:#181818;stroke-width:0.5;stroke-dasharray:5.0,5.0;" x1="479" x2="479" y1="83.6211" y2="283.3672"/><line style="stroke:#181818;stroke-width:0.5;stroke-dasharray:5.0,5.0;" x1="644" x2="644" y1="83.6211" y2="283.3672"/><line style="stroke:#181818;stroke-width:0.5;stroke-dasharray:5.0,5.0;" x1="778" x2="778" y1="83.6211" y2="283.3672"/><text fill="#000000" font-family="sans-serif" font-size="14" lengthAdjust="spacing" textLength="31" x="5" y="80.1074">GSM</text><ellipse cx="23.5" cy="13.5" fill="#E3E3E3" rx="8" ry="8" style="stroke:#181818;stroke-width:0.5;"/><path d="M23.5,21.5 L23.5,48.5 M10.5,29.5 L36.5,29.5 M23.5,48.5 L10.5,63.5 M23.5,48.5 L36.5,63.5 " fill="none" style="stroke:#181818;stroke-width:0.5;"/><text fill="#000000" font-family="sans-serif" font-size="14" lengthAdjust="spacing" textLength="31" x="5" y="297.4746">GSM</text><ellipse cx="23.5" cy="309.4883" fill="#E3E3E3" rx="8" ry="8" style="stroke:#181818;stroke-width:0.5;"/><path d="M23.5,317.4883 L23.5,344.4883 M10.5,325.4883 L36.5,325.4883 M23.5,344.4883 L10.5,359.4883 M23.5,344.4883 L36.5,359.4883 " fill="none" style="stroke:#181818;stroke-width:0.5;"/><rect fill="#E3E3E3" height="32.6211" rx="2.5" ry="2.5" style="stroke:#181818;stroke-width:0.5;" width="110" x="152.5" y="50"/><text fill="#000000" font-family="sans-serif" font-size="14" lengthAdjust="spacing" textLength="96" x="159.5" y="72.1074">:GreenSpaceUI</text><rect fill="#E3E3E3" height="32.6211" rx="2.5" ry="2.5" style="stroke:#181818;stroke-width:0.5;" width="110" x="152.5" y="282.3672"/><text fill="#000000" font-family="sans-serif" font-size="14" lengthAdjust="spacing" textLength="96" x="159.5" y="304.4746">:GreenSpaceUI</text><rect fill="#E3E3E3" height="32.6211" rx="2.5" ry="2.5" style="stroke:#181818;stroke-width:0.5;" width="185" x="387" y="50"/><text fill="#000000" font-family="sans-serif" font-size="14" lengthAdjust="spacing" textLength="171" x="394" y="72.1074">ListGreenSpacesController</text><rect fill="#E3E3E3" height="32.6211" rx="2.5" ry="2.5" style="stroke:#181818;stroke-width:0.5;" width="185" x="387" y="282.3672"/><text fill="#000000" font-family="sans-serif" font-size="14" lengthAdjust="spacing" textLength="171" x="394" y="304.4746">ListGreenSpacesController</text><rect fill="#E3E3E3" height="32.6211" rx="2.5" ry="2.5" style="stroke:#181818;stroke-width:0.5;" width="124" x="582" y="50"/><text fill="#000000" font-family="sans-serif" font-size="14" lengthAdjust="spacing" textLength="110" x="589" y="72.1074">GreenSpaceDTO</text><rect fill="#E3E3E3" height="32.6211" rx="2.5" ry="2.5" style="stroke:#181818;stroke-width:0.5;" width="124" x="582" y="282.3672"/><text fill="#000000" font-family="sans-serif" font-size="14" lengthAdjust="spacing" textLength="110" x="589" y="304.4746">GreenSpaceDTO</text><rect fill="#E3E3E3" height="32.6211" rx="2.5" ry="2.5" style="stroke:#181818;stroke-width:0.5;" width="125" x="716" y="50"/><text fill="#000000" font-family="sans-serif" font-size="14" lengthAdjust="spacing" textLength="111" x="723" y="72.1074">AplicationSession</text><rect fill="#E3E3E3" height="32.6211" rx="2.5" ry="2.5" style="stroke:#181818;stroke-width:0.5;" width="125" x="716" y="282.3672"/><text fill="#000000" font-family="sans-serif" font-size="14" lengthAdjust="spacing" textLength="111" x="723" y="304.4746">AplicationSession</text><rect fill="#FFFFFF" height="148.4551" style="stroke:#181818;stroke-width:1.0;" width="10" x="18.5" y="116.9121"/><rect fill="#FFFFFF" height="148.4551" style="stroke:#181818;stroke-width:1.0;" width="10" x="202.5" y="116.9121"/><rect fill="#FFFFFF" height="85.873" style="stroke:#181818;stroke-width:1.0;" width="10" x="474.5" y="148.2031"/><polygon fill="#181818" points="223.5,112.9121,213.5,116.9121,223.5,120.9121,219.5,116.9121" style="stroke:#181818;stroke-width:1.0;"/><line style="stroke:#181818;stroke-width:1.0;stroke-dasharray:2.0,2.0;" x1="217.5" x2="478.5" y1="116.9121" y2="116.9121"/><text fill="#000000" font-family="sans-serif" font-size="13" font-weight="bold" lengthAdjust="spacing" textLength="7" x="229.5" y="111.6494">1</text><text fill="#000000" font-family="sans-serif" font-size="13" lengthAdjust="spacing" textLength="123" x="240.5" y="111.6494">greenSpaceDTOsList</text><polygon fill="#181818" points="462.5,144.2031,472.5,148.2031,462.5,152.2031,466.5,148.2031" style="stroke:#181818;stroke-width:1.0;"/><line style="stroke:#181818;stroke-width:1.0;" x1="212.5" x2="468.5" y1="148.2031" y2="148.2031"/><text fill="#000000" font-family="sans-serif" font-size="13" font-weight="bold" lengthAdjust="spacing" textLength="7" x="219.5" y="142.9404">2</text><text fill="#000000" font-family="sans-serif" font-size="13" lengthAdjust="spacing" textLength="232" x="230.5" y="142.9404">sortGreenSpaces(greenSpaceDTOsList)</text><polygon fill="#181818" points="766.5,187.1396,776.5,191.1396,766.5,195.1396,770.5,191.1396" style="stroke:#181818;stroke-width:1.0;"/><line style="stroke:#181818;stroke-width:1.0;" x1="484.5" x2="772.5" y1="191.1396" y2="191.1396"/><text fill="#000000" font-family="sans-serif" font-size="13" font-weight="bold" lengthAdjust="spacing" textLength="7" x="491.5" y="185.877">3</text><text fill="#000000" font-family="sans-serif" font-size="13" lengthAdjust="spacing" textLength="122" x="502.5" y="185.877">getSortingAlgorithm()</text><path d="M783,161.2031 L783,205.2031 L1123,205.2031 L1123,171.2031 L1113,161.2031 L783,161.2031 " fill="#FAFAFA" style="stroke:#181818;stroke-width:0.5;"/><path d="M1113,161.2031 L1113,171.2031 L1123,171.2031 L1113,161.2031 " fill="#FAFAFA" style="stroke:#181818;stroke-width:0.5;"/><text fill="#000000" font-family="sans-serif" font-size="13" lengthAdjust="spacing" textLength="319" x="789" y="180.2314">goes to the config file and gets the property of the to be</text><text fill="#000000" font-family="sans-serif" font-size="13" lengthAdjust="spacing" textLength="315" x="793" y="197.5225">used algorithm and then sorts the list through interface</text><polygon fill="#181818" points="223.5,230.0762,213.5,234.0762,223.5,238.0762,219.5,234.0762" style="stroke:#181818;stroke-width:1.0;"/><line style="stroke:#181818;stroke-width:1.0;stroke-dasharray:2.0,2.0;" x1="217.5" x2="478.5" y1="234.0762" y2="234.0762"/><text fill="#000000" font-family="sans-serif" font-size="13" font-weight="bold" lengthAdjust="spacing" textLength="7" x="229.5" y="228.8135">4</text><text fill="#000000" font-family="sans-serif" font-size="13" lengthAdjust="spacing" textLength="139" x="240.5" y="228.8135">sorted green spaces list</text><polygon fill="#181818" points="34.5,261.3672,24.5,265.3672,34.5,269.3672,30.5,265.3672" style="stroke:#181818;stroke-width:1.0;"/><line style="stroke:#181818;stroke-width:1.0;stroke-dasharray:2.0,2.0;" x1="28.5" x2="206.5" y1="265.3672" y2="265.3672"/><text fill="#000000" font-family="sans-serif" font-size="13" font-weight="bold" lengthAdjust="spacing" textLength="7" x="40.5" y="260.1045">5</text><text fill="#000000" font-family="sans-serif" font-size="13" lengthAdjust="spacing" textLength="139" x="51.5" y="260.1045">sorted green spaces list</text><!--SRC=[ZL71Ri8m3BtdAonESE07E20Xa10IQD8Ajrr2wxRHqhXot4ty_Pom0MKxx9GuVk_vFIU-kz1RjXrq5AXicJe4uG5Dl7LwMxxR1WkvU0J6Kcne_2CWjhQYJnSQgAsFQ8mTXCBGdP7rNWenJBR5OG8smcfpCCeILxhU1e79Oik8eT0XUDfbo6atHknTb3iehYa8a_V86Rq-lkx7-3jsStp9cD7B6BpglIkjE0e5ngZ7rMN__6nC6WJp-LBzmGAQHycOBAQaxiCAveotGjCOPIWl2omW4Z_6cVvMcjtPETttwEKVjf8Jb48bTVqhtn0xQRlfp0HIDhkc5KKGHX02QH5A2hNJZtBwbpPKYHrpesVgaUK2LETQyMTy2p14hC3-A6UEjaEESMLwjQmNfg5fmGL1hZNCyy8INfLoMeWvUcQQ2f_Ifcsbi9l3FsbfnGzbMlyN]--></g></svg>