<?xml version="1.0" encoding="us-ascii" standalone="no"?><svg xmlns="http://www.w3.org/2000/svg" xmlns:xlink="http://www.w3.org/1999/xlink" contentStyleType="text/css" height="1227px" preserveAspectRatio="none" style="width:648px;height:1227px;background:#FFFFFF;" version="1.1" viewBox="0 0 648 1227" width="648px" zoomAndPan="magnify"><defs/><g><!--entity Collaborator--><g id="elem_Collaborator"><ellipse cx="45" cy="1152" fill="#F1F1F1" rx="8" ry="8" style="stroke:#181818;stroke-width:0.5;"/><path d="M45,1160 L45,1187 M32,1168 L58,1168 M45,1187 L32,1202 M45,1187 L58,1202 " fill="none" style="stroke:#181818;stroke-width:0.5;"/><text fill="#000000" font-family="sans-serif" font-size="14" lengthAdjust="spacing" textLength="78" x="6" y="1218.6074">Collaborator</text></g><!--entity GSM--><g id="elem_GSM"><ellipse cx="45" cy="1038" fill="#F1F1F1" rx="8" ry="8" style="stroke:#181818;stroke-width:0.5;"/><path d="M45,1046 L45,1073 M32,1054 L58,1054 M45,1073 L32,1088 M45,1073 L58,1088 " fill="none" style="stroke:#181818;stroke-width:0.5;"/><text fill="#000000" font-family="sans-serif" font-size="14" lengthAdjust="spacing" textLength="31" x="29.5" y="1104.6074">GSM</text></g><!--entity GSU--><g id="elem_GSU"><ellipse cx="45" cy="924" fill="#F1F1F1" rx="8" ry="8" style="stroke:#181818;stroke-width:0.5;"/><path d="M45,932 L45,959 M32,940 L58,940 M45,959 L32,974 M45,959 L58,974 " fill="none" style="stroke:#181818;stroke-width:0.5;"/><text fill="#000000" font-family="sans-serif" font-size="14" lengthAdjust="spacing" textLength="29" x="30.5" y="990.6074">GSU</text></g><g id="elem_GMN5"><path d="M317,1046.5 L317,1065 L60.89,1069 L317,1073 L317,1091.082 A0,0 0 0 0 317,1091.082 L470,1091.082 A0,0 0 0 0 470,1091.082 L470,1056.5 L460,1046.5 L317,1046.5 A0,0 0 0 0 317,1046.5 " fill="#FEFFDD" style="stroke:#181818;stroke-width:0.5;"/><path d="M460,1046.5 L460,1056.5 L470,1056.5 L460,1046.5 " fill="#FEFFDD" style="stroke:#181818;stroke-width:0.5;"/><text fill="#000000" font-family="sans-serif" font-size="13" lengthAdjust="spacing" textLength="132" x="323" y="1065.5283">Actor identified but still</text><text fill="#000000" font-family="sans-serif" font-size="13" lengthAdjust="spacing" textLength="132" x="323" y="1082.8193">no concrete use cases</text></g><g id="elem_GMN8"><path d="M317,1160.5 L317,1179 L84.07,1183 L317,1187 L317,1205.082 A0,0 0 0 0 317,1205.082 L470,1205.082 A0,0 0 0 0 470,1205.082 L470,1170.5 L460,1160.5 L317,1160.5 A0,0 0 0 0 317,1160.5 " fill="#FEFFDD" style="stroke:#181818;stroke-width:0.5;"/><path d="M460,1160.5 L460,1170.5 L470,1170.5 L460,1160.5 " fill="#FEFFDD" style="stroke:#181818;stroke-width:0.5;"/><text fill="#000000" font-family="sans-serif" font-size="13" lengthAdjust="spacing" textLength="132" x="323" y="1179.5283">Actor identified but still</text><text fill="#000000" font-family="sans-serif" font-size="13" lengthAdjust="spacing" textLength="132" x="323" y="1196.8193">no concrete use cases</text></g><g id="elem_GMN11"><path d="M317,932.5 L317,951 L59.58,955 L317,959 L317,977.082 A0,0 0 0 0 317,977.082 L470,977.082 A0,0 0 0 0 470,977.082 L470,942.5 L460,932.5 L317,932.5 A0,0 0 0 0 317,932.5 " fill="#FEFFDD" style="stroke:#181818;stroke-width:0.5;"/><path d="M460,932.5 L460,942.5 L470,942.5 L460,932.5 " fill="#FEFFDD" style="stroke:#181818;stroke-width:0.5;"/><text fill="#000000" font-family="sans-serif" font-size="13" lengthAdjust="spacing" textLength="132" x="323" y="951.5283">Actor identified but still</text><text fill="#000000" font-family="sans-serif" font-size="13" lengthAdjust="spacing" textLength="132" x="323" y="968.8193">no concrete use cases</text></g><g id="elem_UC6"><ellipse cx="393.4983" cy="660.9997" fill="#F1F1F1" rx="172.9983" ry="36.9997" style="stroke:#181818;stroke-width:0.5;"/><text fill="#000000" font-family="sans-serif" font-size="14" lengthAdjust="spacing" textLength="315" x="235.9983" y="664.7965">UC 006 - Register a vehicle with fundamental data</text></g><!--entity VFM--><g id="elem_VFM"><ellipse cx="45" cy="732" fill="#F1F1F1" rx="8" ry="8" style="stroke:#181818;stroke-width:0.5;"/><path d="M45,740 L45,767 M32,748 L58,748 M45,767 L32,782 M45,767 L58,782 " fill="none" style="stroke:#181818;stroke-width:0.5;"/><text fill="#000000" font-family="sans-serif" font-size="14" lengthAdjust="spacing" textLength="29" x="30.5" y="798.6074">VFM</text></g><g id="elem_UC7"><ellipse cx="393.7026" cy="763.2405" fill="#F1F1F1" rx="139.2026" ry="30.2405" style="stroke:#181818;stroke-width:0.5;"/><text fill="#000000" font-family="sans-serif" font-size="14" lengthAdjust="spacing" textLength="244" x="271.7026" y="767.0374">UC 007 - Register vehicle for check-up</text></g><g id="elem_UC8"><ellipse cx="393.5132" cy="863.1026" fill="#F1F1F1" rx="161.0132" ry="34.6026" style="stroke:#181818;stroke-width:0.5;"/><text fill="#000000" font-family="sans-serif" font-size="14" lengthAdjust="spacing" textLength="290" x="248.5132" y="866.8995">UC 008 - List the vehicles needing a check-up</text></g><g id="elem_UC1"><ellipse cx="393.4868" cy="45.7974" fill="#F1F1F1" rx="186.9868" ry="39.7974" style="stroke:#181818;stroke-width:0.5;"/><text fill="#000000" font-family="sans-serif" font-size="14" lengthAdjust="spacing" textLength="344" x="221.4868" y="49.5942">UC 001 - Create a skill to be apointed to a collaborator</text></g><!--entity HRM--><g id="elem_HRM"><ellipse cx="45" cy="257" fill="#F1F1F1" rx="8" ry="8" style="stroke:#181818;stroke-width:0.5;"/><path d="M45,265 L45,292 M32,273 L58,273 M45,292 L32,307 M45,292 L58,307 " fill="none" style="stroke:#181818;stroke-width:0.5;"/><text fill="#000000" font-family="sans-serif" font-size="14" lengthAdjust="spacing" textLength="30" x="30" y="323.6074">HRM</text></g><g id="elem_UC2"><ellipse cx="393.5526" cy="160.9105" fill="#F1F1F1" rx="185.0526" ry="39.4105" style="stroke:#181818;stroke-width:0.5;"/><text fill="#000000" font-family="sans-serif" font-size="14" lengthAdjust="spacing" textLength="340" x="223.5526" y="164.7074">UC 002 - Create a job to be apointed to a collaborator</text></g><g id="elem_UC3"><ellipse cx="393.4369" cy="287.7874" fill="#F1F1F1" rx="249.4369" ry="52.2874" style="stroke:#181818;stroke-width:0.5;"/><text fill="#000000" font-family="sans-serif" font-size="14" lengthAdjust="spacing" textLength="472" x="157.4369" y="291.5843">UC 003 - Register a collaborator with a job and fundamental characteristics</text></g><g id="elem_UC4"><ellipse cx="393.3306" cy="413.8661" fill="#F1F1F1" rx="177.3306" ry="37.8661" style="stroke:#181818;stroke-width:0.5;"/><text fill="#000000" font-family="sans-serif" font-size="14" lengthAdjust="spacing" textLength="324" x="231.3306" y="417.663">UC 004 - Assign one or more skills to a collaborator</text></g><g id="elem_UC5"><ellipse cx="393.5382" cy="538.2076" fill="#F1F1F1" rx="244.0382" ry="51.2076" style="stroke:#181818;stroke-width:0.5;"/><text fill="#000000" font-family="sans-serif" font-size="14" lengthAdjust="spacing" textLength="461" x="163.0382" y="542.0045">UC 005 - Generate a team proposal automatically based on skills needed</text></g><!--link VFM to UC6--><g id="link_VFM_UC6"><path d="M59.53,755.27 C78.06,744.99 112.61,726.84 144,716 C180.86,703.27 215.9785,694.0616 253.8485,685.7816 " fill="none" id="VFM-to-UC6" style="stroke:#181818;stroke-width:1.0;"/><polygon fill="#181818" points="259.71,684.5,250.0633,682.5147,254.8254,685.568,251.7721,690.3301,259.71,684.5" style="stroke:#181818;stroke-width:1.0;"/></g><!--link VFM to UC7--><g id="link_VFM_UC7"><path d="M59.58,763 C92.24,763 172.11,763 248.46,763 " fill="none" id="VFM-to-UC7" style="stroke:#181818;stroke-width:1.0;"/><polygon fill="#181818" points="254.46,763,245.46,759,249.46,763,245.46,767,254.46,763" style="stroke:#181818;stroke-width:1.0;"/></g><!--link VFM to UC8--><g id="link_VFM_UC8"><path d="M59.81,771.14 C78.36,781.75 112.64,800.23 144,811 C182.14,824.1 218.8902,833.2851 257.9102,841.2151 " fill="none" id="VFM-to-UC8" style="stroke:#181818;stroke-width:1.0;"/><polygon fill="#181818" points="263.79,842.41,255.7669,836.6977,258.8902,841.4142,254.1737,844.5374,263.79,842.41" style="stroke:#181818;stroke-width:1.0;"/></g><!--link HRM to UC1--><g id="link_HRM_UC1"><path d="M56.52,248.19 C69.79,205.91 96.8,140.28 144,104 C167.97,85.57 191.0688,74.5599 220.4988,65.8099 " fill="none" id="HRM-to-UC1" style="stroke:#181818;stroke-width:1.0;"/><polygon fill="#181818" points="226.25,64.1,216.4833,62.8308,221.4573,65.5249,218.7632,70.499,226.25,64.1" style="stroke:#181818;stroke-width:1.0;"/></g><!--link HRM to UC2--><g id="link_HRM_UC2"><path d="M60.14,275.1 C78.24,259.28 111.21,232.76 144,218 C175.58,203.79 205.2475,194.3476 239.3075,186.1276 " fill="none" id="HRM-to-UC2" style="stroke:#181818;stroke-width:1.0;"/><polygon fill="#181818" points="245.14,184.72,235.4528,182.9431,240.2795,185.893,237.3296,190.7198,245.14,184.72" style="stroke:#181818;stroke-width:1.0;"/></g><!--link HRM to UC3--><g id="link_HRM_UC3"><path d="M60.01,288 C76.91,288 101.61,288 137.75,288 " fill="none" id="HRM-to-UC3" style="stroke:#181818;stroke-width:1.0;"/><polygon fill="#181818" points="143.75,288,134.75,284,138.75,288,134.75,292,143.75,288" style="stroke:#181818;stroke-width:1.0;"/></g><!--link HRM to UC4--><g id="link_HRM_UC4"><path d="M60.13,300.92 C78.22,316.76 111.18,343.3 144,358 C176.8,372.68 207.9654,382.3333 243.2054,390.5133 " fill="none" id="HRM-to-UC4" style="stroke:#181818;stroke-width:1.0;"/><polygon fill="#181818" points="249.05,391.87,241.1875,385.9386,244.1795,390.7394,239.3786,393.7314,249.05,391.87" style="stroke:#181818;stroke-width:1.0;"/></g><!--link HRM to UC5--><g id="link_HRM_UC5"><path d="M57.24,327.56 C71,368.86 98.3,432.6 144,469 C162.82,484 179.1347,493.4978 201.9447,502.6878 " fill="none" id="HRM-to-UC5" style="stroke:#181818;stroke-width:1.0;"/><polygon fill="#181818" points="207.51,504.93,200.6569,497.8565,202.8723,503.0615,197.6673,505.2769,207.51,504.93" style="stroke:#181818;stroke-width:1.0;"/></g><!--SRC=[jPHDRzim38Rl-XL4BZq5QBwQd0Pq0TOTrakBx4vBjAr55WD9NX0C- - -ZxIHrQW_e3lED8lcy54dv3W3Ytle31goWOi-w35mHf52JUlCSKE-neDTqSWI1T49VE59tRn6nHCD7wml8qKLIlUHh_2ybSl2PWw6mPSS1JkGS7zLlfPIZF45Y2BOe4nZRP5dsgir1dIHQSXnc752Ctl7Jw_EDjMijpudECCwlCSttsCPPGpxPt9A1h4uGatNk6k8PD7iTI1Xr9D0OARPUygP5gn6HGNt_LUroqNyG-gXO9oVUnWcJtHRkxnzW2YzKs9We0C9FAgsMPJZQL49UUuEL2AC3WmadW15ssuSMC_d-vNa2q-cdwyajUDq7Nx2vN4MNfFVJ-d2chGUqzGXj8xHlme9KqeKMmHEPPZVnFNGpW6v6e3E1RWEXj0oRz-9SiwcPM0UsFaclnHHsR_vd_gpZVtsvycSZ_7cV_uEpZzBd0_fyXBwudLoVquslqqGPVt-GkfJNgoL74gsEPyd5G78n8haKoSSORU61FO48LHoeQrtywtMM0_PoXBqIzXDv2bsx4ZN_fy07Zb8qreahb7hHkHDaacMaWejmimPapcghWTfA_G40]--></g></svg>