<?xml version="1.0" encoding="us-ascii" standalone="no"?><svg xmlns="http://www.w3.org/2000/svg" xmlns:xlink="http://www.w3.org/1999/xlink" contentStyleType="text/css" height="796px" preserveAspectRatio="none" style="width:634px;height:796px;background:#FFFFFF;" version="1.1" viewBox="0 0 634 796" width="634px" zoomAndPan="magnify"><defs/><g><!--class Skill--><g id="elem_Skill"><rect codeLine="11" fill="#F1F1F1" height="122.4844" id="Skill" rx="2.5" ry="2.5" style="stroke:#181818;stroke-width:0.5;" width="121" x="489.5" y="419"/><ellipse cx="533.3" cy="435" fill="#ADD1B2" rx="11" ry="11" style="stroke:#181818;stroke-width:1.0;"/><path d="M536.0656,430.875 Q536.2219,430.6563 536.4094,430.5469 Q536.5969,430.4375 536.8156,430.4375 Q537.1906,430.4375 537.425,430.7031 Q537.6594,430.9531 537.6594,431.5625 L537.6594,433.0156 Q537.6594,433.625 537.425,433.8906 Q537.1906,434.1563 536.8156,434.1563 Q536.4719,434.1563 536.2688,433.9531 Q536.0656,433.7656 535.9563,433.25 Q535.9094,432.8906 535.7219,432.7031 Q535.3938,432.3281 534.7844,432.1094 Q534.175,431.8906 533.55,431.8906 Q532.7844,431.8906 532.1438,432.2188 Q531.5188,432.5469 531.0188,433.2969 Q530.5344,434.0469 530.5344,435.0781 L530.5344,436.1719 Q530.5344,437.4063 531.425,438.2344 Q532.3156,439.0469 533.9094,439.0469 Q534.8469,439.0469 535.5031,438.7969 Q535.8938,438.6406 536.3156,438.2031 Q536.5813,437.9375 536.7219,437.8594 Q536.8781,437.7813 537.0813,437.7813 Q537.4094,437.7813 537.6594,438.0469 Q537.925,438.2969 537.925,438.6406 Q537.925,438.9844 537.5813,439.3906 Q537.0813,439.9688 536.2844,440.2969 Q535.2063,440.75 533.9094,440.75 Q532.3938,440.75 531.1906,440.125 Q530.2063,439.625 529.5188,438.5625 Q528.8313,437.4844 528.8313,436.2031 L528.8313,435.0469 Q528.8313,433.7188 529.4406,432.5781 Q530.0656,431.4219 531.1594,430.8125 Q532.2531,430.1875 533.4875,430.1875 Q534.2219,430.1875 534.8625,430.3594 Q535.5188,430.5156 536.0656,430.875 Z " fill="#000000"/><text fill="#000000" font-family="sans-serif" font-size="14" lengthAdjust="spacing" textLength="25" x="553.7" y="440.7969">Skill</text><line style="stroke:#181818;stroke-width:0.5;" x1="490.5" x2="609.5" y1="451" y2="451"/><text fill="#000000" font-family="sans-serif" font-size="14" lengthAdjust="spacing" textLength="105" x="495.5" y="470.1074">-String skillName</text><line style="stroke:#181818;stroke-width:0.5;" x1="490.5" x2="609.5" y1="477.6211" y2="477.6211"/><text fill="#000000" font-family="sans-serif" font-size="14" lengthAdjust="spacing" textLength="102" x="495.5" y="496.7285">+Skill(skillName)</text><text fill="#000000" font-family="sans-serif" font-size="14" lengthAdjust="spacing" textLength="74" x="495.5" y="515.3496">+getName()</text><text fill="#000000" font-family="sans-serif" font-size="14" lengthAdjust="spacing" textLength="109" x="495.5" y="533.9707">+getDescription()</text></g><!--class Repositories--><g id="elem_Repositories"><rect codeLine="18" fill="#F1F1F1" height="178.3477" id="Repositories" rx="2.5" ry="2.5" style="stroke:#181818;stroke-width:0.5;" width="208" x="167" y="391"/><ellipse cx="227.25" cy="407" fill="#ADD1B2" rx="11" ry="11" style="stroke:#181818;stroke-width:1.0;"/><path d="M230.0156,402.875 Q230.1719,402.6563 230.3594,402.5469 Q230.5469,402.4375 230.7656,402.4375 Q231.1406,402.4375 231.375,402.7031 Q231.6094,402.9531 231.6094,403.5625 L231.6094,405.0156 Q231.6094,405.625 231.375,405.8906 Q231.1406,406.1563 230.7656,406.1563 Q230.4219,406.1563 230.2188,405.9531 Q230.0156,405.7656 229.9063,405.25 Q229.8594,404.8906 229.6719,404.7031 Q229.3438,404.3281 228.7344,404.1094 Q228.125,403.8906 227.5,403.8906 Q226.7344,403.8906 226.0938,404.2188 Q225.4688,404.5469 224.9688,405.2969 Q224.4844,406.0469 224.4844,407.0781 L224.4844,408.1719 Q224.4844,409.4063 225.375,410.2344 Q226.2656,411.0469 227.8594,411.0469 Q228.7969,411.0469 229.4531,410.7969 Q229.8438,410.6406 230.2656,410.2031 Q230.5313,409.9375 230.6719,409.8594 Q230.8281,409.7813 231.0313,409.7813 Q231.3594,409.7813 231.6094,410.0469 Q231.875,410.2969 231.875,410.6406 Q231.875,410.9844 231.5313,411.3906 Q231.0313,411.9688 230.2344,412.2969 Q229.1563,412.75 227.8594,412.75 Q226.3438,412.75 225.1406,412.125 Q224.1563,411.625 223.4688,410.5625 Q222.7813,409.4844 222.7813,408.2031 L222.7813,407.0469 Q222.7813,405.7188 223.3906,404.5781 Q224.0156,403.4219 225.1094,402.8125 Q226.2031,402.1875 227.4375,402.1875 Q228.1719,402.1875 228.8125,402.3594 Q229.4688,402.5156 230.0156,402.875 Z " fill="#000000"/><text fill="#000000" font-family="sans-serif" font-size="14" lengthAdjust="spacing" textLength="79" x="247.75" y="412.7969">Repositories</text><line style="stroke:#181818;stroke-width:0.5;" x1="168" x2="374" y1="423" y2="423"/><line style="stroke:#181818;stroke-width:0.5;" x1="168" x2="374" y1="431" y2="431"/><text fill="#000000" font-family="sans-serif" font-size="14" lengthAdjust="spacing" textLength="94" x="173" y="450.1074">-Repositories()</text><text fill="#000000" font-family="sans-serif" font-size="14" lengthAdjust="spacing" textLength="182" x="173" y="468.7285">+getInstance() : Repositories</text><text fill="#000000" font-family="sans-serif" font-size="14" lengthAdjust="spacing" textLength="184" x="173" y="487.3496">+getCollaboratorRepository()</text><text fill="#000000" font-family="sans-serif" font-size="14" lengthAdjust="spacing" textLength="152" x="173" y="505.9707">+getVehicleRepository()</text><text fill="#000000" font-family="sans-serif" font-size="14" lengthAdjust="spacing" textLength="131" x="173" y="524.5918">+getSkillRepository()</text><text fill="#000000" font-family="sans-serif" font-size="14" lengthAdjust="spacing" textLength="128" x="173" y="543.2129">+getJobRepository()</text><text fill="#000000" font-family="sans-serif" font-size="14" lengthAdjust="spacing" textLength="196" x="173" y="561.834">+getAuthenticationRepository()</text></g><!--class SkillRepository--><g id="elem_SkillRepository"><rect codeLine="30" fill="#F1F1F1" height="159.7266" id="SkillRepository" rx="2.5" ry="2.5" style="stroke:#181818;stroke-width:0.5;" width="199" x="171.5" y="630"/><ellipse cx="220.25" cy="646" fill="#ADD1B2" rx="11" ry="11" style="stroke:#181818;stroke-width:1.0;"/><path d="M223.0156,641.875 Q223.1719,641.6563 223.3594,641.5469 Q223.5469,641.4375 223.7656,641.4375 Q224.1406,641.4375 224.375,641.7031 Q224.6094,641.9531 224.6094,642.5625 L224.6094,644.0156 Q224.6094,644.625 224.375,644.8906 Q224.1406,645.1563 223.7656,645.1563 Q223.4219,645.1563 223.2188,644.9531 Q223.0156,644.7656 222.9063,644.25 Q222.8594,643.8906 222.6719,643.7031 Q222.3438,643.3281 221.7344,643.1094 Q221.125,642.8906 220.5,642.8906 Q219.7344,642.8906 219.0938,643.2188 Q218.4688,643.5469 217.9688,644.2969 Q217.4844,645.0469 217.4844,646.0781 L217.4844,647.1719 Q217.4844,648.4063 218.375,649.2344 Q219.2656,650.0469 220.8594,650.0469 Q221.7969,650.0469 222.4531,649.7969 Q222.8438,649.6406 223.2656,649.2031 Q223.5313,648.9375 223.6719,648.8594 Q223.8281,648.7813 224.0313,648.7813 Q224.3594,648.7813 224.6094,649.0469 Q224.875,649.2969 224.875,649.6406 Q224.875,649.9844 224.5313,650.3906 Q224.0313,650.9688 223.2344,651.2969 Q222.1563,651.75 220.8594,651.75 Q219.3438,651.75 218.1406,651.125 Q217.1563,650.625 216.4688,649.5625 Q215.7813,648.4844 215.7813,647.2031 L215.7813,646.0469 Q215.7813,644.7188 216.3906,643.5781 Q217.0156,642.4219 218.1094,641.8125 Q219.2031,641.1875 220.4375,641.1875 Q221.1719,641.1875 221.8125,641.3594 Q222.4688,641.5156 223.0156,641.875 Z " fill="#000000"/><text fill="#000000" font-family="sans-serif" font-size="14" lengthAdjust="spacing" textLength="93" x="240.75" y="651.7969">SkillRepository</text><line style="stroke:#181818;stroke-width:0.5;" x1="172.5" x2="369.5" y1="662" y2="662"/><line style="stroke:#181818;stroke-width:0.5;" x1="172.5" x2="369.5" y1="670" y2="670"/><text fill="#000000" font-family="sans-serif" font-size="14" lengthAdjust="spacing" textLength="85" x="177.5" y="689.1074">+getSkillList()</text><text fill="#000000" font-family="sans-serif" font-size="14" lengthAdjust="spacing" textLength="150" x="177.5" y="707.7285">+registerSkill(skillName)</text><text fill="#000000" font-family="sans-serif" font-size="14" lengthAdjust="spacing" textLength="42" x="177.5" y="726.3496">+size()</text><text fill="#000000" font-family="sans-serif" font-size="14" lengthAdjust="spacing" textLength="138" x="177.5" y="744.9707">-skillIsValid(skillName)</text><text fill="#000000" font-family="sans-serif" font-size="14" lengthAdjust="spacing" textLength="176" x="177.5" y="763.5918">-isValidSkillName(skillName)</text><text fill="#000000" font-family="sans-serif" font-size="14" lengthAdjust="spacing" textLength="187" x="177.5" y="782.2129">-skillNameIsUnique(skillName)</text></g><!--class RegisterSkillController--><g id="elem_RegisterSkillController"><rect codeLine="40" fill="#F1F1F1" height="122.4844" id="RegisterSkillController" rx="2.5" ry="2.5" style="stroke:#181818;stroke-width:0.5;" width="213" x="164.5" y="190"/><ellipse cx="197.95" cy="206" fill="#ADD1B2" rx="11" ry="11" style="stroke:#181818;stroke-width:1.0;"/><path d="M200.7156,201.875 Q200.8719,201.6563 201.0594,201.5469 Q201.2469,201.4375 201.4656,201.4375 Q201.8406,201.4375 202.075,201.7031 Q202.3094,201.9531 202.3094,202.5625 L202.3094,204.0156 Q202.3094,204.625 202.075,204.8906 Q201.8406,205.1563 201.4656,205.1563 Q201.1219,205.1563 200.9188,204.9531 Q200.7156,204.7656 200.6063,204.25 Q200.5594,203.8906 200.3719,203.7031 Q200.0438,203.3281 199.4344,203.1094 Q198.825,202.8906 198.2,202.8906 Q197.4344,202.8906 196.7938,203.2188 Q196.1688,203.5469 195.6688,204.2969 Q195.1844,205.0469 195.1844,206.0781 L195.1844,207.1719 Q195.1844,208.4063 196.075,209.2344 Q196.9656,210.0469 198.5594,210.0469 Q199.4969,210.0469 200.1531,209.7969 Q200.5438,209.6406 200.9656,209.2031 Q201.2313,208.9375 201.3719,208.8594 Q201.5281,208.7813 201.7313,208.7813 Q202.0594,208.7813 202.3094,209.0469 Q202.575,209.2969 202.575,209.6406 Q202.575,209.9844 202.2313,210.3906 Q201.7313,210.9688 200.9344,211.2969 Q199.8563,211.75 198.5594,211.75 Q197.0438,211.75 195.8406,211.125 Q194.8563,210.625 194.1688,209.5625 Q193.4813,208.4844 193.4813,207.2031 L193.4813,206.0469 Q193.4813,204.7188 194.0906,203.5781 Q194.7156,202.4219 195.8094,201.8125 Q196.9031,201.1875 198.1375,201.1875 Q198.8719,201.1875 199.5125,201.3594 Q200.1688,201.5156 200.7156,201.875 Z " fill="#000000"/><text fill="#000000" font-family="sans-serif" font-size="14" lengthAdjust="spacing" textLength="140" x="216.05" y="211.7969">RegisterSkillController</text><line style="stroke:#181818;stroke-width:0.5;" x1="165.5" x2="376.5" y1="222" y2="222"/><line style="stroke:#181818;stroke-width:0.5;" x1="165.5" x2="376.5" y1="230" y2="230"/><text fill="#000000" font-family="sans-serif" font-size="14" lengthAdjust="spacing" textLength="158" x="170.5" y="249.1074">+RegisterSkillController()</text><text fill="#000000" font-family="sans-serif" font-size="14" lengthAdjust="spacing" textLength="150" x="170.5" y="267.7285">+registerSkill(skillName)</text><text fill="#000000" font-family="sans-serif" font-size="14" lengthAdjust="spacing" textLength="201" x="170.5" y="286.3496">+registerSkillsFromFile(filePath)</text><text fill="#000000" font-family="sans-serif" font-size="14" lengthAdjust="spacing" textLength="179" x="170.5" y="304.9707">-readSkillsFromFile(filePath)</text></g><!--class HRM--><g id="elem_HRM"><rect codeLine="48" fill="#F1F1F1" height="48" id="HRM" rx="2.5" ry="2.5" style="stroke:#181818;stroke-width:0.5;" width="62" x="519" y="227"/><ellipse cx="534" cy="243" fill="#ADD1B2" rx="11" ry="11" style="stroke:#181818;stroke-width:1.0;"/><path d="M536.7656,238.875 Q536.9219,238.6563 537.1094,238.5469 Q537.2969,238.4375 537.5156,238.4375 Q537.8906,238.4375 538.125,238.7031 Q538.3594,238.9531 538.3594,239.5625 L538.3594,241.0156 Q538.3594,241.625 538.125,241.8906 Q537.8906,242.1563 537.5156,242.1563 Q537.1719,242.1563 536.9688,241.9531 Q536.7656,241.7656 536.6563,241.25 Q536.6094,240.8906 536.4219,240.7031 Q536.0938,240.3281 535.4844,240.1094 Q534.875,239.8906 534.25,239.8906 Q533.4844,239.8906 532.8438,240.2188 Q532.2188,240.5469 531.7188,241.2969 Q531.2344,242.0469 531.2344,243.0781 L531.2344,244.1719 Q531.2344,245.4063 532.125,246.2344 Q533.0156,247.0469 534.6094,247.0469 Q535.5469,247.0469 536.2031,246.7969 Q536.5938,246.6406 537.0156,246.2031 Q537.2813,245.9375 537.4219,245.8594 Q537.5781,245.7813 537.7813,245.7813 Q538.1094,245.7813 538.3594,246.0469 Q538.625,246.2969 538.625,246.6406 Q538.625,246.9844 538.2813,247.3906 Q537.7813,247.9688 536.9844,248.2969 Q535.9063,248.75 534.6094,248.75 Q533.0938,248.75 531.8906,248.125 Q530.9063,247.625 530.2188,246.5625 Q529.5313,245.4844 529.5313,244.2031 L529.5313,243.0469 Q529.5313,241.7188 530.1406,240.5781 Q530.7656,239.4219 531.8594,238.8125 Q532.9531,238.1875 534.1875,238.1875 Q534.9219,238.1875 535.5625,238.3594 Q536.2188,238.5156 536.7656,238.875 Z " fill="#000000"/><text fill="#000000" font-family="sans-serif" font-size="14" lengthAdjust="spacing" textLength="30" x="548" y="248.7969">HRM</text><line style="stroke:#181818;stroke-width:0.5;" x1="520" x2="580" y1="259" y2="259"/><line style="stroke:#181818;stroke-width:0.5;" x1="520" x2="580" y1="267" y2="267"/></g><!--class SystemUser--><g id="elem_SystemUser"><rect codeLine="50" fill="#F1F1F1" height="122.4844" id="SystemUser" rx="2.5" ry="2.5" style="stroke:#181818;stroke-width:0.5;" width="107" x="496.5" y="7"/><ellipse cx="511.5" cy="23" fill="#ADD1B2" rx="11" ry="11" style="stroke:#181818;stroke-width:1.0;"/><path d="M514.2656,18.875 Q514.4219,18.6563 514.6094,18.5469 Q514.7969,18.4375 515.0156,18.4375 Q515.3906,18.4375 515.625,18.7031 Q515.8594,18.9531 515.8594,19.5625 L515.8594,21.0156 Q515.8594,21.625 515.625,21.8906 Q515.3906,22.1563 515.0156,22.1563 Q514.6719,22.1563 514.4688,21.9531 Q514.2656,21.7656 514.1563,21.25 Q514.1094,20.8906 513.9219,20.7031 Q513.5938,20.3281 512.9844,20.1094 Q512.375,19.8906 511.75,19.8906 Q510.9844,19.8906 510.3438,20.2188 Q509.7188,20.5469 509.2188,21.2969 Q508.7344,22.0469 508.7344,23.0781 L508.7344,24.1719 Q508.7344,25.4063 509.625,26.2344 Q510.5156,27.0469 512.1094,27.0469 Q513.0469,27.0469 513.7031,26.7969 Q514.0938,26.6406 514.5156,26.2031 Q514.7813,25.9375 514.9219,25.8594 Q515.0781,25.7813 515.2813,25.7813 Q515.6094,25.7813 515.8594,26.0469 Q516.125,26.2969 516.125,26.6406 Q516.125,26.9844 515.7813,27.3906 Q515.2813,27.9688 514.4844,28.2969 Q513.4063,28.75 512.1094,28.75 Q510.5938,28.75 509.3906,28.125 Q508.4063,27.625 507.7188,26.5625 Q507.0313,25.4844 507.0313,24.2031 L507.0313,23.0469 Q507.0313,21.7188 507.6406,20.5781 Q508.2656,19.4219 509.3594,18.8125 Q510.4531,18.1875 511.6875,18.1875 Q512.4219,18.1875 513.0625,18.3594 Q513.7188,18.5156 514.2656,18.875 Z " fill="#000000"/><text fill="#000000" font-family="sans-serif" font-size="14" lengthAdjust="spacing" textLength="75" x="525.5" y="28.7969">SystemUser</text><line style="stroke:#181818;stroke-width:0.5;" x1="497.5" x2="602.5" y1="39" y2="39"/><text fill="#000000" font-family="sans-serif" font-size="14" lengthAdjust="spacing" textLength="35" x="502.5" y="58.1074">name</text><text fill="#000000" font-family="sans-serif" font-size="14" lengthAdjust="spacing" textLength="33" x="502.5" y="76.7285">email</text><text fill="#000000" font-family="sans-serif" font-size="14" lengthAdjust="spacing" textLength="60" x="502.5" y="95.3496">password</text><text fill="#000000" font-family="sans-serif" font-size="14" lengthAdjust="spacing" textLength="40" x="502.5" y="113.9707">phone</text><line style="stroke:#181818;stroke-width:0.5;" x1="497.5" x2="602.5" y1="121.4844" y2="121.4844"/></g><!--class RegisterSkillUI--><g id="elem_RegisterSkillUI"><rect codeLine="57" fill="#F1F1F1" height="48" id="RegisterSkillUI" rx="2.5" ry="2.5" style="stroke:#181818;stroke-width:0.5;" width="122" x="7" y="227"/><ellipse cx="22" cy="243" fill="#ADD1B2" rx="11" ry="11" style="stroke:#181818;stroke-width:1.0;"/><path d="M24.7656,238.875 Q24.9219,238.6563 25.1094,238.5469 Q25.2969,238.4375 25.5156,238.4375 Q25.8906,238.4375 26.125,238.7031 Q26.3594,238.9531 26.3594,239.5625 L26.3594,241.0156 Q26.3594,241.625 26.125,241.8906 Q25.8906,242.1563 25.5156,242.1563 Q25.1719,242.1563 24.9688,241.9531 Q24.7656,241.7656 24.6563,241.25 Q24.6094,240.8906 24.4219,240.7031 Q24.0938,240.3281 23.4844,240.1094 Q22.875,239.8906 22.25,239.8906 Q21.4844,239.8906 20.8438,240.2188 Q20.2188,240.5469 19.7188,241.2969 Q19.2344,242.0469 19.2344,243.0781 L19.2344,244.1719 Q19.2344,245.4063 20.125,246.2344 Q21.0156,247.0469 22.6094,247.0469 Q23.5469,247.0469 24.2031,246.7969 Q24.5938,246.6406 25.0156,246.2031 Q25.2813,245.9375 25.4219,245.8594 Q25.5781,245.7813 25.7813,245.7813 Q26.1094,245.7813 26.3594,246.0469 Q26.625,246.2969 26.625,246.6406 Q26.625,246.9844 26.2813,247.3906 Q25.7813,247.9688 24.9844,248.2969 Q23.9063,248.75 22.6094,248.75 Q21.0938,248.75 19.8906,248.125 Q18.9063,247.625 18.2188,246.5625 Q17.5313,245.4844 17.5313,244.2031 L17.5313,243.0469 Q17.5313,241.7188 18.1406,240.5781 Q18.7656,239.4219 19.8594,238.8125 Q20.9531,238.1875 22.1875,238.1875 Q22.9219,238.1875 23.5625,238.3594 Q24.2188,238.5156 24.7656,238.875 Z " fill="#000000"/><text fill="#000000" font-family="sans-serif" font-size="14" lengthAdjust="spacing" textLength="90" x="36" y="248.7969">RegisterSkillUI</text><line style="stroke:#181818;stroke-width:0.5;" x1="8" x2="128" y1="259" y2="259"/><line style="stroke:#181818;stroke-width:0.5;" x1="8" x2="128" y1="267" y2="267"/></g><!--reverse link SystemUser to HRM--><g id="link_SystemUser_HRM"><path codeLine="59" d="M550,147.02 C550,180.57 550,202.44 550,226.98 " fill="none" id="SystemUser-backto-HRM" style="stroke:#181818;stroke-width:1.0;"/><polygon fill="none" points="550,129.02,544,147.02,556,147.02,550,129.02" style="stroke:#181818;stroke-width:1.0;"/></g><!--reverse link HRM to Skill--><g id="link_HRM_Skill"><path codeLine="60" d="M550,281.02 C550,314.38 550,371.34 550,418.53 " fill="none" id="HRM-backto-Skill" style="stroke:#181818;stroke-width:1.0;"/><polygon fill="#181818" points="550,275.02,546,284.02,550,280.02,554,284.02,550,275.02" style="stroke:#181818;stroke-width:1.0;"/><text fill="#000000" font-family="sans-serif" font-size="13" lengthAdjust="spacing" textLength="75" x="551" y="357.0283">registered by</text></g><!--link RegisterSkillController to Repositories--><g id="link_RegisterSkillController_Repositories"><path codeLine="61" d="M271,312.24 C271,336.27 271,358.43 271,384.69 " fill="none" id="RegisterSkillController-to-Repositories" style="stroke:#181818;stroke-width:1.0;stroke-dasharray:7.0,7.0;"/><polygon fill="#181818" points="271,390.69,275,381.69,271,385.69,267,381.69,271,390.69" style="stroke:#181818;stroke-width:1.0;"/><text fill="#000000" font-family="sans-serif" font-size="13" lengthAdjust="spacing" textLength="67" x="272" y="357.0283">repositories</text></g><!--link RegisterSkillController to SkillRepository--><g id="link_RegisterSkillController_SkillRepository"><path codeLine="62" d="M180.55,312.16 C124.06,349.73 62,391 62,391 C62,391 62,569 62,569 C62,569 112.5851,602.8807 166.4151,638.9407 " fill="none" id="RegisterSkillController-to-SkillRepository" style="stroke:#181818;stroke-width:1.0;stroke-dasharray:7.0,7.0;"/><polygon fill="#181818" points="171.4,642.28,166.1489,633.9478,167.2459,639.4972,161.6965,640.5943,171.4,642.28" style="stroke:#181818;stroke-width:1.0;"/><text fill="#000000" font-family="sans-serif" font-size="13" lengthAdjust="spacing" textLength="85" x="63" y="485.5283">skillRepository</text></g><!--link RegisterSkillController to Skill--><g id="link_RegisterSkillController_Skill"><path codeLine="63" d="M357.56,312.16 C411.61,349.73 471,391 471,391 C471,391 478.1,398.9168 491.99,414.3768 " fill="none" id="RegisterSkillController-to-Skill" style="stroke:#181818;stroke-width:1.0;stroke-dasharray:7.0,7.0;"/><polygon fill="#181818" points="496,418.84,492.9605,409.4719,492.6584,415.1207,487.0096,414.8185,496,418.84" style="stroke:#181818;stroke-width:1.0;"/><text fill="#000000" font-family="sans-serif" font-size="13" lengthAdjust="spacing" textLength="23" x="429" y="357.0283">skill</text></g><!--link RegisterSkillUI to RegisterSkillController--><g id="link_RegisterSkillUI_RegisterSkillController"><path codeLine="65" d="M129.18,251 C133.19,251 135.67,251 135.67,251 C135.67,251 143.32,251 158.36,251 " fill="none" id="RegisterSkillUI-to-RegisterSkillController" style="stroke:#181818;stroke-width:1.0;stroke-dasharray:7.0,7.0;"/><polygon fill="#181818" points="164.36,251,155.36,247,159.36,251,155.36,255,164.36,251" style="stroke:#181818;stroke-width:1.0;"/></g><!--link Repositories to SkillRepository--><g id="link_Repositories_SkillRepository"><path codeLine="66" d="M271,569.15 C271,589.08 271,604.11 271,623.65 " fill="none" id="Repositories-to-SkillRepository" style="stroke:#181818;stroke-width:1.0;"/><polygon fill="#181818" points="271,629.65,275,620.65,271,624.65,267,620.65,271,629.65" style="stroke:#181818;stroke-width:1.0;"/><text fill="#000000" font-family="sans-serif" font-size="13" lengthAdjust="spacing" textLength="7" x="263.6883" y="618.7903">1</text></g><!--link Repositories to Repositories--><g id="link_Repositories_Repositories"><path codeLine="67" d="M375.26,458.86 C395.58,461.31 410,468.36 410,480 C410,491.64 401.5369,497.9718 381.2169,500.4218 " fill="none" id="Repositories-to-Repositories" style="stroke:#181818;stroke-width:1.0;"/><polygon fill="#181818" points="375.26,501.14,384.6741,504.0339,380.224,500.5415,383.7165,496.0914,375.26,501.14" style="stroke:#181818;stroke-width:1.0;"/><text fill="#000000" font-family="sans-serif" font-size="13" lengthAdjust="spacing" textLength="49" x="416" y="485.5283">instance</text></g><!--reverse link Skill to SkillRepository--><g id="link_Skill_SkillRepository"><path codeLine="68" d="M491.99,545.6232 C478.1,561.0832 471,569 471,569 C471,569 420.8,604.14 370.71,639.21 " fill="none" id="Skill-backto-SkillRepository" style="stroke:#181818;stroke-width:1.0;"/><polygon fill="#181818" points="496,541.16,487.0096,545.1815,492.6584,544.8793,492.9605,550.5281,496,541.16" style="stroke:#181818;stroke-width:1.0;"/><text fill="#000000" font-family="sans-serif" font-size="13" lengthAdjust="spacing" textLength="5" x="484.1141" y="563.6663">*</text></g><!--SRC=[ZLF1Rjim3BthAuXSagrmiLs3ea3HePY7RHXgf7T5PcmYikH92WglwxzFicDRTfrjEHWXt-FZ8oMjxP5KpGsleD9AYzBe2i6P4x8HgRauyW8prqW4Wy9nLSYOO4kUwsTI1Houj34YIQ5hQeHQooO4RBq0QkCqYwg4vDRUEMTeVtAO2gqo-eNmWR6rn8C3fy5GKJh8ATWXhHXhQo0xafJmmi3_4iYyWZTbG_8xhx1DNtMapP1zTquNw4AuYU9FQ8MXEdJmwTU-ooFMsfBJXj3wPkpSBax7AgcoVcN2AyDsGXefzrfAljU6Us1WDB784vOa92w3xKJBq1UzNmRkJgv4vKZmCDw4ypfPvmY5MQSzlv9rWwZ1meTeBkpN-ZCySvFkJ5Bxn2NbSse2r05Pdt_B61AftIdwUPfGeeEA7DrhvOpVCvfnZWk4_nrf0ji7_tWUIEBcu3y_k2jximPvVf4ocFty-0rUnjKtNhZQsTPja57z1SQAasp_rPxuh4tU1QNspsjvz5tQAaUQDx-J97HaeIlS-A1xEjjX9inXtx1B6xo-lfq-Wr0OtUo_rSrlrROxpJ7px-g-Xh7vdAslnMesyPiajwkFgxcN6UVDZ7H-ognpiNg_6dSNgVm1]--></g></svg>