<?xml version="1.0" encoding="us-ascii" standalone="no"?><svg xmlns="http://www.w3.org/2000/svg" xmlns:xlink="http://www.w3.org/1999/xlink" contentStyleType="text/css" height="493px" preserveAspectRatio="none" style="width:631px;height:493px;background:#FFFFFF;" version="1.1" viewBox="0 0 631 493" width="631px" zoomAndPan="magnify"><defs/><g><text fill="#000000" font-family="sans-serif" font-size="14" font-weight="bold" lengthAdjust="spacing" textLength="284" x="172.5" y="30.1074">System Sequence Diagram (SSD) - US003</text><rect fill="#FFFFFF" height="268.6191" style="stroke:#181818;stroke-width:1.0;" width="10" x="18" y="133.2422"/><rect fill="#FFFFFF" height="31.291" style="stroke:#181818;stroke-width:1.0;" width="10" x="588" y="156.5332"/><rect fill="#FFFFFF" height="31.291" style="stroke:#181818;stroke-width:1.0;" width="10" x="588" y="219.1152"/><rect fill="#FFFFFF" height="48.582" style="stroke:#181818;stroke-width:1.0;" width="10" x="588" y="281.6973"/><rect fill="#FFFFFF" height="31.291" style="stroke:#181818;stroke-width:1.0;" width="10" x="588" y="361.5703"/><line style="stroke:#181818;stroke-width:0.5;stroke-dasharray:5.0,5.0;" x1="23" x2="23" y1="123.2422" y2="410.8613"/><line style="stroke:#181818;stroke-width:0.5;stroke-dasharray:5.0,5.0;" x1="593" x2="593" y1="123.2422" y2="410.8613"/><text fill="#000000" font-family="sans-serif" font-size="14" lengthAdjust="spacing" textLength="30" x="5" y="119.7285">HRM</text><ellipse cx="23" cy="53.1211" fill="#E3E3E3" rx="8" ry="8" style="stroke:#181818;stroke-width:0.5;"/><path d="M23,61.1211 L23,88.1211 M10,69.1211 L36,69.1211 M23,88.1211 L10,103.1211 M23,88.1211 L36,103.1211 " fill="none" style="stroke:#181818;stroke-width:0.5;"/><text fill="#000000" font-family="sans-serif" font-size="14" lengthAdjust="spacing" textLength="30" x="5" y="424.9688">HRM</text><ellipse cx="23" cy="436.9824" fill="#E3E3E3" rx="8" ry="8" style="stroke:#181818;stroke-width:0.5;"/><path d="M23,444.9824 L23,471.9824 M10,452.9824 L36,452.9824 M23,471.9824 L10,486.9824 M23,471.9824 L36,486.9824 " fill="none" style="stroke:#181818;stroke-width:0.5;"/><rect fill="#E3E3E3" height="32.6211" rx="2.5" ry="2.5" style="stroke:#181818;stroke-width:0.5;" width="64" x="561" y="89.6211"/><text fill="#000000" font-family="sans-serif" font-size="14" lengthAdjust="spacing" textLength="50" x="568" y="111.7285">:System</text><rect fill="#E3E3E3" height="32.6211" rx="2.5" ry="2.5" style="stroke:#181818;stroke-width:0.5;" width="64" x="561" y="409.8613"/><text fill="#000000" font-family="sans-serif" font-size="14" lengthAdjust="spacing" textLength="50" x="568" y="431.9688">:System</text><rect fill="#FFFFFF" height="268.6191" style="stroke:#181818;stroke-width:1.0;" width="10" x="18" y="133.2422"/><rect fill="#FFFFFF" height="31.291" style="stroke:#181818;stroke-width:1.0;" width="10" x="588" y="156.5332"/><rect fill="#FFFFFF" height="31.291" style="stroke:#181818;stroke-width:1.0;" width="10" x="588" y="219.1152"/><rect fill="#FFFFFF" height="48.582" style="stroke:#181818;stroke-width:1.0;" width="10" x="588" y="281.6973"/><rect fill="#FFFFFF" height="31.291" style="stroke:#181818;stroke-width:1.0;" width="10" x="588" y="361.5703"/><polygon fill="#181818" points="576,152.5332,586,156.5332,576,160.5332,580,156.5332" style="stroke:#181818;stroke-width:1.0;"/><line style="stroke:#181818;stroke-width:1.0;" x1="28" x2="582" y1="156.5332" y2="156.5332"/><text fill="#000000" font-family="sans-serif" font-size="13" font-weight="bold" lengthAdjust="spacing" textLength="7" x="35" y="151.2705">1</text><text fill="#000000" font-family="sans-serif" font-size="13" lengthAdjust="spacing" textLength="172" x="46" y="151.2705">asks to register a collaborator</text><polygon fill="#181818" points="39,183.8242,29,187.8242,39,191.8242,35,187.8242" style="stroke:#181818;stroke-width:1.0;"/><line style="stroke:#181818;stroke-width:1.0;stroke-dasharray:2.0,2.0;" x1="33" x2="592" y1="187.8242" y2="187.8242"/><text fill="#000000" font-family="sans-serif" font-size="13" font-weight="bold" lengthAdjust="spacing" textLength="7" x="45" y="182.5615">2</text><text fill="#000000" font-family="sans-serif" font-size="13" lengthAdjust="spacing" textLength="244" x="56" y="182.5615">shows the jobs list and asks to select one</text><polygon fill="#181818" points="576,215.1152,586,219.1152,576,223.1152,580,219.1152" style="stroke:#181818;stroke-width:1.0;"/><line style="stroke:#181818;stroke-width:1.0;" x1="28" x2="582" y1="219.1152" y2="219.1152"/><text fill="#000000" font-family="sans-serif" font-size="13" font-weight="bold" lengthAdjust="spacing" textLength="7" x="35" y="213.8525">3</text><text fill="#000000" font-family="sans-serif" font-size="13" lengthAdjust="spacing" textLength="74" x="46" y="213.8525">selects a job</text><polygon fill="#181818" points="39,246.4063,29,250.4063,39,254.4063,35,250.4063" style="stroke:#181818;stroke-width:1.0;"/><line style="stroke:#181818;stroke-width:1.0;stroke-dasharray:2.0,2.0;" x1="33" x2="592" y1="250.4063" y2="250.4063"/><text fill="#000000" font-family="sans-serif" font-size="13" font-weight="bold" lengthAdjust="spacing" textLength="7" x="45" y="245.1436">4</text><text fill="#000000" font-family="sans-serif" font-size="13" lengthAdjust="spacing" textLength="310" x="56" y="245.1436">shows the  id document types and asks to select one</text><polygon fill="#181818" points="576,277.6973,586,281.6973,576,285.6973,580,281.6973" style="stroke:#181818;stroke-width:1.0;"/><line style="stroke:#181818;stroke-width:1.0;" x1="28" x2="582" y1="281.6973" y2="281.6973"/><text fill="#000000" font-family="sans-serif" font-size="13" font-weight="bold" lengthAdjust="spacing" textLength="7" x="35" y="276.4346">5</text><text fill="#000000" font-family="sans-serif" font-size="13" lengthAdjust="spacing" textLength="164" x="46" y="276.4346">selects an id document type</text><polygon fill="#181818" points="39,326.2793,29,330.2793,39,334.2793,35,330.2793" style="stroke:#181818;stroke-width:1.0;"/><line style="stroke:#181818;stroke-width:1.0;stroke-dasharray:2.0,2.0;" x1="33" x2="592" y1="330.2793" y2="330.2793"/><text fill="#000000" font-family="sans-serif" font-size="13" font-weight="bold" lengthAdjust="spacing" textLength="7" x="45" y="316.3711">6</text><text fill="#000000" font-family="sans-serif" font-size="13" lengthAdjust="spacing" textLength="521" x="56" y="307.7256">requests data (id document's number, name, birthday, admission date, address, cellphone</text><text fill="#000000" font-family="sans-serif" font-size="13" lengthAdjust="spacing" textLength="90" x="56" y="325.0166">number, e-mail)</text><polygon fill="#181818" points="576,357.5703,586,361.5703,576,365.5703,580,361.5703" style="stroke:#181818;stroke-width:1.0;"/><line style="stroke:#181818;stroke-width:1.0;" x1="28" x2="582" y1="361.5703" y2="361.5703"/><text fill="#000000" font-family="sans-serif" font-size="13" font-weight="bold" lengthAdjust="spacing" textLength="7" x="35" y="356.3076">7</text><text fill="#000000" font-family="sans-serif" font-size="13" lengthAdjust="spacing" textLength="61" x="46" y="356.3076">types data</text><polygon fill="#181818" points="39,388.8613,29,392.8613,39,396.8613,35,392.8613" style="stroke:#181818;stroke-width:1.0;"/><line style="stroke:#181818;stroke-width:1.0;stroke-dasharray:2.0,2.0;" x1="33" x2="592" y1="392.8613" y2="392.8613"/><text fill="#000000" font-family="sans-serif" font-size="13" font-weight="bold" lengthAdjust="spacing" textLength="7" x="45" y="387.5986">8</text><text fill="#000000" font-family="sans-serif" font-size="13" lengthAdjust="spacing" textLength="158" x="56" y="387.5986">displays operation success</text><!--SRC=[hP8_JyCm4CLtVufJ5rgfaIgnTM0g4WiB4HlBrJuIK_y9FeSgtvvBqePAf20aF3dElNU_Upe-sD1WGWy-XgZh53r1JYqfdluqg0zOKPaxHv18PmoLkopW6aqysb31ApecfRBDKbfsdCb3IUyj1KsmirZrvSkotAsWWEToixbL2jiSG-ltbEIkSqomU7XwN00otFl6nOv8IPzijMqmP5XiH-EXOhmEGlk1cRua2kISlw2uE-DiHNPWo556gQmy9K3GqJdSnuJIVX1EVkS6S3edbq8C9_Ej912FubaJlCKzWnDVm62cLanESeCOQ30oDEi_IpjAMI35UfQjVrE_SO4rOA9kFKc4kMk8_nqmVEinfJQ7F61VZpJrQyFYQp0ZB2-iRnZ6VLb3G4zhsDkKQuFT6j1uosnZw5NKVvj4p6lGv5nJotZm4ivYAZnQj_hpm6DwFTRyggWVfZAM6uSTGsn8jgqdvLPhORo2yGa0]--></g></svg>