<?xml version="1.0" encoding="us-ascii" standalone="no"?><svg xmlns="http://www.w3.org/2000/svg" xmlns:xlink="http://www.w3.org/1999/xlink" contentStyleType="text/css" height="1039px" preserveAspectRatio="none" style="width:970px;height:1039px;background:#FFFFFF;" version="1.1" viewBox="0 0 970 1039" width="970px" zoomAndPan="magnify"><defs/><g><!--class Vehicle--><g id="elem_Vehicle"><rect codeLine="11" fill="#F1F1F1" height="345.9375" id="Vehicle" rx="2.5" ry="2.5" style="stroke:#181818;stroke-width:0.5;" width="240" x="542" y="410"/><ellipse cx="634.75" cy="426" fill="#ADD1B2" rx="11" ry="11" style="stroke:#181818;stroke-width:1.0;"/><path d="M637.5156,421.875 Q637.6719,421.6563 637.8594,421.5469 Q638.0469,421.4375 638.2656,421.4375 Q638.6406,421.4375 638.875,421.7031 Q639.1094,421.9531 639.1094,422.5625 L639.1094,424.0156 Q639.1094,424.625 638.875,424.8906 Q638.6406,425.1563 638.2656,425.1563 Q637.9219,425.1563 637.7188,424.9531 Q637.5156,424.7656 637.4063,424.25 Q637.3594,423.8906 637.1719,423.7031 Q636.8438,423.3281 636.2344,423.1094 Q635.625,422.8906 635,422.8906 Q634.2344,422.8906 633.5938,423.2188 Q632.9688,423.5469 632.4688,424.2969 Q631.9844,425.0469 631.9844,426.0781 L631.9844,427.1719 Q631.9844,428.4063 632.875,429.2344 Q633.7656,430.0469 635.3594,430.0469 Q636.2969,430.0469 636.9531,429.7969 Q637.3438,429.6406 637.7656,429.2031 Q638.0313,428.9375 638.1719,428.8594 Q638.3281,428.7813 638.5313,428.7813 Q638.8594,428.7813 639.1094,429.0469 Q639.375,429.2969 639.375,429.6406 Q639.375,429.9844 639.0313,430.3906 Q638.5313,430.9688 637.7344,431.2969 Q636.6563,431.75 635.3594,431.75 Q633.8438,431.75 632.6406,431.125 Q631.6563,430.625 630.9688,429.5625 Q630.2813,428.4844 630.2813,427.2031 L630.2813,426.0469 Q630.2813,424.7188 630.8906,423.5781 Q631.5156,422.4219 632.6094,421.8125 Q633.7031,421.1875 634.9375,421.1875 Q635.6719,421.1875 636.3125,421.3594 Q636.9688,421.5156 637.5156,421.875 Z " fill="#000000"/><text fill="#000000" font-family="sans-serif" font-size="14" lengthAdjust="spacing" textLength="46" x="655.25" y="431.7969">Vehicle</text><line style="stroke:#181818;stroke-width:0.5;" x1="543" x2="781" y1="442" y2="442"/><text fill="#000000" font-family="sans-serif" font-size="14" lengthAdjust="spacing" textLength="42" x="548" y="461.1074">-brand</text><text fill="#000000" font-family="sans-serif" font-size="14" lengthAdjust="spacing" textLength="43" x="548" y="479.7285">-model</text><text fill="#000000" font-family="sans-serif" font-size="14" lengthAdjust="spacing" textLength="62" x="548" y="498.3496">-vehicleID</text><text fill="#000000" font-family="sans-serif" font-size="14" lengthAdjust="spacing" textLength="32" x="548" y="516.9707">-type</text><text fill="#000000" font-family="sans-serif" font-size="14" lengthAdjust="spacing" textLength="84" x="548" y="535.5918">-grossWeight</text><text fill="#000000" font-family="sans-serif" font-size="14" lengthAdjust="spacing" textLength="30" x="548" y="554.2129">-tare</text><text fill="#000000" font-family="sans-serif" font-size="14" lengthAdjust="spacing" textLength="70" x="548" y="572.834">-currentKm</text><text fill="#000000" font-family="sans-serif" font-size="14" lengthAdjust="spacing" textLength="83" x="548" y="591.4551">-registerDate</text><text fill="#000000" font-family="sans-serif" font-size="14" lengthAdjust="spacing" textLength="102" x="548" y="610.0762">-acquisitionDate</text><text fill="#000000" font-family="sans-serif" font-size="14" lengthAdjust="spacing" textLength="126" x="548" y="628.6973">-checkupFrequency</text><line style="stroke:#181818;stroke-width:0.5;" x1="543" x2="781" y1="636.2109" y2="636.2109"/><text fill="#000000" font-family="sans-serif" font-size="14" lengthAdjust="spacing" textLength="211" x="548" y="655.3184">+Vehicle(brand, model, vehicleID,</text><text fill="#000000" font-family="sans-serif" font-size="14" lengthAdjust="spacing" textLength="224" x="552" y="673.9395">type, grossWeight, tare, currentKm,</text><text fill="#000000" font-family="sans-serif" font-size="14" lengthAdjust="spacing" textLength="187" x="552" y="692.5605">registerDate, acquisitionDate,</text><text fill="#000000" font-family="sans-serif" font-size="14" lengthAdjust="spacing" textLength="126" x="552" y="711.1816">checkupFrequency)</text><text fill="#000000" font-family="sans-serif" font-size="14" lengthAdjust="spacing" textLength="60" x="548" y="729.8027">+equals()</text><text fill="#000000" font-family="sans-serif" font-size="14" lengthAdjust="spacing" textLength="113" x="548" y="748.4238">+needsCheckup()</text></g><!--class Repositories--><g id="elem_Repositories"><rect codeLine="27" fill="#F1F1F1" height="178.3477" id="Repositories" rx="2.5" ry="2.5" style="stroke:#181818;stroke-width:0.5;" width="208" x="220" y="494"/><ellipse cx="280.25" cy="510" fill="#ADD1B2" rx="11" ry="11" style="stroke:#181818;stroke-width:1.0;"/><path d="M283.0156,505.875 Q283.1719,505.6563 283.3594,505.5469 Q283.5469,505.4375 283.7656,505.4375 Q284.1406,505.4375 284.375,505.7031 Q284.6094,505.9531 284.6094,506.5625 L284.6094,508.0156 Q284.6094,508.625 284.375,508.8906 Q284.1406,509.1563 283.7656,509.1563 Q283.4219,509.1563 283.2188,508.9531 Q283.0156,508.7656 282.9063,508.25 Q282.8594,507.8906 282.6719,507.7031 Q282.3438,507.3281 281.7344,507.1094 Q281.125,506.8906 280.5,506.8906 Q279.7344,506.8906 279.0938,507.2188 Q278.4688,507.5469 277.9688,508.2969 Q277.4844,509.0469 277.4844,510.0781 L277.4844,511.1719 Q277.4844,512.4063 278.375,513.2344 Q279.2656,514.0469 280.8594,514.0469 Q281.7969,514.0469 282.4531,513.7969 Q282.8438,513.6406 283.2656,513.2031 Q283.5313,512.9375 283.6719,512.8594 Q283.8281,512.7813 284.0313,512.7813 Q284.3594,512.7813 284.6094,513.0469 Q284.875,513.2969 284.875,513.6406 Q284.875,513.9844 284.5313,514.3906 Q284.0313,514.9688 283.2344,515.2969 Q282.1563,515.75 280.8594,515.75 Q279.3438,515.75 278.1406,515.125 Q277.1563,514.625 276.4688,513.5625 Q275.7813,512.4844 275.7813,511.2031 L275.7813,510.0469 Q275.7813,508.7188 276.3906,507.5781 Q277.0156,506.4219 278.1094,505.8125 Q279.2031,505.1875 280.4375,505.1875 Q281.1719,505.1875 281.8125,505.3594 Q282.4688,505.5156 283.0156,505.875 Z " fill="#000000"/><text fill="#000000" font-family="sans-serif" font-size="14" lengthAdjust="spacing" textLength="79" x="300.75" y="515.7969">Repositories</text><line style="stroke:#181818;stroke-width:0.5;" x1="221" x2="427" y1="526" y2="526"/><line style="stroke:#181818;stroke-width:0.5;" x1="221" x2="427" y1="534" y2="534"/><text fill="#000000" font-family="sans-serif" font-size="14" lengthAdjust="spacing" textLength="94" x="226" y="553.1074">-Repositories()</text><text fill="#000000" font-family="sans-serif" font-size="14" lengthAdjust="spacing" textLength="182" x="226" y="571.7285">+getInstance() : Repositories</text><text fill="#000000" font-family="sans-serif" font-size="14" lengthAdjust="spacing" textLength="184" x="226" y="590.3496">+getCollaboratorRepository()</text><text fill="#000000" font-family="sans-serif" font-size="14" lengthAdjust="spacing" textLength="152" x="226" y="608.9707">+getVehicleRepository()</text><text fill="#000000" font-family="sans-serif" font-size="14" lengthAdjust="spacing" textLength="131" x="226" y="627.5918">+getSkillRepository()</text><text fill="#000000" font-family="sans-serif" font-size="14" lengthAdjust="spacing" textLength="128" x="226" y="646.2129">+getJobRepository()</text><text fill="#000000" font-family="sans-serif" font-size="14" lengthAdjust="spacing" textLength="196" x="226" y="664.834">+getAuthenticationRepository()</text></g><!--class VehicleRepository--><g id="elem_VehicleRepository"><rect codeLine="39" fill="#F1F1F1" height="215.5898" id="VehicleRepository" rx="2.5" ry="2.5" style="stroke:#181818;stroke-width:0.5;" width="271" x="526.5" y="817"/><ellipse cx="600.75" cy="833" fill="#ADD1B2" rx="11" ry="11" style="stroke:#181818;stroke-width:1.0;"/><path d="M603.5156,828.875 Q603.6719,828.6563 603.8594,828.5469 Q604.0469,828.4375 604.2656,828.4375 Q604.6406,828.4375 604.875,828.7031 Q605.1094,828.9531 605.1094,829.5625 L605.1094,831.0156 Q605.1094,831.625 604.875,831.8906 Q604.6406,832.1563 604.2656,832.1563 Q603.9219,832.1563 603.7188,831.9531 Q603.5156,831.7656 603.4063,831.25 Q603.3594,830.8906 603.1719,830.7031 Q602.8438,830.3281 602.2344,830.1094 Q601.625,829.8906 601,829.8906 Q600.2344,829.8906 599.5938,830.2188 Q598.9688,830.5469 598.4688,831.2969 Q597.9844,832.0469 597.9844,833.0781 L597.9844,834.1719 Q597.9844,835.4063 598.875,836.2344 Q599.7656,837.0469 601.3594,837.0469 Q602.2969,837.0469 602.9531,836.7969 Q603.3438,836.6406 603.7656,836.2031 Q604.0313,835.9375 604.1719,835.8594 Q604.3281,835.7813 604.5313,835.7813 Q604.8594,835.7813 605.1094,836.0469 Q605.375,836.2969 605.375,836.6406 Q605.375,836.9844 605.0313,837.3906 Q604.5313,837.9688 603.7344,838.2969 Q602.6563,838.75 601.3594,838.75 Q599.8438,838.75 598.6406,838.125 Q597.6563,837.625 596.9688,836.5625 Q596.2813,835.4844 596.2813,834.2031 L596.2813,833.0469 Q596.2813,831.7188 596.8906,830.5781 Q597.5156,829.4219 598.6094,828.8125 Q599.7031,828.1875 600.9375,828.1875 Q601.6719,828.1875 602.3125,828.3594 Q602.9688,828.5156 603.5156,828.875 Z " fill="#000000"/><text fill="#000000" font-family="sans-serif" font-size="14" lengthAdjust="spacing" textLength="114" x="621.25" y="838.7969">VehicleRepository</text><line style="stroke:#181818;stroke-width:0.5;" x1="527.5" x2="796.5" y1="849" y2="849"/><text fill="#000000" font-family="sans-serif" font-size="14" lengthAdjust="spacing" textLength="71" x="532.5" y="868.1074">-vehicleList</text><line style="stroke:#181818;stroke-width:0.5;" x1="527.5" x2="796.5" y1="875.6211" y2="875.6211"/><text fill="#000000" font-family="sans-serif" font-size="14" lengthAdjust="spacing" textLength="106" x="532.5" y="894.7285">+getVehicleList()</text><text fill="#000000" font-family="sans-serif" font-size="14" lengthAdjust="spacing" textLength="259" x="532.5" y="913.3496">+registerVehicle(brand, model, vehicleID,</text><text fill="#000000" font-family="sans-serif" font-size="14" lengthAdjust="spacing" textLength="224" x="536.5" y="931.9707">type, grossWeight, tare, currentKm,</text><text fill="#000000" font-family="sans-serif" font-size="14" lengthAdjust="spacing" textLength="187" x="536.5" y="950.5918">registerDate, acquisitionDate,</text><text fill="#000000" font-family="sans-serif" font-size="14" lengthAdjust="spacing" textLength="126" x="536.5" y="969.2129">checkupFrequency)</text><text fill="#000000" font-family="sans-serif" font-size="14" lengthAdjust="spacing" textLength="42" x="532.5" y="987.834">+size()</text><text fill="#000000" font-family="sans-serif" font-size="14" lengthAdjust="spacing" textLength="199" x="532.5" y="1006.4551">+getVehiclesNeedingCheckup()</text><text fill="#000000" font-family="sans-serif" font-size="14" lengthAdjust="spacing" textLength="159" x="532.5" y="1025.0762">-isVehicleUnique(vehicle)</text></g><!--class RegisterVehicleController--><g id="elem_RegisterVehicleController"><rect codeLine="48" fill="#F1F1F1" height="141.1055" id="RegisterVehicleController" rx="2.5" ry="2.5" style="stroke:#181818;stroke-width:0.5;" width="426" x="341" y="190"/><ellipse cx="469.25" cy="206" fill="#ADD1B2" rx="11" ry="11" style="stroke:#181818;stroke-width:1.0;"/><path d="M472.0156,201.875 Q472.1719,201.6563 472.3594,201.5469 Q472.5469,201.4375 472.7656,201.4375 Q473.1406,201.4375 473.375,201.7031 Q473.6094,201.9531 473.6094,202.5625 L473.6094,204.0156 Q473.6094,204.625 473.375,204.8906 Q473.1406,205.1563 472.7656,205.1563 Q472.4219,205.1563 472.2188,204.9531 Q472.0156,204.7656 471.9063,204.25 Q471.8594,203.8906 471.6719,203.7031 Q471.3438,203.3281 470.7344,203.1094 Q470.125,202.8906 469.5,202.8906 Q468.7344,202.8906 468.0938,203.2188 Q467.4688,203.5469 466.9688,204.2969 Q466.4844,205.0469 466.4844,206.0781 L466.4844,207.1719 Q466.4844,208.4063 467.375,209.2344 Q468.2656,210.0469 469.8594,210.0469 Q470.7969,210.0469 471.4531,209.7969 Q471.8438,209.6406 472.2656,209.2031 Q472.5313,208.9375 472.6719,208.8594 Q472.8281,208.7813 473.0313,208.7813 Q473.3594,208.7813 473.6094,209.0469 Q473.875,209.2969 473.875,209.6406 Q473.875,209.9844 473.5313,210.3906 Q473.0313,210.9688 472.2344,211.2969 Q471.1563,211.75 469.8594,211.75 Q468.3438,211.75 467.1406,211.125 Q466.1563,210.625 465.4688,209.5625 Q464.7813,208.4844 464.7813,207.2031 L464.7813,206.0469 Q464.7813,204.7188 465.3906,203.5781 Q466.0156,202.4219 467.1094,201.8125 Q468.2031,201.1875 469.4375,201.1875 Q470.1719,201.1875 470.8125,201.3594 Q471.4688,201.5156 472.0156,201.875 Z " fill="#000000"/><text fill="#000000" font-family="sans-serif" font-size="14" lengthAdjust="spacing" textLength="161" x="489.75" y="211.7969">RegisterVehicleController</text><line style="stroke:#181818;stroke-width:0.5;" x1="342" x2="766" y1="222" y2="222"/><line style="stroke:#181818;stroke-width:0.5;" x1="342" x2="766" y1="230" y2="230"/><text fill="#000000" font-family="sans-serif" font-size="14" lengthAdjust="spacing" textLength="179" x="347" y="249.1074">+RegisterVehicleController()</text><text fill="#000000" font-family="sans-serif" font-size="14" lengthAdjust="spacing" textLength="414" x="347" y="267.7285">+registerVehicle(brand, model, vehicleID, type, grossWeight, tare,</text><text fill="#000000" font-family="sans-serif" font-size="14" lengthAdjust="spacing" textLength="390" x="351" y="286.3496">currentKm, registerDate, acquisitionDate, checkupFrequency)</text><text fill="#000000" font-family="sans-serif" font-size="14" lengthAdjust="spacing" textLength="149" x="347" y="304.9707">-getVehicleRepository()</text><text fill="#000000" font-family="sans-serif" font-size="14" lengthAdjust="spacing" textLength="142" x="347" y="323.5918">-getVehicleTypesList()</text></g><!--class VehicleTypeRepository--><g id="elem_VehicleTypeRepository"><rect codeLine="56" fill="#F1F1F1" height="48" id="VehicleTypeRepository" rx="2.5" ry="2.5" style="stroke:#181818;stroke-width:0.5;" width="178" x="7" y="559"/><ellipse cx="22" cy="575" fill="#ADD1B2" rx="11" ry="11" style="stroke:#181818;stroke-width:1.0;"/><path d="M24.7656,570.875 Q24.9219,570.6563 25.1094,570.5469 Q25.2969,570.4375 25.5156,570.4375 Q25.8906,570.4375 26.125,570.7031 Q26.3594,570.9531 26.3594,571.5625 L26.3594,573.0156 Q26.3594,573.625 26.125,573.8906 Q25.8906,574.1563 25.5156,574.1563 Q25.1719,574.1563 24.9688,573.9531 Q24.7656,573.7656 24.6563,573.25 Q24.6094,572.8906 24.4219,572.7031 Q24.0938,572.3281 23.4844,572.1094 Q22.875,571.8906 22.25,571.8906 Q21.4844,571.8906 20.8438,572.2188 Q20.2188,572.5469 19.7188,573.2969 Q19.2344,574.0469 19.2344,575.0781 L19.2344,576.1719 Q19.2344,577.4063 20.125,578.2344 Q21.0156,579.0469 22.6094,579.0469 Q23.5469,579.0469 24.2031,578.7969 Q24.5938,578.6406 25.0156,578.2031 Q25.2813,577.9375 25.4219,577.8594 Q25.5781,577.7813 25.7813,577.7813 Q26.1094,577.7813 26.3594,578.0469 Q26.625,578.2969 26.625,578.6406 Q26.625,578.9844 26.2813,579.3906 Q25.7813,579.9688 24.9844,580.2969 Q23.9063,580.75 22.6094,580.75 Q21.0938,580.75 19.8906,580.125 Q18.9063,579.625 18.2188,578.5625 Q17.5313,577.4844 17.5313,576.2031 L17.5313,575.0469 Q17.5313,573.7188 18.1406,572.5781 Q18.7656,571.4219 19.8594,570.8125 Q20.9531,570.1875 22.1875,570.1875 Q22.9219,570.1875 23.5625,570.3594 Q24.2188,570.5156 24.7656,570.875 Z " fill="#000000"/><text fill="#000000" font-family="sans-serif" font-size="14" lengthAdjust="spacing" textLength="146" x="36" y="580.7969">VehicleTypeRepository</text><line style="stroke:#181818;stroke-width:0.5;" x1="8" x2="184" y1="591" y2="591"/><line style="stroke:#181818;stroke-width:0.5;" x1="8" x2="184" y1="599" y2="599"/></g><!--class VFM--><g id="elem_VFM"><rect codeLine="58" fill="#F1F1F1" height="48" id="VFM" rx="2.5" ry="2.5" style="stroke:#181818;stroke-width:0.5;" width="61" x="879.5" y="236.5"/><ellipse cx="894.5" cy="252.5" fill="#ADD1B2" rx="11" ry="11" style="stroke:#181818;stroke-width:1.0;"/><path d="M897.2656,248.375 Q897.4219,248.1563 897.6094,248.0469 Q897.7969,247.9375 898.0156,247.9375 Q898.3906,247.9375 898.625,248.2031 Q898.8594,248.4531 898.8594,249.0625 L898.8594,250.5156 Q898.8594,251.125 898.625,251.3906 Q898.3906,251.6563 898.0156,251.6563 Q897.6719,251.6563 897.4688,251.4531 Q897.2656,251.2656 897.1563,250.75 Q897.1094,250.3906 896.9219,250.2031 Q896.5938,249.8281 895.9844,249.6094 Q895.375,249.3906 894.75,249.3906 Q893.9844,249.3906 893.3438,249.7188 Q892.7188,250.0469 892.2188,250.7969 Q891.7344,251.5469 891.7344,252.5781 L891.7344,253.6719 Q891.7344,254.9063 892.625,255.7344 Q893.5156,256.5469 895.1094,256.5469 Q896.0469,256.5469 896.7031,256.2969 Q897.0938,256.1406 897.5156,255.7031 Q897.7813,255.4375 897.9219,255.3594 Q898.0781,255.2813 898.2813,255.2813 Q898.6094,255.2813 898.8594,255.5469 Q899.125,255.7969 899.125,256.1406 Q899.125,256.4844 898.7813,256.8906 Q898.2813,257.4688 897.4844,257.7969 Q896.4063,258.25 895.1094,258.25 Q893.5938,258.25 892.3906,257.625 Q891.4063,257.125 890.7188,256.0625 Q890.0313,254.9844 890.0313,253.7031 L890.0313,252.5469 Q890.0313,251.2188 890.6406,250.0781 Q891.2656,248.9219 892.3594,248.3125 Q893.4531,247.6875 894.6875,247.6875 Q895.4219,247.6875 896.0625,247.8594 Q896.7188,248.0156 897.2656,248.375 Z " fill="#000000"/><text fill="#000000" font-family="sans-serif" font-size="14" lengthAdjust="spacing" textLength="29" x="908.5" y="258.2969">VFM</text><line style="stroke:#181818;stroke-width:0.5;" x1="880.5" x2="939.5" y1="268.5" y2="268.5"/><line style="stroke:#181818;stroke-width:0.5;" x1="880.5" x2="939.5" y1="276.5" y2="276.5"/></g><!--class SystemUser--><g id="elem_SystemUser"><rect codeLine="60" fill="#F1F1F1" height="122.4844" id="SystemUser" rx="2.5" ry="2.5" style="stroke:#181818;stroke-width:0.5;" width="107" x="856.5" y="7"/><ellipse cx="871.5" cy="23" fill="#ADD1B2" rx="11" ry="11" style="stroke:#181818;stroke-width:1.0;"/><path d="M874.2656,18.875 Q874.4219,18.6563 874.6094,18.5469 Q874.7969,18.4375 875.0156,18.4375 Q875.3906,18.4375 875.625,18.7031 Q875.8594,18.9531 875.8594,19.5625 L875.8594,21.0156 Q875.8594,21.625 875.625,21.8906 Q875.3906,22.1563 875.0156,22.1563 Q874.6719,22.1563 874.4688,21.9531 Q874.2656,21.7656 874.1563,21.25 Q874.1094,20.8906 873.9219,20.7031 Q873.5938,20.3281 872.9844,20.1094 Q872.375,19.8906 871.75,19.8906 Q870.9844,19.8906 870.3438,20.2188 Q869.7188,20.5469 869.2188,21.2969 Q868.7344,22.0469 868.7344,23.0781 L868.7344,24.1719 Q868.7344,25.4063 869.625,26.2344 Q870.5156,27.0469 872.1094,27.0469 Q873.0469,27.0469 873.7031,26.7969 Q874.0938,26.6406 874.5156,26.2031 Q874.7813,25.9375 874.9219,25.8594 Q875.0781,25.7813 875.2813,25.7813 Q875.6094,25.7813 875.8594,26.0469 Q876.125,26.2969 876.125,26.6406 Q876.125,26.9844 875.7813,27.3906 Q875.2813,27.9688 874.4844,28.2969 Q873.4063,28.75 872.1094,28.75 Q870.5938,28.75 869.3906,28.125 Q868.4063,27.625 867.7188,26.5625 Q867.0313,25.4844 867.0313,24.2031 L867.0313,23.0469 Q867.0313,21.7188 867.6406,20.5781 Q868.2656,19.4219 869.3594,18.8125 Q870.4531,18.1875 871.6875,18.1875 Q872.4219,18.1875 873.0625,18.3594 Q873.7188,18.5156 874.2656,18.875 Z " fill="#000000"/><text fill="#000000" font-family="sans-serif" font-size="14" lengthAdjust="spacing" textLength="75" x="885.5" y="28.7969">SystemUser</text><line style="stroke:#181818;stroke-width:0.5;" x1="857.5" x2="962.5" y1="39" y2="39"/><text fill="#000000" font-family="sans-serif" font-size="14" lengthAdjust="spacing" textLength="35" x="862.5" y="58.1074">name</text><text fill="#000000" font-family="sans-serif" font-size="14" lengthAdjust="spacing" textLength="33" x="862.5" y="76.7285">email</text><text fill="#000000" font-family="sans-serif" font-size="14" lengthAdjust="spacing" textLength="60" x="862.5" y="95.3496">password</text><text fill="#000000" font-family="sans-serif" font-size="14" lengthAdjust="spacing" textLength="40" x="862.5" y="113.9707">phone</text><line style="stroke:#181818;stroke-width:0.5;" x1="857.5" x2="962.5" y1="121.4844" y2="121.4844"/></g><!--class RegisterVehicleUI--><g id="elem_RegisterVehicleUI"><rect fill="#F1F1F1" height="48" id="RegisterVehicleUI" rx="2.5" ry="2.5" style="stroke:#181818;stroke-width:0.5;" width="143" x="162.5" y="236.5"/><ellipse cx="177.5" cy="252.5" fill="#ADD1B2" rx="11" ry="11" style="stroke:#181818;stroke-width:1.0;"/><path d="M180.2656,248.375 Q180.4219,248.1563 180.6094,248.0469 Q180.7969,247.9375 181.0156,247.9375 Q181.3906,247.9375 181.625,248.2031 Q181.8594,248.4531 181.8594,249.0625 L181.8594,250.5156 Q181.8594,251.125 181.625,251.3906 Q181.3906,251.6563 181.0156,251.6563 Q180.6719,251.6563 180.4688,251.4531 Q180.2656,251.2656 180.1563,250.75 Q180.1094,250.3906 179.9219,250.2031 Q179.5938,249.8281 178.9844,249.6094 Q178.375,249.3906 177.75,249.3906 Q176.9844,249.3906 176.3438,249.7188 Q175.7188,250.0469 175.2188,250.7969 Q174.7344,251.5469 174.7344,252.5781 L174.7344,253.6719 Q174.7344,254.9063 175.625,255.7344 Q176.5156,256.5469 178.1094,256.5469 Q179.0469,256.5469 179.7031,256.2969 Q180.0938,256.1406 180.5156,255.7031 Q180.7813,255.4375 180.9219,255.3594 Q181.0781,255.2813 181.2813,255.2813 Q181.6094,255.2813 181.8594,255.5469 Q182.125,255.7969 182.125,256.1406 Q182.125,256.4844 181.7813,256.8906 Q181.2813,257.4688 180.4844,257.7969 Q179.4063,258.25 178.1094,258.25 Q176.5938,258.25 175.3906,257.625 Q174.4063,257.125 173.7188,256.0625 Q173.0313,254.9844 173.0313,253.7031 L173.0313,252.5469 Q173.0313,251.2188 173.6406,250.0781 Q174.2656,248.9219 175.3594,248.3125 Q176.4531,247.6875 177.6875,247.6875 Q178.4219,247.6875 179.0625,247.8594 Q179.7188,248.0156 180.2656,248.375 Z " fill="#000000"/><text fill="#000000" font-family="sans-serif" font-size="14" lengthAdjust="spacing" textLength="111" x="191.5" y="258.2969">RegisterVehicleUI</text><line style="stroke:#181818;stroke-width:0.5;" x1="163.5" x2="304.5" y1="268.5" y2="268.5"/><line style="stroke:#181818;stroke-width:0.5;" x1="163.5" x2="304.5" y1="276.5" y2="276.5"/></g><!--reverse link SystemUser to VFM--><g id="link_SystemUser_VFM"><path codeLine="68" d="M910,147.01 C910,183.44 910,209.87 910,236.36 " fill="none" id="SystemUser-backto-VFM" style="stroke:#181818;stroke-width:1.0;"/><polygon fill="none" points="910,129.01,904,147.01,916,147.01,910,129.01" style="stroke:#181818;stroke-width:1.0;"/></g><!--reverse link VFM to Vehicle--><g id="link_VFM_Vehicle"><path codeLine="69" d="M888.4888,289.2958 C864.9488,319.7258 825.11,371.21 782.21,426.65 " fill="none" id="VFM-backto-Vehicle" style="stroke:#181818;stroke-width:1.0;"/><polygon fill="#181818" points="892.16,284.55,883.4893,289.2212,889.1007,288.5048,889.817,294.1161,892.16,284.55" style="stroke:#181818;stroke-width:1.0;"/><text fill="#000000" font-family="sans-serif" font-size="13" lengthAdjust="spacing" textLength="75" x="830" y="376.0283">registered by</text></g><!--link RegisterVehicleController to Repositories--><g id="link_RegisterVehicleController_Repositories"><path codeLine="70" d="M504.09,331.04 C469.81,378.82 427.5083,437.7554 390.6783,489.0754 " fill="none" id="RegisterVehicleController-to-Repositories" style="stroke:#181818;stroke-width:1.0;stroke-dasharray:7.0,7.0;"/><polygon fill="#181818" points="387.18,493.95,395.6772,488.9703,390.0952,489.8878,389.1777,484.3059,387.18,493.95" style="stroke:#181818;stroke-width:1.0;"/><text fill="#000000" font-family="sans-serif" font-size="13" lengthAdjust="spacing" textLength="67" x="481" y="376.0283">repositories</text></g><!--link RegisterVehicleController to VehicleRepository--><g id="link_RegisterVehicleController_VehicleRepository"><path codeLine="71" d="M669.44,331.18 C733.35,369.77 800,410 800,410 C800,410 800,756 800,756 C800,756 781.0283,779.0935 753.9883,812.0135 " fill="none" id="RegisterVehicleController-to-VehicleRepository" style="stroke:#181818;stroke-width:1.0;stroke-dasharray:7.0,7.0;"/><polygon fill="#181818" points="750.18,816.65,758.9834,812.2342,753.3536,812.7863,752.8015,807.1564,750.18,816.65" style="stroke:#181818;stroke-width:1.0;"/><text fill="#000000" font-family="sans-serif" font-size="13" lengthAdjust="spacing" textLength="101" x="801" y="588.5283">vehicleRepository</text></g><!--link RegisterVehicleController to VehicleTypeRepository--><g id="link_RegisterVehicleController_VehicleTypeRepository"><path codeLine="72" d="M364.68,331.01 C318.96,347.8 283,361 283,361 C283,361 202,410 202,410 C202,410 142.3776,506.7419 113.4476,553.6919 " fill="none" id="RegisterVehicleController-to-VehicleTypeRepository" style="stroke:#181818;stroke-width:1.0;stroke-dasharray:7.0,7.0;"/><polygon fill="#181818" points="110.3,558.8,118.4268,553.2362,112.923,554.5432,111.6159,549.0394,110.3,558.8" style="stroke:#181818;stroke-width:1.0;"/><text fill="#000000" font-family="sans-serif" font-size="13" lengthAdjust="spacing" textLength="181" x="284" y="376.0283">VehicleTypeRepository.values()</text></g><!--link RegisterVehicleController to Vehicle--><g id="link_RegisterVehicleController_Vehicle"><path codeLine="73" d="M577.43,331.04 C585.34,354.52 592.6436,376.1743 602.0236,404.0043 " fill="none" id="RegisterVehicleController-to-Vehicle" style="stroke:#181818;stroke-width:1.0;stroke-dasharray:7.0,7.0;"/><polygon fill="#181818" points="603.94,409.69,604.856,399.8838,602.343,404.9519,597.275,402.439,603.94,409.69" style="stroke:#181818;stroke-width:1.0;"/><text fill="#000000" font-family="sans-serif" font-size="13" lengthAdjust="spacing" textLength="39" x="593" y="376.0283">vehicle</text></g><!--link RegisterVehicleUI to RegisterVehicleController--><g id="link_RegisterVehicleUI_RegisterVehicleController"><path codeLine="75" d="M305.74,260.5 C325.04,260.5 340.67,260.5 340.67,260.5 C340.67,260.5 334.77,260.5 334.97,260.5 " fill="none" id="RegisterVehicleUI-to-RegisterVehicleController" style="stroke:#181818;stroke-width:1.0;stroke-dasharray:7.0,7.0;"/><polygon fill="#181818" points="340.97,260.5,331.97,256.5,335.97,260.5,331.97,264.5,340.97,260.5" style="stroke:#181818;stroke-width:1.0;"/></g><!--link Repositories to VehicleRepository--><g id="link_Repositories_VehicleRepository"><path codeLine="76" d="M411.48,672 C455.49,716.27 504.9697,766.0451 551.3597,812.7051 " fill="none" id="Repositories-to-VehicleRepository" style="stroke:#181818;stroke-width:1.0;"/><polygon fill="#181818" points="555.59,816.96,552.0812,807.7574,552.0647,813.4142,546.4079,813.3978,555.59,816.96" style="stroke:#181818;stroke-width:1.0;"/><text fill="#000000" font-family="sans-serif" font-size="13" lengthAdjust="spacing" textLength="7" x="540.862" y="805.8188">1</text></g><!--link Repositories to Repositories--><g id="link_Repositories_Repositories"><path codeLine="77" d="M428.26,546.81 C448.58,551.01 463,563.08 463,583 C463,602.92 454.4558,613.7755 434.1358,617.9755 " fill="none" id="Repositories-to-Repositories" style="stroke:#181818;stroke-width:1.0;"/><polygon fill="#181818" points="428.26,619.19,437.8834,621.2855,433.1565,618.1779,436.264,613.4511,428.26,619.19" style="stroke:#181818;stroke-width:1.0;"/><text fill="#000000" font-family="sans-serif" font-size="13" lengthAdjust="spacing" textLength="49" x="469" y="588.5283">instance</text></g><!--reverse link Vehicle to VehicleRepository--><g id="link_Vehicle_VehicleRepository"><path codeLine="78" d="M662,762.49 C662,783.04 662,797.54 662,816.79 " fill="none" id="Vehicle-backto-VehicleRepository" style="stroke:#181818;stroke-width:1.0;"/><polygon fill="#181818" points="662,756.49,658,765.49,662,761.49,666,765.49,662,756.49" style="stroke:#181818;stroke-width:1.0;"/><text fill="#000000" font-family="sans-serif" font-size="13" lengthAdjust="spacing" textLength="5" x="656.8945" y="778.2035">*</text></g><!--SRC=[nLHDRzim3BthLmYv9DtiOBi6HO4YHO7iwx0issKNHMPj8RBaId8Bh-j_dsJBaUmuNNUQJoBvI3yzKfph0nCLKQJ4fHII5agMW8sg0OL8HUY1vB0r3GUiW1eYSXu3T44o-SX4Zky8rt64Cm6cgG1NaZVEGFE9e5H6eYYBSgBrjJ6AxMi36oh5blq2_0wXEOSxWut4YkM5mHbpT9WK2BKv-3iKZ5gMJmZRByLxHKJcpwNCWFlpGuVRt7ZRqV37N4cjVu2htmU9weEqLWg4-LXwMq7Ej05rGqmF8VI-PfevLf6N5a0FTNMhuBu6GPlM_RRdksXv9Xt59B1BVegMMXApIbf2IU3YK36HPCp10SO4BZm3QzgUBNfJ06HwtM6jyxaNzYjKqXQKYe6swY9_hTXzh963sGXjfuJ2uWAl1g00MKlEoLugOWD7H1CNyU9C1xS7nlbqw8FSJmUkQrDOnHWbJfa1vdaqGI7Opv9loYShymb5vpp-g6_5_- -jjgzcGb3znJRPljRGvgwPJ7l0JZ1RQE6f3gPWSBMr54RPDe9o8z7zvYpad_KvguwxyL6VlwXpHflqfVcAWzyi1-tREvuH5ml9Jo5y-na7QzjOTkLEjoAvyeAKtLQ0ah1k8LKM-2XLjwcgGjezQVDHb7hvEqrTOUIAuqjd-5MtEYe06Tutw7oFbikhuJjsgT7JV3dpz66i-cO5t-jg38MpTIRzomV2wtQjlAfee8F62RiDRgz-fWeQY9AcLxFtizFhZb0dKZA_yb3FP_Pc5ZSgglG7]--></g></svg>