<?xml version="1.0" encoding="us-ascii" standalone="no"?><svg xmlns="http://www.w3.org/2000/svg" xmlns:xlink="http://www.w3.org/1999/xlink" contentStyleType="text/css" height="649.6px" preserveAspectRatio="none" style="width:1095px;height:649px;background:#FFFFFF;" version="1.1" viewBox="0 0 1095 649" width="1095.2px" zoomAndPan="magnify"><defs/><g><!--class CreateTeamProposalUI--><g id="elem_CreateTeamProposalUI"><rect codeLine="12" fill="#F1F1F1" height="38.4" id="CreateTeamProposalUI" rx="2" ry="2" style="stroke:#181818;stroke-width:0.4000000000000001;" width="146.4" x="428.8" y="5.6"/><ellipse cx="440.8" cy="18.4" fill="#ADD1B2" rx="8.8" ry="8.8" style="stroke:#181818;stroke-width:0.8000000000000002;"/><path d="M443.0125,15.1 Q443.1375,14.925 443.2875,14.8375 Q443.4375,14.75 443.6125,14.75 Q443.9125,14.75 444.1,14.9625 Q444.2875,15.1625 444.2875,15.65 L444.2875,16.8125 Q444.2875,17.3 444.1,17.5125 Q443.9125,17.725 443.6125,17.725 Q443.3375,17.725 443.175,17.5625 Q443.0125,17.4125 442.925,17 Q442.8875,16.7125 442.7375,16.5625 Q442.475,16.2625 441.9875,16.0875 Q441.5,15.9125 441,15.9125 Q440.3875,15.9125 439.875,16.175 Q439.375,16.4375 438.975,17.0375 Q438.5875,17.6375 438.5875,18.4625 L438.5875,19.3375 Q438.5875,20.325 439.3,20.9875 Q440.0125,21.6375 441.2875,21.6375 Q442.0375,21.6375 442.5625,21.4375 Q442.875,21.3125 443.2125,20.9625 Q443.425,20.75 443.5375,20.6875 Q443.6625,20.625 443.825,20.625 Q444.0875,20.625 444.2875,20.8375 Q444.5,21.0375 444.5,21.3125 Q444.5,21.5875 444.225,21.9125 Q443.825,22.375 443.1875,22.6375 Q442.325,23 441.2875,23 Q440.075,23 439.1125,22.5 Q438.325,22.1 437.775,21.25 Q437.225,20.3875 437.225,19.3625 L437.225,18.4375 Q437.225,17.375 437.7125,16.4625 Q438.2125,15.5375 439.0875,15.05 Q439.9625,14.55 440.95,14.55 Q441.5375,14.55 442.05,14.6875 Q442.575,14.8125 443.0125,15.1 Z " fill="#000000"/><text fill="#000000" font-family="sans-serif" font-size="11.2" lengthAdjust="spacing" textLength="120.8" x="452" y="23.0375">:CreateTeamProposalUI</text><line style="stroke:#181818;stroke-width:0.4000000000000001;" x1="429.6" x2="574.4" y1="31.2" y2="31.2"/><line style="stroke:#181818;stroke-width:0.4000000000000001;" x1="429.6" x2="574.4" y1="37.6" y2="37.6"/></g><!--class CreateTeamProposalController--><g id="elem_CreateTeamProposalController"><rect codeLine="17" fill="#F1F1F1" height="97.9875" id="CreateTeamProposalController" rx="2" ry="2" style="stroke:#181818;stroke-width:0.4000000000000001;" width="204" x="400" y="92.8"/><ellipse cx="419.92" cy="105.6" fill="#ADD1B2" rx="8.8" ry="8.8" style="stroke:#181818;stroke-width:0.8000000000000002;"/><path d="M422.1325,102.3 Q422.2575,102.125 422.4075,102.0375 Q422.5575,101.95 422.7325,101.95 Q423.0325,101.95 423.22,102.1625 Q423.4075,102.3625 423.4075,102.85 L423.4075,104.0125 Q423.4075,104.5 423.22,104.7125 Q423.0325,104.925 422.7325,104.925 Q422.4575,104.925 422.295,104.7625 Q422.1325,104.6125 422.045,104.2 Q422.0075,103.9125 421.8575,103.7625 Q421.595,103.4625 421.1075,103.2875 Q420.62,103.1125 420.12,103.1125 Q419.5075,103.1125 418.995,103.375 Q418.495,103.6375 418.095,104.2375 Q417.7075,104.8375 417.7075,105.6625 L417.7075,106.5375 Q417.7075,107.525 418.42,108.1875 Q419.1325,108.8375 420.4075,108.8375 Q421.1575,108.8375 421.6825,108.6375 Q421.995,108.5125 422.3325,108.1625 Q422.545,107.95 422.6575,107.8875 Q422.7825,107.825 422.945,107.825 Q423.2075,107.825 423.4075,108.0375 Q423.62,108.2375 423.62,108.5125 Q423.62,108.7875 423.345,109.1125 Q422.945,109.575 422.3075,109.8375 Q421.445,110.2 420.4075,110.2 Q419.195,110.2 418.2325,109.7 Q417.445,109.3 416.895,108.45 Q416.345,107.5875 416.345,106.5625 L416.345,105.6375 Q416.345,104.575 416.8325,103.6625 Q417.3325,102.7375 418.2075,102.25 Q419.0825,101.75 420.07,101.75 Q420.6575,101.75 421.17,101.8875 Q421.695,102.0125 422.1325,102.3 Z " fill="#000000"/><text fill="#000000" font-family="sans-serif" font-size="11.2" lengthAdjust="spacing" textLength="160.8" x="432.88" y="110.2375">:CreateTeamProposalController</text><line style="stroke:#181818;stroke-width:0.4000000000000001;" x1="400.8" x2="603.2" y1="118.4" y2="118.4"/><line style="stroke:#181818;stroke-width:0.4000000000000001;" x1="400.8" x2="603.2" y1="124.8" y2="124.8"/><text fill="#000000" font-family="sans-serif" font-size="11.2" lengthAdjust="spacing" textLength="73.6" x="404.8" y="140.0859">+getSkillsList()</text><text fill="#000000" font-family="sans-serif" font-size="11.2" lengthAdjust="spacing" textLength="194.4" x="404.8" y="154.9828">+createTeamProposal(max, min, skills)</text><text fill="#000000" font-family="sans-serif" font-size="11.2" lengthAdjust="spacing" textLength="146.4" x="404.8" y="169.8797">+acceptTeamProposal(team)</text><text fill="#000000" font-family="sans-serif" font-size="11.2" lengthAdjust="spacing" textLength="144.8" x="404.8" y="184.7766">+refuseTeamProposal(team)</text></g><!--class CreateTeamProposalService--><g id="elem_CreateTeamProposalService"><rect codeLine="25" fill="#F1F1F1" height="97.9875" id="CreateTeamProposalService" rx="2" ry="2" style="stroke:#181818;stroke-width:0.4000000000000001;" width="239.2" x="260" y="253.6"/><ellipse cx="301.8" cy="266.4" fill="#ADD1B2" rx="8.8" ry="8.8" style="stroke:#181818;stroke-width:0.8000000000000002;"/><path d="M304.0125,263.1 Q304.1375,262.925 304.2875,262.8375 Q304.4375,262.75 304.6125,262.75 Q304.9125,262.75 305.1,262.9625 Q305.2875,263.1625 305.2875,263.65 L305.2875,264.8125 Q305.2875,265.3 305.1,265.5125 Q304.9125,265.725 304.6125,265.725 Q304.3375,265.725 304.175,265.5625 Q304.0125,265.4125 303.925,265 Q303.8875,264.7125 303.7375,264.5625 Q303.475,264.2625 302.9875,264.0875 Q302.5,263.9125 302,263.9125 Q301.3875,263.9125 300.875,264.175 Q300.375,264.4375 299.975,265.0375 Q299.5875,265.6375 299.5875,266.4625 L299.5875,267.3375 Q299.5875,268.325 300.3,268.9875 Q301.0125,269.6375 302.2875,269.6375 Q303.0375,269.6375 303.5625,269.4375 Q303.875,269.3125 304.2125,268.9625 Q304.425,268.75 304.5375,268.6875 Q304.6625,268.625 304.825,268.625 Q305.0875,268.625 305.2875,268.8375 Q305.5,269.0375 305.5,269.3125 Q305.5,269.5875 305.225,269.9125 Q304.825,270.375 304.1875,270.6375 Q303.325,271 302.2875,271 Q301.075,271 300.1125,270.5 Q299.325,270.1 298.775,269.25 Q298.225,268.3875 298.225,267.3625 L298.225,266.4375 Q298.225,265.375 298.7125,264.4625 Q299.2125,263.5375 300.0875,263.05 Q300.9625,262.55 301.95,262.55 Q302.5375,262.55 303.05,262.6875 Q303.575,262.8125 304.0125,263.1 Z " fill="#000000"/><text fill="#000000" font-family="sans-serif" font-size="11.2" lengthAdjust="spacing" textLength="148.8" x="318.2" y="271.0375">:CreateTeamProposalService</text><line style="stroke:#181818;stroke-width:0.4000000000000001;" x1="260.8" x2="498.4" y1="279.2" y2="279.2"/><line style="stroke:#181818;stroke-width:0.4000000000000001;" x1="260.8" x2="498.4" y1="285.6" y2="285.6"/><text fill="#000000" font-family="sans-serif" font-size="11.2" lengthAdjust="spacing" textLength="179.2" x="264.8" y="300.8859">+arrangeCollaboratorsBySkill(skills)</text><text fill="#000000" font-family="sans-serif" font-size="11.2" lengthAdjust="spacing" textLength="229.6" x="264.8" y="315.7828">+arrangeTeam(max, min, skills, collaborators)</text><text fill="#000000" font-family="sans-serif" font-size="11.2" lengthAdjust="spacing" textLength="146.4" x="264.8" y="330.6797">+acceptTeamProposal(team)</text><text fill="#000000" font-family="sans-serif" font-size="11.2" lengthAdjust="spacing" textLength="144.8" x="264.8" y="345.5766">+refuseTeamProposal(team)</text></g><!--class Repositories--><g id="elem_Repositories"><rect codeLine="33" fill="#F1F1F1" height="97.9875" id="Repositories" rx="2" ry="2" style="stroke:#181818;stroke-width:0.4000000000000001;" width="195.2" x="527.6" y="253.6"/><ellipse cx="588.6" cy="266.4" fill="#ADD1B2" rx="8.8" ry="8.8" style="stroke:#181818;stroke-width:0.8000000000000002;"/><path d="M590.8125,263.1 Q590.9375,262.925 591.0875,262.8375 Q591.2375,262.75 591.4125,262.75 Q591.7125,262.75 591.9,262.9625 Q592.0875,263.1625 592.0875,263.65 L592.0875,264.8125 Q592.0875,265.3 591.9,265.5125 Q591.7125,265.725 591.4125,265.725 Q591.1375,265.725 590.975,265.5625 Q590.8125,265.4125 590.725,265 Q590.6875,264.7125 590.5375,264.5625 Q590.275,264.2625 589.7875,264.0875 Q589.3,263.9125 588.8,263.9125 Q588.1875,263.9125 587.675,264.175 Q587.175,264.4375 586.775,265.0375 Q586.3875,265.6375 586.3875,266.4625 L586.3875,267.3375 Q586.3875,268.325 587.1,268.9875 Q587.8125,269.6375 589.0875,269.6375 Q589.8375,269.6375 590.3625,269.4375 Q590.675,269.3125 591.0125,268.9625 Q591.225,268.75 591.3375,268.6875 Q591.4625,268.625 591.625,268.625 Q591.8875,268.625 592.0875,268.8375 Q592.3,269.0375 592.3,269.3125 Q592.3,269.5875 592.025,269.9125 Q591.625,270.375 590.9875,270.6375 Q590.125,271 589.0875,271 Q587.875,271 586.9125,270.5 Q586.125,270.1 585.575,269.25 Q585.025,268.3875 585.025,267.3625 L585.025,266.4375 Q585.025,265.375 585.5125,264.4625 Q586.0125,263.5375 586.8875,263.05 Q587.7625,262.55 588.75,262.55 Q589.3375,262.55 589.85,262.6875 Q590.375,262.8125 590.8125,263.1 Z " fill="#000000"/><text fill="#000000" font-family="sans-serif" font-size="11.2" lengthAdjust="spacing" textLength="66.4" x="605" y="271.0375">:Repositories</text><line style="stroke:#181818;stroke-width:0.4000000000000001;" x1="528.4" x2="722" y1="279.2" y2="279.2"/><line style="stroke:#181818;stroke-width:0.4000000000000001;" x1="528.4" x2="722" y1="285.6" y2="285.6"/><text fill="#000000" font-family="sans-serif" font-size="11.2" lengthAdjust="spacing" textLength="142.4" x="532.4" y="300.8859">+getInstance(): Repositories</text><text fill="#000000" font-family="sans-serif" font-size="11.2" lengthAdjust="spacing" textLength="185.6" x="532.4" y="315.7828">+getSkillRepository(): SkillRepository</text><text fill="#000000" font-family="sans-serif" font-size="11.2" lengthAdjust="spacing" textLength="147.2" x="532.4" y="330.6797">+getCollaboratorRepository()</text><text fill="#000000" font-family="sans-serif" font-size="11.2" lengthAdjust="spacing" textLength="113.6" x="532.4" y="345.5766">+getTeamRepository()</text></g><!--class SkillRepository--><g id="elem_SkillRepository"><rect codeLine="40" fill="#F1F1F1" height="53.2969" id="SkillRepository" rx="2" ry="2" style="stroke:#181818;stroke-width:0.4000000000000001;" width="100" x="5.6" y="407.2"/><ellipse cx="17.6" cy="420" fill="#ADD1B2" rx="8.8" ry="8.8" style="stroke:#181818;stroke-width:0.8000000000000002;"/><path d="M19.8125,416.7 Q19.9375,416.525 20.0875,416.4375 Q20.2375,416.35 20.4125,416.35 Q20.7125,416.35 20.9,416.5625 Q21.0875,416.7625 21.0875,417.25 L21.0875,418.4125 Q21.0875,418.9 20.9,419.1125 Q20.7125,419.325 20.4125,419.325 Q20.1375,419.325 19.975,419.1625 Q19.8125,419.0125 19.725,418.6 Q19.6875,418.3125 19.5375,418.1625 Q19.275,417.8625 18.7875,417.6875 Q18.3,417.5125 17.8,417.5125 Q17.1875,417.5125 16.675,417.775 Q16.175,418.0375 15.775,418.6375 Q15.3875,419.2375 15.3875,420.0625 L15.3875,420.9375 Q15.3875,421.925 16.1,422.5875 Q16.8125,423.2375 18.0875,423.2375 Q18.8375,423.2375 19.3625,423.0375 Q19.675,422.9125 20.0125,422.5625 Q20.225,422.35 20.3375,422.2875 Q20.4625,422.225 20.625,422.225 Q20.8875,422.225 21.0875,422.4375 Q21.3,422.6375 21.3,422.9125 Q21.3,423.1875 21.025,423.5125 Q20.625,423.975 19.9875,424.2375 Q19.125,424.6 18.0875,424.6 Q16.875,424.6 15.9125,424.1 Q15.125,423.7 14.575,422.85 Q14.025,421.9875 14.025,420.9625 L14.025,420.0375 Q14.025,418.975 14.5125,418.0625 Q15.0125,417.1375 15.8875,416.65 Q16.7625,416.15 17.75,416.15 Q18.3375,416.15 18.85,416.2875 Q19.375,416.4125 19.8125,416.7 Z " fill="#000000"/><text fill="#000000" font-family="sans-serif" font-size="11.2" lengthAdjust="spacing" textLength="74.4" x="28.8" y="424.6375">SkillRepository</text><line style="stroke:#181818;stroke-width:0.4000000000000001;" x1="6.4" x2="104.8" y1="432.8" y2="432.8"/><line style="stroke:#181818;stroke-width:0.4000000000000001;" x1="6.4" x2="104.8" y1="439.2" y2="439.2"/><text fill="#000000" font-family="sans-serif" font-size="11.2" lengthAdjust="spacing" textLength="73.6" x="10.4" y="454.4859">+getSkillsList()</text></g><!--class HRM--><g id="elem_HRM"><rect codeLine="45" fill="#F1F1F1" height="38.4" id="HRM" rx="2" ry="2" style="stroke:#181818;stroke-width:0.4000000000000001;" width="49.6" x="1013.2" y="414.8"/><ellipse cx="1025.2" cy="427.6" fill="#ADD1B2" rx="8.8" ry="8.8" style="stroke:#181818;stroke-width:0.8000000000000002;"/><path d="M1027.4125,424.3 Q1027.5375,424.125 1027.6875,424.0375 Q1027.8375,423.95 1028.0125,423.95 Q1028.3125,423.95 1028.5,424.1625 Q1028.6875,424.3625 1028.6875,424.85 L1028.6875,426.0125 Q1028.6875,426.5 1028.5,426.7125 Q1028.3125,426.925 1028.0125,426.925 Q1027.7375,426.925 1027.575,426.7625 Q1027.4125,426.6125 1027.325,426.2 Q1027.2875,425.9125 1027.1375,425.7625 Q1026.875,425.4625 1026.3875,425.2875 Q1025.9,425.1125 1025.4,425.1125 Q1024.7875,425.1125 1024.275,425.375 Q1023.775,425.6375 1023.375,426.2375 Q1022.9875,426.8375 1022.9875,427.6625 L1022.9875,428.5375 Q1022.9875,429.525 1023.7,430.1875 Q1024.4125,430.8375 1025.6875,430.8375 Q1026.4375,430.8375 1026.9625,430.6375 Q1027.275,430.5125 1027.6125,430.1625 Q1027.825,429.95 1027.9375,429.8875 Q1028.0625,429.825 1028.225,429.825 Q1028.4875,429.825 1028.6875,430.0375 Q1028.9,430.2375 1028.9,430.5125 Q1028.9,430.7875 1028.625,431.1125 Q1028.225,431.575 1027.5875,431.8375 Q1026.725,432.2 1025.6875,432.2 Q1024.475,432.2 1023.5125,431.7 Q1022.725,431.3 1022.175,430.45 Q1021.625,429.5875 1021.625,428.5625 L1021.625,427.6375 Q1021.625,426.575 1022.1125,425.6625 Q1022.6125,424.7375 1023.4875,424.25 Q1024.3625,423.75 1025.35,423.75 Q1025.9375,423.75 1026.45,423.8875 Q1026.975,424.0125 1027.4125,424.3 Z " fill="#000000"/><text fill="#000000" font-family="sans-serif" font-size="11.2" lengthAdjust="spacing" textLength="24" x="1036.4" y="432.2375">HRM</text><line style="stroke:#181818;stroke-width:0.4000000000000001;" x1="1014" x2="1062" y1="440.4" y2="440.4"/><line style="stroke:#181818;stroke-width:0.4000000000000001;" x1="1014" x2="1062" y1="446.8" y2="446.8"/></g><!--class SystemUser--><g id="elem_SystemUser"><rect codeLine="47" fill="#F1F1F1" height="97.9875" id="SystemUser" rx="2" ry="2" style="stroke:#181818;stroke-width:0.4000000000000001;" width="85.6" x="1004" y="253.6"/><ellipse cx="1016" cy="266.4" fill="#ADD1B2" rx="8.8" ry="8.8" style="stroke:#181818;stroke-width:0.8000000000000002;"/><path d="M1018.2125,263.1 Q1018.3375,262.925 1018.4875,262.8375 Q1018.6375,262.75 1018.8125,262.75 Q1019.1125,262.75 1019.3,262.9625 Q1019.4875,263.1625 1019.4875,263.65 L1019.4875,264.8125 Q1019.4875,265.3 1019.3,265.5125 Q1019.1125,265.725 1018.8125,265.725 Q1018.5375,265.725 1018.375,265.5625 Q1018.2125,265.4125 1018.125,265 Q1018.0875,264.7125 1017.9375,264.5625 Q1017.675,264.2625 1017.1875,264.0875 Q1016.7,263.9125 1016.2,263.9125 Q1015.5875,263.9125 1015.075,264.175 Q1014.575,264.4375 1014.175,265.0375 Q1013.7875,265.6375 1013.7875,266.4625 L1013.7875,267.3375 Q1013.7875,268.325 1014.5,268.9875 Q1015.2125,269.6375 1016.4875,269.6375 Q1017.2375,269.6375 1017.7625,269.4375 Q1018.075,269.3125 1018.4125,268.9625 Q1018.625,268.75 1018.7375,268.6875 Q1018.8625,268.625 1019.025,268.625 Q1019.2875,268.625 1019.4875,268.8375 Q1019.7,269.0375 1019.7,269.3125 Q1019.7,269.5875 1019.425,269.9125 Q1019.025,270.375 1018.3875,270.6375 Q1017.525,271 1016.4875,271 Q1015.275,271 1014.3125,270.5 Q1013.525,270.1 1012.975,269.25 Q1012.425,268.3875 1012.425,267.3625 L1012.425,266.4375 Q1012.425,265.375 1012.9125,264.4625 Q1013.4125,263.5375 1014.2875,263.05 Q1015.1625,262.55 1016.15,262.55 Q1016.7375,262.55 1017.25,262.6875 Q1017.775,262.8125 1018.2125,263.1 Z " fill="#000000"/><text fill="#000000" font-family="sans-serif" font-size="11.2" lengthAdjust="spacing" textLength="60" x="1027.2" y="271.0375">SystemUser</text><line style="stroke:#181818;stroke-width:0.4000000000000001;" x1="1004.8" x2="1088.8" y1="279.2" y2="279.2"/><text fill="#000000" font-family="sans-serif" font-size="11.2" lengthAdjust="spacing" textLength="28" x="1008.8" y="294.4859">name</text><text fill="#000000" font-family="sans-serif" font-size="11.2" lengthAdjust="spacing" textLength="26.4" x="1008.8" y="309.3828">email</text><text fill="#000000" font-family="sans-serif" font-size="11.2" lengthAdjust="spacing" textLength="48" x="1008.8" y="324.2797">password</text><text fill="#000000" font-family="sans-serif" font-size="11.2" lengthAdjust="spacing" textLength="32" x="1008.8" y="339.1766">phone</text><line style="stroke:#181818;stroke-width:0.4000000000000001;" x1="1004.8" x2="1088.8" y1="345.1875" y2="345.1875"/></g><!--class CollaboratorRepository--><g id="elem_CollaboratorRepository"><rect codeLine="54" fill="#F1F1F1" height="53.2969" id="CollaboratorRepository" rx="2" ry="2" style="stroke:#181818;stroke-width:0.4000000000000001;" width="230.4" x="349.2" y="407.2"/><ellipse cx="402.6" cy="420" fill="#ADD1B2" rx="8.8" ry="8.8" style="stroke:#181818;stroke-width:0.8000000000000002;"/><path d="M404.8125,416.7 Q404.9375,416.525 405.0875,416.4375 Q405.2375,416.35 405.4125,416.35 Q405.7125,416.35 405.9,416.5625 Q406.0875,416.7625 406.0875,417.25 L406.0875,418.4125 Q406.0875,418.9 405.9,419.1125 Q405.7125,419.325 405.4125,419.325 Q405.1375,419.325 404.975,419.1625 Q404.8125,419.0125 404.725,418.6 Q404.6875,418.3125 404.5375,418.1625 Q404.275,417.8625 403.7875,417.6875 Q403.3,417.5125 402.8,417.5125 Q402.1875,417.5125 401.675,417.775 Q401.175,418.0375 400.775,418.6375 Q400.3875,419.2375 400.3875,420.0625 L400.3875,420.9375 Q400.3875,421.925 401.1,422.5875 Q401.8125,423.2375 403.0875,423.2375 Q403.8375,423.2375 404.3625,423.0375 Q404.675,422.9125 405.0125,422.5625 Q405.225,422.35 405.3375,422.2875 Q405.4625,422.225 405.625,422.225 Q405.8875,422.225 406.0875,422.4375 Q406.3,422.6375 406.3,422.9125 Q406.3,423.1875 406.025,423.5125 Q405.625,423.975 404.9875,424.2375 Q404.125,424.6 403.0875,424.6 Q401.875,424.6 400.9125,424.1 Q400.125,423.7 399.575,422.85 Q399.025,421.9875 399.025,420.9625 L399.025,420.0375 Q399.025,418.975 399.5125,418.0625 Q400.0125,417.1375 400.8875,416.65 Q401.7625,416.15 402.75,416.15 Q403.3375,416.15 403.85,416.2875 Q404.375,416.4125 404.8125,416.7 Z " fill="#000000"/><text fill="#000000" font-family="sans-serif" font-size="11.2" lengthAdjust="spacing" textLength="116.8" x="419" y="424.6375">CollaboratorRepository</text><line style="stroke:#181818;stroke-width:0.4000000000000001;" x1="350" x2="578.8" y1="432.8" y2="432.8"/><line style="stroke:#181818;stroke-width:0.4000000000000001;" x1="350" x2="578.8" y1="439.2" y2="439.2"/><text fill="#000000" font-family="sans-serif" font-size="11.2" lengthAdjust="spacing" textLength="220.8" x="354" y="454.4859">+getDeactivatedCollaboratorsBySkills(skills)</text></g><!--class TeamRepository--><g id="elem_TeamRepository"><rect codeLine="58" fill="#F1F1F1" height="68.1938" id="TeamRepository" rx="2" ry="2" style="stroke:#181818;stroke-width:0.4000000000000001;" width="138.4" x="772.8" y="400"/><ellipse cx="798.12" cy="412.8" fill="#ADD1B2" rx="8.8" ry="8.8" style="stroke:#181818;stroke-width:0.8000000000000002;"/><path d="M800.3325,409.5 Q800.4575,409.325 800.6075,409.2375 Q800.7575,409.15 800.9325,409.15 Q801.2325,409.15 801.42,409.3625 Q801.6075,409.5625 801.6075,410.05 L801.6075,411.2125 Q801.6075,411.7 801.42,411.9125 Q801.2325,412.125 800.9325,412.125 Q800.6575,412.125 800.495,411.9625 Q800.3325,411.8125 800.245,411.4 Q800.2075,411.1125 800.0575,410.9625 Q799.795,410.6625 799.3075,410.4875 Q798.82,410.3125 798.32,410.3125 Q797.7075,410.3125 797.195,410.575 Q796.695,410.8375 796.295,411.4375 Q795.9075,412.0375 795.9075,412.8625 L795.9075,413.7375 Q795.9075,414.725 796.62,415.3875 Q797.3325,416.0375 798.6075,416.0375 Q799.3575,416.0375 799.8825,415.8375 Q800.195,415.7125 800.5325,415.3625 Q800.745,415.15 800.8575,415.0875 Q800.9825,415.025 801.145,415.025 Q801.4075,415.025 801.6075,415.2375 Q801.82,415.4375 801.82,415.7125 Q801.82,415.9875 801.545,416.3125 Q801.145,416.775 800.5075,417.0375 Q799.645,417.4 798.6075,417.4 Q797.395,417.4 796.4325,416.9 Q795.645,416.5 795.095,415.65 Q794.545,414.7875 794.545,413.7625 L794.545,412.8375 Q794.545,411.775 795.0325,410.8625 Q795.5325,409.9375 796.4075,409.45 Q797.2825,408.95 798.27,408.95 Q798.8575,408.95 799.37,409.0875 Q799.895,409.2125 800.3325,409.5 Z " fill="#000000"/><text fill="#000000" font-family="sans-serif" font-size="11.2" lengthAdjust="spacing" textLength="83.2" x="812.28" y="417.4375">TeamRepository</text><line style="stroke:#181818;stroke-width:0.4000000000000001;" x1="773.6" x2="910.4" y1="425.6" y2="425.6"/><line style="stroke:#181818;stroke-width:0.4000000000000001;" x1="773.6" x2="910.4" y1="432" y2="432"/><text fill="#000000" font-family="sans-serif" font-size="11.2" lengthAdjust="spacing" textLength="106.4" x="777.6" y="447.2859">+registerTeam(team)</text><text fill="#000000" font-family="sans-serif" font-size="11.2" lengthAdjust="spacing" textLength="128.8" x="777.6" y="462.1828">-teamAlreadyExists(team)</text></g><!--class Team--><g id="elem_Team"><rect codeLine="63" fill="#F1F1F1" height="112.8844" id="Team" rx="2" ry="2" style="stroke:#181818;stroke-width:0.4000000000000001;" width="202.4" x="860" y="531.2"/><ellipse cx="943.4" cy="544" fill="#ADD1B2" rx="8.8" ry="8.8" style="stroke:#181818;stroke-width:0.8000000000000002;"/><path d="M945.6125,540.7 Q945.7375,540.525 945.8875,540.4375 Q946.0375,540.35 946.2125,540.35 Q946.5125,540.35 946.7,540.5625 Q946.8875,540.7625 946.8875,541.25 L946.8875,542.4125 Q946.8875,542.9 946.7,543.1125 Q946.5125,543.325 946.2125,543.325 Q945.9375,543.325 945.775,543.1625 Q945.6125,543.0125 945.525,542.6 Q945.4875,542.3125 945.3375,542.1625 Q945.075,541.8625 944.5875,541.6875 Q944.1,541.5125 943.6,541.5125 Q942.9875,541.5125 942.475,541.775 Q941.975,542.0375 941.575,542.6375 Q941.1875,543.2375 941.1875,544.0625 L941.1875,544.9375 Q941.1875,545.925 941.9,546.5875 Q942.6125,547.2375 943.8875,547.2375 Q944.6375,547.2375 945.1625,547.0375 Q945.475,546.9125 945.8125,546.5625 Q946.025,546.35 946.1375,546.2875 Q946.2625,546.225 946.425,546.225 Q946.6875,546.225 946.8875,546.4375 Q947.1,546.6375 947.1,546.9125 Q947.1,547.1875 946.825,547.5125 Q946.425,547.975 945.7875,548.2375 Q944.925,548.6 943.8875,548.6 Q942.675,548.6 941.7125,548.1 Q940.925,547.7 940.375,546.85 Q939.825,545.9875 939.825,544.9625 L939.825,544.0375 Q939.825,542.975 940.3125,542.0625 Q940.8125,541.1375 941.6875,540.65 Q942.5625,540.15 943.55,540.15 Q944.1375,540.15 944.65,540.2875 Q945.175,540.4125 945.6125,540.7 Z " fill="#000000"/><text fill="#000000" font-family="sans-serif" font-size="11.2" lengthAdjust="spacing" textLength="28.8" x="959.8" y="548.6375">Team</text><line style="stroke:#181818;stroke-width:0.4000000000000001;" x1="860.8" x2="1061.6" y1="556.8" y2="556.8"/><text fill="#000000" font-family="sans-serif" font-size="11.2" lengthAdjust="spacing" textLength="83.2" x="864.8" y="572.0859">-Integer maxSize</text><text fill="#000000" font-family="sans-serif" font-size="11.2" lengthAdjust="spacing" textLength="80.8" x="864.8" y="586.9828">-Integer minSize</text><text fill="#000000" font-family="sans-serif" font-size="11.2" lengthAdjust="spacing" textLength="152.8" x="864.8" y="601.8797">-ArrayList&lt;Skill&gt; requiredSkills</text><text fill="#000000" font-family="sans-serif" font-size="11.2" lengthAdjust="spacing" textLength="192.8" x="864.8" y="616.7766">-ArrayList&lt;Collaborator&gt; collaborators</text><text fill="#000000" font-family="sans-serif" font-size="11.2" lengthAdjust="spacing" textLength="36" x="864.8" y="631.6734">-Status</text><line style="stroke:#181818;stroke-width:0.4000000000000001;" x1="860.8" x2="1061.6" y1="637.6844" y2="637.6844"/></g><!--reverse link SystemUser to HRM--><g id="link_SystemUser_HRM"><path codeLine="74" d="M1042.5743,365.6068 C1041.0783,387.5908 1040.384,398 1039.264,414.496 " fill="none" id="SystemUser-backto-HRM" style="stroke:#181818;stroke-width:0.8000000000000002;"/><polygon fill="none" points="1043.552,351.24,1037.7854,365.2809,1047.3633,365.9327,1043.552,351.24" style="stroke:#181818;stroke-width:0.8000000000000002;"/></g><!--link CreateTeamProposalUI to CreateTeamProposalController--><g id="link_CreateTeamProposalUI_CreateTeamProposalController"><path codeLine="75" d="M502,44.112 C502,57.272 502,70.8 502,87.96 " fill="none" id="CreateTeamProposalUI-to-CreateTeamProposalController" style="stroke:#181818;stroke-width:0.8000000000000002;stroke-dasharray:7.0,7.0;"/><polygon fill="#181818" points="502,92.76,505.2,85.56,502,88.76,498.8,85.56,502,92.76" style="stroke:#181818;stroke-width:0.8000000000000002;"/></g><!--link Repositories to Repositories--><g id="link_Repositories_Repositories"><path codeLine="76" d="M722.888,289.824 C739.392,291.56 750.8,295.752 750.8,302.4 C750.8,309.048 744.1657,312.7379 727.6617,314.4739 " fill="none" id="Repositories-to-Repositories" style="stroke:#181818;stroke-width:0.8000000000000002;"/><polygon fill="#181818" points="722.888,314.976,730.3832,317.4053,726.8661,314.5576,729.7137,311.0404,722.888,314.976" style="stroke:#181818;stroke-width:0.8000000000000002;"/><text fill="#000000" font-family="sans-serif" font-size="10.4" lengthAdjust="spacing" textLength="39.2" x="755.6" y="306.8227">instance</text></g><!--link CreateTeamProposalController to Repositories--><g id="link_CreateTeamProposalController_Repositories"><path codeLine="77" d="M539.296,190.6 C554.736,210.544 569.6618,229.8363 585.0938,249.7723 " fill="none" id="CreateTeamProposalController-to-Repositories" style="stroke:#181818;stroke-width:0.8000000000000002;stroke-dasharray:7.0,7.0;"/><polygon fill="#181818" points="588.032,253.568,586.1552,245.9157,585.5835,250.4049,581.0943,249.8332,588.032,253.568" style="stroke:#181818;stroke-width:0.8000000000000002;"/><text fill="#000000" font-family="sans-serif" font-size="10.4" lengthAdjust="spacing" textLength="53.6" x="568.4" y="226.4227">repositories</text></g><!--link Repositories to SkillRepository--><g id="link_Repositories_SkillRepository"><path codeLine="78" d="M527.384,345.12 C518.752,348.824 513.2,351.2 513.2,351.2 C513.2,351.2 229.1247,402.1052 110.3887,423.3852 " fill="none" id="Repositories-to-SkillRepository" style="stroke:#181818;stroke-width:0.8000000000000002;"/><polygon fill="#181818" points="105.664,424.232,113.3156,426.1117,109.6013,423.5264,112.1866,419.812,105.664,424.232" style="stroke:#181818;stroke-width:0.8000000000000002;"/><text fill="#000000" font-family="sans-serif" font-size="10.4" lengthAdjust="spacing" textLength="5.6" x="112.1068" y="419.8681">1</text></g><!--link Repositories to CollaboratorRepository--><g id="link_Repositories_CollaboratorRepository"><path codeLine="79" d="M565.784,351.24 C542.432,370.112 520.2771,388.0307 500.5011,404.0147 " fill="none" id="Repositories-to-CollaboratorRepository" style="stroke:#181818;stroke-width:0.8000000000000002;"/><polygon fill="#181818" points="496.768,407.032,504.3792,404.9948,499.8789,404.5176,500.3561,400.0173,496.768,407.032" style="stroke:#181818;stroke-width:0.8000000000000002;"/><text fill="#000000" font-family="sans-serif" font-size="10.4" lengthAdjust="spacing" textLength="5.6" x="496.8044" y="398.2687">1</text></g><!--link Repositories to TeamRepository--><g id="link_Repositories_TeamRepository"><path codeLine="80" d="M705.312,351.24 C732.328,367.44 757.7554,382.6834 782.4354,397.4834 " fill="none" id="Repositories-to-TeamRepository" style="stroke:#181818;stroke-width:0.8000000000000002;"/><polygon fill="#181818" points="786.552,399.952,782.0229,393.5047,783.1215,397.8948,778.7314,398.9935,786.552,399.952" style="stroke:#181818;stroke-width:0.8000000000000002;"/><text fill="#000000" font-family="sans-serif" font-size="10.4" lengthAdjust="spacing" textLength="5.6" x="771.6687" y="391.0676">1</text></g><!--link CreateTeamProposalController to TeamRepository--><g id="link_CreateTeamProposalController_TeamRepository"><path codeLine="81" d="M604.064,180.432 C690.48,212.64 800.4,253.6 800.4,253.6 C800.4,253.6 821.1567,343.2278 833.1887,395.1638 " fill="none" id="CreateTeamProposalController-to-TeamRepository" style="stroke:#181818;stroke-width:0.8000000000000002;stroke-dasharray:7.0,7.0;"/><polygon fill="#181818" points="834.272,399.84,835.7645,392.1036,833.3692,395.9432,829.5296,393.548,834.272,399.84" style="stroke:#181818;stroke-width:0.8000000000000002;"/><text fill="#000000" font-family="sans-serif" font-size="10.4" lengthAdjust="spacing" textLength="75.2" x="822.8" y="306.8227">TeamRepository</text></g><!--link TeamRepository to Team--><g id="link_TeamRepository_Team"><path codeLine="82" d="M868.16,468.16 C882.616,486.6 897.9979,506.207 914.5739,527.343 " fill="none" id="TeamRepository-to-Team" style="stroke:#181818;stroke-width:0.8000000000000002;"/><polygon fill="#181818" points="917.536,531.12,915.6108,523.4797,915.0676,527.9725,910.5748,527.4292,917.536,531.12" style="stroke:#181818;stroke-width:0.8000000000000002;"/><text fill="#000000" font-family="sans-serif" font-size="10.4" lengthAdjust="spacing" textLength="4" x="908.8269" y="522.2246">*</text></g><!--link CreateTeamProposalController to Team--><g id="link_CreateTeamProposalController_Team"><path codeLine="83" d="M604.008,170.536 C723.456,203.472 905.2,253.6 905.2,253.6 C905.2,253.6 935.0927,431.4423 951.0287,526.2983 " fill="none" id="CreateTeamProposalController-to-Team" style="stroke:#181818;stroke-width:0.8000000000000002;"/><polygon fill="#181818" points="951.824,531.032,953.7869,523.4013,951.1613,527.0873,947.4753,524.4617,951.824,531.032" style="stroke:#181818;stroke-width:0.8000000000000002;"/></g><!--link CreateTeamProposalController to CreateTeamProposalService--><g id="link_CreateTeamProposalController_CreateTeamProposalService"><path codeLine="84" d="M464.944,190.6 C449.608,210.544 434.7817,229.8267 419.4537,249.7627 " fill="none" id="CreateTeamProposalController-to-CreateTeamProposalService" style="stroke:#181818;stroke-width:0.8000000000000002;stroke-dasharray:7.0,7.0;"/><polygon fill="#181818" points="416.528,253.568,423.4534,249.8106,418.9661,250.3969,418.3797,245.9096,416.528,253.568" style="stroke:#181818;stroke-width:0.8000000000000002;"/></g><!--link CreateTeamProposalController to SkillRepository--><g id="link_CreateTeamProposalController_SkillRepository"><path codeLine="85" d="M399.976,167.832 C316.864,188.552 213.2,214.4 213.2,214.4 C213.2,214.4 65.2,253.6 65.2,253.6 C65.2,253.6 59.9123,352.4788 57.2483,402.2948 " fill="none" id="CreateTeamProposalController-to-SkillRepository" style="stroke:#181818;stroke-width:0.8000000000000002;stroke-dasharray:7.0,7.0;"/><polygon fill="#181818" points="56.992,407.088,60.5719,400.0692,57.2056,403.0937,54.181,399.7274,56.992,407.088" style="stroke:#181818;stroke-width:0.8000000000000002;"/><text fill="#000000" font-family="sans-serif" font-size="10.4" lengthAdjust="spacing" textLength="68" x="66" y="306.8227">skillRepository</text></g><!--link CreateTeamProposalController to CollaboratorRepository--><g id="link_CreateTeamProposalController_CollaboratorRepository"><path codeLine="86" d="M399.816,173.896 C293.136,206.776 141.2,253.6 141.2,253.6 C141.2,253.6 141.2,351.2 141.2,351.2 C141.2,351.2 262.6034,382.0036 357.2594,406.0196 " fill="none" id="CreateTeamProposalController-to-CollaboratorRepository" style="stroke:#181818;stroke-width:0.8000000000000002;stroke-dasharray:7.0,7.0;"/><polygon fill="#181818" points="361.912,407.2,355.7201,402.3276,358.0348,406.2163,354.1462,408.5311,361.912,407.2" style="stroke:#181818;stroke-width:0.8000000000000002;"/><text fill="#000000" font-family="sans-serif" font-size="10.4" lengthAdjust="spacing" textLength="103.2" x="142" y="306.8227">collaboratorRepository</text></g><!--link HRM to Team--><g id="link_HRM_Team"><path codeLine="87" d="M1028.584,453.44 C1018.848,472.704 1005.3407,499.4358 991.5567,526.7158 " fill="none" id="HRM-to-Team" style="stroke:#181818;stroke-width:0.8000000000000002;"/><polygon fill="#181818" points="989.392,531,995.4952,526.0169,991.1959,527.4299,989.7829,523.1306,989.392,531" style="stroke:#181818;stroke-width:0.8000000000000002;"/><text fill="#000000" font-family="sans-serif" font-size="10.4" lengthAdjust="spacing" textLength="45.6" x="1009.2" y="504.0227">generates</text></g><!--SRC=[bLJBRjim4BppAmXVxDHsq5w5m83h5gY15YYYvWCOQIqJfaYLf9EeQV-zIqgHI5csMvt8tTd7B4SxDGSkAwPPIKibLRRNgWHgzH58xwbOTc05fBOMG3Labib2X02pPxbwvhAWEoPCw15SWgqhe9KIjRkGwOXJQQj849K9PipQMiqVZnQscP8f_mNqFI5J0JjBhQAQ5tjBS-xQuKeIGdmGdIGR3Sp23s3bTwqgPPXus4ueCtJCGLy9-NCnUAEarKe8q6UIz01CDY_0fWSkXFdAZPtT48hVF3i9cfNiPK5BBXVKU7YBP5a6bOsG5Y-jLyFkQ634wpYSfv22Vk8PdEc_zRhccTRujB11DknHQMQLDXzhpsVsrkQSjYYNuuJ6WcPXCFPzdjA_qRa7z71Cni5u1g41c_Q3mQblfK5TPZ2xII981_0qEa_jS0DJ1mq744Pq0DTpvEWR7kJqBGziGTUHLleiN-w_qTVkbjR6GlbWlC9Sf6Gb-0EKZ0j_gX3uh7JUNFOA_xI-ft4-ZHv6NMqTt-8dOFYBFQ5gyZ5Xc4uPVRruFBvER7gRW8O2gOFsMkg5ldJ7jK2fvlNd5qIOrXcNw1AtwPPRQQ70AQ4gtS8O6BdiZMlKSEt6VkT9h72j_JpYCiaRJaDGI7mLIxo1ffRPeo7DCWdUw-xtSkbUaumkdzlRrSM5GYAjBrUnzXFAMysJYrl9LGa34oGR_1zn3Imo-J0KyGa68MUKCvekVlphtSRuP70d0oqrLTxvAfTpE-1rrFYhj6loUkXWTacp6V-7_lXaaqXtGJwtB1mpJosX1KX029Y_]--></g></svg>