<?xml version="1.0" encoding="us-ascii" standalone="no"?><svg xmlns="http://www.w3.org/2000/svg" xmlns:xlink="http://www.w3.org/1999/xlink" contentStyleType="text/css" height="711px" preserveAspectRatio="none" style="width:963px;height:711px;background:#FFFFFF;" version="1.1" viewBox="0 0 963 711" width="963px" zoomAndPan="magnify"><defs/><g><!--class AgendaEntryDTO--><g id="elem_AgendaEntryDTO"><rect codeLine="11" fill="#F1F1F1" height="118.1812" id="AgendaEntryDTO" rx="1.5" ry="1.5" style="stroke:#181818;stroke-width:0.3;" width="86.4" x="518.1" y="4.2"/><ellipse cx="527.1" cy="13.8" fill="#ADD1B2" rx="6.6" ry="6.6" style="stroke:#181818;stroke-width:0.6;"/><path d="M528.7594,11.325 Q528.8531,11.1938 528.9656,11.1281 Q529.0781,11.0625 529.2094,11.0625 Q529.4344,11.0625 529.575,11.2219 Q529.7156,11.3719 529.7156,11.7375 L529.7156,12.6094 Q529.7156,12.975 529.575,13.1344 Q529.4344,13.2938 529.2094,13.2938 Q529.0031,13.2938 528.8813,13.1719 Q528.7594,13.0594 528.6938,12.75 Q528.6656,12.5344 528.5531,12.4219 Q528.3562,12.1969 527.9906,12.0656 Q527.625,11.9344 527.25,11.9344 Q526.7906,11.9344 526.4063,12.1313 Q526.0313,12.3281 525.7312,12.7781 Q525.4406,13.2281 525.4406,13.8469 L525.4406,14.5031 Q525.4406,15.2437 525.975,15.7406 Q526.5094,16.2281 527.4656,16.2281 Q528.0281,16.2281 528.4219,16.0781 Q528.6563,15.9844 528.9094,15.7219 Q529.0688,15.5625 529.1531,15.5156 Q529.2469,15.4688 529.3688,15.4688 Q529.5656,15.4688 529.7156,15.6281 Q529.875,15.7781 529.875,15.9844 Q529.875,16.1906 529.6687,16.4344 Q529.3688,16.7813 528.8906,16.9781 Q528.2438,17.25 527.4656,17.25 Q526.5563,17.25 525.8344,16.875 Q525.2438,16.575 524.8313,15.9375 Q524.4187,15.2906 524.4187,14.5219 L524.4187,13.8281 Q524.4187,13.0313 524.7844,12.3469 Q525.1594,11.6531 525.8156,11.2875 Q526.4719,10.9125 527.2125,10.9125 Q527.6531,10.9125 528.0375,11.0156 Q528.4313,11.1094 528.7594,11.325 Z " fill="#000000"/><text fill="#000000" font-family="sans-serif" font-size="8.4" lengthAdjust="spacing" textLength="67.2" x="535.5" y="17.2781">AgendaEntryDTO</text><line style="stroke:#181818;stroke-width:0.3;" x1="518.7" x2="603.9" y1="23.4" y2="23.4"/><text fill="#000000" font-family="sans-serif" font-size="8.4" lengthAdjust="spacing" textLength="16.8" x="521.7" y="34.8645">date</text><text fill="#000000" font-family="sans-serif" font-size="8.4" lengthAdjust="spacing" textLength="46.2" x="521.7" y="46.0371">greenSpace</text><text fill="#000000" font-family="sans-serif" font-size="8.4" lengthAdjust="spacing" textLength="41.4" x="521.7" y="57.2098">description</text><text fill="#000000" font-family="sans-serif" font-size="8.4" lengthAdjust="spacing" textLength="66.6" x="521.7" y="68.3824">expectedDuration</text><text fill="#000000" font-family="sans-serif" font-size="8.4" lengthAdjust="spacing" textLength="58.8" x="521.7" y="79.5551">urgencyDegree</text><text fill="#000000" font-family="sans-serif" font-size="8.4" lengthAdjust="spacing" textLength="43.2" x="521.7" y="90.7277">entryStatus</text><text fill="#000000" font-family="sans-serif" font-size="8.4" lengthAdjust="spacing" textLength="62.4" x="521.7" y="101.9004">associatedTeam</text><text fill="#000000" font-family="sans-serif" font-size="8.4" lengthAdjust="spacing" textLength="72.6" x="521.7" y="113.073">associatedVehicles</text><line style="stroke:#181818;stroke-width:0.3;" x1="518.7" x2="603.9" y1="117.5813" y2="117.5813"/></g><!--class Vehicle--><g id="elem_Vehicle"><rect codeLine="24" fill="#F1F1F1" height="151.6992" id="Vehicle" rx="1.5" ry="1.5" style="stroke:#181818;stroke-width:0.3;" width="79.8" x="812.4" y="456.6"/><ellipse cx="836.25" cy="466.2" fill="#ADD1B2" rx="6.6" ry="6.6" style="stroke:#181818;stroke-width:0.6;"/><path d="M837.9094,463.725 Q838.0031,463.5938 838.1156,463.5281 Q838.2281,463.4625 838.3594,463.4625 Q838.5844,463.4625 838.725,463.6219 Q838.8656,463.7719 838.8656,464.1375 L838.8656,465.0094 Q838.8656,465.375 838.725,465.5344 Q838.5844,465.6937 838.3594,465.6937 Q838.1531,465.6937 838.0313,465.5719 Q837.9094,465.4594 837.8438,465.15 Q837.8156,464.9344 837.7031,464.8219 Q837.5063,464.5969 837.1406,464.4656 Q836.775,464.3344 836.4,464.3344 Q835.9406,464.3344 835.5563,464.5313 Q835.1813,464.7281 834.8813,465.1781 Q834.5906,465.6281 834.5906,466.2469 L834.5906,466.9031 Q834.5906,467.6437 835.125,468.1406 Q835.6594,468.6281 836.6156,468.6281 Q837.1781,468.6281 837.5719,468.4781 Q837.8063,468.3844 838.0594,468.1219 Q838.2188,467.9625 838.3031,467.9156 Q838.3969,467.8688 838.5188,467.8688 Q838.7156,467.8688 838.8656,468.0281 Q839.025,468.1781 839.025,468.3844 Q839.025,468.5906 838.8188,468.8344 Q838.5188,469.1813 838.0406,469.3781 Q837.3938,469.65 836.6156,469.65 Q835.7063,469.65 834.9844,469.275 Q834.3938,468.975 833.9812,468.3375 Q833.5688,467.6906 833.5688,466.9219 L833.5688,466.2281 Q833.5688,465.4313 833.9344,464.7469 Q834.3094,464.0531 834.9656,463.6875 Q835.6219,463.3125 836.3625,463.3125 Q836.8031,463.3125 837.1875,463.4156 Q837.5813,463.5094 837.9094,463.725 Z " fill="#000000"/><text fill="#000000" font-family="sans-serif" font-size="8.4" lengthAdjust="spacing" textLength="27.6" x="847.95" y="469.6781">Vehicle</text><line style="stroke:#181818;stroke-width:0.3;" x1="813" x2="891.6" y1="475.8" y2="475.8"/><text fill="#000000" font-family="sans-serif" font-size="8.4" lengthAdjust="spacing" textLength="22.2" x="816" y="487.2645">brand</text><text fill="#000000" font-family="sans-serif" font-size="8.4" lengthAdjust="spacing" textLength="22.8" x="816" y="498.4371">model</text><text fill="#000000" font-family="sans-serif" font-size="8.4" lengthAdjust="spacing" textLength="34.2" x="816" y="509.6098">vehicleID</text><text fill="#000000" font-family="sans-serif" font-size="8.4" lengthAdjust="spacing" textLength="16.2" x="816" y="520.7824">type</text><text fill="#000000" font-family="sans-serif" font-size="8.4" lengthAdjust="spacing" textLength="15" x="816" y="531.9551">tare</text><text fill="#000000" font-family="sans-serif" font-size="8.4" lengthAdjust="spacing" textLength="47.4" x="816" y="543.1277">grossWeight</text><text fill="#000000" font-family="sans-serif" font-size="8.4" lengthAdjust="spacing" textLength="39" x="816" y="554.3004">currentKm</text><text fill="#000000" font-family="sans-serif" font-size="8.4" lengthAdjust="spacing" textLength="46.8" x="816" y="565.473">registerDate</text><text fill="#000000" font-family="sans-serif" font-size="8.4" lengthAdjust="spacing" textLength="58.2" x="816" y="576.6457">acquisitionDate</text><text fill="#000000" font-family="sans-serif" font-size="8.4" lengthAdjust="spacing" textLength="72.6" x="816" y="587.8184">checkupFrequency</text><text fill="#000000" font-family="sans-serif" font-size="8.4" lengthAdjust="spacing" textLength="45.6" x="816" y="598.991">checkUpList</text><line style="stroke:#181818;stroke-width:0.3;" x1="813" x2="891.6" y1="603.4992" y2="603.4992"/></g><!--class SystemUser--><g id="elem_SystemUser"><rect codeLine="37" fill="#F1F1F1" height="73.4906" id="SystemUser" rx="1.5" ry="1.5" style="stroke:#181818;stroke-width:0.3;" width="64.2" x="4.2" y="26.7"/><ellipse cx="13.2" cy="36.3" fill="#ADD1B2" rx="6.6" ry="6.6" style="stroke:#181818;stroke-width:0.6;"/><path d="M14.8594,33.825 Q14.9531,33.6938 15.0656,33.6281 Q15.1781,33.5625 15.3094,33.5625 Q15.5344,33.5625 15.675,33.7219 Q15.8156,33.8719 15.8156,34.2375 L15.8156,35.1094 Q15.8156,35.475 15.675,35.6344 Q15.5344,35.7937 15.3094,35.7937 Q15.1031,35.7937 14.9813,35.6719 Q14.8594,35.5594 14.7938,35.25 Q14.7656,35.0344 14.6531,34.9219 Q14.4562,34.6969 14.0906,34.5656 Q13.725,34.4344 13.35,34.4344 Q12.8906,34.4344 12.5063,34.6313 Q12.1313,34.8281 11.8312,35.2781 Q11.5406,35.7281 11.5406,36.3469 L11.5406,37.0031 Q11.5406,37.7438 12.075,38.2406 Q12.6094,38.7281 13.5656,38.7281 Q14.1281,38.7281 14.5219,38.5781 Q14.7563,38.4844 15.0094,38.2219 Q15.1688,38.0625 15.2531,38.0156 Q15.3469,37.9688 15.4688,37.9688 Q15.6656,37.9688 15.8156,38.1281 Q15.975,38.2781 15.975,38.4844 Q15.975,38.6906 15.7687,38.9344 Q15.4688,39.2813 14.9906,39.4781 Q14.3438,39.75 13.5656,39.75 Q12.6563,39.75 11.9344,39.375 Q11.3438,39.075 10.9313,38.4375 Q10.5187,37.7906 10.5187,37.0219 L10.5187,36.3281 Q10.5187,35.5313 10.8844,34.8469 Q11.2594,34.1531 11.9156,33.7875 Q12.5719,33.4125 13.3125,33.4125 Q13.7531,33.4125 14.1375,33.5156 Q14.5313,33.6094 14.8594,33.825 Z " fill="#000000"/><text fill="#000000" font-family="sans-serif" font-size="8.4" lengthAdjust="spacing" textLength="45" x="21.6" y="39.7781">SystemUser</text><line style="stroke:#181818;stroke-width:0.3;" x1="4.8" x2="67.8" y1="45.9" y2="45.9"/><text fill="#000000" font-family="sans-serif" font-size="8.4" lengthAdjust="spacing" textLength="21" x="7.8" y="57.3645">name</text><text fill="#000000" font-family="sans-serif" font-size="8.4" lengthAdjust="spacing" textLength="19.8" x="7.8" y="68.5371">email</text><text fill="#000000" font-family="sans-serif" font-size="8.4" lengthAdjust="spacing" textLength="36" x="7.8" y="79.7098">password</text><text fill="#000000" font-family="sans-serif" font-size="8.4" lengthAdjust="spacing" textLength="24" x="7.8" y="90.8824">phone</text><line style="stroke:#181818;stroke-width:0.3;" x1="4.8" x2="67.8" y1="95.3906" y2="95.3906"/></g><!--class AgendaEntryRepository--><g id="elem_AgendaEntryRepository"><rect codeLine="45" fill="#F1F1F1" height="51.1453" id="AgendaEntryRepository" rx="1.5" ry="1.5" style="stroke:#181818;stroke-width:0.3;" width="171.6" x="390.9" y="507"/><ellipse cx="429.15" cy="516.6" fill="#ADD1B2" rx="6.6" ry="6.6" style="stroke:#181818;stroke-width:0.6;"/><path d="M430.8094,514.125 Q430.9031,513.9938 431.0156,513.9281 Q431.1281,513.8625 431.2594,513.8625 Q431.4844,513.8625 431.625,514.0219 Q431.7656,514.1719 431.7656,514.5375 L431.7656,515.4094 Q431.7656,515.775 431.625,515.9344 Q431.4844,516.0938 431.2594,516.0938 Q431.0531,516.0938 430.9313,515.9719 Q430.8094,515.8594 430.7438,515.55 Q430.7156,515.3344 430.6031,515.2219 Q430.4063,514.9969 430.0406,514.8656 Q429.675,514.7344 429.3,514.7344 Q428.8406,514.7344 428.4563,514.9313 Q428.0813,515.1281 427.7813,515.5781 Q427.4906,516.0281 427.4906,516.6469 L427.4906,517.3031 Q427.4906,518.0437 428.025,518.5406 Q428.5594,519.0281 429.5156,519.0281 Q430.0781,519.0281 430.4719,518.8781 Q430.7063,518.7844 430.9594,518.5219 Q431.1188,518.3625 431.2031,518.3156 Q431.2969,518.2688 431.4188,518.2688 Q431.6156,518.2688 431.7656,518.4281 Q431.925,518.5781 431.925,518.7844 Q431.925,518.9906 431.7188,519.2344 Q431.4188,519.5813 430.9406,519.7781 Q430.2938,520.05 429.5156,520.05 Q428.6063,520.05 427.8844,519.675 Q427.2938,519.375 426.8812,518.7375 Q426.4688,518.0906 426.4688,517.3219 L426.4688,516.6281 Q426.4688,515.8313 426.8344,515.1469 Q427.2094,514.4531 427.8656,514.0875 Q428.5219,513.7125 429.2625,513.7125 Q429.7031,513.7125 430.0875,513.8156 Q430.4813,513.9094 430.8094,514.125 Z " fill="#000000"/><text fill="#000000" font-family="sans-serif" font-size="8.4" lengthAdjust="spacing" textLength="90" x="441.45" y="520.0781">AgendaEntryRepository</text><line style="stroke:#181818;stroke-width:0.3;" x1="391.5" x2="561.9" y1="526.2" y2="526.2"/><text fill="#000000" font-family="sans-serif" font-size="8.4" lengthAdjust="spacing" textLength="153" x="394.5" y="537.6645">-ArrayList&lt;AgendaEntry&gt; agendaEntries</text><line style="stroke:#181818;stroke-width:0.3;" x1="391.5" x2="561.9" y1="542.1727" y2="542.1727"/><text fill="#000000" font-family="sans-serif" font-size="8.4" lengthAdjust="spacing" textLength="164.4" x="394.5" y="553.6371">+getAgendaEntry(description, greenSpace)</text></g><!--class Repositories--><g id="elem_Repositories"><rect codeLine="51" fill="#F1F1F1" height="95.8359" id="Repositories" rx="1.5" ry="1.5" style="stroke:#181818;stroke-width:0.3;" width="120" x="267.3" y="313.2"/><ellipse cx="301.05" cy="322.8" fill="#ADD1B2" rx="6.6" ry="6.6" style="stroke:#181818;stroke-width:0.6;"/><path d="M302.7094,320.325 Q302.8031,320.1937 302.9156,320.1281 Q303.0281,320.0625 303.1594,320.0625 Q303.3844,320.0625 303.525,320.2219 Q303.6656,320.3719 303.6656,320.7375 L303.6656,321.6094 Q303.6656,321.975 303.525,322.1344 Q303.3844,322.2938 303.1594,322.2938 Q302.9531,322.2938 302.8313,322.1719 Q302.7094,322.0594 302.6438,321.75 Q302.6156,321.5344 302.5031,321.4219 Q302.3063,321.1969 301.9406,321.0656 Q301.575,320.9344 301.2,320.9344 Q300.7406,320.9344 300.3563,321.1312 Q299.9813,321.3281 299.6813,321.7781 Q299.3906,322.2281 299.3906,322.8469 L299.3906,323.5031 Q299.3906,324.2438 299.925,324.7406 Q300.4594,325.2281 301.4156,325.2281 Q301.9781,325.2281 302.3719,325.0781 Q302.6063,324.9844 302.8594,324.7219 Q303.0188,324.5625 303.1031,324.5156 Q303.1969,324.4688 303.3187,324.4688 Q303.5156,324.4688 303.6656,324.6281 Q303.825,324.7781 303.825,324.9844 Q303.825,325.1906 303.6188,325.4344 Q303.3187,325.7813 302.8406,325.9781 Q302.1937,326.25 301.4156,326.25 Q300.5062,326.25 299.7844,325.875 Q299.1937,325.575 298.7813,324.9375 Q298.3688,324.2906 298.3688,323.5219 L298.3688,322.8281 Q298.3688,322.0313 298.7344,321.3469 Q299.1094,320.6531 299.7656,320.2875 Q300.4219,319.9125 301.1625,319.9125 Q301.6031,319.9125 301.9875,320.0156 Q302.3812,320.1094 302.7094,320.325 Z " fill="#000000"/><text fill="#000000" font-family="sans-serif" font-size="8.4" lengthAdjust="spacing" textLength="47.4" x="313.35" y="326.2781">Repositories</text><line style="stroke:#181818;stroke-width:0.3;" x1="267.9" x2="386.7" y1="332.4" y2="332.4"/><text fill="#000000" font-family="sans-serif" font-size="8.4" lengthAdjust="spacing" textLength="92.4" x="270.9" y="343.8645">-agendaEntryRepository</text><text fill="#000000" font-family="sans-serif" font-size="8.4" lengthAdjust="spacing" textLength="62.4" x="270.9" y="355.0371">-teamRepository</text><line style="stroke:#181818;stroke-width:0.3;" x1="267.9" x2="386.7" y1="359.5453" y2="359.5453"/><text fill="#000000" font-family="sans-serif" font-size="8.4" lengthAdjust="spacing" textLength="56.4" x="270.9" y="371.0098">-Repositories()</text><text fill="#000000" font-family="sans-serif" font-size="8.4" lengthAdjust="spacing" textLength="54.6" x="270.9" y="382.1824">+getInstance()</text><text fill="#000000" font-family="sans-serif" font-size="8.4" lengthAdjust="spacing" textLength="112.8" x="270.9" y="393.3551">+getAgendaEntryRepository()</text><text fill="#000000" font-family="sans-serif" font-size="8.4" lengthAdjust="spacing" textLength="91.2" x="270.9" y="404.5277">+getVehicleRepository()</text></g><!--class AgendaEntryMapper--><g id="elem_AgendaEntryMapper"><rect codeLine="62" fill="#F1F1F1" height="39.9727" id="AgendaEntryMapper" rx="1.5" ry="1.5" style="stroke:#181818;stroke-width:0.3;" width="113.4" x="504.6" y="197.7"/><ellipse cx="520.89" cy="207.3" fill="#ADD1B2" rx="6.6" ry="6.6" style="stroke:#181818;stroke-width:0.6;"/><path d="M522.5494,204.825 Q522.6431,204.6938 522.7556,204.6281 Q522.8681,204.5625 522.9994,204.5625 Q523.2244,204.5625 523.365,204.7219 Q523.5056,204.8719 523.5056,205.2375 L523.5056,206.1094 Q523.5056,206.475 523.365,206.6344 Q523.2244,206.7938 522.9994,206.7938 Q522.7931,206.7938 522.6713,206.6719 Q522.5494,206.5594 522.4838,206.25 Q522.4556,206.0344 522.3431,205.9219 Q522.1463,205.6969 521.7806,205.5656 Q521.415,205.4344 521.04,205.4344 Q520.5806,205.4344 520.1963,205.6313 Q519.8213,205.8281 519.5213,206.2781 Q519.2306,206.7281 519.2306,207.3469 L519.2306,208.0031 Q519.2306,208.7438 519.765,209.2406 Q520.2994,209.7281 521.2556,209.7281 Q521.8181,209.7281 522.2119,209.5781 Q522.4463,209.4844 522.6994,209.2219 Q522.8588,209.0625 522.9431,209.0156 Q523.0369,208.9688 523.1587,208.9688 Q523.3556,208.9688 523.5056,209.1281 Q523.665,209.2781 523.665,209.4844 Q523.665,209.6906 523.4588,209.9344 Q523.1587,210.2813 522.6806,210.4781 Q522.0337,210.75 521.2556,210.75 Q520.3462,210.75 519.6244,210.375 Q519.0337,210.075 518.6212,209.4375 Q518.2088,208.7906 518.2088,208.0219 L518.2088,207.3281 Q518.2088,206.5313 518.5744,205.8469 Q518.9494,205.1531 519.6056,204.7875 Q520.2619,204.4125 521.0025,204.4125 Q521.4431,204.4125 521.8275,204.5156 Q522.2212,204.6094 522.5494,204.825 Z " fill="#000000"/><text fill="#000000" font-family="sans-serif" font-size="8.4" lengthAdjust="spacing" textLength="78" x="530.91" y="210.7781">AgendaEntryMapper</text><line style="stroke:#181818;stroke-width:0.3;" x1="505.2" x2="617.4" y1="216.9" y2="216.9"/><line style="stroke:#181818;stroke-width:0.3;" x1="505.2" x2="617.4" y1="221.7" y2="221.7"/><text fill="#000000" font-family="sans-serif" font-size="8.4" lengthAdjust="spacing" textLength="106.2" x="508.2" y="233.1645">+toDtoList(agendaEntryList)</text></g><!--class AssignVehiclesController--><g id="elem_AssignVehiclesController"><rect codeLine="68" fill="#F1F1F1" height="95.8359" id="AssignVehiclesController" rx="1.5" ry="1.5" style="stroke:#181818;stroke-width:0.3;" width="312" x="171.3" y="169.8"/><ellipse cx="277.65" cy="179.4" fill="#ADD1B2" rx="6.6" ry="6.6" style="stroke:#181818;stroke-width:0.6;"/><path d="M279.3094,176.925 Q279.4031,176.7938 279.5156,176.7281 Q279.6281,176.6625 279.7594,176.6625 Q279.9844,176.6625 280.125,176.8219 Q280.2656,176.9719 280.2656,177.3375 L280.2656,178.2094 Q280.2656,178.575 280.125,178.7344 Q279.9844,178.8937 279.7594,178.8937 Q279.5531,178.8937 279.4313,178.7719 Q279.3094,178.6594 279.2438,178.35 Q279.2156,178.1344 279.1031,178.0219 Q278.9063,177.7969 278.5406,177.6656 Q278.175,177.5344 277.8,177.5344 Q277.3406,177.5344 276.9563,177.7313 Q276.5813,177.9281 276.2813,178.3781 Q275.9906,178.8281 275.9906,179.4469 L275.9906,180.1031 Q275.9906,180.8438 276.525,181.3406 Q277.0594,181.8281 278.0156,181.8281 Q278.5781,181.8281 278.9719,181.6781 Q279.2063,181.5844 279.4594,181.3219 Q279.6188,181.1625 279.7031,181.1156 Q279.7969,181.0688 279.9188,181.0688 Q280.1156,181.0688 280.2656,181.2281 Q280.425,181.3781 280.425,181.5844 Q280.425,181.7906 280.2188,182.0344 Q279.9188,182.3813 279.4406,182.5781 Q278.7938,182.85 278.0156,182.85 Q277.1063,182.85 276.3844,182.475 Q275.7938,182.175 275.3812,181.5375 Q274.9688,180.8906 274.9688,180.1219 L274.9688,179.4281 Q274.9688,178.6313 275.3344,177.9469 Q275.7094,177.2531 276.3656,176.8875 Q277.0219,176.5125 277.7625,176.5125 Q278.2031,176.5125 278.5875,176.6156 Q278.9813,176.7094 279.3094,176.925 Z " fill="#000000"/><text fill="#000000" font-family="sans-serif" font-size="8.4" lengthAdjust="spacing" textLength="94.2" x="289.95" y="182.8781">AssignVehiclesController</text><line style="stroke:#181818;stroke-width:0.3;" x1="171.9" x2="482.7" y1="189" y2="189"/><text fill="#000000" font-family="sans-serif" font-size="8.4" lengthAdjust="spacing" textLength="184.8" x="174.9" y="200.4645">-AgendaEntryRepository agendaEntryRepository</text><text fill="#000000" font-family="sans-serif" font-size="8.4" lengthAdjust="spacing" textLength="160.8" x="174.9" y="211.6371">-AgendaEntryMapper agendaEntryMapper</text><line style="stroke:#181818;stroke-width:0.3;" x1="171.9" x2="482.7" y1="216.1453" y2="216.1453"/><text fill="#000000" font-family="sans-serif" font-size="8.4" lengthAdjust="spacing" textLength="103.2" x="174.9" y="227.6098">+getAgendaEntryListDTO()</text><text fill="#000000" font-family="sans-serif" font-size="8.4" lengthAdjust="spacing" textLength="85.8" x="174.9" y="238.7824">+getVehiclesListDTO()</text><text fill="#000000" font-family="sans-serif" font-size="8.4" lengthAdjust="spacing" textLength="211.2" x="174.9" y="249.9551">+assignTeamToAgendaEntry(selectedEntry, teamEntry)</text><text fill="#000000" font-family="sans-serif" font-size="8.4" lengthAdjust="spacing" textLength="304.8" x="174.9" y="261.1277">+assignVehciles(AgendaEntryDTO agendaEntry, List&lt;VehicleDTO&gt; vehiclesList)</text></g><!--class AssignVehiclesUI--><g id="elem_AssignVehiclesUI"><rect codeLine="78" fill="#F1F1F1" height="28.8" id="AssignVehiclesUI" rx="1.5" ry="1.5" style="stroke:#181818;stroke-width:0.3;" width="83.4" x="66.6" y="203.4"/><ellipse cx="75.6" cy="213" fill="#ADD1B2" rx="6.6" ry="6.6" style="stroke:#181818;stroke-width:0.6;"/><path d="M77.2594,210.525 Q77.3531,210.3937 77.4656,210.3281 Q77.5781,210.2625 77.7094,210.2625 Q77.9344,210.2625 78.075,210.4219 Q78.2156,210.5719 78.2156,210.9375 L78.2156,211.8094 Q78.2156,212.175 78.075,212.3344 Q77.9344,212.4938 77.7094,212.4938 Q77.5031,212.4938 77.3813,212.3719 Q77.2594,212.2594 77.1938,211.95 Q77.1656,211.7344 77.0531,211.6219 Q76.8563,211.3969 76.4906,211.2656 Q76.125,211.1344 75.75,211.1344 Q75.2906,211.1344 74.9063,211.3312 Q74.5313,211.5281 74.2313,211.9781 Q73.9406,212.4281 73.9406,213.0469 L73.9406,213.7031 Q73.9406,214.4438 74.475,214.9406 Q75.0094,215.4281 75.9656,215.4281 Q76.5281,215.4281 76.9219,215.2781 Q77.1563,215.1844 77.4094,214.9219 Q77.5688,214.7625 77.6531,214.7156 Q77.7469,214.6688 77.8687,214.6688 Q78.0656,214.6688 78.2156,214.8281 Q78.375,214.9781 78.375,215.1844 Q78.375,215.3906 78.1688,215.6344 Q77.8687,215.9813 77.3906,216.1781 Q76.7437,216.45 75.9656,216.45 Q75.0562,216.45 74.3344,216.075 Q73.7437,215.775 73.3313,215.1375 Q72.9188,214.4906 72.9188,213.7219 L72.9188,213.0281 Q72.9188,212.2313 73.2844,211.5469 Q73.6594,210.8531 74.3156,210.4875 Q74.9719,210.1125 75.7125,210.1125 Q76.1531,210.1125 76.5375,210.2156 Q76.9312,210.3094 77.2594,210.525 Z " fill="#000000"/><text fill="#000000" font-family="sans-serif" font-size="8.4" lengthAdjust="spacing" textLength="64.2" x="84" y="216.4781">AssignVehiclesUI</text><line style="stroke:#181818;stroke-width:0.3;" x1="67.2" x2="149.4" y1="222.6" y2="222.6"/><line style="stroke:#181818;stroke-width:0.3;" x1="67.2" x2="149.4" y1="227.4" y2="227.4"/></g><!--class AgendaEntry--><g id="elem_AgendaEntry"><rect codeLine="82" fill="#F1F1F1" height="73.4906" id="AgendaEntry" rx="1.5" ry="1.5" style="stroke:#181818;stroke-width:0.3;" width="124.8" x="789.9" y="324.6"/><ellipse cx="825.15" cy="334.2" fill="#ADD1B2" rx="6.6" ry="6.6" style="stroke:#181818;stroke-width:0.6;"/><path d="M826.8094,331.725 Q826.9031,331.5938 827.0156,331.5281 Q827.1281,331.4625 827.2594,331.4625 Q827.4844,331.4625 827.625,331.6219 Q827.7656,331.7719 827.7656,332.1375 L827.7656,333.0094 Q827.7656,333.375 827.625,333.5344 Q827.4844,333.6937 827.2594,333.6937 Q827.0531,333.6937 826.9313,333.5719 Q826.8094,333.4594 826.7438,333.15 Q826.7156,332.9344 826.6031,332.8219 Q826.4063,332.5969 826.0406,332.4656 Q825.675,332.3344 825.3,332.3344 Q824.8406,332.3344 824.4563,332.5313 Q824.0813,332.7281 823.7813,333.1781 Q823.4906,333.6281 823.4906,334.2469 L823.4906,334.9031 Q823.4906,335.6438 824.025,336.1406 Q824.5594,336.6281 825.5156,336.6281 Q826.0781,336.6281 826.4719,336.4781 Q826.7063,336.3844 826.9594,336.1219 Q827.1188,335.9625 827.2031,335.9156 Q827.2969,335.8688 827.4187,335.8688 Q827.6156,335.8688 827.7656,336.0281 Q827.925,336.1781 827.925,336.3844 Q827.925,336.5906 827.7188,336.8344 Q827.4187,337.1813 826.9406,337.3781 Q826.2937,337.65 825.5156,337.65 Q824.6062,337.65 823.8844,337.275 Q823.2937,336.975 822.8813,336.3375 Q822.4688,335.6906 822.4688,334.9219 L822.4688,334.2281 Q822.4688,333.4313 822.8344,332.7469 Q823.2094,332.0531 823.8656,331.6875 Q824.5219,331.3125 825.2625,331.3125 Q825.7031,331.3125 826.0875,331.4156 Q826.4812,331.5094 826.8094,331.725 Z " fill="#000000"/><text fill="#000000" font-family="sans-serif" font-size="8.4" lengthAdjust="spacing" textLength="49.2" x="837.45" y="337.6781">AgendaEntry</text><line style="stroke:#181818;stroke-width:0.3;" x1="790.5" x2="914.1" y1="343.8" y2="343.8"/><text fill="#000000" font-family="sans-serif" font-size="8.4" lengthAdjust="spacing" textLength="16.8" x="793.5" y="355.2645">date</text><text fill="#000000" font-family="sans-serif" font-size="8.4" lengthAdjust="spacing" textLength="68.4" x="793.5" y="366.4371">associatedVehicle</text><text fill="#000000" font-family="sans-serif" font-size="8.4" lengthAdjust="spacing" textLength="72.6" x="793.5" y="377.6098">associatedVehicles</text><line style="stroke:#181818;stroke-width:0.3;" x1="790.5" x2="914.1" y1="382.118" y2="382.118"/><text fill="#000000" font-family="sans-serif" font-size="8.4" lengthAdjust="spacing" textLength="117.6" x="793.5" y="393.5824">+setAssociatedVehicle(vehicle)</text></g><!--class VehicleRepository--><g id="elem_VehicleRepository"><rect codeLine="89" fill="#F1F1F1" height="51.1453" id="VehicleRepository" rx="1.5" ry="1.5" style="stroke:#181818;stroke-width:0.3;" width="111" x="796.8" y="655.8"/><ellipse cx="816.33" cy="665.4" fill="#ADD1B2" rx="6.6" ry="6.6" style="stroke:#181818;stroke-width:0.6;"/><path d="M817.9894,662.925 Q818.0831,662.7937 818.1956,662.7281 Q818.3081,662.6625 818.4394,662.6625 Q818.6644,662.6625 818.805,662.8219 Q818.9456,662.9719 818.9456,663.3375 L818.9456,664.2094 Q818.9456,664.575 818.805,664.7344 Q818.6644,664.8938 818.4394,664.8938 Q818.2331,664.8938 818.1112,664.7719 Q817.9894,664.6594 817.9237,664.35 Q817.8956,664.1344 817.7831,664.0219 Q817.5863,663.7969 817.2206,663.6656 Q816.855,663.5344 816.48,663.5344 Q816.0206,663.5344 815.6362,663.7312 Q815.2612,663.9281 814.9613,664.3781 Q814.6706,664.8281 814.6706,665.4469 L814.6706,666.1031 Q814.6706,666.8438 815.205,667.3406 Q815.7394,667.8281 816.6956,667.8281 Q817.2581,667.8281 817.6519,667.6781 Q817.8862,667.5844 818.1394,667.3219 Q818.2987,667.1625 818.3831,667.1156 Q818.4769,667.0688 818.5988,667.0688 Q818.7956,667.0688 818.9456,667.2281 Q819.105,667.3781 819.105,667.5844 Q819.105,667.7906 818.8988,668.0344 Q818.5988,668.3813 818.1206,668.5781 Q817.4738,668.85 816.6956,668.85 Q815.7863,668.85 815.0644,668.475 Q814.4738,668.175 814.0613,667.5375 Q813.6488,666.8906 813.6488,666.1219 L813.6488,665.4281 Q813.6488,664.6313 814.0144,663.9469 Q814.3894,663.2531 815.0456,662.8875 Q815.7019,662.5125 816.4425,662.5125 Q816.8831,662.5125 817.2675,662.6156 Q817.6613,662.7094 817.9894,662.925 Z " fill="#000000"/><text fill="#000000" font-family="sans-serif" font-size="8.4" lengthAdjust="spacing" textLength="68.4" x="827.07" y="668.8781">VehicleRepository</text><line style="stroke:#181818;stroke-width:0.3;" x1="797.4" x2="907.2" y1="675" y2="675"/><text fill="#000000" font-family="sans-serif" font-size="8.4" lengthAdjust="spacing" textLength="103.8" x="800.4" y="686.4645">ArrayList&lt;Vehicle&gt; vehicles</text><line style="stroke:#181818;stroke-width:0.3;" x1="797.4" x2="907.2" y1="690.9727" y2="690.9727"/><text fill="#000000" font-family="sans-serif" font-size="8.4" lengthAdjust="spacing" textLength="54.6" x="800.4" y="702.4371">+getVehicles()</text></g><!--class VehicleMapper--><g id="elem_VehicleMapper"><rect codeLine="95" fill="#F1F1F1" height="51.1453" id="VehicleMapper" rx="1.5" ry="1.5" style="stroke:#181818;stroke-width:0.3;" width="155.4" x="639" y="192.3"/><ellipse cx="685.95" cy="201.9" fill="#ADD1B2" rx="6.6" ry="6.6" style="stroke:#181818;stroke-width:0.6;"/><path d="M687.6094,199.425 Q687.7031,199.2938 687.8156,199.2281 Q687.9281,199.1625 688.0594,199.1625 Q688.2844,199.1625 688.425,199.3219 Q688.5656,199.4719 688.5656,199.8375 L688.5656,200.7094 Q688.5656,201.075 688.425,201.2344 Q688.2844,201.3937 688.0594,201.3937 Q687.8531,201.3937 687.7312,201.2719 Q687.6094,201.1594 687.5437,200.85 Q687.5156,200.6344 687.4031,200.5219 Q687.2063,200.2969 686.8406,200.1656 Q686.475,200.0344 686.1,200.0344 Q685.6406,200.0344 685.2563,200.2313 Q684.8813,200.4281 684.5813,200.8781 Q684.2906,201.3281 684.2906,201.9469 L684.2906,202.6031 Q684.2906,203.3438 684.825,203.8406 Q685.3594,204.3281 686.3156,204.3281 Q686.8781,204.3281 687.2719,204.1781 Q687.5063,204.0844 687.7594,203.8219 Q687.9187,203.6625 688.0031,203.6156 Q688.0969,203.5688 688.2188,203.5688 Q688.4156,203.5688 688.5656,203.7281 Q688.725,203.8781 688.725,204.0844 Q688.725,204.2906 688.5188,204.5344 Q688.2188,204.8813 687.7406,205.0781 Q687.0938,205.35 686.3156,205.35 Q685.4063,205.35 684.6844,204.975 Q684.0938,204.675 683.6813,204.0375 Q683.2688,203.3906 683.2688,202.6219 L683.2688,201.9281 Q683.2688,201.1313 683.6344,200.4469 Q684.0094,199.7531 684.6656,199.3875 Q685.3219,199.0125 686.0625,199.0125 Q686.5031,199.0125 686.8875,199.1156 Q687.2813,199.2094 687.6094,199.425 Z " fill="#000000"/><text fill="#000000" font-family="sans-serif" font-size="8.4" lengthAdjust="spacing" textLength="56.4" x="698.25" y="205.3781">VehicleMapper</text><line style="stroke:#181818;stroke-width:0.3;" x1="639.6" x2="793.8" y1="211.5" y2="211.5"/><line style="stroke:#181818;stroke-width:0.3;" x1="639.6" x2="793.8" y1="216.3" y2="216.3"/><text fill="#000000" font-family="sans-serif" font-size="8.4" lengthAdjust="spacing" textLength="148.2" x="642.6" y="227.7645">+toDtoList(ArrayList&lt;Vehicle&gt; vehicles)</text><text fill="#000000" font-family="sans-serif" font-size="8.4" lengthAdjust="spacing" textLength="84" x="642.6" y="238.9371">+toDtoList(vehicleList)</text></g><!--class VehicleDTO--><g id="elem_VehicleDTO"><rect codeLine="101" fill="#F1F1F1" height="39.9727" id="VehicleDTO" rx="1.5" ry="1.5" style="stroke:#181818;stroke-width:0.3;" width="111" x="661.2" y="43.2"/><ellipse cx="691.35" cy="52.8" fill="#ADD1B2" rx="6.6" ry="6.6" style="stroke:#181818;stroke-width:0.6;"/><path d="M693.0094,50.325 Q693.1031,50.1938 693.2156,50.1281 Q693.3281,50.0625 693.4594,50.0625 Q693.6844,50.0625 693.825,50.2219 Q693.9656,50.3719 693.9656,50.7375 L693.9656,51.6094 Q693.9656,51.975 693.825,52.1344 Q693.6844,52.2937 693.4594,52.2937 Q693.2531,52.2937 693.1313,52.1719 Q693.0094,52.0594 692.9438,51.75 Q692.9156,51.5344 692.8031,51.4219 Q692.6062,51.1969 692.2406,51.0656 Q691.875,50.9344 691.5,50.9344 Q691.0406,50.9344 690.6563,51.1313 Q690.2813,51.3281 689.9812,51.7781 Q689.6906,52.2281 689.6906,52.8469 L689.6906,53.5031 Q689.6906,54.2438 690.225,54.7406 Q690.7594,55.2281 691.7156,55.2281 Q692.2781,55.2281 692.6719,55.0781 Q692.9063,54.9844 693.1594,54.7219 Q693.3188,54.5625 693.4031,54.5156 Q693.4969,54.4688 693.6188,54.4688 Q693.8156,54.4688 693.9656,54.6281 Q694.125,54.7781 694.125,54.9844 Q694.125,55.1906 693.9187,55.4344 Q693.6188,55.7813 693.1406,55.9781 Q692.4938,56.25 691.7156,56.25 Q690.8063,56.25 690.0844,55.875 Q689.4938,55.575 689.0813,54.9375 Q688.6687,54.2906 688.6687,53.5219 L688.6687,52.8281 Q688.6687,52.0313 689.0344,51.3469 Q689.4094,50.6531 690.0656,50.2875 Q690.7219,49.9125 691.4625,49.9125 Q691.9031,49.9125 692.2875,50.0156 Q692.6813,50.1094 693.0094,50.325 Z " fill="#000000"/><text fill="#000000" font-family="sans-serif" font-size="8.4" lengthAdjust="spacing" textLength="45.6" x="703.65" y="56.2781">VehicleDTO</text><line style="stroke:#181818;stroke-width:0.3;" x1="661.8" x2="771.6" y1="62.4" y2="62.4"/><text fill="#000000" font-family="sans-serif" font-size="8.4" lengthAdjust="spacing" textLength="103.8" x="664.8" y="73.8645">ArrayList&lt;Vehicle&gt; vehicles</text><line style="stroke:#181818;stroke-width:0.3;" x1="661.8" x2="771.6" y1="78.3727" y2="78.3727"/></g><!--class ToDoEntry--><g id="elem_ToDoEntry"><rect codeLine="104" fill="#F1F1F1" height="73.4906" id="ToDoEntry" rx="1.5" ry="1.5" style="stroke:#181818;stroke-width:0.3;" width="73.8" x="815.4" y="181.2"/><ellipse cx="830.61" cy="190.8" fill="#ADD1B2" rx="6.6" ry="6.6" style="stroke:#181818;stroke-width:0.6;"/><path d="M832.2694,188.325 Q832.3631,188.1938 832.4756,188.1281 Q832.5881,188.0625 832.7194,188.0625 Q832.9444,188.0625 833.085,188.2219 Q833.2256,188.3719 833.2256,188.7375 L833.2256,189.6094 Q833.2256,189.975 833.085,190.1344 Q832.9444,190.2938 832.7194,190.2938 Q832.5131,190.2938 832.3912,190.1719 Q832.2694,190.0594 832.2037,189.75 Q832.1756,189.5344 832.0631,189.4219 Q831.8662,189.1969 831.5006,189.0656 Q831.135,188.9344 830.76,188.9344 Q830.3006,188.9344 829.9162,189.1313 Q829.5412,189.3281 829.2412,189.7781 Q828.9506,190.2281 828.9506,190.8469 L828.9506,191.5031 Q828.9506,192.2438 829.485,192.7406 Q830.0194,193.2281 830.9756,193.2281 Q831.5381,193.2281 831.9319,193.0781 Q832.1662,192.9844 832.4194,192.7219 Q832.5787,192.5625 832.6631,192.5156 Q832.7569,192.4688 832.8788,192.4688 Q833.0756,192.4688 833.2256,192.6281 Q833.385,192.7781 833.385,192.9844 Q833.385,193.1906 833.1787,193.4344 Q832.8788,193.7813 832.4006,193.9781 Q831.7538,194.25 830.9756,194.25 Q830.0663,194.25 829.3444,193.875 Q828.7538,193.575 828.3413,192.9375 Q827.9287,192.2906 827.9287,191.5219 L827.9287,190.8281 Q827.9287,190.0313 828.2944,189.3469 Q828.6694,188.6531 829.3256,188.2875 Q829.9819,187.9125 830.7225,187.9125 Q831.1631,187.9125 831.5475,188.0156 Q831.9413,188.1094 832.2694,188.325 Z " fill="#000000"/><text fill="#000000" font-family="sans-serif" font-size="8.4" lengthAdjust="spacing" textLength="40.8" x="840.39" y="194.2781">ToDoEntry</text><line style="stroke:#181818;stroke-width:0.3;" x1="816" x2="888.6" y1="200.4" y2="200.4"/><text fill="#000000" font-family="sans-serif" font-size="8.4" lengthAdjust="spacing" textLength="46.2" x="819" y="211.8645">greenSpace</text><text fill="#000000" font-family="sans-serif" font-size="8.4" lengthAdjust="spacing" textLength="66.6" x="819" y="223.0371">expectedDuration</text><text fill="#000000" font-family="sans-serif" font-size="8.4" lengthAdjust="spacing" textLength="58.2" x="819" y="234.2098">degreeUrgency</text><text fill="#000000" font-family="sans-serif" font-size="8.4" lengthAdjust="spacing" textLength="43.2" x="819" y="245.3824">entryStatus</text><line style="stroke:#181818;stroke-width:0.3;" x1="816" x2="888.6" y1="249.8906" y2="249.8906"/></g><!--class GSM--><g id="elem_GSM"><rect fill="#F1F1F1" height="28.8" id="GSM" rx="1.5" ry="1.5" style="stroke:#181818;stroke-width:0.3;" width="37.8" x="89.4" y="48.9"/><ellipse cx="98.4" cy="58.5" fill="#ADD1B2" rx="6.6" ry="6.6" style="stroke:#181818;stroke-width:0.6;"/><path d="M100.0594,56.025 Q100.1531,55.8938 100.2656,55.8281 Q100.3781,55.7625 100.5094,55.7625 Q100.7344,55.7625 100.875,55.9219 Q101.0156,56.0719 101.0156,56.4375 L101.0156,57.3094 Q101.0156,57.675 100.875,57.8344 Q100.7344,57.9938 100.5094,57.9938 Q100.3031,57.9938 100.1812,57.8719 Q100.0594,57.7594 99.9937,57.45 Q99.9656,57.2344 99.8531,57.1219 Q99.6563,56.8969 99.2906,56.7656 Q98.925,56.6344 98.55,56.6344 Q98.0906,56.6344 97.7063,56.8313 Q97.3313,57.0281 97.0313,57.4781 Q96.7406,57.9281 96.7406,58.5469 L96.7406,59.2031 Q96.7406,59.9437 97.275,60.4406 Q97.8094,60.9281 98.7656,60.9281 Q99.3281,60.9281 99.7219,60.7781 Q99.9563,60.6844 100.2094,60.4219 Q100.3687,60.2625 100.4531,60.2156 Q100.5469,60.1687 100.6688,60.1687 Q100.8656,60.1687 101.0156,60.3281 Q101.175,60.4781 101.175,60.6844 Q101.175,60.8906 100.9688,61.1344 Q100.6688,61.4812 100.1906,61.6781 Q99.5438,61.95 98.7656,61.95 Q97.8563,61.95 97.1344,61.575 Q96.5438,61.275 96.1313,60.6375 Q95.7188,59.9906 95.7188,59.2219 L95.7188,58.5281 Q95.7188,57.7312 96.0844,57.0469 Q96.4594,56.3531 97.1156,55.9875 Q97.7719,55.6125 98.5125,55.6125 Q98.9531,55.6125 99.3375,55.7156 Q99.7313,55.8094 100.0594,56.025 Z " fill="#000000"/><text fill="#000000" font-family="sans-serif" font-size="8.4" lengthAdjust="spacing" textLength="18.6" x="106.8" y="61.9781">GSM</text><line style="stroke:#181818;stroke-width:0.3;" x1="90" x2="126.6" y1="68.1" y2="68.1"/><line style="stroke:#181818;stroke-width:0.3;" x1="90" x2="126.6" y1="72.9" y2="72.9"/></g><!--class Agenda--><g id="elem_Agenda"><rect fill="#F1F1F1" height="28.8" id="Agenda" rx="1.5" ry="1.5" style="stroke:#181818;stroke-width:0.3;" width="48.6" x="910.2" y="203.4"/><ellipse cx="919.2" cy="213" fill="#ADD1B2" rx="6.6" ry="6.6" style="stroke:#181818;stroke-width:0.6;"/><path d="M920.8594,210.525 Q920.9531,210.3937 921.0656,210.3281 Q921.1781,210.2625 921.3094,210.2625 Q921.5344,210.2625 921.675,210.4219 Q921.8156,210.5719 921.8156,210.9375 L921.8156,211.8094 Q921.8156,212.175 921.675,212.3344 Q921.5344,212.4938 921.3094,212.4938 Q921.1031,212.4938 920.9812,212.3719 Q920.8594,212.2594 920.7937,211.95 Q920.7656,211.7344 920.6531,211.6219 Q920.4563,211.3969 920.0906,211.2656 Q919.725,211.1344 919.35,211.1344 Q918.8906,211.1344 918.5063,211.3312 Q918.1313,211.5281 917.8313,211.9781 Q917.5406,212.4281 917.5406,213.0469 L917.5406,213.7031 Q917.5406,214.4438 918.075,214.9406 Q918.6094,215.4281 919.5656,215.4281 Q920.1281,215.4281 920.5219,215.2781 Q920.7563,215.1844 921.0094,214.9219 Q921.1687,214.7625 921.2531,214.7156 Q921.3469,214.6688 921.4688,214.6688 Q921.6656,214.6688 921.8156,214.8281 Q921.975,214.9781 921.975,215.1844 Q921.975,215.3906 921.7688,215.6344 Q921.4688,215.9813 920.9906,216.1781 Q920.3438,216.45 919.5656,216.45 Q918.6563,216.45 917.9344,216.075 Q917.3438,215.775 916.9313,215.1375 Q916.5188,214.4906 916.5188,213.7219 L916.5188,213.0281 Q916.5188,212.2313 916.8844,211.5469 Q917.2594,210.8531 917.9156,210.4875 Q918.5719,210.1125 919.3125,210.1125 Q919.7531,210.1125 920.1375,210.2156 Q920.5313,210.3094 920.8594,210.525 Z " fill="#000000"/><text fill="#000000" font-family="sans-serif" font-size="8.4" lengthAdjust="spacing" textLength="29.4" x="927.6" y="216.4781">Agenda</text><line style="stroke:#181818;stroke-width:0.3;" x1="910.8" x2="958.2" y1="222.6" y2="222.6"/><line style="stroke:#181818;stroke-width:0.3;" x1="910.8" x2="958.2" y1="227.4" y2="227.4"/></g><!--link AssignVehiclesUI to AssignVehiclesController--><g id="link_AssignVehiclesUI_AssignVehiclesController"><path codeLine="115" d="M150.132,217.8 C158.028,217.8 161.988,217.8 167.688,217.8 " fill="none" id="AssignVehiclesUI-to-AssignVehiclesController" style="stroke:#181818;stroke-width:0.6;stroke-dasharray:7.0,7.0;"/><polygon fill="#181818" points="171.288,217.8,165.888,215.4,168.288,217.8,165.888,220.2,171.288,217.8" style="stroke:#181818;stroke-width:0.6;"/></g><!--link AssignVehiclesController to Repositories--><g id="link_AssignVehiclesController_Repositories"><path codeLine="116" d="M327.3,265.95 C327.3,281.13 327.3,294.318 327.3,309.498 " fill="none" id="AssignVehiclesController-to-Repositories" style="stroke:#181818;stroke-width:0.6;stroke-dasharray:7.0,7.0;"/><polygon fill="#181818" points="327.3,313.098,329.7,307.698,327.3,310.098,324.9,307.698,327.3,313.098" style="stroke:#181818;stroke-width:0.6;"/><text fill="#000000" font-family="sans-serif" font-size="7.8" lengthAdjust="spacing" textLength="40.2" x="327.9" y="292.817">repositories</text></g><!--link Repositories to AgendaEntryRepository--><g id="link_Repositories_AgendaEntryRepository"><path codeLine="117" d="M369.114,409.41 C396.912,441.054 429.9243,478.6392 452.3583,504.1812 " fill="none" id="Repositories-to-AgendaEntryRepository" style="stroke:#181818;stroke-width:0.6;"/><polygon fill="#181818" points="454.734,506.886,452.9737,501.245,452.7543,504.632,449.3672,504.4126,454.734,506.886" style="stroke:#181818;stroke-width:0.6;"/><text fill="#000000" font-family="sans-serif" font-size="7.8" lengthAdjust="spacing" textLength="4.2" x="446.6985" y="500.2103">1</text></g><!--link Repositories to Repositories--><g id="link_Repositories_Repositories"><path codeLine="118" d="M387.354,348.432 C399.558,349.824 408.3,354.078 408.3,361.2 C408.3,368.322 403.1348,372.168 390.9308,373.56 " fill="none" id="Repositories-to-Repositories" style="stroke:#181818;stroke-width:0.6;"/><polygon fill="#181818" points="387.354,373.968,392.9912,375.7406,390.3347,373.628,392.4472,370.9715,387.354,373.968" style="stroke:#181818;stroke-width:0.6;"/><text fill="#000000" font-family="sans-serif" font-size="7.8" lengthAdjust="spacing" textLength="29.4" x="411.9" y="364.517">instance</text></g><!--link AssignVehiclesController to AgendaEntryMapper--><g id="link_AssignVehiclesController_AgendaEntryMapper"><path codeLine="119" d="M483.354,217.8 C484.14,217.8 489.396,217.8 500.88,217.8 " fill="none" id="AssignVehiclesController-to-AgendaEntryMapper" style="stroke:#181818;stroke-width:0.6;stroke-dasharray:7.0,7.0;"/><polygon fill="#181818" points="504.48,217.8,499.08,215.4,501.48,217.8,499.08,220.2,504.48,217.8" style="stroke:#181818;stroke-width:0.6;"/></g><!--link AssignVehiclesController to VehicleMapper--><g id="link_AssignVehiclesController_VehicleMapper"><path codeLine="120" d="M446.052,169.776 C478.35,156.714 504.6,146.1 504.6,146.1 C504.6,146.1 618,146.1 618,146.1 C618,146.1 650.1092,169.4304 678.4352,190.0044 " fill="none" id="AssignVehiclesController-to-VehicleMapper" style="stroke:#181818;stroke-width:0.6;stroke-dasharray:7.0,7.0;"/><polygon fill="#181818" points="681.348,192.12,678.3893,187.0047,678.9207,190.357,675.5685,190.8884,681.348,192.12" style="stroke:#181818;stroke-width:0.6;"/></g><!--link AssignVehiclesController to AgendaEntryRepository--><g id="link_AssignVehiclesController_AgendaEntryRepository"><path codeLine="121" d="M386.274,265.938 C415.614,289.59 444.9,313.2 444.9,313.2 C444.9,313.2 464.1821,445.8015 472.5341,503.2515 " fill="none" id="AssignVehiclesController-to-AgendaEntryRepository" style="stroke:#181818;stroke-width:0.6;"/><polygon fill="#181818" points="473.052,506.814,474.6502,501.1249,472.6204,503.8452,469.9001,501.8155,473.052,506.814" style="stroke:#181818;stroke-width:0.6;"/><text fill="#000000" font-family="sans-serif" font-size="7.8" lengthAdjust="spacing" textLength="16.8" x="459.3" y="364.517">uses</text></g><!--reverse link SystemUser to GSM--><g id="link_SystemUser_GSM"><path codeLine="123" d="M79.224,63.3 C86.19,63.3 84.3,63.3 84.3,63.3 C84.3,63.3 86.418,63.3 89.388,63.3 " fill="none" id="SystemUser-backto-GSM" style="stroke:#181818;stroke-width:0.6;"/><polygon fill="none" points="68.424,63.3,79.224,66.9,79.224,59.7,68.424,63.3" style="stroke:#181818;stroke-width:0.6;"/></g><!--reverse link ToDoEntry to AgendaEntry--><g id="link_ToDoEntry_AgendaEntry"><path codeLine="124" d="M852.3,265.266 C852.3,286.74 852.3,303.102 852.3,324.57 " fill="none" id="ToDoEntry-backto-AgendaEntry" style="stroke:#181818;stroke-width:0.6;"/><polygon fill="none" points="852.3,254.466,848.7,265.266,855.9,265.266,852.3,254.466" style="stroke:#181818;stroke-width:0.6;"/></g><!--link GSM to AssignVehiclesUI--><g id="link_GSM_AssignVehiclesUI"><path codeLine="126" d="M108.3,77.772 C108.3,106.89 108.3,174.066 108.3,203.244 " fill="none" id="GSM-AssignVehiclesUI" style="stroke:#181818;stroke-width:0.6;"/><text fill="#000000" font-family="sans-serif" font-size="7.8" lengthAdjust="spacing" textLength="4.2" x="103.5881" y="90.9809">1</text><text fill="#000000" font-family="sans-serif" font-size="7.8" lengthAdjust="spacing" textLength="4.2" x="103.5881" y="196.6911">1</text></g><!--reverse link AgendaEntry to AgendaEntryRepository--><g id="link_AgendaEntry_AgendaEntryRepository"><path codeLine="127" d="M786.5786,391.5631 C714.6086,424.1551 600.72,475.734 531.948,506.88 " fill="none" id="AgendaEntry-backto-AgendaEntryRepository" style="stroke:#181818;stroke-width:0.6;"/><polygon fill="#181818" points="789.858,390.078,783.9488,390.1194,787.1252,391.3156,785.929,394.4919,789.858,390.078" style="stroke:#181818;stroke-width:0.6;"/><text fill="#000000" font-family="sans-serif" font-size="7.8" lengthAdjust="spacing" textLength="21.6" x="699.3" y="436.217">stores</text><text fill="#000000" font-family="sans-serif" font-size="7.8" lengthAdjust="spacing" textLength="3" x="782.1623" y="390.0369">*</text><text fill="#000000" font-family="sans-serif" font-size="7.8" lengthAdjust="spacing" textLength="4.2" x="536.2185" y="500.2033">1</text></g><!--link AgendaEntry to Vehicle--><g id="link_AgendaEntry_Vehicle"><path codeLine="128" d="M852.3,397.872 C852.3,414.99 852.3,432.516 852.3,452.898 " fill="none" id="AgendaEntry-to-Vehicle" style="stroke:#181818;stroke-width:0.6;"/><polygon fill="#181818" points="852.3,456.498,854.7,451.098,852.3,453.498,849.9,451.098,852.3,456.498" style="stroke:#181818;stroke-width:0.6;"/><text fill="#000000" font-family="sans-serif" font-size="7.8" lengthAdjust="spacing" textLength="40.2" x="852.9" y="436.217">assigned to</text><text fill="#000000" font-family="sans-serif" font-size="7.8" lengthAdjust="spacing" textLength="4.2" x="847.8441" y="411.3729">1</text><text fill="#000000" font-family="sans-serif" font-size="7.8" lengthAdjust="spacing" textLength="4.2" x="847.972" y="449.7812">1</text></g><!--reverse link Vehicle to VehicleRepository--><g id="link_Vehicle_VehicleRepository"><path codeLine="129" d="M852.3,612.012 C852.3,629.142 852.3,642.564 852.3,655.782 " fill="none" id="Vehicle-backto-VehicleRepository" style="stroke:#181818;stroke-width:0.6;"/><polygon fill="#181818" points="852.3,608.412,849.9,613.812,852.3,611.412,854.7,613.812,852.3,608.412" style="stroke:#181818;stroke-width:0.6;"/><text fill="#000000" font-family="sans-serif" font-size="7.8" lengthAdjust="spacing" textLength="21.6" x="852.9" y="635.417">stores</text><text fill="#000000" font-family="sans-serif" font-size="7.8" lengthAdjust="spacing" textLength="3" x="849.2133" y="621.5205">*</text><text fill="#000000" font-family="sans-serif" font-size="7.8" lengthAdjust="spacing" textLength="4.2" x="847.7653" y="649.1216">1</text></g><!--reverse link AgendaEntryDTO to AgendaEntryMapper--><g id="link_AgendaEntryDTO_AgendaEntryMapper"><path codeLine="130" d="M561.3,126.114 C561.3,152.652 561.3,178.656 561.3,197.58 " fill="none" id="AgendaEntryDTO-backto-AgendaEntryMapper" style="stroke:#181818;stroke-width:0.6;"/><polygon fill="#181818" points="561.3,122.514,558.9,127.914,561.3,125.514,563.7,127.914,561.3,122.514" style="stroke:#181818;stroke-width:0.6;"/><text fill="#000000" font-family="sans-serif" font-size="7.8" lengthAdjust="spacing" textLength="25.8" x="561.9" y="149.417">creates</text><text fill="#000000" font-family="sans-serif" font-size="7.8" lengthAdjust="spacing" textLength="3" x="558.1898" y="135.6612">*</text><text fill="#000000" font-family="sans-serif" font-size="7.8" lengthAdjust="spacing" textLength="4.2" x="556.6997" y="191.0087">1</text></g><!--reverse link VehicleDTO to VehicleMapper--><g id="link_VehicleDTO_VehicleMapper"><path codeLine="131" d="M716.7,87.072 C716.7,114.756 716.7,161.766 716.7,192.156 " fill="none" id="VehicleDTO-backto-VehicleMapper" style="stroke:#181818;stroke-width:0.6;"/><polygon fill="#181818" points="716.7,83.472,714.3,88.872,716.7,86.472,719.1,88.872,716.7,83.472" style="stroke:#181818;stroke-width:0.6;"/><text fill="#000000" font-family="sans-serif" font-size="7.8" lengthAdjust="spacing" textLength="25.8" x="717.3" y="149.417">creates</text><text fill="#000000" font-family="sans-serif" font-size="7.8" lengthAdjust="spacing" textLength="3" x="713.4328" y="96.4264">*</text><text fill="#000000" font-family="sans-serif" font-size="7.8" lengthAdjust="spacing" textLength="4.2" x="712.1653" y="185.4755">1</text></g><!--link Agenda to AgendaEntry--><g id="link_Agenda_AgendaEntry"><path codeLine="132" d="M926.466,232.296 C914.226,253.47 890.502,294.516 873.168,324.498 " fill="none" id="Agenda-AgendaEntry" style="stroke:#181818;stroke-width:0.6;"/><polygon fill="#000000" points="896.9986,292.1846,901.2413,288.3685,898.188,286.6036,896.9986,292.1846" style="stroke:#000000;stroke-width:0.6;"/><text fill="#000000" font-family="sans-serif" font-size="7.8" lengthAdjust="spacing" textLength="12.6" x="903.9" y="292.817">has</text><text fill="#000000" font-family="sans-serif" font-size="7.8" lengthAdjust="spacing" textLength="4.2" x="919.7958" y="245.5108">1</text><text fill="#000000" font-family="sans-serif" font-size="7.8" lengthAdjust="spacing" textLength="3" x="872.4074" y="317.8749">*</text></g><!--SRC=[VLLBZzCm4BxdLrYzq6wtAxXMgqWL1LJ12ecsSFOwGsfj4cTjXoN0_dV6iUCuh_hIpiFZRrvVr1ClIYffJbX6bTffBVbZfU70H77aVu2yZTuexvEBGh2B53aGBIk8Eaj9sHDDuQZh38W4fccHPg63kj14lF0Y9Jzffa9BnWlGTGca55bjXF15RnHIY-3IB5eyZOtiKYWI-g7GijwVlfA_KKJm95H3yoUL0CKHOLin0SKaBpKNHIF3xnAJW6HVIUgLbSIOhDw3kMpTJFYZfhfIZOmF2yRnZUG4D1-eliE5imnK5Bss89qAqH5t7YKj4Y_b8e7CIx-izs7lDQOqdK1b9wHIAFK3U7hHNiSgAH7nvznh9AHSQP3xjYmDOlPSSSLDsZqzkm1xgigF4fuhKuU-uLn-mL2OcitiM6FS_An0kkGAchkQvPJRd4fqV17IfbjU1BR-TQf_tw0KY4V8siNQa9sKj3OFtWT-CQ5Uu60xiYOfwC1d6NJwDfY2LT0L_nu6yI_IAJpMfh7NWSvT2ACiLnsOGw5mEnY4kibaGmStA3rZ1pYu_a3BqjTyJRJOQs7gj0pm6zbUR-yhnTEYdS_t0fr4blamcvbcN2d912GwrDX2hVlf6souhstkNUfgOA4DPhDc9n7sLq7MR6uZtHBJc-Plxnh6P1nZBWSi4M2y9SrukTVH6BVxfspzNgUhTpuOhfbgZQkcfw0HCypnHGDSOPc6fgL3j1enIjSF-sYtBywXosPKwDveEQKVgtKtKLTYha8_f-ochXVPalCrV2sbdCHUD8Nis798usIMkubbUUD_jZGUN0XOt2m5db5Fx-Av9Obcj-VkBkvpoHO9jnEZdcspYSdYtM9wrGQkex3SSSeLBF5u9Qzwzne_xsbWJxF3bbJAVEo2By7zlmtvT7o8V2UDfiSLKOJsfWweRyenQ4GKBjJYPa7kMySP40f_4KPWjj5jjLtWBR6y00aoPjH-bSFmexsQ36s6UGQKsw0jOH9mXLKKpF_4GoDt6ygNvgON7FqkL97OZEv_]--></g></svg>