<?xml version="1.0" encoding="us-ascii" standalone="no"?><svg xmlns="http://www.w3.org/2000/svg" xmlns:xlink="http://www.w3.org/1999/xlink" contentStyleType="text/css" height="739px" preserveAspectRatio="none" style="width:1879px;height:739px;background:#FFFFFF;" version="1.1" viewBox="0 0 1879 739" width="1879px" zoomAndPan="magnify"><defs/><g><rect fill="#FFFFFF" height="545.2383" style="stroke:#181818;stroke-width:1.0;" width="10" x="18.5" y="93.6211"/><rect fill="#FFFFFF" height="31.291" style="stroke:#181818;stroke-width:1.0;" width="10" x="825.5" y="179.4941"/><rect fill="#FFFFFF" height="95.873" style="stroke:#181818;stroke-width:1.0;" width="10" x="991" y="242.0762"/><rect fill="#FFFFFF" height="38.291" style="stroke:#181818;stroke-width:1.0;" width="10" x="1264" y="299.6582"/><rect fill="#FFFFFF" height="31.291" style="stroke:#181818;stroke-width:1.0;" width="10" x="1472" y="369.2402"/><rect fill="#FFFFFF" height="95.873" style="stroke:#181818;stroke-width:1.0;" width="10" x="1601" y="431.8223"/><rect fill="#FFFFFF" height="15" style="stroke:#181818;stroke-width:1.0;" width="10" x="1813" y="489.4043"/><rect fill="none" height="50.582" style="stroke:#000000;stroke-width:1.5;" width="428" x="914" y="257.0762"/><rect fill="none" height="50.582" style="stroke:#000000;stroke-width:1.5;" width="331" x="1542" y="446.8223"/><line style="stroke:#181818;stroke-width:0.5;stroke-dasharray:5.0,5.0;" x1="23" x2="23" y1="83.6211" y2="656.8594"/><line style="stroke:#181818;stroke-width:0.5;stroke-dasharray:5.0,5.0;" x1="384" x2="384" y1="83.6211" y2="656.8594"/><line style="stroke:#181818;stroke-width:0.5;stroke-dasharray:5.0,5.0;" x1="651" x2="651" y1="83.6211" y2="656.8594"/><line style="stroke:#181818;stroke-width:0.5;stroke-dasharray:5.0,5.0;" x1="830" x2="830" y1="83.6211" y2="656.8594"/><line style="stroke:#181818;stroke-width:0.5;stroke-dasharray:5.0,5.0;" x1="996" x2="996" y1="83.6211" y2="656.8594"/><line style="stroke:#181818;stroke-width:0.5;stroke-dasharray:5.0,5.0;" x1="1269" x2="1269" y1="83.6211" y2="656.8594"/><line style="stroke:#181818;stroke-width:0.5;stroke-dasharray:5.0,5.0;" x1="1372" x2="1372" y1="83.6211" y2="656.8594"/><line style="stroke:#181818;stroke-width:0.5;stroke-dasharray:5.0,5.0;" x1="1477" x2="1477" y1="83.6211" y2="656.8594"/><line style="stroke:#181818;stroke-width:0.5;stroke-dasharray:5.0,5.0;" x1="1606" x2="1606" y1="83.6211" y2="656.8594"/><line style="stroke:#181818;stroke-width:0.5;stroke-dasharray:5.0,5.0;" x1="1818" x2="1818" y1="83.6211" y2="656.8594"/><text fill="#000000" font-family="sans-serif" font-size="14" lengthAdjust="spacing" textLength="31" x="5" y="80.1074">GSM</text><ellipse cx="23.5" cy="13.5" fill="#E3E3E3" rx="8" ry="8" style="stroke:#181818;stroke-width:0.5;"/><path d="M23.5,21.5 L23.5,48.5 M10.5,29.5 L36.5,29.5 M23.5,48.5 L10.5,63.5 M23.5,48.5 L36.5,63.5 " fill="none" style="stroke:#181818;stroke-width:0.5;"/><text fill="#000000" font-family="sans-serif" font-size="14" lengthAdjust="spacing" textLength="31" x="5" y="670.9668">GSM</text><ellipse cx="23.5" cy="682.9805" fill="#E3E3E3" rx="8" ry="8" style="stroke:#181818;stroke-width:0.5;"/><path d="M23.5,690.9805 L23.5,717.9805 M10.5,698.9805 L36.5,698.9805 M23.5,717.9805 L10.5,732.9805 M23.5,717.9805 L36.5,732.9805 " fill="none" style="stroke:#181818;stroke-width:0.5;"/><rect fill="#E3E3E3" height="32.6211" rx="2.5" ry="2.5" style="stroke:#181818;stroke-width:0.5;" width="125" x="322" y="50"/><text fill="#000000" font-family="sans-serif" font-size="14" lengthAdjust="spacing" textLength="111" x="329" y="72.1074">:AssignVehiclesUI</text><rect fill="#E3E3E3" height="32.6211" rx="2.5" ry="2.5" style="stroke:#181818;stroke-width:0.5;" width="125" x="322" y="655.8594"/><text fill="#000000" font-family="sans-serif" font-size="14" lengthAdjust="spacing" textLength="111" x="329" y="677.9668">:AssignVehiclesUI</text><rect fill="#E3E3E3" height="32.6211" rx="2.5" ry="2.5" style="stroke:#181818;stroke-width:0.5;" width="171" x="566" y="50"/><text fill="#000000" font-family="sans-serif" font-size="14" lengthAdjust="spacing" textLength="157" x="573" y="72.1074">AssignVehiclesController</text><rect fill="#E3E3E3" height="32.6211" rx="2.5" ry="2.5" style="stroke:#181818;stroke-width:0.5;" width="171" x="566" y="655.8594"/><text fill="#000000" font-family="sans-serif" font-size="14" lengthAdjust="spacing" textLength="157" x="573" y="677.9668">AssignVehiclesController</text><rect fill="#E3E3E3" height="51.2422" rx="2.5" ry="2.5" style="stroke:#181818;stroke-width:0.5;" width="167" x="747" y="31.3789"/><text fill="#000000" font-family="sans-serif" font-size="14" lengthAdjust="spacing" textLength="153" x="754" y="53.4863">agendaEntryRepository:</text><text fill="#000000" font-family="sans-serif" font-size="14" lengthAdjust="spacing" textLength="150" x="755.5" y="72.1074">AgendaEntryRepository</text><rect fill="#E3E3E3" height="51.2422" rx="2.5" ry="2.5" style="stroke:#181818;stroke-width:0.5;" width="167" x="747" y="655.8594"/><text fill="#000000" font-family="sans-serif" font-size="14" lengthAdjust="spacing" textLength="153" x="754" y="677.9668">agendaEntryRepository:</text><text fill="#000000" font-family="sans-serif" font-size="14" lengthAdjust="spacing" textLength="150" x="755.5" y="696.5879">AgendaEntryRepository</text><rect fill="#E3E3E3" height="32.6211" rx="2.5" ry="2.5" style="stroke:#181818;stroke-width:0.5;" width="144" x="924" y="50"/><text fill="#000000" font-family="sans-serif" font-size="14" lengthAdjust="spacing" textLength="130" x="931" y="72.1074">AgendaEntryMapper</text><rect fill="#E3E3E3" height="32.6211" rx="2.5" ry="2.5" style="stroke:#181818;stroke-width:0.5;" width="144" x="924" y="655.8594"/><text fill="#000000" font-family="sans-serif" font-size="14" lengthAdjust="spacing" textLength="130" x="931" y="677.9668">AgendaEntryMapper</text><rect fill="#E3E3E3" height="32.6211" rx="2.5" ry="2.5" style="stroke:#181818;stroke-width:0.5;" width="126" x="1206" y="50"/><text fill="#000000" font-family="sans-serif" font-size="14" lengthAdjust="spacing" textLength="112" x="1213" y="72.1074">AgendaEntryDTO</text><rect fill="#E3E3E3" height="32.6211" rx="2.5" ry="2.5" style="stroke:#181818;stroke-width:0.5;" width="126" x="1206" y="655.8594"/><text fill="#000000" font-family="sans-serif" font-size="14" lengthAdjust="spacing" textLength="112" x="1213" y="677.9668">AgendaEntryDTO</text><rect fill="#E3E3E3" height="32.6211" rx="2.5" ry="2.5" style="stroke:#181818;stroke-width:0.5;" width="60" x="1342" y="50"/><text fill="#000000" font-family="sans-serif" font-size="14" lengthAdjust="spacing" textLength="46" x="1349" y="72.1074">Vehicle</text><rect fill="#E3E3E3" height="32.6211" rx="2.5" ry="2.5" style="stroke:#181818;stroke-width:0.5;" width="60" x="1342" y="655.8594"/><text fill="#000000" font-family="sans-serif" font-size="14" lengthAdjust="spacing" textLength="46" x="1349" y="677.9668">Vehicle</text><rect fill="#E3E3E3" height="51.2422" rx="2.5" ry="2.5" style="stroke:#181818;stroke-width:0.5;" width="130" x="1412" y="31.3789"/><text fill="#000000" font-family="sans-serif" font-size="14" lengthAdjust="spacing" textLength="116" x="1419" y="53.4863">vehicleRepository:</text><text fill="#000000" font-family="sans-serif" font-size="14" lengthAdjust="spacing" textLength="114" x="1420" y="72.1074">VehicleRepository</text><rect fill="#E3E3E3" height="51.2422" rx="2.5" ry="2.5" style="stroke:#181818;stroke-width:0.5;" width="130" x="1412" y="655.8594"/><text fill="#000000" font-family="sans-serif" font-size="14" lengthAdjust="spacing" textLength="116" x="1419" y="677.9668">vehicleRepository:</text><text fill="#000000" font-family="sans-serif" font-size="14" lengthAdjust="spacing" textLength="114" x="1420" y="696.5879">VehicleRepository</text><rect fill="#E3E3E3" height="32.6211" rx="2.5" ry="2.5" style="stroke:#181818;stroke-width:0.5;" width="108" x="1552" y="50"/><text fill="#000000" font-family="sans-serif" font-size="14" lengthAdjust="spacing" textLength="94" x="1559" y="72.1074">VehicleMapper</text><rect fill="#E3E3E3" height="32.6211" rx="2.5" ry="2.5" style="stroke:#181818;stroke-width:0.5;" width="108" x="1552" y="655.8594"/><text fill="#000000" font-family="sans-serif" font-size="14" lengthAdjust="spacing" textLength="94" x="1559" y="677.9668">VehicleMapper</text><rect fill="#E3E3E3" height="32.6211" rx="2.5" ry="2.5" style="stroke:#181818;stroke-width:0.5;" width="90" x="1773" y="50"/><text fill="#000000" font-family="sans-serif" font-size="14" lengthAdjust="spacing" textLength="76" x="1780" y="72.1074">VehicleDTO</text><rect fill="#E3E3E3" height="32.6211" rx="2.5" ry="2.5" style="stroke:#181818;stroke-width:0.5;" width="90" x="1773" y="655.8594"/><text fill="#000000" font-family="sans-serif" font-size="14" lengthAdjust="spacing" textLength="76" x="1780" y="677.9668">VehicleDTO</text><rect fill="#FFFFFF" height="545.2383" style="stroke:#181818;stroke-width:1.0;" width="10" x="18.5" y="93.6211"/><rect fill="#FFFFFF" height="31.291" style="stroke:#181818;stroke-width:1.0;" width="10" x="825.5" y="179.4941"/><rect fill="#FFFFFF" height="95.873" style="stroke:#181818;stroke-width:1.0;" width="10" x="991" y="242.0762"/><rect fill="#FFFFFF" height="38.291" style="stroke:#181818;stroke-width:1.0;" width="10" x="1264" y="299.6582"/><rect fill="#FFFFFF" height="31.291" style="stroke:#181818;stroke-width:1.0;" width="10" x="1472" y="369.2402"/><rect fill="#FFFFFF" height="95.873" style="stroke:#181818;stroke-width:1.0;" width="10" x="1601" y="431.8223"/><rect fill="#FFFFFF" height="15" style="stroke:#181818;stroke-width:1.0;" width="10" x="1813" y="489.4043"/><polygon fill="#181818" points="639.5,112.9121,649.5,116.9121,639.5,120.9121,643.5,116.9121" style="stroke:#181818;stroke-width:1.0;"/><line style="stroke:#181818;stroke-width:1.0;" x1="384.5" x2="645.5" y1="116.9121" y2="116.9121"/><text fill="#000000" font-family="sans-serif" font-size="13" font-weight="bold" lengthAdjust="spacing" textLength="7" x="391.5" y="111.6494">1</text><text fill="#000000" font-family="sans-serif" font-size="13" lengthAdjust="spacing" textLength="232" x="402.5" y="111.6494">getAgendaEntriesDTOWithoutVehicles()</text><polygon fill="#181818" points="639.5,144.2031,649.5,148.2031,639.5,152.2031,643.5,148.2031" style="stroke:#181818;stroke-width:1.0;"/><line style="stroke:#181818;stroke-width:1.0;" x1="384.5" x2="645.5" y1="148.2031" y2="148.2031"/><text fill="#000000" font-family="sans-serif" font-size="13" font-weight="bold" lengthAdjust="spacing" textLength="7" x="391.5" y="142.9404">2</text><text fill="#000000" font-family="sans-serif" font-size="13" lengthAdjust="spacing" textLength="114" x="402.5" y="142.9404">showVehiclesDTO()</text><polygon fill="#181818" points="813.5,175.4941,823.5,179.4941,813.5,183.4941,817.5,179.4941" style="stroke:#181818;stroke-width:1.0;"/><line style="stroke:#181818;stroke-width:1.0;" x1="651.5" x2="819.5" y1="179.4941" y2="179.4941"/><text fill="#000000" font-family="sans-serif" font-size="13" font-weight="bold" lengthAdjust="spacing" textLength="7" x="658.5" y="174.2314">3</text><text fill="#000000" font-family="sans-serif" font-size="13" lengthAdjust="spacing" textLength="122" x="669.5" y="174.2314">getAgendaEntryList()</text><polygon fill="#181818" points="662.5,206.7852,652.5,210.7852,662.5,214.7852,658.5,210.7852" style="stroke:#181818;stroke-width:1.0;"/><line style="stroke:#181818;stroke-width:1.0;stroke-dasharray:2.0,2.0;" x1="656.5" x2="829.5" y1="210.7852" y2="210.7852"/><text fill="#000000" font-family="sans-serif" font-size="13" font-weight="bold" lengthAdjust="spacing" textLength="7" x="668.5" y="205.5225">4</text><text fill="#000000" font-family="sans-serif" font-size="13" lengthAdjust="spacing" textLength="94" x="679.5" y="205.5225">agendaEntryList</text><polygon fill="#181818" points="979,238.0762,989,242.0762,979,246.0762,983,242.0762" style="stroke:#181818;stroke-width:1.0;"/><line style="stroke:#181818;stroke-width:1.0;" x1="651.5" x2="985" y1="242.0762" y2="242.0762"/><text fill="#000000" font-family="sans-serif" font-size="13" font-weight="bold" lengthAdjust="spacing" textLength="7" x="658.5" y="236.8135">5</text><text fill="#000000" font-family="sans-serif" font-size="13" lengthAdjust="spacing" textLength="154" x="669.5" y="236.8135">toDtoList(agendaEntryList)</text><path d="M914,257.0762 L987,257.0762 L987,266.3672 L977,276.3672 L914,276.3672 L914,257.0762 " fill="#EEEEEE" style="stroke:#000000;stroke-width:1.5;"/><rect fill="none" height="50.582" style="stroke:#000000;stroke-width:1.5;" width="428" x="914" y="257.0762"/><text fill="#000000" font-family="sans-serif" font-size="13" font-weight="bold" lengthAdjust="spacing" textLength="28" x="929" y="272.1045">loop</text><text fill="#000000" font-family="sans-serif" font-size="11" font-weight="bold" lengthAdjust="spacing" textLength="229" x="1002" y="270.9463">[for each agendaEntry in agendaEntryList]</text><polygon fill="#181818" points="1252,295.6582,1262,299.6582,1252,303.6582,1256,299.6582" style="stroke:#181818;stroke-width:1.0;"/><line style="stroke:#181818;stroke-width:1.0;" x1="1001" x2="1258" y1="299.6582" y2="299.6582"/><text fill="#000000" font-family="sans-serif" font-size="13" font-weight="bold" lengthAdjust="spacing" textLength="7" x="1008" y="294.3955">6</text><text fill="#000000" font-family="sans-serif" font-size="13" lengthAdjust="spacing" textLength="233" x="1019" y="294.3955">agendaEntryDTO = toDTO(agendaEntry)</text><polygon fill="#181818" points="662.5,333.9492,652.5,337.9492,662.5,341.9492,658.5,337.9492" style="stroke:#181818;stroke-width:1.0;"/><line style="stroke:#181818;stroke-width:1.0;stroke-dasharray:2.0,2.0;" x1="656.5" x2="995" y1="337.9492" y2="337.9492"/><text fill="#000000" font-family="sans-serif" font-size="13" font-weight="bold" lengthAdjust="spacing" textLength="7" x="668.5" y="332.6865">7</text><text fill="#000000" font-family="sans-serif" font-size="13" lengthAdjust="spacing" textLength="120" x="679.5" y="332.6865">agendaEntryDTOList</text><polygon fill="#181818" points="1460,365.2402,1470,369.2402,1460,373.2402,1464,369.2402" style="stroke:#181818;stroke-width:1.0;"/><line style="stroke:#181818;stroke-width:1.0;" x1="651.5" x2="1466" y1="369.2402" y2="369.2402"/><text fill="#000000" font-family="sans-serif" font-size="13" font-weight="bold" lengthAdjust="spacing" textLength="7" x="658.5" y="363.9775">8</text><text fill="#000000" font-family="sans-serif" font-size="13" lengthAdjust="spacing" textLength="76" x="669.5" y="363.9775">getVehicles()</text><polygon fill="#181818" points="662.5,396.5313,652.5,400.5313,662.5,404.5313,658.5,400.5313" style="stroke:#181818;stroke-width:1.0;"/><line style="stroke:#181818;stroke-width:1.0;stroke-dasharray:2.0,2.0;" x1="656.5" x2="1476" y1="400.5313" y2="400.5313"/><text fill="#000000" font-family="sans-serif" font-size="13" font-weight="bold" lengthAdjust="spacing" textLength="7" x="668.5" y="395.2686">9</text><text fill="#000000" font-family="sans-serif" font-size="13" lengthAdjust="spacing" textLength="46" x="679.5" y="395.2686">vehicles</text><polygon fill="#181818" points="1589,427.8223,1599,431.8223,1589,435.8223,1593,431.8223" style="stroke:#181818;stroke-width:1.0;"/><line style="stroke:#181818;stroke-width:1.0;" x1="651.5" x2="1595" y1="431.8223" y2="431.8223"/><text fill="#000000" font-family="sans-serif" font-size="13" font-weight="bold" lengthAdjust="spacing" textLength="14" x="658.5" y="426.5596">10</text><text fill="#000000" font-family="sans-serif" font-size="13" lengthAdjust="spacing" textLength="169" x="676.5" y="426.5596">getVehiclesListDTO(vehicles)</text><path d="M1542,446.8223 L1615,446.8223 L1615,456.1133 L1605,466.1133 L1542,466.1133 L1542,446.8223 " fill="#EEEEEE" style="stroke:#000000;stroke-width:1.5;"/><rect fill="none" height="50.582" style="stroke:#000000;stroke-width:1.5;" width="331" x="1542" y="446.8223"/><text fill="#000000" font-family="sans-serif" font-size="13" font-weight="bold" lengthAdjust="spacing" textLength="28" x="1557" y="461.8506">loop</text><text fill="#000000" font-family="sans-serif" font-size="11" font-weight="bold" lengthAdjust="spacing" textLength="157" x="1630" y="460.6924">[for each vehicle in vehicles]</text><polygon fill="#181818" points="1801,485.4043,1811,489.4043,1801,493.4043,1805,489.4043" style="stroke:#181818;stroke-width:1.0;"/><line style="stroke:#181818;stroke-width:1.0;" x1="1611" x2="1807" y1="489.4043" y2="489.4043"/><text fill="#000000" font-family="sans-serif" font-size="13" font-weight="bold" lengthAdjust="spacing" textLength="14" x="1618" y="484.1416">11</text><text fill="#000000" font-family="sans-serif" font-size="13" lengthAdjust="spacing" textLength="165" x="1636" y="484.1416">vehicleDTO = toDTO(vehicle)</text><polygon fill="#181818" points="662.5,523.6953,652.5,527.6953,662.5,531.6953,658.5,527.6953" style="stroke:#181818;stroke-width:1.0;"/><line style="stroke:#181818;stroke-width:1.0;stroke-dasharray:2.0,2.0;" x1="656.5" x2="1605" y1="527.6953" y2="527.6953"/><text fill="#000000" font-family="sans-serif" font-size="13" font-weight="bold" lengthAdjust="spacing" textLength="14" x="668.5" y="522.4326">12</text><text fill="#000000" font-family="sans-serif" font-size="13" lengthAdjust="spacing" textLength="86" x="686.5" y="522.4326">vehicleDTOList</text><polygon fill="#181818" points="395.5,554.9863,385.5,558.9863,395.5,562.9863,391.5,558.9863" style="stroke:#181818;stroke-width:1.0;"/><line style="stroke:#181818;stroke-width:1.0;stroke-dasharray:2.0,2.0;" x1="389.5" x2="650.5" y1="558.9863" y2="558.9863"/><text fill="#000000" font-family="sans-serif" font-size="13" font-weight="bold" lengthAdjust="spacing" textLength="14" x="401.5" y="553.7236">13</text><text fill="#000000" font-family="sans-serif" font-size="13" lengthAdjust="spacing" textLength="120" x="419.5" y="553.7236">agendaEntryDTOList</text><polygon fill="#181818" points="395.5,586.2773,385.5,590.2773,395.5,594.2773,391.5,590.2773" style="stroke:#181818;stroke-width:1.0;"/><line style="stroke:#181818;stroke-width:1.0;stroke-dasharray:2.0,2.0;" x1="389.5" x2="650.5" y1="590.2773" y2="590.2773"/><text fill="#000000" font-family="sans-serif" font-size="13" font-weight="bold" lengthAdjust="spacing" textLength="14" x="401.5" y="585.0146">14</text><text fill="#000000" font-family="sans-serif" font-size="13" lengthAdjust="spacing" textLength="86" x="419.5" y="585.0146">vehicleDTOList</text><polygon fill="#181818" points="34.5,634.8594,24.5,638.8594,34.5,642.8594,30.5,638.8594" style="stroke:#181818;stroke-width:1.0;"/><line style="stroke:#181818;stroke-width:1.0;stroke-dasharray:2.0,2.0;" x1="28.5" x2="383.5" y1="638.8594" y2="638.8594"/><text fill="#000000" font-family="sans-serif" font-size="13" font-weight="bold" lengthAdjust="spacing" textLength="14" x="40.5" y="624.9512">15</text><text fill="#000000" font-family="sans-serif" font-size="13" lengthAdjust="spacing" textLength="219" x="58.5" y="616.3057">shows the list of entries in the agenda</text><text fill="#000000" font-family="sans-serif" font-size="13" lengthAdjust="spacing" textLength="310" x="62.5" y="633.5967">and the list of vehicles and asks to select one of each</text><!--SRC=[TLN1Rjim3BthAuYSsaD_8C0A5Eim35WnODswIo-QmzX25Ccmv1Jv-r6oR9EATufDFV8zyb5EE1dNwq6VuUoTRxh1dn7YCA8AoqclcvDkyJLUBSA0JTIkjHmGEdtm7yQrSDGse59wZDwDvxyuq7CJ_G2xhwylEz01w5THLZIDwRMBiDi_XM1QzuQTQIo6tzyoR3GI9K6VlOk3jnQ736xYO2MSvBg3_aAewq_iVJ2auRf_TqzRyLnZoaZ1YdZDUD5zNnWdz1GGU0P__lKZGML45Y_zv9ANwLa2Ib3qy5R7UFfj0mNEn8l89fY4ScJIdNmq5nqnEwX60m-FUV2mXnRZsgN1GFW_9dP-ZBDXT_So8tJ-OpuZD1shV4A8rOYwylMx2P6WYnBc6SjwA3Hxq39L7N0hjMAUnaBSqJz7dochEZSAoYILzRw78sqxyNIS7Oox4GEIZ_YhtH7wK-1JaaJ3Ok7xL6OMKsqQlIWbELO3PEdjwPIsMBnYM2R7bcyoZVc-9FCDvGchNoKQE2NFMlZ41al6r4eQqboB2P1xByqgy6JKeW8gdfLuikUolipMb92mXLsYP0dhZPrKJAjHAqbjacodp8OIwQ9j-Yi1_w-RlwRvkXAMBdkvhW5YXs093Fu8EDtqDAyKdkZUQSlTGU3cOUO37KvKnKD0I_yYu1tcKZH_nGNGjv-zfS_DFm00]--></g></svg>