<?xml version="1.0" encoding="us-ascii" standalone="no"?><svg xmlns="http://www.w3.org/2000/svg" xmlns:xlink="http://www.w3.org/1999/xlink" contentStyleType="text/css" height="1240px" preserveAspectRatio="none" style="width:2680px;height:1240px;background:#FFFFFF;" version="1.1" viewBox="0 0 2680 1240" width="2680px" zoomAndPan="magnify"><defs/><g><rect fill="#FFFFFF" height="1045.8945" style="stroke:#181818;stroke-width:1.0;" width="10" x="18.5" y="93.6211"/><rect fill="#FFFFFF" height="1022.6035" style="stroke:#181818;stroke-width:1.0;" width="10" x="384.5" y="116.9121"/><rect fill="#FFFFFF" height="723.6934" style="stroke:#181818;stroke-width:1.0;" width="10" x="679.5" y="148.2031"/><rect fill="#FFFFFF" height="125.1641" style="stroke:#181818;stroke-width:1.0;" width="10" x="679.5" y="983.0605"/><rect fill="#FFFFFF" height="31.291" style="stroke:#181818;stroke-width:1.0;" width="10" x="823.5" y="210.7852"/><rect fill="#FFFFFF" height="31.291" style="stroke:#181818;stroke-width:1.0;" width="10" x="930.5" y="273.3672"/><rect fill="#FFFFFF" height="31.291" style="stroke:#181818;stroke-width:1.0;" width="10" x="930.5" y="335.9492"/><rect fill="#FFFFFF" height="31.291" style="stroke:#181818;stroke-width:1.0;" width="10" x="1274.5" y="461.1133"/><rect fill="#FFFFFF" height="62.582" style="stroke:#181818;stroke-width:1.0;" width="10" x="1274.5" y="1014.3516"/><rect fill="#FFFFFF" height="95.873" style="stroke:#181818;stroke-width:1.0;" width="10" x="1440" y="523.6953"/><rect fill="#FFFFFF" height="38.291" style="stroke:#181818;stroke-width:1.0;" width="10" x="1720" y="581.2773"/><rect fill="#FFFFFF" height="31.291" style="stroke:#181818;stroke-width:1.0;" width="10" x="2034" y="650.8594"/><rect fill="#FFFFFF" height="95.873" style="stroke:#181818;stroke-width:1.0;" width="10" x="2163" y="713.4414"/><rect fill="#FFFFFF" height="15" style="stroke:#181818;stroke-width:1.0;" width="10" x="2375" y="771.0234"/><rect fill="none" height="50.582" style="stroke:#000000;stroke-width:1.5;" width="435" x="1363" y="538.6953"/><rect fill="none" height="50.582" style="stroke:#000000;stroke-width:1.5;" width="331" x="2104" y="728.4414"/><line style="stroke:#181818;stroke-width:0.5;stroke-dasharray:5.0,5.0;" x1="23" x2="23" y1="83.6211" y2="1157.5156"/><line style="stroke:#181818;stroke-width:0.5;stroke-dasharray:5.0,5.0;" x1="389" x2="389" y1="83.6211" y2="1157.5156"/><line style="stroke:#181818;stroke-width:0.5;stroke-dasharray:5.0,5.0;" x1="684" x2="684" y1="83.6211" y2="1157.5156"/><line style="stroke:#181818;stroke-width:0.5;stroke-dasharray:5.0,5.0;" x1="828" x2="828" y1="83.6211" y2="1157.5156"/><line style="stroke:#181818;stroke-width:0.5;stroke-dasharray:5.0,5.0;" x1="935" x2="935" y1="83.6211" y2="1157.5156"/><line style="stroke:#181818;stroke-width:0.5;stroke-dasharray:5.0,5.0;" x1="1279" x2="1279" y1="83.6211" y2="1157.5156"/><line style="stroke:#181818;stroke-width:0.5;stroke-dasharray:5.0,5.0;" x1="1445" x2="1445" y1="83.6211" y2="1157.5156"/><line style="stroke:#181818;stroke-width:0.5;stroke-dasharray:5.0,5.0;" x1="1725" x2="1725" y1="83.6211" y2="1157.5156"/><line style="stroke:#181818;stroke-width:0.5;stroke-dasharray:5.0,5.0;" x1="1846" x2="1846" y1="83.6211" y2="1157.5156"/><line style="stroke:#181818;stroke-width:0.5;stroke-dasharray:5.0,5.0;" x1="1934" x2="1934" y1="83.6211" y2="1157.5156"/><line style="stroke:#181818;stroke-width:0.5;stroke-dasharray:5.0,5.0;" x1="2039" x2="2039" y1="83.6211" y2="1157.5156"/><line style="stroke:#181818;stroke-width:0.5;stroke-dasharray:5.0,5.0;" x1="2168" x2="2168" y1="83.6211" y2="1157.5156"/><line style="stroke:#181818;stroke-width:0.5;stroke-dasharray:5.0,5.0;" x1="2380" x2="2380" y1="83.6211" y2="1157.5156"/><line style="stroke:#181818;stroke-width:0.5;stroke-dasharray:5.0,5.0;" x1="2501" x2="2501" y1="83.6211" y2="1157.5156"/><line style="stroke:#181818;stroke-width:0.5;stroke-dasharray:5.0,5.0;" x1="2626" x2="2626" y1="83.6211" y2="1157.5156"/><text fill="#000000" font-family="sans-serif" font-size="14" lengthAdjust="spacing" textLength="31" x="5" y="80.1074">GSM</text><ellipse cx="23.5" cy="13.5" fill="#E3E3E3" rx="8" ry="8" style="stroke:#181818;stroke-width:0.5;"/><path d="M23.5,21.5 L23.5,48.5 M10.5,29.5 L36.5,29.5 M23.5,48.5 L10.5,63.5 M23.5,48.5 L36.5,63.5 " fill="none" style="stroke:#181818;stroke-width:0.5;"/><text fill="#000000" font-family="sans-serif" font-size="14" lengthAdjust="spacing" textLength="31" x="5" y="1171.623">GSM</text><ellipse cx="23.5" cy="1183.6367" fill="#E3E3E3" rx="8" ry="8" style="stroke:#181818;stroke-width:0.5;"/><path d="M23.5,1191.6367 L23.5,1218.6367 M10.5,1199.6367 L36.5,1199.6367 M23.5,1218.6367 L10.5,1233.6367 M23.5,1218.6367 L36.5,1233.6367 " fill="none" style="stroke:#181818;stroke-width:0.5;"/><rect fill="#E3E3E3" height="32.6211" rx="2.5" ry="2.5" style="stroke:#181818;stroke-width:0.5;" width="125" x="327" y="50"/><text fill="#000000" font-family="sans-serif" font-size="14" lengthAdjust="spacing" textLength="111" x="334" y="72.1074">:AssignVehiclesUI</text><rect fill="#E3E3E3" height="32.6211" rx="2.5" ry="2.5" style="stroke:#181818;stroke-width:0.5;" width="125" x="327" y="1156.5156"/><text fill="#000000" font-family="sans-serif" font-size="14" lengthAdjust="spacing" textLength="111" x="334" y="1178.623">:AssignVehiclesUI</text><rect fill="#E3E3E3" height="32.6211" rx="2.5" ry="2.5" style="stroke:#181818;stroke-width:0.5;" width="171" x="599" y="50"/><text fill="#000000" font-family="sans-serif" font-size="14" lengthAdjust="spacing" textLength="157" x="606" y="72.1074">AssignVehiclesController</text><rect fill="#E3E3E3" height="32.6211" rx="2.5" ry="2.5" style="stroke:#181818;stroke-width:0.5;" width="171" x="599" y="1156.5156"/><text fill="#000000" font-family="sans-serif" font-size="14" lengthAdjust="spacing" textLength="157" x="606" y="1178.623">AssignVehiclesController</text><rect fill="#E3E3E3" height="32.6211" rx="2.5" ry="2.5" style="stroke:#181818;stroke-width:0.5;" width="97" x="780" y="50"/><text fill="#000000" font-family="sans-serif" font-size="14" lengthAdjust="spacing" textLength="83" x="787" y="72.1074">:Repositories</text><rect fill="#E3E3E3" height="32.6211" rx="2.5" ry="2.5" style="stroke:#181818;stroke-width:0.5;" width="97" x="780" y="1156.5156"/><text fill="#000000" font-family="sans-serif" font-size="14" lengthAdjust="spacing" textLength="83" x="787" y="1178.623">:Repositories</text><rect fill="#E3E3E3" height="51.2422" rx="2.5" ry="2.5" style="stroke:#181818;stroke-width:0.5;" width="97" x="887" y="31.3789"/><text fill="#000000" font-family="sans-serif" font-size="14" lengthAdjust="spacing" textLength="74" x="898.5" y="53.4863">repositories</text><text fill="#000000" font-family="sans-serif" font-size="14" lengthAdjust="spacing" textLength="83" x="894" y="72.1074">:Repositories</text><rect fill="#E3E3E3" height="51.2422" rx="2.5" ry="2.5" style="stroke:#181818;stroke-width:0.5;" width="97" x="887" y="1156.5156"/><text fill="#000000" font-family="sans-serif" font-size="14" lengthAdjust="spacing" textLength="74" x="898.5" y="1178.623">repositories</text><text fill="#000000" font-family="sans-serif" font-size="14" lengthAdjust="spacing" textLength="83" x="894" y="1197.2441">:Repositories</text><rect fill="#E3E3E3" height="51.2422" rx="2.5" ry="2.5" style="stroke:#181818;stroke-width:0.5;" width="167" x="1196" y="31.3789"/><text fill="#000000" font-family="sans-serif" font-size="14" lengthAdjust="spacing" textLength="153" x="1203" y="53.4863">agendaEntryRepository:</text><text fill="#000000" font-family="sans-serif" font-size="14" lengthAdjust="spacing" textLength="150" x="1204.5" y="72.1074">AgendaEntryRepository</text><rect fill="#E3E3E3" height="51.2422" rx="2.5" ry="2.5" style="stroke:#181818;stroke-width:0.5;" width="167" x="1196" y="1156.5156"/><text fill="#000000" font-family="sans-serif" font-size="14" lengthAdjust="spacing" textLength="153" x="1203" y="1178.623">agendaEntryRepository:</text><text fill="#000000" font-family="sans-serif" font-size="14" lengthAdjust="spacing" textLength="150" x="1204.5" y="1197.2441">AgendaEntryRepository</text><rect fill="#E3E3E3" height="32.6211" rx="2.5" ry="2.5" style="stroke:#181818;stroke-width:0.5;" width="144" x="1373" y="50"/><text fill="#000000" font-family="sans-serif" font-size="14" lengthAdjust="spacing" textLength="130" x="1380" y="72.1074">AgendaEntryMapper</text><rect fill="#E3E3E3" height="32.6211" rx="2.5" ry="2.5" style="stroke:#181818;stroke-width:0.5;" width="144" x="1373" y="1156.5156"/><text fill="#000000" font-family="sans-serif" font-size="14" lengthAdjust="spacing" textLength="130" x="1380" y="1178.623">AgendaEntryMapper</text><rect fill="#E3E3E3" height="32.6211" rx="2.5" ry="2.5" style="stroke:#181818;stroke-width:0.5;" width="126" x="1662" y="50"/><text fill="#000000" font-family="sans-serif" font-size="14" lengthAdjust="spacing" textLength="112" x="1669" y="72.1074">AgendaEntryDTO</text><rect fill="#E3E3E3" height="32.6211" rx="2.5" ry="2.5" style="stroke:#181818;stroke-width:0.5;" width="126" x="1662" y="1156.5156"/><text fill="#000000" font-family="sans-serif" font-size="14" lengthAdjust="spacing" textLength="112" x="1669" y="1178.623">AgendaEntryDTO</text><rect fill="#E3E3E3" height="32.6211" rx="2.5" ry="2.5" style="stroke:#181818;stroke-width:0.5;" width="96" x="1798" y="50"/><text fill="#000000" font-family="sans-serif" font-size="14" lengthAdjust="spacing" textLength="82" x="1805" y="72.1074">AgendaEntry</text><rect fill="#E3E3E3" height="32.6211" rx="2.5" ry="2.5" style="stroke:#181818;stroke-width:0.5;" width="96" x="1798" y="1156.5156"/><text fill="#000000" font-family="sans-serif" font-size="14" lengthAdjust="spacing" textLength="82" x="1805" y="1178.623">AgendaEntry</text><rect fill="#E3E3E3" height="32.6211" rx="2.5" ry="2.5" style="stroke:#181818;stroke-width:0.5;" width="60" x="1904" y="50"/><text fill="#000000" font-family="sans-serif" font-size="14" lengthAdjust="spacing" textLength="46" x="1911" y="72.1074">Vehicle</text><rect fill="#E3E3E3" height="32.6211" rx="2.5" ry="2.5" style="stroke:#181818;stroke-width:0.5;" width="60" x="1904" y="1156.5156"/><text fill="#000000" font-family="sans-serif" font-size="14" lengthAdjust="spacing" textLength="46" x="1911" y="1178.623">Vehicle</text><rect fill="#E3E3E3" height="51.2422" rx="2.5" ry="2.5" style="stroke:#181818;stroke-width:0.5;" width="130" x="1974" y="31.3789"/><text fill="#000000" font-family="sans-serif" font-size="14" lengthAdjust="spacing" textLength="116" x="1981" y="53.4863">vehicleRepository:</text><text fill="#000000" font-family="sans-serif" font-size="14" lengthAdjust="spacing" textLength="114" x="1982" y="72.1074">VehicleRepository</text><rect fill="#E3E3E3" height="51.2422" rx="2.5" ry="2.5" style="stroke:#181818;stroke-width:0.5;" width="130" x="1974" y="1156.5156"/><text fill="#000000" font-family="sans-serif" font-size="14" lengthAdjust="spacing" textLength="116" x="1981" y="1178.623">vehicleRepository:</text><text fill="#000000" font-family="sans-serif" font-size="14" lengthAdjust="spacing" textLength="114" x="1982" y="1197.2441">VehicleRepository</text><rect fill="#E3E3E3" height="32.6211" rx="2.5" ry="2.5" style="stroke:#181818;stroke-width:0.5;" width="108" x="2114" y="50"/><text fill="#000000" font-family="sans-serif" font-size="14" lengthAdjust="spacing" textLength="94" x="2121" y="72.1074">VehicleMapper</text><rect fill="#E3E3E3" height="32.6211" rx="2.5" ry="2.5" style="stroke:#181818;stroke-width:0.5;" width="108" x="2114" y="1156.5156"/><text fill="#000000" font-family="sans-serif" font-size="14" lengthAdjust="spacing" textLength="94" x="2121" y="1178.623">VehicleMapper</text><rect fill="#E3E3E3" height="32.6211" rx="2.5" ry="2.5" style="stroke:#181818;stroke-width:0.5;" width="90" x="2335" y="50"/><text fill="#000000" font-family="sans-serif" font-size="14" lengthAdjust="spacing" textLength="76" x="2342" y="72.1074">VehicleDTO</text><rect fill="#E3E3E3" height="32.6211" rx="2.5" ry="2.5" style="stroke:#181818;stroke-width:0.5;" width="90" x="2335" y="1156.5156"/><text fill="#000000" font-family="sans-serif" font-size="14" lengthAdjust="spacing" textLength="76" x="2342" y="1178.623">VehicleDTO</text><rect fill="#E3E3E3" height="32.6211" rx="2.5" ry="2.5" style="stroke:#181818;stroke-width:0.5;" width="133" x="2435" y="50"/><text fill="#000000" font-family="sans-serif" font-size="14" lengthAdjust="spacing" textLength="119" x="2442" y="72.1074">ApplicationSession</text><rect fill="#E3E3E3" height="32.6211" rx="2.5" ry="2.5" style="stroke:#181818;stroke-width:0.5;" width="133" x="2435" y="1156.5156"/><text fill="#000000" font-family="sans-serif" font-size="14" lengthAdjust="spacing" textLength="119" x="2442" y="1178.623">ApplicationSession</text><rect fill="#E3E3E3" height="32.6211" rx="2.5" ry="2.5" style="stroke:#181818;stroke-width:0.5;" width="96" x="2578" y="50"/><text fill="#000000" font-family="sans-serif" font-size="14" lengthAdjust="spacing" textLength="82" x="2585" y="72.1074">AgendaEntry</text><rect fill="#E3E3E3" height="32.6211" rx="2.5" ry="2.5" style="stroke:#181818;stroke-width:0.5;" width="96" x="2578" y="1156.5156"/><text fill="#000000" font-family="sans-serif" font-size="14" lengthAdjust="spacing" textLength="82" x="2585" y="1178.623">AgendaEntry</text><rect fill="#FFFFFF" height="1045.8945" style="stroke:#181818;stroke-width:1.0;" width="10" x="18.5" y="93.6211"/><rect fill="#FFFFFF" height="1022.6035" style="stroke:#181818;stroke-width:1.0;" width="10" x="384.5" y="116.9121"/><rect fill="#FFFFFF" height="723.6934" style="stroke:#181818;stroke-width:1.0;" width="10" x="679.5" y="148.2031"/><rect fill="#FFFFFF" height="125.1641" style="stroke:#181818;stroke-width:1.0;" width="10" x="679.5" y="983.0605"/><rect fill="#FFFFFF" height="31.291" style="stroke:#181818;stroke-width:1.0;" width="10" x="823.5" y="210.7852"/><rect fill="#FFFFFF" height="31.291" style="stroke:#181818;stroke-width:1.0;" width="10" x="930.5" y="273.3672"/><rect fill="#FFFFFF" height="31.291" style="stroke:#181818;stroke-width:1.0;" width="10" x="930.5" y="335.9492"/><rect fill="#FFFFFF" height="31.291" style="stroke:#181818;stroke-width:1.0;" width="10" x="1274.5" y="461.1133"/><rect fill="#FFFFFF" height="62.582" style="stroke:#181818;stroke-width:1.0;" width="10" x="1274.5" y="1014.3516"/><rect fill="#FFFFFF" height="95.873" style="stroke:#181818;stroke-width:1.0;" width="10" x="1440" y="523.6953"/><rect fill="#FFFFFF" height="38.291" style="stroke:#181818;stroke-width:1.0;" width="10" x="1720" y="581.2773"/><rect fill="#FFFFFF" height="31.291" style="stroke:#181818;stroke-width:1.0;" width="10" x="2034" y="650.8594"/><rect fill="#FFFFFF" height="95.873" style="stroke:#181818;stroke-width:1.0;" width="10" x="2163" y="713.4414"/><rect fill="#FFFFFF" height="15" style="stroke:#181818;stroke-width:1.0;" width="10" x="2375" y="771.0234"/><polygon fill="#181818" points="372.5,112.9121,382.5,116.9121,372.5,120.9121,376.5,116.9121" style="stroke:#181818;stroke-width:1.0;"/><line style="stroke:#181818;stroke-width:1.0;" x1="28.5" x2="378.5" y1="116.9121" y2="116.9121"/><text fill="#000000" font-family="sans-serif" font-size="13" font-weight="bold" lengthAdjust="spacing" textLength="7" x="35.5" y="111.6494">1</text><text fill="#000000" font-family="sans-serif" font-size="13" lengthAdjust="spacing" textLength="247" x="46.5" y="111.6494">asks to assign vehicles to an agenda entry</text><polygon fill="#181818" points="667.5,144.2031,677.5,148.2031,667.5,152.2031,671.5,148.2031" style="stroke:#181818;stroke-width:1.0;"/><line style="stroke:#181818;stroke-width:1.0;" x1="394.5" x2="673.5" y1="148.2031" y2="148.2031"/><text fill="#000000" font-family="sans-serif" font-size="13" font-weight="bold" lengthAdjust="spacing" textLength="7" x="401.5" y="142.9404">2</text><text fill="#000000" font-family="sans-serif" font-size="13" lengthAdjust="spacing" textLength="36" x="412.5" y="142.9404">create</text><polygon fill="#181818" points="1433,175.4941,1443,179.4941,1433,183.4941,1437,179.4941" style="stroke:#181818;stroke-width:1.0;"/><line style="stroke:#181818;stroke-width:1.0;" x1="689.5" x2="1439" y1="179.4941" y2="179.4941"/><text fill="#000000" font-family="sans-serif" font-size="13" font-weight="bold" lengthAdjust="spacing" textLength="7" x="696.5" y="174.2314">3</text><text fill="#000000" font-family="sans-serif" font-size="13" lengthAdjust="spacing" textLength="36" x="707.5" y="174.2314">create</text><polygon fill="#181818" points="811.5,206.7852,821.5,210.7852,811.5,214.7852,815.5,210.7852" style="stroke:#181818;stroke-width:1.0;"/><line style="stroke:#181818;stroke-width:1.0;" x1="689.5" x2="817.5" y1="210.7852" y2="210.7852"/><text fill="#000000" font-family="sans-serif" font-size="13" font-weight="bold" lengthAdjust="spacing" textLength="7" x="696.5" y="205.5225">4</text><text fill="#000000" font-family="sans-serif" font-size="13" lengthAdjust="spacing" textLength="75" x="707.5" y="205.5225">getInstance()</text><polygon fill="#181818" points="700.5,238.0762,690.5,242.0762,700.5,246.0762,696.5,242.0762" style="stroke:#181818;stroke-width:1.0;"/><line style="stroke:#181818;stroke-width:1.0;stroke-dasharray:2.0,2.0;" x1="694.5" x2="827.5" y1="242.0762" y2="242.0762"/><text fill="#000000" font-family="sans-serif" font-size="13" font-weight="bold" lengthAdjust="spacing" textLength="7" x="706.5" y="236.8135">5</text><text fill="#000000" font-family="sans-serif" font-size="13" lengthAdjust="spacing" textLength="67" x="717.5" y="236.8135">repositories</text><polygon fill="#181818" points="918.5,269.3672,928.5,273.3672,918.5,277.3672,922.5,273.3672" style="stroke:#181818;stroke-width:1.0;"/><line style="stroke:#181818;stroke-width:1.0;" x1="689.5" x2="924.5" y1="273.3672" y2="273.3672"/><text fill="#000000" font-family="sans-serif" font-size="13" font-weight="bold" lengthAdjust="spacing" textLength="7" x="696.5" y="268.1045">6</text><text fill="#000000" font-family="sans-serif" font-size="13" lengthAdjust="spacing" textLength="163" x="707.5" y="268.1045">getAgendaEntryRepository()</text><polygon fill="#181818" points="700.5,300.6582,690.5,304.6582,700.5,308.6582,696.5,304.6582" style="stroke:#181818;stroke-width:1.0;"/><line style="stroke:#181818;stroke-width:1.0;stroke-dasharray:2.0,2.0;" x1="694.5" x2="934.5" y1="304.6582" y2="304.6582"/><text fill="#000000" font-family="sans-serif" font-size="13" font-weight="bold" lengthAdjust="spacing" textLength="7" x="706.5" y="299.3955">7</text><text fill="#000000" font-family="sans-serif" font-size="13" lengthAdjust="spacing" textLength="145" x="717.5" y="299.3955">AgendaEntryRepository()</text><polygon fill="#181818" points="918.5,331.9492,928.5,335.9492,918.5,339.9492,922.5,335.9492" style="stroke:#181818;stroke-width:1.0;"/><line style="stroke:#181818;stroke-width:1.0;" x1="689.5" x2="924.5" y1="335.9492" y2="335.9492"/><text fill="#000000" font-family="sans-serif" font-size="13" font-weight="bold" lengthAdjust="spacing" textLength="7" x="696.5" y="330.6865">8</text><text fill="#000000" font-family="sans-serif" font-size="13" lengthAdjust="spacing" textLength="131" x="707.5" y="330.6865">getVehicleRepository()</text><polygon fill="#181818" points="700.5,363.2402,690.5,367.2402,700.5,371.2402,696.5,367.2402" style="stroke:#181818;stroke-width:1.0;"/><line style="stroke:#181818;stroke-width:1.0;stroke-dasharray:2.0,2.0;" x1="694.5" x2="934.5" y1="367.2402" y2="367.2402"/><text fill="#000000" font-family="sans-serif" font-size="13" font-weight="bold" lengthAdjust="spacing" textLength="7" x="706.5" y="361.9775">9</text><text fill="#000000" font-family="sans-serif" font-size="13" lengthAdjust="spacing" textLength="101" x="717.5" y="361.9775">vehicleRepository</text><polygon fill="#181818" points="667.5,394.5313,677.5,398.5313,667.5,402.5313,671.5,398.5313" style="stroke:#181818;stroke-width:1.0;"/><line style="stroke:#181818;stroke-width:1.0;" x1="394.5" x2="673.5" y1="398.5313" y2="398.5313"/><text fill="#000000" font-family="sans-serif" font-size="13" font-weight="bold" lengthAdjust="spacing" textLength="14" x="401.5" y="393.2686">10</text><text fill="#000000" font-family="sans-serif" font-size="13" lengthAdjust="spacing" textLength="123" x="419.5" y="393.2686">getVehiclesListDTO()</text><polygon fill="#181818" points="667.5,425.8223,677.5,429.8223,667.5,433.8223,671.5,429.8223" style="stroke:#181818;stroke-width:1.0;"/><line style="stroke:#181818;stroke-width:1.0;" x1="394.5" x2="673.5" y1="429.8223" y2="429.8223"/><text fill="#000000" font-family="sans-serif" font-size="13" font-weight="bold" lengthAdjust="spacing" textLength="14" x="401.5" y="424.5596">11</text><text fill="#000000" font-family="sans-serif" font-size="13" lengthAdjust="spacing" textLength="127" x="419.5" y="424.5596">.getVehiclesListDTO()</text><polygon fill="#181818" points="1262.5,457.1133,1272.5,461.1133,1262.5,465.1133,1266.5,461.1133" style="stroke:#181818;stroke-width:1.0;"/><line style="stroke:#181818;stroke-width:1.0;" x1="689.5" x2="1268.5" y1="461.1133" y2="461.1133"/><text fill="#000000" font-family="sans-serif" font-size="13" font-weight="bold" lengthAdjust="spacing" textLength="14" x="696.5" y="455.8506">12</text><text fill="#000000" font-family="sans-serif" font-size="13" lengthAdjust="spacing" textLength="461" x="714.5" y="455.8506">getAgendaEntryWithoutDoneList(authenticationController.getCurrentUserEmail()</text><polygon fill="#181818" points="700.5,488.4043,690.5,492.4043,700.5,496.4043,696.5,492.4043" style="stroke:#181818;stroke-width:1.0;"/><line style="stroke:#181818;stroke-width:1.0;stroke-dasharray:2.0,2.0;" x1="694.5" x2="1278.5" y1="492.4043" y2="492.4043"/><text fill="#000000" font-family="sans-serif" font-size="13" font-weight="bold" lengthAdjust="spacing" textLength="14" x="706.5" y="487.1416">13</text><text fill="#000000" font-family="sans-serif" font-size="13" lengthAdjust="spacing" textLength="94" x="724.5" y="487.1416">agendaEntryList</text><polygon fill="#181818" points="1428,519.6953,1438,523.6953,1428,527.6953,1432,523.6953" style="stroke:#181818;stroke-width:1.0;"/><line style="stroke:#181818;stroke-width:1.0;" x1="689.5" x2="1434" y1="523.6953" y2="523.6953"/><text fill="#000000" font-family="sans-serif" font-size="13" font-weight="bold" lengthAdjust="spacing" textLength="14" x="696.5" y="518.4326">14</text><text fill="#000000" font-family="sans-serif" font-size="13" lengthAdjust="spacing" textLength="154" x="714.5" y="518.4326">toDtoList(agendaEntryList)</text><path d="M1363,538.6953 L1436,538.6953 L1436,547.9863 L1426,557.9863 L1363,557.9863 L1363,538.6953 " fill="#EEEEEE" style="stroke:#000000;stroke-width:1.5;"/><rect fill="none" height="50.582" style="stroke:#000000;stroke-width:1.5;" width="435" x="1363" y="538.6953"/><text fill="#000000" font-family="sans-serif" font-size="13" font-weight="bold" lengthAdjust="spacing" textLength="28" x="1378" y="553.7236">loop</text><text fill="#000000" font-family="sans-serif" font-size="11" font-weight="bold" lengthAdjust="spacing" textLength="229" x="1451" y="552.5654">[for each agendaEntry in agendaEntryList]</text><polygon fill="#181818" points="1708,577.2773,1718,581.2773,1708,585.2773,1712,581.2773" style="stroke:#181818;stroke-width:1.0;"/><line style="stroke:#181818;stroke-width:1.0;" x1="1450" x2="1714" y1="581.2773" y2="581.2773"/><text fill="#000000" font-family="sans-serif" font-size="13" font-weight="bold" lengthAdjust="spacing" textLength="14" x="1457" y="576.0146">15</text><text fill="#000000" font-family="sans-serif" font-size="13" lengthAdjust="spacing" textLength="233" x="1475" y="576.0146">agendaEntryDTO = toDTO(agendaEntry)</text><polygon fill="#181818" points="700.5,615.5684,690.5,619.5684,700.5,623.5684,696.5,619.5684" style="stroke:#181818;stroke-width:1.0;"/><line style="stroke:#181818;stroke-width:1.0;stroke-dasharray:2.0,2.0;" x1="694.5" x2="1444" y1="619.5684" y2="619.5684"/><text fill="#000000" font-family="sans-serif" font-size="13" font-weight="bold" lengthAdjust="spacing" textLength="14" x="706.5" y="614.3057">16</text><text fill="#000000" font-family="sans-serif" font-size="13" lengthAdjust="spacing" textLength="120" x="724.5" y="614.3057">agendaEntryDTOList</text><polygon fill="#181818" points="2022,646.8594,2032,650.8594,2022,654.8594,2026,650.8594" style="stroke:#181818;stroke-width:1.0;"/><line style="stroke:#181818;stroke-width:1.0;" x1="689.5" x2="2028" y1="650.8594" y2="650.8594"/><text fill="#000000" font-family="sans-serif" font-size="13" font-weight="bold" lengthAdjust="spacing" textLength="14" x="696.5" y="645.5967">17</text><text fill="#000000" font-family="sans-serif" font-size="13" lengthAdjust="spacing" textLength="90" x="714.5" y="645.5967">getVehicleList()</text><polygon fill="#181818" points="700.5,678.1504,690.5,682.1504,700.5,686.1504,696.5,682.1504" style="stroke:#181818;stroke-width:1.0;"/><line style="stroke:#181818;stroke-width:1.0;stroke-dasharray:2.0,2.0;" x1="694.5" x2="2038" y1="682.1504" y2="682.1504"/><text fill="#000000" font-family="sans-serif" font-size="13" font-weight="bold" lengthAdjust="spacing" textLength="14" x="706.5" y="676.8877">18</text><text fill="#000000" font-family="sans-serif" font-size="13" lengthAdjust="spacing" textLength="46" x="724.5" y="676.8877">vehicles</text><polygon fill="#181818" points="2151,709.4414,2161,713.4414,2151,717.4414,2155,713.4414" style="stroke:#181818;stroke-width:1.0;"/><line style="stroke:#181818;stroke-width:1.0;" x1="689.5" x2="2157" y1="713.4414" y2="713.4414"/><text fill="#000000" font-family="sans-serif" font-size="13" font-weight="bold" lengthAdjust="spacing" textLength="14" x="696.5" y="708.1787">19</text><text fill="#000000" font-family="sans-serif" font-size="13" lengthAdjust="spacing" textLength="169" x="714.5" y="708.1787">getVehiclesListDTO(vehicles)</text><path d="M2104,728.4414 L2177,728.4414 L2177,737.7324 L2167,747.7324 L2104,747.7324 L2104,728.4414 " fill="#EEEEEE" style="stroke:#000000;stroke-width:1.5;"/><rect fill="none" height="50.582" style="stroke:#000000;stroke-width:1.5;" width="331" x="2104" y="728.4414"/><text fill="#000000" font-family="sans-serif" font-size="13" font-weight="bold" lengthAdjust="spacing" textLength="28" x="2119" y="743.4697">loop</text><text fill="#000000" font-family="sans-serif" font-size="11" font-weight="bold" lengthAdjust="spacing" textLength="157" x="2192" y="742.3115">[for each vehicle in vehicles]</text><polygon fill="#181818" points="2363,767.0234,2373,771.0234,2363,775.0234,2367,771.0234" style="stroke:#181818;stroke-width:1.0;"/><line style="stroke:#181818;stroke-width:1.0;" x1="2173" x2="2369" y1="771.0234" y2="771.0234"/><text fill="#000000" font-family="sans-serif" font-size="13" font-weight="bold" lengthAdjust="spacing" textLength="14" x="2180" y="765.7607">20</text><text fill="#000000" font-family="sans-serif" font-size="13" lengthAdjust="spacing" textLength="165" x="2198" y="765.7607">vehicleDTO = toDTO(vehicle)</text><polygon fill="#181818" points="700.5,805.3145,690.5,809.3145,700.5,813.3145,696.5,809.3145" style="stroke:#181818;stroke-width:1.0;"/><line style="stroke:#181818;stroke-width:1.0;stroke-dasharray:2.0,2.0;" x1="694.5" x2="2167" y1="809.3145" y2="809.3145"/><text fill="#000000" font-family="sans-serif" font-size="13" font-weight="bold" lengthAdjust="spacing" textLength="14" x="706.5" y="804.0518">21</text><text fill="#000000" font-family="sans-serif" font-size="13" lengthAdjust="spacing" textLength="86" x="724.5" y="804.0518">vehicleDTOList</text><polygon fill="#181818" points="405.5,836.6055,395.5,840.6055,405.5,844.6055,401.5,840.6055" style="stroke:#181818;stroke-width:1.0;"/><line style="stroke:#181818;stroke-width:1.0;stroke-dasharray:2.0,2.0;" x1="399.5" x2="678.5" y1="840.6055" y2="840.6055"/><text fill="#000000" font-family="sans-serif" font-size="13" font-weight="bold" lengthAdjust="spacing" textLength="14" x="411.5" y="835.3428">22</text><text fill="#000000" font-family="sans-serif" font-size="13" lengthAdjust="spacing" textLength="120" x="429.5" y="835.3428">agendaEntryDTOList</text><polygon fill="#181818" points="405.5,867.8965,395.5,871.8965,405.5,875.8965,401.5,871.8965" style="stroke:#181818;stroke-width:1.0;"/><line style="stroke:#181818;stroke-width:1.0;stroke-dasharray:2.0,2.0;" x1="399.5" x2="683.5" y1="871.8965" y2="871.8965"/><text fill="#000000" font-family="sans-serif" font-size="13" font-weight="bold" lengthAdjust="spacing" textLength="14" x="411.5" y="866.6338">23</text><text fill="#000000" font-family="sans-serif" font-size="13" lengthAdjust="spacing" textLength="86" x="429.5" y="866.6338">vehicleDTOList</text><polygon fill="#181818" points="39.5,916.4785,29.5,920.4785,39.5,924.4785,35.5,920.4785" style="stroke:#181818;stroke-width:1.0;"/><line style="stroke:#181818;stroke-width:1.0;stroke-dasharray:2.0,2.0;" x1="33.5" x2="383.5" y1="920.4785" y2="920.4785"/><text fill="#000000" font-family="sans-serif" font-size="13" font-weight="bold" lengthAdjust="spacing" textLength="14" x="45.5" y="906.5703">24</text><text fill="#000000" font-family="sans-serif" font-size="13" lengthAdjust="spacing" textLength="219" x="63.5" y="897.9248">shows the list of entries in the agenda</text><text fill="#000000" font-family="sans-serif" font-size="13" lengthAdjust="spacing" textLength="310" x="67.5" y="915.2158">and the list of vehicles and asks to select one of each</text><polygon fill="#181818" points="372.5,947.7695,382.5,951.7695,372.5,955.7695,376.5,951.7695" style="stroke:#181818;stroke-width:1.0;"/><line style="stroke:#181818;stroke-width:1.0;" x1="28.5" x2="378.5" y1="951.7695" y2="951.7695"/><text fill="#000000" font-family="sans-serif" font-size="13" font-weight="bold" lengthAdjust="spacing" textLength="14" x="35.5" y="946.5068">25</text><text fill="#000000" font-family="sans-serif" font-size="13" lengthAdjust="spacing" textLength="150" x="53.5" y="946.5068">selects entry and vehicles</text><polygon fill="#181818" points="667.5,979.0605,677.5,983.0605,667.5,987.0605,671.5,983.0605" style="stroke:#181818;stroke-width:1.0;"/><line style="stroke:#181818;stroke-width:1.0;" x1="394.5" x2="673.5" y1="983.0605" y2="983.0605"/><text fill="#000000" font-family="sans-serif" font-size="13" font-weight="bold" lengthAdjust="spacing" textLength="14" x="401.5" y="977.7979">26</text><text fill="#000000" font-family="sans-serif" font-size="13" lengthAdjust="spacing" textLength="248" x="419.5" y="977.7979">assignVehciles(selectedEntry, vehicleList))</text><polygon fill="#181818" points="1262.5,1010.3516,1272.5,1014.3516,1262.5,1018.3516,1266.5,1014.3516" style="stroke:#181818;stroke-width:1.0;"/><line style="stroke:#181818;stroke-width:1.0;" x1="689.5" x2="1268.5" y1="1014.3516" y2="1014.3516"/><text fill="#000000" font-family="sans-serif" font-size="13" font-weight="bold" lengthAdjust="spacing" textLength="14" x="696.5" y="1009.0889">27</text><text fill="#000000" font-family="sans-serif" font-size="13" lengthAdjust="spacing" textLength="548" x="714.5" y="1009.0889">assignVehicles(mapperAgenda.toEntity(agendaEntry), mapperVehicle.toEntityList(vehiclesList)</text><polygon fill="#181818" points="2614,1041.6426,2624,1045.6426,2614,1049.6426,2618,1045.6426" style="stroke:#181818;stroke-width:1.0;"/><line style="stroke:#181818;stroke-width:1.0;" x1="1284.5" x2="2620" y1="1045.6426" y2="1045.6426"/><text fill="#000000" font-family="sans-serif" font-size="13" font-weight="bold" lengthAdjust="spacing" textLength="14" x="1291.5" y="1040.3799">28</text><text fill="#000000" font-family="sans-serif" font-size="13" lengthAdjust="spacing" textLength="201" x="1309.5" y="1040.3799">setAssociatedVehicles(vehicleList)</text><polygon fill="#181818" points="700.5,1072.9336,690.5,1076.9336,700.5,1080.9336,696.5,1076.9336" style="stroke:#181818;stroke-width:1.0;"/><line style="stroke:#181818;stroke-width:1.0;" x1="694.5" x2="1278.5" y1="1076.9336" y2="1076.9336"/><text fill="#000000" font-family="sans-serif" font-size="13" font-weight="bold" lengthAdjust="spacing" textLength="14" x="706.5" y="1071.6709">29</text><text fill="#000000" font-family="sans-serif" font-size="13" lengthAdjust="spacing" textLength="112" x="724.5" y="1071.6709">success/insuccess</text><polygon fill="#181818" points="405.5,1104.2246,395.5,1108.2246,405.5,1112.2246,401.5,1108.2246" style="stroke:#181818;stroke-width:1.0;"/><line style="stroke:#181818;stroke-width:1.0;stroke-dasharray:2.0,2.0;" x1="399.5" x2="683.5" y1="1108.2246" y2="1108.2246"/><text fill="#000000" font-family="sans-serif" font-size="13" font-weight="bold" lengthAdjust="spacing" textLength="14" x="411.5" y="1102.9619">30</text><text fill="#000000" font-family="sans-serif" font-size="13" lengthAdjust="spacing" textLength="112" x="429.5" y="1102.9619">success/insuccess</text><polygon fill="#181818" points="34.5,1135.5156,24.5,1139.5156,34.5,1143.5156,30.5,1139.5156" style="stroke:#181818;stroke-width:1.0;"/><line style="stroke:#181818;stroke-width:1.0;stroke-dasharray:2.0,2.0;" x1="28.5" x2="388.5" y1="1139.5156" y2="1139.5156"/><text fill="#000000" font-family="sans-serif" font-size="13" font-weight="bold" lengthAdjust="spacing" textLength="14" x="40.5" y="1134.2529">31</text><text fill="#000000" font-family="sans-serif" font-size="13" lengthAdjust="spacing" textLength="165" x="58.5" y="1134.2529">shows (in)success message</text><!--SRC=[XLPBQ-Cm4BxxLuYU4cYxzy0MIbkMmfQ5pRPxoKMhgB6eBHb9Jic_tz73repjf1S_Hj-yFutaFfJkkEKjQuqsehQcbSpRNbPkNEcu-E07kVMdHZ8hXUVwq620g_dUV2fzOE-ySRAgUE-Dxjj_qiAtyCQogn_Rbol67ODt1LfU2TLnxTdLvjuvTT1libQYaUxrES9wHL4Kz62qjwPff8rWuMqpCVfRTiOfyAoaYvXHSDgg43u4I5KiqjZfkO6kuPvgG4tqdZz1AATYVRFJzqloQ2Df1E4akwBnmhikfvNGIK3m2FxuvrU0KibPuyXi_AV0NDq8EgPl2iX2akpRL8RLvvbcECgII1R1a156pXFikaO9xfNHMmayCJhbsNMHVUh8lOoyg-31Rkw0N6m3Y0_7l85tODOGSHBfN2GcOvL68y3A2fJ1HA0S615MWhm08XEhk0WWtC027fSNA0ceW_JFsi4U4tArBfQN-Bjau2O7js6OqDLUNhGqnXHOde9OP36EA6s8W2y-poaXzr5jmT-CI5_vch5nxeNqglXmFvNpG2FmG12tYv19EuE_MON-Ab-RtZyQBOFY2WPW3Tp9h2pZAdXuwAs5jLSdxLFBLOFpH0C2UIivexqR_E2CaUfP1dhpw4qAa1gQXP2tOrKrndJi7IOuUAgnVwRqB1n67K80ar55CWY2xo4cA3CIhuEP8Ph9O8EVgg8-IlkewUNwvBoGVE9XB1sY5o5FB1-g5nvrM6T6LB89iTReaep2PSOEjb00T83IVcLuwDKO1PluAOvJXuxbP-XE5f7Ee6aSke9oGoiJJwLNnScqJpITN9jnQCzRJ07dxQRH7FOxOCD1i85xY_c4WLzBrW2OcVSuxs5SXde5SNAt0wBhFS6DfqLO64uI9nku736O0T4Kr9-UE6dTfKCbQeuzeNE83vSTeM1nbVJaFgPzFIZ5RRk-VFHayd9oULgriRI9zxVUW5dbJsG7NhE4oIeZA7B_Y2YvFBh8xBgZDv1G1W-tEICKQEt7e71MKmDf6xbU23ZUlocTlyvClvaqNNKcHBbexInNLaglCvwry007M2_S3z1lk7Fy1m00]--></g></svg>