<?xml version="1.0" encoding="us-ascii" standalone="no"?><svg xmlns="http://www.w3.org/2000/svg" xmlns:xlink="http://www.w3.org/1999/xlink" contentStyleType="text/css" height="799px" preserveAspectRatio="none" style="width:737px;height:799px;background:#FFFFFF;" version="1.1" viewBox="0 0 737 799" width="737px" zoomAndPan="magnify"><defs/><g><!--class SystemUser--><g id="elem_SystemUser"><rect codeLine="37" fill="#F1F1F1" height="196.9688" id="SystemUser" rx="2.5" ry="2.5" style="stroke:#181818;stroke-width:0.5;" width="107" x="441.5" y="7"/><ellipse cx="456.5" cy="23" fill="#ADD1B2" rx="11" ry="11" style="stroke:#181818;stroke-width:1.0;"/><path d="M459.2656,18.875 Q459.4219,18.6563 459.6094,18.5469 Q459.7969,18.4375 460.0156,18.4375 Q460.3906,18.4375 460.625,18.7031 Q460.8594,18.9531 460.8594,19.5625 L460.8594,21.0156 Q460.8594,21.625 460.625,21.8906 Q460.3906,22.1563 460.0156,22.1563 Q459.6719,22.1563 459.4688,21.9531 Q459.2656,21.7656 459.1563,21.25 Q459.1094,20.8906 458.9219,20.7031 Q458.5938,20.3281 457.9844,20.1094 Q457.375,19.8906 456.75,19.8906 Q455.9844,19.8906 455.3438,20.2188 Q454.7188,20.5469 454.2188,21.2969 Q453.7344,22.0469 453.7344,23.0781 L453.7344,24.1719 Q453.7344,25.4063 454.625,26.2344 Q455.5156,27.0469 457.1094,27.0469 Q458.0469,27.0469 458.7031,26.7969 Q459.0938,26.6406 459.5156,26.2031 Q459.7813,25.9375 459.9219,25.8594 Q460.0781,25.7813 460.2813,25.7813 Q460.6094,25.7813 460.8594,26.0469 Q461.125,26.2969 461.125,26.6406 Q461.125,26.9844 460.7813,27.3906 Q460.2813,27.9688 459.4844,28.2969 Q458.4063,28.75 457.1094,28.75 Q455.5938,28.75 454.3906,28.125 Q453.4063,27.625 452.7188,26.5625 Q452.0313,25.4844 452.0313,24.2031 L452.0313,23.0469 Q452.0313,21.7188 452.6406,20.5781 Q453.2656,19.4219 454.3594,18.8125 Q455.4531,18.1875 456.6875,18.1875 Q457.4219,18.1875 458.0625,18.3594 Q458.7188,18.5156 459.2656,18.875 Z " fill="#000000"/><text fill="#000000" font-family="sans-serif" font-size="14" lengthAdjust="spacing" textLength="75" x="470.5" y="28.7969">SystemUser</text><line style="stroke:#181818;stroke-width:0.5;" x1="442.5" x2="547.5" y1="39" y2="39"/><text fill="#000000" font-family="sans-serif" font-size="14" lengthAdjust="spacing" textLength="35" x="447.5" y="58.1074">name</text><text fill="#000000" font-family="sans-serif" font-size="14" lengthAdjust="spacing" textLength="33" x="447.5" y="76.7285">email</text><text fill="#000000" font-family="sans-serif" font-size="14" lengthAdjust="spacing" textLength="60" x="447.5" y="95.3496">password</text><text fill="#000000" font-family="sans-serif" font-size="14" lengthAdjust="spacing" textLength="40" x="447.5" y="113.9707">phone</text><text fill="#000000" font-family="sans-serif" font-size="14" lengthAdjust="spacing" textLength="35" x="447.5" y="132.5918">name</text><text fill="#000000" font-family="sans-serif" font-size="14" lengthAdjust="spacing" textLength="33" x="447.5" y="151.2129">email</text><text fill="#000000" font-family="sans-serif" font-size="14" lengthAdjust="spacing" textLength="60" x="447.5" y="169.834">password</text><text fill="#000000" font-family="sans-serif" font-size="14" lengthAdjust="spacing" textLength="40" x="447.5" y="188.4551">phone</text><line style="stroke:#181818;stroke-width:0.5;" x1="442.5" x2="547.5" y1="195.9688" y2="195.9688"/></g><!--class CollaboratorRepository--><g id="elem_CollaboratorRepository"><rect codeLine="16" fill="#F1F1F1" height="66.6211" id="CollaboratorRepository" rx="2.5" ry="2.5" style="stroke:#181818;stroke-width:0.5;" width="178" x="216" y="679.5"/><ellipse cx="231" cy="695.5" fill="#ADD1B2" rx="11" ry="11" style="stroke:#181818;stroke-width:1.0;"/><path d="M233.7656,691.375 Q233.9219,691.1563 234.1094,691.0469 Q234.2969,690.9375 234.5156,690.9375 Q234.8906,690.9375 235.125,691.2031 Q235.3594,691.4531 235.3594,692.0625 L235.3594,693.5156 Q235.3594,694.125 235.125,694.3906 Q234.8906,694.6563 234.5156,694.6563 Q234.1719,694.6563 233.9688,694.4531 Q233.7656,694.2656 233.6563,693.75 Q233.6094,693.3906 233.4219,693.2031 Q233.0938,692.8281 232.4844,692.6094 Q231.875,692.3906 231.25,692.3906 Q230.4844,692.3906 229.8438,692.7188 Q229.2188,693.0469 228.7188,693.7969 Q228.2344,694.5469 228.2344,695.5781 L228.2344,696.6719 Q228.2344,697.9063 229.125,698.7344 Q230.0156,699.5469 231.6094,699.5469 Q232.5469,699.5469 233.2031,699.2969 Q233.5938,699.1406 234.0156,698.7031 Q234.2813,698.4375 234.4219,698.3594 Q234.5781,698.2813 234.7813,698.2813 Q235.1094,698.2813 235.3594,698.5469 Q235.625,698.7969 235.625,699.1406 Q235.625,699.4844 235.2813,699.8906 Q234.7813,700.4688 233.9844,700.7969 Q232.9063,701.25 231.6094,701.25 Q230.0938,701.25 228.8906,700.625 Q227.9063,700.125 227.2188,699.0625 Q226.5313,697.9844 226.5313,696.7031 L226.5313,695.5469 Q226.5313,694.2188 227.1406,693.0781 Q227.7656,691.9219 228.8594,691.3125 Q229.9531,690.6875 231.1875,690.6875 Q231.9219,690.6875 232.5625,690.8594 Q233.2188,691.0156 233.7656,691.375 Z " fill="#000000"/><text fill="#000000" font-family="sans-serif" font-size="14" lengthAdjust="spacing" textLength="146" x="245" y="701.2969">CollaboratorRepository</text><line style="stroke:#181818;stroke-width:0.5;" x1="217" x2="393" y1="711.5" y2="711.5"/><text fill="#000000" font-family="sans-serif" font-size="14" lengthAdjust="spacing" textLength="162" x="222" y="730.6074">-ArrayList collaboratorList</text><line style="stroke:#181818;stroke-width:0.5;" x1="217" x2="393" y1="738.1211" y2="738.1211"/></g><!--class Repositories--><g id="elem_Repositories"><rect codeLine="22" fill="#F1F1F1" height="271.4531" id="Repositories" rx="2.5" ry="2.5" style="stroke:#181818;stroke-width:0.5;" width="196" x="205" y="283"/><ellipse cx="259.25" cy="299" fill="#ADD1B2" rx="11" ry="11" style="stroke:#181818;stroke-width:1.0;"/><path d="M262.0156,294.875 Q262.1719,294.6563 262.3594,294.5469 Q262.5469,294.4375 262.7656,294.4375 Q263.1406,294.4375 263.375,294.7031 Q263.6094,294.9531 263.6094,295.5625 L263.6094,297.0156 Q263.6094,297.625 263.375,297.8906 Q263.1406,298.1563 262.7656,298.1563 Q262.4219,298.1563 262.2188,297.9531 Q262.0156,297.7656 261.9063,297.25 Q261.8594,296.8906 261.6719,296.7031 Q261.3438,296.3281 260.7344,296.1094 Q260.125,295.8906 259.5,295.8906 Q258.7344,295.8906 258.0938,296.2188 Q257.4688,296.5469 256.9688,297.2969 Q256.4844,298.0469 256.4844,299.0781 L256.4844,300.1719 Q256.4844,301.4063 257.375,302.2344 Q258.2656,303.0469 259.8594,303.0469 Q260.7969,303.0469 261.4531,302.7969 Q261.8438,302.6406 262.2656,302.2031 Q262.5313,301.9375 262.6719,301.8594 Q262.8281,301.7813 263.0313,301.7813 Q263.3594,301.7813 263.6094,302.0469 Q263.875,302.2969 263.875,302.6406 Q263.875,302.9844 263.5313,303.3906 Q263.0313,303.9688 262.2344,304.2969 Q261.1563,304.75 259.8594,304.75 Q258.3438,304.75 257.1406,304.125 Q256.1563,303.625 255.4688,302.5625 Q254.7813,301.4844 254.7813,300.2031 L254.7813,299.0469 Q254.7813,297.7188 255.3906,296.5781 Q256.0156,295.4219 257.1094,294.8125 Q258.2031,294.1875 259.4375,294.1875 Q260.1719,294.1875 260.8125,294.3594 Q261.4688,294.5156 262.0156,294.875 Z " fill="#000000"/><text fill="#000000" font-family="sans-serif" font-size="14" lengthAdjust="spacing" textLength="79" x="279.75" y="304.7969">Repositories</text><line style="stroke:#181818;stroke-width:0.5;" x1="206" x2="400" y1="315" y2="315"/><text fill="#000000" font-family="sans-serif" font-size="14" lengthAdjust="spacing" textLength="148" x="211" y="334.1074">-collaboratorRepository</text><text fill="#000000" font-family="sans-serif" font-size="14" lengthAdjust="spacing" textLength="117" x="211" y="352.7285">-vehicleRepository</text><text fill="#000000" font-family="sans-serif" font-size="14" lengthAdjust="spacing" textLength="96" x="211" y="371.3496">-skillRepository</text><text fill="#000000" font-family="sans-serif" font-size="14" lengthAdjust="spacing" textLength="92" x="211" y="389.9707">-jobRepository</text><text fill="#000000" font-family="sans-serif" font-size="14" lengthAdjust="spacing" textLength="106" x="211" y="408.5918">-EntryRepository</text><line style="stroke:#181818;stroke-width:0.5;" x1="206" x2="400" y1="416.1055" y2="416.1055"/><text fill="#000000" font-family="sans-serif" font-size="14" lengthAdjust="spacing" textLength="94" x="211" y="435.2129">-Repositories()</text><text fill="#000000" font-family="sans-serif" font-size="14" lengthAdjust="spacing" textLength="91" x="211" y="453.834">+getInstance()</text><text fill="#000000" font-family="sans-serif" font-size="14" lengthAdjust="spacing" textLength="184" x="211" y="472.4551">+getCollaboratorRepository()</text><text fill="#000000" font-family="sans-serif" font-size="14" lengthAdjust="spacing" textLength="152" x="211" y="491.0762">+getVehicleRepository()</text><text fill="#000000" font-family="sans-serif" font-size="14" lengthAdjust="spacing" textLength="131" x="211" y="509.6973">+getSkillRepository()</text><text fill="#000000" font-family="sans-serif" font-size="14" lengthAdjust="spacing" textLength="128" x="211" y="528.3184">+getJobRepository()</text><text fill="#000000" font-family="sans-serif" font-size="14" lengthAdjust="spacing" textLength="139" x="211" y="546.9395">+getEntryRepository()</text></g><!--class AssignVehicleController--><g id="elem_AssignVehicleController"><rect codeLine="44" fill="#F1F1F1" height="141.1055" id="AssignVehicleController" rx="2.5" ry="2.5" style="stroke:#181818;stroke-width:0.5;" width="232" x="174" y="35"/><ellipse cx="211.5" cy="51" fill="#ADD1B2" rx="11" ry="11" style="stroke:#181818;stroke-width:1.0;"/><path d="M214.2656,46.875 Q214.4219,46.6563 214.6094,46.5469 Q214.7969,46.4375 215.0156,46.4375 Q215.3906,46.4375 215.625,46.7031 Q215.8594,46.9531 215.8594,47.5625 L215.8594,49.0156 Q215.8594,49.625 215.625,49.8906 Q215.3906,50.1563 215.0156,50.1563 Q214.6719,50.1563 214.4688,49.9531 Q214.2656,49.7656 214.1563,49.25 Q214.1094,48.8906 213.9219,48.7031 Q213.5938,48.3281 212.9844,48.1094 Q212.375,47.8906 211.75,47.8906 Q210.9844,47.8906 210.3438,48.2188 Q209.7188,48.5469 209.2188,49.2969 Q208.7344,50.0469 208.7344,51.0781 L208.7344,52.1719 Q208.7344,53.4063 209.625,54.2344 Q210.5156,55.0469 212.1094,55.0469 Q213.0469,55.0469 213.7031,54.7969 Q214.0938,54.6406 214.5156,54.2031 Q214.7813,53.9375 214.9219,53.8594 Q215.0781,53.7813 215.2813,53.7813 Q215.6094,53.7813 215.8594,54.0469 Q216.125,54.2969 216.125,54.6406 Q216.125,54.9844 215.7813,55.3906 Q215.2813,55.9688 214.4844,56.2969 Q213.4063,56.75 212.1094,56.75 Q210.5938,56.75 209.3906,56.125 Q208.4063,55.625 207.7188,54.5625 Q207.0313,53.4844 207.0313,52.2031 L207.0313,51.0469 Q207.0313,49.7188 207.6406,48.5781 Q208.2656,47.4219 209.3594,46.8125 Q210.4531,46.1875 211.6875,46.1875 Q212.4219,46.1875 213.0625,46.3594 Q213.7188,46.5156 214.2656,46.875 Z " fill="#000000"/><text fill="#000000" font-family="sans-serif" font-size="14" lengthAdjust="spacing" textLength="150" x="230.5" y="56.7969">AssignVehicleController</text><line style="stroke:#181818;stroke-width:0.5;" x1="175" x2="405" y1="67" y2="67"/><text fill="#000000" font-family="sans-serif" font-size="14" lengthAdjust="spacing" textLength="119" x="180" y="86.1074">-VehicleRepository</text><line style="stroke:#181818;stroke-width:0.5;" x1="175" x2="405" y1="93.6211" y2="93.6211"/><text fill="#000000" font-family="sans-serif" font-size="14" lengthAdjust="spacing" textLength="139" x="180" y="112.7285">+getEntryRepository()</text><text fill="#000000" font-family="sans-serif" font-size="14" lengthAdjust="spacing" textLength="220" x="180" y="131.3496">+getVehicleRepositoryRepository()</text><text fill="#000000" font-family="sans-serif" font-size="14" lengthAdjust="spacing" textLength="93" x="180" y="149.9707">+getEntryList()</text><text fill="#000000" font-family="sans-serif" font-size="14" lengthAdjust="spacing" textLength="106" x="180" y="168.5918">+getVehicleList()</text></g><!--class AssignVehiclessUI--><g id="elem_AssignVehiclessUI"><rect codeLine="53" fill="#F1F1F1" height="48" id="AssignVehiclessUI" rx="2.5" ry="2.5" style="stroke:#181818;stroke-width:0.5;" width="146" x="584" y="81.5"/><ellipse cx="599" cy="97.5" fill="#ADD1B2" rx="11" ry="11" style="stroke:#181818;stroke-width:1.0;"/><path d="M601.7656,93.375 Q601.9219,93.1563 602.1094,93.0469 Q602.2969,92.9375 602.5156,92.9375 Q602.8906,92.9375 603.125,93.2031 Q603.3594,93.4531 603.3594,94.0625 L603.3594,95.5156 Q603.3594,96.125 603.125,96.3906 Q602.8906,96.6563 602.5156,96.6563 Q602.1719,96.6563 601.9688,96.4531 Q601.7656,96.2656 601.6563,95.75 Q601.6094,95.3906 601.4219,95.2031 Q601.0938,94.8281 600.4844,94.6094 Q599.875,94.3906 599.25,94.3906 Q598.4844,94.3906 597.8438,94.7188 Q597.2188,95.0469 596.7188,95.7969 Q596.2344,96.5469 596.2344,97.5781 L596.2344,98.6719 Q596.2344,99.9063 597.125,100.7344 Q598.0156,101.5469 599.6094,101.5469 Q600.5469,101.5469 601.2031,101.2969 Q601.5938,101.1406 602.0156,100.7031 Q602.2813,100.4375 602.4219,100.3594 Q602.5781,100.2813 602.7813,100.2813 Q603.1094,100.2813 603.3594,100.5469 Q603.625,100.7969 603.625,101.1406 Q603.625,101.4844 603.2813,101.8906 Q602.7813,102.4688 601.9844,102.7969 Q600.9063,103.25 599.6094,103.25 Q598.0938,103.25 596.8906,102.625 Q595.9063,102.125 595.2188,101.0625 Q594.5313,99.9844 594.5313,98.7031 L594.5313,97.5469 Q594.5313,96.2188 595.1406,95.0781 Q595.7656,93.9219 596.8594,93.3125 Q597.9531,92.6875 599.1875,92.6875 Q599.9219,92.6875 600.5625,92.8594 Q601.2188,93.0156 601.7656,93.375 Z " fill="#000000"/><text fill="#000000" font-family="sans-serif" font-size="14" lengthAdjust="spacing" textLength="114" x="613" y="103.2969">AssignVehiclessUI</text><line style="stroke:#181818;stroke-width:0.5;" x1="585" x2="729" y1="113.5" y2="113.5"/><line style="stroke:#181818;stroke-width:0.5;" x1="585" x2="729" y1="121.5" y2="121.5"/></g><!--class VehicleRepository--><g id="elem_VehicleRepository"><rect codeLine="59" fill="#F1F1F1" height="159.7266" id="VehicleRepository" rx="2.5" ry="2.5" style="stroke:#181818;stroke-width:0.5;" width="164" x="17" y="633"/><ellipse cx="40.1" cy="649" fill="#ADD1B2" rx="11" ry="11" style="stroke:#181818;stroke-width:1.0;"/><path d="M42.8656,644.875 Q43.0219,644.6563 43.2094,644.5469 Q43.3969,644.4375 43.6156,644.4375 Q43.9906,644.4375 44.225,644.7031 Q44.4594,644.9531 44.4594,645.5625 L44.4594,647.0156 Q44.4594,647.625 44.225,647.8906 Q43.9906,648.1563 43.6156,648.1563 Q43.2719,648.1563 43.0688,647.9531 Q42.8656,647.7656 42.7563,647.25 Q42.7094,646.8906 42.5219,646.7031 Q42.1938,646.3281 41.5844,646.1094 Q40.975,645.8906 40.35,645.8906 Q39.5844,645.8906 38.9438,646.2188 Q38.3188,646.5469 37.8188,647.2969 Q37.3344,648.0469 37.3344,649.0781 L37.3344,650.1719 Q37.3344,651.4063 38.225,652.2344 Q39.1156,653.0469 40.7094,653.0469 Q41.6469,653.0469 42.3031,652.7969 Q42.6938,652.6406 43.1156,652.2031 Q43.3813,651.9375 43.5219,651.8594 Q43.6781,651.7813 43.8813,651.7813 Q44.2094,651.7813 44.4594,652.0469 Q44.725,652.2969 44.725,652.6406 Q44.725,652.9844 44.3813,653.3906 Q43.8813,653.9688 43.0844,654.2969 Q42.0063,654.75 40.7094,654.75 Q39.1938,654.75 37.9906,654.125 Q37.0063,653.625 36.3188,652.5625 Q35.6313,651.4844 35.6313,650.2031 L35.6313,649.0469 Q35.6313,647.7188 36.2406,646.5781 Q36.8656,645.4219 37.9594,644.8125 Q39.0531,644.1875 40.2875,644.1875 Q41.0219,644.1875 41.6625,644.3594 Q42.3188,644.5156 42.8656,644.875 Z " fill="#000000"/><text fill="#000000" font-family="sans-serif" font-size="14" lengthAdjust="spacing" textLength="114" x="55.9" y="654.7969">VehicleRepository</text><line style="stroke:#181818;stroke-width:0.5;" x1="18" x2="180" y1="665" y2="665"/><text fill="#000000" font-family="sans-serif" font-size="14" lengthAdjust="spacing" textLength="133" x="23" y="684.1074">-ArrayList VehicleList</text><line style="stroke:#181818;stroke-width:0.5;" x1="18" x2="180" y1="691.6211" y2="691.6211"/><text fill="#000000" font-family="sans-serif" font-size="14" lengthAdjust="spacing" textLength="152" x="23" y="710.7285">+getVehicleRepository()</text><text fill="#000000" font-family="sans-serif" font-size="14" lengthAdjust="spacing" textLength="84" x="23" y="729.3496">+getVehicle()</text><text fill="#000000" font-family="sans-serif" font-size="14" lengthAdjust="spacing" textLength="105" x="23" y="747.9707">+assignVehicle()</text><text fill="#000000" font-family="sans-serif" font-size="14" lengthAdjust="spacing" textLength="100" x="23" y="766.5918">-vehicleIsValid()</text><text fill="#000000" font-family="sans-serif" font-size="14" lengthAdjust="spacing" textLength="138" x="23" y="785.2129">-isValidVehicleName()</text></g><!--class Vehicle--><g id="elem_Vehicle"><rect codeLine="68" fill="#F1F1F1" height="196.9688" id="Vehicle" rx="2.5" ry="2.5" style="stroke:#181818;stroke-width:0.5;" width="136" x="33" y="320"/><ellipse cx="74.1" cy="336" fill="#ADD1B2" rx="11" ry="11" style="stroke:#181818;stroke-width:1.0;"/><path d="M76.8656,331.875 Q77.0219,331.6563 77.2094,331.5469 Q77.3969,331.4375 77.6156,331.4375 Q77.9906,331.4375 78.225,331.7031 Q78.4594,331.9531 78.4594,332.5625 L78.4594,334.0156 Q78.4594,334.625 78.225,334.8906 Q77.9906,335.1563 77.6156,335.1563 Q77.2719,335.1563 77.0688,334.9531 Q76.8656,334.7656 76.7563,334.25 Q76.7094,333.8906 76.5219,333.7031 Q76.1938,333.3281 75.5844,333.1094 Q74.975,332.8906 74.35,332.8906 Q73.5844,332.8906 72.9438,333.2188 Q72.3188,333.5469 71.8188,334.2969 Q71.3344,335.0469 71.3344,336.0781 L71.3344,337.1719 Q71.3344,338.4063 72.225,339.2344 Q73.1156,340.0469 74.7094,340.0469 Q75.6469,340.0469 76.3031,339.7969 Q76.6938,339.6406 77.1156,339.2031 Q77.3813,338.9375 77.5219,338.8594 Q77.6781,338.7813 77.8813,338.7813 Q78.2094,338.7813 78.4594,339.0469 Q78.725,339.2969 78.725,339.6406 Q78.725,339.9844 78.3813,340.3906 Q77.8813,340.9688 77.0844,341.2969 Q76.0063,341.75 74.7094,341.75 Q73.1938,341.75 71.9906,341.125 Q71.0063,340.625 70.3188,339.5625 Q69.6313,338.4844 69.6313,337.2031 L69.6313,336.0469 Q69.6313,334.7188 70.2406,333.5781 Q70.8656,332.4219 71.9594,331.8125 Q73.0531,331.1875 74.2875,331.1875 Q75.0219,331.1875 75.6625,331.3594 Q76.3188,331.5156 76.8656,331.875 Z " fill="#000000"/><text fill="#000000" font-family="sans-serif" font-size="14" lengthAdjust="spacing" textLength="46" x="93.9" y="341.7969">Vehicle</text><line style="stroke:#181818;stroke-width:0.5;" x1="34" x2="168" y1="352" y2="352"/><text fill="#000000" font-family="sans-serif" font-size="14" lengthAdjust="spacing" textLength="35" x="39" y="371.1074">name</text><text fill="#000000" font-family="sans-serif" font-size="14" lengthAdjust="spacing" textLength="40" x="39" y="389.7285">phone</text><text fill="#000000" font-family="sans-serif" font-size="14" lengthAdjust="spacing" textLength="56" x="39" y="408.3496">birthdate</text><text fill="#000000" font-family="sans-serif" font-size="14" lengthAdjust="spacing" textLength="93" x="39" y="426.9707">admissionDate</text><text fill="#000000" font-family="sans-serif" font-size="14" lengthAdjust="spacing" textLength="51" x="39" y="445.5918">address</text><text fill="#000000" font-family="sans-serif" font-size="14" lengthAdjust="spacing" textLength="107" x="39" y="464.2129">idDocumentType</text><text fill="#000000" font-family="sans-serif" font-size="14" lengthAdjust="spacing" textLength="124" x="39" y="482.834">idDocumentNumber</text><text fill="#000000" font-family="sans-serif" font-size="14" lengthAdjust="spacing" textLength="38" x="39" y="501.4551">status</text><line style="stroke:#181818;stroke-width:0.5;" x1="34" x2="168" y1="508.9688" y2="508.9688"/></g><!--class Entry--><g id="elem_Entry"><rect fill="#F1F1F1" height="48" id="Entry" rx="2.5" ry="2.5" style="stroke:#181818;stroke-width:0.5;" width="65" x="450.5" y="394.5"/><ellipse cx="465.5" cy="410.5" fill="#ADD1B2" rx="11" ry="11" style="stroke:#181818;stroke-width:1.0;"/><path d="M468.2656,406.375 Q468.4219,406.1563 468.6094,406.0469 Q468.7969,405.9375 469.0156,405.9375 Q469.3906,405.9375 469.625,406.2031 Q469.8594,406.4531 469.8594,407.0625 L469.8594,408.5156 Q469.8594,409.125 469.625,409.3906 Q469.3906,409.6563 469.0156,409.6563 Q468.6719,409.6563 468.4688,409.4531 Q468.2656,409.2656 468.1563,408.75 Q468.1094,408.3906 467.9219,408.2031 Q467.5938,407.8281 466.9844,407.6094 Q466.375,407.3906 465.75,407.3906 Q464.9844,407.3906 464.3438,407.7188 Q463.7188,408.0469 463.2188,408.7969 Q462.7344,409.5469 462.7344,410.5781 L462.7344,411.6719 Q462.7344,412.9063 463.625,413.7344 Q464.5156,414.5469 466.1094,414.5469 Q467.0469,414.5469 467.7031,414.2969 Q468.0938,414.1406 468.5156,413.7031 Q468.7813,413.4375 468.9219,413.3594 Q469.0781,413.2813 469.2813,413.2813 Q469.6094,413.2813 469.8594,413.5469 Q470.125,413.7969 470.125,414.1406 Q470.125,414.4844 469.7813,414.8906 Q469.2813,415.4688 468.4844,415.7969 Q467.4063,416.25 466.1094,416.25 Q464.5938,416.25 463.3906,415.625 Q462.4063,415.125 461.7188,414.0625 Q461.0313,412.9844 461.0313,411.7031 L461.0313,410.5469 Q461.0313,409.2188 461.6406,408.0781 Q462.2656,406.9219 463.3594,406.3125 Q464.4531,405.6875 465.6875,405.6875 Q466.4219,405.6875 467.0625,405.8594 Q467.7188,406.0156 468.2656,406.375 Z " fill="#000000"/><text fill="#000000" font-family="sans-serif" font-size="14" lengthAdjust="spacing" textLength="33" x="479.5" y="416.2969">Entry</text><line style="stroke:#181818;stroke-width:0.5;" x1="451.5" x2="514.5" y1="426.5" y2="426.5"/><line style="stroke:#181818;stroke-width:0.5;" x1="451.5" x2="514.5" y1="434.5" y2="434.5"/></g><!--class EntryRepository--><g id="elem_EntryRepository"><rect fill="#F1F1F1" height="48" id="EntryRepository" rx="2.5" ry="2.5" style="stroke:#181818;stroke-width:0.5;" width="133" x="429.5" y="689"/><ellipse cx="444.5" cy="705" fill="#ADD1B2" rx="11" ry="11" style="stroke:#181818;stroke-width:1.0;"/><path d="M447.2656,700.875 Q447.4219,700.6563 447.6094,700.5469 Q447.7969,700.4375 448.0156,700.4375 Q448.3906,700.4375 448.625,700.7031 Q448.8594,700.9531 448.8594,701.5625 L448.8594,703.0156 Q448.8594,703.625 448.625,703.8906 Q448.3906,704.1563 448.0156,704.1563 Q447.6719,704.1563 447.4688,703.9531 Q447.2656,703.7656 447.1563,703.25 Q447.1094,702.8906 446.9219,702.7031 Q446.5938,702.3281 445.9844,702.1094 Q445.375,701.8906 444.75,701.8906 Q443.9844,701.8906 443.3438,702.2188 Q442.7188,702.5469 442.2188,703.2969 Q441.7344,704.0469 441.7344,705.0781 L441.7344,706.1719 Q441.7344,707.4063 442.625,708.2344 Q443.5156,709.0469 445.1094,709.0469 Q446.0469,709.0469 446.7031,708.7969 Q447.0938,708.6406 447.5156,708.2031 Q447.7813,707.9375 447.9219,707.8594 Q448.0781,707.7813 448.2813,707.7813 Q448.6094,707.7813 448.8594,708.0469 Q449.125,708.2969 449.125,708.6406 Q449.125,708.9844 448.7813,709.3906 Q448.2813,709.9688 447.4844,710.2969 Q446.4063,710.75 445.1094,710.75 Q443.5938,710.75 442.3906,710.125 Q441.4063,709.625 440.7188,708.5625 Q440.0313,707.4844 440.0313,706.2031 L440.0313,705.0469 Q440.0313,703.7188 440.6406,702.5781 Q441.2656,701.4219 442.3594,700.8125 Q443.4531,700.1875 444.6875,700.1875 Q445.4219,700.1875 446.0625,700.3594 Q446.7188,700.5156 447.2656,700.875 Z " fill="#000000"/><text fill="#000000" font-family="sans-serif" font-size="14" lengthAdjust="spacing" textLength="101" x="458.5" y="710.7969">EntryRepository</text><line style="stroke:#181818;stroke-width:0.5;" x1="430.5" x2="561.5" y1="721" y2="721"/><line style="stroke:#181818;stroke-width:0.5;" x1="430.5" x2="561.5" y1="729" y2="729"/></g><!--class AssignVehicleUI--><g id="elem_AssignVehicleUI"><rect fill="#F1F1F1" height="48" id="AssignVehicleUI" rx="2.5" ry="2.5" style="stroke:#181818;stroke-width:0.5;" width="132" x="7" y="81.5"/><ellipse cx="22" cy="97.5" fill="#ADD1B2" rx="11" ry="11" style="stroke:#181818;stroke-width:1.0;"/><path d="M24.7656,93.375 Q24.9219,93.1563 25.1094,93.0469 Q25.2969,92.9375 25.5156,92.9375 Q25.8906,92.9375 26.125,93.2031 Q26.3594,93.4531 26.3594,94.0625 L26.3594,95.5156 Q26.3594,96.125 26.125,96.3906 Q25.8906,96.6563 25.5156,96.6563 Q25.1719,96.6563 24.9688,96.4531 Q24.7656,96.2656 24.6563,95.75 Q24.6094,95.3906 24.4219,95.2031 Q24.0938,94.8281 23.4844,94.6094 Q22.875,94.3906 22.25,94.3906 Q21.4844,94.3906 20.8438,94.7188 Q20.2188,95.0469 19.7188,95.7969 Q19.2344,96.5469 19.2344,97.5781 L19.2344,98.6719 Q19.2344,99.9063 20.125,100.7344 Q21.0156,101.5469 22.6094,101.5469 Q23.5469,101.5469 24.2031,101.2969 Q24.5938,101.1406 25.0156,100.7031 Q25.2813,100.4375 25.4219,100.3594 Q25.5781,100.2813 25.7813,100.2813 Q26.1094,100.2813 26.3594,100.5469 Q26.625,100.7969 26.625,101.1406 Q26.625,101.4844 26.2813,101.8906 Q25.7813,102.4688 24.9844,102.7969 Q23.9063,103.25 22.6094,103.25 Q21.0938,103.25 19.8906,102.625 Q18.9063,102.125 18.2188,101.0625 Q17.5313,99.9844 17.5313,98.7031 L17.5313,97.5469 Q17.5313,96.2188 18.1406,95.0781 Q18.7656,93.9219 19.8594,93.3125 Q20.9531,92.6875 22.1875,92.6875 Q22.9219,92.6875 23.5625,92.8594 Q24.2188,93.0156 24.7656,93.375 Z " fill="#000000"/><text fill="#000000" font-family="sans-serif" font-size="14" lengthAdjust="spacing" textLength="100" x="36" y="103.2969">AssignVehicleUI</text><line style="stroke:#181818;stroke-width:0.5;" x1="8" x2="138" y1="113.5" y2="113.5"/><line style="stroke:#181818;stroke-width:0.5;" x1="8" x2="138" y1="121.5" y2="121.5"/></g><!--link Repositories to CollaboratorRepository--><g id="link_Repositories_CollaboratorRepository"><path codeLine="78" d="M303.92,554.19 C304.24,600.67 304.5289,642.7201 304.7389,673.4001 " fill="none" id="Repositories-to-CollaboratorRepository" style="stroke:#181818;stroke-width:1.0;"/><polygon fill="#181818" points="304.78,679.4,308.7183,670.3728,304.7458,674.4001,300.7185,670.4276,304.78,679.4" style="stroke:#181818;stroke-width:1.0;"/><text fill="#000000" font-family="sans-serif" font-size="13" lengthAdjust="spacing" textLength="7" x="297.0476" y="668.2058">1</text></g><!--link Repositories to VehicleRepository--><g id="link_Repositories_VehicleRepository"><path codeLine="79" d="M209.06,554.19 C190.34,581.03 174.6915,603.4681 157.7915,627.7081 " fill="none" id="Repositories-to-VehicleRepository" style="stroke:#181818;stroke-width:1.0;"/><polygon fill="#181818" points="154.36,632.63,162.7885,627.5349,157.2196,628.5284,156.226,622.9595,154.36,632.63" style="stroke:#181818;stroke-width:1.0;"/><text fill="#000000" font-family="sans-serif" font-size="13" lengthAdjust="spacing" textLength="7" x="151.9788" y="621.7685">1</text></g><!--reverse link Vehicle to VehicleRepository--><g id="link_Vehicle_VehicleRepository"><path codeLine="80" d="M100.2884,523.2999 C100.0284,560.8399 99.79,597.17 99.54,632.75 " fill="none" id="Vehicle-backto-VehicleRepository" style="stroke:#181818;stroke-width:1.0;"/><polygon fill="#181818" points="100.33,517.3,96.2678,526.2721,100.2954,522.2999,104.2676,526.3275,100.33,517.3" style="stroke:#181818;stroke-width:1.0;"/><text fill="#000000" font-family="sans-serif" font-size="13" lengthAdjust="spacing" textLength="21" x="101" y="599.0283">has</text><text fill="#000000" font-family="sans-serif" font-size="13" lengthAdjust="spacing" textLength="5" x="95.1071" y="538.8842">*</text><text fill="#000000" font-family="sans-serif" font-size="13" lengthAdjust="spacing" textLength="7" x="92.2671" y="621.6227">1</text></g><!--reverse link Entry to EntryRepository--><g id="link_Entry_EntryRepository"><path codeLine="81" d="M484.3064,448.9341 C486.7464,503.8441 492.54,634.24 494.97,688.85 " fill="none" id="Entry-backto-EntryRepository" style="stroke:#181818;stroke-width:1.0;"/><polygon fill="#181818" points="484.04,442.94,480.4435,452.1087,484.262,447.9351,488.4356,451.7536,484.04,442.94" style="stroke:#181818;stroke-width:1.0;"/><text fill="#000000" font-family="sans-serif" font-size="13" lengthAdjust="spacing" textLength="21" x="493" y="599.0283">has</text><text fill="#000000" font-family="sans-serif" font-size="13" lengthAdjust="spacing" textLength="5" x="478.7024" y="464.6193">*</text><text fill="#000000" font-family="sans-serif" font-size="13" lengthAdjust="spacing" textLength="7" x="486.8092" y="677.549">1</text></g><!--link Vehicle to Entry--><g id="link_Vehicle_Entry"><path codeLine="82" d="M124.15,319.78 C134.19,297.44 148.53,276.39 169,263 C206.91,238.2 405.26,273.79 418,283 C455,309.75 471.79,363.25 478.71,394.42 " fill="none" id="Vehicle-Entry" style="stroke:#181818;stroke-width:1.0;"/><polygon fill="#000000" points="178.8928,244.6755,170.6471,239.9363,169.4363,245.6881,178.8928,244.6755" style="stroke:#000000;stroke-width:1.0;"/><text fill="#000000" font-family="sans-serif" font-size="13" lengthAdjust="spacing" textLength="79" x="183" y="249.0283">is atributed to</text><text fill="#000000" font-family="sans-serif" font-size="13" lengthAdjust="spacing" textLength="20" x="105.1568" y="308.6116">1..*</text><text fill="#000000" font-family="sans-serif" font-size="13" lengthAdjust="spacing" textLength="7" x="469.7138" y="383.137">1</text></g><!--reverse link SystemUser to Entry--><g id="link_SystemUser_Entry"><path codeLine="83" d="M490.5445,222.0366 C487.9545,289.0166 485.42,354.75 483.89,394.5 " fill="none" id="SystemUser-backto-Entry" style="stroke:#181818;stroke-width:1.0;"/><polygon fill="none" points="491.24,204.05,484.549,221.8047,496.54,222.2684,491.24,204.05" style="stroke:#181818;stroke-width:1.0;"/></g><!--link AssignVehicleUI to AssignVehicleController--><g id="link_AssignVehicleUI_AssignVehicleController"><path codeLine="84" d="M139.12,105.5 C150.71,105.5 156.3,105.5 167.89,105.5 " fill="none" id="AssignVehicleUI-to-AssignVehicleController" style="stroke:#181818;stroke-width:1.0;stroke-dasharray:7.0,7.0;"/><polygon fill="#181818" points="173.89,105.5,164.89,101.5,168.89,105.5,164.89,109.5,173.89,105.5" style="stroke:#181818;stroke-width:1.0;"/></g><!--link AssignVehicleController to Repositories--><g id="link_AssignVehicleController_Repositories"><path codeLine="85" d="M292.92,176.29 C294.23,207.81 295.5905,240.1752 297.1205,276.9352 " fill="none" id="AssignVehicleController-to-Repositories" style="stroke:#181818;stroke-width:1.0;stroke-dasharray:7.0,7.0;"/><polygon fill="#181818" points="297.37,282.93,300.9923,273.7714,297.1621,277.9343,292.9992,274.1041,297.37,282.93" style="stroke:#181818;stroke-width:1.0;"/><text fill="#000000" font-family="sans-serif" font-size="13" lengthAdjust="spacing" textLength="67" x="298" y="249.0283">repositories</text></g><!--SRC=[fLJ1Rjim3BthAuYSsWKErcjG10ZQ7LmCFJHBxxBCsbfboP2K5cxMVn_ZAAuSES20-IG-FjAFqfFSgzGjjxm1eRXpQ- -jB7OUSs7qHduWV6Tke3H66r5Rqo2ySEKmIhLSlF8ADxvJ21Q5vxfICS7Ll3JlKbT9gP8QVTSYj4PrXs0gPwmtZB5U96mwvx7PEhImPq2VvWts2souLFsg9UAxiUKng0sr_JpLtncbU64izyO-OMkSf4KNUcMmjfPtFwNp82BY0M277g79K2ZH3QLYidD8lc4jXS84ft6LIj3VfaYm7zhRBa5Z9LVNFJY72dsk7Hs3m1YR7ZrcF9-hZ9ERiTGuzH3hZHDdeYb5k_XV1pdKhvsJbGwAxmpzYCP3ksTPCWMRJqgPJqsSCFgwWm765G7vCjP8ZtFRV7zqJ4WdFvgmNDJw7yya90U8no82EfWlTyzSoNA0vJ4Ex4VQVafzdWaECgFZEPt4SLr8w-kI-rFCoqQI2AFlOwoqj2KXakMz4Ri6jVz5jpi17tTDWJR0P6A_SoHgTEEoR3MxcLsuofFKr1AdyMRVPd2RPJ39WYNKtB7U0YFccPa2R-XvirWGEQ8kQRE1X_Ur16zWnQ8BSFid2nUSZMoqpM6nkkHqTW671TMCDc59h_9NoFu2]--></g></svg>