<?xml version="1.0" encoding="us-ascii" standalone="no"?><svg xmlns="http://www.w3.org/2000/svg" xmlns:xlink="http://www.w3.org/1999/xlink" contentStyleType="text/css" height="1166px" preserveAspectRatio="none" style="width:1405px;height:1166px;background:#FFFFFF;" version="1.1" viewBox="0 0 1405 1166" width="1405px" zoomAndPan="magnify"><defs/><g><!--class AgendaEntryDTO--><g id="elem_AgendaEntryDTO"><rect codeLine="11" fill="#F1F1F1" height="196.9688" id="AgendaEntryDTO" rx="2.5" ry="2.5" style="stroke:#181818;stroke-width:0.5;" width="144" x="663.5" y="7"/><ellipse cx="678.5" cy="23" fill="#ADD1B2" rx="11" ry="11" style="stroke:#181818;stroke-width:1.0;"/><path d="M681.2656,18.875 Q681.4219,18.6563 681.6094,18.5469 Q681.7969,18.4375 682.0156,18.4375 Q682.3906,18.4375 682.625,18.7031 Q682.8594,18.9531 682.8594,19.5625 L682.8594,21.0156 Q682.8594,21.625 682.625,21.8906 Q682.3906,22.1563 682.0156,22.1563 Q681.6719,22.1563 681.4688,21.9531 Q681.2656,21.7656 681.1563,21.25 Q681.1094,20.8906 680.9219,20.7031 Q680.5938,20.3281 679.9844,20.1094 Q679.375,19.8906 678.75,19.8906 Q677.9844,19.8906 677.3438,20.2188 Q676.7188,20.5469 676.2188,21.2969 Q675.7344,22.0469 675.7344,23.0781 L675.7344,24.1719 Q675.7344,25.4063 676.625,26.2344 Q677.5156,27.0469 679.1094,27.0469 Q680.0469,27.0469 680.7031,26.7969 Q681.0938,26.6406 681.5156,26.2031 Q681.7813,25.9375 681.9219,25.8594 Q682.0781,25.7813 682.2813,25.7813 Q682.6094,25.7813 682.8594,26.0469 Q683.125,26.2969 683.125,26.6406 Q683.125,26.9844 682.7813,27.3906 Q682.2813,27.9688 681.4844,28.2969 Q680.4063,28.75 679.1094,28.75 Q677.5938,28.75 676.3906,28.125 Q675.4063,27.625 674.7188,26.5625 Q674.0313,25.4844 674.0313,24.2031 L674.0313,23.0469 Q674.0313,21.7188 674.6406,20.5781 Q675.2656,19.4219 676.3594,18.8125 Q677.4531,18.1875 678.6875,18.1875 Q679.4219,18.1875 680.0625,18.3594 Q680.7188,18.5156 681.2656,18.875 Z " fill="#000000"/><text fill="#000000" font-family="sans-serif" font-size="14" lengthAdjust="spacing" textLength="112" x="692.5" y="28.7969">AgendaEntryDTO</text><line style="stroke:#181818;stroke-width:0.5;" x1="664.5" x2="806.5" y1="39" y2="39"/><text fill="#000000" font-family="sans-serif" font-size="14" lengthAdjust="spacing" textLength="28" x="669.5" y="58.1074">date</text><text fill="#000000" font-family="sans-serif" font-size="14" lengthAdjust="spacing" textLength="77" x="669.5" y="76.7285">greenSpace</text><text fill="#000000" font-family="sans-serif" font-size="14" lengthAdjust="spacing" textLength="69" x="669.5" y="95.3496">description</text><text fill="#000000" font-family="sans-serif" font-size="14" lengthAdjust="spacing" textLength="111" x="669.5" y="113.9707">expectedDuration</text><text fill="#000000" font-family="sans-serif" font-size="14" lengthAdjust="spacing" textLength="98" x="669.5" y="132.5918">urgencyDegree</text><text fill="#000000" font-family="sans-serif" font-size="14" lengthAdjust="spacing" textLength="72" x="669.5" y="151.2129">entryStatus</text><text fill="#000000" font-family="sans-serif" font-size="14" lengthAdjust="spacing" textLength="104" x="669.5" y="169.834">associatedTeam</text><text fill="#000000" font-family="sans-serif" font-size="14" lengthAdjust="spacing" textLength="121" x="669.5" y="188.4551">associatedVehicles</text><line style="stroke:#181818;stroke-width:0.5;" x1="664.5" x2="806.5" y1="195.9688" y2="195.9688"/></g><!--class Vehicle--><g id="elem_Vehicle"><rect codeLine="24" fill="#F1F1F1" height="252.832" id="Vehicle" rx="2.5" ry="2.5" style="stroke:#181818;stroke-width:0.5;" width="133" x="1154" y="742"/><ellipse cx="1193.75" cy="758" fill="#ADD1B2" rx="11" ry="11" style="stroke:#181818;stroke-width:1.0;"/><path d="M1196.5156,753.875 Q1196.6719,753.6563 1196.8594,753.5469 Q1197.0469,753.4375 1197.2656,753.4375 Q1197.6406,753.4375 1197.875,753.7031 Q1198.1094,753.9531 1198.1094,754.5625 L1198.1094,756.0156 Q1198.1094,756.625 1197.875,756.8906 Q1197.6406,757.1563 1197.2656,757.1563 Q1196.9219,757.1563 1196.7188,756.9531 Q1196.5156,756.7656 1196.4063,756.25 Q1196.3594,755.8906 1196.1719,755.7031 Q1195.8438,755.3281 1195.2344,755.1094 Q1194.625,754.8906 1194,754.8906 Q1193.2344,754.8906 1192.5938,755.2188 Q1191.9688,755.5469 1191.4688,756.2969 Q1190.9844,757.0469 1190.9844,758.0781 L1190.9844,759.1719 Q1190.9844,760.4063 1191.875,761.2344 Q1192.7656,762.0469 1194.3594,762.0469 Q1195.2969,762.0469 1195.9531,761.7969 Q1196.3438,761.6406 1196.7656,761.2031 Q1197.0313,760.9375 1197.1719,760.8594 Q1197.3281,760.7813 1197.5313,760.7813 Q1197.8594,760.7813 1198.1094,761.0469 Q1198.375,761.2969 1198.375,761.6406 Q1198.375,761.9844 1198.0313,762.3906 Q1197.5313,762.9688 1196.7344,763.2969 Q1195.6563,763.75 1194.3594,763.75 Q1192.8438,763.75 1191.6406,763.125 Q1190.6563,762.625 1189.9688,761.5625 Q1189.2813,760.4844 1189.2813,759.2031 L1189.2813,758.0469 Q1189.2813,756.7188 1189.8906,755.5781 Q1190.5156,754.4219 1191.6094,753.8125 Q1192.7031,753.1875 1193.9375,753.1875 Q1194.6719,753.1875 1195.3125,753.3594 Q1195.9688,753.5156 1196.5156,753.875 Z " fill="#000000"/><text fill="#000000" font-family="sans-serif" font-size="14" lengthAdjust="spacing" textLength="46" x="1213.25" y="763.7969">Vehicle</text><line style="stroke:#181818;stroke-width:0.5;" x1="1155" x2="1286" y1="774" y2="774"/><text fill="#000000" font-family="sans-serif" font-size="14" lengthAdjust="spacing" textLength="37" x="1160" y="793.1074">brand</text><text fill="#000000" font-family="sans-serif" font-size="14" lengthAdjust="spacing" textLength="38" x="1160" y="811.7285">model</text><text fill="#000000" font-family="sans-serif" font-size="14" lengthAdjust="spacing" textLength="57" x="1160" y="830.3496">vehicleID</text><text fill="#000000" font-family="sans-serif" font-size="14" lengthAdjust="spacing" textLength="27" x="1160" y="848.9707">type</text><text fill="#000000" font-family="sans-serif" font-size="14" lengthAdjust="spacing" textLength="25" x="1160" y="867.5918">tare</text><text fill="#000000" font-family="sans-serif" font-size="14" lengthAdjust="spacing" textLength="79" x="1160" y="886.2129">grossWeight</text><text fill="#000000" font-family="sans-serif" font-size="14" lengthAdjust="spacing" textLength="65" x="1160" y="904.834">currentKm</text><text fill="#000000" font-family="sans-serif" font-size="14" lengthAdjust="spacing" textLength="78" x="1160" y="923.4551">registerDate</text><text fill="#000000" font-family="sans-serif" font-size="14" lengthAdjust="spacing" textLength="97" x="1160" y="942.0762">acquisitionDate</text><text fill="#000000" font-family="sans-serif" font-size="14" lengthAdjust="spacing" textLength="121" x="1160" y="960.6973">checkupFrequency</text><text fill="#000000" font-family="sans-serif" font-size="14" lengthAdjust="spacing" textLength="76" x="1160" y="979.3184">checkUpList</text><line style="stroke:#181818;stroke-width:0.5;" x1="1155" x2="1286" y1="986.832" y2="986.832"/></g><!--class SystemUser--><g id="elem_SystemUser"><rect codeLine="37" fill="#F1F1F1" height="122.4844" id="SystemUser" rx="2.5" ry="2.5" style="stroke:#181818;stroke-width:0.5;" width="107" x="7" y="44.5"/><ellipse cx="22" cy="60.5" fill="#ADD1B2" rx="11" ry="11" style="stroke:#181818;stroke-width:1.0;"/><path d="M24.7656,56.375 Q24.9219,56.1563 25.1094,56.0469 Q25.2969,55.9375 25.5156,55.9375 Q25.8906,55.9375 26.125,56.2031 Q26.3594,56.4531 26.3594,57.0625 L26.3594,58.5156 Q26.3594,59.125 26.125,59.3906 Q25.8906,59.6563 25.5156,59.6563 Q25.1719,59.6563 24.9688,59.4531 Q24.7656,59.2656 24.6563,58.75 Q24.6094,58.3906 24.4219,58.2031 Q24.0938,57.8281 23.4844,57.6094 Q22.875,57.3906 22.25,57.3906 Q21.4844,57.3906 20.8438,57.7188 Q20.2188,58.0469 19.7188,58.7969 Q19.2344,59.5469 19.2344,60.5781 L19.2344,61.6719 Q19.2344,62.9063 20.125,63.7344 Q21.0156,64.5469 22.6094,64.5469 Q23.5469,64.5469 24.2031,64.2969 Q24.5938,64.1406 25.0156,63.7031 Q25.2813,63.4375 25.4219,63.3594 Q25.5781,63.2813 25.7813,63.2813 Q26.1094,63.2813 26.3594,63.5469 Q26.625,63.7969 26.625,64.1406 Q26.625,64.4844 26.2813,64.8906 Q25.7813,65.4688 24.9844,65.7969 Q23.9063,66.25 22.6094,66.25 Q21.0938,66.25 19.8906,65.625 Q18.9063,65.125 18.2188,64.0625 Q17.5313,62.9844 17.5313,61.7031 L17.5313,60.5469 Q17.5313,59.2188 18.1406,58.0781 Q18.7656,56.9219 19.8594,56.3125 Q20.9531,55.6875 22.1875,55.6875 Q22.9219,55.6875 23.5625,55.8594 Q24.2188,56.0156 24.7656,56.375 Z " fill="#000000"/><text fill="#000000" font-family="sans-serif" font-size="14" lengthAdjust="spacing" textLength="75" x="36" y="66.2969">SystemUser</text><line style="stroke:#181818;stroke-width:0.5;" x1="8" x2="113" y1="76.5" y2="76.5"/><text fill="#000000" font-family="sans-serif" font-size="14" lengthAdjust="spacing" textLength="35" x="13" y="95.6074">name</text><text fill="#000000" font-family="sans-serif" font-size="14" lengthAdjust="spacing" textLength="33" x="13" y="114.2285">email</text><text fill="#000000" font-family="sans-serif" font-size="14" lengthAdjust="spacing" textLength="60" x="13" y="132.8496">password</text><text fill="#000000" font-family="sans-serif" font-size="14" lengthAdjust="spacing" textLength="40" x="13" y="151.4707">phone</text><line style="stroke:#181818;stroke-width:0.5;" x1="8" x2="113" y1="158.9844" y2="158.9844"/></g><!--class AgendaEntryRepository--><g id="elem_AgendaEntryRepository"><rect codeLine="45" fill="#F1F1F1" height="103.8633" id="AgendaEntryRepository" rx="2.5" ry="2.5" style="stroke:#181818;stroke-width:0.5;" width="616" x="386.5" y="816.5"/><ellipse cx="615.25" cy="832.5" fill="#ADD1B2" rx="11" ry="11" style="stroke:#181818;stroke-width:1.0;"/><path d="M618.0156,828.375 Q618.1719,828.1563 618.3594,828.0469 Q618.5469,827.9375 618.7656,827.9375 Q619.1406,827.9375 619.375,828.2031 Q619.6094,828.4531 619.6094,829.0625 L619.6094,830.5156 Q619.6094,831.125 619.375,831.3906 Q619.1406,831.6563 618.7656,831.6563 Q618.4219,831.6563 618.2188,831.4531 Q618.0156,831.2656 617.9063,830.75 Q617.8594,830.3906 617.6719,830.2031 Q617.3438,829.8281 616.7344,829.6094 Q616.125,829.3906 615.5,829.3906 Q614.7344,829.3906 614.0938,829.7188 Q613.4688,830.0469 612.9688,830.7969 Q612.4844,831.5469 612.4844,832.5781 L612.4844,833.6719 Q612.4844,834.9063 613.375,835.7344 Q614.2656,836.5469 615.8594,836.5469 Q616.7969,836.5469 617.4531,836.2969 Q617.8438,836.1406 618.2656,835.7031 Q618.5313,835.4375 618.6719,835.3594 Q618.8281,835.2813 619.0313,835.2813 Q619.3594,835.2813 619.6094,835.5469 Q619.875,835.7969 619.875,836.1406 Q619.875,836.4844 619.5313,836.8906 Q619.0313,837.4688 618.2344,837.7969 Q617.1563,838.25 615.8594,838.25 Q614.3438,838.25 613.1406,837.625 Q612.1563,837.125 611.4688,836.0625 Q610.7813,834.9844 610.7813,833.7031 L610.7813,832.5469 Q610.7813,831.2188 611.3906,830.0781 Q612.0156,828.9219 613.1094,828.3125 Q614.2031,827.6875 615.4375,827.6875 Q616.1719,827.6875 616.8125,827.8594 Q617.4688,828.0156 618.0156,828.375 Z " fill="#000000"/><text fill="#000000" font-family="sans-serif" font-size="14" lengthAdjust="spacing" textLength="150" x="635.75" y="838.2969">AgendaEntryRepository</text><line style="stroke:#181818;stroke-width:0.5;" x1="387.5" x2="1001.5" y1="848.5" y2="848.5"/><text fill="#000000" font-family="sans-serif" font-size="14" lengthAdjust="spacing" textLength="255" x="392.5" y="867.6074">-ArrayList&lt;AgendaEntry&gt; agendaEntries</text><line style="stroke:#181818;stroke-width:0.5;" x1="387.5" x2="1001.5" y1="875.1211" y2="875.1211"/><text fill="#000000" font-family="sans-serif" font-size="14" lengthAdjust="spacing" textLength="515" x="392.5" y="894.2285">+getAgendaEntryWithoutDoneList(authenticationController.getCurrentUserEmail()</text><text fill="#000000" font-family="sans-serif" font-size="14" lengthAdjust="spacing" textLength="604" x="392.5" y="912.8496">+assignVehicles(mapperAgenda.toEntity(agendaEntry), mapperVehicle.toEntityList(vehiclesList)</text></g><!--class Repositories--><g id="elem_Repositories"><rect codeLine="51" fill="#F1F1F1" height="159.7266" id="Repositories" rx="2.5" ry="2.5" style="stroke:#181818;stroke-width:0.5;" width="200" x="345.5" y="503"/><ellipse cx="401.75" cy="519" fill="#ADD1B2" rx="11" ry="11" style="stroke:#181818;stroke-width:1.0;"/><path d="M404.5156,514.875 Q404.6719,514.6563 404.8594,514.5469 Q405.0469,514.4375 405.2656,514.4375 Q405.6406,514.4375 405.875,514.7031 Q406.1094,514.9531 406.1094,515.5625 L406.1094,517.0156 Q406.1094,517.625 405.875,517.8906 Q405.6406,518.1563 405.2656,518.1563 Q404.9219,518.1563 404.7188,517.9531 Q404.5156,517.7656 404.4063,517.25 Q404.3594,516.8906 404.1719,516.7031 Q403.8438,516.3281 403.2344,516.1094 Q402.625,515.8906 402,515.8906 Q401.2344,515.8906 400.5938,516.2188 Q399.9688,516.5469 399.4688,517.2969 Q398.9844,518.0469 398.9844,519.0781 L398.9844,520.1719 Q398.9844,521.4063 399.875,522.2344 Q400.7656,523.0469 402.3594,523.0469 Q403.2969,523.0469 403.9531,522.7969 Q404.3438,522.6406 404.7656,522.2031 Q405.0313,521.9375 405.1719,521.8594 Q405.3281,521.7813 405.5313,521.7813 Q405.8594,521.7813 406.1094,522.0469 Q406.375,522.2969 406.375,522.6406 Q406.375,522.9844 406.0313,523.3906 Q405.5313,523.9688 404.7344,524.2969 Q403.6563,524.75 402.3594,524.75 Q400.8438,524.75 399.6406,524.125 Q398.6563,523.625 397.9688,522.5625 Q397.2813,521.4844 397.2813,520.2031 L397.2813,519.0469 Q397.2813,517.7188 397.8906,516.5781 Q398.5156,515.4219 399.6094,514.8125 Q400.7031,514.1875 401.9375,514.1875 Q402.6719,514.1875 403.3125,514.3594 Q403.9688,514.5156 404.5156,514.875 Z " fill="#000000"/><text fill="#000000" font-family="sans-serif" font-size="14" lengthAdjust="spacing" textLength="79" x="422.25" y="524.7969">Repositories</text><line style="stroke:#181818;stroke-width:0.5;" x1="346.5" x2="544.5" y1="535" y2="535"/><text fill="#000000" font-family="sans-serif" font-size="14" lengthAdjust="spacing" textLength="154" x="351.5" y="554.1074">-agendaEntryRepository</text><text fill="#000000" font-family="sans-serif" font-size="14" lengthAdjust="spacing" textLength="104" x="351.5" y="572.7285">-teamRepository</text><line style="stroke:#181818;stroke-width:0.5;" x1="346.5" x2="544.5" y1="580.2422" y2="580.2422"/><text fill="#000000" font-family="sans-serif" font-size="14" lengthAdjust="spacing" textLength="94" x="351.5" y="599.3496">-Repositories()</text><text fill="#000000" font-family="sans-serif" font-size="14" lengthAdjust="spacing" textLength="91" x="351.5" y="617.9707">+getInstance()</text><text fill="#000000" font-family="sans-serif" font-size="14" lengthAdjust="spacing" textLength="188" x="351.5" y="636.5918">+getAgendaEntryRepository()</text><text fill="#000000" font-family="sans-serif" font-size="14" lengthAdjust="spacing" textLength="152" x="351.5" y="655.2129">+getVehicleRepository()</text></g><!--class AgendaEntryMapper--><g id="elem_AgendaEntryMapper"><rect codeLine="62" fill="#F1F1F1" height="66.6211" id="AgendaEntryMapper" rx="2.5" ry="2.5" style="stroke:#181818;stroke-width:0.5;" width="189" x="641" y="320"/><ellipse cx="668.15" cy="336" fill="#ADD1B2" rx="11" ry="11" style="stroke:#181818;stroke-width:1.0;"/><path d="M670.9156,331.875 Q671.0719,331.6563 671.2594,331.5469 Q671.4469,331.4375 671.6656,331.4375 Q672.0406,331.4375 672.275,331.7031 Q672.5094,331.9531 672.5094,332.5625 L672.5094,334.0156 Q672.5094,334.625 672.275,334.8906 Q672.0406,335.1563 671.6656,335.1563 Q671.3219,335.1563 671.1188,334.9531 Q670.9156,334.7656 670.8063,334.25 Q670.7594,333.8906 670.5719,333.7031 Q670.2438,333.3281 669.6344,333.1094 Q669.025,332.8906 668.4,332.8906 Q667.6344,332.8906 666.9938,333.2188 Q666.3688,333.5469 665.8688,334.2969 Q665.3844,335.0469 665.3844,336.0781 L665.3844,337.1719 Q665.3844,338.4063 666.275,339.2344 Q667.1656,340.0469 668.7594,340.0469 Q669.6969,340.0469 670.3531,339.7969 Q670.7438,339.6406 671.1656,339.2031 Q671.4313,338.9375 671.5719,338.8594 Q671.7281,338.7813 671.9313,338.7813 Q672.2594,338.7813 672.5094,339.0469 Q672.775,339.2969 672.775,339.6406 Q672.775,339.9844 672.4313,340.3906 Q671.9313,340.9688 671.1344,341.2969 Q670.0563,341.75 668.7594,341.75 Q667.2438,341.75 666.0406,341.125 Q665.0563,340.625 664.3688,339.5625 Q663.6813,338.4844 663.6813,337.2031 L663.6813,336.0469 Q663.6813,334.7188 664.2906,333.5781 Q664.9156,332.4219 666.0094,331.8125 Q667.1031,331.1875 668.3375,331.1875 Q669.0719,331.1875 669.7125,331.3594 Q670.3688,331.5156 670.9156,331.875 Z " fill="#000000"/><text fill="#000000" font-family="sans-serif" font-size="14" lengthAdjust="spacing" textLength="130" x="684.85" y="341.7969">AgendaEntryMapper</text><line style="stroke:#181818;stroke-width:0.5;" x1="642" x2="829" y1="352" y2="352"/><line style="stroke:#181818;stroke-width:0.5;" x1="642" x2="829" y1="360" y2="360"/><text fill="#000000" font-family="sans-serif" font-size="14" lengthAdjust="spacing" textLength="177" x="647" y="379.1074">+toDtoList(agendaEntryList)</text></g><!--class AssignVehiclesController--><g id="elem_AssignVehiclesController"><rect codeLine="68" fill="#F1F1F1" height="141.1055" id="AssignVehiclesController" rx="2.5" ry="2.5" style="stroke:#181818;stroke-width:0.5;" width="320" x="285.5" y="283"/><ellipse cx="362.75" cy="299" fill="#ADD1B2" rx="11" ry="11" style="stroke:#181818;stroke-width:1.0;"/><path d="M365.5156,294.875 Q365.6719,294.6563 365.8594,294.5469 Q366.0469,294.4375 366.2656,294.4375 Q366.6406,294.4375 366.875,294.7031 Q367.1094,294.9531 367.1094,295.5625 L367.1094,297.0156 Q367.1094,297.625 366.875,297.8906 Q366.6406,298.1563 366.2656,298.1563 Q365.9219,298.1563 365.7188,297.9531 Q365.5156,297.7656 365.4063,297.25 Q365.3594,296.8906 365.1719,296.7031 Q364.8438,296.3281 364.2344,296.1094 Q363.625,295.8906 363,295.8906 Q362.2344,295.8906 361.5938,296.2188 Q360.9688,296.5469 360.4688,297.2969 Q359.9844,298.0469 359.9844,299.0781 L359.9844,300.1719 Q359.9844,301.4063 360.875,302.2344 Q361.7656,303.0469 363.3594,303.0469 Q364.2969,303.0469 364.9531,302.7969 Q365.3438,302.6406 365.7656,302.2031 Q366.0313,301.9375 366.1719,301.8594 Q366.3281,301.7813 366.5313,301.7813 Q366.8594,301.7813 367.1094,302.0469 Q367.375,302.2969 367.375,302.6406 Q367.375,302.9844 367.0313,303.3906 Q366.5313,303.9688 365.7344,304.2969 Q364.6563,304.75 363.3594,304.75 Q361.8438,304.75 360.6406,304.125 Q359.6563,303.625 358.9688,302.5625 Q358.2813,301.4844 358.2813,300.2031 L358.2813,299.0469 Q358.2813,297.7188 358.8906,296.5781 Q359.5156,295.4219 360.6094,294.8125 Q361.7031,294.1875 362.9375,294.1875 Q363.6719,294.1875 364.3125,294.3594 Q364.9688,294.5156 365.5156,294.875 Z " fill="#000000"/><text fill="#000000" font-family="sans-serif" font-size="14" lengthAdjust="spacing" textLength="157" x="383.25" y="304.7969">AssignVehiclesController</text><line style="stroke:#181818;stroke-width:0.5;" x1="286.5" x2="604.5" y1="315" y2="315"/><text fill="#000000" font-family="sans-serif" font-size="14" lengthAdjust="spacing" textLength="308" x="291.5" y="334.1074">-AgendaEntryRepository agendaEntryRepository</text><text fill="#000000" font-family="sans-serif" font-size="14" lengthAdjust="spacing" textLength="268" x="291.5" y="352.7285">-AgendaEntryMapper agendaEntryMapper</text><line style="stroke:#181818;stroke-width:0.5;" x1="286.5" x2="604.5" y1="360.2422" y2="360.2422"/><text fill="#000000" font-family="sans-serif" font-size="14" lengthAdjust="spacing" textLength="172" x="291.5" y="379.3496">+getAgendaEntryListDTO()</text><text fill="#000000" font-family="sans-serif" font-size="14" lengthAdjust="spacing" textLength="143" x="291.5" y="397.9707">+getVehiclesListDTO()</text><text fill="#000000" font-family="sans-serif" font-size="14" lengthAdjust="spacing" textLength="277" x="291.5" y="416.5918">+assignVehciles(selectedEntry, vehicleList))</text></g><!--class AssignVehiclesUI--><g id="elem_AssignVehiclesUI"><rect codeLine="77" fill="#F1F1F1" height="48" id="AssignVehiclesUI" rx="2.5" ry="2.5" style="stroke:#181818;stroke-width:0.5;" width="139" x="111" y="329.5"/><ellipse cx="126" cy="345.5" fill="#ADD1B2" rx="11" ry="11" style="stroke:#181818;stroke-width:1.0;"/><path d="M128.7656,341.375 Q128.9219,341.1563 129.1094,341.0469 Q129.2969,340.9375 129.5156,340.9375 Q129.8906,340.9375 130.125,341.2031 Q130.3594,341.4531 130.3594,342.0625 L130.3594,343.5156 Q130.3594,344.125 130.125,344.3906 Q129.8906,344.6563 129.5156,344.6563 Q129.1719,344.6563 128.9688,344.4531 Q128.7656,344.2656 128.6563,343.75 Q128.6094,343.3906 128.4219,343.2031 Q128.0938,342.8281 127.4844,342.6094 Q126.875,342.3906 126.25,342.3906 Q125.4844,342.3906 124.8438,342.7188 Q124.2188,343.0469 123.7188,343.7969 Q123.2344,344.5469 123.2344,345.5781 L123.2344,346.6719 Q123.2344,347.9063 124.125,348.7344 Q125.0156,349.5469 126.6094,349.5469 Q127.5469,349.5469 128.2031,349.2969 Q128.5938,349.1406 129.0156,348.7031 Q129.2813,348.4375 129.4219,348.3594 Q129.5781,348.2813 129.7813,348.2813 Q130.1094,348.2813 130.3594,348.5469 Q130.625,348.7969 130.625,349.1406 Q130.625,349.4844 130.2813,349.8906 Q129.7813,350.4688 128.9844,350.7969 Q127.9063,351.25 126.6094,351.25 Q125.0938,351.25 123.8906,350.625 Q122.9063,350.125 122.2188,349.0625 Q121.5313,347.9844 121.5313,346.7031 L121.5313,345.5469 Q121.5313,344.2188 122.1406,343.0781 Q122.7656,341.9219 123.8594,341.3125 Q124.9531,340.6875 126.1875,340.6875 Q126.9219,340.6875 127.5625,340.8594 Q128.2188,341.0156 128.7656,341.375 Z " fill="#000000"/><text fill="#000000" font-family="sans-serif" font-size="14" lengthAdjust="spacing" textLength="107" x="140" y="351.2969">AssignVehiclesUI</text><line style="stroke:#181818;stroke-width:0.5;" x1="112" x2="249" y1="361.5" y2="361.5"/><line style="stroke:#181818;stroke-width:0.5;" x1="112" x2="249" y1="369.5" y2="369.5"/></g><!--class AgendaEntry--><g id="elem_AgendaEntry"><rect codeLine="81" fill="#F1F1F1" height="122.4844" id="AgendaEntry" rx="2.5" ry="2.5" style="stroke:#181818;stroke-width:0.5;" width="208" x="1116.5" y="522"/><ellipse cx="1175.25" cy="538" fill="#ADD1B2" rx="11" ry="11" style="stroke:#181818;stroke-width:1.0;"/><path d="M1178.0156,533.875 Q1178.1719,533.6563 1178.3594,533.5469 Q1178.5469,533.4375 1178.7656,533.4375 Q1179.1406,533.4375 1179.375,533.7031 Q1179.6094,533.9531 1179.6094,534.5625 L1179.6094,536.0156 Q1179.6094,536.625 1179.375,536.8906 Q1179.1406,537.1563 1178.7656,537.1563 Q1178.4219,537.1563 1178.2188,536.9531 Q1178.0156,536.7656 1177.9063,536.25 Q1177.8594,535.8906 1177.6719,535.7031 Q1177.3438,535.3281 1176.7344,535.1094 Q1176.125,534.8906 1175.5,534.8906 Q1174.7344,534.8906 1174.0938,535.2188 Q1173.4688,535.5469 1172.9688,536.2969 Q1172.4844,537.0469 1172.4844,538.0781 L1172.4844,539.1719 Q1172.4844,540.4063 1173.375,541.2344 Q1174.2656,542.0469 1175.8594,542.0469 Q1176.7969,542.0469 1177.4531,541.7969 Q1177.8438,541.6406 1178.2656,541.2031 Q1178.5313,540.9375 1178.6719,540.8594 Q1178.8281,540.7813 1179.0313,540.7813 Q1179.3594,540.7813 1179.6094,541.0469 Q1179.875,541.2969 1179.875,541.6406 Q1179.875,541.9844 1179.5313,542.3906 Q1179.0313,542.9688 1178.2344,543.2969 Q1177.1563,543.75 1175.8594,543.75 Q1174.3438,543.75 1173.1406,543.125 Q1172.1563,542.625 1171.4688,541.5625 Q1170.7813,540.4844 1170.7813,539.2031 L1170.7813,538.0469 Q1170.7813,536.7188 1171.3906,535.5781 Q1172.0156,534.4219 1173.1094,533.8125 Q1174.2031,533.1875 1175.4375,533.1875 Q1176.1719,533.1875 1176.8125,533.3594 Q1177.4688,533.5156 1178.0156,533.875 Z " fill="#000000"/><text fill="#000000" font-family="sans-serif" font-size="14" lengthAdjust="spacing" textLength="82" x="1195.75" y="543.7969">AgendaEntry</text><line style="stroke:#181818;stroke-width:0.5;" x1="1117.5" x2="1323.5" y1="554" y2="554"/><text fill="#000000" font-family="sans-serif" font-size="14" lengthAdjust="spacing" textLength="28" x="1122.5" y="573.1074">date</text><text fill="#000000" font-family="sans-serif" font-size="14" lengthAdjust="spacing" textLength="114" x="1122.5" y="591.7285">associatedVehicle</text><text fill="#000000" font-family="sans-serif" font-size="14" lengthAdjust="spacing" textLength="121" x="1122.5" y="610.3496">associatedVehicles</text><line style="stroke:#181818;stroke-width:0.5;" x1="1117.5" x2="1323.5" y1="617.8633" y2="617.8633"/><text fill="#000000" font-family="sans-serif" font-size="14" lengthAdjust="spacing" textLength="196" x="1122.5" y="636.9707">+setAssociatedVehicle(vehicle)</text></g><!--class VehicleRepository--><g id="elem_VehicleRepository"><rect codeLine="88" fill="#F1F1F1" height="85.2422" id="VehicleRepository" rx="2.5" ry="2.5" style="stroke:#181818;stroke-width:0.5;" width="185" x="1128" y="1074"/><ellipse cx="1160.55" cy="1090" fill="#ADD1B2" rx="11" ry="11" style="stroke:#181818;stroke-width:1.0;"/><path d="M1163.3156,1085.875 Q1163.4719,1085.6563 1163.6594,1085.5469 Q1163.8469,1085.4375 1164.0656,1085.4375 Q1164.4406,1085.4375 1164.675,1085.7031 Q1164.9094,1085.9531 1164.9094,1086.5625 L1164.9094,1088.0156 Q1164.9094,1088.625 1164.675,1088.8906 Q1164.4406,1089.1563 1164.0656,1089.1563 Q1163.7219,1089.1563 1163.5188,1088.9531 Q1163.3156,1088.7656 1163.2063,1088.25 Q1163.1594,1087.8906 1162.9719,1087.7031 Q1162.6438,1087.3281 1162.0344,1087.1094 Q1161.425,1086.8906 1160.8,1086.8906 Q1160.0344,1086.8906 1159.3938,1087.2188 Q1158.7688,1087.5469 1158.2688,1088.2969 Q1157.7844,1089.0469 1157.7844,1090.0781 L1157.7844,1091.1719 Q1157.7844,1092.4063 1158.675,1093.2344 Q1159.5656,1094.0469 1161.1594,1094.0469 Q1162.0969,1094.0469 1162.7531,1093.7969 Q1163.1438,1093.6406 1163.5656,1093.2031 Q1163.8313,1092.9375 1163.9719,1092.8594 Q1164.1281,1092.7813 1164.3313,1092.7813 Q1164.6594,1092.7813 1164.9094,1093.0469 Q1165.175,1093.2969 1165.175,1093.6406 Q1165.175,1093.9844 1164.8313,1094.3906 Q1164.3313,1094.9688 1163.5344,1095.2969 Q1162.4563,1095.75 1161.1594,1095.75 Q1159.6438,1095.75 1158.4406,1095.125 Q1157.4563,1094.625 1156.7688,1093.5625 Q1156.0813,1092.4844 1156.0813,1091.2031 L1156.0813,1090.0469 Q1156.0813,1088.7188 1156.6906,1087.5781 Q1157.3156,1086.4219 1158.4094,1085.8125 Q1159.5031,1085.1875 1160.7375,1085.1875 Q1161.4719,1085.1875 1162.1125,1085.3594 Q1162.7688,1085.5156 1163.3156,1085.875 Z " fill="#000000"/><text fill="#000000" font-family="sans-serif" font-size="14" lengthAdjust="spacing" textLength="114" x="1178.45" y="1095.7969">VehicleRepository</text><line style="stroke:#181818;stroke-width:0.5;" x1="1129" x2="1312" y1="1106" y2="1106"/><text fill="#000000" font-family="sans-serif" font-size="14" lengthAdjust="spacing" textLength="173" x="1134" y="1125.1074">ArrayList&lt;Vehicle&gt; vehicles</text><line style="stroke:#181818;stroke-width:0.5;" x1="1129" x2="1312" y1="1132.6211" y2="1132.6211"/><text fill="#000000" font-family="sans-serif" font-size="14" lengthAdjust="spacing" textLength="91" x="1134" y="1151.7285">+getVehicles()</text></g><!--class VehicleMapper--><g id="elem_VehicleMapper"><rect codeLine="94" fill="#F1F1F1" height="85.2422" id="VehicleMapper" rx="2.5" ry="2.5" style="stroke:#181818;stroke-width:0.5;" width="259" x="865" y="311"/><ellipse cx="943.25" cy="327" fill="#ADD1B2" rx="11" ry="11" style="stroke:#181818;stroke-width:1.0;"/><path d="M946.0156,322.875 Q946.1719,322.6563 946.3594,322.5469 Q946.5469,322.4375 946.7656,322.4375 Q947.1406,322.4375 947.375,322.7031 Q947.6094,322.9531 947.6094,323.5625 L947.6094,325.0156 Q947.6094,325.625 947.375,325.8906 Q947.1406,326.1563 946.7656,326.1563 Q946.4219,326.1563 946.2188,325.9531 Q946.0156,325.7656 945.9063,325.25 Q945.8594,324.8906 945.6719,324.7031 Q945.3438,324.3281 944.7344,324.1094 Q944.125,323.8906 943.5,323.8906 Q942.7344,323.8906 942.0938,324.2188 Q941.4688,324.5469 940.9688,325.2969 Q940.4844,326.0469 940.4844,327.0781 L940.4844,328.1719 Q940.4844,329.4063 941.375,330.2344 Q942.2656,331.0469 943.8594,331.0469 Q944.7969,331.0469 945.4531,330.7969 Q945.8438,330.6406 946.2656,330.2031 Q946.5313,329.9375 946.6719,329.8594 Q946.8281,329.7813 947.0313,329.7813 Q947.3594,329.7813 947.6094,330.0469 Q947.875,330.2969 947.875,330.6406 Q947.875,330.9844 947.5313,331.3906 Q947.0313,331.9688 946.2344,332.2969 Q945.1563,332.75 943.8594,332.75 Q942.3438,332.75 941.1406,332.125 Q940.1563,331.625 939.4688,330.5625 Q938.7813,329.4844 938.7813,328.2031 L938.7813,327.0469 Q938.7813,325.7188 939.3906,324.5781 Q940.0156,323.4219 941.1094,322.8125 Q942.2031,322.1875 943.4375,322.1875 Q944.1719,322.1875 944.8125,322.3594 Q945.4688,322.5156 946.0156,322.875 Z " fill="#000000"/><text fill="#000000" font-family="sans-serif" font-size="14" lengthAdjust="spacing" textLength="94" x="963.75" y="332.7969">VehicleMapper</text><line style="stroke:#181818;stroke-width:0.5;" x1="866" x2="1123" y1="343" y2="343"/><line style="stroke:#181818;stroke-width:0.5;" x1="866" x2="1123" y1="351" y2="351"/><text fill="#000000" font-family="sans-serif" font-size="14" lengthAdjust="spacing" textLength="247" x="871" y="370.1074">+toDtoList(ArrayList&lt;Vehicle&gt; vehicles)</text><text fill="#000000" font-family="sans-serif" font-size="14" lengthAdjust="spacing" textLength="140" x="871" y="388.7285">+toDtoList(vehicleList)</text></g><!--class VehicleDTO--><g id="elem_VehicleDTO"><rect codeLine="100" fill="#F1F1F1" height="66.6211" id="VehicleDTO" rx="2.5" ry="2.5" style="stroke:#181818;stroke-width:0.5;" width="185" x="902" y="72"/><ellipse cx="952.25" cy="88" fill="#ADD1B2" rx="11" ry="11" style="stroke:#181818;stroke-width:1.0;"/><path d="M955.0156,83.875 Q955.1719,83.6563 955.3594,83.5469 Q955.5469,83.4375 955.7656,83.4375 Q956.1406,83.4375 956.375,83.7031 Q956.6094,83.9531 956.6094,84.5625 L956.6094,86.0156 Q956.6094,86.625 956.375,86.8906 Q956.1406,87.1563 955.7656,87.1563 Q955.4219,87.1563 955.2188,86.9531 Q955.0156,86.7656 954.9063,86.25 Q954.8594,85.8906 954.6719,85.7031 Q954.3438,85.3281 953.7344,85.1094 Q953.125,84.8906 952.5,84.8906 Q951.7344,84.8906 951.0938,85.2188 Q950.4688,85.5469 949.9688,86.2969 Q949.4844,87.0469 949.4844,88.0781 L949.4844,89.1719 Q949.4844,90.4063 950.375,91.2344 Q951.2656,92.0469 952.8594,92.0469 Q953.7969,92.0469 954.4531,91.7969 Q954.8438,91.6406 955.2656,91.2031 Q955.5313,90.9375 955.6719,90.8594 Q955.8281,90.7813 956.0313,90.7813 Q956.3594,90.7813 956.6094,91.0469 Q956.875,91.2969 956.875,91.6406 Q956.875,91.9844 956.5313,92.3906 Q956.0313,92.9688 955.2344,93.2969 Q954.1563,93.75 952.8594,93.75 Q951.3438,93.75 950.1406,93.125 Q949.1563,92.625 948.4688,91.5625 Q947.7813,90.4844 947.7813,89.2031 L947.7813,88.0469 Q947.7813,86.7188 948.3906,85.5781 Q949.0156,84.4219 950.1094,83.8125 Q951.2031,83.1875 952.4375,83.1875 Q953.1719,83.1875 953.8125,83.3594 Q954.4688,83.5156 955.0156,83.875 Z " fill="#000000"/><text fill="#000000" font-family="sans-serif" font-size="14" lengthAdjust="spacing" textLength="76" x="972.75" y="93.7969">VehicleDTO</text><line style="stroke:#181818;stroke-width:0.5;" x1="903" x2="1086" y1="104" y2="104"/><text fill="#000000" font-family="sans-serif" font-size="14" lengthAdjust="spacing" textLength="173" x="908" y="123.1074">ArrayList&lt;Vehicle&gt; vehicles</text><line style="stroke:#181818;stroke-width:0.5;" x1="903" x2="1086" y1="130.6211" y2="130.6211"/></g><!--class ToDoEntry--><g id="elem_ToDoEntry"><rect codeLine="103" fill="#F1F1F1" height="122.4844" id="ToDoEntry" rx="2.5" ry="2.5" style="stroke:#181818;stroke-width:0.5;" width="123" x="1159" y="292.5"/><ellipse cx="1184.35" cy="308.5" fill="#ADD1B2" rx="11" ry="11" style="stroke:#181818;stroke-width:1.0;"/><path d="M1187.1156,304.375 Q1187.2719,304.1563 1187.4594,304.0469 Q1187.6469,303.9375 1187.8656,303.9375 Q1188.2406,303.9375 1188.475,304.2031 Q1188.7094,304.4531 1188.7094,305.0625 L1188.7094,306.5156 Q1188.7094,307.125 1188.475,307.3906 Q1188.2406,307.6563 1187.8656,307.6563 Q1187.5219,307.6563 1187.3188,307.4531 Q1187.1156,307.2656 1187.0063,306.75 Q1186.9594,306.3906 1186.7719,306.2031 Q1186.4438,305.8281 1185.8344,305.6094 Q1185.225,305.3906 1184.6,305.3906 Q1183.8344,305.3906 1183.1938,305.7188 Q1182.5688,306.0469 1182.0688,306.7969 Q1181.5844,307.5469 1181.5844,308.5781 L1181.5844,309.6719 Q1181.5844,310.9063 1182.475,311.7344 Q1183.3656,312.5469 1184.9594,312.5469 Q1185.8969,312.5469 1186.5531,312.2969 Q1186.9438,312.1406 1187.3656,311.7031 Q1187.6313,311.4375 1187.7719,311.3594 Q1187.9281,311.2813 1188.1313,311.2813 Q1188.4594,311.2813 1188.7094,311.5469 Q1188.975,311.7969 1188.975,312.1406 Q1188.975,312.4844 1188.6313,312.8906 Q1188.1313,313.4688 1187.3344,313.7969 Q1186.2563,314.25 1184.9594,314.25 Q1183.4438,314.25 1182.2406,313.625 Q1181.2563,313.125 1180.5688,312.0625 Q1179.8813,310.9844 1179.8813,309.7031 L1179.8813,308.5469 Q1179.8813,307.2188 1180.4906,306.0781 Q1181.1156,304.9219 1182.2094,304.3125 Q1183.3031,303.6875 1184.5375,303.6875 Q1185.2719,303.6875 1185.9125,303.8594 Q1186.5688,304.0156 1187.1156,304.375 Z " fill="#000000"/><text fill="#000000" font-family="sans-serif" font-size="14" lengthAdjust="spacing" textLength="68" x="1200.65" y="314.2969">ToDoEntry</text><line style="stroke:#181818;stroke-width:0.5;" x1="1160" x2="1281" y1="324.5" y2="324.5"/><text fill="#000000" font-family="sans-serif" font-size="14" lengthAdjust="spacing" textLength="77" x="1165" y="343.6074">greenSpace</text><text fill="#000000" font-family="sans-serif" font-size="14" lengthAdjust="spacing" textLength="111" x="1165" y="362.2285">expectedDuration</text><text fill="#000000" font-family="sans-serif" font-size="14" lengthAdjust="spacing" textLength="97" x="1165" y="380.8496">degreeUrgency</text><text fill="#000000" font-family="sans-serif" font-size="14" lengthAdjust="spacing" textLength="72" x="1165" y="399.4707">entryStatus</text><line style="stroke:#181818;stroke-width:0.5;" x1="1160" x2="1281" y1="406.9844" y2="406.9844"/></g><!--class GSM--><g id="elem_GSM"><rect fill="#F1F1F1" height="48" id="GSM" rx="2.5" ry="2.5" style="stroke:#181818;stroke-width:0.5;" width="63" x="149" y="81.5"/><ellipse cx="164" cy="97.5" fill="#ADD1B2" rx="11" ry="11" style="stroke:#181818;stroke-width:1.0;"/><path d="M166.7656,93.375 Q166.9219,93.1563 167.1094,93.0469 Q167.2969,92.9375 167.5156,92.9375 Q167.8906,92.9375 168.125,93.2031 Q168.3594,93.4531 168.3594,94.0625 L168.3594,95.5156 Q168.3594,96.125 168.125,96.3906 Q167.8906,96.6563 167.5156,96.6563 Q167.1719,96.6563 166.9688,96.4531 Q166.7656,96.2656 166.6563,95.75 Q166.6094,95.3906 166.4219,95.2031 Q166.0938,94.8281 165.4844,94.6094 Q164.875,94.3906 164.25,94.3906 Q163.4844,94.3906 162.8438,94.7188 Q162.2188,95.0469 161.7188,95.7969 Q161.2344,96.5469 161.2344,97.5781 L161.2344,98.6719 Q161.2344,99.9063 162.125,100.7344 Q163.0156,101.5469 164.6094,101.5469 Q165.5469,101.5469 166.2031,101.2969 Q166.5938,101.1406 167.0156,100.7031 Q167.2813,100.4375 167.4219,100.3594 Q167.5781,100.2813 167.7813,100.2813 Q168.1094,100.2813 168.3594,100.5469 Q168.625,100.7969 168.625,101.1406 Q168.625,101.4844 168.2813,101.8906 Q167.7813,102.4688 166.9844,102.7969 Q165.9063,103.25 164.6094,103.25 Q163.0938,103.25 161.8906,102.625 Q160.9063,102.125 160.2188,101.0625 Q159.5313,99.9844 159.5313,98.7031 L159.5313,97.5469 Q159.5313,96.2188 160.1406,95.0781 Q160.7656,93.9219 161.8594,93.3125 Q162.9531,92.6875 164.1875,92.6875 Q164.9219,92.6875 165.5625,92.8594 Q166.2188,93.0156 166.7656,93.375 Z " fill="#000000"/><text fill="#000000" font-family="sans-serif" font-size="14" lengthAdjust="spacing" textLength="31" x="178" y="103.2969">GSM</text><line style="stroke:#181818;stroke-width:0.5;" x1="150" x2="211" y1="113.5" y2="113.5"/><line style="stroke:#181818;stroke-width:0.5;" x1="150" x2="211" y1="121.5" y2="121.5"/></g><!--class Agenda--><g id="elem_Agenda"><rect fill="#F1F1F1" height="48" id="Agenda" rx="2.5" ry="2.5" style="stroke:#181818;stroke-width:0.5;" width="81" x="1317" y="329.5"/><ellipse cx="1332" cy="345.5" fill="#ADD1B2" rx="11" ry="11" style="stroke:#181818;stroke-width:1.0;"/><path d="M1334.7656,341.375 Q1334.9219,341.1563 1335.1094,341.0469 Q1335.2969,340.9375 1335.5156,340.9375 Q1335.8906,340.9375 1336.125,341.2031 Q1336.3594,341.4531 1336.3594,342.0625 L1336.3594,343.5156 Q1336.3594,344.125 1336.125,344.3906 Q1335.8906,344.6563 1335.5156,344.6563 Q1335.1719,344.6563 1334.9688,344.4531 Q1334.7656,344.2656 1334.6563,343.75 Q1334.6094,343.3906 1334.4219,343.2031 Q1334.0938,342.8281 1333.4844,342.6094 Q1332.875,342.3906 1332.25,342.3906 Q1331.4844,342.3906 1330.8438,342.7188 Q1330.2188,343.0469 1329.7188,343.7969 Q1329.2344,344.5469 1329.2344,345.5781 L1329.2344,346.6719 Q1329.2344,347.9063 1330.125,348.7344 Q1331.0156,349.5469 1332.6094,349.5469 Q1333.5469,349.5469 1334.2031,349.2969 Q1334.5938,349.1406 1335.0156,348.7031 Q1335.2813,348.4375 1335.4219,348.3594 Q1335.5781,348.2813 1335.7813,348.2813 Q1336.1094,348.2813 1336.3594,348.5469 Q1336.625,348.7969 1336.625,349.1406 Q1336.625,349.4844 1336.2813,349.8906 Q1335.7813,350.4688 1334.9844,350.7969 Q1333.9063,351.25 1332.6094,351.25 Q1331.0938,351.25 1329.8906,350.625 Q1328.9063,350.125 1328.2188,349.0625 Q1327.5313,347.9844 1327.5313,346.7031 L1327.5313,345.5469 Q1327.5313,344.2188 1328.1406,343.0781 Q1328.7656,341.9219 1329.8594,341.3125 Q1330.9531,340.6875 1332.1875,340.6875 Q1332.9219,340.6875 1333.5625,340.8594 Q1334.2188,341.0156 1334.7656,341.375 Z " fill="#000000"/><text fill="#000000" font-family="sans-serif" font-size="14" lengthAdjust="spacing" textLength="49" x="1346" y="351.2969">Agenda</text><line style="stroke:#181818;stroke-width:0.5;" x1="1318" x2="1397" y1="361.5" y2="361.5"/><line style="stroke:#181818;stroke-width:0.5;" x1="1318" x2="1397" y1="369.5" y2="369.5"/></g><!--link AssignVehiclesUI to AssignVehiclesController--><g id="link_AssignVehiclesUI_AssignVehiclesController"><path codeLine="114" d="M250.1,353.5 C261.05,353.5 268.83,353.5 268.83,353.5 C268.83,353.5 269.63,353.5 279.45,353.5 " fill="none" id="AssignVehiclesUI-to-AssignVehiclesController" style="stroke:#181818;stroke-width:1.0;stroke-dasharray:7.0,7.0;"/><polygon fill="#181818" points="285.45,353.5,276.45,349.5,280.45,353.5,276.45,357.5,285.45,353.5" style="stroke:#181818;stroke-width:1.0;"/></g><!--link AssignVehiclesController to Repositories--><g id="link_AssignVehiclesController_Repositories"><path codeLine="115" d="M445.5,424.3 C445.5,449.12 445.5,471.23 445.5,496.78 " fill="none" id="AssignVehiclesController-to-Repositories" style="stroke:#181818;stroke-width:1.0;stroke-dasharray:7.0,7.0;"/><polygon fill="#181818" points="445.5,502.78,449.5,493.78,445.5,497.78,441.5,493.78,445.5,502.78" style="stroke:#181818;stroke-width:1.0;"/><text fill="#000000" font-family="sans-serif" font-size="13" lengthAdjust="spacing" textLength="67" x="446.5" y="469.0283">repositories</text></g><!--link Repositories to AgendaEntryRepository--><g id="link_Repositories_AgendaEntryRepository"><path codeLine="116" d="M515.19,663.35 C558.21,712.33 608.1702,769.2122 645.6002,811.8222 " fill="none" id="Repositories-to-AgendaEntryRepository" style="stroke:#181818;stroke-width:1.0;"/><polygon fill="#181818" points="649.56,816.33,646.6255,806.9285,646.2602,812.5735,640.6151,812.2082,649.56,816.33" style="stroke:#181818;stroke-width:1.0;"/><text fill="#000000" font-family="sans-serif" font-size="13" lengthAdjust="spacing" textLength="7" x="636.0509" y="805.2345">1</text></g><!--link Repositories to Repositories--><g id="link_Repositories_Repositories"><path codeLine="117" d="M545.59,561.72 C565.93,564.04 580.5,571.13 580.5,583 C580.5,594.87 571.8913,601.28 551.5513,603.6 " fill="none" id="Repositories-to-Repositories" style="stroke:#181818;stroke-width:1.0;"/><polygon fill="#181818" points="545.59,604.28,554.9853,607.2343,550.5578,603.7134,554.0787,599.2858,545.59,604.28" style="stroke:#181818;stroke-width:1.0;"/><text fill="#000000" font-family="sans-serif" font-size="13" lengthAdjust="spacing" textLength="49" x="586.5" y="588.5283">instance</text></g><!--link AssignVehiclesController to AgendaEntryMapper--><g id="link_AssignVehiclesController_AgendaEntryMapper"><path codeLine="118" d="M605.57,353.5 C623.79,353.5 638.83,353.5 638.83,353.5 C638.83,353.5 633.55,353.5 634.85,353.5 " fill="none" id="AssignVehiclesController-to-AgendaEntryMapper" style="stroke:#181818;stroke-width:1.0;stroke-dasharray:7.0,7.0;"/><polygon fill="#181818" points="640.85,353.5,631.85,349.5,635.85,353.5,631.85,357.5,640.85,353.5" style="stroke:#181818;stroke-width:1.0;"/></g><!--link AssignVehiclesController to VehicleMapper--><g id="link_AssignVehiclesController_VehicleMapper"><path codeLine="119" d="M570.97,282.9 C609.04,261.48 641,243.5 641,243.5 C641,243.5 830,243.5 830,243.5 C830,243.5 879.6222,276.6851 925.9122,307.6351 " fill="none" id="AssignVehiclesController-to-VehicleMapper" style="stroke:#181818;stroke-width:1.0;stroke-dasharray:7.0,7.0;"/><polygon fill="#181818" points="930.9,310.97,925.6415,302.6424,926.7435,308.1909,921.195,309.2928,930.9,310.97" style="stroke:#181818;stroke-width:1.0;"/></g><!--link AssignVehiclesController to AgendaEntryRepository--><g id="link_AssignVehiclesController_AgendaEntryRepository"><path codeLine="120" d="M537.47,424.18 C588.4,462.77 641.5,503 641.5,503 C641.5,503 671.627,710.1824 686.207,810.4924 " fill="none" id="AssignVehiclesController-to-AgendaEntryRepository" style="stroke:#181818;stroke-width:1.0;"/><polygon fill="#181818" points="687.07,816.43,689.7339,806.9482,686.3508,811.482,681.8171,808.0989,687.07,816.43" style="stroke:#181818;stroke-width:1.0;"/><text fill="#000000" font-family="sans-serif" font-size="13" lengthAdjust="spacing" textLength="28" x="665.5" y="588.5283">uses</text></g><!--reverse link SystemUser to GSM--><g id="link_SystemUser_GSM"><path codeLine="122" d="M132.04,105.5 C143.65,105.5 140.5,105.5 140.5,105.5 C140.5,105.5 144.03,105.5 148.98,105.5 " fill="none" id="SystemUser-backto-GSM" style="stroke:#181818;stroke-width:1.0;"/><polygon fill="none" points="114.04,105.5,132.04,111.5,132.04,99.5,114.04,105.5" style="stroke:#181818;stroke-width:1.0;"/></g><!--reverse link ToDoEntry to AgendaEntry--><g id="link_ToDoEntry_AgendaEntry"><path codeLine="123" d="M1220.5,432.57 C1220.5,465.74 1220.5,488.82 1220.5,521.99 " fill="none" id="ToDoEntry-backto-AgendaEntry" style="stroke:#181818;stroke-width:1.0;"/><polygon fill="none" points="1220.5,414.57,1214.5,432.57,1226.5,432.57,1220.5,414.57" style="stroke:#181818;stroke-width:1.0;"/></g><!--link GSM to AssignVehiclesUI--><g id="link_GSM_AssignVehiclesUI"><path codeLine="125" d="M180.5,129.64 C180.5,176.53 180.5,282.26 180.5,329.24 " fill="none" id="GSM-AssignVehiclesUI" style="stroke:#181818;stroke-width:1.0;"/><text fill="#000000" font-family="sans-serif" font-size="13" lengthAdjust="spacing" textLength="7" x="172.6469" y="151.6598">1</text><text fill="#000000" font-family="sans-serif" font-size="13" lengthAdjust="spacing" textLength="7" x="172.6469" y="318.3185">1</text></g><!--reverse link AgendaEntry to AgendaEntryRepository--><g id="link_AgendaEntry_AgendaEntryRepository"><path codeLine="126" d="M1110.9881,643.0264 C1015.7381,694.3564 881.39,766.77 789.25,816.43 " fill="none" id="AgendaEntry-backto-AgendaEntryRepository" style="stroke:#181818;stroke-width:1.0;"/><polygon fill="#181818" points="1116.27,640.18,1106.4496,640.9283,1111.8684,642.552,1110.2448,647.9708,1116.27,640.18" style="stroke:#181818;stroke-width:1.0;"/><text fill="#000000" font-family="sans-serif" font-size="13" lengthAdjust="spacing" textLength="36" x="1005.5" y="708.0283">stores</text><text fill="#000000" font-family="sans-serif" font-size="13" lengthAdjust="spacing" textLength="5" x="1103.432" y="640.7762">*</text><text fill="#000000" font-family="sans-serif" font-size="13" lengthAdjust="spacing" textLength="7" x="794.5117" y="805.348">1</text></g><!--link AgendaEntry to Vehicle--><g id="link_AgendaEntry_Vehicle"><path codeLine="127" d="M1220.5,644.12 C1220.5,672.65 1220.5,701.86 1220.5,735.83 " fill="none" id="AgendaEntry-to-Vehicle" style="stroke:#181818;stroke-width:1.0;"/><polygon fill="#181818" points="1220.5,741.83,1224.5,732.83,1220.5,736.83,1216.5,732.83,1220.5,741.83" style="stroke:#181818;stroke-width:1.0;"/><text fill="#000000" font-family="sans-serif" font-size="13" lengthAdjust="spacing" textLength="67" x="1221.5" y="708.0283">assigned to</text><text fill="#000000" font-family="sans-serif" font-size="13" lengthAdjust="spacing" textLength="7" x="1213.0734" y="666.6215">1</text><text fill="#000000" font-family="sans-serif" font-size="13" lengthAdjust="spacing" textLength="7" x="1213.2867" y="730.6354">1</text></g><!--reverse link Vehicle to VehicleRepository--><g id="link_Vehicle_VehicleRepository"><path codeLine="128" d="M1220.5,1001.02 C1220.5,1029.57 1220.5,1051.94 1220.5,1073.97 " fill="none" id="Vehicle-backto-VehicleRepository" style="stroke:#181818;stroke-width:1.0;"/><polygon fill="#181818" points="1220.5,995.02,1216.5,1004.02,1220.5,1000.02,1224.5,1004.02,1220.5,995.02" style="stroke:#181818;stroke-width:1.0;"/><text fill="#000000" font-family="sans-serif" font-size="13" lengthAdjust="spacing" textLength="36" x="1221.5" y="1040.0283">stores</text><text fill="#000000" font-family="sans-serif" font-size="13" lengthAdjust="spacing" textLength="5" x="1215.3555" y="1016.8674">*</text><text fill="#000000" font-family="sans-serif" font-size="13" lengthAdjust="spacing" textLength="7" x="1212.9422" y="1062.8693">1</text></g><!--reverse link AgendaEntryDTO to AgendaEntryMapper--><g id="link_AgendaEntryDTO_AgendaEntryMapper"><path codeLine="129" d="M735.5,210.08 C735.5,251.26 735.5,290.42 735.5,319.98 " fill="none" id="AgendaEntryDTO-backto-AgendaEntryMapper" style="stroke:#181818;stroke-width:1.0;"/><polygon fill="#181818" points="735.5,204.08,731.5,213.08,735.5,209.08,739.5,213.08,735.5,204.08" style="stroke:#181818;stroke-width:1.0;"/><text fill="#000000" font-family="sans-serif" font-size="13" lengthAdjust="spacing" textLength="43" x="736.5" y="249.0283">creates</text><text fill="#000000" font-family="sans-serif" font-size="13" lengthAdjust="spacing" textLength="5" x="730.3164" y="225.9838">*</text><text fill="#000000" font-family="sans-serif" font-size="13" lengthAdjust="spacing" textLength="7" x="727.8109" y="308.8016">1</text></g><!--reverse link VehicleDTO to VehicleMapper--><g id="link_VehicleDTO_VehicleMapper"><path codeLine="130" d="M994.5,145.17 C994.5,189.34 994.5,262.16 994.5,310.64 " fill="none" id="VehicleDTO-backto-VehicleMapper" style="stroke:#181818;stroke-width:1.0;"/><polygon fill="#181818" points="994.5,139.17,990.5,148.17,994.5,144.17,998.5,148.17,994.5,139.17" style="stroke:#181818;stroke-width:1.0;"/><text fill="#000000" font-family="sans-serif" font-size="13" lengthAdjust="spacing" textLength="43" x="995.5" y="249.0283">creates</text><text fill="#000000" font-family="sans-serif" font-size="13" lengthAdjust="spacing" textLength="5" x="989.0547" y="160.7695">*</text><text fill="#000000" font-family="sans-serif" font-size="13" lengthAdjust="spacing" textLength="7" x="986.9641" y="299.8076">1</text></g><!--link Agenda to AgendaEntry--><g id="link_Agenda_AgendaEntry"><path codeLine="131" d="M1343.61,377.57 C1323.41,411.12 1285.22,474.53 1256.71,521.88 " fill="none" id="Agenda-AgendaEntry" style="stroke:#181818;stroke-width:1.0;"/><polygon fill="#000000" points="1298.9207,467.9289,1306.1044,461.6963,1301.069,458.6641,1298.9207,467.9289" style="stroke:#000000;stroke-width:1.0;"/><text fill="#000000" font-family="sans-serif" font-size="13" lengthAdjust="spacing" textLength="21" x="1310.5" y="469.0283">has</text><text fill="#000000" font-family="sans-serif" font-size="13" lengthAdjust="spacing" textLength="7" x="1332.3712" y="399.5727">1</text><text fill="#000000" font-family="sans-serif" font-size="13" lengthAdjust="spacing" textLength="5" x="1255.6077" y="510.8473">*</text></g><!--SRC=[VLLRRvim57xdLrXvMT8sqVOQLP6gqatHLarQclRPDMTW5J2rpJgszR_l61jZ0eINv5ny_7tdPlN2oufAMX2MKwLkj9RykTQmPw8yy3z0FaOVbFSfH2bO9aK1HCiQejvIKVP2KpZe9WSYWMbQfddee3AQY3TUfkGdpLLeoNa9kgc0L29lZ13Uw8r2QX4ScaMBNsiZDocK2RqhjMpYX-_aRnGH_1AgeVsJIe3oWB2jc81YabUQYxALuNU59229QqczifOOapKncCFMpOG_QAfhrSfuiM0SxqWUW1OdgaV8ECj1HT5x1zAf41rntxEaPUAbGYIGU-cNzTx7NcDIqmjKza8gXL9FmDDCUnshfKJ4NmklaP1ofK76NLfQnEorveeRsWCzou2zrDLd2Q-roSFGSAo-OIYaPfaT6enR71L8HwwaXSjPGRdbLA7Zcv2MRfK9BFtxLFr-G2KGZv2DYxKcDrBInbnu7VZj2FK21rkHonHquFB4TIPg7UDTvlIIrZh3b73MLlbMe8_8Sv0RF7PhqsKut1dCovMDYEXuMdRLN1Qqga3QEpPQu3LSDyiUIREw8jR77V5EBG9NL6M4LTyPdZCIyQpfL4wiJME_1Jft88pImIT8RLygd506eMuouQ63Wpymze23u_SjMuVwacWHQs6ptVjOkc6z1rdjAz6NVB8XpgHa0X8zrKHJJMAmuSxekFVKrT22t7mlC6vwGK7Uheqsp5Kti2tNeBP3giUzMKvJUNJK_SuQhPAv1TDYKyZfrDHrssgqWlhasKlx0NCEkuwD6cLbq0TEwNlWiY__cPYhq2zCspYotURdy7Kxw474earalrvFzpwPNVR4FWl6_sZtVd0WMFkcW_4RrNIpc-leQBRLDvlTSF2tkA5xCHhOrkiTMNnQJC_5YUieB7SBu0oMtNX-pdeF2Z_lQM1FZ_AMrCgyZi7JSVrlJRuSxYDVIQCP37OKeRtD0-hRT9mK8We7Qd6n8DUTumm8XRy88p3Rw3RRBl3MJJuakDwYxXaFmu_cQZAqQUOPK6w2jeH9m15MKT3_4nUDt6qedvgBGN3qowWYEzEw_m40]--></g></svg>