<?xml version="1.0" encoding="us-ascii" standalone="no"?><svg xmlns="http://www.w3.org/2000/svg" xmlns:xlink="http://www.w3.org/1999/xlink" contentStyleType="text/css" height="693px" preserveAspectRatio="none" style="width:715px;height:693px;background:#FFFFFF;" version="1.1" viewBox="0 0 715 693" width="715.8px" zoomAndPan="magnify"><defs/><g><rect fill="#FFFFFF" height="576.2109" style="stroke:#181818;stroke-width:0.6;" width="6" x="45" y="56.1727"/><rect fill="#FFFFFF" height="355.7156" style="stroke:#181818;stroke-width:0.6;" width="6" x="228.6" y="70.1473"/><rect fill="#FFFFFF" height="187.7461" style="stroke:#181818;stroke-width:0.6;" width="6" x="228.6" y="444.6375"/><rect fill="#FFFFFF" height="281.6191" style="stroke:#181818;stroke-width:0.6;" width="6" x="367.8" y="115.0945"/><rect fill="#FFFFFF" height="131.4223" style="stroke:#181818;stroke-width:0.6;" width="6" x="367.8" y="482.1867"/><rect fill="#FFFFFF" height="18.7746" style="stroke:#181818;stroke-width:0.6;" width="6" x="455.4" y="133.8691"/><rect fill="#FFFFFF" height="18.7746" style="stroke:#181818;stroke-width:0.6;" width="6" x="455.4" y="284.066"/><rect fill="#FFFFFF" height="18.7746" style="stroke:#181818;stroke-width:0.6;" width="6" x="455.4" y="500.9613"/><rect fill="#FFFFFF" height="18.7746" style="stroke:#181818;stroke-width:0.6;" width="6" x="519.6" y="171.4184"/><rect fill="#FFFFFF" height="18.7746" style="stroke:#181818;stroke-width:0.6;" width="6" x="519.6" y="321.6152"/><rect fill="#FFFFFF" height="18.7746" style="stroke:#181818;stroke-width:0.6;" width="6" x="519.6" y="538.5105"/><rect fill="#FFFFFF" height="18.7746" style="stroke:#181818;stroke-width:0.6;" width="6" x="593.7" y="359.1645"/><rect fill="#FFFFFF" height="18.7746" style="stroke:#181818;stroke-width:0.6;" width="6" x="674.1" y="208.9676"/><rect fill="#FFFFFF" height="18.7746" style="stroke:#181818;stroke-width:0.6;" width="6" x="674.1" y="576.0598"/><line style="stroke:#181818;stroke-width:0.3;stroke-dasharray:5.0,5.0;" x1="48" x2="48" y1="50.1727" y2="643.1836"/><line style="stroke:#181818;stroke-width:0.3;stroke-dasharray:5.0,5.0;" x1="231.3" x2="231.3" y1="50.1727" y2="643.1836"/><line style="stroke:#181818;stroke-width:0.3;stroke-dasharray:5.0,5.0;" x1="370.5" x2="370.5" y1="94.0336" y2="643.1836"/><line style="stroke:#181818;stroke-width:0.3;stroke-dasharray:5.0,5.0;" x1="458.1" x2="458.1" y1="50.1727" y2="643.1836"/><line style="stroke:#181818;stroke-width:0.3;stroke-dasharray:5.0,5.0;" x1="522.3" x2="522.3" y1="50.1727" y2="643.1836"/><line style="stroke:#181818;stroke-width:0.3;stroke-dasharray:5.0,5.0;" x1="596.7" x2="596.7" y1="50.1727" y2="643.1836"/><line style="stroke:#181818;stroke-width:0.3;stroke-dasharray:5.0,5.0;" x1="677.1" x2="677.1" y1="50.1727" y2="643.1836"/><text fill="#000000" font-family="sans-serif" font-size="8.4" lengthAdjust="spacing" textLength="86.4" x="3" y="48.0645">Green Space Manager</text><ellipse cx="48" cy="8.1" fill="#E3E3E3" rx="4.8" ry="4.8" style="stroke:#181818;stroke-width:0.3;"/><path d="M48,12.9 L48,29.1 M40.2,17.7 L55.8,17.7 M48,29.1 L40.2,38.1 M48,29.1 L55.8,38.1 " fill="none" style="stroke:#181818;stroke-width:0.3;"/><text fill="#000000" font-family="sans-serif" font-size="8.4" lengthAdjust="spacing" textLength="86.4" x="3" y="651.648">Green Space Manager</text><ellipse cx="48" cy="658.8562" fill="#E3E3E3" rx="4.8" ry="4.8" style="stroke:#181818;stroke-width:0.3;"/><path d="M48,663.6563 L48,679.8562 M40.2,668.4563 L55.8,668.4563 M48,679.8562 L40.2,688.8562 M48,679.8562 L55.8,688.8562 " fill="none" style="stroke:#181818;stroke-width:0.3;"/><rect fill="#E3E3E3" height="19.5727" rx="1.5" ry="1.5" style="stroke:#181818;stroke-width:0.3;" width="75" x="194.1" y="30"/><text fill="#000000" font-family="sans-serif" font-size="8.4" lengthAdjust="spacing" textLength="66.6" x="198.3" y="43.2645">:AssignVehiclesUI</text><rect fill="#E3E3E3" height="19.5727" rx="1.5" ry="1.5" style="stroke:#181818;stroke-width:0.3;" width="75" x="194.1" y="642.5836"/><text fill="#000000" font-family="sans-serif" font-size="8.4" lengthAdjust="spacing" textLength="66.6" x="198.3" y="655.848">:AssignVehiclesUI</text><rect fill="#E3E3E3" height="19.5727" rx="1.5" ry="1.5" style="stroke:#181818;stroke-width:0.3;" width="105" x="318.3" y="642.5836"/><text fill="#000000" font-family="sans-serif" font-size="8.4" lengthAdjust="spacing" textLength="96.6" x="322.5" y="655.848">:AssignVehiclesController</text><rect fill="#E3E3E3" height="19.5727" rx="1.5" ry="1.5" style="stroke:#181818;stroke-width:0.3;" width="58.2" x="429.3" y="30"/><text fill="#000000" font-family="sans-serif" font-size="8.4" lengthAdjust="spacing" textLength="49.8" x="433.5" y="43.2645">:Repositories</text><rect fill="#E3E3E3" height="19.5727" rx="1.5" ry="1.5" style="stroke:#181818;stroke-width:0.3;" width="58.2" x="429.3" y="642.5836"/><text fill="#000000" font-family="sans-serif" font-size="8.4" lengthAdjust="spacing" textLength="49.8" x="433.5" y="655.848">:Repositories</text><rect fill="#E3E3E3" height="30.7453" rx="1.5" ry="1.5" style="stroke:#181818;stroke-width:0.3;" width="58.2" x="493.5" y="18.8273"/><text fill="#000000" font-family="sans-serif" font-size="8.4" lengthAdjust="spacing" textLength="44.4" x="500.4" y="32.0918">repositories</text><text fill="#000000" font-family="sans-serif" font-size="8.4" lengthAdjust="spacing" textLength="49.8" x="497.7" y="43.2645">:Repositories</text><rect fill="#E3E3E3" height="30.7453" rx="1.5" ry="1.5" style="stroke:#181818;stroke-width:0.3;" width="58.2" x="493.5" y="642.5836"/><text fill="#000000" font-family="sans-serif" font-size="8.4" lengthAdjust="spacing" textLength="44.4" x="500.4" y="655.848">repositories</text><text fill="#000000" font-family="sans-serif" font-size="8.4" lengthAdjust="spacing" textLength="49.8" x="497.7" y="667.0207">:Repositories</text><rect fill="#E3E3E3" height="30.7453" rx="1.5" ry="1.5" style="stroke:#181818;stroke-width:0.3;" width="78" x="557.7" y="18.8273"/><text fill="#000000" font-family="sans-serif" font-size="8.4" lengthAdjust="spacing" textLength="69.6" x="561.9" y="32.0918">vehicleRepository:</text><text fill="#000000" font-family="sans-serif" font-size="8.4" lengthAdjust="spacing" textLength="68.4" x="562.5" y="43.2645">VehicleRepository</text><rect fill="#E3E3E3" height="30.7453" rx="1.5" ry="1.5" style="stroke:#181818;stroke-width:0.3;" width="78" x="557.7" y="642.5836"/><text fill="#000000" font-family="sans-serif" font-size="8.4" lengthAdjust="spacing" textLength="69.6" x="561.9" y="655.848">vehicleRepository:</text><text fill="#000000" font-family="sans-serif" font-size="8.4" lengthAdjust="spacing" textLength="68.4" x="562.5" y="667.0207">VehicleRepository</text><rect fill="#E3E3E3" height="30.7453" rx="1.5" ry="1.5" style="stroke:#181818;stroke-width:0.3;" width="70.8" x="641.7" y="18.8273"/><text fill="#000000" font-family="sans-serif" font-size="8.4" lengthAdjust="spacing" textLength="62.4" x="645.9" y="32.0918">entryRepository:</text><text fill="#000000" font-family="sans-serif" font-size="8.4" lengthAdjust="spacing" textLength="60.6" x="646.8" y="43.2645">EntryRepository</text><rect fill="#E3E3E3" height="30.7453" rx="1.5" ry="1.5" style="stroke:#181818;stroke-width:0.3;" width="70.8" x="641.7" y="642.5836"/><text fill="#000000" font-family="sans-serif" font-size="8.4" lengthAdjust="spacing" textLength="62.4" x="645.9" y="655.848">entryRepository:</text><text fill="#000000" font-family="sans-serif" font-size="8.4" lengthAdjust="spacing" textLength="60.6" x="646.8" y="667.0207">EntryRepository</text><rect fill="#FFFFFF" height="576.2109" style="stroke:#181818;stroke-width:0.6;" width="6" x="45" y="56.1727"/><rect fill="#FFFFFF" height="355.7156" style="stroke:#181818;stroke-width:0.6;" width="6" x="228.6" y="70.1473"/><rect fill="#FFFFFF" height="187.7461" style="stroke:#181818;stroke-width:0.6;" width="6" x="228.6" y="444.6375"/><rect fill="#FFFFFF" height="281.6191" style="stroke:#181818;stroke-width:0.6;" width="6" x="367.8" y="115.0945"/><rect fill="#FFFFFF" height="131.4223" style="stroke:#181818;stroke-width:0.6;" width="6" x="367.8" y="482.1867"/><rect fill="#FFFFFF" height="18.7746" style="stroke:#181818;stroke-width:0.6;" width="6" x="455.4" y="133.8691"/><rect fill="#FFFFFF" height="18.7746" style="stroke:#181818;stroke-width:0.6;" width="6" x="455.4" y="284.066"/><rect fill="#FFFFFF" height="18.7746" style="stroke:#181818;stroke-width:0.6;" width="6" x="455.4" y="500.9613"/><rect fill="#FFFFFF" height="18.7746" style="stroke:#181818;stroke-width:0.6;" width="6" x="519.6" y="171.4184"/><rect fill="#FFFFFF" height="18.7746" style="stroke:#181818;stroke-width:0.6;" width="6" x="519.6" y="321.6152"/><rect fill="#FFFFFF" height="18.7746" style="stroke:#181818;stroke-width:0.6;" width="6" x="519.6" y="538.5105"/><rect fill="#FFFFFF" height="18.7746" style="stroke:#181818;stroke-width:0.6;" width="6" x="593.7" y="359.1645"/><rect fill="#FFFFFF" height="18.7746" style="stroke:#181818;stroke-width:0.6;" width="6" x="674.1" y="208.9676"/><rect fill="#FFFFFF" height="18.7746" style="stroke:#181818;stroke-width:0.6;" width="6" x="674.1" y="576.0598"/><polygon fill="#181818" points="221.4,67.7473,227.4,70.1473,221.4,72.5473,223.8,70.1473" style="stroke:#181818;stroke-width:0.6;"/><line style="stroke:#181818;stroke-width:0.6;" x1="51" x2="225" y1="70.1473" y2="70.1473"/><text fill="#000000" font-family="sans-serif" font-size="7.8" font-weight="bold" lengthAdjust="spacing" textLength="4.2" x="55.2" y="66.9896">1</text><text fill="#000000" font-family="sans-serif" font-size="7.8" lengthAdjust="spacing" textLength="159.6" x="61.8" y="66.9896">asks to add vehicles to an entry in the agenda</text><polygon fill="#181818" points="311.1,86.5219,317.1,88.9219,311.1,91.3219,313.5,88.9219" style="stroke:#181818;stroke-width:0.6;"/><line style="stroke:#181818;stroke-width:0.6;" x1="234.6" x2="314.7" y1="88.9219" y2="88.9219"/><text fill="#000000" font-family="sans-serif" font-size="7.8" font-weight="bold" lengthAdjust="spacing" textLength="4.2" x="238.8" y="85.7643">2</text><text fill="#000000" font-family="sans-serif" font-size="7.8" lengthAdjust="spacing" textLength="21.6" x="245.4" y="85.7643">create</text><rect fill="#E3E3E3" height="19.5727" rx="1.5" ry="1.5" style="stroke:#181818;stroke-width:0.3;" width="105" x="318.3" y="74.9473"/><text fill="#000000" font-family="sans-serif" font-size="8.4" lengthAdjust="spacing" textLength="96.6" x="322.5" y="88.2117">:AssignVehiclesController</text><polygon fill="#181818" points="360.6,112.6945,366.6,115.0945,360.6,117.4945,363,115.0945" style="stroke:#181818;stroke-width:0.6;"/><line style="stroke:#181818;stroke-width:0.6;" x1="234.6" x2="364.2" y1="115.0945" y2="115.0945"/><text fill="#000000" font-family="sans-serif" font-size="7.8" font-weight="bold" lengthAdjust="spacing" textLength="4.2" x="238.8" y="111.9369">3</text><text fill="#000000" font-family="sans-serif" font-size="7.8" lengthAdjust="spacing" textLength="40.2" x="245.4" y="111.9369">getEntries()</text><polygon fill="#181818" points="448.2,131.4691,454.2,133.8691,448.2,136.2691,450.6,133.8691" style="stroke:#181818;stroke-width:0.6;"/><line style="stroke:#181818;stroke-width:0.6;" x1="373.8" x2="451.8" y1="133.8691" y2="133.8691"/><text fill="#000000" font-family="sans-serif" font-size="7.8" font-weight="bold" lengthAdjust="spacing" textLength="4.2" x="378" y="130.7115">4</text><text fill="#000000" font-family="sans-serif" font-size="7.8" lengthAdjust="spacing" textLength="45" x="384.6" y="130.7115">getInstance()</text><polygon fill="#181818" points="380.4,150.2438,374.4,152.6437,380.4,155.0438,378,152.6437" style="stroke:#181818;stroke-width:0.6;"/><line style="stroke:#181818;stroke-width:0.6;stroke-dasharray:2.0,2.0;" x1="376.8" x2="457.8" y1="152.6437" y2="152.6437"/><text fill="#000000" font-family="sans-serif" font-size="7.8" font-weight="bold" lengthAdjust="spacing" textLength="4.2" x="384" y="149.4861">5</text><text fill="#000000" font-family="sans-serif" font-size="7.8" lengthAdjust="spacing" textLength="40.2" x="390.6" y="149.4861">repositories</text><polygon fill="#181818" points="512.4,169.0184,518.4,171.4184,512.4,173.8184,514.8,171.4184" style="stroke:#181818;stroke-width:0.6;"/><line style="stroke:#181818;stroke-width:0.6;" x1="373.8" x2="516" y1="171.4184" y2="171.4184"/><text fill="#000000" font-family="sans-serif" font-size="7.8" font-weight="bold" lengthAdjust="spacing" textLength="4.2" x="378" y="168.2607">6</text><text fill="#000000" font-family="sans-serif" font-size="7.8" lengthAdjust="spacing" textLength="71.4" x="384.6" y="168.2607">getEntryRepository()</text><polygon fill="#181818" points="380.4,187.793,374.4,190.193,380.4,192.593,378,190.193" style="stroke:#181818;stroke-width:0.6;"/><line style="stroke:#181818;stroke-width:0.6;stroke-dasharray:2.0,2.0;" x1="376.8" x2="522" y1="190.193" y2="190.193"/><text fill="#000000" font-family="sans-serif" font-size="7.8" font-weight="bold" lengthAdjust="spacing" textLength="4.2" x="384" y="187.0354">7</text><text fill="#000000" font-family="sans-serif" font-size="7.8" lengthAdjust="spacing" textLength="54.6" x="390.6" y="187.0354">entryRepository</text><polygon fill="#181818" points="666.9,206.5676,672.9,208.9676,666.9,211.3676,669.3,208.9676" style="stroke:#181818;stroke-width:0.6;"/><line style="stroke:#181818;stroke-width:0.6;" x1="373.8" x2="670.5" y1="208.9676" y2="208.9676"/><text fill="#000000" font-family="sans-serif" font-size="7.8" font-weight="bold" lengthAdjust="spacing" textLength="4.2" x="378" y="205.81">8</text><text fill="#000000" font-family="sans-serif" font-size="7.8" lengthAdjust="spacing" textLength="34.2" x="384.6" y="205.81">getEntry()</text><polygon fill="#181818" points="380.4,225.3422,374.4,227.7422,380.4,230.1422,378,227.7422" style="stroke:#181818;stroke-width:0.6;"/><line style="stroke:#181818;stroke-width:0.6;stroke-dasharray:2.0,2.0;" x1="376.8" x2="676.5" y1="227.7422" y2="227.7422"/><text fill="#000000" font-family="sans-serif" font-size="7.8" font-weight="bold" lengthAdjust="spacing" textLength="4.2" x="384" y="224.5846">9</text><text fill="#000000" font-family="sans-serif" font-size="7.8" lengthAdjust="spacing" textLength="36" x="390.6" y="224.5846">entriesList</text><polygon fill="#181818" points="241.2,244.1168,235.2,246.5168,241.2,248.9168,238.8,246.5168" style="stroke:#181818;stroke-width:0.6;"/><line style="stroke:#181818;stroke-width:0.6;stroke-dasharray:2.0,2.0;" x1="237.6" x2="367.2" y1="246.5168" y2="246.5168"/><text fill="#000000" font-family="sans-serif" font-size="7.8" font-weight="bold" lengthAdjust="spacing" textLength="8.4" x="244.8" y="243.3592">10</text><text fill="#000000" font-family="sans-serif" font-size="7.8" lengthAdjust="spacing" textLength="36" x="255.6" y="243.3592">entriesList</text><polygon fill="#181818" points="360.6,262.8914,366.6,265.2914,360.6,267.6914,363,265.2914" style="stroke:#181818;stroke-width:0.6;"/><line style="stroke:#181818;stroke-width:0.6;" x1="234.6" x2="364.2" y1="265.2914" y2="265.2914"/><text fill="#000000" font-family="sans-serif" font-size="7.8" font-weight="bold" lengthAdjust="spacing" textLength="8.4" x="238.8" y="262.1338">11</text><text fill="#000000" font-family="sans-serif" font-size="7.8" lengthAdjust="spacing" textLength="45.6" x="249.6" y="262.1338">getVehicles()</text><polygon fill="#181818" points="448.2,281.666,454.2,284.066,448.2,286.466,450.6,284.066" style="stroke:#181818;stroke-width:0.6;"/><line style="stroke:#181818;stroke-width:0.6;" x1="373.8" x2="451.8" y1="284.066" y2="284.066"/><text fill="#000000" font-family="sans-serif" font-size="7.8" font-weight="bold" lengthAdjust="spacing" textLength="8.4" x="378" y="280.9084">12</text><text fill="#000000" font-family="sans-serif" font-size="7.8" lengthAdjust="spacing" textLength="45" x="388.8" y="280.9084">getInstance()</text><polygon fill="#181818" points="380.4,300.4406,374.4,302.8406,380.4,305.2406,378,302.8406" style="stroke:#181818;stroke-width:0.6;"/><line style="stroke:#181818;stroke-width:0.6;" x1="376.8" x2="457.8" y1="302.8406" y2="302.8406"/><text fill="#000000" font-family="sans-serif" font-size="7.8" font-weight="bold" lengthAdjust="spacing" textLength="8.4" x="384" y="299.683">13</text><text fill="#000000" font-family="sans-serif" font-size="7.8" lengthAdjust="spacing" textLength="40.2" x="394.8" y="299.683">repositories</text><polygon fill="#181818" points="512.4,319.2152,518.4,321.6152,512.4,324.0152,514.8,321.6152" style="stroke:#181818;stroke-width:0.6;"/><line style="stroke:#181818;stroke-width:0.6;" x1="373.8" x2="516" y1="321.6152" y2="321.6152"/><text fill="#000000" font-family="sans-serif" font-size="7.8" font-weight="bold" lengthAdjust="spacing" textLength="8.4" x="378" y="318.4576">14</text><text fill="#000000" font-family="sans-serif" font-size="7.8" lengthAdjust="spacing" textLength="78.6" x="388.8" y="318.4576">getVehicleRepository()</text><polygon fill="#181818" points="380.4,337.9898,374.4,340.3898,380.4,342.7898,378,340.3898" style="stroke:#181818;stroke-width:0.6;"/><line style="stroke:#181818;stroke-width:0.6;stroke-dasharray:2.0,2.0;" x1="376.8" x2="522" y1="340.3898" y2="340.3898"/><text fill="#000000" font-family="sans-serif" font-size="7.8" font-weight="bold" lengthAdjust="spacing" textLength="8.4" x="384" y="337.2322">15</text><text fill="#000000" font-family="sans-serif" font-size="7.8" lengthAdjust="spacing" textLength="60.6" x="394.8" y="337.2322">vehicleRepository</text><polygon fill="#181818" points="586.5,356.7645,592.5,359.1645,586.5,361.5645,588.9,359.1645" style="stroke:#181818;stroke-width:0.6;"/><line style="stroke:#181818;stroke-width:0.6;" x1="373.8" x2="590.1" y1="359.1645" y2="359.1645"/><text fill="#000000" font-family="sans-serif" font-size="7.8" font-weight="bold" lengthAdjust="spacing" textLength="8.4" x="378" y="356.0068">16</text><text fill="#000000" font-family="sans-serif" font-size="7.8" lengthAdjust="spacing" textLength="45.6" x="388.8" y="356.0068">getVehicles()</text><polygon fill="#181818" points="380.4,375.5391,374.4,377.9391,380.4,380.3391,378,377.9391" style="stroke:#181818;stroke-width:0.6;"/><line style="stroke:#181818;stroke-width:0.6;stroke-dasharray:2.0,2.0;" x1="376.8" x2="596.1" y1="377.9391" y2="377.9391"/><text fill="#000000" font-family="sans-serif" font-size="7.8" font-weight="bold" lengthAdjust="spacing" textLength="8.4" x="384" y="374.7814">17</text><text fill="#000000" font-family="sans-serif" font-size="7.8" lengthAdjust="spacing" textLength="40.2" x="394.8" y="374.7814">vehiclesList</text><polygon fill="#181818" points="241.2,394.3137,235.2,396.7137,241.2,399.1137,238.8,396.7137" style="stroke:#181818;stroke-width:0.6;"/><line style="stroke:#181818;stroke-width:0.6;stroke-dasharray:2.0,2.0;" x1="237.6" x2="370.2" y1="396.7137" y2="396.7137"/><text fill="#000000" font-family="sans-serif" font-size="7.8" font-weight="bold" lengthAdjust="spacing" textLength="8.4" x="244.8" y="393.5561">18</text><text fill="#000000" font-family="sans-serif" font-size="7.8" lengthAdjust="spacing" textLength="40.2" x="255.6" y="393.5561">vehiclesList</text><polygon fill="#181818" points="57.6,423.4629,51.6,425.8629,57.6,428.2629,55.2,425.8629" style="stroke:#181818;stroke-width:0.6;"/><line style="stroke:#181818;stroke-width:0.6;stroke-dasharray:2.0,2.0;" x1="54" x2="231" y1="425.8629" y2="425.8629"/><text fill="#000000" font-family="sans-serif" font-size="7.8" font-weight="bold" lengthAdjust="spacing" textLength="8.4" x="61.2" y="417.518">19</text><text fill="#000000" font-family="sans-serif" font-size="7.8" lengthAdjust="spacing" textLength="148.2" x="72" y="412.3307">shows list of entries and the list of vehicles</text><text fill="#000000" font-family="sans-serif" font-size="7.8" lengthAdjust="spacing" textLength="90.6" x="72" y="422.7053">and asks to select a entry</text><polygon fill="#181818" points="221.4,442.2375,227.4,444.6375,221.4,447.0375,223.8,444.6375" style="stroke:#181818;stroke-width:0.6;"/><line style="stroke:#181818;stroke-width:0.6;" x1="51" x2="225" y1="444.6375" y2="444.6375"/><text fill="#000000" font-family="sans-serif" font-size="7.8" font-weight="bold" lengthAdjust="spacing" textLength="8.4" x="55.2" y="441.4799">20</text><text fill="#000000" font-family="sans-serif" font-size="7.8" lengthAdjust="spacing" textLength="60" x="66" y="441.4799">chooses an entry</text><polygon fill="#181818" points="221.4,461.0121,227.4,463.4121,221.4,465.8121,223.8,463.4121" style="stroke:#181818;stroke-width:0.6;"/><line style="stroke:#181818;stroke-width:0.6;" x1="51" x2="225" y1="463.4121" y2="463.4121"/><text fill="#000000" font-family="sans-serif" font-size="7.8" font-weight="bold" lengthAdjust="spacing" textLength="8.4" x="55.2" y="460.2545">21</text><text fill="#000000" font-family="sans-serif" font-size="7.8" lengthAdjust="spacing" textLength="113.4" x="66" y="460.2545">chooses vehicles from list to add</text><polygon fill="#181818" points="360.6,479.7867,366.6,482.1867,360.6,484.5867,363,482.1867" style="stroke:#181818;stroke-width:0.6;"/><line style="stroke:#181818;stroke-width:0.6;" x1="234.6" x2="364.2" y1="482.1867" y2="482.1867"/><text fill="#000000" font-family="sans-serif" font-size="7.8" font-weight="bold" lengthAdjust="spacing" textLength="8.4" x="238.8" y="479.0291">22</text><text fill="#000000" font-family="sans-serif" font-size="7.8" lengthAdjust="spacing" textLength="111" x="249.6" y="479.0291">assignVehicles(entries,vehicles)</text><polygon fill="#181818" points="448.2,498.5613,454.2,500.9613,448.2,503.3613,450.6,500.9613" style="stroke:#181818;stroke-width:0.6;"/><line style="stroke:#181818;stroke-width:0.6;" x1="373.8" x2="451.8" y1="500.9613" y2="500.9613"/><text fill="#000000" font-family="sans-serif" font-size="7.8" font-weight="bold" lengthAdjust="spacing" textLength="8.4" x="378" y="497.8037">23</text><text fill="#000000" font-family="sans-serif" font-size="7.8" lengthAdjust="spacing" textLength="45" x="388.8" y="497.8037">getInstance()</text><polygon fill="#181818" points="380.4,517.3359,374.4,519.7359,380.4,522.1359,378,519.7359" style="stroke:#181818;stroke-width:0.6;"/><line style="stroke:#181818;stroke-width:0.6;" x1="376.8" x2="457.8" y1="519.7359" y2="519.7359"/><text fill="#000000" font-family="sans-serif" font-size="7.8" font-weight="bold" lengthAdjust="spacing" textLength="8.4" x="384" y="516.5783">24</text><text fill="#000000" font-family="sans-serif" font-size="7.8" lengthAdjust="spacing" textLength="40.2" x="394.8" y="516.5783">repositories</text><polygon fill="#181818" points="512.4,536.1105,518.4,538.5105,512.4,540.9105,514.8,538.5105" style="stroke:#181818;stroke-width:0.6;"/><line style="stroke:#181818;stroke-width:0.6;" x1="373.8" x2="516" y1="538.5105" y2="538.5105"/><text fill="#000000" font-family="sans-serif" font-size="7.8" font-weight="bold" lengthAdjust="spacing" textLength="8.4" x="378" y="535.3529">25</text><text fill="#000000" font-family="sans-serif" font-size="7.8" lengthAdjust="spacing" textLength="118.8" x="388.8" y="535.3529">getEntryRepository(entry,vehicles)</text><polygon fill="#181818" points="380.4,554.8852,374.4,557.2852,380.4,559.6852,378,557.2852" style="stroke:#181818;stroke-width:0.6;"/><line style="stroke:#181818;stroke-width:0.6;stroke-dasharray:2.0,2.0;" x1="376.8" x2="522" y1="557.2852" y2="557.2852"/><text fill="#000000" font-family="sans-serif" font-size="7.8" font-weight="bold" lengthAdjust="spacing" textLength="8.4" x="384" y="554.1275">26</text><text fill="#000000" font-family="sans-serif" font-size="7.8" lengthAdjust="spacing" textLength="54.6" x="394.8" y="554.1275">entryRepository</text><polygon fill="#181818" points="666.9,573.6598,672.9,576.0598,666.9,578.4598,669.3,576.0598" style="stroke:#181818;stroke-width:0.6;"/><line style="stroke:#181818;stroke-width:0.6;" x1="373.8" x2="670.5" y1="576.0598" y2="576.0598"/><text fill="#000000" font-family="sans-serif" font-size="7.8" font-weight="bold" lengthAdjust="spacing" textLength="8.4" x="378" y="572.9021">27</text><text fill="#000000" font-family="sans-serif" font-size="7.8" lengthAdjust="spacing" textLength="57.6" x="388.8" y="572.9021">assignVehicles()</text><polygon fill="#181818" points="380.4,592.4344,374.4,594.8344,380.4,597.2344,378,594.8344" style="stroke:#181818;stroke-width:0.6;"/><line style="stroke:#181818;stroke-width:0.6;stroke-dasharray:2.0,2.0;" x1="376.8" x2="676.5" y1="594.8344" y2="594.8344"/><text fill="#000000" font-family="sans-serif" font-size="7.8" font-weight="bold" lengthAdjust="spacing" textLength="8.4" x="384" y="591.6768">28</text><text fill="#000000" font-family="sans-serif" font-size="7.8" lengthAdjust="spacing" textLength="102.6" x="394.8" y="591.6768">List of entry's current vehicles</text><polygon fill="#181818" points="241.2,611.209,235.2,613.609,241.2,616.009,238.8,613.609" style="stroke:#181818;stroke-width:0.6;"/><line style="stroke:#181818;stroke-width:0.6;stroke-dasharray:2.0,2.0;" x1="237.6" x2="370.2" y1="613.609" y2="613.609"/><text fill="#000000" font-family="sans-serif" font-size="7.8" font-weight="bold" lengthAdjust="spacing" textLength="8.4" x="244.8" y="610.4514">29</text><text fill="#000000" font-family="sans-serif" font-size="7.8" lengthAdjust="spacing" textLength="102.6" x="255.6" y="610.4514">List of entry's current vehicles</text><polygon fill="#181818" points="54.6,629.9836,48.6,632.3836,54.6,634.7836,52.2,632.3836" style="stroke:#181818;stroke-width:0.6;"/><line style="stroke:#181818;stroke-width:0.6;stroke-dasharray:2.0,2.0;" x1="51" x2="231" y1="632.3836" y2="632.3836"/><text fill="#000000" font-family="sans-serif" font-size="7.8" font-weight="bold" lengthAdjust="spacing" textLength="8.4" x="58.2" y="629.226">30</text><text fill="#000000" font-family="sans-serif" font-size="7.8" lengthAdjust="spacing" textLength="121.8" x="69" y="629.226">Show list of entry's current vehicles</text><!--SRC=[hLTDR-CW4BtxLunwwOUQFv13fQgxwaPAf5NJxYaNYYSnYWDP8Etct-yOWh_js6avDJ2yUGEFUQxP2hbdckrWfwJYYLOx1AiF69byPS_ubcrmQOyfWaPkcToa606D8iWaB5QVGcvWpLA3aLjc1wlaOVUEsl- -JaICi5RAlgj_Fe9RfU7gMIDAM58cX0MJb4rV0JFmwsNXmYY75LpicRHmDNqqHcpa7qm4Jz6ypLpes-niv9EILgiqFO4_lRxCM_Qyu5uPGRG46XUNJnoN8gkSQcfkqwLTAza4-Jr_V6tk-l3CYWpJLM1RpBdzowr8qsAk2OLKsx42zBCwus1gKU4En0Upw4xRpOH14p1veAE5AMtU6h0AM1p3YRR_BJqe20asGQ2xap6hukGPw9Ay4Cgh13-XB8y_5fH6uzy36ciWPfR1ZSOrQfGSxo56mxNOMw7aFL2sjT8xbi9ALbSiyaGAJYkLwVYWcV-BAsDlA_GS8wunOvYBeixmmItTtH577nhrX57G1crs0NJ_Dyri-O6uT8tbR3WOWcjHdqUVIKClaMCBV2L5ctnRTsIZBTlaL5HsEOMgMo5Y79ys59gzaEBSIY8zLw1xMfqLETYYXBO7q5D5DtQWNGCiLN2ETvrAPmcrm4aXClGAcmjZprKoA9ilAZpvCheVFM8FJPQgZhvNpBsI6ghXd6g_XaSBkAdUHl_khIdtXJxP4d33AQ8BP1l8rioaSO7TTDjig3RguCqYElHQudysJKMeVR0bqBPUU_AUpEYcz0sZFWsaX09g7THF1XSxOmlpkVcjPBOKVD5WIfz6mFn3wtpB5KR13biDboTA6PV_11b1bwV2MP2Sz9g-y7mftikZ7WzZbQ-dczE1t0UisyuYgqV-pSO6ezqEXe-lz8u15pxAYozmIYUK0HSqlXyDibSOvgzmiUd2E2Uk2NZmUNIQveY3gRCfdT6yr66ErmRuGTCthiqVQJJkk2ucMNNxxs3Lrd47RYjtuYKruaeV_WgVlkORlcbAqza_GVy1]--></g></svg>