<?xml version="1.0" encoding="us-ascii" standalone="no"?><svg xmlns="http://www.w3.org/2000/svg" xmlns:xlink="http://www.w3.org/1999/xlink" contentStyleType="text/css" height="800.4px" preserveAspectRatio="none" style="width:1570px;height:800px;background:#FFFFFF;" version="1.1" viewBox="0 0 1570 800" width="1570.8px" zoomAndPan="magnify"><defs/><g><rect fill="#FFFFFF" height="683.8605" style="stroke:#181818;stroke-width:0.6;" width="6" x="11.1" y="56.1727"/><rect fill="#FFFFFF" height="669.8859" style="stroke:#181818;stroke-width:0.6;" width="6" x="230.7" y="70.1473"/><rect fill="#FFFFFF" height="434.216" style="stroke:#181818;stroke-width:0.6;" width="6" x="517.5" y="88.9219"/><rect fill="#FFFFFF" height="131.4223" style="stroke:#181818;stroke-width:0.6;" width="6" x="517.5" y="589.8363"/><rect fill="#FFFFFF" height="18.7746" style="stroke:#181818;stroke-width:0.6;" width="6" x="603.9" y="126.4711"/><rect fill="#FFFFFF" height="18.7746" style="stroke:#181818;stroke-width:0.6;" width="6" x="668.1" y="164.0203"/><rect fill="#FFFFFF" height="18.7746" style="stroke:#181818;stroke-width:0.6;" width="6" x="668.1" y="201.5695"/><rect fill="#FFFFFF" height="18.7746" style="stroke:#181818;stroke-width:0.6;" width="6" x="791.1" y="276.668"/><rect fill="#FFFFFF" height="18.7746" style="stroke:#181818;stroke-width:0.6;" width="6" x="791.1" y="608.6109"/><rect fill="#FFFFFF" height="57.5238" style="stroke:#181818;stroke-width:0.6;" width="6" x="890.4" y="314.2172"/><rect fill="#FFFFFF" height="22.9746" style="stroke:#181818;stroke-width:0.6;" width="6" x="1058.4" y="348.7664"/><rect fill="#FFFFFF" height="18.7746" style="stroke:#181818;stroke-width:0.6;" width="6" x="1131" y="683.7094"/><rect fill="#FFFFFF" height="18.7746" style="stroke:#181818;stroke-width:0.6;" width="6" x="1246.8" y="390.5156"/><rect fill="#FFFFFF" height="18.7746" style="stroke:#181818;stroke-width:0.6;" width="6" x="1246.8" y="646.1602"/><rect fill="#FFFFFF" height="57.5238" style="stroke:#181818;stroke-width:0.6;" width="6" x="1324.2" y="428.0648"/><rect fill="#FFFFFF" height="9" style="stroke:#181818;stroke-width:0.6;" width="6" x="1451.4" y="462.6141"/><rect fill="none" height="30.3492" style="stroke:#000000;stroke-width:0.8999999999999999;" width="261" x="844.2" y="323.2172"/><rect fill="none" height="30.3492" style="stroke:#000000;stroke-width:0.8999999999999999;" width="198.6" x="1288.8" y="437.0648"/><line style="stroke:#181818;stroke-width:0.3;stroke-dasharray:5.0,5.0;" x1="13.8" x2="13.8" y1="50.1727" y2="750.8332"/><line style="stroke:#181818;stroke-width:0.3;stroke-dasharray:5.0,5.0;" x1="233.4" x2="233.4" y1="50.1727" y2="750.8332"/><line style="stroke:#181818;stroke-width:0.3;stroke-dasharray:5.0,5.0;" x1="520.2" x2="520.2" y1="50.1727" y2="750.8332"/><line style="stroke:#181818;stroke-width:0.3;stroke-dasharray:5.0,5.0;" x1="606.6" x2="606.6" y1="50.1727" y2="750.8332"/><line style="stroke:#181818;stroke-width:0.3;stroke-dasharray:5.0,5.0;" x1="670.8" x2="670.8" y1="50.1727" y2="750.8332"/><line style="stroke:#181818;stroke-width:0.3;stroke-dasharray:5.0,5.0;" x1="793.8" x2="793.8" y1="50.1727" y2="750.8332"/><line style="stroke:#181818;stroke-width:0.3;stroke-dasharray:5.0,5.0;" x1="893.4" x2="893.4" y1="50.1727" y2="750.8332"/><line style="stroke:#181818;stroke-width:0.3;stroke-dasharray:5.0,5.0;" x1="1061.4" x2="1061.4" y1="50.1727" y2="750.8332"/><line style="stroke:#181818;stroke-width:0.3;stroke-dasharray:5.0,5.0;" x1="1134" x2="1134" y1="50.1727" y2="750.8332"/><line style="stroke:#181818;stroke-width:0.3;stroke-dasharray:5.0,5.0;" x1="1186.8" x2="1186.8" y1="50.1727" y2="750.8332"/><line style="stroke:#181818;stroke-width:0.3;stroke-dasharray:5.0,5.0;" x1="1249.8" x2="1249.8" y1="50.1727" y2="750.8332"/><line style="stroke:#181818;stroke-width:0.3;stroke-dasharray:5.0,5.0;" x1="1327.2" x2="1327.2" y1="50.1727" y2="750.8332"/><line style="stroke:#181818;stroke-width:0.3;stroke-dasharray:5.0,5.0;" x1="1454.4" x2="1454.4" y1="50.1727" y2="750.8332"/><line style="stroke:#181818;stroke-width:0.3;stroke-dasharray:5.0,5.0;" x1="1527" x2="1527" y1="50.1727" y2="750.8332"/><text fill="#000000" font-family="sans-serif" font-size="8.4" lengthAdjust="spacing" textLength="18.6" x="3" y="48.0645">GSM</text><ellipse cx="14.1" cy="8.1" fill="#E3E3E3" rx="4.8" ry="4.8" style="stroke:#181818;stroke-width:0.3;"/><path d="M14.1,12.9 L14.1,29.1 M6.3,17.7 L21.9,17.7 M14.1,29.1 L6.3,38.1 M14.1,29.1 L21.9,38.1 " fill="none" style="stroke:#181818;stroke-width:0.3;"/><text fill="#000000" font-family="sans-serif" font-size="8.4" lengthAdjust="spacing" textLength="18.6" x="3" y="759.2977">GSM</text><ellipse cx="14.1" cy="766.5059" fill="#E3E3E3" rx="4.8" ry="4.8" style="stroke:#181818;stroke-width:0.3;"/><path d="M14.1,771.3059 L14.1,787.5059 M6.3,776.1059 L21.9,776.1059 M14.1,787.5059 L6.3,796.5059 M14.1,787.5059 L21.9,796.5059 " fill="none" style="stroke:#181818;stroke-width:0.3;"/><rect fill="#E3E3E3" height="19.5727" rx="1.5" ry="1.5" style="stroke:#181818;stroke-width:0.3;" width="75" x="196.2" y="30"/><text fill="#000000" font-family="sans-serif" font-size="8.4" lengthAdjust="spacing" textLength="66.6" x="200.4" y="43.2645">:AssignVehiclesUI</text><rect fill="#E3E3E3" height="19.5727" rx="1.5" ry="1.5" style="stroke:#181818;stroke-width:0.3;" width="75" x="196.2" y="750.2332"/><text fill="#000000" font-family="sans-serif" font-size="8.4" lengthAdjust="spacing" textLength="66.6" x="200.4" y="763.4977">:AssignVehiclesUI</text><rect fill="#E3E3E3" height="19.5727" rx="1.5" ry="1.5" style="stroke:#181818;stroke-width:0.3;" width="102.6" x="469.2" y="30"/><text fill="#000000" font-family="sans-serif" font-size="8.4" lengthAdjust="spacing" textLength="94.2" x="473.4" y="43.2645">AssignVehiclesController</text><rect fill="#E3E3E3" height="19.5727" rx="1.5" ry="1.5" style="stroke:#181818;stroke-width:0.3;" width="102.6" x="469.2" y="750.2332"/><text fill="#000000" font-family="sans-serif" font-size="8.4" lengthAdjust="spacing" textLength="94.2" x="473.4" y="763.4977">AssignVehiclesController</text><rect fill="#E3E3E3" height="19.5727" rx="1.5" ry="1.5" style="stroke:#181818;stroke-width:0.3;" width="58.2" x="577.8" y="30"/><text fill="#000000" font-family="sans-serif" font-size="8.4" lengthAdjust="spacing" textLength="49.8" x="582" y="43.2645">:Repositories</text><rect fill="#E3E3E3" height="19.5727" rx="1.5" ry="1.5" style="stroke:#181818;stroke-width:0.3;" width="58.2" x="577.8" y="750.2332"/><text fill="#000000" font-family="sans-serif" font-size="8.4" lengthAdjust="spacing" textLength="49.8" x="582" y="763.4977">:Repositories</text><rect fill="#E3E3E3" height="30.7453" rx="1.5" ry="1.5" style="stroke:#181818;stroke-width:0.3;" width="58.2" x="642" y="18.8273"/><text fill="#000000" font-family="sans-serif" font-size="8.4" lengthAdjust="spacing" textLength="44.4" x="648.9" y="32.0918">repositories</text><text fill="#000000" font-family="sans-serif" font-size="8.4" lengthAdjust="spacing" textLength="49.8" x="646.2" y="43.2645">:Repositories</text><rect fill="#E3E3E3" height="30.7453" rx="1.5" ry="1.5" style="stroke:#181818;stroke-width:0.3;" width="58.2" x="642" y="750.2332"/><text fill="#000000" font-family="sans-serif" font-size="8.4" lengthAdjust="spacing" textLength="44.4" x="648.9" y="763.4977">repositories</text><text fill="#000000" font-family="sans-serif" font-size="8.4" lengthAdjust="spacing" textLength="49.8" x="646.2" y="774.6703">:Repositories</text><rect fill="#E3E3E3" height="30.7453" rx="1.5" ry="1.5" style="stroke:#181818;stroke-width:0.3;" width="100.2" x="744" y="18.8273"/><text fill="#000000" font-family="sans-serif" font-size="8.4" lengthAdjust="spacing" textLength="91.8" x="748.2" y="32.0918">agendaEntryRepository:</text><text fill="#000000" font-family="sans-serif" font-size="8.4" lengthAdjust="spacing" textLength="90" x="749.1" y="43.2645">AgendaEntryRepository</text><rect fill="#E3E3E3" height="30.7453" rx="1.5" ry="1.5" style="stroke:#181818;stroke-width:0.3;" width="100.2" x="744" y="750.2332"/><text fill="#000000" font-family="sans-serif" font-size="8.4" lengthAdjust="spacing" textLength="91.8" x="748.2" y="763.4977">agendaEntryRepository:</text><text fill="#000000" font-family="sans-serif" font-size="8.4" lengthAdjust="spacing" textLength="90" x="749.1" y="774.6703">AgendaEntryRepository</text><rect fill="#E3E3E3" height="19.5727" rx="1.5" ry="1.5" style="stroke:#181818;stroke-width:0.3;" width="86.4" x="850.2" y="30"/><text fill="#000000" font-family="sans-serif" font-size="8.4" lengthAdjust="spacing" textLength="78" x="854.4" y="43.2645">AgendaEntryMapper</text><rect fill="#E3E3E3" height="19.5727" rx="1.5" ry="1.5" style="stroke:#181818;stroke-width:0.3;" width="86.4" x="850.2" y="750.2332"/><text fill="#000000" font-family="sans-serif" font-size="8.4" lengthAdjust="spacing" textLength="78" x="854.4" y="763.4977">AgendaEntryMapper</text><rect fill="#E3E3E3" height="19.5727" rx="1.5" ry="1.5" style="stroke:#181818;stroke-width:0.3;" width="75.6" x="1023.6" y="30"/><text fill="#000000" font-family="sans-serif" font-size="8.4" lengthAdjust="spacing" textLength="67.2" x="1027.8" y="43.2645">AgendaEntryDTO</text><rect fill="#E3E3E3" height="19.5727" rx="1.5" ry="1.5" style="stroke:#181818;stroke-width:0.3;" width="75.6" x="1023.6" y="750.2332"/><text fill="#000000" font-family="sans-serif" font-size="8.4" lengthAdjust="spacing" textLength="67.2" x="1027.8" y="763.4977">AgendaEntryDTO</text><rect fill="#E3E3E3" height="19.5727" rx="1.5" ry="1.5" style="stroke:#181818;stroke-width:0.3;" width="57.6" x="1105.2" y="30"/><text fill="#000000" font-family="sans-serif" font-size="8.4" lengthAdjust="spacing" textLength="49.2" x="1109.4" y="43.2645">AgendaEntry</text><rect fill="#E3E3E3" height="19.5727" rx="1.5" ry="1.5" style="stroke:#181818;stroke-width:0.3;" width="57.6" x="1105.2" y="750.2332"/><text fill="#000000" font-family="sans-serif" font-size="8.4" lengthAdjust="spacing" textLength="49.2" x="1109.4" y="763.4977">AgendaEntry</text><rect fill="#E3E3E3" height="19.5727" rx="1.5" ry="1.5" style="stroke:#181818;stroke-width:0.3;" width="36" x="1168.8" y="30"/><text fill="#000000" font-family="sans-serif" font-size="8.4" lengthAdjust="spacing" textLength="27.6" x="1173" y="43.2645">Vehicle</text><rect fill="#E3E3E3" height="19.5727" rx="1.5" ry="1.5" style="stroke:#181818;stroke-width:0.3;" width="36" x="1168.8" y="750.2332"/><text fill="#000000" font-family="sans-serif" font-size="8.4" lengthAdjust="spacing" textLength="27.6" x="1173" y="763.4977">Vehicle</text><rect fill="#E3E3E3" height="30.7453" rx="1.5" ry="1.5" style="stroke:#181818;stroke-width:0.3;" width="78" x="1210.8" y="18.8273"/><text fill="#000000" font-family="sans-serif" font-size="8.4" lengthAdjust="spacing" textLength="69.6" x="1215" y="32.0918">vehicleRepository:</text><text fill="#000000" font-family="sans-serif" font-size="8.4" lengthAdjust="spacing" textLength="68.4" x="1215.6" y="43.2645">VehicleRepository</text><rect fill="#E3E3E3" height="30.7453" rx="1.5" ry="1.5" style="stroke:#181818;stroke-width:0.3;" width="78" x="1210.8" y="750.2332"/><text fill="#000000" font-family="sans-serif" font-size="8.4" lengthAdjust="spacing" textLength="69.6" x="1215" y="763.4977">vehicleRepository:</text><text fill="#000000" font-family="sans-serif" font-size="8.4" lengthAdjust="spacing" textLength="68.4" x="1215.6" y="774.6703">VehicleRepository</text><rect fill="#E3E3E3" height="19.5727" rx="1.5" ry="1.5" style="stroke:#181818;stroke-width:0.3;" width="64.8" x="1294.8" y="30"/><text fill="#000000" font-family="sans-serif" font-size="8.4" lengthAdjust="spacing" textLength="56.4" x="1299" y="43.2645">VehicleMapper</text><rect fill="#E3E3E3" height="19.5727" rx="1.5" ry="1.5" style="stroke:#181818;stroke-width:0.3;" width="64.8" x="1294.8" y="750.2332"/><text fill="#000000" font-family="sans-serif" font-size="8.4" lengthAdjust="spacing" textLength="56.4" x="1299" y="763.4977">VehicleMapper</text><rect fill="#E3E3E3" height="19.5727" rx="1.5" ry="1.5" style="stroke:#181818;stroke-width:0.3;" width="54" x="1427.4" y="30"/><text fill="#000000" font-family="sans-serif" font-size="8.4" lengthAdjust="spacing" textLength="45.6" x="1431.6" y="43.2645">VehicleDTO</text><rect fill="#E3E3E3" height="19.5727" rx="1.5" ry="1.5" style="stroke:#181818;stroke-width:0.3;" width="54" x="1427.4" y="750.2332"/><text fill="#000000" font-family="sans-serif" font-size="8.4" lengthAdjust="spacing" textLength="45.6" x="1431.6" y="763.4977">VehicleDTO</text><rect fill="#E3E3E3" height="19.5727" rx="1.5" ry="1.5" style="stroke:#181818;stroke-width:0.3;" width="79.8" x="1487.4" y="30"/><text fill="#000000" font-family="sans-serif" font-size="8.4" lengthAdjust="spacing" textLength="71.4" x="1491.6" y="43.2645">ApplicationSession</text><rect fill="#E3E3E3" height="19.5727" rx="1.5" ry="1.5" style="stroke:#181818;stroke-width:0.3;" width="79.8" x="1487.4" y="750.2332"/><text fill="#000000" font-family="sans-serif" font-size="8.4" lengthAdjust="spacing" textLength="71.4" x="1491.6" y="763.4977">ApplicationSession</text><rect fill="#FFFFFF" height="683.8605" style="stroke:#181818;stroke-width:0.6;" width="6" x="11.1" y="56.1727"/><rect fill="#FFFFFF" height="669.8859" style="stroke:#181818;stroke-width:0.6;" width="6" x="230.7" y="70.1473"/><rect fill="#FFFFFF" height="434.216" style="stroke:#181818;stroke-width:0.6;" width="6" x="517.5" y="88.9219"/><rect fill="#FFFFFF" height="131.4223" style="stroke:#181818;stroke-width:0.6;" width="6" x="517.5" y="589.8363"/><rect fill="#FFFFFF" height="18.7746" style="stroke:#181818;stroke-width:0.6;" width="6" x="603.9" y="126.4711"/><rect fill="#FFFFFF" height="18.7746" style="stroke:#181818;stroke-width:0.6;" width="6" x="668.1" y="164.0203"/><rect fill="#FFFFFF" height="18.7746" style="stroke:#181818;stroke-width:0.6;" width="6" x="668.1" y="201.5695"/><rect fill="#FFFFFF" height="18.7746" style="stroke:#181818;stroke-width:0.6;" width="6" x="791.1" y="276.668"/><rect fill="#FFFFFF" height="18.7746" style="stroke:#181818;stroke-width:0.6;" width="6" x="791.1" y="608.6109"/><rect fill="#FFFFFF" height="57.5238" style="stroke:#181818;stroke-width:0.6;" width="6" x="890.4" y="314.2172"/><rect fill="#FFFFFF" height="22.9746" style="stroke:#181818;stroke-width:0.6;" width="6" x="1058.4" y="348.7664"/><rect fill="#FFFFFF" height="18.7746" style="stroke:#181818;stroke-width:0.6;" width="6" x="1131" y="683.7094"/><rect fill="#FFFFFF" height="18.7746" style="stroke:#181818;stroke-width:0.6;" width="6" x="1246.8" y="390.5156"/><rect fill="#FFFFFF" height="18.7746" style="stroke:#181818;stroke-width:0.6;" width="6" x="1246.8" y="646.1602"/><rect fill="#FFFFFF" height="57.5238" style="stroke:#181818;stroke-width:0.6;" width="6" x="1324.2" y="428.0648"/><rect fill="#FFFFFF" height="9" style="stroke:#181818;stroke-width:0.6;" width="6" x="1451.4" y="462.6141"/><polygon fill="#181818" points="223.5,67.7473,229.5,70.1473,223.5,72.5473,225.9,70.1473" style="stroke:#181818;stroke-width:0.6;"/><line style="stroke:#181818;stroke-width:0.6;" x1="17.1" x2="227.1" y1="70.1473" y2="70.1473"/><text fill="#000000" font-family="sans-serif" font-size="7.8" font-weight="bold" lengthAdjust="spacing" textLength="4.2" x="21.3" y="66.9896">1</text><text fill="#000000" font-family="sans-serif" font-size="7.8" lengthAdjust="spacing" textLength="148.2" x="27.9" y="66.9896">asks to assign vehicles to an agenda entry</text><polygon fill="#181818" points="510.3,86.5219,516.3,88.9219,510.3,91.3219,512.7,88.9219" style="stroke:#181818;stroke-width:0.6;"/><line style="stroke:#181818;stroke-width:0.6;" x1="236.7" x2="513.9" y1="88.9219" y2="88.9219"/><text fill="#000000" font-family="sans-serif" font-size="7.8" font-weight="bold" lengthAdjust="spacing" textLength="4.2" x="240.9" y="85.7643">2</text><text fill="#000000" font-family="sans-serif" font-size="7.8" lengthAdjust="spacing" textLength="21.6" x="247.5" y="85.7643">create</text><polygon fill="#181818" points="886.2,105.2965,892.2,107.6965,886.2,110.0965,888.6,107.6965" style="stroke:#181818;stroke-width:0.6;"/><line style="stroke:#181818;stroke-width:0.6;" x1="523.5" x2="889.8" y1="107.6965" y2="107.6965"/><text fill="#000000" font-family="sans-serif" font-size="7.8" font-weight="bold" lengthAdjust="spacing" textLength="4.2" x="527.7" y="104.5389">3</text><text fill="#000000" font-family="sans-serif" font-size="7.8" lengthAdjust="spacing" textLength="21.6" x="534.3" y="104.5389">create</text><polygon fill="#181818" points="596.7,124.0711,602.7,126.4711,596.7,128.8711,599.1,126.4711" style="stroke:#181818;stroke-width:0.6;"/><line style="stroke:#181818;stroke-width:0.6;" x1="523.5" x2="600.3" y1="126.4711" y2="126.4711"/><text fill="#000000" font-family="sans-serif" font-size="7.8" font-weight="bold" lengthAdjust="spacing" textLength="4.2" x="527.7" y="123.3135">4</text><text fill="#000000" font-family="sans-serif" font-size="7.8" lengthAdjust="spacing" textLength="45" x="534.3" y="123.3135">getInstance()</text><polygon fill="#181818" points="530.1,142.8457,524.1,145.2457,530.1,147.6457,527.7,145.2457" style="stroke:#181818;stroke-width:0.6;"/><line style="stroke:#181818;stroke-width:0.6;stroke-dasharray:2.0,2.0;" x1="526.5" x2="606.3" y1="145.2457" y2="145.2457"/><text fill="#000000" font-family="sans-serif" font-size="7.8" font-weight="bold" lengthAdjust="spacing" textLength="4.2" x="533.7" y="142.0881">5</text><text fill="#000000" font-family="sans-serif" font-size="7.8" lengthAdjust="spacing" textLength="40.2" x="540.3" y="142.0881">repositories</text><polygon fill="#181818" points="660.9,161.6203,666.9,164.0203,660.9,166.4203,663.3,164.0203" style="stroke:#181818;stroke-width:0.6;"/><line style="stroke:#181818;stroke-width:0.6;" x1="523.5" x2="664.5" y1="164.0203" y2="164.0203"/><text fill="#000000" font-family="sans-serif" font-size="7.8" font-weight="bold" lengthAdjust="spacing" textLength="4.2" x="527.7" y="160.8627">6</text><text fill="#000000" font-family="sans-serif" font-size="7.8" lengthAdjust="spacing" textLength="97.8" x="534.3" y="160.8627">getAgendaEntryRepository()</text><polygon fill="#181818" points="530.1,180.3949,524.1,182.7949,530.1,185.1949,527.7,182.7949" style="stroke:#181818;stroke-width:0.6;"/><line style="stroke:#181818;stroke-width:0.6;stroke-dasharray:2.0,2.0;" x1="526.5" x2="670.5" y1="182.7949" y2="182.7949"/><text fill="#000000" font-family="sans-serif" font-size="7.8" font-weight="bold" lengthAdjust="spacing" textLength="4.2" x="533.7" y="179.6373">7</text><text fill="#000000" font-family="sans-serif" font-size="7.8" lengthAdjust="spacing" textLength="87" x="540.3" y="179.6373">AgendaEntryRepository()</text><polygon fill="#181818" points="660.9,199.1695,666.9,201.5695,660.9,203.9695,663.3,201.5695" style="stroke:#181818;stroke-width:0.6;"/><line style="stroke:#181818;stroke-width:0.6;" x1="523.5" x2="664.5" y1="201.5695" y2="201.5695"/><text fill="#000000" font-family="sans-serif" font-size="7.8" font-weight="bold" lengthAdjust="spacing" textLength="4.2" x="527.7" y="198.4119">8</text><text fill="#000000" font-family="sans-serif" font-size="7.8" lengthAdjust="spacing" textLength="78.6" x="534.3" y="198.4119">getVehicleRepository()</text><polygon fill="#181818" points="530.1,217.9441,524.1,220.3441,530.1,222.7441,527.7,220.3441" style="stroke:#181818;stroke-width:0.6;"/><line style="stroke:#181818;stroke-width:0.6;stroke-dasharray:2.0,2.0;" x1="526.5" x2="670.5" y1="220.3441" y2="220.3441"/><text fill="#000000" font-family="sans-serif" font-size="7.8" font-weight="bold" lengthAdjust="spacing" textLength="4.2" x="533.7" y="217.1865">9</text><text fill="#000000" font-family="sans-serif" font-size="7.8" lengthAdjust="spacing" textLength="60.6" x="540.3" y="217.1865">vehicleRepository</text><polygon fill="#181818" points="510.3,236.7188,516.3,239.1187,510.3,241.5187,512.7,239.1187" style="stroke:#181818;stroke-width:0.6;"/><line style="stroke:#181818;stroke-width:0.6;" x1="236.7" x2="513.9" y1="239.1187" y2="239.1187"/><text fill="#000000" font-family="sans-serif" font-size="7.8" font-weight="bold" lengthAdjust="spacing" textLength="8.4" x="240.9" y="235.9611">10</text><text fill="#000000" font-family="sans-serif" font-size="7.8" lengthAdjust="spacing" textLength="139.2" x="251.7" y="235.9611">getAgendaEntriesDTOWithoutVehicles()</text><polygon fill="#181818" points="510.3,255.4934,516.3,257.8934,510.3,260.2934,512.7,257.8934" style="stroke:#181818;stroke-width:0.6;"/><line style="stroke:#181818;stroke-width:0.6;" x1="236.7" x2="513.9" y1="257.8934" y2="257.8934"/><text fill="#000000" font-family="sans-serif" font-size="7.8" font-weight="bold" lengthAdjust="spacing" textLength="8.4" x="240.9" y="254.7357">11</text><text fill="#000000" font-family="sans-serif" font-size="7.8" lengthAdjust="spacing" textLength="68.4" x="251.7" y="254.7357">showVehiclesDTO()</text><polygon fill="#181818" points="783.9,274.268,789.9,276.668,783.9,279.068,786.3,276.668" style="stroke:#181818;stroke-width:0.6;"/><line style="stroke:#181818;stroke-width:0.6;" x1="523.5" x2="787.5" y1="276.668" y2="276.668"/><text fill="#000000" font-family="sans-serif" font-size="7.8" font-weight="bold" lengthAdjust="spacing" textLength="8.4" x="527.7" y="273.5104">12</text><text fill="#000000" font-family="sans-serif" font-size="7.8" lengthAdjust="spacing" textLength="73.2" x="538.5" y="273.5104">getAgendaEntryList()</text><polygon fill="#181818" points="530.1,293.0426,524.1,295.4426,530.1,297.8426,527.7,295.4426" style="stroke:#181818;stroke-width:0.6;"/><line style="stroke:#181818;stroke-width:0.6;stroke-dasharray:2.0,2.0;" x1="526.5" x2="793.5" y1="295.4426" y2="295.4426"/><text fill="#000000" font-family="sans-serif" font-size="7.8" font-weight="bold" lengthAdjust="spacing" textLength="8.4" x="533.7" y="292.285">13</text><text fill="#000000" font-family="sans-serif" font-size="7.8" lengthAdjust="spacing" textLength="56.4" x="544.5" y="292.285">agendaEntryList</text><polygon fill="#181818" points="883.2,311.8172,889.2,314.2172,883.2,316.6172,885.6,314.2172" style="stroke:#181818;stroke-width:0.6;"/><line style="stroke:#181818;stroke-width:0.6;" x1="523.5" x2="886.8" y1="314.2172" y2="314.2172"/><text fill="#000000" font-family="sans-serif" font-size="7.8" font-weight="bold" lengthAdjust="spacing" textLength="8.4" x="527.7" y="311.0596">14</text><text fill="#000000" font-family="sans-serif" font-size="7.8" lengthAdjust="spacing" textLength="92.4" x="538.5" y="311.0596">toDtoList(agendaEntryList)</text><path d="M844.2,323.2172 L888,323.2172 L888,328.7918 L882,334.7918 L844.2,334.7918 L844.2,323.2172 " fill="#EEEEEE" style="stroke:#000000;stroke-width:0.8999999999999999;"/><rect fill="none" height="30.3492" style="stroke:#000000;stroke-width:0.8999999999999999;" width="261" x="844.2" y="323.2172"/><text fill="#000000" font-family="sans-serif" font-size="7.8" font-weight="bold" lengthAdjust="spacing" textLength="16.8" x="853.2" y="332.2342">loop</text><text fill="#000000" font-family="sans-serif" font-size="6.6" font-weight="bold" lengthAdjust="spacing" textLength="137.4" x="897" y="331.5393">[for each agendaEntry in agendaEntryList]</text><polygon fill="#181818" points="1051.2,346.3664,1057.2,348.7664,1051.2,351.1664,1053.6,348.7664" style="stroke:#181818;stroke-width:0.6;"/><line style="stroke:#181818;stroke-width:0.6;" x1="896.4" x2="1054.8" y1="348.7664" y2="348.7664"/><text fill="#000000" font-family="sans-serif" font-size="7.8" font-weight="bold" lengthAdjust="spacing" textLength="8.4" x="900.6" y="345.6088">15</text><text fill="#000000" font-family="sans-serif" font-size="7.8" lengthAdjust="spacing" textLength="139.8" x="911.4" y="345.6088">agendaEntryDTO = toDTO(agendaEntry)</text><polygon fill="#181818" points="530.1,369.341,524.1,371.741,530.1,374.141,527.7,371.741" style="stroke:#181818;stroke-width:0.6;"/><line style="stroke:#181818;stroke-width:0.6;stroke-dasharray:2.0,2.0;" x1="526.5" x2="892.8" y1="371.741" y2="371.741"/><text fill="#000000" font-family="sans-serif" font-size="7.8" font-weight="bold" lengthAdjust="spacing" textLength="8.4" x="533.7" y="368.5834">16</text><text fill="#000000" font-family="sans-serif" font-size="7.8" lengthAdjust="spacing" textLength="72" x="544.5" y="368.5834">agendaEntryDTOList</text><polygon fill="#181818" points="1239.6,388.1156,1245.6,390.5156,1239.6,392.9156,1242,390.5156" style="stroke:#181818;stroke-width:0.6;"/><line style="stroke:#181818;stroke-width:0.6;" x1="523.5" x2="1243.2" y1="390.5156" y2="390.5156"/><text fill="#000000" font-family="sans-serif" font-size="7.8" font-weight="bold" lengthAdjust="spacing" textLength="8.4" x="527.7" y="387.358">17</text><text fill="#000000" font-family="sans-serif" font-size="7.8" lengthAdjust="spacing" textLength="45.6" x="538.5" y="387.358">getVehicles()</text><polygon fill="#181818" points="530.1,406.8902,524.1,409.2902,530.1,411.6902,527.7,409.2902" style="stroke:#181818;stroke-width:0.6;"/><line style="stroke:#181818;stroke-width:0.6;stroke-dasharray:2.0,2.0;" x1="526.5" x2="1249.2" y1="409.2902" y2="409.2902"/><text fill="#000000" font-family="sans-serif" font-size="7.8" font-weight="bold" lengthAdjust="spacing" textLength="8.4" x="533.7" y="406.1326">18</text><text fill="#000000" font-family="sans-serif" font-size="7.8" lengthAdjust="spacing" textLength="27.6" x="544.5" y="406.1326">vehicles</text><polygon fill="#181818" points="1317,425.6648,1323,428.0648,1317,430.4648,1319.4,428.0648" style="stroke:#181818;stroke-width:0.6;"/><line style="stroke:#181818;stroke-width:0.6;" x1="523.5" x2="1320.6" y1="428.0648" y2="428.0648"/><text fill="#000000" font-family="sans-serif" font-size="7.8" font-weight="bold" lengthAdjust="spacing" textLength="8.4" x="527.7" y="424.9072">19</text><text fill="#000000" font-family="sans-serif" font-size="7.8" lengthAdjust="spacing" textLength="101.4" x="538.5" y="424.9072">getVehiclesListDTO(vehicles)</text><path d="M1288.8,437.0648 L1332.6,437.0648 L1332.6,442.6395 L1326.6,448.6395 L1288.8,448.6395 L1288.8,437.0648 " fill="#EEEEEE" style="stroke:#000000;stroke-width:0.8999999999999999;"/><rect fill="none" height="30.3492" style="stroke:#000000;stroke-width:0.8999999999999999;" width="198.6" x="1288.8" y="437.0648"/><text fill="#000000" font-family="sans-serif" font-size="7.8" font-weight="bold" lengthAdjust="spacing" textLength="16.8" x="1297.8" y="446.0818">loop</text><text fill="#000000" font-family="sans-serif" font-size="6.6" font-weight="bold" lengthAdjust="spacing" textLength="94.2" x="1341.6" y="445.3869">[for each vehicle in vehicles]</text><polygon fill="#181818" points="1444.2,460.2141,1450.2,462.6141,1444.2,465.0141,1446.6,462.6141" style="stroke:#181818;stroke-width:0.6;"/><line style="stroke:#181818;stroke-width:0.6;" x1="1330.2" x2="1447.8" y1="462.6141" y2="462.6141"/><text fill="#000000" font-family="sans-serif" font-size="7.8" font-weight="bold" lengthAdjust="spacing" textLength="8.4" x="1334.4" y="459.4564">20</text><text fill="#000000" font-family="sans-serif" font-size="7.8" lengthAdjust="spacing" textLength="99" x="1345.2" y="459.4564">vehicleDTO = toDTO(vehicle)</text><polygon fill="#181818" points="530.1,483.1887,524.1,485.5887,530.1,487.9887,527.7,485.5887" style="stroke:#181818;stroke-width:0.6;"/><line style="stroke:#181818;stroke-width:0.6;stroke-dasharray:2.0,2.0;" x1="526.5" x2="1326.6" y1="485.5887" y2="485.5887"/><text fill="#000000" font-family="sans-serif" font-size="7.8" font-weight="bold" lengthAdjust="spacing" textLength="8.4" x="533.7" y="482.4311">21</text><text fill="#000000" font-family="sans-serif" font-size="7.8" lengthAdjust="spacing" textLength="51.6" x="544.5" y="482.4311">vehicleDTOList</text><polygon fill="#181818" points="243.3,501.9633,237.3,504.3633,243.3,506.7633,240.9,504.3633" style="stroke:#181818;stroke-width:0.6;"/><line style="stroke:#181818;stroke-width:0.6;stroke-dasharray:2.0,2.0;" x1="239.7" x2="516.9" y1="504.3633" y2="504.3633"/><text fill="#000000" font-family="sans-serif" font-size="7.8" font-weight="bold" lengthAdjust="spacing" textLength="8.4" x="246.9" y="501.2057">22</text><text fill="#000000" font-family="sans-serif" font-size="7.8" lengthAdjust="spacing" textLength="72" x="257.7" y="501.2057">agendaEntryDTOList</text><polygon fill="#181818" points="243.3,520.7379,237.3,523.1379,243.3,525.5379,240.9,523.1379" style="stroke:#181818;stroke-width:0.6;"/><line style="stroke:#181818;stroke-width:0.6;stroke-dasharray:2.0,2.0;" x1="239.7" x2="519.9" y1="523.1379" y2="523.1379"/><text fill="#000000" font-family="sans-serif" font-size="7.8" font-weight="bold" lengthAdjust="spacing" textLength="8.4" x="246.9" y="519.9803">23</text><text fill="#000000" font-family="sans-serif" font-size="7.8" lengthAdjust="spacing" textLength="51.6" x="257.7" y="519.9803">vehicleDTOList</text><polygon fill="#181818" points="23.7,549.8871,17.7,552.2871,23.7,554.6871,21.3,552.2871" style="stroke:#181818;stroke-width:0.6;"/><line style="stroke:#181818;stroke-width:0.6;stroke-dasharray:2.0,2.0;" x1="20.1" x2="230.1" y1="552.2871" y2="552.2871"/><text fill="#000000" font-family="sans-serif" font-size="7.8" font-weight="bold" lengthAdjust="spacing" textLength="8.4" x="27.3" y="543.9422">24</text><text fill="#000000" font-family="sans-serif" font-size="7.8" lengthAdjust="spacing" textLength="131.4" x="38.1" y="538.7549">shows the list of entries in the agenda</text><text fill="#000000" font-family="sans-serif" font-size="7.8" lengthAdjust="spacing" textLength="186" x="40.5" y="549.1295">and the list of vehicles and asks to select one of each</text><polygon fill="#181818" points="223.5,568.6617,229.5,571.0617,223.5,573.4617,225.9,571.0617" style="stroke:#181818;stroke-width:0.6;"/><line style="stroke:#181818;stroke-width:0.6;" x1="17.1" x2="227.1" y1="571.0617" y2="571.0617"/><text fill="#000000" font-family="sans-serif" font-size="7.8" font-weight="bold" lengthAdjust="spacing" textLength="8.4" x="21.3" y="567.9041">25</text><text fill="#000000" font-family="sans-serif" font-size="7.8" lengthAdjust="spacing" textLength="90" x="32.1" y="567.9041">selects entry and vehicles</text><polygon fill="#181818" points="510.3,587.4363,516.3,589.8363,510.3,592.2363,512.7,589.8363" style="stroke:#181818;stroke-width:0.6;"/><line style="stroke:#181818;stroke-width:0.6;" x1="236.7" x2="513.9" y1="589.8363" y2="589.8363"/><text fill="#000000" font-family="sans-serif" font-size="7.8" font-weight="bold" lengthAdjust="spacing" textLength="8.4" x="240.9" y="586.6787">26</text><text fill="#000000" font-family="sans-serif" font-size="7.8" lengthAdjust="spacing" textLength="258.6" x="251.7" y="586.6787">assignVehicles(AgendaEntry agendaEntry, ArrayList&lt;Vehicle&gt; vehicleList)</text><polygon fill="#181818" points="783.9,606.2109,789.9,608.6109,783.9,611.0109,786.3,608.6109" style="stroke:#181818;stroke-width:0.6;"/><line style="stroke:#181818;stroke-width:0.6;" x1="523.5" x2="787.5" y1="608.6109" y2="608.6109"/><text fill="#000000" font-family="sans-serif" font-size="7.8" font-weight="bold" lengthAdjust="spacing" textLength="8.4" x="527.7" y="605.4533">27</text><text fill="#000000" font-family="sans-serif" font-size="7.8" lengthAdjust="spacing" textLength="245.4" x="538.5" y="605.4533">getAgendaEntry(selectedEntry.description, selectedEntry.greenSpace)</text><polygon fill="#181818" points="530.1,624.9855,524.1,627.3855,530.1,629.7855,527.7,627.3855" style="stroke:#181818;stroke-width:0.6;"/><line style="stroke:#181818;stroke-width:0.6;stroke-dasharray:2.0,2.0;" x1="526.5" x2="793.5" y1="627.3855" y2="627.3855"/><text fill="#000000" font-family="sans-serif" font-size="7.8" font-weight="bold" lengthAdjust="spacing" textLength="8.4" x="533.7" y="624.2279">28</text><text fill="#000000" font-family="sans-serif" font-size="7.8" lengthAdjust="spacing" textLength="43.8" x="544.5" y="624.2279">agendaEntry</text><polygon fill="#181818" points="1239.6,643.7602,1245.6,646.1602,1239.6,648.5602,1242,646.1602" style="stroke:#181818;stroke-width:0.6;"/><line style="stroke:#181818;stroke-width:0.6;" x1="523.5" x2="1243.2" y1="646.1602" y2="646.1602"/><text fill="#000000" font-family="sans-serif" font-size="7.8" font-weight="bold" lengthAdjust="spacing" textLength="8.4" x="527.7" y="643.0025">29</text><text fill="#000000" font-family="sans-serif" font-size="7.8" lengthAdjust="spacing" textLength="105" x="538.5" y="643.0025">getVehicles(selectedVehicles)</text><polygon fill="#181818" points="530.1,662.5348,524.1,664.9348,530.1,667.3348,527.7,664.9348" style="stroke:#181818;stroke-width:0.6;"/><line style="stroke:#181818;stroke-width:0.6;stroke-dasharray:2.0,2.0;" x1="526.5" x2="1249.2" y1="664.9348" y2="664.9348"/><text fill="#000000" font-family="sans-serif" font-size="7.8" font-weight="bold" lengthAdjust="spacing" textLength="8.4" x="533.7" y="661.7771">30</text><text fill="#000000" font-family="sans-serif" font-size="7.8" lengthAdjust="spacing" textLength="27.6" x="544.5" y="661.7771">vehicles</text><polygon fill="#181818" points="1123.8,681.3094,1129.8,683.7094,1123.8,686.1094,1126.2,683.7094" style="stroke:#181818;stroke-width:0.6;"/><line style="stroke:#181818;stroke-width:0.6;" x1="523.5" x2="1127.4" y1="683.7094" y2="683.7094"/><text fill="#000000" font-family="sans-serif" font-size="7.8" font-weight="bold" lengthAdjust="spacing" textLength="8.4" x="527.7" y="680.5518">31</text><text fill="#000000" font-family="sans-serif" font-size="7.8" lengthAdjust="spacing" textLength="258.6" x="538.5" y="680.5518">assignVehicles(AgendaEntry agendaEntry, ArrayList&lt;Vehicle&gt; vehicleList)</text><polygon fill="#181818" points="530.1,700.084,524.1,702.484,530.1,704.884,527.7,702.484" style="stroke:#181818;stroke-width:0.6;"/><line style="stroke:#181818;stroke-width:0.6;" x1="526.5" x2="1133.4" y1="702.484" y2="702.484"/><text fill="#000000" font-family="sans-serif" font-size="7.8" font-weight="bold" lengthAdjust="spacing" textLength="8.4" x="533.7" y="699.3264">32</text><text fill="#000000" font-family="sans-serif" font-size="7.8" lengthAdjust="spacing" textLength="67.2" x="544.5" y="699.3264">success/insuccess</text><polygon fill="#181818" points="243.3,718.8586,237.3,721.2586,243.3,723.6586,240.9,721.2586" style="stroke:#181818;stroke-width:0.6;"/><line style="stroke:#181818;stroke-width:0.6;stroke-dasharray:2.0,2.0;" x1="239.7" x2="519.9" y1="721.2586" y2="721.2586"/><text fill="#000000" font-family="sans-serif" font-size="7.8" font-weight="bold" lengthAdjust="spacing" textLength="8.4" x="246.9" y="718.101">33</text><text fill="#000000" font-family="sans-serif" font-size="7.8" lengthAdjust="spacing" textLength="67.2" x="257.7" y="718.101">success/insuccess</text><polygon fill="#181818" points="20.7,737.6332,14.7,740.0332,20.7,742.4332,18.3,740.0332" style="stroke:#181818;stroke-width:0.6;"/><line style="stroke:#181818;stroke-width:0.6;stroke-dasharray:2.0,2.0;" x1="17.1" x2="233.1" y1="740.0332" y2="740.0332"/><text fill="#000000" font-family="sans-serif" font-size="7.8" font-weight="bold" lengthAdjust="spacing" textLength="8.4" x="24.3" y="736.8756">34</text><text fill="#000000" font-family="sans-serif" font-size="7.8" lengthAdjust="spacing" textLength="99" x="35.1" y="736.8756">shows (in)success message</text><!--SRC=[jLPBRzim3BxxLmWzfK2xtODjGB4EGu4L0vQjk_IYEMmin944IMdHVp_gOPcqdROxx9BOr4T-V5j-hxILJXx4mMZJTiuSG0HtXCRN4olRlTp19Zpt81oqGUfTJm6-arlpfFHEFCZUGzF8Op3wUFW33f_RO9mu-xgvFHFI2_nlK2keLbcfWpXRNtclTleEEjNsu7_T9DXHSHG7VJOwEDFtu1Au3QwV6Fq1rdY5p0fymbJ1yqP5zz51hkA8nhsU6x2z35m3SwAtyWkwyZnQNz_hgoLvif4red0ItQXnAwqjOMLq5Z0yWL___1wXN7BIE36RtZcmP3U17lCp1nGX2_PkAgFgyqWBd4J998jWZ8WYvm5QswjM1cNq1h1FZCvnMfkwJptA0Adl6lmHbv-mkSGQ4NilWi7_s5c3nrcaIv84f2nL8zYL3IgZYTXoQAHrWF8Ha3gnIOS8eWKSmVLueIKHjODmeptEM0khyz7oKlyk6RWipgq5RUXc2ozQgZx5BizEB7OnzIWFHCIFdAUK27rIM-2RDT9hNBDkdBEmMh6OC2VOHxzLwCnneFR8o3HyPvw6CqJZyQIqaNkMhM_A1-ex6NgYDSOXkIgDWgYUxAfWheD9d1D3CnVAY3LDRumL3xYLaQcZ_4BfcJk24w83a_N38eY2Zz4dJ1SHdqSpWpUJPOKlJSCvnX9mqylvAN4H-OIXfewq36iwJ-j5TnTLc7KUcoggLVdORkECCPIOfC4MSO1lH5wi0e-5gbw82Sz8dClpEBuCfIaYLXQoNcD9I6paPC8q5ceacHQ9XrDoKxVmlBuSSDfkthLnO14RDtiUMDpW7OWUmS8yf0MEinxp5SMPxXwxN6yPhgx_U31y6ZpqUDiHHaCoXVdddv1yxlDN8cdMcl158jdjPKNQaoRWGbmv9zFKVIZOshAJWLxwpYmkerNs4RRfxTqMVEkKZP_A2y6FTWv0R_2k1s_UNRn-fnRNwyCtE78tduNNXb7ympJIHVSVQa9JGQdgsl37jiNxoNkbozCyOrbxCW8lwfsSWfNIvmKl3lY315GlNcN8QxmU_GK0]--></g></svg>