<?xml version="1.0" encoding="us-ascii" standalone="no"?><svg xmlns="http://www.w3.org/2000/svg" xmlns:xlink="http://www.w3.org/1999/xlink" contentStyleType="text/css" height="759px" preserveAspectRatio="none" style="width:608px;height:759px;background:#FFFFFF;" version="1.1" viewBox="0 0 608 759" width="608px" zoomAndPan="magnify"><defs/><g><!--class Job--><g id="elem_Job"><rect codeLine="11" fill="#F1F1F1" height="122.4844" id="Job" rx="2.5" ry="2.5" style="stroke:#181818;stroke-width:0.5;" width="121" x="464" y="382"/><ellipse cx="509.25" cy="398" fill="#ADD1B2" rx="11" ry="11" style="stroke:#181818;stroke-width:1.0;"/><path d="M512.0156,393.875 Q512.1719,393.6563 512.3594,393.5469 Q512.5469,393.4375 512.7656,393.4375 Q513.1406,393.4375 513.375,393.7031 Q513.6094,393.9531 513.6094,394.5625 L513.6094,396.0156 Q513.6094,396.625 513.375,396.8906 Q513.1406,397.1563 512.7656,397.1563 Q512.4219,397.1563 512.2188,396.9531 Q512.0156,396.7656 511.9063,396.25 Q511.8594,395.8906 511.6719,395.7031 Q511.3438,395.3281 510.7344,395.1094 Q510.125,394.8906 509.5,394.8906 Q508.7344,394.8906 508.0938,395.2188 Q507.4688,395.5469 506.9688,396.2969 Q506.4844,397.0469 506.4844,398.0781 L506.4844,399.1719 Q506.4844,400.4063 507.375,401.2344 Q508.2656,402.0469 509.8594,402.0469 Q510.7969,402.0469 511.4531,401.7969 Q511.8438,401.6406 512.2656,401.2031 Q512.5313,400.9375 512.6719,400.8594 Q512.8281,400.7813 513.0313,400.7813 Q513.3594,400.7813 513.6094,401.0469 Q513.875,401.2969 513.875,401.6406 Q513.875,401.9844 513.5313,402.3906 Q513.0313,402.9688 512.2344,403.2969 Q511.1563,403.75 509.8594,403.75 Q508.3438,403.75 507.1406,403.125 Q506.1563,402.625 505.4688,401.5625 Q504.7813,400.4844 504.7813,399.2031 L504.7813,398.0469 Q504.7813,396.7188 505.3906,395.5781 Q506.0156,394.4219 507.1094,393.8125 Q508.2031,393.1875 509.4375,393.1875 Q510.1719,393.1875 510.8125,393.3594 Q511.4688,393.5156 512.0156,393.875 Z " fill="#000000"/><text fill="#000000" font-family="sans-serif" font-size="14" lengthAdjust="spacing" textLength="22" x="529.75" y="403.7969">Job</text><line style="stroke:#181818;stroke-width:0.5;" x1="465" x2="584" y1="414" y2="414"/><text fill="#000000" font-family="sans-serif" font-size="14" lengthAdjust="spacing" textLength="101" x="470" y="433.1074">-String jobName</text><line style="stroke:#181818;stroke-width:0.5;" x1="465" x2="584" y1="440.6211" y2="440.6211"/><text fill="#000000" font-family="sans-serif" font-size="14" lengthAdjust="spacing" textLength="95" x="470" y="459.7285">+Job(jobName)</text><text fill="#000000" font-family="sans-serif" font-size="14" lengthAdjust="spacing" textLength="96" x="470" y="478.3496">+getJobName()</text><text fill="#000000" font-family="sans-serif" font-size="14" lengthAdjust="spacing" textLength="109" x="470" y="496.9707">+getDescription()</text></g><!--class Repositories--><g id="elem_Repositories"><rect codeLine="18" fill="#F1F1F1" height="178.3477" id="Repositories" rx="2.5" ry="2.5" style="stroke:#181818;stroke-width:0.5;" width="208" x="141.5" y="354"/><ellipse cx="201.75" cy="370" fill="#ADD1B2" rx="11" ry="11" style="stroke:#181818;stroke-width:1.0;"/><path d="M204.5156,365.875 Q204.6719,365.6563 204.8594,365.5469 Q205.0469,365.4375 205.2656,365.4375 Q205.6406,365.4375 205.875,365.7031 Q206.1094,365.9531 206.1094,366.5625 L206.1094,368.0156 Q206.1094,368.625 205.875,368.8906 Q205.6406,369.1563 205.2656,369.1563 Q204.9219,369.1563 204.7188,368.9531 Q204.5156,368.7656 204.4063,368.25 Q204.3594,367.8906 204.1719,367.7031 Q203.8438,367.3281 203.2344,367.1094 Q202.625,366.8906 202,366.8906 Q201.2344,366.8906 200.5938,367.2188 Q199.9688,367.5469 199.4688,368.2969 Q198.9844,369.0469 198.9844,370.0781 L198.9844,371.1719 Q198.9844,372.4063 199.875,373.2344 Q200.7656,374.0469 202.3594,374.0469 Q203.2969,374.0469 203.9531,373.7969 Q204.3438,373.6406 204.7656,373.2031 Q205.0313,372.9375 205.1719,372.8594 Q205.3281,372.7813 205.5313,372.7813 Q205.8594,372.7813 206.1094,373.0469 Q206.375,373.2969 206.375,373.6406 Q206.375,373.9844 206.0313,374.3906 Q205.5313,374.9688 204.7344,375.2969 Q203.6563,375.75 202.3594,375.75 Q200.8438,375.75 199.6406,375.125 Q198.6563,374.625 197.9688,373.5625 Q197.2813,372.4844 197.2813,371.2031 L197.2813,370.0469 Q197.2813,368.7188 197.8906,367.5781 Q198.5156,366.4219 199.6094,365.8125 Q200.7031,365.1875 201.9375,365.1875 Q202.6719,365.1875 203.3125,365.3594 Q203.9688,365.5156 204.5156,365.875 Z " fill="#000000"/><text fill="#000000" font-family="sans-serif" font-size="14" lengthAdjust="spacing" textLength="79" x="222.25" y="375.7969">Repositories</text><line style="stroke:#181818;stroke-width:0.5;" x1="142.5" x2="348.5" y1="386" y2="386"/><line style="stroke:#181818;stroke-width:0.5;" x1="142.5" x2="348.5" y1="394" y2="394"/><text fill="#000000" font-family="sans-serif" font-size="14" lengthAdjust="spacing" textLength="94" x="147.5" y="413.1074">-Repositories()</text><text fill="#000000" font-family="sans-serif" font-size="14" lengthAdjust="spacing" textLength="182" x="147.5" y="431.7285">+getInstance() : Repositories</text><text fill="#000000" font-family="sans-serif" font-size="14" lengthAdjust="spacing" textLength="184" x="147.5" y="450.3496">+getCollaboratorRepository()</text><text fill="#000000" font-family="sans-serif" font-size="14" lengthAdjust="spacing" textLength="152" x="147.5" y="468.9707">+getVehicleRepository()</text><text fill="#000000" font-family="sans-serif" font-size="14" lengthAdjust="spacing" textLength="128" x="147.5" y="487.5918">+getJobRepository()</text><text fill="#000000" font-family="sans-serif" font-size="14" lengthAdjust="spacing" textLength="128" x="147.5" y="506.2129">+getJobRepository()</text><text fill="#000000" font-family="sans-serif" font-size="14" lengthAdjust="spacing" textLength="196" x="147.5" y="524.834">+getAuthenticationRepository()</text></g><!--class JobRepository--><g id="elem_JobRepository"><rect codeLine="30" fill="#F1F1F1" height="159.7266" id="JobRepository" rx="2.5" ry="2.5" style="stroke:#181818;stroke-width:0.5;" width="191" x="150" y="593"/><ellipse cx="196.25" cy="609" fill="#ADD1B2" rx="11" ry="11" style="stroke:#181818;stroke-width:1.0;"/><path d="M199.0156,604.875 Q199.1719,604.6563 199.3594,604.5469 Q199.5469,604.4375 199.7656,604.4375 Q200.1406,604.4375 200.375,604.7031 Q200.6094,604.9531 200.6094,605.5625 L200.6094,607.0156 Q200.6094,607.625 200.375,607.8906 Q200.1406,608.1563 199.7656,608.1563 Q199.4219,608.1563 199.2188,607.9531 Q199.0156,607.7656 198.9063,607.25 Q198.8594,606.8906 198.6719,606.7031 Q198.3438,606.3281 197.7344,606.1094 Q197.125,605.8906 196.5,605.8906 Q195.7344,605.8906 195.0938,606.2188 Q194.4688,606.5469 193.9688,607.2969 Q193.4844,608.0469 193.4844,609.0781 L193.4844,610.1719 Q193.4844,611.4063 194.375,612.2344 Q195.2656,613.0469 196.8594,613.0469 Q197.7969,613.0469 198.4531,612.7969 Q198.8438,612.6406 199.2656,612.2031 Q199.5313,611.9375 199.6719,611.8594 Q199.8281,611.7813 200.0313,611.7813 Q200.3594,611.7813 200.6094,612.0469 Q200.875,612.2969 200.875,612.6406 Q200.875,612.9844 200.5313,613.3906 Q200.0313,613.9688 199.2344,614.2969 Q198.1563,614.75 196.8594,614.75 Q195.3438,614.75 194.1406,614.125 Q193.1563,613.625 192.4688,612.5625 Q191.7813,611.4844 191.7813,610.2031 L191.7813,609.0469 Q191.7813,607.7188 192.3906,606.5781 Q193.0156,605.4219 194.1094,604.8125 Q195.2031,604.1875 196.4375,604.1875 Q197.1719,604.1875 197.8125,604.3594 Q198.4688,604.5156 199.0156,604.875 Z " fill="#000000"/><text fill="#000000" font-family="sans-serif" font-size="14" lengthAdjust="spacing" textLength="90" x="216.75" y="614.7969">JobRepository</text><line style="stroke:#181818;stroke-width:0.5;" x1="151" x2="340" y1="625" y2="625"/><line style="stroke:#181818;stroke-width:0.5;" x1="151" x2="340" y1="633" y2="633"/><text fill="#000000" font-family="sans-serif" font-size="14" lengthAdjust="spacing" textLength="82" x="156" y="652.1074">+getJobList()</text><text fill="#000000" font-family="sans-serif" font-size="14" lengthAdjust="spacing" textLength="143" x="156" y="670.7285">+registerJob(jobName)</text><text fill="#000000" font-family="sans-serif" font-size="14" lengthAdjust="spacing" textLength="42" x="156" y="689.3496">+size()</text><text fill="#000000" font-family="sans-serif" font-size="14" lengthAdjust="spacing" textLength="130" x="156" y="707.9707">-jobIsValid(jobName)</text><text fill="#000000" font-family="sans-serif" font-size="14" lengthAdjust="spacing" textLength="169" x="156" y="726.5918">-isValidJobName(jobName)</text><text fill="#000000" font-family="sans-serif" font-size="14" lengthAdjust="spacing" textLength="179" x="156" y="745.2129">-jobNameIsUnique(jobName)</text></g><!--class RegisterJobController--><g id="elem_RegisterJobController"><rect codeLine="40" fill="#F1F1F1" height="85.2422" id="RegisterJobController" rx="2.5" ry="2.5" style="stroke:#181818;stroke-width:0.5;" width="169" x="161" y="190"/><ellipse cx="176" cy="206" fill="#ADD1B2" rx="11" ry="11" style="stroke:#181818;stroke-width:1.0;"/><path d="M178.7656,201.875 Q178.9219,201.6563 179.1094,201.5469 Q179.2969,201.4375 179.5156,201.4375 Q179.8906,201.4375 180.125,201.7031 Q180.3594,201.9531 180.3594,202.5625 L180.3594,204.0156 Q180.3594,204.625 180.125,204.8906 Q179.8906,205.1563 179.5156,205.1563 Q179.1719,205.1563 178.9688,204.9531 Q178.7656,204.7656 178.6563,204.25 Q178.6094,203.8906 178.4219,203.7031 Q178.0938,203.3281 177.4844,203.1094 Q176.875,202.8906 176.25,202.8906 Q175.4844,202.8906 174.8438,203.2188 Q174.2188,203.5469 173.7188,204.2969 Q173.2344,205.0469 173.2344,206.0781 L173.2344,207.1719 Q173.2344,208.4063 174.125,209.2344 Q175.0156,210.0469 176.6094,210.0469 Q177.5469,210.0469 178.2031,209.7969 Q178.5938,209.6406 179.0156,209.2031 Q179.2813,208.9375 179.4219,208.8594 Q179.5781,208.7813 179.7813,208.7813 Q180.1094,208.7813 180.3594,209.0469 Q180.625,209.2969 180.625,209.6406 Q180.625,209.9844 180.2813,210.3906 Q179.7813,210.9688 178.9844,211.2969 Q177.9063,211.75 176.6094,211.75 Q175.0938,211.75 173.8906,211.125 Q172.9063,210.625 172.2188,209.5625 Q171.5313,208.4844 171.5313,207.2031 L171.5313,206.0469 Q171.5313,204.7188 172.1406,203.5781 Q172.7656,202.4219 173.8594,201.8125 Q174.9531,201.1875 176.1875,201.1875 Q176.9219,201.1875 177.5625,201.3594 Q178.2188,201.5156 178.7656,201.875 Z " fill="#000000"/><text fill="#000000" font-family="sans-serif" font-size="14" lengthAdjust="spacing" textLength="137" x="190" y="211.7969">RegisterJobController</text><line style="stroke:#181818;stroke-width:0.5;" x1="162" x2="329" y1="222" y2="222"/><line style="stroke:#181818;stroke-width:0.5;" x1="162" x2="329" y1="230" y2="230"/><text fill="#000000" font-family="sans-serif" font-size="14" lengthAdjust="spacing" textLength="155" x="167" y="249.1074">+RegisterJobController()</text><text fill="#000000" font-family="sans-serif" font-size="14" lengthAdjust="spacing" textLength="143" x="167" y="267.7285">+registerJob(jobName)</text></g><!--class HRM--><g id="elem_HRM"><rect codeLine="46" fill="#F1F1F1" height="48" id="HRM" rx="2.5" ry="2.5" style="stroke:#181818;stroke-width:0.5;" width="62" x="493.5" y="208.5"/><ellipse cx="508.5" cy="224.5" fill="#ADD1B2" rx="11" ry="11" style="stroke:#181818;stroke-width:1.0;"/><path d="M511.2656,220.375 Q511.4219,220.1563 511.6094,220.0469 Q511.7969,219.9375 512.0156,219.9375 Q512.3906,219.9375 512.625,220.2031 Q512.8594,220.4531 512.8594,221.0625 L512.8594,222.5156 Q512.8594,223.125 512.625,223.3906 Q512.3906,223.6563 512.0156,223.6563 Q511.6719,223.6563 511.4688,223.4531 Q511.2656,223.2656 511.1563,222.75 Q511.1094,222.3906 510.9219,222.2031 Q510.5938,221.8281 509.9844,221.6094 Q509.375,221.3906 508.75,221.3906 Q507.9844,221.3906 507.3438,221.7188 Q506.7188,222.0469 506.2188,222.7969 Q505.7344,223.5469 505.7344,224.5781 L505.7344,225.6719 Q505.7344,226.9063 506.625,227.7344 Q507.5156,228.5469 509.1094,228.5469 Q510.0469,228.5469 510.7031,228.2969 Q511.0938,228.1406 511.5156,227.7031 Q511.7813,227.4375 511.9219,227.3594 Q512.0781,227.2813 512.2813,227.2813 Q512.6094,227.2813 512.8594,227.5469 Q513.125,227.7969 513.125,228.1406 Q513.125,228.4844 512.7813,228.8906 Q512.2813,229.4688 511.4844,229.7969 Q510.4063,230.25 509.1094,230.25 Q507.5938,230.25 506.3906,229.625 Q505.4063,229.125 504.7188,228.0625 Q504.0313,226.9844 504.0313,225.7031 L504.0313,224.5469 Q504.0313,223.2188 504.6406,222.0781 Q505.2656,220.9219 506.3594,220.3125 Q507.4531,219.6875 508.6875,219.6875 Q509.4219,219.6875 510.0625,219.8594 Q510.7188,220.0156 511.2656,220.375 Z " fill="#000000"/><text fill="#000000" font-family="sans-serif" font-size="14" lengthAdjust="spacing" textLength="30" x="522.5" y="230.2969">HRM</text><line style="stroke:#181818;stroke-width:0.5;" x1="494.5" x2="554.5" y1="240.5" y2="240.5"/><line style="stroke:#181818;stroke-width:0.5;" x1="494.5" x2="554.5" y1="248.5" y2="248.5"/></g><!--class SystemUser--><g id="elem_SystemUser"><rect codeLine="48" fill="#F1F1F1" height="122.4844" id="SystemUser" rx="2.5" ry="2.5" style="stroke:#181818;stroke-width:0.5;" width="107" x="471" y="7"/><ellipse cx="486" cy="23" fill="#ADD1B2" rx="11" ry="11" style="stroke:#181818;stroke-width:1.0;"/><path d="M488.7656,18.875 Q488.9219,18.6563 489.1094,18.5469 Q489.2969,18.4375 489.5156,18.4375 Q489.8906,18.4375 490.125,18.7031 Q490.3594,18.9531 490.3594,19.5625 L490.3594,21.0156 Q490.3594,21.625 490.125,21.8906 Q489.8906,22.1563 489.5156,22.1563 Q489.1719,22.1563 488.9688,21.9531 Q488.7656,21.7656 488.6563,21.25 Q488.6094,20.8906 488.4219,20.7031 Q488.0938,20.3281 487.4844,20.1094 Q486.875,19.8906 486.25,19.8906 Q485.4844,19.8906 484.8438,20.2188 Q484.2188,20.5469 483.7188,21.2969 Q483.2344,22.0469 483.2344,23.0781 L483.2344,24.1719 Q483.2344,25.4063 484.125,26.2344 Q485.0156,27.0469 486.6094,27.0469 Q487.5469,27.0469 488.2031,26.7969 Q488.5938,26.6406 489.0156,26.2031 Q489.2813,25.9375 489.4219,25.8594 Q489.5781,25.7813 489.7813,25.7813 Q490.1094,25.7813 490.3594,26.0469 Q490.625,26.2969 490.625,26.6406 Q490.625,26.9844 490.2813,27.3906 Q489.7813,27.9688 488.9844,28.2969 Q487.9063,28.75 486.6094,28.75 Q485.0938,28.75 483.8906,28.125 Q482.9063,27.625 482.2188,26.5625 Q481.5313,25.4844 481.5313,24.2031 L481.5313,23.0469 Q481.5313,21.7188 482.1406,20.5781 Q482.7656,19.4219 483.8594,18.8125 Q484.9531,18.1875 486.1875,18.1875 Q486.9219,18.1875 487.5625,18.3594 Q488.2188,18.5156 488.7656,18.875 Z " fill="#000000"/><text fill="#000000" font-family="sans-serif" font-size="14" lengthAdjust="spacing" textLength="75" x="500" y="28.7969">SystemUser</text><line style="stroke:#181818;stroke-width:0.5;" x1="472" x2="577" y1="39" y2="39"/><text fill="#000000" font-family="sans-serif" font-size="14" lengthAdjust="spacing" textLength="35" x="477" y="58.1074">name</text><text fill="#000000" font-family="sans-serif" font-size="14" lengthAdjust="spacing" textLength="33" x="477" y="76.7285">email</text><text fill="#000000" font-family="sans-serif" font-size="14" lengthAdjust="spacing" textLength="60" x="477" y="95.3496">password</text><text fill="#000000" font-family="sans-serif" font-size="14" lengthAdjust="spacing" textLength="40" x="477" y="113.9707">phone</text><line style="stroke:#181818;stroke-width:0.5;" x1="472" x2="577" y1="121.4844" y2="121.4844"/></g><!--class RegisterJobUI--><g id="elem_RegisterJobUI"><rect codeLine="55" fill="#F1F1F1" height="48" id="RegisterJobUI" rx="2.5" ry="2.5" style="stroke:#181818;stroke-width:0.5;" width="119" x="7" y="208.5"/><ellipse cx="22" cy="224.5" fill="#ADD1B2" rx="11" ry="11" style="stroke:#181818;stroke-width:1.0;"/><path d="M24.7656,220.375 Q24.9219,220.1563 25.1094,220.0469 Q25.2969,219.9375 25.5156,219.9375 Q25.8906,219.9375 26.125,220.2031 Q26.3594,220.4531 26.3594,221.0625 L26.3594,222.5156 Q26.3594,223.125 26.125,223.3906 Q25.8906,223.6563 25.5156,223.6563 Q25.1719,223.6563 24.9688,223.4531 Q24.7656,223.2656 24.6563,222.75 Q24.6094,222.3906 24.4219,222.2031 Q24.0938,221.8281 23.4844,221.6094 Q22.875,221.3906 22.25,221.3906 Q21.4844,221.3906 20.8438,221.7188 Q20.2188,222.0469 19.7188,222.7969 Q19.2344,223.5469 19.2344,224.5781 L19.2344,225.6719 Q19.2344,226.9063 20.125,227.7344 Q21.0156,228.5469 22.6094,228.5469 Q23.5469,228.5469 24.2031,228.2969 Q24.5938,228.1406 25.0156,227.7031 Q25.2813,227.4375 25.4219,227.3594 Q25.5781,227.2813 25.7813,227.2813 Q26.1094,227.2813 26.3594,227.5469 Q26.625,227.7969 26.625,228.1406 Q26.625,228.4844 26.2813,228.8906 Q25.7813,229.4688 24.9844,229.7969 Q23.9063,230.25 22.6094,230.25 Q21.0938,230.25 19.8906,229.625 Q18.9063,229.125 18.2188,228.0625 Q17.5313,226.9844 17.5313,225.7031 L17.5313,224.5469 Q17.5313,223.2188 18.1406,222.0781 Q18.7656,220.9219 19.8594,220.3125 Q20.9531,219.6875 22.1875,219.6875 Q22.9219,219.6875 23.5625,219.8594 Q24.2188,220.0156 24.7656,220.375 Z " fill="#000000"/><text fill="#000000" font-family="sans-serif" font-size="14" lengthAdjust="spacing" textLength="87" x="36" y="230.2969">RegisterJobUI</text><line style="stroke:#181818;stroke-width:0.5;" x1="8" x2="125" y1="240.5" y2="240.5"/><line style="stroke:#181818;stroke-width:0.5;" x1="8" x2="125" y1="248.5" y2="248.5"/></g><!--reverse link SystemUser to HRM--><g id="link_SystemUser_HRM"><path codeLine="57" d="M524.5,147.05 C524.5,174.53 524.5,187.5 524.5,208.12 " fill="none" id="SystemUser-backto-HRM" style="stroke:#181818;stroke-width:1.0;"/><polygon fill="none" points="524.5,129.05,518.5,147.05,530.5,147.05,524.5,129.05" style="stroke:#181818;stroke-width:1.0;"/></g><!--reverse link HRM to Job--><g id="link_HRM_Job"><path codeLine="58" d="M524.5,262.61 C524.5,292.62 524.5,340.09 524.5,381.92 " fill="none" id="HRM-backto-Job" style="stroke:#181818;stroke-width:1.0;"/><polygon fill="#181818" points="524.5,256.61,520.5,265.61,524.5,261.61,528.5,265.61,524.5,256.61" style="stroke:#181818;stroke-width:1.0;"/><text fill="#000000" font-family="sans-serif" font-size="13" lengthAdjust="spacing" textLength="75" x="525.5" y="320.0283">registered by</text></g><!--link RegisterJobController to Repositories--><g id="link_RegisterJobController_Repositories"><path codeLine="59" d="M245.5,275.19 C245.5,297.77 245.5,320.56 245.5,347.85 " fill="none" id="RegisterJobController-to-Repositories" style="stroke:#181818;stroke-width:1.0;stroke-dasharray:7.0,7.0;"/><polygon fill="#181818" points="245.5,353.85,249.5,344.85,245.5,348.85,241.5,344.85,245.5,353.85" style="stroke:#181818;stroke-width:1.0;"/><text fill="#000000" font-family="sans-serif" font-size="13" lengthAdjust="spacing" textLength="67" x="246.5" y="320.0283">repositories</text></g><!--link RegisterJobController to JobRepository--><g id="link_RegisterJobController_JobRepository"><path codeLine="60" d="M175.35,275.14 C116.68,309.97 42.5,354 42.5,354 C42.5,354 42.5,532 42.5,532 C42.5,532 92.3507,566.3836 145.0007,602.6936 " fill="none" id="RegisterJobController-to-JobRepository" style="stroke:#181818;stroke-width:1.0;stroke-dasharray:7.0,7.0;"/><polygon fill="#181818" points="149.94,606.1,144.802,597.6976,145.8239,603.2614,140.2601,604.2833,149.94,606.1" style="stroke:#181818;stroke-width:1.0;"/><text fill="#000000" font-family="sans-serif" font-size="13" lengthAdjust="spacing" textLength="79" x="43.5" y="448.5283">jobRepository</text></g><!--link RegisterJobController to Job--><g id="link_RegisterJobController_Job"><path codeLine="61" d="M314.61,275.14 C372.42,309.97 445.5,354 445.5,354 C445.5,354 452.6,361.9168 466.49,377.3768 " fill="none" id="RegisterJobController-to-Job" style="stroke:#181818;stroke-width:1.0;stroke-dasharray:7.0,7.0;"/><polygon fill="#181818" points="470.5,381.84,467.4605,372.4719,467.1584,378.1207,461.5096,377.8185,470.5,381.84" style="stroke:#181818;stroke-width:1.0;"/><text fill="#000000" font-family="sans-serif" font-size="13" lengthAdjust="spacing" textLength="17" x="393.5" y="320.0283">job</text></g><!--link RegisterJobUI to RegisterJobController--><g id="link_RegisterJobUI_RegisterJobController"><path codeLine="63" d="M126,232.5 C126.11,232.5 126.17,232.5 126.17,232.5 C126.17,232.5 138.52,232.5 154.88,232.5 " fill="none" id="RegisterJobUI-to-RegisterJobController" style="stroke:#181818;stroke-width:1.0;stroke-dasharray:7.0,7.0;"/><polygon fill="#181818" points="160.88,232.5,151.88,228.5,155.88,232.5,151.88,236.5,160.88,232.5" style="stroke:#181818;stroke-width:1.0;"/></g><!--link Repositories to JobRepository--><g id="link_Repositories_JobRepository"><path codeLine="64" d="M245.5,532.15 C245.5,552.08 245.5,567.11 245.5,586.65 " fill="none" id="Repositories-to-JobRepository" style="stroke:#181818;stroke-width:1.0;"/><polygon fill="#181818" points="245.5,592.65,249.5,583.65,245.5,587.65,241.5,583.65,245.5,592.65" style="stroke:#181818;stroke-width:1.0;"/><text fill="#000000" font-family="sans-serif" font-size="13" lengthAdjust="spacing" textLength="7" x="238.1883" y="581.7903">1</text></g><!--link Repositories to Repositories--><g id="link_Repositories_Repositories"><path codeLine="65" d="M349.76,421.86 C370.08,424.31 384.5,431.36 384.5,443 C384.5,454.64 376.0369,460.9718 355.7169,463.4218 " fill="none" id="Repositories-to-Repositories" style="stroke:#181818;stroke-width:1.0;"/><polygon fill="#181818" points="349.76,464.14,359.1741,467.0339,354.724,463.5415,358.2165,459.0914,349.76,464.14" style="stroke:#181818;stroke-width:1.0;"/><text fill="#000000" font-family="sans-serif" font-size="13" lengthAdjust="spacing" textLength="49" x="390.5" y="448.5283">instance</text></g><!--reverse link Job to JobRepository--><g id="link_Job_JobRepository"><path codeLine="66" d="M466.49,508.6232 C452.6,524.0832 445.5,532 445.5,532 C445.5,532 392.53,569.08 341.11,605.08 " fill="none" id="Job-backto-JobRepository" style="stroke:#181818;stroke-width:1.0;"/><polygon fill="#181818" points="470.5,504.16,461.5096,508.1815,467.1584,507.8793,467.4605,513.5281,470.5,504.16" style="stroke:#181818;stroke-width:1.0;"/><text fill="#000000" font-family="sans-serif" font-size="13" lengthAdjust="spacing" textLength="5" x="458.6141" y="526.6663">*</text></g><!--SRC=[bLF1Jjmm4BtxAqPxMLeKHAyhX8JWqA2M0wlbxZX3Ck1uKjihb5B-lNOscpWqHM9FcNblthoPyQxTCvbMMjb0muPLRRb1y7QFOa9QgPvbXLlVQGIBoajJwPJWQbdo2vaA7gLsAQB9eEzQX9Pr5mEnNW3PUXP9bTBIkIllBHLxZxbYiwNV2ET2h3K-Ul0CbghQGqdH3h4Heg-1MoxWLK3uPR0DzS7I4nTtii4-UHe99qFcov2gqDyUCYT9wWQTijH6yP1-EpQunvOTURQ4BdGIGwyqdQhaneLjgQ0Ccnbfeboprh9WAmCmChfKv05hKXgNmM3zay3LtjTeF2aPXvjntf8zJa2SCvNzGSwFWXQh4A9TMAmBHnjuMJn3xXwafd9Eou0EwUCDtg53cBkTeL_x14vECZguPkDjs2VQoVCY_B7zKVhx_Kzu7QDj5vZDplNgiTmStnKsadJ_rGRY2zlo4DGSNloIqLtUwoQA5t-oBFOJiITSX22-vSre44ieEh4ywzdPvVnXnhBahVs_QdxdJTps57zSTs0BCP-gTx9G9MR-iknozMqrx_wEySz4DFoLHEoz-hewxYXH-0i0]--></g></svg>