<?xml version="1.0" encoding="us-ascii" standalone="no"?><svg xmlns="http://www.w3.org/2000/svg" xmlns:xlink="http://www.w3.org/1999/xlink" contentStyleType="text/css" height="333px" preserveAspectRatio="none" style="width:531px;height:333px;background:#FFFFFF;" version="1.1" viewBox="0 0 531 333" width="531px" zoomAndPan="magnify"><defs/><g><!--class HRM--><g id="elem_HRM"><rect codeLine="11" fill="#F1F1F1" height="36.6211" id="HRM" rx="2.5" ry="2.5" style="stroke:#181818;stroke-width:0.5;" width="36" x="123.5" y="44"/><text fill="#000000" font-family="sans-serif" font-size="14" lengthAdjust="spacing" textLength="30" x="126.5" y="64.1074">HRM</text><line style="stroke:#181818;stroke-width:0.5;" x1="124.5" x2="158.5" y1="72.6211" y2="72.6211"/></g><!--class SystemUser--><g id="elem_SystemUser"><rect codeLine="15" fill="#F1F1F1" height="111.1055" id="SystemUser" rx="2.5" ry="2.5" style="stroke:#181818;stroke-width:0.5;" width="81" x="7" y="7"/><text fill="#000000" font-family="sans-serif" font-size="14" lengthAdjust="spacing" textLength="75" x="10" y="27.1074">SystemUser</text><line style="stroke:#181818;stroke-width:0.5;" x1="8" x2="87" y1="35.6211" y2="35.6211"/><text fill="#000000" font-family="sans-serif" font-size="14" lengthAdjust="spacing" textLength="35" x="13" y="54.7285">name</text><text fill="#000000" font-family="sans-serif" font-size="14" lengthAdjust="spacing" textLength="33" x="13" y="73.3496">email</text><text fill="#000000" font-family="sans-serif" font-size="14" lengthAdjust="spacing" textLength="60" x="13" y="91.9707">password</text><text fill="#000000" font-family="sans-serif" font-size="14" lengthAdjust="spacing" textLength="40" x="13" y="110.5918">phone</text></g><!--class Collaborator--><g id="elem_Collaborator"><rect codeLine="23" fill="#F1F1F1" height="129.7266" id="Collaborator" rx="2.5" ry="2.5" style="stroke:#181818;stroke-width:0.5;" width="105" x="89" y="197"/><text fill="#000000" font-family="sans-serif" font-size="14" lengthAdjust="spacing" textLength="78" x="102.5" y="217.1074">Collaborator</text><line style="stroke:#181818;stroke-width:0.5;" x1="90" x2="193" y1="225.6211" y2="225.6211"/><text fill="#000000" font-family="sans-serif" font-size="14" lengthAdjust="spacing" textLength="56" x="95" y="244.7285">birthdate</text><text fill="#000000" font-family="sans-serif" font-size="14" lengthAdjust="spacing" textLength="93" x="95" y="263.3496">admissionDate</text><text fill="#000000" font-family="sans-serif" font-size="14" lengthAdjust="spacing" textLength="51" x="95" y="281.9707">address</text><text fill="#000000" font-family="sans-serif" font-size="14" lengthAdjust="spacing" textLength="68" x="95" y="300.5918">idDocType</text><text fill="#000000" font-family="sans-serif" font-size="14" lengthAdjust="spacing" textLength="60" x="95" y="319.2129">idNumber</text></g><!--class TeamProposal--><g id="elem_TeamProposal"><rect codeLine="31" fill="#F1F1F1" height="36.6211" id="TeamProposal" rx="2.5" ry="2.5" style="stroke:#181818;stroke-width:0.5;" width="98" x="259.5" y="44"/><text fill="#000000" font-family="sans-serif" font-size="14" lengthAdjust="spacing" textLength="92" x="262.5" y="64.1074">TeamProposal</text><line style="stroke:#181818;stroke-width:0.5;" x1="260.5" x2="356.5" y1="72.6211" y2="72.6211"/></g><!--class Team--><g id="elem_Team"><rect codeLine="34" fill="#F1F1F1" height="73.8633" id="Team" rx="2.5" ry="2.5" style="stroke:#181818;stroke-width:0.5;" width="96" x="428.5" y="25.5"/><text fill="#000000" font-family="sans-serif" font-size="14" lengthAdjust="spacing" textLength="36" x="458.5" y="45.6074">Team</text><line style="stroke:#181818;stroke-width:0.5;" x1="429.5" x2="523.5" y1="54.1211" y2="54.1211"/><text fill="#000000" font-family="sans-serif" font-size="14" lengthAdjust="spacing" textLength="81" x="434.5" y="73.2285">minimumSize</text><text fill="#000000" font-family="sans-serif" font-size="14" lengthAdjust="spacing" textLength="84" x="434.5" y="91.8496">maximumSize</text></g><!--class Skill--><g id="elem_Skill"><rect codeLine="40" fill="#F1F1F1" height="55.2422" id="Skill" rx="2.5" ry="2.5" style="stroke:#181818;stroke-width:0.5;" width="47" x="265" y="234.5"/><text fill="#000000" font-family="sans-serif" font-size="14" lengthAdjust="spacing" textLength="25" x="276" y="254.6074">Skill</text><line style="stroke:#181818;stroke-width:0.5;" x1="266" x2="311" y1="263.1211" y2="263.1211"/><text fill="#000000" font-family="sans-serif" font-size="14" lengthAdjust="spacing" textLength="35" x="271" y="282.2285">name</text></g><!--link HRM to Collaborator--><g id="link_HRM_Collaborator"><path codeLine="44" d="M141.5,81.03 C141.5,106.8 141.5,156.26 141.5,196.81 " fill="none" id="HRM-Collaborator" style="stroke:#181818;stroke-width:1.0;"/><polygon fill="#000000" points="146.5,162.6455,149.4389,153.6004,143.5611,153.6004,146.5,162.6455" style="stroke:#000000;stroke-width:1.0;"/><text fill="#000000" font-family="sans-serif" font-size="13" lengthAdjust="spacing" textLength="50" x="155.5" y="163.0283">registers</text><text fill="#000000" font-family="sans-serif" font-size="13" lengthAdjust="spacing" textLength="7" x="128.9531" y="102.7547">1</text><text fill="#000000" font-family="sans-serif" font-size="13" lengthAdjust="spacing" textLength="5" x="136.2266" y="185.8093">*</text></g><!--link HRM to TeamProposal--><g id="link_HRM_TeamProposal"><path codeLine="45" d="M159.69,62.5 C183.44,62.5 225.95,62.5 259.47,62.5 " fill="none" id="HRM-TeamProposal" style="stroke:#181818;stroke-width:1.0;"/><polygon fill="#000000" points="187,50.1455,177.9549,47.2066,177.9549,53.0844,187,50.1455" style="stroke:#000000;stroke-width:1.0;"/><text fill="#000000" font-family="sans-serif" font-size="13" lengthAdjust="spacing" textLength="50" x="191" y="55.5283">requests</text><text fill="#000000" font-family="sans-serif" font-size="13" lengthAdjust="spacing" textLength="7" x="167.4171" y="56.6195">1</text><text fill="#000000" font-family="sans-serif" font-size="13" lengthAdjust="spacing" textLength="7" x="244.4263" y="58.278">1</text></g><!--link TeamProposal to Team--><g id="link_TeamProposal_Team"><path codeLine="46" d="M357.54,62.5 C379.82,62.5 406.09,62.5 428.26,62.5 " fill="none" id="TeamProposal-Team" style="stroke:#181818;stroke-width:1.0;"/><polygon fill="#000000" points="385,50.1455,375.9549,47.2066,375.9549,53.0844,385,50.1455" style="stroke:#000000;stroke-width:1.0;"/><text fill="#000000" font-family="sans-serif" font-size="13" lengthAdjust="spacing" textLength="21" x="389" y="55.5283">has</text><text fill="#000000" font-family="sans-serif" font-size="13" lengthAdjust="spacing" textLength="7" x="365.5506" y="58.3291">1</text><text fill="#000000" font-family="sans-serif" font-size="13" lengthAdjust="spacing" textLength="7" x="413.6607" y="58.3113">1</text></g><!--link Team to Collaborator--><g id="link_Team_Collaborator"><path codeLine="47" d="M428.12,91.41 C381.69,118.27 309.64,160.13 247.5,197 C230.12,207.31 211.21,218.68 194.24,228.94 " fill="none" id="Team-Collaborator" style="stroke:#181818;stroke-width:1.0;"/><polygon fill="#000000" points="329.19,160.18,338.4766,158.1285,335.4972,153.0617,329.19,160.18" style="stroke:#000000;stroke-width:1.0;"/><text fill="#000000" font-family="sans-serif" font-size="13" lengthAdjust="spacing" textLength="21" x="342.5" y="163.0283">has</text><text fill="#000000" font-family="sans-serif" font-size="13" lengthAdjust="spacing" textLength="7" x="405.6111" y="91.2097">1</text><text fill="#000000" font-family="sans-serif" font-size="13" lengthAdjust="spacing" textLength="5" x="202.0081" y="220.1636">*</text></g><!--link Collaborator to Skill--><g id="link_Collaborator_Skill"><path codeLine="48" d="M194.16,262 C218.38,262 245.89,262 264.93,262 " fill="none" id="Collaborator-Skill" style="stroke:#181818;stroke-width:1.0;"/><polygon fill="#000000" points="221.5,249.6455,212.4549,246.7066,212.4549,252.5844,221.5,249.6455" style="stroke:#000000;stroke-width:1.0;"/><text fill="#000000" font-family="sans-serif" font-size="13" lengthAdjust="spacing" textLength="21" x="225.5" y="255.0283">has</text><text fill="#000000" font-family="sans-serif" font-size="13" lengthAdjust="spacing" textLength="7" x="201.9753" y="257.9241">1</text><text fill="#000000" font-family="sans-serif" font-size="13" lengthAdjust="spacing" textLength="20" x="233.1491" y="277.893">0..*</text></g><!--reverse link SystemUser to HRM--><g id="link_SystemUser_HRM"><path codeLine="49" d="M106.26,62.5 C117.9,62.5 111.55,62.5 123.2,62.5 " fill="none" id="SystemUser-backto-HRM" style="stroke:#181818;stroke-width:1.0;"/><polygon fill="none" points="88.26,62.5,106.26,68.5,106.26,56.5,88.26,62.5" style="stroke:#181818;stroke-width:1.0;"/></g><!--reverse link SystemUser to Collaborator--><g id="link_SystemUser_Collaborator"><path codeLine="50" d="M81.2928,134.5043 C92.8628,158.8243 98.83,171.36 110.89,196.69 " fill="none" id="SystemUser-backto-Collaborator" style="stroke:#181818;stroke-width:1.0;"/><polygon fill="none" points="73.56,118.25,75.8747,137.0819,86.7109,131.9267,73.56,118.25" style="stroke:#181818;stroke-width:1.0;"/></g><!--SRC=[PL7BJiCm4BpxAwmSAxKgrmeX8Ng00mZHyW4RUqbMjRt1wwYKnx_Zf4sRW0_MxCvuxF7AZa834Rps7DZKaJtg55jKScOQC3keS9CE3dL4ao1KRYoG6YplALJw3PoWKYFEE12vJIbIsIPyC1msz8bwgLHD5hMXQB9NZpsccgqerP_Hzo-F-akfdw7U72IXVnMCkQtp2k2n1-Y1N8-QBDnpjCUYve0ZWpjs3agEa7YmA2ccsa8w-e3r948SrfUEZIZIOx9hDjj3WwVggVKbnelz5i4_HsvOm6NxIJ_NdWBvrdVfbOUFCnu5t95pusoPwJwXkDA5dkjYLamZhF8mAigV4aNVd9IzCE-JntJ2znObTRe9CrYVJgnq3OEcupho_yM3QlAOmMcvMCmoEcOPbAFHNN_Fkyd-QSqd5wXV]--></g></svg>