<?xml version="1.0" encoding="us-ascii" standalone="no"?><svg xmlns="http://www.w3.org/2000/svg" xmlns:xlink="http://www.w3.org/1999/xlink" contentStyleType="text/css" height="626px" preserveAspectRatio="none" style="width:188px;height:626px;background:#FFFFFF;" version="1.1" viewBox="0 0 188 626" width="188px" zoomAndPan="magnify"><defs/><g><!--class HRM--><g id="elem_HRM"><rect codeLine="11" fill="#F1F1F1" height="36.6211" id="HRM" rx="2.5" ry="2.5" style="stroke:#181818;stroke-width:0.5;" width="36" x="52.5" y="7"/><text fill="#000000" font-family="sans-serif" font-size="14" lengthAdjust="spacing" textLength="30" x="55.5" y="27.1074">HRM</text><line style="stroke:#181818;stroke-width:0.5;" x1="53.5" x2="87.5" y1="35.6211" y2="35.6211"/></g><!--class Collaborator--><g id="elem_Collaborator"><rect codeLine="15" fill="#F1F1F1" height="129.7266" id="Collaborator" rx="2.5" ry="2.5" style="stroke:#181818;stroke-width:0.5;" width="105" x="7" y="355"/><text fill="#000000" font-family="sans-serif" font-size="14" lengthAdjust="spacing" textLength="78" x="20.5" y="375.1074">Collaborator</text><line style="stroke:#181818;stroke-width:0.5;" x1="8" x2="111" y1="383.6211" y2="383.6211"/><text fill="#000000" font-family="sans-serif" font-size="14" lengthAdjust="spacing" textLength="56" x="13" y="402.7285">birthdate</text><text fill="#000000" font-family="sans-serif" font-size="14" lengthAdjust="spacing" textLength="93" x="13" y="421.3496">admissionDate</text><text fill="#000000" font-family="sans-serif" font-size="14" lengthAdjust="spacing" textLength="51" x="13" y="439.9707">address</text><text fill="#000000" font-family="sans-serif" font-size="14" lengthAdjust="spacing" textLength="68" x="13" y="458.5918">idDocType</text><text fill="#000000" font-family="sans-serif" font-size="14" lengthAdjust="spacing" textLength="60" x="13" y="477.2129">idNumber</text></g><!--class TeamProposal--><g id="elem_TeamProposal"><rect codeLine="23" fill="#F1F1F1" height="36.6211" id="TeamProposal" rx="2.5" ry="2.5" style="stroke:#181818;stroke-width:0.5;" width="98" x="83.5" y="123"/><text fill="#000000" font-family="sans-serif" font-size="14" lengthAdjust="spacing" textLength="92" x="86.5" y="143.1074">TeamProposal</text><line style="stroke:#181818;stroke-width:0.5;" x1="84.5" x2="180.5" y1="151.6211" y2="151.6211"/></g><!--class Team--><g id="elem_Team"><rect codeLine="26" fill="#F1F1F1" height="36.6211" id="Team" rx="2.5" ry="2.5" style="stroke:#181818;stroke-width:0.5;" width="42" x="95.5" y="239"/><text fill="#000000" font-family="sans-serif" font-size="14" lengthAdjust="spacing" textLength="36" x="98.5" y="259.1074">Team</text><line style="stroke:#181818;stroke-width:0.5;" x1="96.5" x2="136.5" y1="267.6211" y2="267.6211"/></g><!--class Skill--><g id="elem_Skill"><rect codeLine="30" fill="#F1F1F1" height="55.2422" id="Skill" rx="2.5" ry="2.5" style="stroke:#181818;stroke-width:0.5;" width="47" x="36" y="564"/><text fill="#000000" font-family="sans-serif" font-size="14" lengthAdjust="spacing" textLength="25" x="47" y="584.1074">Skill</text><line style="stroke:#181818;stroke-width:0.5;" x1="37" x2="82" y1="592.6211" y2="592.6211"/><text fill="#000000" font-family="sans-serif" font-size="14" lengthAdjust="spacing" textLength="35" x="42" y="611.7285">name</text></g><!--link HRM to Collaborator--><g id="link_HRM_Collaborator"><path codeLine="34" d="M68.64,44.13 C65.58,74.08 59.61,136.79 57.5,190 C55.29,245.62 56.1,308.89 57.28,354.81 " fill="none" id="HRM-Collaborator" style="stroke:#181818;stroke-width:1.0;"/><polygon fill="#000000" points="62.3173,204.6422,65.5848,195.7105,59.7108,195.4957,62.3173,204.6422" style="stroke:#000000;stroke-width:1.0;"/><text fill="#000000" font-family="sans-serif" font-size="13" lengthAdjust="spacing" textLength="43" x="71.5" y="205.0283">creates</text><text fill="#000000" font-family="sans-serif" font-size="13" lengthAdjust="spacing" textLength="7" x="55.662" y="65.5395">1</text><text fill="#000000" font-family="sans-serif" font-size="13" lengthAdjust="spacing" textLength="5" x="51.7638" y="343.8093">*</text></g><!--link HRM to TeamProposal--><g id="link_HRM_TeamProposal"><path codeLine="35" d="M80.19,44.31 C91.84,65.73 111.26,101.45 122.88,122.81 " fill="none" id="HRM-TeamProposal" style="stroke:#181818;stroke-width:1.0;"/><polygon fill="#000000" points="111.8887,88.038,110.1493,78.6878,104.9856,81.496,111.8887,88.038" style="stroke:#000000;stroke-width:1.0;"/><text fill="#000000" font-family="sans-serif" font-size="13" lengthAdjust="spacing" textLength="50" x="118.5" y="89.0283">requests</text><text fill="#000000" font-family="sans-serif" font-size="13" lengthAdjust="spacing" textLength="7" x="74.8536" y="65.7679">1</text><text fill="#000000" font-family="sans-serif" font-size="13" lengthAdjust="spacing" textLength="7" x="102.637" y="111.614">1</text></g><!--link TeamProposal to Team--><g id="link_TeamProposal_Team"><path codeLine="36" d="M130,160.31 C126.99,181.73 121.98,217.45 118.98,238.81 " fill="none" id="TeamProposal-Team" style="stroke:#181818;stroke-width:1.0;"/><polygon fill="#000000" points="128.8049,204.597,132.9727,196.0483,127.152,195.2311,128.8049,204.597" style="stroke:#000000;stroke-width:1.0;"/><text fill="#000000" font-family="sans-serif" font-size="13" lengthAdjust="spacing" textLength="21" x="138.5" y="205.0283">has</text><text fill="#000000" font-family="sans-serif" font-size="13" lengthAdjust="spacing" textLength="7" x="116.85" y="181.7679">1</text><text fill="#000000" font-family="sans-serif" font-size="13" lengthAdjust="spacing" textLength="7" x="111.6676" y="227.614">1</text></g><!--link Team to Collaborator--><g id="link_Team_Collaborator"><path codeLine="37" d="M110.18,276.29 C103.43,295.31 92.33,326.57 82.23,355 " fill="none" id="Team-Collaborator" style="stroke:#181818;stroke-width:1.0;"/><polygon fill="#000000" points="100.8269,320.3573,106.6231,312.8171,101.0841,310.8502,100.8269,320.3573" style="stroke:#000000;stroke-width:1.0;"/><text fill="#000000" font-family="sans-serif" font-size="13" lengthAdjust="spacing" textLength="21" x="111.5" y="321.0283">has</text><text fill="#000000" font-family="sans-serif" font-size="13" lengthAdjust="spacing" textLength="7" x="96.0034" y="297.7425">1</text><text fill="#000000" font-family="sans-serif" font-size="13" lengthAdjust="spacing" textLength="20" x="63.7019" y="343.5625">1..*</text></g><!--link Collaborator to Skill--><g id="link_Collaborator_Skill"><path codeLine="38" d="M59.5,485.08 C59.5,512.46 59.5,542.89 59.5,564 " fill="none" id="Collaborator-Skill" style="stroke:#181818;stroke-width:1.0;"/><polygon fill="#000000" points="64.5,529.6455,67.4389,520.6004,61.5611,520.6004,64.5,529.6455" style="stroke:#000000;stroke-width:1.0;"/><text fill="#000000" font-family="sans-serif" font-size="13" lengthAdjust="spacing" textLength="21" x="73.5" y="530.0283">has</text><text fill="#000000" font-family="sans-serif" font-size="13" lengthAdjust="spacing" textLength="7" x="47.9328" y="506.7254">1</text><text fill="#000000" font-family="sans-serif" font-size="13" lengthAdjust="spacing" textLength="20" x="32.725" y="552.709">0..*</text></g><!--SRC=[VP7FJiCm3CRlUGghHwHDwtK79CGES00XkXTm4zD6I-8Ifq83yUwaMxkjauPFZh-V_toAx6peCA87pu5r6zaJfDYJafFIeTvXGrNQEu98Ec5et2KWBHh-ig613tH2Ibresg78GqhHrdsYPysXijy4AwLQQmYqZJhFEkIUKij6b3hqmDFx2_mezJkz7zavh3bYufW56AEsCRK64vqgLu76Mn7BOVClP2A9t9AjsR3UxZkw3RpslgPuFdTBwDyYTopeyhcp-inNjRFEZOO2UXgKmNjHGW6B1HHtnTpx6dIax4NWVWIFN0cvORPsdR_hioT90pfJnk53wr1VGuiJSrvSBfTNkoTkTi-9NsK-fqT34_e7]--></g></svg>