<?xml version="1.0" encoding="us-ascii" standalone="no"?><svg xmlns="http://www.w3.org/2000/svg" xmlns:xlink="http://www.w3.org/1999/xlink" contentStyleType="text/css" height="835px" preserveAspectRatio="none" style="width:214px;height:835px;background:#FFFFFF;" version="1.1" viewBox="0 0 214 835" width="214px" zoomAndPan="magnify"><defs/><g><!--class HRM--><g id="elem_HRM"><rect codeLine="11" fill="#F1F1F1" height="36.6211" id="HRM" rx="2.5" ry="2.5" style="stroke:#181818;stroke-width:0.5;" width="36" x="87.89" y="179"/><text fill="#000000" font-family="sans-serif" font-size="14" lengthAdjust="spacing" textLength="30" x="90.89" y="199.1074">HRM</text><line style="stroke:#181818;stroke-width:0.5;" x1="88.89" x2="122.89" y1="207.6211" y2="207.6211"/></g><!--class SystemUser--><g id="elem_SystemUser"><rect codeLine="15" fill="#F1F1F1" height="111.1055" id="SystemUser" rx="2.5" ry="2.5" style="stroke:#181818;stroke-width:0.5;" width="81" x="116.39" y="7"/><text fill="#000000" font-family="sans-serif" font-size="14" lengthAdjust="spacing" textLength="75" x="119.39" y="27.1074">SystemUser</text><line style="stroke:#181818;stroke-width:0.5;" x1="117.39" x2="196.39" y1="35.6211" y2="35.6211"/><text fill="#000000" font-family="sans-serif" font-size="14" lengthAdjust="spacing" textLength="35" x="122.39" y="54.7285">name</text><text fill="#000000" font-family="sans-serif" font-size="14" lengthAdjust="spacing" textLength="33" x="122.39" y="73.3496">email</text><text fill="#000000" font-family="sans-serif" font-size="14" lengthAdjust="spacing" textLength="60" x="122.39" y="91.9707">password</text><text fill="#000000" font-family="sans-serif" font-size="14" lengthAdjust="spacing" textLength="40" x="122.39" y="110.5918">phone</text></g><!--class Collaborator--><g id="elem_Collaborator"><rect codeLine="23" fill="#F1F1F1" height="129.7266" id="Collaborator" rx="2.5" ry="2.5" style="stroke:#181818;stroke-width:0.5;" width="105" x="53.39" y="564"/><text fill="#000000" font-family="sans-serif" font-size="14" lengthAdjust="spacing" textLength="78" x="66.89" y="584.1074">Collaborator</text><line style="stroke:#181818;stroke-width:0.5;" x1="54.39" x2="157.39" y1="592.6211" y2="592.6211"/><text fill="#000000" font-family="sans-serif" font-size="14" lengthAdjust="spacing" textLength="56" x="59.39" y="611.7285">birthdate</text><text fill="#000000" font-family="sans-serif" font-size="14" lengthAdjust="spacing" textLength="93" x="59.39" y="630.3496">admissionDate</text><text fill="#000000" font-family="sans-serif" font-size="14" lengthAdjust="spacing" textLength="51" x="59.39" y="648.9707">address</text><text fill="#000000" font-family="sans-serif" font-size="14" lengthAdjust="spacing" textLength="68" x="59.39" y="667.5918">idDocType</text><text fill="#000000" font-family="sans-serif" font-size="14" lengthAdjust="spacing" textLength="60" x="59.39" y="686.2129">idNumber</text></g><!--class TeamProposal--><g id="elem_TeamProposal"><rect codeLine="31" fill="#F1F1F1" height="36.6211" id="TeamProposal" rx="2.5" ry="2.5" style="stroke:#181818;stroke-width:0.5;" width="98" x="56.89" y="295"/><text fill="#000000" font-family="sans-serif" font-size="14" lengthAdjust="spacing" textLength="92" x="59.89" y="315.1074">TeamProposal</text><line style="stroke:#181818;stroke-width:0.5;" x1="57.89" x2="153.89" y1="323.6211" y2="323.6211"/></g><!--class Team--><g id="elem_Team"><rect codeLine="34" fill="#F1F1F1" height="73.8633" id="Team" rx="2.5" ry="2.5" style="stroke:#181818;stroke-width:0.5;" width="96" x="57.89" y="411"/><text fill="#000000" font-family="sans-serif" font-size="14" lengthAdjust="spacing" textLength="36" x="87.89" y="431.1074">Team</text><line style="stroke:#181818;stroke-width:0.5;" x1="58.89" x2="152.89" y1="439.6211" y2="439.6211"/><text fill="#000000" font-family="sans-serif" font-size="14" lengthAdjust="spacing" textLength="81" x="63.89" y="458.7285">minimumSize</text><text fill="#000000" font-family="sans-serif" font-size="14" lengthAdjust="spacing" textLength="84" x="63.89" y="477.3496">maximumSize</text></g><!--class Skill--><g id="elem_Skill"><rect codeLine="40" fill="#F1F1F1" height="55.2422" id="Skill" rx="2.5" ry="2.5" style="stroke:#181818;stroke-width:0.5;" width="47" x="82.39" y="773"/><text fill="#000000" font-family="sans-serif" font-size="14" lengthAdjust="spacing" textLength="25" x="93.39" y="793.1074">Skill</text><line style="stroke:#181818;stroke-width:0.5;" x1="83.39" x2="128.39" y1="801.6211" y2="801.6211"/><text fill="#000000" font-family="sans-serif" font-size="14" lengthAdjust="spacing" textLength="35" x="88.39" y="820.7285">name</text></g><!--link HRM to Collaborator--><g id="link_HRM_Collaborator"><path codeLine="44" d="M88.5,216.24 C72.08,234.32 48.58,264.05 38.89,295 C30.35,322.29 6,333.07 39.89,485 C45.9,511.95 57.44,539.9 69.22,563.86 " fill="none" id="HRM-Collaborator" style="stroke:#181818;stroke-width:1.0;"/><polygon fill="#000000" points="28.6131,376.6378,32.0484,367.7694,26.1796,367.4439,28.6131,376.6378" style="stroke:#000000;stroke-width:1.0;"/><text fill="#000000" font-family="sans-serif" font-size="13" lengthAdjust="spacing" textLength="43" x="37.89" y="377.0283">creates</text><text fill="#000000" font-family="sans-serif" font-size="13" lengthAdjust="spacing" textLength="7" x="68.7732" y="217.3">1</text><text fill="#000000" font-family="sans-serif" font-size="13" lengthAdjust="spacing" textLength="5" x="59.9358" y="552.8648">*</text></g><!--link HRM to TeamProposal--><g id="link_HRM_TeamProposal"><path codeLine="45" d="M105.89,216.31 C105.89,237.73 105.89,273.45 105.89,294.81 " fill="none" id="HRM-TeamProposal" style="stroke:#181818;stroke-width:1.0;"/><polygon fill="#000000" points="110.89,260.6455,113.8289,251.6004,107.9511,251.6004,110.89,260.6455" style="stroke:#000000;stroke-width:1.0;"/><text fill="#000000" font-family="sans-serif" font-size="13" lengthAdjust="spacing" textLength="50" x="119.89" y="261.0283">requests</text><text fill="#000000" font-family="sans-serif" font-size="13" lengthAdjust="spacing" textLength="7" x="97.9494" y="237.7679">1</text><text fill="#000000" font-family="sans-serif" font-size="13" lengthAdjust="spacing" textLength="7" x="88.5931" y="283.614">1</text></g><!--link TeamProposal to Team--><g id="link_TeamProposal_Team"><path codeLine="46" d="M105.89,332.09 C105.89,352.09 105.89,385.25 105.89,410.83 " fill="none" id="TeamProposal-Team" style="stroke:#181818;stroke-width:1.0;"/><polygon fill="#000000" points="110.89,376.6455,113.8289,367.6004,107.9511,367.6004,110.89,376.6455" style="stroke:#000000;stroke-width:1.0;"/><text fill="#000000" font-family="sans-serif" font-size="13" lengthAdjust="spacing" textLength="21" x="119.89" y="377.0283">has</text><text fill="#000000" font-family="sans-serif" font-size="13" lengthAdjust="spacing" textLength="7" x="93.4119" y="353.4888">1</text><text fill="#000000" font-family="sans-serif" font-size="13" lengthAdjust="spacing" textLength="7" x="98.2666" y="399.7614">1</text></g><!--link Team to Collaborator--><g id="link_Team_Collaborator"><path codeLine="47" d="M105.89,485.22 C105.89,507.8 105.89,537.49 105.89,563.94 " fill="none" id="Team-Collaborator" style="stroke:#181818;stroke-width:1.0;"/><polygon fill="#000000" points="110.89,529.6455,113.8289,520.6004,107.9511,520.6004,110.89,529.6455" style="stroke:#000000;stroke-width:1.0;"/><text fill="#000000" font-family="sans-serif" font-size="13" lengthAdjust="spacing" textLength="21" x="119.89" y="530.0283">has</text><text fill="#000000" font-family="sans-serif" font-size="13" lengthAdjust="spacing" textLength="7" x="89.6478" y="506.8561">1</text><text fill="#000000" font-family="sans-serif" font-size="13" lengthAdjust="spacing" textLength="20" x="110.9213" y="552.9536">1..*</text></g><!--link Collaborator to Skill--><g id="link_Collaborator_Skill"><path codeLine="48" d="M105.89,694.08 C105.89,721.46 105.89,751.89 105.89,773 " fill="none" id="Collaborator-Skill" style="stroke:#181818;stroke-width:1.0;"/><polygon fill="#000000" points="110.89,738.6455,113.8289,729.6004,107.9511,729.6004,110.89,738.6455" style="stroke:#000000;stroke-width:1.0;"/><text fill="#000000" font-family="sans-serif" font-size="13" lengthAdjust="spacing" textLength="21" x="119.89" y="739.0283">has</text><text fill="#000000" font-family="sans-serif" font-size="13" lengthAdjust="spacing" textLength="7" x="94.3228" y="715.7254">1</text><text fill="#000000" font-family="sans-serif" font-size="13" lengthAdjust="spacing" textLength="20" x="79.115" y="761.709">0..*</text></g><!--link SystemUser to HRM--><g id="link_SystemUser_HRM"><path codeLine="49" d="M135.85,118.36 C127.57,139.97 125.0822,146.4761 119.1422,161.9461 " fill="none" id="SystemUser-to-HRM" style="stroke:#181818;stroke-width:1.0;"/><polygon fill="none" points="112.69,178.75,124.7434,164.0969,113.5409,159.7954,112.69,178.75" style="stroke:#181818;stroke-width:1.0;"/></g><!--link SystemUser to Collaborator--><g id="link_SystemUser_Collaborator"><path codeLine="50" d="M188.03,118.03 C198.64,141.43 207.89,169.54 207.89,196.5 C207.89,196.5 207.89,196.5 207.89,449 C207.89,493.71 194.3985,523.0514 169.5085,556.1014 " fill="none" id="SystemUser-to-Collaborator" style="stroke:#181818;stroke-width:1.0;"/><polygon fill="none" points="158.68,570.48,174.3014,559.7109,164.7157,552.4919,158.68,570.48" style="stroke:#181818;stroke-width:1.0;"/></g><!--SRC=[VLBBJiD03BplLrWvLahLNdkeXEW13Y14omSukwPPTHzXlL4fZtzdaoOXeIe- -J4UZKVcWtOL1hHWlVEo3DuIn52Ju65IeJpWdhRnP0W2oOXkRyO0Bb7vetPxU4N39CHe9WqotyGOT557kfVURVK7mKA8KYi2gODCN6rkAPPUiH3j3jmzFy2d4DzzlJrn9Fl2558RKZYqr2PaKPisgnBmw8Cw5wLtD2AuzSPWuGD6trCqKUWGIuMHXiwVG6Kri_Pkyoz81MA-DjPgu-NkLD5rm6Dj2mg_SdU4zYduoZEQ97VIJxNLJjlQDcuAY-z3FZBie8qPUvKcZQdP4ZB8SyXcsTIJ5SX0wKQ6TGSyuvQG5YPoLkaFtchYs40dauwyMMtwAoYnntH4BUDyFhlqO2gdNvr87BGl6eQikx67Zbuapx_MpGjTzCPquWS0]--></g></svg>