<?xml version="1.0" encoding="us-ascii" standalone="no"?><svg xmlns="http://www.w3.org/2000/svg" xmlns:xlink="http://www.w3.org/1999/xlink" contentStyleType="text/css" height="644px" preserveAspectRatio="none" style="width:188px;height:644px;background:#FFFFFF;" version="1.1" viewBox="0 0 188 644" width="188px" zoomAndPan="magnify"><defs/><g><!--class HRM--><g id="elem_HRM"><rect codeLine="11" fill="#F1F1F1" height="36.6211" id="HRM" rx="2.5" ry="2.5" style="stroke:#181818;stroke-width:0.5;" width="36" x="52.5" y="7"/><text fill="#000000" font-family="sans-serif" font-size="14" lengthAdjust="spacing" textLength="30" x="55.5" y="27.1074">HRM</text><line style="stroke:#181818;stroke-width:0.5;" x1="53.5" x2="87.5" y1="35.6211" y2="35.6211"/></g><!--class Collaborator--><g id="elem_Collaborator"><rect codeLine="15" fill="#F1F1F1" height="129.7266" id="Collaborator" rx="2.5" ry="2.5" style="stroke:#181818;stroke-width:0.5;" width="105" x="7" y="373"/><text fill="#000000" font-family="sans-serif" font-size="14" lengthAdjust="spacing" textLength="78" x="20.5" y="393.1074">Collaborator</text><line style="stroke:#181818;stroke-width:0.5;" x1="8" x2="111" y1="401.6211" y2="401.6211"/><text fill="#000000" font-family="sans-serif" font-size="14" lengthAdjust="spacing" textLength="56" x="13" y="420.7285">birthdate</text><text fill="#000000" font-family="sans-serif" font-size="14" lengthAdjust="spacing" textLength="93" x="13" y="439.3496">admissionDate</text><text fill="#000000" font-family="sans-serif" font-size="14" lengthAdjust="spacing" textLength="51" x="13" y="457.9707">address</text><text fill="#000000" font-family="sans-serif" font-size="14" lengthAdjust="spacing" textLength="68" x="13" y="476.5918">idDocType</text><text fill="#000000" font-family="sans-serif" font-size="14" lengthAdjust="spacing" textLength="60" x="13" y="495.2129">idNumber</text></g><!--class TeamProposal--><g id="elem_TeamProposal"><rect codeLine="23" fill="#F1F1F1" height="36.6211" id="TeamProposal" rx="2.5" ry="2.5" style="stroke:#181818;stroke-width:0.5;" width="98" x="83.5" y="123"/><text fill="#000000" font-family="sans-serif" font-size="14" lengthAdjust="spacing" textLength="92" x="86.5" y="143.1074">TeamProposal</text><line style="stroke:#181818;stroke-width:0.5;" x1="84.5" x2="180.5" y1="151.6211" y2="151.6211"/></g><!--class Team--><g id="elem_Team"><rect codeLine="26" fill="#F1F1F1" height="55.2422" id="Team" rx="2.5" ry="2.5" style="stroke:#181818;stroke-width:0.5;" width="42" x="95.5" y="239"/><text fill="#000000" font-family="sans-serif" font-size="14" lengthAdjust="spacing" textLength="36" x="98.5" y="259.1074">Team</text><line style="stroke:#181818;stroke-width:0.5;" x1="96.5" x2="136.5" y1="267.6211" y2="267.6211"/><text fill="#000000" font-family="sans-serif" font-size="14" lengthAdjust="spacing" textLength="24" x="101.5" y="286.7285">size</text></g><!--class Skill--><g id="elem_Skill"><rect codeLine="31" fill="#F1F1F1" height="55.2422" id="Skill" rx="2.5" ry="2.5" style="stroke:#181818;stroke-width:0.5;" width="47" x="36" y="582"/><text fill="#000000" font-family="sans-serif" font-size="14" lengthAdjust="spacing" textLength="25" x="47" y="602.1074">Skill</text><line style="stroke:#181818;stroke-width:0.5;" x1="37" x2="82" y1="610.6211" y2="610.6211"/><text fill="#000000" font-family="sans-serif" font-size="14" lengthAdjust="spacing" textLength="35" x="42" y="629.7285">name</text></g><!--link HRM to Collaborator--><g id="link_HRM_Collaborator"><path codeLine="35" d="M68.64,44.13 C65.58,74.08 59.61,136.79 57.5,190 C55.04,252.02 56,322.88 57.3,372.74 " fill="none" id="HRM-Collaborator" style="stroke:#181818;stroke-width:1.0;"/><polygon fill="#000000" points="62.3276,204.6425,65.5767,195.7042,59.7023,195.5015,62.3276,204.6425" style="stroke:#000000;stroke-width:1.0;"/><text fill="#000000" font-family="sans-serif" font-size="13" lengthAdjust="spacing" textLength="43" x="71.5" y="205.0283">creates</text><text fill="#000000" font-family="sans-serif" font-size="13" lengthAdjust="spacing" textLength="7" x="55.662" y="65.5395">1</text><text fill="#000000" font-family="sans-serif" font-size="13" lengthAdjust="spacing" textLength="5" x="51.7859" y="361.7317">*</text></g><!--link HRM to TeamProposal--><g id="link_HRM_TeamProposal"><path codeLine="36" d="M80.19,44.31 C91.84,65.73 111.26,101.45 122.88,122.81 " fill="none" id="HRM-TeamProposal" style="stroke:#181818;stroke-width:1.0;"/><polygon fill="#000000" points="111.8887,88.038,110.1493,78.6878,104.9856,81.496,111.8887,88.038" style="stroke:#000000;stroke-width:1.0;"/><text fill="#000000" font-family="sans-serif" font-size="13" lengthAdjust="spacing" textLength="50" x="118.5" y="89.0283">requests</text><text fill="#000000" font-family="sans-serif" font-size="13" lengthAdjust="spacing" textLength="7" x="74.8536" y="65.7679">1</text><text fill="#000000" font-family="sans-serif" font-size="13" lengthAdjust="spacing" textLength="7" x="102.637" y="111.614">1</text></g><!--link TeamProposal to Team--><g id="link_TeamProposal_Team"><path codeLine="37" d="M130.21,160.12 C127.53,180.72 123.07,215 119.97,238.85 " fill="none" id="TeamProposal-Team" style="stroke:#181818;stroke-width:1.0;"/><polygon fill="#000000" points="129.8551,204.6037,133.9361,196.0133,128.1073,195.2552,129.8551,204.6037" style="stroke:#000000;stroke-width:1.0;"/><text fill="#000000" font-family="sans-serif" font-size="13" lengthAdjust="spacing" textLength="21" x="139.5" y="205.0283">has</text><text fill="#000000" font-family="sans-serif" font-size="13" lengthAdjust="spacing" textLength="7" x="117.1164" y="181.5268">1</text><text fill="#000000" font-family="sans-serif" font-size="13" lengthAdjust="spacing" textLength="7" x="112.9631" y="227.5243">1</text></g><!--link Team to Collaborator--><g id="link_Team_Collaborator"><path codeLine="38" d="M107.47,294.36 C100.37,315.45 90.2,345.72 81.04,372.95 " fill="none" id="Team-Collaborator" style="stroke:#181818;stroke-width:1.0;"/><polygon fill="#000000" points="98.9062,338.3847,104.575,330.7482,99.0038,328.8746,98.9062,338.3847" style="stroke:#000000;stroke-width:1.0;"/><text fill="#000000" font-family="sans-serif" font-size="13" lengthAdjust="spacing" textLength="21" x="109.5" y="339.0283">has</text><text fill="#000000" font-family="sans-serif" font-size="13" lengthAdjust="spacing" textLength="7" x="88.8541" y="316.3474">1</text><text fill="#000000" font-family="sans-serif" font-size="13" lengthAdjust="spacing" textLength="20" x="88.4272" y="361.9647">1..*</text></g><!--link Collaborator to Skill--><g id="link_Collaborator_Skill"><path codeLine="39" d="M59.5,503.08 C59.5,530.46 59.5,560.89 59.5,582 " fill="none" id="Collaborator-Skill" style="stroke:#181818;stroke-width:1.0;"/><polygon fill="#000000" points="64.5,547.6455,67.4389,538.6004,61.5611,538.6004,64.5,547.6455" style="stroke:#000000;stroke-width:1.0;"/><text fill="#000000" font-family="sans-serif" font-size="13" lengthAdjust="spacing" textLength="21" x="73.5" y="548.0283">has</text><text fill="#000000" font-family="sans-serif" font-size="13" lengthAdjust="spacing" textLength="7" x="47.9328" y="524.7254">1</text><text fill="#000000" font-family="sans-serif" font-size="13" lengthAdjust="spacing" textLength="20" x="32.725" y="570.709">0..*</text></g><!--SRC=[VL71JiCm3BtdAwmU9srYrnsG43l00OJOVi1Dp1ejYOkT2Wt4lvEETgoWaLFiz_podgDxdreKZ10viMs48q6MZeoUa1Rj7dUqoOT086Gpfbqu9sY3Zjzysi4B1YLZpZ0RKFKcP_5rb-dUSjhuTu8hOnhl2AmNMxIEzqYvOQV676VWxla1Fepv7EjR3W5h5imi1O3Xr5voup3JgVFhe8jUrNDQ_qjoGggNOE_MRBU7bYuJ7hjOa_pOtHB69-6M5KEnE-cNMiiMpi9jzZw48LN2I3tIBw1QGWNpELIpQhg05LYX4aZXUY1-yvPG1YPlhygVlNQakQTEa46y7-txAsXmv0n2HyN5OlOtyDJEE3gnUF9-rIjKGyQH-WK0]--></g></svg>