<?xml version="1.0" encoding="us-ascii" standalone="no"?><svg xmlns="http://www.w3.org/2000/svg" xmlns:xlink="http://www.w3.org/1999/xlink" contentStyleType="text/css" height="911px" preserveAspectRatio="none" style="width:534px;height:911px;background:#FFFFFF;" version="1.1" viewBox="0 0 534 911" width="534px" zoomAndPan="magnify"><defs/><g><!--class SystemUser--><g id="elem_SystemUser"><rect codeLine="58" fill="#F1F1F1" height="196.9688" id="SystemUser" rx="2.5" ry="2.5" style="stroke:#181818;stroke-width:0.5;" width="107" x="414" y="7"/><ellipse cx="429" cy="23" fill="#ADD1B2" rx="11" ry="11" style="stroke:#181818;stroke-width:1.0;"/><path d="M431.7656,18.875 Q431.9219,18.6563 432.1094,18.5469 Q432.2969,18.4375 432.5156,18.4375 Q432.8906,18.4375 433.125,18.7031 Q433.3594,18.9531 433.3594,19.5625 L433.3594,21.0156 Q433.3594,21.625 433.125,21.8906 Q432.8906,22.1563 432.5156,22.1563 Q432.1719,22.1563 431.9688,21.9531 Q431.7656,21.7656 431.6563,21.25 Q431.6094,20.8906 431.4219,20.7031 Q431.0938,20.3281 430.4844,20.1094 Q429.875,19.8906 429.25,19.8906 Q428.4844,19.8906 427.8438,20.2188 Q427.2188,20.5469 426.7188,21.2969 Q426.2344,22.0469 426.2344,23.0781 L426.2344,24.1719 Q426.2344,25.4063 427.125,26.2344 Q428.0156,27.0469 429.6094,27.0469 Q430.5469,27.0469 431.2031,26.7969 Q431.5938,26.6406 432.0156,26.2031 Q432.2813,25.9375 432.4219,25.8594 Q432.5781,25.7813 432.7813,25.7813 Q433.1094,25.7813 433.3594,26.0469 Q433.625,26.2969 433.625,26.6406 Q433.625,26.9844 433.2813,27.3906 Q432.7813,27.9688 431.9844,28.2969 Q430.9063,28.75 429.6094,28.75 Q428.0938,28.75 426.8906,28.125 Q425.9063,27.625 425.2188,26.5625 Q424.5313,25.4844 424.5313,24.2031 L424.5313,23.0469 Q424.5313,21.7188 425.1406,20.5781 Q425.7656,19.4219 426.8594,18.8125 Q427.9531,18.1875 429.1875,18.1875 Q429.9219,18.1875 430.5625,18.3594 Q431.2188,18.5156 431.7656,18.875 Z " fill="#000000"/><text fill="#000000" font-family="sans-serif" font-size="14" lengthAdjust="spacing" textLength="75" x="443" y="28.7969">SystemUser</text><line style="stroke:#181818;stroke-width:0.5;" x1="415" x2="520" y1="39" y2="39"/><text fill="#000000" font-family="sans-serif" font-size="14" lengthAdjust="spacing" textLength="35" x="420" y="58.1074">name</text><text fill="#000000" font-family="sans-serif" font-size="14" lengthAdjust="spacing" textLength="33" x="420" y="76.7285">email</text><text fill="#000000" font-family="sans-serif" font-size="14" lengthAdjust="spacing" textLength="60" x="420" y="95.3496">password</text><text fill="#000000" font-family="sans-serif" font-size="14" lengthAdjust="spacing" textLength="40" x="420" y="113.9707">phone</text><text fill="#000000" font-family="sans-serif" font-size="14" lengthAdjust="spacing" textLength="35" x="420" y="132.5918">name</text><text fill="#000000" font-family="sans-serif" font-size="14" lengthAdjust="spacing" textLength="33" x="420" y="151.2129">email</text><text fill="#000000" font-family="sans-serif" font-size="14" lengthAdjust="spacing" textLength="60" x="420" y="169.834">password</text><text fill="#000000" font-family="sans-serif" font-size="14" lengthAdjust="spacing" textLength="40" x="420" y="188.4551">phone</text><line style="stroke:#181818;stroke-width:0.5;" x1="415" x2="520" y1="195.9688" y2="195.9688"/></g><!--class CollaboratorRepository--><g id="elem_CollaboratorRepository"><rect codeLine="16" fill="#F1F1F1" height="308.6953" id="CollaboratorRepository" rx="2.5" ry="2.5" style="stroke:#181818;stroke-width:0.5;" width="287" x="240" y="596"/><ellipse cx="306.25" cy="612" fill="#ADD1B2" rx="11" ry="11" style="stroke:#181818;stroke-width:1.0;"/><path d="M309.0156,607.875 Q309.1719,607.6563 309.3594,607.5469 Q309.5469,607.4375 309.7656,607.4375 Q310.1406,607.4375 310.375,607.7031 Q310.6094,607.9531 310.6094,608.5625 L310.6094,610.0156 Q310.6094,610.625 310.375,610.8906 Q310.1406,611.1563 309.7656,611.1563 Q309.4219,611.1563 309.2188,610.9531 Q309.0156,610.7656 308.9063,610.25 Q308.8594,609.8906 308.6719,609.7031 Q308.3438,609.3281 307.7344,609.1094 Q307.125,608.8906 306.5,608.8906 Q305.7344,608.8906 305.0938,609.2188 Q304.4688,609.5469 303.9688,610.2969 Q303.4844,611.0469 303.4844,612.0781 L303.4844,613.1719 Q303.4844,614.4063 304.375,615.2344 Q305.2656,616.0469 306.8594,616.0469 Q307.7969,616.0469 308.4531,615.7969 Q308.8438,615.6406 309.2656,615.2031 Q309.5313,614.9375 309.6719,614.8594 Q309.8281,614.7813 310.0313,614.7813 Q310.3594,614.7813 310.6094,615.0469 Q310.875,615.2969 310.875,615.6406 Q310.875,615.9844 310.5313,616.3906 Q310.0313,616.9688 309.2344,617.2969 Q308.1563,617.75 306.8594,617.75 Q305.3438,617.75 304.1406,617.125 Q303.1563,616.625 302.4688,615.5625 Q301.7813,614.4844 301.7813,613.2031 L301.7813,612.0469 Q301.7813,610.7188 302.3906,609.5781 Q303.0156,608.4219 304.1094,607.8125 Q305.2031,607.1875 306.4375,607.1875 Q307.1719,607.1875 307.8125,607.3594 Q308.4688,607.5156 309.0156,607.875 Z " fill="#000000"/><text fill="#000000" font-family="sans-serif" font-size="14" lengthAdjust="spacing" textLength="146" x="326.75" y="617.7969">CollaboratorRepository</text><line style="stroke:#181818;stroke-width:0.5;" x1="241" x2="526" y1="628" y2="628"/><text fill="#000000" font-family="sans-serif" font-size="14" lengthAdjust="spacing" textLength="162" x="246" y="647.1074">-ArrayList collaboratorList</text><text fill="#000000" font-family="sans-serif" font-size="14" lengthAdjust="spacing" textLength="76" x="246" y="665.7285">String name</text><text fill="#000000" font-family="sans-serif" font-size="14" lengthAdjust="spacing" textLength="59" x="246" y="684.3496">int phone</text><text fill="#000000" font-family="sans-serif" font-size="14" lengthAdjust="spacing" textLength="97" x="246" y="702.9707">String birthdate</text><text fill="#000000" font-family="sans-serif" font-size="14" lengthAdjust="spacing" textLength="134" x="246" y="721.5918">String admissionDate</text><text fill="#000000" font-family="sans-serif" font-size="14" lengthAdjust="spacing" textLength="92" x="246" y="740.2129">String address</text><text fill="#000000" font-family="sans-serif" font-size="14" lengthAdjust="spacing" textLength="143" x="246" y="758.834">int idDocumentNumber</text><text fill="#000000" font-family="sans-serif" font-size="14" lengthAdjust="spacing" textLength="45" x="246" y="777.4551">Job job</text><text fill="#000000" font-family="sans-serif" font-size="14" lengthAdjust="spacing" textLength="275" x="246" y="796.0762">DocumentTypeRepository idDocumentType</text><line style="stroke:#181818;stroke-width:0.5;" x1="241" x2="526" y1="803.5898" y2="803.5898"/><text fill="#000000" font-family="sans-serif" font-size="14" lengthAdjust="spacing" textLength="184" x="246" y="822.6973">+getCollaboratorRepository()</text><text fill="#000000" font-family="sans-serif" font-size="14" lengthAdjust="spacing" textLength="123" x="246" y="841.3184">+getCollaborators()</text><text fill="#000000" font-family="sans-serif" font-size="14" lengthAdjust="spacing" textLength="144" x="246" y="859.9395">+registerCollaborator()</text><text fill="#000000" font-family="sans-serif" font-size="14" lengthAdjust="spacing" textLength="92" x="246" y="878.5605">-isValidName()</text><text fill="#000000" font-family="sans-serif" font-size="14" lengthAdjust="spacing" textLength="100" x="246" y="897.1816">+isValidPhone()</text></g><!--class Collaborator--><g id="elem_Collaborator"><rect codeLine="32" fill="#F1F1F1" height="196.9688" id="Collaborator" rx="2.5" ry="2.5" style="stroke:#181818;stroke-width:0.5;" width="136" x="330.5" y="301.5"/><ellipse cx="357.2" cy="317.5" fill="#ADD1B2" rx="11" ry="11" style="stroke:#181818;stroke-width:1.0;"/><path d="M359.9656,313.375 Q360.1219,313.1563 360.3094,313.0469 Q360.4969,312.9375 360.7156,312.9375 Q361.0906,312.9375 361.325,313.2031 Q361.5594,313.4531 361.5594,314.0625 L361.5594,315.5156 Q361.5594,316.125 361.325,316.3906 Q361.0906,316.6563 360.7156,316.6563 Q360.3719,316.6563 360.1688,316.4531 Q359.9656,316.2656 359.8563,315.75 Q359.8094,315.3906 359.6219,315.2031 Q359.2938,314.8281 358.6844,314.6094 Q358.075,314.3906 357.45,314.3906 Q356.6844,314.3906 356.0438,314.7188 Q355.4188,315.0469 354.9188,315.7969 Q354.4344,316.5469 354.4344,317.5781 L354.4344,318.6719 Q354.4344,319.9063 355.325,320.7344 Q356.2156,321.5469 357.8094,321.5469 Q358.7469,321.5469 359.4031,321.2969 Q359.7938,321.1406 360.2156,320.7031 Q360.4813,320.4375 360.6219,320.3594 Q360.7781,320.2813 360.9813,320.2813 Q361.3094,320.2813 361.5594,320.5469 Q361.825,320.7969 361.825,321.1406 Q361.825,321.4844 361.4813,321.8906 Q360.9813,322.4688 360.1844,322.7969 Q359.1063,323.25 357.8094,323.25 Q356.2938,323.25 355.0906,322.625 Q354.1063,322.125 353.4188,321.0625 Q352.7313,319.9844 352.7313,318.7031 L352.7313,317.5469 Q352.7313,316.2188 353.3406,315.0781 Q353.9656,313.9219 355.0594,313.3125 Q356.1531,312.6875 357.3875,312.6875 Q358.1219,312.6875 358.7625,312.8594 Q359.4188,313.0156 359.9656,313.375 Z " fill="#000000"/><text fill="#000000" font-family="sans-serif" font-size="14" lengthAdjust="spacing" textLength="78" x="373.8" y="323.2969">Collaborator</text><line style="stroke:#181818;stroke-width:0.5;" x1="331.5" x2="465.5" y1="333.5" y2="333.5"/><text fill="#000000" font-family="sans-serif" font-size="14" lengthAdjust="spacing" textLength="35" x="336.5" y="352.6074">name</text><text fill="#000000" font-family="sans-serif" font-size="14" lengthAdjust="spacing" textLength="40" x="336.5" y="371.2285">phone</text><text fill="#000000" font-family="sans-serif" font-size="14" lengthAdjust="spacing" textLength="56" x="336.5" y="389.8496">birthdate</text><text fill="#000000" font-family="sans-serif" font-size="14" lengthAdjust="spacing" textLength="93" x="336.5" y="408.4707">admissionDate</text><text fill="#000000" font-family="sans-serif" font-size="14" lengthAdjust="spacing" textLength="51" x="336.5" y="427.0918">address</text><text fill="#000000" font-family="sans-serif" font-size="14" lengthAdjust="spacing" textLength="124" x="336.5" y="445.7129">idDocumentNumber</text><text fill="#000000" font-family="sans-serif" font-size="14" lengthAdjust="spacing" textLength="19" x="336.5" y="464.334">job</text><text fill="#000000" font-family="sans-serif" font-size="14" lengthAdjust="spacing" textLength="107" x="336.5" y="482.9551">idDocumentType</text><line style="stroke:#181818;stroke-width:0.5;" x1="331.5" x2="465.5" y1="490.4688" y2="490.4688"/></g><!--class Repositories--><g id="elem_Repositories"><rect codeLine="44" fill="#F1F1F1" height="234.2109" id="Repositories" rx="2.5" ry="2.5" style="stroke:#181818;stroke-width:0.5;" width="196" x="99.5" y="283"/><ellipse cx="153.75" cy="299" fill="#ADD1B2" rx="11" ry="11" style="stroke:#181818;stroke-width:1.0;"/><path d="M156.5156,294.875 Q156.6719,294.6563 156.8594,294.5469 Q157.0469,294.4375 157.2656,294.4375 Q157.6406,294.4375 157.875,294.7031 Q158.1094,294.9531 158.1094,295.5625 L158.1094,297.0156 Q158.1094,297.625 157.875,297.8906 Q157.6406,298.1563 157.2656,298.1563 Q156.9219,298.1563 156.7188,297.9531 Q156.5156,297.7656 156.4063,297.25 Q156.3594,296.8906 156.1719,296.7031 Q155.8438,296.3281 155.2344,296.1094 Q154.625,295.8906 154,295.8906 Q153.2344,295.8906 152.5938,296.2188 Q151.9688,296.5469 151.4688,297.2969 Q150.9844,298.0469 150.9844,299.0781 L150.9844,300.1719 Q150.9844,301.4063 151.875,302.2344 Q152.7656,303.0469 154.3594,303.0469 Q155.2969,303.0469 155.9531,302.7969 Q156.3438,302.6406 156.7656,302.2031 Q157.0313,301.9375 157.1719,301.8594 Q157.3281,301.7813 157.5313,301.7813 Q157.8594,301.7813 158.1094,302.0469 Q158.375,302.2969 158.375,302.6406 Q158.375,302.9844 158.0313,303.3906 Q157.5313,303.9688 156.7344,304.2969 Q155.6563,304.75 154.3594,304.75 Q152.8438,304.75 151.6406,304.125 Q150.6563,303.625 149.9688,302.5625 Q149.2813,301.4844 149.2813,300.2031 L149.2813,299.0469 Q149.2813,297.7188 149.8906,296.5781 Q150.5156,295.4219 151.6094,294.8125 Q152.7031,294.1875 153.9375,294.1875 Q154.6719,294.1875 155.3125,294.3594 Q155.9688,294.5156 156.5156,294.875 Z " fill="#000000"/><text fill="#000000" font-family="sans-serif" font-size="14" lengthAdjust="spacing" textLength="79" x="174.25" y="304.7969">Repositories</text><line style="stroke:#181818;stroke-width:0.5;" x1="100.5" x2="294.5" y1="315" y2="315"/><text fill="#000000" font-family="sans-serif" font-size="14" lengthAdjust="spacing" textLength="148" x="105.5" y="334.1074">-collaboratorRepository</text><text fill="#000000" font-family="sans-serif" font-size="14" lengthAdjust="spacing" textLength="117" x="105.5" y="352.7285">-vehicleRepository</text><text fill="#000000" font-family="sans-serif" font-size="14" lengthAdjust="spacing" textLength="96" x="105.5" y="371.3496">-skillRepository</text><text fill="#000000" font-family="sans-serif" font-size="14" lengthAdjust="spacing" textLength="92" x="105.5" y="389.9707">-jobRepository</text><line style="stroke:#181818;stroke-width:0.5;" x1="100.5" x2="294.5" y1="397.4844" y2="397.4844"/><text fill="#000000" font-family="sans-serif" font-size="14" lengthAdjust="spacing" textLength="94" x="105.5" y="416.5918">-Repositories()</text><text fill="#000000" font-family="sans-serif" font-size="14" lengthAdjust="spacing" textLength="91" x="105.5" y="435.2129">+getInstance()</text><text fill="#000000" font-family="sans-serif" font-size="14" lengthAdjust="spacing" textLength="184" x="105.5" y="453.834">+getCollaboratorRepository()</text><text fill="#000000" font-family="sans-serif" font-size="14" lengthAdjust="spacing" textLength="152" x="105.5" y="472.4551">+getVehicleRepository()</text><text fill="#000000" font-family="sans-serif" font-size="14" lengthAdjust="spacing" textLength="131" x="105.5" y="491.0762">+getSkillRepository()</text><text fill="#000000" font-family="sans-serif" font-size="14" lengthAdjust="spacing" textLength="128" x="105.5" y="509.6973">+getJobRepository()</text></g><!--class AssignSkillsController--><g id="elem_AssignSkillsController"><rect codeLine="65" fill="#F1F1F1" height="141.1055" id="AssignSkillsController" rx="2.5" ry="2.5" style="stroke:#181818;stroke-width:0.5;" width="196" x="29.5" y="35"/><ellipse cx="57.1" cy="51" fill="#ADD1B2" rx="11" ry="11" style="stroke:#181818;stroke-width:1.0;"/><path d="M59.8656,46.875 Q60.0219,46.6563 60.2094,46.5469 Q60.3969,46.4375 60.6156,46.4375 Q60.9906,46.4375 61.225,46.7031 Q61.4594,46.9531 61.4594,47.5625 L61.4594,49.0156 Q61.4594,49.625 61.225,49.8906 Q60.9906,50.1563 60.6156,50.1563 Q60.2719,50.1563 60.0688,49.9531 Q59.8656,49.7656 59.7563,49.25 Q59.7094,48.8906 59.5219,48.7031 Q59.1938,48.3281 58.5844,48.1094 Q57.975,47.8906 57.35,47.8906 Q56.5844,47.8906 55.9438,48.2188 Q55.3188,48.5469 54.8188,49.2969 Q54.3344,50.0469 54.3344,51.0781 L54.3344,52.1719 Q54.3344,53.4063 55.225,54.2344 Q56.1156,55.0469 57.7094,55.0469 Q58.6469,55.0469 59.3031,54.7969 Q59.6938,54.6406 60.1156,54.2031 Q60.3813,53.9375 60.5219,53.8594 Q60.6781,53.7813 60.8813,53.7813 Q61.2094,53.7813 61.4594,54.0469 Q61.725,54.2969 61.725,54.6406 Q61.725,54.9844 61.3813,55.3906 Q60.8813,55.9688 60.0844,56.2969 Q59.0063,56.75 57.7094,56.75 Q56.1938,56.75 54.9906,56.125 Q54.0063,55.625 53.3188,54.5625 Q52.6313,53.4844 52.6313,52.2031 L52.6313,51.0469 Q52.6313,49.7188 53.2406,48.5781 Q53.8656,47.4219 54.9594,46.8125 Q56.0531,46.1875 57.2875,46.1875 Q58.0219,46.1875 58.6625,46.3594 Q59.3188,46.5156 59.8656,46.875 Z " fill="#000000"/><text fill="#000000" font-family="sans-serif" font-size="14" lengthAdjust="spacing" textLength="136" x="73.9" y="56.7969">AssignSkillsController</text><line style="stroke:#181818;stroke-width:0.5;" x1="30.5" x2="224.5" y1="67" y2="67"/><text fill="#000000" font-family="sans-serif" font-size="14" lengthAdjust="spacing" textLength="98" x="35.5" y="86.1074">-SkillRepository</text><line style="stroke:#181818;stroke-width:0.5;" x1="30.5" x2="224.5" y1="93.6211" y2="93.6211"/><text fill="#000000" font-family="sans-serif" font-size="14" lengthAdjust="spacing" textLength="184" x="35.5" y="112.7285">+getCollaboratorRepository()</text><text fill="#000000" font-family="sans-serif" font-size="14" lengthAdjust="spacing" textLength="131" x="35.5" y="131.3496">+getSkillRepository()</text><text fill="#000000" font-family="sans-serif" font-size="14" lengthAdjust="spacing" textLength="138" x="35.5" y="149.9707">+getCollaboratorList()</text><text fill="#000000" font-family="sans-serif" font-size="14" lengthAdjust="spacing" textLength="92" x="35.5" y="168.5918">+getSkillsList()</text></g><!--class AssignSkillsUI--><g id="elem_AssignSkillsUI"><rect codeLine="74" fill="#F1F1F1" height="48" id="AssignSkillsUI" rx="2.5" ry="2.5" style="stroke:#181818;stroke-width:0.5;" width="118" x="260.5" y="81.5"/><ellipse cx="275.5" cy="97.5" fill="#ADD1B2" rx="11" ry="11" style="stroke:#181818;stroke-width:1.0;"/><path d="M278.2656,93.375 Q278.4219,93.1563 278.6094,93.0469 Q278.7969,92.9375 279.0156,92.9375 Q279.3906,92.9375 279.625,93.2031 Q279.8594,93.4531 279.8594,94.0625 L279.8594,95.5156 Q279.8594,96.125 279.625,96.3906 Q279.3906,96.6563 279.0156,96.6563 Q278.6719,96.6563 278.4688,96.4531 Q278.2656,96.2656 278.1563,95.75 Q278.1094,95.3906 277.9219,95.2031 Q277.5938,94.8281 276.9844,94.6094 Q276.375,94.3906 275.75,94.3906 Q274.9844,94.3906 274.3438,94.7188 Q273.7188,95.0469 273.2188,95.7969 Q272.7344,96.5469 272.7344,97.5781 L272.7344,98.6719 Q272.7344,99.9063 273.625,100.7344 Q274.5156,101.5469 276.1094,101.5469 Q277.0469,101.5469 277.7031,101.2969 Q278.0938,101.1406 278.5156,100.7031 Q278.7813,100.4375 278.9219,100.3594 Q279.0781,100.2813 279.2813,100.2813 Q279.6094,100.2813 279.8594,100.5469 Q280.125,100.7969 280.125,101.1406 Q280.125,101.4844 279.7813,101.8906 Q279.2813,102.4688 278.4844,102.7969 Q277.4063,103.25 276.1094,103.25 Q274.5938,103.25 273.3906,102.625 Q272.4063,102.125 271.7188,101.0625 Q271.0313,99.9844 271.0313,98.7031 L271.0313,97.5469 Q271.0313,96.2188 271.6406,95.0781 Q272.2656,93.9219 273.3594,93.3125 Q274.4531,92.6875 275.6875,92.6875 Q276.4219,92.6875 277.0625,92.8594 Q277.7188,93.0156 278.2656,93.375 Z " fill="#000000"/><text fill="#000000" font-family="sans-serif" font-size="14" lengthAdjust="spacing" textLength="86" x="289.5" y="103.2969">AssignSkillsUI</text><line style="stroke:#181818;stroke-width:0.5;" x1="261.5" x2="377.5" y1="113.5" y2="113.5"/><line style="stroke:#181818;stroke-width:0.5;" x1="261.5" x2="377.5" y1="121.5" y2="121.5"/></g><!--class SkillRepository--><g id="elem_SkillRepository"><rect codeLine="80" fill="#F1F1F1" height="159.7266" id="SkillRepository" rx="2.5" ry="2.5" style="stroke:#181818;stroke-width:0.5;" width="143" x="48" y="670.5"/><ellipse cx="71.1" cy="686.5" fill="#ADD1B2" rx="11" ry="11" style="stroke:#181818;stroke-width:1.0;"/><path d="M73.8656,682.375 Q74.0219,682.1563 74.2094,682.0469 Q74.3969,681.9375 74.6156,681.9375 Q74.9906,681.9375 75.225,682.2031 Q75.4594,682.4531 75.4594,683.0625 L75.4594,684.5156 Q75.4594,685.125 75.225,685.3906 Q74.9906,685.6563 74.6156,685.6563 Q74.2719,685.6563 74.0688,685.4531 Q73.8656,685.2656 73.7563,684.75 Q73.7094,684.3906 73.5219,684.2031 Q73.1938,683.8281 72.5844,683.6094 Q71.975,683.3906 71.35,683.3906 Q70.5844,683.3906 69.9438,683.7188 Q69.3188,684.0469 68.8188,684.7969 Q68.3344,685.5469 68.3344,686.5781 L68.3344,687.6719 Q68.3344,688.9063 69.225,689.7344 Q70.1156,690.5469 71.7094,690.5469 Q72.6469,690.5469 73.3031,690.2969 Q73.6938,690.1406 74.1156,689.7031 Q74.3813,689.4375 74.5219,689.3594 Q74.6781,689.2813 74.8813,689.2813 Q75.2094,689.2813 75.4594,689.5469 Q75.725,689.7969 75.725,690.1406 Q75.725,690.4844 75.3813,690.8906 Q74.8813,691.4688 74.0844,691.7969 Q73.0063,692.25 71.7094,692.25 Q70.1938,692.25 68.9906,691.625 Q68.0063,691.125 67.3188,690.0625 Q66.6313,688.9844 66.6313,687.7031 L66.6313,686.5469 Q66.6313,685.2188 67.2406,684.0781 Q67.8656,682.9219 68.9594,682.3125 Q70.0531,681.6875 71.2875,681.6875 Q72.0219,681.6875 72.6625,681.8594 Q73.3188,682.0156 73.8656,682.375 Z " fill="#000000"/><text fill="#000000" font-family="sans-serif" font-size="14" lengthAdjust="spacing" textLength="93" x="86.9" y="692.2969">SkillRepository</text><line style="stroke:#181818;stroke-width:0.5;" x1="49" x2="190" y1="702.5" y2="702.5"/><text fill="#000000" font-family="sans-serif" font-size="14" lengthAdjust="spacing" textLength="110" x="54" y="721.6074">-ArrayList skillList</text><line style="stroke:#181818;stroke-width:0.5;" x1="49" x2="190" y1="729.1211" y2="729.1211"/><text fill="#000000" font-family="sans-serif" font-size="14" lengthAdjust="spacing" textLength="131" x="54" y="748.2285">+getSkillRepository()</text><text fill="#000000" font-family="sans-serif" font-size="14" lengthAdjust="spacing" textLength="70" x="54" y="766.8496">+getSkills()</text><text fill="#000000" font-family="sans-serif" font-size="14" lengthAdjust="spacing" textLength="91" x="54" y="785.4707">+assignSkills()</text><text fill="#000000" font-family="sans-serif" font-size="14" lengthAdjust="spacing" textLength="79" x="54" y="804.0918">-skillIsValid()</text><text fill="#000000" font-family="sans-serif" font-size="14" lengthAdjust="spacing" textLength="117" x="54" y="822.7129">-isValidSkillName()</text></g><!--class Skill--><g id="elem_Skill"><rect codeLine="89" fill="#F1F1F1" height="66.6211" id="Skill" rx="2.5" ry="2.5" style="stroke:#181818;stroke-width:0.5;" width="57" x="7" y="366.5"/><ellipse cx="22" cy="382.5" fill="#ADD1B2" rx="11" ry="11" style="stroke:#181818;stroke-width:1.0;"/><path d="M24.7656,378.375 Q24.9219,378.1563 25.1094,378.0469 Q25.2969,377.9375 25.5156,377.9375 Q25.8906,377.9375 26.125,378.2031 Q26.3594,378.4531 26.3594,379.0625 L26.3594,380.5156 Q26.3594,381.125 26.125,381.3906 Q25.8906,381.6563 25.5156,381.6563 Q25.1719,381.6563 24.9688,381.4531 Q24.7656,381.2656 24.6563,380.75 Q24.6094,380.3906 24.4219,380.2031 Q24.0938,379.8281 23.4844,379.6094 Q22.875,379.3906 22.25,379.3906 Q21.4844,379.3906 20.8438,379.7188 Q20.2188,380.0469 19.7188,380.7969 Q19.2344,381.5469 19.2344,382.5781 L19.2344,383.6719 Q19.2344,384.9063 20.125,385.7344 Q21.0156,386.5469 22.6094,386.5469 Q23.5469,386.5469 24.2031,386.2969 Q24.5938,386.1406 25.0156,385.7031 Q25.2813,385.4375 25.4219,385.3594 Q25.5781,385.2813 25.7813,385.2813 Q26.1094,385.2813 26.3594,385.5469 Q26.625,385.7969 26.625,386.1406 Q26.625,386.4844 26.2813,386.8906 Q25.7813,387.4688 24.9844,387.7969 Q23.9063,388.25 22.6094,388.25 Q21.0938,388.25 19.8906,387.625 Q18.9063,387.125 18.2188,386.0625 Q17.5313,384.9844 17.5313,383.7031 L17.5313,382.5469 Q17.5313,381.2188 18.1406,380.0781 Q18.7656,378.9219 19.8594,378.3125 Q20.9531,377.6875 22.1875,377.6875 Q22.9219,377.6875 23.5625,377.8594 Q24.2188,378.0156 24.7656,378.375 Z " fill="#000000"/><text fill="#000000" font-family="sans-serif" font-size="14" lengthAdjust="spacing" textLength="25" x="36" y="388.2969">Skill</text><line style="stroke:#181818;stroke-width:0.5;" x1="8" x2="63" y1="398.5" y2="398.5"/><text fill="#000000" font-family="sans-serif" font-size="14" lengthAdjust="spacing" textLength="35" x="13" y="417.6074">name</text><line style="stroke:#181818;stroke-width:0.5;" x1="8" x2="63" y1="425.1211" y2="425.1211"/></g><!--link Repositories to CollaboratorRepository--><g id="link_Repositories_CollaboratorRepository"><path codeLine="92" d="M259.44,517.05 C272.91,542.29 284.5451,564.0866 298.6551,590.5266 " fill="none" id="Repositories-to-CollaboratorRepository" style="stroke:#181818;stroke-width:1.0;"/><polygon fill="#181818" points="301.48,595.82,300.7716,585.9967,299.1259,591.4088,293.7137,589.7632,301.48,595.82" style="stroke:#181818;stroke-width:1.0;"/><text fill="#000000" font-family="sans-serif" font-size="13" lengthAdjust="spacing" textLength="7" x="290.3376" y="584.9587">1</text></g><!--link Repositories to SkillRepository--><g id="link_Repositories_SkillRepository"><path codeLine="93" d="M171.53,517.05 C160.25,567.44 148.6413,619.315 138.4913,664.635 " fill="none" id="Repositories-to-SkillRepository" style="stroke:#181818;stroke-width:1.0;"/><polygon fill="#181818" points="137.18,670.49,143.0502,662.5818,138.2727,665.6109,135.2436,660.8334,137.18,670.49" style="stroke:#181818;stroke-width:1.0;"/><text fill="#000000" font-family="sans-serif" font-size="13" lengthAdjust="spacing" textLength="7" x="131.5315" y="659.1091">1</text></g><!--reverse link Skill to SkillRepository--><g id="link_Skill_SkillRepository"><path codeLine="94" d="M44.8064,439.6229 C57.7564,493.3329 82.44,595.72 100.43,670.37 " fill="none" id="Skill-backto-SkillRepository" style="stroke:#181818;stroke-width:1.0;"/><polygon fill="#181818" points="43.4,433.79,41.621,443.4768,44.572,438.6507,49.3981,441.6017,43.4,433.79" style="stroke:#181818;stroke-width:1.0;"/><text fill="#000000" font-family="sans-serif" font-size="13" lengthAdjust="spacing" textLength="21" x="76.5" y="562.0283">has</text><text fill="#000000" font-family="sans-serif" font-size="13" lengthAdjust="spacing" textLength="5" x="39.3281" y="455.1445">*</text><text fill="#000000" font-family="sans-serif" font-size="13" lengthAdjust="spacing" textLength="7" x="91.3493" y="659.2538">1</text></g><!--reverse link Collaborator to CollaboratorRepository--><g id="link_Collaborator_CollaboratorRepository"><path codeLine="95" d="M394.042,504.5344 C392.742,534.7344 391.54,562.79 390.11,595.84 " fill="none" id="Collaborator-backto-CollaboratorRepository" style="stroke:#181818;stroke-width:1.0;"/><polygon fill="#181818" points="394.3,498.54,389.9166,507.3596,394.085,503.5354,397.9092,507.7037,394.3,498.54" style="stroke:#181818;stroke-width:1.0;"/><text fill="#000000" font-family="sans-serif" font-size="13" lengthAdjust="spacing" textLength="21" x="392.5" y="562.0283">has</text><text fill="#000000" font-family="sans-serif" font-size="13" lengthAdjust="spacing" textLength="5" x="388.808" y="520.4409">*</text><text fill="#000000" font-family="sans-serif" font-size="13" lengthAdjust="spacing" textLength="7" x="383.2606" y="584.9797">1</text></g><!--link Skill to Collaborator--><g id="link_Skill_Collaborator"><path codeLine="96" d="M31.42,366.31 C29.56,333.55 32.83,285.14 63.5,260 C98.75,231.1 294.15,271.28 313.5,283 C321.88,288.07 329.67,294.31 336.87,301.25 " fill="none" id="Skill-Collaborator" style="stroke:#181818;stroke-width:1.0;"/><polygon fill="#000000" points="73.3903,242.6039,63.9314,241.6138,65.1559,247.3626,73.3903,242.6039" style="stroke:#000000;stroke-width:1.0;"/><text fill="#000000" font-family="sans-serif" font-size="13" lengthAdjust="spacing" textLength="79" x="77.5" y="249.0283">is atributed to</text><text fill="#000000" font-family="sans-serif" font-size="13" lengthAdjust="spacing" textLength="20" x="8.736" y="355.3597">1..*</text><text fill="#000000" font-family="sans-serif" font-size="13" lengthAdjust="spacing" textLength="7" x="324.8835" y="290.0793">1</text></g><!--reverse link SystemUser to Collaborator--><g id="link_SystemUser_Collaborator"><path codeLine="97" d="M440.2957,221.8188 C432.9257,253.0488 428.91,270.07 421.55,301.29 " fill="none" id="SystemUser-backto-Collaborator" style="stroke:#181818;stroke-width:1.0;"/><polygon fill="none" points="444.43,204.3,434.4561,220.4407,446.1353,223.1969,444.43,204.3" style="stroke:#181818;stroke-width:1.0;"/></g><!--link AssignSkillsUI to AssignSkillsController--><g id="link_AssignSkillsUI_AssignSkillsController"><path codeLine="98" d="M260.17,105.5 C248.7,105.5 243.22,105.5 231.75,105.5 " fill="none" id="AssignSkillsUI-to-AssignSkillsController" style="stroke:#181818;stroke-width:1.0;stroke-dasharray:7.0,7.0;"/><polygon fill="#181818" points="225.75,105.5,234.75,109.5,230.75,105.5,234.75,101.5,225.75,105.5" style="stroke:#181818;stroke-width:1.0;"/></g><!--link AssignSkillsController to Repositories--><g id="link_AssignSkillsController_Repositories"><path codeLine="99" d="M144.55,176.29 C149.11,195.03 154.01,215.28 158.5,234 C162.27,249.74 164.8446,260.5021 168.7246,276.8521 " fill="none" id="AssignSkillsController-to-Repositories" style="stroke:#181818;stroke-width:1.0;stroke-dasharray:7.0,7.0;"/><polygon fill="#181818" points="170.11,282.69,171.9238,273.0096,168.9555,277.8251,164.14,274.8568,170.11,282.69" style="stroke:#181818;stroke-width:1.0;"/><text fill="#000000" font-family="sans-serif" font-size="13" lengthAdjust="spacing" textLength="67" x="163.5" y="249.0283">repositories</text></g><!--SRC=[dLNBRjim4BppAnO-fJLaD5SZC60a5mT1KDHDxfIqaTXGf43I3LJN_zuL9TFKmorGdwYTsTSibxRlGjNSy0eooQtTEcT4Ud2uoxJQYry8NvWDb4ehdPL6LmXlN5gCe9fdxxp0lMiaWi7CSLN8c61BdkiFeOg9gnGANLCZr5esxSSSfetJZ35V9EmRwx1wiMZWo81-YbVe3rXn8Vsf9kA7DddtKMeAUphxtsifUQeDTzfymrfRGOUcZvN0rXZUF0dh88k8hS4JzYGHjH5o2kNw116Q2kFAdBk1aUULi5PezJ01SeFMXd0YVz3PeKBbdWzLYiO3Zpg57phrvpFydRI9EhZujO1dBg50Dz_mpQTvXWs0mOAwHXEZFPY0iAzSYloPT0WElUrhAmSPJpE27vbNhbFi8jDGcxCW4o5Q0KPTdiAz2Aq9j66QsMplFVWJIv59dDZf1aeviLBooDORuwIneZjbQGaolARo_1nUnmN5u7vOLGmzngKH4AJ_prq9_biQIg5yPdklbJFK0j8Gar4nRFct_fQprOzTsXMBoROtN3OthkPbT_H8U1M6yMVMsKyrxF6_9Eso10kFKeSTy15ttQKVBuQdzjjn6XGPJ-B41hSsIJQBsyML5sgMEfv3bs7nUG5tIG8p35X3oIsBKmpeLrx7pgkFVhjQaSUKlwRcWVV_8Jau3HiMtS2xtvGZvhFXG66rkNBXsBmPLkGnK6LDZzRba_q1]--></g></svg>