<?xml version="1.0" encoding="us-ascii" standalone="no"?><svg xmlns="http://www.w3.org/2000/svg" xmlns:xlink="http://www.w3.org/1999/xlink" contentStyleType="text/css" height="619px" preserveAspectRatio="none" style="width:496px;height:619px;background:#FFFFFF;" version="1.1" viewBox="0 0 496 619" width="496px" zoomAndPan="magnify"><defs/><g><text fill="#000000" font-family="sans-serif" font-size="14" font-weight="bold" lengthAdjust="spacing" textLength="284" x="105" y="30.1074">System Sequence Diagram (SSD) - US003</text><rect fill="#FFFFFF" height="393.7832" style="stroke:#181818;stroke-width:1.0;" width="10" x="18" y="133.2422"/><rect fill="#FFFFFF" height="31.291" style="stroke:#181818;stroke-width:1.0;" width="10" x="453" y="156.5332"/><rect fill="#FFFFFF" height="48.582" style="stroke:#181818;stroke-width:1.0;" width="10" x="453" y="219.1152"/><rect fill="#FFFFFF" height="31.291" style="stroke:#181818;stroke-width:1.0;" width="10" x="453" y="298.9883"/><rect fill="#FFFFFF" height="31.291" style="stroke:#181818;stroke-width:1.0;" width="10" x="453" y="361.5703"/><rect fill="#FFFFFF" height="31.291" style="stroke:#181818;stroke-width:1.0;" width="10" x="453" y="424.1523"/><rect fill="#FFFFFF" height="31.291" style="stroke:#181818;stroke-width:1.0;" width="10" x="453" y="486.7344"/><line style="stroke:#181818;stroke-width:0.5;stroke-dasharray:5.0,5.0;" x1="23" x2="23" y1="123.2422" y2="536.0254"/><line style="stroke:#181818;stroke-width:0.5;stroke-dasharray:5.0,5.0;" x1="458" x2="458" y1="123.2422" y2="536.0254"/><text fill="#000000" font-family="sans-serif" font-size="14" lengthAdjust="spacing" textLength="30" x="5" y="119.7285">HRM</text><ellipse cx="23" cy="53.1211" fill="#E3E3E3" rx="8" ry="8" style="stroke:#181818;stroke-width:0.5;"/><path d="M23,61.1211 L23,88.1211 M10,69.1211 L36,69.1211 M23,88.1211 L10,103.1211 M23,88.1211 L36,103.1211 " fill="none" style="stroke:#181818;stroke-width:0.5;"/><text fill="#000000" font-family="sans-serif" font-size="14" lengthAdjust="spacing" textLength="30" x="5" y="550.1328">HRM</text><ellipse cx="23" cy="562.1465" fill="#E3E3E3" rx="8" ry="8" style="stroke:#181818;stroke-width:0.5;"/><path d="M23,570.1465 L23,597.1465 M10,578.1465 L36,578.1465 M23,597.1465 L10,612.1465 M23,597.1465 L36,612.1465 " fill="none" style="stroke:#181818;stroke-width:0.5;"/><rect fill="#E3E3E3" height="32.6211" rx="2.5" ry="2.5" style="stroke:#181818;stroke-width:0.5;" width="64" x="426" y="89.6211"/><text fill="#000000" font-family="sans-serif" font-size="14" lengthAdjust="spacing" textLength="50" x="433" y="111.7285">:System</text><rect fill="#E3E3E3" height="32.6211" rx="2.5" ry="2.5" style="stroke:#181818;stroke-width:0.5;" width="64" x="426" y="535.0254"/><text fill="#000000" font-family="sans-serif" font-size="14" lengthAdjust="spacing" textLength="50" x="433" y="557.1328">:System</text><rect fill="#FFFFFF" height="393.7832" style="stroke:#181818;stroke-width:1.0;" width="10" x="18" y="133.2422"/><rect fill="#FFFFFF" height="31.291" style="stroke:#181818;stroke-width:1.0;" width="10" x="453" y="156.5332"/><rect fill="#FFFFFF" height="48.582" style="stroke:#181818;stroke-width:1.0;" width="10" x="453" y="219.1152"/><rect fill="#FFFFFF" height="31.291" style="stroke:#181818;stroke-width:1.0;" width="10" x="453" y="298.9883"/><rect fill="#FFFFFF" height="31.291" style="stroke:#181818;stroke-width:1.0;" width="10" x="453" y="361.5703"/><rect fill="#FFFFFF" height="31.291" style="stroke:#181818;stroke-width:1.0;" width="10" x="453" y="424.1523"/><rect fill="#FFFFFF" height="31.291" style="stroke:#181818;stroke-width:1.0;" width="10" x="453" y="486.7344"/><polygon fill="#181818" points="441,152.5332,451,156.5332,441,160.5332,445,156.5332" style="stroke:#181818;stroke-width:1.0;"/><line style="stroke:#181818;stroke-width:1.0;" x1="28" x2="447" y1="156.5332" y2="156.5332"/><text fill="#000000" font-family="sans-serif" font-size="13" font-weight="bold" lengthAdjust="spacing" textLength="7" x="35" y="151.2705">1</text><text fill="#000000" font-family="sans-serif" font-size="13" lengthAdjust="spacing" textLength="172" x="46" y="151.2705">asks to register a collaborator</text><polygon fill="#181818" points="39,183.8242,29,187.8242,39,191.8242,35,187.8242" style="stroke:#181818;stroke-width:1.0;"/><line style="stroke:#181818;stroke-width:1.0;stroke-dasharray:2.0,2.0;" x1="33" x2="457" y1="187.8242" y2="187.8242"/><text fill="#000000" font-family="sans-serif" font-size="13" font-weight="bold" lengthAdjust="spacing" textLength="7" x="45" y="182.5615">2</text><text fill="#000000" font-family="sans-serif" font-size="13" lengthAdjust="spacing" textLength="244" x="56" y="182.5615">shows the jobs list and asks to select one</text><polygon fill="#181818" points="441,215.1152,451,219.1152,441,223.1152,445,219.1152" style="stroke:#181818;stroke-width:1.0;"/><line style="stroke:#181818;stroke-width:1.0;" x1="28" x2="447" y1="219.1152" y2="219.1152"/><text fill="#000000" font-family="sans-serif" font-size="13" font-weight="bold" lengthAdjust="spacing" textLength="7" x="35" y="213.8525">3</text><text fill="#000000" font-family="sans-serif" font-size="13" lengthAdjust="spacing" textLength="74" x="46" y="213.8525">selects a job</text><polygon fill="#181818" points="39,263.6973,29,267.6973,39,271.6973,35,267.6973" style="stroke:#181818;stroke-width:1.0;"/><line style="stroke:#181818;stroke-width:1.0;stroke-dasharray:2.0,2.0;" x1="33" x2="457" y1="267.6973" y2="267.6973"/><text fill="#000000" font-family="sans-serif" font-size="13" font-weight="bold" lengthAdjust="spacing" textLength="7" x="45" y="253.7891">4</text><text fill="#000000" font-family="sans-serif" font-size="13" lengthAdjust="spacing" textLength="386" x="56" y="245.1436">requests data (name, birthday, admission date, address, cellphone</text><text fill="#000000" font-family="sans-serif" font-size="13" lengthAdjust="spacing" textLength="90" x="56" y="262.4346">number, e-mail)</text><polygon fill="#181818" points="441,294.9883,451,298.9883,441,302.9883,445,298.9883" style="stroke:#181818;stroke-width:1.0;"/><line style="stroke:#181818;stroke-width:1.0;" x1="28" x2="447" y1="298.9883" y2="298.9883"/><text fill="#000000" font-family="sans-serif" font-size="13" font-weight="bold" lengthAdjust="spacing" textLength="7" x="35" y="293.7256">5</text><text fill="#000000" font-family="sans-serif" font-size="13" lengthAdjust="spacing" textLength="61" x="46" y="293.7256">types data</text><polygon fill="#181818" points="39,326.2793,29,330.2793,39,334.2793,35,330.2793" style="stroke:#181818;stroke-width:1.0;"/><line style="stroke:#181818;stroke-width:1.0;stroke-dasharray:2.0,2.0;" x1="33" x2="457" y1="330.2793" y2="330.2793"/><text fill="#000000" font-family="sans-serif" font-size="13" font-weight="bold" lengthAdjust="spacing" textLength="7" x="45" y="325.0166">6</text><text fill="#000000" font-family="sans-serif" font-size="13" lengthAdjust="spacing" textLength="310" x="56" y="325.0166">shows the  id document types and asks to select one</text><polygon fill="#181818" points="441,357.5703,451,361.5703,441,365.5703,445,361.5703" style="stroke:#181818;stroke-width:1.0;"/><line style="stroke:#181818;stroke-width:1.0;" x1="28" x2="447" y1="361.5703" y2="361.5703"/><text fill="#000000" font-family="sans-serif" font-size="13" font-weight="bold" lengthAdjust="spacing" textLength="7" x="35" y="356.3076">7</text><text fill="#000000" font-family="sans-serif" font-size="13" lengthAdjust="spacing" textLength="164" x="46" y="356.3076">selects an id document type</text><polygon fill="#181818" points="39,388.8613,29,392.8613,39,396.8613,35,392.8613" style="stroke:#181818;stroke-width:1.0;"/><line style="stroke:#181818;stroke-width:1.0;stroke-dasharray:2.0,2.0;" x1="33" x2="457" y1="392.8613" y2="392.8613"/><text fill="#000000" font-family="sans-serif" font-size="13" font-weight="bold" lengthAdjust="spacing" textLength="7" x="45" y="387.5986">8</text><text fill="#000000" font-family="sans-serif" font-size="13" lengthAdjust="spacing" textLength="181" x="56" y="387.5986">requests id document's number</text><polygon fill="#181818" points="441,420.1523,451,424.1523,441,428.1523,445,424.1523" style="stroke:#181818;stroke-width:1.0;"/><line style="stroke:#181818;stroke-width:1.0;" x1="28" x2="447" y1="424.1523" y2="424.1523"/><text fill="#000000" font-family="sans-serif" font-size="13" font-weight="bold" lengthAdjust="spacing" textLength="7" x="35" y="418.8896">9</text><text fill="#000000" font-family="sans-serif" font-size="13" lengthAdjust="spacing" textLength="79" x="46" y="418.8896">types number</text><polygon fill="#181818" points="39,451.4434,29,455.4434,39,459.4434,35,455.4434" style="stroke:#181818;stroke-width:1.0;"/><line style="stroke:#181818;stroke-width:1.0;stroke-dasharray:2.0,2.0;" x1="33" x2="457" y1="455.4434" y2="455.4434"/><text fill="#000000" font-family="sans-serif" font-size="13" font-weight="bold" lengthAdjust="spacing" textLength="14" x="45" y="450.1807">10</text><text fill="#000000" font-family="sans-serif" font-size="13" lengthAdjust="spacing" textLength="236" x="63" y="450.1807">shows all data and requests confirmation</text><polygon fill="#181818" points="441,482.7344,451,486.7344,441,490.7344,445,486.7344" style="stroke:#181818;stroke-width:1.0;"/><line style="stroke:#181818;stroke-width:1.0;" x1="28" x2="447" y1="486.7344" y2="486.7344"/><text fill="#000000" font-family="sans-serif" font-size="13" font-weight="bold" lengthAdjust="spacing" textLength="14" x="35" y="481.4717">11</text><text fill="#000000" font-family="sans-serif" font-size="13" lengthAdjust="spacing" textLength="78" x="53" y="481.4717">confirms data</text><polygon fill="#181818" points="39,514.0254,29,518.0254,39,522.0254,35,518.0254" style="stroke:#181818;stroke-width:1.0;"/><line style="stroke:#181818;stroke-width:1.0;stroke-dasharray:2.0,2.0;" x1="33" x2="457" y1="518.0254" y2="518.0254"/><text fill="#000000" font-family="sans-serif" font-size="13" font-weight="bold" lengthAdjust="spacing" textLength="14" x="45" y="512.7627">12</text><text fill="#000000" font-family="sans-serif" font-size="13" lengthAdjust="spacing" textLength="158" x="63" y="512.7627">displays operation success</text><!--SRC=[hP8_JyCm4CNtV8fJ5uhKIfNOEZ21nC92nCPojO_4rFO5dqELRyybQGE2LlprvCJttltyVB9riS640G97DdNYG91JIuLC9msQBLPKviuJ938PO-NV5qYDbdSkLl28NgWeiijQMdQIAK19por5Gt3biEhBvsLvTGvBk2zNgukYm3PpRCE6akvDvWIpcxlR6Q30TMWyTqI5zidEk0PZXjbwD1ugnkqWT2-OwKrIWAx35oml3pXhbMq5CkjLAgU_4Y0OzXutd53R3yB9xz00zcllibJ3oNoj2V1EFMk29zu8UFK5Z7Pg9UGrD-18Wv6be_v7QKUfAAHQdsOxpfNwx4NL5ZF2F6AW1MnSohN5RW5eWnDn7Fjpwhzj8f456FA-gHKN7kBuDWkWPK3dptzyWTmrD0ByBLbm5YoRDf0EmMZwtn77JpqckfFOtmZ_dUcPm7xM3zgVH_d1u1TaOwZe_JWNVOmJhE7uw5B0h6FnAyYzmLTFVfpCEcayTWBSK1eOG5fZT2XFlEeh]--></g></svg>