<?xml version="1.0" encoding="us-ascii" standalone="no"?><svg xmlns="http://www.w3.org/2000/svg" xmlns:xlink="http://www.w3.org/1999/xlink" contentStyleType="text/css" height="912px" preserveAspectRatio="none" style="width:894px;height:912px;background:#FFFFFF;" version="1.1" viewBox="0 0 894 912" width="894px" zoomAndPan="magnify"><defs/><g><text fill="#000000" font-family="sans-serif" font-size="14" font-weight="bold" lengthAdjust="spacing" textLength="99" x="390.5" y="25.1074">Class Diagram</text><!--class ToDoEntry--><g id="elem_ToDoEntry"><rect codeLine="8" fill="#F1F1F1" height="141.1055" id="ToDoEntry" rx="2.5" ry="2.5" style="stroke:#181818;stroke-width:0.5;" width="123" x="764" y="46.6211"/><ellipse cx="789.35" cy="62.6211" fill="#ADD1B2" rx="11" ry="11" style="stroke:#181818;stroke-width:1.0;"/><path d="M792.1156,58.4961 Q792.2719,58.2773 792.4594,58.168 Q792.6469,58.0586 792.8656,58.0586 Q793.2406,58.0586 793.475,58.3242 Q793.7094,58.5742 793.7094,59.1836 L793.7094,60.6367 Q793.7094,61.2461 793.475,61.5117 Q793.2406,61.7773 792.8656,61.7773 Q792.5219,61.7773 792.3188,61.5742 Q792.1156,61.3867 792.0063,60.8711 Q791.9594,60.5117 791.7719,60.3242 Q791.4438,59.9492 790.8344,59.7305 Q790.225,59.5117 789.6,59.5117 Q788.8344,59.5117 788.1938,59.8398 Q787.5688,60.168 787.0688,60.918 Q786.5844,61.668 786.5844,62.6992 L786.5844,63.793 Q786.5844,65.0273 787.475,65.8555 Q788.3656,66.668 789.9594,66.668 Q790.8969,66.668 791.5531,66.418 Q791.9438,66.2617 792.3656,65.8242 Q792.6313,65.5586 792.7719,65.4805 Q792.9281,65.4023 793.1313,65.4023 Q793.4594,65.4023 793.7094,65.668 Q793.975,65.918 793.975,66.2617 Q793.975,66.6055 793.6313,67.0117 Q793.1313,67.5898 792.3344,67.918 Q791.2563,68.3711 789.9594,68.3711 Q788.4438,68.3711 787.2406,67.7461 Q786.2563,67.2461 785.5688,66.1836 Q784.8813,65.1055 784.8813,63.8242 L784.8813,62.668 Q784.8813,61.3398 785.4906,60.1992 Q786.1156,59.043 787.2094,58.4336 Q788.3031,57.8086 789.5375,57.8086 Q790.2719,57.8086 790.9125,57.9805 Q791.5688,58.1367 792.1156,58.4961 Z " fill="#000000"/><text fill="#000000" font-family="sans-serif" font-size="14" lengthAdjust="spacing" textLength="68" x="805.65" y="68.418">ToDoEntry</text><line style="stroke:#181818;stroke-width:0.5;" x1="765" x2="886" y1="78.6211" y2="78.6211"/><text fill="#000000" font-family="sans-serif" font-size="14" lengthAdjust="spacing" textLength="77" x="770" y="97.7285">greenSpace</text><text fill="#000000" font-family="sans-serif" font-size="14" lengthAdjust="spacing" textLength="69" x="770" y="116.3496">description</text><text fill="#000000" font-family="sans-serif" font-size="14" lengthAdjust="spacing" textLength="98" x="770" y="134.9707">urgencyDegree</text><text fill="#000000" font-family="sans-serif" font-size="14" lengthAdjust="spacing" textLength="38" x="770" y="153.5918">status</text><text fill="#000000" font-family="sans-serif" font-size="14" lengthAdjust="spacing" textLength="111" x="770" y="172.2129">expectedDuration</text><line style="stroke:#181818;stroke-width:0.5;" x1="765" x2="886" y1="179.7266" y2="179.7266"/></g><!--class SystemUser--><g id="elem_SystemUser"><rect codeLine="18" fill="#F1F1F1" height="122.4844" id="SystemUser" rx="2.5" ry="2.5" style="stroke:#181818;stroke-width:0.5;" width="107" x="7" y="56.1211"/><ellipse cx="22" cy="72.1211" fill="#ADD1B2" rx="11" ry="11" style="stroke:#181818;stroke-width:1.0;"/><path d="M24.7656,67.9961 Q24.9219,67.7773 25.1094,67.668 Q25.2969,67.5586 25.5156,67.5586 Q25.8906,67.5586 26.125,67.8242 Q26.3594,68.0742 26.3594,68.6836 L26.3594,70.1367 Q26.3594,70.7461 26.125,71.0117 Q25.8906,71.2773 25.5156,71.2773 Q25.1719,71.2773 24.9688,71.0742 Q24.7656,70.8867 24.6563,70.3711 Q24.6094,70.0117 24.4219,69.8242 Q24.0938,69.4492 23.4844,69.2305 Q22.875,69.0117 22.25,69.0117 Q21.4844,69.0117 20.8438,69.3398 Q20.2188,69.668 19.7188,70.418 Q19.2344,71.168 19.2344,72.1992 L19.2344,73.293 Q19.2344,74.5273 20.125,75.3555 Q21.0156,76.168 22.6094,76.168 Q23.5469,76.168 24.2031,75.918 Q24.5938,75.7617 25.0156,75.3242 Q25.2813,75.0586 25.4219,74.9805 Q25.5781,74.9023 25.7813,74.9023 Q26.1094,74.9023 26.3594,75.168 Q26.625,75.418 26.625,75.7617 Q26.625,76.1055 26.2813,76.5117 Q25.7813,77.0898 24.9844,77.418 Q23.9063,77.8711 22.6094,77.8711 Q21.0938,77.8711 19.8906,77.2461 Q18.9063,76.7461 18.2188,75.6836 Q17.5313,74.6055 17.5313,73.3242 L17.5313,72.168 Q17.5313,70.8398 18.1406,69.6992 Q18.7656,68.543 19.8594,67.9336 Q20.9531,67.3086 22.1875,67.3086 Q22.9219,67.3086 23.5625,67.4805 Q24.2188,67.6367 24.7656,67.9961 Z " fill="#000000"/><text fill="#000000" font-family="sans-serif" font-size="14" lengthAdjust="spacing" textLength="75" x="36" y="77.918">SystemUser</text><line style="stroke:#181818;stroke-width:0.5;" x1="8" x2="113" y1="88.1211" y2="88.1211"/><text fill="#000000" font-family="sans-serif" font-size="14" lengthAdjust="spacing" textLength="35" x="13" y="107.2285">name</text><text fill="#000000" font-family="sans-serif" font-size="14" lengthAdjust="spacing" textLength="33" x="13" y="125.8496">email</text><text fill="#000000" font-family="sans-serif" font-size="14" lengthAdjust="spacing" textLength="60" x="13" y="144.4707">password</text><text fill="#000000" font-family="sans-serif" font-size="14" lengthAdjust="spacing" textLength="40" x="13" y="163.0918">phone</text><line style="stroke:#181818;stroke-width:0.5;" x1="8" x2="113" y1="170.6055" y2="170.6055"/></g><!--class ToDoEntryRepository--><g id="elem_ToDoEntryRepository"><rect codeLine="26" fill="#F1F1F1" height="122.4844" id="ToDoEntryRepository" rx="2.5" ry="2.5" style="stroke:#181818;stroke-width:0.5;" width="209" x="604" y="782.6211"/><ellipse cx="637.45" cy="798.6211" fill="#ADD1B2" rx="11" ry="11" style="stroke:#181818;stroke-width:1.0;"/><path d="M640.2156,794.4961 Q640.3719,794.2773 640.5594,794.168 Q640.7469,794.0586 640.9656,794.0586 Q641.3406,794.0586 641.575,794.3242 Q641.8094,794.5742 641.8094,795.1836 L641.8094,796.6367 Q641.8094,797.2461 641.575,797.5117 Q641.3406,797.7773 640.9656,797.7773 Q640.6219,797.7773 640.4188,797.5742 Q640.2156,797.3867 640.1063,796.8711 Q640.0594,796.5117 639.8719,796.3242 Q639.5438,795.9492 638.9344,795.7305 Q638.325,795.5117 637.7,795.5117 Q636.9344,795.5117 636.2938,795.8398 Q635.6688,796.168 635.1688,796.918 Q634.6844,797.668 634.6844,798.6992 L634.6844,799.793 Q634.6844,801.0273 635.575,801.8555 Q636.4656,802.668 638.0594,802.668 Q638.9969,802.668 639.6531,802.418 Q640.0438,802.2617 640.4656,801.8242 Q640.7313,801.5586 640.8719,801.4805 Q641.0281,801.4023 641.2313,801.4023 Q641.5594,801.4023 641.8094,801.668 Q642.075,801.918 642.075,802.2617 Q642.075,802.6055 641.7313,803.0117 Q641.2313,803.5898 640.4344,803.918 Q639.3563,804.3711 638.0594,804.3711 Q636.5438,804.3711 635.3406,803.7461 Q634.3563,803.2461 633.6688,802.1836 Q632.9813,801.1055 632.9813,799.8242 L632.9813,798.668 Q632.9813,797.3398 633.5906,796.1992 Q634.2156,795.043 635.3094,794.4336 Q636.4031,793.8086 637.6375,793.8086 Q638.3719,793.8086 639.0125,793.9805 Q639.6688,794.1367 640.2156,794.4961 Z " fill="#000000"/><text fill="#000000" font-family="sans-serif" font-size="14" lengthAdjust="spacing" textLength="136" x="655.55" y="804.418">ToDoEntryRepository</text><line style="stroke:#181818;stroke-width:0.5;" x1="605" x2="812" y1="814.6211" y2="814.6211"/><text fill="#000000" font-family="sans-serif" font-size="14" lengthAdjust="spacing" textLength="90" x="610" y="833.7285">-toDoEntryList</text><line style="stroke:#181818;stroke-width:0.5;" x1="605" x2="812" y1="841.2422" y2="841.2422"/><text fill="#000000" font-family="sans-serif" font-size="14" lengthAdjust="spacing" textLength="128" x="610" y="860.3496">+getToDoEntryList()</text><text fill="#000000" font-family="sans-serif" font-size="14" lengthAdjust="spacing" textLength="197" x="610" y="878.9707">+registerToDoEntry(toDoEntry)</text><text fill="#000000" font-family="sans-serif" font-size="14" lengthAdjust="spacing" textLength="195" x="610" y="897.5918">-toDoEntryIsUnique(toDoEntry)</text></g><!--class Repositories--><g id="elem_Repositories"><rect codeLine="34" fill="#F1F1F1" height="159.7266" id="Repositories" rx="2.5" ry="2.5" style="stroke:#181818;stroke-width:0.5;" width="198" x="361.5" y="561.6211"/><ellipse cx="416.75" cy="577.6211" fill="#ADD1B2" rx="11" ry="11" style="stroke:#181818;stroke-width:1.0;"/><path d="M419.5156,573.4961 Q419.6719,573.2773 419.8594,573.168 Q420.0469,573.0586 420.2656,573.0586 Q420.6406,573.0586 420.875,573.3242 Q421.1094,573.5742 421.1094,574.1836 L421.1094,575.6367 Q421.1094,576.2461 420.875,576.5117 Q420.6406,576.7773 420.2656,576.7773 Q419.9219,576.7773 419.7188,576.5742 Q419.5156,576.3867 419.4063,575.8711 Q419.3594,575.5117 419.1719,575.3242 Q418.8438,574.9492 418.2344,574.7305 Q417.625,574.5117 417,574.5117 Q416.2344,574.5117 415.5938,574.8398 Q414.9688,575.168 414.4688,575.918 Q413.9844,576.668 413.9844,577.6992 L413.9844,578.793 Q413.9844,580.0273 414.875,580.8555 Q415.7656,581.668 417.3594,581.668 Q418.2969,581.668 418.9531,581.418 Q419.3438,581.2617 419.7656,580.8242 Q420.0313,580.5586 420.1719,580.4805 Q420.3281,580.4023 420.5313,580.4023 Q420.8594,580.4023 421.1094,580.668 Q421.375,580.918 421.375,581.2617 Q421.375,581.6055 421.0313,582.0117 Q420.5313,582.5898 419.7344,582.918 Q418.6563,583.3711 417.3594,583.3711 Q415.8438,583.3711 414.6406,582.7461 Q413.6563,582.2461 412.9688,581.1836 Q412.2813,580.1055 412.2813,578.8242 L412.2813,577.668 Q412.2813,576.3398 412.8906,575.1992 Q413.5156,574.043 414.6094,573.4336 Q415.7031,572.8086 416.9375,572.8086 Q417.6719,572.8086 418.3125,572.9805 Q418.9688,573.1367 419.5156,573.4961 Z " fill="#000000"/><text fill="#000000" font-family="sans-serif" font-size="14" lengthAdjust="spacing" textLength="79" x="437.25" y="583.418">Repositories</text><line style="stroke:#181818;stroke-width:0.5;" x1="362.5" x2="558.5" y1="593.6211" y2="593.6211"/><text fill="#000000" font-family="sans-serif" font-size="14" lengthAdjust="spacing" textLength="150" x="367.5" y="612.7285">-greenSpaceRepository</text><text fill="#000000" font-family="sans-serif" font-size="14" lengthAdjust="spacing" textLength="136" x="367.5" y="631.3496">-toDoEntryRepository</text><line style="stroke:#181818;stroke-width:0.5;" x1="362.5" x2="558.5" y1="638.8633" y2="638.8633"/><text fill="#000000" font-family="sans-serif" font-size="14" lengthAdjust="spacing" textLength="94" x="367.5" y="657.9707">-Repositories()</text><text fill="#000000" font-family="sans-serif" font-size="14" lengthAdjust="spacing" textLength="91" x="367.5" y="676.5918">+getInstance()</text><text fill="#000000" font-family="sans-serif" font-size="14" lengthAdjust="spacing" textLength="186" x="367.5" y="695.2129">+getGreenSpaceRepository()</text><text fill="#000000" font-family="sans-serif" font-size="14" lengthAdjust="spacing" textLength="174" x="367.5" y="713.834">+getToDoEntryRepository()</text></g><!--class ToDoEntryMapper--><g id="elem_ToDoEntryMapper"><rect codeLine="44" fill="#F1F1F1" height="103.8633" id="ToDoEntryMapper" rx="2.5" ry="2.5" style="stroke:#181818;stroke-width:0.5;" width="171" x="653" y="322.6211"/><ellipse cx="678.35" cy="338.6211" fill="#ADD1B2" rx="11" ry="11" style="stroke:#181818;stroke-width:1.0;"/><path d="M681.1156,334.4961 Q681.2719,334.2773 681.4594,334.168 Q681.6469,334.0586 681.8656,334.0586 Q682.2406,334.0586 682.475,334.3242 Q682.7094,334.5742 682.7094,335.1836 L682.7094,336.6367 Q682.7094,337.2461 682.475,337.5117 Q682.2406,337.7773 681.8656,337.7773 Q681.5219,337.7773 681.3188,337.5742 Q681.1156,337.3867 681.0063,336.8711 Q680.9594,336.5117 680.7719,336.3242 Q680.4438,335.9492 679.8344,335.7305 Q679.225,335.5117 678.6,335.5117 Q677.8344,335.5117 677.1938,335.8398 Q676.5688,336.168 676.0688,336.918 Q675.5844,337.668 675.5844,338.6992 L675.5844,339.793 Q675.5844,341.0273 676.475,341.8555 Q677.3656,342.668 678.9594,342.668 Q679.8969,342.668 680.5531,342.418 Q680.9438,342.2617 681.3656,341.8242 Q681.6313,341.5586 681.7719,341.4805 Q681.9281,341.4023 682.1313,341.4023 Q682.4594,341.4023 682.7094,341.668 Q682.975,341.918 682.975,342.2617 Q682.975,342.6055 682.6313,343.0117 Q682.1313,343.5898 681.3344,343.918 Q680.2563,344.3711 678.9594,344.3711 Q677.4438,344.3711 676.2406,343.7461 Q675.2563,343.2461 674.5688,342.1836 Q673.8813,341.1055 673.8813,339.8242 L673.8813,338.668 Q673.8813,337.3398 674.4906,336.1992 Q675.1156,335.043 676.2094,334.4336 Q677.3031,333.8086 678.5375,333.8086 Q679.2719,333.8086 679.9125,333.9805 Q680.5688,334.1367 681.1156,334.4961 Z " fill="#000000"/><text fill="#000000" font-family="sans-serif" font-size="14" lengthAdjust="spacing" textLength="116" x="694.65" y="344.418">ToDoEntryMapper</text><line style="stroke:#181818;stroke-width:0.5;" x1="654" x2="823" y1="354.6211" y2="354.6211"/><line style="stroke:#181818;stroke-width:0.5;" x1="654" x2="823" y1="362.6211" y2="362.6211"/><text fill="#000000" font-family="sans-serif" font-size="14" lengthAdjust="spacing" textLength="123" x="659" y="381.7285">+toDTO(toDoEntry)</text><text fill="#000000" font-family="sans-serif" font-size="14" lengthAdjust="spacing" textLength="158" x="659" y="400.3496">+toEntity(toDoEntryDTO)</text><text fill="#000000" font-family="sans-serif" font-size="14" lengthAdjust="spacing" textLength="159" x="659" y="418.9707">+toDtoList(toDoEntryList)</text></g><!--class RegisterToDoEntryController--><g id="elem_RegisterToDoEntryController"><rect codeLine="51" fill="#F1F1F1" height="215.5898" id="RegisterToDoEntryController" rx="2.5" ry="2.5" style="stroke:#181818;stroke-width:0.5;" width="314" x="303.5" y="266.6211"/><ellipse cx="364.75" cy="282.6211" fill="#ADD1B2" rx="11" ry="11" style="stroke:#181818;stroke-width:1.0;"/><path d="M367.5156,278.4961 Q367.6719,278.2773 367.8594,278.168 Q368.0469,278.0586 368.2656,278.0586 Q368.6406,278.0586 368.875,278.3242 Q369.1094,278.5742 369.1094,279.1836 L369.1094,280.6367 Q369.1094,281.2461 368.875,281.5117 Q368.6406,281.7773 368.2656,281.7773 Q367.9219,281.7773 367.7188,281.5742 Q367.5156,281.3867 367.4063,280.8711 Q367.3594,280.5117 367.1719,280.3242 Q366.8438,279.9492 366.2344,279.7305 Q365.625,279.5117 365,279.5117 Q364.2344,279.5117 363.5938,279.8398 Q362.9688,280.168 362.4688,280.918 Q361.9844,281.668 361.9844,282.6992 L361.9844,283.793 Q361.9844,285.0273 362.875,285.8555 Q363.7656,286.668 365.3594,286.668 Q366.2969,286.668 366.9531,286.418 Q367.3438,286.2617 367.7656,285.8242 Q368.0313,285.5586 368.1719,285.4805 Q368.3281,285.4023 368.5313,285.4023 Q368.8594,285.4023 369.1094,285.668 Q369.375,285.918 369.375,286.2617 Q369.375,286.6055 369.0313,287.0117 Q368.5313,287.5898 367.7344,287.918 Q366.6563,288.3711 365.3594,288.3711 Q363.8438,288.3711 362.6406,287.7461 Q361.6563,287.2461 360.9688,286.1836 Q360.2813,285.1055 360.2813,283.8242 L360.2813,282.668 Q360.2813,281.3398 360.8906,280.1992 Q361.5156,279.043 362.6094,278.4336 Q363.7031,277.8086 364.9375,277.8086 Q365.6719,277.8086 366.3125,277.9805 Q366.9688,278.1367 367.5156,278.4961 Z " fill="#000000"/><text fill="#000000" font-family="sans-serif" font-size="14" lengthAdjust="spacing" textLength="183" x="385.25" y="288.418">RegisterToDoEntryController</text><line style="stroke:#181818;stroke-width:0.5;" x1="304.5" x2="616.5" y1="298.6211" y2="298.6211"/><text fill="#000000" font-family="sans-serif" font-size="14" lengthAdjust="spacing" textLength="276" x="309.5" y="317.7285">-ToDoEntryRepository toDoEntryRepository</text><text fill="#000000" font-family="sans-serif" font-size="14" lengthAdjust="spacing" textLength="302" x="309.5" y="336.3496">-GreenSpaceRepository greenSpaceRepository</text><text fill="#000000" font-family="sans-serif" font-size="14" lengthAdjust="spacing" textLength="236" x="309.5" y="354.9707">-ToDoEntryMapper toDoEntryMapper</text><text fill="#000000" font-family="sans-serif" font-size="14" lengthAdjust="spacing" textLength="262" x="309.5" y="373.5918">-GreenSpaceMapper greenSpaceMapper</text><line style="stroke:#181818;stroke-width:0.5;" x1="304.5" x2="616.5" y1="381.1055" y2="381.1055"/><text fill="#000000" font-family="sans-serif" font-size="14" lengthAdjust="spacing" textLength="227" x="309.5" y="400.2129">+registerToDoEntry(toDoEntryDTO)</text><text fill="#000000" font-family="sans-serif" font-size="14" lengthAdjust="spacing" textLength="165" x="309.5" y="418.834">+getToDoEntryDTOsList()</text><text fill="#000000" font-family="sans-serif" font-size="14" lengthAdjust="spacing" textLength="125" x="309.5" y="437.4551">-getToDoEntryList()</text><text fill="#000000" font-family="sans-serif" font-size="14" lengthAdjust="spacing" textLength="171" x="309.5" y="456.0762">-getToDoEntryRepository()</text><text fill="#000000" font-family="sans-serif" font-size="14" lengthAdjust="spacing" textLength="183" x="309.5" y="474.6973">-getGreenSpaceRepository()</text></g><!--class RegisterToDoEntryGUI--><g id="elem_RegisterToDoEntryGUI"><rect codeLine="64" fill="#F1F1F1" height="48" id="RegisterToDoEntryGUI" rx="2.5" ry="2.5" style="stroke:#181818;stroke-width:0.5;" width="176" x="92.5" y="350.6211"/><ellipse cx="107.5" cy="366.6211" fill="#ADD1B2" rx="11" ry="11" style="stroke:#181818;stroke-width:1.0;"/><path d="M110.2656,362.4961 Q110.4219,362.2773 110.6094,362.168 Q110.7969,362.0586 111.0156,362.0586 Q111.3906,362.0586 111.625,362.3242 Q111.8594,362.5742 111.8594,363.1836 L111.8594,364.6367 Q111.8594,365.2461 111.625,365.5117 Q111.3906,365.7773 111.0156,365.7773 Q110.6719,365.7773 110.4688,365.5742 Q110.2656,365.3867 110.1563,364.8711 Q110.1094,364.5117 109.9219,364.3242 Q109.5938,363.9492 108.9844,363.7305 Q108.375,363.5117 107.75,363.5117 Q106.9844,363.5117 106.3438,363.8398 Q105.7188,364.168 105.2188,364.918 Q104.7344,365.668 104.7344,366.6992 L104.7344,367.793 Q104.7344,369.0273 105.625,369.8555 Q106.5156,370.668 108.1094,370.668 Q109.0469,370.668 109.7031,370.418 Q110.0938,370.2617 110.5156,369.8242 Q110.7813,369.5586 110.9219,369.4805 Q111.0781,369.4023 111.2813,369.4023 Q111.6094,369.4023 111.8594,369.668 Q112.125,369.918 112.125,370.2617 Q112.125,370.6055 111.7813,371.0117 Q111.2813,371.5898 110.4844,371.918 Q109.4063,372.3711 108.1094,372.3711 Q106.5938,372.3711 105.3906,371.7461 Q104.4063,371.2461 103.7188,370.1836 Q103.0313,369.1055 103.0313,367.8242 L103.0313,366.668 Q103.0313,365.3398 103.6406,364.1992 Q104.2656,363.043 105.3594,362.4336 Q106.4531,361.8086 107.6875,361.8086 Q108.4219,361.8086 109.0625,361.9805 Q109.7188,362.1367 110.2656,362.4961 Z " fill="#000000"/><text fill="#000000" font-family="sans-serif" font-size="14" lengthAdjust="spacing" textLength="144" x="121.5" y="372.418">RegisterToDoEntryGUI</text><line style="stroke:#181818;stroke-width:0.5;" x1="93.5" x2="267.5" y1="382.6211" y2="382.6211"/><line style="stroke:#181818;stroke-width:0.5;" x1="93.5" x2="267.5" y1="390.6211" y2="390.6211"/></g><!--class GSM--><g id="elem_GSM"><rect fill="#F1F1F1" height="48" id="GSM" rx="2.5" ry="2.5" style="stroke:#181818;stroke-width:0.5;" width="63" x="149" y="93.1211"/><ellipse cx="164" cy="109.1211" fill="#ADD1B2" rx="11" ry="11" style="stroke:#181818;stroke-width:1.0;"/><path d="M166.7656,104.9961 Q166.9219,104.7773 167.1094,104.668 Q167.2969,104.5586 167.5156,104.5586 Q167.8906,104.5586 168.125,104.8242 Q168.3594,105.0742 168.3594,105.6836 L168.3594,107.1367 Q168.3594,107.7461 168.125,108.0117 Q167.8906,108.2773 167.5156,108.2773 Q167.1719,108.2773 166.9688,108.0742 Q166.7656,107.8867 166.6563,107.3711 Q166.6094,107.0117 166.4219,106.8242 Q166.0938,106.4492 165.4844,106.2305 Q164.875,106.0117 164.25,106.0117 Q163.4844,106.0117 162.8438,106.3398 Q162.2188,106.668 161.7188,107.418 Q161.2344,108.168 161.2344,109.1992 L161.2344,110.293 Q161.2344,111.5273 162.125,112.3555 Q163.0156,113.168 164.6094,113.168 Q165.5469,113.168 166.2031,112.918 Q166.5938,112.7617 167.0156,112.3242 Q167.2813,112.0586 167.4219,111.9805 Q167.5781,111.9023 167.7813,111.9023 Q168.1094,111.9023 168.3594,112.168 Q168.625,112.418 168.625,112.7617 Q168.625,113.1055 168.2813,113.5117 Q167.7813,114.0898 166.9844,114.418 Q165.9063,114.8711 164.6094,114.8711 Q163.0938,114.8711 161.8906,114.2461 Q160.9063,113.7461 160.2188,112.6836 Q159.5313,111.6055 159.5313,110.3242 L159.5313,109.168 Q159.5313,107.8398 160.1406,106.6992 Q160.7656,105.543 161.8594,104.9336 Q162.9531,104.3086 164.1875,104.3086 Q164.9219,104.3086 165.5625,104.4805 Q166.2188,104.6367 166.7656,104.9961 Z " fill="#000000"/><text fill="#000000" font-family="sans-serif" font-size="14" lengthAdjust="spacing" textLength="31" x="178" y="114.918">GSM</text><line style="stroke:#181818;stroke-width:0.5;" x1="150" x2="211" y1="125.1211" y2="125.1211"/><line style="stroke:#181818;stroke-width:0.5;" x1="150" x2="211" y1="133.1211" y2="133.1211"/></g><!--link RegisterToDoEntryGUI to RegisterToDoEntryController--><g id="link_RegisterToDoEntryGUI_RegisterToDoEntryController"><path codeLine="68" d="M268.55,374.6211 C271.88,374.6211 273.83,374.6211 273.83,374.6211 C273.83,374.6211 280.96,374.6211 297.36,374.6211 " fill="none" id="RegisterToDoEntryGUI-to-RegisterToDoEntryController" style="stroke:#181818;stroke-width:1.0;stroke-dasharray:7.0,7.0;"/><polygon fill="#181818" points="303.36,374.6211,294.36,370.6211,298.36,374.6211,294.36,378.6211,303.36,374.6211" style="stroke:#181818;stroke-width:1.0;"/></g><!--link RegisterToDoEntryController to Repositories--><g id="link_RegisterToDoEntryController_Repositories"><path codeLine="69" d="M460.5,482.6411 C460.5,508.9311 460.5,530.6111 460.5,555.3211 " fill="none" id="RegisterToDoEntryController-to-Repositories" style="stroke:#181818;stroke-width:1.0;stroke-dasharray:7.0,7.0;"/><polygon fill="#181818" points="460.5,561.3211,464.5,552.3211,460.5,556.3211,456.5,552.3211,460.5,561.3211" style="stroke:#181818;stroke-width:1.0;"/><text fill="#000000" font-family="sans-serif" font-size="13" lengthAdjust="spacing" textLength="67" x="461.5" y="527.6494">repositories</text></g><!--link Repositories to ToDoEntryRepository--><g id="link_Repositories_ToDoEntryRepository"><path codeLine="70" d="M558.52,721.6711 C583.56,741.8611 605.4196,759.4944 629.0896,778.5844 " fill="none" id="Repositories-to-ToDoEntryRepository" style="stroke:#181818;stroke-width:1.0;"/><polygon fill="#181818" points="633.76,782.3511,629.2656,773.5875,629.868,779.2122,624.2434,779.8147,633.76,782.3511" style="stroke:#181818;stroke-width:1.0;"/><text fill="#000000" font-family="sans-serif" font-size="13" lengthAdjust="spacing" textLength="7" x="617.7135" y="771.3011">1</text></g><!--link Repositories to Repositories--><g id="link_Repositories_Repositories"><path codeLine="71" d="M559.55,621.7511 C579.9,623.8811 594.5,630.5011 594.5,641.6211 C594.5,652.7411 585.8674,658.7365 565.5174,660.8665 " fill="none" id="Repositories-to-Repositories" style="stroke:#181818;stroke-width:1.0;"/><polygon fill="#181818" points="559.55,661.4911,568.9175,664.5325,564.5228,660.9706,568.0847,656.5759,559.55,661.4911" style="stroke:#181818;stroke-width:1.0;"/><text fill="#000000" font-family="sans-serif" font-size="13" lengthAdjust="spacing" textLength="49" x="600.5" y="647.1494">instance</text></g><!--link RegisterToDoEntryController to ToDoEntryMapper--><g id="link_RegisterToDoEntryController_ToDoEntryMapper"><path codeLine="72" d="M617.53,374.6211 C633.34,374.6211 645.83,374.6211 645.83,374.6211 C645.83,374.6211 642.45,374.6211 646.8,374.6211 " fill="none" id="RegisterToDoEntryController-to-ToDoEntryMapper" style="stroke:#181818;stroke-width:1.0;stroke-dasharray:7.0,7.0;"/><polygon fill="#181818" points="652.8,374.6211,643.8,370.6211,647.8,374.6211,643.8,378.6211,652.8,374.6211" style="stroke:#181818;stroke-width:1.0;"/></g><!--link RegisterToDoEntryController to ToDoEntryRepository--><g id="link_RegisterToDoEntryController_ToDoEntryRepository"><path codeLine="73" d="M572.8,482.7411 C616.15,524.0911 655.5,561.6211 655.5,561.6211 C655.5,561.6211 680.4482,693.875 696.0182,776.445 " fill="none" id="RegisterToDoEntryController-to-ToDoEntryRepository" style="stroke:#181818;stroke-width:1.0;"/><polygon fill="#181818" points="697.13,782.3411,699.393,772.7558,696.2035,777.4277,691.5316,774.2382,697.13,782.3411" style="stroke:#181818;stroke-width:1.0;"/><text fill="#000000" font-family="sans-serif" font-size="13" lengthAdjust="spacing" textLength="28" x="687.5" y="647.1494">uses</text></g><!--reverse link SystemUser to GSM--><g id="link_SystemUser_GSM"><path codeLine="75" d="M132.04,117.1211 C143.65,117.1211 140.5,117.1211 140.5,117.1211 C140.5,117.1211 144.03,117.1211 148.98,117.1211 " fill="none" id="SystemUser-backto-GSM" style="stroke:#181818;stroke-width:1.0;"/><polygon fill="none" points="114.04,117.1211,132.04,123.1211,132.04,111.1211,114.04,117.1211" style="stroke:#181818;stroke-width:1.0;"/></g><!--link GSM to RegisterToDoEntryGUI--><g id="link_GSM_RegisterToDoEntryGUI"><path codeLine="77" d="M180.5,141.2411 C180.5,189.7711 180.5,301.7311 180.5,350.3611 " fill="none" id="GSM-RegisterToDoEntryGUI" style="stroke:#181818;stroke-width:1.0;"/><text fill="#000000" font-family="sans-serif" font-size="13" lengthAdjust="spacing" textLength="7" x="172.6469" y="163.256">1</text><text fill="#000000" font-family="sans-serif" font-size="13" lengthAdjust="spacing" textLength="7" x="172.6469" y="339.4396">1</text></g><!--reverse link ToDoEntry to ToDoEntryRepository--><g id="link_ToDoEntry_ToDoEntryRepository"><path codeLine="78" d="M839.1665,193.6756 C842.1865,210.3956 843.5,217.6211 843.5,217.6211 C843.5,217.6211 843.5,236.6211 843.5,236.6211 C843.5,236.6211 841.5,482.6211 841.5,482.6211 C841.5,482.6211 768.62,679.8811 730.76,782.3611 " fill="none" id="ToDoEntry-backto-ToDoEntryRepository" style="stroke:#181818;stroke-width:1.0;"/><polygon fill="#181818" points="838.1,187.7711,835.7634,197.3388,838.9887,192.6915,843.636,195.9168,838.1,187.7711" style="stroke:#181818;stroke-width:1.0;"/><text fill="#000000" font-family="sans-serif" font-size="13" lengthAdjust="spacing" textLength="36" x="830.5" y="527.6494">stores</text><text fill="#000000" font-family="sans-serif" font-size="13" lengthAdjust="spacing" textLength="5" x="834.1416" y="209.9713">*</text><text fill="#000000" font-family="sans-serif" font-size="13" lengthAdjust="spacing" textLength="7" x="725.9291" y="771.3122">1</text></g><!--reverse link ToDoEntry to ToDoEntryMapper--><g id="link_ToDoEntry_ToDoEntryMapper"><path codeLine="79" d="M799.7958,193.6208 C785.3058,236.1708 769.04,283.9211 755.9,322.5311 " fill="none" id="ToDoEntry-backto-ToDoEntryMapper" style="stroke:#181818;stroke-width:1.0;"/><polygon fill="#181818" points="801.73,187.9411,795.0423,195.1712,800.1182,192.6742,802.6152,197.7501,801.73,187.9411" style="stroke:#181818;stroke-width:1.0;"/><text fill="#000000" font-family="sans-serif" font-size="13" lengthAdjust="spacing" textLength="43" x="791.5" y="232.6494">creates</text><text fill="#000000" font-family="sans-serif" font-size="13" lengthAdjust="spacing" textLength="5" x="794.144" y="209.7866">*</text><text fill="#000000" font-family="sans-serif" font-size="13" lengthAdjust="spacing" textLength="7" x="750.7678" y="311.4464">1</text></g><!--SRC=[XLJ1Rjim3BthAuISqXKkjcjG11ZgeGZGOi2SV83cSAfGHr8b6fstzTz7AwwiE8hhWssIJ-JJUxBziz9ME77WTIEy_uherCyMOLCRNQa_m3yp7o5MrCz2GeLT0zn1ZKBB1XA0Vn9xywgqvBz4uzDAepHWPu5RqtHzm1Wgf3Pt_LXUAY49nbXWmRUcDDyqkkulutH91w0hcWuXt8EldRAeZ0vnwoJekYkXnuMCHu6j3w_msn9Hs9Uj4s756sFlOwhE8nns7Xm_3jBYS6m01w6Qy6O9-6hS_XWy6MB-nivu_W1hl4BZkg5JmV6zzg0yXjmrbu3RDBsy6WeE98NWOdKPbrzD-styJgkN5bB8I2aoKU0Zbr70aUYqRL8PIccho9IsiD6ahwuXpTrd9gJrZ5BBG7iYvAEmDjfntRFRVfzgqQSfL9YeHB2nMA89wfvOS2hIHEuxGtVJD75qaVKs9zOHdTl_dEpJ3UDfVDPrWCb9ukFZamYJsa1fdvp0ujBHB2wR5yiNl1_TFPFxVhSXdNj0jdIpddE8pRbt4zOcdy2An1b3Tb8hYZLVV5dah9u0pvgguHkO9xEU-ZmBx-daJjsAjvwei-HtTVkF3aVro1ZTmXQA8ZnoSh8OyCMd1RyTeFb9dfuqwuCbmsbSyTg1GCB_1m00]--></g></svg>