<?xml version="1.0" encoding="us-ascii" standalone="no"?><svg xmlns="http://www.w3.org/2000/svg" xmlns:xlink="http://www.w3.org/1999/xlink" contentStyleType="text/css" height="912px" preserveAspectRatio="none" style="width:862px;height:912px;background:#FFFFFF;" version="1.1" viewBox="0 0 862 912" width="862px" zoomAndPan="magnify"><defs/><g><text fill="#000000" font-family="sans-serif" font-size="14" font-weight="bold" lengthAdjust="spacing" textLength="99" x="374.5" y="25.1074">Class Diagram</text><!--class ToDoEntry--><g id="elem_ToDoEntry"><rect codeLine="8" fill="#F1F1F1" height="141.1055" id="ToDoEntry" rx="2.5" ry="2.5" style="stroke:#181818;stroke-width:0.5;" width="123" x="732" y="46.6211"/><ellipse cx="757.35" cy="62.6211" fill="#ADD1B2" rx="11" ry="11" style="stroke:#181818;stroke-width:1.0;"/><path d="M760.1156,58.4961 Q760.2719,58.2773 760.4594,58.168 Q760.6469,58.0586 760.8656,58.0586 Q761.2406,58.0586 761.475,58.3242 Q761.7094,58.5742 761.7094,59.1836 L761.7094,60.6367 Q761.7094,61.2461 761.475,61.5117 Q761.2406,61.7773 760.8656,61.7773 Q760.5219,61.7773 760.3188,61.5742 Q760.1156,61.3867 760.0063,60.8711 Q759.9594,60.5117 759.7719,60.3242 Q759.4438,59.9492 758.8344,59.7305 Q758.225,59.5117 757.6,59.5117 Q756.8344,59.5117 756.1938,59.8398 Q755.5688,60.168 755.0688,60.918 Q754.5844,61.668 754.5844,62.6992 L754.5844,63.793 Q754.5844,65.0273 755.475,65.8555 Q756.3656,66.668 757.9594,66.668 Q758.8969,66.668 759.5531,66.418 Q759.9438,66.2617 760.3656,65.8242 Q760.6313,65.5586 760.7719,65.4805 Q760.9281,65.4023 761.1313,65.4023 Q761.4594,65.4023 761.7094,65.668 Q761.975,65.918 761.975,66.2617 Q761.975,66.6055 761.6313,67.0117 Q761.1313,67.5898 760.3344,67.918 Q759.2563,68.3711 757.9594,68.3711 Q756.4438,68.3711 755.2406,67.7461 Q754.2563,67.2461 753.5688,66.1836 Q752.8813,65.1055 752.8813,63.8242 L752.8813,62.668 Q752.8813,61.3398 753.4906,60.1992 Q754.1156,59.043 755.2094,58.4336 Q756.3031,57.8086 757.5375,57.8086 Q758.2719,57.8086 758.9125,57.9805 Q759.5688,58.1367 760.1156,58.4961 Z " fill="#000000"/><text fill="#000000" font-family="sans-serif" font-size="14" lengthAdjust="spacing" textLength="68" x="773.65" y="68.418">ToDoEntry</text><line style="stroke:#181818;stroke-width:0.5;" x1="733" x2="854" y1="78.6211" y2="78.6211"/><text fill="#000000" font-family="sans-serif" font-size="14" lengthAdjust="spacing" textLength="77" x="738" y="97.7285">greenSpace</text><text fill="#000000" font-family="sans-serif" font-size="14" lengthAdjust="spacing" textLength="69" x="738" y="116.3496">description</text><text fill="#000000" font-family="sans-serif" font-size="14" lengthAdjust="spacing" textLength="98" x="738" y="134.9707">urgencyDegree</text><text fill="#000000" font-family="sans-serif" font-size="14" lengthAdjust="spacing" textLength="38" x="738" y="153.5918">status</text><text fill="#000000" font-family="sans-serif" font-size="14" lengthAdjust="spacing" textLength="111" x="738" y="172.2129">expectedDuration</text><line style="stroke:#181818;stroke-width:0.5;" x1="733" x2="854" y1="179.7266" y2="179.7266"/></g><!--class SystemUser--><g id="elem_SystemUser"><rect codeLine="18" fill="#F1F1F1" height="122.4844" id="SystemUser" rx="2.5" ry="2.5" style="stroke:#181818;stroke-width:0.5;" width="107" x="7" y="56.1211"/><ellipse cx="22" cy="72.1211" fill="#ADD1B2" rx="11" ry="11" style="stroke:#181818;stroke-width:1.0;"/><path d="M24.7656,67.9961 Q24.9219,67.7773 25.1094,67.668 Q25.2969,67.5586 25.5156,67.5586 Q25.8906,67.5586 26.125,67.8242 Q26.3594,68.0742 26.3594,68.6836 L26.3594,70.1367 Q26.3594,70.7461 26.125,71.0117 Q25.8906,71.2773 25.5156,71.2773 Q25.1719,71.2773 24.9688,71.0742 Q24.7656,70.8867 24.6563,70.3711 Q24.6094,70.0117 24.4219,69.8242 Q24.0938,69.4492 23.4844,69.2305 Q22.875,69.0117 22.25,69.0117 Q21.4844,69.0117 20.8438,69.3398 Q20.2188,69.668 19.7188,70.418 Q19.2344,71.168 19.2344,72.1992 L19.2344,73.293 Q19.2344,74.5273 20.125,75.3555 Q21.0156,76.168 22.6094,76.168 Q23.5469,76.168 24.2031,75.918 Q24.5938,75.7617 25.0156,75.3242 Q25.2813,75.0586 25.4219,74.9805 Q25.5781,74.9023 25.7813,74.9023 Q26.1094,74.9023 26.3594,75.168 Q26.625,75.418 26.625,75.7617 Q26.625,76.1055 26.2813,76.5117 Q25.7813,77.0898 24.9844,77.418 Q23.9063,77.8711 22.6094,77.8711 Q21.0938,77.8711 19.8906,77.2461 Q18.9063,76.7461 18.2188,75.6836 Q17.5313,74.6055 17.5313,73.3242 L17.5313,72.168 Q17.5313,70.8398 18.1406,69.6992 Q18.7656,68.543 19.8594,67.9336 Q20.9531,67.3086 22.1875,67.3086 Q22.9219,67.3086 23.5625,67.4805 Q24.2188,67.6367 24.7656,67.9961 Z " fill="#000000"/><text fill="#000000" font-family="sans-serif" font-size="14" lengthAdjust="spacing" textLength="75" x="36" y="77.918">SystemUser</text><line style="stroke:#181818;stroke-width:0.5;" x1="8" x2="113" y1="88.1211" y2="88.1211"/><text fill="#000000" font-family="sans-serif" font-size="14" lengthAdjust="spacing" textLength="35" x="13" y="107.2285">name</text><text fill="#000000" font-family="sans-serif" font-size="14" lengthAdjust="spacing" textLength="33" x="13" y="125.8496">email</text><text fill="#000000" font-family="sans-serif" font-size="14" lengthAdjust="spacing" textLength="60" x="13" y="144.4707">password</text><text fill="#000000" font-family="sans-serif" font-size="14" lengthAdjust="spacing" textLength="40" x="13" y="163.0918">phone</text><line style="stroke:#181818;stroke-width:0.5;" x1="8" x2="113" y1="170.6055" y2="170.6055"/></g><!--class ToDoEntryRepository--><g id="elem_ToDoEntryRepository"><rect codeLine="26" fill="#F1F1F1" height="122.4844" id="ToDoEntryRepository" rx="2.5" ry="2.5" style="stroke:#181818;stroke-width:0.5;" width="209" x="572" y="782.6211"/><ellipse cx="605.45" cy="798.6211" fill="#ADD1B2" rx="11" ry="11" style="stroke:#181818;stroke-width:1.0;"/><path d="M608.2156,794.4961 Q608.3719,794.2773 608.5594,794.168 Q608.7469,794.0586 608.9656,794.0586 Q609.3406,794.0586 609.575,794.3242 Q609.8094,794.5742 609.8094,795.1836 L609.8094,796.6367 Q609.8094,797.2461 609.575,797.5117 Q609.3406,797.7773 608.9656,797.7773 Q608.6219,797.7773 608.4188,797.5742 Q608.2156,797.3867 608.1063,796.8711 Q608.0594,796.5117 607.8719,796.3242 Q607.5438,795.9492 606.9344,795.7305 Q606.325,795.5117 605.7,795.5117 Q604.9344,795.5117 604.2938,795.8398 Q603.6688,796.168 603.1688,796.918 Q602.6844,797.668 602.6844,798.6992 L602.6844,799.793 Q602.6844,801.0273 603.575,801.8555 Q604.4656,802.668 606.0594,802.668 Q606.9969,802.668 607.6531,802.418 Q608.0438,802.2617 608.4656,801.8242 Q608.7313,801.5586 608.8719,801.4805 Q609.0281,801.4023 609.2313,801.4023 Q609.5594,801.4023 609.8094,801.668 Q610.075,801.918 610.075,802.2617 Q610.075,802.6055 609.7313,803.0117 Q609.2313,803.5898 608.4344,803.918 Q607.3563,804.3711 606.0594,804.3711 Q604.5438,804.3711 603.3406,803.7461 Q602.3563,803.2461 601.6688,802.1836 Q600.9813,801.1055 600.9813,799.8242 L600.9813,798.668 Q600.9813,797.3398 601.5906,796.1992 Q602.2156,795.043 603.3094,794.4336 Q604.4031,793.8086 605.6375,793.8086 Q606.3719,793.8086 607.0125,793.9805 Q607.6688,794.1367 608.2156,794.4961 Z " fill="#000000"/><text fill="#000000" font-family="sans-serif" font-size="14" lengthAdjust="spacing" textLength="136" x="623.55" y="804.418">ToDoEntryRepository</text><line style="stroke:#181818;stroke-width:0.5;" x1="573" x2="780" y1="814.6211" y2="814.6211"/><text fill="#000000" font-family="sans-serif" font-size="14" lengthAdjust="spacing" textLength="90" x="578" y="833.7285">-toDoEntryList</text><line style="stroke:#181818;stroke-width:0.5;" x1="573" x2="780" y1="841.2422" y2="841.2422"/><text fill="#000000" font-family="sans-serif" font-size="14" lengthAdjust="spacing" textLength="128" x="578" y="860.3496">+getToDoEntryList()</text><text fill="#000000" font-family="sans-serif" font-size="14" lengthAdjust="spacing" textLength="197" x="578" y="878.9707">+registerToDoEntry(toDoEntry)</text><text fill="#000000" font-family="sans-serif" font-size="14" lengthAdjust="spacing" textLength="195" x="578" y="897.5918">-toDoEntryIsUnique(toDoEntry)</text></g><!--class Repositories--><g id="elem_Repositories"><rect codeLine="34" fill="#F1F1F1" height="159.7266" id="Repositories" rx="2.5" ry="2.5" style="stroke:#181818;stroke-width:0.5;" width="198" x="329.5" y="561.6211"/><ellipse cx="384.75" cy="577.6211" fill="#ADD1B2" rx="11" ry="11" style="stroke:#181818;stroke-width:1.0;"/><path d="M387.5156,573.4961 Q387.6719,573.2773 387.8594,573.168 Q388.0469,573.0586 388.2656,573.0586 Q388.6406,573.0586 388.875,573.3242 Q389.1094,573.5742 389.1094,574.1836 L389.1094,575.6367 Q389.1094,576.2461 388.875,576.5117 Q388.6406,576.7773 388.2656,576.7773 Q387.9219,576.7773 387.7188,576.5742 Q387.5156,576.3867 387.4063,575.8711 Q387.3594,575.5117 387.1719,575.3242 Q386.8438,574.9492 386.2344,574.7305 Q385.625,574.5117 385,574.5117 Q384.2344,574.5117 383.5938,574.8398 Q382.9688,575.168 382.4688,575.918 Q381.9844,576.668 381.9844,577.6992 L381.9844,578.793 Q381.9844,580.0273 382.875,580.8555 Q383.7656,581.668 385.3594,581.668 Q386.2969,581.668 386.9531,581.418 Q387.3438,581.2617 387.7656,580.8242 Q388.0313,580.5586 388.1719,580.4805 Q388.3281,580.4023 388.5313,580.4023 Q388.8594,580.4023 389.1094,580.668 Q389.375,580.918 389.375,581.2617 Q389.375,581.6055 389.0313,582.0117 Q388.5313,582.5898 387.7344,582.918 Q386.6563,583.3711 385.3594,583.3711 Q383.8438,583.3711 382.6406,582.7461 Q381.6563,582.2461 380.9688,581.1836 Q380.2813,580.1055 380.2813,578.8242 L380.2813,577.668 Q380.2813,576.3398 380.8906,575.1992 Q381.5156,574.043 382.6094,573.4336 Q383.7031,572.8086 384.9375,572.8086 Q385.6719,572.8086 386.3125,572.9805 Q386.9688,573.1367 387.5156,573.4961 Z " fill="#000000"/><text fill="#000000" font-family="sans-serif" font-size="14" lengthAdjust="spacing" textLength="79" x="405.25" y="583.418">Repositories</text><line style="stroke:#181818;stroke-width:0.5;" x1="330.5" x2="526.5" y1="593.6211" y2="593.6211"/><text fill="#000000" font-family="sans-serif" font-size="14" lengthAdjust="spacing" textLength="150" x="335.5" y="612.7285">-greenSpaceRepository</text><text fill="#000000" font-family="sans-serif" font-size="14" lengthAdjust="spacing" textLength="136" x="335.5" y="631.3496">-toDoEntryRepository</text><line style="stroke:#181818;stroke-width:0.5;" x1="330.5" x2="526.5" y1="638.8633" y2="638.8633"/><text fill="#000000" font-family="sans-serif" font-size="14" lengthAdjust="spacing" textLength="94" x="335.5" y="657.9707">-Repositories()</text><text fill="#000000" font-family="sans-serif" font-size="14" lengthAdjust="spacing" textLength="91" x="335.5" y="676.5918">+getInstance()</text><text fill="#000000" font-family="sans-serif" font-size="14" lengthAdjust="spacing" textLength="186" x="335.5" y="695.2129">+getGreenSpaceRepository()</text><text fill="#000000" font-family="sans-serif" font-size="14" lengthAdjust="spacing" textLength="174" x="335.5" y="713.834">+getToDoEntryRepository()</text></g><!--class ToDoEntryMapper--><g id="elem_ToDoEntryMapper"><rect codeLine="44" fill="#F1F1F1" height="103.8633" id="ToDoEntryMapper" rx="2.5" ry="2.5" style="stroke:#181818;stroke-width:0.5;" width="171" x="621" y="322.6211"/><ellipse cx="646.35" cy="338.6211" fill="#ADD1B2" rx="11" ry="11" style="stroke:#181818;stroke-width:1.0;"/><path d="M649.1156,334.4961 Q649.2719,334.2773 649.4594,334.168 Q649.6469,334.0586 649.8656,334.0586 Q650.2406,334.0586 650.475,334.3242 Q650.7094,334.5742 650.7094,335.1836 L650.7094,336.6367 Q650.7094,337.2461 650.475,337.5117 Q650.2406,337.7773 649.8656,337.7773 Q649.5219,337.7773 649.3188,337.5742 Q649.1156,337.3867 649.0063,336.8711 Q648.9594,336.5117 648.7719,336.3242 Q648.4438,335.9492 647.8344,335.7305 Q647.225,335.5117 646.6,335.5117 Q645.8344,335.5117 645.1938,335.8398 Q644.5688,336.168 644.0688,336.918 Q643.5844,337.668 643.5844,338.6992 L643.5844,339.793 Q643.5844,341.0273 644.475,341.8555 Q645.3656,342.668 646.9594,342.668 Q647.8969,342.668 648.5531,342.418 Q648.9438,342.2617 649.3656,341.8242 Q649.6313,341.5586 649.7719,341.4805 Q649.9281,341.4023 650.1313,341.4023 Q650.4594,341.4023 650.7094,341.668 Q650.975,341.918 650.975,342.2617 Q650.975,342.6055 650.6313,343.0117 Q650.1313,343.5898 649.3344,343.918 Q648.2563,344.3711 646.9594,344.3711 Q645.4438,344.3711 644.2406,343.7461 Q643.2563,343.2461 642.5688,342.1836 Q641.8813,341.1055 641.8813,339.8242 L641.8813,338.668 Q641.8813,337.3398 642.4906,336.1992 Q643.1156,335.043 644.2094,334.4336 Q645.3031,333.8086 646.5375,333.8086 Q647.2719,333.8086 647.9125,333.9805 Q648.5688,334.1367 649.1156,334.4961 Z " fill="#000000"/><text fill="#000000" font-family="sans-serif" font-size="14" lengthAdjust="spacing" textLength="116" x="662.65" y="344.418">ToDoEntryMapper</text><line style="stroke:#181818;stroke-width:0.5;" x1="622" x2="791" y1="354.6211" y2="354.6211"/><line style="stroke:#181818;stroke-width:0.5;" x1="622" x2="791" y1="362.6211" y2="362.6211"/><text fill="#000000" font-family="sans-serif" font-size="14" lengthAdjust="spacing" textLength="123" x="627" y="381.7285">+toDTO(toDoEntry)</text><text fill="#000000" font-family="sans-serif" font-size="14" lengthAdjust="spacing" textLength="158" x="627" y="400.3496">+toEntity(toDoEntryDTO)</text><text fill="#000000" font-family="sans-serif" font-size="14" lengthAdjust="spacing" textLength="159" x="627" y="418.9707">+toDtoList(toDoEntryList)</text></g><!--class RegisterToDoEntryController--><g id="elem_RegisterToDoEntryController"><rect codeLine="51" fill="#F1F1F1" height="215.5898" id="RegisterToDoEntryController" rx="2.5" ry="2.5" style="stroke:#181818;stroke-width:0.5;" width="314" x="271.5" y="266.6211"/><ellipse cx="332.75" cy="282.6211" fill="#ADD1B2" rx="11" ry="11" style="stroke:#181818;stroke-width:1.0;"/><path d="M335.5156,278.4961 Q335.6719,278.2773 335.8594,278.168 Q336.0469,278.0586 336.2656,278.0586 Q336.6406,278.0586 336.875,278.3242 Q337.1094,278.5742 337.1094,279.1836 L337.1094,280.6367 Q337.1094,281.2461 336.875,281.5117 Q336.6406,281.7773 336.2656,281.7773 Q335.9219,281.7773 335.7188,281.5742 Q335.5156,281.3867 335.4063,280.8711 Q335.3594,280.5117 335.1719,280.3242 Q334.8438,279.9492 334.2344,279.7305 Q333.625,279.5117 333,279.5117 Q332.2344,279.5117 331.5938,279.8398 Q330.9688,280.168 330.4688,280.918 Q329.9844,281.668 329.9844,282.6992 L329.9844,283.793 Q329.9844,285.0273 330.875,285.8555 Q331.7656,286.668 333.3594,286.668 Q334.2969,286.668 334.9531,286.418 Q335.3438,286.2617 335.7656,285.8242 Q336.0313,285.5586 336.1719,285.4805 Q336.3281,285.4023 336.5313,285.4023 Q336.8594,285.4023 337.1094,285.668 Q337.375,285.918 337.375,286.2617 Q337.375,286.6055 337.0313,287.0117 Q336.5313,287.5898 335.7344,287.918 Q334.6563,288.3711 333.3594,288.3711 Q331.8438,288.3711 330.6406,287.7461 Q329.6563,287.2461 328.9688,286.1836 Q328.2813,285.1055 328.2813,283.8242 L328.2813,282.668 Q328.2813,281.3398 328.8906,280.1992 Q329.5156,279.043 330.6094,278.4336 Q331.7031,277.8086 332.9375,277.8086 Q333.6719,277.8086 334.3125,277.9805 Q334.9688,278.1367 335.5156,278.4961 Z " fill="#000000"/><text fill="#000000" font-family="sans-serif" font-size="14" lengthAdjust="spacing" textLength="183" x="353.25" y="288.418">RegisterToDoEntryController</text><line style="stroke:#181818;stroke-width:0.5;" x1="272.5" x2="584.5" y1="298.6211" y2="298.6211"/><text fill="#000000" font-family="sans-serif" font-size="14" lengthAdjust="spacing" textLength="276" x="277.5" y="317.7285">-ToDoEntryRepository toDoEntryRepository</text><text fill="#000000" font-family="sans-serif" font-size="14" lengthAdjust="spacing" textLength="302" x="277.5" y="336.3496">-GreenSpaceRepository greenSpaceRepository</text><text fill="#000000" font-family="sans-serif" font-size="14" lengthAdjust="spacing" textLength="236" x="277.5" y="354.9707">-ToDoEntryMapper toDoEntryMapper</text><text fill="#000000" font-family="sans-serif" font-size="14" lengthAdjust="spacing" textLength="262" x="277.5" y="373.5918">-GreenSpaceMapper greenSpaceMapper</text><line style="stroke:#181818;stroke-width:0.5;" x1="272.5" x2="584.5" y1="381.1055" y2="381.1055"/><text fill="#000000" font-family="sans-serif" font-size="14" lengthAdjust="spacing" textLength="227" x="277.5" y="400.2129">+registerToDoEntry(toDoEntryDTO)</text><text fill="#000000" font-family="sans-serif" font-size="14" lengthAdjust="spacing" textLength="165" x="277.5" y="418.834">+getToDoEntryDTOsList()</text><text fill="#000000" font-family="sans-serif" font-size="14" lengthAdjust="spacing" textLength="125" x="277.5" y="437.4551">-getToDoEntryList()</text><text fill="#000000" font-family="sans-serif" font-size="14" lengthAdjust="spacing" textLength="171" x="277.5" y="456.0762">-getToDoEntryRepository()</text><text fill="#000000" font-family="sans-serif" font-size="14" lengthAdjust="spacing" textLength="183" x="277.5" y="474.6973">-getGreenSpaceRepository()</text></g><!--class ToDoListGUI--><g id="elem_ToDoListGUI"><rect codeLine="64" fill="#F1F1F1" height="48" id="ToDoListGUI" rx="2.5" ry="2.5" style="stroke:#181818;stroke-width:0.5;" width="112" x="124.5" y="350.6211"/><ellipse cx="139.5" cy="366.6211" fill="#ADD1B2" rx="11" ry="11" style="stroke:#181818;stroke-width:1.0;"/><path d="M142.2656,362.4961 Q142.4219,362.2773 142.6094,362.168 Q142.7969,362.0586 143.0156,362.0586 Q143.3906,362.0586 143.625,362.3242 Q143.8594,362.5742 143.8594,363.1836 L143.8594,364.6367 Q143.8594,365.2461 143.625,365.5117 Q143.3906,365.7773 143.0156,365.7773 Q142.6719,365.7773 142.4688,365.5742 Q142.2656,365.3867 142.1563,364.8711 Q142.1094,364.5117 141.9219,364.3242 Q141.5938,363.9492 140.9844,363.7305 Q140.375,363.5117 139.75,363.5117 Q138.9844,363.5117 138.3438,363.8398 Q137.7188,364.168 137.2188,364.918 Q136.7344,365.668 136.7344,366.6992 L136.7344,367.793 Q136.7344,369.0273 137.625,369.8555 Q138.5156,370.668 140.1094,370.668 Q141.0469,370.668 141.7031,370.418 Q142.0938,370.2617 142.5156,369.8242 Q142.7813,369.5586 142.9219,369.4805 Q143.0781,369.4023 143.2813,369.4023 Q143.6094,369.4023 143.8594,369.668 Q144.125,369.918 144.125,370.2617 Q144.125,370.6055 143.7813,371.0117 Q143.2813,371.5898 142.4844,371.918 Q141.4063,372.3711 140.1094,372.3711 Q138.5938,372.3711 137.3906,371.7461 Q136.4063,371.2461 135.7188,370.1836 Q135.0313,369.1055 135.0313,367.8242 L135.0313,366.668 Q135.0313,365.3398 135.6406,364.1992 Q136.2656,363.043 137.3594,362.4336 Q138.4531,361.8086 139.6875,361.8086 Q140.4219,361.8086 141.0625,361.9805 Q141.7188,362.1367 142.2656,362.4961 Z " fill="#000000"/><text fill="#000000" font-family="sans-serif" font-size="14" lengthAdjust="spacing" textLength="80" x="153.5" y="372.418">ToDoListGUI</text><line style="stroke:#181818;stroke-width:0.5;" x1="125.5" x2="235.5" y1="382.6211" y2="382.6211"/><line style="stroke:#181818;stroke-width:0.5;" x1="125.5" x2="235.5" y1="390.6211" y2="390.6211"/></g><!--class GSM--><g id="elem_GSM"><rect fill="#F1F1F1" height="48" id="GSM" rx="2.5" ry="2.5" style="stroke:#181818;stroke-width:0.5;" width="63" x="149" y="93.1211"/><ellipse cx="164" cy="109.1211" fill="#ADD1B2" rx="11" ry="11" style="stroke:#181818;stroke-width:1.0;"/><path d="M166.7656,104.9961 Q166.9219,104.7773 167.1094,104.668 Q167.2969,104.5586 167.5156,104.5586 Q167.8906,104.5586 168.125,104.8242 Q168.3594,105.0742 168.3594,105.6836 L168.3594,107.1367 Q168.3594,107.7461 168.125,108.0117 Q167.8906,108.2773 167.5156,108.2773 Q167.1719,108.2773 166.9688,108.0742 Q166.7656,107.8867 166.6563,107.3711 Q166.6094,107.0117 166.4219,106.8242 Q166.0938,106.4492 165.4844,106.2305 Q164.875,106.0117 164.25,106.0117 Q163.4844,106.0117 162.8438,106.3398 Q162.2188,106.668 161.7188,107.418 Q161.2344,108.168 161.2344,109.1992 L161.2344,110.293 Q161.2344,111.5273 162.125,112.3555 Q163.0156,113.168 164.6094,113.168 Q165.5469,113.168 166.2031,112.918 Q166.5938,112.7617 167.0156,112.3242 Q167.2813,112.0586 167.4219,111.9805 Q167.5781,111.9023 167.7813,111.9023 Q168.1094,111.9023 168.3594,112.168 Q168.625,112.418 168.625,112.7617 Q168.625,113.1055 168.2813,113.5117 Q167.7813,114.0898 166.9844,114.418 Q165.9063,114.8711 164.6094,114.8711 Q163.0938,114.8711 161.8906,114.2461 Q160.9063,113.7461 160.2188,112.6836 Q159.5313,111.6055 159.5313,110.3242 L159.5313,109.168 Q159.5313,107.8398 160.1406,106.6992 Q160.7656,105.543 161.8594,104.9336 Q162.9531,104.3086 164.1875,104.3086 Q164.9219,104.3086 165.5625,104.4805 Q166.2188,104.6367 166.7656,104.9961 Z " fill="#000000"/><text fill="#000000" font-family="sans-serif" font-size="14" lengthAdjust="spacing" textLength="31" x="178" y="114.918">GSM</text><line style="stroke:#181818;stroke-width:0.5;" x1="150" x2="211" y1="125.1211" y2="125.1211"/><line style="stroke:#181818;stroke-width:0.5;" x1="150" x2="211" y1="133.1211" y2="133.1211"/></g><!--link ToDoListGUI to RegisterToDoEntryController--><g id="link_ToDoListGUI_RegisterToDoEntryController"><path codeLine="68" d="M236.56,374.6211 C251.3,374.6211 263.17,374.6211 263.17,374.6211 C263.17,374.6211 260.32,374.6211 265.4,374.6211 " fill="none" id="ToDoListGUI-to-RegisterToDoEntryController" style="stroke:#181818;stroke-width:1.0;stroke-dasharray:7.0,7.0;"/><polygon fill="#181818" points="271.4,374.6211,262.4,370.6211,266.4,374.6211,262.4,378.6211,271.4,374.6211" style="stroke:#181818;stroke-width:1.0;"/></g><!--link RegisterToDoEntryController to Repositories--><g id="link_RegisterToDoEntryController_Repositories"><path codeLine="69" d="M428.5,482.6411 C428.5,508.9311 428.5,530.6111 428.5,555.3211 " fill="none" id="RegisterToDoEntryController-to-Repositories" style="stroke:#181818;stroke-width:1.0;stroke-dasharray:7.0,7.0;"/><polygon fill="#181818" points="428.5,561.3211,432.5,552.3211,428.5,556.3211,424.5,552.3211,428.5,561.3211" style="stroke:#181818;stroke-width:1.0;"/><text fill="#000000" font-family="sans-serif" font-size="13" lengthAdjust="spacing" textLength="67" x="429.5" y="527.6494">repositories</text></g><!--link Repositories to ToDoEntryRepository--><g id="link_Repositories_ToDoEntryRepository"><path codeLine="70" d="M526.52,721.6711 C551.56,741.8611 573.4196,759.4944 597.0896,778.5844 " fill="none" id="Repositories-to-ToDoEntryRepository" style="stroke:#181818;stroke-width:1.0;"/><polygon fill="#181818" points="601.76,782.3511,597.2656,773.5875,597.868,779.2122,592.2434,779.8147,601.76,782.3511" style="stroke:#181818;stroke-width:1.0;"/><text fill="#000000" font-family="sans-serif" font-size="13" lengthAdjust="spacing" textLength="7" x="585.7135" y="771.3011">1</text></g><!--link Repositories to Repositories--><g id="link_Repositories_Repositories"><path codeLine="71" d="M527.55,621.7511 C547.9,623.8811 562.5,630.5011 562.5,641.6211 C562.5,652.7411 553.8674,658.7365 533.5174,660.8665 " fill="none" id="Repositories-to-Repositories" style="stroke:#181818;stroke-width:1.0;"/><polygon fill="#181818" points="527.55,661.4911,536.9175,664.5325,532.5228,660.9706,536.0847,656.5759,527.55,661.4911" style="stroke:#181818;stroke-width:1.0;"/><text fill="#000000" font-family="sans-serif" font-size="13" lengthAdjust="spacing" textLength="49" x="568.5" y="647.1494">instance</text></g><!--link RegisterToDoEntryController to ToDoEntryMapper--><g id="link_RegisterToDoEntryController_ToDoEntryMapper"><path codeLine="72" d="M585.53,374.6211 C601.34,374.6211 613.83,374.6211 613.83,374.6211 C613.83,374.6211 610.45,374.6211 614.8,374.6211 " fill="none" id="RegisterToDoEntryController-to-ToDoEntryMapper" style="stroke:#181818;stroke-width:1.0;stroke-dasharray:7.0,7.0;"/><polygon fill="#181818" points="620.8,374.6211,611.8,370.6211,615.8,374.6211,611.8,378.6211,620.8,374.6211" style="stroke:#181818;stroke-width:1.0;"/></g><!--link RegisterToDoEntryController to ToDoEntryRepository--><g id="link_RegisterToDoEntryController_ToDoEntryRepository"><path codeLine="73" d="M540.8,482.7411 C584.15,524.0911 623.5,561.6211 623.5,561.6211 C623.5,561.6211 648.4482,693.875 664.0182,776.445 " fill="none" id="RegisterToDoEntryController-to-ToDoEntryRepository" style="stroke:#181818;stroke-width:1.0;"/><polygon fill="#181818" points="665.13,782.3411,667.393,772.7558,664.2035,777.4277,659.5316,774.2382,665.13,782.3411" style="stroke:#181818;stroke-width:1.0;"/><text fill="#000000" font-family="sans-serif" font-size="13" lengthAdjust="spacing" textLength="28" x="655.5" y="647.1494">uses</text></g><!--reverse link SystemUser to GSM--><g id="link_SystemUser_GSM"><path codeLine="75" d="M132.04,117.1211 C143.65,117.1211 140.5,117.1211 140.5,117.1211 C140.5,117.1211 144.03,117.1211 148.98,117.1211 " fill="none" id="SystemUser-backto-GSM" style="stroke:#181818;stroke-width:1.0;"/><polygon fill="none" points="114.04,117.1211,132.04,123.1211,132.04,111.1211,114.04,117.1211" style="stroke:#181818;stroke-width:1.0;"/></g><!--link GSM to ToDoListGUI--><g id="link_GSM_ToDoListGUI"><path codeLine="77" d="M180.5,141.2411 C180.5,189.7711 180.5,301.7311 180.5,350.3611 " fill="none" id="GSM-ToDoListGUI" style="stroke:#181818;stroke-width:1.0;"/><text fill="#000000" font-family="sans-serif" font-size="13" lengthAdjust="spacing" textLength="7" x="172.6469" y="163.256">1</text><text fill="#000000" font-family="sans-serif" font-size="13" lengthAdjust="spacing" textLength="7" x="172.6469" y="339.4396">1</text></g><!--reverse link ToDoEntry to ToDoEntryRepository--><g id="link_ToDoEntry_ToDoEntryRepository"><path codeLine="78" d="M807.1665,193.6756 C810.1865,210.3956 811.5,217.6211 811.5,217.6211 C811.5,217.6211 811.5,236.6211 811.5,236.6211 C811.5,236.6211 809.5,482.6211 809.5,482.6211 C809.5,482.6211 736.62,679.8811 698.76,782.3611 " fill="none" id="ToDoEntry-backto-ToDoEntryRepository" style="stroke:#181818;stroke-width:1.0;"/><polygon fill="#181818" points="806.1,187.7711,803.7634,197.3388,806.9887,192.6915,811.636,195.9168,806.1,187.7711" style="stroke:#181818;stroke-width:1.0;"/><text fill="#000000" font-family="sans-serif" font-size="13" lengthAdjust="spacing" textLength="36" x="798.5" y="527.6494">stores</text><text fill="#000000" font-family="sans-serif" font-size="13" lengthAdjust="spacing" textLength="5" x="802.1416" y="209.9713">*</text><text fill="#000000" font-family="sans-serif" font-size="13" lengthAdjust="spacing" textLength="7" x="693.9291" y="771.3122">1</text></g><!--reverse link ToDoEntry to ToDoEntryMapper--><g id="link_ToDoEntry_ToDoEntryMapper"><path codeLine="79" d="M767.7958,193.6208 C753.3058,236.1708 737.04,283.9211 723.9,322.5311 " fill="none" id="ToDoEntry-backto-ToDoEntryMapper" style="stroke:#181818;stroke-width:1.0;"/><polygon fill="#181818" points="769.73,187.9411,763.0423,195.1712,768.1182,192.6742,770.6152,197.7501,769.73,187.9411" style="stroke:#181818;stroke-width:1.0;"/><text fill="#000000" font-family="sans-serif" font-size="13" lengthAdjust="spacing" textLength="43" x="759.5" y="232.6494">creates</text><text fill="#000000" font-family="sans-serif" font-size="13" lengthAdjust="spacing" textLength="5" x="762.144" y="209.7866">*</text><text fill="#000000" font-family="sans-serif" font-size="13" lengthAdjust="spacing" textLength="7" x="718.7678" y="311.4464">1</text></g><!--SRC=[XLJ1Rjim3BthAuISqXKkscjG11ZgeGZGei2SV83cSAvGHr8b6gstzTz7AwuiAuwRWsEIJ-JJUuJTYrH6M77WPIsS-uvevQy6OLDgLSW_mA-P2n0ZoXTHGO5j3Tn2YK9LDKG0zops-asgYlyMjOihjLI0hG5kTDrs0MCeaThSTMDvBaL5CCOy2xxLkVwXqBP_6QTVPG5KGTF1XtjmfPK6fLO-Rcm5gcnpw70-ur1Wu_mhl1iY2lkyiSAV-63iSqpHEeJ3pe7bnq5A78uDu21axTyC0T-qtH-3PqtCFzW9pvzWj9EeRTjtoZX-rXwaGv-xv1NWDaulB_g2XOf2iA6w3CSlqduRjrFojO4OCb0AJ2Ium6KGS22QjeqgVIbk5PZI5JQAz5KbnBdxYGbnVKAffQUT2FaeZ0bsN7Rija-f5bsQGecHIWGRYZbgh-x8Wh58YTntcfwwhiFeRDBRAR6EwAdxpycUNXZ7yKdN7bObYQ_N9n8cje7IBjh0xDngPkVD2-Kpte_TxNhUxpOaRvUFCrVhEJ_Od5TN_coqy2kIOWZPg9PbQxwuMKmPcm1Fcif-u-V9h5DNP-4TdQaTM_764NKMVPnk_z4g58-CqSDV8Sl2JNeLMMZ55zyM_3P2d0vmz4yZlZZIhzoAbnO44lu_]--></g></svg>