<?xml version="1.0" encoding="us-ascii" standalone="no"?><svg xmlns="http://www.w3.org/2000/svg" xmlns:xlink="http://www.w3.org/1999/xlink" contentStyleType="text/css" height="1487px" preserveAspectRatio="none" style="width:1918px;height:1487px;background:#FFFFFF;" version="1.1" viewBox="0 0 1918 1487" width="1918px" zoomAndPan="magnify"><defs/><g><rect fill="#FFFFFF" height="1293.2227" style="stroke:#181818;stroke-width:1.0;" width="10" x="18.5" y="93.6211"/><rect fill="#FFFFFF" height="440.0742" style="stroke:#181818;stroke-width:1.0;" width="10" x="363.5" y="116.9121"/><rect fill="#FFFFFF" height="156.4551" style="stroke:#181818;stroke-width:1.0;" width="10" x="363.5" y="588.2773"/><rect fill="#FFFFFF" height="31.291" style="stroke:#181818;stroke-width:1.0;" width="10" x="363.5" y="776.0234"/><rect fill="#FFFFFF" height="111.1641" style="stroke:#181818;stroke-width:1.0;" width="10" x="363.5" y="838.6055"/><rect fill="#FFFFFF" height="31.291" style="stroke:#181818;stroke-width:1.0;" width="10" x="363.5" y="1355.5527"/><rect fill="#FFFFFF" height="377.4922" style="stroke:#181818;stroke-width:1.0;" width="10" x="606.5" y="148.2031"/><rect fill="#FFFFFF" height="31.291" style="stroke:#181818;stroke-width:1.0;" width="10" x="606.5" y="619.5684"/><rect fill="#FFFFFF" height="31.291" style="stroke:#181818;stroke-width:1.0;" width="10" x="606.5" y="682.1504"/><rect fill="#FFFFFF" height="405.7832" style="stroke:#181818;stroke-width:1.0;" width="10" x="606.5" y="949.7695"/><rect fill="#FFFFFF" height="31.291" style="stroke:#181818;stroke-width:1.0;" width="10" x="765.5" y="179.4941"/><rect fill="#FFFFFF" height="31.291" style="stroke:#181818;stroke-width:1.0;" width="10" x="765.5" y="981.0605"/><rect fill="#FFFFFF" height="31.291" style="stroke:#181818;stroke-width:1.0;" width="10" x="872.5" y="242.0762"/><rect fill="#FFFFFF" height="31.291" style="stroke:#181818;stroke-width:1.0;" width="10" x="872.5" y="1043.6426"/><rect fill="#FFFFFF" height="31.291" style="stroke:#181818;stroke-width:1.0;" width="10" x="1012.5" y="304.6582"/><rect fill="#FFFFFF" height="75.582" style="stroke:#181818;stroke-width:1.0;" width="10" x="1179" y="1248.6797"/><rect fill="#FFFFFF" height="127.1641" style="stroke:#181818;stroke-width:1.0;" width="10" x="1398" y="367.2402"/><rect fill="#FFFFFF" height="111.1641" style="stroke:#181818;stroke-width:1.0;" width="10" x="1398" y="1106.2246"/><rect fill="#FFFFFF" height="31.291" style="stroke:#181818;stroke-width:1.0;" width="10" x="1559" y="424.8223"/><rect fill="#FFFFFF" height="31.291" style="stroke:#181818;stroke-width:1.0;" width="10" x="1559" y="887.1875"/><rect fill="#FFFFFF" height="31.291" style="stroke:#181818;stroke-width:1.0;" width="10" x="1704" y="650.8594"/><rect fill="#FFFFFF" height="31.291" style="stroke:#181818;stroke-width:1.0;" width="10" x="1866" y="1154.8066"/><rect fill="none" height="81.873" style="stroke:#000000;stroke-width:1.5;" width="318" x="1328" y="382.2402"/><line style="stroke:#181818;stroke-width:0.5;stroke-dasharray:5.0,5.0;" x1="23" x2="23" y1="83.6211" y2="1404.8438"/><line style="stroke:#181818;stroke-width:0.5;stroke-dasharray:5.0,5.0;" x1="368" x2="368" y1="83.6211" y2="1404.8438"/><line style="stroke:#181818;stroke-width:0.5;stroke-dasharray:5.0,5.0;" x1="611" x2="611" y1="83.6211" y2="1404.8438"/><line style="stroke:#181818;stroke-width:0.5;stroke-dasharray:5.0,5.0;" x1="770" x2="770" y1="83.6211" y2="1404.8438"/><line style="stroke:#181818;stroke-width:0.5;stroke-dasharray:5.0,5.0;" x1="877" x2="877" y1="83.6211" y2="1404.8438"/><line style="stroke:#181818;stroke-width:0.5;stroke-dasharray:5.0,5.0;" x1="1017" x2="1017" y1="83.6211" y2="1404.8438"/><line style="stroke:#181818;stroke-width:0.5;stroke-dasharray:5.0,5.0;" x1="1184" x2="1184" y1="83.6211" y2="1404.8438"/><line style="stroke:#181818;stroke-width:0.5;stroke-dasharray:5.0,5.0;" x1="1403" x2="1403" y1="83.6211" y2="1404.8438"/><line style="stroke:#181818;stroke-width:0.5;stroke-dasharray:5.0,5.0;" x1="1564" x2="1564" y1="83.6211" y2="1404.8438"/><line style="stroke:#181818;stroke-width:0.5;stroke-dasharray:5.0,5.0;" x1="1709" x2="1709" y1="83.6211" y2="1404.8438"/><line style="stroke:#181818;stroke-width:0.5;stroke-dasharray:5.0,5.0;" x1="1871" x2="1871" y1="83.6211" y2="1404.8438"/><text fill="#000000" font-family="sans-serif" font-size="14" lengthAdjust="spacing" textLength="31" x="5" y="80.1074">GSM</text><ellipse cx="23.5" cy="13.5" fill="#E3E3E3" rx="8" ry="8" style="stroke:#181818;stroke-width:0.5;"/><path d="M23.5,21.5 L23.5,48.5 M10.5,29.5 L36.5,29.5 M23.5,48.5 L10.5,63.5 M23.5,48.5 L36.5,63.5 " fill="none" style="stroke:#181818;stroke-width:0.5;"/><text fill="#000000" font-family="sans-serif" font-size="14" lengthAdjust="spacing" textLength="31" x="5" y="1418.9512">GSM</text><ellipse cx="23.5" cy="1430.9648" fill="#E3E3E3" rx="8" ry="8" style="stroke:#181818;stroke-width:0.5;"/><path d="M23.5,1438.9648 L23.5,1465.9648 M10.5,1446.9648 L36.5,1446.9648 M23.5,1465.9648 L10.5,1480.9648 M23.5,1465.9648 L36.5,1480.9648 " fill="none" style="stroke:#181818;stroke-width:0.5;"/><rect fill="#E3E3E3" height="32.6211" rx="2.5" ry="2.5" style="stroke:#181818;stroke-width:0.5;" width="151" x="293" y="50"/><text fill="#000000" font-family="sans-serif" font-size="14" lengthAdjust="spacing" textLength="137" x="300" y="72.1074">:RegisterToDoEntryUI</text><rect fill="#E3E3E3" height="32.6211" rx="2.5" ry="2.5" style="stroke:#181818;stroke-width:0.5;" width="151" x="293" y="1403.8438"/><text fill="#000000" font-family="sans-serif" font-size="14" lengthAdjust="spacing" textLength="137" x="300" y="1425.9512">:RegisterToDoEntryUI</text><rect fill="#E3E3E3" height="32.6211" rx="2.5" ry="2.5" style="stroke:#181818;stroke-width:0.5;" width="201" x="511" y="50"/><text fill="#000000" font-family="sans-serif" font-size="14" lengthAdjust="spacing" textLength="187" x="518" y="72.1074">:RegisterToDoEntryController</text><rect fill="#E3E3E3" height="32.6211" rx="2.5" ry="2.5" style="stroke:#181818;stroke-width:0.5;" width="201" x="511" y="1403.8438"/><text fill="#000000" font-family="sans-serif" font-size="14" lengthAdjust="spacing" textLength="187" x="518" y="1425.9512">:RegisterToDoEntryController</text><rect fill="#E3E3E3" height="32.6211" rx="2.5" ry="2.5" style="stroke:#181818;stroke-width:0.5;" width="97" x="722" y="50"/><text fill="#000000" font-family="sans-serif" font-size="14" lengthAdjust="spacing" textLength="83" x="729" y="72.1074">:Repositories</text><rect fill="#E3E3E3" height="32.6211" rx="2.5" ry="2.5" style="stroke:#181818;stroke-width:0.5;" width="97" x="722" y="1403.8438"/><text fill="#000000" font-family="sans-serif" font-size="14" lengthAdjust="spacing" textLength="83" x="729" y="1425.9512">:Repositories</text><rect fill="#E3E3E3" height="51.2422" rx="2.5" ry="2.5" style="stroke:#181818;stroke-width:0.5;" width="97" x="829" y="31.3789"/><text fill="#000000" font-family="sans-serif" font-size="14" lengthAdjust="spacing" textLength="74" x="840.5" y="53.4863">repositories</text><text fill="#000000" font-family="sans-serif" font-size="14" lengthAdjust="spacing" textLength="83" x="836" y="72.1074">:Repositories</text><rect fill="#E3E3E3" height="51.2422" rx="2.5" ry="2.5" style="stroke:#181818;stroke-width:0.5;" width="97" x="829" y="1403.8438"/><text fill="#000000" font-family="sans-serif" font-size="14" lengthAdjust="spacing" textLength="74" x="840.5" y="1425.9512">repositories</text><text fill="#000000" font-family="sans-serif" font-size="14" lengthAdjust="spacing" textLength="83" x="836" y="1444.5723">:Repositories</text><rect fill="#E3E3E3" height="51.2422" rx="2.5" ry="2.5" style="stroke:#181818;stroke-width:0.5;" width="163" x="936" y="31.3789"/><text fill="#000000" font-family="sans-serif" font-size="14" lengthAdjust="spacing" textLength="148" x="943.5" y="53.4863">GreenSpaceRepository</text><text fill="#000000" font-family="sans-serif" font-size="14" lengthAdjust="spacing" textLength="149" x="943" y="72.1074">:greenSpaceRepository</text><rect fill="#E3E3E3" height="51.2422" rx="2.5" ry="2.5" style="stroke:#181818;stroke-width:0.5;" width="163" x="936" y="1403.8438"/><text fill="#000000" font-family="sans-serif" font-size="14" lengthAdjust="spacing" textLength="148" x="943.5" y="1425.9512">GreenSpaceRepository</text><text fill="#000000" font-family="sans-serif" font-size="14" lengthAdjust="spacing" textLength="149" x="943" y="1444.5723">:greenSpaceRepository</text><rect fill="#E3E3E3" height="51.2422" rx="2.5" ry="2.5" style="stroke:#181818;stroke-width:0.5;" width="150" x="1109" y="31.3789"/><text fill="#000000" font-family="sans-serif" font-size="14" lengthAdjust="spacing" textLength="136" x="1116" y="53.4863">ToDoEntryRepository</text><text fill="#000000" font-family="sans-serif" font-size="14" lengthAdjust="spacing" textLength="135" x="1116.5" y="72.1074">:toDoEntryRepository</text><rect fill="#E3E3E3" height="51.2422" rx="2.5" ry="2.5" style="stroke:#181818;stroke-width:0.5;" width="150" x="1109" y="1403.8438"/><text fill="#000000" font-family="sans-serif" font-size="14" lengthAdjust="spacing" textLength="136" x="1116" y="1425.9512">ToDoEntryRepository</text><text fill="#000000" font-family="sans-serif" font-size="14" lengthAdjust="spacing" textLength="135" x="1116.5" y="1444.5723">:toDoEntryRepository</text><rect fill="#E3E3E3" height="32.6211" rx="2.5" ry="2.5" style="stroke:#181818;stroke-width:0.5;" width="130" x="1338" y="50"/><text fill="#000000" font-family="sans-serif" font-size="14" lengthAdjust="spacing" textLength="116" x="1345" y="72.1074">ToDoEntryMapper</text><rect fill="#E3E3E3" height="32.6211" rx="2.5" ry="2.5" style="stroke:#181818;stroke-width:0.5;" width="130" x="1338" y="1403.8438"/><text fill="#000000" font-family="sans-serif" font-size="14" lengthAdjust="spacing" textLength="116" x="1345" y="1425.9512">ToDoEntryMapper</text><rect fill="#E3E3E3" height="32.6211" rx="2.5" ry="2.5" style="stroke:#181818;stroke-width:0.5;" width="112" x="1508" y="50"/><text fill="#000000" font-family="sans-serif" font-size="14" lengthAdjust="spacing" textLength="98" x="1515" y="72.1074">ToDoEntryDTO</text><rect fill="#E3E3E3" height="32.6211" rx="2.5" ry="2.5" style="stroke:#181818;stroke-width:0.5;" width="112" x="1508" y="1403.8438"/><text fill="#000000" font-family="sans-serif" font-size="14" lengthAdjust="spacing" textLength="98" x="1515" y="1425.9512">ToDoEntryDTO</text><rect fill="#E3E3E3" height="32.6211" rx="2.5" ry="2.5" style="stroke:#181818;stroke-width:0.5;" width="158" x="1630" y="50"/><text fill="#000000" font-family="sans-serif" font-size="14" lengthAdjust="spacing" textLength="144" x="1637" y="72.1074">UrgencyDegreesENUM</text><rect fill="#E3E3E3" height="32.6211" rx="2.5" ry="2.5" style="stroke:#181818;stroke-width:0.5;" width="158" x="1630" y="1403.8438"/><text fill="#000000" font-family="sans-serif" font-size="14" lengthAdjust="spacing" textLength="144" x="1637" y="1425.9512">UrgencyDegreesENUM</text><rect fill="#E3E3E3" height="32.6211" rx="2.5" ry="2.5" style="stroke:#181818;stroke-width:0.5;" width="82" x="1830" y="50"/><text fill="#000000" font-family="sans-serif" font-size="14" lengthAdjust="spacing" textLength="68" x="1837" y="72.1074">ToDoEntry</text><rect fill="#E3E3E3" height="32.6211" rx="2.5" ry="2.5" style="stroke:#181818;stroke-width:0.5;" width="82" x="1830" y="1403.8438"/><text fill="#000000" font-family="sans-serif" font-size="14" lengthAdjust="spacing" textLength="68" x="1837" y="1425.9512">ToDoEntry</text><rect fill="#FFFFFF" height="1293.2227" style="stroke:#181818;stroke-width:1.0;" width="10" x="18.5" y="93.6211"/><rect fill="#FFFFFF" height="440.0742" style="stroke:#181818;stroke-width:1.0;" width="10" x="363.5" y="116.9121"/><rect fill="#FFFFFF" height="156.4551" style="stroke:#181818;stroke-width:1.0;" width="10" x="363.5" y="588.2773"/><rect fill="#FFFFFF" height="31.291" style="stroke:#181818;stroke-width:1.0;" width="10" x="363.5" y="776.0234"/><rect fill="#FFFFFF" height="111.1641" style="stroke:#181818;stroke-width:1.0;" width="10" x="363.5" y="838.6055"/><rect fill="#FFFFFF" height="31.291" style="stroke:#181818;stroke-width:1.0;" width="10" x="363.5" y="1355.5527"/><rect fill="#FFFFFF" height="377.4922" style="stroke:#181818;stroke-width:1.0;" width="10" x="606.5" y="148.2031"/><rect fill="#FFFFFF" height="31.291" style="stroke:#181818;stroke-width:1.0;" width="10" x="606.5" y="619.5684"/><rect fill="#FFFFFF" height="31.291" style="stroke:#181818;stroke-width:1.0;" width="10" x="606.5" y="682.1504"/><rect fill="#FFFFFF" height="405.7832" style="stroke:#181818;stroke-width:1.0;" width="10" x="606.5" y="949.7695"/><rect fill="#FFFFFF" height="31.291" style="stroke:#181818;stroke-width:1.0;" width="10" x="765.5" y="179.4941"/><rect fill="#FFFFFF" height="31.291" style="stroke:#181818;stroke-width:1.0;" width="10" x="765.5" y="981.0605"/><rect fill="#FFFFFF" height="31.291" style="stroke:#181818;stroke-width:1.0;" width="10" x="872.5" y="242.0762"/><rect fill="#FFFFFF" height="31.291" style="stroke:#181818;stroke-width:1.0;" width="10" x="872.5" y="1043.6426"/><rect fill="#FFFFFF" height="31.291" style="stroke:#181818;stroke-width:1.0;" width="10" x="1012.5" y="304.6582"/><rect fill="#FFFFFF" height="75.582" style="stroke:#181818;stroke-width:1.0;" width="10" x="1179" y="1248.6797"/><rect fill="#FFFFFF" height="127.1641" style="stroke:#181818;stroke-width:1.0;" width="10" x="1398" y="367.2402"/><rect fill="#FFFFFF" height="111.1641" style="stroke:#181818;stroke-width:1.0;" width="10" x="1398" y="1106.2246"/><rect fill="#FFFFFF" height="31.291" style="stroke:#181818;stroke-width:1.0;" width="10" x="1559" y="424.8223"/><rect fill="#FFFFFF" height="31.291" style="stroke:#181818;stroke-width:1.0;" width="10" x="1559" y="887.1875"/><rect fill="#FFFFFF" height="31.291" style="stroke:#181818;stroke-width:1.0;" width="10" x="1704" y="650.8594"/><rect fill="#FFFFFF" height="31.291" style="stroke:#181818;stroke-width:1.0;" width="10" x="1866" y="1154.8066"/><polygon fill="#181818" points="351.5,112.9121,361.5,116.9121,351.5,120.9121,355.5,116.9121" style="stroke:#181818;stroke-width:1.0;"/><line style="stroke:#181818;stroke-width:1.0;" x1="28.5" x2="357.5" y1="116.9121" y2="116.9121"/><text fill="#000000" font-family="sans-serif" font-size="13" font-weight="bold" lengthAdjust="spacing" textLength="7" x="35.5" y="111.6494">1</text><text fill="#000000" font-family="sans-serif" font-size="13" lengthAdjust="spacing" textLength="249" x="46.5" y="111.6494">asks to add a new entry to the "To-Do List"</text><polygon fill="#181818" points="594.5,144.2031,604.5,148.2031,594.5,152.2031,598.5,148.2031" style="stroke:#181818;stroke-width:1.0;"/><line style="stroke:#181818;stroke-width:1.0;" x1="373.5" x2="600.5" y1="148.2031" y2="148.2031"/><text fill="#000000" font-family="sans-serif" font-size="13" font-weight="bold" lengthAdjust="spacing" textLength="7" x="380.5" y="142.9404">2</text><text fill="#000000" font-family="sans-serif" font-size="13" lengthAdjust="spacing" textLength="119" x="391.5" y="142.9404">getGreenSpaceList()</text><polygon fill="#181818" points="753.5,175.4941,763.5,179.4941,753.5,183.4941,757.5,179.4941" style="stroke:#181818;stroke-width:1.0;"/><line style="stroke:#181818;stroke-width:1.0;" x1="616.5" x2="759.5" y1="179.4941" y2="179.4941"/><text fill="#000000" font-family="sans-serif" font-size="13" font-weight="bold" lengthAdjust="spacing" textLength="7" x="623.5" y="174.2314">3</text><text fill="#000000" font-family="sans-serif" font-size="13" lengthAdjust="spacing" textLength="75" x="634.5" y="174.2314">getInstance()</text><polygon fill="#181818" points="627.5,206.7852,617.5,210.7852,627.5,214.7852,623.5,210.7852" style="stroke:#181818;stroke-width:1.0;"/><line style="stroke:#181818;stroke-width:1.0;stroke-dasharray:2.0,2.0;" x1="621.5" x2="769.5" y1="210.7852" y2="210.7852"/><text fill="#000000" font-family="sans-serif" font-size="13" font-weight="bold" lengthAdjust="spacing" textLength="7" x="633.5" y="205.5225">4</text><text fill="#000000" font-family="sans-serif" font-size="13" lengthAdjust="spacing" textLength="67" x="644.5" y="205.5225">repositories</text><polygon fill="#181818" points="860.5,238.0762,870.5,242.0762,860.5,246.0762,864.5,242.0762" style="stroke:#181818;stroke-width:1.0;"/><line style="stroke:#181818;stroke-width:1.0;" x1="616.5" x2="866.5" y1="242.0762" y2="242.0762"/><text fill="#000000" font-family="sans-serif" font-size="13" font-weight="bold" lengthAdjust="spacing" textLength="7" x="623.5" y="236.8135">5</text><text fill="#000000" font-family="sans-serif" font-size="13" lengthAdjust="spacing" textLength="160" x="634.5" y="236.8135">getGreenSpaceRepository()</text><polygon fill="#181818" points="627.5,269.3672,617.5,273.3672,627.5,277.3672,623.5,273.3672" style="stroke:#181818;stroke-width:1.0;"/><line style="stroke:#181818;stroke-width:1.0;stroke-dasharray:2.0,2.0;" x1="621.5" x2="876.5" y1="273.3672" y2="273.3672"/><text fill="#000000" font-family="sans-serif" font-size="13" font-weight="bold" lengthAdjust="spacing" textLength="7" x="633.5" y="268.1045">6</text><text fill="#000000" font-family="sans-serif" font-size="13" lengthAdjust="spacing" textLength="131" x="644.5" y="268.1045">greenSpaceRepository</text><polygon fill="#181818" points="1000.5,300.6582,1010.5,304.6582,1000.5,308.6582,1004.5,304.6582" style="stroke:#181818;stroke-width:1.0;"/><line style="stroke:#181818;stroke-width:1.0;" x1="616.5" x2="1006.5" y1="304.6582" y2="304.6582"/><text fill="#000000" font-family="sans-serif" font-size="13" font-weight="bold" lengthAdjust="spacing" textLength="7" x="623.5" y="299.3955">7</text><text fill="#000000" font-family="sans-serif" font-size="13" lengthAdjust="spacing" textLength="119" x="634.5" y="299.3955">getGreenSpaceList()</text><polygon fill="#181818" points="627.5,331.9492,617.5,335.9492,627.5,339.9492,623.5,335.9492" style="stroke:#181818;stroke-width:1.0;"/><line style="stroke:#181818;stroke-width:1.0;stroke-dasharray:2.0,2.0;" x1="621.5" x2="1016.5" y1="335.9492" y2="335.9492"/><text fill="#000000" font-family="sans-serif" font-size="13" font-weight="bold" lengthAdjust="spacing" textLength="7" x="633.5" y="330.6865">8</text><text fill="#000000" font-family="sans-serif" font-size="13" lengthAdjust="spacing" textLength="90" x="644.5" y="330.6865">greenSpaceList</text><polygon fill="#181818" points="1386,363.2402,1396,367.2402,1386,371.2402,1390,367.2402" style="stroke:#181818;stroke-width:1.0;"/><line style="stroke:#181818;stroke-width:1.0;" x1="616.5" x2="1392" y1="367.2402" y2="367.2402"/><text fill="#000000" font-family="sans-serif" font-size="13" font-weight="bold" lengthAdjust="spacing" textLength="7" x="623.5" y="361.9775">9</text><text fill="#000000" font-family="sans-serif" font-size="13" lengthAdjust="spacing" textLength="242" x="634.5" y="361.9775">getGreenSpaceDTOsList(greenSpaceList)</text><path d="M1328,382.2402 L1401,382.2402 L1401,391.5313 L1391,401.5313 L1328,401.5313 L1328,382.2402 " fill="#EEEEEE" style="stroke:#000000;stroke-width:1.5;"/><rect fill="none" height="81.873" style="stroke:#000000;stroke-width:1.5;" width="318" x="1328" y="382.2402"/><text fill="#000000" font-family="sans-serif" font-size="13" font-weight="bold" lengthAdjust="spacing" textLength="28" x="1343" y="397.2686">loop</text><text fill="#000000" font-family="sans-serif" font-size="11" font-weight="bold" lengthAdjust="spacing" textLength="225" x="1416" y="396.1104">[for each greenSpace in greenSpaceList]</text><polygon fill="#181818" points="1547,420.8223,1557,424.8223,1547,428.8223,1551,424.8223" style="stroke:#181818;stroke-width:1.0;"/><line style="stroke:#181818;stroke-width:1.0;" x1="1408" x2="1553" y1="424.8223" y2="424.8223"/><text fill="#000000" font-family="sans-serif" font-size="13" font-weight="bold" lengthAdjust="spacing" textLength="14" x="1415" y="419.5596">10</text><text fill="#000000" font-family="sans-serif" font-size="13" lengthAdjust="spacing" textLength="114" x="1433" y="419.5596">toDTO(greenSpace)</text><polygon fill="#181818" points="1419,452.1133,1409,456.1133,1419,460.1133,1415,456.1133" style="stroke:#181818;stroke-width:1.0;"/><line style="stroke:#181818;stroke-width:1.0;stroke-dasharray:2.0,2.0;" x1="1413" x2="1563" y1="456.1133" y2="456.1133"/><text fill="#000000" font-family="sans-serif" font-size="13" font-weight="bold" lengthAdjust="spacing" textLength="14" x="1425" y="450.8506">11</text><text fill="#000000" font-family="sans-serif" font-size="13" lengthAdjust="spacing" textLength="95" x="1443" y="450.8506">greenSpaceDTO</text><polygon fill="#181818" points="627.5,490.4043,617.5,494.4043,627.5,498.4043,623.5,494.4043" style="stroke:#181818;stroke-width:1.0;"/><line style="stroke:#181818;stroke-width:1.0;stroke-dasharray:2.0,2.0;" x1="621.5" x2="1402" y1="494.4043" y2="494.4043"/><text fill="#000000" font-family="sans-serif" font-size="13" font-weight="bold" lengthAdjust="spacing" textLength="14" x="633.5" y="489.1416">12</text><text fill="#000000" font-family="sans-serif" font-size="13" lengthAdjust="spacing" textLength="123" x="651.5" y="489.1416">greenSpaceDTOsList</text><polygon fill="#181818" points="384.5,521.6953,374.5,525.6953,384.5,529.6953,380.5,525.6953" style="stroke:#181818;stroke-width:1.0;"/><line style="stroke:#181818;stroke-width:1.0;stroke-dasharray:2.0,2.0;" x1="378.5" x2="610.5" y1="525.6953" y2="525.6953"/><text fill="#000000" font-family="sans-serif" font-size="13" font-weight="bold" lengthAdjust="spacing" textLength="14" x="390.5" y="520.4326">13</text><text fill="#000000" font-family="sans-serif" font-size="13" lengthAdjust="spacing" textLength="123" x="408.5" y="520.4326">greenSpaceDTOsList</text><polygon fill="#181818" points="39.5,552.9863,29.5,556.9863,39.5,560.9863,35.5,556.9863" style="stroke:#181818;stroke-width:1.0;"/><line style="stroke:#181818;stroke-width:1.0;stroke-dasharray:2.0,2.0;" x1="33.5" x2="367.5" y1="556.9863" y2="556.9863"/><text fill="#000000" font-family="sans-serif" font-size="13" font-weight="bold" lengthAdjust="spacing" textLength="14" x="45.5" y="551.7236">14</text><text fill="#000000" font-family="sans-serif" font-size="13" lengthAdjust="spacing" textLength="293" x="63.5" y="551.7236">displays the Green Spaces and asks to select one</text><polygon fill="#181818" points="351.5,584.2773,361.5,588.2773,351.5,592.2773,355.5,588.2773" style="stroke:#181818;stroke-width:1.0;"/><line style="stroke:#181818;stroke-width:1.0;" x1="28.5" x2="357.5" y1="588.2773" y2="588.2773"/><text fill="#000000" font-family="sans-serif" font-size="13" font-weight="bold" lengthAdjust="spacing" textLength="14" x="35.5" y="583.0146">15</text><text fill="#000000" font-family="sans-serif" font-size="13" lengthAdjust="spacing" textLength="190" x="53.5" y="583.0146">selects the desired Green Space</text><polygon fill="#181818" points="594.5,615.5684,604.5,619.5684,594.5,623.5684,598.5,619.5684" style="stroke:#181818;stroke-width:1.0;"/><line style="stroke:#181818;stroke-width:1.0;" x1="373.5" x2="600.5" y1="619.5684" y2="619.5684"/><text fill="#000000" font-family="sans-serif" font-size="13" font-weight="bold" lengthAdjust="spacing" textLength="14" x="380.5" y="614.3057">16</text><text fill="#000000" font-family="sans-serif" font-size="13" lengthAdjust="spacing" textLength="136" x="398.5" y="614.3057">getUrgencyDegreeList()</text><polygon fill="#181818" points="1692,646.8594,1702,650.8594,1692,654.8594,1696,650.8594" style="stroke:#181818;stroke-width:1.0;"/><line style="stroke:#181818;stroke-width:1.0;" x1="611.5" x2="1698" y1="650.8594" y2="650.8594"/><text fill="#000000" font-family="sans-serif" font-size="13" font-weight="bold" lengthAdjust="spacing" textLength="14" x="618.5" y="645.5967">17</text><text fill="#000000" font-family="sans-serif" font-size="13" lengthAdjust="spacing" textLength="136" x="636.5" y="645.5967">getUrgencyDegreeList()</text><polygon fill="#181818" points="627.5,678.1504,617.5,682.1504,627.5,686.1504,623.5,682.1504" style="stroke:#181818;stroke-width:1.0;"/><line style="stroke:#181818;stroke-width:1.0;stroke-dasharray:2.0,2.0;" x1="621.5" x2="1708" y1="682.1504" y2="682.1504"/><text fill="#000000" font-family="sans-serif" font-size="13" font-weight="bold" lengthAdjust="spacing" textLength="14" x="633.5" y="676.8877">18</text><text fill="#000000" font-family="sans-serif" font-size="13" lengthAdjust="spacing" textLength="182" x="651.5" y="676.8877">UrgencyDegreesENUM.values()</text><polygon fill="#181818" points="384.5,709.4414,374.5,713.4414,384.5,717.4414,380.5,713.4414" style="stroke:#181818;stroke-width:1.0;"/><line style="stroke:#181818;stroke-width:1.0;" x1="378.5" x2="610.5" y1="713.4414" y2="713.4414"/><text fill="#000000" font-family="sans-serif" font-size="13" font-weight="bold" lengthAdjust="spacing" textLength="14" x="390.5" y="708.1787">19</text><text fill="#000000" font-family="sans-serif" font-size="13" lengthAdjust="spacing" textLength="108" x="408.5" y="708.1787">urgencyDegreeList</text><polygon fill="#181818" points="39.5,740.7324,29.5,744.7324,39.5,748.7324,35.5,744.7324" style="stroke:#181818;stroke-width:1.0;"/><line style="stroke:#181818;stroke-width:1.0;" x1="33.5" x2="367.5" y1="744.7324" y2="744.7324"/><text fill="#000000" font-family="sans-serif" font-size="13" font-weight="bold" lengthAdjust="spacing" textLength="14" x="45.5" y="739.4697">20</text><text fill="#000000" font-family="sans-serif" font-size="13" lengthAdjust="spacing" textLength="284" x="63.5" y="739.4697">displays urgency degrees and asks to select one</text><polygon fill="#181818" points="351.5,772.0234,361.5,776.0234,351.5,780.0234,355.5,776.0234" style="stroke:#181818;stroke-width:1.0;"/><line style="stroke:#181818;stroke-width:1.0;" x1="28.5" x2="357.5" y1="776.0234" y2="776.0234"/><text fill="#000000" font-family="sans-serif" font-size="13" font-weight="bold" lengthAdjust="spacing" textLength="14" x="35.5" y="770.7607">21</text><text fill="#000000" font-family="sans-serif" font-size="13" lengthAdjust="spacing" textLength="203" x="53.5" y="770.7607">selects the desired urgency degree</text><polygon fill="#181818" points="39.5,803.3145,29.5,807.3145,39.5,811.3145,35.5,807.3145" style="stroke:#181818;stroke-width:1.0;"/><line style="stroke:#181818;stroke-width:1.0;" x1="33.5" x2="367.5" y1="807.3145" y2="807.3145"/><text fill="#000000" font-family="sans-serif" font-size="13" font-weight="bold" lengthAdjust="spacing" textLength="14" x="45.5" y="802.0518">22</text><text fill="#000000" font-family="sans-serif" font-size="13" lengthAdjust="spacing" textLength="271" x="63.5" y="802.0518">asks to type description and expected duration</text><polygon fill="#181818" points="351.5,834.6055,361.5,838.6055,351.5,842.6055,355.5,838.6055" style="stroke:#181818;stroke-width:1.0;"/><line style="stroke:#181818;stroke-width:1.0;" x1="28.5" x2="357.5" y1="838.6055" y2="838.6055"/><text fill="#000000" font-family="sans-serif" font-size="13" font-weight="bold" lengthAdjust="spacing" textLength="14" x="35.5" y="833.3428">23</text><text fill="#000000" font-family="sans-serif" font-size="13" lengthAdjust="spacing" textLength="144" x="53.5" y="833.3428">types the requested data</text><polygon fill="#181818" points="1547,883.1875,1557,887.1875,1547,891.1875,1551,887.1875" style="stroke:#181818;stroke-width:1.0;"/><line style="stroke:#181818;stroke-width:1.0;" x1="373.5" x2="1553" y1="887.1875" y2="887.1875"/><text fill="#000000" font-family="sans-serif" font-size="13" font-weight="bold" lengthAdjust="spacing" textLength="14" x="380.5" y="873.2793">24</text><text fill="#000000" font-family="sans-serif" font-size="13" lengthAdjust="spacing" textLength="267" x="398.5" y="864.6338">ToDoEntryDTO(description, expectedDuration,</text><text fill="#000000" font-family="sans-serif" font-size="13" lengthAdjust="spacing" textLength="170" x="402.5" y="881.9248">greenSpace, UrgencyDegree)</text><polygon fill="#181818" points="384.5,914.4785,374.5,918.4785,384.5,922.4785,380.5,918.4785" style="stroke:#181818;stroke-width:1.0;"/><line style="stroke:#181818;stroke-width:1.0;stroke-dasharray:2.0,2.0;" x1="378.5" x2="1563" y1="918.4785" y2="918.4785"/><text fill="#000000" font-family="sans-serif" font-size="13" font-weight="bold" lengthAdjust="spacing" textLength="14" x="390.5" y="913.2158">25</text><text fill="#000000" font-family="sans-serif" font-size="13" lengthAdjust="spacing" textLength="84" x="408.5" y="913.2158">toDoEntryDTO</text><polygon fill="#181818" points="594.5,945.7695,604.5,949.7695,594.5,953.7695,598.5,949.7695" style="stroke:#181818;stroke-width:1.0;"/><line style="stroke:#181818;stroke-width:1.0;" x1="368.5" x2="600.5" y1="949.7695" y2="949.7695"/><text fill="#000000" font-family="sans-serif" font-size="13" font-weight="bold" lengthAdjust="spacing" textLength="14" x="375.5" y="944.5068">26</text><text fill="#000000" font-family="sans-serif" font-size="13" lengthAdjust="spacing" textLength="196" x="393.5" y="944.5068">registerToDoEntry(toDoEntryDTO)</text><polygon fill="#181818" points="753.5,977.0605,763.5,981.0605,753.5,985.0605,757.5,981.0605" style="stroke:#181818;stroke-width:1.0;"/><line style="stroke:#181818;stroke-width:1.0;" x1="616.5" x2="759.5" y1="981.0605" y2="981.0605"/><text fill="#000000" font-family="sans-serif" font-size="13" font-weight="bold" lengthAdjust="spacing" textLength="14" x="623.5" y="975.7979">27</text><text fill="#000000" font-family="sans-serif" font-size="13" lengthAdjust="spacing" textLength="75" x="641.5" y="975.7979">getInstance()</text><polygon fill="#181818" points="627.5,1008.3516,617.5,1012.3516,627.5,1016.3516,623.5,1012.3516" style="stroke:#181818;stroke-width:1.0;"/><line style="stroke:#181818;stroke-width:1.0;stroke-dasharray:2.0,2.0;" x1="621.5" x2="769.5" y1="1012.3516" y2="1012.3516"/><text fill="#000000" font-family="sans-serif" font-size="13" font-weight="bold" lengthAdjust="spacing" textLength="14" x="633.5" y="1007.0889">28</text><text fill="#000000" font-family="sans-serif" font-size="13" lengthAdjust="spacing" textLength="67" x="651.5" y="1007.0889">repositories</text><polygon fill="#181818" points="860.5,1039.6426,870.5,1043.6426,860.5,1047.6426,864.5,1043.6426" style="stroke:#181818;stroke-width:1.0;"/><line style="stroke:#181818;stroke-width:1.0;" x1="616.5" x2="866.5" y1="1043.6426" y2="1043.6426"/><text fill="#000000" font-family="sans-serif" font-size="13" font-weight="bold" lengthAdjust="spacing" textLength="14" x="623.5" y="1038.3799">29</text><text fill="#000000" font-family="sans-serif" font-size="13" lengthAdjust="spacing" textLength="149" x="641.5" y="1038.3799">getToDoEntryRepository()</text><polygon fill="#181818" points="627.5,1070.9336,617.5,1074.9336,627.5,1078.9336,623.5,1074.9336" style="stroke:#181818;stroke-width:1.0;"/><line style="stroke:#181818;stroke-width:1.0;stroke-dasharray:2.0,2.0;" x1="621.5" x2="876.5" y1="1074.9336" y2="1074.9336"/><text fill="#000000" font-family="sans-serif" font-size="13" font-weight="bold" lengthAdjust="spacing" textLength="14" x="633.5" y="1069.6709">30</text><text fill="#000000" font-family="sans-serif" font-size="13" lengthAdjust="spacing" textLength="120" x="651.5" y="1069.6709">toDoEntryRepository</text><polygon fill="#181818" points="1386,1102.2246,1396,1106.2246,1386,1110.2246,1390,1106.2246" style="stroke:#181818;stroke-width:1.0;"/><line style="stroke:#181818;stroke-width:1.0;" x1="616.5" x2="1392" y1="1106.2246" y2="1106.2246"/><text fill="#000000" font-family="sans-serif" font-size="13" font-weight="bold" lengthAdjust="spacing" textLength="14" x="623.5" y="1100.9619">31</text><text fill="#000000" font-family="sans-serif" font-size="13" lengthAdjust="spacing" textLength="137" x="641.5" y="1100.9619">toEntity(toDoEntryDTO)</text><polygon fill="#181818" points="1854,1150.8066,1864,1154.8066,1854,1158.8066,1858,1154.8066" style="stroke:#181818;stroke-width:1.0;"/><line style="stroke:#181818;stroke-width:1.0;" x1="1408" x2="1860" y1="1154.8066" y2="1154.8066"/><text fill="#000000" font-family="sans-serif" font-size="13" font-weight="bold" lengthAdjust="spacing" textLength="14" x="1415" y="1140.8984">32</text><text fill="#000000" font-family="sans-serif" font-size="13" lengthAdjust="spacing" textLength="417" x="1433" y="1132.2529">ToDoEntry(toDoEntryDTO.description, toDoEntryDTO.expectedDuration,</text><text fill="#000000" font-family="sans-serif" font-size="13" lengthAdjust="spacing" textLength="344" x="1433" y="1149.5439">toDoEntryDTO.greenSpace, toDoEntryDTO.urgencyDegree)</text><polygon fill="#181818" points="1419,1182.0977,1409,1186.0977,1419,1190.0977,1415,1186.0977" style="stroke:#181818;stroke-width:1.0;"/><line style="stroke:#181818;stroke-width:1.0;stroke-dasharray:2.0,2.0;" x1="1413" x2="1870" y1="1186.0977" y2="1186.0977"/><text fill="#000000" font-family="sans-serif" font-size="13" font-weight="bold" lengthAdjust="spacing" textLength="14" x="1425" y="1180.835">33</text><text fill="#000000" font-family="sans-serif" font-size="13" lengthAdjust="spacing" textLength="58" x="1443" y="1180.835">toDoEntry</text><polygon fill="#181818" points="627.5,1213.3887,617.5,1217.3887,627.5,1221.3887,623.5,1217.3887" style="stroke:#181818;stroke-width:1.0;"/><line style="stroke:#181818;stroke-width:1.0;stroke-dasharray:2.0,2.0;" x1="621.5" x2="1402" y1="1217.3887" y2="1217.3887"/><text fill="#000000" font-family="sans-serif" font-size="13" font-weight="bold" lengthAdjust="spacing" textLength="14" x="633.5" y="1212.126">34</text><text fill="#000000" font-family="sans-serif" font-size="13" lengthAdjust="spacing" textLength="58" x="651.5" y="1212.126">toDoEntry</text><polygon fill="#181818" points="1167,1244.6797,1177,1248.6797,1167,1252.6797,1171,1248.6797" style="stroke:#181818;stroke-width:1.0;"/><line style="stroke:#181818;stroke-width:1.0;" x1="616.5" x2="1173" y1="1248.6797" y2="1248.6797"/><text fill="#000000" font-family="sans-serif" font-size="13" font-weight="bold" lengthAdjust="spacing" textLength="14" x="623.5" y="1243.417">35</text><text fill="#000000" font-family="sans-serif" font-size="13" lengthAdjust="spacing" textLength="170" x="641.5" y="1243.417">registerToDoEntry(toDoEntry)</text><line style="stroke:#181818;stroke-width:1.0;stroke-dasharray:2.0,2.0;" x1="1189" x2="1231" y1="1279.9707" y2="1279.9707"/><line style="stroke:#181818;stroke-width:1.0;stroke-dasharray:2.0,2.0;" x1="1231" x2="1231" y1="1279.9707" y2="1292.9707"/><line style="stroke:#181818;stroke-width:1.0;stroke-dasharray:2.0,2.0;" x1="1190" x2="1231" y1="1292.9707" y2="1292.9707"/><polygon fill="#181818" points="1200,1288.9707,1190,1292.9707,1200,1296.9707,1196,1292.9707" style="stroke:#181818;stroke-width:1.0;"/><text fill="#000000" font-family="sans-serif" font-size="13" font-weight="bold" lengthAdjust="spacing" textLength="14" x="1196" y="1274.708">36</text><text fill="#000000" font-family="sans-serif" font-size="13" lengthAdjust="spacing" textLength="177" x="1214" y="1274.708">isToDoEntryUnique(toDoEntry)</text><polygon fill="#181818" points="627.5,1320.2617,617.5,1324.2617,627.5,1328.2617,623.5,1324.2617" style="stroke:#181818;stroke-width:1.0;"/><line style="stroke:#181818;stroke-width:1.0;stroke-dasharray:2.0,2.0;" x1="621.5" x2="1183" y1="1324.2617" y2="1324.2617"/><text fill="#000000" font-family="sans-serif" font-size="13" font-weight="bold" lengthAdjust="spacing" textLength="14" x="633.5" y="1318.999">37</text><text fill="#000000" font-family="sans-serif" font-size="13" lengthAdjust="spacing" textLength="49" x="651.5" y="1318.999">success</text><polygon fill="#181818" points="384.5,1351.5527,374.5,1355.5527,384.5,1359.5527,380.5,1355.5527" style="stroke:#181818;stroke-width:1.0;"/><line style="stroke:#181818;stroke-width:1.0;stroke-dasharray:2.0,2.0;" x1="378.5" x2="610.5" y1="1355.5527" y2="1355.5527"/><text fill="#000000" font-family="sans-serif" font-size="13" font-weight="bold" lengthAdjust="spacing" textLength="14" x="390.5" y="1350.29">38</text><text fill="#000000" font-family="sans-serif" font-size="13" lengthAdjust="spacing" textLength="49" x="408.5" y="1350.29">success</text><polygon fill="#181818" points="34.5,1382.8438,24.5,1386.8438,34.5,1390.8438,30.5,1386.8438" style="stroke:#181818;stroke-width:1.0;"/><line style="stroke:#181818;stroke-width:1.0;stroke-dasharray:2.0,2.0;" x1="28.5" x2="367.5" y1="1386.8438" y2="1386.8438"/><text fill="#000000" font-family="sans-serif" font-size="13" font-weight="bold" lengthAdjust="spacing" textLength="14" x="40.5" y="1381.5811">39</text><text fill="#000000" font-family="sans-serif" font-size="13" lengthAdjust="spacing" textLength="190" x="58.5" y="1381.5811">displays message of (in)success</text><!--SRC=[tLVDRjim3BxxAOIS4g3k0mJ3WA4fYWBjDZJ9hHVDPXmXZkH9Shky_IWbbYLBTeeDkqo7hP74Znz9ySVgm7X39JsIe-2Ys4jn1A9b2vbo9mqj3hI2jJxLG2GKclAgzY-eFIt5E-CLsT5QGPRHLWlU7d-0nByBBIIPFQoVPuGgSdziQd42o51Kiu8rb6ioMxv0nPG6kH4hSS-rF6qVxVNjuxMBTmB_5NKDqWhSRLwU8f56A8Oi62XxnssSrioOWcH34Ub9lF8OuFlJbqqeyI01-1ez1JquIbQ9ROjWxvkz4CPP5Q3eUDU2RAWwJ60yqwP1huoShZRVPZOwx8rgwEEI4LpTBv9_nX2G9MexAA85eML9AE7mJi20c2sz1mERhmHvmj3CpWWE62DeDyn2A0Gq8KB82dJlDICvNxYBJjg6qssRPQKH9H74C-WZL_X22_3W0iXKz8ERPgNGymlt9V7VHoHQmgIguVNE7lEcXbxfvGV610RPrpWyjN2vv-q4w1Hr2sfMYgjxlLV26D3idtoajyTBCZQesGZF4TIEQPGDGyQO1igo3jMDs10dLt2l5g8XEonto6_l6K0OdpB7h06muUwdwX8p3V_pM4uy25ym6r63HzRPGxs-tsFnmFM1cj0HmCjm8pBFvL8LXIAxfk-CaGfuLwucG3t0iBYOueJohlGjISbKKzEJiYNEFXbYCHMXl7GbKK6DFP483ja0lojzKJKzYvnnIr1CGkdZfmlei7XkPGMyEAt063kLUBsPNLO4ekh-w_Pv6dBeiv1V17Qc6-lmaZi-lNsZTGiADVeUZB539iuYuzPsI3zB4UzzcGhr1GDDjYh_HQH35L6mOtvz-zMdnk8KaZMQOKyozE1NWpeGk6mbDRi9Tabo1krCJS9FzBt5e9fUQ-3X4850_k-vH-_6SLjTgDsy-fNm9WnmelydInco-9JdCGtjN_Ri7muzoN543WVBkG-tIDMFYryJoORh_vzJ4iFgNuyfYL7twfGonZJL-xNPO7eikAarrVmd1SsAEVWzrq-TWD5ja4J1IPHHv9K75_pq2WxQTAvTjTjHl2hI6vQF-lz3MAck_oU-JZoix8DwusYFlRFkCsowY2ooT9gxZxWiSq1vYCfK_rdC6LPg7pMAWGzoCLwr1KujAXkTh1o7yP6gmnYReoB3XdrZfE4U4PHMGCIEp1bV-6e63TRxwRvMVmC0]--></g></svg>