<?xml version="1.0" encoding="us-ascii" standalone="no"?><svg xmlns="http://www.w3.org/2000/svg" xmlns:xlink="http://www.w3.org/1999/xlink" contentStyleType="text/css" height="1240px" preserveAspectRatio="none" style="width:1581px;height:1240px;background:#FFFFFF;" version="1.1" viewBox="0 0 1581 1240" width="1581px" zoomAndPan="magnify"><defs/><g><rect fill="#FFFFFF" height="1045.8945" style="stroke:#181818;stroke-width:1.0;" width="10" x="18.5" y="93.6211"/><rect fill="#FFFFFF" height="376.2012" style="stroke:#181818;stroke-width:1.0;" width="10" x="363.5" y="134.2031"/><rect fill="#FFFFFF" height="156.4551" style="stroke:#181818;stroke-width:1.0;" width="10" x="363.5" y="541.6953"/><rect fill="#FFFFFF" height="31.291" style="stroke:#181818;stroke-width:1.0;" width="10" x="363.5" y="729.4414"/><rect fill="#FFFFFF" height="111.1641" style="stroke:#181818;stroke-width:1.0;" width="10" x="363.5" y="792.0234"/><rect fill="#FFFFFF" height="31.291" style="stroke:#181818;stroke-width:1.0;" width="10" x="363.5" y="1108.2246"/><rect fill="#FFFFFF" height="313.6191" style="stroke:#181818;stroke-width:1.0;" width="10" x="606.5" y="165.4941"/><rect fill="#FFFFFF" height="31.291" style="stroke:#181818;stroke-width:1.0;" width="10" x="606.5" y="572.9863"/><rect fill="#FFFFFF" height="31.291" style="stroke:#181818;stroke-width:1.0;" width="10" x="606.5" y="635.5684"/><rect fill="#FFFFFF" height="205.0371" style="stroke:#181818;stroke-width:1.0;" width="10" x="606.5" y="903.1875"/><rect fill="#FFFFFF" height="31.291" style="stroke:#181818;stroke-width:1.0;" width="10" x="765.5" y="196.7852"/><rect fill="#FFFFFF" height="31.291" style="stroke:#181818;stroke-width:1.0;" width="10" x="899" y="259.3672"/><rect fill="#FFFFFF" height="31.291" style="stroke:#181818;stroke-width:1.0;" width="10" x="899" y="1045.6426"/><rect fill="#FFFFFF" height="125.873" style="stroke:#181818;stroke-width:1.0;" width="10" x="1049" y="321.9492"/><rect fill="#FFFFFF" height="79.873" style="stroke:#181818;stroke-width:1.0;" width="10" x="1049" y="934.4785"/><rect fill="#FFFFFF" height="30" style="stroke:#181818;stroke-width:1.0;" width="10" x="1292" y="379.5313"/><rect fill="#FFFFFF" height="31.291" style="stroke:#181818;stroke-width:1.0;" width="10" x="1292" y="840.6055"/><rect fill="#FFFFFF" height="31.291" style="stroke:#181818;stroke-width:1.0;" width="10" x="1418" y="604.2773"/><rect fill="none" height="80.582" style="stroke:#000000;stroke-width:1.5;" width="384" x="979" y="336.9492"/><line style="stroke:#181818;stroke-width:0.5;stroke-dasharray:5.0,5.0;" x1="23" x2="23" y1="83.6211" y2="1157.5156"/><line style="stroke:#181818;stroke-width:0.5;stroke-dasharray:5.0,5.0;" x1="368" x2="368" y1="83.6211" y2="1157.5156"/><line style="stroke:#181818;stroke-width:0.5;stroke-dasharray:5.0,5.0;" x1="611" x2="611" y1="83.6211" y2="1157.5156"/><line style="stroke:#181818;stroke-width:0.5;stroke-dasharray:5.0,5.0;" x1="770" x2="770" y1="83.6211" y2="1157.5156"/><line style="stroke:#181818;stroke-width:0.5;stroke-dasharray:5.0,5.0;" x1="904" x2="904" y1="83.6211" y2="1157.5156"/><line style="stroke:#181818;stroke-width:0.5;stroke-dasharray:5.0,5.0;" x1="1054" x2="1054" y1="83.6211" y2="1157.5156"/><line style="stroke:#181818;stroke-width:0.5;stroke-dasharray:5.0,5.0;" x1="1297" x2="1297" y1="83.6211" y2="1157.5156"/><line style="stroke:#181818;stroke-width:0.5;stroke-dasharray:5.0,5.0;" x1="1423" x2="1423" y1="83.6211" y2="1157.5156"/><line style="stroke:#181818;stroke-width:0.5;stroke-dasharray:5.0,5.0;" x1="1534" x2="1534" y1="83.6211" y2="1157.5156"/><text fill="#000000" font-family="sans-serif" font-size="14" lengthAdjust="spacing" textLength="31" x="5" y="80.1074">GSM</text><ellipse cx="23.5" cy="13.5" fill="#E3E3E3" rx="8" ry="8" style="stroke:#181818;stroke-width:0.5;"/><path d="M23.5,21.5 L23.5,48.5 M10.5,29.5 L36.5,29.5 M23.5,48.5 L10.5,63.5 M23.5,48.5 L36.5,63.5 " fill="none" style="stroke:#181818;stroke-width:0.5;"/><text fill="#000000" font-family="sans-serif" font-size="14" lengthAdjust="spacing" textLength="31" x="5" y="1171.623">GSM</text><ellipse cx="23.5" cy="1183.6367" fill="#E3E3E3" rx="8" ry="8" style="stroke:#181818;stroke-width:0.5;"/><path d="M23.5,1191.6367 L23.5,1218.6367 M10.5,1199.6367 L36.5,1199.6367 M23.5,1218.6367 L10.5,1233.6367 M23.5,1218.6367 L36.5,1233.6367 " fill="none" style="stroke:#181818;stroke-width:0.5;"/><rect fill="#E3E3E3" height="32.6211" rx="2.5" ry="2.5" style="stroke:#181818;stroke-width:0.5;" width="83" x="327" y="50"/><text fill="#000000" font-family="sans-serif" font-size="14" lengthAdjust="spacing" textLength="69" x="334" y="72.1074">ToDoListUI</text><rect fill="#E3E3E3" height="32.6211" rx="2.5" ry="2.5" style="stroke:#181818;stroke-width:0.5;" width="83" x="327" y="1156.5156"/><text fill="#000000" font-family="sans-serif" font-size="14" lengthAdjust="spacing" textLength="69" x="334" y="1178.623">ToDoListUI</text><rect fill="#E3E3E3" height="32.6211" rx="2.5" ry="2.5" style="stroke:#181818;stroke-width:0.5;" width="201" x="511" y="50"/><text fill="#000000" font-family="sans-serif" font-size="14" lengthAdjust="spacing" textLength="187" x="518" y="72.1074">:RegisterToDoEntryController</text><rect fill="#E3E3E3" height="32.6211" rx="2.5" ry="2.5" style="stroke:#181818;stroke-width:0.5;" width="201" x="511" y="1156.5156"/><text fill="#000000" font-family="sans-serif" font-size="14" lengthAdjust="spacing" textLength="187" x="518" y="1178.623">:RegisterToDoEntryController</text><rect fill="#E3E3E3" height="32.6211" rx="2.5" ry="2.5" style="stroke:#181818;stroke-width:0.5;" width="97" x="722" y="50"/><text fill="#000000" font-family="sans-serif" font-size="14" lengthAdjust="spacing" textLength="83" x="729" y="72.1074">:Repositories</text><rect fill="#E3E3E3" height="32.6211" rx="2.5" ry="2.5" style="stroke:#181818;stroke-width:0.5;" width="97" x="722" y="1156.5156"/><text fill="#000000" font-family="sans-serif" font-size="14" lengthAdjust="spacing" textLength="83" x="729" y="1178.623">:Repositories</text><rect fill="#E3E3E3" height="51.2422" rx="2.5" ry="2.5" style="stroke:#181818;stroke-width:0.5;" width="150" x="829" y="31.3789"/><text fill="#000000" font-family="sans-serif" font-size="14" lengthAdjust="spacing" textLength="136" x="836" y="53.4863">ToDoEntryRepository</text><text fill="#000000" font-family="sans-serif" font-size="14" lengthAdjust="spacing" textLength="135" x="836.5" y="72.1074">:toDoEntryRepository</text><rect fill="#E3E3E3" height="51.2422" rx="2.5" ry="2.5" style="stroke:#181818;stroke-width:0.5;" width="150" x="829" y="1156.5156"/><text fill="#000000" font-family="sans-serif" font-size="14" lengthAdjust="spacing" textLength="136" x="836" y="1178.623">ToDoEntryRepository</text><text fill="#000000" font-family="sans-serif" font-size="14" lengthAdjust="spacing" textLength="135" x="836.5" y="1197.2441">:toDoEntryRepository</text><rect fill="#E3E3E3" height="32.6211" rx="2.5" ry="2.5" style="stroke:#181818;stroke-width:0.5;" width="130" x="989" y="50"/><text fill="#000000" font-family="sans-serif" font-size="14" lengthAdjust="spacing" textLength="116" x="996" y="72.1074">ToDoEntryMapper</text><rect fill="#E3E3E3" height="32.6211" rx="2.5" ry="2.5" style="stroke:#181818;stroke-width:0.5;" width="130" x="989" y="1156.5156"/><text fill="#000000" font-family="sans-serif" font-size="14" lengthAdjust="spacing" textLength="116" x="996" y="1178.623">ToDoEntryMapper</text><rect fill="#E3E3E3" height="32.6211" rx="2.5" ry="2.5" style="stroke:#181818;stroke-width:0.5;" width="112" x="1241" y="50"/><text fill="#000000" font-family="sans-serif" font-size="14" lengthAdjust="spacing" textLength="98" x="1248" y="72.1074">ToDoEntryDTO</text><rect fill="#E3E3E3" height="32.6211" rx="2.5" ry="2.5" style="stroke:#181818;stroke-width:0.5;" width="112" x="1241" y="1156.5156"/><text fill="#000000" font-family="sans-serif" font-size="14" lengthAdjust="spacing" textLength="98" x="1248" y="1178.623">ToDoEntryDTO</text><rect fill="#E3E3E3" height="32.6211" rx="2.5" ry="2.5" style="stroke:#181818;stroke-width:0.5;" width="120" x="1363" y="50"/><text fill="#000000" font-family="sans-serif" font-size="14" lengthAdjust="spacing" textLength="106" x="1370" y="72.1074">UrgencyDegrees</text><rect fill="#E3E3E3" height="32.6211" rx="2.5" ry="2.5" style="stroke:#181818;stroke-width:0.5;" width="120" x="1363" y="1156.5156"/><text fill="#000000" font-family="sans-serif" font-size="14" lengthAdjust="spacing" textLength="106" x="1370" y="1178.623">UrgencyDegrees</text><rect fill="#E3E3E3" height="32.6211" rx="2.5" ry="2.5" style="stroke:#181818;stroke-width:0.5;" width="82" x="1493" y="50"/><text fill="#000000" font-family="sans-serif" font-size="14" lengthAdjust="spacing" textLength="68" x="1500" y="72.1074">ToDoEntry</text><rect fill="#E3E3E3" height="32.6211" rx="2.5" ry="2.5" style="stroke:#181818;stroke-width:0.5;" width="82" x="1493" y="1156.5156"/><text fill="#000000" font-family="sans-serif" font-size="14" lengthAdjust="spacing" textLength="68" x="1500" y="1178.623">ToDoEntry</text><rect fill="#FFFFFF" height="1045.8945" style="stroke:#181818;stroke-width:1.0;" width="10" x="18.5" y="93.6211"/><rect fill="#FFFFFF" height="376.2012" style="stroke:#181818;stroke-width:1.0;" width="10" x="363.5" y="134.2031"/><rect fill="#FFFFFF" height="156.4551" style="stroke:#181818;stroke-width:1.0;" width="10" x="363.5" y="541.6953"/><rect fill="#FFFFFF" height="31.291" style="stroke:#181818;stroke-width:1.0;" width="10" x="363.5" y="729.4414"/><rect fill="#FFFFFF" height="111.1641" style="stroke:#181818;stroke-width:1.0;" width="10" x="363.5" y="792.0234"/><rect fill="#FFFFFF" height="31.291" style="stroke:#181818;stroke-width:1.0;" width="10" x="363.5" y="1108.2246"/><rect fill="#FFFFFF" height="313.6191" style="stroke:#181818;stroke-width:1.0;" width="10" x="606.5" y="165.4941"/><rect fill="#FFFFFF" height="31.291" style="stroke:#181818;stroke-width:1.0;" width="10" x="606.5" y="572.9863"/><rect fill="#FFFFFF" height="31.291" style="stroke:#181818;stroke-width:1.0;" width="10" x="606.5" y="635.5684"/><rect fill="#FFFFFF" height="205.0371" style="stroke:#181818;stroke-width:1.0;" width="10" x="606.5" y="903.1875"/><rect fill="#FFFFFF" height="31.291" style="stroke:#181818;stroke-width:1.0;" width="10" x="765.5" y="196.7852"/><rect fill="#FFFFFF" height="31.291" style="stroke:#181818;stroke-width:1.0;" width="10" x="899" y="259.3672"/><rect fill="#FFFFFF" height="31.291" style="stroke:#181818;stroke-width:1.0;" width="10" x="899" y="1045.6426"/><rect fill="#FFFFFF" height="125.873" style="stroke:#181818;stroke-width:1.0;" width="10" x="1049" y="321.9492"/><rect fill="#FFFFFF" height="79.873" style="stroke:#181818;stroke-width:1.0;" width="10" x="1049" y="934.4785"/><rect fill="#FFFFFF" height="30" style="stroke:#181818;stroke-width:1.0;" width="10" x="1292" y="379.5313"/><rect fill="#FFFFFF" height="31.291" style="stroke:#181818;stroke-width:1.0;" width="10" x="1292" y="840.6055"/><rect fill="#FFFFFF" height="31.291" style="stroke:#181818;stroke-width:1.0;" width="10" x="1418" y="604.2773"/><polygon fill="#181818" points="351.5,130.2031,361.5,134.2031,351.5,138.2031,355.5,134.2031" style="stroke:#181818;stroke-width:1.0;"/><line style="stroke:#181818;stroke-width:1.0;" x1="28.5" x2="357.5" y1="134.2031" y2="134.2031"/><text fill="#000000" font-family="sans-serif" font-size="13" font-weight="bold" lengthAdjust="spacing" textLength="7" x="35.5" y="120.2949">1</text><text fill="#000000" font-family="sans-serif" font-size="13" lengthAdjust="spacing" textLength="249" x="46.5" y="111.6494">asks to add a new entry to the "To Do List"</text><text fill="#000000" font-family="sans-serif" font-size="13" lengthAdjust="spacing" textLength="81" x="50.5" y="128.9404">to the Agenda</text><polygon fill="#181818" points="594.5,161.4941,604.5,165.4941,594.5,169.4941,598.5,165.4941" style="stroke:#181818;stroke-width:1.0;"/><line style="stroke:#181818;stroke-width:1.0;" x1="373.5" x2="600.5" y1="165.4941" y2="165.4941"/><text fill="#000000" font-family="sans-serif" font-size="13" font-weight="bold" lengthAdjust="spacing" textLength="7" x="380.5" y="160.2314">2</text><text fill="#000000" font-family="sans-serif" font-size="13" lengthAdjust="spacing" textLength="119" x="391.5" y="160.2314">getGreenSpaceList()</text><polygon fill="#181818" points="753.5,192.7852,763.5,196.7852,753.5,200.7852,757.5,196.7852" style="stroke:#181818;stroke-width:1.0;"/><line style="stroke:#181818;stroke-width:1.0;" x1="616.5" x2="759.5" y1="196.7852" y2="196.7852"/><text fill="#000000" font-family="sans-serif" font-size="13" font-weight="bold" lengthAdjust="spacing" textLength="7" x="623.5" y="191.5225">3</text><text fill="#000000" font-family="sans-serif" font-size="13" lengthAdjust="spacing" textLength="75" x="634.5" y="191.5225">getInstance()</text><polygon fill="#181818" points="627.5,224.0762,617.5,228.0762,627.5,232.0762,623.5,228.0762" style="stroke:#181818;stroke-width:1.0;"/><line style="stroke:#181818;stroke-width:1.0;stroke-dasharray:2.0,2.0;" x1="621.5" x2="769.5" y1="228.0762" y2="228.0762"/><text fill="#000000" font-family="sans-serif" font-size="13" font-weight="bold" lengthAdjust="spacing" textLength="7" x="633.5" y="222.8135">4</text><text fill="#000000" font-family="sans-serif" font-size="13" lengthAdjust="spacing" textLength="67" x="644.5" y="222.8135">repositories</text><polygon fill="#181818" points="887,255.3672,897,259.3672,887,263.3672,891,259.3672" style="stroke:#181818;stroke-width:1.0;"/><line style="stroke:#181818;stroke-width:1.0;" x1="616.5" x2="893" y1="259.3672" y2="259.3672"/><text fill="#000000" font-family="sans-serif" font-size="13" font-weight="bold" lengthAdjust="spacing" textLength="7" x="623.5" y="254.1045">5</text><text fill="#000000" font-family="sans-serif" font-size="13" lengthAdjust="spacing" textLength="47" x="634.5" y="254.1045">getList()</text><polygon fill="#181818" points="627.5,286.6582,617.5,290.6582,627.5,294.6582,623.5,290.6582" style="stroke:#181818;stroke-width:1.0;"/><line style="stroke:#181818;stroke-width:1.0;stroke-dasharray:2.0,2.0;" x1="621.5" x2="903" y1="290.6582" y2="290.6582"/><text fill="#000000" font-family="sans-serif" font-size="13" font-weight="bold" lengthAdjust="spacing" textLength="7" x="633.5" y="285.3955">6</text><text fill="#000000" font-family="sans-serif" font-size="13" lengthAdjust="spacing" textLength="93" x="644.5" y="285.3955">GreenSpaceList</text><polygon fill="#181818" points="1037,317.9492,1047,321.9492,1037,325.9492,1041,321.9492" style="stroke:#181818;stroke-width:1.0;"/><line style="stroke:#181818;stroke-width:1.0;" x1="616.5" x2="1043" y1="321.9492" y2="321.9492"/><text fill="#000000" font-family="sans-serif" font-size="13" font-weight="bold" lengthAdjust="spacing" textLength="7" x="623.5" y="316.6865">7</text><text fill="#000000" font-family="sans-serif" font-size="13" lengthAdjust="spacing" textLength="231" x="634.5" y="316.6865">getGreenSpaceDTOsList(toDoEntryList)</text><path d="M979,336.9492 L1052,336.9492 L1052,346.2402 L1042,356.2402 L979,356.2402 L979,336.9492 " fill="#EEEEEE" style="stroke:#000000;stroke-width:1.5;"/><rect fill="none" height="80.582" style="stroke:#000000;stroke-width:1.5;" width="384" x="979" y="336.9492"/><text fill="#000000" font-family="sans-serif" font-size="13" font-weight="bold" lengthAdjust="spacing" textLength="28" x="994" y="351.9775">loop</text><text fill="#000000" font-family="sans-serif" font-size="11" font-weight="bold" lengthAdjust="spacing" textLength="249" x="1067" y="350.8193">[for each toDoEntry in availableToDoEntryList]</text><polygon fill="#181818" points="1280,375.5313,1290,379.5313,1280,383.5313,1284,379.5313" style="stroke:#181818;stroke-width:1.0;"/><line style="stroke:#181818;stroke-width:1.0;" x1="1059" x2="1286" y1="379.5313" y2="379.5313"/><text fill="#000000" font-family="sans-serif" font-size="13" font-weight="bold" lengthAdjust="spacing" textLength="7" x="1066" y="374.2686">8</text><text fill="#000000" font-family="sans-serif" font-size="13" lengthAdjust="spacing" textLength="203" x="1077" y="374.2686">toDoEntryDTO = toDTO(toDoEntry)</text><polygon fill="#181818" points="627.5,443.8223,617.5,447.8223,627.5,451.8223,623.5,447.8223" style="stroke:#181818;stroke-width:1.0;"/><line style="stroke:#181818;stroke-width:1.0;stroke-dasharray:2.0,2.0;" x1="621.5" x2="1053" y1="447.8223" y2="447.8223"/><text fill="#000000" font-family="sans-serif" font-size="13" font-weight="bold" lengthAdjust="spacing" textLength="7" x="633.5" y="442.5596">9</text><text fill="#000000" font-family="sans-serif" font-size="13" lengthAdjust="spacing" textLength="105" x="644.5" y="442.5596">toDoEntryDTOList</text><polygon fill="#181818" points="384.5,475.1133,374.5,479.1133,384.5,483.1133,380.5,479.1133" style="stroke:#181818;stroke-width:1.0;"/><line style="stroke:#181818;stroke-width:1.0;stroke-dasharray:2.0,2.0;" x1="378.5" x2="610.5" y1="479.1133" y2="479.1133"/><text fill="#000000" font-family="sans-serif" font-size="13" font-weight="bold" lengthAdjust="spacing" textLength="14" x="390.5" y="473.8506">10</text><text fill="#000000" font-family="sans-serif" font-size="13" lengthAdjust="spacing" textLength="112" x="408.5" y="473.8506">toDoEntryDTOsList</text><polygon fill="#181818" points="39.5,506.4043,29.5,510.4043,39.5,514.4043,35.5,510.4043" style="stroke:#181818;stroke-width:1.0;"/><line style="stroke:#181818;stroke-width:1.0;stroke-dasharray:2.0,2.0;" x1="33.5" x2="367.5" y1="510.4043" y2="510.4043"/><text fill="#000000" font-family="sans-serif" font-size="13" font-weight="bold" lengthAdjust="spacing" textLength="14" x="45.5" y="505.1416">11</text><text fill="#000000" font-family="sans-serif" font-size="13" lengthAdjust="spacing" textLength="293" x="63.5" y="505.1416">displays the Green Spaces and asks to select one</text><polygon fill="#181818" points="351.5,537.6953,361.5,541.6953,351.5,545.6953,355.5,541.6953" style="stroke:#181818;stroke-width:1.0;"/><line style="stroke:#181818;stroke-width:1.0;" x1="28.5" x2="357.5" y1="541.6953" y2="541.6953"/><text fill="#000000" font-family="sans-serif" font-size="13" font-weight="bold" lengthAdjust="spacing" textLength="14" x="35.5" y="536.4326">12</text><text fill="#000000" font-family="sans-serif" font-size="13" lengthAdjust="spacing" textLength="190" x="53.5" y="536.4326">selects the desired Green Space</text><polygon fill="#181818" points="594.5,568.9863,604.5,572.9863,594.5,576.9863,598.5,572.9863" style="stroke:#181818;stroke-width:1.0;"/><line style="stroke:#181818;stroke-width:1.0;" x1="373.5" x2="600.5" y1="572.9863" y2="572.9863"/><text fill="#000000" font-family="sans-serif" font-size="13" font-weight="bold" lengthAdjust="spacing" textLength="14" x="380.5" y="567.7236">13</text><text fill="#000000" font-family="sans-serif" font-size="13" lengthAdjust="spacing" textLength="136" x="398.5" y="567.7236">getUrgencyDegreeList()</text><polygon fill="#181818" points="1406,600.2773,1416,604.2773,1406,608.2773,1410,604.2773" style="stroke:#181818;stroke-width:1.0;"/><line style="stroke:#181818;stroke-width:1.0;" x1="611.5" x2="1412" y1="604.2773" y2="604.2773"/><text fill="#000000" font-family="sans-serif" font-size="13" font-weight="bold" lengthAdjust="spacing" textLength="14" x="618.5" y="599.0146">14</text><text fill="#000000" font-family="sans-serif" font-size="13" lengthAdjust="spacing" textLength="136" x="636.5" y="599.0146">getUrgencyDegreeList()</text><polygon fill="#181818" points="627.5,631.5684,617.5,635.5684,627.5,639.5684,623.5,635.5684" style="stroke:#181818;stroke-width:1.0;"/><line style="stroke:#181818;stroke-width:1.0;stroke-dasharray:2.0,2.0;" x1="621.5" x2="1422" y1="635.5684" y2="635.5684"/><text fill="#000000" font-family="sans-serif" font-size="13" font-weight="bold" lengthAdjust="spacing" textLength="14" x="633.5" y="630.3057">15</text><text fill="#000000" font-family="sans-serif" font-size="13" lengthAdjust="spacing" textLength="144" x="651.5" y="630.3057">UrgencyDegrees.values()</text><polygon fill="#181818" points="384.5,662.8594,374.5,666.8594,384.5,670.8594,380.5,666.8594" style="stroke:#181818;stroke-width:1.0;"/><line style="stroke:#181818;stroke-width:1.0;" x1="378.5" x2="610.5" y1="666.8594" y2="666.8594"/><text fill="#000000" font-family="sans-serif" font-size="13" font-weight="bold" lengthAdjust="spacing" textLength="14" x="390.5" y="661.5967">16</text><text fill="#000000" font-family="sans-serif" font-size="13" lengthAdjust="spacing" textLength="144" x="408.5" y="661.5967">UrgencyDegrees.values()</text><polygon fill="#181818" points="39.5,694.1504,29.5,698.1504,39.5,702.1504,35.5,698.1504" style="stroke:#181818;stroke-width:1.0;"/><line style="stroke:#181818;stroke-width:1.0;" x1="33.5" x2="367.5" y1="698.1504" y2="698.1504"/><text fill="#000000" font-family="sans-serif" font-size="13" font-weight="bold" lengthAdjust="spacing" textLength="14" x="45.5" y="692.8877">17</text><text fill="#000000" font-family="sans-serif" font-size="13" lengthAdjust="spacing" textLength="284" x="63.5" y="692.8877">displays urgency degrees and asks to select one</text><polygon fill="#181818" points="351.5,725.4414,361.5,729.4414,351.5,733.4414,355.5,729.4414" style="stroke:#181818;stroke-width:1.0;"/><line style="stroke:#181818;stroke-width:1.0;" x1="28.5" x2="357.5" y1="729.4414" y2="729.4414"/><text fill="#000000" font-family="sans-serif" font-size="13" font-weight="bold" lengthAdjust="spacing" textLength="14" x="35.5" y="724.1787">18</text><text fill="#000000" font-family="sans-serif" font-size="13" lengthAdjust="spacing" textLength="203" x="53.5" y="724.1787">selects the desired urgency degree</text><polygon fill="#181818" points="39.5,756.7324,29.5,760.7324,39.5,764.7324,35.5,760.7324" style="stroke:#181818;stroke-width:1.0;"/><line style="stroke:#181818;stroke-width:1.0;" x1="33.5" x2="367.5" y1="760.7324" y2="760.7324"/><text fill="#000000" font-family="sans-serif" font-size="13" font-weight="bold" lengthAdjust="spacing" textLength="14" x="45.5" y="755.4697">19</text><text fill="#000000" font-family="sans-serif" font-size="13" lengthAdjust="spacing" textLength="271" x="63.5" y="755.4697">asks to type description and expected duration</text><polygon fill="#181818" points="351.5,788.0234,361.5,792.0234,351.5,796.0234,355.5,792.0234" style="stroke:#181818;stroke-width:1.0;"/><line style="stroke:#181818;stroke-width:1.0;" x1="28.5" x2="357.5" y1="792.0234" y2="792.0234"/><text fill="#000000" font-family="sans-serif" font-size="13" font-weight="bold" lengthAdjust="spacing" textLength="14" x="35.5" y="786.7607">20</text><text fill="#000000" font-family="sans-serif" font-size="13" lengthAdjust="spacing" textLength="144" x="53.5" y="786.7607">types the requested data</text><polygon fill="#181818" points="1280,836.6055,1290,840.6055,1280,844.6055,1284,840.6055" style="stroke:#181818;stroke-width:1.0;"/><line style="stroke:#181818;stroke-width:1.0;" x1="373.5" x2="1286" y1="840.6055" y2="840.6055"/><text fill="#000000" font-family="sans-serif" font-size="13" font-weight="bold" lengthAdjust="spacing" textLength="14" x="380.5" y="826.6973">21</text><text fill="#000000" font-family="sans-serif" font-size="13" lengthAdjust="spacing" textLength="267" x="398.5" y="818.0518">ToDoEntryDTO(description, expectedDuration,</text><text fill="#000000" font-family="sans-serif" font-size="13" lengthAdjust="spacing" textLength="170" x="402.5" y="835.3428">greenSpace, UrgencyDegree)</text><polygon fill="#181818" points="384.5,867.8965,374.5,871.8965,384.5,875.8965,380.5,871.8965" style="stroke:#181818;stroke-width:1.0;"/><line style="stroke:#181818;stroke-width:1.0;stroke-dasharray:2.0,2.0;" x1="378.5" x2="1296" y1="871.8965" y2="871.8965"/><text fill="#000000" font-family="sans-serif" font-size="13" font-weight="bold" lengthAdjust="spacing" textLength="14" x="390.5" y="866.6338">22</text><text fill="#000000" font-family="sans-serif" font-size="13" lengthAdjust="spacing" textLength="84" x="408.5" y="866.6338">toDoEntryDTO</text><polygon fill="#181818" points="594.5,899.1875,604.5,903.1875,594.5,907.1875,598.5,903.1875" style="stroke:#181818;stroke-width:1.0;"/><line style="stroke:#181818;stroke-width:1.0;" x1="368.5" x2="600.5" y1="903.1875" y2="903.1875"/><text fill="#000000" font-family="sans-serif" font-size="13" font-weight="bold" lengthAdjust="spacing" textLength="14" x="375.5" y="897.9248">23</text><text fill="#000000" font-family="sans-serif" font-size="13" lengthAdjust="spacing" textLength="196" x="393.5" y="897.9248">registerToDoEntry(toDoEntryDTO)</text><polygon fill="#181818" points="1037,930.4785,1047,934.4785,1037,938.4785,1041,934.4785" style="stroke:#181818;stroke-width:1.0;"/><line style="stroke:#181818;stroke-width:1.0;" x1="616.5" x2="1043" y1="934.4785" y2="934.4785"/><text fill="#000000" font-family="sans-serif" font-size="13" font-weight="bold" lengthAdjust="spacing" textLength="14" x="623.5" y="929.2158">24</text><text fill="#000000" font-family="sans-serif" font-size="13" lengthAdjust="spacing" textLength="137" x="641.5" y="929.2158">toEntity(toDoEntryDTO)</text><polygon fill="#181818" points="1522,979.0605,1532,983.0605,1522,987.0605,1526,983.0605" style="stroke:#181818;stroke-width:1.0;"/><line style="stroke:#181818;stroke-width:1.0;" x1="1059" x2="1528" y1="983.0605" y2="983.0605"/><text fill="#000000" font-family="sans-serif" font-size="13" font-weight="bold" lengthAdjust="spacing" textLength="14" x="1066" y="969.1523">25</text><text fill="#000000" font-family="sans-serif" font-size="13" lengthAdjust="spacing" textLength="417" x="1084" y="960.5068">ToDoEntry(toDoEntryDTO.description, toDoEntryDTO.expectedDuration,</text><text fill="#000000" font-family="sans-serif" font-size="13" lengthAdjust="spacing" textLength="344" x="1084" y="977.7979">toDoEntryDTO.greenSpace, toDoEntryDTO.urgencyDegree)</text><polygon fill="#181818" points="627.5,1010.3516,617.5,1014.3516,627.5,1018.3516,623.5,1014.3516" style="stroke:#181818;stroke-width:1.0;"/><line style="stroke:#181818;stroke-width:1.0;stroke-dasharray:2.0,2.0;" x1="621.5" x2="1053" y1="1014.3516" y2="1014.3516"/><text fill="#000000" font-family="sans-serif" font-size="13" font-weight="bold" lengthAdjust="spacing" textLength="14" x="633.5" y="1009.0889">26</text><text fill="#000000" font-family="sans-serif" font-size="13" lengthAdjust="spacing" textLength="58" x="651.5" y="1009.0889">toDoEntry</text><polygon fill="#181818" points="887,1041.6426,897,1045.6426,887,1049.6426,891,1045.6426" style="stroke:#181818;stroke-width:1.0;"/><line style="stroke:#181818;stroke-width:1.0;" x1="616.5" x2="893" y1="1045.6426" y2="1045.6426"/><text fill="#000000" font-family="sans-serif" font-size="13" font-weight="bold" lengthAdjust="spacing" textLength="14" x="623.5" y="1040.3799">27</text><text fill="#000000" font-family="sans-serif" font-size="13" lengthAdjust="spacing" textLength="170" x="641.5" y="1040.3799">registerToDoEntry(toDoEntry)</text><polygon fill="#181818" points="627.5,1072.9336,617.5,1076.9336,627.5,1080.9336,623.5,1076.9336" style="stroke:#181818;stroke-width:1.0;"/><line style="stroke:#181818;stroke-width:1.0;stroke-dasharray:2.0,2.0;" x1="621.5" x2="903" y1="1076.9336" y2="1076.9336"/><text fill="#000000" font-family="sans-serif" font-size="13" font-weight="bold" lengthAdjust="spacing" textLength="14" x="633.5" y="1071.6709">28</text><text fill="#000000" font-family="sans-serif" font-size="13" lengthAdjust="spacing" textLength="49" x="651.5" y="1071.6709">success</text><polygon fill="#181818" points="384.5,1104.2246,374.5,1108.2246,384.5,1112.2246,380.5,1108.2246" style="stroke:#181818;stroke-width:1.0;"/><line style="stroke:#181818;stroke-width:1.0;stroke-dasharray:2.0,2.0;" x1="378.5" x2="610.5" y1="1108.2246" y2="1108.2246"/><text fill="#000000" font-family="sans-serif" font-size="13" font-weight="bold" lengthAdjust="spacing" textLength="14" x="390.5" y="1102.9619">29</text><text fill="#000000" font-family="sans-serif" font-size="13" lengthAdjust="spacing" textLength="49" x="408.5" y="1102.9619">success</text><polygon fill="#181818" points="34.5,1135.5156,24.5,1139.5156,34.5,1143.5156,30.5,1139.5156" style="stroke:#181818;stroke-width:1.0;"/><line style="stroke:#181818;stroke-width:1.0;stroke-dasharray:2.0,2.0;" x1="28.5" x2="367.5" y1="1139.5156" y2="1139.5156"/><text fill="#000000" font-family="sans-serif" font-size="13" font-weight="bold" lengthAdjust="spacing" textLength="14" x="40.5" y="1134.2529">30</text><text fill="#000000" font-family="sans-serif" font-size="13" lengthAdjust="spacing" textLength="190" x="58.5" y="1134.2529">displays message of (in)success</text><!--SRC=[jLVDRkCW4BxdAKOv9LBJ1uXsLrerLHMfLQKclVL2xQc3ue0NIBjv-nrmZC7Wj5hj-b0LcFdcOtw9tdFHCCKES9125Zib3mX67N6Y_Kd3YZshS6DEDOB2mZ1HrQ60th5IVd1HmHkhDKucx6YaE1vUKT7_XP4AfdURXoam3RU7ffOdn0cf6bxmXWa3qwrSoNkkpVFQ2Jslu-Fb4rPqYihAtGgZJZUI_igwHkKKRhPFzubA8pKdsnora_4Rfmst5o2AAGa7tak-YAL9TntSbkcztHh1U61DG-H6JbVRnwbp3Nzd1dkdJ82-RWMB7-G9M9ArlGOZWPKbC13u0MX1x9RPeOM5bGJhl-cBw7P_LYXArY9wG-HOjs4_WYO3rdDaea9pfn35XeAD5caszu9UstdPRzlFQHDAnhSjw5feIfS20xW8CXUKID9-EVJ5cVkICh8FTAHQujVDT1Vfejgo7pWYOkxZdz3r68lUlx5pnsZcCJjkIN8DuqPPfHrbdxDsDS8_JTL8hfQoWJUgN6At0my8N01xPxnchpLkGpEf6s9yvzqW_vSzAAtWkrrk7tlgymImTrEWc4Y5xWpbukjHRSGR2LkVNo7DYy6B4N8nx0ewXDGHPe0NLvkjLbBtlM499TTDpKxQLRjB0d1Pe869qlSCZJLrR9029mFyhXSaxQPLQN5Br5nX6UBdEygmcpmhwZ_5QOKLQLwge_wQNPv7gleotD1VCRS8gAKPOmSL6fzSlxFwY9giX1wByMBBdltwQs2URk-zN72FBH9Tj6Ny7s8RcqZ2c_Bh9v8vDGwdKBmndDgofOU_6x91mELHCRkROPSbPz5QQWf_aSCS1ZFiinaMprK22jUpWDwLvxOwKxkYWLdv1deL1oup0hEjXrXyMonI6c6PXw4VlWEo4raDdpop46wUwnXdlsRAwylpnDWDRiQCVJP1acwSsWZ7G1YgoE9r5BJe98aWl8X880ndT73Cn_O2rJuQ7cYi-tyoJZFlYmi1_YTF3dqiQ1ZeoTyyDdoxE6ECZQU4uh0uHxhQWK3f9mN8DvXnCG_D3BfOiFIlv3y0]--></g></svg>