<?xml version="1.0" encoding="us-ascii" standalone="no"?><svg xmlns="http://www.w3.org/2000/svg" xmlns:xlink="http://www.w3.org/1999/xlink" contentStyleType="text/css" height="1795px" preserveAspectRatio="none" style="width:1243px;height:1795px;background:#FFFFFF;" version="1.1" viewBox="0 0 1243 1795" width="1243px" zoomAndPan="magnify"><defs/><g><rect fill="#FFFFFF" height="1609.0195" style="stroke:#181818;stroke-width:1.0;" width="10" x="33" y="93.6211"/><rect fill="#FFFFFF" height="31.291" style="stroke:#181818;stroke-width:1.0;" width="10" x="332" y="116.9121"/><rect fill="#FFFFFF" height="792.5684" style="stroke:#181818;stroke-width:1.0;" width="10" x="332" y="205.7852"/><rect fill="#FFFFFF" height="28" style="stroke:#181818;stroke-width:1.0;" width="10" x="337" y="932.0625"/><rect fill="#FFFFFF" height="656.3652" style="stroke:#181818;stroke-width:1.0;" width="10" x="332" y="1046.2754"/><rect fill="#FFFFFF" height="28" style="stroke:#181818;stroke-width:1.0;" width="10" x="337" y="1621.3496"/><rect fill="#FFFFFF" height="612.0742" style="stroke:#181818;stroke-width:1.0;" width="10" x="574" y="280.6973"/><rect fill="#FFFFFF" height="28" style="stroke:#181818;stroke-width:1.0;" width="10" x="579" y="319.9883"/><rect fill="#FFFFFF" height="504.4922" style="stroke:#181818;stroke-width:1.0;" width="10" x="574" y="1077.5664"/><rect fill="#FFFFFF" height="31.291" style="stroke:#181818;stroke-width:1.0;" width="10" x="741" y="386.2793"/><rect fill="#FFFFFF" height="31.291" style="stroke:#181818;stroke-width:1.0;" width="10" x="741" y="1108.8574"/><rect fill="#FFFFFF" height="31.291" style="stroke:#181818;stroke-width:1.0;" width="10" x="848" y="448.8613"/><rect fill="#FFFFFF" height="31.291" style="stroke:#181818;stroke-width:1.0;" width="10" x="848" y="1171.4395"/><rect fill="#FFFFFF" height="316.7461" style="stroke:#181818;stroke-width:1.0;" width="10" x="964.5" y="537.7344"/><rect fill="#FFFFFF" height="28" style="stroke:#181818;stroke-width:1.0;" width="10" x="969.5" y="577.0254"/><rect fill="#FFFFFF" height="28" style="stroke:#181818;stroke-width:1.0;" width="10" x="969.5" y="651.3164"/><rect fill="#FFFFFF" height="28" style="stroke:#181818;stroke-width:1.0;" width="10" x="969.5" y="788.1895"/><rect fill="#FFFFFF" height="316.7461" style="stroke:#181818;stroke-width:1.0;" width="10" x="964.5" y="1234.0215"/><rect fill="#FFFFFF" height="28" style="stroke:#181818;stroke-width:1.0;" width="10" x="969.5" y="1273.3125"/><rect fill="#FFFFFF" height="28" style="stroke:#181818;stroke-width:1.0;" width="10" x="969.5" y="1347.6035"/><rect fill="#FFFFFF" height="28" style="stroke:#181818;stroke-width:1.0;" width="10" x="969.5" y="1484.4766"/><rect fill="#FFFFFF" height="31.291" style="stroke:#181818;stroke-width:1.0;" width="10" x="1178.5" y="717.6074"/><rect fill="#FFFFFF" height="31.291" style="stroke:#181818;stroke-width:1.0;" width="10" x="1178.5" y="1413.8945"/><rect fill="none" height="1532.4375" style="stroke:#000000;stroke-width:1.5;" width="1226.5" x="10" y="163.2031"/><rect fill="none" height="367.3281" style="stroke:#000000;stroke-width:1.5;" width="736.5" x="490" y="495.1523"/><line style="stroke:#181818;stroke-width:0.5;stroke-dasharray:5.0,5.0;" x1="38" x2="38" y1="83.6211" y2="1712.6406"/><line style="stroke:#181818;stroke-width:0.5;stroke-dasharray:5.0,5.0;" x1="336.5" x2="336.5" y1="83.6211" y2="1712.6406"/><line style="stroke:#181818;stroke-width:0.5;stroke-dasharray:5.0,5.0;" x1="579" x2="579" y1="245.5957" y2="1712.6406"/><line style="stroke:#181818;stroke-width:0.5;stroke-dasharray:5.0,5.0;" x1="745.5" x2="745.5" y1="83.6211" y2="1712.6406"/><line style="stroke:#181818;stroke-width:0.5;stroke-dasharray:5.0,5.0;" x1="852.5" x2="852.5" y1="83.6211" y2="1712.6406"/><line style="stroke:#181818;stroke-width:0.5;stroke-dasharray:5.0,5.0;" x1="969.5" x2="969.5" y1="83.6211" y2="1712.6406"/><line style="stroke:#181818;stroke-width:0.5;stroke-dasharray:5.0,5.0;" x1="1183.5" x2="1183.5" y1="83.6211" y2="1712.6406"/><text fill="#000000" font-family="sans-serif" font-size="14" lengthAdjust="spacing" textLength="30" x="20" y="80.1074">HRM</text><ellipse cx="38" cy="13.5" fill="#E3E3E3" rx="8" ry="8" style="stroke:#181818;stroke-width:0.5;"/><path d="M38,21.5 L38,48.5 M25,29.5 L51,29.5 M38,48.5 L25,63.5 M38,48.5 L51,63.5 " fill="none" style="stroke:#181818;stroke-width:0.5;"/><text fill="#000000" font-family="sans-serif" font-size="14" lengthAdjust="spacing" textLength="30" x="20" y="1726.748">HRM</text><ellipse cx="38" cy="1738.7617" fill="#E3E3E3" rx="8" ry="8" style="stroke:#181818;stroke-width:0.5;"/><path d="M38,1746.7617 L38,1773.7617 M25,1754.7617 L51,1754.7617 M38,1773.7617 L25,1788.7617 M38,1773.7617 L51,1788.7617 " fill="none" style="stroke:#181818;stroke-width:0.5;"/><rect fill="#E3E3E3" height="32.6211" rx="2.5" ry="2.5" style="stroke:#181818;stroke-width:0.5;" width="115" x="279.5" y="50"/><text fill="#000000" font-family="sans-serif" font-size="14" lengthAdjust="spacing" textLength="101" x="286.5" y="72.1074">:RegisterSkillsUI</text><rect fill="#E3E3E3" height="32.6211" rx="2.5" ry="2.5" style="stroke:#181818;stroke-width:0.5;" width="115" x="279.5" y="1711.6406"/><text fill="#000000" font-family="sans-serif" font-size="14" lengthAdjust="spacing" textLength="101" x="286.5" y="1733.748">:RegisterSkillsUI</text><rect fill="#E3E3E3" height="32.6211" rx="2.5" ry="2.5" style="stroke:#181818;stroke-width:0.5;" width="158" x="500" y="1711.6406"/><text fill="#000000" font-family="sans-serif" font-size="14" lengthAdjust="spacing" textLength="144" x="507" y="1733.748">:RegisterSkillController</text><rect fill="#E3E3E3" height="32.6211" rx="2.5" ry="2.5" style="stroke:#181818;stroke-width:0.5;" width="97" x="697.5" y="50"/><text fill="#000000" font-family="sans-serif" font-size="14" lengthAdjust="spacing" textLength="83" x="704.5" y="72.1074">:Repositories</text><rect fill="#E3E3E3" height="32.6211" rx="2.5" ry="2.5" style="stroke:#181818;stroke-width:0.5;" width="97" x="697.5" y="1711.6406"/><text fill="#000000" font-family="sans-serif" font-size="14" lengthAdjust="spacing" textLength="83" x="704.5" y="1733.748">:Repositories</text><rect fill="#E3E3E3" height="51.2422" rx="2.5" ry="2.5" style="stroke:#181818;stroke-width:0.5;" width="97" x="804.5" y="31.3789"/><text fill="#000000" font-family="sans-serif" font-size="14" lengthAdjust="spacing" textLength="74" x="816" y="53.4863">repositories</text><text fill="#000000" font-family="sans-serif" font-size="14" lengthAdjust="spacing" textLength="83" x="811.5" y="72.1074">:Repositories</text><rect fill="#E3E3E3" height="51.2422" rx="2.5" ry="2.5" style="stroke:#181818;stroke-width:0.5;" width="97" x="804.5" y="1711.6406"/><text fill="#000000" font-family="sans-serif" font-size="14" lengthAdjust="spacing" textLength="74" x="816" y="1733.748">repositories</text><text fill="#000000" font-family="sans-serif" font-size="14" lengthAdjust="spacing" textLength="83" x="811.5" y="1752.3691">:Repositories</text><rect fill="#E3E3E3" height="51.2422" rx="2.5" ry="2.5" style="stroke:#181818;stroke-width:0.5;" width="116" x="911.5" y="31.3789"/><text fill="#000000" font-family="sans-serif" font-size="14" lengthAdjust="spacing" textLength="102" x="918.5" y="53.4863">skillsRepository:</text><text fill="#000000" font-family="sans-serif" font-size="14" lengthAdjust="spacing" textLength="100" x="919.5" y="72.1074">SkillsRepository</text><rect fill="#E3E3E3" height="51.2422" rx="2.5" ry="2.5" style="stroke:#181818;stroke-width:0.5;" width="116" x="911.5" y="1711.6406"/><text fill="#000000" font-family="sans-serif" font-size="14" lengthAdjust="spacing" textLength="102" x="918.5" y="1733.748">skillsRepository:</text><text fill="#000000" font-family="sans-serif" font-size="14" lengthAdjust="spacing" textLength="100" x="919.5" y="1752.3691">SkillsRepository</text><rect fill="#E3E3E3" height="32.6211" rx="2.5" ry="2.5" style="stroke:#181818;stroke-width:0.5;" width="66" x="1150.5" y="50"/><text fill="#000000" font-family="sans-serif" font-size="14" lengthAdjust="spacing" textLength="52" x="1157.5" y="72.1074">skill:Skill</text><rect fill="#E3E3E3" height="32.6211" rx="2.5" ry="2.5" style="stroke:#181818;stroke-width:0.5;" width="66" x="1150.5" y="1711.6406"/><text fill="#000000" font-family="sans-serif" font-size="14" lengthAdjust="spacing" textLength="52" x="1157.5" y="1733.748">skill:Skill</text><rect fill="#FFFFFF" height="1609.0195" style="stroke:#181818;stroke-width:1.0;" width="10" x="33" y="93.6211"/><rect fill="#FFFFFF" height="31.291" style="stroke:#181818;stroke-width:1.0;" width="10" x="332" y="116.9121"/><rect fill="#FFFFFF" height="792.5684" style="stroke:#181818;stroke-width:1.0;" width="10" x="332" y="205.7852"/><rect fill="#FFFFFF" height="28" style="stroke:#181818;stroke-width:1.0;" width="10" x="337" y="932.0625"/><rect fill="#FFFFFF" height="656.3652" style="stroke:#181818;stroke-width:1.0;" width="10" x="332" y="1046.2754"/><rect fill="#FFFFFF" height="28" style="stroke:#181818;stroke-width:1.0;" width="10" x="337" y="1621.3496"/><rect fill="#FFFFFF" height="612.0742" style="stroke:#181818;stroke-width:1.0;" width="10" x="574" y="280.6973"/><rect fill="#FFFFFF" height="28" style="stroke:#181818;stroke-width:1.0;" width="10" x="579" y="319.9883"/><rect fill="#FFFFFF" height="504.4922" style="stroke:#181818;stroke-width:1.0;" width="10" x="574" y="1077.5664"/><rect fill="#FFFFFF" height="31.291" style="stroke:#181818;stroke-width:1.0;" width="10" x="741" y="386.2793"/><rect fill="#FFFFFF" height="31.291" style="stroke:#181818;stroke-width:1.0;" width="10" x="741" y="1108.8574"/><rect fill="#FFFFFF" height="31.291" style="stroke:#181818;stroke-width:1.0;" width="10" x="848" y="448.8613"/><rect fill="#FFFFFF" height="31.291" style="stroke:#181818;stroke-width:1.0;" width="10" x="848" y="1171.4395"/><rect fill="#FFFFFF" height="316.7461" style="stroke:#181818;stroke-width:1.0;" width="10" x="964.5" y="537.7344"/><rect fill="#FFFFFF" height="28" style="stroke:#181818;stroke-width:1.0;" width="10" x="969.5" y="577.0254"/><rect fill="#FFFFFF" height="28" style="stroke:#181818;stroke-width:1.0;" width="10" x="969.5" y="651.3164"/><rect fill="#FFFFFF" height="28" style="stroke:#181818;stroke-width:1.0;" width="10" x="969.5" y="788.1895"/><rect fill="#FFFFFF" height="316.7461" style="stroke:#181818;stroke-width:1.0;" width="10" x="964.5" y="1234.0215"/><rect fill="#FFFFFF" height="28" style="stroke:#181818;stroke-width:1.0;" width="10" x="969.5" y="1273.3125"/><rect fill="#FFFFFF" height="28" style="stroke:#181818;stroke-width:1.0;" width="10" x="969.5" y="1347.6035"/><rect fill="#FFFFFF" height="28" style="stroke:#181818;stroke-width:1.0;" width="10" x="969.5" y="1484.4766"/><rect fill="#FFFFFF" height="31.291" style="stroke:#181818;stroke-width:1.0;" width="10" x="1178.5" y="717.6074"/><rect fill="#FFFFFF" height="31.291" style="stroke:#181818;stroke-width:1.0;" width="10" x="1178.5" y="1413.8945"/><polygon fill="#181818" points="320,112.9121,330,116.9121,320,120.9121,324,116.9121" style="stroke:#181818;stroke-width:1.0;"/><line style="stroke:#181818;stroke-width:1.0;" x1="43" x2="326" y1="116.9121" y2="116.9121"/><text fill="#000000" font-family="sans-serif" font-size="13" font-weight="bold" lengthAdjust="spacing" textLength="7" x="50" y="111.6494">1</text><text fill="#000000" font-family="sans-serif" font-size="13" lengthAdjust="spacing" textLength="151" x="61" y="111.6494">asks to register new skills</text><polygon fill="#181818" points="54,144.2031,44,148.2031,54,152.2031,50,148.2031" style="stroke:#181818;stroke-width:1.0;"/><line style="stroke:#181818;stroke-width:1.0;stroke-dasharray:2.0,2.0;" x1="48" x2="336" y1="148.2031" y2="148.2031"/><text fill="#000000" font-family="sans-serif" font-size="13" font-weight="bold" lengthAdjust="spacing" textLength="7" x="60" y="142.9404">2</text><text fill="#000000" font-family="sans-serif" font-size="13" lengthAdjust="spacing" textLength="195" x="71" y="142.9404">requests input (single input or file)</text><path d="M10,163.2031 L71,163.2031 L71,172.4941 L61,182.4941 L10,182.4941 L10,163.2031 " fill="#EEEEEE" style="stroke:#000000;stroke-width:1.5;"/><rect fill="none" height="1532.4375" style="stroke:#000000;stroke-width:1.5;" width="1226.5" x="10" y="163.2031"/><text fill="#000000" font-family="sans-serif" font-size="13" font-weight="bold" lengthAdjust="spacing" textLength="16" x="25" y="178.2314">alt</text><text fill="#000000" font-family="sans-serif" font-size="11" font-weight="bold" lengthAdjust="spacing" textLength="79" x="86" y="177.0732">[file uploaded]</text><polygon fill="#181818" points="320,201.7852,330,205.7852,320,209.7852,324,205.7852" style="stroke:#181818;stroke-width:1.0;"/><line style="stroke:#181818;stroke-width:1.0;" x1="43" x2="326" y1="205.7852" y2="205.7852"/><text fill="#000000" font-family="sans-serif" font-size="13" font-weight="bold" lengthAdjust="spacing" textLength="7" x="50" y="200.5225">3</text><text fill="#000000" font-family="sans-serif" font-size="13" lengthAdjust="spacing" textLength="159" x="61" y="200.5225">types file path and confirms</text><polygon fill="#181818" points="488,233.0762,498,237.0762,488,241.0762,492,237.0762" style="stroke:#181818;stroke-width:1.0;"/><line style="stroke:#181818;stroke-width:1.0;" x1="342" x2="494" y1="237.0762" y2="237.0762"/><text fill="#000000" font-family="sans-serif" font-size="13" font-weight="bold" lengthAdjust="spacing" textLength="7" x="349" y="231.8135">4</text><text fill="#000000" font-family="sans-serif" font-size="13" lengthAdjust="spacing" textLength="36" x="360" y="231.8135">create</text><rect fill="#E3E3E3" height="32.6211" rx="2.5" ry="2.5" style="stroke:#181818;stroke-width:0.5;" width="158" x="500" y="213.7852"/><text fill="#000000" font-family="sans-serif" font-size="14" lengthAdjust="spacing" textLength="144" x="507" y="235.8926">:RegisterSkillController</text><polygon fill="#181818" points="562,276.6973,572,280.6973,562,284.6973,566,280.6973" style="stroke:#181818;stroke-width:1.0;"/><line style="stroke:#181818;stroke-width:1.0;" x1="342" x2="568" y1="280.6973" y2="280.6973"/><text fill="#000000" font-family="sans-serif" font-size="13" font-weight="bold" lengthAdjust="spacing" textLength="7" x="349" y="275.4346">5</text><text fill="#000000" font-family="sans-serif" font-size="13" lengthAdjust="spacing" textLength="177" x="360" y="275.4346">registerSkillsFromFile(filePath)</text><line style="stroke:#181818;stroke-width:1.0;" x1="589" x2="631" y1="311.9883" y2="311.9883"/><line style="stroke:#181818;stroke-width:1.0;" x1="631" x2="631" y1="311.9883" y2="324.9883"/><line style="stroke:#181818;stroke-width:1.0;" x1="590" x2="631" y1="324.9883" y2="324.9883"/><polygon fill="#181818" points="600,320.9883,590,324.9883,600,328.9883,596,324.9883" style="stroke:#181818;stroke-width:1.0;"/><text fill="#000000" font-family="sans-serif" font-size="13" font-weight="bold" lengthAdjust="spacing" textLength="7" x="596" y="306.7256">6</text><text fill="#000000" font-family="sans-serif" font-size="13" lengthAdjust="spacing" textLength="132" x="607" y="306.7256">readSkillsFromFile(file)</text><polygon fill="#181818" points="729,382.2793,739,386.2793,729,390.2793,733,386.2793" style="stroke:#181818;stroke-width:1.0;"/><line style="stroke:#181818;stroke-width:1.0;" x1="584" x2="735" y1="386.2793" y2="386.2793"/><text fill="#000000" font-family="sans-serif" font-size="13" font-weight="bold" lengthAdjust="spacing" textLength="7" x="591" y="381.0166">7</text><text fill="#000000" font-family="sans-serif" font-size="13" lengthAdjust="spacing" textLength="75" x="602" y="381.0166">getInstance()</text><polygon fill="#181818" points="595,413.5703,585,417.5703,595,421.5703,591,417.5703" style="stroke:#181818;stroke-width:1.0;"/><line style="stroke:#181818;stroke-width:1.0;stroke-dasharray:2.0,2.0;" x1="589" x2="745" y1="417.5703" y2="417.5703"/><text fill="#000000" font-family="sans-serif" font-size="13" font-weight="bold" lengthAdjust="spacing" textLength="7" x="601" y="412.3076">8</text><text fill="#000000" font-family="sans-serif" font-size="13" lengthAdjust="spacing" textLength="67" x="612" y="412.3076">repositories</text><polygon fill="#181818" points="836,444.8613,846,448.8613,836,452.8613,840,448.8613" style="stroke:#181818;stroke-width:1.0;"/><line style="stroke:#181818;stroke-width:1.0;" x1="584" x2="842" y1="448.8613" y2="448.8613"/><text fill="#000000" font-family="sans-serif" font-size="13" font-weight="bold" lengthAdjust="spacing" textLength="7" x="591" y="443.5986">9</text><text fill="#000000" font-family="sans-serif" font-size="13" lengthAdjust="spacing" textLength="120" x="602" y="443.5986">getSkillsRepository()</text><polygon fill="#181818" points="595,476.1523,585,480.1523,595,484.1523,591,480.1523" style="stroke:#181818;stroke-width:1.0;"/><line style="stroke:#181818;stroke-width:1.0;stroke-dasharray:2.0,2.0;" x1="589" x2="852" y1="480.1523" y2="480.1523"/><text fill="#000000" font-family="sans-serif" font-size="13" font-weight="bold" lengthAdjust="spacing" textLength="14" x="601" y="474.8896">10</text><text fill="#000000" font-family="sans-serif" font-size="13" lengthAdjust="spacing" textLength="92" x="619" y="474.8896">skillsRepository</text><path d="M490,495.1523 L563,495.1523 L563,504.4434 L553,514.4434 L490,514.4434 L490,495.1523 " fill="#EEEEEE" style="stroke:#000000;stroke-width:1.5;"/><rect fill="none" height="367.3281" style="stroke:#000000;stroke-width:1.5;" width="736.5" x="490" y="495.1523"/><text fill="#000000" font-family="sans-serif" font-size="13" font-weight="bold" lengthAdjust="spacing" textLength="28" x="505" y="510.1807">loop</text><polygon fill="#181818" points="952.5,533.7344,962.5,537.7344,952.5,541.7344,956.5,537.7344" style="stroke:#181818;stroke-width:1.0;"/><line style="stroke:#181818;stroke-width:1.0;" x1="584" x2="958.5" y1="537.7344" y2="537.7344"/><text fill="#000000" font-family="sans-serif" font-size="13" font-weight="bold" lengthAdjust="spacing" textLength="14" x="591" y="532.4717">11</text><text fill="#000000" font-family="sans-serif" font-size="13" lengthAdjust="spacing" textLength="133" x="609" y="532.4717">registerSkill(skillName)</text><line style="stroke:#181818;stroke-width:1.0;" x1="979.5" x2="1021.5" y1="569.0254" y2="569.0254"/><line style="stroke:#181818;stroke-width:1.0;" x1="1021.5" x2="1021.5" y1="569.0254" y2="582.0254"/><line style="stroke:#181818;stroke-width:1.0;" x1="980.5" x2="1021.5" y1="582.0254" y2="582.0254"/><polygon fill="#181818" points="990.5,578.0254,980.5,582.0254,990.5,586.0254,986.5,582.0254" style="stroke:#181818;stroke-width:1.0;"/><text fill="#000000" font-family="sans-serif" font-size="13" font-weight="bold" lengthAdjust="spacing" textLength="14" x="986.5" y="563.7627">12</text><text fill="#000000" font-family="sans-serif" font-size="13" lengthAdjust="spacing" textLength="136" x="1004.5" y="563.7627">nameIsValid(skillName)</text><line style="stroke:#181818;stroke-width:1.0;" x1="979.5" x2="1021.5" y1="643.3164" y2="643.3164"/><line style="stroke:#181818;stroke-width:1.0;" x1="1021.5" x2="1021.5" y1="643.3164" y2="656.3164"/><line style="stroke:#181818;stroke-width:1.0;" x1="980.5" x2="1021.5" y1="656.3164" y2="656.3164"/><polygon fill="#181818" points="990.5,652.3164,980.5,656.3164,990.5,660.3164,986.5,656.3164" style="stroke:#181818;stroke-width:1.0;"/><text fill="#000000" font-family="sans-serif" font-size="13" font-weight="bold" lengthAdjust="spacing" textLength="14" x="986.5" y="638.0537">13</text><text fill="#000000" font-family="sans-serif" font-size="13" lengthAdjust="spacing" textLength="172" x="1004.5" y="638.0537">skillNameIsUnique(skillName)</text><polygon fill="#181818" points="1166.5,713.6074,1176.5,717.6074,1166.5,721.6074,1170.5,717.6074" style="stroke:#181818;stroke-width:1.0;"/><line style="stroke:#181818;stroke-width:1.0;" x1="974.5" x2="1172.5" y1="717.6074" y2="717.6074"/><text fill="#000000" font-family="sans-serif" font-size="13" font-weight="bold" lengthAdjust="spacing" textLength="14" x="981.5" y="712.3447">14</text><text fill="#000000" font-family="sans-serif" font-size="13" lengthAdjust="spacing" textLength="90" x="999.5" y="712.3447">Skill(skillName)</text><polygon fill="#181818" points="985.5,744.8984,975.5,748.8984,985.5,752.8984,981.5,748.8984" style="stroke:#181818;stroke-width:1.0;"/><line style="stroke:#181818;stroke-width:1.0;stroke-dasharray:2.0,2.0;" x1="979.5" x2="1182.5" y1="748.8984" y2="748.8984"/><text fill="#000000" font-family="sans-serif" font-size="13" font-weight="bold" lengthAdjust="spacing" textLength="14" x="991.5" y="743.6357">15</text><text fill="#000000" font-family="sans-serif" font-size="13" lengthAdjust="spacing" textLength="23" x="1009.5" y="743.6357">skill</text><line style="stroke:#181818;stroke-width:1.0;" x1="979.5" x2="1021.5" y1="780.1895" y2="780.1895"/><line style="stroke:#181818;stroke-width:1.0;" x1="1021.5" x2="1021.5" y1="780.1895" y2="793.1895"/><line style="stroke:#181818;stroke-width:1.0;" x1="980.5" x2="1021.5" y1="793.1895" y2="793.1895"/><polygon fill="#181818" points="990.5,789.1895,980.5,793.1895,990.5,797.1895,986.5,793.1895" style="stroke:#181818;stroke-width:1.0;"/><text fill="#000000" font-family="sans-serif" font-size="13" font-weight="bold" lengthAdjust="spacing" textLength="14" x="986.5" y="774.9268">16</text><text fill="#000000" font-family="sans-serif" font-size="13" lengthAdjust="spacing" textLength="99" x="1004.5" y="774.9268">registerSkill(skill)</text><polygon fill="#181818" points="595,850.4805,585,854.4805,595,858.4805,591,854.4805" style="stroke:#181818;stroke-width:1.0;"/><line style="stroke:#181818;stroke-width:1.0;stroke-dasharray:2.0,2.0;" x1="589" x2="968.5" y1="854.4805" y2="854.4805"/><text fill="#000000" font-family="sans-serif" font-size="13" font-weight="bold" lengthAdjust="spacing" textLength="14" x="601" y="849.2178">17</text><text fill="#000000" font-family="sans-serif" font-size="13" lengthAdjust="spacing" textLength="286" x="619" y="849.2178">status of operation of registration of multiple skills</text><polygon fill="#181818" points="353,888.7715,343,892.7715,353,896.7715,349,892.7715" style="stroke:#181818;stroke-width:1.0;"/><line style="stroke:#181818;stroke-width:1.0;stroke-dasharray:2.0,2.0;" x1="347" x2="578" y1="892.7715" y2="892.7715"/><text fill="#000000" font-family="sans-serif" font-size="13" font-weight="bold" lengthAdjust="spacing" textLength="14" x="359" y="887.5088">18</text><text fill="#000000" font-family="sans-serif" font-size="13" lengthAdjust="spacing" textLength="187" x="377" y="887.5088">status of operation for file upload</text><line style="stroke:#181818;stroke-width:1.0;" x1="347" x2="389" y1="924.0625" y2="924.0625"/><line style="stroke:#181818;stroke-width:1.0;" x1="389" x2="389" y1="924.0625" y2="937.0625"/><line style="stroke:#181818;stroke-width:1.0;" x1="348" x2="389" y1="937.0625" y2="937.0625"/><polygon fill="#181818" points="358,933.0625,348,937.0625,358,941.0625,354,937.0625" style="stroke:#181818;stroke-width:1.0;"/><text fill="#000000" font-family="sans-serif" font-size="13" font-weight="bold" lengthAdjust="spacing" textLength="14" x="354" y="918.7998">19</text><text fill="#000000" font-family="sans-serif" font-size="13" lengthAdjust="spacing" textLength="132" x="372" y="918.7998">displayStatusMessage</text><polygon fill="#181818" points="54,994.3535,44,998.3535,54,1002.3535,50,998.3535" style="stroke:#181818;stroke-width:1.0;"/><line style="stroke:#181818;stroke-width:1.0;stroke-dasharray:2.0,2.0;" x1="48" x2="336" y1="998.3535" y2="998.3535"/><text fill="#000000" font-family="sans-serif" font-size="13" font-weight="bold" lengthAdjust="spacing" textLength="14" x="60" y="993.0908">20</text><text fill="#000000" font-family="sans-serif" font-size="13" lengthAdjust="spacing" textLength="244" x="78" y="993.0908">status of operation message for file upload</text><line style="stroke:#000000;stroke-width:1.0;stroke-dasharray:2.0,2.0;" x1="10" x2="1236.5" y1="1007.3535" y2="1007.3535"/><text fill="#000000" font-family="sans-serif" font-size="11" font-weight="bold" lengthAdjust="spacing" textLength="99" x="15" y="1019.2236">[single skill input]</text><polygon fill="#181818" points="320,1042.2754,330,1046.2754,320,1050.2754,324,1046.2754" style="stroke:#181818;stroke-width:1.0;"/><line style="stroke:#181818;stroke-width:1.0;" x1="43" x2="326" y1="1046.2754" y2="1046.2754"/><text fill="#000000" font-family="sans-serif" font-size="13" font-weight="bold" lengthAdjust="spacing" textLength="14" x="50" y="1041.0127">21</text><text fill="#000000" font-family="sans-serif" font-size="13" lengthAdjust="spacing" textLength="193" x="68" y="1041.0127">types requested data (skill name)</text><polygon fill="#181818" points="562,1073.5664,572,1077.5664,562,1081.5664,566,1077.5664" style="stroke:#181818;stroke-width:1.0;"/><line style="stroke:#181818;stroke-width:1.0;" x1="342" x2="568" y1="1077.5664" y2="1077.5664"/><text fill="#000000" font-family="sans-serif" font-size="13" font-weight="bold" lengthAdjust="spacing" textLength="14" x="349" y="1072.3037">22</text><text fill="#000000" font-family="sans-serif" font-size="13" lengthAdjust="spacing" textLength="133" x="367" y="1072.3037">registerSkill(skillName)</text><polygon fill="#181818" points="729,1104.8574,739,1108.8574,729,1112.8574,733,1108.8574" style="stroke:#181818;stroke-width:1.0;"/><line style="stroke:#181818;stroke-width:1.0;" x1="584" x2="735" y1="1108.8574" y2="1108.8574"/><text fill="#000000" font-family="sans-serif" font-size="13" font-weight="bold" lengthAdjust="spacing" textLength="14" x="591" y="1103.5947">23</text><text fill="#000000" font-family="sans-serif" font-size="13" lengthAdjust="spacing" textLength="75" x="609" y="1103.5947">getInstance()</text><polygon fill="#181818" points="595,1136.1484,585,1140.1484,595,1144.1484,591,1140.1484" style="stroke:#181818;stroke-width:1.0;"/><line style="stroke:#181818;stroke-width:1.0;stroke-dasharray:2.0,2.0;" x1="589" x2="745" y1="1140.1484" y2="1140.1484"/><text fill="#000000" font-family="sans-serif" font-size="13" font-weight="bold" lengthAdjust="spacing" textLength="14" x="601" y="1134.8857">24</text><text fill="#000000" font-family="sans-serif" font-size="13" lengthAdjust="spacing" textLength="67" x="619" y="1134.8857">repositories</text><polygon fill="#181818" points="836,1167.4395,846,1171.4395,836,1175.4395,840,1171.4395" style="stroke:#181818;stroke-width:1.0;"/><line style="stroke:#181818;stroke-width:1.0;" x1="584" x2="842" y1="1171.4395" y2="1171.4395"/><text fill="#000000" font-family="sans-serif" font-size="13" font-weight="bold" lengthAdjust="spacing" textLength="14" x="591" y="1166.1768">25</text><text fill="#000000" font-family="sans-serif" font-size="13" lengthAdjust="spacing" textLength="120" x="609" y="1166.1768">getSkillsRepository()</text><polygon fill="#181818" points="595,1198.7305,585,1202.7305,595,1206.7305,591,1202.7305" style="stroke:#181818;stroke-width:1.0;"/><line style="stroke:#181818;stroke-width:1.0;stroke-dasharray:2.0,2.0;" x1="589" x2="852" y1="1202.7305" y2="1202.7305"/><text fill="#000000" font-family="sans-serif" font-size="13" font-weight="bold" lengthAdjust="spacing" textLength="14" x="601" y="1197.4678">26</text><text fill="#000000" font-family="sans-serif" font-size="13" lengthAdjust="spacing" textLength="92" x="619" y="1197.4678">skillsRepository</text><polygon fill="#181818" points="952.5,1230.0215,962.5,1234.0215,952.5,1238.0215,956.5,1234.0215" style="stroke:#181818;stroke-width:1.0;"/><line style="stroke:#181818;stroke-width:1.0;" x1="584" x2="958.5" y1="1234.0215" y2="1234.0215"/><text fill="#000000" font-family="sans-serif" font-size="13" font-weight="bold" lengthAdjust="spacing" textLength="14" x="591" y="1228.7588">27</text><text fill="#000000" font-family="sans-serif" font-size="13" lengthAdjust="spacing" textLength="133" x="609" y="1228.7588">registerSkill(skillName)</text><line style="stroke:#181818;stroke-width:1.0;" x1="979.5" x2="1021.5" y1="1265.3125" y2="1265.3125"/><line style="stroke:#181818;stroke-width:1.0;" x1="1021.5" x2="1021.5" y1="1265.3125" y2="1278.3125"/><line style="stroke:#181818;stroke-width:1.0;" x1="980.5" x2="1021.5" y1="1278.3125" y2="1278.3125"/><polygon fill="#181818" points="990.5,1274.3125,980.5,1278.3125,990.5,1282.3125,986.5,1278.3125" style="stroke:#181818;stroke-width:1.0;"/><text fill="#000000" font-family="sans-serif" font-size="13" font-weight="bold" lengthAdjust="spacing" textLength="14" x="986.5" y="1260.0498">28</text><text fill="#000000" font-family="sans-serif" font-size="13" lengthAdjust="spacing" textLength="136" x="1004.5" y="1260.0498">nameIsValid(skillName)</text><line style="stroke:#181818;stroke-width:1.0;" x1="979.5" x2="1021.5" y1="1339.6035" y2="1339.6035"/><line style="stroke:#181818;stroke-width:1.0;" x1="1021.5" x2="1021.5" y1="1339.6035" y2="1352.6035"/><line style="stroke:#181818;stroke-width:1.0;" x1="980.5" x2="1021.5" y1="1352.6035" y2="1352.6035"/><polygon fill="#181818" points="990.5,1348.6035,980.5,1352.6035,990.5,1356.6035,986.5,1352.6035" style="stroke:#181818;stroke-width:1.0;"/><text fill="#000000" font-family="sans-serif" font-size="13" font-weight="bold" lengthAdjust="spacing" textLength="14" x="986.5" y="1334.3408">29</text><text fill="#000000" font-family="sans-serif" font-size="13" lengthAdjust="spacing" textLength="172" x="1004.5" y="1334.3408">skillNameIsUnique(skillName)</text><polygon fill="#181818" points="1166.5,1409.8945,1176.5,1413.8945,1166.5,1417.8945,1170.5,1413.8945" style="stroke:#181818;stroke-width:1.0;"/><line style="stroke:#181818;stroke-width:1.0;" x1="974.5" x2="1172.5" y1="1413.8945" y2="1413.8945"/><text fill="#000000" font-family="sans-serif" font-size="13" font-weight="bold" lengthAdjust="spacing" textLength="14" x="981.5" y="1408.6318">30</text><text fill="#000000" font-family="sans-serif" font-size="13" lengthAdjust="spacing" textLength="90" x="999.5" y="1408.6318">Skill(skillName)</text><polygon fill="#181818" points="985.5,1441.1855,975.5,1445.1855,985.5,1449.1855,981.5,1445.1855" style="stroke:#181818;stroke-width:1.0;"/><line style="stroke:#181818;stroke-width:1.0;stroke-dasharray:2.0,2.0;" x1="979.5" x2="1182.5" y1="1445.1855" y2="1445.1855"/><text fill="#000000" font-family="sans-serif" font-size="13" font-weight="bold" lengthAdjust="spacing" textLength="14" x="991.5" y="1439.9229">31</text><text fill="#000000" font-family="sans-serif" font-size="13" lengthAdjust="spacing" textLength="23" x="1009.5" y="1439.9229">skill</text><line style="stroke:#181818;stroke-width:1.0;" x1="979.5" x2="1021.5" y1="1476.4766" y2="1476.4766"/><line style="stroke:#181818;stroke-width:1.0;" x1="1021.5" x2="1021.5" y1="1476.4766" y2="1489.4766"/><line style="stroke:#181818;stroke-width:1.0;" x1="980.5" x2="1021.5" y1="1489.4766" y2="1489.4766"/><polygon fill="#181818" points="990.5,1485.4766,980.5,1489.4766,990.5,1493.4766,986.5,1489.4766" style="stroke:#181818;stroke-width:1.0;"/><text fill="#000000" font-family="sans-serif" font-size="13" font-weight="bold" lengthAdjust="spacing" textLength="14" x="986.5" y="1471.2139">32</text><text fill="#000000" font-family="sans-serif" font-size="13" lengthAdjust="spacing" textLength="99" x="1004.5" y="1471.2139">registerSkill(skill)</text><polygon fill="#181818" points="595,1546.7676,585,1550.7676,595,1554.7676,591,1550.7676" style="stroke:#181818;stroke-width:1.0;"/><line style="stroke:#181818;stroke-width:1.0;stroke-dasharray:2.0,2.0;" x1="589" x2="968.5" y1="1550.7676" y2="1550.7676"/><text fill="#000000" font-family="sans-serif" font-size="13" font-weight="bold" lengthAdjust="spacing" textLength="14" x="601" y="1545.5049">33</text><text fill="#000000" font-family="sans-serif" font-size="13" lengthAdjust="spacing" textLength="190" x="619" y="1545.5049">status of operation for single skill</text><polygon fill="#181818" points="353,1578.0586,343,1582.0586,353,1586.0586,349,1582.0586" style="stroke:#181818;stroke-width:1.0;"/><line style="stroke:#181818;stroke-width:1.0;stroke-dasharray:2.0,2.0;" x1="347" x2="578" y1="1582.0586" y2="1582.0586"/><text fill="#000000" font-family="sans-serif" font-size="13" font-weight="bold" lengthAdjust="spacing" textLength="14" x="359" y="1576.7959">34</text><text fill="#000000" font-family="sans-serif" font-size="13" lengthAdjust="spacing" textLength="190" x="377" y="1576.7959">status of operation for single skill</text><line style="stroke:#181818;stroke-width:1.0;" x1="347" x2="389" y1="1613.3496" y2="1613.3496"/><line style="stroke:#181818;stroke-width:1.0;" x1="389" x2="389" y1="1613.3496" y2="1626.3496"/><line style="stroke:#181818;stroke-width:1.0;" x1="348" x2="389" y1="1626.3496" y2="1626.3496"/><polygon fill="#181818" points="358,1622.3496,348,1626.3496,358,1630.3496,354,1626.3496" style="stroke:#181818;stroke-width:1.0;"/><text fill="#000000" font-family="sans-serif" font-size="13" font-weight="bold" lengthAdjust="spacing" textLength="14" x="354" y="1608.0869">35</text><text fill="#000000" font-family="sans-serif" font-size="13" lengthAdjust="spacing" textLength="132" x="372" y="1608.0869">displayStatusMessage</text><polygon fill="#181818" points="54,1683.6406,44,1687.6406,54,1691.6406,50,1687.6406" style="stroke:#181818;stroke-width:1.0;"/><line style="stroke:#181818;stroke-width:1.0;stroke-dasharray:2.0,2.0;" x1="48" x2="331" y1="1687.6406" y2="1687.6406"/><text fill="#000000" font-family="sans-serif" font-size="13" font-weight="bold" lengthAdjust="spacing" textLength="14" x="60" y="1682.3779">36</text><text fill="#000000" font-family="sans-serif" font-size="13" lengthAdjust="spacing" textLength="247" x="78" y="1682.3779">status of operation message for single skill</text><!--SRC=[xLRBRjim4BppAnQ-n0xW7p2A06cAe0RY8h3Zdd9Xf9L5c29Lachgl- -AaYrAObst1Ngo3WOexSoizZ6otGjLSiCBABJIIMvqWU1CXSoUdfGysVCTRjn18XXC75Sx6GROdAVwNQWTP5nQP8nNJgkgU4F3s4qkKeHCQ_UcVp2UE6rWydczcW2tSFzfnOZ3YKIKN3cOBDQu4zQXsUo5b7Qxz67RvRce1wsSqLAYyS4FB-kdKNYfhI1bWTR7d6uSDg9-6Kgt3p41ubMD2PwVxb_w2EiJxeWNhsepkEMHmxW8oy83ksZ6whg9xzoXhnYZ7vZVKLbWGK5x2qvJOvgIWCBtLgH3KG4fU4wO6hgWu6yLMcU1MbWvc5fVXVP43Sg4n1bBCIIW2-YwWO-6goIdbXh8kKgbRpm1e2gbvYdZqeLdJ6jecB8xb6YRa9Ax78W44gqoOOf-pZxfEz_Hsri29WRfIN3NlqeuC8yqm8z4FAtPdubyrX7wmM0U5i9v6e4EOK4f-ZIHIIBM7RgbihGe2Ku3gjZOiHZ3l4smpg-Rl32BADKngNewcoo68nXcusUO-TXERpIUWMO3a5gNdTGmVjYHgG_umekmf2CHDgA9KolYMTglN8hqCk8W-z6p2pLFEakxLOBsvj-LHsOnEMcJu6_g5aD_cCzFy2PeA7_fsqQQzxTl6P7izewMmrKMT0QwHCETeAcdGoFVdOjAEb7A8_jvFLJfSJ2FLXEJoLg3E_hLSBSRU_7mLDXIyiF6iwpGMleEzXngO94zaurf5mt7kHo81-ah2gqdDstrpXnpqTR9COMKEmvDn_oUpFfMUiOrmrbZx6fqBU1gSLUB- -FwddUuUkt3lJxlPvTPsQ_uclNzNsRMoy8RyO0jEDR_ONy2]--></g></svg>