<?xml version="1.0" encoding="us-ascii" standalone="no"?><svg xmlns="http://www.w3.org/2000/svg" xmlns:xlink="http://www.w3.org/1999/xlink" contentStyleType="text/css" height="306.4px" preserveAspectRatio="none" style="width:826px;height:306px;background:#FFFFFF;" version="1.1" viewBox="0 0 826 306" width="826.4px" zoomAndPan="magnify"><defs/><g><rect fill="#FFFFFF" height="201.0625" style="stroke:#181818;stroke-width:0.8000000000000002;" width="8" x="66" y="53.7938"/><rect fill="#FFFFFF" height="175.2297" style="stroke:#181818;stroke-width:0.8000000000000002;" width="8" x="226" y="72.4266"/><rect fill="#FFFFFF" height="25.0328" style="stroke:#181818;stroke-width:0.8000000000000002;" width="8" x="358.8" y="97.4594"/><rect fill="#FFFFFF" height="25.0328" style="stroke:#181818;stroke-width:0.8000000000000002;" width="8" x="444.4" y="147.525"/><rect fill="#FFFFFF" height="25.0328" style="stroke:#181818;stroke-width:0.8000000000000002;" width="8" x="534.8" y="197.5906"/><line style="stroke:#181818;stroke-width:0.4000000000000001;stroke-dasharray:5.0,5.0;" x1="69.6" x2="69.6" y1="45.7938" y2="262.0563"/><line style="stroke:#181818;stroke-width:0.4000000000000001;stroke-dasharray:5.0,5.0;" x1="229.6" x2="229.6" y1="45.7938" y2="262.0563"/><line style="stroke:#181818;stroke-width:0.4000000000000001;stroke-dasharray:5.0,5.0;" x1="362.4" x2="362.4" y1="45.7938" y2="262.0563"/><line style="stroke:#181818;stroke-width:0.4000000000000001;stroke-dasharray:5.0,5.0;" x1="448" x2="448" y1="45.7938" y2="262.0563"/><line style="stroke:#181818;stroke-width:0.4000000000000001;stroke-dasharray:5.0,5.0;" x1="538.4" x2="538.4" y1="45.7938" y2="262.0563"/><line style="stroke:#181818;stroke-width:0.4000000000000001;stroke-dasharray:5.0,5.0;" x1="654.4" x2="654.4" y1="45.7938" y2="262.0563"/><line style="stroke:#181818;stroke-width:0.4000000000000001;stroke-dasharray:5.0,5.0;" x1="774.4" x2="774.4" y1="45.7938" y2="262.0563"/><rect fill="#E3E3E3" height="26.0969" rx="2" ry="2" style="stroke:#181818;stroke-width:0.4000000000000001;" width="132" x="4" y="18.8969"/><text fill="#000000" font-family="sans-serif" font-size="11.2" lengthAdjust="spacing" textLength="120.8" x="9.6" y="36.5828">:CreateTeamProposalUI</text><rect fill="#E3E3E3" height="26.0969" rx="2" ry="2" style="stroke:#181818;stroke-width:0.4000000000000001;" width="132" x="4" y="261.2563"/><text fill="#000000" font-family="sans-serif" font-size="11.2" lengthAdjust="spacing" textLength="120.8" x="9.6" y="278.9422">:CreateTeamProposalUI</text><rect fill="#E3E3E3" height="26.0969" rx="2" ry="2" style="stroke:#181818;stroke-width:0.4000000000000001;" width="172" x="144" y="18.8969"/><text fill="#000000" font-family="sans-serif" font-size="11.2" lengthAdjust="spacing" textLength="160.8" x="149.6" y="36.5828">:CreateTeamProposalController</text><rect fill="#E3E3E3" height="26.0969" rx="2" ry="2" style="stroke:#181818;stroke-width:0.4000000000000001;" width="172" x="144" y="261.2563"/><text fill="#000000" font-family="sans-serif" font-size="11.2" lengthAdjust="spacing" textLength="160.8" x="149.6" y="278.9422">:CreateTeamProposalController</text><rect fill="#E3E3E3" height="26.0969" rx="2" ry="2" style="stroke:#181818;stroke-width:0.4000000000000001;" width="77.6" x="324" y="18.8969"/><text fill="#000000" font-family="sans-serif" font-size="11.2" lengthAdjust="spacing" textLength="66.4" x="329.6" y="36.5828">:Repositories</text><rect fill="#E3E3E3" height="26.0969" rx="2" ry="2" style="stroke:#181818;stroke-width:0.4000000000000001;" width="77.6" x="324" y="261.2563"/><text fill="#000000" font-family="sans-serif" font-size="11.2" lengthAdjust="spacing" textLength="66.4" x="329.6" y="278.9422">:Repositories</text><rect fill="#E3E3E3" height="40.9938" rx="2" ry="2" style="stroke:#181818;stroke-width:0.4000000000000001;" width="77.6" x="409.6" y="4"/><text fill="#000000" font-family="sans-serif" font-size="11.2" lengthAdjust="spacing" textLength="59.2" x="418.8" y="21.6859">repositories</text><text fill="#000000" font-family="sans-serif" font-size="11.2" lengthAdjust="spacing" textLength="66.4" x="415.2" y="36.5828">:Repositories</text><rect fill="#E3E3E3" height="40.9938" rx="2" ry="2" style="stroke:#181818;stroke-width:0.4000000000000001;" width="77.6" x="409.6" y="261.2563"/><text fill="#000000" font-family="sans-serif" font-size="11.2" lengthAdjust="spacing" textLength="59.2" x="418.8" y="278.9422">repositories</text><text fill="#000000" font-family="sans-serif" font-size="11.2" lengthAdjust="spacing" textLength="66.4" x="415.2" y="293.8391">:Repositories</text><rect fill="#E3E3E3" height="40.9938" rx="2" ry="2" style="stroke:#181818;stroke-width:0.4000000000000001;" width="87.2" x="495.2" y="4"/><text fill="#000000" font-family="sans-serif" font-size="11.2" lengthAdjust="spacing" textLength="76" x="500.8" y="21.6859">skillRepository:</text><text fill="#000000" font-family="sans-serif" font-size="11.2" lengthAdjust="spacing" textLength="74.4" x="501.6" y="36.5828">SkillRepository</text><rect fill="#E3E3E3" height="40.9938" rx="2" ry="2" style="stroke:#181818;stroke-width:0.4000000000000001;" width="87.2" x="495.2" y="261.2563"/><text fill="#000000" font-family="sans-serif" font-size="11.2" lengthAdjust="spacing" textLength="76" x="500.8" y="278.9422">skillRepository:</text><text fill="#000000" font-family="sans-serif" font-size="11.2" lengthAdjust="spacing" textLength="74.4" x="501.6" y="293.8391">SkillRepository</text><rect fill="#E3E3E3" height="40.9938" rx="2" ry="2" style="stroke:#181818;stroke-width:0.4000000000000001;" width="128.8" x="590.4" y="4"/><text fill="#000000" font-family="sans-serif" font-size="11.2" lengthAdjust="spacing" textLength="117.6" x="596" y="21.6859">collaboratorRepository:</text><text fill="#000000" font-family="sans-serif" font-size="11.2" lengthAdjust="spacing" textLength="116.8" x="596.4" y="36.5828">CollaboratorRepository</text><rect fill="#E3E3E3" height="40.9938" rx="2" ry="2" style="stroke:#181818;stroke-width:0.4000000000000001;" width="128.8" x="590.4" y="261.2563"/><text fill="#000000" font-family="sans-serif" font-size="11.2" lengthAdjust="spacing" textLength="117.6" x="596" y="278.9422">collaboratorRepository:</text><text fill="#000000" font-family="sans-serif" font-size="11.2" lengthAdjust="spacing" textLength="116.8" x="596.4" y="293.8391">CollaboratorRepository</text><rect fill="#E3E3E3" height="40.9938" rx="2" ry="2" style="stroke:#181818;stroke-width:0.4000000000000001;" width="94.4" x="727.2" y="4"/><text fill="#000000" font-family="sans-serif" font-size="11.2" lengthAdjust="spacing" textLength="82.4" x="733.2" y="21.6859">teamRepository:</text><text fill="#000000" font-family="sans-serif" font-size="11.2" lengthAdjust="spacing" textLength="83.2" x="732.8" y="36.5828">TeamRepository</text><rect fill="#E3E3E3" height="40.9938" rx="2" ry="2" style="stroke:#181818;stroke-width:0.4000000000000001;" width="94.4" x="727.2" y="261.2563"/><text fill="#000000" font-family="sans-serif" font-size="11.2" lengthAdjust="spacing" textLength="82.4" x="733.2" y="278.9422">teamRepository:</text><text fill="#000000" font-family="sans-serif" font-size="11.2" lengthAdjust="spacing" textLength="83.2" x="732.8" y="293.8391">TeamRepository</text><rect fill="#FFFFFF" height="201.0625" style="stroke:#181818;stroke-width:0.8000000000000002;" width="8" x="66" y="53.7938"/><rect fill="#FFFFFF" height="175.2297" style="stroke:#181818;stroke-width:0.8000000000000002;" width="8" x="226" y="72.4266"/><rect fill="#FFFFFF" height="25.0328" style="stroke:#181818;stroke-width:0.8000000000000002;" width="8" x="358.8" y="97.4594"/><rect fill="#FFFFFF" height="25.0328" style="stroke:#181818;stroke-width:0.8000000000000002;" width="8" x="444.4" y="147.525"/><rect fill="#FFFFFF" height="25.0328" style="stroke:#181818;stroke-width:0.8000000000000002;" width="8" x="534.8" y="197.5906"/><polygon fill="#181818" points="216.4,69.2266,224.4,72.4266,216.4,75.6266,219.6,72.4266" style="stroke:#181818;stroke-width:0.8000000000000002;"/><line style="stroke:#181818;stroke-width:0.8000000000000002;" x1="74" x2="221.2" y1="72.4266" y2="72.4266"/><text fill="#000000" font-family="sans-serif" font-size="10.4" font-weight="bold" lengthAdjust="spacing" textLength="20" x="79.6" y="68.2164">12.1</text><text fill="#000000" font-family="sans-serif" font-size="10.4" lengthAdjust="spacing" textLength="46.4" x="102.8" y="68.2164">getSkills()</text><polygon fill="#181818" points="349.2,94.2594,357.2,97.4594,349.2,100.6594,352.4,97.4594" style="stroke:#181818;stroke-width:0.8000000000000002;"/><line style="stroke:#181818;stroke-width:0.8000000000000002;" x1="234" x2="354" y1="97.4594" y2="97.4594"/><text fill="#000000" font-family="sans-serif" font-size="10.4" font-weight="bold" lengthAdjust="spacing" textLength="20" x="239.6" y="93.2492">12.2</text><text fill="#000000" font-family="sans-serif" font-size="10.4" lengthAdjust="spacing" textLength="60" x="262.8" y="93.2492">getInstance()</text><polygon fill="#181818" points="242.8,119.2922,234.8,122.4922,242.8,125.6922,239.6,122.4922" style="stroke:#181818;stroke-width:0.8000000000000002;"/><line style="stroke:#181818;stroke-width:0.8000000000000002;" x1="238" x2="362" y1="122.4922" y2="122.4922"/><text fill="#000000" font-family="sans-serif" font-size="10.4" font-weight="bold" lengthAdjust="spacing" textLength="20" x="247.6" y="118.282">12.3</text><text fill="#000000" font-family="sans-serif" font-size="10.4" lengthAdjust="spacing" textLength="53.6" x="270.8" y="118.282">repositories</text><polygon fill="#181818" points="434.8,144.325,442.8,147.525,434.8,150.725,438,147.525" style="stroke:#181818;stroke-width:0.8000000000000002;"/><line style="stroke:#181818;stroke-width:0.8000000000000002;" x1="234" x2="439.6" y1="147.525" y2="147.525"/><text fill="#000000" font-family="sans-serif" font-size="10.4" font-weight="bold" lengthAdjust="spacing" textLength="20" x="239.6" y="143.3148">12.4</text><text fill="#000000" font-family="sans-serif" font-size="10.4" lengthAdjust="spacing" textLength="90.4" x="262.8" y="143.3148">getSkillRepository()</text><polygon fill="#181818" points="242.8,169.3578,234.8,172.5578,242.8,175.7578,239.6,172.5578" style="stroke:#181818;stroke-width:0.8000000000000002;"/><line style="stroke:#181818;stroke-width:0.8000000000000002;stroke-dasharray:2.0,2.0;" x1="238" x2="447.6" y1="172.5578" y2="172.5578"/><text fill="#000000" font-family="sans-serif" font-size="10.4" font-weight="bold" lengthAdjust="spacing" textLength="20" x="247.6" y="168.3477">12.5</text><text fill="#000000" font-family="sans-serif" font-size="10.4" lengthAdjust="spacing" textLength="68" x="270.8" y="168.3477">skillRepository</text><polygon fill="#181818" points="525.2,194.3906,533.2,197.5906,525.2,200.7906,528.4,197.5906" style="stroke:#181818;stroke-width:0.8000000000000002;"/><line style="stroke:#181818;stroke-width:0.8000000000000002;" x1="234" x2="530" y1="197.5906" y2="197.5906"/><text fill="#000000" font-family="sans-serif" font-size="10.4" font-weight="bold" lengthAdjust="spacing" textLength="20" x="239.6" y="193.3805">12.6</text><text fill="#000000" font-family="sans-serif" font-size="10.4" lengthAdjust="spacing" textLength="46.4" x="262.8" y="193.3805">getSkills()</text><polygon fill="#181818" points="242.8,219.4234,234.8,222.6234,242.8,225.8234,239.6,222.6234" style="stroke:#181818;stroke-width:0.8000000000000002;"/><line style="stroke:#181818;stroke-width:0.8000000000000002;stroke-dasharray:2.0,2.0;" x1="238" x2="538" y1="222.6234" y2="222.6234"/><text fill="#000000" font-family="sans-serif" font-size="10.4" font-weight="bold" lengthAdjust="spacing" textLength="20" x="247.6" y="218.4133">12.7</text><text fill="#000000" font-family="sans-serif" font-size="10.4" lengthAdjust="spacing" textLength="35.2" x="270.8" y="218.4133">skillList</text><polygon fill="#181818" points="82.8,244.4563,74.8,247.6563,82.8,250.8563,79.6,247.6563" style="stroke:#181818;stroke-width:0.8000000000000002;"/><line style="stroke:#181818;stroke-width:0.8000000000000002;stroke-dasharray:2.0,2.0;" x1="78" x2="229.2" y1="247.6563" y2="247.6563"/><text fill="#000000" font-family="sans-serif" font-size="10.4" font-weight="bold" lengthAdjust="spacing" textLength="20" x="87.6" y="243.4461">12.8</text><text fill="#000000" font-family="sans-serif" font-size="10.4" lengthAdjust="spacing" textLength="35.2" x="110.8" y="243.4461">skillList</text><!--SRC=[XLAnRW8n3Dtp5HPJEr09HePArKqdCI3ks5XCS8-8N79AGYl-lY5GBib5hRVOVi_FVh5deGOqs4ElbUOdeti2Pox4xBCo83zZHusxIW93tA7gPDnWJtZKtq9ry8dI4cC-xGGN0oe7irLb21srXFt6w45RbBjw1cXXL__RMMdbZ9QIJ41KxNQTORRa6uNJHf0DFS_4jH4teKwh568Yn5vD2JRhZpP5-5Mb77bNUzMacO3BSYa5zqlWGHlqfOIfAXRksnPBAQ_pnqhusYGHUD8Kmui_oQK_a875ah7q_RRm2Ux4bpVYPX3usDKmVm-tXnLqvCAYzkKr59_DmHi84Lezf635dQ5MrlyYJW-EYANa7ZoYH3SAYsrzG8xq9s-czkPxjE28cAeCN-HNLi3DHo7PRvbg2UXiU3QoSEXeV5ES01EINDHQM3ULKsQx2_C4tlqS7e63w-m7]--></g></svg>