<?xml version="1.0" encoding="us-ascii" standalone="no"?><svg xmlns="http://www.w3.org/2000/svg" xmlns:xlink="http://www.w3.org/1999/xlink" contentStyleType="text/css" height="794px" preserveAspectRatio="none" style="width:1123px;height:794px;background:#FFFFFF;" version="1.1" viewBox="0 0 1123 794" width="1123px" zoomAndPan="magnify"><defs/><g><!--class CreateTeamProposalUI--><g id="elem_CreateTeamProposalUI"><rect codeLine="12" fill="#F1F1F1" height="66.6211" id="CreateTeamProposalUI" rx="2.5" ry="2.5" style="stroke:#181818;stroke-width:0.5;" width="185" x="748" y="7"/><ellipse cx="763.9" cy="23" fill="#ADD1B2" rx="11" ry="11" style="stroke:#181818;stroke-width:1.0;"/><path d="M766.6656,18.875 Q766.8219,18.6563 767.0094,18.5469 Q767.1969,18.4375 767.4156,18.4375 Q767.7906,18.4375 768.025,18.7031 Q768.2594,18.9531 768.2594,19.5625 L768.2594,21.0156 Q768.2594,21.625 768.025,21.8906 Q767.7906,22.1563 767.4156,22.1563 Q767.0719,22.1563 766.8688,21.9531 Q766.6656,21.7656 766.5563,21.25 Q766.5094,20.8906 766.3219,20.7031 Q765.9938,20.3281 765.3844,20.1094 Q764.775,19.8906 764.15,19.8906 Q763.3844,19.8906 762.7438,20.2188 Q762.1188,20.5469 761.6188,21.2969 Q761.1344,22.0469 761.1344,23.0781 L761.1344,24.1719 Q761.1344,25.4063 762.025,26.2344 Q762.9156,27.0469 764.5094,27.0469 Q765.4469,27.0469 766.1031,26.7969 Q766.4938,26.6406 766.9156,26.2031 Q767.1813,25.9375 767.3219,25.8594 Q767.4781,25.7813 767.6813,25.7813 Q768.0094,25.7813 768.2594,26.0469 Q768.525,26.2969 768.525,26.6406 Q768.525,26.9844 768.1813,27.3906 Q767.6813,27.9688 766.8844,28.2969 Q765.8063,28.75 764.5094,28.75 Q762.9938,28.75 761.7906,28.125 Q760.8063,27.625 760.1188,26.5625 Q759.4313,25.4844 759.4313,24.2031 L759.4313,23.0469 Q759.4313,21.7188 760.0406,20.5781 Q760.6656,19.4219 761.7594,18.8125 Q762.8531,18.1875 764.0875,18.1875 Q764.8219,18.1875 765.4625,18.3594 Q766.1188,18.5156 766.6656,18.875 Z " fill="#000000"/><text fill="#000000" font-family="sans-serif" font-size="14" lengthAdjust="spacing" textLength="151" x="778.1" y="28.7969">:CreateTeamProposalUI</text><line style="stroke:#181818;stroke-width:0.5;" x1="749" x2="932" y1="39" y2="39"/><line style="stroke:#181818;stroke-width:0.5;" x1="749" x2="932" y1="47" y2="47"/><text fill="#000000" font-family="sans-serif" font-size="14" lengthAdjust="spacing" textLength="173" x="754" y="66.1074">+showCreatedTeam(Team)</text></g><!--class CreateTeamProposalController--><g id="elem_CreateTeamProposalController"><rect codeLine="18" fill="#F1F1F1" height="85.2422" id="CreateTeamProposalController" rx="2.5" ry="2.5" style="stroke:#181818;stroke-width:0.5;" width="255" x="713" y="135"/><ellipse cx="737.9" cy="151" fill="#ADD1B2" rx="11" ry="11" style="stroke:#181818;stroke-width:1.0;"/><path d="M740.6656,146.875 Q740.8219,146.6563 741.0094,146.5469 Q741.1969,146.4375 741.4156,146.4375 Q741.7906,146.4375 742.025,146.7031 Q742.2594,146.9531 742.2594,147.5625 L742.2594,149.0156 Q742.2594,149.625 742.025,149.8906 Q741.7906,150.1563 741.4156,150.1563 Q741.0719,150.1563 740.8688,149.9531 Q740.6656,149.7656 740.5563,149.25 Q740.5094,148.8906 740.3219,148.7031 Q739.9938,148.3281 739.3844,148.1094 Q738.775,147.8906 738.15,147.8906 Q737.3844,147.8906 736.7438,148.2188 Q736.1188,148.5469 735.6188,149.2969 Q735.1344,150.0469 735.1344,151.0781 L735.1344,152.1719 Q735.1344,153.4063 736.025,154.2344 Q736.9156,155.0469 738.5094,155.0469 Q739.4469,155.0469 740.1031,154.7969 Q740.4938,154.6406 740.9156,154.2031 Q741.1813,153.9375 741.3219,153.8594 Q741.4781,153.7813 741.6813,153.7813 Q742.0094,153.7813 742.2594,154.0469 Q742.525,154.2969 742.525,154.6406 Q742.525,154.9844 742.1813,155.3906 Q741.6813,155.9688 740.8844,156.2969 Q739.8063,156.75 738.5094,156.75 Q736.9938,156.75 735.7906,156.125 Q734.8063,155.625 734.1188,154.5625 Q733.4313,153.4844 733.4313,152.2031 L733.4313,151.0469 Q733.4313,149.7188 734.0406,148.5781 Q734.6656,147.4219 735.7594,146.8125 Q736.8531,146.1875 738.0875,146.1875 Q738.8219,146.1875 739.4625,146.3594 Q740.1188,146.5156 740.6656,146.875 Z " fill="#000000"/><text fill="#000000" font-family="sans-serif" font-size="14" lengthAdjust="spacing" textLength="201" x="754.1" y="156.7969">:CreateTeamProposalController</text><line style="stroke:#181818;stroke-width:0.5;" x1="714" x2="967" y1="167" y2="167"/><line style="stroke:#181818;stroke-width:0.5;" x1="714" x2="967" y1="175" y2="175"/><text fill="#000000" font-family="sans-serif" font-size="14" lengthAdjust="spacing" textLength="70" x="719" y="194.1074">+getSkills()</text><text fill="#000000" font-family="sans-serif" font-size="14" lengthAdjust="spacing" textLength="243" x="719" y="212.7285">+createTeamProposal(min, max, skills)</text></g><!--class Repositories--><g id="elem_Repositories"><rect codeLine="26" fill="#F1F1F1" height="122.4844" id="Repositories" rx="2.5" ry="2.5" style="stroke:#181818;stroke-width:0.5;" width="244" x="447.5" y="299"/><ellipse cx="523.75" cy="315" fill="#ADD1B2" rx="11" ry="11" style="stroke:#181818;stroke-width:1.0;"/><path d="M526.5156,310.875 Q526.6719,310.6563 526.8594,310.5469 Q527.0469,310.4375 527.2656,310.4375 Q527.6406,310.4375 527.875,310.7031 Q528.1094,310.9531 528.1094,311.5625 L528.1094,313.0156 Q528.1094,313.625 527.875,313.8906 Q527.6406,314.1563 527.2656,314.1563 Q526.9219,314.1563 526.7188,313.9531 Q526.5156,313.7656 526.4063,313.25 Q526.3594,312.8906 526.1719,312.7031 Q525.8438,312.3281 525.2344,312.1094 Q524.625,311.8906 524,311.8906 Q523.2344,311.8906 522.5938,312.2188 Q521.9688,312.5469 521.4688,313.2969 Q520.9844,314.0469 520.9844,315.0781 L520.9844,316.1719 Q520.9844,317.4063 521.875,318.2344 Q522.7656,319.0469 524.3594,319.0469 Q525.2969,319.0469 525.9531,318.7969 Q526.3438,318.6406 526.7656,318.2031 Q527.0313,317.9375 527.1719,317.8594 Q527.3281,317.7813 527.5313,317.7813 Q527.8594,317.7813 528.1094,318.0469 Q528.375,318.2969 528.375,318.6406 Q528.375,318.9844 528.0313,319.3906 Q527.5313,319.9688 526.7344,320.2969 Q525.6563,320.75 524.3594,320.75 Q522.8438,320.75 521.6406,320.125 Q520.6563,319.625 519.9688,318.5625 Q519.2813,317.4844 519.2813,316.2031 L519.2813,315.0469 Q519.2813,313.7188 519.8906,312.5781 Q520.5156,311.4219 521.6094,310.8125 Q522.7031,310.1875 523.9375,310.1875 Q524.6719,310.1875 525.3125,310.3594 Q525.9688,310.5156 526.5156,310.875 Z " fill="#000000"/><text fill="#000000" font-family="sans-serif" font-size="14" lengthAdjust="spacing" textLength="83" x="544.25" y="320.7969">:Repositories</text><line style="stroke:#181818;stroke-width:0.5;" x1="448.5" x2="690.5" y1="331" y2="331"/><line style="stroke:#181818;stroke-width:0.5;" x1="448.5" x2="690.5" y1="339" y2="339"/><text fill="#000000" font-family="sans-serif" font-size="14" lengthAdjust="spacing" textLength="178" x="453.5" y="358.1074">+getInstance(): Repositories</text><text fill="#000000" font-family="sans-serif" font-size="14" lengthAdjust="spacing" textLength="232" x="453.5" y="376.7285">+getSkillRepository(): SkillRepository</text><text fill="#000000" font-family="sans-serif" font-size="14" lengthAdjust="spacing" textLength="184" x="453.5" y="395.3496">+getCollaboratorRepository()</text><text fill="#000000" font-family="sans-serif" font-size="14" lengthAdjust="spacing" textLength="142" x="453.5" y="413.9707">+getTeamRepository()</text></g><!--class SkillRepository--><g id="elem_SkillRepository"><rect codeLine="33" fill="#F1F1F1" height="66.6211" id="SkillRepository" rx="2.5" ry="2.5" style="stroke:#181818;stroke-width:0.5;" width="125" x="517" y="491"/><ellipse cx="532" cy="507" fill="#ADD1B2" rx="11" ry="11" style="stroke:#181818;stroke-width:1.0;"/><path d="M534.7656,502.875 Q534.9219,502.6563 535.1094,502.5469 Q535.2969,502.4375 535.5156,502.4375 Q535.8906,502.4375 536.125,502.7031 Q536.3594,502.9531 536.3594,503.5625 L536.3594,505.0156 Q536.3594,505.625 536.125,505.8906 Q535.8906,506.1563 535.5156,506.1563 Q535.1719,506.1563 534.9688,505.9531 Q534.7656,505.7656 534.6563,505.25 Q534.6094,504.8906 534.4219,504.7031 Q534.0938,504.3281 533.4844,504.1094 Q532.875,503.8906 532.25,503.8906 Q531.4844,503.8906 530.8438,504.2188 Q530.2188,504.5469 529.7188,505.2969 Q529.2344,506.0469 529.2344,507.0781 L529.2344,508.1719 Q529.2344,509.4063 530.125,510.2344 Q531.0156,511.0469 532.6094,511.0469 Q533.5469,511.0469 534.2031,510.7969 Q534.5938,510.6406 535.0156,510.2031 Q535.2813,509.9375 535.4219,509.8594 Q535.5781,509.7813 535.7813,509.7813 Q536.1094,509.7813 536.3594,510.0469 Q536.625,510.2969 536.625,510.6406 Q536.625,510.9844 536.2813,511.3906 Q535.7813,511.9688 534.9844,512.2969 Q533.9063,512.75 532.6094,512.75 Q531.0938,512.75 529.8906,512.125 Q528.9063,511.625 528.2188,510.5625 Q527.5313,509.4844 527.5313,508.2031 L527.5313,507.0469 Q527.5313,505.7188 528.1406,504.5781 Q528.7656,503.4219 529.8594,502.8125 Q530.9531,502.1875 532.1875,502.1875 Q532.9219,502.1875 533.5625,502.3594 Q534.2188,502.5156 534.7656,502.875 Z " fill="#000000"/><text fill="#000000" font-family="sans-serif" font-size="14" lengthAdjust="spacing" textLength="93" x="546" y="512.7969">SkillRepository</text><line style="stroke:#181818;stroke-width:0.5;" x1="518" x2="641" y1="523" y2="523"/><line style="stroke:#181818;stroke-width:0.5;" x1="518" x2="641" y1="531" y2="531"/><text fill="#000000" font-family="sans-serif" font-size="14" lengthAdjust="spacing" textLength="70" x="523" y="550.1074">+getSkills()</text></g><!--class CollaboratorRepository--><g id="elem_CollaboratorRepository"><rect codeLine="39" fill="#F1F1F1" height="66.6211" id="CollaboratorRepository" rx="2.5" ry="2.5" style="stroke:#181818;stroke-width:0.5;" width="303" x="7" y="491"/><ellipse cx="81.25" cy="507" fill="#ADD1B2" rx="11" ry="11" style="stroke:#181818;stroke-width:1.0;"/><path d="M84.0156,502.875 Q84.1719,502.6563 84.3594,502.5469 Q84.5469,502.4375 84.7656,502.4375 Q85.1406,502.4375 85.375,502.7031 Q85.6094,502.9531 85.6094,503.5625 L85.6094,505.0156 Q85.6094,505.625 85.375,505.8906 Q85.1406,506.1563 84.7656,506.1563 Q84.4219,506.1563 84.2188,505.9531 Q84.0156,505.7656 83.9063,505.25 Q83.8594,504.8906 83.6719,504.7031 Q83.3438,504.3281 82.7344,504.1094 Q82.125,503.8906 81.5,503.8906 Q80.7344,503.8906 80.0938,504.2188 Q79.4688,504.5469 78.9688,505.2969 Q78.4844,506.0469 78.4844,507.0781 L78.4844,508.1719 Q78.4844,509.4063 79.375,510.2344 Q80.2656,511.0469 81.8594,511.0469 Q82.7969,511.0469 83.4531,510.7969 Q83.8438,510.6406 84.2656,510.2031 Q84.5313,509.9375 84.6719,509.8594 Q84.8281,509.7813 85.0313,509.7813 Q85.3594,509.7813 85.6094,510.0469 Q85.875,510.2969 85.875,510.6406 Q85.875,510.9844 85.5313,511.3906 Q85.0313,511.9688 84.2344,512.2969 Q83.1563,512.75 81.8594,512.75 Q80.3438,512.75 79.1406,512.125 Q78.1563,511.625 77.4688,510.5625 Q76.7813,509.4844 76.7813,508.2031 L76.7813,507.0469 Q76.7813,505.7188 77.3906,504.5781 Q78.0156,503.4219 79.1094,502.8125 Q80.2031,502.1875 81.4375,502.1875 Q82.1719,502.1875 82.8125,502.3594 Q83.4688,502.5156 84.0156,502.875 Z " fill="#000000"/><text fill="#000000" font-family="sans-serif" font-size="14" lengthAdjust="spacing" textLength="146" x="101.75" y="512.7969">CollaboratorRepository</text><line style="stroke:#181818;stroke-width:0.5;" x1="8" x2="309" y1="523" y2="523"/><line style="stroke:#181818;stroke-width:0.5;" x1="8" x2="309" y1="531" y2="531"/><text fill="#000000" font-family="sans-serif" font-size="14" lengthAdjust="spacing" textLength="291" x="13" y="550.1074">+getCollaboratorsBySkills(collaborators, skills)</text></g><!--class TeamRepository--><g id="elem_TeamRepository"><rect codeLine="43" fill="#F1F1F1" height="85.2422" id="TeamRepository" rx="2.5" ry="2.5" style="stroke:#181818;stroke-width:0.5;" width="244" x="682.5" y="482"/><ellipse cx="748.25" cy="498" fill="#ADD1B2" rx="11" ry="11" style="stroke:#181818;stroke-width:1.0;"/><path d="M751.0156,493.875 Q751.1719,493.6563 751.3594,493.5469 Q751.5469,493.4375 751.7656,493.4375 Q752.1406,493.4375 752.375,493.7031 Q752.6094,493.9531 752.6094,494.5625 L752.6094,496.0156 Q752.6094,496.625 752.375,496.8906 Q752.1406,497.1563 751.7656,497.1563 Q751.4219,497.1563 751.2188,496.9531 Q751.0156,496.7656 750.9063,496.25 Q750.8594,495.8906 750.6719,495.7031 Q750.3438,495.3281 749.7344,495.1094 Q749.125,494.8906 748.5,494.8906 Q747.7344,494.8906 747.0938,495.2188 Q746.4688,495.5469 745.9688,496.2969 Q745.4844,497.0469 745.4844,498.0781 L745.4844,499.1719 Q745.4844,500.4063 746.375,501.2344 Q747.2656,502.0469 748.8594,502.0469 Q749.7969,502.0469 750.4531,501.7969 Q750.8438,501.6406 751.2656,501.2031 Q751.5313,500.9375 751.6719,500.8594 Q751.8281,500.7813 752.0313,500.7813 Q752.3594,500.7813 752.6094,501.0469 Q752.875,501.2969 752.875,501.6406 Q752.875,501.9844 752.5313,502.3906 Q752.0313,502.9688 751.2344,503.2969 Q750.1563,503.75 748.8594,503.75 Q747.3438,503.75 746.1406,503.125 Q745.1563,502.625 744.4688,501.5625 Q743.7813,500.4844 743.7813,499.2031 L743.7813,498.0469 Q743.7813,496.7188 744.3906,495.5781 Q745.0156,494.4219 746.1094,493.8125 Q747.2031,493.1875 748.4375,493.1875 Q749.1719,493.1875 749.8125,493.3594 Q750.4688,493.5156 751.0156,493.875 Z " fill="#000000"/><text fill="#000000" font-family="sans-serif" font-size="14" lengthAdjust="spacing" textLength="104" x="768.75" y="503.7969">TeamRepository</text><line style="stroke:#181818;stroke-width:0.5;" x1="683.5" x2="925.5" y1="514" y2="514"/><line style="stroke:#181818;stroke-width:0.5;" x1="683.5" x2="925.5" y1="522" y2="522"/><text fill="#000000" font-family="sans-serif" font-size="14" lengthAdjust="spacing" textLength="232" x="688.5" y="541.1074">+createTeam(selectedCollaborators)</text><text fill="#000000" font-family="sans-serif" font-size="14" lengthAdjust="spacing" textLength="111" x="688.5" y="559.7285">-addTeam(Team)</text></g><g id="elem_GMN8"><path d="M573.5,685.5 L573.5,747.373 A0,0 0 0 0 573.5,747.373 L827.5,747.373 A0,0 0 0 0 827.5,747.373 L827.5,695.5 L817.5,685.5 L720.98,685.5 L781.68,567.2 L712.98,685.5 L573.5,685.5 A0,0 0 0 0 573.5,685.5 " fill="#FEFFDD" style="stroke:#181818;stroke-width:0.5;"/><path d="M817.5,685.5 L817.5,695.5 L827.5,695.5 L817.5,685.5 " fill="#FEFFDD" style="stroke:#181818;stroke-width:0.5;"/><text fill="#000000" font-family="sans-serif" font-size="13" lengthAdjust="spacing" textLength="233" x="579.5" y="704.5283">the selected collaborators were selected</text><text fill="#000000" font-family="sans-serif" font-size="13" lengthAdjust="spacing" textLength="208" x="579.5" y="721.8193">based on the max and min size   on</text><text fill="#000000" font-family="sans-serif" font-size="13" lengthAdjust="spacing" textLength="176" x="579.5" y="739.1104">CreateTeamProposalController</text></g><!--class Team--><g id="elem_Team"><rect codeLine="49" fill="#F1F1F1" height="141.1055" id="Team" rx="2.5" ry="2.5" style="stroke:#181818;stroke-width:0.5;" width="253" x="863" y="646"/><ellipse cx="967.25" cy="662" fill="#ADD1B2" rx="11" ry="11" style="stroke:#181818;stroke-width:1.0;"/><path d="M970.0156,657.875 Q970.1719,657.6563 970.3594,657.5469 Q970.5469,657.4375 970.7656,657.4375 Q971.1406,657.4375 971.375,657.7031 Q971.6094,657.9531 971.6094,658.5625 L971.6094,660.0156 Q971.6094,660.625 971.375,660.8906 Q971.1406,661.1563 970.7656,661.1563 Q970.4219,661.1563 970.2188,660.9531 Q970.0156,660.7656 969.9063,660.25 Q969.8594,659.8906 969.6719,659.7031 Q969.3438,659.3281 968.7344,659.1094 Q968.125,658.8906 967.5,658.8906 Q966.7344,658.8906 966.0938,659.2188 Q965.4688,659.5469 964.9688,660.2969 Q964.4844,661.0469 964.4844,662.0781 L964.4844,663.1719 Q964.4844,664.4063 965.375,665.2344 Q966.2656,666.0469 967.8594,666.0469 Q968.7969,666.0469 969.4531,665.7969 Q969.8438,665.6406 970.2656,665.2031 Q970.5313,664.9375 970.6719,664.8594 Q970.8281,664.7813 971.0313,664.7813 Q971.3594,664.7813 971.6094,665.0469 Q971.875,665.2969 971.875,665.6406 Q971.875,665.9844 971.5313,666.3906 Q971.0313,666.9688 970.2344,667.2969 Q969.1563,667.75 967.8594,667.75 Q966.3438,667.75 965.1406,667.125 Q964.1563,666.625 963.4688,665.5625 Q962.7813,664.4844 962.7813,663.2031 L962.7813,662.0469 Q962.7813,660.7188 963.3906,659.5781 Q964.0156,658.4219 965.1094,657.8125 Q966.2031,657.1875 967.4375,657.1875 Q968.1719,657.1875 968.8125,657.3594 Q969.4688,657.5156 970.0156,657.875 Z " fill="#000000"/><text fill="#000000" font-family="sans-serif" font-size="14" lengthAdjust="spacing" textLength="36" x="987.75" y="667.7969">Team</text><line style="stroke:#181818;stroke-width:0.5;" x1="864" x2="1115" y1="678" y2="678"/><text fill="#000000" font-family="sans-serif" font-size="14" lengthAdjust="spacing" textLength="104" x="869" y="697.1074">-Integer maxSize</text><text fill="#000000" font-family="sans-serif" font-size="14" lengthAdjust="spacing" textLength="101" x="869" y="715.7285">-Integer minSize</text><text fill="#000000" font-family="sans-serif" font-size="14" lengthAdjust="spacing" textLength="191" x="869" y="734.3496">-ArrayList&lt;Skill&gt; requiredSkills</text><text fill="#000000" font-family="sans-serif" font-size="14" lengthAdjust="spacing" textLength="241" x="869" y="752.9707">-ArrayList&lt;Collaborator&gt; collaborators</text><line style="stroke:#181818;stroke-width:0.5;" x1="864" x2="1115" y1="760.4844" y2="760.4844"/><text fill="#000000" font-family="sans-serif" font-size="14" lengthAdjust="spacing" textLength="196" x="869" y="779.5918">+create(selectedCollaborators)</text></g><g id="elem_GMN12"><path d="M345,502 L345,546.582 L482,546.582 L482,512 L472,502 L345,502 " fill="#FEFFDD" style="stroke:#181818;stroke-width:0.5;"/><path d="M472,502 L472,512 L482,512 L472,502 " fill="#FEFFDD" style="stroke:#181818;stroke-width:1.0;"/><text fill="#000000" font-family="sans-serif" font-size="13" lengthAdjust="spacing" textLength="102" x="351" y="521.0283">filter collaborators</text><text fill="#000000" font-family="sans-serif" font-size="13" lengthAdjust="spacing" textLength="116" x="351" y="538.3193">based on their skills</text></g><!--link CollaboratorRepository to GMN12--><g id="link_CollaboratorRepository_GMN12"><path d="M310.06,524.5 C320.81,524.5 328.5,524.5 328.5,524.5 C328.5,524.5 335.22,524.5 344.89,524.5 " fill="none" id="CollaboratorRepository-GMN12" style="stroke:#181818;stroke-width:1.0;stroke-dasharray:7.0,7.0;"/></g><!--link CreateTeamProposalUI to CreateTeamProposalController--><g id="link_CreateTeamProposalUI_CreateTeamProposalController"><path codeLine="61" d="M840.5,74.18 C840.5,92.44 840.5,109.38 840.5,128.91 " fill="none" id="CreateTeamProposalUI-to-CreateTeamProposalController" style="stroke:#181818;stroke-width:1.0;stroke-dasharray:7.0,7.0;"/><polygon fill="#181818" points="840.5,134.91,844.5,125.91,840.5,129.91,836.5,125.91,840.5,134.91" style="stroke:#181818;stroke-width:1.0;"/></g><!--link Repositories to Repositories--><g id="link_Repositories_Repositories"><path codeLine="62" d="M691.61,344.28 C712.24,346.45 726.5,351.69 726.5,360 C726.5,368.31 718.2071,372.9223 697.5771,375.0923 " fill="none" id="Repositories-to-Repositories" style="stroke:#181818;stroke-width:1.0;"/><polygon fill="#181818" points="691.61,375.72,700.9791,378.7566,696.5826,375.197,700.1422,370.8005,691.61,375.72" style="stroke:#181818;stroke-width:1.0;"/><text fill="#000000" font-family="sans-serif" font-size="13" lengthAdjust="spacing" textLength="49" x="732.5" y="365.5283">instance</text></g><!--link CreateTeamProposalController to Repositories--><g id="link_CreateTeamProposalController_Repositories"><path codeLine="63" d="M777.99,220.14 C742.89,243.51 703.4833,269.7533 664.6833,295.6033 " fill="none" id="CreateTeamProposalController-to-Repositories" style="stroke:#181818;stroke-width:1.0;stroke-dasharray:7.0,7.0;"/><polygon fill="#181818" points="659.69,298.93,669.3977,297.2688,663.8511,296.1577,664.9621,290.6111,659.69,298.93" style="stroke:#181818;stroke-width:1.0;"/><text fill="#000000" font-family="sans-serif" font-size="13" lengthAdjust="spacing" textLength="67" x="730.5" y="265.0283">repositories</text></g><!--link Repositories to SkillRepository--><g id="link_Repositories_SkillRepository"><path codeLine="64" d="M573.2,421.05 C574.64,444.55 575.8838,464.6212 577.1038,484.5712 " fill="none" id="Repositories-to-SkillRepository" style="stroke:#181818;stroke-width:1.0;"/><polygon fill="#181818" points="577.47,490.56,580.9132,481.3326,577.1648,485.5693,572.9281,481.8209,577.47,490.56" style="stroke:#181818;stroke-width:1.0;"/><text fill="#000000" font-family="sans-serif" font-size="13" lengthAdjust="spacing" textLength="7" x="569.4504" y="479.8252">1</text></g><!--link Repositories to CollaboratorRepository--><g id="link_Repositories_CollaboratorRepository"><path codeLine="65" d="M447.3,409.32 C380.69,435.65 305.5995,465.3335 246.4795,488.7135 " fill="none" id="Repositories-to-CollaboratorRepository" style="stroke:#181818;stroke-width:1.0;"/><polygon fill="#181818" points="240.9,490.92,250.7403,491.3299,245.5496,489.0812,247.7983,483.8905,240.9,490.92" style="stroke:#181818;stroke-width:1.0;"/><text fill="#000000" font-family="sans-serif" font-size="13" lengthAdjust="spacing" textLength="7" x="249.4334" y="479.7298">1</text></g><!--link Repositories to TeamRepository--><g id="link_Repositories_TeamRepository"><path codeLine="66" d="M656.34,421.05 C685.63,441.3 712.7152,460.0271 739.4652,478.5271 " fill="none" id="Repositories-to-TeamRepository" style="stroke:#181818;stroke-width:1.0;"/><polygon fill="#181818" points="744.4,481.94,739.273,473.5308,740.2877,479.0959,734.7225,480.1106,744.4,481.94" style="stroke:#181818;stroke-width:1.0;"/><text fill="#000000" font-family="sans-serif" font-size="13" lengthAdjust="spacing" textLength="7" x="727.2638" y="470.8345">1</text></g><!--link CreateTeamProposalController to TeamRepository--><g id="link_CreateTeamProposalController_TeamRepository"><path codeLine="67" d="M836.16,220.12 C829.24,286.43 816.4127,409.3624 809.4827,475.7724 " fill="none" id="CreateTeamProposalController-to-TeamRepository" style="stroke:#181818;stroke-width:1.0;stroke-dasharray:7.0,7.0;"/><polygon fill="#181818" points="808.86,481.74,813.7725,473.2038,809.3789,476.767,805.8157,472.3735,808.86,481.74" style="stroke:#181818;stroke-width:1.0;"/><text fill="#000000" font-family="sans-serif" font-size="13" lengthAdjust="spacing" textLength="94" x="829.5" y="365.5283">TeamRepository</text></g><!--link TeamRepository to Team--><g id="link_TeamRepository_Team"><path codeLine="68" d="M845.1,567.2 C867.54,590.25 891.8247,615.1808 917.5447,641.6008 " fill="none" id="TeamRepository-to-Team" style="stroke:#181818;stroke-width:1.0;"/><polygon fill="#181818" points="921.73,645.9,918.3182,636.661,918.2422,642.3173,912.5859,642.2414,921.73,645.9" style="stroke:#181818;stroke-width:1.0;"/><text fill="#000000" font-family="sans-serif" font-size="13" lengthAdjust="spacing" textLength="29" x="892.5" y="612.0283">team</text><text fill="#000000" font-family="sans-serif" font-size="13" lengthAdjust="spacing" textLength="7" x="844.0128" y="589.3922">1</text><text fill="#000000" font-family="sans-serif" font-size="13" lengthAdjust="spacing" textLength="5" x="909.4834" y="634.7807">*</text></g><!--link CreateTeamProposalController to Team--><g id="link_CreateTeamProposalController_Team"><path codeLine="69" d="M872.42,220.31 C898.99,255.11 932.5,299 932.5,299 C932.5,299 962.9163,521.2754 979.1463,639.8454 " fill="none" id="CreateTeamProposalController-to-Team" style="stroke:#181818;stroke-width:1.0;"/><polygon fill="#181818" points="979.96,645.79,982.7025,636.3307,979.2819,640.8362,974.7764,637.4156,979.96,645.79" style="stroke:#181818;stroke-width:1.0;"/></g><!--SRC=[XLJ1Zjem4BtxAqPSWEwoQgzHXRJbXDH3LThRNamo10l7GsqZIglzzuuTDh6pWNA8nCppl3VFCvwwWp97QMK33HagzvOQ16zFAFhCKPO7MUF6NpI2nT9BK-iKuFQoehCoDUoaTcb6AuF-SaGuahw4Fs8waYJhIIIdIYsTU_RUgkt9uxeair5_43uACTMuy-09hAht7YeLv2WoGeXu22R5ogBq-0DbyytIaPpKFzSJa0x64l1N2E3VWzlJkGLK0J4BdxbulLjtHSPRqXhjZVezW7aUQlIRWzBQpUOjP_dkmAnHvX4Q-ViHN8JEHTJGYVYEZ5EUh48NITC0ayIwJBGsZc-fnDcyo20T82hfCfU06uGww8exa5koagFfYGuGEiWIhvtWGSqeUH1BL7VsfCQFqxUEZwQIWYd0VRbSwvTfj7UwLvqt5Adoq1j5VuCpXvf74QkCilLe8Qjyg0nvX2rvJmtGRb2x0Bz7U2i7cLWue-rpBsOh7KF8n2CyDY1D1Jn3uCA-06TUpBsnp3hk-hnsjrWRZpNFBXSE-pS8AjC7dwsLbw_A-S_HuYM_4hzEl9jLw_WGb7gqp3iKgR6tJ0rN1T74zXbW3s-EIG4xfJqBpcXowvIz3e4Geu_4qzFoxdQBR0iNotmh2r3NRHHtduZ0aXuisCLaStCE9fby6gxNEmn3RYp9QBby4F-lTZYuW_E3dGbY8j67ICHppj_x904UKk8V]--></g></svg>