<?xml version="1.0" encoding="us-ascii" standalone="no"?><svg xmlns="http://www.w3.org/2000/svg" xmlns:xlink="http://www.w3.org/1999/xlink" contentStyleType="text/css" height="794px" preserveAspectRatio="none" style="width:1033px;height:794px;background:#FFFFFF;" version="1.1" viewBox="0 0 1033 794" width="1033px" zoomAndPan="magnify"><defs/><g><!--class CreateTeamProposalUI--><g id="elem_CreateTeamProposalUI"><rect codeLine="12" fill="#F1F1F1" height="66.6211" id="CreateTeamProposalUI" rx="2.5" ry="2.5" style="stroke:#181818;stroke-width:0.5;" width="185" x="658" y="7"/><ellipse cx="673.9" cy="23" fill="#ADD1B2" rx="11" ry="11" style="stroke:#181818;stroke-width:1.0;"/><path d="M676.6656,18.875 Q676.8219,18.6563 677.0094,18.5469 Q677.1969,18.4375 677.4156,18.4375 Q677.7906,18.4375 678.025,18.7031 Q678.2594,18.9531 678.2594,19.5625 L678.2594,21.0156 Q678.2594,21.625 678.025,21.8906 Q677.7906,22.1563 677.4156,22.1563 Q677.0719,22.1563 676.8688,21.9531 Q676.6656,21.7656 676.5563,21.25 Q676.5094,20.8906 676.3219,20.7031 Q675.9938,20.3281 675.3844,20.1094 Q674.775,19.8906 674.15,19.8906 Q673.3844,19.8906 672.7438,20.2188 Q672.1188,20.5469 671.6188,21.2969 Q671.1344,22.0469 671.1344,23.0781 L671.1344,24.1719 Q671.1344,25.4063 672.025,26.2344 Q672.9156,27.0469 674.5094,27.0469 Q675.4469,27.0469 676.1031,26.7969 Q676.4938,26.6406 676.9156,26.2031 Q677.1813,25.9375 677.3219,25.8594 Q677.4781,25.7813 677.6813,25.7813 Q678.0094,25.7813 678.2594,26.0469 Q678.525,26.2969 678.525,26.6406 Q678.525,26.9844 678.1813,27.3906 Q677.6813,27.9688 676.8844,28.2969 Q675.8063,28.75 674.5094,28.75 Q672.9938,28.75 671.7906,28.125 Q670.8063,27.625 670.1188,26.5625 Q669.4313,25.4844 669.4313,24.2031 L669.4313,23.0469 Q669.4313,21.7188 670.0406,20.5781 Q670.6656,19.4219 671.7594,18.8125 Q672.8531,18.1875 674.0875,18.1875 Q674.8219,18.1875 675.4625,18.3594 Q676.1188,18.5156 676.6656,18.875 Z " fill="#000000"/><text fill="#000000" font-family="sans-serif" font-size="14" lengthAdjust="spacing" textLength="151" x="688.1" y="28.7969">:CreateTeamProposalUI</text><line style="stroke:#181818;stroke-width:0.5;" x1="659" x2="842" y1="39" y2="39"/><line style="stroke:#181818;stroke-width:0.5;" x1="659" x2="842" y1="47" y2="47"/><text fill="#000000" font-family="sans-serif" font-size="14" lengthAdjust="spacing" textLength="173" x="664" y="66.1074">+showCreatedTeam(Team)</text></g><!--class CreateTeamProposalController--><g id="elem_CreateTeamProposalController"><rect codeLine="18" fill="#F1F1F1" height="85.2422" id="CreateTeamProposalController" rx="2.5" ry="2.5" style="stroke:#181818;stroke-width:0.5;" width="255" x="623" y="135"/><ellipse cx="647.9" cy="151" fill="#ADD1B2" rx="11" ry="11" style="stroke:#181818;stroke-width:1.0;"/><path d="M650.6656,146.875 Q650.8219,146.6563 651.0094,146.5469 Q651.1969,146.4375 651.4156,146.4375 Q651.7906,146.4375 652.025,146.7031 Q652.2594,146.9531 652.2594,147.5625 L652.2594,149.0156 Q652.2594,149.625 652.025,149.8906 Q651.7906,150.1563 651.4156,150.1563 Q651.0719,150.1563 650.8688,149.9531 Q650.6656,149.7656 650.5563,149.25 Q650.5094,148.8906 650.3219,148.7031 Q649.9938,148.3281 649.3844,148.1094 Q648.775,147.8906 648.15,147.8906 Q647.3844,147.8906 646.7438,148.2188 Q646.1188,148.5469 645.6188,149.2969 Q645.1344,150.0469 645.1344,151.0781 L645.1344,152.1719 Q645.1344,153.4063 646.025,154.2344 Q646.9156,155.0469 648.5094,155.0469 Q649.4469,155.0469 650.1031,154.7969 Q650.4938,154.6406 650.9156,154.2031 Q651.1813,153.9375 651.3219,153.8594 Q651.4781,153.7813 651.6813,153.7813 Q652.0094,153.7813 652.2594,154.0469 Q652.525,154.2969 652.525,154.6406 Q652.525,154.9844 652.1813,155.3906 Q651.6813,155.9688 650.8844,156.2969 Q649.8063,156.75 648.5094,156.75 Q646.9938,156.75 645.7906,156.125 Q644.8063,155.625 644.1188,154.5625 Q643.4313,153.4844 643.4313,152.2031 L643.4313,151.0469 Q643.4313,149.7188 644.0406,148.5781 Q644.6656,147.4219 645.7594,146.8125 Q646.8531,146.1875 648.0875,146.1875 Q648.8219,146.1875 649.4625,146.3594 Q650.1188,146.5156 650.6656,146.875 Z " fill="#000000"/><text fill="#000000" font-family="sans-serif" font-size="14" lengthAdjust="spacing" textLength="201" x="664.1" y="156.7969">:CreateTeamProposalController</text><line style="stroke:#181818;stroke-width:0.5;" x1="624" x2="877" y1="167" y2="167"/><line style="stroke:#181818;stroke-width:0.5;" x1="624" x2="877" y1="175" y2="175"/><text fill="#000000" font-family="sans-serif" font-size="14" lengthAdjust="spacing" textLength="70" x="629" y="194.1074">+getSkills()</text><text fill="#000000" font-family="sans-serif" font-size="14" lengthAdjust="spacing" textLength="243" x="629" y="212.7285">+createTeamProposal(min, max, skills)</text></g><!--class Repositories--><g id="elem_Repositories"><rect codeLine="26" fill="#F1F1F1" height="122.4844" id="Repositories" rx="2.5" ry="2.5" style="stroke:#181818;stroke-width:0.5;" width="244" x="357.5" y="299"/><ellipse cx="433.75" cy="315" fill="#ADD1B2" rx="11" ry="11" style="stroke:#181818;stroke-width:1.0;"/><path d="M436.5156,310.875 Q436.6719,310.6563 436.8594,310.5469 Q437.0469,310.4375 437.2656,310.4375 Q437.6406,310.4375 437.875,310.7031 Q438.1094,310.9531 438.1094,311.5625 L438.1094,313.0156 Q438.1094,313.625 437.875,313.8906 Q437.6406,314.1563 437.2656,314.1563 Q436.9219,314.1563 436.7188,313.9531 Q436.5156,313.7656 436.4063,313.25 Q436.3594,312.8906 436.1719,312.7031 Q435.8438,312.3281 435.2344,312.1094 Q434.625,311.8906 434,311.8906 Q433.2344,311.8906 432.5938,312.2188 Q431.9688,312.5469 431.4688,313.2969 Q430.9844,314.0469 430.9844,315.0781 L430.9844,316.1719 Q430.9844,317.4063 431.875,318.2344 Q432.7656,319.0469 434.3594,319.0469 Q435.2969,319.0469 435.9531,318.7969 Q436.3438,318.6406 436.7656,318.2031 Q437.0313,317.9375 437.1719,317.8594 Q437.3281,317.7813 437.5313,317.7813 Q437.8594,317.7813 438.1094,318.0469 Q438.375,318.2969 438.375,318.6406 Q438.375,318.9844 438.0313,319.3906 Q437.5313,319.9688 436.7344,320.2969 Q435.6563,320.75 434.3594,320.75 Q432.8438,320.75 431.6406,320.125 Q430.6563,319.625 429.9688,318.5625 Q429.2813,317.4844 429.2813,316.2031 L429.2813,315.0469 Q429.2813,313.7188 429.8906,312.5781 Q430.5156,311.4219 431.6094,310.8125 Q432.7031,310.1875 433.9375,310.1875 Q434.6719,310.1875 435.3125,310.3594 Q435.9688,310.5156 436.5156,310.875 Z " fill="#000000"/><text fill="#000000" font-family="sans-serif" font-size="14" lengthAdjust="spacing" textLength="83" x="454.25" y="320.7969">:Repositories</text><line style="stroke:#181818;stroke-width:0.5;" x1="358.5" x2="600.5" y1="331" y2="331"/><line style="stroke:#181818;stroke-width:0.5;" x1="358.5" x2="600.5" y1="339" y2="339"/><text fill="#000000" font-family="sans-serif" font-size="14" lengthAdjust="spacing" textLength="178" x="363.5" y="358.1074">+getInstance(): Repositories</text><text fill="#000000" font-family="sans-serif" font-size="14" lengthAdjust="spacing" textLength="232" x="363.5" y="376.7285">+getSkillRepository(): SkillRepository</text><text fill="#000000" font-family="sans-serif" font-size="14" lengthAdjust="spacing" textLength="184" x="363.5" y="395.3496">+getCollaboratorRepository()</text><text fill="#000000" font-family="sans-serif" font-size="14" lengthAdjust="spacing" textLength="142" x="363.5" y="413.9707">+getTeamRepository()</text></g><!--class SkillRepository--><g id="elem_SkillRepository"><rect codeLine="33" fill="#F1F1F1" height="66.6211" id="SkillRepository" rx="2.5" ry="2.5" style="stroke:#181818;stroke-width:0.5;" width="125" x="427" y="491"/><ellipse cx="442" cy="507" fill="#ADD1B2" rx="11" ry="11" style="stroke:#181818;stroke-width:1.0;"/><path d="M444.7656,502.875 Q444.9219,502.6563 445.1094,502.5469 Q445.2969,502.4375 445.5156,502.4375 Q445.8906,502.4375 446.125,502.7031 Q446.3594,502.9531 446.3594,503.5625 L446.3594,505.0156 Q446.3594,505.625 446.125,505.8906 Q445.8906,506.1563 445.5156,506.1563 Q445.1719,506.1563 444.9688,505.9531 Q444.7656,505.7656 444.6563,505.25 Q444.6094,504.8906 444.4219,504.7031 Q444.0938,504.3281 443.4844,504.1094 Q442.875,503.8906 442.25,503.8906 Q441.4844,503.8906 440.8438,504.2188 Q440.2188,504.5469 439.7188,505.2969 Q439.2344,506.0469 439.2344,507.0781 L439.2344,508.1719 Q439.2344,509.4063 440.125,510.2344 Q441.0156,511.0469 442.6094,511.0469 Q443.5469,511.0469 444.2031,510.7969 Q444.5938,510.6406 445.0156,510.2031 Q445.2813,509.9375 445.4219,509.8594 Q445.5781,509.7813 445.7813,509.7813 Q446.1094,509.7813 446.3594,510.0469 Q446.625,510.2969 446.625,510.6406 Q446.625,510.9844 446.2813,511.3906 Q445.7813,511.9688 444.9844,512.2969 Q443.9063,512.75 442.6094,512.75 Q441.0938,512.75 439.8906,512.125 Q438.9063,511.625 438.2188,510.5625 Q437.5313,509.4844 437.5313,508.2031 L437.5313,507.0469 Q437.5313,505.7188 438.1406,504.5781 Q438.7656,503.4219 439.8594,502.8125 Q440.9531,502.1875 442.1875,502.1875 Q442.9219,502.1875 443.5625,502.3594 Q444.2188,502.5156 444.7656,502.875 Z " fill="#000000"/><text fill="#000000" font-family="sans-serif" font-size="14" lengthAdjust="spacing" textLength="93" x="456" y="512.7969">SkillRepository</text><line style="stroke:#181818;stroke-width:0.5;" x1="428" x2="551" y1="523" y2="523"/><line style="stroke:#181818;stroke-width:0.5;" x1="428" x2="551" y1="531" y2="531"/><text fill="#000000" font-family="sans-serif" font-size="14" lengthAdjust="spacing" textLength="70" x="433" y="550.1074">+getSkills()</text></g><!--class CollaboratorRepository--><g id="elem_CollaboratorRepository"><rect codeLine="39" fill="#F1F1F1" height="66.6211" id="CollaboratorRepository" rx="2.5" ry="2.5" style="stroke:#181818;stroke-width:0.5;" width="213" x="7" y="491"/><ellipse cx="37.75" cy="507" fill="#ADD1B2" rx="11" ry="11" style="stroke:#181818;stroke-width:1.0;"/><path d="M40.5156,502.875 Q40.6719,502.6563 40.8594,502.5469 Q41.0469,502.4375 41.2656,502.4375 Q41.6406,502.4375 41.875,502.7031 Q42.1094,502.9531 42.1094,503.5625 L42.1094,505.0156 Q42.1094,505.625 41.875,505.8906 Q41.6406,506.1563 41.2656,506.1563 Q40.9219,506.1563 40.7188,505.9531 Q40.5156,505.7656 40.4063,505.25 Q40.3594,504.8906 40.1719,504.7031 Q39.8438,504.3281 39.2344,504.1094 Q38.625,503.8906 38,503.8906 Q37.2344,503.8906 36.5938,504.2188 Q35.9688,504.5469 35.4688,505.2969 Q34.9844,506.0469 34.9844,507.0781 L34.9844,508.1719 Q34.9844,509.4063 35.875,510.2344 Q36.7656,511.0469 38.3594,511.0469 Q39.2969,511.0469 39.9531,510.7969 Q40.3438,510.6406 40.7656,510.2031 Q41.0313,509.9375 41.1719,509.8594 Q41.3281,509.7813 41.5313,509.7813 Q41.8594,509.7813 42.1094,510.0469 Q42.375,510.2969 42.375,510.6406 Q42.375,510.9844 42.0313,511.3906 Q41.5313,511.9688 40.7344,512.2969 Q39.6563,512.75 38.3594,512.75 Q36.8438,512.75 35.6406,512.125 Q34.6563,511.625 33.9688,510.5625 Q33.2813,509.4844 33.2813,508.2031 L33.2813,507.0469 Q33.2813,505.7188 33.8906,504.5781 Q34.5156,503.4219 35.6094,502.8125 Q36.7031,502.1875 37.9375,502.1875 Q38.6719,502.1875 39.3125,502.3594 Q39.9688,502.5156 40.5156,502.875 Z " fill="#000000"/><text fill="#000000" font-family="sans-serif" font-size="14" lengthAdjust="spacing" textLength="146" x="55.25" y="512.7969">CollaboratorRepository</text><line style="stroke:#181818;stroke-width:0.5;" x1="8" x2="219" y1="523" y2="523"/><line style="stroke:#181818;stroke-width:0.5;" x1="8" x2="219" y1="531" y2="531"/><text fill="#000000" font-family="sans-serif" font-size="14" lengthAdjust="spacing" textLength="201" x="13" y="550.1074">+getCollaboratorsBySkills(skills)</text></g><!--class TeamRepository--><g id="elem_TeamRepository"><rect codeLine="43" fill="#F1F1F1" height="85.2422" id="TeamRepository" rx="2.5" ry="2.5" style="stroke:#181818;stroke-width:0.5;" width="244" x="592.5" y="482"/><ellipse cx="658.25" cy="498" fill="#ADD1B2" rx="11" ry="11" style="stroke:#181818;stroke-width:1.0;"/><path d="M661.0156,493.875 Q661.1719,493.6563 661.3594,493.5469 Q661.5469,493.4375 661.7656,493.4375 Q662.1406,493.4375 662.375,493.7031 Q662.6094,493.9531 662.6094,494.5625 L662.6094,496.0156 Q662.6094,496.625 662.375,496.8906 Q662.1406,497.1563 661.7656,497.1563 Q661.4219,497.1563 661.2188,496.9531 Q661.0156,496.7656 660.9063,496.25 Q660.8594,495.8906 660.6719,495.7031 Q660.3438,495.3281 659.7344,495.1094 Q659.125,494.8906 658.5,494.8906 Q657.7344,494.8906 657.0938,495.2188 Q656.4688,495.5469 655.9688,496.2969 Q655.4844,497.0469 655.4844,498.0781 L655.4844,499.1719 Q655.4844,500.4063 656.375,501.2344 Q657.2656,502.0469 658.8594,502.0469 Q659.7969,502.0469 660.4531,501.7969 Q660.8438,501.6406 661.2656,501.2031 Q661.5313,500.9375 661.6719,500.8594 Q661.8281,500.7813 662.0313,500.7813 Q662.3594,500.7813 662.6094,501.0469 Q662.875,501.2969 662.875,501.6406 Q662.875,501.9844 662.5313,502.3906 Q662.0313,502.9688 661.2344,503.2969 Q660.1563,503.75 658.8594,503.75 Q657.3438,503.75 656.1406,503.125 Q655.1563,502.625 654.4688,501.5625 Q653.7813,500.4844 653.7813,499.2031 L653.7813,498.0469 Q653.7813,496.7188 654.3906,495.5781 Q655.0156,494.4219 656.1094,493.8125 Q657.2031,493.1875 658.4375,493.1875 Q659.1719,493.1875 659.8125,493.3594 Q660.4688,493.5156 661.0156,493.875 Z " fill="#000000"/><text fill="#000000" font-family="sans-serif" font-size="14" lengthAdjust="spacing" textLength="104" x="678.75" y="503.7969">TeamRepository</text><line style="stroke:#181818;stroke-width:0.5;" x1="593.5" x2="835.5" y1="514" y2="514"/><line style="stroke:#181818;stroke-width:0.5;" x1="593.5" x2="835.5" y1="522" y2="522"/><text fill="#000000" font-family="sans-serif" font-size="14" lengthAdjust="spacing" textLength="232" x="598.5" y="541.1074">+createTeam(selectedCollaborators)</text><text fill="#000000" font-family="sans-serif" font-size="14" lengthAdjust="spacing" textLength="111" x="598.5" y="559.7285">-addTeam(Team)</text></g><g id="elem_GMN8"><path d="M483.5,685.5 L483.5,747.373 A0,0 0 0 0 483.5,747.373 L737.5,747.373 A0,0 0 0 0 737.5,747.373 L737.5,695.5 L727.5,685.5 L630.98,685.5 L691.68,567.2 L622.98,685.5 L483.5,685.5 A0,0 0 0 0 483.5,685.5 " fill="#FEFFDD" style="stroke:#181818;stroke-width:0.5;"/><path d="M727.5,685.5 L727.5,695.5 L737.5,695.5 L727.5,685.5 " fill="#FEFFDD" style="stroke:#181818;stroke-width:0.5;"/><text fill="#000000" font-family="sans-serif" font-size="13" lengthAdjust="spacing" textLength="233" x="489.5" y="704.5283">the selected collaborators were selected</text><text fill="#000000" font-family="sans-serif" font-size="13" lengthAdjust="spacing" textLength="208" x="489.5" y="721.8193">based on the max and min size   on</text><text fill="#000000" font-family="sans-serif" font-size="13" lengthAdjust="spacing" textLength="176" x="489.5" y="739.1104">CreateTeamProposalController</text></g><!--class Team--><g id="elem_Team"><rect codeLine="49" fill="#F1F1F1" height="141.1055" id="Team" rx="2.5" ry="2.5" style="stroke:#181818;stroke-width:0.5;" width="253" x="773" y="646"/><ellipse cx="877.25" cy="662" fill="#ADD1B2" rx="11" ry="11" style="stroke:#181818;stroke-width:1.0;"/><path d="M880.0156,657.875 Q880.1719,657.6563 880.3594,657.5469 Q880.5469,657.4375 880.7656,657.4375 Q881.1406,657.4375 881.375,657.7031 Q881.6094,657.9531 881.6094,658.5625 L881.6094,660.0156 Q881.6094,660.625 881.375,660.8906 Q881.1406,661.1563 880.7656,661.1563 Q880.4219,661.1563 880.2188,660.9531 Q880.0156,660.7656 879.9063,660.25 Q879.8594,659.8906 879.6719,659.7031 Q879.3438,659.3281 878.7344,659.1094 Q878.125,658.8906 877.5,658.8906 Q876.7344,658.8906 876.0938,659.2188 Q875.4688,659.5469 874.9688,660.2969 Q874.4844,661.0469 874.4844,662.0781 L874.4844,663.1719 Q874.4844,664.4063 875.375,665.2344 Q876.2656,666.0469 877.8594,666.0469 Q878.7969,666.0469 879.4531,665.7969 Q879.8438,665.6406 880.2656,665.2031 Q880.5313,664.9375 880.6719,664.8594 Q880.8281,664.7813 881.0313,664.7813 Q881.3594,664.7813 881.6094,665.0469 Q881.875,665.2969 881.875,665.6406 Q881.875,665.9844 881.5313,666.3906 Q881.0313,666.9688 880.2344,667.2969 Q879.1563,667.75 877.8594,667.75 Q876.3438,667.75 875.1406,667.125 Q874.1563,666.625 873.4688,665.5625 Q872.7813,664.4844 872.7813,663.2031 L872.7813,662.0469 Q872.7813,660.7188 873.3906,659.5781 Q874.0156,658.4219 875.1094,657.8125 Q876.2031,657.1875 877.4375,657.1875 Q878.1719,657.1875 878.8125,657.3594 Q879.4688,657.5156 880.0156,657.875 Z " fill="#000000"/><text fill="#000000" font-family="sans-serif" font-size="14" lengthAdjust="spacing" textLength="36" x="897.75" y="667.7969">Team</text><line style="stroke:#181818;stroke-width:0.5;" x1="774" x2="1025" y1="678" y2="678"/><text fill="#000000" font-family="sans-serif" font-size="14" lengthAdjust="spacing" textLength="104" x="779" y="697.1074">-Integer maxSize</text><text fill="#000000" font-family="sans-serif" font-size="14" lengthAdjust="spacing" textLength="101" x="779" y="715.7285">-Integer minSize</text><text fill="#000000" font-family="sans-serif" font-size="14" lengthAdjust="spacing" textLength="191" x="779" y="734.3496">-ArrayList&lt;Skill&gt; requiredSkills</text><text fill="#000000" font-family="sans-serif" font-size="14" lengthAdjust="spacing" textLength="241" x="779" y="752.9707">-ArrayList&lt;Collaborator&gt; collaborators</text><line style="stroke:#181818;stroke-width:0.5;" x1="774" x2="1025" y1="760.4844" y2="760.4844"/><text fill="#000000" font-family="sans-serif" font-size="14" lengthAdjust="spacing" textLength="196" x="779" y="779.5918">+create(selectedCollaborators)</text></g><g id="elem_GMN12"><path d="M255,502 L255,546.582 L392,546.582 L392,512 L382,502 L255,502 " fill="#FEFFDD" style="stroke:#181818;stroke-width:0.5;"/><path d="M382,502 L382,512 L392,512 L382,502 " fill="#FEFFDD" style="stroke:#181818;stroke-width:1.0;"/><text fill="#000000" font-family="sans-serif" font-size="13" lengthAdjust="spacing" textLength="102" x="261" y="521.0283">filter collaborators</text><text fill="#000000" font-family="sans-serif" font-size="13" lengthAdjust="spacing" textLength="116" x="261" y="538.3193">based on their skills</text></g><!--link CollaboratorRepository to GMN12--><g id="link_CollaboratorRepository_GMN12"><path d="M220.14,524.5 C237.08,524.5 253.5,524.5 253.5,524.5 C253.5,524.5 254.02,524.5 254.96,524.5 " fill="none" id="CollaboratorRepository-GMN12" style="stroke:#181818;stroke-width:1.0;stroke-dasharray:7.0,7.0;"/></g><!--link CreateTeamProposalUI to CreateTeamProposalController--><g id="link_CreateTeamProposalUI_CreateTeamProposalController"><path codeLine="61" d="M750.5,74.18 C750.5,92.44 750.5,109.38 750.5,128.91 " fill="none" id="CreateTeamProposalUI-to-CreateTeamProposalController" style="stroke:#181818;stroke-width:1.0;stroke-dasharray:7.0,7.0;"/><polygon fill="#181818" points="750.5,134.91,754.5,125.91,750.5,129.91,746.5,125.91,750.5,134.91" style="stroke:#181818;stroke-width:1.0;"/></g><!--link Repositories to Repositories--><g id="link_Repositories_Repositories"><path codeLine="62" d="M601.61,344.28 C622.24,346.45 636.5,351.69 636.5,360 C636.5,368.31 628.2071,372.9223 607.5771,375.0923 " fill="none" id="Repositories-to-Repositories" style="stroke:#181818;stroke-width:1.0;"/><polygon fill="#181818" points="601.61,375.72,610.9791,378.7566,606.5826,375.197,610.1422,370.8005,601.61,375.72" style="stroke:#181818;stroke-width:1.0;"/><text fill="#000000" font-family="sans-serif" font-size="13" lengthAdjust="spacing" textLength="49" x="642.5" y="365.5283">instance</text></g><!--link CreateTeamProposalController to Repositories--><g id="link_CreateTeamProposalController_Repositories"><path codeLine="63" d="M687.99,220.14 C652.89,243.51 613.4833,269.7533 574.6833,295.6033 " fill="none" id="CreateTeamProposalController-to-Repositories" style="stroke:#181818;stroke-width:1.0;stroke-dasharray:7.0,7.0;"/><polygon fill="#181818" points="569.69,298.93,579.3977,297.2688,573.8511,296.1577,574.9621,290.6111,569.69,298.93" style="stroke:#181818;stroke-width:1.0;"/><text fill="#000000" font-family="sans-serif" font-size="13" lengthAdjust="spacing" textLength="67" x="640.5" y="265.0283">repositories</text></g><!--link Repositories to SkillRepository--><g id="link_Repositories_SkillRepository"><path codeLine="64" d="M483.2,421.05 C484.64,444.55 485.8838,464.6212 487.1038,484.5712 " fill="none" id="Repositories-to-SkillRepository" style="stroke:#181818;stroke-width:1.0;"/><polygon fill="#181818" points="487.47,490.56,490.9132,481.3326,487.1648,485.5693,482.9281,481.8209,487.47,490.56" style="stroke:#181818;stroke-width:1.0;"/><text fill="#000000" font-family="sans-serif" font-size="13" lengthAdjust="spacing" textLength="7" x="479.4504" y="479.8252">1</text></g><!--link Repositories to CollaboratorRepository--><g id="link_Repositories_CollaboratorRepository"><path codeLine="65" d="M357.37,415.22 C300.83,440.33 241.0239,466.8855 192.2339,488.5455 " fill="none" id="Repositories-to-CollaboratorRepository" style="stroke:#181818;stroke-width:1.0;"/><polygon fill="#181818" points="186.75,490.98,196.5989,490.9841,191.3199,488.9512,193.3528,483.6723,186.75,490.98" style="stroke:#181818;stroke-width:1.0;"/><text fill="#000000" font-family="sans-serif" font-size="13" lengthAdjust="spacing" textLength="7" x="193.482" y="479.8016">1</text></g><!--link Repositories to TeamRepository--><g id="link_Repositories_TeamRepository"><path codeLine="66" d="M566.34,421.05 C595.63,441.3 622.7152,460.0271 649.4652,478.5271 " fill="none" id="Repositories-to-TeamRepository" style="stroke:#181818;stroke-width:1.0;"/><polygon fill="#181818" points="654.4,481.94,649.273,473.5308,650.2877,479.0959,644.7225,480.1106,654.4,481.94" style="stroke:#181818;stroke-width:1.0;"/><text fill="#000000" font-family="sans-serif" font-size="13" lengthAdjust="spacing" textLength="7" x="637.2638" y="470.8345">1</text></g><!--link CreateTeamProposalController to TeamRepository--><g id="link_CreateTeamProposalController_TeamRepository"><path codeLine="67" d="M746.16,220.12 C739.24,286.43 726.4127,409.3624 719.4827,475.7724 " fill="none" id="CreateTeamProposalController-to-TeamRepository" style="stroke:#181818;stroke-width:1.0;stroke-dasharray:7.0,7.0;"/><polygon fill="#181818" points="718.86,481.74,723.7725,473.2038,719.3789,476.767,715.8157,472.3735,718.86,481.74" style="stroke:#181818;stroke-width:1.0;"/><text fill="#000000" font-family="sans-serif" font-size="13" lengthAdjust="spacing" textLength="94" x="739.5" y="365.5283">TeamRepository</text></g><!--link TeamRepository to Team--><g id="link_TeamRepository_Team"><path codeLine="68" d="M755.1,567.2 C777.54,590.25 801.8247,615.1808 827.5447,641.6008 " fill="none" id="TeamRepository-to-Team" style="stroke:#181818;stroke-width:1.0;"/><polygon fill="#181818" points="831.73,645.9,828.3182,636.661,828.2422,642.3173,822.5859,642.2414,831.73,645.9" style="stroke:#181818;stroke-width:1.0;"/><text fill="#000000" font-family="sans-serif" font-size="13" lengthAdjust="spacing" textLength="29" x="802.5" y="612.0283">team</text><text fill="#000000" font-family="sans-serif" font-size="13" lengthAdjust="spacing" textLength="7" x="754.0128" y="589.3922">1</text><text fill="#000000" font-family="sans-serif" font-size="13" lengthAdjust="spacing" textLength="5" x="819.4834" y="634.7807">*</text></g><!--link CreateTeamProposalController to Team--><g id="link_CreateTeamProposalController_Team"><path codeLine="69" d="M782.42,220.31 C808.99,255.11 842.5,299 842.5,299 C842.5,299 872.9163,521.2754 889.1463,639.8454 " fill="none" id="CreateTeamProposalController-to-Team" style="stroke:#181818;stroke-width:1.0;"/><polygon fill="#181818" points="889.96,645.79,892.7025,636.3307,889.2819,640.8362,884.7764,637.4156,889.96,645.79" style="stroke:#181818;stroke-width:1.0;"/></g><!--SRC=[XLJ1Zjem4BtxAqPx0RhBghr65TAM4r8FLMblUp7942mSczg3Q5hjltViGB2pWNA8nCoRUJClypBnUsKEqia66cjikNEsGI1tH77D76IvbpMkgTK83akIfjOfmEzaPK_ArB2LsgSPhGnIUq0uMDs6Fs8oahIEh4YgIYszVo5oQdCaN9NMhDKVX8z2J3Hk2SY2K_MEe59X76MD428MmKEnT2W9Vw1ilZbxi5xgdwi7a1x64l1N2E3Vez_PKmUe0c8Q7ZFnThVlqXfoLcjqD_fV0SppM2EjzqfhFvrrdEMxWccZp1CqylSJ-0YTYJX3FyHtP9mYwnJwI9e6c2JsPQALyVoMIfpEYWpI0-8aVQODk46eXovv0xcnJd8qhUW1OOCiyTOFFEWPHnx4agbxULBXn-axnKTJISCKuB-qv_uNQQzZvXl4tddeqlFwogOUDTyULXb79yfSLlaL6Ki86qja6x3RGUy2Q8TmQGTbsWzEwAwvLxEHdY7Mn1A-4v2c0ZuQyC4Wm9bNS-yEiutxFS_RpLU6iEPZvSR1S8EWCjVWYtEo_QeyVOwQBlYpyEl8PgmwYOUWLAD5lg58XRqbQdXL44NiVCyQthoB0hPA4m-SqUJIANVsbn2ZNuNdvyLTEulCTlD5RiC2rDb-ukut8R2aXGMhc5Wrvs2IXqz3Fxt3CEI6AqRRvOVu_sc7Xpke7tWc31E9FaGYldD-tYS9y90I_m00]--></g></svg>