<?xml version="1.0" encoding="us-ascii" standalone="no"?><svg xmlns="http://www.w3.org/2000/svg" xmlns:xlink="http://www.w3.org/1999/xlink" contentStyleType="text/css" height="317.6px" preserveAspectRatio="none" style="width:926px;height:317px;background:#FFFFFF;" version="1.1" viewBox="0 0 926 317" width="926.4px" zoomAndPan="magnify"><defs/><g><rect fill="#FFFFFF" height="212.2625" style="stroke:#181818;stroke-width:0.8000000000000002;" width="8" x="238" y="53.7938"/><rect fill="#FFFFFF" height="25.0328" style="stroke:#181818;stroke-width:0.8000000000000002;" width="8" x="456.4" y="93.4594"/><rect fill="#FFFFFF" height="90.2984" style="stroke:#181818;stroke-width:0.8000000000000002;" width="8" x="550.4" y="143.525"/><line style="stroke:#181818;stroke-width:0.4000000000000001;stroke-dasharray:5.0,5.0;" x1="81.6" x2="81.6" y1="45.7938" y2="273.2563"/><line style="stroke:#181818;stroke-width:0.4000000000000001;stroke-dasharray:5.0,5.0;" x1="241.6" x2="241.6" y1="45.7938" y2="273.2563"/><line style="stroke:#181818;stroke-width:0.4000000000000001;stroke-dasharray:5.0,5.0;" x1="374.4" x2="374.4" y1="45.7938" y2="273.2563"/><line style="stroke:#181818;stroke-width:0.4000000000000001;stroke-dasharray:5.0,5.0;" x1="460" x2="460" y1="45.7938" y2="273.2563"/><line style="stroke:#181818;stroke-width:0.4000000000000001;stroke-dasharray:5.0,5.0;" x1="554.4" x2="554.4" y1="45.7938" y2="273.2563"/><line style="stroke:#181818;stroke-width:0.4000000000000001;stroke-dasharray:5.0,5.0;" x1="721.6" x2="721.6" y1="45.7938" y2="273.2563"/><rect fill="#E3E3E3" height="26.0969" rx="2" ry="2" style="stroke:#181818;stroke-width:0.4000000000000001;" width="132" x="16" y="18.8969"/><text fill="#000000" font-family="sans-serif" font-size="11.2" lengthAdjust="spacing" textLength="120.8" x="21.6" y="36.5828">:CreateTeamProposalUI</text><rect fill="#E3E3E3" height="26.0969" rx="2" ry="2" style="stroke:#181818;stroke-width:0.4000000000000001;" width="132" x="16" y="272.4563"/><text fill="#000000" font-family="sans-serif" font-size="11.2" lengthAdjust="spacing" textLength="120.8" x="21.6" y="290.1422">:CreateTeamProposalUI</text><rect fill="#E3E3E3" height="26.0969" rx="2" ry="2" style="stroke:#181818;stroke-width:0.4000000000000001;" width="172" x="156" y="18.8969"/><text fill="#000000" font-family="sans-serif" font-size="11.2" lengthAdjust="spacing" textLength="160.8" x="161.6" y="36.5828">:CreateTeamProposalController</text><rect fill="#E3E3E3" height="26.0969" rx="2" ry="2" style="stroke:#181818;stroke-width:0.4000000000000001;" width="172" x="156" y="272.4563"/><text fill="#000000" font-family="sans-serif" font-size="11.2" lengthAdjust="spacing" textLength="160.8" x="161.6" y="290.1422">:CreateTeamProposalController</text><rect fill="#E3E3E3" height="26.0969" rx="2" ry="2" style="stroke:#181818;stroke-width:0.4000000000000001;" width="77.6" x="336" y="18.8969"/><text fill="#000000" font-family="sans-serif" font-size="11.2" lengthAdjust="spacing" textLength="66.4" x="341.6" y="36.5828">:Repositories</text><rect fill="#E3E3E3" height="26.0969" rx="2" ry="2" style="stroke:#181818;stroke-width:0.4000000000000001;" width="77.6" x="336" y="272.4563"/><text fill="#000000" font-family="sans-serif" font-size="11.2" lengthAdjust="spacing" textLength="66.4" x="341.6" y="290.1422">:Repositories</text><rect fill="#E3E3E3" height="40.9938" rx="2" ry="2" style="stroke:#181818;stroke-width:0.4000000000000001;" width="77.6" x="421.6" y="4"/><text fill="#000000" font-family="sans-serif" font-size="11.2" lengthAdjust="spacing" textLength="59.2" x="430.8" y="21.6859">repositories</text><text fill="#000000" font-family="sans-serif" font-size="11.2" lengthAdjust="spacing" textLength="66.4" x="427.2" y="36.5828">:Repositories</text><rect fill="#E3E3E3" height="40.9938" rx="2" ry="2" style="stroke:#181818;stroke-width:0.4000000000000001;" width="77.6" x="421.6" y="272.4563"/><text fill="#000000" font-family="sans-serif" font-size="11.2" lengthAdjust="spacing" textLength="59.2" x="430.8" y="290.1422">repositories</text><text fill="#000000" font-family="sans-serif" font-size="11.2" lengthAdjust="spacing" textLength="66.4" x="427.2" y="305.0391">:Repositories</text><rect fill="#E3E3E3" height="40.9938" rx="2" ry="2" style="stroke:#181818;stroke-width:0.4000000000000001;" width="94.4" x="507.2" y="4"/><text fill="#000000" font-family="sans-serif" font-size="11.2" lengthAdjust="spacing" textLength="82.4" x="513.2" y="21.6859">teamRepository:</text><text fill="#000000" font-family="sans-serif" font-size="11.2" lengthAdjust="spacing" textLength="83.2" x="512.8" y="36.5828">TeamRepository</text><rect fill="#E3E3E3" height="40.9938" rx="2" ry="2" style="stroke:#181818;stroke-width:0.4000000000000001;" width="94.4" x="507.2" y="272.4563"/><text fill="#000000" font-family="sans-serif" font-size="11.2" lengthAdjust="spacing" textLength="82.4" x="513.2" y="290.1422">teamRepository:</text><text fill="#000000" font-family="sans-serif" font-size="11.2" lengthAdjust="spacing" textLength="83.2" x="512.8" y="305.0391">TeamRepository</text><rect fill="#E3E3E3" height="40.9938" rx="2" ry="2" style="stroke:#181818;stroke-width:0.4000000000000001;" width="43.2" x="700" y="4"/><text fill="#000000" font-family="sans-serif" font-size="11.2" lengthAdjust="spacing" textLength="24.8" x="709.2" y="21.6859">team</text><text fill="#000000" font-family="sans-serif" font-size="11.2" lengthAdjust="spacing" textLength="32" x="705.6" y="36.5828">:Team</text><rect fill="#E3E3E3" height="40.9938" rx="2" ry="2" style="stroke:#181818;stroke-width:0.4000000000000001;" width="43.2" x="700" y="272.4563"/><text fill="#000000" font-family="sans-serif" font-size="11.2" lengthAdjust="spacing" textLength="24.8" x="709.2" y="290.1422">team</text><text fill="#000000" font-family="sans-serif" font-size="11.2" lengthAdjust="spacing" textLength="32" x="705.6" y="305.0391">:Team</text><rect fill="#FFFFFF" height="212.2625" style="stroke:#181818;stroke-width:0.8000000000000002;" width="8" x="238" y="53.7938"/><rect fill="#FFFFFF" height="25.0328" style="stroke:#181818;stroke-width:0.8000000000000002;" width="8" x="456.4" y="93.4594"/><rect fill="#FFFFFF" height="90.2984" style="stroke:#181818;stroke-width:0.8000000000000002;" width="8" x="550.4" y="143.525"/><polygon fill="#181818" points="446.8,90.2594,454.8,93.4594,446.8,96.6594,450,93.4594" style="stroke:#181818;stroke-width:0.8000000000000002;"/><line style="stroke:#181818;stroke-width:0.8000000000000002;" x1="246" x2="451.6" y1="93.4594" y2="93.4594"/><text fill="#000000" font-family="sans-serif" font-size="10.4" font-weight="bold" lengthAdjust="spacing" textLength="5.6" x="251.6" y="89.2492">3</text><text fill="#000000" font-family="sans-serif" font-size="10.4" lengthAdjust="spacing" textLength="96" x="260.4" y="89.2492">getTeamRepository()</text><polygon fill="#181818" points="254.8,115.2922,246.8,118.4922,254.8,121.6922,251.6,118.4922" style="stroke:#181818;stroke-width:0.8000000000000002;"/><line style="stroke:#181818;stroke-width:0.8000000000000002;stroke-dasharray:2.0,2.0;" x1="250" x2="459.6" y1="118.4922" y2="118.4922"/><text fill="#000000" font-family="sans-serif" font-size="10.4" font-weight="bold" lengthAdjust="spacing" textLength="5.6" x="259.6" y="114.282">4</text><text fill="#000000" font-family="sans-serif" font-size="10.4" lengthAdjust="spacing" textLength="72.8" x="268.4" y="114.282">teamRepository</text><polygon fill="#181818" points="540.8,140.325,548.8,143.525,540.8,146.725,544,143.525" style="stroke:#181818;stroke-width:0.8000000000000002;"/><line style="stroke:#181818;stroke-width:0.8000000000000002;" x1="246" x2="545.6" y1="143.525" y2="143.525"/><text fill="#000000" font-family="sans-serif" font-size="10.4" font-weight="bold" lengthAdjust="spacing" textLength="5.6" x="251.6" y="139.3148">5</text><text fill="#000000" font-family="sans-serif" font-size="10.4" lengthAdjust="spacing" textLength="160.8" x="260.4" y="139.3148">createTeam(selectedCollaborators)</text><polygon fill="#181818" points="712,167.7578,720,170.9578,712,174.1578,715.2,170.9578" style="stroke:#181818;stroke-width:0.8000000000000002;"/><line style="stroke:#181818;stroke-width:0.8000000000000002;" x1="558.4" x2="716.8" y1="170.9578" y2="170.9578"/><text fill="#000000" font-family="sans-serif" font-size="10.4" font-weight="bold" lengthAdjust="spacing" textLength="5.6" x="564" y="166.7477">6</text><text fill="#000000" font-family="sans-serif" font-size="10.4" lengthAdjust="spacing" textLength="135.2" x="572.8" y="166.7477">create(selectedCollaborators)</text><path d="M725.6,153.925 L725.6,175.525 L920.8,175.525 L920.8,161.925 L912.8,153.925 L725.6,153.925 " fill="#FAFAFA" style="stroke:#181818;stroke-width:0.4000000000000001;"/><path d="M912.8,153.925 L912.8,161.925 L920.8,161.925 L912.8,153.925 " fill="#FAFAFA" style="stroke:#181818;stroke-width:0.4000000000000001;"/><text fill="#000000" font-family="sans-serif" font-size="10.4" lengthAdjust="spacing" textLength="178.4" x="730.4" y="169.1477">team is created with a PENDING state</text><line style="stroke:#181818;stroke-width:0.8000000000000002;" x1="558.4" x2="592" y1="198.3906" y2="198.3906"/><line style="stroke:#181818;stroke-width:0.8000000000000002;" x1="592" x2="592" y1="198.3906" y2="208.7906"/><line style="stroke:#181818;stroke-width:0.8000000000000002;" x1="559.2" x2="592" y1="208.7906" y2="208.7906"/><polygon fill="#181818" points="567.2,205.5906,559.2,208.7906,567.2,211.9906,564,208.7906" style="stroke:#181818;stroke-width:0.8000000000000002;"/><text fill="#000000" font-family="sans-serif" font-size="10.4" font-weight="bold" lengthAdjust="spacing" textLength="5.6" x="564" y="194.1805">7</text><text fill="#000000" font-family="sans-serif" font-size="10.4" lengthAdjust="spacing" textLength="48.8" x="572.8" y="194.1805">addTeam()</text><polygon fill="#181818" points="254.8,230.6234,246.8,233.8234,254.8,237.0234,251.6,233.8234" style="stroke:#181818;stroke-width:0.8000000000000002;"/><line style="stroke:#181818;stroke-width:0.8000000000000002;stroke-dasharray:2.0,2.0;" x1="250" x2="553.6" y1="233.8234" y2="233.8234"/><text fill="#000000" font-family="sans-serif" font-size="10.4" font-weight="bold" lengthAdjust="spacing" textLength="5.6" x="259.6" y="229.6133">8</text><text fill="#000000" font-family="sans-serif" font-size="10.4" lengthAdjust="spacing" textLength="23.2" x="268.4" y="229.6133">team</text><polygon fill="#181818" points="90.8,255.6563,82.8,258.8563,90.8,262.0563,87.6,258.8563" style="stroke:#181818;stroke-width:0.8000000000000002;"/><line style="stroke:#181818;stroke-width:0.8000000000000002;stroke-dasharray:2.0,2.0;" x1="86" x2="237.2" y1="258.8563" y2="258.8563"/><text fill="#000000" font-family="sans-serif" font-size="10.4" font-weight="bold" lengthAdjust="spacing" textLength="5.6" x="95.6" y="254.6461">9</text><text fill="#000000" font-family="sans-serif" font-size="10.4" lengthAdjust="spacing" textLength="23.2" x="104.4" y="254.6461">team</text><!--SRC=[ZLJ1Rk8m4BtxAqOzmO4AAAoqEQos3HJ1XXP1Q2-zc6GQB18xiYTK_ViTGg64I8KvZjzxysR6jjiedKihCyYCDj7QcWo1R8727Kzo6MraWWlwJ14iHYHrafu2t5h6vaFf1Dvbwb08MP3HHRP2AmH3I4KgbvhWnlCjIi8GPJQp9ZTEfiln3KW7o_55f6yqMPEcQ4k67yw3CyuS6QZ8M8Mkn1mJdmkrCyssgXHxmdZJTO5PS1-UzK1iwLlNUzDX9L7Iggawdqlj87liy7vwCZ6uu_b5fBRS_Rv7u4YiAN8O8K4etGPyFanO6GBbI8WISeWT1rf_IklWGO9KTTDeLk1b70kM_K8zIh4MgvRg7bI7K6V4M9Mi8musg-POEZeklk4mvUk6iSzRbojZ9KFSJ_R32xRWlDpE0C__KFNgYW3QS3shaZLzZGEK-rA9uKFH6YJCXa-3yTC8777sIZVduv1nNCwYUGs_kg0Vrt9fLFlziE1oV92hRV4lwhZ8KY5cAL_jvJI0BLgdZ8RERRVTxTtUDS9r0O-uWauVEh-zNjjhz-5r6CBkk2aQera0pXGsGeZvAbkrAeZvJJ6HMmdpGfFAq8Fd7FLayE-GWA7UAcjqXfh4v6Nw3VZLQpqeWWLQTW8lKp70Trcan8p8nFm7UE3ddMw_AmB-nGh-rZn0BNp3mloOOVJm7m00]--></g></svg>