<?xml version="1.0" encoding="us-ascii" standalone="no"?><svg xmlns="http://www.w3.org/2000/svg" xmlns:xlink="http://www.w3.org/1999/xlink" contentStyleType="text/css" height="1214px" preserveAspectRatio="none" style="width:1553px;height:1214px;background:#FFFFFF;" version="1.1" viewBox="0 0 1553 1214" width="1553px" zoomAndPan="magnify"><defs/><g><rect fill="#FFFFFF" height="1019.5938" style="stroke:#181818;stroke-width:1.0;" width="10" x="91" y="93.6211"/><rect fill="#FFFFFF" height="74.9121" style="stroke:#181818;stroke-width:1.0;" width="10" x="325" y="116.9121"/><rect fill="#FFFFFF" height="31.291" style="stroke:#181818;stroke-width:1.0;" width="10" x="325" y="223.1152"/><rect fill="#FFFFFF" height="389.4434" style="stroke:#181818;stroke-width:1.0;" width="10" x="325" y="723.7715"/><rect fill="#FFFFFF" height="344.2012" style="stroke:#181818;stroke-width:1.0;" width="10" x="591" y="316.9883"/><rect fill="#FFFFFF" height="326.8613" style="stroke:#181818;stroke-width:1.0;" width="10" x="591" y="755.0625"/><rect fill="#FFFFFF" height="31.291" style="stroke:#181818;stroke-width:1.0;" width="10" x="757" y="348.2793"/><rect fill="#FFFFFF" height="156.4551" style="stroke:#181818;stroke-width:1.0;" width="10" x="864" y="410.8613"/><rect fill="#FFFFFF" height="31.291" style="stroke:#181818;stroke-width:1.0;" width="10" x="977" y="598.6074"/><rect fill="#FFFFFF" height="264.2793" style="stroke:#181818;stroke-width:1.0;" width="10" x="1100.5" y="786.3535"/><rect fill="#FFFFFF" height="63.2275" style="stroke:#181818;stroke-width:1.0;" width="10" x="1394.5" y="829.29"/><line style="stroke:#181818;stroke-width:0.5;stroke-dasharray:5.0,5.0;" x1="96" x2="96" y1="83.6211" y2="1131.2148"/><line style="stroke:#181818;stroke-width:0.5;stroke-dasharray:5.0,5.0;" x1="329.5" x2="329.5" y1="83.6211" y2="1131.2148"/><line style="stroke:#181818;stroke-width:0.5;stroke-dasharray:5.0,5.0;" x1="595.5" x2="595.5" y1="156.7227" y2="1131.2148"/><line style="stroke:#181818;stroke-width:0.5;stroke-dasharray:5.0,5.0;" x1="761.5" x2="761.5" y1="83.6211" y2="1131.2148"/><line style="stroke:#181818;stroke-width:0.5;stroke-dasharray:5.0,5.0;" x1="868.5" x2="868.5" y1="83.6211" y2="1131.2148"/><line style="stroke:#181818;stroke-width:0.5;stroke-dasharray:5.0,5.0;" x1="981.5" x2="981.5" y1="83.6211" y2="1131.2148"/><line style="stroke:#181818;stroke-width:0.5;stroke-dasharray:5.0,5.0;" x1="1105.5" x2="1105.5" y1="83.6211" y2="1131.2148"/><line style="stroke:#181818;stroke-width:0.5;stroke-dasharray:5.0,5.0;" x1="1399" x2="1399" y1="83.6211" y2="1131.2148"/><line style="stroke:#181818;stroke-width:0.5;stroke-dasharray:5.0,5.0;" x1="1517" x2="1517" y1="961.9297" y2="1131.2148"/><text fill="#000000" font-family="sans-serif" font-size="14" lengthAdjust="spacing" textLength="176" x="5" y="80.1074">Human Resources Manager</text><ellipse cx="96" cy="13.5" fill="#E3E3E3" rx="8" ry="8" style="stroke:#181818;stroke-width:0.5;"/><path d="M96,21.5 L96,48.5 M83,29.5 L109,29.5 M96,48.5 L83,63.5 M96,48.5 L109,63.5 " fill="none" style="stroke:#181818;stroke-width:0.5;"/><text fill="#000000" font-family="sans-serif" font-size="14" lengthAdjust="spacing" textLength="176" x="5" y="1145.3223">Human Resources Manager</text><ellipse cx="96" cy="1157.3359" fill="#E3E3E3" rx="8" ry="8" style="stroke:#181818;stroke-width:0.5;"/><path d="M96,1165.3359 L96,1192.3359 M83,1173.3359 L109,1173.3359 M96,1192.3359 L83,1207.3359 M96,1192.3359 L109,1207.3359 " fill="none" style="stroke:#181818;stroke-width:0.5;"/><rect fill="#E3E3E3" height="32.6211" rx="2.5" ry="2.5" style="stroke:#181818;stroke-width:0.5;" width="165" x="247.5" y="50"/><text fill="#000000" font-family="sans-serif" font-size="14" lengthAdjust="spacing" textLength="151" x="254.5" y="72.1074">:CreateTeamProposalUI</text><rect fill="#E3E3E3" height="32.6211" rx="2.5" ry="2.5" style="stroke:#181818;stroke-width:0.5;" width="165" x="247.5" y="1130.2148"/><text fill="#000000" font-family="sans-serif" font-size="14" lengthAdjust="spacing" textLength="151" x="254.5" y="1152.3223">:CreateTeamProposalUI</text><rect fill="#E3E3E3" height="32.6211" rx="2.5" ry="2.5" style="stroke:#181818;stroke-width:0.5;" width="215" x="488.5" y="1130.2148"/><text fill="#000000" font-family="sans-serif" font-size="14" lengthAdjust="spacing" textLength="201" x="495.5" y="1152.3223">:CreateTeamProposalController</text><rect fill="#E3E3E3" height="32.6211" rx="2.5" ry="2.5" style="stroke:#181818;stroke-width:0.5;" width="97" x="713.5" y="50"/><text fill="#000000" font-family="sans-serif" font-size="14" lengthAdjust="spacing" textLength="83" x="720.5" y="72.1074">:Repositories</text><rect fill="#E3E3E3" height="32.6211" rx="2.5" ry="2.5" style="stroke:#181818;stroke-width:0.5;" width="97" x="713.5" y="1130.2148"/><text fill="#000000" font-family="sans-serif" font-size="14" lengthAdjust="spacing" textLength="83" x="720.5" y="1152.3223">:Repositories</text><rect fill="#E3E3E3" height="51.2422" rx="2.5" ry="2.5" style="stroke:#181818;stroke-width:0.5;" width="97" x="820.5" y="31.3789"/><text fill="#000000" font-family="sans-serif" font-size="14" lengthAdjust="spacing" textLength="74" x="832" y="53.4863">repositories</text><text fill="#000000" font-family="sans-serif" font-size="14" lengthAdjust="spacing" textLength="83" x="827.5" y="72.1074">:Repositories</text><rect fill="#E3E3E3" height="51.2422" rx="2.5" ry="2.5" style="stroke:#181818;stroke-width:0.5;" width="97" x="820.5" y="1130.2148"/><text fill="#000000" font-family="sans-serif" font-size="14" lengthAdjust="spacing" textLength="74" x="832" y="1152.3223">repositories</text><text fill="#000000" font-family="sans-serif" font-size="14" lengthAdjust="spacing" textLength="83" x="827.5" y="1170.9434">:Repositories</text><rect fill="#E3E3E3" height="51.2422" rx="2.5" ry="2.5" style="stroke:#181818;stroke-width:0.5;" width="109" x="927.5" y="31.3789"/><text fill="#000000" font-family="sans-serif" font-size="14" lengthAdjust="spacing" textLength="95" x="934.5" y="53.4863">skillRepository:</text><text fill="#000000" font-family="sans-serif" font-size="14" lengthAdjust="spacing" textLength="93" x="935.5" y="72.1074">SkillRepository</text><rect fill="#E3E3E3" height="51.2422" rx="2.5" ry="2.5" style="stroke:#181818;stroke-width:0.5;" width="109" x="927.5" y="1130.2148"/><text fill="#000000" font-family="sans-serif" font-size="14" lengthAdjust="spacing" textLength="95" x="934.5" y="1152.3223">skillRepository:</text><text fill="#000000" font-family="sans-serif" font-size="14" lengthAdjust="spacing" textLength="93" x="935.5" y="1170.9434">SkillRepository</text><rect fill="#E3E3E3" height="51.2422" rx="2.5" ry="2.5" style="stroke:#181818;stroke-width:0.5;" width="118" x="1046.5" y="31.3789"/><text fill="#000000" font-family="sans-serif" font-size="14" lengthAdjust="spacing" textLength="103" x="1054" y="53.4863">teamRepository:</text><text fill="#000000" font-family="sans-serif" font-size="14" lengthAdjust="spacing" textLength="104" x="1053.5" y="72.1074">TeamRepository</text><rect fill="#E3E3E3" height="51.2422" rx="2.5" ry="2.5" style="stroke:#181818;stroke-width:0.5;" width="118" x="1046.5" y="1130.2148"/><text fill="#000000" font-family="sans-serif" font-size="14" lengthAdjust="spacing" textLength="103" x="1054" y="1152.3223">teamRepository:</text><text fill="#000000" font-family="sans-serif" font-size="14" lengthAdjust="spacing" textLength="104" x="1053.5" y="1170.9434">TeamRepository</text><rect fill="#E3E3E3" height="51.2422" rx="2.5" ry="2.5" style="stroke:#181818;stroke-width:0.5;" width="161" x="1319" y="31.3789"/><text fill="#000000" font-family="sans-serif" font-size="14" lengthAdjust="spacing" textLength="147" x="1326" y="53.4863">collaboratorRepository:</text><text fill="#000000" font-family="sans-serif" font-size="14" lengthAdjust="spacing" textLength="146" x="1326.5" y="72.1074">CollaboratorRepository</text><rect fill="#E3E3E3" height="51.2422" rx="2.5" ry="2.5" style="stroke:#181818;stroke-width:0.5;" width="161" x="1319" y="1130.2148"/><text fill="#000000" font-family="sans-serif" font-size="14" lengthAdjust="spacing" textLength="147" x="1326" y="1152.3223">collaboratorRepository:</text><text fill="#000000" font-family="sans-serif" font-size="14" lengthAdjust="spacing" textLength="146" x="1326.5" y="1170.9434">CollaboratorRepository</text><rect fill="#E3E3E3" height="51.2422" rx="2.5" ry="2.5" style="stroke:#181818;stroke-width:0.5;" width="54" x="1490" y="1130.2148"/><text fill="#000000" font-family="sans-serif" font-size="14" lengthAdjust="spacing" textLength="31" x="1501.5" y="1152.3223">team</text><text fill="#000000" font-family="sans-serif" font-size="14" lengthAdjust="spacing" textLength="40" x="1497" y="1170.9434">:Team</text><rect fill="#FFFFFF" height="1019.5938" style="stroke:#181818;stroke-width:1.0;" width="10" x="91" y="93.6211"/><rect fill="#FFFFFF" height="74.9121" style="stroke:#181818;stroke-width:1.0;" width="10" x="325" y="116.9121"/><rect fill="#FFFFFF" height="31.291" style="stroke:#181818;stroke-width:1.0;" width="10" x="325" y="223.1152"/><rect fill="#FFFFFF" height="389.4434" style="stroke:#181818;stroke-width:1.0;" width="10" x="325" y="723.7715"/><rect fill="#FFFFFF" height="344.2012" style="stroke:#181818;stroke-width:1.0;" width="10" x="591" y="316.9883"/><rect fill="#FFFFFF" height="326.8613" style="stroke:#181818;stroke-width:1.0;" width="10" x="591" y="755.0625"/><rect fill="#FFFFFF" height="31.291" style="stroke:#181818;stroke-width:1.0;" width="10" x="757" y="348.2793"/><rect fill="#FFFFFF" height="156.4551" style="stroke:#181818;stroke-width:1.0;" width="10" x="864" y="410.8613"/><rect fill="#FFFFFF" height="31.291" style="stroke:#181818;stroke-width:1.0;" width="10" x="977" y="598.6074"/><rect fill="#FFFFFF" height="264.2793" style="stroke:#181818;stroke-width:1.0;" width="10" x="1100.5" y="786.3535"/><rect fill="#FFFFFF" height="63.2275" style="stroke:#181818;stroke-width:1.0;" width="10" x="1394.5" y="829.29"/><polygon fill="#181818" points="313,112.9121,323,116.9121,313,120.9121,317,116.9121" style="stroke:#181818;stroke-width:1.0;"/><line style="stroke:#181818;stroke-width:1.0;" x1="101" x2="319" y1="116.9121" y2="116.9121"/><text fill="#000000" font-family="sans-serif" font-size="13" font-weight="bold" lengthAdjust="spacing" textLength="7" x="108" y="111.6494">1</text><text fill="#000000" font-family="sans-serif" font-size="13" lengthAdjust="spacing" textLength="194" x="119" y="111.6494">asks to generate a team proposal</text><polygon fill="#181818" points="476.5,144.2031,486.5,148.2031,476.5,152.2031,480.5,148.2031" style="stroke:#181818;stroke-width:1.0;"/><line style="stroke:#181818;stroke-width:1.0;" x1="335" x2="482.5" y1="148.2031" y2="148.2031"/><text fill="#000000" font-family="sans-serif" font-size="13" font-weight="bold" lengthAdjust="spacing" textLength="7" x="342" y="142.9404">2</text><text fill="#000000" font-family="sans-serif" font-size="13" lengthAdjust="spacing" textLength="36" x="353" y="142.9404">create</text><rect fill="#E3E3E3" height="32.6211" rx="2.5" ry="2.5" style="stroke:#181818;stroke-width:0.5;" width="215" x="488.5" y="124.9121"/><text fill="#000000" font-family="sans-serif" font-size="14" lengthAdjust="spacing" textLength="201" x="495.5" y="147.0195">:CreateTeamProposalController</text><polygon fill="#181818" points="112,187.8242,102,191.8242,112,195.8242,108,191.8242" style="stroke:#181818;stroke-width:1.0;"/><line style="stroke:#181818;stroke-width:1.0;stroke-dasharray:2.0,2.0;" x1="106" x2="329" y1="191.8242" y2="191.8242"/><text fill="#000000" font-family="sans-serif" font-size="13" font-weight="bold" lengthAdjust="spacing" textLength="7" x="118" y="186.5615">3</text><text fill="#000000" font-family="sans-serif" font-size="13" lengthAdjust="spacing" textLength="117" x="129" y="186.5615">asks maximum size</text><polygon fill="#181818" points="313,219.1152,323,223.1152,313,227.1152,317,223.1152" style="stroke:#181818;stroke-width:1.0;"/><line style="stroke:#181818;stroke-width:1.0;" x1="101" x2="319" y1="223.1152" y2="223.1152"/><text fill="#000000" font-family="sans-serif" font-size="13" font-weight="bold" lengthAdjust="spacing" textLength="7" x="108" y="217.8525">4</text><text fill="#000000" font-family="sans-serif" font-size="13" lengthAdjust="spacing" textLength="124" x="119" y="217.8525">sends maximum size</text><polygon fill="#181818" points="112,250.4063,102,254.4063,112,258.4063,108,254.4063" style="stroke:#181818;stroke-width:1.0;"/><line style="stroke:#181818;stroke-width:1.0;stroke-dasharray:2.0,2.0;" x1="106" x2="329" y1="254.4063" y2="254.4063"/><text fill="#000000" font-family="sans-serif" font-size="13" font-weight="bold" lengthAdjust="spacing" textLength="7" x="118" y="249.1436">5</text><text fill="#000000" font-family="sans-serif" font-size="13" lengthAdjust="spacing" textLength="113" x="129" y="249.1436">asks minimum size</text><polygon fill="#181818" points="318,281.6973,328,285.6973,318,289.6973,322,285.6973" style="stroke:#181818;stroke-width:1.0;"/><line style="stroke:#181818;stroke-width:1.0;" x1="101" x2="324" y1="285.6973" y2="285.6973"/><text fill="#000000" font-family="sans-serif" font-size="13" font-weight="bold" lengthAdjust="spacing" textLength="7" x="108" y="280.4346">6</text><text fill="#000000" font-family="sans-serif" font-size="13" lengthAdjust="spacing" textLength="120" x="119" y="280.4346">sends minimum size</text><polygon fill="#181818" points="579,312.9883,589,316.9883,579,320.9883,583,316.9883" style="stroke:#181818;stroke-width:1.0;"/><line style="stroke:#181818;stroke-width:1.0;" x1="330" x2="585" y1="316.9883" y2="316.9883"/><text fill="#000000" font-family="sans-serif" font-size="13" font-weight="bold" lengthAdjust="spacing" textLength="7" x="337" y="311.7256">7</text><text fill="#000000" font-family="sans-serif" font-size="13" lengthAdjust="spacing" textLength="58" x="348" y="311.7256">getSkills()</text><polygon fill="#181818" points="745,344.2793,755,348.2793,745,352.2793,749,348.2793" style="stroke:#181818;stroke-width:1.0;"/><line style="stroke:#181818;stroke-width:1.0;" x1="601" x2="751" y1="348.2793" y2="348.2793"/><text fill="#000000" font-family="sans-serif" font-size="13" font-weight="bold" lengthAdjust="spacing" textLength="7" x="608" y="343.0166">8</text><text fill="#000000" font-family="sans-serif" font-size="13" lengthAdjust="spacing" textLength="75" x="619" y="343.0166">getInstance()</text><polygon fill="#181818" points="612,375.5703,602,379.5703,612,383.5703,608,379.5703" style="stroke:#181818;stroke-width:1.0;"/><line style="stroke:#181818;stroke-width:1.0;stroke-dasharray:2.0,2.0;" x1="606" x2="761" y1="379.5703" y2="379.5703"/><text fill="#000000" font-family="sans-serif" font-size="13" font-weight="bold" lengthAdjust="spacing" textLength="7" x="618" y="374.3076">9</text><text fill="#000000" font-family="sans-serif" font-size="13" lengthAdjust="spacing" textLength="67" x="629" y="374.3076">repositories</text><polygon fill="#181818" points="852,406.8613,862,410.8613,852,414.8613,856,410.8613" style="stroke:#181818;stroke-width:1.0;"/><line style="stroke:#181818;stroke-width:1.0;" x1="601" x2="858" y1="410.8613" y2="410.8613"/><text fill="#000000" font-family="sans-serif" font-size="13" font-weight="bold" lengthAdjust="spacing" textLength="14" x="608" y="405.5986">10</text><text fill="#000000" font-family="sans-serif" font-size="13" lengthAdjust="spacing" textLength="113" x="626" y="405.5986">getSkillRepository()</text><polygon fill="#181818" points="852,438.1523,862,442.1523,852,446.1523,856,442.1523" style="stroke:#181818;stroke-width:1.0;"/><line style="stroke:#181818;stroke-width:1.0;" x1="601" x2="858" y1="442.1523" y2="442.1523"/><text fill="#000000" font-family="sans-serif" font-size="13" font-weight="bold" lengthAdjust="spacing" textLength="14" x="608" y="436.8896">11</text><text fill="#000000" font-family="sans-serif" font-size="13" lengthAdjust="spacing" textLength="157" x="626" y="436.8896">getCollaboratorRepository()</text><polygon fill="#181818" points="852,469.4434,862,473.4434,852,477.4434,856,473.4434" style="stroke:#181818;stroke-width:1.0;"/><line style="stroke:#181818;stroke-width:1.0;" x1="601" x2="858" y1="473.4434" y2="473.4434"/><text fill="#000000" font-family="sans-serif" font-size="13" font-weight="bold" lengthAdjust="spacing" textLength="14" x="608" y="468.1807">12</text><text fill="#000000" font-family="sans-serif" font-size="13" lengthAdjust="spacing" textLength="120" x="626" y="468.1807">getTeamRepository()</text><polygon fill="#181818" points="612,500.7344,602,504.7344,612,508.7344,608,504.7344" style="stroke:#181818;stroke-width:1.0;"/><line style="stroke:#181818;stroke-width:1.0;stroke-dasharray:2.0,2.0;" x1="606" x2="863" y1="504.7344" y2="504.7344"/><text fill="#000000" font-family="sans-serif" font-size="13" font-weight="bold" lengthAdjust="spacing" textLength="14" x="618" y="499.4717">13</text><text fill="#000000" font-family="sans-serif" font-size="13" lengthAdjust="spacing" textLength="85" x="636" y="499.4717">skillRepository</text><polygon fill="#181818" points="612,532.0254,602,536.0254,612,540.0254,608,536.0254" style="stroke:#181818;stroke-width:1.0;"/><line style="stroke:#181818;stroke-width:1.0;stroke-dasharray:2.0,2.0;" x1="606" x2="863" y1="536.0254" y2="536.0254"/><text fill="#000000" font-family="sans-serif" font-size="13" font-weight="bold" lengthAdjust="spacing" textLength="14" x="618" y="530.7627">14</text><text fill="#000000" font-family="sans-serif" font-size="13" lengthAdjust="spacing" textLength="129" x="636" y="530.7627">collaboratorRepository</text><polygon fill="#181818" points="612,563.3164,602,567.3164,612,571.3164,608,567.3164" style="stroke:#181818;stroke-width:1.0;"/><line style="stroke:#181818;stroke-width:1.0;stroke-dasharray:2.0,2.0;" x1="606" x2="868" y1="567.3164" y2="567.3164"/><text fill="#000000" font-family="sans-serif" font-size="13" font-weight="bold" lengthAdjust="spacing" textLength="14" x="618" y="562.0537">15</text><text fill="#000000" font-family="sans-serif" font-size="13" lengthAdjust="spacing" textLength="91" x="636" y="562.0537">teamRepository</text><polygon fill="#181818" points="965,594.6074,975,598.6074,965,602.6074,969,598.6074" style="stroke:#181818;stroke-width:1.0;"/><line style="stroke:#181818;stroke-width:1.0;stroke-dasharray:2.0,2.0;" x1="601" x2="971" y1="598.6074" y2="598.6074"/><text fill="#000000" font-family="sans-serif" font-size="13" font-weight="bold" lengthAdjust="spacing" textLength="14" x="608" y="593.3447">16</text><text fill="#000000" font-family="sans-serif" font-size="13" lengthAdjust="spacing" textLength="58" x="626" y="593.3447">getSkills()</text><polygon fill="#181818" points="612,625.8984,602,629.8984,612,633.8984,608,629.8984" style="stroke:#181818;stroke-width:1.0;"/><line style="stroke:#181818;stroke-width:1.0;stroke-dasharray:2.0,2.0;" x1="606" x2="981" y1="629.8984" y2="629.8984"/><text fill="#000000" font-family="sans-serif" font-size="13" font-weight="bold" lengthAdjust="spacing" textLength="14" x="618" y="624.6357">17</text><text fill="#000000" font-family="sans-serif" font-size="13" lengthAdjust="spacing" textLength="44" x="636" y="624.6357">skillList</text><polygon fill="#181818" points="341,657.1895,331,661.1895,341,665.1895,337,661.1895" style="stroke:#181818;stroke-width:1.0;"/><line style="stroke:#181818;stroke-width:1.0;stroke-dasharray:2.0,2.0;" x1="335" x2="595" y1="661.1895" y2="661.1895"/><text fill="#000000" font-family="sans-serif" font-size="13" font-weight="bold" lengthAdjust="spacing" textLength="14" x="347" y="655.9268">18</text><text fill="#000000" font-family="sans-serif" font-size="13" lengthAdjust="spacing" textLength="44" x="365" y="655.9268">skillList</text><polygon fill="#181818" points="112,688.4805,102,692.4805,112,696.4805,108,692.4805" style="stroke:#181818;stroke-width:1.0;"/><line style="stroke:#181818;stroke-width:1.0;stroke-dasharray:2.0,2.0;" x1="106" x2="329" y1="692.4805" y2="692.4805"/><text fill="#000000" font-family="sans-serif" font-size="13" font-weight="bold" lengthAdjust="spacing" textLength="14" x="118" y="687.2178">19</text><text fill="#000000" font-family="sans-serif" font-size="13" lengthAdjust="spacing" textLength="112" x="136" y="687.2178">asks required skills</text><polygon fill="#181818" points="313,719.7715,323,723.7715,313,727.7715,317,723.7715" style="stroke:#181818;stroke-width:1.0;"/><line style="stroke:#181818;stroke-width:1.0;" x1="101" x2="319" y1="723.7715" y2="723.7715"/><text fill="#000000" font-family="sans-serif" font-size="13" font-weight="bold" lengthAdjust="spacing" textLength="14" x="108" y="718.5088">20</text><text fill="#000000" font-family="sans-serif" font-size="13" lengthAdjust="spacing" textLength="119" x="126" y="718.5088">sends required skills</text><polygon fill="#181818" points="579,751.0625,589,755.0625,579,759.0625,583,755.0625" style="stroke:#181818;stroke-width:1.0;"/><line style="stroke:#181818;stroke-width:1.0;" x1="335" x2="585" y1="755.0625" y2="755.0625"/><text fill="#000000" font-family="sans-serif" font-size="13" font-weight="bold" lengthAdjust="spacing" textLength="14" x="342" y="749.7998">21</text><text fill="#000000" font-family="sans-serif" font-size="13" lengthAdjust="spacing" textLength="219" x="360" y="749.7998">createTeamProposal(max, min, skills)</text><polygon fill="#181818" points="1088.5,782.3535,1098.5,786.3535,1088.5,790.3535,1092.5,786.3535" style="stroke:#181818;stroke-width:1.0;"/><line style="stroke:#181818;stroke-width:1.0;" x1="601" x2="1094.5" y1="786.3535" y2="786.3535"/><text fill="#000000" font-family="sans-serif" font-size="13" font-weight="bold" lengthAdjust="spacing" textLength="14" x="608" y="781.0908">22</text><text fill="#000000" font-family="sans-serif" font-size="13" lengthAdjust="spacing" textLength="219" x="626" y="781.0908">createTeamProposal(max, min, skills)</text><polygon fill="#181818" points="1382.5,825.29,1392.5,829.29,1382.5,833.29,1386.5,829.29" style="stroke:#181818;stroke-width:1.0;"/><line style="stroke:#181818;stroke-width:1.0;" x1="1110.5" x2="1388.5" y1="829.29" y2="829.29"/><text fill="#000000" font-family="sans-serif" font-size="13" font-weight="bold" lengthAdjust="spacing" textLength="14" x="1117.5" y="824.0273">23</text><text fill="#000000" font-family="sans-serif" font-size="13" lengthAdjust="spacing" textLength="247" x="1135.5" y="824.0273">getDeactivatedCollaboratorsBySkills(skills)</text><path d="M1409,799.3535 L1409,843.3535 L1546,843.3535 L1546,809.3535 L1536,799.3535 L1409,799.3535 " fill="#FAFAFA" style="stroke:#181818;stroke-width:0.5;"/><path d="M1536,799.3535 L1536,809.3535 L1546,809.3535 L1536,799.3535 " fill="#FAFAFA" style="stroke:#181818;stroke-width:0.5;"/><text fill="#000000" font-family="sans-serif" font-size="13" lengthAdjust="spacing" textLength="102" x="1415" y="818.3818">filter collaborators</text><text fill="#000000" font-family="sans-serif" font-size="13" lengthAdjust="spacing" textLength="116" x="1415" y="835.6729">based on their skills</text><polygon fill="#181818" points="1121.5,888.5176,1111.5,892.5176,1121.5,896.5176,1117.5,892.5176" style="stroke:#181818;stroke-width:1.0;"/><line style="stroke:#181818;stroke-width:1.0;stroke-dasharray:2.0,2.0;" x1="1115.5" x2="1398.5" y1="892.5176" y2="892.5176"/><text fill="#000000" font-family="sans-serif" font-size="13" font-weight="bold" lengthAdjust="spacing" textLength="14" x="1127.5" y="887.2549">24</text><text fill="#000000" font-family="sans-serif" font-size="13" lengthAdjust="spacing" textLength="88" x="1145.5" y="887.2549">collaboratorList</text><path d="M811,853.9355 L811,914.9355 L1095,914.9355 L1095,863.9355 L1085,853.9355 L811,853.9355 " fill="#FAFAFA" style="stroke:#181818;stroke-width:0.5;"/><path d="M1085,853.9355 L1085,863.9355 L1095,863.9355 L1085,853.9355 " fill="#FAFAFA" style="stroke:#181818;stroke-width:0.5;"/><text fill="#000000" font-family="sans-serif" font-size="13" lengthAdjust="spacing" textLength="234" x="817" y="872.9639">select collaborators from collaboratorList</text><text fill="#000000" font-family="sans-serif" font-size="13" lengthAdjust="spacing" textLength="263" x="817" y="890.2549">based on the min and max values and save in</text><text fill="#000000" font-family="sans-serif" font-size="13" lengthAdjust="spacing" textLength="125" x="817" y="907.5459">selectedCollaborators</text><polygon fill="#181818" points="1478,940.0996,1488,944.0996,1478,948.0996,1482,944.0996" style="stroke:#181818;stroke-width:1.0;"/><line style="stroke:#181818;stroke-width:1.0;" x1="1110.5" x2="1484" y1="944.0996" y2="944.0996"/><text fill="#000000" font-family="sans-serif" font-size="13" font-weight="bold" lengthAdjust="spacing" textLength="14" x="1117.5" y="938.8369">25</text><text fill="#000000" font-family="sans-serif" font-size="13" lengthAdjust="spacing" textLength="207" x="1135.5" y="938.8369">create(selectedCollaborators, skills)</text><rect fill="#E3E3E3" height="51.2422" rx="2.5" ry="2.5" style="stroke:#181818;stroke-width:0.5;" width="54" x="1490" y="920.8086"/><text fill="#000000" font-family="sans-serif" font-size="14" lengthAdjust="spacing" textLength="31" x="1501.5" y="942.916">team</text><text fill="#000000" font-family="sans-serif" font-size="14" lengthAdjust="spacing" textLength="40" x="1497" y="961.5371">:Team</text><line style="stroke:#181818;stroke-width:1.0;" x1="1110.5" x2="1152.5" y1="1006.3418" y2="1006.3418"/><line style="stroke:#181818;stroke-width:1.0;" x1="1152.5" x2="1152.5" y1="1006.3418" y2="1019.3418"/><line style="stroke:#181818;stroke-width:1.0;" x1="1111.5" x2="1152.5" y1="1019.3418" y2="1019.3418"/><polygon fill="#181818" points="1121.5,1015.3418,1111.5,1019.3418,1121.5,1023.3418,1117.5,1019.3418" style="stroke:#181818;stroke-width:1.0;"/><text fill="#000000" font-family="sans-serif" font-size="13" font-weight="bold" lengthAdjust="spacing" textLength="14" x="1117.5" y="1001.0791">26</text><text fill="#000000" font-family="sans-serif" font-size="13" lengthAdjust="spacing" textLength="61" x="1135.5" y="1001.0791">addTeam()</text><polygon fill="#181818" points="612,1046.6328,602,1050.6328,612,1054.6328,608,1050.6328" style="stroke:#181818;stroke-width:1.0;"/><line style="stroke:#181818;stroke-width:1.0;stroke-dasharray:2.0,2.0;" x1="606" x2="1104.5" y1="1050.6328" y2="1050.6328"/><text fill="#000000" font-family="sans-serif" font-size="13" font-weight="bold" lengthAdjust="spacing" textLength="14" x="618" y="1045.3701">27</text><text fill="#000000" font-family="sans-serif" font-size="13" lengthAdjust="spacing" textLength="29" x="636" y="1045.3701">team</text><polygon fill="#181818" points="346,1077.9238,336,1081.9238,346,1085.9238,342,1081.9238" style="stroke:#181818;stroke-width:1.0;"/><line style="stroke:#181818;stroke-width:1.0;stroke-dasharray:2.0,2.0;" x1="340" x2="595" y1="1081.9238" y2="1081.9238"/><text fill="#000000" font-family="sans-serif" font-size="13" font-weight="bold" lengthAdjust="spacing" textLength="14" x="352" y="1076.6611">28</text><text fill="#000000" font-family="sans-serif" font-size="13" lengthAdjust="spacing" textLength="29" x="370" y="1076.6611">team</text><polygon fill="#181818" points="107,1109.2148,97,1113.2148,107,1117.2148,103,1113.2148" style="stroke:#181818;stroke-width:1.0;"/><line style="stroke:#181818;stroke-width:1.0;stroke-dasharray:2.0,2.0;" x1="101" x2="329" y1="1113.2148" y2="1113.2148"/><text fill="#000000" font-family="sans-serif" font-size="13" font-weight="bold" lengthAdjust="spacing" textLength="14" x="113" y="1107.9521">29</text><text fill="#000000" font-family="sans-serif" font-size="13" lengthAdjust="spacing" textLength="117" x="131" y="1107.9521">shows created team</text><!--SRC=[dLPDRzim3BthLmYzh1lQFv33W2mhrW8j6iJfhS2WsAmZn9OyIMxN_lfHicFhA-qs7zfOVE-9f4ZA-i15nnHhQIk5BFTAja2Dwe7eoTAnyi1gACnh0rH1QPYe6n-WzwoIBrpKz8ar6WXXlP6YRtUWy7TffA9drttB1Ds0bhqgGTCx9b1JdL6cwVNcZg2IuINlc33qRB5Im0niWRLh9JkfMVDmuw0FDnyYLr8O9Pjc55zjDxSHPmC8vEWM1-qmqy9hmMriw7r8KHxZKQG2wzlbDcHWTffcrbqyYY9SSRneBPGm65IWi0qMd42u5F9BJ0BRISNG5EYiieOXMraJ8Pzew1hJXnNclKPZw6BMCBYQDSNAYsNNDRnaXajHWDRupx5_BjVh6CkwReJWcPpWPMXbhnG8CrCVD2YVKrmLnV8-fabLCy7Vt0v1pFTPWrFAczvJHdTyqg2o-P5M1WBjuG-flLhUkKxZpvXWrq_K_gMNNx5Zw08n1qsDf3K8K1R2gDMWtTWp29_Os6BuQX-aee1je2zVKAHqhKQE5ZJPBKRnbltcRO-pWBzPI0MHdk-D1b4b31z_OWik_dKBdq72a11KWt4DgCy_E-EavsR6a0C7HKfcH0mADqBZG2nXrF1KSbE5ZazExdBsp9yt8ySBDoSSkMi7aXVXp4ZTTBFhw5ZApqy4b7c74qwbQSi1uOKP3KaoQSR0yiHOogF3mJdbtClW43CXW-l8ZB8KriP4YyVr91qPaXXlkJRfESPoVZgdGWxe7jdLw8bEKV2hvmggWQt_hbbIKgubvoD9BjvpxEWBstCNeqIkgmQNZoKJ5if_gKOte3D6ijRfR04DrVfzoatbm_Itrx42_7s7HqZSMV5wRr3YYJS6L52Z-96mOnfpYMrjzi3LdDJZCwSbNzlKUqvuVvdDe8TrTKCyARz-FjhMnRYJniZMrKY3NtvXaFG9FnUJ3SFGxSbH9YexxkapQthyzhElcZq3vNZT3S9HwWaXdj_fSTeBpxkJphCYSy6yfnJdZrMLNPk7La8A1qtQrjlS-0cxUYB63PtqizxB5ps6MHrvOJTxRyZv0m00]--></g></svg>