<?xml version="1.0" encoding="us-ascii" standalone="no"?><svg xmlns="http://www.w3.org/2000/svg" xmlns:xlink="http://www.w3.org/1999/xlink" contentStyleType="text/css" height="1008px" preserveAspectRatio="none" style="width:1132px;height:1008px;background:#FFFFFF;" version="1.1" viewBox="0 0 1132 1008" width="1132.8px" zoomAndPan="magnify"><defs/><g><rect fill="#FFFFFF" height="895.9559" style="stroke:#181818;stroke-width:0.6;" width="6" x="63.6" y="56.1727"/><rect fill="#FFFFFF" height="71.1199" style="stroke:#181818;stroke-width:0.6;" width="6" x="211.2" y="70.1473"/><rect fill="#FFFFFF" height="18.7746" style="stroke:#181818;stroke-width:0.6;" width="6" x="211.2" y="160.0418"/><rect fill="#FFFFFF" height="168.9715" style="stroke:#181818;stroke-width:0.6;" width="6" x="211.2" y="197.591"/><rect fill="#FFFFFF" height="491.4891" style="stroke:#181818;stroke-width:0.6;" width="6" x="211.2" y="385.3371"/><rect fill="#FFFFFF" height="20.1727" style="stroke:#181818;stroke-width:0.6;" width="6" x="370.8" y="94.9219"/><rect fill="#FFFFFF" height="131.4223" style="stroke:#181818;stroke-width:0.6;" width="6" x="370.8" y="216.3656"/><rect fill="#FFFFFF" height="443.5652" style="stroke:#181818;stroke-width:0.6;" width="6" x="370.8" y="404.1117"/><rect fill="#FFFFFF" height="207.2953" style="stroke:#181818;stroke-width:0.6;" width="6" x="556.2" y="422.8863"/><rect fill="#FFFFFF" height="18.7746" style="stroke:#181818;stroke-width:0.6;" width="6" x="651.3" y="235.1402"/><rect fill="#FFFFFF" height="18.7746" style="stroke:#181818;stroke-width:0.6;" width="6" x="651.3" y="441.6609"/><rect fill="#FFFFFF" height="18.7746" style="stroke:#181818;stroke-width:0.6;" width="6" x="651.3" y="686.5055"/><rect fill="#FFFFFF" height="18.7746" style="stroke:#181818;stroke-width:0.6;" width="6" x="715.5" y="272.6895"/><rect fill="#FFFFFF" height="18.7746" style="stroke:#181818;stroke-width:0.6;" width="6" x="715.5" y="479.2102"/><rect fill="#FFFFFF" height="18.7746" style="stroke:#181818;stroke-width:0.6;" width="6" x="715.5" y="724.0547"/><rect fill="#FFFFFF" height="18.7746" style="stroke:#181818;stroke-width:0.6;" width="6" x="783.3" y="310.2387"/><rect fill="#FFFFFF" height="191.1246" style="stroke:#181818;stroke-width:0.6;" width="6" x="857.4" y="761.6039"/><rect fill="#FFFFFF" height="25.7619" style="stroke:#181818;stroke-width:0.6;" width="6" x="970.8" y="523.7467"/><rect fill="#FFFFFF" height="303.7723" style="stroke:#181818;stroke-width:0.6;" width="6" x="1041.3" y="648.9563"/><rect fill="none" height="144.5754" style="stroke:#000000;stroke-width:0.8999999999999999;" width="895.8" x="6" y="803.3531"/><line style="stroke:#181818;stroke-width:0.3;stroke-dasharray:5.0,5.0;" x1="66.6" x2="66.6" y1="50.1727" y2="958.1285"/><line style="stroke:#181818;stroke-width:0.3;stroke-dasharray:5.0,5.0;" x1="213.9" x2="213.9" y1="50.1727" y2="958.1285"/><line style="stroke:#181818;stroke-width:0.3;stroke-dasharray:5.0,5.0;" x1="373.5" x2="373.5" y1="94.0336" y2="958.1285"/><line style="stroke:#181818;stroke-width:0.3;stroke-dasharray:5.0,5.0;" x1="559.2" x2="559.2" y1="120.2063" y2="958.1285"/><line style="stroke:#181818;stroke-width:0.3;stroke-dasharray:5.0,5.0;" x1="654" x2="654" y1="50.1727" y2="958.1285"/><line style="stroke:#181818;stroke-width:0.3;stroke-dasharray:5.0,5.0;" x1="718.2" x2="718.2" y1="50.1727" y2="958.1285"/><line style="stroke:#181818;stroke-width:0.3;stroke-dasharray:5.0,5.0;" x1="786" x2="786" y1="50.1727" y2="958.1285"/><line style="stroke:#181818;stroke-width:0.3;stroke-dasharray:5.0,5.0;" x1="860.4" x2="860.4" y1="50.1727" y2="958.1285"/><line style="stroke:#181818;stroke-width:0.3;stroke-dasharray:5.0,5.0;" x1="973.5" x2="973.5" y1="50.1727" y2="958.1285"/><line style="stroke:#181818;stroke-width:0.3;stroke-dasharray:5.0,5.0;" x1="1044.3" x2="1044.3" y1="50.1727" y2="958.1285"/><line style="stroke:#181818;stroke-width:0.3;stroke-dasharray:5.0,5.0;" x1="1097.7" x2="1097.7" y1="50.1727" y2="958.1285"/><text fill="#000000" font-family="sans-serif" font-size="8.4" lengthAdjust="spacing" textLength="105.6" x="12" y="48.0645">Human Resources Manager</text><ellipse cx="66.6" cy="8.1" fill="#E3E3E3" rx="4.8" ry="4.8" style="stroke:#181818;stroke-width:0.3;"/><path d="M66.6,12.9 L66.6,29.1 M58.8,17.7 L74.4,17.7 M66.6,29.1 L58.8,38.1 M66.6,29.1 L74.4,38.1 " fill="none" style="stroke:#181818;stroke-width:0.3;"/><text fill="#000000" font-family="sans-serif" font-size="8.4" lengthAdjust="spacing" textLength="105.6" x="12" y="966.593">Human Resources Manager</text><ellipse cx="66.6" cy="973.8012" fill="#E3E3E3" rx="4.8" ry="4.8" style="stroke:#181818;stroke-width:0.3;"/><path d="M66.6,978.6012 L66.6,994.8012 M58.8,983.4012 L74.4,983.4012 M66.6,994.8012 L58.8,1003.8012 M66.6,994.8012 L74.4,1003.8012 " fill="none" style="stroke:#181818;stroke-width:0.3;"/><rect fill="#E3E3E3" height="19.5727" rx="1.5" ry="1.5" style="stroke:#181818;stroke-width:0.3;" width="99" x="164.7" y="30"/><text fill="#000000" font-family="sans-serif" font-size="8.4" lengthAdjust="spacing" textLength="90.6" x="168.9" y="43.2645">:CreateTeamProposalUI</text><rect fill="#E3E3E3" height="19.5727" rx="1.5" ry="1.5" style="stroke:#181818;stroke-width:0.3;" width="99" x="164.7" y="957.5285"/><text fill="#000000" font-family="sans-serif" font-size="8.4" lengthAdjust="spacing" textLength="90.6" x="168.9" y="970.793">:CreateTeamProposalUI</text><rect fill="#E3E3E3" height="19.5727" rx="1.5" ry="1.5" style="stroke:#181818;stroke-width:0.3;" width="129" x="309.3" y="957.5285"/><text fill="#000000" font-family="sans-serif" font-size="8.4" lengthAdjust="spacing" textLength="120.6" x="313.5" y="970.793">:CreateTeamProposalController</text><rect fill="#E3E3E3" height="19.5727" rx="1.5" ry="1.5" style="stroke:#181818;stroke-width:0.3;" width="120" x="499.2" y="957.5285"/><text fill="#000000" font-family="sans-serif" font-size="8.4" lengthAdjust="spacing" textLength="111.6" x="503.4" y="970.793">:CreateTeamProposalService</text><rect fill="#E3E3E3" height="19.5727" rx="1.5" ry="1.5" style="stroke:#181818;stroke-width:0.3;" width="58.2" x="625.2" y="30"/><text fill="#000000" font-family="sans-serif" font-size="8.4" lengthAdjust="spacing" textLength="49.8" x="629.4" y="43.2645">:Repositories</text><rect fill="#E3E3E3" height="19.5727" rx="1.5" ry="1.5" style="stroke:#181818;stroke-width:0.3;" width="58.2" x="625.2" y="957.5285"/><text fill="#000000" font-family="sans-serif" font-size="8.4" lengthAdjust="spacing" textLength="49.8" x="629.4" y="970.793">:Repositories</text><rect fill="#E3E3E3" height="30.7453" rx="1.5" ry="1.5" style="stroke:#181818;stroke-width:0.3;" width="58.2" x="689.4" y="18.8273"/><text fill="#000000" font-family="sans-serif" font-size="8.4" lengthAdjust="spacing" textLength="44.4" x="696.3" y="32.0918">repositories</text><text fill="#000000" font-family="sans-serif" font-size="8.4" lengthAdjust="spacing" textLength="49.8" x="693.6" y="43.2645">:Repositories</text><rect fill="#E3E3E3" height="30.7453" rx="1.5" ry="1.5" style="stroke:#181818;stroke-width:0.3;" width="58.2" x="689.4" y="957.5285"/><text fill="#000000" font-family="sans-serif" font-size="8.4" lengthAdjust="spacing" textLength="44.4" x="696.3" y="970.793">repositories</text><text fill="#000000" font-family="sans-serif" font-size="8.4" lengthAdjust="spacing" textLength="49.8" x="693.6" y="981.9656">:Repositories</text><rect fill="#E3E3E3" height="30.7453" rx="1.5" ry="1.5" style="stroke:#181818;stroke-width:0.3;" width="65.4" x="753.6" y="18.8273"/><text fill="#000000" font-family="sans-serif" font-size="8.4" lengthAdjust="spacing" textLength="57" x="757.8" y="32.0918">skillRepository:</text><text fill="#000000" font-family="sans-serif" font-size="8.4" lengthAdjust="spacing" textLength="55.8" x="758.4" y="43.2645">SkillRepository</text><rect fill="#E3E3E3" height="30.7453" rx="1.5" ry="1.5" style="stroke:#181818;stroke-width:0.3;" width="65.4" x="753.6" y="957.5285"/><text fill="#000000" font-family="sans-serif" font-size="8.4" lengthAdjust="spacing" textLength="57" x="757.8" y="970.793">skillRepository:</text><text fill="#000000" font-family="sans-serif" font-size="8.4" lengthAdjust="spacing" textLength="55.8" x="758.4" y="981.9656">SkillRepository</text><rect fill="#E3E3E3" height="30.7453" rx="1.5" ry="1.5" style="stroke:#181818;stroke-width:0.3;" width="70.8" x="825" y="18.8273"/><text fill="#000000" font-family="sans-serif" font-size="8.4" lengthAdjust="spacing" textLength="61.8" x="829.5" y="32.0918">teamRepository:</text><text fill="#000000" font-family="sans-serif" font-size="8.4" lengthAdjust="spacing" textLength="62.4" x="829.2" y="43.2645">TeamRepository</text><rect fill="#E3E3E3" height="30.7453" rx="1.5" ry="1.5" style="stroke:#181818;stroke-width:0.3;" width="70.8" x="825" y="957.5285"/><text fill="#000000" font-family="sans-serif" font-size="8.4" lengthAdjust="spacing" textLength="61.8" x="829.5" y="970.793">teamRepository:</text><text fill="#000000" font-family="sans-serif" font-size="8.4" lengthAdjust="spacing" textLength="62.4" x="829.2" y="981.9656">TeamRepository</text><rect fill="#E3E3E3" height="30.7453" rx="1.5" ry="1.5" style="stroke:#181818;stroke-width:0.3;" width="96.6" x="925.5" y="18.8273"/><text fill="#000000" font-family="sans-serif" font-size="8.4" lengthAdjust="spacing" textLength="88.2" x="929.7" y="32.0918">collaboratorRepository:</text><text fill="#000000" font-family="sans-serif" font-size="8.4" lengthAdjust="spacing" textLength="87.6" x="930" y="43.2645">CollaboratorRepository</text><rect fill="#E3E3E3" height="30.7453" rx="1.5" ry="1.5" style="stroke:#181818;stroke-width:0.3;" width="96.6" x="925.5" y="957.5285"/><text fill="#000000" font-family="sans-serif" font-size="8.4" lengthAdjust="spacing" textLength="88.2" x="929.7" y="970.793">collaboratorRepository:</text><text fill="#000000" font-family="sans-serif" font-size="8.4" lengthAdjust="spacing" textLength="87.6" x="930" y="981.9656">CollaboratorRepository</text><rect fill="#E3E3E3" height="30.7453" rx="1.5" ry="1.5" style="stroke:#181818;stroke-width:0.3;" width="32.4" x="1028.1" y="18.8273"/><text fill="#000000" font-family="sans-serif" font-size="8.4" lengthAdjust="spacing" textLength="18.6" x="1035" y="32.0918">team</text><text fill="#000000" font-family="sans-serif" font-size="8.4" lengthAdjust="spacing" textLength="24" x="1032.3" y="43.2645">:Team</text><rect fill="#E3E3E3" height="30.7453" rx="1.5" ry="1.5" style="stroke:#181818;stroke-width:0.3;" width="32.4" x="1028.1" y="957.5285"/><text fill="#000000" font-family="sans-serif" font-size="8.4" lengthAdjust="spacing" textLength="18.6" x="1035" y="970.793">team</text><text fill="#000000" font-family="sans-serif" font-size="8.4" lengthAdjust="spacing" textLength="24" x="1032.3" y="981.9656">:Team</text><rect fill="#E3E3E3" height="19.5727" rx="1.5" ry="1.5" style="stroke:#181818;stroke-width:0.3;" width="63" x="1066.5" y="30"/><text fill="#000000" font-family="sans-serif" font-size="8.4" lengthAdjust="spacing" textLength="54.6" x="1070.7" y="43.2645">skillRepository</text><rect fill="#E3E3E3" height="19.5727" rx="1.5" ry="1.5" style="stroke:#181818;stroke-width:0.3;" width="63" x="1066.5" y="957.5285"/><text fill="#000000" font-family="sans-serif" font-size="8.4" lengthAdjust="spacing" textLength="54.6" x="1070.7" y="970.793">skillRepository</text><rect fill="#FFFFFF" height="895.9559" style="stroke:#181818;stroke-width:0.6;" width="6" x="63.6" y="56.1727"/><rect fill="#FFFFFF" height="71.1199" style="stroke:#181818;stroke-width:0.6;" width="6" x="211.2" y="70.1473"/><rect fill="#FFFFFF" height="18.7746" style="stroke:#181818;stroke-width:0.6;" width="6" x="211.2" y="160.0418"/><rect fill="#FFFFFF" height="168.9715" style="stroke:#181818;stroke-width:0.6;" width="6" x="211.2" y="197.591"/><rect fill="#FFFFFF" height="491.4891" style="stroke:#181818;stroke-width:0.6;" width="6" x="211.2" y="385.3371"/><rect fill="#FFFFFF" height="20.1727" style="stroke:#181818;stroke-width:0.6;" width="6" x="370.8" y="94.9219"/><rect fill="#FFFFFF" height="131.4223" style="stroke:#181818;stroke-width:0.6;" width="6" x="370.8" y="216.3656"/><rect fill="#FFFFFF" height="443.5652" style="stroke:#181818;stroke-width:0.6;" width="6" x="370.8" y="404.1117"/><rect fill="#FFFFFF" height="207.2953" style="stroke:#181818;stroke-width:0.6;" width="6" x="556.2" y="422.8863"/><rect fill="#FFFFFF" height="18.7746" style="stroke:#181818;stroke-width:0.6;" width="6" x="651.3" y="235.1402"/><rect fill="#FFFFFF" height="18.7746" style="stroke:#181818;stroke-width:0.6;" width="6" x="651.3" y="441.6609"/><rect fill="#FFFFFF" height="18.7746" style="stroke:#181818;stroke-width:0.6;" width="6" x="651.3" y="686.5055"/><rect fill="#FFFFFF" height="18.7746" style="stroke:#181818;stroke-width:0.6;" width="6" x="715.5" y="272.6895"/><rect fill="#FFFFFF" height="18.7746" style="stroke:#181818;stroke-width:0.6;" width="6" x="715.5" y="479.2102"/><rect fill="#FFFFFF" height="18.7746" style="stroke:#181818;stroke-width:0.6;" width="6" x="715.5" y="724.0547"/><rect fill="#FFFFFF" height="18.7746" style="stroke:#181818;stroke-width:0.6;" width="6" x="783.3" y="310.2387"/><rect fill="#FFFFFF" height="191.1246" style="stroke:#181818;stroke-width:0.6;" width="6" x="857.4" y="761.6039"/><rect fill="#FFFFFF" height="25.7619" style="stroke:#181818;stroke-width:0.6;" width="6" x="970.8" y="523.7467"/><rect fill="#FFFFFF" height="303.7723" style="stroke:#181818;stroke-width:0.6;" width="6" x="1041.3" y="648.9563"/><polygon fill="#181818" points="204,67.7473,210,70.1473,204,72.5473,206.4,70.1473" style="stroke:#181818;stroke-width:0.6;"/><line style="stroke:#181818;stroke-width:0.6;" x1="69.6" x2="207.6" y1="70.1473" y2="70.1473"/><text fill="#000000" font-family="sans-serif" font-size="7.8" font-weight="bold" lengthAdjust="spacing" textLength="4.2" x="73.8" y="66.9896">1</text><text fill="#000000" font-family="sans-serif" font-size="7.8" lengthAdjust="spacing" textLength="116.4" x="80.4" y="66.9896">asks to generate a team proposal</text><polygon fill="#181818" points="302.1,86.5219,308.1,88.9219,302.1,91.3219,304.5,88.9219" style="stroke:#181818;stroke-width:0.6;"/><line style="stroke:#181818;stroke-width:0.6;" x1="217.2" x2="305.7" y1="88.9219" y2="88.9219"/><text fill="#000000" font-family="sans-serif" font-size="7.8" font-weight="bold" lengthAdjust="spacing" textLength="4.2" x="221.4" y="85.7643">2</text><text fill="#000000" font-family="sans-serif" font-size="7.8" lengthAdjust="spacing" textLength="21.6" x="228" y="85.7643">create</text><rect fill="#E3E3E3" height="19.5727" rx="1.5" ry="1.5" style="stroke:#181818;stroke-width:0.3;" width="129" x="309.3" y="74.9473"/><text fill="#000000" font-family="sans-serif" font-size="8.4" lengthAdjust="spacing" textLength="120.6" x="313.5" y="88.2117">:CreateTeamProposalController</text><polygon fill="#181818" points="492,112.6945,498,115.0945,492,117.4945,494.4,115.0945" style="stroke:#181818;stroke-width:0.6;"/><line style="stroke:#181818;stroke-width:0.6;" x1="373.8" x2="495.6" y1="115.0945" y2="115.0945"/><text fill="#000000" font-family="sans-serif" font-size="7.8" font-weight="bold" lengthAdjust="spacing" textLength="4.2" x="378" y="111.9369">3</text><text fill="#000000" font-family="sans-serif" font-size="7.8" lengthAdjust="spacing" textLength="21.6" x="384.6" y="111.9369">create</text><rect fill="#E3E3E3" height="19.5727" rx="1.5" ry="1.5" style="stroke:#181818;stroke-width:0.3;" width="120" x="499.2" y="101.1199"/><text fill="#000000" font-family="sans-serif" font-size="8.4" lengthAdjust="spacing" textLength="111.6" x="503.4" y="114.3844">:CreateTeamProposalService</text><polygon fill="#181818" points="76.2,138.8672,70.2,141.2672,76.2,143.6672,73.8,141.2672" style="stroke:#181818;stroke-width:0.6;"/><line style="stroke:#181818;stroke-width:0.6;stroke-dasharray:2.0,2.0;" x1="72.6" x2="213.6" y1="141.2672" y2="141.2672"/><text fill="#000000" font-family="sans-serif" font-size="7.8" font-weight="bold" lengthAdjust="spacing" textLength="4.2" x="79.8" y="138.1096">4</text><text fill="#000000" font-family="sans-serif" font-size="7.8" lengthAdjust="spacing" textLength="70.2" x="86.4" y="138.1096">asks maximum size</text><polygon fill="#181818" points="204,157.6418,210,160.0418,204,162.4418,206.4,160.0418" style="stroke:#181818;stroke-width:0.6;"/><line style="stroke:#181818;stroke-width:0.6;" x1="69.6" x2="207.6" y1="160.0418" y2="160.0418"/><text fill="#000000" font-family="sans-serif" font-size="7.8" font-weight="bold" lengthAdjust="spacing" textLength="4.2" x="73.8" y="156.8842">5</text><text fill="#000000" font-family="sans-serif" font-size="7.8" lengthAdjust="spacing" textLength="74.4" x="80.4" y="156.8842">sends maximum size</text><polygon fill="#181818" points="76.2,176.4164,70.2,178.8164,76.2,181.2164,73.8,178.8164" style="stroke:#181818;stroke-width:0.6;"/><line style="stroke:#181818;stroke-width:0.6;stroke-dasharray:2.0,2.0;" x1="72.6" x2="213.6" y1="178.8164" y2="178.8164"/><text fill="#000000" font-family="sans-serif" font-size="7.8" font-weight="bold" lengthAdjust="spacing" textLength="4.2" x="79.8" y="175.6588">6</text><text fill="#000000" font-family="sans-serif" font-size="7.8" lengthAdjust="spacing" textLength="67.8" x="86.4" y="175.6588">asks minimum size</text><polygon fill="#181818" points="204,195.191,210,197.591,204,199.991,206.4,197.591" style="stroke:#181818;stroke-width:0.6;"/><line style="stroke:#181818;stroke-width:0.6;" x1="69.6" x2="207.6" y1="197.591" y2="197.591"/><text fill="#000000" font-family="sans-serif" font-size="7.8" font-weight="bold" lengthAdjust="spacing" textLength="4.2" x="73.8" y="194.4334">7</text><text fill="#000000" font-family="sans-serif" font-size="7.8" lengthAdjust="spacing" textLength="72" x="80.4" y="194.4334">sends minimum size</text><polygon fill="#181818" points="363.6,213.9656,369.6,216.3656,363.6,218.7656,366,216.3656" style="stroke:#181818;stroke-width:0.6;"/><line style="stroke:#181818;stroke-width:0.6;" x1="217.2" x2="367.2" y1="216.3656" y2="216.3656"/><text fill="#000000" font-family="sans-serif" font-size="7.8" font-weight="bold" lengthAdjust="spacing" textLength="4.2" x="221.4" y="213.208">8</text><text fill="#000000" font-family="sans-serif" font-size="7.8" lengthAdjust="spacing" textLength="47.4" x="228" y="213.208">getSkillsList()</text><polygon fill="#181818" points="644.1,232.7402,650.1,235.1402,644.1,237.5402,646.5,235.1402" style="stroke:#181818;stroke-width:0.6;"/><line style="stroke:#181818;stroke-width:0.6;" x1="376.8" x2="647.7" y1="235.1402" y2="235.1402"/><text fill="#000000" font-family="sans-serif" font-size="7.8" font-weight="bold" lengthAdjust="spacing" textLength="4.2" x="381" y="231.9826">9</text><text fill="#000000" font-family="sans-serif" font-size="7.8" lengthAdjust="spacing" textLength="45" x="387.6" y="231.9826">getInstance()</text><polygon fill="#181818" points="383.4,251.5148,377.4,253.9148,383.4,256.3148,381,253.9148" style="stroke:#181818;stroke-width:0.6;"/><line style="stroke:#181818;stroke-width:0.6;stroke-dasharray:2.0,2.0;" x1="379.8" x2="653.7" y1="253.9148" y2="253.9148"/><text fill="#000000" font-family="sans-serif" font-size="7.8" font-weight="bold" lengthAdjust="spacing" textLength="8.4" x="387" y="250.7572">10</text><text fill="#000000" font-family="sans-serif" font-size="7.8" lengthAdjust="spacing" textLength="40.2" x="397.8" y="250.7572">repositories</text><polygon fill="#181818" points="708.3,270.2895,714.3,272.6895,708.3,275.0895,710.7,272.6895" style="stroke:#181818;stroke-width:0.6;"/><line style="stroke:#181818;stroke-width:0.6;" x1="376.8" x2="711.9" y1="272.6895" y2="272.6895"/><text fill="#000000" font-family="sans-serif" font-size="7.8" font-weight="bold" lengthAdjust="spacing" textLength="8.4" x="381" y="269.5318">11</text><text fill="#000000" font-family="sans-serif" font-size="7.8" lengthAdjust="spacing" textLength="67.8" x="391.8" y="269.5318">getSkillRepository()</text><polygon fill="#181818" points="383.4,289.0641,377.4,291.4641,383.4,293.8641,381,291.4641" style="stroke:#181818;stroke-width:0.6;"/><line style="stroke:#181818;stroke-width:0.6;stroke-dasharray:2.0,2.0;" x1="379.8" x2="717.9" y1="291.4641" y2="291.4641"/><text fill="#000000" font-family="sans-serif" font-size="7.8" font-weight="bold" lengthAdjust="spacing" textLength="8.4" x="387" y="288.3064">12</text><text fill="#000000" font-family="sans-serif" font-size="7.8" lengthAdjust="spacing" textLength="51" x="397.8" y="288.3064">skillRepository</text><polygon fill="#181818" points="776.1,307.8387,782.1,310.2387,776.1,312.6387,778.5,310.2387" style="stroke:#181818;stroke-width:0.6;"/><line style="stroke:#181818;stroke-width:0.6;" x1="376.8" x2="779.7" y1="310.2387" y2="310.2387"/><text fill="#000000" font-family="sans-serif" font-size="7.8" font-weight="bold" lengthAdjust="spacing" textLength="8.4" x="381" y="307.0811">13</text><text fill="#000000" font-family="sans-serif" font-size="7.8" lengthAdjust="spacing" textLength="47.4" x="391.8" y="307.0811">getSkillsList()</text><polygon fill="#181818" points="383.4,326.6133,377.4,329.0133,383.4,331.4133,381,329.0133" style="stroke:#181818;stroke-width:0.6;"/><line style="stroke:#181818;stroke-width:0.6;stroke-dasharray:2.0,2.0;" x1="379.8" x2="785.7" y1="329.0133" y2="329.0133"/><text fill="#000000" font-family="sans-serif" font-size="7.8" font-weight="bold" lengthAdjust="spacing" textLength="8.4" x="387" y="325.8557">14</text><text fill="#000000" font-family="sans-serif" font-size="7.8" lengthAdjust="spacing" textLength="26.4" x="397.8" y="325.8557">skillList</text><polygon fill="#181818" points="223.8,345.3879,217.8,347.7879,223.8,350.1879,221.4,347.7879" style="stroke:#181818;stroke-width:0.6;"/><line style="stroke:#181818;stroke-width:0.6;stroke-dasharray:2.0,2.0;" x1="220.2" x2="373.2" y1="347.7879" y2="347.7879"/><text fill="#000000" font-family="sans-serif" font-size="7.8" font-weight="bold" lengthAdjust="spacing" textLength="8.4" x="227.4" y="344.6303">15</text><text fill="#000000" font-family="sans-serif" font-size="7.8" lengthAdjust="spacing" textLength="26.4" x="238.2" y="344.6303">skillList</text><polygon fill="#181818" points="76.2,364.1625,70.2,366.5625,76.2,368.9625,73.8,366.5625" style="stroke:#181818;stroke-width:0.6;"/><line style="stroke:#181818;stroke-width:0.6;stroke-dasharray:2.0,2.0;" x1="72.6" x2="213.6" y1="366.5625" y2="366.5625"/><text fill="#000000" font-family="sans-serif" font-size="7.8" font-weight="bold" lengthAdjust="spacing" textLength="8.4" x="79.8" y="363.4049">16</text><text fill="#000000" font-family="sans-serif" font-size="7.8" lengthAdjust="spacing" textLength="67.2" x="90.6" y="363.4049">asks required skills</text><polygon fill="#181818" points="204,382.9371,210,385.3371,204,387.7371,206.4,385.3371" style="stroke:#181818;stroke-width:0.6;"/><line style="stroke:#181818;stroke-width:0.6;" x1="69.6" x2="207.6" y1="385.3371" y2="385.3371"/><text fill="#000000" font-family="sans-serif" font-size="7.8" font-weight="bold" lengthAdjust="spacing" textLength="8.4" x="73.8" y="382.1795">17</text><text fill="#000000" font-family="sans-serif" font-size="7.8" lengthAdjust="spacing" textLength="71.4" x="84.6" y="382.1795">sends required skills</text><polygon fill="#181818" points="363.6,401.7117,369.6,404.1117,363.6,406.5117,366,404.1117" style="stroke:#181818;stroke-width:0.6;"/><line style="stroke:#181818;stroke-width:0.6;" x1="217.2" x2="367.2" y1="404.1117" y2="404.1117"/><text fill="#000000" font-family="sans-serif" font-size="7.8" font-weight="bold" lengthAdjust="spacing" textLength="8.4" x="221.4" y="400.9541">18</text><text fill="#000000" font-family="sans-serif" font-size="7.8" lengthAdjust="spacing" textLength="131.4" x="232.2" y="400.9541">createTeamProposal(max, min, skills)</text><polygon fill="#181818" points="549,420.4863,555,422.8863,549,425.2863,551.4,422.8863" style="stroke:#181818;stroke-width:0.6;"/><line style="stroke:#181818;stroke-width:0.6;" x1="376.8" x2="552.6" y1="422.8863" y2="422.8863"/><text fill="#000000" font-family="sans-serif" font-size="7.8" font-weight="bold" lengthAdjust="spacing" textLength="8.4" x="381" y="419.7287">19</text><text fill="#000000" font-family="sans-serif" font-size="7.8" lengthAdjust="spacing" textLength="118.8" x="391.8" y="419.7287">arrangeCollaboratorsBySkill(skills)</text><polygon fill="#181818" points="644.1,439.2609,650.1,441.6609,644.1,444.0609,646.5,441.6609" style="stroke:#181818;stroke-width:0.6;"/><line style="stroke:#181818;stroke-width:0.6;" x1="562.2" x2="647.7" y1="441.6609" y2="441.6609"/><text fill="#000000" font-family="sans-serif" font-size="7.8" font-weight="bold" lengthAdjust="spacing" textLength="8.4" x="566.4" y="438.5033">20</text><text fill="#000000" font-family="sans-serif" font-size="7.8" lengthAdjust="spacing" textLength="45" x="577.2" y="438.5033">getInstance()</text><polygon fill="#181818" points="568.8,458.0355,562.8,460.4355,568.8,462.8355,566.4,460.4355" style="stroke:#181818;stroke-width:0.6;"/><line style="stroke:#181818;stroke-width:0.6;stroke-dasharray:2.0,2.0;" x1="565.2" x2="653.7" y1="460.4355" y2="460.4355"/><text fill="#000000" font-family="sans-serif" font-size="7.8" font-weight="bold" lengthAdjust="spacing" textLength="8.4" x="572.4" y="457.2779">21</text><text fill="#000000" font-family="sans-serif" font-size="7.8" lengthAdjust="spacing" textLength="40.2" x="583.2" y="457.2779">repositories</text><polygon fill="#181818" points="708.3,476.8102,714.3,479.2102,708.3,481.6102,710.7,479.2102" style="stroke:#181818;stroke-width:0.6;"/><line style="stroke:#181818;stroke-width:0.6;" x1="562.2" x2="711.9" y1="479.2102" y2="479.2102"/><text fill="#000000" font-family="sans-serif" font-size="7.8" font-weight="bold" lengthAdjust="spacing" textLength="8.4" x="566.4" y="476.0525">22</text><text fill="#000000" font-family="sans-serif" font-size="7.8" lengthAdjust="spacing" textLength="94.2" x="577.2" y="476.0525">getCollaboratorRepository()</text><polygon fill="#181818" points="568.8,495.5848,562.8,497.9848,568.8,500.3848,566.4,497.9848" style="stroke:#181818;stroke-width:0.6;"/><line style="stroke:#181818;stroke-width:0.6;stroke-dasharray:2.0,2.0;" x1="565.2" x2="717.9" y1="497.9848" y2="497.9848"/><text fill="#000000" font-family="sans-serif" font-size="7.8" font-weight="bold" lengthAdjust="spacing" textLength="8.4" x="572.4" y="494.8271">23</text><text fill="#000000" font-family="sans-serif" font-size="7.8" lengthAdjust="spacing" textLength="77.4" x="583.2" y="494.8271">collaboratorRepository</text><polygon fill="#181818" points="963.6,521.3467,969.6,523.7467,963.6,526.1467,966,523.7467" style="stroke:#181818;stroke-width:0.6;"/><line style="stroke:#181818;stroke-width:0.6;" x1="562.2" x2="967.2" y1="523.7467" y2="523.7467"/><text fill="#000000" font-family="sans-serif" font-size="7.8" font-weight="bold" lengthAdjust="spacing" textLength="8.4" x="566.4" y="520.5891">24</text><text fill="#000000" font-family="sans-serif" font-size="7.8" lengthAdjust="spacing" textLength="148.2" x="577.2" y="520.5891">getDeactivatedCollaboratorsBySkills(skills)</text><path d="M979.8,505.7848 L979.8,532.1848 L1062,532.1848 L1062,511.7848 L1056,505.7848 L979.8,505.7848 " fill="#FAFAFA" style="stroke:#181818;stroke-width:0.3;"/><path d="M1056,505.7848 L1056,511.7848 L1062,511.7848 L1056,505.7848 " fill="#FAFAFA" style="stroke:#181818;stroke-width:0.3;"/><text fill="#000000" font-family="sans-serif" font-size="7.8" lengthAdjust="spacing" textLength="61.2" x="983.4" y="517.2018">filter collaborators</text><text fill="#000000" font-family="sans-serif" font-size="7.8" lengthAdjust="spacing" textLength="69.6" x="983.4" y="527.5764">based on their skills</text><polygon fill="#181818" points="568.8,547.1086,562.8,549.5086,568.8,551.9086,566.4,549.5086" style="stroke:#181818;stroke-width:0.6;"/><line style="stroke:#181818;stroke-width:0.6;stroke-dasharray:2.0,2.0;" x1="565.2" x2="973.2" y1="549.5086" y2="549.5086"/><text fill="#000000" font-family="sans-serif" font-size="7.8" font-weight="bold" lengthAdjust="spacing" textLength="8.4" x="572.4" y="546.351">25</text><text fill="#000000" font-family="sans-serif" font-size="7.8" lengthAdjust="spacing" textLength="75" x="583.2" y="546.351">selectedCollaborators</text><polygon fill="#181818" points="383.4,565.8832,377.4,568.2832,383.4,570.6832,381,568.2832" style="stroke:#181818;stroke-width:0.6;"/><line style="stroke:#181818;stroke-width:0.6;stroke-dasharray:2.0,2.0;" x1="379.8" x2="555.6" y1="568.2832" y2="568.2832"/><text fill="#000000" font-family="sans-serif" font-size="7.8" font-weight="bold" lengthAdjust="spacing" textLength="8.4" x="387" y="565.1256">26</text><text fill="#000000" font-family="sans-serif" font-size="7.8" lengthAdjust="spacing" textLength="75" x="397.8" y="565.1256">selectedCollaborators</text><polygon fill="#181818" points="549,596.8324,555,599.2324,549,601.6324,551.4,599.2324" style="stroke:#181818;stroke-width:0.6;"/><line style="stroke:#181818;stroke-width:0.6;" x1="376.8" x2="552.6" y1="599.2324" y2="599.2324"/><text fill="#000000" font-family="sans-serif" font-size="7.8" font-weight="bold" lengthAdjust="spacing" textLength="8.4" x="381" y="596.0748">27</text><text fill="#000000" font-family="sans-serif" font-size="7.8" lengthAdjust="spacing" textLength="154.2" x="391.8" y="596.0748">arrangeTeam(max, min, skills, collaborators)</text><path d="M192.6,576.0832 L192.6,612.6832 L367.8,612.6832 L367.8,582.0832 L361.8,576.0832 L192.6,576.0832 " fill="#FAFAFA" style="stroke:#181818;stroke-width:0.3;"/><path d="M361.8,576.0832 L361.8,582.0832 L367.8,582.0832 L361.8,576.0832 " fill="#FAFAFA" style="stroke:#181818;stroke-width:0.3;"/><text fill="#000000" font-family="sans-serif" font-size="7.8" lengthAdjust="spacing" textLength="162.6" x="196.2" y="587.5002">select collaborators from selectedCollaborators</text><text fill="#000000" font-family="sans-serif" font-size="7.8" lengthAdjust="spacing" textLength="157.8" x="196.2" y="597.8748">based on the min and max values and save in</text><text fill="#000000" font-family="sans-serif" font-size="7.8" lengthAdjust="spacing" textLength="49.8" x="196.2" y="608.2494">teamMembers</text><polygon fill="#181818" points="383.4,627.7816,377.4,630.1816,383.4,632.5816,381,630.1816" style="stroke:#181818;stroke-width:0.6;"/><line style="stroke:#181818;stroke-width:0.6;stroke-dasharray:2.0,2.0;" x1="379.8" x2="558.6" y1="630.1816" y2="630.1816"/><text fill="#000000" font-family="sans-serif" font-size="7.8" font-weight="bold" lengthAdjust="spacing" textLength="8.4" x="387" y="627.024">28</text><text fill="#000000" font-family="sans-serif" font-size="7.8" lengthAdjust="spacing" textLength="49.8" x="397.8" y="627.024">teamMembers</text><polygon fill="#181818" points="1034.1,646.5563,1040.1,648.9563,1034.1,651.3562,1036.5,648.9563" style="stroke:#181818;stroke-width:0.6;"/><line style="stroke:#181818;stroke-width:0.6;" x1="376.8" x2="1037.7" y1="648.9563" y2="648.9563"/><text fill="#000000" font-family="sans-serif" font-size="7.8" font-weight="bold" lengthAdjust="spacing" textLength="8.4" x="381" y="645.7986">29</text><text fill="#000000" font-family="sans-serif" font-size="7.8" lengthAdjust="spacing" textLength="96.6" x="391.8" y="645.7986">create(teamMembers,skills)</text><polygon fill="#181818" points="383.4,665.3309,377.4,667.7309,383.4,670.1309,381,667.7309" style="stroke:#181818;stroke-width:0.6;"/><line style="stroke:#181818;stroke-width:0.6;stroke-dasharray:2.0,2.0;" x1="379.8" x2="1040.7" y1="667.7309" y2="667.7309"/><text fill="#000000" font-family="sans-serif" font-size="7.8" font-weight="bold" lengthAdjust="spacing" textLength="8.4" x="387" y="664.5732">30</text><text fill="#000000" font-family="sans-serif" font-size="7.8" lengthAdjust="spacing" textLength="17.4" x="397.8" y="664.5732">team</text><polygon fill="#181818" points="644.1,684.1055,650.1,686.5055,644.1,688.9055,646.5,686.5055" style="stroke:#181818;stroke-width:0.6;"/><line style="stroke:#181818;stroke-width:0.6;" x1="376.8" x2="647.7" y1="686.5055" y2="686.5055"/><text fill="#000000" font-family="sans-serif" font-size="7.8" font-weight="bold" lengthAdjust="spacing" textLength="8.4" x="381" y="683.3479">31</text><text fill="#000000" font-family="sans-serif" font-size="7.8" lengthAdjust="spacing" textLength="45" x="391.8" y="683.3479">getInstance()</text><polygon fill="#181818" points="383.4,702.8801,377.4,705.2801,383.4,707.6801,381,705.2801" style="stroke:#181818;stroke-width:0.6;"/><line style="stroke:#181818;stroke-width:0.6;stroke-dasharray:2.0,2.0;" x1="379.8" x2="653.7" y1="705.2801" y2="705.2801"/><text fill="#000000" font-family="sans-serif" font-size="7.8" font-weight="bold" lengthAdjust="spacing" textLength="8.4" x="387" y="702.1225">32</text><text fill="#000000" font-family="sans-serif" font-size="7.8" lengthAdjust="spacing" textLength="40.2" x="397.8" y="702.1225">repositories</text><polygon fill="#181818" points="708.3,721.6547,714.3,724.0547,708.3,726.4547,710.7,724.0547" style="stroke:#181818;stroke-width:0.6;"/><line style="stroke:#181818;stroke-width:0.6;" x1="376.8" x2="711.9" y1="724.0547" y2="724.0547"/><text fill="#000000" font-family="sans-serif" font-size="7.8" font-weight="bold" lengthAdjust="spacing" textLength="8.4" x="381" y="720.8971">33</text><text fill="#000000" font-family="sans-serif" font-size="7.8" lengthAdjust="spacing" textLength="72" x="391.8" y="720.8971">getTeamRepository()</text><polygon fill="#181818" points="383.4,740.4293,377.4,742.8293,383.4,745.2293,381,742.8293" style="stroke:#181818;stroke-width:0.6;"/><line style="stroke:#181818;stroke-width:0.6;stroke-dasharray:2.0,2.0;" x1="379.8" x2="717.9" y1="742.8293" y2="742.8293"/><text fill="#000000" font-family="sans-serif" font-size="7.8" font-weight="bold" lengthAdjust="spacing" textLength="8.4" x="387" y="739.6717">34</text><text fill="#000000" font-family="sans-serif" font-size="7.8" lengthAdjust="spacing" textLength="56.4" x="397.8" y="739.6717">TeamRepository</text><polygon fill="#181818" points="850.2,759.2039,856.2,761.6039,850.2,764.0039,852.6,761.6039" style="stroke:#181818;stroke-width:0.6;"/><line style="stroke:#181818;stroke-width:0.6;" x1="376.8" x2="853.8" y1="761.6039" y2="761.6039"/><text fill="#000000" font-family="sans-serif" font-size="7.8" font-weight="bold" lengthAdjust="spacing" textLength="8.4" x="381" y="758.4463">35</text><text fill="#000000" font-family="sans-serif" font-size="7.8" lengthAdjust="spacing" textLength="67.2" x="391.8" y="758.4463">registerTeam(team)</text><line style="stroke:#181818;stroke-width:0.6;" x1="863.4" x2="888.6" y1="783.4658" y2="783.4658"/><line style="stroke:#181818;stroke-width:0.6;" x1="888.6" x2="888.6" y1="783.4658" y2="791.2658"/><line style="stroke:#181818;stroke-width:0.6;" x1="864" x2="888.6" y1="791.2658" y2="791.2658"/><polygon fill="#181818" points="870,788.8658,864,791.2658,870,793.6658,867.6,791.2658" style="stroke:#181818;stroke-width:0.6;"/><text fill="#000000" font-family="sans-serif" font-size="7.8" font-weight="bold" lengthAdjust="spacing" textLength="8.4" x="867.6" y="780.3082">36</text><text fill="#000000" font-family="sans-serif" font-size="7.8" lengthAdjust="spacing" textLength="88.2" x="878.4" y="780.3082">teamAlreadyExists(team)</text><path d="M673.8,769.4039 L673.8,795.8039 L854.4,795.8039 L854.4,775.4039 L848.4,769.4039 L673.8,769.4039 " fill="#FAFAFA" style="stroke:#181818;stroke-width:0.3;"/><path d="M848.4,769.4039 L848.4,775.4039 L854.4,775.4039 L848.4,769.4039 " fill="#FAFAFA" style="stroke:#181818;stroke-width:0.3;"/><text fill="#000000" font-family="sans-serif" font-size="7.8" lengthAdjust="spacing" textLength="138.6" x="677.4" y="780.8209">checks if the team already exists based</text><text fill="#000000" font-family="sans-serif" font-size="7.8" lengthAdjust="spacing" textLength="168" x="677.4" y="791.1955">on collaborators and skills and returns a boolean</text><path d="M6,803.3531 L42.6,803.3531 L42.6,808.9277 L36.6,814.9277 L6,814.9277 L6,803.3531 " fill="#EEEEEE" style="stroke:#000000;stroke-width:0.8999999999999999;"/><rect fill="none" height="144.5754" style="stroke:#000000;stroke-width:0.8999999999999999;" width="895.8" x="6" y="803.3531"/><text fill="#000000" font-family="sans-serif" font-size="7.8" font-weight="bold" lengthAdjust="spacing" textLength="9.6" x="15" y="812.3701">alt</text><text fill="#000000" font-family="sans-serif" font-size="6.6" font-weight="bold" lengthAdjust="spacing" textLength="33" x="51.6" y="811.6752">[success]</text><polygon fill="#181818" points="383.4,826.5023,377.4,828.9023,383.4,831.3023,381,828.9023" style="stroke:#181818;stroke-width:0.6;"/><line style="stroke:#181818;stroke-width:0.6;stroke-dasharray:2.0,2.0;" x1="379.8" x2="856.8" y1="828.9023" y2="828.9023"/><text fill="#000000" font-family="sans-serif" font-size="7.8" font-weight="bold" lengthAdjust="spacing" textLength="8.4" x="387" y="825.7447">37</text><text fill="#000000" font-family="sans-serif" font-size="7.8" lengthAdjust="spacing" textLength="29.4" x="397.8" y="825.7447">success</text><polygon fill="#181818" points="223.8,845.277,217.8,847.677,223.8,850.077,221.4,847.677" style="stroke:#181818;stroke-width:0.6;"/><line style="stroke:#181818;stroke-width:0.6;stroke-dasharray:2.0,2.0;" x1="220.2" x2="373.2" y1="847.677" y2="847.677"/><text fill="#000000" font-family="sans-serif" font-size="7.8" font-weight="bold" lengthAdjust="spacing" textLength="8.4" x="227.4" y="844.5193">38</text><text fill="#000000" font-family="sans-serif" font-size="7.8" lengthAdjust="spacing" textLength="17.4" x="238.2" y="844.5193">team</text><polygon fill="#181818" points="76.2,874.4262,70.2,876.8262,76.2,879.2262,73.8,876.8262" style="stroke:#181818;stroke-width:0.6;"/><line style="stroke:#181818;stroke-width:0.6;stroke-dasharray:2.0,2.0;" x1="72.6" x2="213.6" y1="876.8262" y2="876.8262"/><text fill="#000000" font-family="sans-serif" font-size="7.8" font-weight="bold" lengthAdjust="spacing" textLength="8.4" x="79.8" y="868.4812">39</text><text fill="#000000" font-family="sans-serif" font-size="7.8" lengthAdjust="spacing" textLength="116.4" x="90.6" y="863.2939">shows success message and the</text><text fill="#000000" font-family="sans-serif" font-size="7.8" lengthAdjust="spacing" textLength="45.6" x="90.6" y="873.6686">created team</text><line style="stroke:#000000;stroke-width:0.6;stroke-dasharray:2.0,2.0;" x1="6" x2="901.8" y1="882.2262" y2="882.2262"/><text fill="#000000" font-family="sans-serif" font-size="6.6" font-weight="bold" lengthAdjust="spacing" textLength="39" x="9" y="889.3482">[insuccess]</text><polygon fill="#181818" points="380.4,903.1793,374.4,905.5793,380.4,907.9793,378,905.5793" style="stroke:#181818;stroke-width:0.6;"/><line style="stroke:#181818;stroke-width:0.6;stroke-dasharray:2.0,2.0;" x1="376.8" x2="856.8" y1="905.5793" y2="905.5793"/><text fill="#000000" font-family="sans-serif" font-size="7.8" font-weight="bold" lengthAdjust="spacing" textLength="8.4" x="384" y="902.4217">40</text><text fill="#000000" font-family="sans-serif" font-size="7.8" lengthAdjust="spacing" textLength="35.4" x="394.8" y="902.4217">insuccess</text><polygon fill="#181818" points="220.8,921.9539,214.8,924.3539,220.8,926.7539,218.4,924.3539" style="stroke:#181818;stroke-width:0.6;"/><line style="stroke:#181818;stroke-width:0.6;stroke-dasharray:2.0,2.0;" x1="217.2" x2="373.2" y1="924.3539" y2="924.3539"/><text fill="#000000" font-family="sans-serif" font-size="7.8" font-weight="bold" lengthAdjust="spacing" textLength="8.4" x="224.4" y="921.1963">41</text><text fill="#000000" font-family="sans-serif" font-size="7.8" lengthAdjust="spacing" textLength="69.6" x="235.2" y="921.1963">insuccess message</text><polygon fill="#181818" points="76.2,940.7285,70.2,943.1285,76.2,945.5285,73.8,943.1285" style="stroke:#181818;stroke-width:0.6;"/><line style="stroke:#181818;stroke-width:0.6;stroke-dasharray:2.0,2.0;" x1="72.6" x2="213.6" y1="943.1285" y2="943.1285"/><text fill="#000000" font-family="sans-serif" font-size="7.8" font-weight="bold" lengthAdjust="spacing" textLength="8.4" x="79.8" y="939.9709">42</text><text fill="#000000" font-family="sans-serif" font-size="7.8" lengthAdjust="spacing" textLength="73.8" x="90.6" y="939.9709">sinsuccess message</text><!--SRC=[jLV1JkCm4BtdAonE1T4Vu834iYk1119guTQBIOVM8h6xjbDWltx7uoIr7Rjb3vj3rDWppyypRyQkUHTonpLlMQkaghTQjS2ixg0ouyoEr-zy0qlxrG3JK5ikDqreOBPyhJw4tB0ttXYeAjvP9Rls5JJ-hgtIxEokQxba2p2gqpKOziWbOkepnWsxMpnMY6H5BNPSMdPsTQk1MtW6tZvfjLE6Do_tPFfoVzBoLachLTFquBVFYuUJFalGUr63ToZD9YWBm4c1cnDWo74S-5eA5o6CGUoY0u-Ld08yFTmynnuOuwOvu5wjv38U8Rzah8enBEuaWdYE1WWX7ehzQumbVrMQurI4SvkTy37CJarvOHJSqfx3hvl7gYB1Y3rcW6J1t9lDhp7nx0gjtWspYcr0WdOcd3aKjkiJXUQZDoe5Fzs3hWZWT71nWI0rvRUV6yr99lqWVJYNaX8kBXAODSH0mx88ulZtp5l-ATeEwqNyWIfmSLIhPAi6v3hn2EqB2mXPN20B7zfdyNtSq643bcHc7eIni_FAnsgwQnyyvvWf1uzpBmssa1eG9Kb2heBwb6JXvWT-OMrDav83JkYwuWlsUV2OqgGw7SL2ZW6Jf6O7iu0D-K-7KqTy1d89fMawHf19BnZYbqnC63kWQXgvPNOtdjSefjW_BOQ2M3NyxeI6jNSttz5hwiAEIhQUbEyCw-dIgVwoHyZhs8yDiIzs0RSHhV4mXB3TcHzV5BFPi4ACNpnSCDcbkVbrHhzfAHtLUcPiVcnhIJsTgAHoXFgw8gxvCo5aJdNXNYUuvK-aAgqmdyLoK0kdb6y2FqUmTIwx9aglVwJ2bRNOR2r2l8d6Weweufd_oWsg5pkNtOBGWum3Z8DGydiCJ5c9_ude6MZm3fTiAy8D2pXFenpL-RMhcz8grQcJTImfDpSfryiudkSK3Whxgx9MjMnODxPZRtYjpJEAK-BMOboktRdBzhpfyABgFWtV0nDo9Trjun7SnTOSKttVWwvOQ1z6zKWNE3HzTo4QszWiWBeSj3S2qjt9lSRuE_D37_j_7OGM-wTc4Potn22-UvRx0QsKN5Gd9J_6BhAZ-y463oZGf2iNdFFehfdW7kei0Sf1ExIR1hEq_lhrYOkO7Z_g2rwWcCqjr7ZuYJVI6zrUkVTbGCwC1BcIgCXOn2H4IZpzr60xBV4tGgi6kAnuOvdfQlntPShyWrE_DsMiofxg1mMTlDsQhVem0o1hyON_xOWbRd8blOBN7Z62msCRy1yZrjR8famuCA8dJtkq6dXyTmzJnvHgnV0M4ceEFVy2]--></g></svg>