<?xml version="1.0" encoding="us-ascii" standalone="no"?><svg xmlns="http://www.w3.org/2000/svg" xmlns:xlink="http://www.w3.org/1999/xlink" contentStyleType="text/css" height="1371.2px" preserveAspectRatio="none" style="width:1421px;height:1371px;background:#FFFFFF;" version="1.1" viewBox="0 0 1421 1371" width="1421.6px" zoomAndPan="magnify"><defs/><g><rect fill="#FFFFFF" height="1222.1031" style="stroke:#181818;stroke-width:0.8000000000000002;" width="8" x="84.8" y="74.8969"/><rect fill="#FFFFFF" height="345.1547" style="stroke:#181818;stroke-width:0.8000000000000002;" width="8" x="281.6" y="93.5297"/><rect fill="#FFFFFF" height="25.0328" style="stroke:#181818;stroke-width:0.8000000000000002;" width="8" x="281.6" y="463.7172"/><rect fill="#FFFFFF" height="173.1641" style="stroke:#181818;stroke-width:0.8000000000000002;" width="8" x="281.6" y="513.7828"/><rect fill="#FFFFFF" height="573.0203" style="stroke:#181818;stroke-width:0.8000000000000002;" width="8" x="281.6" y="711.9797"/><rect fill="#FFFFFF" height="177.0938" style="stroke:#181818;stroke-width:0.8000000000000002;" width="8" x="494.4" y="126.5625"/><rect fill="#FFFFFF" height="49.0328" style="stroke:#181818;stroke-width:0.8000000000000002;" width="8" x="494.4" y="538.8156"/><rect fill="#FFFFFF" height="49.0328" style="stroke:#181818;stroke-width:0.8000000000000002;" width="8" x="494.4" y="612.8813"/><rect fill="#FFFFFF" height="522.9547" style="stroke:#181818;stroke-width:0.8000000000000002;" width="8" x="494.4" y="737.0125"/><rect fill="#FFFFFF" height="75.0984" style="stroke:#181818;stroke-width:0.8000000000000002;" width="8" x="741.6" y="338.5531"/><rect fill="#FFFFFF" height="176.2625" style="stroke:#181818;stroke-width:0.8000000000000002;" width="8" x="741.6" y="762.0453"/><rect fill="#FFFFFF" height="25.0328" style="stroke:#181818;stroke-width:0.8000000000000002;" width="8" x="868.4" y="153.4594"/><rect fill="#FFFFFF" height="25.0328" style="stroke:#181818;stroke-width:0.8000000000000002;" width="8" x="868.4" y="338.5531"/><rect fill="#FFFFFF" height="25.0328" style="stroke:#181818;stroke-width:0.8000000000000002;" width="8" x="954" y="203.525"/><rect fill="#FFFFFF" height="25.0328" style="stroke:#181818;stroke-width:0.8000000000000002;" width="8" x="954" y="253.5906"/><rect fill="#FFFFFF" height="25.0328" style="stroke:#181818;stroke-width:0.8000000000000002;" width="8" x="954" y="388.6188"/><rect fill="#FFFFFF" height="73.0328" style="stroke:#181818;stroke-width:0.8000000000000002;" width="8" x="1044.4" y="563.8484"/><rect fill="#FFFFFF" height="259.6328" style="stroke:#181818;stroke-width:0.8000000000000002;" width="8" x="1143.2" y="1038.1672"/><rect fill="#FFFFFF" height="34.3492" style="stroke:#181818;stroke-width:0.8000000000000002;" width="8" x="1294.4" y="796.3945"/><rect fill="#FFFFFF" height="41.7938" style="stroke:#181818;stroke-width:0.8000000000000002;" width="8" x="1388.4" y="971.3406"/><rect fill="none" height="197.5672" style="stroke:#000000;stroke-width:1.2000000000000002;" width="1194.4" x="8" y="1093.8328"/><line style="stroke:#181818;stroke-width:0.4000000000000001;stroke-dasharray:5.0,5.0;" x1="88.8" x2="88.8" y1="66.8969" y2="1305"/><line style="stroke:#181818;stroke-width:0.4000000000000001;stroke-dasharray:5.0,5.0;" x1="285.2" x2="285.2" y1="66.8969" y2="1305"/><line style="stroke:#181818;stroke-width:0.4000000000000001;stroke-dasharray:5.0,5.0;" x1="498" x2="498" y1="125.3781" y2="1305"/><line style="stroke:#181818;stroke-width:0.4000000000000001;stroke-dasharray:5.0,5.0;" x1="745.6" x2="745.6" y1="310.4719" y2="1305"/><line style="stroke:#181818;stroke-width:0.4000000000000001;stroke-dasharray:5.0,5.0;" x1="872" x2="872" y1="66.8969" y2="1305"/><line style="stroke:#181818;stroke-width:0.4000000000000001;stroke-dasharray:5.0,5.0;" x1="957.6" x2="957.6" y1="66.8969" y2="1305"/><line style="stroke:#181818;stroke-width:0.4000000000000001;stroke-dasharray:5.0,5.0;" x1="1048" x2="1048" y1="66.8969" y2="1305"/><line style="stroke:#181818;stroke-width:0.4000000000000001;stroke-dasharray:5.0,5.0;" x1="1147.2" x2="1147.2" y1="66.8969" y2="1305"/><line style="stroke:#181818;stroke-width:0.4000000000000001;stroke-dasharray:5.0,5.0;" x1="1298" x2="1298" y1="66.8969" y2="1305"/><line style="stroke:#181818;stroke-width:0.4000000000000001;stroke-dasharray:5.0,5.0;" x1="1392.4" x2="1392.4" y1="977.6047" y2="1305"/><text fill="#000000" font-family="sans-serif" font-size="11.2" lengthAdjust="spacing" textLength="140.8" x="16" y="64.0859">Human Resources Manager</text><ellipse cx="88.8" cy="10.8" fill="#E3E3E3" rx="6.4" ry="6.4" style="stroke:#181818;stroke-width:0.4000000000000001;"/><path d="M88.8,17.2 L88.8,38.8 M78.4,23.6 L99.2,23.6 M88.8,38.8 L78.4,50.8 M88.8,38.8 L99.2,50.8 " fill="none" style="stroke:#181818;stroke-width:0.4000000000000001;"/><text fill="#000000" font-family="sans-serif" font-size="11.2" lengthAdjust="spacing" textLength="140.8" x="16" y="1316.2859">Human Resources Manager</text><ellipse cx="88.8" cy="1325.8969" fill="#E3E3E3" rx="6.4" ry="6.4" style="stroke:#181818;stroke-width:0.4000000000000001;"/><path d="M88.8,1332.2969 L88.8,1353.8969 M78.4,1338.6969 L99.2,1338.6969 M88.8,1353.8969 L78.4,1365.8969 M88.8,1353.8969 L99.2,1365.8969 " fill="none" style="stroke:#181818;stroke-width:0.4000000000000001;"/><rect fill="#E3E3E3" height="26.0969" rx="2" ry="2" style="stroke:#181818;stroke-width:0.4000000000000001;" width="132" x="219.6" y="40"/><text fill="#000000" font-family="sans-serif" font-size="11.2" lengthAdjust="spacing" textLength="120.8" x="225.2" y="57.6859">:CreateTeamProposalUI</text><rect fill="#E3E3E3" height="26.0969" rx="2" ry="2" style="stroke:#181818;stroke-width:0.4000000000000001;" width="132" x="219.6" y="1304.2"/><text fill="#000000" font-family="sans-serif" font-size="11.2" lengthAdjust="spacing" textLength="120.8" x="225.2" y="1321.8859">:CreateTeamProposalUI</text><rect fill="#E3E3E3" height="26.0969" rx="2" ry="2" style="stroke:#181818;stroke-width:0.4000000000000001;" width="172" x="412.4" y="1304.2"/><text fill="#000000" font-family="sans-serif" font-size="11.2" lengthAdjust="spacing" textLength="160.8" x="418" y="1321.8859">:CreateTeamProposalController</text><rect fill="#E3E3E3" height="26.0969" rx="2" ry="2" style="stroke:#181818;stroke-width:0.4000000000000001;" width="160" x="665.6" y="1304.2"/><text fill="#000000" font-family="sans-serif" font-size="11.2" lengthAdjust="spacing" textLength="148.8" x="671.2" y="1321.8859">:CreateTeamProposalService</text><rect fill="#E3E3E3" height="26.0969" rx="2" ry="2" style="stroke:#181818;stroke-width:0.4000000000000001;" width="77.6" x="833.6" y="40"/><text fill="#000000" font-family="sans-serif" font-size="11.2" lengthAdjust="spacing" textLength="66.4" x="839.2" y="57.6859">:Repositories</text><rect fill="#E3E3E3" height="26.0969" rx="2" ry="2" style="stroke:#181818;stroke-width:0.4000000000000001;" width="77.6" x="833.6" y="1304.2"/><text fill="#000000" font-family="sans-serif" font-size="11.2" lengthAdjust="spacing" textLength="66.4" x="839.2" y="1321.8859">:Repositories</text><rect fill="#E3E3E3" height="40.9938" rx="2" ry="2" style="stroke:#181818;stroke-width:0.4000000000000001;" width="77.6" x="919.2" y="25.1031"/><text fill="#000000" font-family="sans-serif" font-size="11.2" lengthAdjust="spacing" textLength="59.2" x="928.4" y="42.7891">repositories</text><text fill="#000000" font-family="sans-serif" font-size="11.2" lengthAdjust="spacing" textLength="66.4" x="924.8" y="57.6859">:Repositories</text><rect fill="#E3E3E3" height="40.9938" rx="2" ry="2" style="stroke:#181818;stroke-width:0.4000000000000001;" width="77.6" x="919.2" y="1304.2"/><text fill="#000000" font-family="sans-serif" font-size="11.2" lengthAdjust="spacing" textLength="59.2" x="928.4" y="1321.8859">repositories</text><text fill="#000000" font-family="sans-serif" font-size="11.2" lengthAdjust="spacing" textLength="66.4" x="924.8" y="1336.7828">:Repositories</text><rect fill="#E3E3E3" height="40.9938" rx="2" ry="2" style="stroke:#181818;stroke-width:0.4000000000000001;" width="87.2" x="1004.8" y="25.1031"/><text fill="#000000" font-family="sans-serif" font-size="11.2" lengthAdjust="spacing" textLength="76" x="1010.4" y="42.7891">skillRepository:</text><text fill="#000000" font-family="sans-serif" font-size="11.2" lengthAdjust="spacing" textLength="74.4" x="1011.2" y="57.6859">SkillRepository</text><rect fill="#E3E3E3" height="40.9938" rx="2" ry="2" style="stroke:#181818;stroke-width:0.4000000000000001;" width="87.2" x="1004.8" y="1304.2"/><text fill="#000000" font-family="sans-serif" font-size="11.2" lengthAdjust="spacing" textLength="76" x="1010.4" y="1321.8859">skillRepository:</text><text fill="#000000" font-family="sans-serif" font-size="11.2" lengthAdjust="spacing" textLength="74.4" x="1011.2" y="1336.7828">SkillRepository</text><rect fill="#E3E3E3" height="40.9938" rx="2" ry="2" style="stroke:#181818;stroke-width:0.4000000000000001;" width="94.4" x="1100" y="25.1031"/><text fill="#000000" font-family="sans-serif" font-size="11.2" lengthAdjust="spacing" textLength="82.4" x="1106" y="42.7891">teamRepository:</text><text fill="#000000" font-family="sans-serif" font-size="11.2" lengthAdjust="spacing" textLength="83.2" x="1105.6" y="57.6859">TeamRepository</text><rect fill="#E3E3E3" height="40.9938" rx="2" ry="2" style="stroke:#181818;stroke-width:0.4000000000000001;" width="94.4" x="1100" y="1304.2"/><text fill="#000000" font-family="sans-serif" font-size="11.2" lengthAdjust="spacing" textLength="82.4" x="1106" y="1321.8859">teamRepository:</text><text fill="#000000" font-family="sans-serif" font-size="11.2" lengthAdjust="spacing" textLength="83.2" x="1105.6" y="1336.7828">TeamRepository</text><rect fill="#E3E3E3" height="40.9938" rx="2" ry="2" style="stroke:#181818;stroke-width:0.4000000000000001;" width="128.8" x="1234" y="25.1031"/><text fill="#000000" font-family="sans-serif" font-size="11.2" lengthAdjust="spacing" textLength="117.6" x="1239.6" y="42.7891">collaboratorRepository:</text><text fill="#000000" font-family="sans-serif" font-size="11.2" lengthAdjust="spacing" textLength="116.8" x="1240" y="57.6859">CollaboratorRepository</text><rect fill="#E3E3E3" height="40.9938" rx="2" ry="2" style="stroke:#181818;stroke-width:0.4000000000000001;" width="128.8" x="1234" y="1304.2"/><text fill="#000000" font-family="sans-serif" font-size="11.2" lengthAdjust="spacing" textLength="117.6" x="1239.6" y="1321.8859">collaboratorRepository:</text><text fill="#000000" font-family="sans-serif" font-size="11.2" lengthAdjust="spacing" textLength="116.8" x="1240" y="1336.7828">CollaboratorRepository</text><rect fill="#E3E3E3" height="40.9938" rx="2" ry="2" style="stroke:#181818;stroke-width:0.4000000000000001;" width="43.2" x="1370.8" y="1304.2"/><text fill="#000000" font-family="sans-serif" font-size="11.2" lengthAdjust="spacing" textLength="24.8" x="1380" y="1321.8859">team</text><text fill="#000000" font-family="sans-serif" font-size="11.2" lengthAdjust="spacing" textLength="32" x="1376.4" y="1336.7828">:Team</text><rect fill="#FFFFFF" height="1222.1031" style="stroke:#181818;stroke-width:0.8000000000000002;" width="8" x="84.8" y="74.8969"/><rect fill="#FFFFFF" height="345.1547" style="stroke:#181818;stroke-width:0.8000000000000002;" width="8" x="281.6" y="93.5297"/><rect fill="#FFFFFF" height="25.0328" style="stroke:#181818;stroke-width:0.8000000000000002;" width="8" x="281.6" y="463.7172"/><rect fill="#FFFFFF" height="173.1641" style="stroke:#181818;stroke-width:0.8000000000000002;" width="8" x="281.6" y="513.7828"/><rect fill="#FFFFFF" height="573.0203" style="stroke:#181818;stroke-width:0.8000000000000002;" width="8" x="281.6" y="711.9797"/><rect fill="#FFFFFF" height="177.0938" style="stroke:#181818;stroke-width:0.8000000000000002;" width="8" x="494.4" y="126.5625"/><rect fill="#FFFFFF" height="49.0328" style="stroke:#181818;stroke-width:0.8000000000000002;" width="8" x="494.4" y="538.8156"/><rect fill="#FFFFFF" height="49.0328" style="stroke:#181818;stroke-width:0.8000000000000002;" width="8" x="494.4" y="612.8813"/><rect fill="#FFFFFF" height="522.9547" style="stroke:#181818;stroke-width:0.8000000000000002;" width="8" x="494.4" y="737.0125"/><rect fill="#FFFFFF" height="75.0984" style="stroke:#181818;stroke-width:0.8000000000000002;" width="8" x="741.6" y="338.5531"/><rect fill="#FFFFFF" height="176.2625" style="stroke:#181818;stroke-width:0.8000000000000002;" width="8" x="741.6" y="762.0453"/><rect fill="#FFFFFF" height="25.0328" style="stroke:#181818;stroke-width:0.8000000000000002;" width="8" x="868.4" y="153.4594"/><rect fill="#FFFFFF" height="25.0328" style="stroke:#181818;stroke-width:0.8000000000000002;" width="8" x="868.4" y="338.5531"/><rect fill="#FFFFFF" height="25.0328" style="stroke:#181818;stroke-width:0.8000000000000002;" width="8" x="954" y="203.525"/><rect fill="#FFFFFF" height="25.0328" style="stroke:#181818;stroke-width:0.8000000000000002;" width="8" x="954" y="253.5906"/><rect fill="#FFFFFF" height="25.0328" style="stroke:#181818;stroke-width:0.8000000000000002;" width="8" x="954" y="388.6188"/><rect fill="#FFFFFF" height="73.0328" style="stroke:#181818;stroke-width:0.8000000000000002;" width="8" x="1044.4" y="563.8484"/><rect fill="#FFFFFF" height="259.6328" style="stroke:#181818;stroke-width:0.8000000000000002;" width="8" x="1143.2" y="1038.1672"/><rect fill="#FFFFFF" height="34.3492" style="stroke:#181818;stroke-width:0.8000000000000002;" width="8" x="1294.4" y="796.3945"/><rect fill="#FFFFFF" height="41.7938" style="stroke:#181818;stroke-width:0.8000000000000002;" width="8" x="1388.4" y="971.3406"/><polygon fill="#181818" points="272,90.3297,280,93.5297,272,96.7297,275.2,93.5297" style="stroke:#181818;stroke-width:0.8000000000000002;"/><line style="stroke:#181818;stroke-width:0.8000000000000002;" x1="92.8" x2="276.8" y1="93.5297" y2="93.5297"/><text fill="#000000" font-family="sans-serif" font-size="10.4" font-weight="bold" lengthAdjust="spacing" textLength="5.6" x="98.4" y="89.3195">1</text><text fill="#000000" font-family="sans-serif" font-size="10.4" lengthAdjust="spacing" textLength="155.2" x="107.2" y="89.3195">asks to generate a team proposal</text><polygon fill="#181818" points="402.8,115.3625,410.8,118.5625,402.8,121.7625,406,118.5625" style="stroke:#181818;stroke-width:0.8000000000000002;"/><line style="stroke:#181818;stroke-width:0.8000000000000002;" x1="289.6" x2="407.6" y1="118.5625" y2="118.5625"/><text fill="#000000" font-family="sans-serif" font-size="10.4" font-weight="bold" lengthAdjust="spacing" textLength="5.6" x="295.2" y="114.3523">2</text><text fill="#000000" font-family="sans-serif" font-size="10.4" lengthAdjust="spacing" textLength="28.8" x="304" y="114.3523">create</text><rect fill="#E3E3E3" height="26.0969" rx="2" ry="2" style="stroke:#181818;stroke-width:0.4000000000000001;" width="172" x="412.4" y="99.9297"/><text fill="#000000" font-family="sans-serif" font-size="11.2" lengthAdjust="spacing" textLength="160.8" x="418" y="117.6156">:CreateTeamProposalController</text><polygon fill="#181818" points="858.8,150.2594,866.8,153.4594,858.8,156.6594,862,153.4594" style="stroke:#181818;stroke-width:0.8000000000000002;"/><line style="stroke:#181818;stroke-width:0.8000000000000002;" x1="502.4" x2="863.6" y1="153.4594" y2="153.4594"/><text fill="#000000" font-family="sans-serif" font-size="10.4" font-weight="bold" lengthAdjust="spacing" textLength="5.6" x="508" y="149.2492">3</text><text fill="#000000" font-family="sans-serif" font-size="10.4" lengthAdjust="spacing" textLength="60" x="516.8" y="149.2492">getInstance()</text><polygon fill="#181818" points="511.2,175.2922,503.2,178.4922,511.2,181.6922,508,178.4922" style="stroke:#181818;stroke-width:0.8000000000000002;"/><line style="stroke:#181818;stroke-width:0.8000000000000002;stroke-dasharray:2.0,2.0;" x1="506.4" x2="871.6" y1="178.4922" y2="178.4922"/><text fill="#000000" font-family="sans-serif" font-size="10.4" font-weight="bold" lengthAdjust="spacing" textLength="5.6" x="516" y="174.282">4</text><text fill="#000000" font-family="sans-serif" font-size="10.4" lengthAdjust="spacing" textLength="53.6" x="524.8" y="174.282">repositories</text><polygon fill="#181818" points="944.4,200.325,952.4,203.525,944.4,206.725,947.6,203.525" style="stroke:#181818;stroke-width:0.8000000000000002;"/><line style="stroke:#181818;stroke-width:0.8000000000000002;" x1="502.4" x2="949.2" y1="203.525" y2="203.525"/><text fill="#000000" font-family="sans-serif" font-size="10.4" font-weight="bold" lengthAdjust="spacing" textLength="5.6" x="508" y="199.3148">5</text><text fill="#000000" font-family="sans-serif" font-size="10.4" lengthAdjust="spacing" textLength="90.4" x="516.8" y="199.3148">getSkillRepository()</text><polygon fill="#181818" points="511.2,225.3578,503.2,228.5578,511.2,231.7578,508,228.5578" style="stroke:#181818;stroke-width:0.8000000000000002;"/><line style="stroke:#181818;stroke-width:0.8000000000000002;stroke-dasharray:2.0,2.0;" x1="506.4" x2="957.2" y1="228.5578" y2="228.5578"/><text fill="#000000" font-family="sans-serif" font-size="10.4" font-weight="bold" lengthAdjust="spacing" textLength="5.6" x="516" y="224.3477">6</text><text fill="#000000" font-family="sans-serif" font-size="10.4" lengthAdjust="spacing" textLength="68" x="524.8" y="224.3477">skillRepository</text><polygon fill="#181818" points="944.4,250.3906,952.4,253.5906,944.4,256.7906,947.6,253.5906" style="stroke:#181818;stroke-width:0.8000000000000002;"/><line style="stroke:#181818;stroke-width:0.8000000000000002;" x1="502.4" x2="949.2" y1="253.5906" y2="253.5906"/><text fill="#000000" font-family="sans-serif" font-size="10.4" font-weight="bold" lengthAdjust="spacing" textLength="5.6" x="508" y="249.3805">7</text><text fill="#000000" font-family="sans-serif" font-size="10.4" lengthAdjust="spacing" textLength="96" x="516.8" y="249.3805">getTeamRepository()</text><polygon fill="#181818" points="511.2,275.4234,503.2,278.6234,511.2,281.8234,508,278.6234" style="stroke:#181818;stroke-width:0.8000000000000002;"/><line style="stroke:#181818;stroke-width:0.8000000000000002;stroke-dasharray:2.0,2.0;" x1="506.4" x2="957.2" y1="278.6234" y2="278.6234"/><text fill="#000000" font-family="sans-serif" font-size="10.4" font-weight="bold" lengthAdjust="spacing" textLength="5.6" x="516" y="274.4133">8</text><text fill="#000000" font-family="sans-serif" font-size="10.4" lengthAdjust="spacing" textLength="72.8" x="524.8" y="274.4133">teamRepository</text><polygon fill="#181818" points="656,300.4563,664,303.6563,656,306.8563,659.2,303.6563" style="stroke:#181818;stroke-width:0.8000000000000002;"/><line style="stroke:#181818;stroke-width:0.8000000000000002;" x1="498.4" x2="660.8" y1="303.6563" y2="303.6563"/><text fill="#000000" font-family="sans-serif" font-size="10.4" font-weight="bold" lengthAdjust="spacing" textLength="5.6" x="504" y="299.4461">9</text><text fill="#000000" font-family="sans-serif" font-size="10.4" lengthAdjust="spacing" textLength="28.8" x="512.8" y="299.4461">create</text><rect fill="#E3E3E3" height="26.0969" rx="2" ry="2" style="stroke:#181818;stroke-width:0.4000000000000001;" width="160" x="665.6" y="285.0234"/><text fill="#000000" font-family="sans-serif" font-size="11.2" lengthAdjust="spacing" textLength="148.8" x="671.2" y="302.7094">:CreateTeamProposalService</text><polygon fill="#181818" points="858.8,335.3531,866.8,338.5531,858.8,341.7531,862,338.5531" style="stroke:#181818;stroke-width:0.8000000000000002;"/><line style="stroke:#181818;stroke-width:0.8000000000000002;" x1="749.6" x2="863.6" y1="338.5531" y2="338.5531"/><text fill="#000000" font-family="sans-serif" font-size="10.4" font-weight="bold" lengthAdjust="spacing" textLength="11.2" x="755.2" y="334.343">10</text><text fill="#000000" font-family="sans-serif" font-size="10.4" lengthAdjust="spacing" textLength="60" x="769.6" y="334.343">getInstance()</text><polygon fill="#181818" points="758.4,360.3859,750.4,363.5859,758.4,366.7859,755.2,363.5859" style="stroke:#181818;stroke-width:0.8000000000000002;"/><line style="stroke:#181818;stroke-width:0.8000000000000002;stroke-dasharray:2.0,2.0;" x1="753.6" x2="871.6" y1="363.5859" y2="363.5859"/><text fill="#000000" font-family="sans-serif" font-size="10.4" font-weight="bold" lengthAdjust="spacing" textLength="11.2" x="763.2" y="359.3758">11</text><text fill="#000000" font-family="sans-serif" font-size="10.4" lengthAdjust="spacing" textLength="53.6" x="777.6" y="359.3758">repositories</text><polygon fill="#181818" points="944.4,385.4188,952.4,388.6188,944.4,391.8188,947.6,388.6188" style="stroke:#181818;stroke-width:0.8000000000000002;"/><line style="stroke:#181818;stroke-width:0.8000000000000002;" x1="749.6" x2="949.2" y1="388.6188" y2="388.6188"/><text fill="#000000" font-family="sans-serif" font-size="10.4" font-weight="bold" lengthAdjust="spacing" textLength="11.2" x="755.2" y="384.4086">12</text><text fill="#000000" font-family="sans-serif" font-size="10.4" lengthAdjust="spacing" textLength="125.6" x="769.6" y="384.4086">getCollaboratorRepository()</text><polygon fill="#181818" points="754.4,410.4516,746.4,413.6516,754.4,416.8516,751.2,413.6516" style="stroke:#181818;stroke-width:0.8000000000000002;"/><line style="stroke:#181818;stroke-width:0.8000000000000002;stroke-dasharray:2.0,2.0;" x1="749.6" x2="957.2" y1="413.6516" y2="413.6516"/><text fill="#000000" font-family="sans-serif" font-size="10.4" font-weight="bold" lengthAdjust="spacing" textLength="11.2" x="759.2" y="409.4414">13</text><text fill="#000000" font-family="sans-serif" font-size="10.4" lengthAdjust="spacing" textLength="103.2" x="773.6" y="409.4414">collaboratorRepository</text><polygon fill="#181818" points="101.6,435.4844,93.6,438.6844,101.6,441.8844,98.4,438.6844" style="stroke:#181818;stroke-width:0.8000000000000002;"/><line style="stroke:#181818;stroke-width:0.8000000000000002;stroke-dasharray:2.0,2.0;" x1="96.8" x2="284.8" y1="438.6844" y2="438.6844"/><text fill="#000000" font-family="sans-serif" font-size="10.4" font-weight="bold" lengthAdjust="spacing" textLength="11.2" x="106.4" y="434.4742">14</text><text fill="#000000" font-family="sans-serif" font-size="10.4" lengthAdjust="spacing" textLength="93.6" x="120.8" y="434.4742">asks maximum size</text><polygon fill="#181818" points="272,460.5172,280,463.7172,272,466.9172,275.2,463.7172" style="stroke:#181818;stroke-width:0.8000000000000002;"/><line style="stroke:#181818;stroke-width:0.8000000000000002;" x1="92.8" x2="276.8" y1="463.7172" y2="463.7172"/><text fill="#000000" font-family="sans-serif" font-size="10.4" font-weight="bold" lengthAdjust="spacing" textLength="11.2" x="98.4" y="459.507">15</text><text fill="#000000" font-family="sans-serif" font-size="10.4" lengthAdjust="spacing" textLength="99.2" x="112.8" y="459.507">sends maximum size</text><polygon fill="#181818" points="101.6,485.55,93.6,488.75,101.6,491.95,98.4,488.75" style="stroke:#181818;stroke-width:0.8000000000000002;"/><line style="stroke:#181818;stroke-width:0.8000000000000002;stroke-dasharray:2.0,2.0;" x1="96.8" x2="284.8" y1="488.75" y2="488.75"/><text fill="#000000" font-family="sans-serif" font-size="10.4" font-weight="bold" lengthAdjust="spacing" textLength="11.2" x="106.4" y="484.5398">16</text><text fill="#000000" font-family="sans-serif" font-size="10.4" lengthAdjust="spacing" textLength="90.4" x="120.8" y="484.5398">asks minimum size</text><polygon fill="#181818" points="272,510.5828,280,513.7828,272,516.9828,275.2,513.7828" style="stroke:#181818;stroke-width:0.8000000000000002;"/><line style="stroke:#181818;stroke-width:0.8000000000000002;" x1="92.8" x2="276.8" y1="513.7828" y2="513.7828"/><text fill="#000000" font-family="sans-serif" font-size="10.4" font-weight="bold" lengthAdjust="spacing" textLength="11.2" x="98.4" y="509.5727">17</text><text fill="#000000" font-family="sans-serif" font-size="10.4" lengthAdjust="spacing" textLength="96" x="112.8" y="509.5727">sends minimum size</text><polygon fill="#181818" points="484.8,535.6156,492.8,538.8156,484.8,542.0156,488,538.8156" style="stroke:#181818;stroke-width:0.8000000000000002;"/><line style="stroke:#181818;stroke-width:0.8000000000000002;" x1="289.6" x2="489.6" y1="538.8156" y2="538.8156"/><text fill="#000000" font-family="sans-serif" font-size="10.4" font-weight="bold" lengthAdjust="spacing" textLength="11.2" x="295.2" y="534.6055">18</text><text fill="#000000" font-family="sans-serif" font-size="10.4" lengthAdjust="spacing" textLength="63.2" x="309.6" y="534.6055">getSkillsList()</text><polygon fill="#181818" points="1034.8,560.6484,1042.8,563.8484,1034.8,567.0484,1038,563.8484" style="stroke:#181818;stroke-width:0.8000000000000002;"/><line style="stroke:#181818;stroke-width:0.8000000000000002;" x1="502.4" x2="1039.6" y1="563.8484" y2="563.8484"/><text fill="#000000" font-family="sans-serif" font-size="10.4" font-weight="bold" lengthAdjust="spacing" textLength="11.2" x="508" y="559.6383">19</text><text fill="#000000" font-family="sans-serif" font-size="10.4" lengthAdjust="spacing" textLength="63.2" x="522.4" y="559.6383">getSkillsList()</text><polygon fill="#181818" points="511.2,609.6813,503.2,612.8813,511.2,616.0813,508,612.8813" style="stroke:#181818;stroke-width:0.8000000000000002;"/><line style="stroke:#181818;stroke-width:0.8000000000000002;stroke-dasharray:2.0,2.0;" x1="506.4" x2="1043.6" y1="612.8813" y2="612.8813"/><text fill="#000000" font-family="sans-serif" font-size="10.4" font-weight="bold" lengthAdjust="spacing" textLength="11.2" x="516" y="608.6711">20</text><text fill="#000000" font-family="sans-serif" font-size="10.4" lengthAdjust="spacing" textLength="35.2" x="530.4" y="608.6711">skillList</text><polygon fill="#181818" points="298.4,658.7141,290.4,661.9141,298.4,665.1141,295.2,661.9141" style="stroke:#181818;stroke-width:0.8000000000000002;"/><line style="stroke:#181818;stroke-width:0.8000000000000002;stroke-dasharray:2.0,2.0;" x1="293.6" x2="497.6" y1="661.9141" y2="661.9141"/><text fill="#000000" font-family="sans-serif" font-size="10.4" font-weight="bold" lengthAdjust="spacing" textLength="11.2" x="303.2" y="657.7039">21</text><text fill="#000000" font-family="sans-serif" font-size="10.4" lengthAdjust="spacing" textLength="35.2" x="317.6" y="657.7039">skillList</text><polygon fill="#181818" points="101.6,683.7469,93.6,686.9469,101.6,690.1469,98.4,686.9469" style="stroke:#181818;stroke-width:0.8000000000000002;"/><line style="stroke:#181818;stroke-width:0.8000000000000002;stroke-dasharray:2.0,2.0;" x1="96.8" x2="284.8" y1="686.9469" y2="686.9469"/><text fill="#000000" font-family="sans-serif" font-size="10.4" font-weight="bold" lengthAdjust="spacing" textLength="11.2" x="106.4" y="682.7367">22</text><text fill="#000000" font-family="sans-serif" font-size="10.4" lengthAdjust="spacing" textLength="89.6" x="120.8" y="682.7367">asks required skills</text><polygon fill="#181818" points="272,708.7797,280,711.9797,272,715.1797,275.2,711.9797" style="stroke:#181818;stroke-width:0.8000000000000002;"/><line style="stroke:#181818;stroke-width:0.8000000000000002;" x1="92.8" x2="276.8" y1="711.9797" y2="711.9797"/><text fill="#000000" font-family="sans-serif" font-size="10.4" font-weight="bold" lengthAdjust="spacing" textLength="11.2" x="98.4" y="707.7695">23</text><text fill="#000000" font-family="sans-serif" font-size="10.4" lengthAdjust="spacing" textLength="95.2" x="112.8" y="707.7695">sends required skills</text><polygon fill="#181818" points="484.8,733.8125,492.8,737.0125,484.8,740.2125,488,737.0125" style="stroke:#181818;stroke-width:0.8000000000000002;"/><line style="stroke:#181818;stroke-width:0.8000000000000002;" x1="289.6" x2="489.6" y1="737.0125" y2="737.0125"/><text fill="#000000" font-family="sans-serif" font-size="10.4" font-weight="bold" lengthAdjust="spacing" textLength="11.2" x="295.2" y="732.8023">24</text><text fill="#000000" font-family="sans-serif" font-size="10.4" lengthAdjust="spacing" textLength="175.2" x="309.6" y="732.8023">createTeamProposal(max, min, skills)</text><polygon fill="#181818" points="732,758.8453,740,762.0453,732,765.2453,735.2,762.0453" style="stroke:#181818;stroke-width:0.8000000000000002;"/><line style="stroke:#181818;stroke-width:0.8000000000000002;" x1="502.4" x2="736.8" y1="762.0453" y2="762.0453"/><text fill="#000000" font-family="sans-serif" font-size="10.4" font-weight="bold" lengthAdjust="spacing" textLength="11.2" x="508" y="757.8352">25</text><text fill="#000000" font-family="sans-serif" font-size="10.4" lengthAdjust="spacing" textLength="158.4" x="522.4" y="757.8352">arrangeCollaboratorsBySkill(skills)</text><polygon fill="#181818" points="1284.8,793.1945,1292.8,796.3945,1284.8,799.5945,1288,796.3945" style="stroke:#181818;stroke-width:0.8000000000000002;"/><line style="stroke:#181818;stroke-width:0.8000000000000002;" x1="749.6" x2="1289.6" y1="796.3945" y2="796.3945"/><text fill="#000000" font-family="sans-serif" font-size="10.4" font-weight="bold" lengthAdjust="spacing" textLength="11.2" x="755.2" y="792.1844">26</text><text fill="#000000" font-family="sans-serif" font-size="10.4" lengthAdjust="spacing" textLength="197.6" x="769.6" y="792.1844">getDeactivatedCollaboratorsBySkills(skills)</text><path d="M1306.4,772.4453 L1306.4,807.6453 L1416,807.6453 L1416,780.4453 L1408,772.4453 L1306.4,772.4453 " fill="#FAFAFA" style="stroke:#181818;stroke-width:0.4000000000000001;"/><path d="M1408,772.4453 L1408,780.4453 L1416,780.4453 L1408,772.4453 " fill="#FAFAFA" style="stroke:#181818;stroke-width:0.4000000000000001;"/><text fill="#000000" font-family="sans-serif" font-size="10.4" lengthAdjust="spacing" textLength="81.6" x="1311.2" y="787.668">filter collaborators</text><text fill="#000000" font-family="sans-serif" font-size="10.4" lengthAdjust="spacing" textLength="92.8" x="1311.2" y="801.5008">based on their skills</text><polygon fill="#181818" points="758.4,827.5438,750.4,830.7438,758.4,833.9438,755.2,830.7438" style="stroke:#181818;stroke-width:0.8000000000000002;"/><line style="stroke:#181818;stroke-width:0.8000000000000002;stroke-dasharray:2.0,2.0;" x1="753.6" x2="1297.6" y1="830.7438" y2="830.7438"/><text fill="#000000" font-family="sans-serif" font-size="10.4" font-weight="bold" lengthAdjust="spacing" textLength="11.2" x="763.2" y="826.5336">27</text><text fill="#000000" font-family="sans-serif" font-size="10.4" lengthAdjust="spacing" textLength="100" x="777.6" y="826.5336">selectedCollaborators</text><polygon fill="#181818" points="511.2,852.5766,503.2,855.7766,511.2,858.9766,508,855.7766" style="stroke:#181818;stroke-width:0.8000000000000002;"/><line style="stroke:#181818;stroke-width:0.8000000000000002;stroke-dasharray:2.0,2.0;" x1="506.4" x2="740.8" y1="855.7766" y2="855.7766"/><text fill="#000000" font-family="sans-serif" font-size="10.4" font-weight="bold" lengthAdjust="spacing" textLength="11.2" x="516" y="851.5664">28</text><text fill="#000000" font-family="sans-serif" font-size="10.4" lengthAdjust="spacing" textLength="100" x="530.4" y="851.5664">selectedCollaborators</text><polygon fill="#181818" points="732,893.8422,740,897.0422,732,900.2422,735.2,897.0422" style="stroke:#181818;stroke-width:0.8000000000000002;"/><line style="stroke:#181818;stroke-width:0.8000000000000002;" x1="502.4" x2="736.8" y1="897.0422" y2="897.0422"/><text fill="#000000" font-family="sans-serif" font-size="10.4" font-weight="bold" lengthAdjust="spacing" textLength="11.2" x="508" y="892.832">29</text><text fill="#000000" font-family="sans-serif" font-size="10.4" lengthAdjust="spacing" textLength="205.6" x="522.4" y="892.832">arrangeTeam(max, min, skills, collaborators)</text><path d="M256.8,866.1766 L256.8,914.9766 L490.4,914.9766 L490.4,874.1766 L482.4,866.1766 L256.8,866.1766 " fill="#FAFAFA" style="stroke:#181818;stroke-width:0.4000000000000001;"/><path d="M482.4,866.1766 L482.4,874.1766 L490.4,874.1766 L482.4,866.1766 " fill="#FAFAFA" style="stroke:#181818;stroke-width:0.4000000000000001;"/><text fill="#000000" font-family="sans-serif" font-size="10.4" lengthAdjust="spacing" textLength="216.8" x="261.6" y="881.3992">select collaborators from selectedCollaborators</text><text fill="#000000" font-family="sans-serif" font-size="10.4" lengthAdjust="spacing" textLength="210.4" x="261.6" y="895.232">based on the min and max values and save in</text><text fill="#000000" font-family="sans-serif" font-size="10.4" lengthAdjust="spacing" textLength="66.4" x="261.6" y="909.0648">teamMembers</text><polygon fill="#181818" points="511.2,935.1078,503.2,938.3078,511.2,941.5078,508,938.3078" style="stroke:#181818;stroke-width:0.8000000000000002;"/><line style="stroke:#181818;stroke-width:0.8000000000000002;stroke-dasharray:2.0,2.0;" x1="506.4" x2="744.8" y1="938.3078" y2="938.3078"/><text fill="#000000" font-family="sans-serif" font-size="10.4" font-weight="bold" lengthAdjust="spacing" textLength="11.2" x="516" y="934.0977">30</text><text fill="#000000" font-family="sans-serif" font-size="10.4" lengthAdjust="spacing" textLength="66.4" x="530.4" y="934.0977">teamMembers</text><polygon fill="#181818" points="1361.2,960.1406,1369.2,963.3406,1361.2,966.5406,1364.4,963.3406" style="stroke:#181818;stroke-width:0.8000000000000002;"/><line style="stroke:#181818;stroke-width:0.8000000000000002;" x1="502.4" x2="1366" y1="963.3406" y2="963.3406"/><text fill="#000000" font-family="sans-serif" font-size="10.4" font-weight="bold" lengthAdjust="spacing" textLength="11.2" x="508" y="959.1305">31</text><text fill="#000000" font-family="sans-serif" font-size="10.4" lengthAdjust="spacing" textLength="128.8" x="522.4" y="959.1305">create(teamMembers,skills)</text><rect fill="#E3E3E3" height="40.9938" rx="2" ry="2" style="stroke:#181818;stroke-width:0.4000000000000001;" width="43.2" x="1370.8" y="944.7078"/><text fill="#000000" font-family="sans-serif" font-size="11.2" lengthAdjust="spacing" textLength="24.8" x="1380" y="962.3938">team</text><text fill="#000000" font-family="sans-serif" font-size="11.2" lengthAdjust="spacing" textLength="32" x="1376.4" y="977.2906">:Team</text><polygon fill="#181818" points="511.2,1009.9344,503.2,1013.1344,511.2,1016.3344,508,1013.1344" style="stroke:#181818;stroke-width:0.8000000000000002;"/><line style="stroke:#181818;stroke-width:0.8000000000000002;stroke-dasharray:2.0,2.0;" x1="506.4" x2="1391.6" y1="1013.1344" y2="1013.1344"/><text fill="#000000" font-family="sans-serif" font-size="10.4" font-weight="bold" lengthAdjust="spacing" textLength="11.2" x="516" y="1008.9242">32</text><text fill="#000000" font-family="sans-serif" font-size="10.4" lengthAdjust="spacing" textLength="23.2" x="530.4" y="1008.9242">team</text><polygon fill="#181818" points="1133.6,1034.9672,1141.6,1038.1672,1133.6,1041.3672,1136.8,1038.1672" style="stroke:#181818;stroke-width:0.8000000000000002;"/><line style="stroke:#181818;stroke-width:0.8000000000000002;" x1="502.4" x2="1138.4" y1="1038.1672" y2="1038.1672"/><text fill="#000000" font-family="sans-serif" font-size="10.4" font-weight="bold" lengthAdjust="spacing" textLength="11.2" x="508" y="1033.957">33</text><text fill="#000000" font-family="sans-serif" font-size="10.4" lengthAdjust="spacing" textLength="89.6" x="522.4" y="1033.957">registerTeam(team)</text><line style="stroke:#181818;stroke-width:0.8000000000000002;" x1="1151.2" x2="1184.8" y1="1067.3164" y2="1067.3164"/><line style="stroke:#181818;stroke-width:0.8000000000000002;" x1="1184.8" x2="1184.8" y1="1067.3164" y2="1077.7164"/><line style="stroke:#181818;stroke-width:0.8000000000000002;" x1="1152" x2="1184.8" y1="1077.7164" y2="1077.7164"/><polygon fill="#181818" points="1160,1074.5164,1152,1077.7164,1160,1080.9164,1156.8,1077.7164" style="stroke:#181818;stroke-width:0.8000000000000002;"/><text fill="#000000" font-family="sans-serif" font-size="10.4" font-weight="bold" lengthAdjust="spacing" textLength="11.2" x="1156.8" y="1063.1063">34</text><text fill="#000000" font-family="sans-serif" font-size="10.4" lengthAdjust="spacing" textLength="117.6" x="1171.2" y="1063.1063">teamAlreadyExists(team)</text><path d="M898.4,1048.5672 L898.4,1083.7672 L1139.2,1083.7672 L1139.2,1056.5672 L1131.2,1048.5672 L898.4,1048.5672 " fill="#FAFAFA" style="stroke:#181818;stroke-width:0.4000000000000001;"/><path d="M1131.2,1048.5672 L1131.2,1056.5672 L1139.2,1056.5672 L1131.2,1048.5672 " fill="#FAFAFA" style="stroke:#181818;stroke-width:0.4000000000000001;"/><text fill="#000000" font-family="sans-serif" font-size="10.4" lengthAdjust="spacing" textLength="184.8" x="903.2" y="1063.7898">checks if the team already exists based</text><text fill="#000000" font-family="sans-serif" font-size="10.4" lengthAdjust="spacing" textLength="224" x="903.2" y="1077.6227">on collaborators and skills and returns a boolean</text><path d="M8,1093.8328 L56.8,1093.8328 L56.8,1101.2656 L48.8,1109.2656 L8,1109.2656 L8,1093.8328 " fill="#EEEEEE" style="stroke:#000000;stroke-width:1.2000000000000002;"/><rect fill="none" height="197.5672" style="stroke:#000000;stroke-width:1.2000000000000002;" width="1194.4" x="8" y="1093.8328"/><text fill="#000000" font-family="sans-serif" font-size="10.4" font-weight="bold" lengthAdjust="spacing" textLength="12.8" x="20" y="1105.8555">alt</text><text fill="#000000" font-family="sans-serif" font-size="8.8" font-weight="bold" lengthAdjust="spacing" textLength="44" x="68.8" y="1104.9289">[success]</text><polygon fill="#181818" points="511.2,1127.0984,503.2,1130.2984,511.2,1133.4984,508,1130.2984" style="stroke:#181818;stroke-width:0.8000000000000002;"/><line style="stroke:#181818;stroke-width:0.8000000000000002;stroke-dasharray:2.0,2.0;" x1="506.4" x2="1142.4" y1="1130.2984" y2="1130.2984"/><text fill="#000000" font-family="sans-serif" font-size="10.4" font-weight="bold" lengthAdjust="spacing" textLength="11.2" x="516" y="1126.0883">35</text><text fill="#000000" font-family="sans-serif" font-size="10.4" lengthAdjust="spacing" textLength="39.2" x="530.4" y="1126.0883">success</text><path d="M254.4,1113.2656 L254.4,1134.8656 L490.4,1134.8656 L490.4,1121.2656 L482.4,1113.2656 L254.4,1113.2656 " fill="#FAFAFA" style="stroke:#181818;stroke-width:0.4000000000000001;"/><path d="M482.4,1113.2656 L482.4,1121.2656 L490.4,1121.2656 L482.4,1113.2656 " fill="#FAFAFA" style="stroke:#181818;stroke-width:0.4000000000000001;"/><text fill="#000000" font-family="sans-serif" font-size="10.4" lengthAdjust="spacing" textLength="219.2" x="259.2" y="1128.4883">loops over each collaborator and activates them</text><polygon fill="#181818" points="298.4,1154.5313,290.4,1157.7313,298.4,1160.9313,295.2,1157.7313" style="stroke:#181818;stroke-width:0.8000000000000002;"/><line style="stroke:#181818;stroke-width:0.8000000000000002;stroke-dasharray:2.0,2.0;" x1="293.6" x2="493.6" y1="1157.7313" y2="1157.7313"/><text fill="#000000" font-family="sans-serif" font-size="10.4" font-weight="bold" lengthAdjust="spacing" textLength="11.2" x="303.2" y="1153.5211">36</text><text fill="#000000" font-family="sans-serif" font-size="10.4" lengthAdjust="spacing" textLength="23.2" x="317.6" y="1153.5211">team</text><polygon fill="#181818" points="101.6,1193.3969,93.6,1196.5969,101.6,1199.7969,98.4,1196.5969" style="stroke:#181818;stroke-width:0.8000000000000002;"/><line style="stroke:#181818;stroke-width:0.8000000000000002;stroke-dasharray:2.0,2.0;" x1="96.8" x2="280.8" y1="1196.5969" y2="1196.5969"/><text fill="#000000" font-family="sans-serif" font-size="10.4" font-weight="bold" lengthAdjust="spacing" textLength="11.2" x="106.4" y="1185.4703">37</text><text fill="#000000" font-family="sans-serif" font-size="10.4" lengthAdjust="spacing" textLength="155.2" x="120.8" y="1178.5539">shows success message and the</text><text fill="#000000" font-family="sans-serif" font-size="10.4" lengthAdjust="spacing" textLength="60.8" x="120.8" y="1192.3867">created team</text><line style="stroke:#000000;stroke-width:0.8000000000000002;stroke-dasharray:2.0,2.0;" x1="8" x2="1202.4" y1="1203.7969" y2="1203.7969"/><text fill="#000000" font-family="sans-serif" font-size="8.8" font-weight="bold" lengthAdjust="spacing" textLength="52" x="12" y="1213.293">[insuccess]</text><polygon fill="#181818" points="511.2,1231.7344,503.2,1234.9344,511.2,1238.1344,508,1234.9344" style="stroke:#181818;stroke-width:0.8000000000000002;"/><line style="stroke:#181818;stroke-width:0.8000000000000002;stroke-dasharray:2.0,2.0;" x1="506.4" x2="1142.4" y1="1234.9344" y2="1234.9344"/><text fill="#000000" font-family="sans-serif" font-size="10.4" font-weight="bold" lengthAdjust="spacing" textLength="11.2" x="516" y="1230.7242">38</text><text fill="#000000" font-family="sans-serif" font-size="10.4" lengthAdjust="spacing" textLength="47.2" x="530.4" y="1230.7242">insuccess</text><polygon fill="#181818" points="298.4,1256.7672,290.4,1259.9672,298.4,1263.1672,295.2,1259.9672" style="stroke:#181818;stroke-width:0.8000000000000002;"/><line style="stroke:#181818;stroke-width:0.8000000000000002;stroke-dasharray:2.0,2.0;" x1="293.6" x2="497.6" y1="1259.9672" y2="1259.9672"/><text fill="#000000" font-family="sans-serif" font-size="10.4" font-weight="bold" lengthAdjust="spacing" textLength="11.2" x="303.2" y="1255.757">39</text><text fill="#000000" font-family="sans-serif" font-size="10.4" lengthAdjust="spacing" textLength="92.8" x="317.6" y="1255.757">insuccess message</text><polygon fill="#181818" points="101.6,1281.8,93.6,1285,101.6,1288.2,98.4,1285" style="stroke:#181818;stroke-width:0.8000000000000002;"/><line style="stroke:#181818;stroke-width:0.8000000000000002;stroke-dasharray:2.0,2.0;" x1="96.8" x2="284.8" y1="1285" y2="1285"/><text fill="#000000" font-family="sans-serif" font-size="10.4" font-weight="bold" lengthAdjust="spacing" textLength="11.2" x="106.4" y="1280.7898">40</text><text fill="#000000" font-family="sans-serif" font-size="10.4" lengthAdjust="spacing" textLength="92.8" x="120.8" y="1280.7898">insuccess message</text><!--SRC=[hLVDJkCm4BxdAInE1PKNu834TbS22IH4owqNDvss5edTjPq2-_Gxu_mqTkoGHPj3rCOpt_nzCxRDcv17hdd9IYLLVj2g16Pr1PdfLeuyV-DxMDhF0fY6t7AvB_e2vi2twbt8FTlnma2MySegMPKRqFWxjqgpY_kgv9AzW56Lpi6m9ouHKrymRjZzorE6I5RauiYbPHSt2mtSmWfu-QpLKHbUl3uuqTU7BoKNIbgjYg81NwnU7h_KMO8-YHngXTHgWF82k2WmE076ANOVFfU2CeGvy5LqJsCjXm3FZtShNmDpN1Hdt9krNFfVd5xmBVCnB4RYGQoy3mx1_-JhvvXBlb6QuvA7iuWkr3cCBWtzmYoGwTg7NtTFMUO88qvO0KSBHczsVOk5PpSezMQOLMmF4ZI9S4OexDWK2iKxRMGA_gK7LH60U71rXI2vgs-preaxcZGVsuU-aMgai8Yp1_iW3JP33hFBG3C0Zp4Zgi6YjguRzz5edq9HX2sCMusRRICb1jQX1PnAH7WEqN4tAk8mUo44d8uhzS9mo5FTzecCNaznEvlYjjz6YUfzuJP1NTyc1ypLLS3E17ICgomzjzXtENmsc1o9RDBpdKRuXzP81ZwXN_vN1qN8cNJBOsnyLARwxLiTE4RkaTp51_zK4uDMw1Dub4yqhz4r6lpDo2_vXoWhF6Y8Fz37eHcV1Nk40RaDDFho2GD29Wr4uVloKVnkRhIpr3mAOsaW1MtSph1Wu0uLExrmkqzEXa1mC8G9E1lkWeFwBQCJktQyoqi7MDkFEZLCl8RVbT2mhVNDbDo7Acmq_Vc0QZFanfmgE6yGBXkN0uUp_WuprYTSQpmHGx-HpOzFbxHPQs7YE6sCfjR9aMXJrZpxsILl6tF6UDxKZrJeZnRxWqM8dIWiQA_lyPowuGQJZRFM7a3eDkjPR9k83mnlOYJy7vr5LFa2xnr1M5bgUuoxaSugRibOvfILhDwrnznh641h0tRD_NpM9nANzesoLfMijUlBiHrUnU8U-IKXMupBBOqyTk95XPSh-clu2PYGQqa7boUWovZ9HlQafcNgWquhFsbcqzFs2HtYUwViMGzithAlWtGdVdfr5I3nlj7cJj2XUsSmjxtlSUI0TfadvKll1X5SQyvC381Yq8HsLs0KsyzV7sZ4DFXUvzGbn6WFaECq4pjN4NSduRKk0wVCNCdM4clcbzcLoYN6_THWAotnDqAh0hZCU66PgNAyCvkq_xt1teX6tIoKEXgcJjZacEE3vueptsREK1nbbp1_rBiY3UUvEQXtqzfd9RxmWkzG4MijQq9i6sqe3B6pypOTq5aexasttfgCxpy3TuTwdfBRVN2_wRCH5Vy2]--></g></svg>