<?xml version="1.0" encoding="us-ascii" standalone="no"?><svg xmlns="http://www.w3.org/2000/svg" xmlns:xlink="http://www.w3.org/1999/xlink" contentStyleType="text/css" height="697.5px" preserveAspectRatio="none" style="width:1068px;height:697px;background:#FFFFFF;" version="1.1" viewBox="0 0 1068 697" width="1068.3px" zoomAndPan="magnify"><defs/><g><!--class CreateTeamProposalUI--><g id="elem_CreateTeamProposalUI"><rect codeLine="12" fill="#F1F1F1" height="43.2" id="CreateTeamProposalUI" rx="2.25" ry="2.25" style="stroke:#181818;stroke-width:0.45;" width="164.7" x="453.6" y="6.3"/><ellipse cx="467.1" cy="20.7" fill="#ADD1B2" rx="9.9" ry="9.9" style="stroke:#181818;stroke-width:0.9;"/><path d="M469.5891,16.9875 Q469.7297,16.7906 469.8984,16.6922 Q470.0672,16.5938 470.2641,16.5938 Q470.6016,16.5938 470.8125,16.8328 Q471.0234,17.0578 471.0234,17.6063 L471.0234,18.9141 Q471.0234,19.4625 470.8125,19.7016 Q470.6016,19.9406 470.2641,19.9406 Q469.9547,19.9406 469.7719,19.7578 Q469.5891,19.5891 469.4906,19.125 Q469.4484,18.8016 469.2797,18.6328 Q468.9844,18.2953 468.4359,18.0984 Q467.8875,17.9016 467.325,17.9016 Q466.6359,17.9016 466.0594,18.1969 Q465.4969,18.4922 465.0469,19.1672 Q464.6109,19.8422 464.6109,20.7703 L464.6109,21.7547 Q464.6109,22.8656 465.4125,23.6109 Q466.2141,24.3422 467.6484,24.3422 Q468.4922,24.3422 469.0828,24.1172 Q469.4344,23.9766 469.8141,23.5828 Q470.0531,23.3438 470.1797,23.2734 Q470.3203,23.2031 470.5031,23.2031 Q470.7984,23.2031 471.0234,23.4422 Q471.2625,23.6672 471.2625,23.9766 Q471.2625,24.2859 470.9531,24.6516 Q470.5031,25.1719 469.7859,25.4672 Q468.8156,25.875 467.6484,25.875 Q466.2844,25.875 465.2016,25.3125 Q464.3156,24.8625 463.6969,23.9063 Q463.0781,22.9359 463.0781,21.7828 L463.0781,20.7422 Q463.0781,19.5469 463.6266,18.5203 Q464.1891,17.4797 465.1734,16.9313 Q466.1578,16.3688 467.2688,16.3688 Q467.9297,16.3688 468.5063,16.5234 Q469.0969,16.6641 469.5891,16.9875 Z " fill="#000000"/><text fill="#000000" font-family="sans-serif" font-size="12.6" lengthAdjust="spacing" textLength="135.9" x="479.7" y="25.9172">:CreateTeamProposalUI</text><line style="stroke:#181818;stroke-width:0.45;" x1="454.5" x2="617.4" y1="35.1" y2="35.1"/><line style="stroke:#181818;stroke-width:0.45;" x1="454.5" x2="617.4" y1="42.3" y2="42.3"/></g><!--class CreateTeamProposalController--><g id="elem_CreateTeamProposalController"><rect codeLine="17" fill="#F1F1F1" height="76.718" id="CreateTeamProposalController" rx="2.25" ry="2.25" style="stroke:#181818;stroke-width:0.45;" width="229.5" x="421.2" y="104.4"/><ellipse cx="443.61" cy="118.8" fill="#ADD1B2" rx="9.9" ry="9.9" style="stroke:#181818;stroke-width:0.9;"/><path d="M446.0991,115.0875 Q446.2397,114.8906 446.4084,114.7922 Q446.5772,114.6938 446.7741,114.6938 Q447.1116,114.6938 447.3225,114.9328 Q447.5334,115.1578 447.5334,115.7063 L447.5334,117.0141 Q447.5334,117.5625 447.3225,117.8016 Q447.1116,118.0406 446.7741,118.0406 Q446.4647,118.0406 446.2819,117.8578 Q446.0991,117.6891 446.0006,117.225 Q445.9584,116.9016 445.7897,116.7328 Q445.4944,116.3953 444.9459,116.1984 Q444.3975,116.0016 443.835,116.0016 Q443.1459,116.0016 442.5694,116.2969 Q442.0069,116.5922 441.5569,117.2672 Q441.1209,117.9422 441.1209,118.8703 L441.1209,119.8547 Q441.1209,120.9656 441.9225,121.7109 Q442.7241,122.4422 444.1584,122.4422 Q445.0022,122.4422 445.5928,122.2172 Q445.9444,122.0766 446.3241,121.6828 Q446.5631,121.4438 446.6897,121.3734 Q446.8303,121.3031 447.0131,121.3031 Q447.3084,121.3031 447.5334,121.5422 Q447.7725,121.7672 447.7725,122.0766 Q447.7725,122.3859 447.4631,122.7516 Q447.0131,123.2719 446.2959,123.5672 Q445.3256,123.975 444.1584,123.975 Q442.7944,123.975 441.7116,123.4125 Q440.8256,122.9625 440.2069,122.0063 Q439.5881,121.0359 439.5881,119.8828 L439.5881,118.8422 Q439.5881,117.6469 440.1366,116.6203 Q440.6991,115.5797 441.6834,115.0313 Q442.6678,114.4688 443.7788,114.4688 Q444.4397,114.4688 445.0163,114.6234 Q445.6069,114.7641 446.0991,115.0875 Z " fill="#000000"/><text fill="#000000" font-family="sans-serif" font-size="12.6" lengthAdjust="spacing" textLength="180.9" x="458.19" y="124.0172">:CreateTeamProposalController</text><line style="stroke:#181818;stroke-width:0.45;" x1="422.1" x2="649.8" y1="133.2" y2="133.2"/><line style="stroke:#181818;stroke-width:0.45;" x1="422.1" x2="649.8" y1="140.4" y2="140.4"/><text fill="#000000" font-family="sans-serif" font-size="12.6" lengthAdjust="spacing" textLength="63" x="426.6" y="157.5967">+getSkills()</text><text fill="#000000" font-family="sans-serif" font-size="12.6" lengthAdjust="spacing" textLength="218.7" x="426.6" y="174.3557">+createTeamProposal(max, min, skills)</text></g><!--class Repositories--><g id="elem_Repositories"><rect codeLine="25" fill="#F1F1F1" height="110.2359" id="Repositories" rx="2.25" ry="2.25" style="stroke:#181818;stroke-width:0.45;" width="219.6" x="426.15" y="252"/><ellipse cx="494.775" cy="266.4" fill="#ADD1B2" rx="9.9" ry="9.9" style="stroke:#181818;stroke-width:0.9;"/><path d="M497.2641,262.6875 Q497.4047,262.4906 497.5734,262.3922 Q497.7422,262.2938 497.9391,262.2938 Q498.2766,262.2938 498.4875,262.5328 Q498.6984,262.7578 498.6984,263.3063 L498.6984,264.6141 Q498.6984,265.1625 498.4875,265.4016 Q498.2766,265.6406 497.9391,265.6406 Q497.6297,265.6406 497.4469,265.4578 Q497.2641,265.2891 497.1656,264.825 Q497.1234,264.5016 496.9547,264.3328 Q496.6594,263.9953 496.1109,263.7984 Q495.5625,263.6016 495,263.6016 Q494.3109,263.6016 493.7344,263.8969 Q493.1719,264.1922 492.7219,264.8672 Q492.2859,265.5422 492.2859,266.4703 L492.2859,267.4547 Q492.2859,268.5656 493.0875,269.3109 Q493.8891,270.0422 495.3234,270.0422 Q496.1672,270.0422 496.7578,269.8172 Q497.1094,269.6766 497.4891,269.2828 Q497.7281,269.0438 497.8547,268.9734 Q497.9953,268.9031 498.1781,268.9031 Q498.4734,268.9031 498.6984,269.1422 Q498.9375,269.3672 498.9375,269.6766 Q498.9375,269.9859 498.6281,270.3516 Q498.1781,270.8719 497.4609,271.1672 Q496.4906,271.575 495.3234,271.575 Q493.9594,271.575 492.8766,271.0125 Q491.9906,270.5625 491.3719,269.6063 Q490.7531,268.6359 490.7531,267.4828 L490.7531,266.4422 Q490.7531,265.2469 491.3016,264.2203 Q491.8641,263.1797 492.8484,262.6313 Q493.8328,262.0688 494.9438,262.0688 Q495.6047,262.0688 496.1813,262.2234 Q496.7719,262.3641 497.2641,262.6875 Z " fill="#000000"/><text fill="#000000" font-family="sans-serif" font-size="12.6" lengthAdjust="spacing" textLength="74.7" x="513.225" y="271.6172">:Repositories</text><line style="stroke:#181818;stroke-width:0.45;" x1="427.05" x2="644.85" y1="280.8" y2="280.8"/><line style="stroke:#181818;stroke-width:0.45;" x1="427.05" x2="644.85" y1="288" y2="288"/><text fill="#000000" font-family="sans-serif" font-size="12.6" lengthAdjust="spacing" textLength="160.2" x="431.55" y="305.1967">+getInstance(): Repositories</text><text fill="#000000" font-family="sans-serif" font-size="12.6" lengthAdjust="spacing" textLength="208.8" x="431.55" y="321.9557">+getSkillRepository(): SkillRepository</text><text fill="#000000" font-family="sans-serif" font-size="12.6" lengthAdjust="spacing" textLength="165.6" x="431.55" y="338.7146">+getCollaboratorRepository()</text><text fill="#000000" font-family="sans-serif" font-size="12.6" lengthAdjust="spacing" textLength="127.8" x="431.55" y="355.4736">+getTeamRepository()</text></g><!--class SkillRepository--><g id="elem_SkillRepository"><rect codeLine="32" fill="#F1F1F1" height="59.959" id="SkillRepository" rx="2.25" ry="2.25" style="stroke:#181818;stroke-width:0.45;" width="112.5" x="6.3" y="424.8"/><ellipse cx="19.8" cy="439.2" fill="#ADD1B2" rx="9.9" ry="9.9" style="stroke:#181818;stroke-width:0.9;"/><path d="M22.2891,435.4875 Q22.4297,435.2906 22.5984,435.1922 Q22.7672,435.0938 22.9641,435.0938 Q23.3016,435.0938 23.5125,435.3328 Q23.7234,435.5578 23.7234,436.1063 L23.7234,437.4141 Q23.7234,437.9625 23.5125,438.2016 Q23.3016,438.4406 22.9641,438.4406 Q22.6547,438.4406 22.4719,438.2578 Q22.2891,438.0891 22.1906,437.625 Q22.1484,437.3016 21.9797,437.1328 Q21.6844,436.7953 21.1359,436.5984 Q20.5875,436.4016 20.025,436.4016 Q19.3359,436.4016 18.7594,436.6969 Q18.1969,436.9922 17.7469,437.6672 Q17.3109,438.3422 17.3109,439.2703 L17.3109,440.2547 Q17.3109,441.3656 18.1125,442.1109 Q18.9141,442.8422 20.3484,442.8422 Q21.1922,442.8422 21.7828,442.6172 Q22.1344,442.4766 22.5141,442.0828 Q22.7531,441.8438 22.8797,441.7734 Q23.0203,441.7031 23.2031,441.7031 Q23.4984,441.7031 23.7234,441.9422 Q23.9625,442.1672 23.9625,442.4766 Q23.9625,442.7859 23.6531,443.1516 Q23.2031,443.6719 22.4859,443.9672 Q21.5156,444.375 20.3484,444.375 Q18.9844,444.375 17.9016,443.8125 Q17.0156,443.3625 16.3969,442.4063 Q15.7781,441.4359 15.7781,440.2828 L15.7781,439.2422 Q15.7781,438.0469 16.3266,437.0203 Q16.8891,435.9797 17.8734,435.4313 Q18.8578,434.8688 19.9688,434.8688 Q20.6297,434.8688 21.2063,435.0234 Q21.7969,435.1641 22.2891,435.4875 Z " fill="#000000"/><text fill="#000000" font-family="sans-serif" font-size="12.6" lengthAdjust="spacing" textLength="83.7" x="32.4" y="444.4172">SkillRepository</text><line style="stroke:#181818;stroke-width:0.45;" x1="7.2" x2="117.9" y1="453.6" y2="453.6"/><line style="stroke:#181818;stroke-width:0.45;" x1="7.2" x2="117.9" y1="460.8" y2="460.8"/><text fill="#000000" font-family="sans-serif" font-size="12.6" lengthAdjust="spacing" textLength="63" x="11.7" y="477.9967">+getSkills()</text></g><!--class HRM--><g id="elem_HRM"><rect codeLine="37" fill="#F1F1F1" height="43.2" id="HRM" rx="2.25" ry="2.25" style="stroke:#181818;stroke-width:0.45;" width="55.8" x="964.35" y="433.35"/><ellipse cx="977.85" cy="447.75" fill="#ADD1B2" rx="9.9" ry="9.9" style="stroke:#181818;stroke-width:0.9;"/><path d="M980.3391,444.0375 Q980.4797,443.8406 980.6484,443.7422 Q980.8172,443.6438 981.0141,443.6438 Q981.3516,443.6438 981.5625,443.8828 Q981.7734,444.1078 981.7734,444.6563 L981.7734,445.9641 Q981.7734,446.5125 981.5625,446.7516 Q981.3516,446.9906 981.0141,446.9906 Q980.7047,446.9906 980.5219,446.8078 Q980.3391,446.6391 980.2406,446.175 Q980.1984,445.8516 980.0297,445.6828 Q979.7344,445.3453 979.1859,445.1484 Q978.6375,444.9516 978.075,444.9516 Q977.3859,444.9516 976.8094,445.2469 Q976.2469,445.5422 975.7969,446.2172 Q975.3609,446.8922 975.3609,447.8203 L975.3609,448.8047 Q975.3609,449.9156 976.1625,450.6609 Q976.9641,451.3922 978.3984,451.3922 Q979.2422,451.3922 979.8328,451.1672 Q980.1844,451.0266 980.5641,450.6328 Q980.8031,450.3938 980.9297,450.3234 Q981.0703,450.2531 981.2531,450.2531 Q981.5484,450.2531 981.7734,450.4922 Q982.0125,450.7172 982.0125,451.0266 Q982.0125,451.3359 981.7031,451.7016 Q981.2531,452.2219 980.5359,452.5172 Q979.5656,452.925 978.3984,452.925 Q977.0344,452.925 975.9516,452.3625 Q975.0656,451.9125 974.4469,450.9563 Q973.8281,449.9859 973.8281,448.8328 L973.8281,447.7922 Q973.8281,446.5969 974.3766,445.5703 Q974.9391,444.5297 975.9234,443.9813 Q976.9078,443.4188 978.0188,443.4188 Q978.6797,443.4188 979.2563,443.5734 Q979.8469,443.7141 980.3391,444.0375 Z " fill="#000000"/><text fill="#000000" font-family="sans-serif" font-size="12.6" lengthAdjust="spacing" textLength="27" x="990.45" y="452.9672">HRM</text><line style="stroke:#181818;stroke-width:0.45;" x1="965.25" x2="1019.25" y1="462.15" y2="462.15"/><line style="stroke:#181818;stroke-width:0.45;" x1="965.25" x2="1019.25" y1="469.35" y2="469.35"/></g><!--class SystemUser--><g id="elem_SystemUser"><rect codeLine="39" fill="#F1F1F1" height="110.2359" id="SystemUser" rx="2.25" ry="2.25" style="stroke:#181818;stroke-width:0.45;" width="96.3" x="965.7" y="252"/><ellipse cx="979.2" cy="266.4" fill="#ADD1B2" rx="9.9" ry="9.9" style="stroke:#181818;stroke-width:0.9;"/><path d="M981.6891,262.6875 Q981.8297,262.4906 981.9984,262.3922 Q982.1672,262.2938 982.3641,262.2938 Q982.7016,262.2938 982.9125,262.5328 Q983.1234,262.7578 983.1234,263.3063 L983.1234,264.6141 Q983.1234,265.1625 982.9125,265.4016 Q982.7016,265.6406 982.3641,265.6406 Q982.0547,265.6406 981.8719,265.4578 Q981.6891,265.2891 981.5906,264.825 Q981.5484,264.5016 981.3797,264.3328 Q981.0844,263.9953 980.5359,263.7984 Q979.9875,263.6016 979.425,263.6016 Q978.7359,263.6016 978.1594,263.8969 Q977.5969,264.1922 977.1469,264.8672 Q976.7109,265.5422 976.7109,266.4703 L976.7109,267.4547 Q976.7109,268.5656 977.5125,269.3109 Q978.3141,270.0422 979.7484,270.0422 Q980.5922,270.0422 981.1828,269.8172 Q981.5344,269.6766 981.9141,269.2828 Q982.1531,269.0438 982.2797,268.9734 Q982.4203,268.9031 982.6031,268.9031 Q982.8984,268.9031 983.1234,269.1422 Q983.3625,269.3672 983.3625,269.6766 Q983.3625,269.9859 983.0531,270.3516 Q982.6031,270.8719 981.8859,271.1672 Q980.9156,271.575 979.7484,271.575 Q978.3844,271.575 977.3016,271.0125 Q976.4156,270.5625 975.7969,269.6063 Q975.1781,268.6359 975.1781,267.4828 L975.1781,266.4422 Q975.1781,265.2469 975.7266,264.2203 Q976.2891,263.1797 977.2734,262.6313 Q978.2578,262.0688 979.3688,262.0688 Q980.0297,262.0688 980.6063,262.2234 Q981.1969,262.3641 981.6891,262.6875 Z " fill="#000000"/><text fill="#000000" font-family="sans-serif" font-size="12.6" lengthAdjust="spacing" textLength="67.5" x="991.8" y="271.6172">SystemUser</text><line style="stroke:#181818;stroke-width:0.45;" x1="966.6" x2="1061.1" y1="280.8" y2="280.8"/><text fill="#000000" font-family="sans-serif" font-size="12.6" lengthAdjust="spacing" textLength="31.5" x="971.1" y="297.9967">name</text><text fill="#000000" font-family="sans-serif" font-size="12.6" lengthAdjust="spacing" textLength="29.7" x="971.1" y="314.7557">email</text><text fill="#000000" font-family="sans-serif" font-size="12.6" lengthAdjust="spacing" textLength="54" x="971.1" y="331.5146">password</text><text fill="#000000" font-family="sans-serif" font-size="12.6" lengthAdjust="spacing" textLength="36" x="971.1" y="348.2736">phone</text><line style="stroke:#181818;stroke-width:0.45;" x1="966.6" x2="1061.1" y1="355.0359" y2="355.0359"/></g><!--class CollaboratorRepository--><g id="elem_CollaboratorRepository"><rect codeLine="46" fill="#F1F1F1" height="59.959" id="CollaboratorRepository" rx="2.25" ry="2.25" style="stroke:#181818;stroke-width:0.45;" width="252" x="150.75" y="424.8"/><ellipse cx="207.225" cy="439.2" fill="#ADD1B2" rx="9.9" ry="9.9" style="stroke:#181818;stroke-width:0.9;"/><path d="M209.7141,435.4875 Q209.8547,435.2906 210.0234,435.1922 Q210.1922,435.0938 210.3891,435.0938 Q210.7266,435.0938 210.9375,435.3328 Q211.1484,435.5578 211.1484,436.1063 L211.1484,437.4141 Q211.1484,437.9625 210.9375,438.2016 Q210.7266,438.4406 210.3891,438.4406 Q210.0797,438.4406 209.8969,438.2578 Q209.7141,438.0891 209.6156,437.625 Q209.5734,437.3016 209.4047,437.1328 Q209.1094,436.7953 208.5609,436.5984 Q208.0125,436.4016 207.45,436.4016 Q206.7609,436.4016 206.1844,436.6969 Q205.6219,436.9922 205.1719,437.6672 Q204.7359,438.3422 204.7359,439.2703 L204.7359,440.2547 Q204.7359,441.3656 205.5375,442.1109 Q206.3391,442.8422 207.7734,442.8422 Q208.6172,442.8422 209.2078,442.6172 Q209.5594,442.4766 209.9391,442.0828 Q210.1781,441.8438 210.3047,441.7734 Q210.4453,441.7031 210.6281,441.7031 Q210.9234,441.7031 211.1484,441.9422 Q211.3875,442.1672 211.3875,442.4766 Q211.3875,442.7859 211.0781,443.1516 Q210.6281,443.6719 209.9109,443.9672 Q208.9406,444.375 207.7734,444.375 Q206.4094,444.375 205.3266,443.8125 Q204.4406,443.3625 203.8219,442.4063 Q203.2031,441.4359 203.2031,440.2828 L203.2031,439.2422 Q203.2031,438.0469 203.7516,437.0203 Q204.3141,435.9797 205.2984,435.4313 Q206.2828,434.8688 207.3938,434.8688 Q208.0547,434.8688 208.6313,435.0234 Q209.2219,435.1641 209.7141,435.4875 Z " fill="#000000"/><text fill="#000000" font-family="sans-serif" font-size="12.6" lengthAdjust="spacing" textLength="131.4" x="225.675" y="444.4172">CollaboratorRepository</text><line style="stroke:#181818;stroke-width:0.45;" x1="151.65" x2="401.85" y1="453.6" y2="453.6"/><line style="stroke:#181818;stroke-width:0.45;" x1="151.65" x2="401.85" y1="460.8" y2="460.8"/><text fill="#000000" font-family="sans-serif" font-size="12.6" lengthAdjust="spacing" textLength="241.2" x="156.15" y="477.9967">getDeactivatedCollaboratorsBySkills(skills)</text></g><!--class TeamRepository--><g id="elem_TeamRepository"><rect codeLine="50" fill="#F1F1F1" height="76.718" id="TeamRepository" rx="2.25" ry="2.25" style="stroke:#181818;stroke-width:0.45;" width="257.4" x="589.95" y="416.7"/><ellipse cx="668.025" cy="431.1" fill="#ADD1B2" rx="9.9" ry="9.9" style="stroke:#181818;stroke-width:0.9;"/><path d="M670.5141,427.3875 Q670.6547,427.1906 670.8234,427.0922 Q670.9922,426.9938 671.1891,426.9938 Q671.5266,426.9938 671.7375,427.2328 Q671.9484,427.4578 671.9484,428.0063 L671.9484,429.3141 Q671.9484,429.8625 671.7375,430.1016 Q671.5266,430.3406 671.1891,430.3406 Q670.8797,430.3406 670.6969,430.1578 Q670.5141,429.9891 670.4156,429.525 Q670.3734,429.2016 670.2047,429.0328 Q669.9094,428.6953 669.3609,428.4984 Q668.8125,428.3016 668.25,428.3016 Q667.5609,428.3016 666.9844,428.5969 Q666.4219,428.8922 665.9719,429.5672 Q665.5359,430.2422 665.5359,431.1703 L665.5359,432.1547 Q665.5359,433.2656 666.3375,434.0109 Q667.1391,434.7422 668.5734,434.7422 Q669.4172,434.7422 670.0078,434.5172 Q670.3594,434.3766 670.7391,433.9828 Q670.9781,433.7438 671.1047,433.6734 Q671.2453,433.6031 671.4281,433.6031 Q671.7234,433.6031 671.9484,433.8422 Q672.1875,434.0672 672.1875,434.3766 Q672.1875,434.6859 671.8781,435.0516 Q671.4281,435.5719 670.7109,435.8672 Q669.7406,436.275 668.5734,436.275 Q667.2094,436.275 666.1266,435.7125 Q665.2406,435.2625 664.6219,434.3063 Q664.0031,433.3359 664.0031,432.1828 L664.0031,431.1422 Q664.0031,429.9469 664.5516,428.9203 Q665.1141,427.8797 666.0984,427.3313 Q667.0828,426.7688 668.1938,426.7688 Q668.8547,426.7688 669.4313,426.9234 Q670.0219,427.0641 670.5141,427.3875 Z " fill="#000000"/><text fill="#000000" font-family="sans-serif" font-size="12.6" lengthAdjust="spacing" textLength="93.6" x="686.475" y="436.3172">TeamRepository</text><line style="stroke:#181818;stroke-width:0.45;" x1="590.85" x2="846.45" y1="445.5" y2="445.5"/><line style="stroke:#181818;stroke-width:0.45;" x1="590.85" x2="846.45" y1="452.7" y2="452.7"/><text fill="#000000" font-family="sans-serif" font-size="12.6" lengthAdjust="spacing" textLength="246.6" x="595.35" y="469.8967">+createTeam(selectedCollaborators, skills )</text><text fill="#000000" font-family="sans-serif" font-size="12.6" lengthAdjust="spacing" textLength="67.5" x="595.35" y="486.6557">-addTeam()</text></g><g id="elem_GMN10"><path d="M554.85,599.85 L554.85,655.5357 A0,0 0 0 0 554.85,655.5357 L783.45,655.5357 A0,0 0 0 0 783.45,655.5357 L783.45,608.85 L774.45,599.85 L680.589,599.85 L707.787,493.38 L673.389,599.85 L554.85,599.85 A0,0 0 0 0 554.85,599.85 " fill="#FEFFDD" style="stroke:#181818;stroke-width:0.45;"/><path d="M774.45,599.85 L774.45,608.85 L783.45,608.85 L774.45,599.85 " fill="#FEFFDD" style="stroke:#181818;stroke-width:0.45;"/><text fill="#000000" font-family="sans-serif" font-size="11.7" lengthAdjust="spacing" textLength="209.7" x="560.25" y="616.9755">the selected collaborators were selected</text><text fill="#000000" font-family="sans-serif" font-size="11.7" lengthAdjust="spacing" textLength="187.2" x="560.25" y="632.5374">based on the max and min size   on</text><text fill="#000000" font-family="sans-serif" font-size="11.7" lengthAdjust="spacing" textLength="158.4" x="560.25" y="648.0993">CreateTeamProposalController</text></g><!--class Team--><g id="elem_Team"><rect codeLine="56" fill="#F1F1F1" height="126.9949" id="Team" rx="2.25" ry="2.25" style="stroke:#181818;stroke-width:0.45;" width="227.7" x="815.4" y="564.3"/><ellipse cx="909.225" cy="578.7" fill="#ADD1B2" rx="9.9" ry="9.9" style="stroke:#181818;stroke-width:0.9;"/><path d="M911.7141,574.9875 Q911.8547,574.7906 912.0234,574.6922 Q912.1922,574.5938 912.3891,574.5938 Q912.7266,574.5938 912.9375,574.8328 Q913.1484,575.0578 913.1484,575.6063 L913.1484,576.9141 Q913.1484,577.4625 912.9375,577.7016 Q912.7266,577.9406 912.3891,577.9406 Q912.0797,577.9406 911.8969,577.7578 Q911.7141,577.5891 911.6156,577.125 Q911.5734,576.8016 911.4047,576.6328 Q911.1094,576.2953 910.5609,576.0984 Q910.0125,575.9016 909.45,575.9016 Q908.7609,575.9016 908.1844,576.1969 Q907.6219,576.4922 907.1719,577.1672 Q906.7359,577.8422 906.7359,578.7703 L906.7359,579.7547 Q906.7359,580.8656 907.5375,581.6109 Q908.3391,582.3422 909.7734,582.3422 Q910.6172,582.3422 911.2078,582.1172 Q911.5594,581.9766 911.9391,581.5828 Q912.1781,581.3438 912.3047,581.2734 Q912.4453,581.2031 912.6281,581.2031 Q912.9234,581.2031 913.1484,581.4422 Q913.3875,581.6672 913.3875,581.9766 Q913.3875,582.2859 913.0781,582.6516 Q912.6281,583.1719 911.9109,583.4672 Q910.9406,583.875 909.7734,583.875 Q908.4094,583.875 907.3266,583.3125 Q906.4406,582.8625 905.8219,581.9063 Q905.2031,580.9359 905.2031,579.7828 L905.2031,578.7422 Q905.2031,577.5469 905.7516,576.5203 Q906.3141,575.4797 907.2984,574.9313 Q908.2828,574.3688 909.3938,574.3688 Q910.0547,574.3688 910.6313,574.5234 Q911.2219,574.6641 911.7141,574.9875 Z " fill="#000000"/><text fill="#000000" font-family="sans-serif" font-size="12.6" lengthAdjust="spacing" textLength="32.4" x="927.675" y="583.9172">Team</text><line style="stroke:#181818;stroke-width:0.45;" x1="816.3" x2="1042.2" y1="593.1" y2="593.1"/><text fill="#000000" font-family="sans-serif" font-size="12.6" lengthAdjust="spacing" textLength="93.6" x="820.8" y="610.2967">-Integer maxSize</text><text fill="#000000" font-family="sans-serif" font-size="12.6" lengthAdjust="spacing" textLength="90.9" x="820.8" y="627.0557">-Integer minSize</text><text fill="#000000" font-family="sans-serif" font-size="12.6" lengthAdjust="spacing" textLength="171.9" x="820.8" y="643.8146">-ArrayList&lt;Skill&gt; requiredSkills</text><text fill="#000000" font-family="sans-serif" font-size="12.6" lengthAdjust="spacing" textLength="216.9" x="820.8" y="660.5736">-ArrayList&lt;Collaborator&gt; collaborators</text><line style="stroke:#181818;stroke-width:0.45;" x1="816.3" x2="1042.2" y1="667.3359" y2="667.3359"/><text fill="#000000" font-family="sans-serif" font-size="12.6" lengthAdjust="spacing" textLength="176.4" x="820.8" y="684.5326">+create(selectedCollaborators)</text></g><g id="elem_GMN14"><path d="M434.7,434.7 L434.7,474.8238 L558,474.8238 L558,443.7 L549,434.7 L434.7,434.7 " fill="#FEFFDD" style="stroke:#181818;stroke-width:0.45;"/><path d="M549,434.7 L549,443.7 L558,443.7 L549,434.7 " fill="#FEFFDD" style="stroke:#181818;stroke-width:0.9;"/><text fill="#000000" font-family="sans-serif" font-size="11.7" lengthAdjust="spacing" textLength="91.8" x="440.1" y="451.8255">filter collaborators</text><text fill="#000000" font-family="sans-serif" font-size="11.7" lengthAdjust="spacing" textLength="104.4" x="440.1" y="467.3874">based on their skills</text></g><!--link CollaboratorRepository to GMN14--><g id="link_CollaboratorRepository_GMN14"><path d="M402.759,454.95 C414.306,454.95 423.153,454.95 423.153,454.95 C423.153,454.95 427.725,454.95 434.592,454.95 " fill="none" id="CollaboratorRepository-GMN14" style="stroke:#181818;stroke-width:0.9;stroke-dasharray:7.0,7.0;"/></g><!--reverse link SystemUser to HRM--><g id="link_SystemUser_HRM"><path codeLine="67" d="M1003.4993,377.871 C999.8453,402.603 998.1,414.45 995.355,433.008 " fill="none" id="SystemUser-backto-HRM" style="stroke:#181818;stroke-width:0.9;"/><polygon fill="none" points="1005.867,361.845,998.1572,377.0818,1008.8413,378.6603,1005.867,361.845" style="stroke:#181818;stroke-width:0.9;"/></g><!--link CreateTeamProposalUI to CreateTeamProposalController--><g id="link_CreateTeamProposalUI_CreateTeamProposalController"><path codeLine="68" d="M535.95,49.518 C535.95,64.8 535.95,80.622 535.95,98.856 " fill="none" id="CreateTeamProposalUI-to-CreateTeamProposalController" style="stroke:#181818;stroke-width:0.9;stroke-dasharray:7.0,7.0;"/><polygon fill="#181818" points="535.95,104.256,539.55,96.156,535.95,99.756,532.35,96.156,535.95,104.256" style="stroke:#181818;stroke-width:0.9;"/></g><!--link Repositories to Repositories--><g id="link_Repositories_Repositories"><path codeLine="69" d="M645.849,292.752 C664.416,294.705 677.25,299.421 677.25,306.9 C677.25,314.379 669.7864,318.5301 651.2194,320.4831 " fill="none" id="Repositories-to-Repositories" style="stroke:#181818;stroke-width:0.9;"/><polygon fill="#181818" points="645.849,321.048,654.2812,323.7809,650.3243,320.5773,653.528,316.6204,645.849,321.048" style="stroke:#181818;stroke-width:0.9;"/><text fill="#000000" font-family="sans-serif" font-size="11.7" lengthAdjust="spacing" textLength="44.1" x="682.65" y="311.8755">instance</text></g><!--link CreateTeamProposalController to Repositories--><g id="link_CreateTeamProposalController_Repositories"><path codeLine="70" d="M535.95,181.224 C535.95,202.221 535.95,223.326 535.95,246.51 " fill="none" id="CreateTeamProposalController-to-Repositories" style="stroke:#181818;stroke-width:0.9;stroke-dasharray:7.0,7.0;"/><polygon fill="#181818" points="535.95,251.91,539.55,243.81,535.95,247.41,532.35,243.81,535.95,251.91" style="stroke:#181818;stroke-width:0.9;"/><text fill="#000000" font-family="sans-serif" font-size="11.7" lengthAdjust="spacing" textLength="60.3" x="536.85" y="221.4255">repositories</text></g><!--link Repositories to SkillRepository--><g id="link_Repositories_SkillRepository"><path codeLine="71" d="M426.132,352.017 C411.732,357.822 401.85,361.8 401.85,361.8 C401.85,361.8 134.55,416.7 134.55,416.7 C134.55,416.7 132.8274,417.5883 123.7194,422.3133 " fill="none" id="Repositories-to-SkillRepository" style="stroke:#181818;stroke-width:0.9;"/><polygon fill="#181818" points="118.926,424.8,127.7738,424.2656,122.9205,422.7278,124.4583,417.8744,118.926,424.8" style="stroke:#181818;stroke-width:0.9;"/><text fill="#000000" font-family="sans-serif" font-size="11.7" lengthAdjust="spacing" textLength="6.3" x="126.1807" y="417.5554">1</text></g><!--link Repositories to CollaboratorRepository--><g id="link_Repositories_CollaboratorRepository"><path codeLine="72" d="M440.172,361.845 C402.534,383.076 365.504,403.9753 333.635,421.9573 " fill="none" id="Repositories-to-CollaboratorRepository" style="stroke:#181818;stroke-width:0.9;"/><polygon fill="#181818" points="328.932,424.611,337.7556,423.7659,332.8512,422.3996,334.2174,417.4952,328.932,424.611" style="stroke:#181818;stroke-width:0.9;"/><text fill="#000000" font-family="sans-serif" font-size="11.7" lengthAdjust="spacing" textLength="6.3" x="331.9787" y="414.7523">1</text></g><!--link Repositories to TeamRepository--><g id="link_Repositories_TeamRepository"><path codeLine="73" d="M603.459,361.845 C626.229,380.07 646.9074,396.6213 667.7064,413.2713 " fill="none" id="Repositories-to-TeamRepository" style="stroke:#181818;stroke-width:0.9;"/><polygon fill="#181818" points="671.922,416.646,667.8484,408.7736,668.409,413.8338,663.3488,414.3944,671.922,416.646" style="stroke:#181818;stroke-width:0.9;"/><text fill="#000000" font-family="sans-serif" font-size="11.7" lengthAdjust="spacing" textLength="6.3" x="657.6727" y="406.6511">1</text></g><!--link CreateTeamProposalController to TeamRepository--><g id="link_CreateTeamProposalController_TeamRepository"><path codeLine="74" d="M604.053,181.026 C661.032,212.373 733.05,252 733.05,252 C733.05,252 733.05,361.8 733.05,361.8 C733.05,361.8 729.3288,385.6516 725.3418,411.1936 " fill="none" id="CreateTeamProposalController-to-TeamRepository" style="stroke:#181818;stroke-width:0.9;stroke-dasharray:7.0,7.0;"/><polygon fill="#181818" points="724.509,416.529,729.3152,409.0811,725.203,412.0828,722.2013,407.9707,724.509,416.529" style="stroke:#181818;stroke-width:0.9;"/><text fill="#000000" font-family="sans-serif" font-size="11.7" lengthAdjust="spacing" textLength="84.6" x="733.95" y="311.8755">TeamRepository</text></g><!--link TeamRepository to Team--><g id="link_TeamRepository_Team"><path codeLine="75" d="M764.865,493.38 C790.416,514.125 818.6333,537.0276 847.9103,560.8056 " fill="none" id="TeamRepository-to-Team" style="stroke:#181818;stroke-width:0.9;"/><polygon fill="#181818" points="852.102,564.21,848.0841,556.309,848.6089,561.373,843.5449,561.8979,852.102,564.21" style="stroke:#181818;stroke-width:0.9;"/><text fill="#000000" font-family="sans-serif" font-size="11.7" lengthAdjust="spacing" textLength="4.5" x="839.4141" y="554.2026">*</text></g><!--link CreateTeamProposalController to Team--><g id="link_CreateTeamProposalController_Team"><path codeLine="76" d="M604.053,181.026 C661.032,212.373 733.05,252 733.05,252 C733.05,252 787.95,361.8 787.95,361.8 C787.95,361.8 863.55,416.7 863.55,416.7 C863.55,416.7 888.6598,497.001 908.0188,558.93 " fill="none" id="CreateTeamProposalController-to-Team" style="stroke:#181818;stroke-width:0.9;"/><polygon fill="#181818" points="909.63,564.084,910.6493,555.2788,908.2874,559.789,903.7772,557.427,909.63,564.084" style="stroke:#181818;stroke-width:0.9;"/></g><!--link CreateTeamProposalController to SkillRepository--><g id="link_CreateTeamProposalController_SkillRepository"><path codeLine="77" d="M420.984,180.495 C323.172,211.923 198.45,252 198.45,252 C198.45,252 123.0196,364.1501 85.3276,420.1931 " fill="none" id="CreateTeamProposalController-to-SkillRepository" style="stroke:#181818;stroke-width:0.9;stroke-dasharray:7.0,7.0;"/><polygon fill="#181818" points="82.314,424.674,89.8217,419.9618,84.8254,420.94,83.8472,415.9436,82.314,424.674" style="stroke:#181818;stroke-width:0.9;"/><text fill="#000000" font-family="sans-serif" font-size="11.7" lengthAdjust="spacing" textLength="76.5" x="199.35" y="311.8755">skillRepository</text></g><!--link CreateTeamProposalController to CollaboratorRepository--><g id="link_CreateTeamProposalController_CollaboratorRepository"><path codeLine="78" d="M451.674,181.026 C381.177,212.373 292.05,252 292.05,252 C292.05,252 283.6291,363.2464 279.3811,419.2894 " fill="none" id="CreateTeamProposalController-to-CollaboratorRepository" style="stroke:#181818;stroke-width:0.9;stroke-dasharray:7.0,7.0;"/><polygon fill="#181818" points="278.973,424.674,283.1749,416.8693,279.3131,420.1869,275.9955,416.3251,278.973,424.674" style="stroke:#181818;stroke-width:0.9;"/><text fill="#000000" font-family="sans-serif" font-size="11.7" lengthAdjust="spacing" textLength="116.1" x="292.95" y="311.8755">collaboratorRepository</text></g><!--link HRM to Team--><g id="link_HRM_Team"><path codeLine="79" d="M984.528,476.82 C976.545,498.492 965.5504,528.3178 954.2464,559.0078 " fill="none" id="HRM-to-Team" style="stroke:#181818;stroke-width:0.9;"/><polygon fill="#181818" points="952.38,564.075,958.5577,557.7185,953.9353,559.8523,951.8015,555.2299,952.38,564.075" style="stroke:#181818;stroke-width:0.9;"/><text fill="#000000" font-family="sans-serif" font-size="11.7" lengthAdjust="spacing" textLength="51.3" x="968.85" y="533.7255">generates</text></g><!--SRC=[bLJ1Rjim3BthAuXUagnDiLsD8a2R7HPW0uPclVMYs4mYH9OyILdcTVttKN9YIwwJOZd5v2FV8qLoP7T2LTpm4agjTBurkaHmPe-iyrGyt_4DBbqj4GpcZgkDZ05somjz46e3Qovjx952eQihX4hBsd-mqO1J6wTP59LBRkszSqQizWuNkLPByGVX8sCZYMi7JeCHcws3GdWvGYl6M0Y2gsnka3lyWRpyRdIbBPTFYolW5eOSyCBOwyNWkLREQ2dHd4dI0IZPzGRTSYUajEC90_fTvsy2nYN_VGEbK3TW0tJIQ6X5F2BXXDD6e0saiO58GbuYMYXBJv7ZU98ba1OGbBIUskDwfXOwfmhuIXjErZYY1VWA4iThAxYNCqZksIBLRNkw35yUly5B-xMihSFooOQ6-YZ5Imn_iEH2XdyL0G_Q5Ct7LjDWTNg6QscURz1rv05Iznav3TGlUh8Ynjg7-gZxz6GTNTgPG9EQJiLtep2sA6bmUnodUO2cwrDU507ioPHs22ljd2v1hti46RWjmYadv75IEA3fVCzgnIr1j0eXD8d0LU674QnVCI3Fixeqv4dPRR774gSBvN133qU9_ShsZ49rndjZUFrLM7SN6ZkZm_9pJ-jSD7tkW-96pT8AMTpTuSusmmQXYStbe1wUdPCCra8w4fpGfAqJvlXOB1hNkx_JgHzcDdXgRczd5yy7IzPyEalNFWDnN7TsyGPvbZWmeyP6fo7b89AhJ_tzVOCXo9d56KoNpkRxQlkpt8llxLB3yY6mNCxjWU-Zl89U0xBcQV-dXk7sPCa4HVdymVFoWhwCxev2Wg3z1m00]--></g></svg>