<?xml version="1.0" encoding="us-ascii" standalone="no"?><svg xmlns="http://www.w3.org/2000/svg" xmlns:xlink="http://www.w3.org/1999/xlink" contentStyleType="text/css" height="1339px" preserveAspectRatio="none" style="width:1802px;height:1339px;background:#FFFFFF;" version="1.1" viewBox="0 0 1802 1339" width="1802px" zoomAndPan="magnify"><defs/><g><rect fill="#FFFFFF" height="1144.7578" style="stroke:#181818;stroke-width:1.0;" width="10" x="91" y="93.6211"/><rect fill="#FFFFFF" height="74.9121" style="stroke:#181818;stroke-width:1.0;" width="10" x="325" y="116.9121"/><rect fill="#FFFFFF" height="31.291" style="stroke:#181818;stroke-width:1.0;" width="10" x="325" y="223.1152"/><rect fill="#FFFFFF" height="281.6191" style="stroke:#181818;stroke-width:1.0;" width="10" x="325" y="285.6973"/><rect fill="#FFFFFF" height="639.7715" style="stroke:#181818;stroke-width:1.0;" width="10" x="325" y="598.6074"/><rect fill="#FFFFFF" height="219.0371" style="stroke:#181818;stroke-width:1.0;" width="10" x="591" y="316.9883"/><rect fill="#FFFFFF" height="617.4805" style="stroke:#181818;stroke-width:1.0;" width="10" x="591" y="629.8984"/><rect fill="#FFFFFF" height="345.8613" style="stroke:#181818;stroke-width:1.0;" width="10" x="596" y="861.2266"/><rect fill="#FFFFFF" height="31.291" style="stroke:#181818;stroke-width:1.0;" width="10" x="757" y="348.2793"/><rect fill="#FFFFFF" height="31.291" style="stroke:#181818;stroke-width:1.0;" width="10" x="757" y="661.1895"/><rect fill="#FFFFFF" height="31.291" style="stroke:#181818;stroke-width:1.0;" width="10" x="757" y="912.8086"/><rect fill="#FFFFFF" height="31.291" style="stroke:#181818;stroke-width:1.0;" width="10" x="864" y="410.8613"/><rect fill="#FFFFFF" height="31.291" style="stroke:#181818;stroke-width:1.0;" width="10" x="864" y="723.7715"/><rect fill="#FFFFFF" height="31.291" style="stroke:#181818;stroke-width:1.0;" width="10" x="864" y="975.3906"/><rect fill="#FFFFFF" height="31.291" style="stroke:#181818;stroke-width:1.0;" width="10" x="977" y="473.4434"/><rect fill="#FFFFFF" height="63.2275" style="stroke:#181818;stroke-width:1.0;" width="10" x="1122" y="797.999"/><rect fill="#FFFFFF" height="137.8242" style="stroke:#181818;stroke-width:1.0;" width="10" x="1271.5" y="1037.9727"/><line style="stroke:#181818;stroke-width:0.5;stroke-dasharray:5.0,5.0;" x1="96" x2="96" y1="83.6211" y2="1256.3789"/><line style="stroke:#181818;stroke-width:0.5;stroke-dasharray:5.0,5.0;" x1="329.5" x2="329.5" y1="83.6211" y2="1256.3789"/><line style="stroke:#181818;stroke-width:0.5;stroke-dasharray:5.0,5.0;" x1="595.5" x2="595.5" y1="156.7227" y2="1256.3789"/><line style="stroke:#181818;stroke-width:0.5;stroke-dasharray:5.0,5.0;" x1="761.5" x2="761.5" y1="83.6211" y2="1256.3789"/><line style="stroke:#181818;stroke-width:0.5;stroke-dasharray:5.0,5.0;" x1="868.5" x2="868.5" y1="83.6211" y2="1256.3789"/><line style="stroke:#181818;stroke-width:0.5;stroke-dasharray:5.0,5.0;" x1="981.5" x2="981.5" y1="83.6211" y2="1256.3789"/><line style="stroke:#181818;stroke-width:0.5;stroke-dasharray:5.0,5.0;" x1="1126.5" x2="1126.5" y1="83.6211" y2="1256.3789"/><line style="stroke:#181818;stroke-width:0.5;stroke-dasharray:5.0,5.0;" x1="1276.5" x2="1276.5" y1="83.6211" y2="1256.3789"/><line style="stroke:#181818;stroke-width:0.5;stroke-dasharray:5.0,5.0;" x1="1519.5" x2="1519.5" y1="1087.0938" y2="1256.3789"/><text fill="#000000" font-family="sans-serif" font-size="14" lengthAdjust="spacing" textLength="176" x="5" y="80.1074">Human Resources Manager</text><ellipse cx="96" cy="13.5" fill="#E3E3E3" rx="8" ry="8" style="stroke:#181818;stroke-width:0.5;"/><path d="M96,21.5 L96,48.5 M83,29.5 L109,29.5 M96,48.5 L83,63.5 M96,48.5 L109,63.5 " fill="none" style="stroke:#181818;stroke-width:0.5;"/><text fill="#000000" font-family="sans-serif" font-size="14" lengthAdjust="spacing" textLength="176" x="5" y="1270.4863">Human Resources Manager</text><ellipse cx="96" cy="1282.5" fill="#E3E3E3" rx="8" ry="8" style="stroke:#181818;stroke-width:0.5;"/><path d="M96,1290.5 L96,1317.5 M83,1298.5 L109,1298.5 M96,1317.5 L83,1332.5 M96,1317.5 L109,1332.5 " fill="none" style="stroke:#181818;stroke-width:0.5;"/><rect fill="#E3E3E3" height="32.6211" rx="2.5" ry="2.5" style="stroke:#181818;stroke-width:0.5;" width="165" x="247.5" y="50"/><text fill="#000000" font-family="sans-serif" font-size="14" lengthAdjust="spacing" textLength="151" x="254.5" y="72.1074">:CreateTeamProposalUI</text><rect fill="#E3E3E3" height="32.6211" rx="2.5" ry="2.5" style="stroke:#181818;stroke-width:0.5;" width="165" x="247.5" y="1255.3789"/><text fill="#000000" font-family="sans-serif" font-size="14" lengthAdjust="spacing" textLength="151" x="254.5" y="1277.4863">:CreateTeamProposalUI</text><rect fill="#E3E3E3" height="32.6211" rx="2.5" ry="2.5" style="stroke:#181818;stroke-width:0.5;" width="215" x="488.5" y="1255.3789"/><text fill="#000000" font-family="sans-serif" font-size="14" lengthAdjust="spacing" textLength="201" x="495.5" y="1277.4863">:CreateTeamProposalController</text><rect fill="#E3E3E3" height="32.6211" rx="2.5" ry="2.5" style="stroke:#181818;stroke-width:0.5;" width="97" x="713.5" y="50"/><text fill="#000000" font-family="sans-serif" font-size="14" lengthAdjust="spacing" textLength="83" x="720.5" y="72.1074">:Repositories</text><rect fill="#E3E3E3" height="32.6211" rx="2.5" ry="2.5" style="stroke:#181818;stroke-width:0.5;" width="97" x="713.5" y="1255.3789"/><text fill="#000000" font-family="sans-serif" font-size="14" lengthAdjust="spacing" textLength="83" x="720.5" y="1277.4863">:Repositories</text><rect fill="#E3E3E3" height="51.2422" rx="2.5" ry="2.5" style="stroke:#181818;stroke-width:0.5;" width="97" x="820.5" y="31.3789"/><text fill="#000000" font-family="sans-serif" font-size="14" lengthAdjust="spacing" textLength="74" x="832" y="53.4863">repositories</text><text fill="#000000" font-family="sans-serif" font-size="14" lengthAdjust="spacing" textLength="83" x="827.5" y="72.1074">:Repositories</text><rect fill="#E3E3E3" height="51.2422" rx="2.5" ry="2.5" style="stroke:#181818;stroke-width:0.5;" width="97" x="820.5" y="1255.3789"/><text fill="#000000" font-family="sans-serif" font-size="14" lengthAdjust="spacing" textLength="74" x="832" y="1277.4863">repositories</text><text fill="#000000" font-family="sans-serif" font-size="14" lengthAdjust="spacing" textLength="83" x="827.5" y="1296.1074">:Repositories</text><rect fill="#E3E3E3" height="51.2422" rx="2.5" ry="2.5" style="stroke:#181818;stroke-width:0.5;" width="109" x="927.5" y="31.3789"/><text fill="#000000" font-family="sans-serif" font-size="14" lengthAdjust="spacing" textLength="95" x="934.5" y="53.4863">skillRepository:</text><text fill="#000000" font-family="sans-serif" font-size="14" lengthAdjust="spacing" textLength="93" x="935.5" y="72.1074">SkillRepository</text><rect fill="#E3E3E3" height="51.2422" rx="2.5" ry="2.5" style="stroke:#181818;stroke-width:0.5;" width="109" x="927.5" y="1255.3789"/><text fill="#000000" font-family="sans-serif" font-size="14" lengthAdjust="spacing" textLength="95" x="934.5" y="1277.4863">skillRepository:</text><text fill="#000000" font-family="sans-serif" font-size="14" lengthAdjust="spacing" textLength="93" x="935.5" y="1296.1074">SkillRepository</text><rect fill="#E3E3E3" height="51.2422" rx="2.5" ry="2.5" style="stroke:#181818;stroke-width:0.5;" width="161" x="1046.5" y="31.3789"/><text fill="#000000" font-family="sans-serif" font-size="14" lengthAdjust="spacing" textLength="147" x="1053.5" y="53.4863">collaboratorRepository:</text><text fill="#000000" font-family="sans-serif" font-size="14" lengthAdjust="spacing" textLength="146" x="1054" y="72.1074">CollaboratorRepository</text><rect fill="#E3E3E3" height="51.2422" rx="2.5" ry="2.5" style="stroke:#181818;stroke-width:0.5;" width="161" x="1046.5" y="1255.3789"/><text fill="#000000" font-family="sans-serif" font-size="14" lengthAdjust="spacing" textLength="147" x="1053.5" y="1277.4863">collaboratorRepository:</text><text fill="#000000" font-family="sans-serif" font-size="14" lengthAdjust="spacing" textLength="146" x="1054" y="1296.1074">CollaboratorRepository</text><rect fill="#E3E3E3" height="51.2422" rx="2.5" ry="2.5" style="stroke:#181818;stroke-width:0.5;" width="118" x="1217.5" y="31.3789"/><text fill="#000000" font-family="sans-serif" font-size="14" lengthAdjust="spacing" textLength="103" x="1225" y="53.4863">teamRepository:</text><text fill="#000000" font-family="sans-serif" font-size="14" lengthAdjust="spacing" textLength="104" x="1224.5" y="72.1074">TeamRepository</text><rect fill="#E3E3E3" height="51.2422" rx="2.5" ry="2.5" style="stroke:#181818;stroke-width:0.5;" width="118" x="1217.5" y="1255.3789"/><text fill="#000000" font-family="sans-serif" font-size="14" lengthAdjust="spacing" textLength="103" x="1225" y="1277.4863">teamRepository:</text><text fill="#000000" font-family="sans-serif" font-size="14" lengthAdjust="spacing" textLength="104" x="1224.5" y="1296.1074">TeamRepository</text><rect fill="#E3E3E3" height="51.2422" rx="2.5" ry="2.5" style="stroke:#181818;stroke-width:0.5;" width="54" x="1492.5" y="1255.3789"/><text fill="#000000" font-family="sans-serif" font-size="14" lengthAdjust="spacing" textLength="31" x="1504" y="1277.4863">team</text><text fill="#000000" font-family="sans-serif" font-size="14" lengthAdjust="spacing" textLength="40" x="1499.5" y="1296.1074">:Team</text><rect fill="#FFFFFF" height="1144.7578" style="stroke:#181818;stroke-width:1.0;" width="10" x="91" y="93.6211"/><rect fill="#FFFFFF" height="74.9121" style="stroke:#181818;stroke-width:1.0;" width="10" x="325" y="116.9121"/><rect fill="#FFFFFF" height="31.291" style="stroke:#181818;stroke-width:1.0;" width="10" x="325" y="223.1152"/><rect fill="#FFFFFF" height="281.6191" style="stroke:#181818;stroke-width:1.0;" width="10" x="325" y="285.6973"/><rect fill="#FFFFFF" height="639.7715" style="stroke:#181818;stroke-width:1.0;" width="10" x="325" y="598.6074"/><rect fill="#FFFFFF" height="219.0371" style="stroke:#181818;stroke-width:1.0;" width="10" x="591" y="316.9883"/><rect fill="#FFFFFF" height="617.4805" style="stroke:#181818;stroke-width:1.0;" width="10" x="591" y="629.8984"/><rect fill="#FFFFFF" height="345.8613" style="stroke:#181818;stroke-width:1.0;" width="10" x="596" y="861.2266"/><rect fill="#FFFFFF" height="31.291" style="stroke:#181818;stroke-width:1.0;" width="10" x="757" y="348.2793"/><rect fill="#FFFFFF" height="31.291" style="stroke:#181818;stroke-width:1.0;" width="10" x="757" y="661.1895"/><rect fill="#FFFFFF" height="31.291" style="stroke:#181818;stroke-width:1.0;" width="10" x="757" y="912.8086"/><rect fill="#FFFFFF" height="31.291" style="stroke:#181818;stroke-width:1.0;" width="10" x="864" y="410.8613"/><rect fill="#FFFFFF" height="31.291" style="stroke:#181818;stroke-width:1.0;" width="10" x="864" y="723.7715"/><rect fill="#FFFFFF" height="31.291" style="stroke:#181818;stroke-width:1.0;" width="10" x="864" y="975.3906"/><rect fill="#FFFFFF" height="31.291" style="stroke:#181818;stroke-width:1.0;" width="10" x="977" y="473.4434"/><rect fill="#FFFFFF" height="63.2275" style="stroke:#181818;stroke-width:1.0;" width="10" x="1122" y="797.999"/><rect fill="#FFFFFF" height="137.8242" style="stroke:#181818;stroke-width:1.0;" width="10" x="1271.5" y="1037.9727"/><polygon fill="#181818" points="313,112.9121,323,116.9121,313,120.9121,317,116.9121" style="stroke:#181818;stroke-width:1.0;"/><line style="stroke:#181818;stroke-width:1.0;" x1="101" x2="319" y1="116.9121" y2="116.9121"/><text fill="#000000" font-family="sans-serif" font-size="13" font-weight="bold" lengthAdjust="spacing" textLength="7" x="108" y="111.6494">1</text><text fill="#000000" font-family="sans-serif" font-size="13" lengthAdjust="spacing" textLength="194" x="119" y="111.6494">asks to generate a team proposal</text><polygon fill="#181818" points="476.5,144.2031,486.5,148.2031,476.5,152.2031,480.5,148.2031" style="stroke:#181818;stroke-width:1.0;"/><line style="stroke:#181818;stroke-width:1.0;" x1="335" x2="482.5" y1="148.2031" y2="148.2031"/><text fill="#000000" font-family="sans-serif" font-size="13" font-weight="bold" lengthAdjust="spacing" textLength="7" x="342" y="142.9404">2</text><text fill="#000000" font-family="sans-serif" font-size="13" lengthAdjust="spacing" textLength="36" x="353" y="142.9404">create</text><rect fill="#E3E3E3" height="32.6211" rx="2.5" ry="2.5" style="stroke:#181818;stroke-width:0.5;" width="215" x="488.5" y="124.9121"/><text fill="#000000" font-family="sans-serif" font-size="14" lengthAdjust="spacing" textLength="201" x="495.5" y="147.0195">:CreateTeamProposalController</text><polygon fill="#181818" points="112,187.8242,102,191.8242,112,195.8242,108,191.8242" style="stroke:#181818;stroke-width:1.0;"/><line style="stroke:#181818;stroke-width:1.0;stroke-dasharray:2.0,2.0;" x1="106" x2="329" y1="191.8242" y2="191.8242"/><text fill="#000000" font-family="sans-serif" font-size="13" font-weight="bold" lengthAdjust="spacing" textLength="7" x="118" y="186.5615">3</text><text fill="#000000" font-family="sans-serif" font-size="13" lengthAdjust="spacing" textLength="117" x="129" y="186.5615">asks maximum size</text><polygon fill="#181818" points="313,219.1152,323,223.1152,313,227.1152,317,223.1152" style="stroke:#181818;stroke-width:1.0;"/><line style="stroke:#181818;stroke-width:1.0;" x1="101" x2="319" y1="223.1152" y2="223.1152"/><text fill="#000000" font-family="sans-serif" font-size="13" font-weight="bold" lengthAdjust="spacing" textLength="7" x="108" y="217.8525">4</text><text fill="#000000" font-family="sans-serif" font-size="13" lengthAdjust="spacing" textLength="124" x="119" y="217.8525">sends maximum size</text><polygon fill="#181818" points="112,250.4063,102,254.4063,112,258.4063,108,254.4063" style="stroke:#181818;stroke-width:1.0;"/><line style="stroke:#181818;stroke-width:1.0;stroke-dasharray:2.0,2.0;" x1="106" x2="329" y1="254.4063" y2="254.4063"/><text fill="#000000" font-family="sans-serif" font-size="13" font-weight="bold" lengthAdjust="spacing" textLength="7" x="118" y="249.1436">5</text><text fill="#000000" font-family="sans-serif" font-size="13" lengthAdjust="spacing" textLength="113" x="129" y="249.1436">asks minimum size</text><polygon fill="#181818" points="313,281.6973,323,285.6973,313,289.6973,317,285.6973" style="stroke:#181818;stroke-width:1.0;"/><line style="stroke:#181818;stroke-width:1.0;" x1="101" x2="319" y1="285.6973" y2="285.6973"/><text fill="#000000" font-family="sans-serif" font-size="13" font-weight="bold" lengthAdjust="spacing" textLength="7" x="108" y="280.4346">6</text><text fill="#000000" font-family="sans-serif" font-size="13" lengthAdjust="spacing" textLength="120" x="119" y="280.4346">sends minimum size</text><polygon fill="#181818" points="579,312.9883,589,316.9883,579,320.9883,583,316.9883" style="stroke:#181818;stroke-width:1.0;"/><line style="stroke:#181818;stroke-width:1.0;" x1="335" x2="585" y1="316.9883" y2="316.9883"/><text fill="#000000" font-family="sans-serif" font-size="13" font-weight="bold" lengthAdjust="spacing" textLength="7" x="342" y="311.7256">7</text><text fill="#000000" font-family="sans-serif" font-size="13" lengthAdjust="spacing" textLength="58" x="353" y="311.7256">getSkills()</text><polygon fill="#181818" points="745,344.2793,755,348.2793,745,352.2793,749,348.2793" style="stroke:#181818;stroke-width:1.0;"/><line style="stroke:#181818;stroke-width:1.0;" x1="601" x2="751" y1="348.2793" y2="348.2793"/><text fill="#000000" font-family="sans-serif" font-size="13" font-weight="bold" lengthAdjust="spacing" textLength="7" x="608" y="343.0166">8</text><text fill="#000000" font-family="sans-serif" font-size="13" lengthAdjust="spacing" textLength="75" x="619" y="343.0166">getInstance()</text><polygon fill="#181818" points="612,375.5703,602,379.5703,612,383.5703,608,379.5703" style="stroke:#181818;stroke-width:1.0;"/><line style="stroke:#181818;stroke-width:1.0;stroke-dasharray:2.0,2.0;" x1="606" x2="761" y1="379.5703" y2="379.5703"/><text fill="#000000" font-family="sans-serif" font-size="13" font-weight="bold" lengthAdjust="spacing" textLength="7" x="618" y="374.3076">9</text><text fill="#000000" font-family="sans-serif" font-size="13" lengthAdjust="spacing" textLength="67" x="629" y="374.3076">repositories</text><polygon fill="#181818" points="852,406.8613,862,410.8613,852,414.8613,856,410.8613" style="stroke:#181818;stroke-width:1.0;"/><line style="stroke:#181818;stroke-width:1.0;" x1="601" x2="858" y1="410.8613" y2="410.8613"/><text fill="#000000" font-family="sans-serif" font-size="13" font-weight="bold" lengthAdjust="spacing" textLength="14" x="608" y="405.5986">10</text><text fill="#000000" font-family="sans-serif" font-size="13" lengthAdjust="spacing" textLength="113" x="626" y="405.5986">getSkillRepository()</text><polygon fill="#181818" points="612,438.1523,602,442.1523,612,446.1523,608,442.1523" style="stroke:#181818;stroke-width:1.0;"/><line style="stroke:#181818;stroke-width:1.0;stroke-dasharray:2.0,2.0;" x1="606" x2="868" y1="442.1523" y2="442.1523"/><text fill="#000000" font-family="sans-serif" font-size="13" font-weight="bold" lengthAdjust="spacing" textLength="14" x="618" y="436.8896">11</text><text fill="#000000" font-family="sans-serif" font-size="13" lengthAdjust="spacing" textLength="85" x="636" y="436.8896">skillRepository</text><polygon fill="#181818" points="965,469.4434,975,473.4434,965,477.4434,969,473.4434" style="stroke:#181818;stroke-width:1.0;"/><line style="stroke:#181818;stroke-width:1.0;" x1="601" x2="971" y1="473.4434" y2="473.4434"/><text fill="#000000" font-family="sans-serif" font-size="13" font-weight="bold" lengthAdjust="spacing" textLength="14" x="608" y="468.1807">12</text><text fill="#000000" font-family="sans-serif" font-size="13" lengthAdjust="spacing" textLength="58" x="626" y="468.1807">getSkills()</text><polygon fill="#181818" points="612,500.7344,602,504.7344,612,508.7344,608,504.7344" style="stroke:#181818;stroke-width:1.0;"/><line style="stroke:#181818;stroke-width:1.0;stroke-dasharray:2.0,2.0;" x1="606" x2="981" y1="504.7344" y2="504.7344"/><text fill="#000000" font-family="sans-serif" font-size="13" font-weight="bold" lengthAdjust="spacing" textLength="14" x="618" y="499.4717">13</text><text fill="#000000" font-family="sans-serif" font-size="13" lengthAdjust="spacing" textLength="44" x="636" y="499.4717">skillList</text><polygon fill="#181818" points="346,532.0254,336,536.0254,346,540.0254,342,536.0254" style="stroke:#181818;stroke-width:1.0;"/><line style="stroke:#181818;stroke-width:1.0;stroke-dasharray:2.0,2.0;" x1="340" x2="595" y1="536.0254" y2="536.0254"/><text fill="#000000" font-family="sans-serif" font-size="13" font-weight="bold" lengthAdjust="spacing" textLength="14" x="352" y="530.7627">14</text><text fill="#000000" font-family="sans-serif" font-size="13" lengthAdjust="spacing" textLength="44" x="370" y="530.7627">skillList</text><polygon fill="#181818" points="112,563.3164,102,567.3164,112,571.3164,108,567.3164" style="stroke:#181818;stroke-width:1.0;"/><line style="stroke:#181818;stroke-width:1.0;stroke-dasharray:2.0,2.0;" x1="106" x2="329" y1="567.3164" y2="567.3164"/><text fill="#000000" font-family="sans-serif" font-size="13" font-weight="bold" lengthAdjust="spacing" textLength="14" x="118" y="562.0537">15</text><text fill="#000000" font-family="sans-serif" font-size="13" lengthAdjust="spacing" textLength="112" x="136" y="562.0537">asks required skills</text><polygon fill="#181818" points="313,594.6074,323,598.6074,313,602.6074,317,598.6074" style="stroke:#181818;stroke-width:1.0;"/><line style="stroke:#181818;stroke-width:1.0;" x1="101" x2="319" y1="598.6074" y2="598.6074"/><text fill="#000000" font-family="sans-serif" font-size="13" font-weight="bold" lengthAdjust="spacing" textLength="14" x="108" y="593.3447">16</text><text fill="#000000" font-family="sans-serif" font-size="13" lengthAdjust="spacing" textLength="119" x="126" y="593.3447">sends required skills</text><polygon fill="#181818" points="579,625.8984,589,629.8984,579,633.8984,583,629.8984" style="stroke:#181818;stroke-width:1.0;"/><line style="stroke:#181818;stroke-width:1.0;" x1="335" x2="585" y1="629.8984" y2="629.8984"/><text fill="#000000" font-family="sans-serif" font-size="13" font-weight="bold" lengthAdjust="spacing" textLength="14" x="342" y="624.6357">17</text><text fill="#000000" font-family="sans-serif" font-size="13" lengthAdjust="spacing" textLength="219" x="360" y="624.6357">createTeamProposal(min, max, skills)</text><polygon fill="#181818" points="745,657.1895,755,661.1895,745,665.1895,749,661.1895" style="stroke:#181818;stroke-width:1.0;"/><line style="stroke:#181818;stroke-width:1.0;" x1="601" x2="751" y1="661.1895" y2="661.1895"/><text fill="#000000" font-family="sans-serif" font-size="13" font-weight="bold" lengthAdjust="spacing" textLength="14" x="608" y="655.9268">18</text><text fill="#000000" font-family="sans-serif" font-size="13" lengthAdjust="spacing" textLength="75" x="626" y="655.9268">getInstance()</text><polygon fill="#181818" points="612,688.4805,602,692.4805,612,696.4805,608,692.4805" style="stroke:#181818;stroke-width:1.0;"/><line style="stroke:#181818;stroke-width:1.0;stroke-dasharray:2.0,2.0;" x1="606" x2="761" y1="692.4805" y2="692.4805"/><text fill="#000000" font-family="sans-serif" font-size="13" font-weight="bold" lengthAdjust="spacing" textLength="14" x="618" y="687.2178">19</text><text fill="#000000" font-family="sans-serif" font-size="13" lengthAdjust="spacing" textLength="67" x="636" y="687.2178">repositories</text><polygon fill="#181818" points="852,719.7715,862,723.7715,852,727.7715,856,723.7715" style="stroke:#181818;stroke-width:1.0;"/><line style="stroke:#181818;stroke-width:1.0;" x1="601" x2="858" y1="723.7715" y2="723.7715"/><text fill="#000000" font-family="sans-serif" font-size="13" font-weight="bold" lengthAdjust="spacing" textLength="14" x="608" y="718.5088">20</text><text fill="#000000" font-family="sans-serif" font-size="13" lengthAdjust="spacing" textLength="157" x="626" y="718.5088">getCollaboratorRepository()</text><polygon fill="#181818" points="612,751.0625,602,755.0625,612,759.0625,608,755.0625" style="stroke:#181818;stroke-width:1.0;"/><line style="stroke:#181818;stroke-width:1.0;stroke-dasharray:2.0,2.0;" x1="606" x2="868" y1="755.0625" y2="755.0625"/><text fill="#000000" font-family="sans-serif" font-size="13" font-weight="bold" lengthAdjust="spacing" textLength="14" x="618" y="749.7998">21</text><text fill="#000000" font-family="sans-serif" font-size="13" lengthAdjust="spacing" textLength="129" x="636" y="749.7998">collaboratorRepository</text><polygon fill="#181818" points="1110,793.999,1120,797.999,1110,801.999,1114,797.999" style="stroke:#181818;stroke-width:1.0;"/><line style="stroke:#181818;stroke-width:1.0;" x1="601" x2="1116" y1="797.999" y2="797.999"/><text fill="#000000" font-family="sans-serif" font-size="13" font-weight="bold" lengthAdjust="spacing" textLength="14" x="608" y="792.7363">22</text><text fill="#000000" font-family="sans-serif" font-size="13" lengthAdjust="spacing" textLength="180" x="626" y="792.7363">getCollaboratorsBySkills(skills)</text><path d="M1137,768.0625 L1137,812.0625 L1274,812.0625 L1274,778.0625 L1264,768.0625 L1137,768.0625 " fill="#FAFAFA" style="stroke:#181818;stroke-width:0.5;"/><path d="M1264,768.0625 L1264,778.0625 L1274,778.0625 L1264,768.0625 " fill="#FAFAFA" style="stroke:#181818;stroke-width:0.5;"/><text fill="#000000" font-family="sans-serif" font-size="13" lengthAdjust="spacing" textLength="102" x="1143" y="787.0908">filter collaborators</text><text fill="#000000" font-family="sans-serif" font-size="13" lengthAdjust="spacing" textLength="116" x="1143" y="804.3818">based on their skills</text><polygon fill="#181818" points="617,857.2266,607,861.2266,617,865.2266,613,861.2266" style="stroke:#181818;stroke-width:1.0;"/><line style="stroke:#181818;stroke-width:1.0;stroke-dasharray:2.0,2.0;" x1="611" x2="1126" y1="861.2266" y2="861.2266"/><text fill="#000000" font-family="sans-serif" font-size="13" font-weight="bold" lengthAdjust="spacing" textLength="14" x="623" y="855.9639">23</text><text fill="#000000" font-family="sans-serif" font-size="13" lengthAdjust="spacing" textLength="88" x="641" y="855.9639">collaboratorList</text><path d="M302,822.6445 L302,883.6445 L586,883.6445 L586,832.6445 L576,822.6445 L302,822.6445 " fill="#FAFAFA" style="stroke:#181818;stroke-width:0.5;"/><path d="M576,822.6445 L576,832.6445 L586,832.6445 L576,822.6445 " fill="#FAFAFA" style="stroke:#181818;stroke-width:0.5;"/><text fill="#000000" font-family="sans-serif" font-size="13" lengthAdjust="spacing" textLength="234" x="308" y="841.6729">select collaborators from collaboratorList</text><text fill="#000000" font-family="sans-serif" font-size="13" lengthAdjust="spacing" textLength="263" x="308" y="858.9639">based on the min and max values and save in</text><text fill="#000000" font-family="sans-serif" font-size="13" lengthAdjust="spacing" textLength="125" x="308" y="876.2549">selectedCollaborators</text><polygon fill="#181818" points="745,908.8086,755,912.8086,745,916.8086,749,912.8086" style="stroke:#181818;stroke-width:1.0;"/><line style="stroke:#181818;stroke-width:1.0;" x1="606" x2="751" y1="912.8086" y2="912.8086"/><text fill="#000000" font-family="sans-serif" font-size="13" font-weight="bold" lengthAdjust="spacing" textLength="14" x="613" y="907.5459">24</text><text fill="#000000" font-family="sans-serif" font-size="13" lengthAdjust="spacing" textLength="75" x="631" y="907.5459">getInstance()</text><polygon fill="#181818" points="617,940.0996,607,944.0996,617,948.0996,613,944.0996" style="stroke:#181818;stroke-width:1.0;"/><line style="stroke:#181818;stroke-width:1.0;stroke-dasharray:2.0,2.0;" x1="611" x2="761" y1="944.0996" y2="944.0996"/><text fill="#000000" font-family="sans-serif" font-size="13" font-weight="bold" lengthAdjust="spacing" textLength="14" x="623" y="938.8369">25</text><text fill="#000000" font-family="sans-serif" font-size="13" lengthAdjust="spacing" textLength="67" x="641" y="938.8369">repositories</text><polygon fill="#181818" points="852,971.3906,862,975.3906,852,979.3906,856,975.3906" style="stroke:#181818;stroke-width:1.0;"/><line style="stroke:#181818;stroke-width:1.0;" x1="606" x2="858" y1="975.3906" y2="975.3906"/><text fill="#000000" font-family="sans-serif" font-size="13" font-weight="bold" lengthAdjust="spacing" textLength="14" x="613" y="970.1279">26</text><text fill="#000000" font-family="sans-serif" font-size="13" lengthAdjust="spacing" textLength="120" x="631" y="970.1279">getTeamRepository()</text><polygon fill="#181818" points="617,1002.6816,607,1006.6816,617,1010.6816,613,1006.6816" style="stroke:#181818;stroke-width:1.0;"/><line style="stroke:#181818;stroke-width:1.0;stroke-dasharray:2.0,2.0;" x1="611" x2="868" y1="1006.6816" y2="1006.6816"/><text fill="#000000" font-family="sans-serif" font-size="13" font-weight="bold" lengthAdjust="spacing" textLength="14" x="623" y="1001.4189">27</text><text fill="#000000" font-family="sans-serif" font-size="13" lengthAdjust="spacing" textLength="91" x="641" y="1001.4189">teamRepository</text><polygon fill="#181818" points="1259.5,1033.9727,1269.5,1037.9727,1259.5,1041.9727,1263.5,1037.9727" style="stroke:#181818;stroke-width:1.0;"/><line style="stroke:#181818;stroke-width:1.0;" x1="606" x2="1265.5" y1="1037.9727" y2="1037.9727"/><text fill="#000000" font-family="sans-serif" font-size="13" font-weight="bold" lengthAdjust="spacing" textLength="14" x="613" y="1032.71">28</text><text fill="#000000" font-family="sans-serif" font-size="13" lengthAdjust="spacing" textLength="201" x="631" y="1032.71">createTeam(selectedCollaborators)</text><polygon fill="#181818" points="1480.5,1065.2637,1490.5,1069.2637,1480.5,1073.2637,1484.5,1069.2637" style="stroke:#181818;stroke-width:1.0;"/><line style="stroke:#181818;stroke-width:1.0;" x1="1281.5" x2="1486.5" y1="1069.2637" y2="1069.2637"/><text fill="#000000" font-family="sans-serif" font-size="13" font-weight="bold" lengthAdjust="spacing" textLength="14" x="1288.5" y="1064.001">29</text><text fill="#000000" font-family="sans-serif" font-size="13" lengthAdjust="spacing" textLength="169" x="1306.5" y="1064.001">create(selectedCollaborators)</text><rect fill="#E3E3E3" height="51.2422" rx="2.5" ry="2.5" style="stroke:#181818;stroke-width:0.5;" width="54" x="1492.5" y="1045.9727"/><text fill="#000000" font-family="sans-serif" font-size="14" lengthAdjust="spacing" textLength="31" x="1504" y="1068.0801">team</text><text fill="#000000" font-family="sans-serif" font-size="14" lengthAdjust="spacing" textLength="40" x="1499.5" y="1086.7012">:Team</text><path d="M1551,1063.4482 L1551,1090.4482 L1795,1090.4482 L1795,1073.4482 L1785,1063.4482 L1551,1063.4482 " fill="#FAFAFA" style="stroke:#181818;stroke-width:0.5;"/><path d="M1785,1063.4482 L1785,1073.4482 L1795,1073.4482 L1785,1063.4482 " fill="#FAFAFA" style="stroke:#181818;stroke-width:0.5;"/><text fill="#000000" font-family="sans-serif" font-size="13" lengthAdjust="spacing" textLength="223" x="1557" y="1082.4766">team is created with a PENDING state</text><line style="stroke:#181818;stroke-width:1.0;" x1="1281.5" x2="1323.5" y1="1131.5059" y2="1131.5059"/><line style="stroke:#181818;stroke-width:1.0;" x1="1323.5" x2="1323.5" y1="1131.5059" y2="1144.5059"/><line style="stroke:#181818;stroke-width:1.0;" x1="1282.5" x2="1323.5" y1="1144.5059" y2="1144.5059"/><polygon fill="#181818" points="1292.5,1140.5059,1282.5,1144.5059,1292.5,1148.5059,1288.5,1144.5059" style="stroke:#181818;stroke-width:1.0;"/><text fill="#000000" font-family="sans-serif" font-size="13" font-weight="bold" lengthAdjust="spacing" textLength="14" x="1288.5" y="1126.2432">30</text><text fill="#000000" font-family="sans-serif" font-size="13" lengthAdjust="spacing" textLength="61" x="1306.5" y="1126.2432">addTeam()</text><polygon fill="#181818" points="617,1171.7969,607,1175.7969,617,1179.7969,613,1175.7969" style="stroke:#181818;stroke-width:1.0;"/><line style="stroke:#181818;stroke-width:1.0;stroke-dasharray:2.0,2.0;" x1="611" x2="1275.5" y1="1175.7969" y2="1175.7969"/><text fill="#000000" font-family="sans-serif" font-size="13" font-weight="bold" lengthAdjust="spacing" textLength="14" x="623" y="1170.5342">31</text><text fill="#000000" font-family="sans-serif" font-size="13" lengthAdjust="spacing" textLength="29" x="641" y="1170.5342">team</text><polygon fill="#181818" points="346,1203.0879,336,1207.0879,346,1211.0879,342,1207.0879" style="stroke:#181818;stroke-width:1.0;"/><line style="stroke:#181818;stroke-width:1.0;stroke-dasharray:2.0,2.0;" x1="340" x2="590" y1="1207.0879" y2="1207.0879"/><text fill="#000000" font-family="sans-serif" font-size="13" font-weight="bold" lengthAdjust="spacing" textLength="14" x="352" y="1201.8252">32</text><text fill="#000000" font-family="sans-serif" font-size="13" lengthAdjust="spacing" textLength="29" x="370" y="1201.8252">team</text><polygon fill="#181818" points="107,1234.3789,97,1238.3789,107,1242.3789,103,1238.3789" style="stroke:#181818;stroke-width:1.0;"/><line style="stroke:#181818;stroke-width:1.0;stroke-dasharray:2.0,2.0;" x1="101" x2="329" y1="1238.3789" y2="1238.3789"/><text fill="#000000" font-family="sans-serif" font-size="13" font-weight="bold" lengthAdjust="spacing" textLength="14" x="113" y="1233.1162">33</text><text fill="#000000" font-family="sans-serif" font-size="13" lengthAdjust="spacing" textLength="117" x="131" y="1233.1162">shows created team</text><!--SRC=[tLPBRzim3BxdLn2zh2tQFv33W2mhsW1z175wAp0eDki8iILFajkrltwKx2MIB6VjSVCX3vFVnuT8Ydh7HSCKgw6MGkPR9Mi4ergSwBsaOVcEbPYPjmf1OMwOA2jVGMzP8L-vAE6PLHed4zOQATfwWuf-vqOgEBbfQoPWXLgsAaSDTqmGfpe1fk5cTJSX9iDptZ1Xu6GwLyWChf7LIoKRgLdrk72gZuk_QiwbC4fMLKy-Nwzk8ymAIP6JMnorqzc_UCkuZOsy3o7AGpo98S7oThOE4PITgZhmJfz45hvnkEXTI95J46mZ5IDHm3HF2hfeawAGrr2o0hvryCBnXAycNo1aO7etfxIN90kPaeAECIcAcQUpfgbupWoN8aEjwSkXVyoMorYNDKslGaSoWal0ybOf5EO0VTIeV4nsbMMpXnWcLSa4VtSMWfWVaWB7b1OTOoPtV537iheU7Y0fsZFgKdirktEDnbyemQwTm7x2vLTg69YIpaw3aL2YG6LL65WEQFgM8VKzcZeCw24SeMtpd9yJG-xQR2yXaUNlcMlsYzSjpG7-RbKAzCaYLpIAOe186OzCSF5P4o5YF3v2b6XS9-hJCoVSAxlX0UvngWH9p8gEOI4qJSOSUmwF9JLUe7zIT9S7p_p1qsEys5F4aRjsCdaH7X13DzqG- -ENmtcEHFDiw8j3HyOZaubCU-Qpf0KOaCHEtN9jXkwasJh7zeKIm3smE_QHIbJui-KAYmwjFrQCGz3HUim7bzefbVE5RPkBdk8_BjJq7VR9UarVdXyhsxG3G-VqjxU-cFqp0H2IY1KljuOmpxmog09_Q8NOC4tLG2aqM-JgK1RXeHwB0SRS74b2kasEcd1nRAGnidQLND7k5mO2pxGm3io4uTb934mKjdhXXLKjRN_shsOl29nkl8uOYo2r4-z2-nUBUxoymzNgasKTxcuVA-VGO31UJfEv7xYqJbc5cDYQeat4snUEqqUDuZOIhdje0Q_SR6bHMLxTVr_SNmCTQx-0Z9YEesH5uK8y6mM5QHqcCnbsU8NiWV7jCRWyz5Q-7eBhSU7LuVqZp6y0]--></g></svg>