<?xml version="1.0" encoding="us-ascii" standalone="no"?><svg xmlns="http://www.w3.org/2000/svg" xmlns:xlink="http://www.w3.org/1999/xlink" contentStyleType="text/css" height="1205.1px" preserveAspectRatio="none" style="width:1621px;height:1205px;background:#FFFFFF;" version="1.1" viewBox="0 0 1621 1205" width="1621.8px" zoomAndPan="magnify"><defs/><g><rect fill="#FFFFFF" height="1030.282" style="stroke:#181818;stroke-width:0.9;" width="9" x="81.9" y="84.259"/><rect fill="#FFFFFF" height="67.4209" style="stroke:#181818;stroke-width:0.9;" width="9" x="292.5" y="105.2209"/><rect fill="#FFFFFF" height="28.1619" style="stroke:#181818;stroke-width:0.9;" width="9" x="292.5" y="200.8037"/><rect fill="#FFFFFF" height="253.4572" style="stroke:#181818;stroke-width:0.9;" width="9" x="292.5" y="257.1275"/><rect fill="#FFFFFF" height="575.7943" style="stroke:#181818;stroke-width:0.9;" width="9" x="292.5" y="538.7467"/><rect fill="#FFFFFF" height="197.1334" style="stroke:#181818;stroke-width:0.9;" width="9" x="531.9" y="285.2895"/><rect fill="#FFFFFF" height="555.7324" style="stroke:#181818;stroke-width:0.9;" width="9" x="531.9" y="566.9086"/><rect fill="#FFFFFF" height="311.2752" style="stroke:#181818;stroke-width:0.9;" width="9" x="536.4" y="775.1039"/><rect fill="#FFFFFF" height="28.1619" style="stroke:#181818;stroke-width:0.9;" width="9" x="681.3" y="313.4514"/><rect fill="#FFFFFF" height="28.1619" style="stroke:#181818;stroke-width:0.9;" width="9" x="681.3" y="595.0705"/><rect fill="#FFFFFF" height="28.1619" style="stroke:#181818;stroke-width:0.9;" width="9" x="681.3" y="821.5277"/><rect fill="#FFFFFF" height="28.1619" style="stroke:#181818;stroke-width:0.9;" width="9" x="777.6" y="369.7752"/><rect fill="#FFFFFF" height="28.1619" style="stroke:#181818;stroke-width:0.9;" width="9" x="777.6" y="651.3943"/><rect fill="#FFFFFF" height="28.1619" style="stroke:#181818;stroke-width:0.9;" width="9" x="777.6" y="877.8516"/><rect fill="#FFFFFF" height="28.1619" style="stroke:#181818;stroke-width:0.9;" width="9" x="879.3" y="426.099"/><rect fill="#FFFFFF" height="56.9048" style="stroke:#181818;stroke-width:0.9;" width="9" x="1009.8" y="718.1991"/><rect fill="#FFFFFF" height="124.0418" style="stroke:#181818;stroke-width:0.9;" width="9" x="1144.35" y="934.1754"/><line style="stroke:#181818;stroke-width:0.45;stroke-dasharray:5.0,5.0;" x1="86.4" x2="86.4" y1="75.259" y2="1130.741"/><line style="stroke:#181818;stroke-width:0.45;stroke-dasharray:5.0,5.0;" x1="296.55" x2="296.55" y1="75.259" y2="1130.741"/><line style="stroke:#181818;stroke-width:0.45;stroke-dasharray:5.0,5.0;" x1="535.95" x2="535.95" y1="141.0504" y2="1130.741"/><line style="stroke:#181818;stroke-width:0.45;stroke-dasharray:5.0,5.0;" x1="685.35" x2="685.35" y1="75.259" y2="1130.741"/><line style="stroke:#181818;stroke-width:0.45;stroke-dasharray:5.0,5.0;" x1="781.65" x2="781.65" y1="75.259" y2="1130.741"/><line style="stroke:#181818;stroke-width:0.45;stroke-dasharray:5.0,5.0;" x1="883.35" x2="883.35" y1="75.259" y2="1130.741"/><line style="stroke:#181818;stroke-width:0.45;stroke-dasharray:5.0,5.0;" x1="1013.85" x2="1013.85" y1="75.259" y2="1130.741"/><line style="stroke:#181818;stroke-width:0.45;stroke-dasharray:5.0,5.0;" x1="1148.85" x2="1148.85" y1="75.259" y2="1130.741"/><line style="stroke:#181818;stroke-width:0.45;stroke-dasharray:5.0,5.0;" x1="1367.55" x2="1367.55" y1="978.3844" y2="1130.741"/><text fill="#000000" font-family="sans-serif" font-size="12.6" lengthAdjust="spacing" textLength="158.4" x="4.5" y="72.0967">Human Resources Manager</text><ellipse cx="86.4" cy="12.15" fill="#E3E3E3" rx="7.2" ry="7.2" style="stroke:#181818;stroke-width:0.45;"/><path d="M86.4,19.35 L86.4,43.65 M74.7,26.55 L98.1,26.55 M86.4,43.65 L74.7,57.15 M86.4,43.65 L98.1,57.15 " fill="none" style="stroke:#181818;stroke-width:0.45;"/><text fill="#000000" font-family="sans-serif" font-size="12.6" lengthAdjust="spacing" textLength="158.4" x="4.5" y="1143.4377">Human Resources Manager</text><ellipse cx="86.4" cy="1154.25" fill="#E3E3E3" rx="7.2" ry="7.2" style="stroke:#181818;stroke-width:0.45;"/><path d="M86.4,1161.45 L86.4,1185.75 M74.7,1168.65 L98.1,1168.65 M86.4,1185.75 L74.7,1199.25 M86.4,1185.75 L98.1,1199.25 " fill="none" style="stroke:#181818;stroke-width:0.45;"/><rect fill="#E3E3E3" height="29.359" rx="2.25" ry="2.25" style="stroke:#181818;stroke-width:0.45;" width="148.5" x="222.75" y="45"/><text fill="#000000" font-family="sans-serif" font-size="12.6" lengthAdjust="spacing" textLength="135.9" x="229.05" y="64.8967">:CreateTeamProposalUI</text><rect fill="#E3E3E3" height="29.359" rx="2.25" ry="2.25" style="stroke:#181818;stroke-width:0.45;" width="148.5" x="222.75" y="1129.841"/><text fill="#000000" font-family="sans-serif" font-size="12.6" lengthAdjust="spacing" textLength="135.9" x="229.05" y="1149.7377">:CreateTeamProposalUI</text><rect fill="#E3E3E3" height="29.359" rx="2.25" ry="2.25" style="stroke:#181818;stroke-width:0.45;" width="193.5" x="439.65" y="1129.841"/><text fill="#000000" font-family="sans-serif" font-size="12.6" lengthAdjust="spacing" textLength="180.9" x="445.95" y="1149.7377">:CreateTeamProposalController</text><rect fill="#E3E3E3" height="29.359" rx="2.25" ry="2.25" style="stroke:#181818;stroke-width:0.45;" width="87.3" x="642.15" y="45"/><text fill="#000000" font-family="sans-serif" font-size="12.6" lengthAdjust="spacing" textLength="74.7" x="648.45" y="64.8967">:Repositories</text><rect fill="#E3E3E3" height="29.359" rx="2.25" ry="2.25" style="stroke:#181818;stroke-width:0.45;" width="87.3" x="642.15" y="1129.841"/><text fill="#000000" font-family="sans-serif" font-size="12.6" lengthAdjust="spacing" textLength="74.7" x="648.45" y="1149.7377">:Repositories</text><rect fill="#E3E3E3" height="46.118" rx="2.25" ry="2.25" style="stroke:#181818;stroke-width:0.45;" width="87.3" x="738.45" y="28.241"/><text fill="#000000" font-family="sans-serif" font-size="12.6" lengthAdjust="spacing" textLength="66.6" x="748.8" y="48.1377">repositories</text><text fill="#000000" font-family="sans-serif" font-size="12.6" lengthAdjust="spacing" textLength="74.7" x="744.75" y="64.8967">:Repositories</text><rect fill="#E3E3E3" height="46.118" rx="2.25" ry="2.25" style="stroke:#181818;stroke-width:0.45;" width="87.3" x="738.45" y="1129.841"/><text fill="#000000" font-family="sans-serif" font-size="12.6" lengthAdjust="spacing" textLength="66.6" x="748.8" y="1149.7377">repositories</text><text fill="#000000" font-family="sans-serif" font-size="12.6" lengthAdjust="spacing" textLength="74.7" x="744.75" y="1166.4967">:Repositories</text><rect fill="#E3E3E3" height="46.118" rx="2.25" ry="2.25" style="stroke:#181818;stroke-width:0.45;" width="98.1" x="834.75" y="28.241"/><text fill="#000000" font-family="sans-serif" font-size="12.6" lengthAdjust="spacing" textLength="85.5" x="841.05" y="48.1377">skillRepository:</text><text fill="#000000" font-family="sans-serif" font-size="12.6" lengthAdjust="spacing" textLength="83.7" x="841.95" y="64.8967">SkillRepository</text><rect fill="#E3E3E3" height="46.118" rx="2.25" ry="2.25" style="stroke:#181818;stroke-width:0.45;" width="98.1" x="834.75" y="1129.841"/><text fill="#000000" font-family="sans-serif" font-size="12.6" lengthAdjust="spacing" textLength="85.5" x="841.05" y="1149.7377">skillRepository:</text><text fill="#000000" font-family="sans-serif" font-size="12.6" lengthAdjust="spacing" textLength="83.7" x="841.95" y="1166.4967">SkillRepository</text><rect fill="#E3E3E3" height="46.118" rx="2.25" ry="2.25" style="stroke:#181818;stroke-width:0.45;" width="144.9" x="941.85" y="28.241"/><text fill="#000000" font-family="sans-serif" font-size="12.6" lengthAdjust="spacing" textLength="132.3" x="948.15" y="48.1377">collaboratorRepository:</text><text fill="#000000" font-family="sans-serif" font-size="12.6" lengthAdjust="spacing" textLength="131.4" x="948.6" y="64.8967">CollaboratorRepository</text><rect fill="#E3E3E3" height="46.118" rx="2.25" ry="2.25" style="stroke:#181818;stroke-width:0.45;" width="144.9" x="941.85" y="1129.841"/><text fill="#000000" font-family="sans-serif" font-size="12.6" lengthAdjust="spacing" textLength="132.3" x="948.15" y="1149.7377">collaboratorRepository:</text><text fill="#000000" font-family="sans-serif" font-size="12.6" lengthAdjust="spacing" textLength="131.4" x="948.6" y="1166.4967">CollaboratorRepository</text><rect fill="#E3E3E3" height="46.118" rx="2.25" ry="2.25" style="stroke:#181818;stroke-width:0.45;" width="106.2" x="1095.75" y="28.241"/><text fill="#000000" font-family="sans-serif" font-size="12.6" lengthAdjust="spacing" textLength="92.7" x="1102.5" y="48.1377">teamRepository:</text><text fill="#000000" font-family="sans-serif" font-size="12.6" lengthAdjust="spacing" textLength="93.6" x="1102.05" y="64.8967">TeamRepository</text><rect fill="#E3E3E3" height="46.118" rx="2.25" ry="2.25" style="stroke:#181818;stroke-width:0.45;" width="106.2" x="1095.75" y="1129.841"/><text fill="#000000" font-family="sans-serif" font-size="12.6" lengthAdjust="spacing" textLength="92.7" x="1102.5" y="1149.7377">teamRepository:</text><text fill="#000000" font-family="sans-serif" font-size="12.6" lengthAdjust="spacing" textLength="93.6" x="1102.05" y="1166.4967">TeamRepository</text><rect fill="#E3E3E3" height="46.118" rx="2.25" ry="2.25" style="stroke:#181818;stroke-width:0.45;" width="48.6" x="1343.25" y="1129.841"/><text fill="#000000" font-family="sans-serif" font-size="12.6" lengthAdjust="spacing" textLength="27.9" x="1353.6" y="1149.7377">team</text><text fill="#000000" font-family="sans-serif" font-size="12.6" lengthAdjust="spacing" textLength="36" x="1349.55" y="1166.4967">:Team</text><rect fill="#FFFFFF" height="1030.282" style="stroke:#181818;stroke-width:0.9;" width="9" x="81.9" y="84.259"/><rect fill="#FFFFFF" height="67.4209" style="stroke:#181818;stroke-width:0.9;" width="9" x="292.5" y="105.2209"/><rect fill="#FFFFFF" height="28.1619" style="stroke:#181818;stroke-width:0.9;" width="9" x="292.5" y="200.8037"/><rect fill="#FFFFFF" height="253.4572" style="stroke:#181818;stroke-width:0.9;" width="9" x="292.5" y="257.1275"/><rect fill="#FFFFFF" height="575.7943" style="stroke:#181818;stroke-width:0.9;" width="9" x="292.5" y="538.7467"/><rect fill="#FFFFFF" height="197.1334" style="stroke:#181818;stroke-width:0.9;" width="9" x="531.9" y="285.2895"/><rect fill="#FFFFFF" height="555.7324" style="stroke:#181818;stroke-width:0.9;" width="9" x="531.9" y="566.9086"/><rect fill="#FFFFFF" height="311.2752" style="stroke:#181818;stroke-width:0.9;" width="9" x="536.4" y="775.1039"/><rect fill="#FFFFFF" height="28.1619" style="stroke:#181818;stroke-width:0.9;" width="9" x="681.3" y="313.4514"/><rect fill="#FFFFFF" height="28.1619" style="stroke:#181818;stroke-width:0.9;" width="9" x="681.3" y="595.0705"/><rect fill="#FFFFFF" height="28.1619" style="stroke:#181818;stroke-width:0.9;" width="9" x="681.3" y="821.5277"/><rect fill="#FFFFFF" height="28.1619" style="stroke:#181818;stroke-width:0.9;" width="9" x="777.6" y="369.7752"/><rect fill="#FFFFFF" height="28.1619" style="stroke:#181818;stroke-width:0.9;" width="9" x="777.6" y="651.3943"/><rect fill="#FFFFFF" height="28.1619" style="stroke:#181818;stroke-width:0.9;" width="9" x="777.6" y="877.8516"/><rect fill="#FFFFFF" height="28.1619" style="stroke:#181818;stroke-width:0.9;" width="9" x="879.3" y="426.099"/><rect fill="#FFFFFF" height="56.9048" style="stroke:#181818;stroke-width:0.9;" width="9" x="1009.8" y="718.1991"/><rect fill="#FFFFFF" height="124.0418" style="stroke:#181818;stroke-width:0.9;" width="9" x="1144.35" y="934.1754"/><polygon fill="#181818" points="281.7,101.6209,290.7,105.2209,281.7,108.8209,285.3,105.2209" style="stroke:#181818;stroke-width:0.9;"/><line style="stroke:#181818;stroke-width:0.9;" x1="90.9" x2="287.1" y1="105.2209" y2="105.2209"/><text fill="#000000" font-family="sans-serif" font-size="11.7" font-weight="bold" lengthAdjust="spacing" textLength="6.3" x="97.2" y="100.4845">1</text><text fill="#000000" font-family="sans-serif" font-size="11.7" lengthAdjust="spacing" textLength="174.6" x="107.1" y="100.4845">asks to generate a team proposal</text><polygon fill="#181818" points="428.85,129.7828,437.85,133.3828,428.85,136.9828,432.45,133.3828" style="stroke:#181818;stroke-width:0.9;"/><line style="stroke:#181818;stroke-width:0.9;" x1="301.5" x2="434.25" y1="133.3828" y2="133.3828"/><text fill="#000000" font-family="sans-serif" font-size="11.7" font-weight="bold" lengthAdjust="spacing" textLength="6.3" x="307.8" y="128.6464">2</text><text fill="#000000" font-family="sans-serif" font-size="11.7" lengthAdjust="spacing" textLength="32.4" x="317.7" y="128.6464">create</text><rect fill="#E3E3E3" height="29.359" rx="2.25" ry="2.25" style="stroke:#181818;stroke-width:0.45;" width="193.5" x="439.65" y="112.4209"/><text fill="#000000" font-family="sans-serif" font-size="12.6" lengthAdjust="spacing" textLength="180.9" x="445.95" y="132.3176">:CreateTeamProposalController</text><polygon fill="#181818" points="100.8,169.0418,91.8,172.6418,100.8,176.2418,97.2,172.6418" style="stroke:#181818;stroke-width:0.9;"/><line style="stroke:#181818;stroke-width:0.9;stroke-dasharray:2.0,2.0;" x1="95.4" x2="296.1" y1="172.6418" y2="172.6418"/><text fill="#000000" font-family="sans-serif" font-size="11.7" font-weight="bold" lengthAdjust="spacing" textLength="6.3" x="106.2" y="167.9054">3</text><text fill="#000000" font-family="sans-serif" font-size="11.7" lengthAdjust="spacing" textLength="105.3" x="116.1" y="167.9054">asks maximum size</text><polygon fill="#181818" points="281.7,197.2037,290.7,200.8037,281.7,204.4037,285.3,200.8037" style="stroke:#181818;stroke-width:0.9;"/><line style="stroke:#181818;stroke-width:0.9;" x1="90.9" x2="287.1" y1="200.8037" y2="200.8037"/><text fill="#000000" font-family="sans-serif" font-size="11.7" font-weight="bold" lengthAdjust="spacing" textLength="6.3" x="97.2" y="196.0673">4</text><text fill="#000000" font-family="sans-serif" font-size="11.7" lengthAdjust="spacing" textLength="111.6" x="107.1" y="196.0673">sends maximum size</text><polygon fill="#181818" points="100.8,225.3656,91.8,228.9656,100.8,232.5656,97.2,228.9656" style="stroke:#181818;stroke-width:0.9;"/><line style="stroke:#181818;stroke-width:0.9;stroke-dasharray:2.0,2.0;" x1="95.4" x2="296.1" y1="228.9656" y2="228.9656"/><text fill="#000000" font-family="sans-serif" font-size="11.7" font-weight="bold" lengthAdjust="spacing" textLength="6.3" x="106.2" y="224.2292">5</text><text fill="#000000" font-family="sans-serif" font-size="11.7" lengthAdjust="spacing" textLength="101.7" x="116.1" y="224.2292">asks minimum size</text><polygon fill="#181818" points="281.7,253.5275,290.7,257.1275,281.7,260.7275,285.3,257.1275" style="stroke:#181818;stroke-width:0.9;"/><line style="stroke:#181818;stroke-width:0.9;" x1="90.9" x2="287.1" y1="257.1275" y2="257.1275"/><text fill="#000000" font-family="sans-serif" font-size="11.7" font-weight="bold" lengthAdjust="spacing" textLength="6.3" x="97.2" y="252.3911">6</text><text fill="#000000" font-family="sans-serif" font-size="11.7" lengthAdjust="spacing" textLength="108" x="107.1" y="252.3911">sends minimum size</text><polygon fill="#181818" points="521.1,281.6895,530.1,285.2895,521.1,288.8895,524.7,285.2895" style="stroke:#181818;stroke-width:0.9;"/><line style="stroke:#181818;stroke-width:0.9;" x1="301.5" x2="526.5" y1="285.2895" y2="285.2895"/><text fill="#000000" font-family="sans-serif" font-size="11.7" font-weight="bold" lengthAdjust="spacing" textLength="6.3" x="307.8" y="280.553">7</text><text fill="#000000" font-family="sans-serif" font-size="11.7" lengthAdjust="spacing" textLength="52.2" x="317.7" y="280.553">getSkills()</text><polygon fill="#181818" points="670.5,309.8514,679.5,313.4514,670.5,317.0514,674.1,313.4514" style="stroke:#181818;stroke-width:0.9;"/><line style="stroke:#181818;stroke-width:0.9;" x1="540.9" x2="675.9" y1="313.4514" y2="313.4514"/><text fill="#000000" font-family="sans-serif" font-size="11.7" font-weight="bold" lengthAdjust="spacing" textLength="6.3" x="547.2" y="308.7149">8</text><text fill="#000000" font-family="sans-serif" font-size="11.7" lengthAdjust="spacing" textLength="67.5" x="557.1" y="308.7149">getInstance()</text><polygon fill="#181818" points="550.8,338.0133,541.8,341.6133,550.8,345.2133,547.2,341.6133" style="stroke:#181818;stroke-width:0.9;"/><line style="stroke:#181818;stroke-width:0.9;stroke-dasharray:2.0,2.0;" x1="545.4" x2="684.9" y1="341.6133" y2="341.6133"/><text fill="#000000" font-family="sans-serif" font-size="11.7" font-weight="bold" lengthAdjust="spacing" textLength="6.3" x="556.2" y="336.8769">9</text><text fill="#000000" font-family="sans-serif" font-size="11.7" lengthAdjust="spacing" textLength="60.3" x="566.1" y="336.8769">repositories</text><polygon fill="#181818" points="766.8,366.1752,775.8,369.7752,766.8,373.3752,770.4,369.7752" style="stroke:#181818;stroke-width:0.9;"/><line style="stroke:#181818;stroke-width:0.9;" x1="540.9" x2="772.2" y1="369.7752" y2="369.7752"/><text fill="#000000" font-family="sans-serif" font-size="11.7" font-weight="bold" lengthAdjust="spacing" textLength="12.6" x="547.2" y="365.0388">10</text><text fill="#000000" font-family="sans-serif" font-size="11.7" lengthAdjust="spacing" textLength="101.7" x="563.4" y="365.0388">getSkillRepository()</text><polygon fill="#181818" points="550.8,394.3371,541.8,397.9371,550.8,401.5371,547.2,397.9371" style="stroke:#181818;stroke-width:0.9;"/><line style="stroke:#181818;stroke-width:0.9;stroke-dasharray:2.0,2.0;" x1="545.4" x2="781.2" y1="397.9371" y2="397.9371"/><text fill="#000000" font-family="sans-serif" font-size="11.7" font-weight="bold" lengthAdjust="spacing" textLength="12.6" x="556.2" y="393.2007">11</text><text fill="#000000" font-family="sans-serif" font-size="11.7" lengthAdjust="spacing" textLength="76.5" x="572.4" y="393.2007">skillRepository</text><polygon fill="#181818" points="868.5,422.499,877.5,426.099,868.5,429.699,872.1,426.099" style="stroke:#181818;stroke-width:0.9;"/><line style="stroke:#181818;stroke-width:0.9;" x1="540.9" x2="873.9" y1="426.099" y2="426.099"/><text fill="#000000" font-family="sans-serif" font-size="11.7" font-weight="bold" lengthAdjust="spacing" textLength="12.6" x="547.2" y="421.3626">12</text><text fill="#000000" font-family="sans-serif" font-size="11.7" lengthAdjust="spacing" textLength="52.2" x="563.4" y="421.3626">getSkills()</text><polygon fill="#181818" points="550.8,450.6609,541.8,454.2609,550.8,457.8609,547.2,454.2609" style="stroke:#181818;stroke-width:0.9;"/><line style="stroke:#181818;stroke-width:0.9;stroke-dasharray:2.0,2.0;" x1="545.4" x2="882.9" y1="454.2609" y2="454.2609"/><text fill="#000000" font-family="sans-serif" font-size="11.7" font-weight="bold" lengthAdjust="spacing" textLength="12.6" x="556.2" y="449.5245">13</text><text fill="#000000" font-family="sans-serif" font-size="11.7" lengthAdjust="spacing" textLength="39.6" x="572.4" y="449.5245">skillList</text><polygon fill="#181818" points="311.4,478.8229,302.4,482.4229,311.4,486.0229,307.8,482.4229" style="stroke:#181818;stroke-width:0.9;"/><line style="stroke:#181818;stroke-width:0.9;stroke-dasharray:2.0,2.0;" x1="306" x2="535.5" y1="482.4229" y2="482.4229"/><text fill="#000000" font-family="sans-serif" font-size="11.7" font-weight="bold" lengthAdjust="spacing" textLength="12.6" x="316.8" y="477.6864">14</text><text fill="#000000" font-family="sans-serif" font-size="11.7" lengthAdjust="spacing" textLength="39.6" x="333" y="477.6864">skillList</text><polygon fill="#181818" points="100.8,506.9848,91.8,510.5848,100.8,514.1848,97.2,510.5848" style="stroke:#181818;stroke-width:0.9;"/><line style="stroke:#181818;stroke-width:0.9;stroke-dasharray:2.0,2.0;" x1="95.4" x2="296.1" y1="510.5848" y2="510.5848"/><text fill="#000000" font-family="sans-serif" font-size="11.7" font-weight="bold" lengthAdjust="spacing" textLength="12.6" x="106.2" y="505.8483">15</text><text fill="#000000" font-family="sans-serif" font-size="11.7" lengthAdjust="spacing" textLength="100.8" x="122.4" y="505.8483">asks required skills</text><polygon fill="#181818" points="281.7,535.1467,290.7,538.7467,281.7,542.3467,285.3,538.7467" style="stroke:#181818;stroke-width:0.9;"/><line style="stroke:#181818;stroke-width:0.9;" x1="90.9" x2="287.1" y1="538.7467" y2="538.7467"/><text fill="#000000" font-family="sans-serif" font-size="11.7" font-weight="bold" lengthAdjust="spacing" textLength="12.6" x="97.2" y="534.0103">16</text><text fill="#000000" font-family="sans-serif" font-size="11.7" lengthAdjust="spacing" textLength="107.1" x="113.4" y="534.0103">sends required skills</text><polygon fill="#181818" points="521.1,563.3086,530.1,566.9086,521.1,570.5086,524.7,566.9086" style="stroke:#181818;stroke-width:0.9;"/><line style="stroke:#181818;stroke-width:0.9;" x1="301.5" x2="526.5" y1="566.9086" y2="566.9086"/><text fill="#000000" font-family="sans-serif" font-size="11.7" font-weight="bold" lengthAdjust="spacing" textLength="12.6" x="307.8" y="562.1722">17</text><text fill="#000000" font-family="sans-serif" font-size="11.7" lengthAdjust="spacing" textLength="197.1" x="324" y="562.1722">createTeamProposal(min, max, skills)</text><polygon fill="#181818" points="670.5,591.4705,679.5,595.0705,670.5,598.6705,674.1,595.0705" style="stroke:#181818;stroke-width:0.9;"/><line style="stroke:#181818;stroke-width:0.9;" x1="540.9" x2="675.9" y1="595.0705" y2="595.0705"/><text fill="#000000" font-family="sans-serif" font-size="11.7" font-weight="bold" lengthAdjust="spacing" textLength="12.6" x="547.2" y="590.3341">18</text><text fill="#000000" font-family="sans-serif" font-size="11.7" lengthAdjust="spacing" textLength="67.5" x="563.4" y="590.3341">getInstance()</text><polygon fill="#181818" points="550.8,619.6324,541.8,623.2324,550.8,626.8324,547.2,623.2324" style="stroke:#181818;stroke-width:0.9;"/><line style="stroke:#181818;stroke-width:0.9;stroke-dasharray:2.0,2.0;" x1="545.4" x2="684.9" y1="623.2324" y2="623.2324"/><text fill="#000000" font-family="sans-serif" font-size="11.7" font-weight="bold" lengthAdjust="spacing" textLength="12.6" x="556.2" y="618.496">19</text><text fill="#000000" font-family="sans-serif" font-size="11.7" lengthAdjust="spacing" textLength="60.3" x="572.4" y="618.496">repositories</text><polygon fill="#181818" points="766.8,647.7943,775.8,651.3943,766.8,654.9943,770.4,651.3943" style="stroke:#181818;stroke-width:0.9;"/><line style="stroke:#181818;stroke-width:0.9;" x1="540.9" x2="772.2" y1="651.3943" y2="651.3943"/><text fill="#000000" font-family="sans-serif" font-size="11.7" font-weight="bold" lengthAdjust="spacing" textLength="12.6" x="547.2" y="646.6579">20</text><text fill="#000000" font-family="sans-serif" font-size="11.7" lengthAdjust="spacing" textLength="141.3" x="563.4" y="646.6579">getCollaboratorRepository()</text><polygon fill="#181818" points="550.8,675.9563,541.8,679.5563,550.8,683.1563,547.2,679.5563" style="stroke:#181818;stroke-width:0.9;"/><line style="stroke:#181818;stroke-width:0.9;stroke-dasharray:2.0,2.0;" x1="545.4" x2="781.2" y1="679.5563" y2="679.5563"/><text fill="#000000" font-family="sans-serif" font-size="11.7" font-weight="bold" lengthAdjust="spacing" textLength="12.6" x="556.2" y="674.8198">21</text><text fill="#000000" font-family="sans-serif" font-size="11.7" lengthAdjust="spacing" textLength="116.1" x="572.4" y="674.8198">collaboratorRepository</text><polygon fill="#181818" points="999,714.5991,1008,718.1991,999,721.7991,1002.6,718.1991" style="stroke:#181818;stroke-width:0.9;"/><line style="stroke:#181818;stroke-width:0.9;" x1="540.9" x2="1004.4" y1="718.1991" y2="718.1991"/><text fill="#000000" font-family="sans-serif" font-size="11.7" font-weight="bold" lengthAdjust="spacing" textLength="12.6" x="547.2" y="713.4627">22</text><text fill="#000000" font-family="sans-serif" font-size="11.7" lengthAdjust="spacing" textLength="235.8" x="563.4" y="713.4627">getCollaboratorsBySkills(collaborators, skills)</text><path d="M1023.3,691.2563 L1023.3,730.8563 L1146.6,730.8563 L1146.6,700.2563 L1137.6,691.2563 L1023.3,691.2563 " fill="#FAFAFA" style="stroke:#181818;stroke-width:0.45;"/><path d="M1137.6,691.2563 L1137.6,700.2563 L1146.6,700.2563 L1137.6,691.2563 " fill="#FAFAFA" style="stroke:#181818;stroke-width:0.45;"/><text fill="#000000" font-family="sans-serif" font-size="11.7" lengthAdjust="spacing" textLength="91.8" x="1028.7" y="708.3817">filter collaborators</text><text fill="#000000" font-family="sans-serif" font-size="11.7" lengthAdjust="spacing" textLength="104.4" x="1028.7" y="723.9437">based on their skills</text><polygon fill="#181818" points="555.3,771.5039,546.3,775.1039,555.3,778.7039,551.7,775.1039" style="stroke:#181818;stroke-width:0.9;"/><line style="stroke:#181818;stroke-width:0.9;stroke-dasharray:2.0,2.0;" x1="549.9" x2="1013.4" y1="775.1039" y2="775.1039"/><text fill="#000000" font-family="sans-serif" font-size="11.7" font-weight="bold" lengthAdjust="spacing" textLength="12.6" x="560.7" y="770.3675">23</text><text fill="#000000" font-family="sans-serif" font-size="11.7" lengthAdjust="spacing" textLength="79.2" x="576.9" y="770.3675">collaboratorList</text><path d="M271.8,740.3801 L271.8,795.2801 L527.4,795.2801 L527.4,749.3801 L518.4,740.3801 L271.8,740.3801 " fill="#FAFAFA" style="stroke:#181818;stroke-width:0.45;"/><path d="M518.4,740.3801 L518.4,749.3801 L527.4,749.3801 L518.4,740.3801 " fill="#FAFAFA" style="stroke:#181818;stroke-width:0.45;"/><text fill="#000000" font-family="sans-serif" font-size="11.7" lengthAdjust="spacing" textLength="210.6" x="277.2" y="757.5056">select collaborators from collaboratorList</text><text fill="#000000" font-family="sans-serif" font-size="11.7" lengthAdjust="spacing" textLength="236.7" x="277.2" y="773.0675">based on the min and max values and save in</text><text fill="#000000" font-family="sans-serif" font-size="11.7" lengthAdjust="spacing" textLength="112.5" x="277.2" y="788.6294">selectedCollaborators</text><polygon fill="#181818" points="670.5,817.9277,679.5,821.5277,670.5,825.1277,674.1,821.5277" style="stroke:#181818;stroke-width:0.9;"/><line style="stroke:#181818;stroke-width:0.9;" x1="545.4" x2="675.9" y1="821.5277" y2="821.5277"/><text fill="#000000" font-family="sans-serif" font-size="11.7" font-weight="bold" lengthAdjust="spacing" textLength="12.6" x="551.7" y="816.7913">24</text><text fill="#000000" font-family="sans-serif" font-size="11.7" lengthAdjust="spacing" textLength="67.5" x="567.9" y="816.7913">getInstance()</text><polygon fill="#181818" points="555.3,846.0896,546.3,849.6896,555.3,853.2896,551.7,849.6896" style="stroke:#181818;stroke-width:0.9;"/><line style="stroke:#181818;stroke-width:0.9;stroke-dasharray:2.0,2.0;" x1="549.9" x2="684.9" y1="849.6896" y2="849.6896"/><text fill="#000000" font-family="sans-serif" font-size="11.7" font-weight="bold" lengthAdjust="spacing" textLength="12.6" x="560.7" y="844.9532">25</text><text fill="#000000" font-family="sans-serif" font-size="11.7" lengthAdjust="spacing" textLength="60.3" x="576.9" y="844.9532">repositories</text><polygon fill="#181818" points="766.8,874.2516,775.8,877.8516,766.8,881.4516,770.4,877.8516" style="stroke:#181818;stroke-width:0.9;"/><line style="stroke:#181818;stroke-width:0.9;" x1="545.4" x2="772.2" y1="877.8516" y2="877.8516"/><text fill="#000000" font-family="sans-serif" font-size="11.7" font-weight="bold" lengthAdjust="spacing" textLength="12.6" x="551.7" y="873.1151">26</text><text fill="#000000" font-family="sans-serif" font-size="11.7" lengthAdjust="spacing" textLength="108" x="567.9" y="873.1151">getTeamRepository()</text><polygon fill="#181818" points="555.3,902.4135,546.3,906.0135,555.3,909.6135,551.7,906.0135" style="stroke:#181818;stroke-width:0.9;"/><line style="stroke:#181818;stroke-width:0.9;stroke-dasharray:2.0,2.0;" x1="549.9" x2="781.2" y1="906.0135" y2="906.0135"/><text fill="#000000" font-family="sans-serif" font-size="11.7" font-weight="bold" lengthAdjust="spacing" textLength="12.6" x="560.7" y="901.2771">27</text><text fill="#000000" font-family="sans-serif" font-size="11.7" lengthAdjust="spacing" textLength="81.9" x="576.9" y="901.2771">teamRepository</text><polygon fill="#181818" points="1133.55,930.5754,1142.55,934.1754,1133.55,937.7754,1137.15,934.1754" style="stroke:#181818;stroke-width:0.9;"/><line style="stroke:#181818;stroke-width:0.9;" x1="545.4" x2="1138.95" y1="934.1754" y2="934.1754"/><text fill="#000000" font-family="sans-serif" font-size="11.7" font-weight="bold" lengthAdjust="spacing" textLength="12.6" x="551.7" y="929.439">28</text><text fill="#000000" font-family="sans-serif" font-size="11.7" lengthAdjust="spacing" textLength="180.9" x="567.9" y="929.439">createTeam(selectedCollaborators)</text><polygon fill="#181818" points="1332.45,958.7373,1341.45,962.3373,1332.45,965.9373,1336.05,962.3373" style="stroke:#181818;stroke-width:0.9;"/><line style="stroke:#181818;stroke-width:0.9;" x1="1153.35" x2="1337.85" y1="962.3373" y2="962.3373"/><text fill="#000000" font-family="sans-serif" font-size="11.7" font-weight="bold" lengthAdjust="spacing" textLength="12.6" x="1159.65" y="957.6009">29</text><text fill="#000000" font-family="sans-serif" font-size="11.7" lengthAdjust="spacing" textLength="152.1" x="1175.85" y="957.6009">create(selectedCollaborators)</text><rect fill="#E3E3E3" height="46.118" rx="2.25" ry="2.25" style="stroke:#181818;stroke-width:0.45;" width="48.6" x="1343.25" y="941.3754"/><text fill="#000000" font-family="sans-serif" font-size="12.6" lengthAdjust="spacing" textLength="27.9" x="1353.6" y="961.2721">team</text><text fill="#000000" font-family="sans-serif" font-size="12.6" lengthAdjust="spacing" textLength="36" x="1349.55" y="978.0311">:Team</text><path d="M1395.9,957.1034 L1395.9,981.4034 L1615.5,981.4034 L1615.5,966.1034 L1606.5,957.1034 L1395.9,957.1034 " fill="#FAFAFA" style="stroke:#181818;stroke-width:0.45;"/><path d="M1606.5,957.1034 L1606.5,966.1034 L1615.5,966.1034 L1606.5,957.1034 " fill="#FAFAFA" style="stroke:#181818;stroke-width:0.45;"/><text fill="#000000" font-family="sans-serif" font-size="11.7" lengthAdjust="spacing" textLength="200.7" x="1401.3" y="974.2289">team is created with a PENDING state</text><line style="stroke:#181818;stroke-width:0.9;" x1="1153.35" x2="1191.15" y1="1018.3553" y2="1018.3553"/><line style="stroke:#181818;stroke-width:0.9;" x1="1191.15" x2="1191.15" y1="1018.3553" y2="1030.0553"/><line style="stroke:#181818;stroke-width:0.9;" x1="1154.25" x2="1191.15" y1="1030.0553" y2="1030.0553"/><polygon fill="#181818" points="1163.25,1026.4553,1154.25,1030.0553,1163.25,1033.6553,1159.65,1030.0553" style="stroke:#181818;stroke-width:0.9;"/><text fill="#000000" font-family="sans-serif" font-size="11.7" font-weight="bold" lengthAdjust="spacing" textLength="12.6" x="1159.65" y="1013.6188">30</text><text fill="#000000" font-family="sans-serif" font-size="11.7" lengthAdjust="spacing" textLength="54.9" x="1175.85" y="1013.6188">addTeam()</text><polygon fill="#181818" points="555.3,1054.6172,546.3,1058.2172,555.3,1061.8172,551.7,1058.2172" style="stroke:#181818;stroke-width:0.9;"/><line style="stroke:#181818;stroke-width:0.9;stroke-dasharray:2.0,2.0;" x1="549.9" x2="1147.95" y1="1058.2172" y2="1058.2172"/><text fill="#000000" font-family="sans-serif" font-size="11.7" font-weight="bold" lengthAdjust="spacing" textLength="12.6" x="560.7" y="1053.4808">31</text><text fill="#000000" font-family="sans-serif" font-size="11.7" lengthAdjust="spacing" textLength="26.1" x="576.9" y="1053.4808">team</text><polygon fill="#181818" points="311.4,1082.7791,302.4,1086.3791,311.4,1089.9791,307.8,1086.3791" style="stroke:#181818;stroke-width:0.9;"/><line style="stroke:#181818;stroke-width:0.9;stroke-dasharray:2.0,2.0;" x1="306" x2="531" y1="1086.3791" y2="1086.3791"/><text fill="#000000" font-family="sans-serif" font-size="11.7" font-weight="bold" lengthAdjust="spacing" textLength="12.6" x="316.8" y="1081.6427">32</text><text fill="#000000" font-family="sans-serif" font-size="11.7" lengthAdjust="spacing" textLength="26.1" x="333" y="1081.6427">team</text><polygon fill="#181818" points="96.3,1110.941,87.3,1114.541,96.3,1118.141,92.7,1114.541" style="stroke:#181818;stroke-width:0.9;"/><line style="stroke:#181818;stroke-width:0.9;stroke-dasharray:2.0,2.0;" x1="90.9" x2="296.1" y1="1114.541" y2="1114.541"/><text fill="#000000" font-family="sans-serif" font-size="11.7" font-weight="bold" lengthAdjust="spacing" textLength="12.6" x="101.7" y="1109.8046">33</text><text fill="#000000" font-family="sans-serif" font-size="11.7" lengthAdjust="spacing" textLength="105.3" x="117.9" y="1109.8046">shows created team</text><!--SRC=[tLPBRzim3BxdLn2zh2tQFv33W2mhsW1z175wAp0eDki8iILFajkrltwKx2MIB6VjSVCX3vFVnuT8Ydh7HSCKgw6MGkPR9Mi4ergSwBsaOVcEbPYPjmf1OMwOA2jVGMzP8L-vAE6PLHed4zOQATfwWuf-vqOgEBbfQoPWXLgsAaSDTqmGfpe1fk5cTJSX9iDptZ1Xu6GwLyWChf7LIoKRgLdrk72gZuk_QiwbC4fMLKy-Nwzk8ymAIP6JMnorqzc_UCkuZOsy3o7AGpo98S7oThOE4PITgZhmJfz45hvnkEXTI95J46mZ5IDHm3HF2hfeawAGrr2o0hvryCBnXAycNo1aO7etfxIN90kPaeAECIcAcQUpfgbupWoN8aEjwSkXVyoMorYNDKslGaSoWal0ybOf5EO0VTIeV4nsbMMpXnWcLSa4VtSMWfWVaWB7b1OTOoPtV537iheU7Y0fsZFgKdirktEDnbyemQwTm7x2vLTg69YIpaw3aL2YG6LL65WEQFgM8VKzcZeCw24SeMtpd9yJG-xQR2yXaUNlcMlsYzSjpG7-RbKAzCaYLpIAOe186OzCSF5P4o5YF3v2b6XS9-hJCoVSAxlX0UvngWH9p8gEOI4qJSOSUmwF9JLUe7zIT9S7p_p1qsEys5F4aRjsCdaH7X13DzqG- -ENmtcEHFDiw8j3HyOZaubCU-Qpf0KOaCHEtN9jXkwasJh7zeKIm3smE_QHIbJui-KAYmwjFrQCGz3HUim7bzefbVE5RPkBdk8_BjJq7VR9UarVdXyhsxG3G-VqjxU-c7rhEZmY0279ZkBbrX35CwyCgi0zsYWsJ5DnK4RD5hawL4buniT2WZ6lHtAIxfgZ9bmS6scCh5rXLxGAXe70C-sF0pDXU7Om0nE5BMPuOLLBow3zgzaB0gSBi2F68iZqnBlV_iLQ7w_sSDFwP9M7gzp7gZiq64oRqsJk1owjKrOX9hQcQ37nreVZz56Zk0M5wnvQm2itMzfRbbVttnVtrq37skyZ8wRZA5bHk13FHa5XMeV9J8OTtYXxO7oP3EuIlPMlX-1wN7YJUFy8yni0]--></g></svg>