<?xml version="1.0" encoding="us-ascii" standalone="no"?><svg xmlns="http://www.w3.org/2000/svg" xmlns:xlink="http://www.w3.org/1999/xlink" contentStyleType="text/css" height="775px" preserveAspectRatio="none" style="width:1369px;height:775px;background:#FFFFFF;" version="1.1" viewBox="0 0 1369 775" width="1369px" zoomAndPan="magnify"><defs/><g><!--class CreateTeamProposalUI--><g id="elem_CreateTeamProposalUI"><rect codeLine="12" fill="#F1F1F1" height="48" id="CreateTeamProposalUI" rx="2.5" ry="2.5" style="stroke:#181818;stroke-width:0.5;" width="183" x="536" y="7"/><ellipse cx="551" cy="23" fill="#ADD1B2" rx="11" ry="11" style="stroke:#181818;stroke-width:1.0;"/><path d="M553.7656,18.875 Q553.9219,18.6563 554.1094,18.5469 Q554.2969,18.4375 554.5156,18.4375 Q554.8906,18.4375 555.125,18.7031 Q555.3594,18.9531 555.3594,19.5625 L555.3594,21.0156 Q555.3594,21.625 555.125,21.8906 Q554.8906,22.1563 554.5156,22.1563 Q554.1719,22.1563 553.9688,21.9531 Q553.7656,21.7656 553.6563,21.25 Q553.6094,20.8906 553.4219,20.7031 Q553.0938,20.3281 552.4844,20.1094 Q551.875,19.8906 551.25,19.8906 Q550.4844,19.8906 549.8438,20.2188 Q549.2188,20.5469 548.7188,21.2969 Q548.2344,22.0469 548.2344,23.0781 L548.2344,24.1719 Q548.2344,25.4063 549.125,26.2344 Q550.0156,27.0469 551.6094,27.0469 Q552.5469,27.0469 553.2031,26.7969 Q553.5938,26.6406 554.0156,26.2031 Q554.2813,25.9375 554.4219,25.8594 Q554.5781,25.7813 554.7813,25.7813 Q555.1094,25.7813 555.3594,26.0469 Q555.625,26.2969 555.625,26.6406 Q555.625,26.9844 555.2813,27.3906 Q554.7813,27.9688 553.9844,28.2969 Q552.9063,28.75 551.6094,28.75 Q550.0938,28.75 548.8906,28.125 Q547.9063,27.625 547.2188,26.5625 Q546.5313,25.4844 546.5313,24.2031 L546.5313,23.0469 Q546.5313,21.7188 547.1406,20.5781 Q547.7656,19.4219 548.8594,18.8125 Q549.9531,18.1875 551.1875,18.1875 Q551.9219,18.1875 552.5625,18.3594 Q553.2188,18.5156 553.7656,18.875 Z " fill="#000000"/><text fill="#000000" font-family="sans-serif" font-size="14" lengthAdjust="spacing" textLength="151" x="565" y="28.7969">:CreateTeamProposalUI</text><line style="stroke:#181818;stroke-width:0.5;" x1="537" x2="718" y1="39" y2="39"/><line style="stroke:#181818;stroke-width:0.5;" x1="537" x2="718" y1="47" y2="47"/></g><!--class CreateTeamProposalController--><g id="elem_CreateTeamProposalController"><rect codeLine="17" fill="#F1F1F1" height="85.2422" id="CreateTeamProposalController" rx="2.5" ry="2.5" style="stroke:#181818;stroke-width:0.5;" width="255" x="500" y="116"/><ellipse cx="524.9" cy="132" fill="#ADD1B2" rx="11" ry="11" style="stroke:#181818;stroke-width:1.0;"/><path d="M527.6656,127.875 Q527.8219,127.6563 528.0094,127.5469 Q528.1969,127.4375 528.4156,127.4375 Q528.7906,127.4375 529.025,127.7031 Q529.2594,127.9531 529.2594,128.5625 L529.2594,130.0156 Q529.2594,130.625 529.025,130.8906 Q528.7906,131.1563 528.4156,131.1563 Q528.0719,131.1563 527.8688,130.9531 Q527.6656,130.7656 527.5563,130.25 Q527.5094,129.8906 527.3219,129.7031 Q526.9938,129.3281 526.3844,129.1094 Q525.775,128.8906 525.15,128.8906 Q524.3844,128.8906 523.7438,129.2188 Q523.1188,129.5469 522.6188,130.2969 Q522.1344,131.0469 522.1344,132.0781 L522.1344,133.1719 Q522.1344,134.4063 523.025,135.2344 Q523.9156,136.0469 525.5094,136.0469 Q526.4469,136.0469 527.1031,135.7969 Q527.4938,135.6406 527.9156,135.2031 Q528.1813,134.9375 528.3219,134.8594 Q528.4781,134.7813 528.6813,134.7813 Q529.0094,134.7813 529.2594,135.0469 Q529.525,135.2969 529.525,135.6406 Q529.525,135.9844 529.1813,136.3906 Q528.6813,136.9688 527.8844,137.2969 Q526.8063,137.75 525.5094,137.75 Q523.9938,137.75 522.7906,137.125 Q521.8063,136.625 521.1188,135.5625 Q520.4313,134.4844 520.4313,133.2031 L520.4313,132.0469 Q520.4313,130.7188 521.0406,129.5781 Q521.6656,128.4219 522.7594,127.8125 Q523.8531,127.1875 525.0875,127.1875 Q525.8219,127.1875 526.4625,127.3594 Q527.1188,127.5156 527.6656,127.875 Z " fill="#000000"/><text fill="#000000" font-family="sans-serif" font-size="14" lengthAdjust="spacing" textLength="201" x="541.1" y="137.7969">:CreateTeamProposalController</text><line style="stroke:#181818;stroke-width:0.5;" x1="501" x2="754" y1="148" y2="148"/><line style="stroke:#181818;stroke-width:0.5;" x1="501" x2="754" y1="156" y2="156"/><text fill="#000000" font-family="sans-serif" font-size="14" lengthAdjust="spacing" textLength="92" x="506" y="175.1074">+getSkillsList()</text><text fill="#000000" font-family="sans-serif" font-size="14" lengthAdjust="spacing" textLength="243" x="506" y="193.7285">+createTeamProposal(max, min, skills)</text></g><!--class CreateTeamProposalService--><g id="elem_CreateTeamProposalService"><rect codeLine="23" fill="#F1F1F1" height="85.2422" id="CreateTeamProposalService" rx="2.5" ry="2.5" style="stroke:#181818;stroke-width:0.5;" width="299" x="325" y="298.5"/><ellipse cx="377.25" cy="314.5" fill="#ADD1B2" rx="11" ry="11" style="stroke:#181818;stroke-width:1.0;"/><path d="M380.0156,310.375 Q380.1719,310.1563 380.3594,310.0469 Q380.5469,309.9375 380.7656,309.9375 Q381.1406,309.9375 381.375,310.2031 Q381.6094,310.4531 381.6094,311.0625 L381.6094,312.5156 Q381.6094,313.125 381.375,313.3906 Q381.1406,313.6563 380.7656,313.6563 Q380.4219,313.6563 380.2188,313.4531 Q380.0156,313.2656 379.9063,312.75 Q379.8594,312.3906 379.6719,312.2031 Q379.3438,311.8281 378.7344,311.6094 Q378.125,311.3906 377.5,311.3906 Q376.7344,311.3906 376.0938,311.7188 Q375.4688,312.0469 374.9688,312.7969 Q374.4844,313.5469 374.4844,314.5781 L374.4844,315.6719 Q374.4844,316.9063 375.375,317.7344 Q376.2656,318.5469 377.8594,318.5469 Q378.7969,318.5469 379.4531,318.2969 Q379.8438,318.1406 380.2656,317.7031 Q380.5313,317.4375 380.6719,317.3594 Q380.8281,317.2813 381.0313,317.2813 Q381.3594,317.2813 381.6094,317.5469 Q381.875,317.7969 381.875,318.1406 Q381.875,318.4844 381.5313,318.8906 Q381.0313,319.4688 380.2344,319.7969 Q379.1563,320.25 377.8594,320.25 Q376.3438,320.25 375.1406,319.625 Q374.1563,319.125 373.4688,318.0625 Q372.7813,316.9844 372.7813,315.7031 L372.7813,314.5469 Q372.7813,313.2188 373.3906,312.0781 Q374.0156,310.9219 375.1094,310.3125 Q376.2031,309.6875 377.4375,309.6875 Q378.1719,309.6875 378.8125,309.8594 Q379.4688,310.0156 380.0156,310.375 Z " fill="#000000"/><text fill="#000000" font-family="sans-serif" font-size="14" lengthAdjust="spacing" textLength="186" x="397.75" y="320.2969">:CreateTeamProposalService</text><line style="stroke:#181818;stroke-width:0.5;" x1="326" x2="623" y1="330.5" y2="330.5"/><line style="stroke:#181818;stroke-width:0.5;" x1="326" x2="623" y1="338.5" y2="338.5"/><text fill="#000000" font-family="sans-serif" font-size="14" lengthAdjust="spacing" textLength="224" x="331" y="357.6074">+arrangeCollaboratorsBySkill(skills)</text><text fill="#000000" font-family="sans-serif" font-size="14" lengthAdjust="spacing" textLength="287" x="331" y="376.2285">+arrangeTeam(max, min, skills, collaborators)</text></g><!--class Repositories--><g id="elem_Repositories"><rect codeLine="28" fill="#F1F1F1" height="122.4844" id="Repositories" rx="2.5" ry="2.5" style="stroke:#181818;stroke-width:0.5;" width="244" x="659.5" y="280"/><ellipse cx="735.75" cy="296" fill="#ADD1B2" rx="11" ry="11" style="stroke:#181818;stroke-width:1.0;"/><path d="M738.5156,291.875 Q738.6719,291.6563 738.8594,291.5469 Q739.0469,291.4375 739.2656,291.4375 Q739.6406,291.4375 739.875,291.7031 Q740.1094,291.9531 740.1094,292.5625 L740.1094,294.0156 Q740.1094,294.625 739.875,294.8906 Q739.6406,295.1563 739.2656,295.1563 Q738.9219,295.1563 738.7188,294.9531 Q738.5156,294.7656 738.4063,294.25 Q738.3594,293.8906 738.1719,293.7031 Q737.8438,293.3281 737.2344,293.1094 Q736.625,292.8906 736,292.8906 Q735.2344,292.8906 734.5938,293.2188 Q733.9688,293.5469 733.4688,294.2969 Q732.9844,295.0469 732.9844,296.0781 L732.9844,297.1719 Q732.9844,298.4063 733.875,299.2344 Q734.7656,300.0469 736.3594,300.0469 Q737.2969,300.0469 737.9531,299.7969 Q738.3438,299.6406 738.7656,299.2031 Q739.0313,298.9375 739.1719,298.8594 Q739.3281,298.7813 739.5313,298.7813 Q739.8594,298.7813 740.1094,299.0469 Q740.375,299.2969 740.375,299.6406 Q740.375,299.9844 740.0313,300.3906 Q739.5313,300.9688 738.7344,301.2969 Q737.6563,301.75 736.3594,301.75 Q734.8438,301.75 733.6406,301.125 Q732.6563,300.625 731.9688,299.5625 Q731.2813,298.4844 731.2813,297.2031 L731.2813,296.0469 Q731.2813,294.7188 731.8906,293.5781 Q732.5156,292.4219 733.6094,291.8125 Q734.7031,291.1875 735.9375,291.1875 Q736.6719,291.1875 737.3125,291.3594 Q737.9688,291.5156 738.5156,291.875 Z " fill="#000000"/><text fill="#000000" font-family="sans-serif" font-size="14" lengthAdjust="spacing" textLength="83" x="756.25" y="301.7969">:Repositories</text><line style="stroke:#181818;stroke-width:0.5;" x1="660.5" x2="902.5" y1="312" y2="312"/><line style="stroke:#181818;stroke-width:0.5;" x1="660.5" x2="902.5" y1="320" y2="320"/><text fill="#000000" font-family="sans-serif" font-size="14" lengthAdjust="spacing" textLength="178" x="665.5" y="339.1074">+getInstance(): Repositories</text><text fill="#000000" font-family="sans-serif" font-size="14" lengthAdjust="spacing" textLength="232" x="665.5" y="357.7285">+getSkillRepository(): SkillRepository</text><text fill="#000000" font-family="sans-serif" font-size="14" lengthAdjust="spacing" textLength="184" x="665.5" y="376.3496">+getCollaboratorRepository()</text><text fill="#000000" font-family="sans-serif" font-size="14" lengthAdjust="spacing" textLength="142" x="665.5" y="394.9707">+getTeamRepository()</text></g><!--class SkillRepository--><g id="elem_SkillRepository"><rect codeLine="35" fill="#F1F1F1" height="66.6211" id="SkillRepository" rx="2.5" ry="2.5" style="stroke:#181818;stroke-width:0.5;" width="125" x="7" y="472"/><ellipse cx="22" cy="488" fill="#ADD1B2" rx="11" ry="11" style="stroke:#181818;stroke-width:1.0;"/><path d="M24.7656,483.875 Q24.9219,483.6563 25.1094,483.5469 Q25.2969,483.4375 25.5156,483.4375 Q25.8906,483.4375 26.125,483.7031 Q26.3594,483.9531 26.3594,484.5625 L26.3594,486.0156 Q26.3594,486.625 26.125,486.8906 Q25.8906,487.1563 25.5156,487.1563 Q25.1719,487.1563 24.9688,486.9531 Q24.7656,486.7656 24.6563,486.25 Q24.6094,485.8906 24.4219,485.7031 Q24.0938,485.3281 23.4844,485.1094 Q22.875,484.8906 22.25,484.8906 Q21.4844,484.8906 20.8438,485.2188 Q20.2188,485.5469 19.7188,486.2969 Q19.2344,487.0469 19.2344,488.0781 L19.2344,489.1719 Q19.2344,490.4063 20.125,491.2344 Q21.0156,492.0469 22.6094,492.0469 Q23.5469,492.0469 24.2031,491.7969 Q24.5938,491.6406 25.0156,491.2031 Q25.2813,490.9375 25.4219,490.8594 Q25.5781,490.7813 25.7813,490.7813 Q26.1094,490.7813 26.3594,491.0469 Q26.625,491.2969 26.625,491.6406 Q26.625,491.9844 26.2813,492.3906 Q25.7813,492.9688 24.9844,493.2969 Q23.9063,493.75 22.6094,493.75 Q21.0938,493.75 19.8906,493.125 Q18.9063,492.625 18.2188,491.5625 Q17.5313,490.4844 17.5313,489.2031 L17.5313,488.0469 Q17.5313,486.7188 18.1406,485.5781 Q18.7656,484.4219 19.8594,483.8125 Q20.9531,483.1875 22.1875,483.1875 Q22.9219,483.1875 23.5625,483.3594 Q24.2188,483.5156 24.7656,483.875 Z " fill="#000000"/><text fill="#000000" font-family="sans-serif" font-size="14" lengthAdjust="spacing" textLength="93" x="36" y="493.7969">SkillRepository</text><line style="stroke:#181818;stroke-width:0.5;" x1="8" x2="131" y1="504" y2="504"/><line style="stroke:#181818;stroke-width:0.5;" x1="8" x2="131" y1="512" y2="512"/><text fill="#000000" font-family="sans-serif" font-size="14" lengthAdjust="spacing" textLength="92" x="13" y="531.1074">+getSkillsList()</text></g><!--class HRM--><g id="elem_HRM"><rect codeLine="40" fill="#F1F1F1" height="48" id="HRM" rx="2.5" ry="2.5" style="stroke:#181818;stroke-width:0.5;" width="62" x="1266.5" y="481.5"/><ellipse cx="1281.5" cy="497.5" fill="#ADD1B2" rx="11" ry="11" style="stroke:#181818;stroke-width:1.0;"/><path d="M1284.2656,493.375 Q1284.4219,493.1563 1284.6094,493.0469 Q1284.7969,492.9375 1285.0156,492.9375 Q1285.3906,492.9375 1285.625,493.2031 Q1285.8594,493.4531 1285.8594,494.0625 L1285.8594,495.5156 Q1285.8594,496.125 1285.625,496.3906 Q1285.3906,496.6563 1285.0156,496.6563 Q1284.6719,496.6563 1284.4688,496.4531 Q1284.2656,496.2656 1284.1563,495.75 Q1284.1094,495.3906 1283.9219,495.2031 Q1283.5938,494.8281 1282.9844,494.6094 Q1282.375,494.3906 1281.75,494.3906 Q1280.9844,494.3906 1280.3438,494.7188 Q1279.7188,495.0469 1279.2188,495.7969 Q1278.7344,496.5469 1278.7344,497.5781 L1278.7344,498.6719 Q1278.7344,499.9063 1279.625,500.7344 Q1280.5156,501.5469 1282.1094,501.5469 Q1283.0469,501.5469 1283.7031,501.2969 Q1284.0938,501.1406 1284.5156,500.7031 Q1284.7813,500.4375 1284.9219,500.3594 Q1285.0781,500.2813 1285.2813,500.2813 Q1285.6094,500.2813 1285.8594,500.5469 Q1286.125,500.7969 1286.125,501.1406 Q1286.125,501.4844 1285.7813,501.8906 Q1285.2813,502.4688 1284.4844,502.7969 Q1283.4063,503.25 1282.1094,503.25 Q1280.5938,503.25 1279.3906,502.625 Q1278.4063,502.125 1277.7188,501.0625 Q1277.0313,499.9844 1277.0313,498.7031 L1277.0313,497.5469 Q1277.0313,496.2188 1277.6406,495.0781 Q1278.2656,493.9219 1279.3594,493.3125 Q1280.4531,492.6875 1281.6875,492.6875 Q1282.4219,492.6875 1283.0625,492.8594 Q1283.7188,493.0156 1284.2656,493.375 Z " fill="#000000"/><text fill="#000000" font-family="sans-serif" font-size="14" lengthAdjust="spacing" textLength="30" x="1295.5" y="503.2969">HRM</text><line style="stroke:#181818;stroke-width:0.5;" x1="1267.5" x2="1327.5" y1="513.5" y2="513.5"/><line style="stroke:#181818;stroke-width:0.5;" x1="1267.5" x2="1327.5" y1="521.5" y2="521.5"/></g><!--class SystemUser--><g id="elem_SystemUser"><rect codeLine="42" fill="#F1F1F1" height="122.4844" id="SystemUser" rx="2.5" ry="2.5" style="stroke:#181818;stroke-width:0.5;" width="107" x="1255" y="280"/><ellipse cx="1270" cy="296" fill="#ADD1B2" rx="11" ry="11" style="stroke:#181818;stroke-width:1.0;"/><path d="M1272.7656,291.875 Q1272.9219,291.6563 1273.1094,291.5469 Q1273.2969,291.4375 1273.5156,291.4375 Q1273.8906,291.4375 1274.125,291.7031 Q1274.3594,291.9531 1274.3594,292.5625 L1274.3594,294.0156 Q1274.3594,294.625 1274.125,294.8906 Q1273.8906,295.1563 1273.5156,295.1563 Q1273.1719,295.1563 1272.9688,294.9531 Q1272.7656,294.7656 1272.6563,294.25 Q1272.6094,293.8906 1272.4219,293.7031 Q1272.0938,293.3281 1271.4844,293.1094 Q1270.875,292.8906 1270.25,292.8906 Q1269.4844,292.8906 1268.8438,293.2188 Q1268.2188,293.5469 1267.7188,294.2969 Q1267.2344,295.0469 1267.2344,296.0781 L1267.2344,297.1719 Q1267.2344,298.4063 1268.125,299.2344 Q1269.0156,300.0469 1270.6094,300.0469 Q1271.5469,300.0469 1272.2031,299.7969 Q1272.5938,299.6406 1273.0156,299.2031 Q1273.2813,298.9375 1273.4219,298.8594 Q1273.5781,298.7813 1273.7813,298.7813 Q1274.1094,298.7813 1274.3594,299.0469 Q1274.625,299.2969 1274.625,299.6406 Q1274.625,299.9844 1274.2813,300.3906 Q1273.7813,300.9688 1272.9844,301.2969 Q1271.9063,301.75 1270.6094,301.75 Q1269.0938,301.75 1267.8906,301.125 Q1266.9063,300.625 1266.2188,299.5625 Q1265.5313,298.4844 1265.5313,297.2031 L1265.5313,296.0469 Q1265.5313,294.7188 1266.1406,293.5781 Q1266.7656,292.4219 1267.8594,291.8125 Q1268.9531,291.1875 1270.1875,291.1875 Q1270.9219,291.1875 1271.5625,291.3594 Q1272.2188,291.5156 1272.7656,291.875 Z " fill="#000000"/><text fill="#000000" font-family="sans-serif" font-size="14" lengthAdjust="spacing" textLength="75" x="1284" y="301.7969">SystemUser</text><line style="stroke:#181818;stroke-width:0.5;" x1="1256" x2="1361" y1="312" y2="312"/><text fill="#000000" font-family="sans-serif" font-size="14" lengthAdjust="spacing" textLength="35" x="1261" y="331.1074">name</text><text fill="#000000" font-family="sans-serif" font-size="14" lengthAdjust="spacing" textLength="33" x="1261" y="349.7285">email</text><text fill="#000000" font-family="sans-serif" font-size="14" lengthAdjust="spacing" textLength="60" x="1261" y="368.3496">password</text><text fill="#000000" font-family="sans-serif" font-size="14" lengthAdjust="spacing" textLength="40" x="1261" y="386.9707">phone</text><line style="stroke:#181818;stroke-width:0.5;" x1="1256" x2="1361" y1="394.4844" y2="394.4844"/></g><!--class CollaboratorRepository--><g id="elem_CollaboratorRepository"><rect codeLine="49" fill="#F1F1F1" height="66.6211" id="CollaboratorRepository" rx="2.5" ry="2.5" style="stroke:#181818;stroke-width:0.5;" width="288" x="436.5" y="472"/><ellipse cx="503.25" cy="488" fill="#ADD1B2" rx="11" ry="11" style="stroke:#181818;stroke-width:1.0;"/><path d="M506.0156,483.875 Q506.1719,483.6563 506.3594,483.5469 Q506.5469,483.4375 506.7656,483.4375 Q507.1406,483.4375 507.375,483.7031 Q507.6094,483.9531 507.6094,484.5625 L507.6094,486.0156 Q507.6094,486.625 507.375,486.8906 Q507.1406,487.1563 506.7656,487.1563 Q506.4219,487.1563 506.2188,486.9531 Q506.0156,486.7656 505.9063,486.25 Q505.8594,485.8906 505.6719,485.7031 Q505.3438,485.3281 504.7344,485.1094 Q504.125,484.8906 503.5,484.8906 Q502.7344,484.8906 502.0938,485.2188 Q501.4688,485.5469 500.9688,486.2969 Q500.4844,487.0469 500.4844,488.0781 L500.4844,489.1719 Q500.4844,490.4063 501.375,491.2344 Q502.2656,492.0469 503.8594,492.0469 Q504.7969,492.0469 505.4531,491.7969 Q505.8438,491.6406 506.2656,491.2031 Q506.5313,490.9375 506.6719,490.8594 Q506.8281,490.7813 507.0313,490.7813 Q507.3594,490.7813 507.6094,491.0469 Q507.875,491.2969 507.875,491.6406 Q507.875,491.9844 507.5313,492.3906 Q507.0313,492.9688 506.2344,493.2969 Q505.1563,493.75 503.8594,493.75 Q502.3438,493.75 501.1406,493.125 Q500.1563,492.625 499.4688,491.5625 Q498.7813,490.4844 498.7813,489.2031 L498.7813,488.0469 Q498.7813,486.7188 499.3906,485.5781 Q500.0156,484.4219 501.1094,483.8125 Q502.2031,483.1875 503.4375,483.1875 Q504.1719,483.1875 504.8125,483.3594 Q505.4688,483.5156 506.0156,483.875 Z " fill="#000000"/><text fill="#000000" font-family="sans-serif" font-size="14" lengthAdjust="spacing" textLength="146" x="523.75" y="493.7969">CollaboratorRepository</text><line style="stroke:#181818;stroke-width:0.5;" x1="437.5" x2="723.5" y1="504" y2="504"/><line style="stroke:#181818;stroke-width:0.5;" x1="437.5" x2="723.5" y1="512" y2="512"/><text fill="#000000" font-family="sans-serif" font-size="14" lengthAdjust="spacing" textLength="276" x="442.5" y="531.1074">+getDeactivatedCollaboratorsBySkills(skills)</text></g><!--class TeamRepository--><g id="elem_TeamRepository"><rect codeLine="53" fill="#F1F1F1" height="85.2422" id="TeamRepository" rx="2.5" ry="2.5" style="stroke:#181818;stroke-width:0.5;" width="173" x="966" y="463"/><ellipse cx="997.65" cy="479" fill="#ADD1B2" rx="11" ry="11" style="stroke:#181818;stroke-width:1.0;"/><path d="M1000.4156,474.875 Q1000.5719,474.6563 1000.7594,474.5469 Q1000.9469,474.4375 1001.1656,474.4375 Q1001.5406,474.4375 1001.775,474.7031 Q1002.0094,474.9531 1002.0094,475.5625 L1002.0094,477.0156 Q1002.0094,477.625 1001.775,477.8906 Q1001.5406,478.1563 1001.1656,478.1563 Q1000.8219,478.1563 1000.6188,477.9531 Q1000.4156,477.7656 1000.3063,477.25 Q1000.2594,476.8906 1000.0719,476.7031 Q999.7438,476.3281 999.1344,476.1094 Q998.525,475.8906 997.9,475.8906 Q997.1344,475.8906 996.4938,476.2188 Q995.8688,476.5469 995.3688,477.2969 Q994.8844,478.0469 994.8844,479.0781 L994.8844,480.1719 Q994.8844,481.4063 995.775,482.2344 Q996.6656,483.0469 998.2594,483.0469 Q999.1969,483.0469 999.8531,482.7969 Q1000.2438,482.6406 1000.6656,482.2031 Q1000.9313,481.9375 1001.0719,481.8594 Q1001.2281,481.7813 1001.4313,481.7813 Q1001.7594,481.7813 1002.0094,482.0469 Q1002.275,482.2969 1002.275,482.6406 Q1002.275,482.9844 1001.9313,483.3906 Q1001.4313,483.9688 1000.6344,484.2969 Q999.5563,484.75 998.2594,484.75 Q996.7438,484.75 995.5406,484.125 Q994.5563,483.625 993.8688,482.5625 Q993.1813,481.4844 993.1813,480.2031 L993.1813,479.0469 Q993.1813,477.7188 993.7906,476.5781 Q994.4156,475.4219 995.5094,474.8125 Q996.6031,474.1875 997.8375,474.1875 Q998.5719,474.1875 999.2125,474.3594 Q999.8688,474.5156 1000.4156,474.875 Z " fill="#000000"/><text fill="#000000" font-family="sans-serif" font-size="14" lengthAdjust="spacing" textLength="104" x="1015.35" y="484.7969">TeamRepository</text><line style="stroke:#181818;stroke-width:0.5;" x1="967" x2="1138" y1="495" y2="495"/><line style="stroke:#181818;stroke-width:0.5;" x1="967" x2="1138" y1="503" y2="503"/><text fill="#000000" font-family="sans-serif" font-size="14" lengthAdjust="spacing" textLength="133" x="972" y="522.1074">+registerTeam(team)</text><text fill="#000000" font-family="sans-serif" font-size="14" lengthAdjust="spacing" textLength="161" x="972" y="540.7285">-teamAlreadyExists(team)</text></g><!--class Team--><g id="elem_Team"><rect codeLine="58" fill="#F1F1F1" height="141.1055" id="Team" rx="2.5" ry="2.5" style="stroke:#181818;stroke-width:0.5;" width="253" x="1075" y="627"/><ellipse cx="1179.25" cy="643" fill="#ADD1B2" rx="11" ry="11" style="stroke:#181818;stroke-width:1.0;"/><path d="M1182.0156,638.875 Q1182.1719,638.6563 1182.3594,638.5469 Q1182.5469,638.4375 1182.7656,638.4375 Q1183.1406,638.4375 1183.375,638.7031 Q1183.6094,638.9531 1183.6094,639.5625 L1183.6094,641.0156 Q1183.6094,641.625 1183.375,641.8906 Q1183.1406,642.1563 1182.7656,642.1563 Q1182.4219,642.1563 1182.2188,641.9531 Q1182.0156,641.7656 1181.9063,641.25 Q1181.8594,640.8906 1181.6719,640.7031 Q1181.3438,640.3281 1180.7344,640.1094 Q1180.125,639.8906 1179.5,639.8906 Q1178.7344,639.8906 1178.0938,640.2188 Q1177.4688,640.5469 1176.9688,641.2969 Q1176.4844,642.0469 1176.4844,643.0781 L1176.4844,644.1719 Q1176.4844,645.4063 1177.375,646.2344 Q1178.2656,647.0469 1179.8594,647.0469 Q1180.7969,647.0469 1181.4531,646.7969 Q1181.8438,646.6406 1182.2656,646.2031 Q1182.5313,645.9375 1182.6719,645.8594 Q1182.8281,645.7813 1183.0313,645.7813 Q1183.3594,645.7813 1183.6094,646.0469 Q1183.875,646.2969 1183.875,646.6406 Q1183.875,646.9844 1183.5313,647.3906 Q1183.0313,647.9688 1182.2344,648.2969 Q1181.1563,648.75 1179.8594,648.75 Q1178.3438,648.75 1177.1406,648.125 Q1176.1563,647.625 1175.4688,646.5625 Q1174.7813,645.4844 1174.7813,644.2031 L1174.7813,643.0469 Q1174.7813,641.7188 1175.3906,640.5781 Q1176.0156,639.4219 1177.1094,638.8125 Q1178.2031,638.1875 1179.4375,638.1875 Q1180.1719,638.1875 1180.8125,638.3594 Q1181.4688,638.5156 1182.0156,638.875 Z " fill="#000000"/><text fill="#000000" font-family="sans-serif" font-size="14" lengthAdjust="spacing" textLength="36" x="1199.75" y="648.7969">Team</text><line style="stroke:#181818;stroke-width:0.5;" x1="1076" x2="1327" y1="659" y2="659"/><text fill="#000000" font-family="sans-serif" font-size="14" lengthAdjust="spacing" textLength="104" x="1081" y="678.1074">-Integer maxSize</text><text fill="#000000" font-family="sans-serif" font-size="14" lengthAdjust="spacing" textLength="101" x="1081" y="696.7285">-Integer minSize</text><text fill="#000000" font-family="sans-serif" font-size="14" lengthAdjust="spacing" textLength="191" x="1081" y="715.3496">-ArrayList&lt;Skill&gt; requiredSkills</text><text fill="#000000" font-family="sans-serif" font-size="14" lengthAdjust="spacing" textLength="241" x="1081" y="733.9707">-ArrayList&lt;Collaborator&gt; collaborators</text><line style="stroke:#181818;stroke-width:0.5;" x1="1076" x2="1327" y1="741.4844" y2="741.4844"/><text fill="#000000" font-family="sans-serif" font-size="14" lengthAdjust="spacing" textLength="181" x="1081" y="760.5918">+create(teamMembers,skills)</text></g><!--reverse link SystemUser to HRM--><g id="link_SystemUser_HRM"><path codeLine="69" d="M1303.2179,420.0085 C1301.3479,447.4885 1300.48,460.5 1299.08,481.12 " fill="none" id="SystemUser-backto-HRM" style="stroke:#181818;stroke-width:1.0;"/><polygon fill="none" points="1304.44,402.05,1297.2318,419.6011,1309.2041,420.4158,1304.44,402.05" style="stroke:#181818;stroke-width:1.0;"/></g><!--link CreateTeamProposalUI to CreateTeamProposalController--><g id="link_CreateTeamProposalUI_CreateTeamProposalController"><path codeLine="70" d="M627.5,55.02 C627.5,72 627.5,89.58 627.5,109.84 " fill="none" id="CreateTeamProposalUI-to-CreateTeamProposalController" style="stroke:#181818;stroke-width:1.0;stroke-dasharray:7.0,7.0;"/><polygon fill="#181818" points="627.5,115.84,631.5,106.84,627.5,110.84,623.5,106.84,627.5,115.84" style="stroke:#181818;stroke-width:1.0;"/></g><!--link Repositories to Repositories--><g id="link_Repositories_Repositories"><path codeLine="71" d="M903.61,325.28 C924.24,327.45 938.5,332.69 938.5,341 C938.5,349.31 930.2071,353.9223 909.5771,356.0923 " fill="none" id="Repositories-to-Repositories" style="stroke:#181818;stroke-width:1.0;"/><polygon fill="#181818" points="903.61,356.72,912.9791,359.7566,908.5826,356.197,912.1422,351.8005,903.61,356.72" style="stroke:#181818;stroke-width:1.0;"/><text fill="#000000" font-family="sans-serif" font-size="13" lengthAdjust="spacing" textLength="49" x="944.5" y="346.5283">instance</text></g><!--link CreateTeamProposalController to Repositories--><g id="link_CreateTeamProposalController_Repositories"><path codeLine="72" d="M663.22,201.36 C683.12,224.69 704.3565,249.5748 726.3265,275.3348 " fill="none" id="CreateTeamProposalController-to-Repositories" style="stroke:#181818;stroke-width:1.0;stroke-dasharray:7.0,7.0;"/><polygon fill="#181818" points="730.22,279.9,727.4232,270.4566,726.9754,276.0957,721.3363,275.6479,730.22,279.9" style="stroke:#181818;stroke-width:1.0;"/><text fill="#000000" font-family="sans-serif" font-size="13" lengthAdjust="spacing" textLength="67" x="705.5" y="246.0283">repositories</text></g><!--link Repositories to SkillRepository--><g id="link_Repositories_SkillRepository"><path codeLine="73" d="M659.23,394.4 C648.44,399.03 641.5,402 641.5,402 C641.5,402 286.4059,465.6315 137.9859,492.2315 " fill="none" id="Repositories-to-SkillRepository" style="stroke:#181818;stroke-width:1.0;"/><polygon fill="#181818" points="132.08,493.29,141.6445,495.6396,137.0016,492.4079,140.2332,487.765,132.08,493.29" style="stroke:#181818;stroke-width:1.0;"/><text fill="#000000" font-family="sans-serif" font-size="13" lengthAdjust="spacing" textLength="7" x="140.1335" y="487.8351">1</text></g><!--link Repositories to CollaboratorRepository--><g id="link_Repositories_CollaboratorRepository"><path codeLine="74" d="M707.23,402.05 C678.04,425.64 650.3464,448.0384 625.6264,468.0184 " fill="none" id="Repositories-to-CollaboratorRepository" style="stroke:#181818;stroke-width:1.0;"/><polygon fill="#181818" points="620.96,471.79,630.474,469.2435,624.8486,468.647,625.4452,463.0217,620.96,471.79" style="stroke:#181818;stroke-width:1.0;"/><text fill="#000000" font-family="sans-serif" font-size="13" lengthAdjust="spacing" textLength="7" x="621.0055" y="460.8359">1</text></g><!--link Repositories to TeamRepository--><g id="link_Repositories_TeamRepository"><path codeLine="75" d="M881.64,402.05 C915.41,422.3 947.1943,441.3543 978.0443,459.8543 " fill="none" id="Repositories-to-TeamRepository" style="stroke:#181818;stroke-width:1.0;"/><polygon fill="#181818" points="983.19,462.94,977.5286,454.8809,978.9019,460.3685,973.4143,461.7418,983.19,462.94" style="stroke:#181818;stroke-width:1.0;"/><text fill="#000000" font-family="sans-serif" font-size="13" lengthAdjust="spacing" textLength="7" x="964.5859" y="451.8345">1</text></g><!--link CreateTeamProposalController to TeamRepository--><g id="link_CreateTeamProposalController_TeamRepository"><path codeLine="76" d="M755.08,200.72 C863.1,235.61 1000.5,280 1000.5,280 C1000.5,280 1026.4458,392.0348 1041.4858,456.9548 " fill="none" id="CreateTeamProposalController-to-TeamRepository" style="stroke:#181818;stroke-width:1.0;stroke-dasharray:7.0,7.0;"/><polygon fill="#181818" points="1042.84,462.8,1044.7056,453.1294,1041.7115,457.929,1036.912,454.935,1042.84,462.8" style="stroke:#181818;stroke-width:1.0;"/><text fill="#000000" font-family="sans-serif" font-size="13" lengthAdjust="spacing" textLength="94" x="1028.5" y="346.5283">TeamRepository</text></g><!--link TeamRepository to Team--><g id="link_TeamRepository_Team"><path codeLine="77" d="M1085.2,548.2 C1103.27,571.25 1122.4973,595.7587 1143.2173,622.1787 " fill="none" id="TeamRepository-to-Team" style="stroke:#181818;stroke-width:1.0;"/><polygon fill="#181818" points="1146.92,626.9,1144.5135,617.3497,1143.8344,622.9656,1138.2185,622.2866,1146.92,626.9" style="stroke:#181818;stroke-width:1.0;"/><text fill="#000000" font-family="sans-serif" font-size="13" lengthAdjust="spacing" textLength="5" x="1136.0336" y="615.7807">*</text></g><!--link CreateTeamProposalController to Team--><g id="link_CreateTeamProposalController_Team"><path codeLine="78" d="M755.01,189.99 C904.32,225.68 1131.5,280 1131.5,280 C1131.5,280 1168.8659,502.3029 1188.7859,620.8729 " fill="none" id="CreateTeamProposalController-to-Team" style="stroke:#181818;stroke-width:1.0;"/><polygon fill="#181818" points="1189.78,626.79,1192.2336,617.2517,1188.9516,621.8591,1184.3442,618.5771,1189.78,626.79" style="stroke:#181818;stroke-width:1.0;"/></g><!--link CreateTeamProposalController to CreateTeamProposalService--><g id="link_CreateTeamProposalController_CreateTeamProposalService"><path codeLine="79" d="M592.01,201.36 C567.3,230.52 538.3501,264.6734 513.6701,293.7834 " fill="none" id="CreateTeamProposalController-to-CreateTeamProposalService" style="stroke:#181818;stroke-width:1.0;stroke-dasharray:7.0,7.0;"/><polygon fill="#181818" points="509.79,298.36,518.6612,294.0819,513.0234,294.5462,512.5591,288.9084,509.79,298.36" style="stroke:#181818;stroke-width:1.0;"/></g><!--link CreateTeamProposalController to SkillRepository--><g id="link_CreateTeamProposalController_SkillRepository"><path codeLine="80" d="M499.53,186.02 C401.34,206.37 282.5,231 282.5,231 C282.5,231 81.5,280 81.5,280 C81.5,280 74.8904,403.5986 71.5604,465.8686 " fill="none" id="CreateTeamProposalController-to-SkillRepository" style="stroke:#181818;stroke-width:1.0;stroke-dasharray:7.0,7.0;"/><polygon fill="#181818" points="71.24,471.86,75.7149,463.0864,71.507,466.8671,67.7263,462.6592,71.24,471.86" style="stroke:#181818;stroke-width:1.0;"/><text fill="#000000" font-family="sans-serif" font-size="13" lengthAdjust="spacing" textLength="85" x="82.5" y="346.5283">skillRepository</text></g><!--link CreateTeamProposalController to CollaboratorRepository--><g id="link_CreateTeamProposalController_CollaboratorRepository"><path codeLine="81" d="M499.77,193.63 C366.42,229.26 176.5,280 176.5,280 C176.5,280 176.5,402 176.5,402 C176.5,402 328.2543,440.5044 446.5743,470.5244 " fill="none" id="CreateTeamProposalController-to-CollaboratorRepository" style="stroke:#181818;stroke-width:1.0;stroke-dasharray:7.0,7.0;"/><polygon fill="#181818" points="452.39,472,444.6501,465.9095,447.5436,470.7704,442.6827,473.6638,452.39,472" style="stroke:#181818;stroke-width:1.0;"/><text fill="#000000" font-family="sans-serif" font-size="13" lengthAdjust="spacing" textLength="129" x="177.5" y="346.5283">collaboratorRepository</text></g><!--link HRM to Team--><g id="link_HRM_Team"><path codeLine="82" d="M1285.73,529.8 C1273.56,553.88 1256.6759,587.2948 1239.4459,621.3948 " fill="none" id="HRM-to-Team" style="stroke:#181818;stroke-width:1.0;"/><polygon fill="#181818" points="1236.74,626.75,1244.3689,620.5211,1238.9949,622.2873,1237.2287,616.9133,1236.74,626.75" style="stroke:#181818;stroke-width:1.0;"/><text fill="#000000" font-family="sans-serif" font-size="13" lengthAdjust="spacing" textLength="57" x="1261.5" y="593.0283">generates</text></g><!--SRC=[bLHHRzem47xthx1u0GPKssjK8J5QQKYhD9Nr1vZa6YmSExDDswpRVz_PIHCx1D1uGB7lkxllxhxps1ouB9bc1IsKLEbUgmAerKSWdQLawO7biBML0AeXjKpc8WIOFSlKAvSvVMR2X1R19TYg15egKRa36GyObRQA15wfOCQihDLyTxImIPNSyjz0FnCo5l1igLLKytnlQSOT7Qua8SGxqL6ori0i_0HM_D2gL8Q9fys8CaE73FITaByNdTTAMgs407qcI0V0OBCSxFR0XJ3VkR6JAQ7ucwKdJfE2lSrfmUMS6W-VUXxdQMn1l_0Kpd1eh8u0qnh70sjan7PACwkq-LfvJfEFL3FQe5oC4ofpceREqv3O8s0-ZjSSZESINc1wNoxsO2CDgYI5oJI982t04sejbSFrhbfeM4heqG9S5P6X8zoBwIdtxWBMqUIwADyU7-XxUzfMnaBnPFoydQTa1VWFA1WN_gj4uAlIMNtOAzHznscuddgoWwOcZwTu1mm5_uBppuP6RDePT_dYzlWyyTL71pJaM3fehmgBVtMB5-vp9L1qMNN_XWZJ6ECKRU0ct68ZBUJO9TINMz_U9PVTvGhLMBcst_eYblZ8_3hYQcTrJNrGMFWo5YiXtRvvbWzGx42RURXb91ZXxP_5mWsO3BuEDpVBYnjF8lalbl4w99GtQq0kFXikI-YOOFt1oiGvCCdeIr_N9nY4d17JOBXO3zVPnlYaToOzUTLPFlaibsCxu7NKy5IQD_2wQwztIVti_K_vmvrD8Ya6yTpxuIhpfIKq1ma80VCF]--></g></svg>