<?xml version="1.0" encoding="us-ascii" standalone="no"?><svg xmlns="http://www.w3.org/2000/svg" xmlns:xlink="http://www.w3.org/1999/xlink" contentStyleType="text/css" height="428.4px" preserveAspectRatio="none" style="width:446px;height:428px;background:#FFFFFF;" version="1.1" viewBox="0 0 446 428" width="446.4px" zoomAndPan="magnify"><defs/><g><text fill="#000000" font-family="sans-serif" font-size="12.6" font-weight="bold" lengthAdjust="spacing" textLength="255.6" x="94.5" y="27.0967">System Sequence Diagram (SSD) - US005</text><rect fill="#FFFFFF" height="226.1953" style="stroke:#181818;stroke-width:0.9;" width="9" x="16.2" y="119.918"/><rect fill="#FFFFFF" height="28.1619" style="stroke:#181818;stroke-width:0.9;" width="9" x="407.7" y="140.8799"/><rect fill="#FFFFFF" height="28.1619" style="stroke:#181818;stroke-width:0.9;" width="9" x="407.7" y="197.2037"/><rect fill="#FFFFFF" height="92.5857" style="stroke:#181818;stroke-width:0.9;" width="9" x="407.7" y="253.5275"/><rect fill="#FFFFFF" height="28.1619" style="stroke:#181818;stroke-width:0.9;" width="9" x="412.2" y="309.8514"/><line style="stroke:#181818;stroke-width:0.45;stroke-dasharray:5.0,5.0;" x1="20.7" x2="20.7" y1="110.918" y2="354.2133"/><line style="stroke:#181818;stroke-width:0.45;stroke-dasharray:5.0,5.0;" x1="412.2" x2="412.2" y1="110.918" y2="354.2133"/><text fill="#000000" font-family="sans-serif" font-size="12.6" lengthAdjust="spacing" textLength="27" x="4.5" y="107.7557">HRM</text><ellipse cx="20.7" cy="47.809" fill="#E3E3E3" rx="7.2" ry="7.2" style="stroke:#181818;stroke-width:0.45;"/><path d="M20.7,55.009 L20.7,79.309 M9,62.209 L32.4,62.209 M20.7,79.309 L9,92.809 M20.7,79.309 L32.4,92.809 " fill="none" style="stroke:#181818;stroke-width:0.45;"/><text fill="#000000" font-family="sans-serif" font-size="12.6" lengthAdjust="spacing" textLength="27" x="4.5" y="366.91">HRM</text><ellipse cx="20.7" cy="377.7223" fill="#E3E3E3" rx="7.2" ry="7.2" style="stroke:#181818;stroke-width:0.45;"/><path d="M20.7,384.9223 L20.7,409.2223 M9,392.1223 L32.4,392.1223 M20.7,409.2223 L9,422.7223 M20.7,409.2223 L32.4,422.7223 " fill="none" style="stroke:#181818;stroke-width:0.45;"/><rect fill="#E3E3E3" height="29.359" rx="2.25" ry="2.25" style="stroke:#181818;stroke-width:0.45;" width="57.6" x="383.4" y="80.659"/><text fill="#000000" font-family="sans-serif" font-size="12.6" lengthAdjust="spacing" textLength="45" x="389.7" y="100.5557">:System</text><rect fill="#E3E3E3" height="29.359" rx="2.25" ry="2.25" style="stroke:#181818;stroke-width:0.45;" width="57.6" x="383.4" y="353.3133"/><text fill="#000000" font-family="sans-serif" font-size="12.6" lengthAdjust="spacing" textLength="45" x="389.7" y="373.21">:System</text><rect fill="#FFFFFF" height="226.1953" style="stroke:#181818;stroke-width:0.9;" width="9" x="16.2" y="119.918"/><rect fill="#FFFFFF" height="28.1619" style="stroke:#181818;stroke-width:0.9;" width="9" x="407.7" y="140.8799"/><rect fill="#FFFFFF" height="28.1619" style="stroke:#181818;stroke-width:0.9;" width="9" x="407.7" y="197.2037"/><rect fill="#FFFFFF" height="92.5857" style="stroke:#181818;stroke-width:0.9;" width="9" x="407.7" y="253.5275"/><rect fill="#FFFFFF" height="28.1619" style="stroke:#181818;stroke-width:0.9;" width="9" x="412.2" y="309.8514"/><polygon fill="#181818" points="396.9,137.2799,405.9,140.8799,396.9,144.4799,400.5,140.8799" style="stroke:#181818;stroke-width:0.9;"/><line style="stroke:#181818;stroke-width:0.9;" x1="25.2" x2="402.3" y1="140.8799" y2="140.8799"/><text fill="#000000" font-family="sans-serif" font-size="11.7" font-weight="bold" lengthAdjust="spacing" textLength="6.3" x="31.5" y="136.1435">1</text><text fill="#000000" font-family="sans-serif" font-size="11.7" lengthAdjust="spacing" textLength="174.6" x="41.4" y="136.1435">asks to generate a team proposal</text><polygon fill="#181818" points="35.1,165.4418,26.1,169.0418,35.1,172.6418,31.5,169.0418" style="stroke:#181818;stroke-width:0.9;"/><line style="stroke:#181818;stroke-width:0.9;stroke-dasharray:2.0,2.0;" x1="29.7" x2="411.3" y1="169.0418" y2="169.0418"/><text fill="#000000" font-family="sans-serif" font-size="11.7" font-weight="bold" lengthAdjust="spacing" textLength="6.3" x="40.5" y="164.3054">2</text><text fill="#000000" font-family="sans-serif" font-size="11.7" lengthAdjust="spacing" textLength="351" x="50.4" y="164.3054">requests data (number of desired employees, team members skills)</text><polygon fill="#181818" points="396.9,193.6037,405.9,197.2037,396.9,200.8037,400.5,197.2037" style="stroke:#181818;stroke-width:0.9;"/><line style="stroke:#181818;stroke-width:0.9;" x1="25.2" x2="402.3" y1="197.2037" y2="197.2037"/><text fill="#000000" font-family="sans-serif" font-size="11.7" font-weight="bold" lengthAdjust="spacing" textLength="6.3" x="31.5" y="192.4673">3</text><text fill="#000000" font-family="sans-serif" font-size="11.7" lengthAdjust="spacing" textLength="54.9" x="41.4" y="192.4673">types data</text><polygon fill="#181818" points="35.1,221.7656,26.1,225.3656,35.1,228.9656,31.5,225.3656" style="stroke:#181818;stroke-width:0.9;"/><line style="stroke:#181818;stroke-width:0.9;stroke-dasharray:2.0,2.0;" x1="29.7" x2="411.3" y1="225.3656" y2="225.3656"/><text fill="#000000" font-family="sans-serif" font-size="11.7" font-weight="bold" lengthAdjust="spacing" textLength="6.3" x="40.5" y="220.6292">4</text><text fill="#000000" font-family="sans-serif" font-size="11.7" lengthAdjust="spacing" textLength="291.6" x="50.4" y="220.6292">shows all data and requests confirmation or modification</text><polygon fill="#181818" points="396.9,249.9275,405.9,253.5275,396.9,257.1275,400.5,253.5275" style="stroke:#181818;stroke-width:0.9;"/><line style="stroke:#181818;stroke-width:0.9;" x1="25.2" x2="402.3" y1="253.5275" y2="253.5275"/><text fill="#000000" font-family="sans-serif" font-size="11.7" font-weight="bold" lengthAdjust="spacing" textLength="6.3" x="31.5" y="248.7911">5</text><text fill="#000000" font-family="sans-serif" font-size="11.7" lengthAdjust="spacing" textLength="69.3" x="41.4" y="248.7911">modifies data</text><polygon fill="#181818" points="35.1,278.0895,26.1,281.6895,35.1,285.2895,31.5,281.6895" style="stroke:#181818;stroke-width:0.9;"/><line style="stroke:#181818;stroke-width:0.9;stroke-dasharray:2.0,2.0;" x1="29.7" x2="406.8" y1="281.6895" y2="281.6895"/><text fill="#000000" font-family="sans-serif" font-size="11.7" font-weight="bold" lengthAdjust="spacing" textLength="6.3" x="40.5" y="276.953">6</text><text fill="#000000" font-family="sans-serif" font-size="11.7" lengthAdjust="spacing" textLength="291.6" x="50.4" y="276.953">shows all data and requests confirmation or modification</text><polygon fill="#181818" points="401.4,306.2514,410.4,309.8514,401.4,313.4514,405,309.8514" style="stroke:#181818;stroke-width:0.9;"/><line style="stroke:#181818;stroke-width:0.9;" x1="25.2" x2="406.8" y1="309.8514" y2="309.8514"/><text fill="#000000" font-family="sans-serif" font-size="11.7" font-weight="bold" lengthAdjust="spacing" textLength="6.3" x="31.5" y="305.1149">7</text><text fill="#000000" font-family="sans-serif" font-size="11.7" lengthAdjust="spacing" textLength="70.2" x="41.4" y="305.1149">confirms data</text><polygon fill="#181818" points="35.1,334.4133,26.1,338.0133,35.1,341.6133,31.5,338.0133" style="stroke:#181818;stroke-width:0.9;"/><line style="stroke:#181818;stroke-width:0.9;stroke-dasharray:2.0,2.0;" x1="29.7" x2="406.8" y1="338.0133" y2="338.0133"/><text fill="#000000" font-family="sans-serif" font-size="11.7" font-weight="bold" lengthAdjust="spacing" textLength="6.3" x="40.5" y="333.2769">8</text><text fill="#000000" font-family="sans-serif" font-size="11.7" lengthAdjust="spacing" textLength="142.2" x="50.4" y="333.2769">displays operation success</text><!--SRC=[nLAvJWCn4Etz5QDKYKIaD3Gfg42YeM751mpsxCQABpopHFltUC-aM92WmPKjltDiFjkGCAC77qFKfnmzWUIM52yt2VKP6wgaSmIPj61et2s0JsZYnOO6QdHCIecL0gqw5l9GqKTBGHCyMcnw-BQg7dUmXxVgSBXN2bk9eVNlbCjUIyomUNvzsG0oFFdaOaUaYezORHC6WSrn51uGutOWsayKkb8Kb3MVOFymnpaMsfb18ZGKAFSS1A6-PuufChg1kGZE3Z2jIMPV51VrOnbBASd2O50GjcCVY3KOOfl904rOlXlDFFK8XZ95vtWto1jQTLqj8LsYqUqlSVaKBmpet9WNWxasq37KDdiK6mEKr_3HsDhguVphc2FvFvBEkgkn9kPDh1-ZVH_FM4uEEuQO-h_K1-5MQs9Uo2lZKby0]--></g></svg>