<?xml version="1.0" encoding="us-ascii" standalone="no"?><svg xmlns="http://www.w3.org/2000/svg" xmlns:xlink="http://www.w3.org/1999/xlink" contentStyleType="text/css" height="1053px" preserveAspectRatio="none" style="width:1745px;height:1053px;background:#FFFFFF;" version="1.1" viewBox="0 0 1745 1053" width="1745px" zoomAndPan="magnify"><defs/><g><text fill="#000000" font-family="sans-serif" font-size="14" font-weight="bold" lengthAdjust="spacing" textLength="228" x="760.25" y="30.1074">System Sequence Diagram (SSD)</text><rect fill="#FFFFFF" height="819.5664" style="stroke:#181818;stroke-width:1.0;" width="10" x="18.5" y="133.2422"/><rect fill="#FFFFFF" height="439.0742" style="stroke:#181818;stroke-width:1.0;" width="10" x="312.5" y="156.5332"/><rect fill="#FFFFFF" height="31.291" style="stroke:#181818;stroke-width:1.0;" width="10" x="312.5" y="626.8984"/><rect fill="#FFFFFF" height="263.3281" style="stroke:#181818;stroke-width:1.0;" width="10" x="312.5" y="689.4805"/><rect fill="#FFFFFF" height="359.2012" style="stroke:#181818;stroke-width:1.0;" width="10" x="665.5" y="187.8242"/><rect fill="#FFFFFF" height="200.7461" style="stroke:#181818;stroke-width:1.0;" width="10" x="665.5" y="720.7715"/><rect fill="#FFFFFF" height="31.291" style="stroke:#181818;stroke-width:1.0;" width="10" x="835" y="219.1152"/><rect fill="#FFFFFF" height="31.291" style="stroke:#181818;stroke-width:1.0;" width="10" x="977" y="281.6973"/><rect fill="#FFFFFF" height="31.291" style="stroke:#181818;stroke-width:1.0;" width="10" x="977" y="858.9355"/><rect fill="#FFFFFF" height="171.4551" style="stroke:#181818;stroke-width:1.0;" width="10" x="1142.5" y="344.2793"/><rect fill="#FFFFFF" height="67.582" style="stroke:#181818;stroke-width:1.0;" width="10" x="1147.5" y="409.8613"/><rect fill="#FFFFFF" height="75.582" style="stroke:#181818;stroke-width:1.0;" width="10" x="1142.5" y="752.0625"/><rect fill="#FFFFFF" height="31.291" style="stroke:#181818;stroke-width:1.0;" width="10" x="1640.5" y="446.1523"/><rect fill="none" height="126.1641" style="stroke:#000000;stroke-width:1.5;" width="674" x="1065.5" y="359.2793"/><line style="stroke:#181818;stroke-width:0.5;stroke-dasharray:5.0,5.0;" x1="23" x2="23" y1="123.2422" y2="970.8086"/><line style="stroke:#181818;stroke-width:0.5;stroke-dasharray:5.0,5.0;" x1="317.5" x2="317.5" y1="123.2422" y2="970.8086"/><line style="stroke:#181818;stroke-width:0.5;stroke-dasharray:5.0,5.0;" x1="670.5" x2="670.5" y1="123.2422" y2="970.8086"/><line style="stroke:#181818;stroke-width:0.5;stroke-dasharray:5.0,5.0;" x1="839.5" x2="839.5" y1="123.2422" y2="970.8086"/><line style="stroke:#181818;stroke-width:0.5;stroke-dasharray:5.0,5.0;" x1="981.5" x2="981.5" y1="123.2422" y2="970.8086"/><line style="stroke:#181818;stroke-width:0.5;stroke-dasharray:5.0,5.0;" x1="1147.5" x2="1147.5" y1="123.2422" y2="970.8086"/><line style="stroke:#181818;stroke-width:0.5;stroke-dasharray:5.0,5.0;" x1="1488.5" x2="1488.5" y1="123.2422" y2="970.8086"/><line style="stroke:#181818;stroke-width:0.5;stroke-dasharray:5.0,5.0;" x1="1645.5" x2="1645.5" y1="123.2422" y2="970.8086"/><text fill="#000000" font-family="sans-serif" font-size="14" lengthAdjust="spacing" textLength="31" x="5" y="119.7285">GSM</text><ellipse cx="23.5" cy="53.1211" fill="#E3E3E3" rx="8" ry="8" style="stroke:#181818;stroke-width:0.5;"/><path d="M23.5,61.1211 L23.5,88.1211 M10.5,69.1211 L36.5,69.1211 M23.5,88.1211 L10.5,103.1211 M23.5,88.1211 L36.5,103.1211 " fill="none" style="stroke:#181818;stroke-width:0.5;"/><text fill="#000000" font-family="sans-serif" font-size="14" lengthAdjust="spacing" textLength="31" x="5" y="984.916">GSM</text><ellipse cx="23.5" cy="996.9297" fill="#E3E3E3" rx="8" ry="8" style="stroke:#181818;stroke-width:0.5;"/><path d="M23.5,1004.9297 L23.5,1031.9297 M10.5,1012.9297 L36.5,1012.9297 M23.5,1031.9297 L10.5,1046.9297 M23.5,1031.9297 L36.5,1046.9297 " fill="none" style="stroke:#181818;stroke-width:0.5;"/><rect fill="#E3E3E3" height="32.6211" rx="2.5" ry="2.5" style="stroke:#181818;stroke-width:0.5;" width="172" x="231.5" y="89.6211"/><text fill="#000000" font-family="sans-serif" font-size="14" lengthAdjust="spacing" textLength="158" x="238.5" y="111.7285">:PostponeAgendaEntryUI</text><rect fill="#E3E3E3" height="32.6211" rx="2.5" ry="2.5" style="stroke:#181818;stroke-width:0.5;" width="172" x="231.5" y="969.8086"/><text fill="#000000" font-family="sans-serif" font-size="14" lengthAdjust="spacing" textLength="158" x="238.5" y="991.916">:PostponeAgendaEntryUI</text><rect fill="#E3E3E3" height="32.6211" rx="2.5" ry="2.5" style="stroke:#181818;stroke-width:0.5;" width="222" x="559.5" y="89.6211"/><text fill="#000000" font-family="sans-serif" font-size="14" lengthAdjust="spacing" textLength="208" x="566.5" y="111.7285">:PostponeAgendaEntryController</text><rect fill="#E3E3E3" height="32.6211" rx="2.5" ry="2.5" style="stroke:#181818;stroke-width:0.5;" width="222" x="559.5" y="969.8086"/><text fill="#000000" font-family="sans-serif" font-size="14" lengthAdjust="spacing" textLength="208" x="566.5" y="991.916">:PostponeAgendaEntryController</text><rect fill="#E3E3E3" height="32.6211" rx="2.5" ry="2.5" style="stroke:#181818;stroke-width:0.5;" width="97" x="791.5" y="89.6211"/><text fill="#000000" font-family="sans-serif" font-size="14" lengthAdjust="spacing" textLength="83" x="798.5" y="111.7285">:Repositories</text><rect fill="#E3E3E3" height="32.6211" rx="2.5" ry="2.5" style="stroke:#181818;stroke-width:0.5;" width="97" x="791.5" y="969.8086"/><text fill="#000000" font-family="sans-serif" font-size="14" lengthAdjust="spacing" textLength="83" x="798.5" y="991.916">:Repositories</text><rect fill="#E3E3E3" height="51.2422" rx="2.5" ry="2.5" style="stroke:#181818;stroke-width:0.5;" width="167" x="898.5" y="71"/><text fill="#000000" font-family="sans-serif" font-size="14" lengthAdjust="spacing" textLength="150" x="907" y="93.1074">AgendaEntryRepository</text><text fill="#000000" font-family="sans-serif" font-size="14" lengthAdjust="spacing" textLength="153" x="905.5" y="111.7285">:agendaEntryRepository</text><rect fill="#E3E3E3" height="51.2422" rx="2.5" ry="2.5" style="stroke:#181818;stroke-width:0.5;" width="167" x="898.5" y="969.8086"/><text fill="#000000" font-family="sans-serif" font-size="14" lengthAdjust="spacing" textLength="150" x="907" y="991.916">AgendaEntryRepository</text><text fill="#000000" font-family="sans-serif" font-size="14" lengthAdjust="spacing" textLength="153" x="905.5" y="1010.5371">:agendaEntryRepository</text><rect fill="#E3E3E3" height="32.6211" rx="2.5" ry="2.5" style="stroke:#181818;stroke-width:0.5;" width="144" x="1075.5" y="89.6211"/><text fill="#000000" font-family="sans-serif" font-size="14" lengthAdjust="spacing" textLength="130" x="1082.5" y="111.7285">AgendaEntryMapper</text><rect fill="#E3E3E3" height="32.6211" rx="2.5" ry="2.5" style="stroke:#181818;stroke-width:0.5;" width="144" x="1075.5" y="969.8086"/><text fill="#000000" font-family="sans-serif" font-size="14" lengthAdjust="spacing" textLength="130" x="1082.5" y="991.916">AgendaEntryMapper</text><rect fill="#E3E3E3" height="32.6211" rx="2.5" ry="2.5" style="stroke:#181818;stroke-width:0.5;" width="126" x="1425.5" y="89.6211"/><text fill="#000000" font-family="sans-serif" font-size="14" lengthAdjust="spacing" textLength="112" x="1432.5" y="111.7285">AgendaEntryDTO</text><rect fill="#E3E3E3" height="32.6211" rx="2.5" ry="2.5" style="stroke:#181818;stroke-width:0.5;" width="126" x="1425.5" y="969.8086"/><text fill="#000000" font-family="sans-serif" font-size="14" lengthAdjust="spacing" textLength="112" x="1432.5" y="991.916">AgendaEntryDTO</text><rect fill="#E3E3E3" height="51.2422" rx="2.5" ry="2.5" style="stroke:#181818;stroke-width:0.5;" width="168" x="1561.5" y="71"/><text fill="#000000" font-family="sans-serif" font-size="14" lengthAdjust="spacing" textLength="133" x="1579" y="93.1074">agendaEntryDTOList</text><text fill="#000000" font-family="sans-serif" font-size="14" lengthAdjust="spacing" textLength="154" x="1568.5" y="111.7285">:List&lt;AgendaEntryDTO&gt;</text><rect fill="#E3E3E3" height="51.2422" rx="2.5" ry="2.5" style="stroke:#181818;stroke-width:0.5;" width="168" x="1561.5" y="969.8086"/><text fill="#000000" font-family="sans-serif" font-size="14" lengthAdjust="spacing" textLength="133" x="1579" y="991.916">agendaEntryDTOList</text><text fill="#000000" font-family="sans-serif" font-size="14" lengthAdjust="spacing" textLength="154" x="1568.5" y="1010.5371">:List&lt;AgendaEntryDTO&gt;</text><rect fill="#FFFFFF" height="819.5664" style="stroke:#181818;stroke-width:1.0;" width="10" x="18.5" y="133.2422"/><rect fill="#FFFFFF" height="439.0742" style="stroke:#181818;stroke-width:1.0;" width="10" x="312.5" y="156.5332"/><rect fill="#FFFFFF" height="31.291" style="stroke:#181818;stroke-width:1.0;" width="10" x="312.5" y="626.8984"/><rect fill="#FFFFFF" height="263.3281" style="stroke:#181818;stroke-width:1.0;" width="10" x="312.5" y="689.4805"/><rect fill="#FFFFFF" height="359.2012" style="stroke:#181818;stroke-width:1.0;" width="10" x="665.5" y="187.8242"/><rect fill="#FFFFFF" height="200.7461" style="stroke:#181818;stroke-width:1.0;" width="10" x="665.5" y="720.7715"/><rect fill="#FFFFFF" height="31.291" style="stroke:#181818;stroke-width:1.0;" width="10" x="835" y="219.1152"/><rect fill="#FFFFFF" height="31.291" style="stroke:#181818;stroke-width:1.0;" width="10" x="977" y="281.6973"/><rect fill="#FFFFFF" height="31.291" style="stroke:#181818;stroke-width:1.0;" width="10" x="977" y="858.9355"/><rect fill="#FFFFFF" height="171.4551" style="stroke:#181818;stroke-width:1.0;" width="10" x="1142.5" y="344.2793"/><rect fill="#FFFFFF" height="67.582" style="stroke:#181818;stroke-width:1.0;" width="10" x="1147.5" y="409.8613"/><rect fill="#FFFFFF" height="75.582" style="stroke:#181818;stroke-width:1.0;" width="10" x="1142.5" y="752.0625"/><rect fill="#FFFFFF" height="31.291" style="stroke:#181818;stroke-width:1.0;" width="10" x="1640.5" y="446.1523"/><polygon fill="#181818" points="300.5,152.5332,310.5,156.5332,300.5,160.5332,304.5,156.5332" style="stroke:#181818;stroke-width:1.0;"/><line style="stroke:#181818;stroke-width:1.0;" x1="28.5" x2="306.5" y1="156.5332" y2="156.5332"/><text fill="#000000" font-family="sans-serif" font-size="13" font-weight="bold" lengthAdjust="spacing" textLength="7" x="35.5" y="151.2705">1</text><text fill="#000000" font-family="sans-serif" font-size="13" lengthAdjust="spacing" textLength="235" x="46.5" y="151.2705">asks to postpone an entry in the Agenda</text><polygon fill="#181818" points="653.5,183.8242,663.5,187.8242,653.5,191.8242,657.5,187.8242" style="stroke:#181818;stroke-width:1.0;"/><line style="stroke:#181818;stroke-width:1.0;" x1="322.5" x2="659.5" y1="187.8242" y2="187.8242"/><text fill="#000000" font-family="sans-serif" font-size="13" font-weight="bold" lengthAdjust="spacing" textLength="7" x="329.5" y="182.5615">2</text><text fill="#000000" font-family="sans-serif" font-size="13" lengthAdjust="spacing" textLength="111" x="340.5" y="182.5615">getAgendaEntries()</text><polygon fill="#181818" points="823,215.1152,833,219.1152,823,223.1152,827,219.1152" style="stroke:#181818;stroke-width:1.0;"/><line style="stroke:#181818;stroke-width:1.0;" x1="675.5" x2="829" y1="219.1152" y2="219.1152"/><text fill="#000000" font-family="sans-serif" font-size="13" font-weight="bold" lengthAdjust="spacing" textLength="7" x="682.5" y="213.8525">3</text><text fill="#000000" font-family="sans-serif" font-size="13" lengthAdjust="spacing" textLength="75" x="693.5" y="213.8525">getInstance()</text><polygon fill="#181818" points="686.5,246.4063,676.5,250.4063,686.5,254.4063,682.5,250.4063" style="stroke:#181818;stroke-width:1.0;"/><line style="stroke:#181818;stroke-width:1.0;stroke-dasharray:2.0,2.0;" x1="680.5" x2="839" y1="250.4063" y2="250.4063"/><text fill="#000000" font-family="sans-serif" font-size="13" font-weight="bold" lengthAdjust="spacing" textLength="7" x="692.5" y="245.1436">4</text><text fill="#000000" font-family="sans-serif" font-size="13" lengthAdjust="spacing" textLength="67" x="703.5" y="245.1436">repositories</text><polygon fill="#181818" points="965,277.6973,975,281.6973,965,285.6973,969,281.6973" style="stroke:#181818;stroke-width:1.0;"/><line style="stroke:#181818;stroke-width:1.0;" x1="675.5" x2="971" y1="281.6973" y2="281.6973"/><text fill="#000000" font-family="sans-serif" font-size="13" font-weight="bold" lengthAdjust="spacing" textLength="7" x="682.5" y="276.4346">5</text><text fill="#000000" font-family="sans-serif" font-size="13" lengthAdjust="spacing" textLength="111" x="693.5" y="276.4346">getAgendaEntries()</text><polygon fill="#181818" points="686.5,308.9883,676.5,312.9883,686.5,316.9883,682.5,312.9883" style="stroke:#181818;stroke-width:1.0;"/><line style="stroke:#181818;stroke-width:1.0;stroke-dasharray:2.0,2.0;" x1="680.5" x2="981" y1="312.9883" y2="312.9883"/><text fill="#000000" font-family="sans-serif" font-size="13" font-weight="bold" lengthAdjust="spacing" textLength="7" x="692.5" y="307.7256">6</text><text fill="#000000" font-family="sans-serif" font-size="13" lengthAdjust="spacing" textLength="94" x="703.5" y="307.7256">agendaEntryList</text><polygon fill="#181818" points="1130.5,340.2793,1140.5,344.2793,1130.5,348.2793,1134.5,344.2793" style="stroke:#181818;stroke-width:1.0;"/><line style="stroke:#181818;stroke-width:1.0;" x1="675.5" x2="1136.5" y1="344.2793" y2="344.2793"/><text fill="#000000" font-family="sans-serif" font-size="13" font-weight="bold" lengthAdjust="spacing" textLength="7" x="682.5" y="339.0166">7</text><text fill="#000000" font-family="sans-serif" font-size="13" lengthAdjust="spacing" textLength="144" x="693.5" y="339.0166">getAgendaEntriesDTOs()</text><path d="M1065.5,359.2793 L1138.5,359.2793 L1138.5,368.5703 L1128.5,378.5703 L1065.5,378.5703 L1065.5,359.2793 " fill="#EEEEEE" style="stroke:#000000;stroke-width:1.5;"/><rect fill="none" height="126.1641" style="stroke:#000000;stroke-width:1.5;" width="674" x="1065.5" y="359.2793"/><text fill="#000000" font-family="sans-serif" font-size="13" font-weight="bold" lengthAdjust="spacing" textLength="28" x="1080.5" y="374.3076">loop</text><text fill="#000000" font-family="sans-serif" font-size="11" font-weight="bold" lengthAdjust="spacing" textLength="229" x="1153.5" y="373.1494">[for each agendaEntry in agendaEntryList]</text><line style="stroke:#181818;stroke-width:1.0;" x1="1152.5" x2="1199.5" y1="396.8613" y2="396.8613"/><line style="stroke:#181818;stroke-width:1.0;" x1="1199.5" x2="1199.5" y1="396.8613" y2="409.8613"/><line style="stroke:#181818;stroke-width:1.0;" x1="1158.5" x2="1199.5" y1="409.8613" y2="409.8613"/><polygon fill="#181818" points="1168.5,405.8613,1158.5,409.8613,1168.5,413.8613,1164.5,409.8613" style="stroke:#181818;stroke-width:1.0;"/><text fill="#000000" font-family="sans-serif" font-size="13" font-weight="bold" lengthAdjust="spacing" textLength="7" x="1164.5" y="391.5986">8</text><text fill="#000000" font-family="sans-serif" font-size="13" lengthAdjust="spacing" textLength="233" x="1175.5" y="391.5986">agendaEntryDTO = toDTO(agendaEntry)</text><polygon fill="#181818" points="1476.5,442.1523,1486.5,446.1523,1476.5,450.1523,1480.5,446.1523" style="stroke:#181818;stroke-width:1.0;"/><line style="stroke:#181818;stroke-width:1.0;" x1="1157.5" x2="1482.5" y1="446.1523" y2="446.1523"/><text fill="#000000" font-family="sans-serif" font-size="13" font-weight="bold" lengthAdjust="spacing" textLength="7" x="1164.5" y="440.8896">9</text><text fill="#000000" font-family="sans-serif" font-size="13" lengthAdjust="spacing" textLength="117" x="1175.5" y="440.8896">create(agendaEntry)</text><polygon fill="#181818" points="1633.5,473.4434,1643.5,477.4434,1633.5,481.4434,1637.5,477.4434" style="stroke:#181818;stroke-width:1.0;"/><line style="stroke:#181818;stroke-width:1.0;" x1="1152.5" x2="1639.5" y1="477.4434" y2="477.4434"/><text fill="#000000" font-family="sans-serif" font-size="13" font-weight="bold" lengthAdjust="spacing" textLength="14" x="1159.5" y="472.1807">10</text><text fill="#000000" font-family="sans-serif" font-size="13" lengthAdjust="spacing" textLength="128" x="1177.5" y="472.1807">add(agendaEntryDTO)</text><polygon fill="#181818" points="686.5,511.7344,676.5,515.7344,686.5,519.7344,682.5,515.7344" style="stroke:#181818;stroke-width:1.0;"/><line style="stroke:#181818;stroke-width:1.0;stroke-dasharray:2.0,2.0;" x1="680.5" x2="1146.5" y1="515.7344" y2="515.7344"/><text fill="#000000" font-family="sans-serif" font-size="13" font-weight="bold" lengthAdjust="spacing" textLength="14" x="692.5" y="510.4717">11</text><text fill="#000000" font-family="sans-serif" font-size="13" lengthAdjust="spacing" textLength="120" x="710.5" y="510.4717">agendaEntryDTOList</text><polygon fill="#181818" points="333.5,543.0254,323.5,547.0254,333.5,551.0254,329.5,547.0254" style="stroke:#181818;stroke-width:1.0;"/><line style="stroke:#181818;stroke-width:1.0;stroke-dasharray:2.0,2.0;" x1="327.5" x2="669.5" y1="547.0254" y2="547.0254"/><text fill="#000000" font-family="sans-serif" font-size="13" font-weight="bold" lengthAdjust="spacing" textLength="14" x="339.5" y="541.7627">12</text><text fill="#000000" font-family="sans-serif" font-size="13" lengthAdjust="spacing" textLength="120" x="357.5" y="541.7627">agendaEntryDTOList</text><polygon fill="#181818" points="39.5,591.6074,29.5,595.6074,39.5,599.6074,35.5,595.6074" style="stroke:#181818;stroke-width:1.0;"/><line style="stroke:#181818;stroke-width:1.0;stroke-dasharray:2.0,2.0;" x1="33.5" x2="316.5" y1="595.6074" y2="595.6074"/><text fill="#000000" font-family="sans-serif" font-size="13" font-weight="bold" lengthAdjust="spacing" textLength="14" x="45.5" y="581.6992">13</text><text fill="#000000" font-family="sans-serif" font-size="13" lengthAdjust="spacing" textLength="221" x="63.5" y="573.0537">shows the list of entries in the Agenda</text><text fill="#000000" font-family="sans-serif" font-size="13" lengthAdjust="spacing" textLength="242" x="63.5" y="590.3447">and planned dates and asks to select one</text><polygon fill="#181818" points="300.5,622.8984,310.5,626.8984,300.5,630.8984,304.5,626.8984" style="stroke:#181818;stroke-width:1.0;"/><line style="stroke:#181818;stroke-width:1.0;" x1="28.5" x2="306.5" y1="626.8984" y2="626.8984"/><text fill="#000000" font-family="sans-serif" font-size="13" font-weight="bold" lengthAdjust="spacing" textLength="14" x="35.5" y="621.6357">14</text><text fill="#000000" font-family="sans-serif" font-size="13" lengthAdjust="spacing" textLength="93" x="53.5" y="621.6357">selects an entry</text><polygon fill="#181818" points="39.5,654.1895,29.5,658.1895,39.5,662.1895,35.5,658.1895" style="stroke:#181818;stroke-width:1.0;"/><line style="stroke:#181818;stroke-width:1.0;stroke-dasharray:2.0,2.0;" x1="33.5" x2="316.5" y1="658.1895" y2="658.1895"/><text fill="#000000" font-family="sans-serif" font-size="13" font-weight="bold" lengthAdjust="spacing" textLength="14" x="45.5" y="652.9268">15</text><text fill="#000000" font-family="sans-serif" font-size="13" lengthAdjust="spacing" textLength="149" x="63.5" y="652.9268">asks to select a new date</text><polygon fill="#181818" points="300.5,685.4805,310.5,689.4805,300.5,693.4805,304.5,689.4805" style="stroke:#181818;stroke-width:1.0;"/><line style="stroke:#181818;stroke-width:1.0;" x1="28.5" x2="306.5" y1="689.4805" y2="689.4805"/><text fill="#000000" font-family="sans-serif" font-size="13" font-weight="bold" lengthAdjust="spacing" textLength="14" x="35.5" y="684.2178">16</text><text fill="#000000" font-family="sans-serif" font-size="13" lengthAdjust="spacing" textLength="171" x="53.5" y="684.2178">selects new date for the entry</text><polygon fill="#181818" points="653.5,716.7715,663.5,720.7715,653.5,724.7715,657.5,720.7715" style="stroke:#181818;stroke-width:1.0;"/><line style="stroke:#181818;stroke-width:1.0;" x1="322.5" x2="659.5" y1="720.7715" y2="720.7715"/><text fill="#000000" font-family="sans-serif" font-size="13" font-weight="bold" lengthAdjust="spacing" textLength="14" x="329.5" y="715.5088">17</text><text fill="#000000" font-family="sans-serif" font-size="13" lengthAdjust="spacing" textLength="306" x="347.5" y="715.5088">updateAgendaEntryDate(agendaEntryDTO, newDate)</text><polygon fill="#181818" points="1130.5,748.0625,1140.5,752.0625,1130.5,756.0625,1134.5,752.0625" style="stroke:#181818;stroke-width:1.0;"/><line style="stroke:#181818;stroke-width:1.0;" x1="675.5" x2="1136.5" y1="752.0625" y2="752.0625"/><text fill="#000000" font-family="sans-serif" font-size="13" font-weight="bold" lengthAdjust="spacing" textLength="14" x="682.5" y="746.7998">18</text><text fill="#000000" font-family="sans-serif" font-size="13" lengthAdjust="spacing" textLength="279" x="700.5" y="746.7998">updateAgendaEntry(agendaEntryDTO, newDate)</text><line style="stroke:#181818;stroke-width:1.0;" x1="1152.5" x2="1194.5" y1="783.3535" y2="783.3535"/><line style="stroke:#181818;stroke-width:1.0;" x1="1194.5" x2="1194.5" y1="783.3535" y2="796.3535"/><line style="stroke:#181818;stroke-width:1.0;" x1="1153.5" x2="1194.5" y1="796.3535" y2="796.3535"/><polygon fill="#181818" points="1163.5,792.3535,1153.5,796.3535,1163.5,800.3535,1159.5,796.3535" style="stroke:#181818;stroke-width:1.0;"/><text fill="#000000" font-family="sans-serif" font-size="13" font-weight="bold" lengthAdjust="spacing" textLength="14" x="1159.5" y="778.0908">19</text><text fill="#000000" font-family="sans-serif" font-size="13" lengthAdjust="spacing" textLength="299" x="1177.5" y="778.0908">agendaEntry = toEntity(agendaEntryDTO, newDate)</text><polygon fill="#181818" points="686.5,823.6445,676.5,827.6445,686.5,831.6445,682.5,827.6445" style="stroke:#181818;stroke-width:1.0;"/><line style="stroke:#181818;stroke-width:1.0;stroke-dasharray:2.0,2.0;" x1="680.5" x2="1146.5" y1="827.6445" y2="827.6445"/><text fill="#000000" font-family="sans-serif" font-size="13" font-weight="bold" lengthAdjust="spacing" textLength="14" x="692.5" y="822.3818">20</text><text fill="#000000" font-family="sans-serif" font-size="13" lengthAdjust="spacing" textLength="73" x="710.5" y="822.3818">agendaEntry</text><polygon fill="#181818" points="965,854.9355,975,858.9355,965,862.9355,969,858.9355" style="stroke:#181818;stroke-width:1.0;"/><line style="stroke:#181818;stroke-width:1.0;" x1="675.5" x2="971" y1="858.9355" y2="858.9355"/><text fill="#000000" font-family="sans-serif" font-size="13" font-weight="bold" lengthAdjust="spacing" textLength="14" x="682.5" y="853.6729">21</text><text fill="#000000" font-family="sans-serif" font-size="13" lengthAdjust="spacing" textLength="178" x="700.5" y="853.6729">updateEntryDate(agendaEntry)</text><polygon fill="#181818" points="686.5,886.2266,676.5,890.2266,686.5,894.2266,682.5,890.2266" style="stroke:#181818;stroke-width:1.0;"/><line style="stroke:#181818;stroke-width:1.0;stroke-dasharray:2.0,2.0;" x1="680.5" x2="981" y1="890.2266" y2="890.2266"/><text fill="#000000" font-family="sans-serif" font-size="13" font-weight="bold" lengthAdjust="spacing" textLength="14" x="692.5" y="884.9639">22</text><text fill="#000000" font-family="sans-serif" font-size="13" lengthAdjust="spacing" textLength="87" x="710.5" y="884.9639">success/failure</text><polygon fill="#181818" points="333.5,917.5176,323.5,921.5176,333.5,925.5176,329.5,921.5176" style="stroke:#181818;stroke-width:1.0;"/><line style="stroke:#181818;stroke-width:1.0;stroke-dasharray:2.0,2.0;" x1="327.5" x2="669.5" y1="921.5176" y2="921.5176"/><text fill="#000000" font-family="sans-serif" font-size="13" font-weight="bold" lengthAdjust="spacing" textLength="14" x="339.5" y="916.2549">23</text><text fill="#000000" font-family="sans-serif" font-size="13" lengthAdjust="spacing" textLength="190" x="357.5" y="916.2549">displays message of (in)success</text><polygon fill="#181818" points="34.5,948.8086,24.5,952.8086,34.5,956.8086,30.5,952.8086" style="stroke:#181818;stroke-width:1.0;"/><line style="stroke:#181818;stroke-width:1.0;stroke-dasharray:2.0,2.0;" x1="28.5" x2="316.5" y1="952.8086" y2="952.8086"/><text fill="#000000" font-family="sans-serif" font-size="13" font-weight="bold" lengthAdjust="spacing" textLength="14" x="40.5" y="947.5459">24</text><text fill="#000000" font-family="sans-serif" font-size="13" lengthAdjust="spacing" textLength="190" x="58.5" y="947.5459">displays message of (in)success</text><!--SRC=[hLR1Rjim3BtxAuYS4c31xi5MO6Y38a2B3NLxwqMp6KU8BNcMl21_FqgERScH4wUT3aqYaO-Fr2DLjUUYP1Khe9129hjA5WYwgZ5ItKd9aZtBCDR77A72H3EHvQw1sh5K7hZ8OCjoXL6akIRJ-AWq5X3Zdnf5Wl30MMRCvt7yi8WYLcifwk8tLlGzqRA2sMFyF0EcO5sKkJmYHeIlUS9B9ZJCLh-aqgKK-2D3aRArqDNnRMCTtZRNJUyb_PLvZfLrkNzzUHeulM0f5ISc79MrwJQECJSv4s7VnO7lRT_5YeNsBMJZOJP7aPvPMHB9qVE7rv-3G-OTFd6bYOFv-EQxtJKKriR85ft_PHhxSaT0g_q5opkgAwp8PQz0IoXFDGKc00qYS05wXwUSh7E7IJTYDymY5C8o1IUq37LFYWezNtHsdREzcsxRBEjC884RQJ0tGf4k4tJWFCZGLNgMPeNGboVgAv9-Bm_FDSNfOTf4UXrShecNX2EUC-uEuBAljgCCeuSnscF0BTk0F0EqILQZr4C2zonpAKlOqXGWLZkNjr7PfJJC2l4RfUrt2tmdRTFdtDbUd0Muc0S4rWH6fe-9Jb8X0LyExwkWwTyReZOU9lKqdVlfXsEvqWX7SookbOGE_QiEiWngzZJDeXiY1_JR3R9nO0VK7pvcTf5_DnHNzDh9Wx9pBoS4a5ix34d-_ZXy5qoaKEPC24mX9MG5PgUTfWfpUag1vcaq8D2EphD1tBYeRlvUdhW-wq5O1W8FbjNDqLj7swmctmbSkhkjI-FgDi50-tGnNqm8it_Jon3kzRDursFTDhO-CttiwA5lN4-aDRrnFjanW_UfgMBmllxRIwNg946blcuPp-iAF_PIjLfDkQBEEoee29BOcYwTSx4u1Vb8sq-17BIHyxFx5-iV]--></g></svg>