<?xml version="1.0" encoding="us-ascii" standalone="no"?><svg xmlns="http://www.w3.org/2000/svg" xmlns:xlink="http://www.w3.org/1999/xlink" contentStyleType="text/css" height="418px" preserveAspectRatio="none" style="width:1226px;height:418px;background:#FFFFFF;" version="1.1" viewBox="0 0 1226 418" width="1226px" zoomAndPan="magnify"><defs/><g><rect fill="#FFFFFF" height="276.9102" style="stroke:#181818;stroke-width:1.0;" width="10" x="91.5" y="67.2422"/><rect fill="#FFFFFF" height="253.6191" style="stroke:#181818;stroke-width:1.0;" width="10" x="379.5" y="90.5332"/><rect fill="#FFFFFF" height="128.4551" style="stroke:#181818;stroke-width:1.0;" width="10" x="572.5" y="121.8242"/><rect fill="#FFFFFF" height="31.291" style="stroke:#181818;stroke-width:1.0;" width="10" x="990.5" y="187.6973"/><rect fill="#FFFFFF" height="31.291" style="stroke:#181818;stroke-width:1.0;" width="10" x="1132" y="281.5703"/><line style="stroke:#181818;stroke-width:0.5;stroke-dasharray:5.0,5.0;" x1="96" x2="96" y1="57.2422" y2="362.1523"/><line style="stroke:#181818;stroke-width:0.5;stroke-dasharray:5.0,5.0;" x1="384.5" x2="384.5" y1="57.2422" y2="362.1523"/><line style="stroke:#181818;stroke-width:0.5;stroke-dasharray:5.0,5.0;" x1="577.5" x2="577.5" y1="57.2422" y2="362.1523"/><line style="stroke:#181818;stroke-width:0.5;stroke-dasharray:5.0,5.0;" x1="995.5" x2="995.5" y1="57.2422" y2="362.1523"/><line style="stroke:#181818;stroke-width:0.5;stroke-dasharray:5.0,5.0;" x1="1136.5" x2="1136.5" y1="57.2422" y2="362.1523"/><rect fill="#E3E3E3" height="32.6211" rx="2.5" ry="2.5" style="stroke:#181818;stroke-width:0.5;" width="183" x="5" y="23.6211"/><text fill="#000000" font-family="sans-serif" font-size="14" lengthAdjust="spacing" textLength="169" x="12" y="45.7285">:PostponeAgendaEntryGUI</text><rect fill="#E3E3E3" height="32.6211" rx="2.5" ry="2.5" style="stroke:#181818;stroke-width:0.5;" width="183" x="5" y="361.1523"/><text fill="#000000" font-family="sans-serif" font-size="14" lengthAdjust="spacing" textLength="169" x="12" y="383.2598">:PostponeAgendaEntryGUI</text><rect fill="#E3E3E3" height="32.6211" rx="2.5" ry="2.5" style="stroke:#181818;stroke-width:0.5;" width="222" x="273.5" y="23.6211"/><text fill="#000000" font-family="sans-serif" font-size="14" lengthAdjust="spacing" textLength="208" x="280.5" y="45.7285">:PostponeAgendaEntryController</text><rect fill="#E3E3E3" height="32.6211" rx="2.5" ry="2.5" style="stroke:#181818;stroke-width:0.5;" width="222" x="273.5" y="361.1523"/><text fill="#000000" font-family="sans-serif" font-size="14" lengthAdjust="spacing" textLength="208" x="280.5" y="383.2598">:PostponeAgendaEntryController</text><rect fill="#E3E3E3" height="32.6211" rx="2.5" ry="2.5" style="stroke:#181818;stroke-width:0.5;" width="144" x="505.5" y="23.6211"/><text fill="#000000" font-family="sans-serif" font-size="14" lengthAdjust="spacing" textLength="130" x="512.5" y="45.7285">AgendaEntryMapper</text><rect fill="#E3E3E3" height="32.6211" rx="2.5" ry="2.5" style="stroke:#181818;stroke-width:0.5;" width="144" x="505.5" y="361.1523"/><text fill="#000000" font-family="sans-serif" font-size="14" lengthAdjust="spacing" textLength="130" x="512.5" y="383.2598">AgendaEntryMapper</text><rect fill="#E3E3E3" height="32.6211" rx="2.5" ry="2.5" style="stroke:#181818;stroke-width:0.5;" width="96" x="947.5" y="23.6211"/><text fill="#000000" font-family="sans-serif" font-size="14" lengthAdjust="spacing" textLength="82" x="954.5" y="45.7285">AgendaEntry</text><rect fill="#E3E3E3" height="32.6211" rx="2.5" ry="2.5" style="stroke:#181818;stroke-width:0.5;" width="96" x="947.5" y="361.1523"/><text fill="#000000" font-family="sans-serif" font-size="14" lengthAdjust="spacing" textLength="82" x="954.5" y="383.2598">AgendaEntry</text><rect fill="#E3E3E3" height="51.2422" rx="2.5" ry="2.5" style="stroke:#181818;stroke-width:0.5;" width="167" x="1053.5" y="5"/><text fill="#000000" font-family="sans-serif" font-size="14" lengthAdjust="spacing" textLength="150" x="1062" y="27.1074">AgendaEntryRepository</text><text fill="#000000" font-family="sans-serif" font-size="14" lengthAdjust="spacing" textLength="153" x="1060.5" y="45.7285">:agendaEntryRepository</text><rect fill="#E3E3E3" height="51.2422" rx="2.5" ry="2.5" style="stroke:#181818;stroke-width:0.5;" width="167" x="1053.5" y="361.1523"/><text fill="#000000" font-family="sans-serif" font-size="14" lengthAdjust="spacing" textLength="150" x="1062" y="383.2598">AgendaEntryRepository</text><text fill="#000000" font-family="sans-serif" font-size="14" lengthAdjust="spacing" textLength="153" x="1060.5" y="401.8809">:agendaEntryRepository</text><rect fill="#FFFFFF" height="276.9102" style="stroke:#181818;stroke-width:1.0;" width="10" x="91.5" y="67.2422"/><rect fill="#FFFFFF" height="253.6191" style="stroke:#181818;stroke-width:1.0;" width="10" x="379.5" y="90.5332"/><rect fill="#FFFFFF" height="128.4551" style="stroke:#181818;stroke-width:1.0;" width="10" x="572.5" y="121.8242"/><rect fill="#FFFFFF" height="31.291" style="stroke:#181818;stroke-width:1.0;" width="10" x="990.5" y="187.6973"/><rect fill="#FFFFFF" height="31.291" style="stroke:#181818;stroke-width:1.0;" width="10" x="1132" y="281.5703"/><polygon fill="#181818" points="367.5,86.5332,377.5,90.5332,367.5,94.5332,371.5,90.5332" style="stroke:#181818;stroke-width:1.0;"/><line style="stroke:#181818;stroke-width:1.0;" x1="101.5" x2="373.5" y1="90.5332" y2="90.5332"/><text fill="#000000" font-family="sans-serif" font-size="13" font-weight="bold" lengthAdjust="spacing" textLength="7" x="108.5" y="85.2705">1</text><text fill="#000000" font-family="sans-serif" font-size="13" lengthAdjust="spacing" textLength="248" x="119.5" y="85.2705">updateAgendaEntryDate(agendaEntryDTO)</text><polygon fill="#181818" points="560.5,117.8242,570.5,121.8242,560.5,125.8242,564.5,121.8242" style="stroke:#181818;stroke-width:1.0;"/><line style="stroke:#181818;stroke-width:1.0;" x1="389.5" x2="566.5" y1="121.8242" y2="121.8242"/><text fill="#000000" font-family="sans-serif" font-size="13" font-weight="bold" lengthAdjust="spacing" textLength="7" x="396.5" y="116.5615">2</text><text fill="#000000" font-family="sans-serif" font-size="13" lengthAdjust="spacing" textLength="152" x="407.5" y="116.5615">toEntity(agendaEntryDTO)</text><polygon fill="#181818" points="978.5,183.6973,988.5,187.6973,978.5,191.6973,982.5,187.6973" style="stroke:#181818;stroke-width:1.0;"/><line style="stroke:#181818;stroke-width:1.0;" x1="582.5" x2="984.5" y1="187.6973" y2="187.6973"/><text fill="#000000" font-family="sans-serif" font-size="13" font-weight="bold" lengthAdjust="spacing" textLength="7" x="589.5" y="165.1436">3</text><text fill="#000000" font-family="sans-serif" font-size="13" lengthAdjust="spacing" textLength="378" x="600.5" y="147.8525">AgendaEntry(dto.description, dto.greenspace, dto.urgencyDegree</text><text fill="#000000" font-family="sans-serif" font-size="13" lengthAdjust="spacing" textLength="377" x="600.5" y="165.1436">, dto.status, dto.expectedDuration, dto.date, dto.associatedTeam</text><text fill="#000000" font-family="sans-serif" font-size="13" lengthAdjust="spacing" textLength="147" x="600.5" y="182.4346">, dto.associatedVehicles)</text><polygon fill="#181818" points="593.5,214.9883,583.5,218.9883,593.5,222.9883,589.5,218.9883" style="stroke:#181818;stroke-width:1.0;"/><line style="stroke:#181818;stroke-width:1.0;stroke-dasharray:2.0,2.0;" x1="587.5" x2="994.5" y1="218.9883" y2="218.9883"/><text fill="#000000" font-family="sans-serif" font-size="13" font-weight="bold" lengthAdjust="spacing" textLength="7" x="599.5" y="213.7256">4</text><text fill="#000000" font-family="sans-serif" font-size="13" lengthAdjust="spacing" textLength="73" x="610.5" y="213.7256">agendaEntry</text><polygon fill="#181818" points="400.5,246.2793,390.5,250.2793,400.5,254.2793,396.5,250.2793" style="stroke:#181818;stroke-width:1.0;"/><line style="stroke:#181818;stroke-width:1.0;stroke-dasharray:2.0,2.0;" x1="394.5" x2="576.5" y1="250.2793" y2="250.2793"/><text fill="#000000" font-family="sans-serif" font-size="13" font-weight="bold" lengthAdjust="spacing" textLength="7" x="406.5" y="245.0166">5</text><text fill="#000000" font-family="sans-serif" font-size="13" lengthAdjust="spacing" textLength="73" x="417.5" y="245.0166">agendaEntry</text><polygon fill="#181818" points="1120,277.5703,1130,281.5703,1120,285.5703,1124,281.5703" style="stroke:#181818;stroke-width:1.0;"/><line style="stroke:#181818;stroke-width:1.0;" x1="389.5" x2="1126" y1="281.5703" y2="281.5703"/><text fill="#000000" font-family="sans-serif" font-size="13" font-weight="bold" lengthAdjust="spacing" textLength="7" x="396.5" y="276.3076">6</text><text fill="#000000" font-family="sans-serif" font-size="13" lengthAdjust="spacing" textLength="178" x="407.5" y="276.3076">updateEntryDate(agendaEntry)</text><polygon fill="#181818" points="400.5,308.8613,390.5,312.8613,400.5,316.8613,396.5,312.8613" style="stroke:#181818;stroke-width:1.0;"/><line style="stroke:#181818;stroke-width:1.0;stroke-dasharray:2.0,2.0;" x1="394.5" x2="1136" y1="312.8613" y2="312.8613"/><text fill="#000000" font-family="sans-serif" font-size="13" font-weight="bold" lengthAdjust="spacing" textLength="7" x="406.5" y="307.5986">7</text><text fill="#000000" font-family="sans-serif" font-size="13" lengthAdjust="spacing" textLength="87" x="417.5" y="307.5986">success/failure</text><polygon fill="#181818" points="107.5,340.1523,97.5,344.1523,107.5,348.1523,103.5,344.1523" style="stroke:#181818;stroke-width:1.0;"/><line style="stroke:#181818;stroke-width:1.0;stroke-dasharray:2.0,2.0;" x1="101.5" x2="383.5" y1="344.1523" y2="344.1523"/><text fill="#000000" font-family="sans-serif" font-size="13" font-weight="bold" lengthAdjust="spacing" textLength="7" x="113.5" y="338.8896">8</text><text fill="#000000" font-family="sans-serif" font-size="13" lengthAdjust="spacing" textLength="190" x="124.5" y="338.8896">displays message of (in)success</text><!--SRC=[XPDDZzCm48Rl-HMZFRKIXNiEI6YBK2KGQ6avxMMmfwcrYMrvR23_dadIJHtMONs8ulbuFA_pXf-CzHYmWyvPfox1TGGn9AfupdXKJzZGzzYt185KHDkqUG5VKBlVnZPmnfQfgZ15PrFtaq9LIKaqodYq4UxgRuwZTvO-D6GrVhGnz9zEXpj0XjFXzTfx9q_NjXJ6bllZm-TbKrRx1RsNkjNyUkQ1l6CJNUWVROsb-7Zwr344HR6AvXT66bHK8EjqWDtxSK2e8NajkUo4lMmt6Nb__BeTssREA6qC3Mla2A-WJ_3HIS34laXSK4ltCrSDwqL-E3KBocdPRgEZUwk9LJ0-6cVVm11e0f5bSGrD-nIaG_Lx6XAFroAE61DFx_J7Ywj8xrF06sQuikaDcPqoijL7mkwPS8l-e8jHBV5s8MKMdGsyfXLsIvbNxJNWIg-c8dwkANsetSqG9Mo6_EzdUlR2pNwpmuhUAjWWT-xB6ncHsR2Sb2BcTsSqRGfKhTx14ZZDAHZv5MhGXdsBFKCdA9aEt1asncwlyEeVu6J_AekS3dy1]--></g></svg>