<?xml version="1.0" encoding="us-ascii" standalone="no"?><svg xmlns="http://www.w3.org/2000/svg" xmlns:xlink="http://www.w3.org/1999/xlink" contentStyleType="text/css" height="769.3px" preserveAspectRatio="none" style="width:1015px;height:769px;background:#FFFFFF;" version="1.1" viewBox="0 0 1015 769" width="1015.7px" zoomAndPan="magnify"><defs/><g><text fill="#000000" font-family="sans-serif" font-size="9.8" font-weight="bold" lengthAdjust="spacing" textLength="159.6" x="429.275" y="21.0752">System Sequence Diagram (SSD)</text><rect fill="#FFFFFF" height="605.6928" style="stroke:#181818;stroke-width:0.6999999999999998;" width="7" x="12.95" y="93.2695"/><rect fill="#FFFFFF" height="275.4445" style="stroke:#181818;stroke-width:0.6999999999999998;" width="7" x="218.75" y="109.5732"/><rect fill="#FFFFFF" height="21.9037" style="stroke:#181818;stroke-width:0.6999999999999998;" width="7" x="218.75" y="406.9215"/><rect fill="#FFFFFF" height="248.2334" style="stroke:#181818;stroke-width:0.6999999999999998;" width="7" x="218.75" y="450.7289"/><rect fill="#FFFFFF" height="219.5334" style="stroke:#181818;stroke-width:0.6999999999999998;" width="7" x="425.25" y="131.477"/><rect fill="#FFFFFF" height="161.5223" style="stroke:#181818;stroke-width:0.6999999999999998;" width="7" x="425.25" y="515.5363"/><rect fill="#FFFFFF" height="21.9037" style="stroke:#181818;stroke-width:0.6999999999999998;" width="7" x="543.9" y="153.3807"/><rect fill="#FFFFFF" height="21.9037" style="stroke:#181818;stroke-width:0.6999999999999998;" width="7" x="643.3" y="197.1881"/><rect fill="#FFFFFF" height="21.9037" style="stroke:#181818;stroke-width:0.6999999999999998;" width="7" x="643.3" y="633.2512"/><rect fill="#FFFFFF" height="88.1111" style="stroke:#181818;stroke-width:0.6999999999999998;" width="7" x="759.15" y="240.9955"/><rect fill="#FFFFFF" height="73.9074" style="stroke:#181818;stroke-width:0.6999999999999998;" width="7" x="759.15" y="537.44"/><rect fill="#FFFFFF" height="19.6" style="stroke:#181818;stroke-width:0.6999999999999998;" width="7" x="762.65" y="564.9437"/><rect fill="#FFFFFF" height="21" style="stroke:#181818;stroke-width:0.6999999999999998;" width="7" x="957.25" y="281.3029"/><rect fill="#FFFFFF" height="21" style="stroke:#181818;stroke-width:0.6999999999999998;" width="7" x="957.25" y="472.6326"/><rect fill="none" height="56.4074" style="stroke:#000000;stroke-width:1.0499999999999998;" width="306.6" x="705.25" y="251.4955"/><line style="stroke:#181818;stroke-width:0.3499999999999999;stroke-dasharray:5.0,5.0;" x1="16.1" x2="16.1" y1="86.2695" y2="711.5623"/><line style="stroke:#181818;stroke-width:0.3499999999999999;stroke-dasharray:5.0,5.0;" x1="222.25" x2="222.25" y1="86.2695" y2="711.5623"/><line style="stroke:#181818;stroke-width:0.3499999999999999;stroke-dasharray:5.0,5.0;" x1="428.75" x2="428.75" y1="86.2695" y2="711.5623"/><line style="stroke:#181818;stroke-width:0.3499999999999999;stroke-dasharray:5.0,5.0;" x1="547.05" x2="547.05" y1="86.2695" y2="711.5623"/><line style="stroke:#181818;stroke-width:0.3499999999999999;stroke-dasharray:5.0,5.0;" x1="646.45" x2="646.45" y1="86.2695" y2="711.5623"/><line style="stroke:#181818;stroke-width:0.3499999999999999;stroke-dasharray:5.0,5.0;" x1="762.65" x2="762.65" y1="86.2695" y2="711.5623"/><line style="stroke:#181818;stroke-width:0.3499999999999999;stroke-dasharray:5.0,5.0;" x1="960.75" x2="960.75" y1="86.2695" y2="711.5623"/><text fill="#000000" font-family="sans-serif" font-size="9.8" lengthAdjust="spacing" textLength="21.7" x="3.5" y="83.81">GSM</text><ellipse cx="16.45" cy="37.1848" fill="#E3E3E3" rx="5.6" ry="5.6" style="stroke:#181818;stroke-width:0.3499999999999999;"/><path d="M16.45,42.7848 L16.45,61.6848 M7.35,48.3848 L25.55,48.3848 M16.45,61.6848 L7.35,72.1848 M16.45,61.6848 L25.55,72.1848 " fill="none" style="stroke:#181818;stroke-width:0.3499999999999999;"/><text fill="#000000" font-family="sans-serif" font-size="9.8" lengthAdjust="spacing" textLength="21.7" x="3.5" y="721.4375">GSM</text><ellipse cx="16.45" cy="729.8471" fill="#E3E3E3" rx="5.6" ry="5.6" style="stroke:#181818;stroke-width:0.3499999999999999;"/><path d="M16.45,735.4471 L16.45,754.3471 M7.35,741.0471 L25.55,741.0471 M16.45,754.3471 L7.35,764.8471 M16.45,754.3471 L25.55,764.8471 " fill="none" style="stroke:#181818;stroke-width:0.3499999999999999;"/><rect fill="#E3E3E3" height="22.8348" rx="1.75" ry="1.75" style="stroke:#181818;stroke-width:0.3499999999999999;" width="120.4" x="162.05" y="62.7348"/><text fill="#000000" font-family="sans-serif" font-size="9.8" lengthAdjust="spacing" textLength="110.6" x="166.95" y="78.21">:PostponeAgendaEntryUI</text><rect fill="#E3E3E3" height="22.8348" rx="1.75" ry="1.75" style="stroke:#181818;stroke-width:0.3499999999999999;" width="120.4" x="162.05" y="710.8623"/><text fill="#000000" font-family="sans-serif" font-size="9.8" lengthAdjust="spacing" textLength="110.6" x="166.95" y="726.3375">:PostponeAgendaEntryUI</text><rect fill="#E3E3E3" height="22.8348" rx="1.75" ry="1.75" style="stroke:#181818;stroke-width:0.3499999999999999;" width="155.4" x="351.05" y="62.7348"/><text fill="#000000" font-family="sans-serif" font-size="9.8" lengthAdjust="spacing" textLength="145.6" x="355.95" y="78.21">:PostponeAgendaEntryController</text><rect fill="#E3E3E3" height="22.8348" rx="1.75" ry="1.75" style="stroke:#181818;stroke-width:0.3499999999999999;" width="155.4" x="351.05" y="710.8623"/><text fill="#000000" font-family="sans-serif" font-size="9.8" lengthAdjust="spacing" textLength="145.6" x="355.95" y="726.3375">:PostponeAgendaEntryController</text><rect fill="#E3E3E3" height="22.8348" rx="1.75" ry="1.75" style="stroke:#181818;stroke-width:0.3499999999999999;" width="67.9" x="513.45" y="62.7348"/><text fill="#000000" font-family="sans-serif" font-size="9.8" lengthAdjust="spacing" textLength="58.1" x="518.35" y="78.21">:Repositories</text><rect fill="#E3E3E3" height="22.8348" rx="1.75" ry="1.75" style="stroke:#181818;stroke-width:0.3499999999999999;" width="67.9" x="513.45" y="710.8623"/><text fill="#000000" font-family="sans-serif" font-size="9.8" lengthAdjust="spacing" textLength="58.1" x="518.35" y="726.3375">:Repositories</text><rect fill="#E3E3E3" height="35.8695" rx="1.75" ry="1.75" style="stroke:#181818;stroke-width:0.3499999999999999;" width="116.9" x="588.35" y="49.7"/><text fill="#000000" font-family="sans-serif" font-size="9.8" lengthAdjust="spacing" textLength="105" x="594.3" y="65.1752">AgendaEntryRepository</text><text fill="#000000" font-family="sans-serif" font-size="9.8" lengthAdjust="spacing" textLength="107.1" x="593.25" y="78.21">:agendaEntryRepository</text><rect fill="#E3E3E3" height="35.8695" rx="1.75" ry="1.75" style="stroke:#181818;stroke-width:0.3499999999999999;" width="116.9" x="588.35" y="710.8623"/><text fill="#000000" font-family="sans-serif" font-size="9.8" lengthAdjust="spacing" textLength="105" x="594.3" y="726.3375">AgendaEntryRepository</text><text fill="#000000" font-family="sans-serif" font-size="9.8" lengthAdjust="spacing" textLength="107.1" x="593.25" y="739.3723">:agendaEntryRepository</text><rect fill="#E3E3E3" height="22.8348" rx="1.75" ry="1.75" style="stroke:#181818;stroke-width:0.3499999999999999;" width="100.8" x="712.25" y="62.7348"/><text fill="#000000" font-family="sans-serif" font-size="9.8" lengthAdjust="spacing" textLength="91" x="717.15" y="78.21">AgendaEntryMapper</text><rect fill="#E3E3E3" height="22.8348" rx="1.75" ry="1.75" style="stroke:#181818;stroke-width:0.3499999999999999;" width="100.8" x="712.25" y="710.8623"/><text fill="#000000" font-family="sans-serif" font-size="9.8" lengthAdjust="spacing" textLength="91" x="717.15" y="726.3375">AgendaEntryMapper</text><rect fill="#E3E3E3" height="22.8348" rx="1.75" ry="1.75" style="stroke:#181818;stroke-width:0.3499999999999999;" width="88.2" x="916.65" y="62.7348"/><text fill="#000000" font-family="sans-serif" font-size="9.8" lengthAdjust="spacing" textLength="78.4" x="921.55" y="78.21">AgendaEntryDTO</text><rect fill="#E3E3E3" height="22.8348" rx="1.75" ry="1.75" style="stroke:#181818;stroke-width:0.3499999999999999;" width="88.2" x="916.65" y="710.8623"/><text fill="#000000" font-family="sans-serif" font-size="9.8" lengthAdjust="spacing" textLength="78.4" x="921.55" y="726.3375">AgendaEntryDTO</text><rect fill="#FFFFFF" height="605.6928" style="stroke:#181818;stroke-width:0.6999999999999998;" width="7" x="12.95" y="93.2695"/><rect fill="#FFFFFF" height="275.4445" style="stroke:#181818;stroke-width:0.6999999999999998;" width="7" x="218.75" y="109.5732"/><rect fill="#FFFFFF" height="21.9037" style="stroke:#181818;stroke-width:0.6999999999999998;" width="7" x="218.75" y="406.9215"/><rect fill="#FFFFFF" height="248.2334" style="stroke:#181818;stroke-width:0.6999999999999998;" width="7" x="218.75" y="450.7289"/><rect fill="#FFFFFF" height="219.5334" style="stroke:#181818;stroke-width:0.6999999999999998;" width="7" x="425.25" y="131.477"/><rect fill="#FFFFFF" height="161.5223" style="stroke:#181818;stroke-width:0.6999999999999998;" width="7" x="425.25" y="515.5363"/><rect fill="#FFFFFF" height="21.9037" style="stroke:#181818;stroke-width:0.6999999999999998;" width="7" x="543.9" y="153.3807"/><rect fill="#FFFFFF" height="21.9037" style="stroke:#181818;stroke-width:0.6999999999999998;" width="7" x="643.3" y="197.1881"/><rect fill="#FFFFFF" height="21.9037" style="stroke:#181818;stroke-width:0.6999999999999998;" width="7" x="643.3" y="633.2512"/><rect fill="#FFFFFF" height="88.1111" style="stroke:#181818;stroke-width:0.6999999999999998;" width="7" x="759.15" y="240.9955"/><rect fill="#FFFFFF" height="73.9074" style="stroke:#181818;stroke-width:0.6999999999999998;" width="7" x="759.15" y="537.44"/><rect fill="#FFFFFF" height="19.6" style="stroke:#181818;stroke-width:0.6999999999999998;" width="7" x="762.65" y="564.9437"/><rect fill="#FFFFFF" height="21" style="stroke:#181818;stroke-width:0.6999999999999998;" width="7" x="957.25" y="281.3029"/><rect fill="#FFFFFF" height="21" style="stroke:#181818;stroke-width:0.6999999999999998;" width="7" x="957.25" y="472.6326"/><polygon fill="#181818" points="210.35,106.7732,217.35,109.5732,210.35,112.3732,213.15,109.5732" style="stroke:#181818;stroke-width:0.6999999999999998;"/><line style="stroke:#181818;stroke-width:0.6999999999999998;" x1="19.95" x2="214.55" y1="109.5732" y2="109.5732"/><text fill="#000000" font-family="sans-serif" font-size="9.1" font-weight="bold" lengthAdjust="spacing" textLength="4.9" x="24.85" y="105.8894">1</text><text fill="#000000" font-family="sans-serif" font-size="9.1" lengthAdjust="spacing" textLength="164.5" x="32.55" y="105.8894">asks to postpone an entry in the Agenda</text><polygon fill="#181818" points="416.85,128.677,423.85,131.477,416.85,134.277,419.65,131.477" style="stroke:#181818;stroke-width:0.6999999999999998;"/><line style="stroke:#181818;stroke-width:0.6999999999999998;" x1="225.75" x2="421.05" y1="131.477" y2="131.477"/><text fill="#000000" font-family="sans-serif" font-size="9.1" font-weight="bold" lengthAdjust="spacing" textLength="4.9" x="230.65" y="127.7931">2</text><text fill="#000000" font-family="sans-serif" font-size="9.1" lengthAdjust="spacing" textLength="77.7" x="238.35" y="127.7931">getAgendaEntries()</text><polygon fill="#181818" points="535.5,150.5807,542.5,153.3807,535.5,156.1807,538.3,153.3807" style="stroke:#181818;stroke-width:0.6999999999999998;"/><line style="stroke:#181818;stroke-width:0.6999999999999998;" x1="432.25" x2="539.7" y1="153.3807" y2="153.3807"/><text fill="#000000" font-family="sans-serif" font-size="9.1" font-weight="bold" lengthAdjust="spacing" textLength="4.9" x="437.15" y="149.6968">3</text><text fill="#000000" font-family="sans-serif" font-size="9.1" lengthAdjust="spacing" textLength="52.5" x="444.85" y="149.6968">getInstance()</text><polygon fill="#181818" points="439.95,172.4844,432.95,175.2844,439.95,178.0844,437.15,175.2844" style="stroke:#181818;stroke-width:0.6999999999999998;"/><line style="stroke:#181818;stroke-width:0.6999999999999998;stroke-dasharray:2.0,2.0;" x1="435.75" x2="546.7" y1="175.2844" y2="175.2844"/><text fill="#000000" font-family="sans-serif" font-size="9.1" font-weight="bold" lengthAdjust="spacing" textLength="4.9" x="444.15" y="171.6005">4</text><text fill="#000000" font-family="sans-serif" font-size="9.1" lengthAdjust="spacing" textLength="46.9" x="451.85" y="171.6005">repositories</text><polygon fill="#181818" points="634.9,194.3881,641.9,197.1881,634.9,199.9881,637.7,197.1881" style="stroke:#181818;stroke-width:0.6999999999999998;"/><line style="stroke:#181818;stroke-width:0.6999999999999998;" x1="432.25" x2="639.1" y1="197.1881" y2="197.1881"/><text fill="#000000" font-family="sans-serif" font-size="9.1" font-weight="bold" lengthAdjust="spacing" textLength="4.9" x="437.15" y="193.5042">5</text><text fill="#000000" font-family="sans-serif" font-size="9.1" lengthAdjust="spacing" textLength="77.7" x="444.85" y="193.5042">getAgendaEntries()</text><polygon fill="#181818" points="439.95,216.2918,432.95,219.0918,439.95,221.8918,437.15,219.0918" style="stroke:#181818;stroke-width:0.6999999999999998;"/><line style="stroke:#181818;stroke-width:0.6999999999999998;stroke-dasharray:2.0,2.0;" x1="435.75" x2="646.1" y1="219.0918" y2="219.0918"/><text fill="#000000" font-family="sans-serif" font-size="9.1" font-weight="bold" lengthAdjust="spacing" textLength="4.9" x="444.15" y="215.4079">6</text><text fill="#000000" font-family="sans-serif" font-size="9.1" lengthAdjust="spacing" textLength="65.8" x="451.85" y="215.4079">agendaEntryList</text><polygon fill="#181818" points="750.75,238.1955,757.75,240.9955,750.75,243.7955,753.55,240.9955" style="stroke:#181818;stroke-width:0.6999999999999998;"/><line style="stroke:#181818;stroke-width:0.6999999999999998;" x1="432.25" x2="754.95" y1="240.9955" y2="240.9955"/><text fill="#000000" font-family="sans-serif" font-size="9.1" font-weight="bold" lengthAdjust="spacing" textLength="4.9" x="437.15" y="237.3116">7</text><text fill="#000000" font-family="sans-serif" font-size="9.1" lengthAdjust="spacing" textLength="100.8" x="444.85" y="237.3116">getAgendaEntriesDTOs()</text><path d="M705.25,251.4955 L756.35,251.4955 L756.35,257.9992 L749.35,264.9992 L705.25,264.9992 L705.25,251.4955 " fill="#EEEEEE" style="stroke:#000000;stroke-width:1.0499999999999998;"/><rect fill="none" height="56.4074" style="stroke:#000000;stroke-width:1.0499999999999998;" width="306.6" x="705.25" y="251.4955"/><text fill="#000000" font-family="sans-serif" font-size="9.1" font-weight="bold" lengthAdjust="spacing" textLength="19.6" x="715.75" y="262.0153">loop</text><text fill="#000000" font-family="sans-serif" font-size="7.7" font-weight="bold" lengthAdjust="spacing" textLength="160.3" x="766.85" y="261.2046">[for each agendaEntry in agendaEntryList]</text><polygon fill="#181818" points="948.85,278.5029,955.85,281.3029,948.85,284.1029,951.65,281.3029" style="stroke:#181818;stroke-width:0.6999999999999998;"/><line style="stroke:#181818;stroke-width:0.6999999999999998;" x1="766.15" x2="953.05" y1="281.3029" y2="281.3029"/><text fill="#000000" font-family="sans-serif" font-size="9.1" font-weight="bold" lengthAdjust="spacing" textLength="4.9" x="771.05" y="277.619">8</text><text fill="#000000" font-family="sans-serif" font-size="9.1" lengthAdjust="spacing" textLength="163.1" x="778.75" y="277.619">agendaEntryDTO = toDTO(agendaEntry)</text><polygon fill="#181818" points="439.95,326.3066,432.95,329.1066,439.95,331.9066,437.15,329.1066" style="stroke:#181818;stroke-width:0.6999999999999998;"/><line style="stroke:#181818;stroke-width:0.6999999999999998;stroke-dasharray:2.0,2.0;" x1="435.75" x2="761.95" y1="329.1066" y2="329.1066"/><text fill="#000000" font-family="sans-serif" font-size="9.1" font-weight="bold" lengthAdjust="spacing" textLength="4.9" x="444.15" y="325.4228">9</text><text fill="#000000" font-family="sans-serif" font-size="9.1" lengthAdjust="spacing" textLength="84" x="451.85" y="325.4228">agendaEntryDTOList</text><polygon fill="#181818" points="233.45,348.2104,226.45,351.0104,233.45,353.8104,230.65,351.0104" style="stroke:#181818;stroke-width:0.6999999999999998;"/><line style="stroke:#181818;stroke-width:0.6999999999999998;stroke-dasharray:2.0,2.0;" x1="229.25" x2="428.05" y1="351.0104" y2="351.0104"/><text fill="#000000" font-family="sans-serif" font-size="9.1" font-weight="bold" lengthAdjust="spacing" textLength="9.8" x="237.65" y="347.3265">10</text><text fill="#000000" font-family="sans-serif" font-size="9.1" lengthAdjust="spacing" textLength="84" x="250.25" y="347.3265">agendaEntryDTOList</text><polygon fill="#181818" points="27.65,382.2178,20.65,385.0178,27.65,387.8178,24.85,385.0178" style="stroke:#181818;stroke-width:0.6999999999999998;"/><line style="stroke:#181818;stroke-width:0.6999999999999998;stroke-dasharray:2.0,2.0;" x1="23.45" x2="221.55" y1="385.0178" y2="385.0178"/><text fill="#000000" font-family="sans-serif" font-size="9.1" font-weight="bold" lengthAdjust="spacing" textLength="9.8" x="31.85" y="375.282">11</text><text fill="#000000" font-family="sans-serif" font-size="9.1" lengthAdjust="spacing" textLength="154.7" x="44.45" y="369.2302">shows the list of entries in the Agenda</text><text fill="#000000" font-family="sans-serif" font-size="9.1" lengthAdjust="spacing" textLength="169.4" x="44.45" y="381.3339">and planned dates and asks to select one</text><polygon fill="#181818" points="210.35,404.1215,217.35,406.9215,210.35,409.7215,213.15,406.9215" style="stroke:#181818;stroke-width:0.6999999999999998;"/><line style="stroke:#181818;stroke-width:0.6999999999999998;" x1="19.95" x2="214.55" y1="406.9215" y2="406.9215"/><text fill="#000000" font-family="sans-serif" font-size="9.1" font-weight="bold" lengthAdjust="spacing" textLength="9.8" x="24.85" y="403.2376">12</text><text fill="#000000" font-family="sans-serif" font-size="9.1" lengthAdjust="spacing" textLength="65.1" x="37.45" y="403.2376">selects an entry</text><polygon fill="#181818" points="27.65,426.0252,20.65,428.8252,27.65,431.6252,24.85,428.8252" style="stroke:#181818;stroke-width:0.6999999999999998;"/><line style="stroke:#181818;stroke-width:0.6999999999999998;stroke-dasharray:2.0,2.0;" x1="23.45" x2="221.55" y1="428.8252" y2="428.8252"/><text fill="#000000" font-family="sans-serif" font-size="9.1" font-weight="bold" lengthAdjust="spacing" textLength="9.8" x="31.85" y="425.1413">13</text><text fill="#000000" font-family="sans-serif" font-size="9.1" lengthAdjust="spacing" textLength="104.3" x="44.45" y="425.1413">asks to select a new date</text><polygon fill="#181818" points="210.35,447.9289,217.35,450.7289,210.35,453.5289,213.15,450.7289" style="stroke:#181818;stroke-width:0.6999999999999998;"/><line style="stroke:#181818;stroke-width:0.6999999999999998;" x1="19.95" x2="214.55" y1="450.7289" y2="450.7289"/><text fill="#000000" font-family="sans-serif" font-size="9.1" font-weight="bold" lengthAdjust="spacing" textLength="9.8" x="24.85" y="447.045">14</text><text fill="#000000" font-family="sans-serif" font-size="9.1" lengthAdjust="spacing" textLength="119.7" x="37.45" y="447.045">selects new date for the entry</text><polygon fill="#181818" points="948.85,469.8326,955.85,472.6326,948.85,475.4326,951.65,472.6326" style="stroke:#181818;stroke-width:0.6999999999999998;"/><line style="stroke:#181818;stroke-width:0.6999999999999998;" x1="225.75" x2="953.05" y1="472.6326" y2="472.6326"/><text fill="#000000" font-family="sans-serif" font-size="9.1" font-weight="bold" lengthAdjust="spacing" textLength="9.8" x="230.65" y="468.9487">15</text><text fill="#000000" font-family="sans-serif" font-size="9.1" lengthAdjust="spacing" textLength="135.8" x="243.25" y="468.9487">agendaEntryDTO.date = newDate</text><polygon fill="#181818" points="416.85,512.7363,423.85,515.5363,416.85,518.3363,419.65,515.5363" style="stroke:#181818;stroke-width:0.6999999999999998;"/><line style="stroke:#181818;stroke-width:0.6999999999999998;" x1="225.75" x2="421.05" y1="515.5363" y2="515.5363"/><text fill="#000000" font-family="sans-serif" font-size="9.1" font-weight="bold" lengthAdjust="spacing" textLength="9.8" x="230.65" y="511.8524">16</text><text fill="#000000" font-family="sans-serif" font-size="9.1" lengthAdjust="spacing" textLength="173.6" x="243.25" y="511.8524">updateAgendaEntryDate(agendaEntryDTO)</text><polygon fill="#181818" points="750.75,534.64,757.75,537.44,750.75,540.24,753.55,537.44" style="stroke:#181818;stroke-width:0.6999999999999998;"/><line style="stroke:#181818;stroke-width:0.6999999999999998;" x1="432.25" x2="754.95" y1="537.44" y2="537.44"/><text fill="#000000" font-family="sans-serif" font-size="9.1" font-weight="bold" lengthAdjust="spacing" textLength="9.8" x="437.15" y="533.7562">17</text><text fill="#000000" font-family="sans-serif" font-size="9.1" lengthAdjust="spacing" textLength="154.7" x="449.75" y="533.7562">updateAgendaEntry(agendaEntryDTO)</text><line style="stroke:#181818;stroke-width:0.6999999999999998;" x1="769.65" x2="799.05" y1="559.3437" y2="559.3437"/><line style="stroke:#181818;stroke-width:0.6999999999999998;" x1="799.05" x2="799.05" y1="559.3437" y2="568.4437"/><line style="stroke:#181818;stroke-width:0.6999999999999998;" x1="770.35" x2="799.05" y1="568.4437" y2="568.4437"/><polygon fill="#181818" points="777.35,565.6437,770.35,568.4437,777.35,571.2437,774.55,568.4437" style="stroke:#181818;stroke-width:0.6999999999999998;"/><text fill="#000000" font-family="sans-serif" font-size="9.1" font-weight="bold" lengthAdjust="spacing" textLength="9.8" x="774.55" y="555.6599">18</text><text fill="#000000" font-family="sans-serif" font-size="9.1" lengthAdjust="spacing" textLength="168.7" x="787.15" y="555.6599">agendaEntry = toEntity(agendaEntryDTO)</text><polygon fill="#181818" points="439.95,608.5475,432.95,611.3475,439.95,614.1475,437.15,611.3475" style="stroke:#181818;stroke-width:0.6999999999999998;"/><line style="stroke:#181818;stroke-width:0.6999999999999998;stroke-dasharray:2.0,2.0;" x1="435.75" x2="761.95" y1="611.3475" y2="611.3475"/><text fill="#000000" font-family="sans-serif" font-size="9.1" font-weight="bold" lengthAdjust="spacing" textLength="9.8" x="444.15" y="607.6636">19</text><text fill="#000000" font-family="sans-serif" font-size="9.1" lengthAdjust="spacing" textLength="51.1" x="456.75" y="607.6636">agendaEntry</text><polygon fill="#181818" points="634.9,630.4512,641.9,633.2512,634.9,636.0512,637.7,633.2512" style="stroke:#181818;stroke-width:0.6999999999999998;"/><line style="stroke:#181818;stroke-width:0.6999999999999998;" x1="432.25" x2="639.1" y1="633.2512" y2="633.2512"/><text fill="#000000" font-family="sans-serif" font-size="9.1" font-weight="bold" lengthAdjust="spacing" textLength="9.8" x="437.15" y="629.5673">20</text><text fill="#000000" font-family="sans-serif" font-size="9.1" lengthAdjust="spacing" textLength="124.6" x="449.75" y="629.5673">updateEntryDate(agendaEntry)</text><polygon fill="#181818" points="439.95,652.3549,432.95,655.1549,439.95,657.9549,437.15,655.1549" style="stroke:#181818;stroke-width:0.6999999999999998;"/><line style="stroke:#181818;stroke-width:0.6999999999999998;stroke-dasharray:2.0,2.0;" x1="435.75" x2="646.1" y1="655.1549" y2="655.1549"/><text fill="#000000" font-family="sans-serif" font-size="9.1" font-weight="bold" lengthAdjust="spacing" textLength="9.8" x="444.15" y="651.471">21</text><text fill="#000000" font-family="sans-serif" font-size="9.1" lengthAdjust="spacing" textLength="60.9" x="456.75" y="651.471">success/failure</text><polygon fill="#181818" points="233.45,674.2586,226.45,677.0586,233.45,679.8586,230.65,677.0586" style="stroke:#181818;stroke-width:0.6999999999999998;"/><line style="stroke:#181818;stroke-width:0.6999999999999998;stroke-dasharray:2.0,2.0;" x1="229.25" x2="428.05" y1="677.0586" y2="677.0586"/><text fill="#000000" font-family="sans-serif" font-size="9.1" font-weight="bold" lengthAdjust="spacing" textLength="9.8" x="237.65" y="673.3747">22</text><text fill="#000000" font-family="sans-serif" font-size="9.1" lengthAdjust="spacing" textLength="133" x="250.25" y="673.3747">displays message of (in)success</text><polygon fill="#181818" points="24.15,696.1623,17.15,698.9623,24.15,701.7623,21.35,698.9623" style="stroke:#181818;stroke-width:0.6999999999999998;"/><line style="stroke:#181818;stroke-width:0.6999999999999998;stroke-dasharray:2.0,2.0;" x1="19.95" x2="221.55" y1="698.9623" y2="698.9623"/><text fill="#000000" font-family="sans-serif" font-size="9.1" font-weight="bold" lengthAdjust="spacing" textLength="9.8" x="28.35" y="695.2784">23</text><text fill="#000000" font-family="sans-serif" font-size="9.1" lengthAdjust="spacing" textLength="133" x="40.95" y="695.2784">displays message of (in)success</text><!--SRC=[hLR1Zfim4Btp5QESaaFQUwIjL6rMgqYxQhNitlRYmeHO0PjYquY_xzW9OC0GajQ790mpRvx7CyzHHovoLh0CCYbaT2XaXg2B4WFLlCbPT6G9XhfA4GgCD1D9wZge0ulbYOi4zYnL60IQQt8DAwKnWn1_boWYX2rdYN5VXk5s5GIir5AKsIyiw7UaPG6Bv_1r0Kp1KvQdia8C25_pYETCQ5XiVagbSodmUu8YPaz25zN7pWPyxAwxFahwb6cAXGrvV7zxwGMzOIuL9oOSbVLf35N8pPw9S3V4WMzzFyM6-UmMyXnXZAD8hopFYUJe- -txZuMf6F_3DBQr2e1M_GJhRrGKs53Aem8j8RyK19W0D2Z01UW3NWZPu0QJocaDPX4AOPbg4Lg2kYL2LLgk6hycs1QsCPjbWmd4KyupvaueQge87RWEfEySEfvc-T3N5-eRwjlsR3kXCSvFKs-aFSJfcdGsuPpyWBi3k6whxNJH2rTwZFOOSCtMqriUsjHLezHztTdnJANCOKyZJAmEBc_JPLFRCCl7hqVRj7ot86I11sfi-buwvjK0tRi9Eq83LwUc0sVNZzvqWxqxy9uZOKqTvTL2dy-q6UvnO0UqEv1cdYc-4OeDoRSyAQi5AI60t5k1e9ReIiIdO2A6F6L2O0mn8IimbbfX5APqDm1fJD0ZKCl9G9pE8QhHf6aLwhBkfMKWy6HPtPoz3hGDRFOxWykCzlnYCHyC_BQcDTsGS_hGhyjbRfAvllIuxFAvIQhzcZ58CvhYDlcOgG8j4LTXZ0hGBwwdsLnbDAu6TyxwFmvvxvevrzvxkF_jmb5b5A5IN_UCfsM1zrquzNZ5N95OL0eoWYIsHbYMNAmkIUvHgZcGlSbt7fj_Idy1]--></g></svg>