<?xml version="1.0" encoding="us-ascii" standalone="no"?><svg xmlns="http://www.w3.org/2000/svg" xmlns:xlink="http://www.w3.org/1999/xlink" contentStyleType="text/css" height="718.2px" preserveAspectRatio="none" style="width:1066px;height:718px;background:#FFFFFF;" version="1.1" viewBox="0 0 1066 718" width="1066.5px" zoomAndPan="magnify"><defs/><g><text fill="#000000" font-family="sans-serif" font-size="12.6" font-weight="bold" lengthAdjust="spacing" textLength="89.1" x="482.4" y="22.5967">Class Diagram</text><!--class ToDoEntry--><g id="elem_ToDoEntry"><rect codeLine="12" fill="#F1F1F1" height="126.9949" id="ToDoEntry" rx="2.25" ry="2.25" style="stroke:#181818;stroke-width:0.45;" width="110.7" x="949.5" y="222.859"/><ellipse cx="972.315" cy="237.259" fill="#ADD1B2" rx="9.9" ry="9.9" style="stroke:#181818;stroke-width:0.9;"/><path d="M974.8041,233.5465 Q974.9447,233.3496 975.1134,233.2512 Q975.2822,233.1527 975.4791,233.1527 Q975.8166,233.1527 976.0275,233.3918 Q976.2384,233.6168 976.2384,234.1652 L976.2384,235.473 Q976.2384,236.0215 976.0275,236.2605 Q975.8166,236.4996 975.4791,236.4996 Q975.1697,236.4996 974.9869,236.3168 Q974.8041,236.148 974.7056,235.684 Q974.6634,235.3605 974.4947,235.1918 Q974.1994,234.8543 973.6509,234.6574 Q973.1025,234.4605 972.54,234.4605 Q971.8509,234.4605 971.2744,234.7559 Q970.7119,235.0512 970.2619,235.7262 Q969.8259,236.4012 969.8259,237.3293 L969.8259,238.3137 Q969.8259,239.4246 970.6275,240.1699 Q971.4291,240.9012 972.8634,240.9012 Q973.7072,240.9012 974.2978,240.6762 Q974.6494,240.5355 975.0291,240.1418 Q975.2681,239.9027 975.3947,239.8324 Q975.5353,239.7621 975.7181,239.7621 Q976.0134,239.7621 976.2384,240.0012 Q976.4775,240.2262 976.4775,240.5355 Q976.4775,240.8449 976.1681,241.2105 Q975.7181,241.7309 975.0009,242.0262 Q974.0306,242.434 972.8634,242.434 Q971.4994,242.434 970.4166,241.8715 Q969.5306,241.4215 968.9119,240.4652 Q968.2931,239.4949 968.2931,238.3418 L968.2931,237.3012 Q968.2931,236.1059 968.8416,235.0793 Q969.4041,234.0387 970.3884,233.4902 Q971.3728,232.9277 972.4838,232.9277 Q973.1447,232.9277 973.7212,233.0824 Q974.3119,233.223 974.8041,233.5465 Z " fill="#000000"/><text fill="#000000" font-family="sans-serif" font-size="12.6" lengthAdjust="spacing" textLength="61.2" x="986.985" y="242.4762">ToDoEntry</text><line style="stroke:#181818;stroke-width:0.45;" x1="950.4" x2="1059.3" y1="251.659" y2="251.659"/><text fill="#000000" font-family="sans-serif" font-size="12.6" lengthAdjust="spacing" textLength="69.3" x="954.9" y="268.8557">greenSpace</text><text fill="#000000" font-family="sans-serif" font-size="12.6" lengthAdjust="spacing" textLength="62.1" x="954.9" y="285.6146">description</text><text fill="#000000" font-family="sans-serif" font-size="12.6" lengthAdjust="spacing" textLength="88.2" x="954.9" y="302.3736">urgencyDegree</text><text fill="#000000" font-family="sans-serif" font-size="12.6" lengthAdjust="spacing" textLength="34.2" x="954.9" y="319.1326">status</text><text fill="#000000" font-family="sans-serif" font-size="12.6" lengthAdjust="spacing" textLength="99.9" x="954.9" y="335.8916">expectedDuration</text><line style="stroke:#181818;stroke-width:0.45;" x1="950.4" x2="1059.3" y1="342.6539" y2="342.6539"/></g><!--class AgendaEntry--><g id="elem_AgendaEntry"><rect codeLine="20" fill="#F1F1F1" height="93.477" id="AgendaEntry" rx="2.25" ry="2.25" style="stroke:#181818;stroke-width:0.45;" width="119.7" x="887.4" y="437.509"/><ellipse cx="908.595" cy="451.909" fill="#ADD1B2" rx="9.9" ry="9.9" style="stroke:#181818;stroke-width:0.9;"/><path d="M911.0841,448.1965 Q911.2247,447.9996 911.3934,447.9012 Q911.5622,447.8027 911.7591,447.8027 Q912.0966,447.8027 912.3075,448.0418 Q912.5184,448.2668 912.5184,448.8152 L912.5184,450.123 Q912.5184,450.6715 912.3075,450.9105 Q912.0966,451.1496 911.7591,451.1496 Q911.4497,451.1496 911.2669,450.9668 Q911.0841,450.798 910.9856,450.334 Q910.9434,450.0105 910.7747,449.8418 Q910.4794,449.5043 909.9309,449.3074 Q909.3825,449.1105 908.82,449.1105 Q908.1309,449.1105 907.5544,449.4059 Q906.9919,449.7012 906.5419,450.3762 Q906.1059,451.0512 906.1059,451.9793 L906.1059,452.9637 Q906.1059,454.0746 906.9075,454.8199 Q907.7091,455.5512 909.1434,455.5512 Q909.9872,455.5512 910.5778,455.3262 Q910.9294,455.1855 911.3091,454.7918 Q911.5481,454.5527 911.6747,454.4824 Q911.8153,454.4121 911.9981,454.4121 Q912.2934,454.4121 912.5184,454.6512 Q912.7575,454.8762 912.7575,455.1855 Q912.7575,455.4949 912.4481,455.8605 Q911.9981,456.3809 911.2809,456.6762 Q910.3106,457.084 909.1434,457.084 Q907.7794,457.084 906.6966,456.5215 Q905.8106,456.0715 905.1919,455.1152 Q904.5731,454.1449 904.5731,452.9918 L904.5731,451.9512 Q904.5731,450.7559 905.1216,449.7293 Q905.6841,448.6887 906.6684,448.1402 Q907.6528,447.5777 908.7638,447.5777 Q909.4247,447.5777 910.0013,447.7324 Q910.5919,447.873 911.0841,448.1965 Z " fill="#000000"/><text fill="#000000" font-family="sans-serif" font-size="12.6" lengthAdjust="spacing" textLength="73.8" x="922.905" y="457.1262">AgendaEntry</text><line style="stroke:#181818;stroke-width:0.45;" x1="888.3" x2="1006.2" y1="466.309" y2="466.309"/><text fill="#000000" font-family="sans-serif" font-size="12.6" lengthAdjust="spacing" textLength="25.2" x="892.8" y="483.5057">date</text><text fill="#000000" font-family="sans-serif" font-size="12.6" lengthAdjust="spacing" textLength="93.6" x="892.8" y="500.2646">associatedTeam</text><text fill="#000000" font-family="sans-serif" font-size="12.6" lengthAdjust="spacing" textLength="108.9" x="892.8" y="517.0236">associatedVehicles</text><line style="stroke:#181818;stroke-width:0.45;" x1="888.3" x2="1006.2" y1="523.7859" y2="523.7859"/></g><!--class AgendaEntryDTO--><g id="elem_AgendaEntryDTO"><rect codeLine="26" fill="#F1F1F1" height="110.2359" id="AgendaEntryDTO" rx="2.25" ry="2.25" style="stroke:#181818;stroke-width:0.45;" width="129.6" x="740.25" y="41.959"/><ellipse cx="753.75" cy="56.359" fill="#ADD1B2" rx="9.9" ry="9.9" style="stroke:#181818;stroke-width:0.9;"/><path d="M756.2391,52.6465 Q756.3797,52.4496 756.5484,52.3512 Q756.7172,52.2527 756.9141,52.2527 Q757.2516,52.2527 757.4625,52.4918 Q757.6734,52.7168 757.6734,53.2652 L757.6734,54.573 Q757.6734,55.1215 757.4625,55.3605 Q757.2516,55.5996 756.9141,55.5996 Q756.6047,55.5996 756.4219,55.4168 Q756.2391,55.248 756.1406,54.784 Q756.0984,54.4605 755.9297,54.2918 Q755.6344,53.9543 755.0859,53.7574 Q754.5375,53.5605 753.975,53.5605 Q753.2859,53.5605 752.7094,53.8559 Q752.1469,54.1512 751.6969,54.8262 Q751.2609,55.5012 751.2609,56.4293 L751.2609,57.4137 Q751.2609,58.5246 752.0625,59.2699 Q752.8641,60.0012 754.2984,60.0012 Q755.1422,60.0012 755.7328,59.7762 Q756.0844,59.6355 756.4641,59.2418 Q756.7031,59.0027 756.8297,58.9324 Q756.9703,58.8621 757.1531,58.8621 Q757.4484,58.8621 757.6734,59.1012 Q757.9125,59.3262 757.9125,59.6355 Q757.9125,59.9449 757.6031,60.3105 Q757.1531,60.8309 756.4359,61.1262 Q755.4656,61.534 754.2984,61.534 Q752.9344,61.534 751.8516,60.9715 Q750.9656,60.5215 750.3469,59.5652 Q749.7281,58.5949 749.7281,57.4418 L749.7281,56.4012 Q749.7281,55.2059 750.2766,54.1793 Q750.8391,53.1387 751.8234,52.5902 Q752.8078,52.0277 753.9188,52.0277 Q754.5797,52.0277 755.1563,52.1824 Q755.7469,52.323 756.2391,52.6465 Z " fill="#000000"/><text fill="#000000" font-family="sans-serif" font-size="12.6" lengthAdjust="spacing" textLength="100.8" x="766.35" y="61.5762">AgendaEntryDTO</text><line style="stroke:#181818;stroke-width:0.45;" x1="741.15" x2="868.95" y1="70.759" y2="70.759"/><text fill="#000000" font-family="sans-serif" font-size="12.6" lengthAdjust="spacing" textLength="40.5" x="745.65" y="87.9557">entryID</text><text fill="#000000" font-family="sans-serif" font-size="12.6" lengthAdjust="spacing" textLength="62.1" x="745.65" y="104.7146">description</text><text fill="#000000" font-family="sans-serif" font-size="12.6" lengthAdjust="spacing" textLength="72.9" x="745.65" y="121.4736">plannedDate</text><text fill="#000000" font-family="sans-serif" font-size="12.6" lengthAdjust="spacing" textLength="34.2" x="745.65" y="138.2326">status</text><line style="stroke:#181818;stroke-width:0.45;" x1="741.15" x2="868.95" y1="144.9949" y2="144.9949"/></g><!--class SystemUser--><g id="elem_SystemUser"><rect codeLine="33" fill="#F1F1F1" height="110.2359" id="SystemUser" rx="2.25" ry="2.25" style="stroke:#181818;stroke-width:0.45;" width="96.3" x="6.3" y="41.959"/><ellipse cx="19.8" cy="56.359" fill="#ADD1B2" rx="9.9" ry="9.9" style="stroke:#181818;stroke-width:0.9;"/><path d="M22.2891,52.6465 Q22.4297,52.4496 22.5984,52.3512 Q22.7672,52.2527 22.9641,52.2527 Q23.3016,52.2527 23.5125,52.4918 Q23.7234,52.7168 23.7234,53.2652 L23.7234,54.573 Q23.7234,55.1215 23.5125,55.3605 Q23.3016,55.5996 22.9641,55.5996 Q22.6547,55.5996 22.4719,55.4168 Q22.2891,55.248 22.1906,54.784 Q22.1484,54.4605 21.9797,54.2918 Q21.6844,53.9543 21.1359,53.7574 Q20.5875,53.5605 20.025,53.5605 Q19.3359,53.5605 18.7594,53.8559 Q18.1969,54.1512 17.7469,54.8262 Q17.3109,55.5012 17.3109,56.4293 L17.3109,57.4137 Q17.3109,58.5246 18.1125,59.2699 Q18.9141,60.0012 20.3484,60.0012 Q21.1922,60.0012 21.7828,59.7762 Q22.1344,59.6355 22.5141,59.2418 Q22.7531,59.0027 22.8797,58.9324 Q23.0203,58.8621 23.2031,58.8621 Q23.4984,58.8621 23.7234,59.1012 Q23.9625,59.3262 23.9625,59.6355 Q23.9625,59.9449 23.6531,60.3105 Q23.2031,60.8309 22.4859,61.1262 Q21.5156,61.534 20.3484,61.534 Q18.9844,61.534 17.9016,60.9715 Q17.0156,60.5215 16.3969,59.5652 Q15.7781,58.5949 15.7781,57.4418 L15.7781,56.4012 Q15.7781,55.2059 16.3266,54.1793 Q16.8891,53.1387 17.8734,52.5902 Q18.8578,52.0277 19.9688,52.0277 Q20.6297,52.0277 21.2063,52.1824 Q21.7969,52.323 22.2891,52.6465 Z " fill="#000000"/><text fill="#000000" font-family="sans-serif" font-size="12.6" lengthAdjust="spacing" textLength="67.5" x="32.4" y="61.5762">SystemUser</text><line style="stroke:#181818;stroke-width:0.45;" x1="7.2" x2="101.7" y1="70.759" y2="70.759"/><text fill="#000000" font-family="sans-serif" font-size="12.6" lengthAdjust="spacing" textLength="31.5" x="11.7" y="87.9557">name</text><text fill="#000000" font-family="sans-serif" font-size="12.6" lengthAdjust="spacing" textLength="29.7" x="11.7" y="104.7146">email</text><text fill="#000000" font-family="sans-serif" font-size="12.6" lengthAdjust="spacing" textLength="54" x="11.7" y="121.4736">password</text><text fill="#000000" font-family="sans-serif" font-size="12.6" lengthAdjust="spacing" textLength="36" x="11.7" y="138.2326">phone</text><line style="stroke:#181818;stroke-width:0.45;" x1="7.2" x2="101.7" y1="144.9949" y2="144.9949"/></g><!--class AgendaEntryRepository--><g id="elem_AgendaEntryRepository"><rect codeLine="40" fill="#F1F1F1" height="93.477" id="AgendaEntryRepository" rx="2.25" ry="2.25" style="stroke:#181818;stroke-width:0.45;" width="253.8" x="595.35" y="618.859"/><ellipse cx="650.925" cy="633.259" fill="#ADD1B2" rx="9.9" ry="9.9" style="stroke:#181818;stroke-width:0.9;"/><path d="M653.4141,629.5465 Q653.5547,629.3496 653.7234,629.2512 Q653.8922,629.1527 654.0891,629.1527 Q654.4266,629.1527 654.6375,629.3918 Q654.8484,629.6168 654.8484,630.1652 L654.8484,631.473 Q654.8484,632.0215 654.6375,632.2605 Q654.4266,632.4996 654.0891,632.4996 Q653.7797,632.4996 653.5969,632.3168 Q653.4141,632.148 653.3156,631.684 Q653.2734,631.3605 653.1047,631.1918 Q652.8094,630.8543 652.2609,630.6574 Q651.7125,630.4605 651.15,630.4605 Q650.4609,630.4605 649.8844,630.7559 Q649.3219,631.0512 648.8719,631.7262 Q648.4359,632.4012 648.4359,633.3293 L648.4359,634.3137 Q648.4359,635.4246 649.2375,636.1699 Q650.0391,636.9012 651.4734,636.9012 Q652.3172,636.9012 652.9078,636.6762 Q653.2594,636.5355 653.6391,636.1418 Q653.8781,635.9027 654.0047,635.8324 Q654.1453,635.7621 654.3281,635.7621 Q654.6234,635.7621 654.8484,636.0012 Q655.0875,636.2262 655.0875,636.5355 Q655.0875,636.8449 654.7781,637.2105 Q654.3281,637.7309 653.6109,638.0262 Q652.6406,638.434 651.4734,638.434 Q650.1094,638.434 649.0266,637.8715 Q648.1406,637.4215 647.5219,636.4652 Q646.9031,635.4949 646.9031,634.3418 L646.9031,633.3012 Q646.9031,632.1059 647.4516,631.0793 Q648.0141,630.0387 648.9984,629.4902 Q649.9828,628.9277 651.0938,628.9277 Q651.7547,628.9277 652.3313,629.0824 Q652.9219,629.223 653.4141,629.5465 Z " fill="#000000"/><text fill="#000000" font-family="sans-serif" font-size="12.6" lengthAdjust="spacing" textLength="135" x="669.375" y="638.4762">AgendaEntryRepository</text><line style="stroke:#181818;stroke-width:0.45;" x1="596.25" x2="848.25" y1="647.659" y2="647.659"/><text fill="#000000" font-family="sans-serif" font-size="12.6" lengthAdjust="spacing" textLength="229.5" x="600.75" y="664.8557">-ArrayList&lt;AgendaEntry&gt; agendaEntries</text><line style="stroke:#181818;stroke-width:0.45;" x1="596.25" x2="848.25" y1="671.618" y2="671.618"/><text fill="#000000" font-family="sans-serif" font-size="12.6" lengthAdjust="spacing" textLength="117.9" x="600.75" y="688.8146">+getAgendaEntries()</text><text fill="#000000" font-family="sans-serif" font-size="12.6" lengthAdjust="spacing" textLength="243" x="600.75" y="705.5736">+updateEntryDate(AgendaEntry, newDate)</text></g><!--class Repositories--><g id="elem_Repositories"><rect codeLine="46" fill="#F1F1F1" height="126.9949" id="Repositories" rx="2.25" ry="2.25" style="stroke:#181818;stroke-width:0.45;" width="180" x="408.15" y="420.859"/><ellipse cx="458.775" cy="435.259" fill="#ADD1B2" rx="9.9" ry="9.9" style="stroke:#181818;stroke-width:0.9;"/><path d="M461.2641,431.5465 Q461.4047,431.3496 461.5734,431.2512 Q461.7422,431.1527 461.9391,431.1527 Q462.2766,431.1527 462.4875,431.3918 Q462.6984,431.6168 462.6984,432.1652 L462.6984,433.473 Q462.6984,434.0215 462.4875,434.2605 Q462.2766,434.4996 461.9391,434.4996 Q461.6297,434.4996 461.4469,434.3168 Q461.2641,434.148 461.1656,433.684 Q461.1234,433.3605 460.9547,433.1918 Q460.6594,432.8543 460.1109,432.6574 Q459.5625,432.4605 459,432.4605 Q458.3109,432.4605 457.7344,432.7559 Q457.1719,433.0512 456.7219,433.7262 Q456.2859,434.4012 456.2859,435.3293 L456.2859,436.3137 Q456.2859,437.4246 457.0875,438.1699 Q457.8891,438.9012 459.3234,438.9012 Q460.1672,438.9012 460.7578,438.6762 Q461.1094,438.5355 461.4891,438.1418 Q461.7281,437.9027 461.8547,437.8324 Q461.9953,437.7621 462.1781,437.7621 Q462.4734,437.7621 462.6984,438.0012 Q462.9375,438.2262 462.9375,438.5355 Q462.9375,438.8449 462.6281,439.2105 Q462.1781,439.7309 461.4609,440.0262 Q460.4906,440.434 459.3234,440.434 Q457.9594,440.434 456.8766,439.8715 Q455.9906,439.4215 455.3719,438.4652 Q454.7531,437.4949 454.7531,436.3418 L454.7531,435.3012 Q454.7531,434.1059 455.3016,433.0793 Q455.8641,432.0387 456.8484,431.4902 Q457.8328,430.9277 458.9438,430.9277 Q459.6047,430.9277 460.1813,431.0824 Q460.7719,431.223 461.2641,431.5465 Z " fill="#000000"/><text fill="#000000" font-family="sans-serif" font-size="12.6" lengthAdjust="spacing" textLength="71.1" x="477.225" y="440.4762">Repositories</text><line style="stroke:#181818;stroke-width:0.45;" x1="409.05" x2="587.25" y1="449.659" y2="449.659"/><text fill="#000000" font-family="sans-serif" font-size="12.6" lengthAdjust="spacing" textLength="138.6" x="413.55" y="466.8557">-agendaEntryRepository</text><line style="stroke:#181818;stroke-width:0.45;" x1="409.05" x2="587.25" y1="473.618" y2="473.618"/><text fill="#000000" font-family="sans-serif" font-size="12.6" lengthAdjust="spacing" textLength="84.6" x="413.55" y="490.8146">-Repositories()</text><text fill="#000000" font-family="sans-serif" font-size="12.6" lengthAdjust="spacing" textLength="81.9" x="413.55" y="507.5736">+getInstance()</text><text fill="#000000" font-family="sans-serif" font-size="12.6" lengthAdjust="spacing" textLength="169.2" x="413.55" y="524.3326">+getAgendaEntryRepository()</text><text fill="#000000" font-family="sans-serif" font-size="12.6" lengthAdjust="spacing" textLength="139.5" x="413.55" y="541.0916">+#placeholderMethod#()</text></g><!--class AgendaEntryMapper--><g id="elem_AgendaEntryMapper"><rect codeLine="55" fill="#F1F1F1" height="93.477" id="AgendaEntryMapper" rx="2.25" ry="2.25" style="stroke:#181818;stroke-width:0.45;" width="225.9" x="692.1" y="239.509"/><ellipse cx="742.725" cy="253.909" fill="#ADD1B2" rx="9.9" ry="9.9" style="stroke:#181818;stroke-width:0.9;"/><path d="M745.2141,250.1965 Q745.3547,249.9996 745.5234,249.9012 Q745.6922,249.8027 745.8891,249.8027 Q746.2266,249.8027 746.4375,250.0418 Q746.6484,250.2668 746.6484,250.8152 L746.6484,252.123 Q746.6484,252.6715 746.4375,252.9105 Q746.2266,253.1496 745.8891,253.1496 Q745.5797,253.1496 745.3969,252.9668 Q745.2141,252.798 745.1156,252.334 Q745.0734,252.0105 744.9047,251.8418 Q744.6094,251.5043 744.0609,251.3074 Q743.5125,251.1105 742.95,251.1105 Q742.2609,251.1105 741.6844,251.4059 Q741.1219,251.7012 740.6719,252.3762 Q740.2359,253.0512 740.2359,253.9793 L740.2359,254.9637 Q740.2359,256.0746 741.0375,256.8199 Q741.8391,257.5512 743.2734,257.5512 Q744.1172,257.5512 744.7078,257.3262 Q745.0594,257.1855 745.4391,256.7918 Q745.6781,256.5527 745.8047,256.4824 Q745.9453,256.4121 746.1281,256.4121 Q746.4234,256.4121 746.6484,256.6512 Q746.8875,256.8762 746.8875,257.1855 Q746.8875,257.4949 746.5781,257.8605 Q746.1281,258.3809 745.4109,258.6762 Q744.4406,259.084 743.2734,259.084 Q741.9094,259.084 740.8266,258.5215 Q739.9406,258.0715 739.3219,257.1152 Q738.7031,256.1449 738.7031,254.9918 L738.7031,253.9512 Q738.7031,252.7559 739.2516,251.7293 Q739.8141,250.6887 740.7984,250.1402 Q741.7828,249.5777 742.8938,249.5777 Q743.5547,249.5777 744.1313,249.7324 Q744.7219,249.873 745.2141,250.1965 Z " fill="#000000"/><text fill="#000000" font-family="sans-serif" font-size="12.6" lengthAdjust="spacing" textLength="117" x="761.175" y="259.1262">AgendaEntryMapper</text><line style="stroke:#181818;stroke-width:0.45;" x1="693" x2="917.1" y1="268.309" y2="268.309"/><line style="stroke:#181818;stroke-width:0.45;" x1="693" x2="917.1" y1="275.509" y2="275.509"/><text fill="#000000" font-family="sans-serif" font-size="12.6" lengthAdjust="spacing" textLength="126.9" x="697.5" y="292.7057">+toDTO(agendaEntry)</text><text fill="#000000" font-family="sans-serif" font-size="12.6" lengthAdjust="spacing" textLength="215.1" x="697.5" y="309.4646">+toEntity(agendaEntryDTO, newDate)</text><text fill="#000000" font-family="sans-serif" font-size="12.6" lengthAdjust="spacing" textLength="158.4" x="697.5" y="326.2236">+toEntity(agendaEntryDTO)</text></g><!--class AgendaController--><g id="elem_AgendaController"><rect codeLine="61" fill="#F1F1F1" height="110.2359" id="AgendaController" rx="2.25" ry="2.25" style="stroke:#181818;stroke-width:0.45;" width="324" x="336.15" y="231.409"/><ellipse cx="444.375" cy="245.809" fill="#ADD1B2" rx="9.9" ry="9.9" style="stroke:#181818;stroke-width:0.9;"/><path d="M446.8641,242.0965 Q447.0047,241.8996 447.1734,241.8012 Q447.3422,241.7027 447.5391,241.7027 Q447.8766,241.7027 448.0875,241.9418 Q448.2984,242.1668 448.2984,242.7152 L448.2984,244.023 Q448.2984,244.5715 448.0875,244.8105 Q447.8766,245.0496 447.5391,245.0496 Q447.2297,245.0496 447.0469,244.8668 Q446.8641,244.698 446.7656,244.234 Q446.7234,243.9105 446.5547,243.7418 Q446.2594,243.4043 445.7109,243.2074 Q445.1625,243.0105 444.6,243.0105 Q443.9109,243.0105 443.3344,243.3059 Q442.7719,243.6012 442.3219,244.2762 Q441.8859,244.9512 441.8859,245.8793 L441.8859,246.8637 Q441.8859,247.9746 442.6875,248.7199 Q443.4891,249.4512 444.9234,249.4512 Q445.7672,249.4512 446.3578,249.2262 Q446.7094,249.0855 447.0891,248.6918 Q447.3281,248.4527 447.4547,248.3824 Q447.5953,248.3121 447.7781,248.3121 Q448.0734,248.3121 448.2984,248.5512 Q448.5375,248.7762 448.5375,249.0855 Q448.5375,249.3949 448.2281,249.7605 Q447.7781,250.2809 447.0609,250.5762 Q446.0906,250.984 444.9234,250.984 Q443.5594,250.984 442.4766,250.4215 Q441.5906,249.9715 440.9719,249.0152 Q440.3531,248.0449 440.3531,246.8918 L440.3531,245.8512 Q440.3531,244.6559 440.9016,243.6293 Q441.4641,242.5887 442.4484,242.0402 Q443.4328,241.4777 444.5438,241.4777 Q445.2047,241.4777 445.7813,241.6324 Q446.3719,241.773 446.8641,242.0965 Z " fill="#000000"/><text fill="#000000" font-family="sans-serif" font-size="12.6" lengthAdjust="spacing" textLength="99.9" x="462.825" y="251.0262">AgendaController</text><line style="stroke:#181818;stroke-width:0.45;" x1="337.05" x2="659.25" y1="260.209" y2="260.209"/><text fill="#000000" font-family="sans-serif" font-size="12.6" lengthAdjust="spacing" textLength="277.2" x="341.55" y="277.4057">-AgendaEntryRepository agendaEntryRepository</text><text fill="#000000" font-family="sans-serif" font-size="12.6" lengthAdjust="spacing" textLength="241.2" x="341.55" y="294.1646">-AgendaEntryMapper agendaEntryMapper</text><line style="stroke:#181818;stroke-width:0.45;" x1="337.05" x2="659.25" y1="300.927" y2="300.927"/><text fill="#000000" font-family="sans-serif" font-size="12.6" lengthAdjust="spacing" textLength="117.9" x="341.55" y="318.1236">+getAgendaEntries()</text><text fill="#000000" font-family="sans-serif" font-size="12.6" lengthAdjust="spacing" textLength="313.2" x="341.55" y="334.8826">+updateAgendaEntryDate(agendaEntryDTO, newDate)</text></g><!--class AgendaUI--><g id="elem_AgendaUI"><rect codeLine="68" fill="#F1F1F1" height="126.9949" id="AgendaUI" rx="2.25" ry="2.25" style="stroke:#181818;stroke-width:0.45;" width="284.4" x="20.25" y="222.859"/><ellipse cx="131.175" cy="237.259" fill="#ADD1B2" rx="9.9" ry="9.9" style="stroke:#181818;stroke-width:0.9;"/><path d="M133.6641,233.5465 Q133.8047,233.3496 133.9734,233.2512 Q134.1422,233.1527 134.3391,233.1527 Q134.6766,233.1527 134.8875,233.3918 Q135.0984,233.6168 135.0984,234.1652 L135.0984,235.473 Q135.0984,236.0215 134.8875,236.2605 Q134.6766,236.4996 134.3391,236.4996 Q134.0297,236.4996 133.8469,236.3168 Q133.6641,236.148 133.5656,235.684 Q133.5234,235.3605 133.3547,235.1918 Q133.0594,234.8543 132.5109,234.6574 Q131.9625,234.4605 131.4,234.4605 Q130.7109,234.4605 130.1344,234.7559 Q129.5719,235.0512 129.1219,235.7262 Q128.6859,236.4012 128.6859,237.3293 L128.6859,238.3137 Q128.6859,239.4246 129.4875,240.1699 Q130.2891,240.9012 131.7234,240.9012 Q132.5672,240.9012 133.1578,240.6762 Q133.5094,240.5355 133.8891,240.1418 Q134.1281,239.9027 134.2547,239.8324 Q134.3953,239.7621 134.5781,239.7621 Q134.8734,239.7621 135.0984,240.0012 Q135.3375,240.2262 135.3375,240.5355 Q135.3375,240.8449 135.0281,241.2105 Q134.5781,241.7309 133.8609,242.0262 Q132.8906,242.434 131.7234,242.434 Q130.3594,242.434 129.2766,241.8715 Q128.3906,241.4215 127.7719,240.4652 Q127.1531,239.4949 127.1531,238.3418 L127.1531,237.3012 Q127.1531,236.1059 127.7016,235.0793 Q128.2641,234.0387 129.2484,233.4902 Q130.2328,232.9277 131.3438,232.9277 Q132.0047,232.9277 132.5813,233.0824 Q133.1719,233.223 133.6641,233.5465 Z " fill="#000000"/><text fill="#000000" font-family="sans-serif" font-size="12.6" lengthAdjust="spacing" textLength="54.9" x="149.625" y="242.4762">AgendaUI</text><line style="stroke:#181818;stroke-width:0.45;" x1="21.15" x2="303.75" y1="251.659" y2="251.659"/><text fill="#000000" font-family="sans-serif" font-size="12.6" lengthAdjust="spacing" textLength="207" x="25.65" y="268.8557">-AgendaController agendaController</text><line style="stroke:#181818;stroke-width:0.45;" x1="21.15" x2="303.75" y1="275.618" y2="275.618"/><text fill="#000000" font-family="sans-serif" font-size="12.6" lengthAdjust="spacing" textLength="273.6" x="25.65" y="292.8146">+displayAgendaEntries(List&lt;agendaEntryDTO&gt;)</text><text fill="#000000" font-family="sans-serif" font-size="12.6" lengthAdjust="spacing" textLength="79.2" x="25.65" y="309.5736">+selectEntry()</text><text fill="#000000" font-family="sans-serif" font-size="12.6" lengthAdjust="spacing" textLength="99.9" x="25.65" y="326.3326">+selectNewDate()</text><text fill="#000000" font-family="sans-serif" font-size="12.6" lengthAdjust="spacing" textLength="153" x="25.65" y="343.0916">+displayMessage(success)</text></g><!--class GSM--><g id="elem_GSM"><rect fill="#F1F1F1" height="43.2" id="GSM" rx="2.25" ry="2.25" style="stroke:#181818;stroke-width:0.45;" width="56.7" x="134.1" y="75.259"/><ellipse cx="147.6" cy="89.659" fill="#ADD1B2" rx="9.9" ry="9.9" style="stroke:#181818;stroke-width:0.9;"/><path d="M150.0891,85.9465 Q150.2297,85.7496 150.3984,85.6512 Q150.5672,85.5527 150.7641,85.5527 Q151.1016,85.5527 151.3125,85.7918 Q151.5234,86.0168 151.5234,86.5652 L151.5234,87.873 Q151.5234,88.4215 151.3125,88.6605 Q151.1016,88.8996 150.7641,88.8996 Q150.4547,88.8996 150.2719,88.7168 Q150.0891,88.548 149.9906,88.084 Q149.9484,87.7605 149.7797,87.5918 Q149.4844,87.2543 148.9359,87.0574 Q148.3875,86.8605 147.825,86.8605 Q147.1359,86.8605 146.5594,87.1559 Q145.9969,87.4512 145.5469,88.1262 Q145.1109,88.8012 145.1109,89.7293 L145.1109,90.7137 Q145.1109,91.8246 145.9125,92.5699 Q146.7141,93.3012 148.1484,93.3012 Q148.9922,93.3012 149.5828,93.0762 Q149.9344,92.9355 150.3141,92.5418 Q150.5531,92.3027 150.6797,92.2324 Q150.8203,92.1621 151.0031,92.1621 Q151.2984,92.1621 151.5234,92.4012 Q151.7625,92.6262 151.7625,92.9355 Q151.7625,93.2449 151.4531,93.6105 Q151.0031,94.1309 150.2859,94.4262 Q149.3156,94.834 148.1484,94.834 Q146.7844,94.834 145.7016,94.2715 Q144.8156,93.8215 144.1969,92.8652 Q143.5781,91.8949 143.5781,90.7418 L143.5781,89.7012 Q143.5781,88.5059 144.1266,87.4793 Q144.6891,86.4387 145.6734,85.8902 Q146.6578,85.3277 147.7688,85.3277 Q148.4297,85.3277 149.0063,85.4824 Q149.5969,85.623 150.0891,85.9465 Z " fill="#000000"/><text fill="#000000" font-family="sans-serif" font-size="12.6" lengthAdjust="spacing" textLength="27.9" x="160.2" y="94.8762">GSM</text><line style="stroke:#181818;stroke-width:0.45;" x1="135" x2="189.9" y1="104.059" y2="104.059"/><line style="stroke:#181818;stroke-width:0.45;" x1="135" x2="189.9" y1="111.259" y2="111.259"/></g><!--link AgendaUI to AgendaController--><g id="link_AgendaUI_AgendaController"><path codeLine="76" d="M304.929,286.309 C314.505,286.309 319.941,286.309 330.507,286.309 " fill="none" id="AgendaUI-to-AgendaController" style="stroke:#181818;stroke-width:0.9;stroke-dasharray:7.0,7.0;"/><polygon fill="#181818" points="335.907,286.309,327.807,282.709,331.407,286.309,327.807,289.909,335.907,286.309" style="stroke:#181818;stroke-width:0.9;"/></g><!--link AgendaController to Repositories--><g id="link_AgendaController_Repositories"><path codeLine="77" d="M498.15,341.344 C498.15,365.95 498.15,389.827 498.15,415.378 " fill="none" id="AgendaController-to-Repositories" style="stroke:#181818;stroke-width:0.9;stroke-dasharray:7.0,7.0;"/><polygon fill="#181818" points="498.15,420.778,501.75,412.678,498.15,416.278,494.55,412.678,498.15,420.778" style="stroke:#181818;stroke-width:0.9;"/><text fill="#000000" font-family="sans-serif" font-size="11.7" lengthAdjust="spacing" textLength="60.3" x="499.05" y="390.2845">repositories</text></g><!--link Repositories to AgendaEntryRepository--><g id="link_Repositories_AgendaEntryRepository"><path codeLine="78" d="M576.531,548.011 C605.556,571.267 633.6967,593.8107 660.5347,615.3117 " fill="none" id="Repositories-to-AgendaEntryRepository" style="stroke:#181818;stroke-width:0.9;"/><polygon fill="#181818" points="664.749,618.688,660.6783,610.814,661.237,615.8744,656.1766,616.4331,664.749,618.688" style="stroke:#181818;stroke-width:0.9;"/><text fill="#000000" font-family="sans-serif" font-size="11.7" lengthAdjust="spacing" textLength="6.3" x="650.299" y="608.6996">1</text></g><!--link Repositories to Repositories--><g id="link_Repositories_Repositories"><path codeLine="79" d="M588.231,466.453 C606.537,468.397 619.65,474.355 619.65,484.309 C619.65,494.263 611.9068,499.6507 593.6008,501.5947 " fill="none" id="Repositories-to-Repositories" style="stroke:#181818;stroke-width:0.9;"/><polygon fill="#181818" points="588.231,502.165,596.6659,504.8895,592.7058,501.6898,595.9055,497.7297,588.231,502.165" style="stroke:#181818;stroke-width:0.9;"/><text fill="#000000" font-family="sans-serif" font-size="11.7" lengthAdjust="spacing" textLength="44.1" x="625.05" y="489.2845">instance</text></g><!--link AgendaController to AgendaEntryMapper--><g id="link_AgendaController_AgendaEntryMapper"><path codeLine="80" d="M660.258,286.309 C672.498,286.309 678.663,286.309 686.619,286.309 " fill="none" id="AgendaController-to-AgendaEntryMapper" style="stroke:#181818;stroke-width:0.9;stroke-dasharray:7.0,7.0;"/><polygon fill="#181818" points="692.019,286.309,683.919,282.709,687.519,286.309,683.919,289.909,692.019,286.309" style="stroke:#181818;stroke-width:0.9;"/></g><!--link AgendaController to AgendaEntryRepository--><g id="link_AgendaController_AgendaEntryRepository"><path codeLine="81" d="M569.646,341.38 C618.543,378.424 674.55,420.859 674.55,420.859 C674.55,420.859 698.3533,542.5854 712.1863,613.2984 " fill="none" id="AgendaController-to-AgendaEntryRepository" style="stroke:#181818;stroke-width:0.9;"/><polygon fill="#181818" points="713.223,618.598,715.201,609.9575,712.3591,614.1817,708.1349,611.3398,713.223,618.598" style="stroke:#181818;stroke-width:0.9;"/><text fill="#000000" font-family="sans-serif" font-size="11.7" lengthAdjust="spacing" textLength="25.2" x="700.65" y="489.2845">uses</text></g><!--reverse link SystemUser to GSM--><g id="link_SystemUser_GSM"><path codeLine="83" d="M118.836,96.859 C129.285,96.859 126.45,96.859 126.45,96.859 C126.45,96.859 129.627,96.859 134.082,96.859 " fill="none" id="SystemUser-backto-GSM" style="stroke:#181818;stroke-width:0.9;"/><polygon fill="none" points="102.636,96.859,118.836,102.259,118.836,91.459,102.636,96.859" style="stroke:#181818;stroke-width:0.9;"/></g><!--reverse link ToDoEntry to AgendaEntry--><g id="link_ToDoEntry_AgendaEntry"><path codeLine="84" d="M981.9013,365.3755 C973.5763,393.7435 968.463,411.148 960.804,437.23 " fill="none" id="ToDoEntry-backto-AgendaEntry" style="stroke:#181818;stroke-width:0.9;"/><polygon fill="none" points="986.463,349.831,976.7198,363.8549,987.0827,366.896,986.463,349.831" style="stroke:#181818;stroke-width:0.9;"/></g><!--link GSM to AgendaUI--><g id="link_GSM_AgendaUI"><path codeLine="86" d="M162.45,118.558 C162.45,143.56 162.45,186.661 162.45,222.796 " fill="none" id="GSM-AgendaUI" style="stroke:#181818;stroke-width:0.9;"/><text fill="#000000" font-family="sans-serif" font-size="11.7" lengthAdjust="spacing" textLength="6.3" x="155.3822" y="138.3692">1</text><text fill="#000000" font-family="sans-serif" font-size="11.7" lengthAdjust="spacing" textLength="6.3" x="155.8252" y="212.7914">1</text></g><!--reverse link AgendaEntry to AgendaEntryRepository--><g id="link_AgendaEntry_AgendaEntryRepository"><path codeLine="87" d="M885.3751,534.5851 C851.7871,561.3871 813.771,591.724 780.138,618.562 " fill="none" id="AgendaEntry-backto-AgendaEntryRepository" style="stroke:#181818;stroke-width:0.9;"/><polygon fill="#181818" points="889.596,531.217,881.0193,533.4552,886.0786,534.0237,885.5101,539.0831,889.596,531.217" style="stroke:#181818;stroke-width:0.9;"/><text fill="#000000" font-family="sans-serif" font-size="11.7" lengthAdjust="spacing" textLength="47.7" x="835.65" y="588.2845">manages</text><text fill="#000000" font-family="sans-serif" font-size="11.7" lengthAdjust="spacing" textLength="4.5" x="877.4208" y="550.8574">*</text><text fill="#000000" font-family="sans-serif" font-size="11.7" lengthAdjust="spacing" textLength="6.3" x="781.1934" y="608.5567">1</text></g><!--reverse link AgendaEntryDTO to AgendaEntryMapper--><g id="link_AgendaEntryDTO_AgendaEntryMapper"><path codeLine="88" d="M805.05,157.186 C805.05,184.897 805.05,212.905 805.05,239.383 " fill="none" id="AgendaEntryDTO-backto-AgendaEntryMapper" style="stroke:#181818;stroke-width:0.9;"/><polygon fill="#181818" points="805.05,151.786,801.45,159.886,805.05,156.286,808.65,159.886,805.05,151.786" style="stroke:#181818;stroke-width:0.9;"/><text fill="#000000" font-family="sans-serif" font-size="11.7" lengthAdjust="spacing" textLength="38.7" x="805.95" y="192.2845">creates</text><text fill="#000000" font-family="sans-serif" font-size="11.7" lengthAdjust="spacing" textLength="4.5" x="800.2758" y="172.0274">*</text><text fill="#000000" font-family="sans-serif" font-size="11.7" lengthAdjust="spacing" textLength="6.3" x="798.3267" y="229.4007">1</text></g><!--SRC=[ZLJBhjCm4DtxAwpU1IcNNi6sgYfLDmXLeY3HbhrnXiIwZXtPZafu_3iJ9tMTHn5TPSwScJdpgEsBK1KphAHSCcjtpXdnhNQmvreTnK-WRyah6pYbLfeNHfT0dQc1t3mLuoyiXwDh9503t36LovXW2vRfYr0v_SwaZJrIA71D1RJIiccDk69mQkDq57HNBN72eOJdrazJmN9a4q8ydvvqgjyhPvfVXE8lDm3gYDB1cnbORaJbX5RUhaqEYZSfj3oFMCTSRVqd_AYmIyZIsZ0VyUTQP8TH6VDbQ5SdOwwBHxVc0gti12Xh27s5Gd09TZPJUlhS9uFMtAUpYYl9b49Drtgztf3ms5W7vTc2wPCfLdPCA9cGNGuaNhJ9EgFGk8yvGL-WqbOu7PfSqPqnhFaehDj4l2rbmH3GpUwHvk1sCPmiUqTTjSFgMiQF9ChqXYgujE3o9YYem1n11vjJINfd716gefozmc4f3Z4sssuWFE2qEHHQPc0Eu0gTFIJBsLaTM5M5aJzIft6RIQHo6Hne2jV4FgH6ZV-JDod-hD6ZfGorLtSsE3-nIKJV1niZ_xVK-9hRrTvjSjJ5UJzI7xN5Ha1VC1CMbzCCrVZB71RTNXLQaFXlzd0on3vrgWBQfpw0jPWhiJNd-Eb51xbFsubICf7-XAp1-QxntRoPPE1RhRPqyMunlxuHTP9MzASzes4xNU-KrHQVlvirhIrA9T6xilczeX-E1nAUsXOPN14XwFVT87vhwhmdySkvUBsWcm5XMhna2dTWoUYTl1FQN- -QSWEuKKl-0W00]--></g></svg>