<?xml version="1.0" encoding="us-ascii" standalone="no"?><svg xmlns="http://www.w3.org/2000/svg" xmlns:xlink="http://www.w3.org/1999/xlink" contentStyleType="text/css" height="799px" preserveAspectRatio="none" style="width:1224px;height:799px;background:#FFFFFF;" version="1.1" viewBox="0 0 1224 799" width="1224px" zoomAndPan="magnify"><defs/><g><text fill="#000000" font-family="sans-serif" font-size="14" font-weight="bold" lengthAdjust="spacing" textLength="99" x="555.75" y="25.1074">Class Diagram</text><!--class ToDoEntry--><g id="elem_ToDoEntry"><rect codeLine="12" fill="#F1F1F1" height="141.1055" id="ToDoEntry" rx="2.5" ry="2.5" style="stroke:#181818;stroke-width:0.5;" width="123" x="1089.5" y="46.6211"/><ellipse cx="1114.85" cy="62.6211" fill="#ADD1B2" rx="11" ry="11" style="stroke:#181818;stroke-width:1.0;"/><path d="M1117.6156,58.4961 Q1117.7719,58.2773 1117.9594,58.168 Q1118.1469,58.0586 1118.3656,58.0586 Q1118.7406,58.0586 1118.975,58.3242 Q1119.2094,58.5742 1119.2094,59.1836 L1119.2094,60.6367 Q1119.2094,61.2461 1118.975,61.5117 Q1118.7406,61.7773 1118.3656,61.7773 Q1118.0219,61.7773 1117.8188,61.5742 Q1117.6156,61.3867 1117.5063,60.8711 Q1117.4594,60.5117 1117.2719,60.3242 Q1116.9438,59.9492 1116.3344,59.7305 Q1115.725,59.5117 1115.1,59.5117 Q1114.3344,59.5117 1113.6938,59.8398 Q1113.0688,60.168 1112.5688,60.918 Q1112.0844,61.668 1112.0844,62.6992 L1112.0844,63.793 Q1112.0844,65.0273 1112.975,65.8555 Q1113.8656,66.668 1115.4594,66.668 Q1116.3969,66.668 1117.0531,66.418 Q1117.4438,66.2617 1117.8656,65.8242 Q1118.1313,65.5586 1118.2719,65.4805 Q1118.4281,65.4023 1118.6313,65.4023 Q1118.9594,65.4023 1119.2094,65.668 Q1119.475,65.918 1119.475,66.2617 Q1119.475,66.6055 1119.1313,67.0117 Q1118.6313,67.5898 1117.8344,67.918 Q1116.7563,68.3711 1115.4594,68.3711 Q1113.9438,68.3711 1112.7406,67.7461 Q1111.7563,67.2461 1111.0688,66.1836 Q1110.3813,65.1055 1110.3813,63.8242 L1110.3813,62.668 Q1110.3813,61.3398 1110.9906,60.1992 Q1111.6156,59.043 1112.7094,58.4336 Q1113.8031,57.8086 1115.0375,57.8086 Q1115.7719,57.8086 1116.4125,57.9805 Q1117.0688,58.1367 1117.6156,58.4961 Z " fill="#000000"/><text fill="#000000" font-family="sans-serif" font-size="14" lengthAdjust="spacing" textLength="68" x="1131.15" y="68.418">ToDoEntry</text><line style="stroke:#181818;stroke-width:0.5;" x1="1090.5" x2="1211.5" y1="78.6211" y2="78.6211"/><text fill="#000000" font-family="sans-serif" font-size="14" lengthAdjust="spacing" textLength="77" x="1095.5" y="97.7285">greenSpace</text><text fill="#000000" font-family="sans-serif" font-size="14" lengthAdjust="spacing" textLength="69" x="1095.5" y="116.3496">description</text><text fill="#000000" font-family="sans-serif" font-size="14" lengthAdjust="spacing" textLength="98" x="1095.5" y="134.9707">urgencyDegree</text><text fill="#000000" font-family="sans-serif" font-size="14" lengthAdjust="spacing" textLength="38" x="1095.5" y="153.5918">status</text><text fill="#000000" font-family="sans-serif" font-size="14" lengthAdjust="spacing" textLength="111" x="1095.5" y="172.2129">expectedDuration</text><line style="stroke:#181818;stroke-width:0.5;" x1="1090.5" x2="1211.5" y1="179.7266" y2="179.7266"/></g><!--class AgendaEntry--><g id="elem_AgendaEntry"><rect codeLine="20" fill="#F1F1F1" height="103.8633" id="AgendaEntry" rx="2.5" ry="2.5" style="stroke:#181818;stroke-width:0.5;" width="133" x="1084.5" y="294.6211"/><ellipse cx="1108.05" cy="310.6211" fill="#ADD1B2" rx="11" ry="11" style="stroke:#181818;stroke-width:1.0;"/><path d="M1110.8156,306.4961 Q1110.9719,306.2773 1111.1594,306.168 Q1111.3469,306.0586 1111.5656,306.0586 Q1111.9406,306.0586 1112.175,306.3242 Q1112.4094,306.5742 1112.4094,307.1836 L1112.4094,308.6367 Q1112.4094,309.2461 1112.175,309.5117 Q1111.9406,309.7773 1111.5656,309.7773 Q1111.2219,309.7773 1111.0188,309.5742 Q1110.8156,309.3867 1110.7063,308.8711 Q1110.6594,308.5117 1110.4719,308.3242 Q1110.1438,307.9492 1109.5344,307.7305 Q1108.925,307.5117 1108.3,307.5117 Q1107.5344,307.5117 1106.8938,307.8398 Q1106.2688,308.168 1105.7688,308.918 Q1105.2844,309.668 1105.2844,310.6992 L1105.2844,311.793 Q1105.2844,313.0273 1106.175,313.8555 Q1107.0656,314.668 1108.6594,314.668 Q1109.5969,314.668 1110.2531,314.418 Q1110.6438,314.2617 1111.0656,313.8242 Q1111.3313,313.5586 1111.4719,313.4805 Q1111.6281,313.4023 1111.8313,313.4023 Q1112.1594,313.4023 1112.4094,313.668 Q1112.675,313.918 1112.675,314.2617 Q1112.675,314.6055 1112.3313,315.0117 Q1111.8313,315.5898 1111.0344,315.918 Q1109.9563,316.3711 1108.6594,316.3711 Q1107.1438,316.3711 1105.9406,315.7461 Q1104.9563,315.2461 1104.2688,314.1836 Q1103.5813,313.1055 1103.5813,311.8242 L1103.5813,310.668 Q1103.5813,309.3398 1104.1906,308.1992 Q1104.8156,307.043 1105.9094,306.4336 Q1107.0031,305.8086 1108.2375,305.8086 Q1108.9719,305.8086 1109.6125,305.9805 Q1110.2688,306.1367 1110.8156,306.4961 Z " fill="#000000"/><text fill="#000000" font-family="sans-serif" font-size="14" lengthAdjust="spacing" textLength="82" x="1123.95" y="316.418">AgendaEntry</text><line style="stroke:#181818;stroke-width:0.5;" x1="1085.5" x2="1216.5" y1="326.6211" y2="326.6211"/><text fill="#000000" font-family="sans-serif" font-size="14" lengthAdjust="spacing" textLength="28" x="1090.5" y="345.7285">date</text><text fill="#000000" font-family="sans-serif" font-size="14" lengthAdjust="spacing" textLength="104" x="1090.5" y="364.3496">associatedTeam</text><text fill="#000000" font-family="sans-serif" font-size="14" lengthAdjust="spacing" textLength="121" x="1090.5" y="382.9707">associatedVehicles</text><line style="stroke:#181818;stroke-width:0.5;" x1="1085.5" x2="1216.5" y1="390.4844" y2="390.4844"/></g><!--class AgendaEntryDTO--><g id="elem_AgendaEntryDTO"><rect codeLine="26" fill="#F1F1F1" height="122.4844" id="AgendaEntryDTO" rx="2.5" ry="2.5" style="stroke:#181818;stroke-width:0.5;" width="144" x="826" y="56.1211"/><ellipse cx="841" cy="72.1211" fill="#ADD1B2" rx="11" ry="11" style="stroke:#181818;stroke-width:1.0;"/><path d="M843.7656,67.9961 Q843.9219,67.7773 844.1094,67.668 Q844.2969,67.5586 844.5156,67.5586 Q844.8906,67.5586 845.125,67.8242 Q845.3594,68.0742 845.3594,68.6836 L845.3594,70.1367 Q845.3594,70.7461 845.125,71.0117 Q844.8906,71.2773 844.5156,71.2773 Q844.1719,71.2773 843.9688,71.0742 Q843.7656,70.8867 843.6563,70.3711 Q843.6094,70.0117 843.4219,69.8242 Q843.0938,69.4492 842.4844,69.2305 Q841.875,69.0117 841.25,69.0117 Q840.4844,69.0117 839.8438,69.3398 Q839.2188,69.668 838.7188,70.418 Q838.2344,71.168 838.2344,72.1992 L838.2344,73.293 Q838.2344,74.5273 839.125,75.3555 Q840.0156,76.168 841.6094,76.168 Q842.5469,76.168 843.2031,75.918 Q843.5938,75.7617 844.0156,75.3242 Q844.2813,75.0586 844.4219,74.9805 Q844.5781,74.9023 844.7813,74.9023 Q845.1094,74.9023 845.3594,75.168 Q845.625,75.418 845.625,75.7617 Q845.625,76.1055 845.2813,76.5117 Q844.7813,77.0898 843.9844,77.418 Q842.9063,77.8711 841.6094,77.8711 Q840.0938,77.8711 838.8906,77.2461 Q837.9063,76.7461 837.2188,75.6836 Q836.5313,74.6055 836.5313,73.3242 L836.5313,72.168 Q836.5313,70.8398 837.1406,69.6992 Q837.7656,68.543 838.8594,67.9336 Q839.9531,67.3086 841.1875,67.3086 Q841.9219,67.3086 842.5625,67.4805 Q843.2188,67.6367 843.7656,67.9961 Z " fill="#000000"/><text fill="#000000" font-family="sans-serif" font-size="14" lengthAdjust="spacing" textLength="112" x="855" y="77.918">AgendaEntryDTO</text><line style="stroke:#181818;stroke-width:0.5;" x1="827" x2="969" y1="88.1211" y2="88.1211"/><text fill="#000000" font-family="sans-serif" font-size="14" lengthAdjust="spacing" textLength="45" x="832" y="107.2285">entryID</text><text fill="#000000" font-family="sans-serif" font-size="14" lengthAdjust="spacing" textLength="69" x="832" y="125.8496">description</text><text fill="#000000" font-family="sans-serif" font-size="14" lengthAdjust="spacing" textLength="81" x="832" y="144.4707">plannedDate</text><text fill="#000000" font-family="sans-serif" font-size="14" lengthAdjust="spacing" textLength="38" x="832" y="163.0918">status</text><line style="stroke:#181818;stroke-width:0.5;" x1="827" x2="969" y1="170.6055" y2="170.6055"/></g><!--class SystemUser--><g id="elem_SystemUser"><rect codeLine="33" fill="#F1F1F1" height="122.4844" id="SystemUser" rx="2.5" ry="2.5" style="stroke:#181818;stroke-width:0.5;" width="107" x="12.5" y="56.1211"/><ellipse cx="27.5" cy="72.1211" fill="#ADD1B2" rx="11" ry="11" style="stroke:#181818;stroke-width:1.0;"/><path d="M30.2656,67.9961 Q30.4219,67.7773 30.6094,67.668 Q30.7969,67.5586 31.0156,67.5586 Q31.3906,67.5586 31.625,67.8242 Q31.8594,68.0742 31.8594,68.6836 L31.8594,70.1367 Q31.8594,70.7461 31.625,71.0117 Q31.3906,71.2773 31.0156,71.2773 Q30.6719,71.2773 30.4688,71.0742 Q30.2656,70.8867 30.1563,70.3711 Q30.1094,70.0117 29.9219,69.8242 Q29.5938,69.4492 28.9844,69.2305 Q28.375,69.0117 27.75,69.0117 Q26.9844,69.0117 26.3438,69.3398 Q25.7188,69.668 25.2188,70.418 Q24.7344,71.168 24.7344,72.1992 L24.7344,73.293 Q24.7344,74.5273 25.625,75.3555 Q26.5156,76.168 28.1094,76.168 Q29.0469,76.168 29.7031,75.918 Q30.0938,75.7617 30.5156,75.3242 Q30.7813,75.0586 30.9219,74.9805 Q31.0781,74.9023 31.2813,74.9023 Q31.6094,74.9023 31.8594,75.168 Q32.125,75.418 32.125,75.7617 Q32.125,76.1055 31.7813,76.5117 Q31.2813,77.0898 30.4844,77.418 Q29.4063,77.8711 28.1094,77.8711 Q26.5938,77.8711 25.3906,77.2461 Q24.4063,76.7461 23.7188,75.6836 Q23.0313,74.6055 23.0313,73.3242 L23.0313,72.168 Q23.0313,70.8398 23.6406,69.6992 Q24.2656,68.543 25.3594,67.9336 Q26.4531,67.3086 27.6875,67.3086 Q28.4219,67.3086 29.0625,67.4805 Q29.7188,67.6367 30.2656,67.9961 Z " fill="#000000"/><text fill="#000000" font-family="sans-serif" font-size="14" lengthAdjust="spacing" textLength="75" x="41.5" y="77.918">SystemUser</text><line style="stroke:#181818;stroke-width:0.5;" x1="13.5" x2="118.5" y1="88.1211" y2="88.1211"/><text fill="#000000" font-family="sans-serif" font-size="14" lengthAdjust="spacing" textLength="35" x="18.5" y="107.2285">name</text><text fill="#000000" font-family="sans-serif" font-size="14" lengthAdjust="spacing" textLength="33" x="18.5" y="125.8496">email</text><text fill="#000000" font-family="sans-serif" font-size="14" lengthAdjust="spacing" textLength="60" x="18.5" y="144.4707">password</text><text fill="#000000" font-family="sans-serif" font-size="14" lengthAdjust="spacing" textLength="40" x="18.5" y="163.0918">phone</text><line style="stroke:#181818;stroke-width:0.5;" x1="13.5" x2="118.5" y1="170.6055" y2="170.6055"/></g><!--class AgendaEntryRepository--><g id="elem_AgendaEntryRepository"><rect codeLine="40" fill="#F1F1F1" height="103.8633" id="AgendaEntryRepository" rx="2.5" ry="2.5" style="stroke:#181818;stroke-width:0.5;" width="282" x="602" y="688.6211"/><ellipse cx="663.75" cy="704.6211" fill="#ADD1B2" rx="11" ry="11" style="stroke:#181818;stroke-width:1.0;"/><path d="M666.5156,700.4961 Q666.6719,700.2773 666.8594,700.168 Q667.0469,700.0586 667.2656,700.0586 Q667.6406,700.0586 667.875,700.3242 Q668.1094,700.5742 668.1094,701.1836 L668.1094,702.6367 Q668.1094,703.2461 667.875,703.5117 Q667.6406,703.7773 667.2656,703.7773 Q666.9219,703.7773 666.7188,703.5742 Q666.5156,703.3867 666.4063,702.8711 Q666.3594,702.5117 666.1719,702.3242 Q665.8438,701.9492 665.2344,701.7305 Q664.625,701.5117 664,701.5117 Q663.2344,701.5117 662.5938,701.8398 Q661.9688,702.168 661.4688,702.918 Q660.9844,703.668 660.9844,704.6992 L660.9844,705.793 Q660.9844,707.0273 661.875,707.8555 Q662.7656,708.668 664.3594,708.668 Q665.2969,708.668 665.9531,708.418 Q666.3438,708.2617 666.7656,707.8242 Q667.0313,707.5586 667.1719,707.4805 Q667.3281,707.4023 667.5313,707.4023 Q667.8594,707.4023 668.1094,707.668 Q668.375,707.918 668.375,708.2617 Q668.375,708.6055 668.0313,709.0117 Q667.5313,709.5898 666.7344,709.918 Q665.6563,710.3711 664.3594,710.3711 Q662.8438,710.3711 661.6406,709.7461 Q660.6563,709.2461 659.9688,708.1836 Q659.2813,707.1055 659.2813,705.8242 L659.2813,704.668 Q659.2813,703.3398 659.8906,702.1992 Q660.5156,701.043 661.6094,700.4336 Q662.7031,699.8086 663.9375,699.8086 Q664.6719,699.8086 665.3125,699.9805 Q665.9688,700.1367 666.5156,700.4961 Z " fill="#000000"/><text fill="#000000" font-family="sans-serif" font-size="14" lengthAdjust="spacing" textLength="150" x="684.25" y="710.418">AgendaEntryRepository</text><line style="stroke:#181818;stroke-width:0.5;" x1="603" x2="883" y1="720.6211" y2="720.6211"/><text fill="#000000" font-family="sans-serif" font-size="14" lengthAdjust="spacing" textLength="255" x="608" y="739.7285">-ArrayList&lt;AgendaEntry&gt; agendaEntries</text><line style="stroke:#181818;stroke-width:0.5;" x1="603" x2="883" y1="747.2422" y2="747.2422"/><text fill="#000000" font-family="sans-serif" font-size="14" lengthAdjust="spacing" textLength="131" x="608" y="766.3496">+getAgendaEntries()</text><text fill="#000000" font-family="sans-serif" font-size="14" lengthAdjust="spacing" textLength="270" x="608" y="784.9707">+updateEntryDate(AgendaEntry, newDate)</text></g><!--class Repositories--><g id="elem_Repositories"><rect codeLine="46" fill="#F1F1F1" height="122.4844" id="Repositories" rx="2.5" ry="2.5" style="stroke:#181818;stroke-width:0.5;" width="200" x="643" y="505.6211"/><ellipse cx="699.25" cy="521.6211" fill="#ADD1B2" rx="11" ry="11" style="stroke:#181818;stroke-width:1.0;"/><path d="M702.0156,517.4961 Q702.1719,517.2773 702.3594,517.168 Q702.5469,517.0586 702.7656,517.0586 Q703.1406,517.0586 703.375,517.3242 Q703.6094,517.5742 703.6094,518.1836 L703.6094,519.6367 Q703.6094,520.2461 703.375,520.5117 Q703.1406,520.7773 702.7656,520.7773 Q702.4219,520.7773 702.2188,520.5742 Q702.0156,520.3867 701.9063,519.8711 Q701.8594,519.5117 701.6719,519.3242 Q701.3438,518.9492 700.7344,518.7305 Q700.125,518.5117 699.5,518.5117 Q698.7344,518.5117 698.0938,518.8398 Q697.4688,519.168 696.9688,519.918 Q696.4844,520.668 696.4844,521.6992 L696.4844,522.793 Q696.4844,524.0273 697.375,524.8555 Q698.2656,525.668 699.8594,525.668 Q700.7969,525.668 701.4531,525.418 Q701.8438,525.2617 702.2656,524.8242 Q702.5313,524.5586 702.6719,524.4805 Q702.8281,524.4023 703.0313,524.4023 Q703.3594,524.4023 703.6094,524.668 Q703.875,524.918 703.875,525.2617 Q703.875,525.6055 703.5313,526.0117 Q703.0313,526.5898 702.2344,526.918 Q701.1563,527.3711 699.8594,527.3711 Q698.3438,527.3711 697.1406,526.7461 Q696.1563,526.2461 695.4688,525.1836 Q694.7813,524.1055 694.7813,522.8242 L694.7813,521.668 Q694.7813,520.3398 695.3906,519.1992 Q696.0156,518.043 697.1094,517.4336 Q698.2031,516.8086 699.4375,516.8086 Q700.1719,516.8086 700.8125,516.9805 Q701.4688,517.1367 702.0156,517.4961 Z " fill="#000000"/><text fill="#000000" font-family="sans-serif" font-size="14" lengthAdjust="spacing" textLength="79" x="719.75" y="527.418">Repositories</text><line style="stroke:#181818;stroke-width:0.5;" x1="644" x2="842" y1="537.6211" y2="537.6211"/><text fill="#000000" font-family="sans-serif" font-size="14" lengthAdjust="spacing" textLength="154" x="649" y="556.7285">-agendaEntryRepository</text><line style="stroke:#181818;stroke-width:0.5;" x1="644" x2="842" y1="564.2422" y2="564.2422"/><text fill="#000000" font-family="sans-serif" font-size="14" lengthAdjust="spacing" textLength="94" x="649" y="583.3496">-Repositories()</text><text fill="#000000" font-family="sans-serif" font-size="14" lengthAdjust="spacing" textLength="91" x="649" y="601.9707">+getInstance()</text><text fill="#000000" font-family="sans-serif" font-size="14" lengthAdjust="spacing" textLength="188" x="649" y="620.5918">+getAgendaEntryRepository()</text></g><!--class AgendaEntryMapper--><g id="elem_AgendaEntryMapper"><rect codeLine="53" fill="#F1F1F1" height="103.8633" id="AgendaEntryMapper" rx="2.5" ry="2.5" style="stroke:#181818;stroke-width:0.5;" width="214" x="791" y="294.6211"/><ellipse cx="829.4" cy="310.6211" fill="#ADD1B2" rx="11" ry="11" style="stroke:#181818;stroke-width:1.0;"/><path d="M832.1656,306.4961 Q832.3219,306.2773 832.5094,306.168 Q832.6969,306.0586 832.9156,306.0586 Q833.2906,306.0586 833.525,306.3242 Q833.7594,306.5742 833.7594,307.1836 L833.7594,308.6367 Q833.7594,309.2461 833.525,309.5117 Q833.2906,309.7773 832.9156,309.7773 Q832.5719,309.7773 832.3688,309.5742 Q832.1656,309.3867 832.0563,308.8711 Q832.0094,308.5117 831.8219,308.3242 Q831.4938,307.9492 830.8844,307.7305 Q830.275,307.5117 829.65,307.5117 Q828.8844,307.5117 828.2438,307.8398 Q827.6188,308.168 827.1188,308.918 Q826.6344,309.668 826.6344,310.6992 L826.6344,311.793 Q826.6344,313.0273 827.525,313.8555 Q828.4156,314.668 830.0094,314.668 Q830.9469,314.668 831.6031,314.418 Q831.9938,314.2617 832.4156,313.8242 Q832.6813,313.5586 832.8219,313.4805 Q832.9781,313.4023 833.1813,313.4023 Q833.5094,313.4023 833.7594,313.668 Q834.025,313.918 834.025,314.2617 Q834.025,314.6055 833.6813,315.0117 Q833.1813,315.5898 832.3844,315.918 Q831.3063,316.3711 830.0094,316.3711 Q828.4938,316.3711 827.2906,315.7461 Q826.3063,315.2461 825.6188,314.1836 Q824.9313,313.1055 824.9313,311.8242 L824.9313,310.668 Q824.9313,309.3398 825.5406,308.1992 Q826.1656,307.043 827.2594,306.4336 Q828.3531,305.8086 829.5875,305.8086 Q830.3219,305.8086 830.9625,305.9805 Q831.6188,306.1367 832.1656,306.4961 Z " fill="#000000"/><text fill="#000000" font-family="sans-serif" font-size="14" lengthAdjust="spacing" textLength="130" x="848.6" y="316.418">AgendaEntryMapper</text><line style="stroke:#181818;stroke-width:0.5;" x1="792" x2="1004" y1="326.6211" y2="326.6211"/><line style="stroke:#181818;stroke-width:0.5;" x1="792" x2="1004" y1="334.6211" y2="334.6211"/><text fill="#000000" font-family="sans-serif" font-size="14" lengthAdjust="spacing" textLength="141" x="797" y="353.7285">+toDTO(agendaEntry)</text><text fill="#000000" font-family="sans-serif" font-size="14" lengthAdjust="spacing" textLength="176" x="797" y="372.3496">+toEntity(agendaEntryDTO)</text><text fill="#000000" font-family="sans-serif" font-size="14" lengthAdjust="spacing" textLength="202" x="797" y="390.9707">+toDTOList(List&lt;AgendaEntry&gt;)</text></g><!--class PostponeAgendaEntryGUIController--><g id="elem_PostponeAgendaEntryGUIController"><rect codeLine="59" fill="#F1F1F1" height="159.7266" id="PostponeAgendaEntryGUIController" rx="2.5" ry="2.5" style="stroke:#181818;stroke-width:0.5;" width="355" x="400.5" y="266.6211"/><ellipse cx="460.25" cy="282.6211" fill="#ADD1B2" rx="11" ry="11" style="stroke:#181818;stroke-width:1.0;"/><path d="M463.0156,278.4961 Q463.1719,278.2773 463.3594,278.168 Q463.5469,278.0586 463.7656,278.0586 Q464.1406,278.0586 464.375,278.3242 Q464.6094,278.5742 464.6094,279.1836 L464.6094,280.6367 Q464.6094,281.2461 464.375,281.5117 Q464.1406,281.7773 463.7656,281.7773 Q463.4219,281.7773 463.2188,281.5742 Q463.0156,281.3867 462.9063,280.8711 Q462.8594,280.5117 462.6719,280.3242 Q462.3438,279.9492 461.7344,279.7305 Q461.125,279.5117 460.5,279.5117 Q459.7344,279.5117 459.0938,279.8398 Q458.4688,280.168 457.9688,280.918 Q457.4844,281.668 457.4844,282.6992 L457.4844,283.793 Q457.4844,285.0273 458.375,285.8555 Q459.2656,286.668 460.8594,286.668 Q461.7969,286.668 462.4531,286.418 Q462.8438,286.2617 463.2656,285.8242 Q463.5313,285.5586 463.6719,285.4805 Q463.8281,285.4023 464.0313,285.4023 Q464.3594,285.4023 464.6094,285.668 Q464.875,285.918 464.875,286.2617 Q464.875,286.6055 464.5313,287.0117 Q464.0313,287.5898 463.2344,287.918 Q462.1563,288.3711 460.8594,288.3711 Q459.3438,288.3711 458.1406,287.7461 Q457.1563,287.2461 456.4688,286.1836 Q455.7813,285.1055 455.7813,283.8242 L455.7813,282.668 Q455.7813,281.3398 456.3906,280.1992 Q457.0156,279.043 458.1094,278.4336 Q459.2031,277.8086 460.4375,277.8086 Q461.1719,277.8086 461.8125,277.9805 Q462.4688,278.1367 463.0156,278.4961 Z " fill="#000000"/><text fill="#000000" font-family="sans-serif" font-size="14" lengthAdjust="spacing" textLength="227" x="480.75" y="288.418">PostponeAgendaEntryGUIController</text><line style="stroke:#181818;stroke-width:0.5;" x1="401.5" x2="754.5" y1="298.6211" y2="298.6211"/><text fill="#000000" font-family="sans-serif" font-size="14" lengthAdjust="spacing" textLength="308" x="406.5" y="317.7285">-AgendaEntryRepository agendaEntryRepository</text><text fill="#000000" font-family="sans-serif" font-size="14" lengthAdjust="spacing" textLength="268" x="406.5" y="336.3496">-AgendaEntryMapper agendaEntryMapper</text><line style="stroke:#181818;stroke-width:0.5;" x1="401.5" x2="754.5" y1="343.8633" y2="343.8633"/><text fill="#000000" font-family="sans-serif" font-size="14" lengthAdjust="spacing" textLength="199" x="406.5" y="362.9707">+getAvailableAgendaEntryList()</text><text fill="#000000" font-family="sans-serif" font-size="14" lengthAdjust="spacing" textLength="179" x="406.5" y="381.5918">+getAgendaEntryDTOsList()</text><text fill="#000000" font-family="sans-serif" font-size="14" lengthAdjust="spacing" textLength="180" x="406.5" y="400.2129">getAgendaEntryRepository()</text><text fill="#000000" font-family="sans-serif" font-size="14" lengthAdjust="spacing" textLength="343" x="406.5" y="418.834">+PostponeAgendaEntry(agendaEntryDTO, LocalDate)</text></g><!--class AgendaGUI--><g id="elem_AgendaGUI"><rect codeLine="68" fill="#F1F1F1" height="141.1055" id="AgendaGUI" rx="2.5" ry="2.5" style="stroke:#181818;stroke-width:0.5;" width="358" x="7" y="276.1211"/><ellipse cx="145.75" cy="292.1211" fill="#ADD1B2" rx="11" ry="11" style="stroke:#181818;stroke-width:1.0;"/><path d="M148.5156,287.9961 Q148.6719,287.7773 148.8594,287.668 Q149.0469,287.5586 149.2656,287.5586 Q149.6406,287.5586 149.875,287.8242 Q150.1094,288.0742 150.1094,288.6836 L150.1094,290.1367 Q150.1094,290.7461 149.875,291.0117 Q149.6406,291.2773 149.2656,291.2773 Q148.9219,291.2773 148.7188,291.0742 Q148.5156,290.8867 148.4063,290.3711 Q148.3594,290.0117 148.1719,289.8242 Q147.8438,289.4492 147.2344,289.2305 Q146.625,289.0117 146,289.0117 Q145.2344,289.0117 144.5938,289.3398 Q143.9688,289.668 143.4688,290.418 Q142.9844,291.168 142.9844,292.1992 L142.9844,293.293 Q142.9844,294.5273 143.875,295.3555 Q144.7656,296.168 146.3594,296.168 Q147.2969,296.168 147.9531,295.918 Q148.3438,295.7617 148.7656,295.3242 Q149.0313,295.0586 149.1719,294.9805 Q149.3281,294.9023 149.5313,294.9023 Q149.8594,294.9023 150.1094,295.168 Q150.375,295.418 150.375,295.7617 Q150.375,296.1055 150.0313,296.5117 Q149.5313,297.0898 148.7344,297.418 Q147.6563,297.8711 146.3594,297.8711 Q144.8438,297.8711 143.6406,297.2461 Q142.6563,296.7461 141.9688,295.6836 Q141.2813,294.6055 141.2813,293.3242 L141.2813,292.168 Q141.2813,290.8398 141.8906,289.6992 Q142.5156,288.543 143.6094,287.9336 Q144.7031,287.3086 145.9375,287.3086 Q146.6719,287.3086 147.3125,287.4805 Q147.9688,287.6367 148.5156,287.9961 Z " fill="#000000"/><text fill="#000000" font-family="sans-serif" font-size="14" lengthAdjust="spacing" textLength="72" x="166.25" y="297.918">AgendaGUI</text><line style="stroke:#181818;stroke-width:0.5;" x1="8" x2="364" y1="308.1211" y2="308.1211"/><text fill="#000000" font-family="sans-serif" font-size="14" lengthAdjust="spacing" textLength="346" x="13" y="327.2285">-PostponeAgendaEntryGUIController agendaController</text><line style="stroke:#181818;stroke-width:0.5;" x1="8" x2="364" y1="334.7422" y2="334.7422"/><text fill="#000000" font-family="sans-serif" font-size="14" lengthAdjust="spacing" textLength="304" x="13" y="353.8496">+displayAgendaEntries(List&lt;agendaEntryDTO&gt;)</text><text fill="#000000" font-family="sans-serif" font-size="14" lengthAdjust="spacing" textLength="88" x="13" y="372.4707">+selectEntry()</text><text fill="#000000" font-family="sans-serif" font-size="14" lengthAdjust="spacing" textLength="111" x="13" y="391.0918">+selectNewDate()</text><text fill="#000000" font-family="sans-serif" font-size="14" lengthAdjust="spacing" textLength="170" x="13" y="409.7129">+displayMessage(success)</text></g><!--class GSM--><g id="elem_GSM"><rect fill="#F1F1F1" height="48" id="GSM" rx="2.5" ry="2.5" style="stroke:#181818;stroke-width:0.5;" width="63" x="154.5" y="93.1211"/><ellipse cx="169.5" cy="109.1211" fill="#ADD1B2" rx="11" ry="11" style="stroke:#181818;stroke-width:1.0;"/><path d="M172.2656,104.9961 Q172.4219,104.7773 172.6094,104.668 Q172.7969,104.5586 173.0156,104.5586 Q173.3906,104.5586 173.625,104.8242 Q173.8594,105.0742 173.8594,105.6836 L173.8594,107.1367 Q173.8594,107.7461 173.625,108.0117 Q173.3906,108.2773 173.0156,108.2773 Q172.6719,108.2773 172.4688,108.0742 Q172.2656,107.8867 172.1563,107.3711 Q172.1094,107.0117 171.9219,106.8242 Q171.5938,106.4492 170.9844,106.2305 Q170.375,106.0117 169.75,106.0117 Q168.9844,106.0117 168.3438,106.3398 Q167.7188,106.668 167.2188,107.418 Q166.7344,108.168 166.7344,109.1992 L166.7344,110.293 Q166.7344,111.5273 167.625,112.3555 Q168.5156,113.168 170.1094,113.168 Q171.0469,113.168 171.7031,112.918 Q172.0938,112.7617 172.5156,112.3242 Q172.7813,112.0586 172.9219,111.9805 Q173.0781,111.9023 173.2813,111.9023 Q173.6094,111.9023 173.8594,112.168 Q174.125,112.418 174.125,112.7617 Q174.125,113.1055 173.7813,113.5117 Q173.2813,114.0898 172.4844,114.418 Q171.4063,114.8711 170.1094,114.8711 Q168.5938,114.8711 167.3906,114.2461 Q166.4063,113.7461 165.7188,112.6836 Q165.0313,111.6055 165.0313,110.3242 L165.0313,109.168 Q165.0313,107.8398 165.6406,106.6992 Q166.2656,105.543 167.3594,104.9336 Q168.4531,104.3086 169.6875,104.3086 Q170.4219,104.3086 171.0625,104.4805 Q171.7188,104.6367 172.2656,104.9961 Z " fill="#000000"/><text fill="#000000" font-family="sans-serif" font-size="14" lengthAdjust="spacing" textLength="31" x="183.5" y="114.918">GSM</text><line style="stroke:#181818;stroke-width:0.5;" x1="155.5" x2="216.5" y1="125.1211" y2="125.1211"/><line style="stroke:#181818;stroke-width:0.5;" x1="155.5" x2="216.5" y1="133.1211" y2="133.1211"/></g><!--link AgendaGUI to PostponeAgendaEntryGUIController--><g id="link_AgendaGUI_PostponeAgendaEntryGUIController"><path codeLine="76" d="M365.32,346.6211 C376.79,346.6211 382.99,346.6211 394.37,346.6211 " fill="none" id="AgendaGUI-to-PostponeAgendaEntryGUIController" style="stroke:#181818;stroke-width:1.0;stroke-dasharray:7.0,7.0;"/><polygon fill="#181818" points="400.37,346.6211,391.37,342.6211,395.37,346.6211,391.37,350.6211,400.37,346.6211" style="stroke:#181818;stroke-width:1.0;"/></g><!--link PostponeAgendaEntryGUIController to Repositories--><g id="link_PostponeAgendaEntryGUIController_Repositories"><path codeLine="77" d="M637.8,426.6311 C657.45,452.5911 675.3293,476.2167 693.7493,500.5567 " fill="none" id="PostponeAgendaEntryGUIController-to-Repositories" style="stroke:#181818;stroke-width:1.0;stroke-dasharray:7.0,7.0;"/><polygon fill="#181818" points="697.37,505.3411,695.1285,495.7507,694.3527,501.3541,688.7493,500.5783,697.37,505.3411" style="stroke:#181818;stroke-width:1.0;"/><text fill="#000000" font-family="sans-serif" font-size="13" lengthAdjust="spacing" textLength="67" x="672" y="471.6494">repositories</text></g><!--link Repositories to AgendaEntryRepository--><g id="link_Repositories_AgendaEntryRepository"><path codeLine="78" d="M743,627.7811 C743,647.5411 743,663.3111 743,682.3511 " fill="none" id="Repositories-to-AgendaEntryRepository" style="stroke:#181818;stroke-width:1.0;"/><polygon fill="#181818" points="743,688.3511,747,679.3511,743,683.3511,739,679.3511,743,688.3511" style="stroke:#181818;stroke-width:1.0;"/><text fill="#000000" font-family="sans-serif" font-size="13" lengthAdjust="spacing" textLength="7" x="735.5297" y="677.2422">1</text></g><!--link Repositories to Repositories--><g id="link_Repositories_Repositories"><path codeLine="79" d="M843.09,550.3911 C863.43,552.1611 878,557.5711 878,566.6211 C878,575.6711 869.4074,580.5609 849.0674,582.3309 " fill="none" id="Repositories-to-Repositories" style="stroke:#181818;stroke-width:1.0;"/><polygon fill="#181818" points="843.09,582.8511,852.4029,586.0558,848.0712,582.4176,851.7093,578.0859,843.09,582.8511" style="stroke:#181818;stroke-width:1.0;"/><text fill="#000000" font-family="sans-serif" font-size="13" lengthAdjust="spacing" textLength="49" x="884" y="572.1494">instance</text></g><!--link PostponeAgendaEntryGUIController to AgendaEntryMapper--><g id="link_PostponeAgendaEntryGUIController_AgendaEntryMapper"><path codeLine="80" d="M755.52,346.6211 C773.37,346.6211 782.28,346.6211 784.92,346.6211 " fill="none" id="PostponeAgendaEntryGUIController-to-AgendaEntryMapper" style="stroke:#181818;stroke-width:1.0;stroke-dasharray:7.0,7.0;"/><polygon fill="#181818" points="790.92,346.6211,781.92,342.6211,785.92,346.6211,781.92,350.6211,790.92,346.6211" style="stroke:#181818;stroke-width:1.0;"/></g><!--link PostponeAgendaEntryGUIController to AgendaEntryRepository--><g id="link_PostponeAgendaEntryGUIController_AgendaEntryRepository"><path codeLine="81" d="M582.8,426.7311 C587.83,509.5311 595,627.6211 595,627.6211 C595,627.6211 631.6753,655.3807 670.7153,684.9207 " fill="none" id="PostponeAgendaEntryGUIController-to-AgendaEntryRepository" style="stroke:#181818;stroke-width:1.0;"/><polygon fill="#181818" points="675.5,688.5411,670.7366,679.9208,671.5128,685.5241,665.9094,686.3003,675.5,688.5411" style="stroke:#181818;stroke-width:1.0;"/><text fill="#000000" font-family="sans-serif" font-size="13" lengthAdjust="spacing" textLength="28" x="596" y="572.1494">uses</text></g><!--reverse link SystemUser to GSM--><g id="link_SystemUser_GSM"><path codeLine="83" d="M137.54,117.1211 C149.15,117.1211 146,117.1211 146,117.1211 C146,117.1211 149.53,117.1211 154.48,117.1211 " fill="none" id="SystemUser-backto-GSM" style="stroke:#181818;stroke-width:1.0;"/><polygon fill="none" points="119.54,117.1211,137.54,123.1211,137.54,111.1211,119.54,117.1211" style="stroke:#181818;stroke-width:1.0;"/></g><!--reverse link ToDoEntry to AgendaEntry--><g id="link_ToDoEntry_AgendaEntry"><path codeLine="84" d="M1151,205.9211 C1151,240.2811 1151,262.9511 1151,294.3811 " fill="none" id="ToDoEntry-backto-AgendaEntry" style="stroke:#181818;stroke-width:1.0;"/><polygon fill="none" points="1151,187.9211,1145,205.9211,1157,205.9211,1151,187.9211" style="stroke:#181818;stroke-width:1.0;"/></g><!--link GSM to AgendaGUI--><g id="link_GSM_AgendaGUI"><path codeLine="86" d="M186,141.1911 C186,172.4811 186,229.7511 186,275.7311 " fill="none" id="GSM-AgendaGUI" style="stroke:#181818;stroke-width:1.0;"/><text fill="#000000" font-family="sans-serif" font-size="13" lengthAdjust="spacing" textLength="7" x="178.1469" y="163.1938">1</text><text fill="#000000" font-family="sans-serif" font-size="13" lengthAdjust="spacing" textLength="7" x="178.6555" y="264.9536">1</text></g><!--link AgendaEntryMapper to AgendaEntry--><g id="link_AgendaEntryMapper_AgendaEntry"><path codeLine="87" d="M1005.29,346.6211 C1032.1,346.6211 1054.07,346.6211 1078.27,346.6211 " fill="none" id="AgendaEntryMapper-to-AgendaEntry" style="stroke:#181818;stroke-width:1.0;"/><polygon fill="#181818" points="1084.27,346.6211,1075.27,342.6211,1079.27,346.6211,1075.27,350.6211,1084.27,346.6211" style="stroke:#181818;stroke-width:1.0;"/><text fill="#000000" font-family="sans-serif" font-size="13" lengthAdjust="spacing" textLength="43" x="1023.25" y="339.6494">creates</text><text fill="#000000" font-family="sans-serif" font-size="13" lengthAdjust="spacing" textLength="7" x="1013.0799" y="343.0668">1</text><text fill="#000000" font-family="sans-serif" font-size="13" lengthAdjust="spacing" textLength="5" x="1071.698" y="342.7431">*</text></g><!--reverse link AgendaEntry to AgendaEntryRepository--><g id="link_AgendaEntry_AgendaEntryRepository"><path codeLine="88" d="M1108.9294,403.4431 C1048.0794,484.2031 940,627.6211 940,627.6211 C940,627.6211 884.81,659.0011 832.85,688.5411 " fill="none" id="AgendaEntry-backto-AgendaEntryRepository" style="stroke:#181818;stroke-width:1.0;"/><polygon fill="#181818" points="1112.54,398.6511,1103.9294,403.432,1109.5311,402.6444,1110.3187,408.2462,1112.54,398.6511" style="stroke:#181818;stroke-width:1.0;"/><text fill="#000000" font-family="sans-serif" font-size="13" lengthAdjust="spacing" textLength="53" x="1032" y="572.1494">manages</text><text fill="#000000" font-family="sans-serif" font-size="13" lengthAdjust="spacing" textLength="5" x="1102.292" y="420.4622">*</text><text fill="#000000" font-family="sans-serif" font-size="13" lengthAdjust="spacing" textLength="7" x="837.4533" y="677.4577">1</text></g><!--reverse link AgendaEntryDTO to AgendaEntryMapper--><g id="link_AgendaEntryDTO_AgendaEntryMapper"><path codeLine="89" d="M898,184.1911 C898,220.3911 898,260.0111 898,294.4811 " fill="none" id="AgendaEntryDTO-backto-AgendaEntryMapper" style="stroke:#181818;stroke-width:1.0;"/><polygon fill="#181818" points="898,178.1911,894,187.1911,898,183.1911,902,187.1911,898,178.1911" style="stroke:#181818;stroke-width:1.0;"/><text fill="#000000" font-family="sans-serif" font-size="13" lengthAdjust="spacing" textLength="43" x="899" y="232.6494">creates</text><text fill="#000000" font-family="sans-serif" font-size="13" lengthAdjust="spacing" textLength="5" x="892.6953" y="200.6865">*</text><text fill="#000000" font-family="sans-serif" font-size="13" lengthAdjust="spacing" textLength="7" x="890.5297" y="283.3897">1</text></g><!--SRC=[ZLJ9Rjim4BtpAuXSAZTHq5u3Gu0H5O61k2rg9tU6cif4A58WgRhgykyTBQOeIuwh4sVUB6yUHxIlGfNCi89ooQnTEMV4I-LWpRNQYbz0Fv1triSKMcc-Dxe0wam5P41AnbzP3bjNIw06k6Cgbs60tRDC7uJAwNScROX8eS3L9T1IoxenmeuUrCRf8EaiM-A4Gmht3KvJmNAC9eIqyNIdK_r9ELF_9XI_t02eBLA7rip0SYDA9xHgxShae7YTGXFNUgnZhhBj4NwME2LaQMLOc_7ts6I5MHbhsz2kJyPSbu-mvWAjR0T8Q-nwXhtW4knifNJtfIy6ZRbEPncNaYc5d8xzUhw-uBQs3eed2wOlfbZHHKB1XEngOE11cwmpzXhlOuxGDoYr5Kxx8MEwCeRLZyAwPH2NKEOD0PrsrpG7jmhTqQ87gh8HgniP3r5GwOOgE3JEnK38iy0QdWUROzbZOO9lYcpM2hLI74BVxBJHObQE3IjBh-erTHelB0g8B3o0fd1rY67e8inh98mcEWPzlshhIhoO07vuMjzhF6WfFOtup7szfSzq97Rg2GJwWKl3NcH8f2K_BoAEPWFu3OMxx9anJsIxeO-QCtco55qyAk9rk2XOLtPmz0moOV6NgiUhsjxCc4Tof6n1uglGKHtxFdUxwxrzwGrOYxKYMt6EntQAWVzjSf4wkJZRBLOP_ITt-40F9XbXSPpGguzNyvjp4ZefA_gVw3yu9TDDkvpLa9jVwJjQMHo510_SyazC7xORuj_ynZDQS48GRwT5_p0qzYJJtm3nEBbwFr86st83UAisJA1Dr79KSagtO0glVPJNFF5dKdiEGxj_]--></g></svg>