<?xml version="1.0" encoding="us-ascii" standalone="no"?><svg xmlns="http://www.w3.org/2000/svg" xmlns:xlink="http://www.w3.org/1999/xlink" contentStyleType="text/css" height="836px" preserveAspectRatio="none" style="width:1484px;height:836px;background:#FFFFFF;" version="1.1" viewBox="0 0 1484 836" width="1484px" zoomAndPan="magnify"><defs/><g><text fill="#000000" font-family="sans-serif" font-size="14" font-weight="bold" lengthAdjust="spacing" textLength="99" x="685.5" y="25.1074">Class Diagram</text><!--class GreenSpace--><g id="elem_GreenSpace"><rect codeLine="8" fill="#F1F1F1" height="141.1055" id="GreenSpace" rx="2.5" ry="2.5" style="stroke:#181818;stroke-width:0.5;" width="112" x="1211.5" y="46.6211"/><ellipse cx="1226.5" cy="62.6211" fill="#ADD1B2" rx="11" ry="11" style="stroke:#181818;stroke-width:1.0;"/><path d="M1229.2656,58.4961 Q1229.4219,58.2773 1229.6094,58.168 Q1229.7969,58.0586 1230.0156,58.0586 Q1230.3906,58.0586 1230.625,58.3242 Q1230.8594,58.5742 1230.8594,59.1836 L1230.8594,60.6367 Q1230.8594,61.2461 1230.625,61.5117 Q1230.3906,61.7773 1230.0156,61.7773 Q1229.6719,61.7773 1229.4688,61.5742 Q1229.2656,61.3867 1229.1563,60.8711 Q1229.1094,60.5117 1228.9219,60.3242 Q1228.5938,59.9492 1227.9844,59.7305 Q1227.375,59.5117 1226.75,59.5117 Q1225.9844,59.5117 1225.3438,59.8398 Q1224.7188,60.168 1224.2188,60.918 Q1223.7344,61.668 1223.7344,62.6992 L1223.7344,63.793 Q1223.7344,65.0273 1224.625,65.8555 Q1225.5156,66.668 1227.1094,66.668 Q1228.0469,66.668 1228.7031,66.418 Q1229.0938,66.2617 1229.5156,65.8242 Q1229.7813,65.5586 1229.9219,65.4805 Q1230.0781,65.4023 1230.2813,65.4023 Q1230.6094,65.4023 1230.8594,65.668 Q1231.125,65.918 1231.125,66.2617 Q1231.125,66.6055 1230.7813,67.0117 Q1230.2813,67.5898 1229.4844,67.918 Q1228.4063,68.3711 1227.1094,68.3711 Q1225.5938,68.3711 1224.3906,67.7461 Q1223.4063,67.2461 1222.7188,66.1836 Q1222.0313,65.1055 1222.0313,63.8242 L1222.0313,62.668 Q1222.0313,61.3398 1222.6406,60.1992 Q1223.2656,59.043 1224.3594,58.4336 Q1225.4531,57.8086 1226.6875,57.8086 Q1227.4219,57.8086 1228.0625,57.9805 Q1228.7188,58.1367 1229.2656,58.4961 Z " fill="#000000"/><text fill="#000000" font-family="sans-serif" font-size="14" lengthAdjust="spacing" textLength="80" x="1240.5" y="68.418">GreenSpace</text><line style="stroke:#181818;stroke-width:0.5;" x1="1212.5" x2="1322.5" y1="78.6211" y2="78.6211"/><text fill="#000000" font-family="sans-serif" font-size="14" lengthAdjust="spacing" textLength="40" x="1217.5" y="97.7285">-name</text><text fill="#000000" font-family="sans-serif" font-size="14" lengthAdjust="spacing" textLength="56" x="1217.5" y="116.3496">-address</text><text fill="#000000" font-family="sans-serif" font-size="14" lengthAdjust="spacing" textLength="34" x="1217.5" y="134.9707">-area</text><text fill="#000000" font-family="sans-serif" font-size="14" lengthAdjust="spacing" textLength="32" x="1217.5" y="153.5918">-type</text><text fill="#000000" font-family="sans-serif" font-size="14" lengthAdjust="spacing" textLength="69" x="1217.5" y="172.2129">-emailGSM</text><line style="stroke:#181818;stroke-width:0.5;" x1="1212.5" x2="1322.5" y1="179.7266" y2="179.7266"/></g><!--class SystemUser--><g id="elem_SystemUser"><rect codeLine="18" fill="#F1F1F1" height="122.4844" id="SystemUser" rx="2.5" ry="2.5" style="stroke:#181818;stroke-width:0.5;" width="107" x="699" y="56.1211"/><ellipse cx="714" cy="72.1211" fill="#ADD1B2" rx="11" ry="11" style="stroke:#181818;stroke-width:1.0;"/><path d="M716.7656,67.9961 Q716.9219,67.7773 717.1094,67.668 Q717.2969,67.5586 717.5156,67.5586 Q717.8906,67.5586 718.125,67.8242 Q718.3594,68.0742 718.3594,68.6836 L718.3594,70.1367 Q718.3594,70.7461 718.125,71.0117 Q717.8906,71.2773 717.5156,71.2773 Q717.1719,71.2773 716.9688,71.0742 Q716.7656,70.8867 716.6563,70.3711 Q716.6094,70.0117 716.4219,69.8242 Q716.0938,69.4492 715.4844,69.2305 Q714.875,69.0117 714.25,69.0117 Q713.4844,69.0117 712.8438,69.3398 Q712.2188,69.668 711.7188,70.418 Q711.2344,71.168 711.2344,72.1992 L711.2344,73.293 Q711.2344,74.5273 712.125,75.3555 Q713.0156,76.168 714.6094,76.168 Q715.5469,76.168 716.2031,75.918 Q716.5938,75.7617 717.0156,75.3242 Q717.2813,75.0586 717.4219,74.9805 Q717.5781,74.9023 717.7813,74.9023 Q718.1094,74.9023 718.3594,75.168 Q718.625,75.418 718.625,75.7617 Q718.625,76.1055 718.2813,76.5117 Q717.7813,77.0898 716.9844,77.418 Q715.9063,77.8711 714.6094,77.8711 Q713.0938,77.8711 711.8906,77.2461 Q710.9063,76.7461 710.2188,75.6836 Q709.5313,74.6055 709.5313,73.3242 L709.5313,72.168 Q709.5313,70.8398 710.1406,69.6992 Q710.7656,68.543 711.8594,67.9336 Q712.9531,67.3086 714.1875,67.3086 Q714.9219,67.3086 715.5625,67.4805 Q716.2188,67.6367 716.7656,67.9961 Z " fill="#000000"/><text fill="#000000" font-family="sans-serif" font-size="14" lengthAdjust="spacing" textLength="75" x="728" y="77.918">SystemUser</text><line style="stroke:#181818;stroke-width:0.5;" x1="700" x2="805" y1="88.1211" y2="88.1211"/><text fill="#000000" font-family="sans-serif" font-size="14" lengthAdjust="spacing" textLength="35" x="705" y="107.2285">name</text><text fill="#000000" font-family="sans-serif" font-size="14" lengthAdjust="spacing" textLength="33" x="705" y="125.8496">email</text><text fill="#000000" font-family="sans-serif" font-size="14" lengthAdjust="spacing" textLength="60" x="705" y="144.4707">password</text><text fill="#000000" font-family="sans-serif" font-size="14" lengthAdjust="spacing" textLength="40" x="705" y="163.0918">phone</text><line style="stroke:#181818;stroke-width:0.5;" x1="700" x2="805" y1="170.6055" y2="170.6055"/></g><!--class GreenSpaceRepository--><g id="elem_GreenSpaceRepository"><rect codeLine="26" fill="#F1F1F1" height="122.4844" id="GreenSpaceRepository" rx="2.5" ry="2.5" style="stroke:#181818;stroke-width:0.5;" width="235" x="620" y="706.6211"/><ellipse cx="659.75" cy="722.6211" fill="#ADD1B2" rx="11" ry="11" style="stroke:#181818;stroke-width:1.0;"/><path d="M662.5156,718.4961 Q662.6719,718.2773 662.8594,718.168 Q663.0469,718.0586 663.2656,718.0586 Q663.6406,718.0586 663.875,718.3242 Q664.1094,718.5742 664.1094,719.1836 L664.1094,720.6367 Q664.1094,721.2461 663.875,721.5117 Q663.6406,721.7773 663.2656,721.7773 Q662.9219,721.7773 662.7188,721.5742 Q662.5156,721.3867 662.4063,720.8711 Q662.3594,720.5117 662.1719,720.3242 Q661.8438,719.9492 661.2344,719.7305 Q660.625,719.5117 660,719.5117 Q659.2344,719.5117 658.5938,719.8398 Q657.9688,720.168 657.4688,720.918 Q656.9844,721.668 656.9844,722.6992 L656.9844,723.793 Q656.9844,725.0273 657.875,725.8555 Q658.7656,726.668 660.3594,726.668 Q661.2969,726.668 661.9531,726.418 Q662.3438,726.2617 662.7656,725.8242 Q663.0313,725.5586 663.1719,725.4805 Q663.3281,725.4023 663.5313,725.4023 Q663.8594,725.4023 664.1094,725.668 Q664.375,725.918 664.375,726.2617 Q664.375,726.6055 664.0313,727.0117 Q663.5313,727.5898 662.7344,727.918 Q661.6563,728.3711 660.3594,728.3711 Q658.8438,728.3711 657.6406,727.7461 Q656.6563,727.2461 655.9688,726.1836 Q655.2813,725.1055 655.2813,723.8242 L655.2813,722.668 Q655.2813,721.3398 655.8906,720.1992 Q656.5156,719.043 657.6094,718.4336 Q658.7031,717.8086 659.9375,717.8086 Q660.6719,717.8086 661.3125,717.9805 Q661.9688,718.1367 662.5156,718.4961 Z " fill="#000000"/><text fill="#000000" font-family="sans-serif" font-size="14" lengthAdjust="spacing" textLength="148" x="679.25" y="728.418">GreenSpaceRepository</text><line style="stroke:#181818;stroke-width:0.5;" x1="621" x2="854" y1="738.6211" y2="738.6211"/><text fill="#000000" font-family="sans-serif" font-size="14" lengthAdjust="spacing" textLength="104" x="626" y="757.7285">-greenSpaceList</text><line style="stroke:#181818;stroke-width:0.5;" x1="621" x2="854" y1="765.2422" y2="765.2422"/><text fill="#000000" font-family="sans-serif" font-size="14" lengthAdjust="spacing" textLength="140" x="626" y="784.3496">+getGreenSpaceList()</text><text fill="#000000" font-family="sans-serif" font-size="14" lengthAdjust="spacing" textLength="223" x="626" y="802.9707">+registerGreenSpace(greenSpace)</text><text fill="#000000" font-family="sans-serif" font-size="14" lengthAdjust="spacing" textLength="223" x="626" y="821.5918">-greenSpaceIsUnique(greenSpace)</text></g><!--class Repositories--><g id="elem_Repositories"><rect codeLine="34" fill="#F1F1F1" height="122.4844" id="Repositories" rx="2.5" ry="2.5" style="stroke:#181818;stroke-width:0.5;" width="198" x="638.5" y="523.6211"/><ellipse cx="693.75" cy="539.6211" fill="#ADD1B2" rx="11" ry="11" style="stroke:#181818;stroke-width:1.0;"/><path d="M696.5156,535.4961 Q696.6719,535.2773 696.8594,535.168 Q697.0469,535.0586 697.2656,535.0586 Q697.6406,535.0586 697.875,535.3242 Q698.1094,535.5742 698.1094,536.1836 L698.1094,537.6367 Q698.1094,538.2461 697.875,538.5117 Q697.6406,538.7773 697.2656,538.7773 Q696.9219,538.7773 696.7188,538.5742 Q696.5156,538.3867 696.4063,537.8711 Q696.3594,537.5117 696.1719,537.3242 Q695.8438,536.9492 695.2344,536.7305 Q694.625,536.5117 694,536.5117 Q693.2344,536.5117 692.5938,536.8398 Q691.9688,537.168 691.4688,537.918 Q690.9844,538.668 690.9844,539.6992 L690.9844,540.793 Q690.9844,542.0273 691.875,542.8555 Q692.7656,543.668 694.3594,543.668 Q695.2969,543.668 695.9531,543.418 Q696.3438,543.2617 696.7656,542.8242 Q697.0313,542.5586 697.1719,542.4805 Q697.3281,542.4023 697.5313,542.4023 Q697.8594,542.4023 698.1094,542.668 Q698.375,542.918 698.375,543.2617 Q698.375,543.6055 698.0313,544.0117 Q697.5313,544.5898 696.7344,544.918 Q695.6563,545.3711 694.3594,545.3711 Q692.8438,545.3711 691.6406,544.7461 Q690.6563,544.2461 689.9688,543.1836 Q689.2813,542.1055 689.2813,540.8242 L689.2813,539.668 Q689.2813,538.3398 689.8906,537.1992 Q690.5156,536.043 691.6094,535.4336 Q692.7031,534.8086 693.9375,534.8086 Q694.6719,534.8086 695.3125,534.9805 Q695.9688,535.1367 696.5156,535.4961 Z " fill="#000000"/><text fill="#000000" font-family="sans-serif" font-size="14" lengthAdjust="spacing" textLength="79" x="714.25" y="545.418">Repositories</text><line style="stroke:#181818;stroke-width:0.5;" x1="639.5" x2="835.5" y1="555.6211" y2="555.6211"/><text fill="#000000" font-family="sans-serif" font-size="14" lengthAdjust="spacing" textLength="150" x="644.5" y="574.7285">-greenSpaceRepository</text><line style="stroke:#181818;stroke-width:0.5;" x1="639.5" x2="835.5" y1="582.2422" y2="582.2422"/><text fill="#000000" font-family="sans-serif" font-size="14" lengthAdjust="spacing" textLength="94" x="644.5" y="601.3496">-Repositories()</text><text fill="#000000" font-family="sans-serif" font-size="14" lengthAdjust="spacing" textLength="91" x="644.5" y="619.9707">+getInstance()</text><text fill="#000000" font-family="sans-serif" font-size="14" lengthAdjust="spacing" textLength="186" x="644.5" y="638.5918">+getGreenSpaceRepository()</text></g><!--class GreenSpaceMapper--><g id="elem_GreenSpaceMapper"><rect codeLine="42" fill="#F1F1F1" height="103.8633" id="GreenSpaceMapper" rx="2.5" ry="2.5" style="stroke:#181818;stroke-width:0.5;" width="185" x="1292" y="303.6211"/><ellipse cx="1318.25" cy="319.6211" fill="#ADD1B2" rx="11" ry="11" style="stroke:#181818;stroke-width:1.0;"/><path d="M1321.0156,315.4961 Q1321.1719,315.2773 1321.3594,315.168 Q1321.5469,315.0586 1321.7656,315.0586 Q1322.1406,315.0586 1322.375,315.3242 Q1322.6094,315.5742 1322.6094,316.1836 L1322.6094,317.6367 Q1322.6094,318.2461 1322.375,318.5117 Q1322.1406,318.7773 1321.7656,318.7773 Q1321.4219,318.7773 1321.2188,318.5742 Q1321.0156,318.3867 1320.9063,317.8711 Q1320.8594,317.5117 1320.6719,317.3242 Q1320.3438,316.9492 1319.7344,316.7305 Q1319.125,316.5117 1318.5,316.5117 Q1317.7344,316.5117 1317.0938,316.8398 Q1316.4688,317.168 1315.9688,317.918 Q1315.4844,318.668 1315.4844,319.6992 L1315.4844,320.793 Q1315.4844,322.0273 1316.375,322.8555 Q1317.2656,323.668 1318.8594,323.668 Q1319.7969,323.668 1320.4531,323.418 Q1320.8438,323.2617 1321.2656,322.8242 Q1321.5313,322.5586 1321.6719,322.4805 Q1321.8281,322.4023 1322.0313,322.4023 Q1322.3594,322.4023 1322.6094,322.668 Q1322.875,322.918 1322.875,323.2617 Q1322.875,323.6055 1322.5313,324.0117 Q1322.0313,324.5898 1321.2344,324.918 Q1320.1563,325.3711 1318.8594,325.3711 Q1317.3438,325.3711 1316.1406,324.7461 Q1315.1563,324.2461 1314.4688,323.1836 Q1313.7813,322.1055 1313.7813,320.8242 L1313.7813,319.668 Q1313.7813,318.3398 1314.3906,317.1992 Q1315.0156,316.043 1316.1094,315.4336 Q1317.2031,314.8086 1318.4375,314.8086 Q1319.1719,314.8086 1319.8125,314.9805 Q1320.4688,315.1367 1321.0156,315.4961 Z " fill="#000000"/><text fill="#000000" font-family="sans-serif" font-size="14" lengthAdjust="spacing" textLength="128" x="1334.75" y="325.418">GreenSpaceMapper</text><line style="stroke:#181818;stroke-width:0.5;" x1="1293" x2="1476" y1="335.6211" y2="335.6211"/><line style="stroke:#181818;stroke-width:0.5;" x1="1293" x2="1476" y1="343.6211" y2="343.6211"/><text fill="#000000" font-family="sans-serif" font-size="14" lengthAdjust="spacing" textLength="137" x="1298" y="362.7285">+toDTO(greenSpace)</text><text fill="#000000" font-family="sans-serif" font-size="14" lengthAdjust="spacing" textLength="172" x="1298" y="381.3496">+toEntity(greenSpaceDTO)</text><text fill="#000000" font-family="sans-serif" font-size="14" lengthAdjust="spacing" textLength="173" x="1298" y="399.9707">+toDtoList(greenSpaceList)</text></g><!--class RegisterGreenSpaceController--><g id="elem_RegisterGreenSpaceController"><rect codeLine="49" fill="#F1F1F1" height="178.3477" id="RegisterGreenSpaceController" rx="2.5" ry="2.5" style="stroke:#181818;stroke-width:0.5;" width="265" x="441" y="266.6211"/><ellipse cx="473.1" cy="282.6211" fill="#ADD1B2" rx="11" ry="11" style="stroke:#181818;stroke-width:1.0;"/><path d="M475.8656,278.4961 Q476.0219,278.2773 476.2094,278.168 Q476.3969,278.0586 476.6156,278.0586 Q476.9906,278.0586 477.225,278.3242 Q477.4594,278.5742 477.4594,279.1836 L477.4594,280.6367 Q477.4594,281.2461 477.225,281.5117 Q476.9906,281.7773 476.6156,281.7773 Q476.2719,281.7773 476.0688,281.5742 Q475.8656,281.3867 475.7563,280.8711 Q475.7094,280.5117 475.5219,280.3242 Q475.1938,279.9492 474.5844,279.7305 Q473.975,279.5117 473.35,279.5117 Q472.5844,279.5117 471.9438,279.8398 Q471.3188,280.168 470.8188,280.918 Q470.3344,281.668 470.3344,282.6992 L470.3344,283.793 Q470.3344,285.0273 471.225,285.8555 Q472.1156,286.668 473.7094,286.668 Q474.6469,286.668 475.3031,286.418 Q475.6938,286.2617 476.1156,285.8242 Q476.3813,285.5586 476.5219,285.4805 Q476.6781,285.4023 476.8813,285.4023 Q477.2094,285.4023 477.4594,285.668 Q477.725,285.918 477.725,286.2617 Q477.725,286.6055 477.3813,287.0117 Q476.8813,287.5898 476.0844,287.918 Q475.0063,288.3711 473.7094,288.3711 Q472.1938,288.3711 470.9906,287.7461 Q470.0063,287.2461 469.3188,286.1836 Q468.6313,285.1055 468.6313,283.8242 L468.6313,282.668 Q468.6313,281.3398 469.2406,280.1992 Q469.8656,279.043 470.9594,278.4336 Q472.0531,277.8086 473.2875,277.8086 Q474.0219,277.8086 474.6625,277.9805 Q475.3188,278.1367 475.8656,278.4961 Z " fill="#000000"/><text fill="#000000" font-family="sans-serif" font-size="14" lengthAdjust="spacing" textLength="195" x="490.9" y="288.418">RegisterGreenSpaceController</text><line style="stroke:#181818;stroke-width:0.5;" x1="442" x2="705" y1="298.6211" y2="298.6211"/><text fill="#000000" font-family="sans-serif" font-size="14" lengthAdjust="spacing" textLength="150" x="447" y="317.7285">-greenSpaceRepository</text><text fill="#000000" font-family="sans-serif" font-size="14" lengthAdjust="spacing" textLength="130" x="447" y="336.3496">-greenSpaceMapper</text><line style="stroke:#181818;stroke-width:0.5;" x1="442" x2="705" y1="343.8633" y2="343.8633"/><text fill="#000000" font-family="sans-serif" font-size="14" lengthAdjust="spacing" textLength="253" x="447" y="362.9707">+registerGreenSpace(greenSpaceDTO)</text><text fill="#000000" font-family="sans-serif" font-size="14" lengthAdjust="spacing" textLength="172" x="447" y="381.5918">+getGreenSpaceTypeList()</text><text fill="#000000" font-family="sans-serif" font-size="14" lengthAdjust="spacing" textLength="177" x="447" y="400.2129">+getGreenSpaceDTOsList()</text><text fill="#000000" font-family="sans-serif" font-size="14" lengthAdjust="spacing" textLength="137" x="447" y="418.834">-getGreenSpaceList()</text><text fill="#000000" font-family="sans-serif" font-size="14" lengthAdjust="spacing" textLength="183" x="447" y="437.4551">-getGreenSpaceRepository()</text></g><!--class RegisterGreenSpaceUI--><g id="elem_RegisterGreenSpaceUI"><rect codeLine="60" fill="#F1F1F1" height="48" id="RegisterGreenSpaceUI" rx="2.5" ry="2.5" style="stroke:#181818;stroke-width:0.5;" width="177" x="7" y="331.6211"/><ellipse cx="22" cy="347.6211" fill="#ADD1B2" rx="11" ry="11" style="stroke:#181818;stroke-width:1.0;"/><path d="M24.7656,343.4961 Q24.9219,343.2773 25.1094,343.168 Q25.2969,343.0586 25.5156,343.0586 Q25.8906,343.0586 26.125,343.3242 Q26.3594,343.5742 26.3594,344.1836 L26.3594,345.6367 Q26.3594,346.2461 26.125,346.5117 Q25.8906,346.7773 25.5156,346.7773 Q25.1719,346.7773 24.9688,346.5742 Q24.7656,346.3867 24.6563,345.8711 Q24.6094,345.5117 24.4219,345.3242 Q24.0938,344.9492 23.4844,344.7305 Q22.875,344.5117 22.25,344.5117 Q21.4844,344.5117 20.8438,344.8398 Q20.2188,345.168 19.7188,345.918 Q19.2344,346.668 19.2344,347.6992 L19.2344,348.793 Q19.2344,350.0273 20.125,350.8555 Q21.0156,351.668 22.6094,351.668 Q23.5469,351.668 24.2031,351.418 Q24.5938,351.2617 25.0156,350.8242 Q25.2813,350.5586 25.4219,350.4805 Q25.5781,350.4023 25.7813,350.4023 Q26.1094,350.4023 26.3594,350.668 Q26.625,350.918 26.625,351.2617 Q26.625,351.6055 26.2813,352.0117 Q25.7813,352.5898 24.9844,352.918 Q23.9063,353.3711 22.6094,353.3711 Q21.0938,353.3711 19.8906,352.7461 Q18.9063,352.2461 18.2188,351.1836 Q17.5313,350.1055 17.5313,348.8242 L17.5313,347.668 Q17.5313,346.3398 18.1406,345.1992 Q18.7656,344.043 19.8594,343.4336 Q20.9531,342.8086 22.1875,342.8086 Q22.9219,342.8086 23.5625,342.9805 Q24.2188,343.1367 24.7656,343.4961 Z " fill="#000000"/><text fill="#000000" font-family="sans-serif" font-size="14" lengthAdjust="spacing" textLength="145" x="36" y="353.418">RegisterGreenSpaceUI</text><line style="stroke:#181818;stroke-width:0.5;" x1="8" x2="183" y1="363.6211" y2="363.6211"/><line style="stroke:#181818;stroke-width:0.5;" x1="8" x2="183" y1="371.6211" y2="371.6211"/></g><!--class AuthenticationController--><g id="elem_AuthenticationController"><rect codeLine="64" fill="#F1F1F1" height="122.4844" id="AuthenticationController" rx="2.5" ry="2.5" style="stroke:#181818;stroke-width:0.5;" width="336" x="741.5" y="294.6211"/><ellipse cx="829.25" cy="310.6211" fill="#ADD1B2" rx="11" ry="11" style="stroke:#181818;stroke-width:1.0;"/><path d="M832.0156,306.4961 Q832.1719,306.2773 832.3594,306.168 Q832.5469,306.0586 832.7656,306.0586 Q833.1406,306.0586 833.375,306.3242 Q833.6094,306.5742 833.6094,307.1836 L833.6094,308.6367 Q833.6094,309.2461 833.375,309.5117 Q833.1406,309.7773 832.7656,309.7773 Q832.4219,309.7773 832.2188,309.5742 Q832.0156,309.3867 831.9063,308.8711 Q831.8594,308.5117 831.6719,308.3242 Q831.3438,307.9492 830.7344,307.7305 Q830.125,307.5117 829.5,307.5117 Q828.7344,307.5117 828.0938,307.8398 Q827.4688,308.168 826.9688,308.918 Q826.4844,309.668 826.4844,310.6992 L826.4844,311.793 Q826.4844,313.0273 827.375,313.8555 Q828.2656,314.668 829.8594,314.668 Q830.7969,314.668 831.4531,314.418 Q831.8438,314.2617 832.2656,313.8242 Q832.5313,313.5586 832.6719,313.4805 Q832.8281,313.4023 833.0313,313.4023 Q833.3594,313.4023 833.6094,313.668 Q833.875,313.918 833.875,314.2617 Q833.875,314.6055 833.5313,315.0117 Q833.0313,315.5898 832.2344,315.918 Q831.1563,316.3711 829.8594,316.3711 Q828.3438,316.3711 827.1406,315.7461 Q826.1563,315.2461 825.4688,314.1836 Q824.7813,313.1055 824.7813,311.8242 L824.7813,310.668 Q824.7813,309.3398 825.3906,308.1992 Q826.0156,307.043 827.1094,306.4336 Q828.2031,305.8086 829.4375,305.8086 Q830.1719,305.8086 830.8125,305.9805 Q831.4688,306.1367 832.0156,306.4961 Z " fill="#000000"/><text fill="#000000" font-family="sans-serif" font-size="14" lengthAdjust="spacing" textLength="152" x="849.75" y="316.418">AuthenticationController</text><line style="stroke:#181818;stroke-width:0.5;" x1="742.5" x2="1076.5" y1="326.6211" y2="326.6211"/><text fill="#000000" font-family="sans-serif" font-size="14" lengthAdjust="spacing" textLength="324" x="747.5" y="345.7285">-AuthenticationRepository authenticationRepository</text><line style="stroke:#181818;stroke-width:0.5;" x1="742.5" x2="1076.5" y1="353.2422" y2="353.2422"/><text fill="#000000" font-family="sans-serif" font-size="14" lengthAdjust="spacing" textLength="149" x="747.5" y="372.3496">+getCurrentUserEmail()</text><text fill="#000000" font-family="sans-serif" font-size="14" lengthAdjust="spacing" textLength="69" x="747.5" y="390.9707">+doLogin()</text><text fill="#000000" font-family="sans-serif" font-size="14" lengthAdjust="spacing" textLength="78" x="747.5" y="409.5918">+doLogout()</text></g><!--class AuthenticationRepository--><g id="elem_AuthenticationRepository"><rect codeLine="71" fill="#F1F1F1" height="122.4844" id="AuthenticationRepository" rx="2.5" ry="2.5" style="stroke:#181818;stroke-width:0.5;" width="190" x="973.5" y="523.6211"/><ellipse cx="988.5" cy="539.6211" fill="#ADD1B2" rx="11" ry="11" style="stroke:#181818;stroke-width:1.0;"/><path d="M991.2656,535.4961 Q991.4219,535.2773 991.6094,535.168 Q991.7969,535.0586 992.0156,535.0586 Q992.3906,535.0586 992.625,535.3242 Q992.8594,535.5742 992.8594,536.1836 L992.8594,537.6367 Q992.8594,538.2461 992.625,538.5117 Q992.3906,538.7773 992.0156,538.7773 Q991.6719,538.7773 991.4688,538.5742 Q991.2656,538.3867 991.1563,537.8711 Q991.1094,537.5117 990.9219,537.3242 Q990.5938,536.9492 989.9844,536.7305 Q989.375,536.5117 988.75,536.5117 Q987.9844,536.5117 987.3438,536.8398 Q986.7188,537.168 986.2188,537.918 Q985.7344,538.668 985.7344,539.6992 L985.7344,540.793 Q985.7344,542.0273 986.625,542.8555 Q987.5156,543.668 989.1094,543.668 Q990.0469,543.668 990.7031,543.418 Q991.0938,543.2617 991.5156,542.8242 Q991.7813,542.5586 991.9219,542.4805 Q992.0781,542.4023 992.2813,542.4023 Q992.6094,542.4023 992.8594,542.668 Q993.125,542.918 993.125,543.2617 Q993.125,543.6055 992.7813,544.0117 Q992.2813,544.5898 991.4844,544.918 Q990.4063,545.3711 989.1094,545.3711 Q987.5938,545.3711 986.3906,544.7461 Q985.4063,544.2461 984.7188,543.1836 Q984.0313,542.1055 984.0313,540.8242 L984.0313,539.668 Q984.0313,538.3398 984.6406,537.1992 Q985.2656,536.043 986.3594,535.4336 Q987.4531,534.8086 988.6875,534.8086 Q989.4219,534.8086 990.0625,534.9805 Q990.7188,535.1367 991.2656,535.4961 Z " fill="#000000"/><text fill="#000000" font-family="sans-serif" font-size="14" lengthAdjust="spacing" textLength="158" x="1002.5" y="545.418">AuthenticationRepository</text><line style="stroke:#181818;stroke-width:0.5;" x1="974.5" x2="1162.5" y1="555.6211" y2="555.6211"/><text fill="#000000" font-family="sans-serif" font-size="14" lengthAdjust="spacing" textLength="162" x="979.5" y="574.7285">-AuthFacade authFacade</text><line style="stroke:#181818;stroke-width:0.5;" x1="974.5" x2="1162.5" y1="582.2422" y2="582.2422"/><text fill="#000000" font-family="sans-serif" font-size="14" lengthAdjust="spacing" textLength="149" x="979.5" y="601.3496">+getCurrentUserEmail()</text><text fill="#000000" font-family="sans-serif" font-size="14" lengthAdjust="spacing" textLength="69" x="979.5" y="619.9707">+doLogin()</text><text fill="#000000" font-family="sans-serif" font-size="14" lengthAdjust="spacing" textLength="78" x="979.5" y="638.5918">+doLogout()</text></g><!--class GreenSpaceDTO--><g id="elem_GreenSpaceDTO"><rect codeLine="78" fill="#F1F1F1" height="178.3477" id="GreenSpaceDTO" rx="2.5" ry="2.5" style="stroke:#181818;stroke-width:0.5;" width="142" x="263.5" y="266.6211"/><ellipse cx="278.5" cy="282.6211" fill="#ADD1B2" rx="11" ry="11" style="stroke:#181818;stroke-width:1.0;"/><path d="M281.2656,278.4961 Q281.4219,278.2773 281.6094,278.168 Q281.7969,278.0586 282.0156,278.0586 Q282.3906,278.0586 282.625,278.3242 Q282.8594,278.5742 282.8594,279.1836 L282.8594,280.6367 Q282.8594,281.2461 282.625,281.5117 Q282.3906,281.7773 282.0156,281.7773 Q281.6719,281.7773 281.4688,281.5742 Q281.2656,281.3867 281.1563,280.8711 Q281.1094,280.5117 280.9219,280.3242 Q280.5938,279.9492 279.9844,279.7305 Q279.375,279.5117 278.75,279.5117 Q277.9844,279.5117 277.3438,279.8398 Q276.7188,280.168 276.2188,280.918 Q275.7344,281.668 275.7344,282.6992 L275.7344,283.793 Q275.7344,285.0273 276.625,285.8555 Q277.5156,286.668 279.1094,286.668 Q280.0469,286.668 280.7031,286.418 Q281.0938,286.2617 281.5156,285.8242 Q281.7813,285.5586 281.9219,285.4805 Q282.0781,285.4023 282.2813,285.4023 Q282.6094,285.4023 282.8594,285.668 Q283.125,285.918 283.125,286.2617 Q283.125,286.6055 282.7813,287.0117 Q282.2813,287.5898 281.4844,287.918 Q280.4063,288.3711 279.1094,288.3711 Q277.5938,288.3711 276.3906,287.7461 Q275.4063,287.2461 274.7188,286.1836 Q274.0313,285.1055 274.0313,283.8242 L274.0313,282.668 Q274.0313,281.3398 274.6406,280.1992 Q275.2656,279.043 276.3594,278.4336 Q277.4531,277.8086 278.6875,277.8086 Q279.4219,277.8086 280.0625,277.9805 Q280.7188,278.1367 281.2656,278.4961 Z " fill="#000000"/><text fill="#000000" font-family="sans-serif" font-size="14" lengthAdjust="spacing" textLength="110" x="292.5" y="288.418">GreenSpaceDTO</text><line style="stroke:#181818;stroke-width:0.5;" x1="264.5" x2="404.5" y1="298.6211" y2="298.6211"/><text fill="#000000" font-family="sans-serif" font-size="14" lengthAdjust="spacing" textLength="40" x="269.5" y="317.7285">-name</text><text fill="#000000" font-family="sans-serif" font-size="14" lengthAdjust="spacing" textLength="56" x="269.5" y="336.3496">-address</text><text fill="#000000" font-family="sans-serif" font-size="14" lengthAdjust="spacing" textLength="34" x="269.5" y="354.9707">-area</text><text fill="#000000" font-family="sans-serif" font-size="14" lengthAdjust="spacing" textLength="32" x="269.5" y="373.5918">-type</text><text fill="#000000" font-family="sans-serif" font-size="14" lengthAdjust="spacing" textLength="69" x="269.5" y="392.2129">-emailGSM</text><line style="stroke:#181818;stroke-width:0.5;" x1="264.5" x2="404.5" y1="399.7266" y2="399.7266"/><text fill="#000000" font-family="sans-serif" font-size="14" lengthAdjust="spacing" textLength="67" x="269.5" y="418.834">+toString()</text><text fill="#000000" font-family="sans-serif" font-size="14" lengthAdjust="spacing" textLength="99" x="269.5" y="437.4551">+toStringLong()</text></g><!--class GSM--><g id="elem_GSM"><rect fill="#F1F1F1" height="48" id="GSM" rx="2.5" ry="2.5" style="stroke:#181818;stroke-width:0.5;" width="63" x="841" y="93.1211"/><ellipse cx="856" cy="109.1211" fill="#ADD1B2" rx="11" ry="11" style="stroke:#181818;stroke-width:1.0;"/><path d="M858.7656,104.9961 Q858.9219,104.7773 859.1094,104.668 Q859.2969,104.5586 859.5156,104.5586 Q859.8906,104.5586 860.125,104.8242 Q860.3594,105.0742 860.3594,105.6836 L860.3594,107.1367 Q860.3594,107.7461 860.125,108.0117 Q859.8906,108.2773 859.5156,108.2773 Q859.1719,108.2773 858.9688,108.0742 Q858.7656,107.8867 858.6563,107.3711 Q858.6094,107.0117 858.4219,106.8242 Q858.0938,106.4492 857.4844,106.2305 Q856.875,106.0117 856.25,106.0117 Q855.4844,106.0117 854.8438,106.3398 Q854.2188,106.668 853.7188,107.418 Q853.2344,108.168 853.2344,109.1992 L853.2344,110.293 Q853.2344,111.5273 854.125,112.3555 Q855.0156,113.168 856.6094,113.168 Q857.5469,113.168 858.2031,112.918 Q858.5938,112.7617 859.0156,112.3242 Q859.2813,112.0586 859.4219,111.9805 Q859.5781,111.9023 859.7813,111.9023 Q860.1094,111.9023 860.3594,112.168 Q860.625,112.418 860.625,112.7617 Q860.625,113.1055 860.2813,113.5117 Q859.7813,114.0898 858.9844,114.418 Q857.9063,114.8711 856.6094,114.8711 Q855.0938,114.8711 853.8906,114.2461 Q852.9063,113.7461 852.2188,112.6836 Q851.5313,111.6055 851.5313,110.3242 L851.5313,109.168 Q851.5313,107.8398 852.1406,106.6992 Q852.7656,105.543 853.8594,104.9336 Q854.9531,104.3086 856.1875,104.3086 Q856.9219,104.3086 857.5625,104.4805 Q858.2188,104.6367 858.7656,104.9961 Z " fill="#000000"/><text fill="#000000" font-family="sans-serif" font-size="14" lengthAdjust="spacing" textLength="31" x="870" y="114.918">GSM</text><line style="stroke:#181818;stroke-width:0.5;" x1="842" x2="903" y1="125.1211" y2="125.1211"/><line style="stroke:#181818;stroke-width:0.5;" x1="842" x2="903" y1="133.1211" y2="133.1211"/></g><!--link RegisterGreenSpaceUI to RegisterGreenSpaceController--><g id="link_RegisterGreenSpaceUI_RegisterGreenSpaceController"><path codeLine="88" d="M127.01,331.4511 C175.53,294.2311 263,227.1211 263,227.1211 C263,227.1211 405,227.1211 405,227.1211 C405,227.1211 422.9486,240.8132 451.6986,262.7332 " fill="none" id="RegisterGreenSpaceUI-to-RegisterGreenSpaceController" style="stroke:#181818;stroke-width:1.0;stroke-dasharray:7.0,7.0;"/><polygon fill="#181818" points="456.47,266.3711,451.7382,257.7334,452.4939,263.3395,446.8877,264.0952,456.47,266.3711" style="stroke:#181818;stroke-width:1.0;"/></g><!--link RegisterGreenSpaceUI to AuthenticationController--><g id="link_RegisterGreenSpaceUI_AuthenticationController"><path codeLine="89" d="M127.01,331.4511 C175.53,294.2311 263,227.1211 263,227.1211 C263,227.1211 706,227.1211 706,227.1211 C706,227.1211 755.2369,258.2074 807.7469,291.3674 " fill="none" id="RegisterGreenSpaceUI-to-AuthenticationController" style="stroke:#181818;stroke-width:1.0;stroke-dasharray:7.0,7.0;"/><polygon fill="#181818" points="812.82,294.5711,807.3461,286.3835,808.5924,291.9014,803.0745,293.1477,812.82,294.5711" style="stroke:#181818;stroke-width:1.0;"/></g><!--link RegisterGreenSpaceUI to GreenSpaceDTO--><g id="link_RegisterGreenSpaceUI_GreenSpaceDTO"><path codeLine="90" d="M184.16,355.6211 C210.19,355.6211 238.33,355.6211 263.14,355.6211 " fill="none" id="RegisterGreenSpaceUI-GreenSpaceDTO" style="stroke:#181818;stroke-width:1.0;"/><text fill="#000000" font-family="sans-serif" font-size="13" lengthAdjust="spacing" textLength="43" x="202.25" y="348.6494">creates</text><text fill="#000000" font-family="sans-serif" font-size="13" lengthAdjust="spacing" textLength="7" x="192.08" y="351.9314">1</text><text fill="#000000" font-family="sans-serif" font-size="13" lengthAdjust="spacing" textLength="5" x="250.5232" y="351.7699">*</text></g><!--link RegisterGreenSpaceController to Repositories--><g id="link_RegisterGreenSpaceController_Repositories"><path codeLine="91" d="M637.14,444.7111 C656.14,471.0011 673.0059,494.3579 690.4059,518.4379 " fill="none" id="RegisterGreenSpaceController-to-Repositories" style="stroke:#181818;stroke-width:1.0;stroke-dasharray:7.0,7.0;"/><polygon fill="#181818" points="693.92,523.3011,691.891,513.6635,690.9916,519.2484,685.4067,518.349,693.92,523.3011" style="stroke:#181818;stroke-width:1.0;"/><text fill="#000000" font-family="sans-serif" font-size="13" lengthAdjust="spacing" textLength="67" x="671.5" y="489.6494">repositories</text></g><!--link Repositories to GreenSpaceRepository--><g id="link_Repositories_GreenSpaceRepository"><path codeLine="92" d="M737.5,645.6411 C737.5,665.1911 737.5,680.8911 737.5,700.4511 " fill="none" id="Repositories-to-GreenSpaceRepository" style="stroke:#181818;stroke-width:1.0;"/><polygon fill="#181818" points="737.5,706.4511,741.5,697.4511,737.5,701.4511,733.5,697.4511,737.5,706.4511" style="stroke:#181818;stroke-width:1.0;"/><text fill="#000000" font-family="sans-serif" font-size="13" lengthAdjust="spacing" textLength="7" x="730.0953" y="695.4126">1</text></g><!--link Repositories to Repositories--><g id="link_Repositories_Repositories"><path codeLine="93" d="M836.55,568.3611 C856.9,570.1011 871.5,575.5211 871.5,584.6211 C871.5,593.7211 862.8782,598.6299 842.5282,600.3699 " fill="none" id="Repositories-to-Repositories" style="stroke:#181818;stroke-width:1.0;"/><polygon fill="#181818" points="836.55,600.8811,845.8581,604.0998,841.5318,600.4551,845.1765,596.1289,836.55,600.8811" style="stroke:#181818;stroke-width:1.0;"/><text fill="#000000" font-family="sans-serif" font-size="13" lengthAdjust="spacing" textLength="49" x="877.5" y="590.1494">instance</text></g><!--link RegisterGreenSpaceController to GreenSpaceMapper--><g id="link_RegisterGreenSpaceController_GreenSpaceMapper"><path codeLine="94" d="M689.83,266.3711 C718.42,244.4511 741,227.1211 741,227.1211 C741,227.1211 1247,227.1211 1247,227.1211 C1247,227.1211 1286.1264,263.6843 1324.1864,299.2543 " fill="none" id="RegisterGreenSpaceController-to-GreenSpaceMapper" style="stroke:#181818;stroke-width:1.0;stroke-dasharray:7.0,7.0;"/><polygon fill="#181818" points="1328.57,303.3511,1324.7258,294.2835,1324.917,299.9371,1319.2634,300.1283,1328.57,303.3511" style="stroke:#181818;stroke-width:1.0;"/></g><!--link RegisterGreenSpaceController to GreenSpaceRepository--><g id="link_RegisterGreenSpaceController_GreenSpaceRepository"><path codeLine="95" d="M578.69,444.9011 C583.69,529.8911 590.5,645.6211 590.5,645.6211 C590.5,645.6211 622.9072,672.2983 659.7972,702.6583 " fill="none" id="RegisterGreenSpaceController-to-GreenSpaceRepository" style="stroke:#181818;stroke-width:1.0;"/><polygon fill="#181818" points="664.43,706.4711,660.0226,697.6634,660.5693,703.2938,654.9389,703.8405,664.43,706.4711" style="stroke:#181818;stroke-width:1.0;"/><text fill="#000000" font-family="sans-serif" font-size="13" lengthAdjust="spacing" textLength="28" x="591.5" y="590.1494">uses</text></g><!--link AuthenticationController to AuthenticationRepository--><g id="link_AuthenticationController_AuthenticationRepository"><path codeLine="96" d="M951.69,416.8611 C974.78,449.8211 999.8677,485.6368 1022.9477,518.5868 " fill="none" id="AuthenticationController-to-AuthenticationRepository" style="stroke:#181818;stroke-width:1.0;"/><polygon fill="#181818" points="1026.39,523.5011,1024.5028,513.8347,1023.5214,519.4058,1017.9504,518.4244,1026.39,523.5011" style="stroke:#181818;stroke-width:1.0;"/><text fill="#000000" font-family="sans-serif" font-size="13" lengthAdjust="spacing" textLength="28" x="1004.5" y="489.6494">uses</text></g><!--reverse link SystemUser to GSM--><g id="link_SystemUser_GSM"><path codeLine="98" d="M824.04,117.1211 C835.65,117.1211 832.5,117.1211 832.5,117.1211 C832.5,117.1211 836.03,117.1211 840.98,117.1211 " fill="none" id="SystemUser-backto-GSM" style="stroke:#181818;stroke-width:1.0;"/><polygon fill="none" points="806.04,117.1211,824.04,123.1211,824.04,111.1211,806.04,117.1211" style="stroke:#181818;stroke-width:1.0;"/></g><!--link GSM to RegisterGreenSpaceUI--><g id="link_GSM_RegisterGreenSpaceUI"><path codeLine="100" d="M856.18,141.2611 C841.93,161.4811 823.5,187.6211 823.5,187.6211 C823.5,187.6211 245.5,266.6211 245.5,266.6211 C245.5,266.6211 179.35,305.4311 134.91,331.5011 " fill="none" id="GSM-RegisterGreenSpaceUI" style="stroke:#181818;stroke-width:1.0;"/><text fill="#000000" font-family="sans-serif" font-size="13" lengthAdjust="spacing" textLength="7" x="844.3489" y="163.2809">1</text><text fill="#000000" font-family="sans-serif" font-size="13" lengthAdjust="spacing" textLength="7" x="137.1119" y="320.2078">1</text></g><!--reverse link GreenSpace to GreenSpaceRepository--><g id="link_GreenSpace_GreenSpaceRepository"><path codeLine="101" d="M1255.0634,193.5411 C1231.4334,336.7811 1180.5,645.6211 1180.5,645.6211 C1180.5,645.6211 986.29,698.6711 855.05,734.5111 " fill="none" id="GreenSpace-backto-GreenSpaceRepository" style="stroke:#181818;stroke-width:1.0;"/><polygon fill="#181818" points="1256.04,187.6211,1250.6284,195.85,1255.2262,192.5544,1258.5217,197.1521,1256.04,187.6211" style="stroke:#181818;stroke-width:1.0;"/><text fill="#000000" font-family="sans-serif" font-size="13" lengthAdjust="spacing" textLength="36" x="1209.5" y="489.6494">stores</text><text fill="#000000" font-family="sans-serif" font-size="13" lengthAdjust="spacing" textLength="5" x="1249.6004" y="209.8059">*</text><text fill="#000000" font-family="sans-serif" font-size="13" lengthAdjust="spacing" textLength="7" x="863.183" y="728.7372">1</text></g><!--reverse link GSM to AuthenticationRepository--><g id="link_GSM_AuthenticationRepository"><path codeLine="102" d="M909.297,142.7372 C970.677,183.7972 1094.5,266.6211 1094.5,266.6211 C1094.5,266.6211 1094.5,444.6211 1094.5,444.6211 C1094.5,444.6211 1086.78,485.8911 1079.75,523.4611 " fill="none" id="GSM-backto-AuthenticationRepository" style="stroke:#181818;stroke-width:1.0;"/><polygon fill="#181818" points="904.31,139.4011,909.5665,147.7299,908.4659,142.1812,914.0146,141.0805,904.31,139.4011" style="stroke:#181818;stroke-width:1.0;"/><text fill="#000000" font-family="sans-serif" font-size="13" lengthAdjust="spacing" textLength="36" x="1095.5" y="361.1494">stores</text><text fill="#000000" font-family="sans-serif" font-size="13" lengthAdjust="spacing" textLength="5" x="911.8153" y="139.4756">*</text><text fill="#000000" font-family="sans-serif" font-size="13" lengthAdjust="spacing" textLength="7" x="1073.6461" y="512.4238">1</text></g><!--reverse link GreenSpace to GreenSpaceMapper--><g id="link_GreenSpace_GreenSpaceMapper"><path codeLine="103" d="M1304.6312,193.1786 C1322.9712,230.2386 1342.45,269.6211 1359.18,303.4511 " fill="none" id="GreenSpace-backto-GreenSpaceMapper" style="stroke:#181818;stroke-width:1.0;"/><polygon fill="#181818" points="1301.97,187.8011,1302.3768,197.6415,1304.1877,192.2824,1309.5468,194.0933,1301.97,187.8011" style="stroke:#181818;stroke-width:1.0;"/><text fill="#000000" font-family="sans-serif" font-size="13" lengthAdjust="spacing" textLength="43" x="1326.5" y="232.6494">creates</text><text fill="#000000" font-family="sans-serif" font-size="13" lengthAdjust="spacing" textLength="5" x="1300.117" y="209.6328">*</text><text fill="#000000" font-family="sans-serif" font-size="13" lengthAdjust="spacing" textLength="7" x="1348.3073" y="292.3556">1</text></g><!--SRC=[fLNRRjim37tNLmXvIXQes5w38a2HT46050FcvWCqctE4Ef8doIYyhly-MdOi-Te1oqD2chV3GvenBqBcNFChZJDkp8ErMlmeB1nZ9IFn6-XdObgNdCSlF8N8bXbG3R7bCiqWS30NdgXN8LFwasScj6H2WYrpeBdAoaeXn0gBQNPLMReNF4KtGXmAUj00Ci9oy4OeVfZaLwWbdYGQZ6aK3RoMgjor15SkiaFqHDu9kUMBIcFXUZQWQPsmpUUydPIZuwlIIQrS549y9qD0to5NHbYbooOLesbhF0bZtSCrJS4UEi-NgyQY8KKLj3SlVORL8EVHdANuLNITFB8MZm0pWiZ39Oqj36Wn8TgZD3XF1BCQwy3dMRhgVLgUU9wtxAwfLVldRuEsgkUF4kTU1YPqzDQzLOwhBgNTVllixPIqMcLPMvwDjj-pr83_PIG1m0ubpxXodS5sh1Xb0YkRN0WsGxHdUjZs-OZjUeU7mbu0kOsv5KfwJju8wzc23UOJ1kAQsHLQexLwRHwhrmG1hMcYJYeLqikgiE5AJDMwuVZAOvw0groB_r6hmpOMS6zrUo7gwr1V1dyLrbP5UEDaMcMzoIVbT4myolFTTdRj9eEcPZ8UiFYom6LOV5fq-w8R6cCZ5WoPtVqxXp8u1XjSQw-IZesnhQitjdSzpq5MqHoA3-1i1zTXFg22D7fcDxGmY7-AJ1SukU5DC0d-0Ux_C5fj0i6lcdJcViQ6GhpY9dFV-4u0DVYBrLpYm7i6tItYepBDVVMxy1S0]--></g></svg>