<?xml version="1.0" encoding="us-ascii" standalone="no"?><svg xmlns="http://www.w3.org/2000/svg" xmlns:xlink="http://www.w3.org/1999/xlink" contentStyleType="text/css" height="817px" preserveAspectRatio="none" style="width:1096px;height:817px;background:#FFFFFF;" version="1.1" viewBox="0 0 1096 817" width="1096px" zoomAndPan="magnify"><defs/><g><text fill="#000000" font-family="sans-serif" font-size="14" font-weight="bold" lengthAdjust="spacing" textLength="99" x="491.75" y="25.1074">Class Diagram</text><!--class GreenSpace--><g id="elem_GreenSpace"><rect codeLine="8" fill="#F1F1F1" height="122.4844" id="GreenSpace" rx="2.5" ry="2.5" style="stroke:#181818;stroke-width:0.5;" width="112" x="977.5" y="46.6211"/><ellipse cx="992.5" cy="62.6211" fill="#ADD1B2" rx="11" ry="11" style="stroke:#181818;stroke-width:1.0;"/><path d="M995.2656,58.4961 Q995.4219,58.2773 995.6094,58.168 Q995.7969,58.0586 996.0156,58.0586 Q996.3906,58.0586 996.625,58.3242 Q996.8594,58.5742 996.8594,59.1836 L996.8594,60.6367 Q996.8594,61.2461 996.625,61.5117 Q996.3906,61.7773 996.0156,61.7773 Q995.6719,61.7773 995.4688,61.5742 Q995.2656,61.3867 995.1563,60.8711 Q995.1094,60.5117 994.9219,60.3242 Q994.5938,59.9492 993.9844,59.7305 Q993.375,59.5117 992.75,59.5117 Q991.9844,59.5117 991.3438,59.8398 Q990.7188,60.168 990.2188,60.918 Q989.7344,61.668 989.7344,62.6992 L989.7344,63.793 Q989.7344,65.0273 990.625,65.8555 Q991.5156,66.668 993.1094,66.668 Q994.0469,66.668 994.7031,66.418 Q995.0938,66.2617 995.5156,65.8242 Q995.7813,65.5586 995.9219,65.4805 Q996.0781,65.4023 996.2813,65.4023 Q996.6094,65.4023 996.8594,65.668 Q997.125,65.918 997.125,66.2617 Q997.125,66.6055 996.7813,67.0117 Q996.2813,67.5898 995.4844,67.918 Q994.4063,68.3711 993.1094,68.3711 Q991.5938,68.3711 990.3906,67.7461 Q989.4063,67.2461 988.7188,66.1836 Q988.0313,65.1055 988.0313,63.8242 L988.0313,62.668 Q988.0313,61.3398 988.6406,60.1992 Q989.2656,59.043 990.3594,58.4336 Q991.4531,57.8086 992.6875,57.8086 Q993.4219,57.8086 994.0625,57.9805 Q994.7188,58.1367 995.2656,58.4961 Z " fill="#000000"/><text fill="#000000" font-family="sans-serif" font-size="14" lengthAdjust="spacing" textLength="80" x="1006.5" y="68.418">GreenSpace</text><line style="stroke:#181818;stroke-width:0.5;" x1="978.5" x2="1088.5" y1="78.6211" y2="78.6211"/><text fill="#000000" font-family="sans-serif" font-size="14" lengthAdjust="spacing" textLength="40" x="983.5" y="97.7285">-name</text><text fill="#000000" font-family="sans-serif" font-size="14" lengthAdjust="spacing" textLength="56" x="983.5" y="116.3496">-address</text><text fill="#000000" font-family="sans-serif" font-size="14" lengthAdjust="spacing" textLength="34" x="983.5" y="134.9707">-area</text><text fill="#000000" font-family="sans-serif" font-size="14" lengthAdjust="spacing" textLength="32" x="983.5" y="153.5918">-type</text><line style="stroke:#181818;stroke-width:0.5;" x1="978.5" x2="1088.5" y1="161.1055" y2="161.1055"/></g><!--class SystemUser--><g id="elem_SystemUser"><rect codeLine="17" fill="#F1F1F1" height="122.4844" id="SystemUser" rx="2.5" ry="2.5" style="stroke:#181818;stroke-width:0.5;" width="107" x="7" y="46.6211"/><ellipse cx="22" cy="62.6211" fill="#ADD1B2" rx="11" ry="11" style="stroke:#181818;stroke-width:1.0;"/><path d="M24.7656,58.4961 Q24.9219,58.2773 25.1094,58.168 Q25.2969,58.0586 25.5156,58.0586 Q25.8906,58.0586 26.125,58.3242 Q26.3594,58.5742 26.3594,59.1836 L26.3594,60.6367 Q26.3594,61.2461 26.125,61.5117 Q25.8906,61.7773 25.5156,61.7773 Q25.1719,61.7773 24.9688,61.5742 Q24.7656,61.3867 24.6563,60.8711 Q24.6094,60.5117 24.4219,60.3242 Q24.0938,59.9492 23.4844,59.7305 Q22.875,59.5117 22.25,59.5117 Q21.4844,59.5117 20.8438,59.8398 Q20.2188,60.168 19.7188,60.918 Q19.2344,61.668 19.2344,62.6992 L19.2344,63.793 Q19.2344,65.0273 20.125,65.8555 Q21.0156,66.668 22.6094,66.668 Q23.5469,66.668 24.2031,66.418 Q24.5938,66.2617 25.0156,65.8242 Q25.2813,65.5586 25.4219,65.4805 Q25.5781,65.4023 25.7813,65.4023 Q26.1094,65.4023 26.3594,65.668 Q26.625,65.918 26.625,66.2617 Q26.625,66.6055 26.2813,67.0117 Q25.7813,67.5898 24.9844,67.918 Q23.9063,68.3711 22.6094,68.3711 Q21.0938,68.3711 19.8906,67.7461 Q18.9063,67.2461 18.2188,66.1836 Q17.5313,65.1055 17.5313,63.8242 L17.5313,62.668 Q17.5313,61.3398 18.1406,60.1992 Q18.7656,59.043 19.8594,58.4336 Q20.9531,57.8086 22.1875,57.8086 Q22.9219,57.8086 23.5625,57.9805 Q24.2188,58.1367 24.7656,58.4961 Z " fill="#000000"/><text fill="#000000" font-family="sans-serif" font-size="14" lengthAdjust="spacing" textLength="75" x="36" y="68.418">SystemUser</text><line style="stroke:#181818;stroke-width:0.5;" x1="8" x2="113" y1="78.6211" y2="78.6211"/><text fill="#000000" font-family="sans-serif" font-size="14" lengthAdjust="spacing" textLength="35" x="13" y="97.7285">name</text><text fill="#000000" font-family="sans-serif" font-size="14" lengthAdjust="spacing" textLength="33" x="13" y="116.3496">email</text><text fill="#000000" font-family="sans-serif" font-size="14" lengthAdjust="spacing" textLength="60" x="13" y="134.9707">password</text><text fill="#000000" font-family="sans-serif" font-size="14" lengthAdjust="spacing" textLength="40" x="13" y="153.5918">phone</text><line style="stroke:#181818;stroke-width:0.5;" x1="8" x2="113" y1="161.1055" y2="161.1055"/></g><!--class GreenSpaceRepository--><g id="elem_GreenSpaceRepository"><rect codeLine="25" fill="#F1F1F1" height="122.4844" id="GreenSpaceRepository" rx="2.5" ry="2.5" style="stroke:#181818;stroke-width:0.5;" width="235" x="795" y="687.6211"/><ellipse cx="834.75" cy="703.6211" fill="#ADD1B2" rx="11" ry="11" style="stroke:#181818;stroke-width:1.0;"/><path d="M837.5156,699.4961 Q837.6719,699.2773 837.8594,699.168 Q838.0469,699.0586 838.2656,699.0586 Q838.6406,699.0586 838.875,699.3242 Q839.1094,699.5742 839.1094,700.1836 L839.1094,701.6367 Q839.1094,702.2461 838.875,702.5117 Q838.6406,702.7773 838.2656,702.7773 Q837.9219,702.7773 837.7188,702.5742 Q837.5156,702.3867 837.4063,701.8711 Q837.3594,701.5117 837.1719,701.3242 Q836.8438,700.9492 836.2344,700.7305 Q835.625,700.5117 835,700.5117 Q834.2344,700.5117 833.5938,700.8398 Q832.9688,701.168 832.4688,701.918 Q831.9844,702.668 831.9844,703.6992 L831.9844,704.793 Q831.9844,706.0273 832.875,706.8555 Q833.7656,707.668 835.3594,707.668 Q836.2969,707.668 836.9531,707.418 Q837.3438,707.2617 837.7656,706.8242 Q838.0313,706.5586 838.1719,706.4805 Q838.3281,706.4023 838.5313,706.4023 Q838.8594,706.4023 839.1094,706.668 Q839.375,706.918 839.375,707.2617 Q839.375,707.6055 839.0313,708.0117 Q838.5313,708.5898 837.7344,708.918 Q836.6563,709.3711 835.3594,709.3711 Q833.8438,709.3711 832.6406,708.7461 Q831.6563,708.2461 830.9688,707.1836 Q830.2813,706.1055 830.2813,704.8242 L830.2813,703.668 Q830.2813,702.3398 830.8906,701.1992 Q831.5156,700.043 832.6094,699.4336 Q833.7031,698.8086 834.9375,698.8086 Q835.6719,698.8086 836.3125,698.9805 Q836.9688,699.1367 837.5156,699.4961 Z " fill="#000000"/><text fill="#000000" font-family="sans-serif" font-size="14" lengthAdjust="spacing" textLength="148" x="854.25" y="709.418">GreenSpaceRepository</text><line style="stroke:#181818;stroke-width:0.5;" x1="796" x2="1029" y1="719.6211" y2="719.6211"/><text fill="#000000" font-family="sans-serif" font-size="14" lengthAdjust="spacing" textLength="104" x="801" y="738.7285">-greenSpaceList</text><line style="stroke:#181818;stroke-width:0.5;" x1="796" x2="1029" y1="746.2422" y2="746.2422"/><text fill="#000000" font-family="sans-serif" font-size="14" lengthAdjust="spacing" textLength="140" x="801" y="765.3496">+getGreenSpaceList()</text><text fill="#000000" font-family="sans-serif" font-size="14" lengthAdjust="spacing" textLength="223" x="801" y="783.9707">+registerGreenSpace(greenSpace)</text><text fill="#000000" font-family="sans-serif" font-size="14" lengthAdjust="spacing" textLength="223" x="801" y="802.5918">-greenSpaceIsUnique(greenSpace)</text></g><!--class Repositories--><g id="elem_Repositories"><rect codeLine="33" fill="#F1F1F1" height="122.4844" id="Repositories" rx="2.5" ry="2.5" style="stroke:#181818;stroke-width:0.5;" width="198" x="565.5" y="504.6211"/><ellipse cx="620.75" cy="520.6211" fill="#ADD1B2" rx="11" ry="11" style="stroke:#181818;stroke-width:1.0;"/><path d="M623.5156,516.4961 Q623.6719,516.2773 623.8594,516.168 Q624.0469,516.0586 624.2656,516.0586 Q624.6406,516.0586 624.875,516.3242 Q625.1094,516.5742 625.1094,517.1836 L625.1094,518.6367 Q625.1094,519.2461 624.875,519.5117 Q624.6406,519.7773 624.2656,519.7773 Q623.9219,519.7773 623.7188,519.5742 Q623.5156,519.3867 623.4063,518.8711 Q623.3594,518.5117 623.1719,518.3242 Q622.8438,517.9492 622.2344,517.7305 Q621.625,517.5117 621,517.5117 Q620.2344,517.5117 619.5938,517.8398 Q618.9688,518.168 618.4688,518.918 Q617.9844,519.668 617.9844,520.6992 L617.9844,521.793 Q617.9844,523.0273 618.875,523.8555 Q619.7656,524.668 621.3594,524.668 Q622.2969,524.668 622.9531,524.418 Q623.3438,524.2617 623.7656,523.8242 Q624.0313,523.5586 624.1719,523.4805 Q624.3281,523.4023 624.5313,523.4023 Q624.8594,523.4023 625.1094,523.668 Q625.375,523.918 625.375,524.2617 Q625.375,524.6055 625.0313,525.0117 Q624.5313,525.5898 623.7344,525.918 Q622.6563,526.3711 621.3594,526.3711 Q619.8438,526.3711 618.6406,525.7461 Q617.6563,525.2461 616.9688,524.1836 Q616.2813,523.1055 616.2813,521.8242 L616.2813,520.668 Q616.2813,519.3398 616.8906,518.1992 Q617.5156,517.043 618.6094,516.4336 Q619.7031,515.8086 620.9375,515.8086 Q621.6719,515.8086 622.3125,515.9805 Q622.9688,516.1367 623.5156,516.4961 Z " fill="#000000"/><text fill="#000000" font-family="sans-serif" font-size="14" lengthAdjust="spacing" textLength="79" x="641.25" y="526.418">Repositories</text><line style="stroke:#181818;stroke-width:0.5;" x1="566.5" x2="762.5" y1="536.6211" y2="536.6211"/><text fill="#000000" font-family="sans-serif" font-size="14" lengthAdjust="spacing" textLength="150" x="571.5" y="555.7285">-greenSpaceRepository</text><line style="stroke:#181818;stroke-width:0.5;" x1="566.5" x2="762.5" y1="563.2422" y2="563.2422"/><text fill="#000000" font-family="sans-serif" font-size="14" lengthAdjust="spacing" textLength="94" x="571.5" y="582.3496">-Repositories()</text><text fill="#000000" font-family="sans-serif" font-size="14" lengthAdjust="spacing" textLength="91" x="571.5" y="600.9707">+getInstance()</text><text fill="#000000" font-family="sans-serif" font-size="14" lengthAdjust="spacing" textLength="186" x="571.5" y="619.5918">+getGreenSpaceRepository()</text></g><!--class GreenSpaceMapper--><g id="elem_GreenSpaceMapper"><rect codeLine="41" fill="#F1F1F1" height="103.8633" id="GreenSpaceMapper" rx="2.5" ry="2.5" style="stroke:#181818;stroke-width:0.5;" width="185" x="832" y="284.6211"/><ellipse cx="858.25" cy="300.6211" fill="#ADD1B2" rx="11" ry="11" style="stroke:#181818;stroke-width:1.0;"/><path d="M861.0156,296.4961 Q861.1719,296.2773 861.3594,296.168 Q861.5469,296.0586 861.7656,296.0586 Q862.1406,296.0586 862.375,296.3242 Q862.6094,296.5742 862.6094,297.1836 L862.6094,298.6367 Q862.6094,299.2461 862.375,299.5117 Q862.1406,299.7773 861.7656,299.7773 Q861.4219,299.7773 861.2188,299.5742 Q861.0156,299.3867 860.9063,298.8711 Q860.8594,298.5117 860.6719,298.3242 Q860.3438,297.9492 859.7344,297.7305 Q859.125,297.5117 858.5,297.5117 Q857.7344,297.5117 857.0938,297.8398 Q856.4688,298.168 855.9688,298.918 Q855.4844,299.668 855.4844,300.6992 L855.4844,301.793 Q855.4844,303.0273 856.375,303.8555 Q857.2656,304.668 858.8594,304.668 Q859.7969,304.668 860.4531,304.418 Q860.8438,304.2617 861.2656,303.8242 Q861.5313,303.5586 861.6719,303.4805 Q861.8281,303.4023 862.0313,303.4023 Q862.3594,303.4023 862.6094,303.668 Q862.875,303.918 862.875,304.2617 Q862.875,304.6055 862.5313,305.0117 Q862.0313,305.5898 861.2344,305.918 Q860.1563,306.3711 858.8594,306.3711 Q857.3438,306.3711 856.1406,305.7461 Q855.1563,305.2461 854.4688,304.1836 Q853.7813,303.1055 853.7813,301.8242 L853.7813,300.668 Q853.7813,299.3398 854.3906,298.1992 Q855.0156,297.043 856.1094,296.4336 Q857.2031,295.8086 858.4375,295.8086 Q859.1719,295.8086 859.8125,295.9805 Q860.4688,296.1367 861.0156,296.4961 Z " fill="#000000"/><text fill="#000000" font-family="sans-serif" font-size="14" lengthAdjust="spacing" textLength="128" x="874.75" y="306.418">GreenSpaceMapper</text><line style="stroke:#181818;stroke-width:0.5;" x1="833" x2="1016" y1="316.6211" y2="316.6211"/><line style="stroke:#181818;stroke-width:0.5;" x1="833" x2="1016" y1="324.6211" y2="324.6211"/><text fill="#000000" font-family="sans-serif" font-size="14" lengthAdjust="spacing" textLength="137" x="838" y="343.7285">+toDTO(greenSpace)</text><text fill="#000000" font-family="sans-serif" font-size="14" lengthAdjust="spacing" textLength="172" x="838" y="362.3496">+toEntity(greenSpaceDTO)</text><text fill="#000000" font-family="sans-serif" font-size="14" lengthAdjust="spacing" textLength="173" x="838" y="380.9707">+toDtoList(greenSpaceList)</text></g><!--class RegisterGreenSpaceController--><g id="elem_RegisterGreenSpaceController"><rect codeLine="48" fill="#F1F1F1" height="178.3477" id="RegisterGreenSpaceController" rx="2.5" ry="2.5" style="stroke:#181818;stroke-width:0.5;" width="265" x="532" y="247.6211"/><ellipse cx="564.1" cy="263.6211" fill="#ADD1B2" rx="11" ry="11" style="stroke:#181818;stroke-width:1.0;"/><path d="M566.8656,259.4961 Q567.0219,259.2773 567.2094,259.168 Q567.3969,259.0586 567.6156,259.0586 Q567.9906,259.0586 568.225,259.3242 Q568.4594,259.5742 568.4594,260.1836 L568.4594,261.6367 Q568.4594,262.2461 568.225,262.5117 Q567.9906,262.7773 567.6156,262.7773 Q567.2719,262.7773 567.0688,262.5742 Q566.8656,262.3867 566.7563,261.8711 Q566.7094,261.5117 566.5219,261.3242 Q566.1938,260.9492 565.5844,260.7305 Q564.975,260.5117 564.35,260.5117 Q563.5844,260.5117 562.9438,260.8398 Q562.3188,261.168 561.8188,261.918 Q561.3344,262.668 561.3344,263.6992 L561.3344,264.793 Q561.3344,266.0273 562.225,266.8555 Q563.1156,267.668 564.7094,267.668 Q565.6469,267.668 566.3031,267.418 Q566.6938,267.2617 567.1156,266.8242 Q567.3813,266.5586 567.5219,266.4805 Q567.6781,266.4023 567.8813,266.4023 Q568.2094,266.4023 568.4594,266.668 Q568.725,266.918 568.725,267.2617 Q568.725,267.6055 568.3813,268.0117 Q567.8813,268.5898 567.0844,268.918 Q566.0063,269.3711 564.7094,269.3711 Q563.1938,269.3711 561.9906,268.7461 Q561.0063,268.2461 560.3188,267.1836 Q559.6313,266.1055 559.6313,264.8242 L559.6313,263.668 Q559.6313,262.3398 560.2406,261.1992 Q560.8656,260.043 561.9594,259.4336 Q563.0531,258.8086 564.2875,258.8086 Q565.0219,258.8086 565.6625,258.9805 Q566.3188,259.1367 566.8656,259.4961 Z " fill="#000000"/><text fill="#000000" font-family="sans-serif" font-size="14" lengthAdjust="spacing" textLength="195" x="581.9" y="269.418">RegisterGreenSpaceController</text><line style="stroke:#181818;stroke-width:0.5;" x1="533" x2="796" y1="279.6211" y2="279.6211"/><text fill="#000000" font-family="sans-serif" font-size="14" lengthAdjust="spacing" textLength="150" x="538" y="298.7285">-greenSpaceRepository</text><text fill="#000000" font-family="sans-serif" font-size="14" lengthAdjust="spacing" textLength="130" x="538" y="317.3496">-greenSpaceMapper</text><line style="stroke:#181818;stroke-width:0.5;" x1="533" x2="796" y1="324.8633" y2="324.8633"/><text fill="#000000" font-family="sans-serif" font-size="14" lengthAdjust="spacing" textLength="253" x="538" y="343.9707">+registerGreenSpace(greenSpaceDTO)</text><text fill="#000000" font-family="sans-serif" font-size="14" lengthAdjust="spacing" textLength="172" x="538" y="362.5918">+getGreenSpaceTypeList()</text><text fill="#000000" font-family="sans-serif" font-size="14" lengthAdjust="spacing" textLength="177" x="538" y="381.2129">+getGreenSpaceDTOsList()</text><text fill="#000000" font-family="sans-serif" font-size="14" lengthAdjust="spacing" textLength="137" x="538" y="399.834">-getGreenSpaceList()</text><text fill="#000000" font-family="sans-serif" font-size="14" lengthAdjust="spacing" textLength="183" x="538" y="418.4551">-getGreenSpaceRepository()</text></g><!--class RegisterGreenSpaceGUI--><g id="elem_RegisterGreenSpaceGUI"><rect codeLine="59" fill="#F1F1F1" height="48" id="RegisterGreenSpaceGUI" rx="2.5" ry="2.5" style="stroke:#181818;stroke-width:0.5;" width="188" x="86.5" y="312.6211"/><ellipse cx="101.5" cy="328.6211" fill="#ADD1B2" rx="11" ry="11" style="stroke:#181818;stroke-width:1.0;"/><path d="M104.2656,324.4961 Q104.4219,324.2773 104.6094,324.168 Q104.7969,324.0586 105.0156,324.0586 Q105.3906,324.0586 105.625,324.3242 Q105.8594,324.5742 105.8594,325.1836 L105.8594,326.6367 Q105.8594,327.2461 105.625,327.5117 Q105.3906,327.7773 105.0156,327.7773 Q104.6719,327.7773 104.4688,327.5742 Q104.2656,327.3867 104.1563,326.8711 Q104.1094,326.5117 103.9219,326.3242 Q103.5938,325.9492 102.9844,325.7305 Q102.375,325.5117 101.75,325.5117 Q100.9844,325.5117 100.3438,325.8398 Q99.7188,326.168 99.2188,326.918 Q98.7344,327.668 98.7344,328.6992 L98.7344,329.793 Q98.7344,331.0273 99.625,331.8555 Q100.5156,332.668 102.1094,332.668 Q103.0469,332.668 103.7031,332.418 Q104.0938,332.2617 104.5156,331.8242 Q104.7813,331.5586 104.9219,331.4805 Q105.0781,331.4023 105.2813,331.4023 Q105.6094,331.4023 105.8594,331.668 Q106.125,331.918 106.125,332.2617 Q106.125,332.6055 105.7813,333.0117 Q105.2813,333.5898 104.4844,333.918 Q103.4063,334.3711 102.1094,334.3711 Q100.5938,334.3711 99.3906,333.7461 Q98.4063,333.2461 97.7188,332.1836 Q97.0313,331.1055 97.0313,329.8242 L97.0313,328.668 Q97.0313,327.3398 97.6406,326.1992 Q98.2656,325.043 99.3594,324.4336 Q100.4531,323.8086 101.6875,323.8086 Q102.4219,323.8086 103.0625,323.9805 Q103.7188,324.1367 104.2656,324.4961 Z " fill="#000000"/><text fill="#000000" font-family="sans-serif" font-size="14" lengthAdjust="spacing" textLength="156" x="115.5" y="334.418">RegisterGreenSpaceGUI</text><line style="stroke:#181818;stroke-width:0.5;" x1="87.5" x2="273.5" y1="344.6211" y2="344.6211"/><line style="stroke:#181818;stroke-width:0.5;" x1="87.5" x2="273.5" y1="352.6211" y2="352.6211"/></g><!--class GreenSpaceDTO--><g id="elem_GreenSpaceDTO"><rect codeLine="63" fill="#F1F1F1" height="159.7266" id="GreenSpaceDTO" rx="2.5" ry="2.5" style="stroke:#181818;stroke-width:0.5;" width="142" x="354.5" y="256.6211"/><ellipse cx="369.5" cy="272.6211" fill="#ADD1B2" rx="11" ry="11" style="stroke:#181818;stroke-width:1.0;"/><path d="M372.2656,268.4961 Q372.4219,268.2773 372.6094,268.168 Q372.7969,268.0586 373.0156,268.0586 Q373.3906,268.0586 373.625,268.3242 Q373.8594,268.5742 373.8594,269.1836 L373.8594,270.6367 Q373.8594,271.2461 373.625,271.5117 Q373.3906,271.7773 373.0156,271.7773 Q372.6719,271.7773 372.4688,271.5742 Q372.2656,271.3867 372.1563,270.8711 Q372.1094,270.5117 371.9219,270.3242 Q371.5938,269.9492 370.9844,269.7305 Q370.375,269.5117 369.75,269.5117 Q368.9844,269.5117 368.3438,269.8398 Q367.7188,270.168 367.2188,270.918 Q366.7344,271.668 366.7344,272.6992 L366.7344,273.793 Q366.7344,275.0273 367.625,275.8555 Q368.5156,276.668 370.1094,276.668 Q371.0469,276.668 371.7031,276.418 Q372.0938,276.2617 372.5156,275.8242 Q372.7813,275.5586 372.9219,275.4805 Q373.0781,275.4023 373.2813,275.4023 Q373.6094,275.4023 373.8594,275.668 Q374.125,275.918 374.125,276.2617 Q374.125,276.6055 373.7813,277.0117 Q373.2813,277.5898 372.4844,277.918 Q371.4063,278.3711 370.1094,278.3711 Q368.5938,278.3711 367.3906,277.7461 Q366.4063,277.2461 365.7188,276.1836 Q365.0313,275.1055 365.0313,273.8242 L365.0313,272.668 Q365.0313,271.3398 365.6406,270.1992 Q366.2656,269.043 367.3594,268.4336 Q368.4531,267.8086 369.6875,267.8086 Q370.4219,267.8086 371.0625,267.9805 Q371.7188,268.1367 372.2656,268.4961 Z " fill="#000000"/><text fill="#000000" font-family="sans-serif" font-size="14" lengthAdjust="spacing" textLength="110" x="383.5" y="278.418">GreenSpaceDTO</text><line style="stroke:#181818;stroke-width:0.5;" x1="355.5" x2="495.5" y1="288.6211" y2="288.6211"/><text fill="#000000" font-family="sans-serif" font-size="14" lengthAdjust="spacing" textLength="40" x="360.5" y="307.7285">-name</text><text fill="#000000" font-family="sans-serif" font-size="14" lengthAdjust="spacing" textLength="56" x="360.5" y="326.3496">-address</text><text fill="#000000" font-family="sans-serif" font-size="14" lengthAdjust="spacing" textLength="34" x="360.5" y="344.9707">-area</text><text fill="#000000" font-family="sans-serif" font-size="14" lengthAdjust="spacing" textLength="32" x="360.5" y="363.5918">-type</text><line style="stroke:#181818;stroke-width:0.5;" x1="355.5" x2="495.5" y1="371.1055" y2="371.1055"/><text fill="#000000" font-family="sans-serif" font-size="14" lengthAdjust="spacing" textLength="67" x="360.5" y="390.2129">+toString()</text><text fill="#000000" font-family="sans-serif" font-size="14" lengthAdjust="spacing" textLength="99" x="360.5" y="408.834">+toStringLong()</text></g><!--class GSM--><g id="elem_GSM"><rect fill="#F1F1F1" height="48" id="GSM" rx="2.5" ry="2.5" style="stroke:#181818;stroke-width:0.5;" width="63" x="149" y="83.6211"/><ellipse cx="164" cy="99.6211" fill="#ADD1B2" rx="11" ry="11" style="stroke:#181818;stroke-width:1.0;"/><path d="M166.7656,95.4961 Q166.9219,95.2773 167.1094,95.168 Q167.2969,95.0586 167.5156,95.0586 Q167.8906,95.0586 168.125,95.3242 Q168.3594,95.5742 168.3594,96.1836 L168.3594,97.6367 Q168.3594,98.2461 168.125,98.5117 Q167.8906,98.7773 167.5156,98.7773 Q167.1719,98.7773 166.9688,98.5742 Q166.7656,98.3867 166.6563,97.8711 Q166.6094,97.5117 166.4219,97.3242 Q166.0938,96.9492 165.4844,96.7305 Q164.875,96.5117 164.25,96.5117 Q163.4844,96.5117 162.8438,96.8398 Q162.2188,97.168 161.7188,97.918 Q161.2344,98.668 161.2344,99.6992 L161.2344,100.793 Q161.2344,102.0273 162.125,102.8555 Q163.0156,103.668 164.6094,103.668 Q165.5469,103.668 166.2031,103.418 Q166.5938,103.2617 167.0156,102.8242 Q167.2813,102.5586 167.4219,102.4805 Q167.5781,102.4023 167.7813,102.4023 Q168.1094,102.4023 168.3594,102.668 Q168.625,102.918 168.625,103.2617 Q168.625,103.6055 168.2813,104.0117 Q167.7813,104.5898 166.9844,104.918 Q165.9063,105.3711 164.6094,105.3711 Q163.0938,105.3711 161.8906,104.7461 Q160.9063,104.2461 160.2188,103.1836 Q159.5313,102.1055 159.5313,100.8242 L159.5313,99.668 Q159.5313,98.3398 160.1406,97.1992 Q160.7656,96.043 161.8594,95.4336 Q162.9531,94.8086 164.1875,94.8086 Q164.9219,94.8086 165.5625,94.9805 Q166.2188,95.1367 166.7656,95.4961 Z " fill="#000000"/><text fill="#000000" font-family="sans-serif" font-size="14" lengthAdjust="spacing" textLength="31" x="178" y="105.418">GSM</text><line style="stroke:#181818;stroke-width:0.5;" x1="150" x2="211" y1="115.6211" y2="115.6211"/><line style="stroke:#181818;stroke-width:0.5;" x1="150" x2="211" y1="123.6211" y2="123.6211"/></g><!--link RegisterGreenSpaceGUI to RegisterGreenSpaceController--><g id="link_RegisterGreenSpaceGUI_RegisterGreenSpaceController"><path codeLine="72" d="M213.13,312.4511 C263.39,275.2311 354,208.1211 354,208.1211 C354,208.1211 496,208.1211 496,208.1211 C496,208.1211 513.9486,221.8132 542.6986,243.7332 " fill="none" id="RegisterGreenSpaceGUI-to-RegisterGreenSpaceController" style="stroke:#181818;stroke-width:1.0;stroke-dasharray:7.0,7.0;"/><polygon fill="#181818" points="547.47,247.3711,542.7382,238.7334,543.4939,244.3395,537.8877,245.0952,547.47,247.3711" style="stroke:#181818;stroke-width:1.0;"/></g><!--link RegisterGreenSpaceGUI to GreenSpaceDTO--><g id="link_RegisterGreenSpaceGUI_GreenSpaceDTO"><path codeLine="73" d="M274.52,336.6211 C300.97,336.6211 329.3,336.6211 354.18,336.6211 " fill="none" id="RegisterGreenSpaceGUI-GreenSpaceDTO" style="stroke:#181818;stroke-width:1.0;"/><text fill="#000000" font-family="sans-serif" font-size="13" lengthAdjust="spacing" textLength="43" x="293" y="329.6494">creates</text><text fill="#000000" font-family="sans-serif" font-size="13" lengthAdjust="spacing" textLength="7" x="282.5959" y="332.9576">1</text><text fill="#000000" font-family="sans-serif" font-size="13" lengthAdjust="spacing" textLength="5" x="341.5673" y="332.802">*</text></g><!--link RegisterGreenSpaceController to Repositories--><g id="link_RegisterGreenSpaceController_Repositories"><path codeLine="74" d="M664.5,425.7111 C664.5,452.0011 664.5,474.2211 664.5,498.3011 " fill="none" id="RegisterGreenSpaceController-to-Repositories" style="stroke:#181818;stroke-width:1.0;stroke-dasharray:7.0,7.0;"/><polygon fill="#181818" points="664.5,504.3011,668.5,495.3011,664.5,499.3011,660.5,495.3011,664.5,504.3011" style="stroke:#181818;stroke-width:1.0;"/><text fill="#000000" font-family="sans-serif" font-size="13" lengthAdjust="spacing" textLength="67" x="665.5" y="470.6494">repositories</text></g><!--link Repositories to GreenSpaceRepository--><g id="link_Repositories_GreenSpaceRepository"><path codeLine="75" d="M746.74,626.6411 C773.53,646.1911 798.4135,664.3539 825.2135,683.9139 " fill="none" id="Repositories-to-GreenSpaceRepository" style="stroke:#181818;stroke-width:1.0;"/><polygon fill="#181818" points="830.06,687.4511,825.1484,678.9143,826.0213,684.5034,820.4322,685.3763,830.06,687.4511" style="stroke:#181818;stroke-width:1.0;"/><text fill="#000000" font-family="sans-serif" font-size="13" lengthAdjust="spacing" textLength="7" x="813.1232" y="676.4126">1</text></g><!--link Repositories to Repositories--><g id="link_Repositories_Repositories"><path codeLine="76" d="M763.55,549.3611 C783.9,551.1011 798.5,556.5211 798.5,565.6211 C798.5,574.7211 789.8782,579.6299 769.5282,581.3699 " fill="none" id="Repositories-to-Repositories" style="stroke:#181818;stroke-width:1.0;"/><polygon fill="#181818" points="763.55,581.8811,772.8581,585.0998,768.5318,581.4551,772.1765,577.1289,763.55,581.8811" style="stroke:#181818;stroke-width:1.0;"/><text fill="#000000" font-family="sans-serif" font-size="13" lengthAdjust="spacing" textLength="49" x="804.5" y="571.1494">instance</text></g><!--link RegisterGreenSpaceController to GreenSpaceMapper--><g id="link_RegisterGreenSpaceController_GreenSpaceMapper"><path codeLine="77" d="M797.04,336.6211 C810.84,336.6211 818.3,336.6211 825.79,336.6211 " fill="none" id="RegisterGreenSpaceController-to-GreenSpaceMapper" style="stroke:#181818;stroke-width:1.0;stroke-dasharray:7.0,7.0;"/><polygon fill="#181818" points="831.79,336.6211,822.79,332.6211,826.79,336.6211,822.79,340.6211,831.79,336.6211" style="stroke:#181818;stroke-width:1.0;"/></g><!--link RegisterGreenSpaceController to GreenSpaceRepository--><g id="link_RegisterGreenSpaceController_GreenSpaceRepository"><path codeLine="78" d="M767.42,425.7711 C814.3,465.9111 859.5,504.6211 859.5,504.6211 C859.5,504.6211 882.421,609.729 898.121,681.689 " fill="none" id="RegisterGreenSpaceController-to-GreenSpaceRepository" style="stroke:#181818;stroke-width:1.0;"/><polygon fill="#181818" points="899.4,687.5511,901.3896,677.9053,898.3342,682.666,893.5735,679.6106,899.4,687.5511" style="stroke:#181818;stroke-width:1.0;"/><text fill="#000000" font-family="sans-serif" font-size="13" lengthAdjust="spacing" textLength="28" x="887.5" y="571.1494">uses</text></g><!--reverse link SystemUser to GSM--><g id="link_SystemUser_GSM"><path codeLine="80" d="M132.04,107.6211 C143.65,107.6211 140.5,107.6211 140.5,107.6211 C140.5,107.6211 144.03,107.6211 148.98,107.6211 " fill="none" id="SystemUser-backto-GSM" style="stroke:#181818;stroke-width:1.0;"/><polygon fill="none" points="114.04,107.6211,132.04,113.6211,132.04,101.6211,114.04,107.6211" style="stroke:#181818;stroke-width:1.0;"/></g><!--link GSM to RegisterGreenSpaceGUI--><g id="link_GSM_RegisterGreenSpaceGUI"><path codeLine="82" d="M180.5,131.6411 C180.5,175.1411 180.5,268.9911 180.5,312.5411 " fill="none" id="GSM-RegisterGreenSpaceGUI" style="stroke:#181818;stroke-width:1.0;"/><text fill="#000000" font-family="sans-serif" font-size="13" lengthAdjust="spacing" textLength="7" x="172.6469" y="153.6316">1</text><text fill="#000000" font-family="sans-serif" font-size="13" lengthAdjust="spacing" textLength="7" x="172.6031" y="301.2581">1</text></g><!--reverse link GreenSpace to GreenSpaceRepository--><g id="link_GreenSpace_GreenSpaceRepository"><path codeLine="83" d="M1039.3685,174.6278 C1040.8285,191.1378 1041.5,198.6211 1041.5,198.6211 C1041.5,198.6211 1041.5,217.6211 1041.5,217.6211 C1041.5,217.6211 1034.5,425.6211 1034.5,425.6211 C1034.5,425.6211 970.62,594.2311 935.3,687.4311 " fill="none" id="GreenSpace-backto-GreenSpaceRepository" style="stroke:#181818;stroke-width:1.0;"/><polygon fill="#181818" points="1038.84,168.6511,1035.6483,177.9685,1039.2804,173.6317,1043.6172,177.2638,1038.84,168.6511" style="stroke:#181818;stroke-width:1.0;"/><text fill="#000000" font-family="sans-serif" font-size="13" lengthAdjust="spacing" textLength="36" x="1023.5" y="470.6494">stores</text><text fill="#000000" font-family="sans-serif" font-size="13" lengthAdjust="spacing" textLength="5" x="1034.1861" y="191.1416">*</text><text fill="#000000" font-family="sans-serif" font-size="13" lengthAdjust="spacing" textLength="7" x="930.5316" y="676.3903">1</text></g><!--reverse link GreenSpace to GreenSpaceMapper--><g id="link_GreenSpace_GreenSpaceMapper"><path codeLine="84" d="M1001.983,174.27 C984.703,210.26 965.58,250.0711 949.12,284.3511 " fill="none" id="GreenSpace-backto-GreenSpaceMapper" style="stroke:#181818;stroke-width:1.0;"/><polygon fill="#181818" points="1004.58,168.8611,997.0786,175.2431,1002.4159,173.3685,1004.2904,178.7057,1004.58,168.8611" style="stroke:#181818;stroke-width:1.0;"/><text fill="#000000" font-family="sans-serif" font-size="13" lengthAdjust="spacing" textLength="43" x="989.5" y="213.6494">creates</text><text fill="#000000" font-family="sans-serif" font-size="13" lengthAdjust="spacing" textLength="5" x="995.9471" y="190.9419">*</text><text fill="#000000" font-family="sans-serif" font-size="13" lengthAdjust="spacing" textLength="7" x="944.958" y="273.2422">1</text></g><!--SRC=[ZLJRRjim37tNLmXvIXQew5w38i3G34605WNcvWCqXtM5Af8dAYYyhlzUMl8itvBM3xOeKeU7XwBnHPbIEddakPQ8FxntwlV9mowt9bD_WLypR4DAcR_80Z9VQU0ESYzDeQ4JWC_oO5-LAVYJrDZrQ6N0LoNmqkggDXZpoXFCRPsMRvGiA8onm89l7O39A1syCKwFCF88SIKF1mU8ZU50nbMDpTuP-u-GLUZXk4TmF4Aq272KIeTLIO6lrXsYyMnDH1XI-0MbHUMjgneemOlMUQVGXyqbBy1lU_lpHUDnK909Bhdd2M4nmjpXtgW_ftvGOjRoKO0JZ19TrlYw1rfEn7Pda3f8P1PJ5IISUSW-bELUbcMhxf9xktby69LLx_yqrEcguwB0vDru6xJgIzglTwZUhJNUMQtRz6Ao_84d4lvAIpe4Uv8yqYNhDRRdfLFOyOgp5q9S43efFIvxkzzHlLEzeDHlB0v9Eo1nEE9WBBtDQB1DGHdQzPqDDi5DfxfQNvJ-pAdPznaLEFiswzFZAvuJ7m_8BlRpAcJjNF0LjIgPhESJOXtoJMavY1oXgkRoVq9dFRhnbm_Kb2P_7Ij-GkBFEZ-cct-2RxDxnkWLTHFXCoaiIrPGzwO9FfCCwKlfFZtKJ77gpWS0]--></g></svg>