<?xml version="1.0" encoding="us-ascii" standalone="no"?><svg xmlns="http://www.w3.org/2000/svg" xmlns:xlink="http://www.w3.org/1999/xlink" contentStyleType="text/css" height="1066px" preserveAspectRatio="none" style="width:2075px;height:1066px;background:#FFFFFF;" version="1.1" viewBox="0 0 2075 1066" width="2075px" zoomAndPan="magnify"><defs/><g><rect fill="#FFFFFF" height="871.4395" style="stroke:#181818;stroke-width:1.0;" width="10" x="78.5" y="93.6211"/><rect fill="#FFFFFF" height="79.873" style="stroke:#181818;stroke-width:1.0;" width="10" x="482.5" y="116.9121"/><rect fill="#FFFFFF" height="31.291" style="stroke:#181818;stroke-width:1.0;" width="10" x="482.5" y="228.0762"/><rect fill="#FFFFFF" height="31.291" style="stroke:#181818;stroke-width:1.0;" width="10" x="482.5" y="353.2402"/><rect fill="#FFFFFF" height="31.291" style="stroke:#181818;stroke-width:1.0;" width="10" x="482.5" y="415.8223"/><rect fill="#FFFFFF" height="93.873" style="stroke:#181818;stroke-width:1.0;" width="10" x="482.5" y="478.4043"/><rect fill="#FFFFFF" height="31.291" style="stroke:#181818;stroke-width:1.0;" width="10" x="482.5" y="933.7695"/><rect fill="#FFFFFF" height="93.873" style="stroke:#181818;stroke-width:1.0;" width="10" x="747.5" y="259.3672"/><rect fill="#FFFFFF" height="31.291" style="stroke:#181818;stroke-width:1.0;" width="10" x="747.5" y="572.2773"/><rect fill="#FFFFFF" height="219.0371" style="stroke:#181818;stroke-width:1.0;" width="10" x="747.5" y="714.7324"/><rect fill="#FFFFFF" height="31.291" style="stroke:#181818;stroke-width:1.0;" width="10" x="912.5" y="746.0234"/><rect fill="#FFFFFF" height="31.291" style="stroke:#181818;stroke-width:1.0;" width="10" x="1019.5" y="808.6055"/><rect fill="#FFFFFF" height="31.291" style="stroke:#181818;stroke-width:1.0;" width="10" x="1161" y="871.1875"/><rect fill="#FFFFFF" height="31.291" style="stroke:#181818;stroke-width:1.0;" width="10" x="1320.5" y="290.6582"/><rect fill="#FFFFFF" height="31.291" style="stroke:#181818;stroke-width:1.0;" width="10" x="1459" y="509.6953"/><rect fill="#FFFFFF" height="111.1641" style="stroke:#181818;stroke-width:1.0;" width="10" x="1602" y="603.5684"/><rect fill="#FFFFFF" height="31.291" style="stroke:#181818;stroke-width:1.0;" width="10" x="2017" y="652.1504"/><line style="stroke:#181818;stroke-width:0.5;stroke-dasharray:5.0,5.0;" x1="83" x2="83" y1="83.6211" y2="983.0605"/><line style="stroke:#181818;stroke-width:0.5;stroke-dasharray:5.0,5.0;" x1="487" x2="487" y1="83.6211" y2="983.0605"/><line style="stroke:#181818;stroke-width:0.5;stroke-dasharray:5.0,5.0;" x1="752" x2="752" y1="83.6211" y2="983.0605"/><line style="stroke:#181818;stroke-width:0.5;stroke-dasharray:5.0,5.0;" x1="917" x2="917" y1="83.6211" y2="983.0605"/><line style="stroke:#181818;stroke-width:0.5;stroke-dasharray:5.0,5.0;" x1="1024" x2="1024" y1="83.6211" y2="983.0605"/><line style="stroke:#181818;stroke-width:0.5;stroke-dasharray:5.0,5.0;" x1="1166" x2="1166" y1="83.6211" y2="983.0605"/><line style="stroke:#181818;stroke-width:0.5;stroke-dasharray:5.0,5.0;" x1="1325" x2="1325" y1="83.6211" y2="983.0605"/><line style="stroke:#181818;stroke-width:0.5;stroke-dasharray:5.0,5.0;" x1="1464" x2="1464" y1="83.6211" y2="983.0605"/><line style="stroke:#181818;stroke-width:0.5;stroke-dasharray:5.0,5.0;" x1="1607" x2="1607" y1="83.6211" y2="983.0605"/><line style="stroke:#181818;stroke-width:0.5;stroke-dasharray:5.0,5.0;" x1="2022" x2="2022" y1="83.6211" y2="983.0605"/><text fill="#000000" font-family="sans-serif" font-size="14" lengthAdjust="spacing" textLength="151" x="5" y="80.1074">Green Spaces Manager</text><ellipse cx="83.5" cy="13.5" fill="#E3E3E3" rx="8" ry="8" style="stroke:#181818;stroke-width:0.5;"/><path d="M83.5,21.5 L83.5,48.5 M70.5,29.5 L96.5,29.5 M83.5,48.5 L70.5,63.5 M83.5,48.5 L96.5,63.5 " fill="none" style="stroke:#181818;stroke-width:0.5;"/><text fill="#000000" font-family="sans-serif" font-size="14" lengthAdjust="spacing" textLength="151" x="5" y="997.168">Green Spaces Manager</text><ellipse cx="83.5" cy="1009.1816" fill="#E3E3E3" rx="8" ry="8" style="stroke:#181818;stroke-width:0.5;"/><path d="M83.5,1017.1816 L83.5,1044.1816 M70.5,1025.1816 L96.5,1025.1816 M83.5,1044.1816 L70.5,1059.1816 M83.5,1044.1816 L96.5,1059.1816 " fill="none" style="stroke:#181818;stroke-width:0.5;"/><rect fill="#E3E3E3" height="32.6211" rx="2.5" ry="2.5" style="stroke:#181818;stroke-width:0.5;" width="163" x="406" y="50"/><text fill="#000000" font-family="sans-serif" font-size="14" lengthAdjust="spacing" textLength="149" x="413" y="72.1074">:RegisterGreenSpaceUI</text><rect fill="#E3E3E3" height="32.6211" rx="2.5" ry="2.5" style="stroke:#181818;stroke-width:0.5;" width="163" x="406" y="982.0605"/><text fill="#000000" font-family="sans-serif" font-size="14" lengthAdjust="spacing" textLength="149" x="413" y="1004.168">:RegisterGreenSpaceUI</text><rect fill="#E3E3E3" height="32.6211" rx="2.5" ry="2.5" style="stroke:#181818;stroke-width:0.5;" width="213" x="646" y="50"/><text fill="#000000" font-family="sans-serif" font-size="14" lengthAdjust="spacing" textLength="199" x="653" y="72.1074">:RegisterGreenSpaceController</text><rect fill="#E3E3E3" height="32.6211" rx="2.5" ry="2.5" style="stroke:#181818;stroke-width:0.5;" width="213" x="646" y="982.0605"/><text fill="#000000" font-family="sans-serif" font-size="14" lengthAdjust="spacing" textLength="199" x="653" y="1004.168">:RegisterGreenSpaceController</text><rect fill="#E3E3E3" height="32.6211" rx="2.5" ry="2.5" style="stroke:#181818;stroke-width:0.5;" width="97" x="869" y="50"/><text fill="#000000" font-family="sans-serif" font-size="14" lengthAdjust="spacing" textLength="83" x="876" y="72.1074">:Repositories</text><rect fill="#E3E3E3" height="32.6211" rx="2.5" ry="2.5" style="stroke:#181818;stroke-width:0.5;" width="97" x="869" y="982.0605"/><text fill="#000000" font-family="sans-serif" font-size="14" lengthAdjust="spacing" textLength="83" x="876" y="1004.168">:Repositories</text><rect fill="#E3E3E3" height="51.2422" rx="2.5" ry="2.5" style="stroke:#181818;stroke-width:0.5;" width="97" x="976" y="31.3789"/><text fill="#000000" font-family="sans-serif" font-size="14" lengthAdjust="spacing" textLength="74" x="987.5" y="53.4863">repositories</text><text fill="#000000" font-family="sans-serif" font-size="14" lengthAdjust="spacing" textLength="83" x="983" y="72.1074">:Repositories</text><rect fill="#E3E3E3" height="51.2422" rx="2.5" ry="2.5" style="stroke:#181818;stroke-width:0.5;" width="97" x="976" y="982.0605"/><text fill="#000000" font-family="sans-serif" font-size="14" lengthAdjust="spacing" textLength="74" x="987.5" y="1004.168">repositories</text><text fill="#000000" font-family="sans-serif" font-size="14" lengthAdjust="spacing" textLength="83" x="983" y="1022.7891">:Repositories</text><rect fill="#E3E3E3" height="51.2422" rx="2.5" ry="2.5" style="stroke:#181818;stroke-width:0.5;" width="166" x="1083" y="31.3789"/><text fill="#000000" font-family="sans-serif" font-size="14" lengthAdjust="spacing" textLength="152" x="1090" y="53.4863">greenSpacesRepository</text><text fill="#000000" font-family="sans-serif" font-size="14" lengthAdjust="spacing" textLength="152" x="1090" y="72.1074">:GreenSpaceRepository</text><rect fill="#E3E3E3" height="51.2422" rx="2.5" ry="2.5" style="stroke:#181818;stroke-width:0.5;" width="166" x="1083" y="982.0605"/><text fill="#000000" font-family="sans-serif" font-size="14" lengthAdjust="spacing" textLength="152" x="1090" y="1004.168">greenSpacesRepository</text><text fill="#000000" font-family="sans-serif" font-size="14" lengthAdjust="spacing" textLength="152" x="1090" y="1022.7891">:GreenSpaceRepository</text><rect fill="#E3E3E3" height="32.6211" rx="2.5" ry="2.5" style="stroke:#181818;stroke-width:0.5;" width="133" x="1259" y="50"/><text fill="#000000" font-family="sans-serif" font-size="14" lengthAdjust="spacing" textLength="119" x="1266" y="72.1074">GreenSpaceTypes</text><rect fill="#E3E3E3" height="32.6211" rx="2.5" ry="2.5" style="stroke:#181818;stroke-width:0.5;" width="133" x="1259" y="982.0605"/><text fill="#000000" font-family="sans-serif" font-size="14" lengthAdjust="spacing" textLength="119" x="1266" y="1004.168">GreenSpaceTypes</text><rect fill="#E3E3E3" height="32.6211" rx="2.5" ry="2.5" style="stroke:#181818;stroke-width:0.5;" width="124" x="1402" y="50"/><text fill="#000000" font-family="sans-serif" font-size="14" lengthAdjust="spacing" textLength="110" x="1409" y="72.1074">GreenSpaceDTO</text><rect fill="#E3E3E3" height="32.6211" rx="2.5" ry="2.5" style="stroke:#181818;stroke-width:0.5;" width="124" x="1402" y="982.0605"/><text fill="#000000" font-family="sans-serif" font-size="14" lengthAdjust="spacing" textLength="110" x="1409" y="1004.168">GreenSpaceDTO</text><rect fill="#E3E3E3" height="32.6211" rx="2.5" ry="2.5" style="stroke:#181818;stroke-width:0.5;" width="142" x="1536" y="50"/><text fill="#000000" font-family="sans-serif" font-size="14" lengthAdjust="spacing" textLength="128" x="1543" y="72.1074">GreenSpaceMapper</text><rect fill="#E3E3E3" height="32.6211" rx="2.5" ry="2.5" style="stroke:#181818;stroke-width:0.5;" width="142" x="1536" y="982.0605"/><text fill="#000000" font-family="sans-serif" font-size="14" lengthAdjust="spacing" textLength="128" x="1543" y="1004.168">GreenSpaceMapper</text><rect fill="#E3E3E3" height="32.6211" rx="2.5" ry="2.5" style="stroke:#181818;stroke-width:0.5;" width="94" x="1975" y="50"/><text fill="#000000" font-family="sans-serif" font-size="14" lengthAdjust="spacing" textLength="80" x="1982" y="72.1074">GreenSpace</text><rect fill="#E3E3E3" height="32.6211" rx="2.5" ry="2.5" style="stroke:#181818;stroke-width:0.5;" width="94" x="1975" y="982.0605"/><text fill="#000000" font-family="sans-serif" font-size="14" lengthAdjust="spacing" textLength="80" x="1982" y="1004.168">GreenSpace</text><rect fill="#FFFFFF" height="871.4395" style="stroke:#181818;stroke-width:1.0;" width="10" x="78.5" y="93.6211"/><rect fill="#FFFFFF" height="79.873" style="stroke:#181818;stroke-width:1.0;" width="10" x="482.5" y="116.9121"/><rect fill="#FFFFFF" height="31.291" style="stroke:#181818;stroke-width:1.0;" width="10" x="482.5" y="228.0762"/><rect fill="#FFFFFF" height="31.291" style="stroke:#181818;stroke-width:1.0;" width="10" x="482.5" y="353.2402"/><rect fill="#FFFFFF" height="31.291" style="stroke:#181818;stroke-width:1.0;" width="10" x="482.5" y="415.8223"/><rect fill="#FFFFFF" height="93.873" style="stroke:#181818;stroke-width:1.0;" width="10" x="482.5" y="478.4043"/><rect fill="#FFFFFF" height="31.291" style="stroke:#181818;stroke-width:1.0;" width="10" x="482.5" y="933.7695"/><rect fill="#FFFFFF" height="93.873" style="stroke:#181818;stroke-width:1.0;" width="10" x="747.5" y="259.3672"/><rect fill="#FFFFFF" height="31.291" style="stroke:#181818;stroke-width:1.0;" width="10" x="747.5" y="572.2773"/><rect fill="#FFFFFF" height="219.0371" style="stroke:#181818;stroke-width:1.0;" width="10" x="747.5" y="714.7324"/><rect fill="#FFFFFF" height="31.291" style="stroke:#181818;stroke-width:1.0;" width="10" x="912.5" y="746.0234"/><rect fill="#FFFFFF" height="31.291" style="stroke:#181818;stroke-width:1.0;" width="10" x="1019.5" y="808.6055"/><rect fill="#FFFFFF" height="31.291" style="stroke:#181818;stroke-width:1.0;" width="10" x="1161" y="871.1875"/><rect fill="#FFFFFF" height="31.291" style="stroke:#181818;stroke-width:1.0;" width="10" x="1320.5" y="290.6582"/><rect fill="#FFFFFF" height="31.291" style="stroke:#181818;stroke-width:1.0;" width="10" x="1459" y="509.6953"/><rect fill="#FFFFFF" height="111.1641" style="stroke:#181818;stroke-width:1.0;" width="10" x="1602" y="603.5684"/><rect fill="#FFFFFF" height="31.291" style="stroke:#181818;stroke-width:1.0;" width="10" x="2017" y="652.1504"/><polygon fill="#181818" points="470.5,112.9121,480.5,116.9121,470.5,120.9121,474.5,116.9121" style="stroke:#181818;stroke-width:1.0;"/><line style="stroke:#181818;stroke-width:1.0;" x1="88.5" x2="476.5" y1="116.9121" y2="116.9121"/><text fill="#000000" font-family="sans-serif" font-size="13" font-weight="bold" lengthAdjust="spacing" textLength="7" x="95.5" y="111.6494">1</text><text fill="#000000" font-family="sans-serif" font-size="13" lengthAdjust="spacing" textLength="176" x="106.5" y="111.6494">asks to register a green space</text><polygon fill="#181818" points="740.5,144.2031,750.5,148.2031,740.5,152.2031,744.5,148.2031" style="stroke:#181818;stroke-width:1.0;"/><line style="stroke:#181818;stroke-width:1.0;" x1="492.5" x2="746.5" y1="148.2031" y2="148.2031"/><text fill="#000000" font-family="sans-serif" font-size="13" font-weight="bold" lengthAdjust="spacing" textLength="7" x="499.5" y="142.9404">2</text><text fill="#000000" font-family="sans-serif" font-size="13" lengthAdjust="spacing" textLength="36" x="510.5" y="142.9404">create</text><polygon fill="#181818" points="99.5,192.7852,89.5,196.7852,99.5,200.7852,95.5,196.7852" style="stroke:#181818;stroke-width:1.0;"/><line style="stroke:#181818;stroke-width:1.0;stroke-dasharray:2.0,2.0;" x1="93.5" x2="486.5" y1="196.7852" y2="196.7852"/><text fill="#000000" font-family="sans-serif" font-size="13" font-weight="bold" lengthAdjust="spacing" textLength="7" x="105.5" y="182.877">3</text><text fill="#000000" font-family="sans-serif" font-size="13" lengthAdjust="spacing" textLength="295" x="116.5" y="174.2314">shows green space type list and requests to select</text><text fill="#000000" font-family="sans-serif" font-size="13" lengthAdjust="spacing" textLength="180" x="116.5" y="191.5225">one job for the new collaborator</text><polygon fill="#181818" points="470.5,224.0762,480.5,228.0762,470.5,232.0762,474.5,228.0762" style="stroke:#181818;stroke-width:1.0;"/><line style="stroke:#181818;stroke-width:1.0;" x1="88.5" x2="476.5" y1="228.0762" y2="228.0762"/><text fill="#000000" font-family="sans-serif" font-size="13" font-weight="bold" lengthAdjust="spacing" textLength="7" x="95.5" y="222.8135">4</text><text fill="#000000" font-family="sans-serif" font-size="13" lengthAdjust="spacing" textLength="157" x="106.5" y="222.8135">selects a green space type</text><polygon fill="#181818" points="735.5,255.3672,745.5,259.3672,735.5,263.3672,739.5,259.3672" style="stroke:#181818;stroke-width:1.0;"/><line style="stroke:#181818;stroke-width:1.0;" x1="487.5" x2="741.5" y1="259.3672" y2="259.3672"/><text fill="#000000" font-family="sans-serif" font-size="13" font-weight="bold" lengthAdjust="spacing" textLength="7" x="494.5" y="254.1045">5</text><text fill="#000000" font-family="sans-serif" font-size="13" lengthAdjust="spacing" textLength="147" x="505.5" y="254.1045">getGreenSpaceTypeList()</text><polygon fill="#181818" points="1308.5,286.6582,1318.5,290.6582,1308.5,294.6582,1312.5,290.6582" style="stroke:#181818;stroke-width:1.0;"/><line style="stroke:#181818;stroke-width:1.0;" x1="757.5" x2="1314.5" y1="290.6582" y2="290.6582"/><text fill="#000000" font-family="sans-serif" font-size="13" font-weight="bold" lengthAdjust="spacing" textLength="7" x="764.5" y="285.3955">6</text><text fill="#000000" font-family="sans-serif" font-size="13" lengthAdjust="spacing" textLength="147" x="775.5" y="285.3955">getGreenSpaceTypeList()</text><polygon fill="#181818" points="768.5,317.9492,758.5,321.9492,768.5,325.9492,764.5,321.9492" style="stroke:#181818;stroke-width:1.0;"/><line style="stroke:#181818;stroke-width:1.0;stroke-dasharray:2.0,2.0;" x1="762.5" x2="1324.5" y1="321.9492" y2="321.9492"/><text fill="#000000" font-family="sans-serif" font-size="13" font-weight="bold" lengthAdjust="spacing" textLength="7" x="774.5" y="316.6865">7</text><text fill="#000000" font-family="sans-serif" font-size="13" lengthAdjust="spacing" textLength="155" x="785.5" y="316.6865">GreenSpaceTypes.values()</text><polygon fill="#181818" points="503.5,349.2402,493.5,353.2402,503.5,357.2402,499.5,353.2402" style="stroke:#181818;stroke-width:1.0;"/><line style="stroke:#181818;stroke-width:1.0;" x1="497.5" x2="751.5" y1="353.2402" y2="353.2402"/><text fill="#000000" font-family="sans-serif" font-size="13" font-weight="bold" lengthAdjust="spacing" textLength="7" x="509.5" y="347.9775">8</text><text fill="#000000" font-family="sans-serif" font-size="13" lengthAdjust="spacing" textLength="118" x="520.5" y="347.9775">greenSpaceTypeList</text><polygon fill="#181818" points="99.5,380.5313,89.5,384.5313,99.5,388.5313,95.5,384.5313" style="stroke:#181818;stroke-width:1.0;"/><line style="stroke:#181818;stroke-width:1.0;" x1="93.5" x2="486.5" y1="384.5313" y2="384.5313"/><text fill="#000000" font-family="sans-serif" font-size="13" font-weight="bold" lengthAdjust="spacing" textLength="7" x="105.5" y="379.2686">9</text><text fill="#000000" font-family="sans-serif" font-size="13" lengthAdjust="spacing" textLength="298" x="116.5" y="379.2686">shows green space type list and asks to select one</text><polygon fill="#181818" points="470.5,411.8223,480.5,415.8223,470.5,419.8223,474.5,415.8223" style="stroke:#181818;stroke-width:1.0;"/><line style="stroke:#181818;stroke-width:1.0;" x1="88.5" x2="476.5" y1="415.8223" y2="415.8223"/><text fill="#000000" font-family="sans-serif" font-size="13" font-weight="bold" lengthAdjust="spacing" textLength="14" x="95.5" y="410.5596">10</text><text fill="#000000" font-family="sans-serif" font-size="13" lengthAdjust="spacing" textLength="146" x="113.5" y="410.5596">selects green space type</text><polygon fill="#181818" points="99.5,443.1133,89.5,447.1133,99.5,451.1133,95.5,447.1133" style="stroke:#181818;stroke-width:1.0;"/><line style="stroke:#181818;stroke-width:1.0;" x1="93.5" x2="486.5" y1="447.1133" y2="447.1133"/><text fill="#000000" font-family="sans-serif" font-size="13" font-weight="bold" lengthAdjust="spacing" textLength="14" x="105.5" y="441.8506">11</text><text fill="#000000" font-family="sans-serif" font-size="13" lengthAdjust="spacing" textLength="352" x="123.5" y="441.8506">requests data for the new green space (name, address, area)</text><polygon fill="#181818" points="470.5,474.4043,480.5,478.4043,470.5,482.4043,474.5,478.4043" style="stroke:#181818;stroke-width:1.0;"/><line style="stroke:#181818;stroke-width:1.0;" x1="88.5" x2="476.5" y1="478.4043" y2="478.4043"/><text fill="#000000" font-family="sans-serif" font-size="13" font-weight="bold" lengthAdjust="spacing" textLength="14" x="95.5" y="473.1416">12</text><text fill="#000000" font-family="sans-serif" font-size="13" lengthAdjust="spacing" textLength="126" x="113.5" y="473.1416">enters requested data</text><polygon fill="#181818" points="1447,505.6953,1457,509.6953,1447,513.6953,1451,509.6953" style="stroke:#181818;stroke-width:1.0;"/><line style="stroke:#181818;stroke-width:1.0;" x1="492.5" x2="1453" y1="509.6953" y2="509.6953"/><text fill="#000000" font-family="sans-serif" font-size="13" font-weight="bold" lengthAdjust="spacing" textLength="14" x="499.5" y="504.4326">13</text><text fill="#000000" font-family="sans-serif" font-size="13" lengthAdjust="spacing" textLength="258" x="517.5" y="504.4326">GreenSpaceDTO(name, address, area, type)</text><polygon fill="#181818" points="503.5,536.9863,493.5,540.9863,503.5,544.9863,499.5,540.9863" style="stroke:#181818;stroke-width:1.0;"/><line style="stroke:#181818;stroke-width:1.0;stroke-dasharray:2.0,2.0;" x1="497.5" x2="1463" y1="540.9863" y2="540.9863"/><text fill="#000000" font-family="sans-serif" font-size="13" font-weight="bold" lengthAdjust="spacing" textLength="14" x="509.5" y="535.7236">14</text><text fill="#000000" font-family="sans-serif" font-size="13" lengthAdjust="spacing" textLength="95" x="527.5" y="535.7236">greenSpaceDTO</text><polygon fill="#181818" points="735.5,568.2773,745.5,572.2773,735.5,576.2773,739.5,572.2773" style="stroke:#181818;stroke-width:1.0;"/><line style="stroke:#181818;stroke-width:1.0;" x1="487.5" x2="741.5" y1="572.2773" y2="572.2773"/><text fill="#000000" font-family="sans-serif" font-size="13" font-weight="bold" lengthAdjust="spacing" textLength="14" x="494.5" y="567.0146">15</text><text fill="#000000" font-family="sans-serif" font-size="13" lengthAdjust="spacing" textLength="218" x="512.5" y="567.0146">registerGreenSpace(greenSpaceDTO)</text><polygon fill="#181818" points="1590,599.5684,1600,603.5684,1590,607.5684,1594,603.5684" style="stroke:#181818;stroke-width:1.0;"/><line style="stroke:#181818;stroke-width:1.0;" x1="752.5" x2="1596" y1="603.5684" y2="603.5684"/><text fill="#000000" font-family="sans-serif" font-size="13" font-weight="bold" lengthAdjust="spacing" textLength="14" x="759.5" y="598.3057">16</text><text fill="#000000" font-family="sans-serif" font-size="13" lengthAdjust="spacing" textLength="148" x="777.5" y="598.3057">toEntity(greenSpaceDTO)</text><polygon fill="#181818" points="2005,648.1504,2015,652.1504,2005,656.1504,2009,652.1504" style="stroke:#181818;stroke-width:1.0;"/><line style="stroke:#181818;stroke-width:1.0;" x1="1612" x2="2011" y1="652.1504" y2="652.1504"/><text fill="#000000" font-family="sans-serif" font-size="13" font-weight="bold" lengthAdjust="spacing" textLength="14" x="1619" y="638.2422">17</text><text fill="#000000" font-family="sans-serif" font-size="13" lengthAdjust="spacing" textLength="364" x="1637" y="629.5967">GreenSpace(greenSpaceDTO.name, greenSpaceDTO.address,</text><text fill="#000000" font-family="sans-serif" font-size="13" lengthAdjust="spacing" textLength="4" x="1637" y="646.8877">&#160;</text><polygon fill="#181818" points="1623,679.4414,1613,683.4414,1623,687.4414,1619,683.4414" style="stroke:#181818;stroke-width:1.0;"/><line style="stroke:#181818;stroke-width:1.0;stroke-dasharray:2.0,2.0;" x1="1617" x2="2021" y1="683.4414" y2="683.4414"/><text fill="#000000" font-family="sans-serif" font-size="13" font-weight="bold" lengthAdjust="spacing" textLength="14" x="1629" y="678.1787">18</text><text fill="#000000" font-family="sans-serif" font-size="13" lengthAdjust="spacing" textLength="69" x="1647" y="678.1787">greenSpace</text><polygon fill="#181818" points="768.5,710.7324,758.5,714.7324,768.5,718.7324,764.5,714.7324" style="stroke:#181818;stroke-width:1.0;"/><line style="stroke:#181818;stroke-width:1.0;stroke-dasharray:2.0,2.0;" x1="762.5" x2="1606" y1="714.7324" y2="714.7324"/><text fill="#000000" font-family="sans-serif" font-size="13" font-weight="bold" lengthAdjust="spacing" textLength="14" x="774.5" y="709.4697">19</text><text fill="#000000" font-family="sans-serif" font-size="13" lengthAdjust="spacing" textLength="69" x="792.5" y="709.4697">greenSpace</text><polygon fill="#181818" points="900.5,742.0234,910.5,746.0234,900.5,750.0234,904.5,746.0234" style="stroke:#181818;stroke-width:1.0;"/><line style="stroke:#181818;stroke-width:1.0;" x1="757.5" x2="906.5" y1="746.0234" y2="746.0234"/><text fill="#000000" font-family="sans-serif" font-size="13" font-weight="bold" lengthAdjust="spacing" textLength="14" x="764.5" y="740.7607">20</text><text fill="#000000" font-family="sans-serif" font-size="13" lengthAdjust="spacing" textLength="75" x="782.5" y="740.7607">getInstance()</text><polygon fill="#181818" points="768.5,773.3145,758.5,777.3145,768.5,781.3145,764.5,777.3145" style="stroke:#181818;stroke-width:1.0;"/><line style="stroke:#181818;stroke-width:1.0;stroke-dasharray:2.0,2.0;" x1="762.5" x2="916.5" y1="777.3145" y2="777.3145"/><text fill="#000000" font-family="sans-serif" font-size="13" font-weight="bold" lengthAdjust="spacing" textLength="14" x="774.5" y="772.0518">21</text><text fill="#000000" font-family="sans-serif" font-size="13" lengthAdjust="spacing" textLength="67" x="792.5" y="772.0518">repositories</text><polygon fill="#181818" points="1007.5,804.6055,1017.5,808.6055,1007.5,812.6055,1011.5,808.6055" style="stroke:#181818;stroke-width:1.0;"/><line style="stroke:#181818;stroke-width:1.0;" x1="757.5" x2="1013.5" y1="808.6055" y2="808.6055"/><text fill="#000000" font-family="sans-serif" font-size="13" font-weight="bold" lengthAdjust="spacing" textLength="14" x="764.5" y="803.3428">22</text><text fill="#000000" font-family="sans-serif" font-size="13" lengthAdjust="spacing" textLength="160" x="782.5" y="803.3428">getGreenSpaceRepository()</text><polygon fill="#181818" points="768.5,835.8965,758.5,839.8965,768.5,843.8965,764.5,839.8965" style="stroke:#181818;stroke-width:1.0;"/><line style="stroke:#181818;stroke-width:1.0;stroke-dasharray:2.0,2.0;" x1="762.5" x2="1023.5" y1="839.8965" y2="839.8965"/><text fill="#000000" font-family="sans-serif" font-size="13" font-weight="bold" lengthAdjust="spacing" textLength="14" x="774.5" y="834.6338">23</text><text fill="#000000" font-family="sans-serif" font-size="13" lengthAdjust="spacing" textLength="131" x="792.5" y="834.6338">greenSpaceRepository</text><polygon fill="#181818" points="1149,867.1875,1159,871.1875,1149,875.1875,1153,871.1875" style="stroke:#181818;stroke-width:1.0;"/><line style="stroke:#181818;stroke-width:1.0;" x1="757.5" x2="1155" y1="871.1875" y2="871.1875"/><text fill="#000000" font-family="sans-serif" font-size="13" font-weight="bold" lengthAdjust="spacing" textLength="14" x="764.5" y="865.9248">24</text><text fill="#000000" font-family="sans-serif" font-size="13" lengthAdjust="spacing" textLength="192" x="782.5" y="865.9248">registerGreenSpace(greenSpace)</text><polygon fill="#181818" points="768.5,898.4785,758.5,902.4785,768.5,906.4785,764.5,902.4785" style="stroke:#181818;stroke-width:1.0;"/><line style="stroke:#181818;stroke-width:1.0;stroke-dasharray:2.0,2.0;" x1="762.5" x2="1165" y1="902.4785" y2="902.4785"/><text fill="#000000" font-family="sans-serif" font-size="13" font-weight="bold" lengthAdjust="spacing" textLength="14" x="774.5" y="897.2158">25</text><text fill="#000000" font-family="sans-serif" font-size="13" lengthAdjust="spacing" textLength="49" x="792.5" y="897.2158">success</text><polygon fill="#181818" points="503.5,929.7695,493.5,933.7695,503.5,937.7695,499.5,933.7695" style="stroke:#181818;stroke-width:1.0;"/><line style="stroke:#181818;stroke-width:1.0;stroke-dasharray:2.0,2.0;" x1="497.5" x2="751.5" y1="933.7695" y2="933.7695"/><text fill="#000000" font-family="sans-serif" font-size="13" font-weight="bold" lengthAdjust="spacing" textLength="14" x="509.5" y="928.5068">26</text><text fill="#000000" font-family="sans-serif" font-size="13" lengthAdjust="spacing" textLength="49" x="527.5" y="928.5068">success</text><polygon fill="#181818" points="94.5,961.0605,84.5,965.0605,94.5,969.0605,90.5,965.0605" style="stroke:#181818;stroke-width:1.0;"/><line style="stroke:#181818;stroke-width:1.0;stroke-dasharray:2.0,2.0;" x1="88.5" x2="486.5" y1="965.0605" y2="965.0605"/><text fill="#000000" font-family="sans-serif" font-size="13" font-weight="bold" lengthAdjust="spacing" textLength="14" x="100.5" y="959.7979">27</text><text fill="#000000" font-family="sans-serif" font-size="13" lengthAdjust="spacing" textLength="147" x="118.5" y="959.7979">shows success message</text><!--SRC=[bLPDRzim3BtxLn2vj06Q_e0S1Wpji1LeiQ9DRxqeDkjujILFbDlbtu-I4zlwSDFc42GI-SX7Fb6YrqgsGei66YLLljEgGJ2wmuo6dLRahwB4HxEl4JJcHiYodXhGJXJglP8bl8YQCCj4PvJicYtgB3lRLGN2Yr9cg_vb8ZTAm-AdHfJmoCX8S2Sam-i5289V3tSPWveghreX3IpM3rXMP50x5-VnTEDCdsvEMbufQRIgwmFurURXDl9f5LMSKuNaR8Q5_MDbQJ8HtqLFF9vb371_-ttZUvH3FZIYi-kOvxZi879EMMoL5hmoRlcWe_Dctnv2NwkyQr0QktBQxthpstbvAxP1rPimw3gH0N_u1wo-SRbXpUQl14Qn2lfIWm373iZwE_C1WFlZ5jYHtMtj6I3No7lZ1kzO_3LhIBtJ50mCiu2Qmu2G1KVyso4P5vsmPXN2irGIuO_Qiheqc1s2n7UlU2vCWL5AKqez6FbCNF28JiIcHEFtuPRJFLycmdfGJeTsnS4mNBfn7mJmyMRwRcrca5SZXq18bs-YvaB793u8SgJXwbb6-MOXrC1_HYkVKyHHYmSri1PcwfxgzXTwtMSpwAyGHdY2cqATIz7W1OYYq4Z4FrZkoq-anNL5JSSWMBWeSOcoFgFm4A_zCvnAuiAnN8x7Ey38Wl-hk9rsEanOX03HuT3HE3xtmBv-J2OXxqJRsgc-PWNyaAOo-nFWiUPYDBUV2EA7zkljXxtiI- -l3Orubdu68qeOUU5EQ99lwJjDACx33KGcesiMPgOkVYNxute6JuI- -Eo9H9cBbhhQMWz2FZOnSS7sW-v64hyikA9BFrxgHhO6AQ3LL7xZnHnIJ45wITfBF1o_erEOeRloxOfpInOvc9YJN9ppePhtWYWkfnqqEZrnqo-5KuSlI7_ckU6CPW9CE5ANyyE6eY4_WpfcFupa0y2NBedWbZXWGCDV_9PCtVkJl_Pfyny0]--></g></svg>