<?xml version="1.0" encoding="us-ascii" standalone="no"?><svg xmlns="http://www.w3.org/2000/svg" xmlns:xlink="http://www.w3.org/1999/xlink" contentStyleType="text/css" height="834px" preserveAspectRatio="none" style="width:699px;height:834px;background:#FFFFFF;" version="1.1" viewBox="0 0 699 834" width="699px" zoomAndPan="magnify"><defs/><g><!--class GreenSpace--><g id="elem_GreenSpace"><rect codeLine="11" fill="#F1F1F1" height="141.1055" id="GreenSpace" rx="2.5" ry="2.5" style="stroke:#181818;stroke-width:0.5;" width="126" x="552.5" y="447"/><ellipse cx="573.8" cy="463" fill="#ADD1B2" rx="11" ry="11" style="stroke:#181818;stroke-width:1.0;"/><path d="M576.5656,458.875 Q576.7219,458.6563 576.9094,458.5469 Q577.0969,458.4375 577.3156,458.4375 Q577.6906,458.4375 577.925,458.7031 Q578.1594,458.9531 578.1594,459.5625 L578.1594,461.0156 Q578.1594,461.625 577.925,461.8906 Q577.6906,462.1563 577.3156,462.1563 Q576.9719,462.1563 576.7688,461.9531 Q576.5656,461.7656 576.4563,461.25 Q576.4094,460.8906 576.2219,460.7031 Q575.8938,460.3281 575.2844,460.1094 Q574.675,459.8906 574.05,459.8906 Q573.2844,459.8906 572.6438,460.2188 Q572.0188,460.5469 571.5188,461.2969 Q571.0344,462.0469 571.0344,463.0781 L571.0344,464.1719 Q571.0344,465.4063 571.925,466.2344 Q572.8156,467.0469 574.4094,467.0469 Q575.3469,467.0469 576.0031,466.7969 Q576.3938,466.6406 576.8156,466.2031 Q577.0813,465.9375 577.2219,465.8594 Q577.3781,465.7813 577.5813,465.7813 Q577.9094,465.7813 578.1594,466.0469 Q578.425,466.2969 578.425,466.6406 Q578.425,466.9844 578.0813,467.3906 Q577.5813,467.9688 576.7844,468.2969 Q575.7063,468.75 574.4094,468.75 Q572.8938,468.75 571.6906,468.125 Q570.7063,467.625 570.0188,466.5625 Q569.3313,465.4844 569.3313,464.2031 L569.3313,463.0469 Q569.3313,461.7188 569.9406,460.5781 Q570.5656,459.4219 571.6594,458.8125 Q572.7531,458.1875 573.9875,458.1875 Q574.7219,458.1875 575.3625,458.3594 Q576.0188,458.5156 576.5656,458.875 Z " fill="#000000"/><text fill="#000000" font-family="sans-serif" font-size="14" lengthAdjust="spacing" textLength="80" x="589.2" y="468.7969">GreenSpace</text><line style="stroke:#181818;stroke-width:0.5;" x1="553.5" x2="677.5" y1="479" y2="479"/><text fill="#000000" font-family="sans-serif" font-size="14" lengthAdjust="spacing" textLength="114" x="558.5" y="498.1074">-greenSpaceType</text><text fill="#000000" font-family="sans-serif" font-size="14" lengthAdjust="spacing" textLength="40" x="558.5" y="516.7285">-name</text><text fill="#000000" font-family="sans-serif" font-size="14" lengthAdjust="spacing" textLength="56" x="558.5" y="535.3496">-address</text><text fill="#000000" font-family="sans-serif" font-size="14" lengthAdjust="spacing" textLength="34" x="558.5" y="553.9707">-area</text><line style="stroke:#181818;stroke-width:0.5;" x1="553.5" x2="677.5" y1="561.4844" y2="561.4844"/><text fill="#000000" font-family="sans-serif" font-size="14" lengthAdjust="spacing" textLength="60" x="558.5" y="580.5918">+equals()</text></g><!--class Repositories--><g id="elem_Repositories"><rect codeLine="19" fill="#F1F1F1" height="252.832" id="Repositories" rx="2.5" ry="2.5" style="stroke:#181818;stroke-width:0.5;" width="208" x="230.5" y="391"/><ellipse cx="290.75" cy="407" fill="#ADD1B2" rx="11" ry="11" style="stroke:#181818;stroke-width:1.0;"/><path d="M293.5156,402.875 Q293.6719,402.6563 293.8594,402.5469 Q294.0469,402.4375 294.2656,402.4375 Q294.6406,402.4375 294.875,402.7031 Q295.1094,402.9531 295.1094,403.5625 L295.1094,405.0156 Q295.1094,405.625 294.875,405.8906 Q294.6406,406.1563 294.2656,406.1563 Q293.9219,406.1563 293.7188,405.9531 Q293.5156,405.7656 293.4063,405.25 Q293.3594,404.8906 293.1719,404.7031 Q292.8438,404.3281 292.2344,404.1094 Q291.625,403.8906 291,403.8906 Q290.2344,403.8906 289.5938,404.2188 Q288.9688,404.5469 288.4688,405.2969 Q287.9844,406.0469 287.9844,407.0781 L287.9844,408.1719 Q287.9844,409.4063 288.875,410.2344 Q289.7656,411.0469 291.3594,411.0469 Q292.2969,411.0469 292.9531,410.7969 Q293.3438,410.6406 293.7656,410.2031 Q294.0313,409.9375 294.1719,409.8594 Q294.3281,409.7813 294.5313,409.7813 Q294.8594,409.7813 295.1094,410.0469 Q295.375,410.2969 295.375,410.6406 Q295.375,410.9844 295.0313,411.3906 Q294.5313,411.9688 293.7344,412.2969 Q292.6563,412.75 291.3594,412.75 Q289.8438,412.75 288.6406,412.125 Q287.6563,411.625 286.9688,410.5625 Q286.2813,409.4844 286.2813,408.2031 L286.2813,407.0469 Q286.2813,405.7188 286.8906,404.5781 Q287.5156,403.4219 288.6094,402.8125 Q289.7031,402.1875 290.9375,402.1875 Q291.6719,402.1875 292.3125,402.3594 Q292.9688,402.5156 293.5156,402.875 Z " fill="#000000"/><text fill="#000000" font-family="sans-serif" font-size="14" lengthAdjust="spacing" textLength="79" x="311.25" y="412.7969">Repositories</text><line style="stroke:#181818;stroke-width:0.5;" x1="231.5" x2="437.5" y1="423" y2="423"/><line style="stroke:#181818;stroke-width:0.5;" x1="231.5" x2="437.5" y1="431" y2="431"/><text fill="#000000" font-family="sans-serif" font-size="14" lengthAdjust="spacing" textLength="94" x="236.5" y="450.1074">-Repositories()</text><text fill="#000000" font-family="sans-serif" font-size="14" lengthAdjust="spacing" textLength="182" x="236.5" y="468.7285">+getInstance() : Repositories</text><text fill="#000000" font-family="sans-serif" font-size="14" lengthAdjust="spacing" textLength="184" x="236.5" y="487.3496">+getCollaboratorRepository()</text><text fill="#000000" font-family="sans-serif" font-size="14" lengthAdjust="spacing" textLength="152" x="236.5" y="505.9707">+getVehicleRepository()</text><text fill="#000000" font-family="sans-serif" font-size="14" lengthAdjust="spacing" textLength="131" x="236.5" y="524.5918">+getSkillRepository()</text><text fill="#000000" font-family="sans-serif" font-size="14" lengthAdjust="spacing" textLength="128" x="236.5" y="543.2129">+getJobRepository()</text><text fill="#000000" font-family="sans-serif" font-size="14" lengthAdjust="spacing" textLength="196" x="236.5" y="561.834">+getAuthenticationRepository()</text><text fill="#000000" font-family="sans-serif" font-size="14" lengthAdjust="spacing" textLength="186" x="236.5" y="580.4551">+getGreenSpaceRepository()</text><text fill="#000000" font-family="sans-serif" font-size="14" lengthAdjust="spacing" textLength="142" x="236.5" y="599.0762">+getTeamRepository()</text><text fill="#000000" font-family="sans-serif" font-size="14" lengthAdjust="spacing" textLength="188" x="236.5" y="617.6973">+getAgendaEntryRepository()</text><text fill="#000000" font-family="sans-serif" font-size="14" lengthAdjust="spacing" textLength="196" x="236.5" y="636.3184">+getToDoListEntryRepository()</text></g><!--class GreenSpaceRepository--><g id="elem_GreenSpaceRepository"><rect codeLine="36" fill="#F1F1F1" height="122.4844" id="GreenSpaceRepository" rx="2.5" ry="2.5" style="stroke:#181818;stroke-width:0.5;" width="289" x="190" y="705"/><ellipse cx="256.25" cy="721" fill="#ADD1B2" rx="11" ry="11" style="stroke:#181818;stroke-width:1.0;"/><path d="M259.0156,716.875 Q259.1719,716.6563 259.3594,716.5469 Q259.5469,716.4375 259.7656,716.4375 Q260.1406,716.4375 260.375,716.7031 Q260.6094,716.9531 260.6094,717.5625 L260.6094,719.0156 Q260.6094,719.625 260.375,719.8906 Q260.1406,720.1563 259.7656,720.1563 Q259.4219,720.1563 259.2188,719.9531 Q259.0156,719.7656 258.9063,719.25 Q258.8594,718.8906 258.6719,718.7031 Q258.3438,718.3281 257.7344,718.1094 Q257.125,717.8906 256.5,717.8906 Q255.7344,717.8906 255.0938,718.2188 Q254.4688,718.5469 253.9688,719.2969 Q253.4844,720.0469 253.4844,721.0781 L253.4844,722.1719 Q253.4844,723.4063 254.375,724.2344 Q255.2656,725.0469 256.8594,725.0469 Q257.7969,725.0469 258.4531,724.7969 Q258.8438,724.6406 259.2656,724.2031 Q259.5313,723.9375 259.6719,723.8594 Q259.8281,723.7813 260.0313,723.7813 Q260.3594,723.7813 260.6094,724.0469 Q260.875,724.2969 260.875,724.6406 Q260.875,724.9844 260.5313,725.3906 Q260.0313,725.9688 259.2344,726.2969 Q258.1563,726.75 256.8594,726.75 Q255.3438,726.75 254.1406,726.125 Q253.1563,725.625 252.4688,724.5625 Q251.7813,723.4844 251.7813,722.2031 L251.7813,721.0469 Q251.7813,719.7188 252.3906,718.5781 Q253.0156,717.4219 254.1094,716.8125 Q255.2031,716.1875 256.4375,716.1875 Q257.1719,716.1875 257.8125,716.3594 Q258.4688,716.5156 259.0156,716.875 Z " fill="#000000"/><text fill="#000000" font-family="sans-serif" font-size="14" lengthAdjust="spacing" textLength="148" x="276.75" y="726.7969">GreenSpaceRepository</text><line style="stroke:#181818;stroke-width:0.5;" x1="191" x2="478" y1="737" y2="737"/><line style="stroke:#181818;stroke-width:0.5;" x1="191" x2="478" y1="745" y2="745"/><text fill="#000000" font-family="sans-serif" font-size="14" lengthAdjust="spacing" textLength="140" x="196" y="764.1074">+getGreenSpaceList()</text><text fill="#000000" font-family="sans-serif" font-size="14" lengthAdjust="spacing" textLength="277" x="196" y="782.7285">+registerGreenSpace(name, address, area)</text><text fill="#000000" font-family="sans-serif" font-size="14" lengthAdjust="spacing" textLength="42" x="196" y="801.3496">+size()</text><text fill="#000000" font-family="sans-serif" font-size="14" lengthAdjust="spacing" textLength="146" x="196" y="819.9707">-isUnique(greenSpace)</text></g><!--class RegisterGreenSpaceController--><g id="elem_RegisterGreenSpaceController"><rect codeLine="43" fill="#F1F1F1" height="122.4844" id="RegisterGreenSpaceController" rx="2.5" ry="2.5" style="stroke:#181818;stroke-width:0.5;" width="230" x="219.5" y="190"/><ellipse cx="235.85" cy="206" fill="#ADD1B2" rx="11" ry="11" style="stroke:#181818;stroke-width:1.0;"/><path d="M238.6156,201.875 Q238.7719,201.6563 238.9594,201.5469 Q239.1469,201.4375 239.3656,201.4375 Q239.7406,201.4375 239.975,201.7031 Q240.2094,201.9531 240.2094,202.5625 L240.2094,204.0156 Q240.2094,204.625 239.975,204.8906 Q239.7406,205.1563 239.3656,205.1563 Q239.0219,205.1563 238.8188,204.9531 Q238.6156,204.7656 238.5063,204.25 Q238.4594,203.8906 238.2719,203.7031 Q237.9438,203.3281 237.3344,203.1094 Q236.725,202.8906 236.1,202.8906 Q235.3344,202.8906 234.6938,203.2188 Q234.0688,203.5469 233.5688,204.2969 Q233.0844,205.0469 233.0844,206.0781 L233.0844,207.1719 Q233.0844,208.4063 233.975,209.2344 Q234.8656,210.0469 236.4594,210.0469 Q237.3969,210.0469 238.0531,209.7969 Q238.4438,209.6406 238.8656,209.2031 Q239.1313,208.9375 239.2719,208.8594 Q239.4281,208.7813 239.6313,208.7813 Q239.9594,208.7813 240.2094,209.0469 Q240.475,209.2969 240.475,209.6406 Q240.475,209.9844 240.1313,210.3906 Q239.6313,210.9688 238.8344,211.2969 Q237.7563,211.75 236.4594,211.75 Q234.9438,211.75 233.7406,211.125 Q232.7563,210.625 232.0688,209.5625 Q231.3813,208.4844 231.3813,207.2031 L231.3813,206.0469 Q231.3813,204.7188 231.9906,203.5781 Q232.6156,202.4219 233.7094,201.8125 Q234.8031,201.1875 236.0375,201.1875 Q236.7719,201.1875 237.4125,201.3594 Q238.0688,201.5156 238.6156,201.875 Z " fill="#000000"/><text fill="#000000" font-family="sans-serif" font-size="14" lengthAdjust="spacing" textLength="195" x="250.15" y="211.7969">RegisterGreenSpaceController</text><line style="stroke:#181818;stroke-width:0.5;" x1="220.5" x2="448.5" y1="222" y2="222"/><line style="stroke:#181818;stroke-width:0.5;" x1="220.5" x2="448.5" y1="230" y2="230"/><text fill="#000000" font-family="sans-serif" font-size="14" lengthAdjust="spacing" textLength="213" x="225.5" y="249.1074">+RegisterGreenSpaceController()</text><text fill="#000000" font-family="sans-serif" font-size="14" lengthAdjust="spacing" textLength="218" x="225.5" y="267.7285">+registerGreenSpace(name, area)</text><text fill="#000000" font-family="sans-serif" font-size="14" lengthAdjust="spacing" textLength="183" x="225.5" y="286.3496">-getGreenSpaceRepository()</text><text fill="#000000" font-family="sans-serif" font-size="14" lengthAdjust="spacing" textLength="169" x="225.5" y="304.9707">-getGreenSpaceTypeList()</text></g><!--class GSM--><g id="elem_GSM"><rect codeLine="51" fill="#F1F1F1" height="48" id="GSM" rx="2.5" ry="2.5" style="stroke:#181818;stroke-width:0.5;" width="63" x="584" y="227"/><ellipse cx="599" cy="243" fill="#ADD1B2" rx="11" ry="11" style="stroke:#181818;stroke-width:1.0;"/><path d="M601.7656,238.875 Q601.9219,238.6563 602.1094,238.5469 Q602.2969,238.4375 602.5156,238.4375 Q602.8906,238.4375 603.125,238.7031 Q603.3594,238.9531 603.3594,239.5625 L603.3594,241.0156 Q603.3594,241.625 603.125,241.8906 Q602.8906,242.1563 602.5156,242.1563 Q602.1719,242.1563 601.9688,241.9531 Q601.7656,241.7656 601.6563,241.25 Q601.6094,240.8906 601.4219,240.7031 Q601.0938,240.3281 600.4844,240.1094 Q599.875,239.8906 599.25,239.8906 Q598.4844,239.8906 597.8438,240.2188 Q597.2188,240.5469 596.7188,241.2969 Q596.2344,242.0469 596.2344,243.0781 L596.2344,244.1719 Q596.2344,245.4063 597.125,246.2344 Q598.0156,247.0469 599.6094,247.0469 Q600.5469,247.0469 601.2031,246.7969 Q601.5938,246.6406 602.0156,246.2031 Q602.2813,245.9375 602.4219,245.8594 Q602.5781,245.7813 602.7813,245.7813 Q603.1094,245.7813 603.3594,246.0469 Q603.625,246.2969 603.625,246.6406 Q603.625,246.9844 603.2813,247.3906 Q602.7813,247.9688 601.9844,248.2969 Q600.9063,248.75 599.6094,248.75 Q598.0938,248.75 596.8906,248.125 Q595.9063,247.625 595.2188,246.5625 Q594.5313,245.4844 594.5313,244.2031 L594.5313,243.0469 Q594.5313,241.7188 595.1406,240.5781 Q595.7656,239.4219 596.8594,238.8125 Q597.9531,238.1875 599.1875,238.1875 Q599.9219,238.1875 600.5625,238.3594 Q601.2188,238.5156 601.7656,238.875 Z " fill="#000000"/><text fill="#000000" font-family="sans-serif" font-size="14" lengthAdjust="spacing" textLength="31" x="613" y="248.7969">GSM</text><line style="stroke:#181818;stroke-width:0.5;" x1="585" x2="646" y1="259" y2="259"/><line style="stroke:#181818;stroke-width:0.5;" x1="585" x2="646" y1="267" y2="267"/></g><!--class SystemUser--><g id="elem_SystemUser"><rect codeLine="53" fill="#F1F1F1" height="122.4844" id="SystemUser" rx="2.5" ry="2.5" style="stroke:#181818;stroke-width:0.5;" width="107" x="562" y="7"/><ellipse cx="577" cy="23" fill="#ADD1B2" rx="11" ry="11" style="stroke:#181818;stroke-width:1.0;"/><path d="M579.7656,18.875 Q579.9219,18.6563 580.1094,18.5469 Q580.2969,18.4375 580.5156,18.4375 Q580.8906,18.4375 581.125,18.7031 Q581.3594,18.9531 581.3594,19.5625 L581.3594,21.0156 Q581.3594,21.625 581.125,21.8906 Q580.8906,22.1563 580.5156,22.1563 Q580.1719,22.1563 579.9688,21.9531 Q579.7656,21.7656 579.6563,21.25 Q579.6094,20.8906 579.4219,20.7031 Q579.0938,20.3281 578.4844,20.1094 Q577.875,19.8906 577.25,19.8906 Q576.4844,19.8906 575.8438,20.2188 Q575.2188,20.5469 574.7188,21.2969 Q574.2344,22.0469 574.2344,23.0781 L574.2344,24.1719 Q574.2344,25.4063 575.125,26.2344 Q576.0156,27.0469 577.6094,27.0469 Q578.5469,27.0469 579.2031,26.7969 Q579.5938,26.6406 580.0156,26.2031 Q580.2813,25.9375 580.4219,25.8594 Q580.5781,25.7813 580.7813,25.7813 Q581.1094,25.7813 581.3594,26.0469 Q581.625,26.2969 581.625,26.6406 Q581.625,26.9844 581.2813,27.3906 Q580.7813,27.9688 579.9844,28.2969 Q578.9063,28.75 577.6094,28.75 Q576.0938,28.75 574.8906,28.125 Q573.9063,27.625 573.2188,26.5625 Q572.5313,25.4844 572.5313,24.2031 L572.5313,23.0469 Q572.5313,21.7188 573.1406,20.5781 Q573.7656,19.4219 574.8594,18.8125 Q575.9531,18.1875 577.1875,18.1875 Q577.9219,18.1875 578.5625,18.3594 Q579.2188,18.5156 579.7656,18.875 Z " fill="#000000"/><text fill="#000000" font-family="sans-serif" font-size="14" lengthAdjust="spacing" textLength="75" x="591" y="28.7969">SystemUser</text><line style="stroke:#181818;stroke-width:0.5;" x1="563" x2="668" y1="39" y2="39"/><text fill="#000000" font-family="sans-serif" font-size="14" lengthAdjust="spacing" textLength="35" x="568" y="58.1074">name</text><text fill="#000000" font-family="sans-serif" font-size="14" lengthAdjust="spacing" textLength="33" x="568" y="76.7285">email</text><text fill="#000000" font-family="sans-serif" font-size="14" lengthAdjust="spacing" textLength="60" x="568" y="95.3496">password</text><text fill="#000000" font-family="sans-serif" font-size="14" lengthAdjust="spacing" textLength="40" x="568" y="113.9707">phone</text><line style="stroke:#181818;stroke-width:0.5;" x1="563" x2="668" y1="121.4844" y2="121.4844"/></g><!--class RegisterGreenSpaceUI--><g id="elem_RegisterGreenSpaceUI"><rect fill="#F1F1F1" height="48" id="RegisterGreenSpaceUI" rx="2.5" ry="2.5" style="stroke:#181818;stroke-width:0.5;" width="177" x="7" y="227"/><ellipse cx="22" cy="243" fill="#ADD1B2" rx="11" ry="11" style="stroke:#181818;stroke-width:1.0;"/><path d="M24.7656,238.875 Q24.9219,238.6563 25.1094,238.5469 Q25.2969,238.4375 25.5156,238.4375 Q25.8906,238.4375 26.125,238.7031 Q26.3594,238.9531 26.3594,239.5625 L26.3594,241.0156 Q26.3594,241.625 26.125,241.8906 Q25.8906,242.1563 25.5156,242.1563 Q25.1719,242.1563 24.9688,241.9531 Q24.7656,241.7656 24.6563,241.25 Q24.6094,240.8906 24.4219,240.7031 Q24.0938,240.3281 23.4844,240.1094 Q22.875,239.8906 22.25,239.8906 Q21.4844,239.8906 20.8438,240.2188 Q20.2188,240.5469 19.7188,241.2969 Q19.2344,242.0469 19.2344,243.0781 L19.2344,244.1719 Q19.2344,245.4063 20.125,246.2344 Q21.0156,247.0469 22.6094,247.0469 Q23.5469,247.0469 24.2031,246.7969 Q24.5938,246.6406 25.0156,246.2031 Q25.2813,245.9375 25.4219,245.8594 Q25.5781,245.7813 25.7813,245.7813 Q26.1094,245.7813 26.3594,246.0469 Q26.625,246.2969 26.625,246.6406 Q26.625,246.9844 26.2813,247.3906 Q25.7813,247.9688 24.9844,248.2969 Q23.9063,248.75 22.6094,248.75 Q21.0938,248.75 19.8906,248.125 Q18.9063,247.625 18.2188,246.5625 Q17.5313,245.4844 17.5313,244.2031 L17.5313,243.0469 Q17.5313,241.7188 18.1406,240.5781 Q18.7656,239.4219 19.8594,238.8125 Q20.9531,238.1875 22.1875,238.1875 Q22.9219,238.1875 23.5625,238.3594 Q24.2188,238.5156 24.7656,238.875 Z " fill="#000000"/><text fill="#000000" font-family="sans-serif" font-size="14" lengthAdjust="spacing" textLength="145" x="36" y="248.7969">RegisterGreenSpaceUI</text><line style="stroke:#181818;stroke-width:0.5;" x1="8" x2="183" y1="259" y2="259"/><line style="stroke:#181818;stroke-width:0.5;" x1="8" x2="183" y1="267" y2="267"/></g><!--reverse link SystemUser to GSM--><g id="link_SystemUser_GSM"><path codeLine="61" d="M615.5,147.02 C615.5,180.57 615.5,202.44 615.5,226.98 " fill="none" id="SystemUser-backto-GSM" style="stroke:#181818;stroke-width:1.0;"/><polygon fill="none" points="615.5,129.02,609.5,147.02,621.5,147.02,615.5,129.02" style="stroke:#181818;stroke-width:1.0;"/></g><!--reverse link GSM to GreenSpace--><g id="link_GSM_GreenSpace"><path codeLine="62" d="M615.5,281.01 C615.5,318.9 615.5,389.91 615.5,446.82 " fill="none" id="GSM-backto-GreenSpace" style="stroke:#181818;stroke-width:1.0;"/><polygon fill="#181818" points="615.5,275.01,611.5,284.01,615.5,280.01,619.5,284.01,615.5,275.01" style="stroke:#181818;stroke-width:1.0;"/><text fill="#000000" font-family="sans-serif" font-size="13" lengthAdjust="spacing" textLength="75" x="616.5" y="357.0283">registered by</text></g><!--link RegisterGreenSpaceController to Repositories--><g id="link_RegisterGreenSpaceController_Repositories"><path codeLine="63" d="M334.5,312.02 C334.5,335.49 334.5,357.34 334.5,384.82 " fill="none" id="RegisterGreenSpaceController-to-Repositories" style="stroke:#181818;stroke-width:1.0;stroke-dasharray:7.0,7.0;"/><polygon fill="#181818" points="334.5,390.82,338.5,381.82,334.5,385.82,330.5,381.82,334.5,390.82" style="stroke:#181818;stroke-width:1.0;"/><text fill="#000000" font-family="sans-serif" font-size="13" lengthAdjust="spacing" textLength="67" x="335.5" y="357.0283">repositories</text></g><!--link RegisterGreenSpaceController to GreenSpaceRepository--><g id="link_RegisterGreenSpaceController_GreenSpaceRepository"><path codeLine="64" d="M224.14,312.16 C155.22,349.73 79.5,391 79.5,391 C79.5,391 79.5,644 79.5,644 C79.5,644 138.329,671.9184 202.329,702.2784 " fill="none" id="RegisterGreenSpaceController-to-GreenSpaceRepository" style="stroke:#181818;stroke-width:1.0;stroke-dasharray:7.0,7.0;"/><polygon fill="#181818" points="207.75,704.85,201.3329,697.3787,203.2325,702.707,197.9041,704.6066,207.75,704.85" style="stroke:#181818;stroke-width:1.0;"/><text fill="#000000" font-family="sans-serif" font-size="13" lengthAdjust="spacing" textLength="131" x="80.5" y="523.0283">greenSpaceRepository</text></g><!--link RegisterGreenSpaceController to GreenSpace--><g id="link_RegisterGreenSpaceController_GreenSpace"><path codeLine="65" d="M421.06,312.16 C475.11,349.73 534.5,391 534.5,391 C534.5,391 548.6071,412.8483 567.2471,441.7383 " fill="none" id="RegisterGreenSpaceController-to-GreenSpace" style="stroke:#181818;stroke-width:1.0;stroke-dasharray:7.0,7.0;"/><polygon fill="#181818" points="570.5,446.78,568.9817,437.0489,567.7892,442.5786,562.2595,441.3861,570.5,446.78" style="stroke:#181818;stroke-width:1.0;"/><text fill="#000000" font-family="sans-serif" font-size="13" lengthAdjust="spacing" textLength="69" x="492.5" y="357.0283">greenSpace</text></g><!--link RegisterGreenSpaceUI to RegisterGreenSpaceController--><g id="link_RegisterGreenSpaceUI_RegisterGreenSpaceController"><path codeLine="67" d="M184.31,251 C192.97,251 200.55,251 213.49,251 " fill="none" id="RegisterGreenSpaceUI-to-RegisterGreenSpaceController" style="stroke:#181818;stroke-width:1.0;stroke-dasharray:7.0,7.0;"/><polygon fill="#181818" points="219.49,251,210.49,247,214.49,251,210.49,255,219.49,251" style="stroke:#181818;stroke-width:1.0;"/></g><!--link Repositories to GreenSpaceRepository--><g id="link_Repositories_GreenSpaceRepository"><path codeLine="68" d="M334.5,644.28 C334.5,665.4 334.5,680.43 334.5,698.88 " fill="none" id="Repositories-to-GreenSpaceRepository" style="stroke:#181818;stroke-width:1.0;"/><polygon fill="#181818" points="334.5,704.88,338.5,695.88,334.5,699.88,330.5,695.88,334.5,704.88" style="stroke:#181818;stroke-width:1.0;"/><text fill="#000000" font-family="sans-serif" font-size="13" lengthAdjust="spacing" textLength="7" x="327.0953" y="693.8473">1</text></g><!--link Repositories to Repositories--><g id="link_Repositories_Repositories"><path codeLine="69" d="M438.76,489.55 C459.08,492.8 473.5,502.11 473.5,517.5 C473.5,532.89 465.0047,541.2524 444.6847,544.5024 " fill="none" id="Repositories-to-Repositories" style="stroke:#181818;stroke-width:1.0;"/><polygon fill="#181818" points="438.76,545.45,448.2788,547.9784,443.6972,544.6603,447.0153,540.0788,438.76,545.45" style="stroke:#181818;stroke-width:1.0;"/><text fill="#000000" font-family="sans-serif" font-size="13" lengthAdjust="spacing" textLength="49" x="479.5" y="523.0283">instance</text></g><!--reverse link GreenSpace to GreenSpaceRepository--><g id="link_GreenSpace_GreenSpaceRepository"><path codeLine="70" d="M567.2471,593.2617 C548.6071,622.1517 534.5,644 534.5,644 C534.5,644 484.11,674.49 433.91,704.85 " fill="none" id="GreenSpace-backto-GreenSpaceRepository" style="stroke:#181818;stroke-width:1.0;"/><polygon fill="#181818" points="570.5,588.22,562.2595,593.6139,567.7892,592.4214,568.9817,597.9511,570.5,588.22" style="stroke:#181818;stroke-width:1.0;"/><text fill="#000000" font-family="sans-serif" font-size="13" lengthAdjust="spacing" textLength="5" x="560.8242" y="610.0557">*</text></g><!--SRC=[bLHBRzim3BxhLn2v9DtgOhi6HO6Y6uOCssLkTbTirXOYYwuae_2w_VT9ZX-ogxIRJwA-XoYIyjeSXQgvvXLKf2WhDLK8LZV89gJcsP4NcDfM8cZCB5U530ccv3az2LN00vScHAHGQDiQeIRP-e2j8o1fIonGPP8RSskj5eV6uYuZbOfV21yOMqjyi609j2XA2xdmwGXIZ7KQ-A8HLUeIHdXcuBu4Yd7htftLRofU3KkUvngD6IADl5k-1tnit6qs5-pFuFu3QpB2aXPed3_hDU6sev_K1TgTCgvK6MukO3iZJPGxaf8VI7C7Z8msDFc9fSWani7qAAICGr_f40Tk6rkYiYBZld1npbJ6E7wFl3hZNg3A-MTbTNj6If_ecp3s9MMgS-pulf-BzBpJwAwnS27g2TxuFbyEBRxikZkmZHkfNfg0C7ib7XlSJDCow_lI-8vS-gvtgFqSd0nVO_r3ZcDgoHiTME1-glioJ0LClyFp6AMjEx7QcovPxp1EFrPSo6vLE-8JwVmKbEHUgjEpG7hzEqcyCVFcSEs3wR5jnujX3eUMlLgngwkR-LFowk1rl2cEpiSsUEdJzl-OpInOHBdVGPVwUKSskrUItAm-hgBfBeWl2YBwVmSBqbkzMotg7lZz1G00]--></g></svg>