<?xml version="1.0" encoding="us-ascii" standalone="no"?><svg xmlns="http://www.w3.org/2000/svg" xmlns:xlink="http://www.w3.org/1999/xlink" contentStyleType="text/css" height="817px" preserveAspectRatio="none" style="width:1090px;height:817px;background:#FFFFFF;" version="1.1" viewBox="0 0 1090 817" width="1090px" zoomAndPan="magnify"><defs/><g><text fill="#000000" font-family="sans-serif" font-size="14" font-weight="bold" lengthAdjust="spacing" textLength="99" x="488.75" y="25.1074">Class Diagram</text><!--class GreenSpace--><g id="elem_GreenSpace"><rect codeLine="8" fill="#F1F1F1" height="122.4844" id="GreenSpace" rx="2.5" ry="2.5" style="stroke:#181818;stroke-width:0.5;" width="112" x="971.5" y="46.6211"/><ellipse cx="986.5" cy="62.6211" fill="#ADD1B2" rx="11" ry="11" style="stroke:#181818;stroke-width:1.0;"/><path d="M989.2656,58.4961 Q989.4219,58.2773 989.6094,58.168 Q989.7969,58.0586 990.0156,58.0586 Q990.3906,58.0586 990.625,58.3242 Q990.8594,58.5742 990.8594,59.1836 L990.8594,60.6367 Q990.8594,61.2461 990.625,61.5117 Q990.3906,61.7773 990.0156,61.7773 Q989.6719,61.7773 989.4688,61.5742 Q989.2656,61.3867 989.1563,60.8711 Q989.1094,60.5117 988.9219,60.3242 Q988.5938,59.9492 987.9844,59.7305 Q987.375,59.5117 986.75,59.5117 Q985.9844,59.5117 985.3438,59.8398 Q984.7188,60.168 984.2188,60.918 Q983.7344,61.668 983.7344,62.6992 L983.7344,63.793 Q983.7344,65.0273 984.625,65.8555 Q985.5156,66.668 987.1094,66.668 Q988.0469,66.668 988.7031,66.418 Q989.0938,66.2617 989.5156,65.8242 Q989.7813,65.5586 989.9219,65.4805 Q990.0781,65.4023 990.2813,65.4023 Q990.6094,65.4023 990.8594,65.668 Q991.125,65.918 991.125,66.2617 Q991.125,66.6055 990.7813,67.0117 Q990.2813,67.5898 989.4844,67.918 Q988.4063,68.3711 987.1094,68.3711 Q985.5938,68.3711 984.3906,67.7461 Q983.4063,67.2461 982.7188,66.1836 Q982.0313,65.1055 982.0313,63.8242 L982.0313,62.668 Q982.0313,61.3398 982.6406,60.1992 Q983.2656,59.043 984.3594,58.4336 Q985.4531,57.8086 986.6875,57.8086 Q987.4219,57.8086 988.0625,57.9805 Q988.7188,58.1367 989.2656,58.4961 Z " fill="#000000"/><text fill="#000000" font-family="sans-serif" font-size="14" lengthAdjust="spacing" textLength="80" x="1000.5" y="68.418">GreenSpace</text><line style="stroke:#181818;stroke-width:0.5;" x1="972.5" x2="1082.5" y1="78.6211" y2="78.6211"/><text fill="#000000" font-family="sans-serif" font-size="14" lengthAdjust="spacing" textLength="40" x="977.5" y="97.7285">-name</text><text fill="#000000" font-family="sans-serif" font-size="14" lengthAdjust="spacing" textLength="56" x="977.5" y="116.3496">-address</text><text fill="#000000" font-family="sans-serif" font-size="14" lengthAdjust="spacing" textLength="34" x="977.5" y="134.9707">-area</text><text fill="#000000" font-family="sans-serif" font-size="14" lengthAdjust="spacing" textLength="32" x="977.5" y="153.5918">-type</text><line style="stroke:#181818;stroke-width:0.5;" x1="972.5" x2="1082.5" y1="161.1055" y2="161.1055"/></g><!--class SystemUser--><g id="elem_SystemUser"><rect codeLine="17" fill="#F1F1F1" height="122.4844" id="SystemUser" rx="2.5" ry="2.5" style="stroke:#181818;stroke-width:0.5;" width="107" x="7" y="46.6211"/><ellipse cx="22" cy="62.6211" fill="#ADD1B2" rx="11" ry="11" style="stroke:#181818;stroke-width:1.0;"/><path d="M24.7656,58.4961 Q24.9219,58.2773 25.1094,58.168 Q25.2969,58.0586 25.5156,58.0586 Q25.8906,58.0586 26.125,58.3242 Q26.3594,58.5742 26.3594,59.1836 L26.3594,60.6367 Q26.3594,61.2461 26.125,61.5117 Q25.8906,61.7773 25.5156,61.7773 Q25.1719,61.7773 24.9688,61.5742 Q24.7656,61.3867 24.6563,60.8711 Q24.6094,60.5117 24.4219,60.3242 Q24.0938,59.9492 23.4844,59.7305 Q22.875,59.5117 22.25,59.5117 Q21.4844,59.5117 20.8438,59.8398 Q20.2188,60.168 19.7188,60.918 Q19.2344,61.668 19.2344,62.6992 L19.2344,63.793 Q19.2344,65.0273 20.125,65.8555 Q21.0156,66.668 22.6094,66.668 Q23.5469,66.668 24.2031,66.418 Q24.5938,66.2617 25.0156,65.8242 Q25.2813,65.5586 25.4219,65.4805 Q25.5781,65.4023 25.7813,65.4023 Q26.1094,65.4023 26.3594,65.668 Q26.625,65.918 26.625,66.2617 Q26.625,66.6055 26.2813,67.0117 Q25.7813,67.5898 24.9844,67.918 Q23.9063,68.3711 22.6094,68.3711 Q21.0938,68.3711 19.8906,67.7461 Q18.9063,67.2461 18.2188,66.1836 Q17.5313,65.1055 17.5313,63.8242 L17.5313,62.668 Q17.5313,61.3398 18.1406,60.1992 Q18.7656,59.043 19.8594,58.4336 Q20.9531,57.8086 22.1875,57.8086 Q22.9219,57.8086 23.5625,57.9805 Q24.2188,58.1367 24.7656,58.4961 Z " fill="#000000"/><text fill="#000000" font-family="sans-serif" font-size="14" lengthAdjust="spacing" textLength="75" x="36" y="68.418">SystemUser</text><line style="stroke:#181818;stroke-width:0.5;" x1="8" x2="113" y1="78.6211" y2="78.6211"/><text fill="#000000" font-family="sans-serif" font-size="14" lengthAdjust="spacing" textLength="35" x="13" y="97.7285">name</text><text fill="#000000" font-family="sans-serif" font-size="14" lengthAdjust="spacing" textLength="33" x="13" y="116.3496">email</text><text fill="#000000" font-family="sans-serif" font-size="14" lengthAdjust="spacing" textLength="60" x="13" y="134.9707">password</text><text fill="#000000" font-family="sans-serif" font-size="14" lengthAdjust="spacing" textLength="40" x="13" y="153.5918">phone</text><line style="stroke:#181818;stroke-width:0.5;" x1="8" x2="113" y1="161.1055" y2="161.1055"/></g><!--class GreenSpaceRepository--><g id="elem_GreenSpaceRepository"><rect codeLine="25" fill="#F1F1F1" height="122.4844" id="GreenSpaceRepository" rx="2.5" ry="2.5" style="stroke:#181818;stroke-width:0.5;" width="235" x="789" y="687.6211"/><ellipse cx="828.75" cy="703.6211" fill="#ADD1B2" rx="11" ry="11" style="stroke:#181818;stroke-width:1.0;"/><path d="M831.5156,699.4961 Q831.6719,699.2773 831.8594,699.168 Q832.0469,699.0586 832.2656,699.0586 Q832.6406,699.0586 832.875,699.3242 Q833.1094,699.5742 833.1094,700.1836 L833.1094,701.6367 Q833.1094,702.2461 832.875,702.5117 Q832.6406,702.7773 832.2656,702.7773 Q831.9219,702.7773 831.7188,702.5742 Q831.5156,702.3867 831.4063,701.8711 Q831.3594,701.5117 831.1719,701.3242 Q830.8438,700.9492 830.2344,700.7305 Q829.625,700.5117 829,700.5117 Q828.2344,700.5117 827.5938,700.8398 Q826.9688,701.168 826.4688,701.918 Q825.9844,702.668 825.9844,703.6992 L825.9844,704.793 Q825.9844,706.0273 826.875,706.8555 Q827.7656,707.668 829.3594,707.668 Q830.2969,707.668 830.9531,707.418 Q831.3438,707.2617 831.7656,706.8242 Q832.0313,706.5586 832.1719,706.4805 Q832.3281,706.4023 832.5313,706.4023 Q832.8594,706.4023 833.1094,706.668 Q833.375,706.918 833.375,707.2617 Q833.375,707.6055 833.0313,708.0117 Q832.5313,708.5898 831.7344,708.918 Q830.6563,709.3711 829.3594,709.3711 Q827.8438,709.3711 826.6406,708.7461 Q825.6563,708.2461 824.9688,707.1836 Q824.2813,706.1055 824.2813,704.8242 L824.2813,703.668 Q824.2813,702.3398 824.8906,701.1992 Q825.5156,700.043 826.6094,699.4336 Q827.7031,698.8086 828.9375,698.8086 Q829.6719,698.8086 830.3125,698.9805 Q830.9688,699.1367 831.5156,699.4961 Z " fill="#000000"/><text fill="#000000" font-family="sans-serif" font-size="14" lengthAdjust="spacing" textLength="148" x="848.25" y="709.418">GreenSpaceRepository</text><line style="stroke:#181818;stroke-width:0.5;" x1="790" x2="1023" y1="719.6211" y2="719.6211"/><text fill="#000000" font-family="sans-serif" font-size="14" lengthAdjust="spacing" textLength="104" x="795" y="738.7285">-greenSpaceList</text><line style="stroke:#181818;stroke-width:0.5;" x1="790" x2="1023" y1="746.2422" y2="746.2422"/><text fill="#000000" font-family="sans-serif" font-size="14" lengthAdjust="spacing" textLength="140" x="795" y="765.3496">+getGreenSpaceList()</text><text fill="#000000" font-family="sans-serif" font-size="14" lengthAdjust="spacing" textLength="223" x="795" y="783.9707">+registerGreenSpace(greenSpace)</text><text fill="#000000" font-family="sans-serif" font-size="14" lengthAdjust="spacing" textLength="223" x="795" y="802.5918">-greenSpaceIsUnique(greenSpace)</text></g><!--class Repositories--><g id="elem_Repositories"><rect codeLine="33" fill="#F1F1F1" height="122.4844" id="Repositories" rx="2.5" ry="2.5" style="stroke:#181818;stroke-width:0.5;" width="198" x="559.5" y="504.6211"/><ellipse cx="614.75" cy="520.6211" fill="#ADD1B2" rx="11" ry="11" style="stroke:#181818;stroke-width:1.0;"/><path d="M617.5156,516.4961 Q617.6719,516.2773 617.8594,516.168 Q618.0469,516.0586 618.2656,516.0586 Q618.6406,516.0586 618.875,516.3242 Q619.1094,516.5742 619.1094,517.1836 L619.1094,518.6367 Q619.1094,519.2461 618.875,519.5117 Q618.6406,519.7773 618.2656,519.7773 Q617.9219,519.7773 617.7188,519.5742 Q617.5156,519.3867 617.4063,518.8711 Q617.3594,518.5117 617.1719,518.3242 Q616.8438,517.9492 616.2344,517.7305 Q615.625,517.5117 615,517.5117 Q614.2344,517.5117 613.5938,517.8398 Q612.9688,518.168 612.4688,518.918 Q611.9844,519.668 611.9844,520.6992 L611.9844,521.793 Q611.9844,523.0273 612.875,523.8555 Q613.7656,524.668 615.3594,524.668 Q616.2969,524.668 616.9531,524.418 Q617.3438,524.2617 617.7656,523.8242 Q618.0313,523.5586 618.1719,523.4805 Q618.3281,523.4023 618.5313,523.4023 Q618.8594,523.4023 619.1094,523.668 Q619.375,523.918 619.375,524.2617 Q619.375,524.6055 619.0313,525.0117 Q618.5313,525.5898 617.7344,525.918 Q616.6563,526.3711 615.3594,526.3711 Q613.8438,526.3711 612.6406,525.7461 Q611.6563,525.2461 610.9688,524.1836 Q610.2813,523.1055 610.2813,521.8242 L610.2813,520.668 Q610.2813,519.3398 610.8906,518.1992 Q611.5156,517.043 612.6094,516.4336 Q613.7031,515.8086 614.9375,515.8086 Q615.6719,515.8086 616.3125,515.9805 Q616.9688,516.1367 617.5156,516.4961 Z " fill="#000000"/><text fill="#000000" font-family="sans-serif" font-size="14" lengthAdjust="spacing" textLength="79" x="635.25" y="526.418">Repositories</text><line style="stroke:#181818;stroke-width:0.5;" x1="560.5" x2="756.5" y1="536.6211" y2="536.6211"/><text fill="#000000" font-family="sans-serif" font-size="14" lengthAdjust="spacing" textLength="150" x="565.5" y="555.7285">-greenSpaceRepository</text><line style="stroke:#181818;stroke-width:0.5;" x1="560.5" x2="756.5" y1="563.2422" y2="563.2422"/><text fill="#000000" font-family="sans-serif" font-size="14" lengthAdjust="spacing" textLength="94" x="565.5" y="582.3496">-Repositories()</text><text fill="#000000" font-family="sans-serif" font-size="14" lengthAdjust="spacing" textLength="91" x="565.5" y="600.9707">+getInstance()</text><text fill="#000000" font-family="sans-serif" font-size="14" lengthAdjust="spacing" textLength="186" x="565.5" y="619.5918">+getGreenSpaceRepository()</text></g><!--class GreenSpaceMapper--><g id="elem_GreenSpaceMapper"><rect codeLine="41" fill="#F1F1F1" height="103.8633" id="GreenSpaceMapper" rx="2.5" ry="2.5" style="stroke:#181818;stroke-width:0.5;" width="185" x="826" y="284.6211"/><ellipse cx="852.25" cy="300.6211" fill="#ADD1B2" rx="11" ry="11" style="stroke:#181818;stroke-width:1.0;"/><path d="M855.0156,296.4961 Q855.1719,296.2773 855.3594,296.168 Q855.5469,296.0586 855.7656,296.0586 Q856.1406,296.0586 856.375,296.3242 Q856.6094,296.5742 856.6094,297.1836 L856.6094,298.6367 Q856.6094,299.2461 856.375,299.5117 Q856.1406,299.7773 855.7656,299.7773 Q855.4219,299.7773 855.2188,299.5742 Q855.0156,299.3867 854.9063,298.8711 Q854.8594,298.5117 854.6719,298.3242 Q854.3438,297.9492 853.7344,297.7305 Q853.125,297.5117 852.5,297.5117 Q851.7344,297.5117 851.0938,297.8398 Q850.4688,298.168 849.9688,298.918 Q849.4844,299.668 849.4844,300.6992 L849.4844,301.793 Q849.4844,303.0273 850.375,303.8555 Q851.2656,304.668 852.8594,304.668 Q853.7969,304.668 854.4531,304.418 Q854.8438,304.2617 855.2656,303.8242 Q855.5313,303.5586 855.6719,303.4805 Q855.8281,303.4023 856.0313,303.4023 Q856.3594,303.4023 856.6094,303.668 Q856.875,303.918 856.875,304.2617 Q856.875,304.6055 856.5313,305.0117 Q856.0313,305.5898 855.2344,305.918 Q854.1563,306.3711 852.8594,306.3711 Q851.3438,306.3711 850.1406,305.7461 Q849.1563,305.2461 848.4688,304.1836 Q847.7813,303.1055 847.7813,301.8242 L847.7813,300.668 Q847.7813,299.3398 848.3906,298.1992 Q849.0156,297.043 850.1094,296.4336 Q851.2031,295.8086 852.4375,295.8086 Q853.1719,295.8086 853.8125,295.9805 Q854.4688,296.1367 855.0156,296.4961 Z " fill="#000000"/><text fill="#000000" font-family="sans-serif" font-size="14" lengthAdjust="spacing" textLength="128" x="868.75" y="306.418">GreenSpaceMapper</text><line style="stroke:#181818;stroke-width:0.5;" x1="827" x2="1010" y1="316.6211" y2="316.6211"/><line style="stroke:#181818;stroke-width:0.5;" x1="827" x2="1010" y1="324.6211" y2="324.6211"/><text fill="#000000" font-family="sans-serif" font-size="14" lengthAdjust="spacing" textLength="137" x="832" y="343.7285">+toDTO(greenSpace)</text><text fill="#000000" font-family="sans-serif" font-size="14" lengthAdjust="spacing" textLength="172" x="832" y="362.3496">+toEntity(greenSpaceDTO)</text><text fill="#000000" font-family="sans-serif" font-size="14" lengthAdjust="spacing" textLength="173" x="832" y="380.9707">+toDtoList(greenSpaceList)</text></g><!--class RegisterGreenSpaceController--><g id="elem_RegisterGreenSpaceController"><rect codeLine="48" fill="#F1F1F1" height="178.3477" id="RegisterGreenSpaceController" rx="2.5" ry="2.5" style="stroke:#181818;stroke-width:0.5;" width="265" x="526" y="247.6211"/><ellipse cx="558.1" cy="263.6211" fill="#ADD1B2" rx="11" ry="11" style="stroke:#181818;stroke-width:1.0;"/><path d="M560.8656,259.4961 Q561.0219,259.2773 561.2094,259.168 Q561.3969,259.0586 561.6156,259.0586 Q561.9906,259.0586 562.225,259.3242 Q562.4594,259.5742 562.4594,260.1836 L562.4594,261.6367 Q562.4594,262.2461 562.225,262.5117 Q561.9906,262.7773 561.6156,262.7773 Q561.2719,262.7773 561.0688,262.5742 Q560.8656,262.3867 560.7563,261.8711 Q560.7094,261.5117 560.5219,261.3242 Q560.1938,260.9492 559.5844,260.7305 Q558.975,260.5117 558.35,260.5117 Q557.5844,260.5117 556.9438,260.8398 Q556.3188,261.168 555.8188,261.918 Q555.3344,262.668 555.3344,263.6992 L555.3344,264.793 Q555.3344,266.0273 556.225,266.8555 Q557.1156,267.668 558.7094,267.668 Q559.6469,267.668 560.3031,267.418 Q560.6938,267.2617 561.1156,266.8242 Q561.3813,266.5586 561.5219,266.4805 Q561.6781,266.4023 561.8813,266.4023 Q562.2094,266.4023 562.4594,266.668 Q562.725,266.918 562.725,267.2617 Q562.725,267.6055 562.3813,268.0117 Q561.8813,268.5898 561.0844,268.918 Q560.0063,269.3711 558.7094,269.3711 Q557.1938,269.3711 555.9906,268.7461 Q555.0063,268.2461 554.3188,267.1836 Q553.6313,266.1055 553.6313,264.8242 L553.6313,263.668 Q553.6313,262.3398 554.2406,261.1992 Q554.8656,260.043 555.9594,259.4336 Q557.0531,258.8086 558.2875,258.8086 Q559.0219,258.8086 559.6625,258.9805 Q560.3188,259.1367 560.8656,259.4961 Z " fill="#000000"/><text fill="#000000" font-family="sans-serif" font-size="14" lengthAdjust="spacing" textLength="195" x="575.9" y="269.418">RegisterGreenSpaceController</text><line style="stroke:#181818;stroke-width:0.5;" x1="527" x2="790" y1="279.6211" y2="279.6211"/><text fill="#000000" font-family="sans-serif" font-size="14" lengthAdjust="spacing" textLength="150" x="532" y="298.7285">-greenSpaceRepository</text><text fill="#000000" font-family="sans-serif" font-size="14" lengthAdjust="spacing" textLength="130" x="532" y="317.3496">-greenSpaceMapper</text><line style="stroke:#181818;stroke-width:0.5;" x1="527" x2="790" y1="324.8633" y2="324.8633"/><text fill="#000000" font-family="sans-serif" font-size="14" lengthAdjust="spacing" textLength="253" x="532" y="343.9707">+registerGreenSpace(greenSpaceDTO)</text><text fill="#000000" font-family="sans-serif" font-size="14" lengthAdjust="spacing" textLength="172" x="532" y="362.5918">+getGreenSpaceTypeList()</text><text fill="#000000" font-family="sans-serif" font-size="14" lengthAdjust="spacing" textLength="177" x="532" y="381.2129">+getGreenSpaceDTOsList()</text><text fill="#000000" font-family="sans-serif" font-size="14" lengthAdjust="spacing" textLength="137" x="532" y="399.834">-getGreenSpaceList()</text><text fill="#000000" font-family="sans-serif" font-size="14" lengthAdjust="spacing" textLength="183" x="532" y="418.4551">-getGreenSpaceRepository()</text></g><!--class RegisterGreenSpaceUI--><g id="elem_RegisterGreenSpaceUI"><rect codeLine="59" fill="#F1F1F1" height="48" id="RegisterGreenSpaceUI" rx="2.5" ry="2.5" style="stroke:#181818;stroke-width:0.5;" width="177" x="92" y="312.6211"/><ellipse cx="107" cy="328.6211" fill="#ADD1B2" rx="11" ry="11" style="stroke:#181818;stroke-width:1.0;"/><path d="M109.7656,324.4961 Q109.9219,324.2773 110.1094,324.168 Q110.2969,324.0586 110.5156,324.0586 Q110.8906,324.0586 111.125,324.3242 Q111.3594,324.5742 111.3594,325.1836 L111.3594,326.6367 Q111.3594,327.2461 111.125,327.5117 Q110.8906,327.7773 110.5156,327.7773 Q110.1719,327.7773 109.9688,327.5742 Q109.7656,327.3867 109.6563,326.8711 Q109.6094,326.5117 109.4219,326.3242 Q109.0938,325.9492 108.4844,325.7305 Q107.875,325.5117 107.25,325.5117 Q106.4844,325.5117 105.8438,325.8398 Q105.2188,326.168 104.7188,326.918 Q104.2344,327.668 104.2344,328.6992 L104.2344,329.793 Q104.2344,331.0273 105.125,331.8555 Q106.0156,332.668 107.6094,332.668 Q108.5469,332.668 109.2031,332.418 Q109.5938,332.2617 110.0156,331.8242 Q110.2813,331.5586 110.4219,331.4805 Q110.5781,331.4023 110.7813,331.4023 Q111.1094,331.4023 111.3594,331.668 Q111.625,331.918 111.625,332.2617 Q111.625,332.6055 111.2813,333.0117 Q110.7813,333.5898 109.9844,333.918 Q108.9063,334.3711 107.6094,334.3711 Q106.0938,334.3711 104.8906,333.7461 Q103.9063,333.2461 103.2188,332.1836 Q102.5313,331.1055 102.5313,329.8242 L102.5313,328.668 Q102.5313,327.3398 103.1406,326.1992 Q103.7656,325.043 104.8594,324.4336 Q105.9531,323.8086 107.1875,323.8086 Q107.9219,323.8086 108.5625,323.9805 Q109.2188,324.1367 109.7656,324.4961 Z " fill="#000000"/><text fill="#000000" font-family="sans-serif" font-size="14" lengthAdjust="spacing" textLength="145" x="121" y="334.418">RegisterGreenSpaceUI</text><line style="stroke:#181818;stroke-width:0.5;" x1="93" x2="268" y1="344.6211" y2="344.6211"/><line style="stroke:#181818;stroke-width:0.5;" x1="93" x2="268" y1="352.6211" y2="352.6211"/></g><!--class GreenSpaceDTO--><g id="elem_GreenSpaceDTO"><rect codeLine="63" fill="#F1F1F1" height="159.7266" id="GreenSpaceDTO" rx="2.5" ry="2.5" style="stroke:#181818;stroke-width:0.5;" width="142" x="348.5" y="256.6211"/><ellipse cx="363.5" cy="272.6211" fill="#ADD1B2" rx="11" ry="11" style="stroke:#181818;stroke-width:1.0;"/><path d="M366.2656,268.4961 Q366.4219,268.2773 366.6094,268.168 Q366.7969,268.0586 367.0156,268.0586 Q367.3906,268.0586 367.625,268.3242 Q367.8594,268.5742 367.8594,269.1836 L367.8594,270.6367 Q367.8594,271.2461 367.625,271.5117 Q367.3906,271.7773 367.0156,271.7773 Q366.6719,271.7773 366.4688,271.5742 Q366.2656,271.3867 366.1563,270.8711 Q366.1094,270.5117 365.9219,270.3242 Q365.5938,269.9492 364.9844,269.7305 Q364.375,269.5117 363.75,269.5117 Q362.9844,269.5117 362.3438,269.8398 Q361.7188,270.168 361.2188,270.918 Q360.7344,271.668 360.7344,272.6992 L360.7344,273.793 Q360.7344,275.0273 361.625,275.8555 Q362.5156,276.668 364.1094,276.668 Q365.0469,276.668 365.7031,276.418 Q366.0938,276.2617 366.5156,275.8242 Q366.7813,275.5586 366.9219,275.4805 Q367.0781,275.4023 367.2813,275.4023 Q367.6094,275.4023 367.8594,275.668 Q368.125,275.918 368.125,276.2617 Q368.125,276.6055 367.7813,277.0117 Q367.2813,277.5898 366.4844,277.918 Q365.4063,278.3711 364.1094,278.3711 Q362.5938,278.3711 361.3906,277.7461 Q360.4063,277.2461 359.7188,276.1836 Q359.0313,275.1055 359.0313,273.8242 L359.0313,272.668 Q359.0313,271.3398 359.6406,270.1992 Q360.2656,269.043 361.3594,268.4336 Q362.4531,267.8086 363.6875,267.8086 Q364.4219,267.8086 365.0625,267.9805 Q365.7188,268.1367 366.2656,268.4961 Z " fill="#000000"/><text fill="#000000" font-family="sans-serif" font-size="14" lengthAdjust="spacing" textLength="110" x="377.5" y="278.418">GreenSpaceDTO</text><line style="stroke:#181818;stroke-width:0.5;" x1="349.5" x2="489.5" y1="288.6211" y2="288.6211"/><text fill="#000000" font-family="sans-serif" font-size="14" lengthAdjust="spacing" textLength="40" x="354.5" y="307.7285">-name</text><text fill="#000000" font-family="sans-serif" font-size="14" lengthAdjust="spacing" textLength="56" x="354.5" y="326.3496">-address</text><text fill="#000000" font-family="sans-serif" font-size="14" lengthAdjust="spacing" textLength="34" x="354.5" y="344.9707">-area</text><text fill="#000000" font-family="sans-serif" font-size="14" lengthAdjust="spacing" textLength="32" x="354.5" y="363.5918">-type</text><line style="stroke:#181818;stroke-width:0.5;" x1="349.5" x2="489.5" y1="371.1055" y2="371.1055"/><text fill="#000000" font-family="sans-serif" font-size="14" lengthAdjust="spacing" textLength="67" x="354.5" y="390.2129">+toString()</text><text fill="#000000" font-family="sans-serif" font-size="14" lengthAdjust="spacing" textLength="99" x="354.5" y="408.834">+toStringLong()</text></g><!--class GSM--><g id="elem_GSM"><rect fill="#F1F1F1" height="48" id="GSM" rx="2.5" ry="2.5" style="stroke:#181818;stroke-width:0.5;" width="63" x="149" y="83.6211"/><ellipse cx="164" cy="99.6211" fill="#ADD1B2" rx="11" ry="11" style="stroke:#181818;stroke-width:1.0;"/><path d="M166.7656,95.4961 Q166.9219,95.2773 167.1094,95.168 Q167.2969,95.0586 167.5156,95.0586 Q167.8906,95.0586 168.125,95.3242 Q168.3594,95.5742 168.3594,96.1836 L168.3594,97.6367 Q168.3594,98.2461 168.125,98.5117 Q167.8906,98.7773 167.5156,98.7773 Q167.1719,98.7773 166.9688,98.5742 Q166.7656,98.3867 166.6563,97.8711 Q166.6094,97.5117 166.4219,97.3242 Q166.0938,96.9492 165.4844,96.7305 Q164.875,96.5117 164.25,96.5117 Q163.4844,96.5117 162.8438,96.8398 Q162.2188,97.168 161.7188,97.918 Q161.2344,98.668 161.2344,99.6992 L161.2344,100.793 Q161.2344,102.0273 162.125,102.8555 Q163.0156,103.668 164.6094,103.668 Q165.5469,103.668 166.2031,103.418 Q166.5938,103.2617 167.0156,102.8242 Q167.2813,102.5586 167.4219,102.4805 Q167.5781,102.4023 167.7813,102.4023 Q168.1094,102.4023 168.3594,102.668 Q168.625,102.918 168.625,103.2617 Q168.625,103.6055 168.2813,104.0117 Q167.7813,104.5898 166.9844,104.918 Q165.9063,105.3711 164.6094,105.3711 Q163.0938,105.3711 161.8906,104.7461 Q160.9063,104.2461 160.2188,103.1836 Q159.5313,102.1055 159.5313,100.8242 L159.5313,99.668 Q159.5313,98.3398 160.1406,97.1992 Q160.7656,96.043 161.8594,95.4336 Q162.9531,94.8086 164.1875,94.8086 Q164.9219,94.8086 165.5625,94.9805 Q166.2188,95.1367 166.7656,95.4961 Z " fill="#000000"/><text fill="#000000" font-family="sans-serif" font-size="14" lengthAdjust="spacing" textLength="31" x="178" y="105.418">GSM</text><line style="stroke:#181818;stroke-width:0.5;" x1="150" x2="211" y1="115.6211" y2="115.6211"/><line style="stroke:#181818;stroke-width:0.5;" x1="150" x2="211" y1="123.6211" y2="123.6211"/></g><!--link RegisterGreenSpaceUI to RegisterGreenSpaceController--><g id="link_RegisterGreenSpaceUI_RegisterGreenSpaceController"><path codeLine="72" d="M212.01,312.4511 C260.53,275.2311 348,208.1211 348,208.1211 C348,208.1211 490,208.1211 490,208.1211 C490,208.1211 507.9486,221.8132 536.6986,243.7332 " fill="none" id="RegisterGreenSpaceUI-to-RegisterGreenSpaceController" style="stroke:#181818;stroke-width:1.0;stroke-dasharray:7.0,7.0;"/><polygon fill="#181818" points="541.47,247.3711,536.7382,238.7334,537.4939,244.3395,531.8877,245.0952,541.47,247.3711" style="stroke:#181818;stroke-width:1.0;"/></g><!--link RegisterGreenSpaceUI to GreenSpaceDTO--><g id="link_RegisterGreenSpaceUI_GreenSpaceDTO"><path codeLine="73" d="M269.16,336.6211 C295.19,336.6211 323.33,336.6211 348.14,336.6211 " fill="none" id="RegisterGreenSpaceUI-GreenSpaceDTO" style="stroke:#181818;stroke-width:1.0;"/><text fill="#000000" font-family="sans-serif" font-size="13" lengthAdjust="spacing" textLength="43" x="287.25" y="329.6494">creates</text><text fill="#000000" font-family="sans-serif" font-size="13" lengthAdjust="spacing" textLength="7" x="277.08" y="332.9314">1</text><text fill="#000000" font-family="sans-serif" font-size="13" lengthAdjust="spacing" textLength="5" x="335.5232" y="332.802">*</text></g><!--link RegisterGreenSpaceController to Repositories--><g id="link_RegisterGreenSpaceController_Repositories"><path codeLine="74" d="M658.5,425.7111 C658.5,452.0011 658.5,474.2211 658.5,498.3011 " fill="none" id="RegisterGreenSpaceController-to-Repositories" style="stroke:#181818;stroke-width:1.0;stroke-dasharray:7.0,7.0;"/><polygon fill="#181818" points="658.5,504.3011,662.5,495.3011,658.5,499.3011,654.5,495.3011,658.5,504.3011" style="stroke:#181818;stroke-width:1.0;"/><text fill="#000000" font-family="sans-serif" font-size="13" lengthAdjust="spacing" textLength="67" x="659.5" y="470.6494">repositories</text></g><!--link Repositories to GreenSpaceRepository--><g id="link_Repositories_GreenSpaceRepository"><path codeLine="75" d="M740.74,626.6411 C767.53,646.1911 792.4135,664.3539 819.2135,683.9139 " fill="none" id="Repositories-to-GreenSpaceRepository" style="stroke:#181818;stroke-width:1.0;"/><polygon fill="#181818" points="824.06,687.4511,819.1484,678.9143,820.0213,684.5034,814.4322,685.3763,824.06,687.4511" style="stroke:#181818;stroke-width:1.0;"/><text fill="#000000" font-family="sans-serif" font-size="13" lengthAdjust="spacing" textLength="7" x="807.1232" y="676.4126">1</text></g><!--link Repositories to Repositories--><g id="link_Repositories_Repositories"><path codeLine="76" d="M757.55,549.3611 C777.9,551.1011 792.5,556.5211 792.5,565.6211 C792.5,574.7211 783.8782,579.6299 763.5282,581.3699 " fill="none" id="Repositories-to-Repositories" style="stroke:#181818;stroke-width:1.0;"/><polygon fill="#181818" points="757.55,581.8811,766.8581,585.0998,762.5318,581.4551,766.1765,577.1289,757.55,581.8811" style="stroke:#181818;stroke-width:1.0;"/><text fill="#000000" font-family="sans-serif" font-size="13" lengthAdjust="spacing" textLength="49" x="798.5" y="571.1494">instance</text></g><!--link RegisterGreenSpaceController to GreenSpaceMapper--><g id="link_RegisterGreenSpaceController_GreenSpaceMapper"><path codeLine="77" d="M791.04,336.6211 C804.84,336.6211 812.3,336.6211 819.79,336.6211 " fill="none" id="RegisterGreenSpaceController-to-GreenSpaceMapper" style="stroke:#181818;stroke-width:1.0;stroke-dasharray:7.0,7.0;"/><polygon fill="#181818" points="825.79,336.6211,816.79,332.6211,820.79,336.6211,816.79,340.6211,825.79,336.6211" style="stroke:#181818;stroke-width:1.0;"/></g><!--link RegisterGreenSpaceController to GreenSpaceRepository--><g id="link_RegisterGreenSpaceController_GreenSpaceRepository"><path codeLine="78" d="M761.42,425.7711 C808.3,465.9111 853.5,504.6211 853.5,504.6211 C853.5,504.6211 876.421,609.729 892.121,681.689 " fill="none" id="RegisterGreenSpaceController-to-GreenSpaceRepository" style="stroke:#181818;stroke-width:1.0;"/><polygon fill="#181818" points="893.4,687.5511,895.3896,677.9053,892.3342,682.666,887.5735,679.6106,893.4,687.5511" style="stroke:#181818;stroke-width:1.0;"/><text fill="#000000" font-family="sans-serif" font-size="13" lengthAdjust="spacing" textLength="28" x="881.5" y="571.1494">uses</text></g><!--reverse link SystemUser to GSM--><g id="link_SystemUser_GSM"><path codeLine="80" d="M132.04,107.6211 C143.65,107.6211 140.5,107.6211 140.5,107.6211 C140.5,107.6211 144.03,107.6211 148.98,107.6211 " fill="none" id="SystemUser-backto-GSM" style="stroke:#181818;stroke-width:1.0;"/><polygon fill="none" points="114.04,107.6211,132.04,113.6211,132.04,101.6211,114.04,107.6211" style="stroke:#181818;stroke-width:1.0;"/></g><!--link GSM to RegisterGreenSpaceUI--><g id="link_GSM_RegisterGreenSpaceUI"><path codeLine="82" d="M180.5,131.6411 C180.5,175.1411 180.5,268.9911 180.5,312.5411 " fill="none" id="GSM-RegisterGreenSpaceUI" style="stroke:#181818;stroke-width:1.0;"/><text fill="#000000" font-family="sans-serif" font-size="13" lengthAdjust="spacing" textLength="7" x="172.6469" y="153.6316">1</text><text fill="#000000" font-family="sans-serif" font-size="13" lengthAdjust="spacing" textLength="7" x="172.6031" y="301.2581">1</text></g><!--reverse link GreenSpace to GreenSpaceRepository--><g id="link_GreenSpace_GreenSpaceRepository"><path codeLine="83" d="M1033.3685,174.6278 C1034.8285,191.1378 1035.5,198.6211 1035.5,198.6211 C1035.5,198.6211 1035.5,217.6211 1035.5,217.6211 C1035.5,217.6211 1028.5,425.6211 1028.5,425.6211 C1028.5,425.6211 964.62,594.2311 929.3,687.4311 " fill="none" id="GreenSpace-backto-GreenSpaceRepository" style="stroke:#181818;stroke-width:1.0;"/><polygon fill="#181818" points="1032.84,168.6511,1029.6483,177.9685,1033.2804,173.6317,1037.6172,177.2638,1032.84,168.6511" style="stroke:#181818;stroke-width:1.0;"/><text fill="#000000" font-family="sans-serif" font-size="13" lengthAdjust="spacing" textLength="36" x="1017.5" y="470.6494">stores</text><text fill="#000000" font-family="sans-serif" font-size="13" lengthAdjust="spacing" textLength="5" x="1028.1861" y="191.1416">*</text><text fill="#000000" font-family="sans-serif" font-size="13" lengthAdjust="spacing" textLength="7" x="924.5316" y="676.3903">1</text></g><!--reverse link GreenSpace to GreenSpaceMapper--><g id="link_GreenSpace_GreenSpaceMapper"><path codeLine="84" d="M995.983,174.27 C978.703,210.26 959.58,250.0711 943.12,284.3511 " fill="none" id="GreenSpace-backto-GreenSpaceMapper" style="stroke:#181818;stroke-width:1.0;"/><polygon fill="#181818" points="998.58,168.8611,991.0786,175.2431,996.4159,173.3685,998.2904,178.7057,998.58,168.8611" style="stroke:#181818;stroke-width:1.0;"/><text fill="#000000" font-family="sans-serif" font-size="13" lengthAdjust="spacing" textLength="43" x="983.5" y="213.6494">creates</text><text fill="#000000" font-family="sans-serif" font-size="13" lengthAdjust="spacing" textLength="5" x="989.9471" y="190.9419">*</text><text fill="#000000" font-family="sans-serif" font-size="13" lengthAdjust="spacing" textLength="7" x="938.958" y="273.2422">1</text></g><!--SRC=[ZLJRRjim37tNLmXvIXQes5w38i3G34605WFcvWCqXtE5Af8dAYYyRly-Ml8atvhE3xOeKeU7XwBnMPbQEddcfPQ8dxrtwll5mw6qfb2_W7zac49gMJxB2WhVQE0EIYzDfQ4NW4_oP5-KgVWFgR7lqSg0RshWjTLDQp3cbIUOkpOjtobPKHXZWGNVEm1JK3fuPPmUOUGPuagUJWuGEyE1ZAiMc_rXx1z2qQ27yn71yGYH4E0ibGwhcW9Vh3j5uycQY32cy0rgYyfRrtHGWbV9UQ_GXyqrhy3l1_lBLUTnK949BhkN6M4rmJpWqQYVbs5GPfRuAC0PHfakwtpz0uaJiJqOf0uIcTLS1Hbd6RAFPNcGTPtKNNDlTuzV9sMr-ryCTRhfkIWmUtVU1gs6aWxh7QjtPurtLkkKNioMF_94ml_JaXx1WIIFTCa6ZHruwHJslEBD2o6k29sLdfPzF52vSwsWpAyipaYQZpWRSIxMtXOqrwQY16bzRuDDSBEPRhPNXPy_jFYqeEeM7nP3Sdp3IsBZ0TdLPjw4fBtRlQ4-PPCDV49iGxuv8KUH4rJLtVntw6mdr_twWPRIx7zZmoz8_5dlhtJxM_1zyS0OlQ9k8dpcT6NP2EBUTh5lv4BwKhPt3tKJd9lp5m00]--></g></svg>