<?xml version="1.0" encoding="us-ascii" standalone="no"?><svg xmlns="http://www.w3.org/2000/svg" xmlns:xlink="http://www.w3.org/1999/xlink" contentStyleType="text/css" height="1360px" preserveAspectRatio="none" style="width:2568px;height:1360px;background:#FFFFFF;" version="1.1" viewBox="0 0 2568 1360" width="2568px" zoomAndPan="magnify"><defs/><g><rect fill="#FFFFFF" height="1166.0586" style="stroke:#181818;stroke-width:1.0;" width="10" x="78.5" y="93.6211"/><rect fill="#FFFFFF" height="79.873" style="stroke:#181818;stroke-width:1.0;" width="10" x="482.5" y="116.9121"/><rect fill="#FFFFFF" height="31.291" style="stroke:#181818;stroke-width:1.0;" width="10" x="482.5" y="228.0762"/><rect fill="#FFFFFF" height="31.291" style="stroke:#181818;stroke-width:1.0;" width="10" x="482.5" y="353.2402"/><rect fill="#FFFFFF" height="31.291" style="stroke:#181818;stroke-width:1.0;" width="10" x="482.5" y="415.8223"/><rect fill="#FFFFFF" height="31.291" style="stroke:#181818;stroke-width:1.0;" width="10" x="482.5" y="478.4043"/><rect fill="#FFFFFF" height="93.873" style="stroke:#181818;stroke-width:1.0;" width="10" x="482.5" y="728.7324"/><rect fill="#FFFFFF" height="31.291" style="stroke:#181818;stroke-width:1.0;" width="10" x="482.5" y="1228.3887"/><rect fill="#FFFFFF" height="93.873" style="stroke:#181818;stroke-width:1.0;" width="10" x="747.5" y="259.3672"/><rect fill="#FFFFFF" height="31.291" style="stroke:#181818;stroke-width:1.0;" width="10" x="747.5" y="822.6055"/><rect fill="#FFFFFF" height="263.3281" style="stroke:#181818;stroke-width:1.0;" width="10" x="747.5" y="965.0605"/><rect fill="#FFFFFF" height="219.0371" style="stroke:#181818;stroke-width:1.0;" width="10" x="947" y="509.6953"/><rect fill="#FFFFFF" height="31.291" style="stroke:#181818;stroke-width:1.0;" width="10" x="1088.5" y="540.9863"/><rect fill="#FFFFFF" height="31.291" style="stroke:#181818;stroke-width:1.0;" width="10" x="1088.5" y="996.3516"/><rect fill="#FFFFFF" height="31.291" style="stroke:#181818;stroke-width:1.0;" width="10" x="1195.5" y="603.5684"/><rect fill="#FFFFFF" height="31.291" style="stroke:#181818;stroke-width:1.0;" width="10" x="1195.5" y="1058.9336"/><rect fill="#FFFFFF" height="75.582" style="stroke:#181818;stroke-width:1.0;" width="10" x="1337" y="1121.5156"/><rect fill="#FFFFFF" height="31.291" style="stroke:#181818;stroke-width:1.0;" width="10" x="1578" y="290.6582"/><rect fill="#FFFFFF" height="31.291" style="stroke:#181818;stroke-width:1.0;" width="10" x="1732" y="760.0234"/><rect fill="#FFFFFF" height="31.291" style="stroke:#181818;stroke-width:1.0;" width="10" x="1892" y="666.1504"/><rect fill="#FFFFFF" height="111.1641" style="stroke:#181818;stroke-width:1.0;" width="10" x="2061" y="853.8965"/><rect fill="#FFFFFF" height="31.291" style="stroke:#181818;stroke-width:1.0;" width="10" x="2510" y="902.4785"/><line style="stroke:#181818;stroke-width:0.5;stroke-dasharray:5.0,5.0;" x1="83" x2="83" y1="83.6211" y2="1277.6797"/><line style="stroke:#181818;stroke-width:0.5;stroke-dasharray:5.0,5.0;" x1="487" x2="487" y1="83.6211" y2="1277.6797"/><line style="stroke:#181818;stroke-width:0.5;stroke-dasharray:5.0,5.0;" x1="752" x2="752" y1="83.6211" y2="1277.6797"/><line style="stroke:#181818;stroke-width:0.5;stroke-dasharray:5.0,5.0;" x1="952" x2="952" y1="83.6211" y2="1277.6797"/><line style="stroke:#181818;stroke-width:0.5;stroke-dasharray:5.0,5.0;" x1="1093" x2="1093" y1="83.6211" y2="1277.6797"/><line style="stroke:#181818;stroke-width:0.5;stroke-dasharray:5.0,5.0;" x1="1200" x2="1200" y1="83.6211" y2="1277.6797"/><line style="stroke:#181818;stroke-width:0.5;stroke-dasharray:5.0,5.0;" x1="1342" x2="1342" y1="83.6211" y2="1277.6797"/><line style="stroke:#181818;stroke-width:0.5;stroke-dasharray:5.0,5.0;" x1="1583" x2="1583" y1="83.6211" y2="1277.6797"/><line style="stroke:#181818;stroke-width:0.5;stroke-dasharray:5.0,5.0;" x1="1737" x2="1737" y1="83.6211" y2="1277.6797"/><line style="stroke:#181818;stroke-width:0.5;stroke-dasharray:5.0,5.0;" x1="1897" x2="1897" y1="83.6211" y2="1277.6797"/><line style="stroke:#181818;stroke-width:0.5;stroke-dasharray:5.0,5.0;" x1="2066" x2="2066" y1="83.6211" y2="1277.6797"/><line style="stroke:#181818;stroke-width:0.5;stroke-dasharray:5.0,5.0;" x1="2515" x2="2515" y1="83.6211" y2="1277.6797"/><text fill="#000000" font-family="sans-serif" font-size="14" lengthAdjust="spacing" textLength="151" x="5" y="80.1074">Green Spaces Manager</text><ellipse cx="83.5" cy="13.5" fill="#E3E3E3" rx="8" ry="8" style="stroke:#181818;stroke-width:0.5;"/><path d="M83.5,21.5 L83.5,48.5 M70.5,29.5 L96.5,29.5 M83.5,48.5 L70.5,63.5 M83.5,48.5 L96.5,63.5 " fill="none" style="stroke:#181818;stroke-width:0.5;"/><text fill="#000000" font-family="sans-serif" font-size="14" lengthAdjust="spacing" textLength="151" x="5" y="1291.7871">Green Spaces Manager</text><ellipse cx="83.5" cy="1303.8008" fill="#E3E3E3" rx="8" ry="8" style="stroke:#181818;stroke-width:0.5;"/><path d="M83.5,1311.8008 L83.5,1338.8008 M70.5,1319.8008 L96.5,1319.8008 M83.5,1338.8008 L70.5,1353.8008 M83.5,1338.8008 L96.5,1353.8008 " fill="none" style="stroke:#181818;stroke-width:0.5;"/><rect fill="#E3E3E3" height="32.6211" rx="2.5" ry="2.5" style="stroke:#181818;stroke-width:0.5;" width="163" x="406" y="50"/><text fill="#000000" font-family="sans-serif" font-size="14" lengthAdjust="spacing" textLength="149" x="413" y="72.1074">:RegisterGreenSpaceUI</text><rect fill="#E3E3E3" height="32.6211" rx="2.5" ry="2.5" style="stroke:#181818;stroke-width:0.5;" width="163" x="406" y="1276.6797"/><text fill="#000000" font-family="sans-serif" font-size="14" lengthAdjust="spacing" textLength="149" x="413" y="1298.7871">:RegisterGreenSpaceUI</text><rect fill="#E3E3E3" height="32.6211" rx="2.5" ry="2.5" style="stroke:#181818;stroke-width:0.5;" width="213" x="646" y="50"/><text fill="#000000" font-family="sans-serif" font-size="14" lengthAdjust="spacing" textLength="199" x="653" y="72.1074">:RegisterGreenSpaceController</text><rect fill="#E3E3E3" height="32.6211" rx="2.5" ry="2.5" style="stroke:#181818;stroke-width:0.5;" width="213" x="646" y="1276.6797"/><text fill="#000000" font-family="sans-serif" font-size="14" lengthAdjust="spacing" textLength="199" x="653" y="1298.7871">:RegisterGreenSpaceController</text><rect fill="#E3E3E3" height="32.6211" rx="2.5" ry="2.5" style="stroke:#181818;stroke-width:0.5;" width="166" x="869" y="50"/><text fill="#000000" font-family="sans-serif" font-size="14" lengthAdjust="spacing" textLength="152" x="876" y="72.1074">AuthenticationController</text><rect fill="#E3E3E3" height="32.6211" rx="2.5" ry="2.5" style="stroke:#181818;stroke-width:0.5;" width="166" x="869" y="1276.6797"/><text fill="#000000" font-family="sans-serif" font-size="14" lengthAdjust="spacing" textLength="152" x="876" y="1298.7871">AuthenticationController</text><rect fill="#E3E3E3" height="32.6211" rx="2.5" ry="2.5" style="stroke:#181818;stroke-width:0.5;" width="97" x="1045" y="50"/><text fill="#000000" font-family="sans-serif" font-size="14" lengthAdjust="spacing" textLength="83" x="1052" y="72.1074">:Repositories</text><rect fill="#E3E3E3" height="32.6211" rx="2.5" ry="2.5" style="stroke:#181818;stroke-width:0.5;" width="97" x="1045" y="1276.6797"/><text fill="#000000" font-family="sans-serif" font-size="14" lengthAdjust="spacing" textLength="83" x="1052" y="1298.7871">:Repositories</text><rect fill="#E3E3E3" height="51.2422" rx="2.5" ry="2.5" style="stroke:#181818;stroke-width:0.5;" width="97" x="1152" y="31.3789"/><text fill="#000000" font-family="sans-serif" font-size="14" lengthAdjust="spacing" textLength="74" x="1163.5" y="53.4863">repositories</text><text fill="#000000" font-family="sans-serif" font-size="14" lengthAdjust="spacing" textLength="83" x="1159" y="72.1074">:Repositories</text><rect fill="#E3E3E3" height="51.2422" rx="2.5" ry="2.5" style="stroke:#181818;stroke-width:0.5;" width="97" x="1152" y="1276.6797"/><text fill="#000000" font-family="sans-serif" font-size="14" lengthAdjust="spacing" textLength="74" x="1163.5" y="1298.7871">repositories</text><text fill="#000000" font-family="sans-serif" font-size="14" lengthAdjust="spacing" textLength="83" x="1159" y="1317.4082">:Repositories</text><rect fill="#E3E3E3" height="51.2422" rx="2.5" ry="2.5" style="stroke:#181818;stroke-width:0.5;" width="166" x="1259" y="31.3789"/><text fill="#000000" font-family="sans-serif" font-size="14" lengthAdjust="spacing" textLength="152" x="1266" y="53.4863">greenSpacesRepository</text><text fill="#000000" font-family="sans-serif" font-size="14" lengthAdjust="spacing" textLength="152" x="1266" y="72.1074">:GreenSpaceRepository</text><rect fill="#E3E3E3" height="51.2422" rx="2.5" ry="2.5" style="stroke:#181818;stroke-width:0.5;" width="166" x="1259" y="1276.6797"/><text fill="#000000" font-family="sans-serif" font-size="14" lengthAdjust="spacing" textLength="152" x="1266" y="1298.7871">greenSpacesRepository</text><text fill="#000000" font-family="sans-serif" font-size="14" lengthAdjust="spacing" textLength="152" x="1266" y="1317.4082">:GreenSpaceRepository</text><rect fill="#E3E3E3" height="32.6211" rx="2.5" ry="2.5" style="stroke:#181818;stroke-width:0.5;" width="164" x="1501" y="50"/><text fill="#000000" font-family="sans-serif" font-size="14" lengthAdjust="spacing" textLength="150" x="1508" y="72.1074">GreenSpaceTypeENUM</text><rect fill="#E3E3E3" height="32.6211" rx="2.5" ry="2.5" style="stroke:#181818;stroke-width:0.5;" width="164" x="1501" y="1276.6797"/><text fill="#000000" font-family="sans-serif" font-size="14" lengthAdjust="spacing" textLength="150" x="1508" y="1298.7871">GreenSpaceTypeENUM</text><rect fill="#E3E3E3" height="32.6211" rx="2.5" ry="2.5" style="stroke:#181818;stroke-width:0.5;" width="124" x="1675" y="50"/><text fill="#000000" font-family="sans-serif" font-size="14" lengthAdjust="spacing" textLength="110" x="1682" y="72.1074">GreenSpaceDTO</text><rect fill="#E3E3E3" height="32.6211" rx="2.5" ry="2.5" style="stroke:#181818;stroke-width:0.5;" width="124" x="1675" y="1276.6797"/><text fill="#000000" font-family="sans-serif" font-size="14" lengthAdjust="spacing" textLength="110" x="1682" y="1298.7871">GreenSpaceDTO</text><rect fill="#E3E3E3" height="51.2422" rx="2.5" ry="2.5" style="stroke:#181818;stroke-width:0.5;" width="176" x="1809" y="31.3789"/><text fill="#000000" font-family="sans-serif" font-size="14" lengthAdjust="spacing" textLength="157" x="1818.5" y="53.4863">authenticationRepository</text><text fill="#000000" font-family="sans-serif" font-size="14" lengthAdjust="spacing" textLength="162" x="1816" y="72.1074">:AuthenticationRepository</text><rect fill="#E3E3E3" height="51.2422" rx="2.5" ry="2.5" style="stroke:#181818;stroke-width:0.5;" width="176" x="1809" y="1276.6797"/><text fill="#000000" font-family="sans-serif" font-size="14" lengthAdjust="spacing" textLength="157" x="1818.5" y="1298.7871">authenticationRepository</text><text fill="#000000" font-family="sans-serif" font-size="14" lengthAdjust="spacing" textLength="162" x="1816" y="1317.4082">:AuthenticationRepository</text><rect fill="#E3E3E3" height="32.6211" rx="2.5" ry="2.5" style="stroke:#181818;stroke-width:0.5;" width="142" x="1995" y="50"/><text fill="#000000" font-family="sans-serif" font-size="14" lengthAdjust="spacing" textLength="128" x="2002" y="72.1074">GreenSpaceMapper</text><rect fill="#E3E3E3" height="32.6211" rx="2.5" ry="2.5" style="stroke:#181818;stroke-width:0.5;" width="142" x="1995" y="1276.6797"/><text fill="#000000" font-family="sans-serif" font-size="14" lengthAdjust="spacing" textLength="128" x="2002" y="1298.7871">GreenSpaceMapper</text><rect fill="#E3E3E3" height="32.6211" rx="2.5" ry="2.5" style="stroke:#181818;stroke-width:0.5;" width="94" x="2468" y="50"/><text fill="#000000" font-family="sans-serif" font-size="14" lengthAdjust="spacing" textLength="80" x="2475" y="72.1074">GreenSpace</text><rect fill="#E3E3E3" height="32.6211" rx="2.5" ry="2.5" style="stroke:#181818;stroke-width:0.5;" width="94" x="2468" y="1276.6797"/><text fill="#000000" font-family="sans-serif" font-size="14" lengthAdjust="spacing" textLength="80" x="2475" y="1298.7871">GreenSpace</text><rect fill="#FFFFFF" height="1166.0586" style="stroke:#181818;stroke-width:1.0;" width="10" x="78.5" y="93.6211"/><rect fill="#FFFFFF" height="79.873" style="stroke:#181818;stroke-width:1.0;" width="10" x="482.5" y="116.9121"/><rect fill="#FFFFFF" height="31.291" style="stroke:#181818;stroke-width:1.0;" width="10" x="482.5" y="228.0762"/><rect fill="#FFFFFF" height="31.291" style="stroke:#181818;stroke-width:1.0;" width="10" x="482.5" y="353.2402"/><rect fill="#FFFFFF" height="31.291" style="stroke:#181818;stroke-width:1.0;" width="10" x="482.5" y="415.8223"/><rect fill="#FFFFFF" height="31.291" style="stroke:#181818;stroke-width:1.0;" width="10" x="482.5" y="478.4043"/><rect fill="#FFFFFF" height="93.873" style="stroke:#181818;stroke-width:1.0;" width="10" x="482.5" y="728.7324"/><rect fill="#FFFFFF" height="31.291" style="stroke:#181818;stroke-width:1.0;" width="10" x="482.5" y="1228.3887"/><rect fill="#FFFFFF" height="93.873" style="stroke:#181818;stroke-width:1.0;" width="10" x="747.5" y="259.3672"/><rect fill="#FFFFFF" height="31.291" style="stroke:#181818;stroke-width:1.0;" width="10" x="747.5" y="822.6055"/><rect fill="#FFFFFF" height="263.3281" style="stroke:#181818;stroke-width:1.0;" width="10" x="747.5" y="965.0605"/><rect fill="#FFFFFF" height="219.0371" style="stroke:#181818;stroke-width:1.0;" width="10" x="947" y="509.6953"/><rect fill="#FFFFFF" height="31.291" style="stroke:#181818;stroke-width:1.0;" width="10" x="1088.5" y="540.9863"/><rect fill="#FFFFFF" height="31.291" style="stroke:#181818;stroke-width:1.0;" width="10" x="1088.5" y="996.3516"/><rect fill="#FFFFFF" height="31.291" style="stroke:#181818;stroke-width:1.0;" width="10" x="1195.5" y="603.5684"/><rect fill="#FFFFFF" height="31.291" style="stroke:#181818;stroke-width:1.0;" width="10" x="1195.5" y="1058.9336"/><rect fill="#FFFFFF" height="75.582" style="stroke:#181818;stroke-width:1.0;" width="10" x="1337" y="1121.5156"/><rect fill="#FFFFFF" height="31.291" style="stroke:#181818;stroke-width:1.0;" width="10" x="1578" y="290.6582"/><rect fill="#FFFFFF" height="31.291" style="stroke:#181818;stroke-width:1.0;" width="10" x="1732" y="760.0234"/><rect fill="#FFFFFF" height="31.291" style="stroke:#181818;stroke-width:1.0;" width="10" x="1892" y="666.1504"/><rect fill="#FFFFFF" height="111.1641" style="stroke:#181818;stroke-width:1.0;" width="10" x="2061" y="853.8965"/><rect fill="#FFFFFF" height="31.291" style="stroke:#181818;stroke-width:1.0;" width="10" x="2510" y="902.4785"/><polygon fill="#181818" points="470.5,112.9121,480.5,116.9121,470.5,120.9121,474.5,116.9121" style="stroke:#181818;stroke-width:1.0;"/><line style="stroke:#181818;stroke-width:1.0;" x1="88.5" x2="476.5" y1="116.9121" y2="116.9121"/><text fill="#000000" font-family="sans-serif" font-size="13" font-weight="bold" lengthAdjust="spacing" textLength="7" x="95.5" y="111.6494">1</text><text fill="#000000" font-family="sans-serif" font-size="13" lengthAdjust="spacing" textLength="176" x="106.5" y="111.6494">asks to register a green space</text><polygon fill="#181818" points="740.5,144.2031,750.5,148.2031,740.5,152.2031,744.5,148.2031" style="stroke:#181818;stroke-width:1.0;"/><line style="stroke:#181818;stroke-width:1.0;" x1="492.5" x2="746.5" y1="148.2031" y2="148.2031"/><text fill="#000000" font-family="sans-serif" font-size="13" font-weight="bold" lengthAdjust="spacing" textLength="7" x="499.5" y="142.9404">2</text><text fill="#000000" font-family="sans-serif" font-size="13" lengthAdjust="spacing" textLength="36" x="510.5" y="142.9404">create</text><polygon fill="#181818" points="99.5,192.7852,89.5,196.7852,99.5,200.7852,95.5,196.7852" style="stroke:#181818;stroke-width:1.0;"/><line style="stroke:#181818;stroke-width:1.0;stroke-dasharray:2.0,2.0;" x1="93.5" x2="486.5" y1="196.7852" y2="196.7852"/><text fill="#000000" font-family="sans-serif" font-size="13" font-weight="bold" lengthAdjust="spacing" textLength="7" x="105.5" y="182.877">3</text><text fill="#000000" font-family="sans-serif" font-size="13" lengthAdjust="spacing" textLength="295" x="116.5" y="174.2314">shows green space type list and requests to select</text><text fill="#000000" font-family="sans-serif" font-size="13" lengthAdjust="spacing" textLength="180" x="116.5" y="191.5225">one job for the new collaborator</text><polygon fill="#181818" points="470.5,224.0762,480.5,228.0762,470.5,232.0762,474.5,228.0762" style="stroke:#181818;stroke-width:1.0;"/><line style="stroke:#181818;stroke-width:1.0;" x1="88.5" x2="476.5" y1="228.0762" y2="228.0762"/><text fill="#000000" font-family="sans-serif" font-size="13" font-weight="bold" lengthAdjust="spacing" textLength="7" x="95.5" y="222.8135">4</text><text fill="#000000" font-family="sans-serif" font-size="13" lengthAdjust="spacing" textLength="157" x="106.5" y="222.8135">selects a green space type</text><polygon fill="#181818" points="735.5,255.3672,745.5,259.3672,735.5,263.3672,739.5,259.3672" style="stroke:#181818;stroke-width:1.0;"/><line style="stroke:#181818;stroke-width:1.0;" x1="487.5" x2="741.5" y1="259.3672" y2="259.3672"/><text fill="#000000" font-family="sans-serif" font-size="13" font-weight="bold" lengthAdjust="spacing" textLength="7" x="494.5" y="254.1045">5</text><text fill="#000000" font-family="sans-serif" font-size="13" lengthAdjust="spacing" textLength="147" x="505.5" y="254.1045">getGreenSpaceTypeList()</text><polygon fill="#181818" points="1566,286.6582,1576,290.6582,1566,294.6582,1570,290.6582" style="stroke:#181818;stroke-width:1.0;"/><line style="stroke:#181818;stroke-width:1.0;" x1="757.5" x2="1572" y1="290.6582" y2="290.6582"/><text fill="#000000" font-family="sans-serif" font-size="13" font-weight="bold" lengthAdjust="spacing" textLength="7" x="764.5" y="285.3955">6</text><text fill="#000000" font-family="sans-serif" font-size="13" lengthAdjust="spacing" textLength="147" x="775.5" y="285.3955">getGreenSpaceTypeList()</text><polygon fill="#181818" points="768.5,317.9492,758.5,321.9492,768.5,325.9492,764.5,321.9492" style="stroke:#181818;stroke-width:1.0;"/><line style="stroke:#181818;stroke-width:1.0;stroke-dasharray:2.0,2.0;" x1="762.5" x2="1582" y1="321.9492" y2="321.9492"/><text fill="#000000" font-family="sans-serif" font-size="13" font-weight="bold" lengthAdjust="spacing" textLength="7" x="774.5" y="316.6865">7</text><text fill="#000000" font-family="sans-serif" font-size="13" lengthAdjust="spacing" textLength="186" x="785.5" y="316.6865">GreenSpaceTypeENUM.values()</text><polygon fill="#181818" points="503.5,349.2402,493.5,353.2402,503.5,357.2402,499.5,353.2402" style="stroke:#181818;stroke-width:1.0;"/><line style="stroke:#181818;stroke-width:1.0;" x1="497.5" x2="751.5" y1="353.2402" y2="353.2402"/><text fill="#000000" font-family="sans-serif" font-size="13" font-weight="bold" lengthAdjust="spacing" textLength="7" x="509.5" y="347.9775">8</text><text fill="#000000" font-family="sans-serif" font-size="13" lengthAdjust="spacing" textLength="118" x="520.5" y="347.9775">greenSpaceTypeList</text><polygon fill="#181818" points="99.5,380.5313,89.5,384.5313,99.5,388.5313,95.5,384.5313" style="stroke:#181818;stroke-width:1.0;"/><line style="stroke:#181818;stroke-width:1.0;" x1="93.5" x2="486.5" y1="384.5313" y2="384.5313"/><text fill="#000000" font-family="sans-serif" font-size="13" font-weight="bold" lengthAdjust="spacing" textLength="7" x="105.5" y="379.2686">9</text><text fill="#000000" font-family="sans-serif" font-size="13" lengthAdjust="spacing" textLength="298" x="116.5" y="379.2686">shows green space type list and asks to select one</text><polygon fill="#181818" points="470.5,411.8223,480.5,415.8223,470.5,419.8223,474.5,415.8223" style="stroke:#181818;stroke-width:1.0;"/><line style="stroke:#181818;stroke-width:1.0;" x1="88.5" x2="476.5" y1="415.8223" y2="415.8223"/><text fill="#000000" font-family="sans-serif" font-size="13" font-weight="bold" lengthAdjust="spacing" textLength="14" x="95.5" y="410.5596">10</text><text fill="#000000" font-family="sans-serif" font-size="13" lengthAdjust="spacing" textLength="146" x="113.5" y="410.5596">selects green space type</text><polygon fill="#181818" points="99.5,443.1133,89.5,447.1133,99.5,451.1133,95.5,447.1133" style="stroke:#181818;stroke-width:1.0;"/><line style="stroke:#181818;stroke-width:1.0;" x1="93.5" x2="486.5" y1="447.1133" y2="447.1133"/><text fill="#000000" font-family="sans-serif" font-size="13" font-weight="bold" lengthAdjust="spacing" textLength="14" x="105.5" y="441.8506">11</text><text fill="#000000" font-family="sans-serif" font-size="13" lengthAdjust="spacing" textLength="352" x="123.5" y="441.8506">requests data for the new green space (name, address, area)</text><polygon fill="#181818" points="470.5,474.4043,480.5,478.4043,470.5,482.4043,474.5,478.4043" style="stroke:#181818;stroke-width:1.0;"/><line style="stroke:#181818;stroke-width:1.0;" x1="88.5" x2="476.5" y1="478.4043" y2="478.4043"/><text fill="#000000" font-family="sans-serif" font-size="13" font-weight="bold" lengthAdjust="spacing" textLength="14" x="95.5" y="473.1416">12</text><text fill="#000000" font-family="sans-serif" font-size="13" lengthAdjust="spacing" textLength="126" x="113.5" y="473.1416">enters requested data</text><polygon fill="#181818" points="935,505.6953,945,509.6953,935,513.6953,939,509.6953" style="stroke:#181818;stroke-width:1.0;"/><line style="stroke:#181818;stroke-width:1.0;" x1="487.5" x2="941" y1="509.6953" y2="509.6953"/><text fill="#000000" font-family="sans-serif" font-size="13" font-weight="bold" lengthAdjust="spacing" textLength="14" x="494.5" y="504.4326">13</text><text fill="#000000" font-family="sans-serif" font-size="13" lengthAdjust="spacing" textLength="128" x="512.5" y="504.4326">getCurrentUserEmail()</text><polygon fill="#181818" points="1076.5,536.9863,1086.5,540.9863,1076.5,544.9863,1080.5,540.9863" style="stroke:#181818;stroke-width:1.0;"/><line style="stroke:#181818;stroke-width:1.0;" x1="957" x2="1082.5" y1="540.9863" y2="540.9863"/><text fill="#000000" font-family="sans-serif" font-size="13" font-weight="bold" lengthAdjust="spacing" textLength="14" x="964" y="535.7236">14</text><text fill="#000000" font-family="sans-serif" font-size="13" lengthAdjust="spacing" textLength="75" x="982" y="535.7236">getInstance()</text><polygon fill="#181818" points="968,568.2773,958,572.2773,968,576.2773,964,572.2773" style="stroke:#181818;stroke-width:1.0;"/><line style="stroke:#181818;stroke-width:1.0;stroke-dasharray:2.0,2.0;" x1="962" x2="1092.5" y1="572.2773" y2="572.2773"/><text fill="#000000" font-family="sans-serif" font-size="13" font-weight="bold" lengthAdjust="spacing" textLength="14" x="974" y="567.0146">15</text><text fill="#000000" font-family="sans-serif" font-size="13" lengthAdjust="spacing" textLength="67" x="992" y="567.0146">repositories</text><polygon fill="#181818" points="1183.5,599.5684,1193.5,603.5684,1183.5,607.5684,1187.5,603.5684" style="stroke:#181818;stroke-width:1.0;"/><line style="stroke:#181818;stroke-width:1.0;" x1="957" x2="1189.5" y1="603.5684" y2="603.5684"/><text fill="#000000" font-family="sans-serif" font-size="13" font-weight="bold" lengthAdjust="spacing" textLength="14" x="964" y="598.3057">16</text><text fill="#000000" font-family="sans-serif" font-size="13" lengthAdjust="spacing" textLength="171" x="982" y="598.3057">getAuthenticationRepository()</text><polygon fill="#181818" points="968,630.8594,958,634.8594,968,638.8594,964,634.8594" style="stroke:#181818;stroke-width:1.0;"/><line style="stroke:#181818;stroke-width:1.0;stroke-dasharray:2.0,2.0;" x1="962" x2="1199.5" y1="634.8594" y2="634.8594"/><text fill="#000000" font-family="sans-serif" font-size="13" font-weight="bold" lengthAdjust="spacing" textLength="14" x="974" y="629.5967">17</text><text fill="#000000" font-family="sans-serif" font-size="13" lengthAdjust="spacing" textLength="143" x="992" y="629.5967">authenticationRepository</text><polygon fill="#181818" points="1880,662.1504,1890,666.1504,1880,670.1504,1884,666.1504" style="stroke:#181818;stroke-width:1.0;"/><line style="stroke:#181818;stroke-width:1.0;" x1="957" x2="1886" y1="666.1504" y2="666.1504"/><text fill="#000000" font-family="sans-serif" font-size="13" font-weight="bold" lengthAdjust="spacing" textLength="14" x="964" y="660.8877">18</text><text fill="#000000" font-family="sans-serif" font-size="13" lengthAdjust="spacing" textLength="128" x="982" y="660.8877">getCurrentUserEmail()</text><polygon fill="#181818" points="968,693.4414,958,697.4414,968,701.4414,964,697.4414" style="stroke:#181818;stroke-width:1.0;"/><line style="stroke:#181818;stroke-width:1.0;stroke-dasharray:2.0,2.0;" x1="962" x2="1896" y1="697.4414" y2="697.4414"/><text fill="#000000" font-family="sans-serif" font-size="13" font-weight="bold" lengthAdjust="spacing" textLength="14" x="974" y="692.1787">19</text><text fill="#000000" font-family="sans-serif" font-size="13" lengthAdjust="spacing" textLength="31" x="992" y="692.1787">email</text><polygon fill="#181818" points="503.5,724.7324,493.5,728.7324,503.5,732.7324,499.5,728.7324" style="stroke:#181818;stroke-width:1.0;"/><line style="stroke:#181818;stroke-width:1.0;stroke-dasharray:2.0,2.0;" x1="497.5" x2="951" y1="728.7324" y2="728.7324"/><text fill="#000000" font-family="sans-serif" font-size="13" font-weight="bold" lengthAdjust="spacing" textLength="14" x="509.5" y="723.4697">20</text><text fill="#000000" font-family="sans-serif" font-size="13" lengthAdjust="spacing" textLength="31" x="527.5" y="723.4697">email</text><polygon fill="#181818" points="1720,756.0234,1730,760.0234,1720,764.0234,1724,760.0234" style="stroke:#181818;stroke-width:1.0;"/><line style="stroke:#181818;stroke-width:1.0;" x1="492.5" x2="1726" y1="760.0234" y2="760.0234"/><text fill="#000000" font-family="sans-serif" font-size="13" font-weight="bold" lengthAdjust="spacing" textLength="14" x="499.5" y="754.7607">21</text><text fill="#000000" font-family="sans-serif" font-size="13" lengthAdjust="spacing" textLength="297" x="517.5" y="754.7607">GreenSpaceDTO(name, address, area, type, email)</text><polygon fill="#181818" points="503.5,787.3145,493.5,791.3145,503.5,795.3145,499.5,791.3145" style="stroke:#181818;stroke-width:1.0;"/><line style="stroke:#181818;stroke-width:1.0;stroke-dasharray:2.0,2.0;" x1="497.5" x2="1736" y1="791.3145" y2="791.3145"/><text fill="#000000" font-family="sans-serif" font-size="13" font-weight="bold" lengthAdjust="spacing" textLength="14" x="509.5" y="786.0518">22</text><text fill="#000000" font-family="sans-serif" font-size="13" lengthAdjust="spacing" textLength="95" x="527.5" y="786.0518">greenSpaceDTO</text><polygon fill="#181818" points="735.5,818.6055,745.5,822.6055,735.5,826.6055,739.5,822.6055" style="stroke:#181818;stroke-width:1.0;"/><line style="stroke:#181818;stroke-width:1.0;" x1="487.5" x2="741.5" y1="822.6055" y2="822.6055"/><text fill="#000000" font-family="sans-serif" font-size="13" font-weight="bold" lengthAdjust="spacing" textLength="14" x="494.5" y="817.3428">23</text><text fill="#000000" font-family="sans-serif" font-size="13" lengthAdjust="spacing" textLength="218" x="512.5" y="817.3428">registerGreenSpace(greenSpaceDTO)</text><polygon fill="#181818" points="2049,849.8965,2059,853.8965,2049,857.8965,2053,853.8965" style="stroke:#181818;stroke-width:1.0;"/><line style="stroke:#181818;stroke-width:1.0;" x1="752.5" x2="2055" y1="853.8965" y2="853.8965"/><text fill="#000000" font-family="sans-serif" font-size="13" font-weight="bold" lengthAdjust="spacing" textLength="14" x="759.5" y="848.6338">24</text><text fill="#000000" font-family="sans-serif" font-size="13" lengthAdjust="spacing" textLength="148" x="777.5" y="848.6338">toEntity(greenSpaceDTO)</text><polygon fill="#181818" points="2498,898.4785,2508,902.4785,2498,906.4785,2502,902.4785" style="stroke:#181818;stroke-width:1.0;"/><line style="stroke:#181818;stroke-width:1.0;" x1="2071" x2="2504" y1="902.4785" y2="902.4785"/><text fill="#000000" font-family="sans-serif" font-size="13" font-weight="bold" lengthAdjust="spacing" textLength="14" x="2078" y="888.5703">25</text><text fill="#000000" font-family="sans-serif" font-size="13" lengthAdjust="spacing" textLength="364" x="2096" y="879.9248">GreenSpace(greenSpaceDTO.name, greenSpaceDTO.address,</text><text fill="#000000" font-family="sans-serif" font-size="13" lengthAdjust="spacing" textLength="398" x="2100" y="897.2158">greenSpaceDTO.area, greenSpaceDTO.type, greenSpaceDTO.email)</text><polygon fill="#181818" points="2082,929.7695,2072,933.7695,2082,937.7695,2078,933.7695" style="stroke:#181818;stroke-width:1.0;"/><line style="stroke:#181818;stroke-width:1.0;stroke-dasharray:2.0,2.0;" x1="2076" x2="2514" y1="933.7695" y2="933.7695"/><text fill="#000000" font-family="sans-serif" font-size="13" font-weight="bold" lengthAdjust="spacing" textLength="14" x="2088" y="928.5068">26</text><text fill="#000000" font-family="sans-serif" font-size="13" lengthAdjust="spacing" textLength="69" x="2106" y="928.5068">greenSpace</text><polygon fill="#181818" points="768.5,961.0605,758.5,965.0605,768.5,969.0605,764.5,965.0605" style="stroke:#181818;stroke-width:1.0;"/><line style="stroke:#181818;stroke-width:1.0;stroke-dasharray:2.0,2.0;" x1="762.5" x2="2065" y1="965.0605" y2="965.0605"/><text fill="#000000" font-family="sans-serif" font-size="13" font-weight="bold" lengthAdjust="spacing" textLength="14" x="774.5" y="959.7979">27</text><text fill="#000000" font-family="sans-serif" font-size="13" lengthAdjust="spacing" textLength="69" x="792.5" y="959.7979">greenSpace</text><polygon fill="#181818" points="1076.5,992.3516,1086.5,996.3516,1076.5,1000.3516,1080.5,996.3516" style="stroke:#181818;stroke-width:1.0;"/><line style="stroke:#181818;stroke-width:1.0;" x1="757.5" x2="1082.5" y1="996.3516" y2="996.3516"/><text fill="#000000" font-family="sans-serif" font-size="13" font-weight="bold" lengthAdjust="spacing" textLength="14" x="764.5" y="991.0889">28</text><text fill="#000000" font-family="sans-serif" font-size="13" lengthAdjust="spacing" textLength="75" x="782.5" y="991.0889">getInstance()</text><polygon fill="#181818" points="768.5,1023.6426,758.5,1027.6426,768.5,1031.6426,764.5,1027.6426" style="stroke:#181818;stroke-width:1.0;"/><line style="stroke:#181818;stroke-width:1.0;stroke-dasharray:2.0,2.0;" x1="762.5" x2="1092.5" y1="1027.6426" y2="1027.6426"/><text fill="#000000" font-family="sans-serif" font-size="13" font-weight="bold" lengthAdjust="spacing" textLength="14" x="774.5" y="1022.3799">29</text><text fill="#000000" font-family="sans-serif" font-size="13" lengthAdjust="spacing" textLength="67" x="792.5" y="1022.3799">repositories</text><polygon fill="#181818" points="1183.5,1054.9336,1193.5,1058.9336,1183.5,1062.9336,1187.5,1058.9336" style="stroke:#181818;stroke-width:1.0;"/><line style="stroke:#181818;stroke-width:1.0;" x1="757.5" x2="1189.5" y1="1058.9336" y2="1058.9336"/><text fill="#000000" font-family="sans-serif" font-size="13" font-weight="bold" lengthAdjust="spacing" textLength="14" x="764.5" y="1053.6709">30</text><text fill="#000000" font-family="sans-serif" font-size="13" lengthAdjust="spacing" textLength="160" x="782.5" y="1053.6709">getGreenSpaceRepository()</text><polygon fill="#181818" points="768.5,1086.2246,758.5,1090.2246,768.5,1094.2246,764.5,1090.2246" style="stroke:#181818;stroke-width:1.0;"/><line style="stroke:#181818;stroke-width:1.0;stroke-dasharray:2.0,2.0;" x1="762.5" x2="1199.5" y1="1090.2246" y2="1090.2246"/><text fill="#000000" font-family="sans-serif" font-size="13" font-weight="bold" lengthAdjust="spacing" textLength="14" x="774.5" y="1084.9619">31</text><text fill="#000000" font-family="sans-serif" font-size="13" lengthAdjust="spacing" textLength="131" x="792.5" y="1084.9619">greenSpaceRepository</text><polygon fill="#181818" points="1325,1117.5156,1335,1121.5156,1325,1125.5156,1329,1121.5156" style="stroke:#181818;stroke-width:1.0;"/><line style="stroke:#181818;stroke-width:1.0;" x1="757.5" x2="1331" y1="1121.5156" y2="1121.5156"/><text fill="#000000" font-family="sans-serif" font-size="13" font-weight="bold" lengthAdjust="spacing" textLength="14" x="764.5" y="1116.2529">32</text><text fill="#000000" font-family="sans-serif" font-size="13" lengthAdjust="spacing" textLength="192" x="782.5" y="1116.2529">registerGreenSpace(greenSpace)</text><line style="stroke:#181818;stroke-width:1.0;stroke-dasharray:2.0,2.0;" x1="1347" x2="1389" y1="1152.8066" y2="1152.8066"/><line style="stroke:#181818;stroke-width:1.0;stroke-dasharray:2.0,2.0;" x1="1389" x2="1389" y1="1152.8066" y2="1165.8066"/><line style="stroke:#181818;stroke-width:1.0;stroke-dasharray:2.0,2.0;" x1="1348" x2="1389" y1="1165.8066" y2="1165.8066"/><polygon fill="#181818" points="1358,1161.8066,1348,1165.8066,1358,1169.8066,1354,1165.8066" style="stroke:#181818;stroke-width:1.0;"/><text fill="#000000" font-family="sans-serif" font-size="13" font-weight="bold" lengthAdjust="spacing" textLength="14" x="1354" y="1147.5439">33</text><text fill="#000000" font-family="sans-serif" font-size="13" lengthAdjust="spacing" textLength="199" x="1372" y="1147.5439">isGreenSpaceUnique(greenSpace)</text><polygon fill="#181818" points="768.5,1193.0977,758.5,1197.0977,768.5,1201.0977,764.5,1197.0977" style="stroke:#181818;stroke-width:1.0;"/><line style="stroke:#181818;stroke-width:1.0;stroke-dasharray:2.0,2.0;" x1="762.5" x2="1341" y1="1197.0977" y2="1197.0977"/><text fill="#000000" font-family="sans-serif" font-size="13" font-weight="bold" lengthAdjust="spacing" textLength="14" x="774.5" y="1191.835">34</text><text fill="#000000" font-family="sans-serif" font-size="13" lengthAdjust="spacing" textLength="49" x="792.5" y="1191.835">success</text><polygon fill="#181818" points="503.5,1224.3887,493.5,1228.3887,503.5,1232.3887,499.5,1228.3887" style="stroke:#181818;stroke-width:1.0;"/><line style="stroke:#181818;stroke-width:1.0;stroke-dasharray:2.0,2.0;" x1="497.5" x2="751.5" y1="1228.3887" y2="1228.3887"/><text fill="#000000" font-family="sans-serif" font-size="13" font-weight="bold" lengthAdjust="spacing" textLength="14" x="509.5" y="1223.126">35</text><text fill="#000000" font-family="sans-serif" font-size="13" lengthAdjust="spacing" textLength="49" x="527.5" y="1223.126">success</text><polygon fill="#181818" points="94.5,1255.6797,84.5,1259.6797,94.5,1263.6797,90.5,1259.6797" style="stroke:#181818;stroke-width:1.0;"/><line style="stroke:#181818;stroke-width:1.0;stroke-dasharray:2.0,2.0;" x1="88.5" x2="486.5" y1="1259.6797" y2="1259.6797"/><text fill="#000000" font-family="sans-serif" font-size="13" font-weight="bold" lengthAdjust="spacing" textLength="14" x="100.5" y="1254.417">36</text><text fill="#000000" font-family="sans-serif" font-size="13" lengthAdjust="spacing" textLength="147" x="118.5" y="1254.417">shows success message</text><!--SRC=[fLVDJkCm4BxdAQnU08do03siX03j8j5T1EsDYqc6D4jYPsq7jc-_OoTrujXEMhQ7gXrxlldcnpEsV2zOJGMjICKPJtU2Lq2KQ22HTgMcwJlDuLdjIo02KaLPNWuto1tD-6V1Sl96Imb9GXl5MLEzWaYIirsH0NdZNBtolmbD5HTayLq0CFACo239cZA45mj29Vdnj4uGL1LfKLEco6Br17aX5GYZOZIszsRhzdvsvmrdIl2oxC1lDayFhivretR0y3zL1MUZxR55pspDPO5k5I2DdXNidmiTAOo5go866Y_C1tXykDwu6hbrIVRegDgxseiDH8fCwIiN52NzaWlQAs_sDTpztAwDwYrFcmhzri9vrTlDBwFbI7IQYm-gmEGp8VZ17sJv3PD6LhZzNHB5iPRQX15AZ8D4QdsptG9Wbeq05L5TPn01KW6urY_WYiPVOINoJpa48mgz82MQ8PHbQF5F0r8Pwn9Ah6NomZW3yfk_OeqAWXad33wT-1ap6NYKXYwrODBrn1ZttF6yoK6vgNX0kkSN0RCEbAbcBJ4m21TEt8G15o-ITxqdWhpiVV1hwUg3bXXhtuy9EmTFJ4XpZt8oXh8XY9JBSKLnACUk8B0S8g4F9Vo4TBTiR0bcL56dvePGvunMS4bebWcG4dzWnLySGGlZ2a8UZ41ch4nmYlMujcfk6Y5mTIj1t5MqAEUBCjepIVU96aGoWSRPyhXd4eTE2frznsAesnusXG2NqruFUxF56JWSCdUKSxgfjzwukth0a7Tc51oa1cA6Fus0Xtmnu7RXZ3nIEMha-bZeyXG-pfIlYnWB75anxnUJ9US4vKlm5kPhv6R23ffhACR_npKUP7lWOuPdJwBJCvEs7Om7-yejXr1NkZHjxx8bSj5F_X5KClg_zDkylZWC8pS2yEQcyEvxvmxOwHDqO79DwrhV0rTu1EumZ6e_0-xF8X_Dh0UCkARTiBjchzeCk3ARZnSsNZ49ScLjkbnPbpo7VazXJBiz3S5WvQxI83vnE1k5mPKe2XC9gfk6jgcT4UmYVZy3bj9QDgNURQVZeGAE7K6puoSsUcpjZiRCCIFcGB8V9Q7x_vYX7I5sV7X17es9u8WuOJmSU8OV8NCdTqG_yfA9O2-dp1Poy8Xa1LwHFBCJi5tKP9FYAqnwTz48ppuUzkRO0PnqbnrTPZiCKk4Nlfr3BvJ1N_q8-mS0]--></g></svg>