<?xml version="1.0" encoding="us-ascii" standalone="no"?><svg xmlns="http://www.w3.org/2000/svg" xmlns:xlink="http://www.w3.org/1999/xlink" contentStyleType="text/css" height="960.6px" preserveAspectRatio="none" style="width:1439px;height:960px;background:#FFFFFF;" version="1.1" viewBox="0 0 1439 960" width="1439.4px" zoomAndPan="magnify"><defs/><g><rect fill="#FFFFFF" height="844.0535" style="stroke:#181818;stroke-width:0.6;" width="6" x="11.1" y="56.1727"/><rect fill="#FFFFFF" height="835.4789" style="stroke:#181818;stroke-width:0.6;" width="6" x="227.1" y="70.1473"/><rect fill="#FFFFFF" height="810.7043" style="stroke:#181818;stroke-width:0.6;" width="6" x="417.9" y="94.9219"/><rect fill="#FFFFFF" height="18.7746" style="stroke:#181818;stroke-width:0.6;" width="6" x="544.5" y="141.2672"/><rect fill="#FFFFFF" height="18.7746" style="stroke:#181818;stroke-width:0.6;" width="6" x="608.7" y="178.8164"/><rect fill="#FFFFFF" height="18.7746" style="stroke:#181818;stroke-width:0.6;" width="6" x="608.7" y="216.3656"/><rect fill="#FFFFFF" height="18.7746" style="stroke:#181818;stroke-width:0.6;" width="6" x="693.9" y="272.6895"/><rect fill="#FFFFFF" height="132.0223" style="stroke:#181818;stroke-width:0.6;" width="6" x="693.9" y="773.6039"/><rect fill="#FFFFFF" height="57.5238" style="stroke:#181818;stroke-width:0.6;" width="6" x="793.2" y="310.2387"/><rect fill="#FFFFFF" height="131.4223" style="stroke:#181818;stroke-width:0.6;" width="6" x="793.2" y="623.407"/><rect fill="#FFFFFF" height="9" style="stroke:#181818;stroke-width:0.6;" width="6" x="961.2" y="344.7879"/><rect fill="#FFFFFF" height="37.5492" style="stroke:#181818;stroke-width:0.6;" width="6" x="1033.8" y="717.2801"/><rect fill="#FFFFFF" height="25.4619" style="stroke:#181818;stroke-width:0.6;" width="6" x="1033.8" y="811.1531"/><rect fill="#FFFFFF" height="18.7746" style="stroke:#181818;stroke-width:0.6;" width="6" x="1083.6" y="642.1816"/><rect fill="#FFFFFF" height="18.7746" style="stroke:#181818;stroke-width:0.6;" width="6" x="1140" y="405.3117"/><rect fill="#FFFFFF" height="57.5238" style="stroke:#181818;stroke-width:0.6;" width="6" x="1210.8" y="442.8609"/><rect fill="#FFFFFF" height="9" style="stroke:#181818;stroke-width:0.6;" width="6" x="1326" y="477.4102"/><rect fill="#FFFFFF" height="18.7746" style="stroke:#181818;stroke-width:0.6;" width="6" x="1394.4" y="862.677"/><rect fill="none" height="30.3492" style="stroke:#000000;stroke-width:0.8999999999999999;" width="261" x="747" y="319.2387"/><rect fill="none" height="30.3492" style="stroke:#000000;stroke-width:0.8999999999999999;" width="180.6" x="1178.4" y="451.8609"/><line style="stroke:#181818;stroke-width:0.3;stroke-dasharray:5.0,5.0;" x1="13.8" x2="13.8" y1="50.1727" y2="911.0262"/><line style="stroke:#181818;stroke-width:0.3;stroke-dasharray:5.0,5.0;" x1="230.1" x2="230.1" y1="50.1727" y2="911.0262"/><line style="stroke:#181818;stroke-width:0.3;stroke-dasharray:5.0,5.0;" x1="420.6" x2="420.6" y1="94.0336" y2="911.0262"/><line style="stroke:#181818;stroke-width:0.3;stroke-dasharray:5.0,5.0;" x1="547.2" x2="547.2" y1="50.1727" y2="911.0262"/><line style="stroke:#181818;stroke-width:0.3;stroke-dasharray:5.0,5.0;" x1="611.4" x2="611.4" y1="50.1727" y2="911.0262"/><line style="stroke:#181818;stroke-width:0.3;stroke-dasharray:5.0,5.0;" x1="696.6" x2="696.6" y1="50.1727" y2="911.0262"/><line style="stroke:#181818;stroke-width:0.3;stroke-dasharray:5.0,5.0;" x1="796.2" x2="796.2" y1="120.2063" y2="911.0262"/><line style="stroke:#181818;stroke-width:0.3;stroke-dasharray:5.0,5.0;" x1="964.2" x2="964.2" y1="50.1727" y2="911.0262"/><line style="stroke:#181818;stroke-width:0.3;stroke-dasharray:5.0,5.0;" x1="1036.8" x2="1036.8" y1="50.1727" y2="911.0262"/><line style="stroke:#181818;stroke-width:0.3;stroke-dasharray:5.0,5.0;" x1="1086.6" x2="1086.6" y1="50.1727" y2="911.0262"/><line style="stroke:#181818;stroke-width:0.3;stroke-dasharray:5.0,5.0;" x1="1143" x2="1143" y1="50.1727" y2="911.0262"/><line style="stroke:#181818;stroke-width:0.3;stroke-dasharray:5.0,5.0;" x1="1213.8" x2="1213.8" y1="50.1727" y2="911.0262"/><line style="stroke:#181818;stroke-width:0.3;stroke-dasharray:5.0,5.0;" x1="1329" x2="1329" y1="50.1727" y2="911.0262"/><line style="stroke:#181818;stroke-width:0.3;stroke-dasharray:5.0,5.0;" x1="1397.4" x2="1397.4" y1="50.1727" y2="911.0262"/><text fill="#000000" font-family="sans-serif" font-size="8.4" lengthAdjust="spacing" textLength="18.6" x="3" y="48.0645">GSM</text><ellipse cx="14.1" cy="8.1" fill="#E3E3E3" rx="4.8" ry="4.8" style="stroke:#181818;stroke-width:0.3;"/><path d="M14.1,12.9 L14.1,29.1 M6.3,17.7 L21.9,17.7 M14.1,29.1 L6.3,38.1 M14.1,29.1 L21.9,38.1 " fill="none" style="stroke:#181818;stroke-width:0.3;"/><text fill="#000000" font-family="sans-serif" font-size="8.4" lengthAdjust="spacing" textLength="18.6" x="3" y="919.4906">GSM</text><ellipse cx="14.1" cy="926.6988" fill="#E3E3E3" rx="4.8" ry="4.8" style="stroke:#181818;stroke-width:0.3;"/><path d="M14.1,931.4988 L14.1,947.6988 M6.3,936.2988 L21.9,936.2988 M14.1,947.6988 L6.3,956.6988 M14.1,947.6988 L21.9,956.6988 " fill="none" style="stroke:#181818;stroke-width:0.3;"/><rect fill="#E3E3E3" height="19.5727" rx="1.5" ry="1.5" style="stroke:#181818;stroke-width:0.3;" width="67.2" x="196.5" y="30"/><text fill="#000000" font-family="sans-serif" font-size="8.4" lengthAdjust="spacing" textLength="58.8" x="200.7" y="43.2645">:AgendaEntryUI</text><rect fill="#E3E3E3" height="19.5727" rx="1.5" ry="1.5" style="stroke:#181818;stroke-width:0.3;" width="67.2" x="196.5" y="910.4262"/><text fill="#000000" font-family="sans-serif" font-size="8.4" lengthAdjust="spacing" textLength="58.8" x="200.7" y="923.6906">:AgendaEntryUI</text><rect fill="#E3E3E3" height="19.5727" rx="1.5" ry="1.5" style="stroke:#181818;stroke-width:0.3;" width="131.4" x="355.2" y="910.4262"/><text fill="#000000" font-family="sans-serif" font-size="8.4" lengthAdjust="spacing" textLength="120.6" x="359.4" y="923.6906">:TeamToAgendaEntryController</text><rect fill="#E3E3E3" height="19.5727" rx="1.5" ry="1.5" style="stroke:#181818;stroke-width:0.3;" width="58.2" x="518.4" y="30"/><text fill="#000000" font-family="sans-serif" font-size="8.4" lengthAdjust="spacing" textLength="49.8" x="522.6" y="43.2645">:Repositories</text><rect fill="#E3E3E3" height="19.5727" rx="1.5" ry="1.5" style="stroke:#181818;stroke-width:0.3;" width="58.2" x="518.4" y="910.4262"/><text fill="#000000" font-family="sans-serif" font-size="8.4" lengthAdjust="spacing" textLength="49.8" x="522.6" y="923.6906">:Repositories</text><rect fill="#E3E3E3" height="30.7453" rx="1.5" ry="1.5" style="stroke:#181818;stroke-width:0.3;" width="58.2" x="582.6" y="18.8273"/><text fill="#000000" font-family="sans-serif" font-size="8.4" lengthAdjust="spacing" textLength="44.4" x="589.5" y="32.0918">repositories</text><text fill="#000000" font-family="sans-serif" font-size="8.4" lengthAdjust="spacing" textLength="49.8" x="586.8" y="43.2645">:Repositories</text><rect fill="#E3E3E3" height="30.7453" rx="1.5" ry="1.5" style="stroke:#181818;stroke-width:0.3;" width="58.2" x="582.6" y="910.4262"/><text fill="#000000" font-family="sans-serif" font-size="8.4" lengthAdjust="spacing" textLength="44.4" x="589.5" y="923.6906">repositories</text><text fill="#000000" font-family="sans-serif" font-size="8.4" lengthAdjust="spacing" textLength="49.8" x="586.8" y="934.8633">:Repositories</text><rect fill="#E3E3E3" height="30.7453" rx="1.5" ry="1.5" style="stroke:#181818;stroke-width:0.3;" width="100.2" x="646.8" y="18.8273"/><text fill="#000000" font-family="sans-serif" font-size="8.4" lengthAdjust="spacing" textLength="91.8" x="651" y="32.0918">agendaEntryRepository:</text><text fill="#000000" font-family="sans-serif" font-size="8.4" lengthAdjust="spacing" textLength="90" x="651.9" y="43.2645">AgendaEntryRepository</text><rect fill="#E3E3E3" height="30.7453" rx="1.5" ry="1.5" style="stroke:#181818;stroke-width:0.3;" width="100.2" x="646.8" y="910.4262"/><text fill="#000000" font-family="sans-serif" font-size="8.4" lengthAdjust="spacing" textLength="91.8" x="651" y="923.6906">agendaEntryRepository:</text><text fill="#000000" font-family="sans-serif" font-size="8.4" lengthAdjust="spacing" textLength="90" x="651.9" y="934.8633">AgendaEntryRepository</text><rect fill="#E3E3E3" height="19.5727" rx="1.5" ry="1.5" style="stroke:#181818;stroke-width:0.3;" width="86.4" x="753" y="910.4262"/><text fill="#000000" font-family="sans-serif" font-size="8.4" lengthAdjust="spacing" textLength="78" x="757.2" y="923.6906">AgendaEntryMapper</text><rect fill="#E3E3E3" height="19.5727" rx="1.5" ry="1.5" style="stroke:#181818;stroke-width:0.3;" width="75.6" x="926.4" y="30"/><text fill="#000000" font-family="sans-serif" font-size="8.4" lengthAdjust="spacing" textLength="67.2" x="930.6" y="43.2645">AgendaEntryDTO</text><rect fill="#E3E3E3" height="19.5727" rx="1.5" ry="1.5" style="stroke:#181818;stroke-width:0.3;" width="75.6" x="926.4" y="910.4262"/><text fill="#000000" font-family="sans-serif" font-size="8.4" lengthAdjust="spacing" textLength="67.2" x="930.6" y="923.6906">AgendaEntryDTO</text><rect fill="#E3E3E3" height="19.5727" rx="1.5" ry="1.5" style="stroke:#181818;stroke-width:0.3;" width="57.6" x="1008" y="30"/><text fill="#000000" font-family="sans-serif" font-size="8.4" lengthAdjust="spacing" textLength="49.2" x="1012.2" y="43.2645">AgendaEntry</text><rect fill="#E3E3E3" height="19.5727" rx="1.5" ry="1.5" style="stroke:#181818;stroke-width:0.3;" width="57.6" x="1008" y="910.4262"/><text fill="#000000" font-family="sans-serif" font-size="8.4" lengthAdjust="spacing" textLength="49.2" x="1012.2" y="923.6906">AgendaEntry</text><rect fill="#E3E3E3" height="19.5727" rx="1.5" ry="1.5" style="stroke:#181818;stroke-width:0.3;" width="30" x="1071.6" y="30"/><text fill="#000000" font-family="sans-serif" font-size="8.4" lengthAdjust="spacing" textLength="21.6" x="1075.8" y="43.2645">Team</text><rect fill="#E3E3E3" height="19.5727" rx="1.5" ry="1.5" style="stroke:#181818;stroke-width:0.3;" width="30" x="1071.6" y="910.4262"/><text fill="#000000" font-family="sans-serif" font-size="8.4" lengthAdjust="spacing" textLength="21.6" x="1075.8" y="923.6906">Team</text><rect fill="#E3E3E3" height="30.7453" rx="1.5" ry="1.5" style="stroke:#181818;stroke-width:0.3;" width="70.8" x="1107.6" y="18.8273"/><text fill="#000000" font-family="sans-serif" font-size="8.4" lengthAdjust="spacing" textLength="61.8" x="1112.1" y="32.0918">teamRepository:</text><text fill="#000000" font-family="sans-serif" font-size="8.4" lengthAdjust="spacing" textLength="62.4" x="1111.8" y="43.2645">TeamRepository</text><rect fill="#E3E3E3" height="30.7453" rx="1.5" ry="1.5" style="stroke:#181818;stroke-width:0.3;" width="70.8" x="1107.6" y="910.4262"/><text fill="#000000" font-family="sans-serif" font-size="8.4" lengthAdjust="spacing" textLength="61.8" x="1112.1" y="923.6906">teamRepository:</text><text fill="#000000" font-family="sans-serif" font-size="8.4" lengthAdjust="spacing" textLength="62.4" x="1111.8" y="934.8633">TeamRepository</text><rect fill="#E3E3E3" height="19.5727" rx="1.5" ry="1.5" style="stroke:#181818;stroke-width:0.3;" width="58.8" x="1184.4" y="30"/><text fill="#000000" font-family="sans-serif" font-size="8.4" lengthAdjust="spacing" textLength="50.4" x="1188.6" y="43.2645">TeamMapper</text><rect fill="#E3E3E3" height="19.5727" rx="1.5" ry="1.5" style="stroke:#181818;stroke-width:0.3;" width="58.8" x="1184.4" y="910.4262"/><text fill="#000000" font-family="sans-serif" font-size="8.4" lengthAdjust="spacing" textLength="50.4" x="1188.6" y="923.6906">TeamMapper</text><rect fill="#E3E3E3" height="19.5727" rx="1.5" ry="1.5" style="stroke:#181818;stroke-width:0.3;" width="48" x="1305" y="30"/><text fill="#000000" font-family="sans-serif" font-size="8.4" lengthAdjust="spacing" textLength="39.6" x="1309.2" y="43.2645">TeamDTO</text><rect fill="#E3E3E3" height="19.5727" rx="1.5" ry="1.5" style="stroke:#181818;stroke-width:0.3;" width="48" x="1305" y="910.4262"/><text fill="#000000" font-family="sans-serif" font-size="8.4" lengthAdjust="spacing" textLength="39.6" x="1309.2" y="923.6906">TeamDTO</text><rect fill="#E3E3E3" height="19.5727" rx="1.5" ry="1.5" style="stroke:#181818;stroke-width:0.3;" width="76.8" x="1359" y="30"/><text fill="#000000" font-family="sans-serif" font-size="8.4" lengthAdjust="spacing" textLength="68.4" x="1363.2" y="43.2645">ApllicationSession</text><rect fill="#E3E3E3" height="19.5727" rx="1.5" ry="1.5" style="stroke:#181818;stroke-width:0.3;" width="76.8" x="1359" y="910.4262"/><text fill="#000000" font-family="sans-serif" font-size="8.4" lengthAdjust="spacing" textLength="68.4" x="1363.2" y="923.6906">ApllicationSession</text><rect fill="#FFFFFF" height="844.0535" style="stroke:#181818;stroke-width:0.6;" width="6" x="11.1" y="56.1727"/><rect fill="#FFFFFF" height="835.4789" style="stroke:#181818;stroke-width:0.6;" width="6" x="227.1" y="70.1473"/><rect fill="#FFFFFF" height="810.7043" style="stroke:#181818;stroke-width:0.6;" width="6" x="417.9" y="94.9219"/><rect fill="#FFFFFF" height="18.7746" style="stroke:#181818;stroke-width:0.6;" width="6" x="544.5" y="141.2672"/><rect fill="#FFFFFF" height="18.7746" style="stroke:#181818;stroke-width:0.6;" width="6" x="608.7" y="178.8164"/><rect fill="#FFFFFF" height="18.7746" style="stroke:#181818;stroke-width:0.6;" width="6" x="608.7" y="216.3656"/><rect fill="#FFFFFF" height="18.7746" style="stroke:#181818;stroke-width:0.6;" width="6" x="693.9" y="272.6895"/><rect fill="#FFFFFF" height="132.0223" style="stroke:#181818;stroke-width:0.6;" width="6" x="693.9" y="773.6039"/><rect fill="#FFFFFF" height="57.5238" style="stroke:#181818;stroke-width:0.6;" width="6" x="793.2" y="310.2387"/><rect fill="#FFFFFF" height="131.4223" style="stroke:#181818;stroke-width:0.6;" width="6" x="793.2" y="623.407"/><rect fill="#FFFFFF" height="9" style="stroke:#181818;stroke-width:0.6;" width="6" x="961.2" y="344.7879"/><rect fill="#FFFFFF" height="37.5492" style="stroke:#181818;stroke-width:0.6;" width="6" x="1033.8" y="717.2801"/><rect fill="#FFFFFF" height="25.4619" style="stroke:#181818;stroke-width:0.6;" width="6" x="1033.8" y="811.1531"/><rect fill="#FFFFFF" height="18.7746" style="stroke:#181818;stroke-width:0.6;" width="6" x="1083.6" y="642.1816"/><rect fill="#FFFFFF" height="18.7746" style="stroke:#181818;stroke-width:0.6;" width="6" x="1140" y="405.3117"/><rect fill="#FFFFFF" height="57.5238" style="stroke:#181818;stroke-width:0.6;" width="6" x="1210.8" y="442.8609"/><rect fill="#FFFFFF" height="9" style="stroke:#181818;stroke-width:0.6;" width="6" x="1326" y="477.4102"/><rect fill="#FFFFFF" height="18.7746" style="stroke:#181818;stroke-width:0.6;" width="6" x="1394.4" y="862.677"/><polygon fill="#181818" points="219.9,67.7473,225.9,70.1473,219.9,72.5473,222.3,70.1473" style="stroke:#181818;stroke-width:0.6;"/><line style="stroke:#181818;stroke-width:0.6;" x1="17.1" x2="223.5" y1="70.1473" y2="70.1473"/><text fill="#000000" font-family="sans-serif" font-size="7.8" font-weight="bold" lengthAdjust="spacing" textLength="4.2" x="21.3" y="66.9896">1</text><text fill="#000000" font-family="sans-serif" font-size="7.8" lengthAdjust="spacing" textLength="144.6" x="27.9" y="66.9896">asks to assign a team to an agenda entry</text><polygon fill="#181818" points="348,86.5219,354,88.9219,348,91.3219,350.4,88.9219" style="stroke:#181818;stroke-width:0.6;"/><line style="stroke:#181818;stroke-width:0.6;" x1="233.1" x2="351.6" y1="88.9219" y2="88.9219"/><text fill="#000000" font-family="sans-serif" font-size="7.8" font-weight="bold" lengthAdjust="spacing" textLength="4.2" x="237.3" y="85.7643">2</text><text fill="#000000" font-family="sans-serif" font-size="7.8" lengthAdjust="spacing" textLength="21.6" x="243.9" y="85.7643">create</text><rect fill="#E3E3E3" height="19.5727" rx="1.5" ry="1.5" style="stroke:#181818;stroke-width:0.3;" width="131.4" x="355.2" y="74.9473"/><text fill="#000000" font-family="sans-serif" font-size="8.4" lengthAdjust="spacing" textLength="120.6" x="359.4" y="88.2117">:TeamToAgendaEntryController</text><polygon fill="#181818" points="745.8,112.6945,751.8,115.0945,745.8,117.4945,748.2,115.0945" style="stroke:#181818;stroke-width:0.6;"/><line style="stroke:#181818;stroke-width:0.6;" x1="423.9" x2="749.4" y1="115.0945" y2="115.0945"/><text fill="#000000" font-family="sans-serif" font-size="7.8" font-weight="bold" lengthAdjust="spacing" textLength="4.2" x="428.1" y="111.9369">3</text><text fill="#000000" font-family="sans-serif" font-size="7.8" lengthAdjust="spacing" textLength="21.6" x="434.7" y="111.9369">create</text><rect fill="#E3E3E3" height="19.5727" rx="1.5" ry="1.5" style="stroke:#181818;stroke-width:0.3;" width="86.4" x="753" y="101.1199"/><text fill="#000000" font-family="sans-serif" font-size="8.4" lengthAdjust="spacing" textLength="78" x="757.2" y="114.3844">AgendaEntryMapper</text><polygon fill="#181818" points="537.3,138.8672,543.3,141.2672,537.3,143.6672,539.7,141.2672" style="stroke:#181818;stroke-width:0.6;"/><line style="stroke:#181818;stroke-width:0.6;" x1="423.9" x2="540.9" y1="141.2672" y2="141.2672"/><text fill="#000000" font-family="sans-serif" font-size="7.8" font-weight="bold" lengthAdjust="spacing" textLength="4.2" x="428.1" y="138.1096">4</text><text fill="#000000" font-family="sans-serif" font-size="7.8" lengthAdjust="spacing" textLength="45" x="434.7" y="138.1096">getInstance()</text><polygon fill="#181818" points="430.5,157.6418,424.5,160.0418,430.5,162.4418,428.1,160.0418" style="stroke:#181818;stroke-width:0.6;"/><line style="stroke:#181818;stroke-width:0.6;stroke-dasharray:2.0,2.0;" x1="426.9" x2="546.9" y1="160.0418" y2="160.0418"/><text fill="#000000" font-family="sans-serif" font-size="7.8" font-weight="bold" lengthAdjust="spacing" textLength="4.2" x="434.1" y="156.8842">5</text><text fill="#000000" font-family="sans-serif" font-size="7.8" lengthAdjust="spacing" textLength="40.2" x="440.7" y="156.8842">repositories</text><polygon fill="#181818" points="601.5,176.4164,607.5,178.8164,601.5,181.2164,603.9,178.8164" style="stroke:#181818;stroke-width:0.6;"/><line style="stroke:#181818;stroke-width:0.6;" x1="423.9" x2="605.1" y1="178.8164" y2="178.8164"/><text fill="#000000" font-family="sans-serif" font-size="7.8" font-weight="bold" lengthAdjust="spacing" textLength="4.2" x="428.1" y="175.6588">6</text><text fill="#000000" font-family="sans-serif" font-size="7.8" lengthAdjust="spacing" textLength="97.8" x="434.7" y="175.6588">getAgendaEntryRepository()</text><polygon fill="#181818" points="430.5,195.191,424.5,197.591,430.5,199.991,428.1,197.591" style="stroke:#181818;stroke-width:0.6;"/><line style="stroke:#181818;stroke-width:0.6;stroke-dasharray:2.0,2.0;" x1="426.9" x2="611.1" y1="197.591" y2="197.591"/><text fill="#000000" font-family="sans-serif" font-size="7.8" font-weight="bold" lengthAdjust="spacing" textLength="4.2" x="434.1" y="194.4334">7</text><text fill="#000000" font-family="sans-serif" font-size="7.8" lengthAdjust="spacing" textLength="87" x="440.7" y="194.4334">AgendaEntryRepository()</text><polygon fill="#181818" points="601.5,213.9656,607.5,216.3656,601.5,218.7656,603.9,216.3656" style="stroke:#181818;stroke-width:0.6;"/><line style="stroke:#181818;stroke-width:0.6;" x1="423.9" x2="605.1" y1="216.3656" y2="216.3656"/><text fill="#000000" font-family="sans-serif" font-size="7.8" font-weight="bold" lengthAdjust="spacing" textLength="4.2" x="428.1" y="213.208">8</text><text fill="#000000" font-family="sans-serif" font-size="7.8" lengthAdjust="spacing" textLength="64.2" x="434.7" y="213.208">getTeamrepository</text><polygon fill="#181818" points="430.5,232.7402,424.5,235.1402,430.5,237.5402,428.1,235.1402" style="stroke:#181818;stroke-width:0.6;"/><line style="stroke:#181818;stroke-width:0.6;stroke-dasharray:2.0,2.0;" x1="426.9" x2="611.1" y1="235.1402" y2="235.1402"/><text fill="#000000" font-family="sans-serif" font-size="7.8" font-weight="bold" lengthAdjust="spacing" textLength="4.2" x="434.1" y="231.9826">9</text><text fill="#000000" font-family="sans-serif" font-size="7.8" lengthAdjust="spacing" textLength="54.6" x="440.7" y="231.9826">teamRepository</text><polygon fill="#181818" points="410.7,251.5148,416.7,253.9148,410.7,256.3148,413.1,253.9148" style="stroke:#181818;stroke-width:0.6;"/><line style="stroke:#181818;stroke-width:0.6;" x1="233.1" x2="414.3" y1="253.9148" y2="253.9148"/><text fill="#000000" font-family="sans-serif" font-size="7.8" font-weight="bold" lengthAdjust="spacing" textLength="8.4" x="237.3" y="250.7572">10</text><text fill="#000000" font-family="sans-serif" font-size="7.8" lengthAdjust="spacing" textLength="88.8" x="248.1" y="250.7572">getAgendaEntryDTOList()</text><polygon fill="#181818" points="686.7,270.2895,692.7,272.6895,686.7,275.0895,689.1,272.6895" style="stroke:#181818;stroke-width:0.6;"/><line style="stroke:#181818;stroke-width:0.6;" x1="423.9" x2="690.3" y1="272.6895" y2="272.6895"/><text fill="#000000" font-family="sans-serif" font-size="7.8" font-weight="bold" lengthAdjust="spacing" textLength="8.4" x="428.1" y="269.5318">11</text><text fill="#000000" font-family="sans-serif" font-size="7.8" lengthAdjust="spacing" textLength="73.2" x="438.9" y="269.5318">getAgendaEntryList()</text><polygon fill="#181818" points="430.5,289.0641,424.5,291.4641,430.5,293.8641,428.1,291.4641" style="stroke:#181818;stroke-width:0.6;"/><line style="stroke:#181818;stroke-width:0.6;stroke-dasharray:2.0,2.0;" x1="426.9" x2="696.3" y1="291.4641" y2="291.4641"/><text fill="#000000" font-family="sans-serif" font-size="7.8" font-weight="bold" lengthAdjust="spacing" textLength="8.4" x="434.1" y="288.3064">12</text><text fill="#000000" font-family="sans-serif" font-size="7.8" lengthAdjust="spacing" textLength="56.4" x="444.9" y="288.3064">agendaEntryList</text><polygon fill="#181818" points="786,307.8387,792,310.2387,786,312.6387,788.4,310.2387" style="stroke:#181818;stroke-width:0.6;"/><line style="stroke:#181818;stroke-width:0.6;" x1="423.9" x2="789.6" y1="310.2387" y2="310.2387"/><text fill="#000000" font-family="sans-serif" font-size="7.8" font-weight="bold" lengthAdjust="spacing" textLength="8.4" x="428.1" y="307.0811">13</text><text fill="#000000" font-family="sans-serif" font-size="7.8" lengthAdjust="spacing" textLength="92.4" x="438.9" y="307.0811">toDtoList(agendaEntryList)</text><path d="M747,319.2387 L790.8,319.2387 L790.8,324.8133 L784.8,330.8133 L747,330.8133 L747,319.2387 " fill="#EEEEEE" style="stroke:#000000;stroke-width:0.8999999999999999;"/><rect fill="none" height="30.3492" style="stroke:#000000;stroke-width:0.8999999999999999;" width="261" x="747" y="319.2387"/><text fill="#000000" font-family="sans-serif" font-size="7.8" font-weight="bold" lengthAdjust="spacing" textLength="16.8" x="756" y="328.2557">loop</text><text fill="#000000" font-family="sans-serif" font-size="6.6" font-weight="bold" lengthAdjust="spacing" textLength="137.4" x="799.8" y="327.5607">[for each agendaEntry in agendaEntryList]</text><polygon fill="#181818" points="954,342.3879,960,344.7879,954,347.1879,956.4,344.7879" style="stroke:#181818;stroke-width:0.6;"/><line style="stroke:#181818;stroke-width:0.6;" x1="799.2" x2="957.6" y1="344.7879" y2="344.7879"/><text fill="#000000" font-family="sans-serif" font-size="7.8" font-weight="bold" lengthAdjust="spacing" textLength="8.4" x="803.4" y="341.6303">14</text><text fill="#000000" font-family="sans-serif" font-size="7.8" lengthAdjust="spacing" textLength="139.8" x="814.2" y="341.6303">agendaEntryDTO = toDTO(agendaEntry)</text><polygon fill="#181818" points="430.5,365.3625,424.5,367.7625,430.5,370.1625,428.1,367.7625" style="stroke:#181818;stroke-width:0.6;"/><line style="stroke:#181818;stroke-width:0.6;stroke-dasharray:2.0,2.0;" x1="426.9" x2="795.6" y1="367.7625" y2="367.7625"/><text fill="#000000" font-family="sans-serif" font-size="7.8" font-weight="bold" lengthAdjust="spacing" textLength="8.4" x="434.1" y="364.6049">15</text><text fill="#000000" font-family="sans-serif" font-size="7.8" lengthAdjust="spacing" textLength="72" x="444.9" y="364.6049">agendaEntryDTOList</text><polygon fill="#181818" points="410.7,384.1371,416.7,386.5371,410.7,388.9371,413.1,386.5371" style="stroke:#181818;stroke-width:0.6;"/><line style="stroke:#181818;stroke-width:0.6;" x1="233.1" x2="414.3" y1="386.5371" y2="386.5371"/><text fill="#000000" font-family="sans-serif" font-size="7.8" font-weight="bold" lengthAdjust="spacing" textLength="8.4" x="237.3" y="383.3795">16</text><text fill="#000000" font-family="sans-serif" font-size="7.8" lengthAdjust="spacing" textLength="63" x="248.1" y="383.3795">getTeamDTOList()</text><polygon fill="#181818" points="1132.8,402.9117,1138.8,405.3117,1132.8,407.7117,1135.2,405.3117" style="stroke:#181818;stroke-width:0.6;"/><line style="stroke:#181818;stroke-width:0.6;" x1="423.9" x2="1136.4" y1="405.3117" y2="405.3117"/><text fill="#000000" font-family="sans-serif" font-size="7.8" font-weight="bold" lengthAdjust="spacing" textLength="8.4" x="428.1" y="402.1541">17</text><text fill="#000000" font-family="sans-serif" font-size="7.8" lengthAdjust="spacing" textLength="76.8" x="438.9" y="402.1541">showAvailableTeams()</text><polygon fill="#181818" points="430.5,421.6863,424.5,424.0863,430.5,426.4863,428.1,424.0863" style="stroke:#181818;stroke-width:0.6;"/><line style="stroke:#181818;stroke-width:0.6;stroke-dasharray:2.0,2.0;" x1="426.9" x2="1142.4" y1="424.0863" y2="424.0863"/><text fill="#000000" font-family="sans-serif" font-size="7.8" font-weight="bold" lengthAdjust="spacing" textLength="8.4" x="434.1" y="420.9287">18</text><text fill="#000000" font-family="sans-serif" font-size="7.8" lengthAdjust="spacing" textLength="30" x="444.9" y="420.9287">teamList</text><polygon fill="#181818" points="1203.6,440.4609,1209.6,442.8609,1203.6,445.2609,1206,442.8609" style="stroke:#181818;stroke-width:0.6;"/><line style="stroke:#181818;stroke-width:0.6;" x1="423.9" x2="1207.2" y1="442.8609" y2="442.8609"/><text fill="#000000" font-family="sans-serif" font-size="7.8" font-weight="bold" lengthAdjust="spacing" textLength="8.4" x="428.1" y="439.7033">19</text><text fill="#000000" font-family="sans-serif" font-size="7.8" lengthAdjust="spacing" textLength="66" x="438.9" y="439.7033">toDtoList(teamList)</text><path d="M1178.4,451.8609 L1222.2,451.8609 L1222.2,457.4355 L1216.2,463.4355 L1178.4,463.4355 L1178.4,451.8609 " fill="#EEEEEE" style="stroke:#000000;stroke-width:0.8999999999999999;"/><rect fill="none" height="30.3492" style="stroke:#000000;stroke-width:0.8999999999999999;" width="180.6" x="1178.4" y="451.8609"/><text fill="#000000" font-family="sans-serif" font-size="7.8" font-weight="bold" lengthAdjust="spacing" textLength="16.8" x="1187.4" y="460.8779">loop</text><a href="for" target="_top" title="for" xlink:actuate="onRequest" xlink:href="for" xlink:show="new" xlink:title="for" xlink:type="simple"><text fill="#1D1D1D" font-family="sans-serif" font-size="6.6" font-weight="bold" lengthAdjust="spacing" text-decoration="underline" textLength="76.8" x="1231.2" y="460.183">each Team in TeamList</text></a><polygon fill="#181818" points="1318.8,475.0102,1324.8,477.4102,1318.8,479.8102,1321.2,477.4102" style="stroke:#181818;stroke-width:0.6;"/><line style="stroke:#181818;stroke-width:0.6;" x1="1216.8" x2="1322.4" y1="477.4102" y2="477.4102"/><text fill="#000000" font-family="sans-serif" font-size="7.8" font-weight="bold" lengthAdjust="spacing" textLength="8.4" x="1221" y="474.2525">20</text><text fill="#000000" font-family="sans-serif" font-size="7.8" lengthAdjust="spacing" textLength="87" x="1231.8" y="474.2525">teamDTO = toDTO(team)</text><polygon fill="#181818" points="430.5,497.9848,424.5,500.3848,430.5,502.7848,428.1,500.3848" style="stroke:#181818;stroke-width:0.6;"/><line style="stroke:#181818;stroke-width:0.6;stroke-dasharray:2.0,2.0;" x1="426.9" x2="1213.2" y1="500.3848" y2="500.3848"/><text fill="#000000" font-family="sans-serif" font-size="7.8" font-weight="bold" lengthAdjust="spacing" textLength="8.4" x="434.1" y="497.2271">21</text><text fill="#000000" font-family="sans-serif" font-size="7.8" lengthAdjust="spacing" textLength="47.4" x="444.9" y="497.2271">TeamDTOList</text><polygon fill="#181818" points="239.7,516.7594,233.7,519.1594,239.7,521.5594,237.3,519.1594" style="stroke:#181818;stroke-width:0.6;"/><line style="stroke:#181818;stroke-width:0.6;stroke-dasharray:2.0,2.0;" x1="236.1" x2="417.3" y1="519.1594" y2="519.1594"/><text fill="#000000" font-family="sans-serif" font-size="7.8" font-weight="bold" lengthAdjust="spacing" textLength="8.4" x="243.3" y="516.0018">22</text><text fill="#000000" font-family="sans-serif" font-size="7.8" lengthAdjust="spacing" textLength="72" x="254.1" y="516.0018">agendaEntryDTOList</text><polygon fill="#181818" points="239.7,535.534,233.7,537.934,239.7,540.334,237.3,537.934" style="stroke:#181818;stroke-width:0.6;"/><line style="stroke:#181818;stroke-width:0.6;stroke-dasharray:2.0,2.0;" x1="236.1" x2="417.3" y1="537.934" y2="537.934"/><text fill="#000000" font-family="sans-serif" font-size="7.8" font-weight="bold" lengthAdjust="spacing" textLength="8.4" x="243.3" y="534.7764">23</text><text fill="#000000" font-family="sans-serif" font-size="7.8" lengthAdjust="spacing" textLength="45.6" x="254.1" y="534.7764">teamDTOList</text><polygon fill="#181818" points="23.7,564.6832,17.7,567.0832,23.7,569.4832,21.3,567.0832" style="stroke:#181818;stroke-width:0.6;"/><line style="stroke:#181818;stroke-width:0.6;stroke-dasharray:2.0,2.0;" x1="20.1" x2="226.5" y1="567.0832" y2="567.0832"/><text fill="#000000" font-family="sans-serif" font-size="7.8" font-weight="bold" lengthAdjust="spacing" textLength="8.4" x="27.3" y="558.7383">24</text><text fill="#000000" font-family="sans-serif" font-size="7.8" lengthAdjust="spacing" textLength="131.4" x="38.1" y="553.551">shows the list of entries in the agenda</text><text fill="#000000" font-family="sans-serif" font-size="7.8" lengthAdjust="spacing" textLength="182.4" x="40.5" y="563.9256">and the list of  teams and asks to select one of each</text><polygon fill="#181818" points="219.9,583.4578,225.9,585.8578,219.9,588.2578,222.3,585.8578" style="stroke:#181818;stroke-width:0.6;"/><line style="stroke:#181818;stroke-width:0.6;" x1="17.1" x2="223.5" y1="585.8578" y2="585.8578"/><text fill="#000000" font-family="sans-serif" font-size="7.8" font-weight="bold" lengthAdjust="spacing" textLength="8.4" x="21.3" y="582.7002">25</text><text fill="#000000" font-family="sans-serif" font-size="7.8" lengthAdjust="spacing" textLength="79.8" x="32.1" y="582.7002">selects entry and team</text><polygon fill="#181818" points="410.7,602.2324,416.7,604.6324,410.7,607.0324,413.1,604.6324" style="stroke:#181818;stroke-width:0.6;"/><line style="stroke:#181818;stroke-width:0.6;" x1="233.1" x2="414.3" y1="604.6324" y2="604.6324"/><text fill="#000000" font-family="sans-serif" font-size="7.8" font-weight="bold" lengthAdjust="spacing" textLength="8.4" x="237.3" y="601.4748">26</text><text fill="#000000" font-family="sans-serif" font-size="7.8" lengthAdjust="spacing" textLength="159.6" x="248.1" y="601.4748">assignTeamToAgendaEntry(agendaEntryDTO)</text><polygon fill="#181818" points="786,621.007,792,623.407,786,625.807,788.4,623.407" style="stroke:#181818;stroke-width:0.6;"/><line style="stroke:#181818;stroke-width:0.6;" x1="423.9" x2="789.6" y1="623.407" y2="623.407"/><text fill="#000000" font-family="sans-serif" font-size="7.8" font-weight="bold" lengthAdjust="spacing" textLength="8.4" x="428.1" y="620.2494">27</text><text fill="#000000" font-family="sans-serif" font-size="7.8" lengthAdjust="spacing" textLength="64.8" x="438.9" y="620.2494">toEntity(teamDTO)</text><polygon fill="#181818" points="1076.4,639.7816,1082.4,642.1816,1076.4,644.5816,1078.8,642.1816" style="stroke:#181818;stroke-width:0.6;"/><line style="stroke:#181818;stroke-width:0.6;" x1="799.2" x2="1080" y1="642.1816" y2="642.1816"/><text fill="#000000" font-family="sans-serif" font-size="7.8" font-weight="bold" lengthAdjust="spacing" textLength="8.4" x="803.4" y="639.024">28</text><text fill="#000000" font-family="sans-serif" font-size="7.8" lengthAdjust="spacing" textLength="91.8" x="814.2" y="639.024">team = toEntity(teamDTO)</text><polygon fill="#181818" points="805.8,658.5563,799.8,660.9563,805.8,663.3562,803.4,660.9563" style="stroke:#181818;stroke-width:0.6;"/><line style="stroke:#181818;stroke-width:0.6;stroke-dasharray:2.0,2.0;" x1="802.2" x2="1086" y1="660.9563" y2="660.9563"/><text fill="#000000" font-family="sans-serif" font-size="7.8" font-weight="bold" lengthAdjust="spacing" textLength="8.4" x="809.4" y="657.7986">29</text><text fill="#000000" font-family="sans-serif" font-size="7.8" lengthAdjust="spacing" textLength="17.4" x="820.2" y="657.7986">team</text><polygon fill="#181818" points="430.5,677.3309,424.5,679.7309,430.5,682.1309,428.1,679.7309" style="stroke:#181818;stroke-width:0.6;"/><line style="stroke:#181818;stroke-width:0.6;stroke-dasharray:2.0,2.0;" x1="426.9" x2="792.6" y1="679.7309" y2="679.7309"/><text fill="#000000" font-family="sans-serif" font-size="7.8" font-weight="bold" lengthAdjust="spacing" textLength="8.4" x="434.1" y="676.5732">30</text><text fill="#000000" font-family="sans-serif" font-size="7.8" lengthAdjust="spacing" textLength="17.4" x="444.9" y="676.5732">team</text><polygon fill="#181818" points="786,696.1055,792,698.5055,786,700.9055,788.4,698.5055" style="stroke:#181818;stroke-width:0.6;"/><line style="stroke:#181818;stroke-width:0.6;" x1="423.9" x2="789.6" y1="698.5055" y2="698.5055"/><text fill="#000000" font-family="sans-serif" font-size="7.8" font-weight="bold" lengthAdjust="spacing" textLength="8.4" x="428.1" y="695.3479">31</text><text fill="#000000" font-family="sans-serif" font-size="7.8" lengthAdjust="spacing" textLength="91.2" x="438.9" y="695.3479">toEntity(agendaEntryDTO)</text><polygon fill="#181818" points="1026.6,714.8801,1032.6,717.2801,1026.6,719.6801,1029,717.2801" style="stroke:#181818;stroke-width:0.6;"/><line style="stroke:#181818;stroke-width:0.6;" x1="799.2" x2="1030.2" y1="717.2801" y2="717.2801"/><text fill="#000000" font-family="sans-serif" font-size="7.8" font-weight="bold" lengthAdjust="spacing" textLength="8.4" x="803.4" y="714.1225">32</text><text fill="#000000" font-family="sans-serif" font-size="7.8" lengthAdjust="spacing" textLength="144.6" x="814.2" y="714.1225">agendaEntry = toEntity(agendaEntryDTO)</text><polygon fill="#181818" points="805.8,733.6547,799.8,736.0547,805.8,738.4547,803.4,736.0547" style="stroke:#181818;stroke-width:0.6;"/><line style="stroke:#181818;stroke-width:0.6;stroke-dasharray:2.0,2.0;" x1="802.2" x2="1033.2" y1="736.0547" y2="736.0547"/><text fill="#000000" font-family="sans-serif" font-size="7.8" font-weight="bold" lengthAdjust="spacing" textLength="8.4" x="809.4" y="732.8971">33</text><text fill="#000000" font-family="sans-serif" font-size="7.8" lengthAdjust="spacing" textLength="43.8" x="820.2" y="732.8971">agendaEntry</text><polygon fill="#181818" points="430.5,752.4293,424.5,754.8293,430.5,757.2293,428.1,754.8293" style="stroke:#181818;stroke-width:0.6;"/><line style="stroke:#181818;stroke-width:0.6;stroke-dasharray:2.0,2.0;" x1="426.9" x2="795.6" y1="754.8293" y2="754.8293"/><text fill="#000000" font-family="sans-serif" font-size="7.8" font-weight="bold" lengthAdjust="spacing" textLength="8.4" x="434.1" y="751.6717">34</text><text fill="#000000" font-family="sans-serif" font-size="7.8" lengthAdjust="spacing" textLength="43.8" x="444.9" y="751.6717">agendaEntry</text><polygon fill="#181818" points="686.7,771.2039,692.7,773.6039,686.7,776.0039,689.1,773.6039" style="stroke:#181818;stroke-width:0.6;"/><line style="stroke:#181818;stroke-width:0.6;" x1="423.9" x2="690.3" y1="773.6039" y2="773.6039"/><text fill="#000000" font-family="sans-serif" font-size="7.8" font-weight="bold" lengthAdjust="spacing" textLength="8.4" x="428.1" y="770.4463">35</text><text fill="#000000" font-family="sans-serif" font-size="7.8" lengthAdjust="spacing" textLength="111" x="438.9" y="770.4463">updateTeam(agendaEntry,team)</text><polygon fill="#181818" points="430.5,789.9785,424.5,792.3785,430.5,794.7785,428.1,792.3785" style="stroke:#181818;stroke-width:0.6;"/><line style="stroke:#181818;stroke-width:0.6;stroke-dasharray:2.0,2.0;" x1="426.9" x2="693.3" y1="792.3785" y2="792.3785"/><text fill="#000000" font-family="sans-serif" font-size="7.8" font-weight="bold" lengthAdjust="spacing" textLength="8.4" x="434.1" y="789.2209">36</text><text fill="#000000" font-family="sans-serif" font-size="7.8" lengthAdjust="spacing" textLength="17.4" x="444.9" y="789.2209">team</text><polygon fill="#181818" points="1026.6,808.7531,1032.6,811.1531,1026.6,813.5531,1029,811.1531" style="stroke:#181818;stroke-width:0.6;"/><line style="stroke:#181818;stroke-width:0.6;" x1="699.9" x2="1030.2" y1="811.1531" y2="811.1531"/><text fill="#000000" font-family="sans-serif" font-size="7.8" font-weight="bold" lengthAdjust="spacing" textLength="8.4" x="704.1" y="807.9955">37</text><text fill="#000000" font-family="sans-serif" font-size="7.8" lengthAdjust="spacing" textLength="91.2" x="714.9" y="807.9955">setAssociatedTeam(team)</text><line style="stroke:#181818;stroke-width:0.6;" x1="423.9" x2="449.1" y1="836.015" y2="836.015"/><line style="stroke:#181818;stroke-width:0.6;" x1="449.1" x2="449.1" y1="836.015" y2="843.815"/><line style="stroke:#181818;stroke-width:0.6;" x1="420.9" x2="449.1" y1="843.815" y2="843.815"/><polygon fill="#181818" points="426.9,841.415,420.9,843.815,426.9,846.215,424.5,843.815" style="stroke:#181818;stroke-width:0.6;"/><text fill="#000000" font-family="sans-serif" font-size="7.8" font-weight="bold" lengthAdjust="spacing" textLength="8.4" x="428.1" y="832.8574">38</text><text fill="#000000" font-family="sans-serif" font-size="7.8" lengthAdjust="spacing" textLength="101.4" x="438.9" y="832.8574">sendNotificationEmails(team)</text><path d="M262.2,818.9531 L262.2,845.3531 L414.6,845.3531 L414.6,824.9531 L408.6,818.9531 L262.2,818.9531 " fill="#FAFAFA" style="stroke:#181818;stroke-width:0.3;"/><path d="M408.6,818.9531 L408.6,824.9531 L414.6,824.9531 L408.6,818.9531 " fill="#FAFAFA" style="stroke:#181818;stroke-width:0.3;"/><text fill="#000000" font-family="sans-serif" font-size="7.8" lengthAdjust="spacing" textLength="139.8" x="265.8" y="830.3701">gets the collaborators for each team and</text><text fill="#000000" font-family="sans-serif" font-size="7.8" lengthAdjust="spacing" textLength="119.4" x="265.8" y="840.7447">gets the email of each collaborator</text><polygon fill="#181818" points="1387.2,860.277,1393.2,862.677,1387.2,865.077,1389.6,862.677" style="stroke:#181818;stroke-width:0.6;"/><line style="stroke:#181818;stroke-width:0.6;" x1="423.9" x2="1390.8" y1="862.677" y2="862.677"/><text fill="#000000" font-family="sans-serif" font-size="7.8" font-weight="bold" lengthAdjust="spacing" textLength="8.4" x="428.1" y="859.5193">39</text><text fill="#000000" font-family="sans-serif" font-size="7.8" lengthAdjust="spacing" textLength="81.6" x="438.9" y="859.5193">sendEmail(email, body)</text><polygon fill="#181818" points="239.7,879.0516,233.7,881.4516,239.7,883.8516,237.3,881.4516" style="stroke:#181818;stroke-width:0.6;"/><line style="stroke:#181818;stroke-width:0.6;stroke-dasharray:2.0,2.0;" x1="236.1" x2="417.3" y1="881.4516" y2="881.4516"/><text fill="#000000" font-family="sans-serif" font-size="7.8" font-weight="bold" lengthAdjust="spacing" textLength="8.4" x="243.3" y="878.2939">40</text><text fill="#000000" font-family="sans-serif" font-size="7.8" lengthAdjust="spacing" textLength="67.2" x="254.1" y="878.2939">success/insuccess</text><polygon fill="#181818" points="20.7,897.8262,14.7,900.2262,20.7,902.6262,18.3,900.2262" style="stroke:#181818;stroke-width:0.6;"/><line style="stroke:#181818;stroke-width:0.6;stroke-dasharray:2.0,2.0;" x1="17.1" x2="226.5" y1="900.2262" y2="900.2262"/><text fill="#000000" font-family="sans-serif" font-size="7.8" font-weight="bold" lengthAdjust="spacing" textLength="8.4" x="24.3" y="897.0686">41</text><text fill="#000000" font-family="sans-serif" font-size="7.8" lengthAdjust="spacing" textLength="101.4" x="35.1" y="897.0686">shows (in))success message</text><!--SRC=[dLV1Rjim3BthAuHUbXGjTW-m0iLQ30NM5LYpqxA3uYY9K4SoBALT_dwaBDkI9Sl9SaWSYNnyf4YArcz2Lgnc1tfGKXNxMXquDVMH4ztjLAnuOpl-QaubfpKl39ExqXVGUxPH7qBkw9QLcXF2ZaR9us7DQq8-xSM6qwrIPgt-4bOOLTEhRw_FLvHf2hy4C8meHCMaeLUB-nsN6_OeJNtwzMHbZc8WikJii5IUu5S5tweiEI2ZHc7gSg3parTA2x0jkBOotSBfLQ0xG3XKgJsDbOm1gfAPK8FrZ7hqnKhUfzOjHgE1Yo6If_7CgehNddIp4CXxuW_B5nGDLqR1FLZxFnJ4E5i90m_X5gu4FYw3XKuhTWq5dK_n1d2rgkvvmBigIr4m8vHyvLh3JqE_gWZ1l1Blp72RKOGEFh18R-yWa-W2LDw0cu9VBNQICilJBaWN2ifjB2AKpWPaPBG9s601C-_w6gmKDGV938RDqMWRLm76F-ai7CgZtKGsWzQEcoUfeLmBFfkFKqcLGYIDdvILM-VrWle54wbl-6NcMiUmoXfFabMKSyiMQD8F2zeJFnVPyo6DxKuFDorbJECkAgTBcU9gJpAiE78vkQFeiC9eGg5z5zg0m-F7q3Ugw32SxgXpNe-BXNhOtbCMOkSypM67r9jQ0l96FHXbEG_iJBhW6cyYfKgbAhZXQWhCzZv_AcJaJgmUC0J6WtOUH0GNlg0JonVVWNagqJl-WziWbeJjN9W7-YJlW3l8YFTvXzb6URo_0d1RN5xgZXr_MpUWfVVgu_wTYPAjIuxgEfUttVKLYNIGONLE-JSEs7BrBqTmia_L5Zv3DxXOIJ93wUykHr4OatFfWF_4AZuWadFnRdprqn3_PuYrTpcvCEbQlJolxWIyT4ZKWeSR18gcZwAR5QOJsDVeOZF20dCO164QQP8Hvf0zfoK8KxMrKmTSdNWikDpONa43aPj0pXhHThcTPJGlOIodId8B12USiDuDGGidhvj1fp608rwAyUsTwyfsN8f6xraOebGV6ct4e2JCQUPYDYVqp0QSRQ2kv9kZi3bwlXaR19egzzi1_yM8xA3S9vjzq438VmGl2lzaT3oD8C7zM0rHfqwcUNaOiMmtum1cDSV2v2jbepzrPKUYOvZn1BIWnse3YbWBVgHkqetml4d8svnC2dzg6fodXj5CQrK8iBUn12UwSzRvPfvjk6YG-w6CsBfNiCS3NAHw17uakgbPN2eGAlcscPYRZbZ0kpnRgvh1gAlxmSfMD3IhbUmaER9eUrwWD_fgLLKuGA0xreMPXRYXQxL9JL6z7_YQcUtz-bWKy5xwMKZtb0qBm2MQRNWxp8ISpnqOFS0N19FWnmF2zzr_]--></g></svg>