<?xml version="1.0" encoding="us-ascii" standalone="no"?><svg xmlns="http://www.w3.org/2000/svg" xmlns:xlink="http://www.w3.org/1999/xlink" contentStyleType="text/css" height="1678px" preserveAspectRatio="none" style="width:2961px;height:1678px;background:#FFFFFF;" version="1.1" viewBox="0 0 2961 1678" width="2961px" zoomAndPan="magnify"><defs/><g><rect fill="#FFFFFF" height="1483.7949" style="stroke:#181818;stroke-width:1.0;" width="10" x="18.5" y="93.6211"/><rect fill="#FFFFFF" height="1469.5039" style="stroke:#181818;stroke-width:1.0;" width="10" x="378.5" y="116.9121"/><rect fill="#FFFFFF" height="420.1523" style="stroke:#181818;stroke-width:1.0;" width="10" x="740.5" y="158.2031"/><rect fill="#FFFFFF" height="123.873" style="stroke:#181818;stroke-width:1.0;" width="10" x="740.5" y="686.5586"/><rect fill="#FFFFFF" height="92.582" style="stroke:#181818;stroke-width:1.0;" width="10" x="740.5" y="906.3047"/><rect fill="#FFFFFF" height="476.3652" style="stroke:#181818;stroke-width:1.0;" width="10" x="740.5" y="1110.0508"/><rect fill="#FFFFFF" height="31.291" style="stroke:#181818;stroke-width:1.0;" width="10" x="1074.5" y="235.4453"/><rect fill="#FFFFFF" height="31.291" style="stroke:#181818;stroke-width:1.0;" width="10" x="1181.5" y="298.0273"/><rect fill="#FFFFFF" height="31.291" style="stroke:#181818;stroke-width:1.0;" width="10" x="1181.5" y="360.6094"/><rect fill="#FFFFFF" height="31.291" style="stroke:#181818;stroke-width:1.0;" width="10" x="1323.5" y="485.7734"/><rect fill="#FFFFFF" height="42.9365" style="stroke:#181818;stroke-width:1.0;" width="10" x="1323.5" y="1182.9873"/><rect fill="#FFFFFF" height="62.582" style="stroke:#181818;stroke-width:1.0;" width="10" x="1323.5" y="1343.0879"/><rect fill="#FFFFFF" height="138.2031" style="stroke:#181818;stroke-width:1.0;" width="10" x="1489" y="548.3555"/><rect fill="#FFFFFF" height="17.3301" style="stroke:#181818;stroke-width:1.0;" width="10" x="1832" y="645.9375"/><rect fill="#FFFFFF" height="31.291" style="stroke:#181818;stroke-width:1.0;" width="10" x="2130" y="717.8496"/><rect fill="#FFFFFF" height="42.9365" style="stroke:#181818;stroke-width:1.0;" width="10" x="2130" y="1268.8604"/><rect fill="#FFFFFF" height="155.873" style="stroke:#181818;stroke-width:1.0;" width="10" x="2248" y="780.4316"/><rect fill="#FFFFFF" height="15" style="stroke:#181818;stroke-width:1.0;" width="10" x="2440" y="868.0137"/><rect fill="none" height="62.9121" style="stroke:#000000;stroke-width:1.5;" width="498" x="1412" y="593.3555"/><rect fill="none" height="50.582" style="stroke:#000000;stroke-width:1.5;" width="301" x="2194" y="825.4316"/><line style="stroke:#181818;stroke-width:0.5;stroke-dasharray:5.0,5.0;" x1="23" x2="23" y1="83.6211" y2="1595.416"/><line style="stroke:#181818;stroke-width:0.5;stroke-dasharray:5.0,5.0;" x1="383.5" x2="383.5" y1="83.6211" y2="1595.416"/><line style="stroke:#181818;stroke-width:0.5;stroke-dasharray:5.0,5.0;" x1="745" x2="745" y1="156.7227" y2="1595.416"/><line style="stroke:#181818;stroke-width:0.5;stroke-dasharray:5.0,5.0;" x1="1079" x2="1079" y1="83.6211" y2="1595.416"/><line style="stroke:#181818;stroke-width:0.5;stroke-dasharray:5.0,5.0;" x1="1186" x2="1186" y1="83.6211" y2="1595.416"/><line style="stroke:#181818;stroke-width:0.5;stroke-dasharray:5.0,5.0;" x1="1328" x2="1328" y1="83.6211" y2="1595.416"/><line style="stroke:#181818;stroke-width:0.5;stroke-dasharray:5.0,5.0;" x1="1494" x2="1494" y1="200.3438" y2="1595.416"/><line style="stroke:#181818;stroke-width:0.5;stroke-dasharray:5.0,5.0;" x1="1837" x2="1837" y1="644.457" y2="1595.416"/><line style="stroke:#181818;stroke-width:0.5;stroke-dasharray:5.0,5.0;" x1="1958" x2="1958" y1="83.6211" y2="1595.416"/><line style="stroke:#181818;stroke-width:0.5;stroke-dasharray:5.0,5.0;" x1="2041" x2="2041" y1="83.6211" y2="1595.416"/><line style="stroke:#181818;stroke-width:0.5;stroke-dasharray:5.0,5.0;" x1="2135" x2="2135" y1="83.6211" y2="1595.416"/><line style="stroke:#181818;stroke-width:0.5;stroke-dasharray:5.0,5.0;" x1="2253" x2="2253" y1="83.6211" y2="1595.416"/><line style="stroke:#181818;stroke-width:0.5;stroke-dasharray:5.0,5.0;" x1="2445" x2="2445" y1="83.6211" y2="1595.416"/><line style="stroke:#181818;stroke-width:0.5;stroke-dasharray:5.0,5.0;" x1="2559" x2="2559" y1="83.6211" y2="1595.416"/><text fill="#000000" font-family="sans-serif" font-size="14" lengthAdjust="spacing" textLength="31" x="5" y="80.1074">GSM</text><ellipse cx="23.5" cy="13.5" fill="#E3E3E3" rx="8" ry="8" style="stroke:#181818;stroke-width:0.5;"/><path d="M23.5,21.5 L23.5,48.5 M10.5,29.5 L36.5,29.5 M23.5,48.5 L10.5,63.5 M23.5,48.5 L36.5,63.5 " fill="none" style="stroke:#181818;stroke-width:0.5;"/><text fill="#000000" font-family="sans-serif" font-size="14" lengthAdjust="spacing" textLength="31" x="5" y="1609.5234">GSM</text><ellipse cx="23.5" cy="1621.5371" fill="#E3E3E3" rx="8" ry="8" style="stroke:#181818;stroke-width:0.5;"/><path d="M23.5,1629.5371 L23.5,1656.5371 M10.5,1637.5371 L36.5,1637.5371 M23.5,1656.5371 L10.5,1671.5371 M23.5,1656.5371 L36.5,1671.5371 " fill="none" style="stroke:#181818;stroke-width:0.5;"/><rect fill="#E3E3E3" height="32.6211" rx="2.5" ry="2.5" style="stroke:#181818;stroke-width:0.5;" width="112" x="327.5" y="50"/><text fill="#000000" font-family="sans-serif" font-size="14" lengthAdjust="spacing" textLength="98" x="334.5" y="72.1074">:AgendaEntryUI</text><rect fill="#E3E3E3" height="32.6211" rx="2.5" ry="2.5" style="stroke:#181818;stroke-width:0.5;" width="112" x="327.5" y="1594.416"/><text fill="#000000" font-family="sans-serif" font-size="14" lengthAdjust="spacing" textLength="98" x="334.5" y="1616.5234">:AgendaEntryUI</text><rect fill="#E3E3E3" height="32.6211" rx="2.5" ry="2.5" style="stroke:#181818;stroke-width:0.5;" width="219" x="636" y="1594.416"/><text fill="#000000" font-family="sans-serif" font-size="14" lengthAdjust="spacing" textLength="201" x="643" y="1616.5234">:TeamToAgendaEntryController</text><rect fill="#E3E3E3" height="32.6211" rx="2.5" ry="2.5" style="stroke:#181818;stroke-width:0.5;" width="97" x="1031" y="50"/><text fill="#000000" font-family="sans-serif" font-size="14" lengthAdjust="spacing" textLength="83" x="1038" y="72.1074">:Repositories</text><rect fill="#E3E3E3" height="32.6211" rx="2.5" ry="2.5" style="stroke:#181818;stroke-width:0.5;" width="97" x="1031" y="1594.416"/><text fill="#000000" font-family="sans-serif" font-size="14" lengthAdjust="spacing" textLength="83" x="1038" y="1616.5234">:Repositories</text><rect fill="#E3E3E3" height="51.2422" rx="2.5" ry="2.5" style="stroke:#181818;stroke-width:0.5;" width="97" x="1138" y="31.3789"/><text fill="#000000" font-family="sans-serif" font-size="14" lengthAdjust="spacing" textLength="74" x="1149.5" y="53.4863">repositories</text><text fill="#000000" font-family="sans-serif" font-size="14" lengthAdjust="spacing" textLength="83" x="1145" y="72.1074">:Repositories</text><rect fill="#E3E3E3" height="51.2422" rx="2.5" ry="2.5" style="stroke:#181818;stroke-width:0.5;" width="97" x="1138" y="1594.416"/><text fill="#000000" font-family="sans-serif" font-size="14" lengthAdjust="spacing" textLength="74" x="1149.5" y="1616.5234">repositories</text><text fill="#000000" font-family="sans-serif" font-size="14" lengthAdjust="spacing" textLength="83" x="1145" y="1635.1445">:Repositories</text><rect fill="#E3E3E3" height="51.2422" rx="2.5" ry="2.5" style="stroke:#181818;stroke-width:0.5;" width="167" x="1245" y="31.3789"/><text fill="#000000" font-family="sans-serif" font-size="14" lengthAdjust="spacing" textLength="153" x="1252" y="53.4863">agendaEntryRepository:</text><text fill="#000000" font-family="sans-serif" font-size="14" lengthAdjust="spacing" textLength="150" x="1253.5" y="72.1074">AgendaEntryRepository</text><rect fill="#E3E3E3" height="51.2422" rx="2.5" ry="2.5" style="stroke:#181818;stroke-width:0.5;" width="167" x="1245" y="1594.416"/><text fill="#000000" font-family="sans-serif" font-size="14" lengthAdjust="spacing" textLength="153" x="1252" y="1616.5234">agendaEntryRepository:</text><text fill="#000000" font-family="sans-serif" font-size="14" lengthAdjust="spacing" textLength="150" x="1253.5" y="1635.1445">AgendaEntryRepository</text><rect fill="#E3E3E3" height="32.6211" rx="2.5" ry="2.5" style="stroke:#181818;stroke-width:0.5;" width="144" x="1422" y="1594.416"/><text fill="#000000" font-family="sans-serif" font-size="14" lengthAdjust="spacing" textLength="130" x="1429" y="1616.5234">AgendaEntryMapper</text><rect fill="#E3E3E3" height="32.6211" rx="2.5" ry="2.5" style="stroke:#181818;stroke-width:0.5;" width="126" x="1774" y="1594.416"/><text fill="#000000" font-family="sans-serif" font-size="14" lengthAdjust="spacing" textLength="112" x="1781" y="1616.5234">AgendaEntryDTO</text><rect fill="#E3E3E3" height="32.6211" rx="2.5" ry="2.5" style="stroke:#181818;stroke-width:0.5;" width="96" x="1910" y="50"/><text fill="#000000" font-family="sans-serif" font-size="14" lengthAdjust="spacing" textLength="82" x="1917" y="72.1074">AgendaEntry</text><rect fill="#E3E3E3" height="32.6211" rx="2.5" ry="2.5" style="stroke:#181818;stroke-width:0.5;" width="96" x="1910" y="1594.416"/><text fill="#000000" font-family="sans-serif" font-size="14" lengthAdjust="spacing" textLength="82" x="1917" y="1616.5234">AgendaEntry</text><rect fill="#E3E3E3" height="32.6211" rx="2.5" ry="2.5" style="stroke:#181818;stroke-width:0.5;" width="50" x="2016" y="50"/><text fill="#000000" font-family="sans-serif" font-size="14" lengthAdjust="spacing" textLength="36" x="2023" y="72.1074">Team</text><rect fill="#E3E3E3" height="32.6211" rx="2.5" ry="2.5" style="stroke:#181818;stroke-width:0.5;" width="50" x="2016" y="1594.416"/><text fill="#000000" font-family="sans-serif" font-size="14" lengthAdjust="spacing" textLength="36" x="2023" y="1616.5234">Team</text><rect fill="#E3E3E3" height="51.2422" rx="2.5" ry="2.5" style="stroke:#181818;stroke-width:0.5;" width="118" x="2076" y="31.3789"/><text fill="#000000" font-family="sans-serif" font-size="14" lengthAdjust="spacing" textLength="103" x="2083.5" y="53.4863">teamRepository:</text><text fill="#000000" font-family="sans-serif" font-size="14" lengthAdjust="spacing" textLength="104" x="2083" y="72.1074">TeamRepository</text><rect fill="#E3E3E3" height="51.2422" rx="2.5" ry="2.5" style="stroke:#181818;stroke-width:0.5;" width="118" x="2076" y="1594.416"/><text fill="#000000" font-family="sans-serif" font-size="14" lengthAdjust="spacing" textLength="103" x="2083.5" y="1616.5234">teamRepository:</text><text fill="#000000" font-family="sans-serif" font-size="14" lengthAdjust="spacing" textLength="104" x="2083" y="1635.1445">TeamRepository</text><rect fill="#E3E3E3" height="32.6211" rx="2.5" ry="2.5" style="stroke:#181818;stroke-width:0.5;" width="98" x="2204" y="50"/><text fill="#000000" font-family="sans-serif" font-size="14" lengthAdjust="spacing" textLength="84" x="2211" y="72.1074">TeamMapper</text><rect fill="#E3E3E3" height="32.6211" rx="2.5" ry="2.5" style="stroke:#181818;stroke-width:0.5;" width="98" x="2204" y="1594.416"/><text fill="#000000" font-family="sans-serif" font-size="14" lengthAdjust="spacing" textLength="84" x="2211" y="1616.5234">TeamMapper</text><rect fill="#E3E3E3" height="32.6211" rx="2.5" ry="2.5" style="stroke:#181818;stroke-width:0.5;" width="80" x="2405" y="50"/><text fill="#000000" font-family="sans-serif" font-size="14" lengthAdjust="spacing" textLength="66" x="2412" y="72.1074">TeamDTO</text><rect fill="#E3E3E3" height="32.6211" rx="2.5" ry="2.5" style="stroke:#181818;stroke-width:0.5;" width="80" x="2405" y="1594.416"/><text fill="#000000" font-family="sans-serif" font-size="14" lengthAdjust="spacing" textLength="66" x="2412" y="1616.5234">TeamDTO</text><rect fill="#E3E3E3" height="32.6211" rx="2.5" ry="2.5" style="stroke:#181818;stroke-width:0.5;" width="128" x="2495" y="50"/><text fill="#000000" font-family="sans-serif" font-size="14" lengthAdjust="spacing" textLength="114" x="2502" y="72.1074">ApllicationSession</text><rect fill="#E3E3E3" height="32.6211" rx="2.5" ry="2.5" style="stroke:#181818;stroke-width:0.5;" width="128" x="2495" y="1594.416"/><text fill="#000000" font-family="sans-serif" font-size="14" lengthAdjust="spacing" textLength="114" x="2502" y="1616.5234">ApllicationSession</text><rect fill="#FFFFFF" height="1483.7949" style="stroke:#181818;stroke-width:1.0;" width="10" x="18.5" y="93.6211"/><rect fill="#FFFFFF" height="1469.5039" style="stroke:#181818;stroke-width:1.0;" width="10" x="378.5" y="116.9121"/><rect fill="#FFFFFF" height="420.1523" style="stroke:#181818;stroke-width:1.0;" width="10" x="740.5" y="158.2031"/><rect fill="#FFFFFF" height="123.873" style="stroke:#181818;stroke-width:1.0;" width="10" x="740.5" y="686.5586"/><rect fill="#FFFFFF" height="92.582" style="stroke:#181818;stroke-width:1.0;" width="10" x="740.5" y="906.3047"/><rect fill="#FFFFFF" height="476.3652" style="stroke:#181818;stroke-width:1.0;" width="10" x="740.5" y="1110.0508"/><rect fill="#FFFFFF" height="31.291" style="stroke:#181818;stroke-width:1.0;" width="10" x="1074.5" y="235.4453"/><rect fill="#FFFFFF" height="31.291" style="stroke:#181818;stroke-width:1.0;" width="10" x="1181.5" y="298.0273"/><rect fill="#FFFFFF" height="31.291" style="stroke:#181818;stroke-width:1.0;" width="10" x="1181.5" y="360.6094"/><rect fill="#FFFFFF" height="31.291" style="stroke:#181818;stroke-width:1.0;" width="10" x="1323.5" y="485.7734"/><rect fill="#FFFFFF" height="42.9365" style="stroke:#181818;stroke-width:1.0;" width="10" x="1323.5" y="1182.9873"/><rect fill="#FFFFFF" height="62.582" style="stroke:#181818;stroke-width:1.0;" width="10" x="1323.5" y="1343.0879"/><rect fill="#FFFFFF" height="138.2031" style="stroke:#181818;stroke-width:1.0;" width="10" x="1489" y="548.3555"/><rect fill="#FFFFFF" height="17.3301" style="stroke:#181818;stroke-width:1.0;" width="10" x="1832" y="645.9375"/><rect fill="#FFFFFF" height="31.291" style="stroke:#181818;stroke-width:1.0;" width="10" x="2130" y="717.8496"/><rect fill="#FFFFFF" height="42.9365" style="stroke:#181818;stroke-width:1.0;" width="10" x="2130" y="1268.8604"/><rect fill="#FFFFFF" height="155.873" style="stroke:#181818;stroke-width:1.0;" width="10" x="2248" y="780.4316"/><rect fill="#FFFFFF" height="15" style="stroke:#181818;stroke-width:1.0;" width="10" x="2440" y="868.0137"/><polygon fill="#181818" points="366.5,112.9121,376.5,116.9121,366.5,120.9121,370.5,116.9121" style="stroke:#181818;stroke-width:1.0;"/><line style="stroke:#181818;stroke-width:1.0;" x1="28.5" x2="372.5" y1="116.9121" y2="116.9121"/><text fill="#000000" font-family="sans-serif" font-size="13" font-weight="bold" lengthAdjust="spacing" textLength="7" x="35.5" y="111.6494">1</text><text fill="#000000" font-family="sans-serif" font-size="13" lengthAdjust="spacing" textLength="241" x="46.5" y="111.6494">asks to assign a team to an agenda entry</text><polygon fill="#181818" points="624,144.2031,634,148.2031,624,152.2031,628,148.2031" style="stroke:#181818;stroke-width:1.0;"/><line style="stroke:#181818;stroke-width:1.0;" x1="388.5" x2="630" y1="148.2031" y2="148.2031"/><text fill="#000000" font-family="sans-serif" font-size="13" font-weight="bold" lengthAdjust="spacing" textLength="7" x="395.5" y="142.9404">2</text><text fill="#000000" font-family="sans-serif" font-size="13" lengthAdjust="spacing" textLength="36" x="406.5" y="142.9404">create</text><rect fill="#E3E3E3" height="32.6211" rx="2.5" ry="2.5" style="stroke:#181818;stroke-width:0.5;" width="219" x="636" y="124.9121"/><text fill="#000000" font-family="sans-serif" font-size="14" lengthAdjust="spacing" textLength="201" x="643" y="147.0195">:TeamToAgendaEntryController</text><polygon fill="#181818" points="1410,187.8242,1420,191.8242,1410,195.8242,1414,191.8242" style="stroke:#181818;stroke-width:1.0;"/><line style="stroke:#181818;stroke-width:1.0;" x1="750.5" x2="1416" y1="191.8242" y2="191.8242"/><text fill="#000000" font-family="sans-serif" font-size="13" font-weight="bold" lengthAdjust="spacing" textLength="7" x="757.5" y="186.5615">3</text><text fill="#000000" font-family="sans-serif" font-size="13" lengthAdjust="spacing" textLength="36" x="768.5" y="186.5615">create</text><rect fill="#E3E3E3" height="32.6211" rx="2.5" ry="2.5" style="stroke:#181818;stroke-width:0.5;" width="144" x="1422" y="168.5332"/><text fill="#000000" font-family="sans-serif" font-size="14" lengthAdjust="spacing" textLength="130" x="1429" y="190.6406">AgendaEntryMapper</text><polygon fill="#181818" points="1062.5,231.4453,1072.5,235.4453,1062.5,239.4453,1066.5,235.4453" style="stroke:#181818;stroke-width:1.0;"/><line style="stroke:#181818;stroke-width:1.0;" x1="750.5" x2="1068.5" y1="235.4453" y2="235.4453"/><text fill="#000000" font-family="sans-serif" font-size="13" font-weight="bold" lengthAdjust="spacing" textLength="7" x="757.5" y="230.1826">4</text><text fill="#000000" font-family="sans-serif" font-size="13" lengthAdjust="spacing" textLength="75" x="768.5" y="230.1826">getInstance()</text><polygon fill="#181818" points="761.5,262.7363,751.5,266.7363,761.5,270.7363,757.5,266.7363" style="stroke:#181818;stroke-width:1.0;"/><line style="stroke:#181818;stroke-width:1.0;stroke-dasharray:2.0,2.0;" x1="755.5" x2="1078.5" y1="266.7363" y2="266.7363"/><text fill="#000000" font-family="sans-serif" font-size="13" font-weight="bold" lengthAdjust="spacing" textLength="7" x="767.5" y="261.4736">5</text><text fill="#000000" font-family="sans-serif" font-size="13" lengthAdjust="spacing" textLength="67" x="778.5" y="261.4736">repositories</text><polygon fill="#181818" points="1169.5,294.0273,1179.5,298.0273,1169.5,302.0273,1173.5,298.0273" style="stroke:#181818;stroke-width:1.0;"/><line style="stroke:#181818;stroke-width:1.0;" x1="750.5" x2="1175.5" y1="298.0273" y2="298.0273"/><text fill="#000000" font-family="sans-serif" font-size="13" font-weight="bold" lengthAdjust="spacing" textLength="7" x="757.5" y="292.7646">6</text><text fill="#000000" font-family="sans-serif" font-size="13" lengthAdjust="spacing" textLength="163" x="768.5" y="292.7646">getAgendaEntryRepository()</text><polygon fill="#181818" points="761.5,325.3184,751.5,329.3184,761.5,333.3184,757.5,329.3184" style="stroke:#181818;stroke-width:1.0;"/><line style="stroke:#181818;stroke-width:1.0;stroke-dasharray:2.0,2.0;" x1="755.5" x2="1185.5" y1="329.3184" y2="329.3184"/><text fill="#000000" font-family="sans-serif" font-size="13" font-weight="bold" lengthAdjust="spacing" textLength="7" x="767.5" y="324.0557">7</text><text fill="#000000" font-family="sans-serif" font-size="13" lengthAdjust="spacing" textLength="145" x="778.5" y="324.0557">AgendaEntryRepository()</text><polygon fill="#181818" points="1169.5,356.6094,1179.5,360.6094,1169.5,364.6094,1173.5,360.6094" style="stroke:#181818;stroke-width:1.0;"/><line style="stroke:#181818;stroke-width:1.0;" x1="750.5" x2="1175.5" y1="360.6094" y2="360.6094"/><text fill="#000000" font-family="sans-serif" font-size="13" font-weight="bold" lengthAdjust="spacing" textLength="7" x="757.5" y="355.3467">8</text><text fill="#000000" font-family="sans-serif" font-size="13" lengthAdjust="spacing" textLength="107" x="768.5" y="355.3467">getTeamrepository</text><polygon fill="#181818" points="761.5,387.9004,751.5,391.9004,761.5,395.9004,757.5,391.9004" style="stroke:#181818;stroke-width:1.0;"/><line style="stroke:#181818;stroke-width:1.0;stroke-dasharray:2.0,2.0;" x1="755.5" x2="1185.5" y1="391.9004" y2="391.9004"/><text fill="#000000" font-family="sans-serif" font-size="13" font-weight="bold" lengthAdjust="spacing" textLength="7" x="767.5" y="386.6377">9</text><text fill="#000000" font-family="sans-serif" font-size="13" lengthAdjust="spacing" textLength="91" x="778.5" y="386.6377">teamRepository</text><polygon fill="#181818" points="728.5,419.1914,738.5,423.1914,728.5,427.1914,732.5,423.1914" style="stroke:#181818;stroke-width:1.0;"/><line style="stroke:#181818;stroke-width:1.0;" x1="388.5" x2="734.5" y1="423.1914" y2="423.1914"/><text fill="#000000" font-family="sans-serif" font-size="13" font-weight="bold" lengthAdjust="spacing" textLength="14" x="395.5" y="417.9287">10</text><text fill="#000000" font-family="sans-serif" font-size="13" lengthAdjust="spacing" textLength="214" x="413.5" y="417.9287">getAgendaEntriesDTOWithoutTeam()</text><polygon fill="#181818" points="728.5,450.4824,738.5,454.4824,728.5,458.4824,732.5,454.4824" style="stroke:#181818;stroke-width:1.0;"/><line style="stroke:#181818;stroke-width:1.0;" x1="388.5" x2="734.5" y1="454.4824" y2="454.4824"/><text fill="#000000" font-family="sans-serif" font-size="13" font-weight="bold" lengthAdjust="spacing" textLength="14" x="395.5" y="449.2197">11</text><text fill="#000000" font-family="sans-serif" font-size="13" lengthAdjust="spacing" textLength="154" x="413.5" y="449.2197">showAvailableTeamsDTO()</text><polygon fill="#181818" points="1311.5,481.7734,1321.5,485.7734,1311.5,489.7734,1315.5,485.7734" style="stroke:#181818;stroke-width:1.0;"/><line style="stroke:#181818;stroke-width:1.0;" x1="750.5" x2="1317.5" y1="485.7734" y2="485.7734"/><text fill="#000000" font-family="sans-serif" font-size="13" font-weight="bold" lengthAdjust="spacing" textLength="14" x="757.5" y="480.5107">12</text><text fill="#000000" font-family="sans-serif" font-size="13" lengthAdjust="spacing" textLength="467" x="775.5" y="480.5107">getAgendaEntryListWithoutTeam(authenticationController.getCurrentUserEmail())</text><polygon fill="#181818" points="761.5,513.0645,751.5,517.0645,761.5,521.0645,757.5,517.0645" style="stroke:#181818;stroke-width:1.0;"/><line style="stroke:#181818;stroke-width:1.0;stroke-dasharray:2.0,2.0;" x1="755.5" x2="1327.5" y1="517.0645" y2="517.0645"/><text fill="#000000" font-family="sans-serif" font-size="13" font-weight="bold" lengthAdjust="spacing" textLength="14" x="767.5" y="511.8018">13</text><text fill="#000000" font-family="sans-serif" font-size="13" lengthAdjust="spacing" textLength="94" x="785.5" y="511.8018">agendaEntryList</text><polygon fill="#181818" points="1477,544.3555,1487,548.3555,1477,552.3555,1481,548.3555" style="stroke:#181818;stroke-width:1.0;"/><line style="stroke:#181818;stroke-width:1.0;" x1="750.5" x2="1483" y1="548.3555" y2="548.3555"/><text fill="#000000" font-family="sans-serif" font-size="13" font-weight="bold" lengthAdjust="spacing" textLength="14" x="757.5" y="543.0928">14</text><text fill="#000000" font-family="sans-serif" font-size="13" lengthAdjust="spacing" textLength="154" x="775.5" y="543.0928">toDtoList(agendaEntryList)</text><path d="M1412,593.3555 L1485,593.3555 L1485,602.6465 L1475,612.6465 L1412,612.6465 L1412,593.3555 " fill="#EEEEEE" style="stroke:#000000;stroke-width:1.5;"/><rect fill="none" height="62.9121" style="stroke:#000000;stroke-width:1.5;" width="498" x="1412" y="593.3555"/><text fill="#000000" font-family="sans-serif" font-size="13" font-weight="bold" lengthAdjust="spacing" textLength="28" x="1427" y="608.3838">loop</text><text fill="#000000" font-family="sans-serif" font-size="11" font-weight="bold" lengthAdjust="spacing" textLength="229" x="1500" y="607.2256">[for each agendaEntry in agendaEntryList]</text><polygon fill="#181818" points="1762,631.9375,1772,635.9375,1762,639.9375,1766,635.9375" style="stroke:#181818;stroke-width:1.0;"/><line style="stroke:#181818;stroke-width:1.0;" x1="1499" x2="1768" y1="635.9375" y2="635.9375"/><text fill="#000000" font-family="sans-serif" font-size="13" font-weight="bold" lengthAdjust="spacing" textLength="14" x="1506" y="630.6748">15</text><text fill="#000000" font-family="sans-serif" font-size="13" lengthAdjust="spacing" textLength="233" x="1524" y="630.6748">agendaEntryDTO = toDTO(agendaEntry)</text><rect fill="#E3E3E3" height="32.6211" rx="2.5" ry="2.5" style="stroke:#181818;stroke-width:0.5;" width="126" x="1774" y="612.6465"/><text fill="#000000" font-family="sans-serif" font-size="14" lengthAdjust="spacing" textLength="112" x="1781" y="634.7539">AgendaEntryDTO</text><polygon fill="#181818" points="761.5,682.5586,751.5,686.5586,761.5,690.5586,757.5,686.5586" style="stroke:#181818;stroke-width:1.0;"/><line style="stroke:#181818;stroke-width:1.0;stroke-dasharray:2.0,2.0;" x1="755.5" x2="1493" y1="686.5586" y2="686.5586"/><text fill="#000000" font-family="sans-serif" font-size="13" font-weight="bold" lengthAdjust="spacing" textLength="14" x="767.5" y="681.2959">16</text><text fill="#000000" font-family="sans-serif" font-size="13" lengthAdjust="spacing" textLength="120" x="785.5" y="681.2959">agendaEntryDTOList</text><polygon fill="#181818" points="2118,713.8496,2128,717.8496,2118,721.8496,2122,717.8496" style="stroke:#181818;stroke-width:1.0;"/><line style="stroke:#181818;stroke-width:1.0;" x1="750.5" x2="2124" y1="717.8496" y2="717.8496"/><text fill="#000000" font-family="sans-serif" font-size="13" font-weight="bold" lengthAdjust="spacing" textLength="14" x="757.5" y="712.5869">17</text><text fill="#000000" font-family="sans-serif" font-size="13" lengthAdjust="spacing" textLength="65" x="775.5" y="712.5869">getTeams()</text><polygon fill="#181818" points="761.5,745.1406,751.5,749.1406,761.5,753.1406,757.5,749.1406" style="stroke:#181818;stroke-width:1.0;"/><line style="stroke:#181818;stroke-width:1.0;stroke-dasharray:2.0,2.0;" x1="755.5" x2="2134" y1="749.1406" y2="749.1406"/><text fill="#000000" font-family="sans-serif" font-size="13" font-weight="bold" lengthAdjust="spacing" textLength="14" x="767.5" y="743.8779">18</text><text fill="#000000" font-family="sans-serif" font-size="13" lengthAdjust="spacing" textLength="36" x="785.5" y="743.8779">teams</text><polygon fill="#181818" points="2236,776.4316,2246,780.4316,2236,784.4316,2240,780.4316" style="stroke:#181818;stroke-width:1.0;"/><line style="stroke:#181818;stroke-width:1.0;" x1="750.5" x2="2242" y1="780.4316" y2="780.4316"/><text fill="#000000" font-family="sans-serif" font-size="13" font-weight="bold" lengthAdjust="spacing" textLength="14" x="757.5" y="775.1689">19</text><text fill="#000000" font-family="sans-serif" font-size="13" lengthAdjust="spacing" textLength="96" x="775.5" y="775.1689">toDtoList(teams)</text><path d="M2194,825.4316 L2267,825.4316 L2267,834.7227 L2257,844.7227 L2194,844.7227 L2194,825.4316 " fill="#EEEEEE" style="stroke:#000000;stroke-width:1.5;"/><rect fill="none" height="50.582" style="stroke:#000000;stroke-width:1.5;" width="301" x="2194" y="825.4316"/><text fill="#000000" font-family="sans-serif" font-size="13" font-weight="bold" lengthAdjust="spacing" textLength="28" x="2209" y="840.46">loop</text><a href="for" target="_top" title="for" xlink:actuate="onRequest" xlink:href="for" xlink:show="new" xlink:title="for" xlink:type="simple"><text fill="#1D1D1D" font-family="sans-serif" font-size="11" font-weight="bold" lengthAdjust="spacing" text-decoration="underline" textLength="128" x="2282" y="839.3018">each Team in TeamList</text></a><polygon fill="#181818" points="2428,864.0137,2438,868.0137,2428,872.0137,2432,868.0137" style="stroke:#181818;stroke-width:1.0;"/><line style="stroke:#181818;stroke-width:1.0;" x1="2258" x2="2434" y1="868.0137" y2="868.0137"/><text fill="#000000" font-family="sans-serif" font-size="13" font-weight="bold" lengthAdjust="spacing" textLength="14" x="2265" y="862.751">20</text><text fill="#000000" font-family="sans-serif" font-size="13" lengthAdjust="spacing" textLength="145" x="2283" y="862.751">teamDTO = toDTO(team)</text><polygon fill="#181818" points="761.5,902.3047,751.5,906.3047,761.5,910.3047,757.5,906.3047" style="stroke:#181818;stroke-width:1.0;"/><line style="stroke:#181818;stroke-width:1.0;stroke-dasharray:2.0,2.0;" x1="755.5" x2="2247" y1="906.3047" y2="906.3047"/><text fill="#000000" font-family="sans-serif" font-size="13" font-weight="bold" lengthAdjust="spacing" textLength="14" x="767.5" y="901.042">21</text><text fill="#000000" font-family="sans-serif" font-size="13" lengthAdjust="spacing" textLength="76" x="785.5" y="901.042">teamDTOList</text><polygon fill="#181818" points="399.5,963.5957,389.5,967.5957,399.5,971.5957,395.5,967.5957" style="stroke:#181818;stroke-width:1.0;"/><line style="stroke:#181818;stroke-width:1.0;stroke-dasharray:2.0,2.0;" x1="393.5" x2="739.5" y1="967.5957" y2="967.5957"/><text fill="#000000" font-family="sans-serif" font-size="13" font-weight="bold" lengthAdjust="spacing" textLength="14" x="405.5" y="962.333">22</text><text fill="#000000" font-family="sans-serif" font-size="13" lengthAdjust="spacing" textLength="120" x="423.5" y="962.333">agendaEntryDTOList</text><polygon fill="#181818" points="399.5,994.8867,389.5,998.8867,399.5,1002.8867,395.5,998.8867" style="stroke:#181818;stroke-width:1.0;"/><line style="stroke:#181818;stroke-width:1.0;stroke-dasharray:2.0,2.0;" x1="393.5" x2="744.5" y1="998.8867" y2="998.8867"/><text fill="#000000" font-family="sans-serif" font-size="13" font-weight="bold" lengthAdjust="spacing" textLength="14" x="405.5" y="993.624">23</text><text fill="#000000" font-family="sans-serif" font-size="13" lengthAdjust="spacing" textLength="76" x="423.5" y="993.624">teamDTOList</text><polygon fill="#181818" points="39.5,1043.4688,29.5,1047.4688,39.5,1051.4688,35.5,1047.4688" style="stroke:#181818;stroke-width:1.0;"/><line style="stroke:#181818;stroke-width:1.0;stroke-dasharray:2.0,2.0;" x1="33.5" x2="377.5" y1="1047.4688" y2="1047.4688"/><text fill="#000000" font-family="sans-serif" font-size="13" font-weight="bold" lengthAdjust="spacing" textLength="14" x="45.5" y="1033.5605">24</text><text fill="#000000" font-family="sans-serif" font-size="13" lengthAdjust="spacing" textLength="219" x="63.5" y="1024.915">shows the list of entries in the agenda</text><text fill="#000000" font-family="sans-serif" font-size="13" lengthAdjust="spacing" textLength="304" x="67.5" y="1042.2061">and the list of  teams and asks to select one of each</text><polygon fill="#181818" points="366.5,1074.7598,376.5,1078.7598,366.5,1082.7598,370.5,1078.7598" style="stroke:#181818;stroke-width:1.0;"/><line style="stroke:#181818;stroke-width:1.0;" x1="28.5" x2="372.5" y1="1078.7598" y2="1078.7598"/><text fill="#000000" font-family="sans-serif" font-size="13" font-weight="bold" lengthAdjust="spacing" textLength="14" x="35.5" y="1073.4971">25</text><text fill="#000000" font-family="sans-serif" font-size="13" lengthAdjust="spacing" textLength="133" x="53.5" y="1073.4971">selects entry and team</text><polygon fill="#181818" points="728.5,1106.0508,738.5,1110.0508,728.5,1114.0508,732.5,1110.0508" style="stroke:#181818;stroke-width:1.0;"/><line style="stroke:#181818;stroke-width:1.0;" x1="388.5" x2="734.5" y1="1110.0508" y2="1110.0508"/><text fill="#000000" font-family="sans-serif" font-size="13" font-weight="bold" lengthAdjust="spacing" textLength="14" x="395.5" y="1104.7881">26</text><text fill="#000000" font-family="sans-serif" font-size="13" lengthAdjust="spacing" textLength="315" x="413.5" y="1104.7881">assignTeamToAgendaEntry(selectedEntry, teamEntry)</text><polygon fill="#181818" points="1311.5,1178.9873,1321.5,1182.9873,1311.5,1186.9873,1315.5,1182.9873" style="stroke:#181818;stroke-width:1.0;"/><line style="stroke:#181818;stroke-width:1.0;" x1="750.5" x2="1317.5" y1="1182.9873" y2="1182.9873"/><text fill="#000000" font-family="sans-serif" font-size="13" font-weight="bold" lengthAdjust="spacing" textLength="14" x="757.5" y="1177.7246">27</text><text fill="#000000" font-family="sans-serif" font-size="13" lengthAdjust="spacing" textLength="241" x="775.5" y="1177.7246">getAgendaEntry(description, greenSpace)</text><path d="M1338,1153.0508 L1338,1197.0508 L1687,1197.0508 L1687,1163.0508 L1677,1153.0508 L1338,1153.0508 " fill="#FAFAFA" style="stroke:#181818;stroke-width:0.5;"/><path d="M1677,1153.0508 L1677,1163.0508 L1687,1163.0508 L1677,1153.0508 " fill="#FAFAFA" style="stroke:#181818;stroke-width:0.5;"/><text fill="#000000" font-family="sans-serif" font-size="13" lengthAdjust="spacing" textLength="288" x="1344" y="1172.0791">iterates through the agenda entry list and gets the</text><text fill="#000000" font-family="sans-serif" font-size="13" lengthAdjust="spacing" textLength="324" x="1348" y="1189.3701">agenda entry by description and greenSpace of the DTO</text><polygon fill="#181818" points="761.5,1221.9238,751.5,1225.9238,761.5,1229.9238,757.5,1225.9238" style="stroke:#181818;stroke-width:1.0;"/><line style="stroke:#181818;stroke-width:1.0;stroke-dasharray:2.0,2.0;" x1="755.5" x2="1327.5" y1="1225.9238" y2="1225.9238"/><text fill="#000000" font-family="sans-serif" font-size="13" font-weight="bold" lengthAdjust="spacing" textLength="14" x="767.5" y="1220.6611">28</text><text fill="#000000" font-family="sans-serif" font-size="13" lengthAdjust="spacing" textLength="73" x="785.5" y="1220.6611">agendaEntry</text><polygon fill="#181818" points="2118,1264.8604,2128,1268.8604,2118,1272.8604,2122,1268.8604" style="stroke:#181818;stroke-width:1.0;"/><line style="stroke:#181818;stroke-width:1.0;" x1="750.5" x2="2124" y1="1268.8604" y2="1268.8604"/><text fill="#000000" font-family="sans-serif" font-size="13" font-weight="bold" lengthAdjust="spacing" textLength="14" x="757.5" y="1263.5977">29</text><text fill="#000000" font-family="sans-serif" font-size="13" lengthAdjust="spacing" textLength="307" x="775.5" y="1263.5977">getTeamByCollaborators(teamDTO.getCollaborators()</text><path d="M2145,1238.9238 L2145,1282.9238 L2415,1282.9238 L2415,1248.9238 L2405,1238.9238 L2145,1238.9238 " fill="#FAFAFA" style="stroke:#181818;stroke-width:0.5;"/><path d="M2405,1238.9238 L2405,1248.9238 L2415,1248.9238 L2405,1238.9238 " fill="#FAFAFA" style="stroke:#181818;stroke-width:0.5;"/><text fill="#000000" font-family="sans-serif" font-size="13" lengthAdjust="spacing" textLength="249" x="2151" y="1257.9521">iterates through the teams list and gets the</text><text fill="#000000" font-family="sans-serif" font-size="13" lengthAdjust="spacing" textLength="191" x="2155" y="1275.2432">team by collaborator names DTO</text><polygon fill="#181818" points="761.5,1307.7969,751.5,1311.7969,761.5,1315.7969,757.5,1311.7969" style="stroke:#181818;stroke-width:1.0;"/><line style="stroke:#181818;stroke-width:1.0;stroke-dasharray:2.0,2.0;" x1="755.5" x2="2134" y1="1311.7969" y2="1311.7969"/><text fill="#000000" font-family="sans-serif" font-size="13" font-weight="bold" lengthAdjust="spacing" textLength="14" x="767.5" y="1306.5342">30</text><text fill="#000000" font-family="sans-serif" font-size="13" lengthAdjust="spacing" textLength="29" x="785.5" y="1306.5342">team</text><polygon fill="#181818" points="1311.5,1339.0879,1321.5,1343.0879,1311.5,1347.0879,1315.5,1343.0879" style="stroke:#181818;stroke-width:1.0;"/><line style="stroke:#181818;stroke-width:1.0;" x1="750.5" x2="1317.5" y1="1343.0879" y2="1343.0879"/><text fill="#000000" font-family="sans-serif" font-size="13" font-weight="bold" lengthAdjust="spacing" textLength="14" x="757.5" y="1337.8252">31</text><text fill="#000000" font-family="sans-serif" font-size="13" lengthAdjust="spacing" textLength="144" x="775.5" y="1337.8252">assignTeam(entry, team)</text><polygon fill="#181818" points="1946,1370.3789,1956,1374.3789,1946,1378.3789,1950,1374.3789" style="stroke:#181818;stroke-width:1.0;"/><line style="stroke:#181818;stroke-width:1.0;" x1="1333.5" x2="1952" y1="1374.3789" y2="1374.3789"/><text fill="#000000" font-family="sans-serif" font-size="13" font-weight="bold" lengthAdjust="spacing" textLength="14" x="1340.5" y="1369.1162">32</text><text fill="#000000" font-family="sans-serif" font-size="13" lengthAdjust="spacing" textLength="152" x="1358.5" y="1369.1162">setAssociatedTeam(team)</text><polygon fill="#181818" points="761.5,1401.6699,751.5,1405.6699,761.5,1409.6699,757.5,1405.6699" style="stroke:#181818;stroke-width:1.0;"/><line style="stroke:#181818;stroke-width:1.0;stroke-dasharray:2.0,2.0;" x1="755.5" x2="1327.5" y1="1405.6699" y2="1405.6699"/><text fill="#000000" font-family="sans-serif" font-size="13" font-weight="bold" lengthAdjust="spacing" textLength="14" x="767.5" y="1400.4072">33</text><text fill="#000000" font-family="sans-serif" font-size="13" lengthAdjust="spacing" textLength="105" x="785.5" y="1400.4072">success/insucess</text><line style="stroke:#181818;stroke-width:1.0;" x1="750.5" x2="792.5" y1="1447.1064" y2="1447.1064"/><line style="stroke:#181818;stroke-width:1.0;" x1="792.5" x2="792.5" y1="1447.1064" y2="1460.1064"/><line style="stroke:#181818;stroke-width:1.0;" x1="745.5" x2="792.5" y1="1460.1064" y2="1460.1064"/><polygon fill="#181818" points="755.5,1456.1064,745.5,1460.1064,755.5,1464.1064,751.5,1460.1064" style="stroke:#181818;stroke-width:1.0;"/><text fill="#000000" font-family="sans-serif" font-size="13" font-weight="bold" lengthAdjust="spacing" textLength="14" x="757.5" y="1441.8438">34</text><text fill="#000000" font-family="sans-serif" font-size="13" lengthAdjust="spacing" textLength="292" x="775.5" y="1441.8438">sendNotificationEmails(entry.getAssociatedTeam()</text><path d="M481,1418.6699 L481,1462.6699 L735,1462.6699 L735,1428.6699 L725,1418.6699 L481,1418.6699 " fill="#FAFAFA" style="stroke:#181818;stroke-width:0.5;"/><path d="M725,1418.6699 L725,1428.6699 L735,1428.6699 L725,1418.6699 " fill="#FAFAFA" style="stroke:#181818;stroke-width:0.5;"/><text fill="#000000" font-family="sans-serif" font-size="13" lengthAdjust="spacing" textLength="233" x="487" y="1437.6982">gets the collaborators for each team and</text><text fill="#000000" font-family="sans-serif" font-size="13" lengthAdjust="spacing" textLength="199" x="487" y="1454.9893">gets the email of each collaborator</text><polygon fill="#181818" points="2547,1499.1885,2557,1503.1885,2547,1507.1885,2551,1503.1885" style="stroke:#181818;stroke-width:1.0;"/><line style="stroke:#181818;stroke-width:1.0;" x1="750.5" x2="2553" y1="1503.1885" y2="1503.1885"/><text fill="#000000" font-family="sans-serif" font-size="13" font-weight="bold" lengthAdjust="spacing" textLength="14" x="757.5" y="1497.9258">35</text><text fill="#000000" font-family="sans-serif" font-size="13" lengthAdjust="spacing" textLength="101" x="775.5" y="1497.9258">getEmailService()</text><path d="M2564,1473.252 L2564,1517.252 L2954,1517.252 L2954,1483.252 L2944,1473.252 L2564,1473.252 " fill="#FAFAFA" style="stroke:#181818;stroke-width:0.5;"/><path d="M2944,1473.252 L2944,1483.252 L2954,1483.252 L2944,1473.252 " fill="#FAFAFA" style="stroke:#181818;stroke-width:0.5;"/><text fill="#000000" font-family="sans-serif" font-size="13" lengthAdjust="spacing" textLength="353" x="2570" y="1492.2803">goes to the config file and gets the property of the used email</text><text fill="#000000" font-family="sans-serif" font-size="13" lengthAdjust="spacing" textLength="365" x="2574" y="1509.5713">service and then sends an email through EmailService interface</text><polygon fill="#181818" points="399.5,1542.125,389.5,1546.125,399.5,1550.125,395.5,1546.125" style="stroke:#181818;stroke-width:1.0;"/><line style="stroke:#181818;stroke-width:1.0;stroke-dasharray:2.0,2.0;" x1="393.5" x2="739.5" y1="1546.125" y2="1546.125"/><text fill="#000000" font-family="sans-serif" font-size="13" font-weight="bold" lengthAdjust="spacing" textLength="14" x="405.5" y="1540.8623">36</text><text fill="#000000" font-family="sans-serif" font-size="13" lengthAdjust="spacing" textLength="112" x="423.5" y="1540.8623">success/insuccess</text><polygon fill="#181818" points="34.5,1573.416,24.5,1577.416,34.5,1581.416,30.5,1577.416" style="stroke:#181818;stroke-width:1.0;"/><line style="stroke:#181818;stroke-width:1.0;stroke-dasharray:2.0,2.0;" x1="28.5" x2="377.5" y1="1577.416" y2="1577.416"/><text fill="#000000" font-family="sans-serif" font-size="13" font-weight="bold" lengthAdjust="spacing" textLength="14" x="40.5" y="1572.1533">37</text><text fill="#000000" font-family="sans-serif" font-size="13" lengthAdjust="spacing" textLength="169" x="58.5" y="1572.1533">shows (in))success message</text><!--SRC=[bLXBZzis4BxhLn1xgHqawTr00soJ80ZGj42zGGzr3bnvB14ham99RUf_tnbI3rAYQ7iFiKtEUxvvCEP5o9PhVcPd9LLPQtK6PdK7XHblMbw-y0hszj80qr1QBgic930rFwgVGbRin1i3HS4xgsHtVWPT5B_KuWZif9HzLlyLlBHAiuSl-syFZ1k6dmNAiA8KBPUMFUmUAv17_bbQVVd-rT5qOaRo1Fpyf0B2Zmh_LKq3A9auIgkR6S_Vq2eZKBS0usZ6WyjUa3jeSCoY0uw3N0fe6svZ3ZvPD4dV7UHZwjp9y1nq64iAEBxnjWKTKFk3Y3uW__Jq5v769wl20x7kTqn8SNOK5h_4LtGI-VWK7OnSIzU8iFTfUO6sEjR- -ypkjcb4oQrGSW_6u8StlssBWd0bNha5XwY2pVxmaBtxW4XYEsHvGTiKVXfHISQTdUv0zg5Wu6Ana3BgG4GkBb4sQY3alNc3MaeDI9cHuJ2wkAPJ51DcEXANP2352JWZMmNsgpHOhoLijkksf6fXGKr_AItlUhTtBAoO1ViHxbCtE4PbvZr9bb7EBLUXIJ-SqCdmMoK7FgHbz-cZIsSouNYCokLUI-bqCZ8kkU9-upenoegYYTd2Mlj7s5frpkA4vnEwCHSC6xxw-VZAHSEV6o0Mae1iwscSEjqYcNy8OqFjE3nghC2-rAVU_XxPFdPQuzrt0_hp6VLljfdy1zrrIJJPCuMOnqRbGfoJ7VlignYzjkgJLIHtCzDprOM-vMVCyTraYVL6gHPdhsP8MeV-CI4NxYxP8m_GetYikCx4uzdp6xc9M0YEjwaQ72sVJQeb9LxdF9_n5taN9X37Tj-MxfKypBEm2eYXXDckxmqcrxx6-RaW6UN4tI7RTDUb3TQ5encBV8AhavqnD9hfrq2QH2ZxTyGeoI9mqYTf_x4qEDH7XlVRWWz224BwdR5xs3AAEo4tyENjYbAp1h45UbX6RpREVHh7BUSwl4EEl9NNSkZ60yh1DMldPWCkM3Mm1cKnTNBh50uPoYeTUzCEs7_aCQBp87R7mv9ceC7t1bCId204IAAPZDlThgStVeFp2cXtJRL66eTzstURuE9LiV72uEX-lNMI-eR6xbphCWsBNP-Oyu6vEO8fjMXfFBvbbGQGUtoZGQhHIeKgjQXgN4Y41OqMK7Aqwgewo4OVC9S9YXegT3ayn3inUxwmGBad7VLJYaYagwbCZCBPkJfqw3evcTCRtKs3UZtOGtSSjxRVyL7Pu7gZC69AcqrV7cu7YIwsANEkHjqZFHLkznh1C9U15YRv6GKauN93Wr-R5rcOPiIb43hLq0QcSjdUZ8BiWlOXp3yLkNqqHfK2nHoTIg_hHYoPhYpn_VYhaFWDlnHv1Arj-RqmbF-dikBKhwjkApK-1WIMcQ7Rwqk61pbRGrK39_-sy3qsX8cPDZs78aJMGOwKG9ODNJJYMts5jYrj-oZ1URK7_IgI3yaGxfK2rxczSV8aAdOI3KGmPwrMECJiPUWOdO6ZDn0hm7WzmtYGBiOq5deNXZeAZSBPWcLsmYQqkduD4oBCVZBzOKRQDlMCYaVTHiZjjXV6i4uDvh4e0YdqNnB_0m00]--></g></svg>