<?xml version="1.0" encoding="us-ascii" standalone="no"?><svg xmlns="http://www.w3.org/2000/svg" xmlns:xlink="http://www.w3.org/1999/xlink" contentStyleType="text/css" height="1698px" preserveAspectRatio="none" style="width:2629px;height:1698px;background:#FFFFFF;" version="1.1" viewBox="0 0 2629 1698" width="2629px" zoomAndPan="magnify"><defs/><g><rect fill="#FFFFFF" height="1504.125" style="stroke:#181818;stroke-width:1.0;" width="10" x="18.5" y="93.6211"/><rect fill="#FFFFFF" height="1489.834" style="stroke:#181818;stroke-width:1.0;" width="10" x="378.5" y="116.9121"/><rect fill="#FFFFFF" height="463.7734" style="stroke:#181818;stroke-width:1.0;" width="10" x="740.5" y="158.2031"/><rect fill="#FFFFFF" height="123.873" style="stroke:#181818;stroke-width:1.0;" width="10" x="740.5" y="730.1797"/><rect fill="#FFFFFF" height="92.582" style="stroke:#181818;stroke-width:1.0;" width="10" x="740.5" y="949.9258"/><rect fill="#FFFFFF" height="453.0742" style="stroke:#181818;stroke-width:1.0;" width="10" x="740.5" y="1153.6719"/><rect fill="#FFFFFF" height="31.291" style="stroke:#181818;stroke-width:1.0;" width="10" x="1074.5" y="279.0664"/><rect fill="#FFFFFF" height="31.291" style="stroke:#181818;stroke-width:1.0;" width="10" x="1181.5" y="341.6484"/><rect fill="#FFFFFF" height="31.291" style="stroke:#181818;stroke-width:1.0;" width="10" x="1181.5" y="404.2305"/><rect fill="#FFFFFF" height="31.291" style="stroke:#181818;stroke-width:1.0;" width="10" x="1323.5" y="529.3945"/><rect fill="#FFFFFF" height="42.9365" style="stroke:#181818;stroke-width:1.0;" width="10" x="1323.5" y="1226.6084"/><rect fill="#FFFFFF" height="62.582" style="stroke:#181818;stroke-width:1.0;" width="10" x="1323.5" y="1386.709"/><rect fill="#FFFFFF" height="138.2031" style="stroke:#181818;stroke-width:1.0;" width="10" x="1489" y="591.9766"/><rect fill="#FFFFFF" height="17.3301" style="stroke:#181818;stroke-width:1.0;" width="10" x="1832" y="689.5586"/><rect fill="#FFFFFF" height="31.291" style="stroke:#181818;stroke-width:1.0;" width="10" x="2130" y="761.4707"/><rect fill="#FFFFFF" height="42.9365" style="stroke:#181818;stroke-width:1.0;" width="10" x="2130" y="1312.4814"/><rect fill="#FFFFFF" height="155.873" style="stroke:#181818;stroke-width:1.0;" width="10" x="2248" y="824.0527"/><rect fill="#FFFFFF" height="15" style="stroke:#181818;stroke-width:1.0;" width="10" x="2440" y="911.6348"/><rect fill="none" height="62.9121" style="stroke:#000000;stroke-width:1.5;" width="498" x="1412" y="636.9766"/><rect fill="none" height="50.582" style="stroke:#000000;stroke-width:1.5;" width="301" x="2194" y="869.0527"/><line style="stroke:#181818;stroke-width:0.5;stroke-dasharray:5.0,5.0;" x1="23" x2="23" y1="83.6211" y2="1615.7461"/><line style="stroke:#181818;stroke-width:0.5;stroke-dasharray:5.0,5.0;" x1="383.5" x2="383.5" y1="83.6211" y2="1615.7461"/><line style="stroke:#181818;stroke-width:0.5;stroke-dasharray:5.0,5.0;" x1="745" x2="745" y1="156.7227" y2="1615.7461"/><line style="stroke:#181818;stroke-width:0.5;stroke-dasharray:5.0,5.0;" x1="1079" x2="1079" y1="83.6211" y2="1615.7461"/><line style="stroke:#181818;stroke-width:0.5;stroke-dasharray:5.0,5.0;" x1="1186" x2="1186" y1="83.6211" y2="1615.7461"/><line style="stroke:#181818;stroke-width:0.5;stroke-dasharray:5.0,5.0;" x1="1328" x2="1328" y1="83.6211" y2="1615.7461"/><line style="stroke:#181818;stroke-width:0.5;stroke-dasharray:5.0,5.0;" x1="1494" x2="1494" y1="200.3438" y2="1615.7461"/><line style="stroke:#181818;stroke-width:0.5;stroke-dasharray:5.0,5.0;" x1="1837" x2="1837" y1="688.0781" y2="1615.7461"/><line style="stroke:#181818;stroke-width:0.5;stroke-dasharray:5.0,5.0;" x1="1958" x2="1958" y1="83.6211" y2="1615.7461"/><line style="stroke:#181818;stroke-width:0.5;stroke-dasharray:5.0,5.0;" x1="2041" x2="2041" y1="83.6211" y2="1615.7461"/><line style="stroke:#181818;stroke-width:0.5;stroke-dasharray:5.0,5.0;" x1="2135" x2="2135" y1="83.6211" y2="1615.7461"/><line style="stroke:#181818;stroke-width:0.5;stroke-dasharray:5.0,5.0;" x1="2253" x2="2253" y1="83.6211" y2="1615.7461"/><line style="stroke:#181818;stroke-width:0.5;stroke-dasharray:5.0,5.0;" x1="2445" x2="2445" y1="83.6211" y2="1615.7461"/><line style="stroke:#181818;stroke-width:0.5;stroke-dasharray:5.0,5.0;" x1="2559" x2="2559" y1="243.9648" y2="1615.7461"/><text fill="#000000" font-family="sans-serif" font-size="14" lengthAdjust="spacing" textLength="31" x="5" y="80.1074">GSM</text><ellipse cx="23.5" cy="13.5" fill="#E3E3E3" rx="8" ry="8" style="stroke:#181818;stroke-width:0.5;"/><path d="M23.5,21.5 L23.5,48.5 M10.5,29.5 L36.5,29.5 M23.5,48.5 L10.5,63.5 M23.5,48.5 L36.5,63.5 " fill="none" style="stroke:#181818;stroke-width:0.5;"/><text fill="#000000" font-family="sans-serif" font-size="14" lengthAdjust="spacing" textLength="31" x="5" y="1629.8535">GSM</text><ellipse cx="23.5" cy="1641.8672" fill="#E3E3E3" rx="8" ry="8" style="stroke:#181818;stroke-width:0.5;"/><path d="M23.5,1649.8672 L23.5,1676.8672 M10.5,1657.8672 L36.5,1657.8672 M23.5,1676.8672 L10.5,1691.8672 M23.5,1676.8672 L36.5,1691.8672 " fill="none" style="stroke:#181818;stroke-width:0.5;"/><rect fill="#E3E3E3" height="32.6211" rx="2.5" ry="2.5" style="stroke:#181818;stroke-width:0.5;" width="112" x="327.5" y="50"/><text fill="#000000" font-family="sans-serif" font-size="14" lengthAdjust="spacing" textLength="98" x="334.5" y="72.1074">:AgendaEntryUI</text><rect fill="#E3E3E3" height="32.6211" rx="2.5" ry="2.5" style="stroke:#181818;stroke-width:0.5;" width="112" x="327.5" y="1614.7461"/><text fill="#000000" font-family="sans-serif" font-size="14" lengthAdjust="spacing" textLength="98" x="334.5" y="1636.8535">:AgendaEntryUI</text><rect fill="#E3E3E3" height="32.6211" rx="2.5" ry="2.5" style="stroke:#181818;stroke-width:0.5;" width="219" x="636" y="1614.7461"/><text fill="#000000" font-family="sans-serif" font-size="14" lengthAdjust="spacing" textLength="201" x="643" y="1636.8535">:TeamToAgendaEntryController</text><rect fill="#E3E3E3" height="32.6211" rx="2.5" ry="2.5" style="stroke:#181818;stroke-width:0.5;" width="97" x="1031" y="50"/><text fill="#000000" font-family="sans-serif" font-size="14" lengthAdjust="spacing" textLength="83" x="1038" y="72.1074">:Repositories</text><rect fill="#E3E3E3" height="32.6211" rx="2.5" ry="2.5" style="stroke:#181818;stroke-width:0.5;" width="97" x="1031" y="1614.7461"/><text fill="#000000" font-family="sans-serif" font-size="14" lengthAdjust="spacing" textLength="83" x="1038" y="1636.8535">:Repositories</text><rect fill="#E3E3E3" height="51.2422" rx="2.5" ry="2.5" style="stroke:#181818;stroke-width:0.5;" width="97" x="1138" y="31.3789"/><text fill="#000000" font-family="sans-serif" font-size="14" lengthAdjust="spacing" textLength="74" x="1149.5" y="53.4863">repositories</text><text fill="#000000" font-family="sans-serif" font-size="14" lengthAdjust="spacing" textLength="83" x="1145" y="72.1074">:Repositories</text><rect fill="#E3E3E3" height="51.2422" rx="2.5" ry="2.5" style="stroke:#181818;stroke-width:0.5;" width="97" x="1138" y="1614.7461"/><text fill="#000000" font-family="sans-serif" font-size="14" lengthAdjust="spacing" textLength="74" x="1149.5" y="1636.8535">repositories</text><text fill="#000000" font-family="sans-serif" font-size="14" lengthAdjust="spacing" textLength="83" x="1145" y="1655.4746">:Repositories</text><rect fill="#E3E3E3" height="51.2422" rx="2.5" ry="2.5" style="stroke:#181818;stroke-width:0.5;" width="167" x="1245" y="31.3789"/><text fill="#000000" font-family="sans-serif" font-size="14" lengthAdjust="spacing" textLength="153" x="1252" y="53.4863">agendaEntryRepository:</text><text fill="#000000" font-family="sans-serif" font-size="14" lengthAdjust="spacing" textLength="150" x="1253.5" y="72.1074">AgendaEntryRepository</text><rect fill="#E3E3E3" height="51.2422" rx="2.5" ry="2.5" style="stroke:#181818;stroke-width:0.5;" width="167" x="1245" y="1614.7461"/><text fill="#000000" font-family="sans-serif" font-size="14" lengthAdjust="spacing" textLength="153" x="1252" y="1636.8535">agendaEntryRepository:</text><text fill="#000000" font-family="sans-serif" font-size="14" lengthAdjust="spacing" textLength="150" x="1253.5" y="1655.4746">AgendaEntryRepository</text><rect fill="#E3E3E3" height="32.6211" rx="2.5" ry="2.5" style="stroke:#181818;stroke-width:0.5;" width="144" x="1422" y="1614.7461"/><text fill="#000000" font-family="sans-serif" font-size="14" lengthAdjust="spacing" textLength="130" x="1429" y="1636.8535">AgendaEntryMapper</text><rect fill="#E3E3E3" height="32.6211" rx="2.5" ry="2.5" style="stroke:#181818;stroke-width:0.5;" width="126" x="1774" y="1614.7461"/><text fill="#000000" font-family="sans-serif" font-size="14" lengthAdjust="spacing" textLength="112" x="1781" y="1636.8535">AgendaEntryDTO</text><rect fill="#E3E3E3" height="32.6211" rx="2.5" ry="2.5" style="stroke:#181818;stroke-width:0.5;" width="96" x="1910" y="50"/><text fill="#000000" font-family="sans-serif" font-size="14" lengthAdjust="spacing" textLength="82" x="1917" y="72.1074">AgendaEntry</text><rect fill="#E3E3E3" height="32.6211" rx="2.5" ry="2.5" style="stroke:#181818;stroke-width:0.5;" width="96" x="1910" y="1614.7461"/><text fill="#000000" font-family="sans-serif" font-size="14" lengthAdjust="spacing" textLength="82" x="1917" y="1636.8535">AgendaEntry</text><rect fill="#E3E3E3" height="32.6211" rx="2.5" ry="2.5" style="stroke:#181818;stroke-width:0.5;" width="50" x="2016" y="50"/><text fill="#000000" font-family="sans-serif" font-size="14" lengthAdjust="spacing" textLength="36" x="2023" y="72.1074">Team</text><rect fill="#E3E3E3" height="32.6211" rx="2.5" ry="2.5" style="stroke:#181818;stroke-width:0.5;" width="50" x="2016" y="1614.7461"/><text fill="#000000" font-family="sans-serif" font-size="14" lengthAdjust="spacing" textLength="36" x="2023" y="1636.8535">Team</text><rect fill="#E3E3E3" height="51.2422" rx="2.5" ry="2.5" style="stroke:#181818;stroke-width:0.5;" width="118" x="2076" y="31.3789"/><text fill="#000000" font-family="sans-serif" font-size="14" lengthAdjust="spacing" textLength="103" x="2083.5" y="53.4863">teamRepository:</text><text fill="#000000" font-family="sans-serif" font-size="14" lengthAdjust="spacing" textLength="104" x="2083" y="72.1074">TeamRepository</text><rect fill="#E3E3E3" height="51.2422" rx="2.5" ry="2.5" style="stroke:#181818;stroke-width:0.5;" width="118" x="2076" y="1614.7461"/><text fill="#000000" font-family="sans-serif" font-size="14" lengthAdjust="spacing" textLength="103" x="2083.5" y="1636.8535">teamRepository:</text><text fill="#000000" font-family="sans-serif" font-size="14" lengthAdjust="spacing" textLength="104" x="2083" y="1655.4746">TeamRepository</text><rect fill="#E3E3E3" height="32.6211" rx="2.5" ry="2.5" style="stroke:#181818;stroke-width:0.5;" width="98" x="2204" y="50"/><text fill="#000000" font-family="sans-serif" font-size="14" lengthAdjust="spacing" textLength="84" x="2211" y="72.1074">TeamMapper</text><rect fill="#E3E3E3" height="32.6211" rx="2.5" ry="2.5" style="stroke:#181818;stroke-width:0.5;" width="98" x="2204" y="1614.7461"/><text fill="#000000" font-family="sans-serif" font-size="14" lengthAdjust="spacing" textLength="84" x="2211" y="1636.8535">TeamMapper</text><rect fill="#E3E3E3" height="32.6211" rx="2.5" ry="2.5" style="stroke:#181818;stroke-width:0.5;" width="80" x="2405" y="50"/><text fill="#000000" font-family="sans-serif" font-size="14" lengthAdjust="spacing" textLength="66" x="2412" y="72.1074">TeamDTO</text><rect fill="#E3E3E3" height="32.6211" rx="2.5" ry="2.5" style="stroke:#181818;stroke-width:0.5;" width="80" x="2405" y="1614.7461"/><text fill="#000000" font-family="sans-serif" font-size="14" lengthAdjust="spacing" textLength="66" x="2412" y="1636.8535">TeamDTO</text><rect fill="#E3E3E3" height="32.6211" rx="2.5" ry="2.5" style="stroke:#181818;stroke-width:0.5;" width="128" x="2495" y="1614.7461"/><text fill="#000000" font-family="sans-serif" font-size="14" lengthAdjust="spacing" textLength="114" x="2502" y="1636.8535">ApllicationSession</text><rect fill="#FFFFFF" height="1504.125" style="stroke:#181818;stroke-width:1.0;" width="10" x="18.5" y="93.6211"/><rect fill="#FFFFFF" height="1489.834" style="stroke:#181818;stroke-width:1.0;" width="10" x="378.5" y="116.9121"/><rect fill="#FFFFFF" height="463.7734" style="stroke:#181818;stroke-width:1.0;" width="10" x="740.5" y="158.2031"/><rect fill="#FFFFFF" height="123.873" style="stroke:#181818;stroke-width:1.0;" width="10" x="740.5" y="730.1797"/><rect fill="#FFFFFF" height="92.582" style="stroke:#181818;stroke-width:1.0;" width="10" x="740.5" y="949.9258"/><rect fill="#FFFFFF" height="453.0742" style="stroke:#181818;stroke-width:1.0;" width="10" x="740.5" y="1153.6719"/><rect fill="#FFFFFF" height="31.291" style="stroke:#181818;stroke-width:1.0;" width="10" x="1074.5" y="279.0664"/><rect fill="#FFFFFF" height="31.291" style="stroke:#181818;stroke-width:1.0;" width="10" x="1181.5" y="341.6484"/><rect fill="#FFFFFF" height="31.291" style="stroke:#181818;stroke-width:1.0;" width="10" x="1181.5" y="404.2305"/><rect fill="#FFFFFF" height="31.291" style="stroke:#181818;stroke-width:1.0;" width="10" x="1323.5" y="529.3945"/><rect fill="#FFFFFF" height="42.9365" style="stroke:#181818;stroke-width:1.0;" width="10" x="1323.5" y="1226.6084"/><rect fill="#FFFFFF" height="62.582" style="stroke:#181818;stroke-width:1.0;" width="10" x="1323.5" y="1386.709"/><rect fill="#FFFFFF" height="138.2031" style="stroke:#181818;stroke-width:1.0;" width="10" x="1489" y="591.9766"/><rect fill="#FFFFFF" height="17.3301" style="stroke:#181818;stroke-width:1.0;" width="10" x="1832" y="689.5586"/><rect fill="#FFFFFF" height="31.291" style="stroke:#181818;stroke-width:1.0;" width="10" x="2130" y="761.4707"/><rect fill="#FFFFFF" height="42.9365" style="stroke:#181818;stroke-width:1.0;" width="10" x="2130" y="1312.4814"/><rect fill="#FFFFFF" height="155.873" style="stroke:#181818;stroke-width:1.0;" width="10" x="2248" y="824.0527"/><rect fill="#FFFFFF" height="15" style="stroke:#181818;stroke-width:1.0;" width="10" x="2440" y="911.6348"/><polygon fill="#181818" points="366.5,112.9121,376.5,116.9121,366.5,120.9121,370.5,116.9121" style="stroke:#181818;stroke-width:1.0;"/><line style="stroke:#181818;stroke-width:1.0;" x1="28.5" x2="372.5" y1="116.9121" y2="116.9121"/><text fill="#000000" font-family="sans-serif" font-size="13" font-weight="bold" lengthAdjust="spacing" textLength="7" x="35.5" y="111.6494">1</text><text fill="#000000" font-family="sans-serif" font-size="13" lengthAdjust="spacing" textLength="241" x="46.5" y="111.6494">asks to assign a team to an agenda entry</text><polygon fill="#181818" points="624,144.2031,634,148.2031,624,152.2031,628,148.2031" style="stroke:#181818;stroke-width:1.0;"/><line style="stroke:#181818;stroke-width:1.0;" x1="388.5" x2="630" y1="148.2031" y2="148.2031"/><text fill="#000000" font-family="sans-serif" font-size="13" font-weight="bold" lengthAdjust="spacing" textLength="7" x="395.5" y="142.9404">2</text><text fill="#000000" font-family="sans-serif" font-size="13" lengthAdjust="spacing" textLength="36" x="406.5" y="142.9404">create</text><rect fill="#E3E3E3" height="32.6211" rx="2.5" ry="2.5" style="stroke:#181818;stroke-width:0.5;" width="219" x="636" y="124.9121"/><text fill="#000000" font-family="sans-serif" font-size="14" lengthAdjust="spacing" textLength="201" x="643" y="147.0195">:TeamToAgendaEntryController</text><polygon fill="#181818" points="1410,187.8242,1420,191.8242,1410,195.8242,1414,191.8242" style="stroke:#181818;stroke-width:1.0;"/><line style="stroke:#181818;stroke-width:1.0;" x1="750.5" x2="1416" y1="191.8242" y2="191.8242"/><text fill="#000000" font-family="sans-serif" font-size="13" font-weight="bold" lengthAdjust="spacing" textLength="7" x="757.5" y="186.5615">3</text><text fill="#000000" font-family="sans-serif" font-size="13" lengthAdjust="spacing" textLength="36" x="768.5" y="186.5615">create</text><rect fill="#E3E3E3" height="32.6211" rx="2.5" ry="2.5" style="stroke:#181818;stroke-width:0.5;" width="144" x="1422" y="168.5332"/><text fill="#000000" font-family="sans-serif" font-size="14" lengthAdjust="spacing" textLength="130" x="1429" y="190.6406">AgendaEntryMapper</text><polygon fill="#181818" points="2483,231.4453,2493,235.4453,2483,239.4453,2487,235.4453" style="stroke:#181818;stroke-width:1.0;"/><line style="stroke:#181818;stroke-width:1.0;" x1="750.5" x2="2489" y1="235.4453" y2="235.4453"/><text fill="#000000" font-family="sans-serif" font-size="13" font-weight="bold" lengthAdjust="spacing" textLength="7" x="757.5" y="230.1826">4</text><text fill="#000000" font-family="sans-serif" font-size="13" lengthAdjust="spacing" textLength="36" x="768.5" y="230.1826">create</text><rect fill="#E3E3E3" height="32.6211" rx="2.5" ry="2.5" style="stroke:#181818;stroke-width:0.5;" width="128" x="2495" y="212.1543"/><text fill="#000000" font-family="sans-serif" font-size="14" lengthAdjust="spacing" textLength="114" x="2502" y="234.2617">ApllicationSession</text><polygon fill="#181818" points="1062.5,275.0664,1072.5,279.0664,1062.5,283.0664,1066.5,279.0664" style="stroke:#181818;stroke-width:1.0;"/><line style="stroke:#181818;stroke-width:1.0;" x1="750.5" x2="1068.5" y1="279.0664" y2="279.0664"/><text fill="#000000" font-family="sans-serif" font-size="13" font-weight="bold" lengthAdjust="spacing" textLength="7" x="757.5" y="273.8037">5</text><text fill="#000000" font-family="sans-serif" font-size="13" lengthAdjust="spacing" textLength="75" x="768.5" y="273.8037">getInstance()</text><polygon fill="#181818" points="761.5,306.3574,751.5,310.3574,761.5,314.3574,757.5,310.3574" style="stroke:#181818;stroke-width:1.0;"/><line style="stroke:#181818;stroke-width:1.0;stroke-dasharray:2.0,2.0;" x1="755.5" x2="1078.5" y1="310.3574" y2="310.3574"/><text fill="#000000" font-family="sans-serif" font-size="13" font-weight="bold" lengthAdjust="spacing" textLength="7" x="767.5" y="305.0947">6</text><text fill="#000000" font-family="sans-serif" font-size="13" lengthAdjust="spacing" textLength="67" x="778.5" y="305.0947">repositories</text><polygon fill="#181818" points="1169.5,337.6484,1179.5,341.6484,1169.5,345.6484,1173.5,341.6484" style="stroke:#181818;stroke-width:1.0;"/><line style="stroke:#181818;stroke-width:1.0;" x1="750.5" x2="1175.5" y1="341.6484" y2="341.6484"/><text fill="#000000" font-family="sans-serif" font-size="13" font-weight="bold" lengthAdjust="spacing" textLength="7" x="757.5" y="336.3857">7</text><text fill="#000000" font-family="sans-serif" font-size="13" lengthAdjust="spacing" textLength="163" x="768.5" y="336.3857">getAgendaEntryRepository()</text><polygon fill="#181818" points="761.5,368.9395,751.5,372.9395,761.5,376.9395,757.5,372.9395" style="stroke:#181818;stroke-width:1.0;"/><line style="stroke:#181818;stroke-width:1.0;stroke-dasharray:2.0,2.0;" x1="755.5" x2="1185.5" y1="372.9395" y2="372.9395"/><text fill="#000000" font-family="sans-serif" font-size="13" font-weight="bold" lengthAdjust="spacing" textLength="7" x="767.5" y="367.6768">8</text><text fill="#000000" font-family="sans-serif" font-size="13" lengthAdjust="spacing" textLength="145" x="778.5" y="367.6768">AgendaEntryRepository()</text><polygon fill="#181818" points="1169.5,400.2305,1179.5,404.2305,1169.5,408.2305,1173.5,404.2305" style="stroke:#181818;stroke-width:1.0;"/><line style="stroke:#181818;stroke-width:1.0;" x1="750.5" x2="1175.5" y1="404.2305" y2="404.2305"/><text fill="#000000" font-family="sans-serif" font-size="13" font-weight="bold" lengthAdjust="spacing" textLength="7" x="757.5" y="398.9678">9</text><text fill="#000000" font-family="sans-serif" font-size="13" lengthAdjust="spacing" textLength="107" x="768.5" y="398.9678">getTeamrepository</text><polygon fill="#181818" points="761.5,431.5215,751.5,435.5215,761.5,439.5215,757.5,435.5215" style="stroke:#181818;stroke-width:1.0;"/><line style="stroke:#181818;stroke-width:1.0;stroke-dasharray:2.0,2.0;" x1="755.5" x2="1185.5" y1="435.5215" y2="435.5215"/><text fill="#000000" font-family="sans-serif" font-size="13" font-weight="bold" lengthAdjust="spacing" textLength="14" x="767.5" y="430.2588">10</text><text fill="#000000" font-family="sans-serif" font-size="13" lengthAdjust="spacing" textLength="91" x="785.5" y="430.2588">teamRepository</text><polygon fill="#181818" points="728.5,462.8125,738.5,466.8125,728.5,470.8125,732.5,466.8125" style="stroke:#181818;stroke-width:1.0;"/><line style="stroke:#181818;stroke-width:1.0;" x1="388.5" x2="734.5" y1="466.8125" y2="466.8125"/><text fill="#000000" font-family="sans-serif" font-size="13" font-weight="bold" lengthAdjust="spacing" textLength="14" x="395.5" y="461.5498">11</text><text fill="#000000" font-family="sans-serif" font-size="13" lengthAdjust="spacing" textLength="214" x="413.5" y="461.5498">getAgendaEntriesDTOWithoutTeam()</text><polygon fill="#181818" points="728.5,494.1035,738.5,498.1035,728.5,502.1035,732.5,498.1035" style="stroke:#181818;stroke-width:1.0;"/><line style="stroke:#181818;stroke-width:1.0;" x1="388.5" x2="734.5" y1="498.1035" y2="498.1035"/><text fill="#000000" font-family="sans-serif" font-size="13" font-weight="bold" lengthAdjust="spacing" textLength="14" x="395.5" y="492.8408">12</text><text fill="#000000" font-family="sans-serif" font-size="13" lengthAdjust="spacing" textLength="154" x="413.5" y="492.8408">showAvailableTeamsDTO()</text><polygon fill="#181818" points="1311.5,525.3945,1321.5,529.3945,1311.5,533.3945,1315.5,529.3945" style="stroke:#181818;stroke-width:1.0;"/><line style="stroke:#181818;stroke-width:1.0;" x1="750.5" x2="1317.5" y1="529.3945" y2="529.3945"/><text fill="#000000" font-family="sans-serif" font-size="13" font-weight="bold" lengthAdjust="spacing" textLength="14" x="757.5" y="524.1318">13</text><text fill="#000000" font-family="sans-serif" font-size="13" lengthAdjust="spacing" textLength="467" x="775.5" y="524.1318">getAgendaEntryListWithoutTeam(authenticationController.getCurrentUserEmail())</text><polygon fill="#181818" points="761.5,556.6855,751.5,560.6855,761.5,564.6855,757.5,560.6855" style="stroke:#181818;stroke-width:1.0;"/><line style="stroke:#181818;stroke-width:1.0;stroke-dasharray:2.0,2.0;" x1="755.5" x2="1327.5" y1="560.6855" y2="560.6855"/><text fill="#000000" font-family="sans-serif" font-size="13" font-weight="bold" lengthAdjust="spacing" textLength="14" x="767.5" y="555.4229">14</text><text fill="#000000" font-family="sans-serif" font-size="13" lengthAdjust="spacing" textLength="94" x="785.5" y="555.4229">agendaEntryList</text><polygon fill="#181818" points="1477,587.9766,1487,591.9766,1477,595.9766,1481,591.9766" style="stroke:#181818;stroke-width:1.0;"/><line style="stroke:#181818;stroke-width:1.0;" x1="750.5" x2="1483" y1="591.9766" y2="591.9766"/><text fill="#000000" font-family="sans-serif" font-size="13" font-weight="bold" lengthAdjust="spacing" textLength="14" x="757.5" y="586.7139">15</text><text fill="#000000" font-family="sans-serif" font-size="13" lengthAdjust="spacing" textLength="154" x="775.5" y="586.7139">toDtoList(agendaEntryList)</text><path d="M1412,636.9766 L1485,636.9766 L1485,646.2676 L1475,656.2676 L1412,656.2676 L1412,636.9766 " fill="#EEEEEE" style="stroke:#000000;stroke-width:1.5;"/><rect fill="none" height="62.9121" style="stroke:#000000;stroke-width:1.5;" width="498" x="1412" y="636.9766"/><text fill="#000000" font-family="sans-serif" font-size="13" font-weight="bold" lengthAdjust="spacing" textLength="28" x="1427" y="652.0049">loop</text><text fill="#000000" font-family="sans-serif" font-size="11" font-weight="bold" lengthAdjust="spacing" textLength="229" x="1500" y="650.8467">[for each agendaEntry in agendaEntryList]</text><polygon fill="#181818" points="1762,675.5586,1772,679.5586,1762,683.5586,1766,679.5586" style="stroke:#181818;stroke-width:1.0;"/><line style="stroke:#181818;stroke-width:1.0;" x1="1499" x2="1768" y1="679.5586" y2="679.5586"/><text fill="#000000" font-family="sans-serif" font-size="13" font-weight="bold" lengthAdjust="spacing" textLength="14" x="1506" y="674.2959">16</text><text fill="#000000" font-family="sans-serif" font-size="13" lengthAdjust="spacing" textLength="233" x="1524" y="674.2959">agendaEntryDTO = toDTO(agendaEntry)</text><rect fill="#E3E3E3" height="32.6211" rx="2.5" ry="2.5" style="stroke:#181818;stroke-width:0.5;" width="126" x="1774" y="656.2676"/><text fill="#000000" font-family="sans-serif" font-size="14" lengthAdjust="spacing" textLength="112" x="1781" y="678.375">AgendaEntryDTO</text><polygon fill="#181818" points="761.5,726.1797,751.5,730.1797,761.5,734.1797,757.5,730.1797" style="stroke:#181818;stroke-width:1.0;"/><line style="stroke:#181818;stroke-width:1.0;stroke-dasharray:2.0,2.0;" x1="755.5" x2="1493" y1="730.1797" y2="730.1797"/><text fill="#000000" font-family="sans-serif" font-size="13" font-weight="bold" lengthAdjust="spacing" textLength="14" x="767.5" y="724.917">17</text><text fill="#000000" font-family="sans-serif" font-size="13" lengthAdjust="spacing" textLength="120" x="785.5" y="724.917">agendaEntryDTOList</text><polygon fill="#181818" points="2118,757.4707,2128,761.4707,2118,765.4707,2122,761.4707" style="stroke:#181818;stroke-width:1.0;"/><line style="stroke:#181818;stroke-width:1.0;" x1="750.5" x2="2124" y1="761.4707" y2="761.4707"/><text fill="#000000" font-family="sans-serif" font-size="13" font-weight="bold" lengthAdjust="spacing" textLength="14" x="757.5" y="756.208">18</text><text fill="#000000" font-family="sans-serif" font-size="13" lengthAdjust="spacing" textLength="65" x="775.5" y="756.208">getTeams()</text><polygon fill="#181818" points="761.5,788.7617,751.5,792.7617,761.5,796.7617,757.5,792.7617" style="stroke:#181818;stroke-width:1.0;"/><line style="stroke:#181818;stroke-width:1.0;stroke-dasharray:2.0,2.0;" x1="755.5" x2="2134" y1="792.7617" y2="792.7617"/><text fill="#000000" font-family="sans-serif" font-size="13" font-weight="bold" lengthAdjust="spacing" textLength="14" x="767.5" y="787.499">19</text><text fill="#000000" font-family="sans-serif" font-size="13" lengthAdjust="spacing" textLength="36" x="785.5" y="787.499">teams</text><polygon fill="#181818" points="2236,820.0527,2246,824.0527,2236,828.0527,2240,824.0527" style="stroke:#181818;stroke-width:1.0;"/><line style="stroke:#181818;stroke-width:1.0;" x1="750.5" x2="2242" y1="824.0527" y2="824.0527"/><text fill="#000000" font-family="sans-serif" font-size="13" font-weight="bold" lengthAdjust="spacing" textLength="14" x="757.5" y="818.79">20</text><text fill="#000000" font-family="sans-serif" font-size="13" lengthAdjust="spacing" textLength="96" x="775.5" y="818.79">toDtoList(teams)</text><path d="M2194,869.0527 L2267,869.0527 L2267,878.3438 L2257,888.3438 L2194,888.3438 L2194,869.0527 " fill="#EEEEEE" style="stroke:#000000;stroke-width:1.5;"/><rect fill="none" height="50.582" style="stroke:#000000;stroke-width:1.5;" width="301" x="2194" y="869.0527"/><text fill="#000000" font-family="sans-serif" font-size="13" font-weight="bold" lengthAdjust="spacing" textLength="28" x="2209" y="884.0811">loop</text><a href="for" target="_top" title="for" xlink:actuate="onRequest" xlink:href="for" xlink:show="new" xlink:title="for" xlink:type="simple"><text fill="#1D1D1D" font-family="sans-serif" font-size="11" font-weight="bold" lengthAdjust="spacing" text-decoration="underline" textLength="128" x="2282" y="882.9229">each Team in TeamList</text></a><polygon fill="#181818" points="2428,907.6348,2438,911.6348,2428,915.6348,2432,911.6348" style="stroke:#181818;stroke-width:1.0;"/><line style="stroke:#181818;stroke-width:1.0;" x1="2258" x2="2434" y1="911.6348" y2="911.6348"/><text fill="#000000" font-family="sans-serif" font-size="13" font-weight="bold" lengthAdjust="spacing" textLength="14" x="2265" y="906.3721">21</text><text fill="#000000" font-family="sans-serif" font-size="13" lengthAdjust="spacing" textLength="145" x="2283" y="906.3721">teamDTO = toDTO(team)</text><polygon fill="#181818" points="761.5,945.9258,751.5,949.9258,761.5,953.9258,757.5,949.9258" style="stroke:#181818;stroke-width:1.0;"/><line style="stroke:#181818;stroke-width:1.0;stroke-dasharray:2.0,2.0;" x1="755.5" x2="2247" y1="949.9258" y2="949.9258"/><text fill="#000000" font-family="sans-serif" font-size="13" font-weight="bold" lengthAdjust="spacing" textLength="14" x="767.5" y="944.6631">22</text><text fill="#000000" font-family="sans-serif" font-size="13" lengthAdjust="spacing" textLength="76" x="785.5" y="944.6631">teamDTOList</text><polygon fill="#181818" points="399.5,1007.2168,389.5,1011.2168,399.5,1015.2168,395.5,1011.2168" style="stroke:#181818;stroke-width:1.0;"/><line style="stroke:#181818;stroke-width:1.0;stroke-dasharray:2.0,2.0;" x1="393.5" x2="739.5" y1="1011.2168" y2="1011.2168"/><text fill="#000000" font-family="sans-serif" font-size="13" font-weight="bold" lengthAdjust="spacing" textLength="14" x="405.5" y="1005.9541">23</text><text fill="#000000" font-family="sans-serif" font-size="13" lengthAdjust="spacing" textLength="120" x="423.5" y="1005.9541">agendaEntryDTOList</text><polygon fill="#181818" points="399.5,1038.5078,389.5,1042.5078,399.5,1046.5078,395.5,1042.5078" style="stroke:#181818;stroke-width:1.0;"/><line style="stroke:#181818;stroke-width:1.0;stroke-dasharray:2.0,2.0;" x1="393.5" x2="744.5" y1="1042.5078" y2="1042.5078"/><text fill="#000000" font-family="sans-serif" font-size="13" font-weight="bold" lengthAdjust="spacing" textLength="14" x="405.5" y="1037.2451">24</text><text fill="#000000" font-family="sans-serif" font-size="13" lengthAdjust="spacing" textLength="76" x="423.5" y="1037.2451">teamDTOList</text><polygon fill="#181818" points="39.5,1087.0898,29.5,1091.0898,39.5,1095.0898,35.5,1091.0898" style="stroke:#181818;stroke-width:1.0;"/><line style="stroke:#181818;stroke-width:1.0;stroke-dasharray:2.0,2.0;" x1="33.5" x2="377.5" y1="1091.0898" y2="1091.0898"/><text fill="#000000" font-family="sans-serif" font-size="13" font-weight="bold" lengthAdjust="spacing" textLength="14" x="45.5" y="1077.1816">25</text><text fill="#000000" font-family="sans-serif" font-size="13" lengthAdjust="spacing" textLength="219" x="63.5" y="1068.5361">shows the list of entries in the agenda</text><text fill="#000000" font-family="sans-serif" font-size="13" lengthAdjust="spacing" textLength="304" x="67.5" y="1085.8271">and the list of  teams and asks to select one of each</text><polygon fill="#181818" points="366.5,1118.3809,376.5,1122.3809,366.5,1126.3809,370.5,1122.3809" style="stroke:#181818;stroke-width:1.0;"/><line style="stroke:#181818;stroke-width:1.0;" x1="28.5" x2="372.5" y1="1122.3809" y2="1122.3809"/><text fill="#000000" font-family="sans-serif" font-size="13" font-weight="bold" lengthAdjust="spacing" textLength="14" x="35.5" y="1117.1182">26</text><text fill="#000000" font-family="sans-serif" font-size="13" lengthAdjust="spacing" textLength="133" x="53.5" y="1117.1182">selects entry and team</text><polygon fill="#181818" points="728.5,1149.6719,738.5,1153.6719,728.5,1157.6719,732.5,1153.6719" style="stroke:#181818;stroke-width:1.0;"/><line style="stroke:#181818;stroke-width:1.0;" x1="388.5" x2="734.5" y1="1153.6719" y2="1153.6719"/><text fill="#000000" font-family="sans-serif" font-size="13" font-weight="bold" lengthAdjust="spacing" textLength="14" x="395.5" y="1148.4092">27</text><text fill="#000000" font-family="sans-serif" font-size="13" lengthAdjust="spacing" textLength="315" x="413.5" y="1148.4092">assignTeamToAgendaEntry(selectedEntry, teamEntry)</text><polygon fill="#181818" points="1311.5,1222.6084,1321.5,1226.6084,1311.5,1230.6084,1315.5,1226.6084" style="stroke:#181818;stroke-width:1.0;"/><line style="stroke:#181818;stroke-width:1.0;" x1="750.5" x2="1317.5" y1="1226.6084" y2="1226.6084"/><text fill="#000000" font-family="sans-serif" font-size="13" font-weight="bold" lengthAdjust="spacing" textLength="14" x="757.5" y="1221.3457">28</text><text fill="#000000" font-family="sans-serif" font-size="13" lengthAdjust="spacing" textLength="241" x="775.5" y="1221.3457">getAgendaEntry(description, greenSpace)</text><path d="M1338,1196.6719 L1338,1240.6719 L1687,1240.6719 L1687,1206.6719 L1677,1196.6719 L1338,1196.6719 " fill="#FAFAFA" style="stroke:#181818;stroke-width:0.5;"/><path d="M1677,1196.6719 L1677,1206.6719 L1687,1206.6719 L1677,1196.6719 " fill="#FAFAFA" style="stroke:#181818;stroke-width:0.5;"/><text fill="#000000" font-family="sans-serif" font-size="13" lengthAdjust="spacing" textLength="288" x="1344" y="1215.7002">iterates through the agenda entry list and gets the</text><text fill="#000000" font-family="sans-serif" font-size="13" lengthAdjust="spacing" textLength="324" x="1348" y="1232.9912">agenda entry by description and greenSpace of the DTO</text><polygon fill="#181818" points="761.5,1265.5449,751.5,1269.5449,761.5,1273.5449,757.5,1269.5449" style="stroke:#181818;stroke-width:1.0;"/><line style="stroke:#181818;stroke-width:1.0;stroke-dasharray:2.0,2.0;" x1="755.5" x2="1327.5" y1="1269.5449" y2="1269.5449"/><text fill="#000000" font-family="sans-serif" font-size="13" font-weight="bold" lengthAdjust="spacing" textLength="14" x="767.5" y="1264.2822">29</text><text fill="#000000" font-family="sans-serif" font-size="13" lengthAdjust="spacing" textLength="73" x="785.5" y="1264.2822">agendaEntry</text><polygon fill="#181818" points="2118,1308.4814,2128,1312.4814,2118,1316.4814,2122,1312.4814" style="stroke:#181818;stroke-width:1.0;"/><line style="stroke:#181818;stroke-width:1.0;" x1="750.5" x2="2124" y1="1312.4814" y2="1312.4814"/><text fill="#000000" font-family="sans-serif" font-size="13" font-weight="bold" lengthAdjust="spacing" textLength="14" x="757.5" y="1307.2188">30</text><text fill="#000000" font-family="sans-serif" font-size="13" lengthAdjust="spacing" textLength="307" x="775.5" y="1307.2188">getTeamByCollaborators(teamDTO.getCollaborators()</text><path d="M2145,1282.5449 L2145,1326.5449 L2415,1326.5449 L2415,1292.5449 L2405,1282.5449 L2145,1282.5449 " fill="#FAFAFA" style="stroke:#181818;stroke-width:0.5;"/><path d="M2405,1282.5449 L2405,1292.5449 L2415,1292.5449 L2405,1282.5449 " fill="#FAFAFA" style="stroke:#181818;stroke-width:0.5;"/><text fill="#000000" font-family="sans-serif" font-size="13" lengthAdjust="spacing" textLength="249" x="2151" y="1301.5732">iterates through the teams list and gets the</text><text fill="#000000" font-family="sans-serif" font-size="13" lengthAdjust="spacing" textLength="191" x="2155" y="1318.8643">team by collaborator names DTO</text><polygon fill="#181818" points="761.5,1351.418,751.5,1355.418,761.5,1359.418,757.5,1355.418" style="stroke:#181818;stroke-width:1.0;"/><line style="stroke:#181818;stroke-width:1.0;stroke-dasharray:2.0,2.0;" x1="755.5" x2="2134" y1="1355.418" y2="1355.418"/><text fill="#000000" font-family="sans-serif" font-size="13" font-weight="bold" lengthAdjust="spacing" textLength="14" x="767.5" y="1350.1553">31</text><text fill="#000000" font-family="sans-serif" font-size="13" lengthAdjust="spacing" textLength="29" x="785.5" y="1350.1553">team</text><polygon fill="#181818" points="1311.5,1382.709,1321.5,1386.709,1311.5,1390.709,1315.5,1386.709" style="stroke:#181818;stroke-width:1.0;"/><line style="stroke:#181818;stroke-width:1.0;" x1="750.5" x2="1317.5" y1="1386.709" y2="1386.709"/><text fill="#000000" font-family="sans-serif" font-size="13" font-weight="bold" lengthAdjust="spacing" textLength="14" x="757.5" y="1381.4463">32</text><text fill="#000000" font-family="sans-serif" font-size="13" lengthAdjust="spacing" textLength="144" x="775.5" y="1381.4463">assignTeam(entry, team)</text><polygon fill="#181818" points="1946,1414,1956,1418,1946,1422,1950,1418" style="stroke:#181818;stroke-width:1.0;"/><line style="stroke:#181818;stroke-width:1.0;" x1="1333.5" x2="1952" y1="1418" y2="1418"/><text fill="#000000" font-family="sans-serif" font-size="13" font-weight="bold" lengthAdjust="spacing" textLength="14" x="1340.5" y="1412.7373">33</text><text fill="#000000" font-family="sans-serif" font-size="13" lengthAdjust="spacing" textLength="152" x="1358.5" y="1412.7373">setAssociatedTeam(team)</text><polygon fill="#181818" points="761.5,1445.291,751.5,1449.291,761.5,1453.291,757.5,1449.291" style="stroke:#181818;stroke-width:1.0;"/><line style="stroke:#181818;stroke-width:1.0;stroke-dasharray:2.0,2.0;" x1="755.5" x2="1327.5" y1="1449.291" y2="1449.291"/><text fill="#000000" font-family="sans-serif" font-size="13" font-weight="bold" lengthAdjust="spacing" textLength="14" x="767.5" y="1444.0283">34</text><text fill="#000000" font-family="sans-serif" font-size="13" lengthAdjust="spacing" textLength="105" x="785.5" y="1444.0283">success/insucess</text><line style="stroke:#181818;stroke-width:1.0;" x1="750.5" x2="792.5" y1="1490.7275" y2="1490.7275"/><line style="stroke:#181818;stroke-width:1.0;" x1="792.5" x2="792.5" y1="1490.7275" y2="1503.7275"/><line style="stroke:#181818;stroke-width:1.0;" x1="745.5" x2="792.5" y1="1503.7275" y2="1503.7275"/><polygon fill="#181818" points="755.5,1499.7275,745.5,1503.7275,755.5,1507.7275,751.5,1503.7275" style="stroke:#181818;stroke-width:1.0;"/><text fill="#000000" font-family="sans-serif" font-size="13" font-weight="bold" lengthAdjust="spacing" textLength="14" x="757.5" y="1485.4648">35</text><text fill="#000000" font-family="sans-serif" font-size="13" lengthAdjust="spacing" textLength="292" x="775.5" y="1485.4648">sendNotificationEmails(entry.getAssociatedTeam()</text><path d="M481,1462.291 L481,1506.291 L735,1506.291 L735,1472.291 L725,1462.291 L481,1462.291 " fill="#FAFAFA" style="stroke:#181818;stroke-width:0.5;"/><path d="M725,1462.291 L725,1472.291 L735,1472.291 L725,1462.291 " fill="#FAFAFA" style="stroke:#181818;stroke-width:0.5;"/><text fill="#000000" font-family="sans-serif" font-size="13" lengthAdjust="spacing" textLength="233" x="487" y="1481.3193">gets the collaborators for each team and</text><text fill="#000000" font-family="sans-serif" font-size="13" lengthAdjust="spacing" textLength="199" x="487" y="1498.6104">gets the email of each collaborator</text><polygon fill="#181818" points="2547,1531.1641,2557,1535.1641,2547,1539.1641,2551,1535.1641" style="stroke:#181818;stroke-width:1.0;"/><line style="stroke:#181818;stroke-width:1.0;" x1="750.5" x2="2553" y1="1535.1641" y2="1535.1641"/><text fill="#000000" font-family="sans-serif" font-size="13" font-weight="bold" lengthAdjust="spacing" textLength="14" x="757.5" y="1529.9014">36</text><text fill="#000000" font-family="sans-serif" font-size="13" lengthAdjust="spacing" textLength="136" x="775.5" y="1529.9014">sendEmail(email, body)</text><polygon fill="#181818" points="399.5,1562.4551,389.5,1566.4551,399.5,1570.4551,395.5,1566.4551" style="stroke:#181818;stroke-width:1.0;"/><line style="stroke:#181818;stroke-width:1.0;stroke-dasharray:2.0,2.0;" x1="393.5" x2="739.5" y1="1566.4551" y2="1566.4551"/><text fill="#000000" font-family="sans-serif" font-size="13" font-weight="bold" lengthAdjust="spacing" textLength="14" x="405.5" y="1561.1924">37</text><text fill="#000000" font-family="sans-serif" font-size="13" lengthAdjust="spacing" textLength="112" x="423.5" y="1561.1924">success/insuccess</text><polygon fill="#181818" points="34.5,1593.7461,24.5,1597.7461,34.5,1601.7461,30.5,1597.7461" style="stroke:#181818;stroke-width:1.0;"/><line style="stroke:#181818;stroke-width:1.0;stroke-dasharray:2.0,2.0;" x1="28.5" x2="377.5" y1="1597.7461" y2="1597.7461"/><text fill="#000000" font-family="sans-serif" font-size="13" font-weight="bold" lengthAdjust="spacing" textLength="14" x="40.5" y="1592.4834">38</text><text fill="#000000" font-family="sans-serif" font-size="13" lengthAdjust="spacing" textLength="169" x="58.5" y="1592.4834">shows (in))success message</text><!--SRC=[bLZDZzCu5B_dhx3ciYqQu5u9f5b020bsfUsWFMmvk8cRM9FQaUt0zh_dFTj9xCHnspdGrdxlzxu_Z7xXegEAdibP2basIfuPCQfdXHvlEbg-q9hjpQLbHB7IK56t8O5kQ2L_SL6J4sqrAmhQ6odwyv6felYZuHKZ9odDKVvVqD98HHu-xxyz4Ae9V1Q0ONZ9EoeCUTWzrKnKz9CmwlBzYwNf-OpacT7pimm8FqZuLxOj0sJaA8rgPpp_i4vg3h8vqvPcFBZiEPe32iSiAk0uY2L0rr8JSz19embzTn1FgNEBuJZmC4OAEBxHhcCge7O74Nr0_l7vRoIDJrR10rZxEoP4FriA0r_YApo9R7oE3aQkfMb8w6rQNe2kbjL_d-dTjIqlgU5Ix9dMyE7KxxgYmBpYFwbXDgCAClk3G_BwFMGIsG7B2-WcuLFpMX1gzRG7mhk2CEkB1See0p9oSGdO804pxzKha58g1fGP39kZYsiy1PWmqY5SYXp50c5Mwa2NI7hWgfdv8ZHKTSasstMDKnMpeCQ_b9JNtZax4jRLWhrYzuaR3CDYT9OaYordbgtZf1qMT5ByLkJ0XZIs3p9UMfKnsqUlNExL54yd9UF2BEvNhkSZLkHDY1PKvB_SDBAt6YSidse0Oa5WBCXVJpyfR-cnPSY22C2s7iQf7ow2-PLh4qg74TD0dVg6C4s0Dy3seLSAxhvhfZwTGVvccub_q8ENH9C-aujfh5JEnJdis6PNws2raH-DHDpDJCvL4_nWoAZZUiuorrifEvZGYW1f4zf7k5YOksIFB02Buk5Z6nED9zGxD1Do8JZUfcfmr7mspvQKS9spVCPVv4sOaZZM-xPmhyHX7eNLX1XAcEnyRz2vzZLEsGN9Y1DtXspJNKSRj0i7E1JvbAuMEwDeDFcl9MaoGyb_OuuY5YOdVgBq7qk5GtcekDyfd1F29CJV6Rs7NQIuC-K6lhnUKMZMKcoHFIGZD-jd7yPn5xgUtY57NijhCRJZ0N1W6TlPsG1hMCD82rX4dkpI1KC6euh7JhK3z1zHHNGkYUtniCffriAhX4Z1B10aIAAPZ3lWpjDhj-Sv0RZXfbeZZaFVzks-k7XxR1mOg-olHula6ngvS_dBD2noVMBE1-QcOhfKlCFn-4XgnPZOmqkEfHgja21IyRg1XOGRfa0338wIVTq4qV0Eiv50hu506yD3l3cJuuK4mXtfA1z3X92sfZ8-2cVdwj31w-HaJczqDmtgTMSFtN7Sslw4fsSBwuq4ZqcbDxuyx0uINMnJwbprkilqbBljcmNSN0PIYA1d04YcomqDVcrUPDCq0vVAqAc6Dcmgb-tDMP1TqDw7ySSYDqzQov83J6L5EbctfPBkon8UcM-vW6_mfSWdqDgIxy40_ozf-CblgtOfrSu5c2ipFRVNTmoNusGjgLfsSayBrsB3BD7JecUJ21Bh84PAXfeDJJJYMtsgTXqk-sYYsxKjn2CvokgolkeFZJZqSjBDeUNmq4-qvtYYRBZORZqOWNBGuA-Y253m_mT-0m00]--></g></svg>