<?xml version="1.0" encoding="us-ascii" standalone="no"?><svg xmlns="http://www.w3.org/2000/svg" xmlns:xlink="http://www.w3.org/1999/xlink" contentStyleType="text/css" height="1090px" preserveAspectRatio="none" style="width:1690px;height:1090px;background:#FFFFFF;" version="1.1" viewBox="0 0 1690 1090" width="1690px" zoomAndPan="magnify"><defs/><g><!--class AgendaEntry--><g id="elem_AgendaEntry"><rect codeLine="9" fill="#F1F1F1" height="122.4844" id="AgendaEntry" rx="2.5" ry="2.5" style="stroke:#181818;stroke-width:0.5;" width="185" x="911" y="559"/><ellipse cx="958.25" cy="575" fill="#ADD1B2" rx="11" ry="11" style="stroke:#181818;stroke-width:1.0;"/><path d="M961.0156,570.875 Q961.1719,570.6563 961.3594,570.5469 Q961.5469,570.4375 961.7656,570.4375 Q962.1406,570.4375 962.375,570.7031 Q962.6094,570.9531 962.6094,571.5625 L962.6094,573.0156 Q962.6094,573.625 962.375,573.8906 Q962.1406,574.1563 961.7656,574.1563 Q961.4219,574.1563 961.2188,573.9531 Q961.0156,573.7656 960.9063,573.25 Q960.8594,572.8906 960.6719,572.7031 Q960.3438,572.3281 959.7344,572.1094 Q959.125,571.8906 958.5,571.8906 Q957.7344,571.8906 957.0938,572.2188 Q956.4688,572.5469 955.9688,573.2969 Q955.4844,574.0469 955.4844,575.0781 L955.4844,576.1719 Q955.4844,577.4063 956.375,578.2344 Q957.2656,579.0469 958.8594,579.0469 Q959.7969,579.0469 960.4531,578.7969 Q960.8438,578.6406 961.2656,578.2031 Q961.5313,577.9375 961.6719,577.8594 Q961.8281,577.7813 962.0313,577.7813 Q962.3594,577.7813 962.6094,578.0469 Q962.875,578.2969 962.875,578.6406 Q962.875,578.9844 962.5313,579.3906 Q962.0313,579.9688 961.2344,580.2969 Q960.1563,580.75 958.8594,580.75 Q957.3438,580.75 956.1406,580.125 Q955.1563,579.625 954.4688,578.5625 Q953.7813,577.4844 953.7813,576.2031 L953.7813,575.0469 Q953.7813,573.7188 954.3906,572.5781 Q955.0156,571.4219 956.1094,570.8125 Q957.2031,570.1875 958.4375,570.1875 Q959.1719,570.1875 959.8125,570.3594 Q960.4688,570.5156 961.0156,570.875 Z " fill="#000000"/><text fill="#000000" font-family="sans-serif" font-size="14" lengthAdjust="spacing" textLength="82" x="978.75" y="580.7969">AgendaEntry</text><line style="stroke:#181818;stroke-width:0.5;" x1="912" x2="1095" y1="591" y2="591"/><text fill="#000000" font-family="sans-serif" font-size="14" lengthAdjust="spacing" textLength="28" x="917" y="610.1074">date</text><text fill="#000000" font-family="sans-serif" font-size="14" lengthAdjust="spacing" textLength="104" x="917" y="628.7285">associatedTeam</text><text fill="#000000" font-family="sans-serif" font-size="14" lengthAdjust="spacing" textLength="121" x="917" y="647.3496">associatedVehicles</text><line style="stroke:#181818;stroke-width:0.5;" x1="912" x2="1095" y1="654.8633" y2="654.8633"/><text fill="#000000" font-family="sans-serif" font-size="14" lengthAdjust="spacing" textLength="173" x="917" y="673.9707">+setAssociatedTeam(team)</text></g><!--class AgendaEntryDTO--><g id="elem_AgendaEntryDTO"><rect codeLine="16" fill="#F1F1F1" height="196.9688" id="AgendaEntryDTO" rx="2.5" ry="2.5" style="stroke:#181818;stroke-width:0.5;" width="144" x="684.5" y="7"/><ellipse cx="699.5" cy="23" fill="#ADD1B2" rx="11" ry="11" style="stroke:#181818;stroke-width:1.0;"/><path d="M702.2656,18.875 Q702.4219,18.6563 702.6094,18.5469 Q702.7969,18.4375 703.0156,18.4375 Q703.3906,18.4375 703.625,18.7031 Q703.8594,18.9531 703.8594,19.5625 L703.8594,21.0156 Q703.8594,21.625 703.625,21.8906 Q703.3906,22.1563 703.0156,22.1563 Q702.6719,22.1563 702.4688,21.9531 Q702.2656,21.7656 702.1563,21.25 Q702.1094,20.8906 701.9219,20.7031 Q701.5938,20.3281 700.9844,20.1094 Q700.375,19.8906 699.75,19.8906 Q698.9844,19.8906 698.3438,20.2188 Q697.7188,20.5469 697.2188,21.2969 Q696.7344,22.0469 696.7344,23.0781 L696.7344,24.1719 Q696.7344,25.4063 697.625,26.2344 Q698.5156,27.0469 700.1094,27.0469 Q701.0469,27.0469 701.7031,26.7969 Q702.0938,26.6406 702.5156,26.2031 Q702.7813,25.9375 702.9219,25.8594 Q703.0781,25.7813 703.2813,25.7813 Q703.6094,25.7813 703.8594,26.0469 Q704.125,26.2969 704.125,26.6406 Q704.125,26.9844 703.7813,27.3906 Q703.2813,27.9688 702.4844,28.2969 Q701.4063,28.75 700.1094,28.75 Q698.5938,28.75 697.3906,28.125 Q696.4063,27.625 695.7188,26.5625 Q695.0313,25.4844 695.0313,24.2031 L695.0313,23.0469 Q695.0313,21.7188 695.6406,20.5781 Q696.2656,19.4219 697.3594,18.8125 Q698.4531,18.1875 699.6875,18.1875 Q700.4219,18.1875 701.0625,18.3594 Q701.7188,18.5156 702.2656,18.875 Z " fill="#000000"/><text fill="#000000" font-family="sans-serif" font-size="14" lengthAdjust="spacing" textLength="112" x="713.5" y="28.7969">AgendaEntryDTO</text><line style="stroke:#181818;stroke-width:0.5;" x1="685.5" x2="827.5" y1="39" y2="39"/><text fill="#000000" font-family="sans-serif" font-size="14" lengthAdjust="spacing" textLength="28" x="690.5" y="58.1074">date</text><text fill="#000000" font-family="sans-serif" font-size="14" lengthAdjust="spacing" textLength="77" x="690.5" y="76.7285">greenSpace</text><text fill="#000000" font-family="sans-serif" font-size="14" lengthAdjust="spacing" textLength="69" x="690.5" y="95.3496">description</text><text fill="#000000" font-family="sans-serif" font-size="14" lengthAdjust="spacing" textLength="111" x="690.5" y="113.9707">expectedDuration</text><text fill="#000000" font-family="sans-serif" font-size="14" lengthAdjust="spacing" textLength="98" x="690.5" y="132.5918">urgencyDegree</text><text fill="#000000" font-family="sans-serif" font-size="14" lengthAdjust="spacing" textLength="72" x="690.5" y="151.2129">entryStatus</text><text fill="#000000" font-family="sans-serif" font-size="14" lengthAdjust="spacing" textLength="104" x="690.5" y="169.834">associatedTeam</text><text fill="#000000" font-family="sans-serif" font-size="14" lengthAdjust="spacing" textLength="121" x="690.5" y="188.4551">associatedVehicles</text><line style="stroke:#181818;stroke-width:0.5;" x1="685.5" x2="827.5" y1="195.9688" y2="195.9688"/></g><!--class SystemUser--><g id="elem_SystemUser"><rect codeLine="29" fill="#F1F1F1" height="122.4844" id="SystemUser" rx="2.5" ry="2.5" style="stroke:#181818;stroke-width:0.5;" width="107" x="7" y="44.5"/><ellipse cx="22" cy="60.5" fill="#ADD1B2" rx="11" ry="11" style="stroke:#181818;stroke-width:1.0;"/><path d="M24.7656,56.375 Q24.9219,56.1563 25.1094,56.0469 Q25.2969,55.9375 25.5156,55.9375 Q25.8906,55.9375 26.125,56.2031 Q26.3594,56.4531 26.3594,57.0625 L26.3594,58.5156 Q26.3594,59.125 26.125,59.3906 Q25.8906,59.6563 25.5156,59.6563 Q25.1719,59.6563 24.9688,59.4531 Q24.7656,59.2656 24.6563,58.75 Q24.6094,58.3906 24.4219,58.2031 Q24.0938,57.8281 23.4844,57.6094 Q22.875,57.3906 22.25,57.3906 Q21.4844,57.3906 20.8438,57.7188 Q20.2188,58.0469 19.7188,58.7969 Q19.2344,59.5469 19.2344,60.5781 L19.2344,61.6719 Q19.2344,62.9063 20.125,63.7344 Q21.0156,64.5469 22.6094,64.5469 Q23.5469,64.5469 24.2031,64.2969 Q24.5938,64.1406 25.0156,63.7031 Q25.2813,63.4375 25.4219,63.3594 Q25.5781,63.2813 25.7813,63.2813 Q26.1094,63.2813 26.3594,63.5469 Q26.625,63.7969 26.625,64.1406 Q26.625,64.4844 26.2813,64.8906 Q25.7813,65.4688 24.9844,65.7969 Q23.9063,66.25 22.6094,66.25 Q21.0938,66.25 19.8906,65.625 Q18.9063,65.125 18.2188,64.0625 Q17.5313,62.9844 17.5313,61.7031 L17.5313,60.5469 Q17.5313,59.2188 18.1406,58.0781 Q18.7656,56.9219 19.8594,56.3125 Q20.9531,55.6875 22.1875,55.6875 Q22.9219,55.6875 23.5625,55.8594 Q24.2188,56.0156 24.7656,56.375 Z " fill="#000000"/><text fill="#000000" font-family="sans-serif" font-size="14" lengthAdjust="spacing" textLength="75" x="36" y="66.2969">SystemUser</text><line style="stroke:#181818;stroke-width:0.5;" x1="8" x2="113" y1="76.5" y2="76.5"/><text fill="#000000" font-family="sans-serif" font-size="14" lengthAdjust="spacing" textLength="35" x="13" y="95.6074">name</text><text fill="#000000" font-family="sans-serif" font-size="14" lengthAdjust="spacing" textLength="33" x="13" y="114.2285">email</text><text fill="#000000" font-family="sans-serif" font-size="14" lengthAdjust="spacing" textLength="60" x="13" y="132.8496">password</text><text fill="#000000" font-family="sans-serif" font-size="14" lengthAdjust="spacing" textLength="40" x="13" y="151.4707">phone</text><line style="stroke:#181818;stroke-width:0.5;" x1="8" x2="113" y1="158.9844" y2="158.9844"/></g><!--class AgendaEntryRepository--><g id="elem_AgendaEntryRepository"><rect codeLine="37" fill="#F1F1F1" height="122.4844" id="AgendaEntryRepository" rx="2.5" ry="2.5" style="stroke:#181818;stroke-width:0.5;" width="534" x="342.5" y="779"/><ellipse cx="530.25" cy="795" fill="#ADD1B2" rx="11" ry="11" style="stroke:#181818;stroke-width:1.0;"/><path d="M533.0156,790.875 Q533.1719,790.6563 533.3594,790.5469 Q533.5469,790.4375 533.7656,790.4375 Q534.1406,790.4375 534.375,790.7031 Q534.6094,790.9531 534.6094,791.5625 L534.6094,793.0156 Q534.6094,793.625 534.375,793.8906 Q534.1406,794.1563 533.7656,794.1563 Q533.4219,794.1563 533.2188,793.9531 Q533.0156,793.7656 532.9063,793.25 Q532.8594,792.8906 532.6719,792.7031 Q532.3438,792.3281 531.7344,792.1094 Q531.125,791.8906 530.5,791.8906 Q529.7344,791.8906 529.0938,792.2188 Q528.4688,792.5469 527.9688,793.2969 Q527.4844,794.0469 527.4844,795.0781 L527.4844,796.1719 Q527.4844,797.4063 528.375,798.2344 Q529.2656,799.0469 530.8594,799.0469 Q531.7969,799.0469 532.4531,798.7969 Q532.8438,798.6406 533.2656,798.2031 Q533.5313,797.9375 533.6719,797.8594 Q533.8281,797.7813 534.0313,797.7813 Q534.3594,797.7813 534.6094,798.0469 Q534.875,798.2969 534.875,798.6406 Q534.875,798.9844 534.5313,799.3906 Q534.0313,799.9688 533.2344,800.2969 Q532.1563,800.75 530.8594,800.75 Q529.3438,800.75 528.1406,800.125 Q527.1563,799.625 526.4688,798.5625 Q525.7813,797.4844 525.7813,796.2031 L525.7813,795.0469 Q525.7813,793.7188 526.3906,792.5781 Q527.0156,791.4219 528.1094,790.8125 Q529.2031,790.1875 530.4375,790.1875 Q531.1719,790.1875 531.8125,790.3594 Q532.4688,790.5156 533.0156,790.875 Z " fill="#000000"/><text fill="#000000" font-family="sans-serif" font-size="14" lengthAdjust="spacing" textLength="150" x="550.75" y="800.7969">AgendaEntryRepository</text><line style="stroke:#181818;stroke-width:0.5;" x1="343.5" x2="875.5" y1="811" y2="811"/><text fill="#000000" font-family="sans-serif" font-size="14" lengthAdjust="spacing" textLength="255" x="348.5" y="830.1074">-ArrayList&lt;AgendaEntry&gt; agendaEntries</text><line style="stroke:#181818;stroke-width:0.5;" x1="343.5" x2="875.5" y1="837.6211" y2="837.6211"/><text fill="#000000" font-family="sans-serif" font-size="14" lengthAdjust="spacing" textLength="522" x="348.5" y="856.7285">+getAgendaEntryListWithoutTeam(authenticationController.getCurrentUserEmail())</text><text fill="#000000" font-family="sans-serif" font-size="14" lengthAdjust="spacing" textLength="274" x="348.5" y="875.3496">+getAgendaEntry(description, greenSpace)</text><text fill="#000000" font-family="sans-serif" font-size="14" lengthAdjust="spacing" textLength="350" x="348.5" y="893.9707">+getTeamByCollaborators(teamDTO.getCollaborators()</text></g><!--class Repositories--><g id="elem_Repositories"><rect codeLine="44" fill="#F1F1F1" height="159.7266" id="Repositories" rx="2.5" ry="2.5" style="stroke:#181818;stroke-width:0.5;" width="200" x="509.5" y="540"/><ellipse cx="565.75" cy="556" fill="#ADD1B2" rx="11" ry="11" style="stroke:#181818;stroke-width:1.0;"/><path d="M568.5156,551.875 Q568.6719,551.6563 568.8594,551.5469 Q569.0469,551.4375 569.2656,551.4375 Q569.6406,551.4375 569.875,551.7031 Q570.1094,551.9531 570.1094,552.5625 L570.1094,554.0156 Q570.1094,554.625 569.875,554.8906 Q569.6406,555.1563 569.2656,555.1563 Q568.9219,555.1563 568.7188,554.9531 Q568.5156,554.7656 568.4063,554.25 Q568.3594,553.8906 568.1719,553.7031 Q567.8438,553.3281 567.2344,553.1094 Q566.625,552.8906 566,552.8906 Q565.2344,552.8906 564.5938,553.2188 Q563.9688,553.5469 563.4688,554.2969 Q562.9844,555.0469 562.9844,556.0781 L562.9844,557.1719 Q562.9844,558.4063 563.875,559.2344 Q564.7656,560.0469 566.3594,560.0469 Q567.2969,560.0469 567.9531,559.7969 Q568.3438,559.6406 568.7656,559.2031 Q569.0313,558.9375 569.1719,558.8594 Q569.3281,558.7813 569.5313,558.7813 Q569.8594,558.7813 570.1094,559.0469 Q570.375,559.2969 570.375,559.6406 Q570.375,559.9844 570.0313,560.3906 Q569.5313,560.9688 568.7344,561.2969 Q567.6563,561.75 566.3594,561.75 Q564.8438,561.75 563.6406,561.125 Q562.6563,560.625 561.9688,559.5625 Q561.2813,558.4844 561.2813,557.2031 L561.2813,556.0469 Q561.2813,554.7188 561.8906,553.5781 Q562.5156,552.4219 563.6094,551.8125 Q564.7031,551.1875 565.9375,551.1875 Q566.6719,551.1875 567.3125,551.3594 Q567.9688,551.5156 568.5156,551.875 Z " fill="#000000"/><text fill="#000000" font-family="sans-serif" font-size="14" lengthAdjust="spacing" textLength="79" x="586.25" y="561.7969">Repositories</text><line style="stroke:#181818;stroke-width:0.5;" x1="510.5" x2="708.5" y1="572" y2="572"/><text fill="#000000" font-family="sans-serif" font-size="14" lengthAdjust="spacing" textLength="154" x="515.5" y="591.1074">-agendaEntryRepository</text><text fill="#000000" font-family="sans-serif" font-size="14" lengthAdjust="spacing" textLength="104" x="515.5" y="609.7285">-teamRepository</text><line style="stroke:#181818;stroke-width:0.5;" x1="510.5" x2="708.5" y1="617.2422" y2="617.2422"/><text fill="#000000" font-family="sans-serif" font-size="14" lengthAdjust="spacing" textLength="94" x="515.5" y="636.3496">-Repositories()</text><text fill="#000000" font-family="sans-serif" font-size="14" lengthAdjust="spacing" textLength="91" x="515.5" y="654.9707">+getInstance()</text><text fill="#000000" font-family="sans-serif" font-size="14" lengthAdjust="spacing" textLength="188" x="515.5" y="673.5918">+getAgendaEntryRepository()</text><text fill="#000000" font-family="sans-serif" font-size="14" lengthAdjust="spacing" textLength="142" x="515.5" y="692.2129">+getTeamRepository()</text></g><!--class AgendaEntryMapper--><g id="elem_AgendaEntryMapper"><rect codeLine="55" fill="#F1F1F1" height="66.6211" id="AgendaEntryMapper" rx="2.5" ry="2.5" style="stroke:#181818;stroke-width:0.5;" width="189" x="662" y="338.5"/><ellipse cx="689.15" cy="354.5" fill="#ADD1B2" rx="11" ry="11" style="stroke:#181818;stroke-width:1.0;"/><path d="M691.9156,350.375 Q692.0719,350.1563 692.2594,350.0469 Q692.4469,349.9375 692.6656,349.9375 Q693.0406,349.9375 693.275,350.2031 Q693.5094,350.4531 693.5094,351.0625 L693.5094,352.5156 Q693.5094,353.125 693.275,353.3906 Q693.0406,353.6563 692.6656,353.6563 Q692.3219,353.6563 692.1188,353.4531 Q691.9156,353.2656 691.8063,352.75 Q691.7594,352.3906 691.5719,352.2031 Q691.2438,351.8281 690.6344,351.6094 Q690.025,351.3906 689.4,351.3906 Q688.6344,351.3906 687.9938,351.7188 Q687.3688,352.0469 686.8688,352.7969 Q686.3844,353.5469 686.3844,354.5781 L686.3844,355.6719 Q686.3844,356.9063 687.275,357.7344 Q688.1656,358.5469 689.7594,358.5469 Q690.6969,358.5469 691.3531,358.2969 Q691.7438,358.1406 692.1656,357.7031 Q692.4313,357.4375 692.5719,357.3594 Q692.7281,357.2813 692.9313,357.2813 Q693.2594,357.2813 693.5094,357.5469 Q693.775,357.7969 693.775,358.1406 Q693.775,358.4844 693.4313,358.8906 Q692.9313,359.4688 692.1344,359.7969 Q691.0563,360.25 689.7594,360.25 Q688.2438,360.25 687.0406,359.625 Q686.0563,359.125 685.3688,358.0625 Q684.6813,356.9844 684.6813,355.7031 L684.6813,354.5469 Q684.6813,353.2188 685.2906,352.0781 Q685.9156,350.9219 687.0094,350.3125 Q688.1031,349.6875 689.3375,349.6875 Q690.0719,349.6875 690.7125,349.8594 Q691.3688,350.0156 691.9156,350.375 Z " fill="#000000"/><text fill="#000000" font-family="sans-serif" font-size="14" lengthAdjust="spacing" textLength="130" x="705.85" y="360.2969">AgendaEntryMapper</text><line style="stroke:#181818;stroke-width:0.5;" x1="663" x2="850" y1="370.5" y2="370.5"/><line style="stroke:#181818;stroke-width:0.5;" x1="663" x2="850" y1="378.5" y2="378.5"/><text fill="#000000" font-family="sans-serif" font-size="14" lengthAdjust="spacing" textLength="177" x="668" y="397.6074">+toDtoList(agendaEntryList)</text></g><!--class TeamToAgendaEntryController--><g id="elem_TeamToAgendaEntryController"><rect codeLine="61" fill="#F1F1F1" height="178.3477" id="TeamToAgendaEntryController" rx="2.5" ry="2.5" style="stroke:#181818;stroke-width:0.5;" width="364" x="262.5" y="283"/><ellipse cx="341.75" cy="299" fill="#ADD1B2" rx="11" ry="11" style="stroke:#181818;stroke-width:1.0;"/><path d="M344.5156,294.875 Q344.6719,294.6563 344.8594,294.5469 Q345.0469,294.4375 345.2656,294.4375 Q345.6406,294.4375 345.875,294.7031 Q346.1094,294.9531 346.1094,295.5625 L346.1094,297.0156 Q346.1094,297.625 345.875,297.8906 Q345.6406,298.1563 345.2656,298.1563 Q344.9219,298.1563 344.7188,297.9531 Q344.5156,297.7656 344.4063,297.25 Q344.3594,296.8906 344.1719,296.7031 Q343.8438,296.3281 343.2344,296.1094 Q342.625,295.8906 342,295.8906 Q341.2344,295.8906 340.5938,296.2188 Q339.9688,296.5469 339.4688,297.2969 Q338.9844,298.0469 338.9844,299.0781 L338.9844,300.1719 Q338.9844,301.4063 339.875,302.2344 Q340.7656,303.0469 342.3594,303.0469 Q343.2969,303.0469 343.9531,302.7969 Q344.3438,302.6406 344.7656,302.2031 Q345.0313,301.9375 345.1719,301.8594 Q345.3281,301.7813 345.5313,301.7813 Q345.8594,301.7813 346.1094,302.0469 Q346.375,302.2969 346.375,302.6406 Q346.375,302.9844 346.0313,303.3906 Q345.5313,303.9688 344.7344,304.2969 Q343.6563,304.75 342.3594,304.75 Q340.8438,304.75 339.6406,304.125 Q338.6563,303.625 337.9688,302.5625 Q337.2813,301.4844 337.2813,300.2031 L337.2813,299.0469 Q337.2813,297.7188 337.8906,296.5781 Q338.5156,295.4219 339.6094,294.8125 Q340.7031,294.1875 341.9375,294.1875 Q342.6719,294.1875 343.3125,294.3594 Q343.9688,294.5156 344.5156,294.875 Z " fill="#000000"/><text fill="#000000" font-family="sans-serif" font-size="14" lengthAdjust="spacing" textLength="197" x="362.25" y="304.7969">TeamToAgendaEntryController</text><line style="stroke:#181818;stroke-width:0.5;" x1="263.5" x2="625.5" y1="315" y2="315"/><text fill="#000000" font-family="sans-serif" font-size="14" lengthAdjust="spacing" textLength="308" x="268.5" y="334.1074">-AgendaEntryRepository agendaEntryRepository</text><text fill="#000000" font-family="sans-serif" font-size="14" lengthAdjust="spacing" textLength="268" x="268.5" y="352.7285">-AgendaEntryMapper agendaEntryMapper</text><text fill="#000000" font-family="sans-serif" font-size="14" lengthAdjust="spacing" textLength="170" x="268.5" y="371.3496">-EmailService emailService</text><line style="stroke:#181818;stroke-width:0.5;" x1="263.5" x2="625.5" y1="378.8633" y2="378.8633"/><text fill="#000000" font-family="sans-serif" font-size="14" lengthAdjust="spacing" textLength="245" x="268.5" y="397.9707">+getAgendaEntriesDTOWithoutTeam()</text><text fill="#000000" font-family="sans-serif" font-size="14" lengthAdjust="spacing" textLength="180" x="268.5" y="416.5918">+showAvailableTeamsDTO()</text><text fill="#000000" font-family="sans-serif" font-size="14" lengthAdjust="spacing" textLength="352" x="268.5" y="435.2129">+assignTeamToAgendaEntry(selectedEntry, teamEntry)</text><text fill="#000000" font-family="sans-serif" font-size="14" lengthAdjust="spacing" textLength="325" x="268.5" y="453.834">+sendNotificationEmails(entry.getAssociatedTeam()</text></g><!--class AgendaUI--><g id="elem_AgendaUI"><rect codeLine="72" fill="#F1F1F1" height="48" id="AgendaUI" rx="2.5" ry="2.5" style="stroke:#181818;stroke-width:0.5;" width="93" x="134" y="348"/><ellipse cx="149" cy="364" fill="#ADD1B2" rx="11" ry="11" style="stroke:#181818;stroke-width:1.0;"/><path d="M151.7656,359.875 Q151.9219,359.6563 152.1094,359.5469 Q152.2969,359.4375 152.5156,359.4375 Q152.8906,359.4375 153.125,359.7031 Q153.3594,359.9531 153.3594,360.5625 L153.3594,362.0156 Q153.3594,362.625 153.125,362.8906 Q152.8906,363.1563 152.5156,363.1563 Q152.1719,363.1563 151.9688,362.9531 Q151.7656,362.7656 151.6563,362.25 Q151.6094,361.8906 151.4219,361.7031 Q151.0938,361.3281 150.4844,361.1094 Q149.875,360.8906 149.25,360.8906 Q148.4844,360.8906 147.8438,361.2188 Q147.2188,361.5469 146.7188,362.2969 Q146.2344,363.0469 146.2344,364.0781 L146.2344,365.1719 Q146.2344,366.4063 147.125,367.2344 Q148.0156,368.0469 149.6094,368.0469 Q150.5469,368.0469 151.2031,367.7969 Q151.5938,367.6406 152.0156,367.2031 Q152.2813,366.9375 152.4219,366.8594 Q152.5781,366.7813 152.7813,366.7813 Q153.1094,366.7813 153.3594,367.0469 Q153.625,367.2969 153.625,367.6406 Q153.625,367.9844 153.2813,368.3906 Q152.7813,368.9688 151.9844,369.2969 Q150.9063,369.75 149.6094,369.75 Q148.0938,369.75 146.8906,369.125 Q145.9063,368.625 145.2188,367.5625 Q144.5313,366.4844 144.5313,365.2031 L144.5313,364.0469 Q144.5313,362.7188 145.1406,361.5781 Q145.7656,360.4219 146.8594,359.8125 Q147.9531,359.1875 149.1875,359.1875 Q149.9219,359.1875 150.5625,359.3594 Q151.2188,359.5156 151.7656,359.875 Z " fill="#000000"/><text fill="#000000" font-family="sans-serif" font-size="14" lengthAdjust="spacing" textLength="61" x="163" y="369.7969">AgendaUI</text><line style="stroke:#181818;stroke-width:0.5;" x1="135" x2="226" y1="380" y2="380"/><line style="stroke:#181818;stroke-width:0.5;" x1="135" x2="226" y1="388" y2="388"/></g><!--class Team--><g id="elem_Team"><rect codeLine="76" fill="#F1F1F1" height="85.2422" id="Team" rx="2.5" ry="2.5" style="stroke:#181818;stroke-width:0.5;" width="96" x="955.5" y="797.5"/><ellipse cx="983.1" cy="813.5" fill="#ADD1B2" rx="11" ry="11" style="stroke:#181818;stroke-width:1.0;"/><path d="M985.8656,809.375 Q986.0219,809.1563 986.2094,809.0469 Q986.3969,808.9375 986.6156,808.9375 Q986.9906,808.9375 987.225,809.2031 Q987.4594,809.4531 987.4594,810.0625 L987.4594,811.5156 Q987.4594,812.125 987.225,812.3906 Q986.9906,812.6563 986.6156,812.6563 Q986.2719,812.6563 986.0688,812.4531 Q985.8656,812.2656 985.7563,811.75 Q985.7094,811.3906 985.5219,811.2031 Q985.1938,810.8281 984.5844,810.6094 Q983.975,810.3906 983.35,810.3906 Q982.5844,810.3906 981.9438,810.7188 Q981.3188,811.0469 980.8188,811.7969 Q980.3344,812.5469 980.3344,813.5781 L980.3344,814.6719 Q980.3344,815.9063 981.225,816.7344 Q982.1156,817.5469 983.7094,817.5469 Q984.6469,817.5469 985.3031,817.2969 Q985.6938,817.1406 986.1156,816.7031 Q986.3813,816.4375 986.5219,816.3594 Q986.6781,816.2813 986.8813,816.2813 Q987.2094,816.2813 987.4594,816.5469 Q987.725,816.7969 987.725,817.1406 Q987.725,817.4844 987.3813,817.8906 Q986.8813,818.4688 986.0844,818.7969 Q985.0063,819.25 983.7094,819.25 Q982.1938,819.25 980.9906,818.625 Q980.0063,818.125 979.3188,817.0625 Q978.6313,815.9844 978.6313,814.7031 L978.6313,813.5469 Q978.6313,812.2188 979.2406,811.0781 Q979.8656,809.9219 980.9594,809.3125 Q982.0531,808.6875 983.2875,808.6875 Q984.0219,808.6875 984.6625,808.8594 Q985.3188,809.0156 985.8656,809.375 Z " fill="#000000"/><text fill="#000000" font-family="sans-serif" font-size="14" lengthAdjust="spacing" textLength="36" x="999.9" y="819.2969">Team</text><line style="stroke:#181818;stroke-width:0.5;" x1="956.5" x2="1050.5" y1="829.5" y2="829.5"/><text fill="#000000" font-family="sans-serif" font-size="14" lengthAdjust="spacing" textLength="84" x="961.5" y="848.6074">maximumSize</text><text fill="#000000" font-family="sans-serif" font-size="14" lengthAdjust="spacing" textLength="81" x="961.5" y="867.2285">minimumSize</text><line style="stroke:#181818;stroke-width:0.5;" x1="956.5" x2="1050.5" y1="874.7422" y2="874.7422"/></g><!--class TeamRepository--><g id="elem_TeamRepository"><rect codeLine="82" fill="#F1F1F1" height="103.8633" id="TeamRepository" rx="2.5" ry="2.5" style="stroke:#181818;stroke-width:0.5;" width="362" x="822.5" y="980"/><ellipse cx="947.25" cy="996" fill="#ADD1B2" rx="11" ry="11" style="stroke:#181818;stroke-width:1.0;"/><path d="M950.0156,991.875 Q950.1719,991.6563 950.3594,991.5469 Q950.5469,991.4375 950.7656,991.4375 Q951.1406,991.4375 951.375,991.7031 Q951.6094,991.9531 951.6094,992.5625 L951.6094,994.0156 Q951.6094,994.625 951.375,994.8906 Q951.1406,995.1563 950.7656,995.1563 Q950.4219,995.1563 950.2188,994.9531 Q950.0156,994.7656 949.9063,994.25 Q949.8594,993.8906 949.6719,993.7031 Q949.3438,993.3281 948.7344,993.1094 Q948.125,992.8906 947.5,992.8906 Q946.7344,992.8906 946.0938,993.2188 Q945.4688,993.5469 944.9688,994.2969 Q944.4844,995.0469 944.4844,996.0781 L944.4844,997.1719 Q944.4844,998.4063 945.375,999.2344 Q946.2656,1000.0469 947.8594,1000.0469 Q948.7969,1000.0469 949.4531,999.7969 Q949.8438,999.6406 950.2656,999.2031 Q950.5313,998.9375 950.6719,998.8594 Q950.8281,998.7813 951.0313,998.7813 Q951.3594,998.7813 951.6094,999.0469 Q951.875,999.2969 951.875,999.6406 Q951.875,999.9844 951.5313,1000.3906 Q951.0313,1000.9688 950.2344,1001.2969 Q949.1563,1001.75 947.8594,1001.75 Q946.3438,1001.75 945.1406,1001.125 Q944.1563,1000.625 943.4688,999.5625 Q942.7813,998.4844 942.7813,997.2031 L942.7813,996.0469 Q942.7813,994.7188 943.3906,993.5781 Q944.0156,992.4219 945.1094,991.8125 Q946.2031,991.1875 947.4375,991.1875 Q948.1719,991.1875 948.8125,991.3594 Q949.4688,991.5156 950.0156,991.875 Z " fill="#000000"/><text fill="#000000" font-family="sans-serif" font-size="14" lengthAdjust="spacing" textLength="104" x="967.75" y="1001.7969">TeamRepository</text><line style="stroke:#181818;stroke-width:0.5;" x1="823.5" x2="1183.5" y1="1012" y2="1012"/><text fill="#000000" font-family="sans-serif" font-size="14" lengthAdjust="spacing" textLength="150" x="828.5" y="1031.1074">ArrayList&lt;Team&gt; teams</text><line style="stroke:#181818;stroke-width:0.5;" x1="823.5" x2="1183.5" y1="1038.6211" y2="1038.6211"/><text fill="#000000" font-family="sans-serif" font-size="14" lengthAdjust="spacing" textLength="81" x="828.5" y="1057.7285">+getTeams()</text><text fill="#000000" font-family="sans-serif" font-size="14" lengthAdjust="spacing" textLength="350" x="828.5" y="1076.3496">+getTeamByCollaborators(teamDTO.getCollaborators()</text></g><!--class TeamMapper--><g id="elem_TeamMapper"><rect codeLine="89" fill="#F1F1F1" height="85.2422" id="TeamMapper" rx="2.5" ry="2.5" style="stroke:#181818;stroke-width:0.5;" width="236" x="886.5" y="329.5"/><ellipse cx="958.25" cy="345.5" fill="#ADD1B2" rx="11" ry="11" style="stroke:#181818;stroke-width:1.0;"/><path d="M961.0156,341.375 Q961.1719,341.1563 961.3594,341.0469 Q961.5469,340.9375 961.7656,340.9375 Q962.1406,340.9375 962.375,341.2031 Q962.6094,341.4531 962.6094,342.0625 L962.6094,343.5156 Q962.6094,344.125 962.375,344.3906 Q962.1406,344.6563 961.7656,344.6563 Q961.4219,344.6563 961.2188,344.4531 Q961.0156,344.2656 960.9063,343.75 Q960.8594,343.3906 960.6719,343.2031 Q960.3438,342.8281 959.7344,342.6094 Q959.125,342.3906 958.5,342.3906 Q957.7344,342.3906 957.0938,342.7188 Q956.4688,343.0469 955.9688,343.7969 Q955.4844,344.5469 955.4844,345.5781 L955.4844,346.6719 Q955.4844,347.9063 956.375,348.7344 Q957.2656,349.5469 958.8594,349.5469 Q959.7969,349.5469 960.4531,349.2969 Q960.8438,349.1406 961.2656,348.7031 Q961.5313,348.4375 961.6719,348.3594 Q961.8281,348.2813 962.0313,348.2813 Q962.3594,348.2813 962.6094,348.5469 Q962.875,348.7969 962.875,349.1406 Q962.875,349.4844 962.5313,349.8906 Q962.0313,350.4688 961.2344,350.7969 Q960.1563,351.25 958.8594,351.25 Q957.3438,351.25 956.1406,350.625 Q955.1563,350.125 954.4688,349.0625 Q953.7813,347.9844 953.7813,346.7031 L953.7813,345.5469 Q953.7813,344.2188 954.3906,343.0781 Q955.0156,341.9219 956.1094,341.3125 Q957.2031,340.6875 958.4375,340.6875 Q959.1719,340.6875 959.8125,340.8594 Q960.4688,341.0156 961.0156,341.375 Z " fill="#000000"/><text fill="#000000" font-family="sans-serif" font-size="14" lengthAdjust="spacing" textLength="84" x="978.75" y="351.2969">TeamMapper</text><line style="stroke:#181818;stroke-width:0.5;" x1="887.5" x2="1121.5" y1="361.5" y2="361.5"/><line style="stroke:#181818;stroke-width:0.5;" x1="887.5" x2="1121.5" y1="369.5" y2="369.5"/><text fill="#000000" font-family="sans-serif" font-size="14" lengthAdjust="spacing" textLength="224" x="892.5" y="388.6074">+toDtoList(ArrayList&lt;Team&gt; teams)</text><text fill="#000000" font-family="sans-serif" font-size="14" lengthAdjust="spacing" textLength="127" x="892.5" y="407.2285">+toDtoList(teamList)</text></g><!--class TeamDTO--><g id="elem_TeamDTO"><rect codeLine="95" fill="#F1F1F1" height="66.6211" id="TeamDTO" rx="2.5" ry="2.5" style="stroke:#181818;stroke-width:0.5;" width="162" x="923.5" y="72"/><ellipse cx="967.3" cy="88" fill="#ADD1B2" rx="11" ry="11" style="stroke:#181818;stroke-width:1.0;"/><path d="M970.0656,83.875 Q970.2219,83.6563 970.4094,83.5469 Q970.5969,83.4375 970.8156,83.4375 Q971.1906,83.4375 971.425,83.7031 Q971.6594,83.9531 971.6594,84.5625 L971.6594,86.0156 Q971.6594,86.625 971.425,86.8906 Q971.1906,87.1563 970.8156,87.1563 Q970.4719,87.1563 970.2688,86.9531 Q970.0656,86.7656 969.9563,86.25 Q969.9094,85.8906 969.7219,85.7031 Q969.3938,85.3281 968.7844,85.1094 Q968.175,84.8906 967.55,84.8906 Q966.7844,84.8906 966.1438,85.2188 Q965.5188,85.5469 965.0188,86.2969 Q964.5344,87.0469 964.5344,88.0781 L964.5344,89.1719 Q964.5344,90.4063 965.425,91.2344 Q966.3156,92.0469 967.9094,92.0469 Q968.8469,92.0469 969.5031,91.7969 Q969.8938,91.6406 970.3156,91.2031 Q970.5813,90.9375 970.7219,90.8594 Q970.8781,90.7813 971.0813,90.7813 Q971.4094,90.7813 971.6594,91.0469 Q971.925,91.2969 971.925,91.6406 Q971.925,91.9844 971.5813,92.3906 Q971.0813,92.9688 970.2844,93.2969 Q969.2063,93.75 967.9094,93.75 Q966.3938,93.75 965.1906,93.125 Q964.2063,92.625 963.5188,91.5625 Q962.8313,90.4844 962.8313,89.2031 L962.8313,88.0469 Q962.8313,86.7188 963.4406,85.5781 Q964.0656,84.4219 965.1594,83.8125 Q966.2531,83.1875 967.4875,83.1875 Q968.2219,83.1875 968.8625,83.3594 Q969.5188,83.5156 970.0656,83.875 Z " fill="#000000"/><text fill="#000000" font-family="sans-serif" font-size="14" lengthAdjust="spacing" textLength="66" x="987.7" y="93.7969">TeamDTO</text><line style="stroke:#181818;stroke-width:0.5;" x1="924.5" x2="1084.5" y1="104" y2="104"/><text fill="#000000" font-family="sans-serif" font-size="14" lengthAdjust="spacing" textLength="150" x="929.5" y="123.1074">ArrayList&lt;Team&gt; teams</text><line style="stroke:#181818;stroke-width:0.5;" x1="924.5" x2="1084.5" y1="130.6211" y2="130.6211"/></g><!--class EmailService--><g id="elem_EmailService"><rect codeLine="99" fill="#F1F1F1" height="66.6211" id="EmailService" rx="2.5" ry="2.5" style="stroke:#181818;stroke-width:0.5;" width="146" x="1356.5" y="338.5"/><ellipse cx="1386.8" cy="354.5" fill="#B4A7E5" rx="11" ry="11" style="stroke:#181818;stroke-width:1.0;"/><path d="M1387.7531,351.1406 L1387.7531,357.7969 L1389.4719,357.7969 Q1390.0813,357.7969 1390.3469,358.0313 Q1390.6125,358.2656 1390.6125,358.6563 Q1390.6125,359.0313 1390.3469,359.2656 Q1390.0813,359.5 1389.4719,359.5 L1384.3313,359.5 Q1383.7219,359.5 1383.4563,359.2656 Q1383.1906,359.0313 1383.1906,358.6406 Q1383.1906,358.2656 1383.4563,358.0313 Q1383.7219,357.7969 1384.3313,357.7969 L1386.05,357.7969 L1386.05,351.1406 L1384.3313,351.1406 Q1383.7219,351.1406 1383.4563,350.9063 Q1383.1906,350.6719 1383.1906,350.2813 Q1383.1906,349.9063 1383.4563,349.6719 Q1383.7219,349.4375 1384.3313,349.4375 L1389.4719,349.4375 Q1390.0813,349.4375 1390.3469,349.6719 Q1390.6125,349.9063 1390.6125,350.2813 Q1390.6125,350.6719 1390.3469,350.9063 Q1390.0813,351.1406 1389.4719,351.1406 L1387.7531,351.1406 Z " fill="#000000"/><text fill="#000000" font-family="sans-serif" font-size="14" font-style="italic" lengthAdjust="spacing" textLength="80" x="1404.2" y="360.2969">EmailService</text><line style="stroke:#181818;stroke-width:0.5;" x1="1357.5" x2="1501.5" y1="370.5" y2="370.5"/><line style="stroke:#181818;stroke-width:0.5;" x1="1357.5" x2="1501.5" y1="378.5" y2="378.5"/><text fill="#000000" font-family="sans-serif" font-size="14" lengthAdjust="spacing" textLength="134" x="1362.5" y="397.6074">+sendEmail(to, body)</text></g><!--class DeiService--><g id="elem_DeiService"><rect codeLine="103" fill="#F1F1F1" height="66.6211" id="DeiService" rx="2.5" ry="2.5" style="stroke:#181818;stroke-width:0.5;" width="146" x="1175.5" y="586.5"/><ellipse cx="1211.2" cy="602.5" fill="#ADD1B2" rx="11" ry="11" style="stroke:#181818;stroke-width:1.0;"/><path d="M1213.9656,598.375 Q1214.1219,598.1563 1214.3094,598.0469 Q1214.4969,597.9375 1214.7156,597.9375 Q1215.0906,597.9375 1215.325,598.2031 Q1215.5594,598.4531 1215.5594,599.0625 L1215.5594,600.5156 Q1215.5594,601.125 1215.325,601.3906 Q1215.0906,601.6563 1214.7156,601.6563 Q1214.3719,601.6563 1214.1688,601.4531 Q1213.9656,601.2656 1213.8563,600.75 Q1213.8094,600.3906 1213.6219,600.2031 Q1213.2938,599.8281 1212.6844,599.6094 Q1212.075,599.3906 1211.45,599.3906 Q1210.6844,599.3906 1210.0438,599.7188 Q1209.4188,600.0469 1208.9188,600.7969 Q1208.4344,601.5469 1208.4344,602.5781 L1208.4344,603.6719 Q1208.4344,604.9063 1209.325,605.7344 Q1210.2156,606.5469 1211.8094,606.5469 Q1212.7469,606.5469 1213.4031,606.2969 Q1213.7938,606.1406 1214.2156,605.7031 Q1214.4813,605.4375 1214.6219,605.3594 Q1214.7781,605.2813 1214.9813,605.2813 Q1215.3094,605.2813 1215.5594,605.5469 Q1215.825,605.7969 1215.825,606.1406 Q1215.825,606.4844 1215.4813,606.8906 Q1214.9813,607.4688 1214.1844,607.7969 Q1213.1063,608.25 1211.8094,608.25 Q1210.2938,608.25 1209.0906,607.625 Q1208.1063,607.125 1207.4188,606.0625 Q1206.7313,604.9844 1206.7313,603.7031 L1206.7313,602.5469 Q1206.7313,601.2188 1207.3406,600.0781 Q1207.9656,598.9219 1209.0594,598.3125 Q1210.1531,597.6875 1211.3875,597.6875 Q1212.1219,597.6875 1212.7625,597.8594 Q1213.4188,598.0156 1213.9656,598.375 Z " fill="#000000"/><text fill="#000000" font-family="sans-serif" font-size="14" lengthAdjust="spacing" textLength="68" x="1229.8" y="608.2969">DeiService</text><line style="stroke:#181818;stroke-width:0.5;" x1="1176.5" x2="1320.5" y1="618.5" y2="618.5"/><line style="stroke:#181818;stroke-width:0.5;" x1="1176.5" x2="1320.5" y1="626.5" y2="626.5"/><text fill="#000000" font-family="sans-serif" font-size="14" lengthAdjust="spacing" textLength="134" x="1181.5" y="645.6074">+sendEmail(to, body)</text></g><!--class GmailService--><g id="elem_GmailService"><rect codeLine="107" fill="#F1F1F1" height="66.6211" id="GmailService" rx="2.5" ry="2.5" style="stroke:#181818;stroke-width:0.5;" width="146" x="1356.5" y="586.5"/><ellipse cx="1385.45" cy="602.5" fill="#ADD1B2" rx="11" ry="11" style="stroke:#181818;stroke-width:1.0;"/><path d="M1388.2156,598.375 Q1388.3719,598.1563 1388.5594,598.0469 Q1388.7469,597.9375 1388.9656,597.9375 Q1389.3406,597.9375 1389.575,598.2031 Q1389.8094,598.4531 1389.8094,599.0625 L1389.8094,600.5156 Q1389.8094,601.125 1389.575,601.3906 Q1389.3406,601.6563 1388.9656,601.6563 Q1388.6219,601.6563 1388.4188,601.4531 Q1388.2156,601.2656 1388.1063,600.75 Q1388.0594,600.3906 1387.8719,600.2031 Q1387.5438,599.8281 1386.9344,599.6094 Q1386.325,599.3906 1385.7,599.3906 Q1384.9344,599.3906 1384.2938,599.7188 Q1383.6688,600.0469 1383.1688,600.7969 Q1382.6844,601.5469 1382.6844,602.5781 L1382.6844,603.6719 Q1382.6844,604.9063 1383.575,605.7344 Q1384.4656,606.5469 1386.0594,606.5469 Q1386.9969,606.5469 1387.6531,606.2969 Q1388.0438,606.1406 1388.4656,605.7031 Q1388.7313,605.4375 1388.8719,605.3594 Q1389.0281,605.2813 1389.2313,605.2813 Q1389.5594,605.2813 1389.8094,605.5469 Q1390.075,605.7969 1390.075,606.1406 Q1390.075,606.4844 1389.7313,606.8906 Q1389.2313,607.4688 1388.4344,607.7969 Q1387.3563,608.25 1386.0594,608.25 Q1384.5438,608.25 1383.3406,607.625 Q1382.3563,607.125 1381.6688,606.0625 Q1380.9813,604.9844 1380.9813,603.7031 L1380.9813,602.5469 Q1380.9813,601.2188 1381.5906,600.0781 Q1382.2156,598.9219 1383.3094,598.3125 Q1384.4031,597.6875 1385.6375,597.6875 Q1386.3719,597.6875 1387.0125,597.8594 Q1387.6688,598.0156 1388.2156,598.375 Z " fill="#000000"/><text fill="#000000" font-family="sans-serif" font-size="14" lengthAdjust="spacing" textLength="83" x="1402.55" y="608.2969">GmailService</text><line style="stroke:#181818;stroke-width:0.5;" x1="1357.5" x2="1501.5" y1="618.5" y2="618.5"/><line style="stroke:#181818;stroke-width:0.5;" x1="1357.5" x2="1501.5" y1="626.5" y2="626.5"/><text fill="#000000" font-family="sans-serif" font-size="14" lengthAdjust="spacing" textLength="134" x="1362.5" y="645.6074">+sendEmail(to, body)</text></g><!--class OutlookService--><g id="elem_OutlookService"><rect codeLine="111" fill="#F1F1F1" height="66.6211" id="OutlookService" rx="2.5" ry="2.5" style="stroke:#181818;stroke-width:0.5;" width="146" x="1537.5" y="586.5"/><ellipse cx="1560.6" cy="602.5" fill="#ADD1B2" rx="11" ry="11" style="stroke:#181818;stroke-width:1.0;"/><path d="M1563.3656,598.375 Q1563.5219,598.1563 1563.7094,598.0469 Q1563.8969,597.9375 1564.1156,597.9375 Q1564.4906,597.9375 1564.725,598.2031 Q1564.9594,598.4531 1564.9594,599.0625 L1564.9594,600.5156 Q1564.9594,601.125 1564.725,601.3906 Q1564.4906,601.6563 1564.1156,601.6563 Q1563.7719,601.6563 1563.5688,601.4531 Q1563.3656,601.2656 1563.2563,600.75 Q1563.2094,600.3906 1563.0219,600.2031 Q1562.6938,599.8281 1562.0844,599.6094 Q1561.475,599.3906 1560.85,599.3906 Q1560.0844,599.3906 1559.4438,599.7188 Q1558.8188,600.0469 1558.3188,600.7969 Q1557.8344,601.5469 1557.8344,602.5781 L1557.8344,603.6719 Q1557.8344,604.9063 1558.725,605.7344 Q1559.6156,606.5469 1561.2094,606.5469 Q1562.1469,606.5469 1562.8031,606.2969 Q1563.1938,606.1406 1563.6156,605.7031 Q1563.8813,605.4375 1564.0219,605.3594 Q1564.1781,605.2813 1564.3813,605.2813 Q1564.7094,605.2813 1564.9594,605.5469 Q1565.225,605.7969 1565.225,606.1406 Q1565.225,606.4844 1564.8813,606.8906 Q1564.3813,607.4688 1563.5844,607.7969 Q1562.5063,608.25 1561.2094,608.25 Q1559.6938,608.25 1558.4906,607.625 Q1557.5063,607.125 1556.8188,606.0625 Q1556.1313,604.9844 1556.1313,603.7031 L1556.1313,602.5469 Q1556.1313,601.2188 1556.7406,600.0781 Q1557.3656,598.9219 1558.4594,598.3125 Q1559.5531,597.6875 1560.7875,597.6875 Q1561.5219,597.6875 1562.1625,597.8594 Q1562.8188,598.0156 1563.3656,598.375 Z " fill="#000000"/><text fill="#000000" font-family="sans-serif" font-size="14" lengthAdjust="spacing" textLength="96" x="1576.4" y="608.2969">OutlookService</text><line style="stroke:#181818;stroke-width:0.5;" x1="1538.5" x2="1682.5" y1="618.5" y2="618.5"/><line style="stroke:#181818;stroke-width:0.5;" x1="1538.5" x2="1682.5" y1="626.5" y2="626.5"/><text fill="#000000" font-family="sans-serif" font-size="14" lengthAdjust="spacing" textLength="134" x="1543.5" y="645.6074">+sendEmail(to, body)</text></g><!--class ApplicationSession--><g id="elem_ApplicationSession"><rect codeLine="115" fill="#F1F1F1" height="159.7266" id="ApplicationSession" rx="2.5" ry="2.5" style="stroke:#181818;stroke-width:0.5;" width="340" x="1259.5" y="25.5"/><ellipse cx="1365.75" cy="41.5" fill="#ADD1B2" rx="11" ry="11" style="stroke:#181818;stroke-width:1.0;"/><path d="M1368.5156,37.375 Q1368.6719,37.1563 1368.8594,37.0469 Q1369.0469,36.9375 1369.2656,36.9375 Q1369.6406,36.9375 1369.875,37.2031 Q1370.1094,37.4531 1370.1094,38.0625 L1370.1094,39.5156 Q1370.1094,40.125 1369.875,40.3906 Q1369.6406,40.6563 1369.2656,40.6563 Q1368.9219,40.6563 1368.7188,40.4531 Q1368.5156,40.2656 1368.4063,39.75 Q1368.3594,39.3906 1368.1719,39.2031 Q1367.8438,38.8281 1367.2344,38.6094 Q1366.625,38.3906 1366,38.3906 Q1365.2344,38.3906 1364.5938,38.7188 Q1363.9688,39.0469 1363.4688,39.7969 Q1362.9844,40.5469 1362.9844,41.5781 L1362.9844,42.6719 Q1362.9844,43.9063 1363.875,44.7344 Q1364.7656,45.5469 1366.3594,45.5469 Q1367.2969,45.5469 1367.9531,45.2969 Q1368.3438,45.1406 1368.7656,44.7031 Q1369.0313,44.4375 1369.1719,44.3594 Q1369.3281,44.2813 1369.5313,44.2813 Q1369.8594,44.2813 1370.1094,44.5469 Q1370.375,44.7969 1370.375,45.1406 Q1370.375,45.4844 1370.0313,45.8906 Q1369.5313,46.4688 1368.7344,46.7969 Q1367.6563,47.25 1366.3594,47.25 Q1364.8438,47.25 1363.6406,46.625 Q1362.6563,46.125 1361.9688,45.0625 Q1361.2813,43.9844 1361.2813,42.7031 L1361.2813,41.5469 Q1361.2813,40.2188 1361.8906,39.0781 Q1362.5156,37.9219 1363.6094,37.3125 Q1364.7031,36.6875 1365.9375,36.6875 Q1366.6719,36.6875 1367.3125,36.8594 Q1367.9688,37.0156 1368.5156,37.375 Z " fill="#000000"/><text fill="#000000" font-family="sans-serif" font-size="14" lengthAdjust="spacing" textLength="119" x="1386.25" y="47.2969">ApplicationSession</text><line style="stroke:#181818;stroke-width:0.5;" x1="1260.5" x2="1598.5" y1="57.5" y2="57.5"/><text fill="#000000" font-family="sans-serif" font-size="14" lengthAdjust="spacing" textLength="328" x="1265.5" y="76.6074">-authenticationRepository: AuthenticationRepository</text><text fill="#000000" font-family="sans-serif" font-size="14" lengthAdjust="spacing" textLength="174" x="1265.5" y="95.2285">-emailService: EmailService</text><text fill="#000000" font-family="sans-serif" font-size="14" lengthAdjust="spacing" textLength="193" x="1265.5" y="113.8496">-CONFIGURATION_FILENAME</text><text fill="#000000" font-family="sans-serif" font-size="14" lengthAdjust="spacing" textLength="173" x="1265.5" y="132.4707">-COMPANY_DESIGNATION</text><line style="stroke:#181818;stroke-width:0.5;" x1="1260.5" x2="1598.5" y1="139.9844" y2="139.9844"/><text fill="#000000" font-family="sans-serif" font-size="14" lengthAdjust="spacing" textLength="173" x="1265.5" y="159.0918">-getProperties(): Properties</text><text fill="#000000" font-family="sans-serif" font-size="14" lengthAdjust="spacing" textLength="228" x="1265.5" y="177.7129">+createEmailService(): EmailService</text></g><!--class GSM--><g id="elem_GSM"><rect fill="#F1F1F1" height="48" id="GSM" rx="2.5" ry="2.5" style="stroke:#181818;stroke-width:0.5;" width="63" x="149" y="81.5"/><ellipse cx="164" cy="97.5" fill="#ADD1B2" rx="11" ry="11" style="stroke:#181818;stroke-width:1.0;"/><path d="M166.7656,93.375 Q166.9219,93.1563 167.1094,93.0469 Q167.2969,92.9375 167.5156,92.9375 Q167.8906,92.9375 168.125,93.2031 Q168.3594,93.4531 168.3594,94.0625 L168.3594,95.5156 Q168.3594,96.125 168.125,96.3906 Q167.8906,96.6563 167.5156,96.6563 Q167.1719,96.6563 166.9688,96.4531 Q166.7656,96.2656 166.6563,95.75 Q166.6094,95.3906 166.4219,95.2031 Q166.0938,94.8281 165.4844,94.6094 Q164.875,94.3906 164.25,94.3906 Q163.4844,94.3906 162.8438,94.7188 Q162.2188,95.0469 161.7188,95.7969 Q161.2344,96.5469 161.2344,97.5781 L161.2344,98.6719 Q161.2344,99.9063 162.125,100.7344 Q163.0156,101.5469 164.6094,101.5469 Q165.5469,101.5469 166.2031,101.2969 Q166.5938,101.1406 167.0156,100.7031 Q167.2813,100.4375 167.4219,100.3594 Q167.5781,100.2813 167.7813,100.2813 Q168.1094,100.2813 168.3594,100.5469 Q168.625,100.7969 168.625,101.1406 Q168.625,101.4844 168.2813,101.8906 Q167.7813,102.4688 166.9844,102.7969 Q165.9063,103.25 164.6094,103.25 Q163.0938,103.25 161.8906,102.625 Q160.9063,102.125 160.2188,101.0625 Q159.5313,99.9844 159.5313,98.7031 L159.5313,97.5469 Q159.5313,96.2188 160.1406,95.0781 Q160.7656,93.9219 161.8594,93.3125 Q162.9531,92.6875 164.1875,92.6875 Q164.9219,92.6875 165.5625,92.8594 Q166.2188,93.0156 166.7656,93.375 Z " fill="#000000"/><text fill="#000000" font-family="sans-serif" font-size="14" lengthAdjust="spacing" textLength="31" x="178" y="103.2969">GSM</text><line style="stroke:#181818;stroke-width:0.5;" x1="150" x2="211" y1="113.5" y2="113.5"/><line style="stroke:#181818;stroke-width:0.5;" x1="150" x2="211" y1="121.5" y2="121.5"/></g><!--class ToDoEntry--><g id="elem_ToDoEntry"><rect fill="#F1F1F1" height="48" id="ToDoEntry" rx="2.5" ry="2.5" style="stroke:#181818;stroke-width:0.5;" width="100" x="1157.5" y="348"/><ellipse cx="1172.5" cy="364" fill="#ADD1B2" rx="11" ry="11" style="stroke:#181818;stroke-width:1.0;"/><path d="M1175.2656,359.875 Q1175.4219,359.6563 1175.6094,359.5469 Q1175.7969,359.4375 1176.0156,359.4375 Q1176.3906,359.4375 1176.625,359.7031 Q1176.8594,359.9531 1176.8594,360.5625 L1176.8594,362.0156 Q1176.8594,362.625 1176.625,362.8906 Q1176.3906,363.1563 1176.0156,363.1563 Q1175.6719,363.1563 1175.4688,362.9531 Q1175.2656,362.7656 1175.1563,362.25 Q1175.1094,361.8906 1174.9219,361.7031 Q1174.5938,361.3281 1173.9844,361.1094 Q1173.375,360.8906 1172.75,360.8906 Q1171.9844,360.8906 1171.3438,361.2188 Q1170.7188,361.5469 1170.2188,362.2969 Q1169.7344,363.0469 1169.7344,364.0781 L1169.7344,365.1719 Q1169.7344,366.4063 1170.625,367.2344 Q1171.5156,368.0469 1173.1094,368.0469 Q1174.0469,368.0469 1174.7031,367.7969 Q1175.0938,367.6406 1175.5156,367.2031 Q1175.7813,366.9375 1175.9219,366.8594 Q1176.0781,366.7813 1176.2813,366.7813 Q1176.6094,366.7813 1176.8594,367.0469 Q1177.125,367.2969 1177.125,367.6406 Q1177.125,367.9844 1176.7813,368.3906 Q1176.2813,368.9688 1175.4844,369.2969 Q1174.4063,369.75 1173.1094,369.75 Q1171.5938,369.75 1170.3906,369.125 Q1169.4063,368.625 1168.7188,367.5625 Q1168.0313,366.4844 1168.0313,365.2031 L1168.0313,364.0469 Q1168.0313,362.7188 1168.6406,361.5781 Q1169.2656,360.4219 1170.3594,359.8125 Q1171.4531,359.1875 1172.6875,359.1875 Q1173.4219,359.1875 1174.0625,359.3594 Q1174.7188,359.5156 1175.2656,359.875 Z " fill="#000000"/><text fill="#000000" font-family="sans-serif" font-size="14" lengthAdjust="spacing" textLength="68" x="1186.5" y="369.7969">ToDoEntry</text><line style="stroke:#181818;stroke-width:0.5;" x1="1158.5" x2="1256.5" y1="380" y2="380"/><line style="stroke:#181818;stroke-width:0.5;" x1="1158.5" x2="1256.5" y1="388" y2="388"/></g><!--reverse link EmailService to DeiService--><g id="link_EmailService_DeiService"><path d="M1394.7941,420.1696 C1360.1841,467.2196 1307.31,539.07 1272.63,586.2 " fill="none" id="EmailService-backto-DeiService" style="stroke:#181818;stroke-width:1.0;stroke-dasharray:7.0,7.0;"/><polygon fill="none" points="1405.46,405.67,1389.9609,416.6143,1399.6273,423.7249,1405.46,405.67" style="stroke:#181818;stroke-width:1.0;"/></g><!--reverse link EmailService to GmailService--><g id="link_EmailService_GmailService"><path d="M1429.5,423.67 C1429.5,470.72 1429.5,539.07 1429.5,586.2 " fill="none" id="EmailService-backto-GmailService" style="stroke:#181818;stroke-width:1.0;stroke-dasharray:7.0,7.0;"/><polygon fill="none" points="1429.5,405.67,1423.5,423.67,1435.5,423.67,1429.5,405.67" style="stroke:#181818;stroke-width:1.0;"/></g><!--reverse link EmailService to OutlookService--><g id="link_EmailService_OutlookService"><path d="M1464.2059,420.1696 C1498.8159,467.2196 1551.69,539.07 1586.37,586.2 " fill="none" id="EmailService-backto-OutlookService" style="stroke:#181818;stroke-width:1.0;stroke-dasharray:7.0,7.0;"/><polygon fill="none" points="1453.54,405.67,1459.3727,423.7249,1469.0391,416.6143,1453.54,405.67" style="stroke:#181818;stroke-width:1.0;"/></g><!--link AgendaUI to TeamToAgendaEntryController--><g id="link_AgendaUI_TeamToAgendaEntryController"><path codeLine="128" d="M227.08,372 C241.09,372 248.76,372 256.36,372 " fill="none" id="AgendaUI-to-TeamToAgendaEntryController" style="stroke:#181818;stroke-width:1.0;stroke-dasharray:7.0,7.0;"/><polygon fill="#181818" points="262.36,372,253.36,368,257.36,372,253.36,376,262.36,372" style="stroke:#181818;stroke-width:1.0;"/></g><!--link TeamToAgendaEntryController to Repositories--><g id="link_TeamToAgendaEntryController_Repositories"><path codeLine="129" d="M503.6,461.12 C520.8,486.76 536.1376,509.6272 552.9476,534.6872 " fill="none" id="TeamToAgendaEntryController-to-Repositories" style="stroke:#181818;stroke-width:1.0;stroke-dasharray:7.0,7.0;"/><polygon fill="#181818" points="556.29,539.67,554.5982,529.9675,553.5047,535.5177,547.9545,534.4241,556.29,539.67" style="stroke:#181818;stroke-width:1.0;"/><text fill="#000000" font-family="sans-serif" font-size="13" lengthAdjust="spacing" textLength="67" x="533.5" y="506.0283">repositories</text></g><!--link Repositories to AgendaEntryRepository--><g id="link_Repositories_AgendaEntryRepository"><path codeLine="130" d="M609.5,700.01 C609.5,725.97 609.5,748.38 609.5,772.72 " fill="none" id="Repositories-to-AgendaEntryRepository" style="stroke:#181818;stroke-width:1.0;"/><polygon fill="#181818" points="609.5,778.72,613.5,769.72,609.5,773.72,605.5,769.72,609.5,778.72" style="stroke:#181818;stroke-width:1.0;"/><text fill="#000000" font-family="sans-serif" font-size="13" lengthAdjust="spacing" textLength="7" x="602.0953" y="767.6688">1</text></g><!--link Repositories to Repositories--><g id="link_Repositories_Repositories"><path codeLine="131" d="M709.59,598.72 C729.93,601.04 744.5,608.13 744.5,620 C744.5,631.87 735.8913,638.28 715.5513,640.6 " fill="none" id="Repositories-to-Repositories" style="stroke:#181818;stroke-width:1.0;"/><polygon fill="#181818" points="709.59,641.28,718.9853,644.2343,714.5578,640.7134,718.0787,636.2858,709.59,641.28" style="stroke:#181818;stroke-width:1.0;"/><text fill="#000000" font-family="sans-serif" font-size="13" lengthAdjust="spacing" textLength="49" x="750.5" y="625.5283">instance</text></g><!--link TeamToAgendaEntryController to AgendaEntryMapper--><g id="link_TeamToAgendaEntryController_AgendaEntryMapper"><path codeLine="132" d="M626.52,372 C641.44,372 652.5,372 652.5,372 C652.5,372 650.01,372 655.73,372 " fill="none" id="TeamToAgendaEntryController-to-AgendaEntryMapper" style="stroke:#181818;stroke-width:1.0;stroke-dasharray:7.0,7.0;"/><polygon fill="#181818" points="661.73,372,652.73,368,656.73,372,652.73,376,661.73,372" style="stroke:#181818;stroke-width:1.0;"/></g><!--link TeamToAgendaEntryController to TeamMapper--><g id="link_TeamToAgendaEntryController_TeamMapper"><path codeLine="133" d="M595.26,282.93 C632.52,260.92 662,243.5 662,243.5 C662,243.5 851,243.5 851,243.5 C851,243.5 904.129,287.979 948.789,325.359 " fill="none" id="TeamToAgendaEntryController-to-TeamMapper" style="stroke:#181818;stroke-width:1.0;stroke-dasharray:7.0,7.0;"/><polygon fill="#181818" points="953.39,329.21,949.0558,320.3661,949.5558,326.0008,943.9211,326.5008,953.39,329.21" style="stroke:#181818;stroke-width:1.0;"/></g><!--link TeamToAgendaEntryController to AgendaEntryRepository--><g id="link_TeamToAgendaEntryController_AgendaEntryRepository"><path codeLine="134" d="M449.08,461.06 C454.11,557.91 461.5,700 461.5,700 C461.5,700 501.0766,737.1623 541.0766,774.7323 " fill="none" id="TeamToAgendaEntryController-to-AgendaEntryRepository" style="stroke:#181818;stroke-width:1.0;"/><polygon fill="#181818" points="545.45,778.84,541.6284,769.7628,541.8055,775.4169,536.1514,775.594,545.45,778.84" style="stroke:#181818;stroke-width:1.0;"/><text fill="#000000" font-family="sans-serif" font-size="13" lengthAdjust="spacing" textLength="28" x="462.5" y="625.5283">uses</text></g><!--reverse link SystemUser to GSM--><g id="link_SystemUser_GSM"><path codeLine="136" d="M132.04,105.5 C143.65,105.5 140.5,105.5 140.5,105.5 C140.5,105.5 144.03,105.5 148.98,105.5 " fill="none" id="SystemUser-backto-GSM" style="stroke:#181818;stroke-width:1.0;"/><polygon fill="none" points="114.04,105.5,132.04,111.5,132.04,99.5,114.04,105.5" style="stroke:#181818;stroke-width:1.0;"/></g><!--reverse link ToDoEntry to AgendaEntry--><g id="link_ToDoEntry_AgendaEntry"><path codeLine="137" d="M1178.6257,410.3645 C1158.4857,436.4345 1139.5,461 1139.5,461 C1139.5,461 1093.74,514.17 1055.3,558.82 " fill="none" id="ToDoEntry-backto-AgendaEntry" style="stroke:#181818;stroke-width:1.0;"/><polygon fill="none" points="1189.63,396.12,1173.8775,406.6963,1183.3738,414.0326,1189.63,396.12" style="stroke:#181818;stroke-width:1.0;"/></g><!--link GSM to AgendaUI--><g id="link_GSM_AgendaUI"><path codeLine="139" d="M180.5,129.51 C180.5,179.53 180.5,297.71 180.5,347.85 " fill="none" id="GSM-AgendaUI" style="stroke:#181818;stroke-width:1.0;"/><text fill="#000000" font-family="sans-serif" font-size="13" lengthAdjust="spacing" textLength="7" x="172.6469" y="151.4981">1</text><text fill="#000000" font-family="sans-serif" font-size="13" lengthAdjust="spacing" textLength="7" x="172.6031" y="336.549">1</text></g><!--reverse link AgendaEntry to AgendaEntryRepository--><g id="link_AgendaEntry_AgendaEntryRepository"><path codeLine="140" d="M905.3799,675.2945 C847.6999,707.2045 778.57,745.45 718.16,778.88 " fill="none" id="AgendaEntry-backto-AgendaEntryRepository" style="stroke:#181818;stroke-width:1.0;"/><polygon fill="#181818" points="910.63,672.39,900.8185,673.2467,906.2549,674.8104,904.6911,680.2468,910.63,672.39" style="stroke:#181818;stroke-width:1.0;"/><text fill="#000000" font-family="sans-serif" font-size="13" lengthAdjust="spacing" textLength="36" x="807.5" y="745.0283">stores</text><text fill="#000000" font-family="sans-serif" font-size="13" lengthAdjust="spacing" textLength="5" x="898.0302" y="672.9081">*</text><text fill="#000000" font-family="sans-serif" font-size="13" lengthAdjust="spacing" textLength="7" x="723.3191" y="767.8473">1</text></g><!--reverse link AgendaEntryDTO to AgendaEntryMapper--><g id="link_AgendaEntryDTO_AgendaEntryMapper"><path codeLine="141" d="M719.245,209.7544 C713.015,227.0344 710.5,234 710.5,234 C710.5,234 710.5,253 710.5,253 C710.5,253 730.19,303.52 743.81,338.44 " fill="none" id="AgendaEntryDTO-backto-AgendaEntryMapper" style="stroke:#181818;stroke-width:1.0;"/><polygon fill="#181818" points="721.28,204.11,714.4646,211.2199,719.5842,208.8136,721.9904,213.9332,721.28,204.11" style="stroke:#181818;stroke-width:1.0;"/><text fill="#000000" font-family="sans-serif" font-size="13" lengthAdjust="spacing" textLength="43" x="711.5" y="249.0283">creates</text><text fill="#000000" font-family="sans-serif" font-size="13" lengthAdjust="spacing" textLength="5" x="713.5099" y="226.016">*</text><text fill="#000000" font-family="sans-serif" font-size="13" lengthAdjust="spacing" textLength="7" x="733.6226" y="327.2537">1</text></g><!--reverse link AgendaEntryDTO to AgendaEntryMapper--><g id="link_AgendaEntryDTO_AgendaEntryMapper"><path codeLine="144" d="M758.9389,210.1084 C759.3389,227.3884 759.5,234 759.5,234 C759.5,234 759.5,253 759.5,253 C759.5,253 758.22,303.52 757.33,338.44 " fill="none" id="AgendaEntryDTO-backto-AgendaEntryMapper-1" style="stroke:#181818;stroke-width:1.0;"/><polygon fill="#181818" points="758.8,204.11,755.0093,213.2002,758.9157,209.1087,763.0072,213.015,758.8,204.11" style="stroke:#181818;stroke-width:1.0;"/><text fill="#000000" font-family="sans-serif" font-size="13" lengthAdjust="spacing" textLength="43" x="760.5" y="249.0283">creates</text><text fill="#000000" font-family="sans-serif" font-size="13" lengthAdjust="spacing" textLength="5" x="753.7853" y="226.016">*</text><text fill="#000000" font-family="sans-serif" font-size="13" lengthAdjust="spacing" textLength="7" x="749.8043" y="327.2537">1</text></g><!--link AgendaEntry to Team--><g id="link_AgendaEntry_Team"><path codeLine="142" d="M1003.5,681.15 C1003.5,718.07 1003.5,758.43 1003.5,791.33 " fill="none" id="AgendaEntry-to-Team" style="stroke:#181818;stroke-width:1.0;"/><polygon fill="#181818" points="1003.5,797.33,1007.5,788.33,1003.5,792.33,999.5,788.33,1003.5,797.33" style="stroke:#181818;stroke-width:1.0;"/><text fill="#000000" font-family="sans-serif" font-size="13" lengthAdjust="spacing" textLength="67" x="1004.5" y="745.0283">assigned to</text><text fill="#000000" font-family="sans-serif" font-size="13" lengthAdjust="spacing" textLength="7" x="996.0734" y="703.6551">1</text><text fill="#000000" font-family="sans-serif" font-size="13" lengthAdjust="spacing" textLength="7" x="995.9422" y="786.207">1</text></g><!--reverse link Team to TeamRepository--><g id="link_Team_TeamRepository"><path codeLine="143" d="M1003.5,888.7 C1003.5,917.32 1003.5,949.48 1003.5,979.93 " fill="none" id="Team-backto-TeamRepository" style="stroke:#181818;stroke-width:1.0;"/><polygon fill="#181818" points="1003.5,882.7,999.5,891.7,1003.5,887.7,1007.5,891.7,1003.5,882.7" style="stroke:#181818;stroke-width:1.0;"/><text fill="#000000" font-family="sans-serif" font-size="13" lengthAdjust="spacing" textLength="36" x="1004.5" y="946.0283">stores</text><text fill="#000000" font-family="sans-serif" font-size="13" lengthAdjust="spacing" textLength="5" x="998.1016" y="904.8922">*</text><text fill="#000000" font-family="sans-serif" font-size="13" lengthAdjust="spacing" textLength="7" x="996.0297" y="968.848">1</text></g><!--reverse link TeamDTO to TeamMapper--><g id="link_TeamDTO_TeamMapper"><path codeLine="145" d="M1004.5,145.2 C1004.5,193.16 1004.5,276.58 1004.5,329.24 " fill="none" id="TeamDTO-backto-TeamMapper" style="stroke:#181818;stroke-width:1.0;"/><polygon fill="#181818" points="1004.5,139.2,1000.5,148.2,1004.5,144.2,1008.5,148.2,1004.5,139.2" style="stroke:#181818;stroke-width:1.0;"/><text fill="#000000" font-family="sans-serif" font-size="13" lengthAdjust="spacing" textLength="43" x="1005.5" y="249.0283">creates</text><text fill="#000000" font-family="sans-serif" font-size="13" lengthAdjust="spacing" textLength="5" x="999.0703" y="160.539">*</text><text fill="#000000" font-family="sans-serif" font-size="13" lengthAdjust="spacing" textLength="7" x="996.9422" y="318.1026">1</text></g><!--link ApplicationSession to EmailService--><g id="link_ApplicationSession_EmailService"><path codeLine="148" d="M1429.5,185.5 C1429.5,236.65 1429.5,294.55 1429.5,332.44 " fill="none" id="ApplicationSession-to-EmailService" style="stroke:#181818;stroke-width:1.0;stroke-dasharray:7.0,7.0;"/><polygon fill="#181818" points="1429.5,338.44,1433.5,329.44,1429.5,333.44,1425.5,329.44,1429.5,338.44" style="stroke:#181818;stroke-width:1.0;"/></g><!--SRC=[hLPRJzim57xFhx1uMLWfsbuhL2cZ1LM2WaZPj2Va9eVM8eaZsm4ond_ViPF6TXiwCSO3n3xVkNtdWkK3AqegQ4wIZ4ePAINOib8mItWHirz0lWIVP8V9US6JjU0v42Kg2AoafCa3NK6iwWo8W4JHOfMv0BccANzYnOhSqqowaemLeEeIICcpMXzSZvsG2yKTfJUZ3Oo4H2ieKZejbAZ9Iq3m9wKAp0UAUSBmb2w0vbjNts7DaWoakHv8K9673XN-EWnUUznC5bVeoNUr4W15ZDmqnnHa8bYf62_C6PvBP0hIIILeTra9j9dK4z3A3KoRZnLLbNn70ZR8k9OAybi9egMYe7bhEQSiCryb0f-uI9l3ccCLK7ytoniekMIATxGEIIG4hI-OL2SERaneTs0REiaA-RGOhVE3gJMlbE6MLcgDkRB4a77A4SEp3CGngfrMGg1C9p7LGOU7XxqsGuVZ8uT_1wrzVQjFqJHTSYIU2sdAYWKqdZo1K-ikTSodIvxsKTF8j4tdhbLmhOHELBD2uima4FRdPGs5MwbuajxElAHbsTL-G1IVAAwv3wbVYqQzrTUc5zonOkjXAz_R5tiewOcARj-qI5Fb6CGZIw3fq_RG43dmw44kiNfkBxKaoJL_YXvHcIupq0ADsmWnJROgTX8D9MHcBCtfYEWwci-DJKJEkMBtRQEQI6LefbGtqDR6sDaMjpEz9rvTeb-2d3wplChr4WjoLdJVFixosPJ0ZfwMZaseikF7vBj9zlsDxxlkccXW-wVN_Q6Bq3UsjQorPbdsXuz0LYWGzpYsVXjiEbXNeDa2YX-H9KzhX-G9i0sUvMK6EHP6_eETSrVZGvQkAfLn_l1VR4LbcRLz5mFsBo_QOVINfssK4OdUa1Wze-kEryWBoc9Eh-Pdi_FRcsWnkvhVdSqkflFeSkhABw-Z-S-xoJIUdSyDAh1IRAzhmR61b5bx8s9F7MYG2C2fSTrhf1UEtaz1qCtHyNZVdWhsxR1ZrFKs-WYVBVOOUBBXS4mElXxqBxmjw8vPrcxs_U6CTtVZtnJiMEv5wk3xD_M8L5A_59m7midl8JcFBuC5d_3czOGttjuE0fGRDl3Uad8x2zmtry7d0tBY0NQTI_oBxhVUK6zejljdH9ekyTIQO9eIQIP6f5djaE8_EyEDPzNVf1yEPBFFjbti0B5nTwRNzA7Nudy0]--></g></svg>