<?xml version="1.0" encoding="us-ascii" standalone="no"?><svg xmlns="http://www.w3.org/2000/svg" xmlns:xlink="http://www.w3.org/1999/xlink" contentStyleType="text/css" height="1012.2px" preserveAspectRatio="none" style="width:1488px;height:1012px;background:#FFFFFF;" version="1.1" viewBox="0 0 1488 1012" width="1488.6px" zoomAndPan="magnify"><defs/><g><rect fill="#FFFFFF" height="895.8984" style="stroke:#181818;stroke-width:0.6;" width="6" x="11.1" y="56.1727"/><rect fill="#FFFFFF" height="887.3238" style="stroke:#181818;stroke-width:0.6;" width="6" x="227.1" y="70.1473"/><rect fill="#FFFFFF" height="278.2641" style="stroke:#181818;stroke-width:0.6;" width="6" x="429.3" y="94.9219"/><rect fill="#FFFFFF" height="74.3238" style="stroke:#181818;stroke-width:0.6;" width="6" x="429.3" y="438.1078"/><rect fill="#FFFFFF" height="55.5492" style="stroke:#181818;stroke-width:0.6;" width="6" x="429.3" y="569.9555"/><rect fill="#FFFFFF" height="246.4934" style="stroke:#181818;stroke-width:0.6;" width="6" x="429.3" y="710.9777"/><rect fill="#FFFFFF" height="18.7746" style="stroke:#181818;stroke-width:0.6;" width="6" x="555.9" y="167.4398"/><rect fill="#FFFFFF" height="18.7746" style="stroke:#181818;stroke-width:0.6;" width="6" x="620.1" y="204.9891"/><rect fill="#FFFFFF" height="18.7746" style="stroke:#181818;stroke-width:0.6;" width="6" x="620.1" y="242.5383"/><rect fill="#FFFFFF" height="18.7746" style="stroke:#181818;stroke-width:0.6;" width="6" x="705.3" y="317.6367"/><rect fill="#FFFFFF" height="108.2584" style="stroke:#181818;stroke-width:0.6;" width="6" x="705.3" y="754.7396"/><rect fill="#FFFFFF" height="82.9219" style="stroke:#181818;stroke-width:0.6;" width="6" x="804.6" y="355.1859"/><rect fill="#FFFFFF" height="10.398" style="stroke:#181818;stroke-width:0.6;" width="6" x="1010.4" y="413.7352"/><rect fill="#FFFFFF" height="18.7746" style="stroke:#181818;stroke-width:0.6;" width="6" x="1189.2" y="456.8824"/><rect fill="#FFFFFF" height="93.5238" style="stroke:#181818;stroke-width:0.6;" width="6" x="1260" y="494.4316"/><rect fill="#FFFFFF" height="9" style="stroke:#181818;stroke-width:0.6;" width="6" x="1375.2" y="546.9809"/><rect fill="none" height="37.7473" style="stroke:#000000;stroke-width:0.8999999999999999;" width="298.8" x="758.4" y="382.1859"/><rect fill="none" height="30.3492" style="stroke:#000000;stroke-width:0.8999999999999999;" width="180.6" x="1227.6" y="521.4316"/><line style="stroke:#181818;stroke-width:0.3;stroke-dasharray:5.0,5.0;" x1="13.8" x2="13.8" y1="50.1727" y2="962.8711"/><line style="stroke:#181818;stroke-width:0.3;stroke-dasharray:5.0,5.0;" x1="230.1" x2="230.1" y1="50.1727" y2="962.8711"/><line style="stroke:#181818;stroke-width:0.3;stroke-dasharray:5.0,5.0;" x1="432" x2="432" y1="94.0336" y2="962.8711"/><line style="stroke:#181818;stroke-width:0.3;stroke-dasharray:5.0,5.0;" x1="558.6" x2="558.6" y1="50.1727" y2="962.8711"/><line style="stroke:#181818;stroke-width:0.3;stroke-dasharray:5.0,5.0;" x1="622.8" x2="622.8" y1="50.1727" y2="962.8711"/><line style="stroke:#181818;stroke-width:0.3;stroke-dasharray:5.0,5.0;" x1="708" x2="708" y1="50.1727" y2="962.8711"/><line style="stroke:#181818;stroke-width:0.3;stroke-dasharray:5.0,5.0;" x1="807.6" x2="807.6" y1="120.2063" y2="962.8711"/><line style="stroke:#181818;stroke-width:0.3;stroke-dasharray:5.0,5.0;" x1="1013.4" x2="1013.4" y1="412.8469" y2="962.8711"/><line style="stroke:#181818;stroke-width:0.3;stroke-dasharray:5.0,5.0;" x1="1086" x2="1086" y1="804.3879" y2="962.8711"/><line style="stroke:#181818;stroke-width:0.3;stroke-dasharray:5.0,5.0;" x1="1135.8" x2="1135.8" y1="50.1727" y2="962.8711"/><line style="stroke:#181818;stroke-width:0.3;stroke-dasharray:5.0,5.0;" x1="1192.2" x2="1192.2" y1="50.1727" y2="962.8711"/><line style="stroke:#181818;stroke-width:0.3;stroke-dasharray:5.0,5.0;" x1="1263" x2="1263" y1="50.1727" y2="962.8711"/><line style="stroke:#181818;stroke-width:0.3;stroke-dasharray:5.0,5.0;" x1="1378.2" x2="1378.2" y1="50.1727" y2="962.8711"/><line style="stroke:#181818;stroke-width:0.3;stroke-dasharray:5.0,5.0;" x1="1446.6" x2="1446.6" y1="146.3789" y2="962.8711"/><text fill="#000000" font-family="sans-serif" font-size="8.4" lengthAdjust="spacing" textLength="18.6" x="3" y="48.0645">GSM</text><ellipse cx="14.1" cy="8.1" fill="#E3E3E3" rx="4.8" ry="4.8" style="stroke:#181818;stroke-width:0.3;"/><path d="M14.1,12.9 L14.1,29.1 M6.3,17.7 L21.9,17.7 M14.1,29.1 L6.3,38.1 M14.1,29.1 L21.9,38.1 " fill="none" style="stroke:#181818;stroke-width:0.3;"/><text fill="#000000" font-family="sans-serif" font-size="8.4" lengthAdjust="spacing" textLength="18.6" x="3" y="971.3355">GSM</text><ellipse cx="14.1" cy="978.5437" fill="#E3E3E3" rx="4.8" ry="4.8" style="stroke:#181818;stroke-width:0.3;"/><path d="M14.1,983.3438 L14.1,999.5437 M6.3,988.1438 L21.9,988.1438 M14.1,999.5437 L6.3,1008.5437 M14.1,999.5437 L21.9,1008.5437 " fill="none" style="stroke:#181818;stroke-width:0.3;"/><rect fill="#E3E3E3" height="19.5727" rx="1.5" ry="1.5" style="stroke:#181818;stroke-width:0.3;" width="67.2" x="196.5" y="30"/><text fill="#000000" font-family="sans-serif" font-size="8.4" lengthAdjust="spacing" textLength="58.8" x="200.7" y="43.2645">:AgendaEntryUI</text><rect fill="#E3E3E3" height="19.5727" rx="1.5" ry="1.5" style="stroke:#181818;stroke-width:0.3;" width="67.2" x="196.5" y="962.2711"/><text fill="#000000" font-family="sans-serif" font-size="8.4" lengthAdjust="spacing" textLength="58.8" x="200.7" y="975.5355">:AgendaEntryUI</text><rect fill="#E3E3E3" height="19.5727" rx="1.5" ry="1.5" style="stroke:#181818;stroke-width:0.3;" width="131.4" x="366.6" y="962.2711"/><text fill="#000000" font-family="sans-serif" font-size="8.4" lengthAdjust="spacing" textLength="120.6" x="370.8" y="975.5355">:TeamToAgendaEntryController</text><rect fill="#E3E3E3" height="19.5727" rx="1.5" ry="1.5" style="stroke:#181818;stroke-width:0.3;" width="58.2" x="529.8" y="30"/><text fill="#000000" font-family="sans-serif" font-size="8.4" lengthAdjust="spacing" textLength="49.8" x="534" y="43.2645">:Repositories</text><rect fill="#E3E3E3" height="19.5727" rx="1.5" ry="1.5" style="stroke:#181818;stroke-width:0.3;" width="58.2" x="529.8" y="962.2711"/><text fill="#000000" font-family="sans-serif" font-size="8.4" lengthAdjust="spacing" textLength="49.8" x="534" y="975.5355">:Repositories</text><rect fill="#E3E3E3" height="30.7453" rx="1.5" ry="1.5" style="stroke:#181818;stroke-width:0.3;" width="58.2" x="594" y="18.8273"/><text fill="#000000" font-family="sans-serif" font-size="8.4" lengthAdjust="spacing" textLength="44.4" x="600.9" y="32.0918">repositories</text><text fill="#000000" font-family="sans-serif" font-size="8.4" lengthAdjust="spacing" textLength="49.8" x="598.2" y="43.2645">:Repositories</text><rect fill="#E3E3E3" height="30.7453" rx="1.5" ry="1.5" style="stroke:#181818;stroke-width:0.3;" width="58.2" x="594" y="962.2711"/><text fill="#000000" font-family="sans-serif" font-size="8.4" lengthAdjust="spacing" textLength="44.4" x="600.9" y="975.5355">repositories</text><text fill="#000000" font-family="sans-serif" font-size="8.4" lengthAdjust="spacing" textLength="49.8" x="598.2" y="986.7082">:Repositories</text><rect fill="#E3E3E3" height="30.7453" rx="1.5" ry="1.5" style="stroke:#181818;stroke-width:0.3;" width="100.2" x="658.2" y="18.8273"/><text fill="#000000" font-family="sans-serif" font-size="8.4" lengthAdjust="spacing" textLength="91.8" x="662.4" y="32.0918">agendaEntryRepository:</text><text fill="#000000" font-family="sans-serif" font-size="8.4" lengthAdjust="spacing" textLength="90" x="663.3" y="43.2645">AgendaEntryRepository</text><rect fill="#E3E3E3" height="30.7453" rx="1.5" ry="1.5" style="stroke:#181818;stroke-width:0.3;" width="100.2" x="658.2" y="962.2711"/><text fill="#000000" font-family="sans-serif" font-size="8.4" lengthAdjust="spacing" textLength="91.8" x="662.4" y="975.5355">agendaEntryRepository:</text><text fill="#000000" font-family="sans-serif" font-size="8.4" lengthAdjust="spacing" textLength="90" x="663.3" y="986.7082">AgendaEntryRepository</text><rect fill="#E3E3E3" height="19.5727" rx="1.5" ry="1.5" style="stroke:#181818;stroke-width:0.3;" width="86.4" x="764.4" y="962.2711"/><text fill="#000000" font-family="sans-serif" font-size="8.4" lengthAdjust="spacing" textLength="78" x="768.6" y="975.5355">AgendaEntryMapper</text><rect fill="#E3E3E3" height="19.5727" rx="1.5" ry="1.5" style="stroke:#181818;stroke-width:0.3;" width="75.6" x="975.6" y="962.2711"/><text fill="#000000" font-family="sans-serif" font-size="8.4" lengthAdjust="spacing" textLength="67.2" x="979.8" y="975.5355">AgendaEntryDTO</text><rect fill="#E3E3E3" height="19.5727" rx="1.5" ry="1.5" style="stroke:#181818;stroke-width:0.3;" width="57.6" x="1057.2" y="962.2711"/><text fill="#000000" font-family="sans-serif" font-size="8.4" lengthAdjust="spacing" textLength="49.2" x="1061.4" y="975.5355">AgendaEntry</text><rect fill="#E3E3E3" height="19.5727" rx="1.5" ry="1.5" style="stroke:#181818;stroke-width:0.3;" width="30" x="1120.8" y="30"/><text fill="#000000" font-family="sans-serif" font-size="8.4" lengthAdjust="spacing" textLength="21.6" x="1125" y="43.2645">Team</text><rect fill="#E3E3E3" height="19.5727" rx="1.5" ry="1.5" style="stroke:#181818;stroke-width:0.3;" width="30" x="1120.8" y="962.2711"/><text fill="#000000" font-family="sans-serif" font-size="8.4" lengthAdjust="spacing" textLength="21.6" x="1125" y="975.5355">Team</text><rect fill="#E3E3E3" height="30.7453" rx="1.5" ry="1.5" style="stroke:#181818;stroke-width:0.3;" width="70.8" x="1156.8" y="18.8273"/><text fill="#000000" font-family="sans-serif" font-size="8.4" lengthAdjust="spacing" textLength="61.8" x="1161.3" y="32.0918">teamRepository:</text><text fill="#000000" font-family="sans-serif" font-size="8.4" lengthAdjust="spacing" textLength="62.4" x="1161" y="43.2645">TeamRepository</text><rect fill="#E3E3E3" height="30.7453" rx="1.5" ry="1.5" style="stroke:#181818;stroke-width:0.3;" width="70.8" x="1156.8" y="962.2711"/><text fill="#000000" font-family="sans-serif" font-size="8.4" lengthAdjust="spacing" textLength="61.8" x="1161.3" y="975.5355">teamRepository:</text><text fill="#000000" font-family="sans-serif" font-size="8.4" lengthAdjust="spacing" textLength="62.4" x="1161" y="986.7082">TeamRepository</text><rect fill="#E3E3E3" height="19.5727" rx="1.5" ry="1.5" style="stroke:#181818;stroke-width:0.3;" width="58.8" x="1233.6" y="30"/><text fill="#000000" font-family="sans-serif" font-size="8.4" lengthAdjust="spacing" textLength="50.4" x="1237.8" y="43.2645">TeamMapper</text><rect fill="#E3E3E3" height="19.5727" rx="1.5" ry="1.5" style="stroke:#181818;stroke-width:0.3;" width="58.8" x="1233.6" y="962.2711"/><text fill="#000000" font-family="sans-serif" font-size="8.4" lengthAdjust="spacing" textLength="50.4" x="1237.8" y="975.5355">TeamMapper</text><rect fill="#E3E3E3" height="19.5727" rx="1.5" ry="1.5" style="stroke:#181818;stroke-width:0.3;" width="48" x="1354.2" y="30"/><text fill="#000000" font-family="sans-serif" font-size="8.4" lengthAdjust="spacing" textLength="39.6" x="1358.4" y="43.2645">TeamDTO</text><rect fill="#E3E3E3" height="19.5727" rx="1.5" ry="1.5" style="stroke:#181818;stroke-width:0.3;" width="48" x="1354.2" y="962.2711"/><text fill="#000000" font-family="sans-serif" font-size="8.4" lengthAdjust="spacing" textLength="39.6" x="1358.4" y="975.5355">TeamDTO</text><rect fill="#E3E3E3" height="19.5727" rx="1.5" ry="1.5" style="stroke:#181818;stroke-width:0.3;" width="76.8" x="1408.2" y="962.2711"/><text fill="#000000" font-family="sans-serif" font-size="8.4" lengthAdjust="spacing" textLength="68.4" x="1412.4" y="975.5355">ApllicationSession</text><rect fill="#FFFFFF" height="895.8984" style="stroke:#181818;stroke-width:0.6;" width="6" x="11.1" y="56.1727"/><rect fill="#FFFFFF" height="887.3238" style="stroke:#181818;stroke-width:0.6;" width="6" x="227.1" y="70.1473"/><rect fill="#FFFFFF" height="278.2641" style="stroke:#181818;stroke-width:0.6;" width="6" x="429.3" y="94.9219"/><rect fill="#FFFFFF" height="74.3238" style="stroke:#181818;stroke-width:0.6;" width="6" x="429.3" y="438.1078"/><rect fill="#FFFFFF" height="55.5492" style="stroke:#181818;stroke-width:0.6;" width="6" x="429.3" y="569.9555"/><rect fill="#FFFFFF" height="246.4934" style="stroke:#181818;stroke-width:0.6;" width="6" x="429.3" y="710.9777"/><rect fill="#FFFFFF" height="18.7746" style="stroke:#181818;stroke-width:0.6;" width="6" x="555.9" y="167.4398"/><rect fill="#FFFFFF" height="18.7746" style="stroke:#181818;stroke-width:0.6;" width="6" x="620.1" y="204.9891"/><rect fill="#FFFFFF" height="18.7746" style="stroke:#181818;stroke-width:0.6;" width="6" x="620.1" y="242.5383"/><rect fill="#FFFFFF" height="18.7746" style="stroke:#181818;stroke-width:0.6;" width="6" x="705.3" y="317.6367"/><rect fill="#FFFFFF" height="108.2584" style="stroke:#181818;stroke-width:0.6;" width="6" x="705.3" y="754.7396"/><rect fill="#FFFFFF" height="82.9219" style="stroke:#181818;stroke-width:0.6;" width="6" x="804.6" y="355.1859"/><rect fill="#FFFFFF" height="10.398" style="stroke:#181818;stroke-width:0.6;" width="6" x="1010.4" y="413.7352"/><rect fill="#FFFFFF" height="18.7746" style="stroke:#181818;stroke-width:0.6;" width="6" x="1189.2" y="456.8824"/><rect fill="#FFFFFF" height="93.5238" style="stroke:#181818;stroke-width:0.6;" width="6" x="1260" y="494.4316"/><rect fill="#FFFFFF" height="9" style="stroke:#181818;stroke-width:0.6;" width="6" x="1375.2" y="546.9809"/><polygon fill="#181818" points="219.9,67.7473,225.9,70.1473,219.9,72.5473,222.3,70.1473" style="stroke:#181818;stroke-width:0.6;"/><line style="stroke:#181818;stroke-width:0.6;" x1="17.1" x2="223.5" y1="70.1473" y2="70.1473"/><text fill="#000000" font-family="sans-serif" font-size="7.8" font-weight="bold" lengthAdjust="spacing" textLength="4.2" x="21.3" y="66.9896">1</text><text fill="#000000" font-family="sans-serif" font-size="7.8" lengthAdjust="spacing" textLength="144.6" x="27.9" y="66.9896">asks to assign a team to an agenda entry</text><polygon fill="#181818" points="359.4,86.5219,365.4,88.9219,359.4,91.3219,361.8,88.9219" style="stroke:#181818;stroke-width:0.6;"/><line style="stroke:#181818;stroke-width:0.6;" x1="233.1" x2="363" y1="88.9219" y2="88.9219"/><text fill="#000000" font-family="sans-serif" font-size="7.8" font-weight="bold" lengthAdjust="spacing" textLength="4.2" x="237.3" y="85.7643">2</text><text fill="#000000" font-family="sans-serif" font-size="7.8" lengthAdjust="spacing" textLength="21.6" x="243.9" y="85.7643">create</text><rect fill="#E3E3E3" height="19.5727" rx="1.5" ry="1.5" style="stroke:#181818;stroke-width:0.3;" width="131.4" x="366.6" y="74.9473"/><text fill="#000000" font-family="sans-serif" font-size="8.4" lengthAdjust="spacing" textLength="120.6" x="370.8" y="88.2117">:TeamToAgendaEntryController</text><polygon fill="#181818" points="757.2,112.6945,763.2,115.0945,757.2,117.4945,759.6,115.0945" style="stroke:#181818;stroke-width:0.6;"/><line style="stroke:#181818;stroke-width:0.6;" x1="435.3" x2="760.8" y1="115.0945" y2="115.0945"/><text fill="#000000" font-family="sans-serif" font-size="7.8" font-weight="bold" lengthAdjust="spacing" textLength="4.2" x="439.5" y="111.9369">3</text><text fill="#000000" font-family="sans-serif" font-size="7.8" lengthAdjust="spacing" textLength="21.6" x="446.1" y="111.9369">create</text><rect fill="#E3E3E3" height="19.5727" rx="1.5" ry="1.5" style="stroke:#181818;stroke-width:0.3;" width="86.4" x="764.4" y="101.1199"/><text fill="#000000" font-family="sans-serif" font-size="8.4" lengthAdjust="spacing" textLength="78" x="768.6" y="114.3844">AgendaEntryMapper</text><polygon fill="#181818" points="1401,138.8672,1407,141.2672,1401,143.6672,1403.4,141.2672" style="stroke:#181818;stroke-width:0.6;"/><line style="stroke:#181818;stroke-width:0.6;" x1="435.3" x2="1404.6" y1="141.2672" y2="141.2672"/><text fill="#000000" font-family="sans-serif" font-size="7.8" font-weight="bold" lengthAdjust="spacing" textLength="4.2" x="439.5" y="138.1096">4</text><text fill="#000000" font-family="sans-serif" font-size="7.8" lengthAdjust="spacing" textLength="21.6" x="446.1" y="138.1096">create</text><rect fill="#E3E3E3" height="19.5727" rx="1.5" ry="1.5" style="stroke:#181818;stroke-width:0.3;" width="76.8" x="1408.2" y="127.2926"/><text fill="#000000" font-family="sans-serif" font-size="8.4" lengthAdjust="spacing" textLength="68.4" x="1412.4" y="140.557">ApllicationSession</text><polygon fill="#181818" points="548.7,165.0398,554.7,167.4398,548.7,169.8398,551.1,167.4398" style="stroke:#181818;stroke-width:0.6;"/><line style="stroke:#181818;stroke-width:0.6;" x1="435.3" x2="552.3" y1="167.4398" y2="167.4398"/><text fill="#000000" font-family="sans-serif" font-size="7.8" font-weight="bold" lengthAdjust="spacing" textLength="4.2" x="439.5" y="164.2822">5</text><text fill="#000000" font-family="sans-serif" font-size="7.8" lengthAdjust="spacing" textLength="45" x="446.1" y="164.2822">getInstance()</text><polygon fill="#181818" points="441.9,183.8145,435.9,186.2145,441.9,188.6145,439.5,186.2145" style="stroke:#181818;stroke-width:0.6;"/><line style="stroke:#181818;stroke-width:0.6;stroke-dasharray:2.0,2.0;" x1="438.3" x2="558.3" y1="186.2145" y2="186.2145"/><text fill="#000000" font-family="sans-serif" font-size="7.8" font-weight="bold" lengthAdjust="spacing" textLength="4.2" x="445.5" y="183.0568">6</text><text fill="#000000" font-family="sans-serif" font-size="7.8" lengthAdjust="spacing" textLength="40.2" x="452.1" y="183.0568">repositories</text><polygon fill="#181818" points="612.9,202.5891,618.9,204.9891,612.9,207.3891,615.3,204.9891" style="stroke:#181818;stroke-width:0.6;"/><line style="stroke:#181818;stroke-width:0.6;" x1="435.3" x2="616.5" y1="204.9891" y2="204.9891"/><text fill="#000000" font-family="sans-serif" font-size="7.8" font-weight="bold" lengthAdjust="spacing" textLength="4.2" x="439.5" y="201.8314">7</text><text fill="#000000" font-family="sans-serif" font-size="7.8" lengthAdjust="spacing" textLength="97.8" x="446.1" y="201.8314">getAgendaEntryRepository()</text><polygon fill="#181818" points="441.9,221.3637,435.9,223.7637,441.9,226.1637,439.5,223.7637" style="stroke:#181818;stroke-width:0.6;"/><line style="stroke:#181818;stroke-width:0.6;stroke-dasharray:2.0,2.0;" x1="438.3" x2="622.5" y1="223.7637" y2="223.7637"/><text fill="#000000" font-family="sans-serif" font-size="7.8" font-weight="bold" lengthAdjust="spacing" textLength="4.2" x="445.5" y="220.6061">8</text><text fill="#000000" font-family="sans-serif" font-size="7.8" lengthAdjust="spacing" textLength="87" x="452.1" y="220.6061">AgendaEntryRepository()</text><polygon fill="#181818" points="612.9,240.1383,618.9,242.5383,612.9,244.9383,615.3,242.5383" style="stroke:#181818;stroke-width:0.6;"/><line style="stroke:#181818;stroke-width:0.6;" x1="435.3" x2="616.5" y1="242.5383" y2="242.5383"/><text fill="#000000" font-family="sans-serif" font-size="7.8" font-weight="bold" lengthAdjust="spacing" textLength="4.2" x="439.5" y="239.3807">9</text><text fill="#000000" font-family="sans-serif" font-size="7.8" lengthAdjust="spacing" textLength="64.2" x="446.1" y="239.3807">getTeamrepository</text><polygon fill="#181818" points="441.9,258.9129,435.9,261.3129,441.9,263.7129,439.5,261.3129" style="stroke:#181818;stroke-width:0.6;"/><line style="stroke:#181818;stroke-width:0.6;stroke-dasharray:2.0,2.0;" x1="438.3" x2="622.5" y1="261.3129" y2="261.3129"/><text fill="#000000" font-family="sans-serif" font-size="7.8" font-weight="bold" lengthAdjust="spacing" textLength="8.4" x="445.5" y="258.1553">10</text><text fill="#000000" font-family="sans-serif" font-size="7.8" lengthAdjust="spacing" textLength="54.6" x="456.3" y="258.1553">teamRepository</text><polygon fill="#181818" points="422.1,277.6875,428.1,280.0875,422.1,282.4875,424.5,280.0875" style="stroke:#181818;stroke-width:0.6;"/><line style="stroke:#181818;stroke-width:0.6;" x1="233.1" x2="425.7" y1="280.0875" y2="280.0875"/><text fill="#000000" font-family="sans-serif" font-size="7.8" font-weight="bold" lengthAdjust="spacing" textLength="8.4" x="237.3" y="276.9299">11</text><text fill="#000000" font-family="sans-serif" font-size="7.8" lengthAdjust="spacing" textLength="88.8" x="248.1" y="276.9299">getAgendaEntryDTOList()</text><polygon fill="#181818" points="422.1,296.4621,428.1,298.8621,422.1,301.2621,424.5,298.8621" style="stroke:#181818;stroke-width:0.6;"/><line style="stroke:#181818;stroke-width:0.6;" x1="233.1" x2="425.7" y1="298.8621" y2="298.8621"/><text fill="#000000" font-family="sans-serif" font-size="7.8" font-weight="bold" lengthAdjust="spacing" textLength="8.4" x="237.3" y="295.7045">12</text><text fill="#000000" font-family="sans-serif" font-size="7.8" lengthAdjust="spacing" textLength="76.8" x="248.1" y="295.7045">showAvailableTeams()</text><polygon fill="#181818" points="698.1,315.2367,704.1,317.6367,698.1,320.0367,700.5,317.6367" style="stroke:#181818;stroke-width:0.6;"/><line style="stroke:#181818;stroke-width:0.6;" x1="435.3" x2="701.7" y1="317.6367" y2="317.6367"/><text fill="#000000" font-family="sans-serif" font-size="7.8" font-weight="bold" lengthAdjust="spacing" textLength="8.4" x="439.5" y="314.4791">13</text><text fill="#000000" font-family="sans-serif" font-size="7.8" lengthAdjust="spacing" textLength="73.2" x="450.3" y="314.4791">getAgendaEntryList()</text><polygon fill="#181818" points="441.9,334.0113,435.9,336.4113,441.9,338.8113,439.5,336.4113" style="stroke:#181818;stroke-width:0.6;"/><line style="stroke:#181818;stroke-width:0.6;stroke-dasharray:2.0,2.0;" x1="438.3" x2="707.7" y1="336.4113" y2="336.4113"/><text fill="#000000" font-family="sans-serif" font-size="7.8" font-weight="bold" lengthAdjust="spacing" textLength="8.4" x="445.5" y="333.2537">14</text><text fill="#000000" font-family="sans-serif" font-size="7.8" lengthAdjust="spacing" textLength="56.4" x="456.3" y="333.2537">agendaEntryList</text><polygon fill="#181818" points="797.4,352.7859,803.4,355.1859,797.4,357.5859,799.8,355.1859" style="stroke:#181818;stroke-width:0.6;"/><line style="stroke:#181818;stroke-width:0.6;" x1="435.3" x2="801" y1="355.1859" y2="355.1859"/><text fill="#000000" font-family="sans-serif" font-size="7.8" font-weight="bold" lengthAdjust="spacing" textLength="8.4" x="439.5" y="352.0283">15</text><text fill="#000000" font-family="sans-serif" font-size="7.8" lengthAdjust="spacing" textLength="92.4" x="450.3" y="352.0283">toDtoList(agendaEntryList)</text><path d="M758.4,382.1859 L802.2,382.1859 L802.2,387.7605 L796.2,393.7605 L758.4,393.7605 L758.4,382.1859 " fill="#EEEEEE" style="stroke:#000000;stroke-width:0.8999999999999999;"/><rect fill="none" height="37.7473" style="stroke:#000000;stroke-width:0.8999999999999999;" width="298.8" x="758.4" y="382.1859"/><text fill="#000000" font-family="sans-serif" font-size="7.8" font-weight="bold" lengthAdjust="spacing" textLength="16.8" x="767.4" y="391.2029">loop</text><text fill="#000000" font-family="sans-serif" font-size="6.6" font-weight="bold" lengthAdjust="spacing" textLength="137.4" x="811.2" y="390.508">[for each agendaEntry in agendaEntryList]</text><polygon fill="#181818" points="968.4,405.3352,974.4,407.7352,968.4,410.1352,970.8,407.7352" style="stroke:#181818;stroke-width:0.6;"/><line style="stroke:#181818;stroke-width:0.6;" x1="810.6" x2="972" y1="407.7352" y2="407.7352"/><text fill="#000000" font-family="sans-serif" font-size="7.8" font-weight="bold" lengthAdjust="spacing" textLength="8.4" x="814.8" y="404.5775">16</text><text fill="#000000" font-family="sans-serif" font-size="7.8" lengthAdjust="spacing" textLength="139.8" x="825.6" y="404.5775">agendaEntryDTO = toDTO(agendaEntry)</text><rect fill="#E3E3E3" height="19.5727" rx="1.5" ry="1.5" style="stroke:#181818;stroke-width:0.3;" width="75.6" x="975.6" y="393.7605"/><text fill="#000000" font-family="sans-serif" font-size="8.4" lengthAdjust="spacing" textLength="67.2" x="979.8" y="407.025">AgendaEntryDTO</text><polygon fill="#181818" points="441.9,435.7078,435.9,438.1078,441.9,440.5078,439.5,438.1078" style="stroke:#181818;stroke-width:0.6;"/><line style="stroke:#181818;stroke-width:0.6;stroke-dasharray:2.0,2.0;" x1="438.3" x2="807" y1="438.1078" y2="438.1078"/><text fill="#000000" font-family="sans-serif" font-size="7.8" font-weight="bold" lengthAdjust="spacing" textLength="8.4" x="445.5" y="434.9502">17</text><text fill="#000000" font-family="sans-serif" font-size="7.8" lengthAdjust="spacing" textLength="72" x="456.3" y="434.9502">agendaEntryDTOList</text><polygon fill="#181818" points="1182,454.4824,1188,456.8824,1182,459.2824,1184.4,456.8824" style="stroke:#181818;stroke-width:0.6;"/><line style="stroke:#181818;stroke-width:0.6;" x1="435.3" x2="1185.6" y1="456.8824" y2="456.8824"/><text fill="#000000" font-family="sans-serif" font-size="7.8" font-weight="bold" lengthAdjust="spacing" textLength="8.4" x="439.5" y="453.7248">18</text><text fill="#000000" font-family="sans-serif" font-size="7.8" lengthAdjust="spacing" textLength="39" x="450.3" y="453.7248">getTeams()</text><polygon fill="#181818" points="441.9,473.257,435.9,475.657,441.9,478.057,439.5,475.657" style="stroke:#181818;stroke-width:0.6;"/><line style="stroke:#181818;stroke-width:0.6;stroke-dasharray:2.0,2.0;" x1="438.3" x2="1191.6" y1="475.657" y2="475.657"/><text fill="#000000" font-family="sans-serif" font-size="7.8" font-weight="bold" lengthAdjust="spacing" textLength="8.4" x="445.5" y="472.4994">19</text><text fill="#000000" font-family="sans-serif" font-size="7.8" lengthAdjust="spacing" textLength="21.6" x="456.3" y="472.4994">teams</text><polygon fill="#181818" points="1252.8,492.0316,1258.8,494.4316,1252.8,496.8316,1255.2,494.4316" style="stroke:#181818;stroke-width:0.6;"/><line style="stroke:#181818;stroke-width:0.6;" x1="435.3" x2="1256.4" y1="494.4316" y2="494.4316"/><text fill="#000000" font-family="sans-serif" font-size="7.8" font-weight="bold" lengthAdjust="spacing" textLength="8.4" x="439.5" y="491.274">20</text><text fill="#000000" font-family="sans-serif" font-size="7.8" lengthAdjust="spacing" textLength="57.6" x="450.3" y="491.274">toDtoList(teams)</text><path d="M1227.6,521.4316 L1271.4,521.4316 L1271.4,527.0063 L1265.4,533.0063 L1227.6,533.0063 L1227.6,521.4316 " fill="#EEEEEE" style="stroke:#000000;stroke-width:0.8999999999999999;"/><rect fill="none" height="30.3492" style="stroke:#000000;stroke-width:0.8999999999999999;" width="180.6" x="1227.6" y="521.4316"/><text fill="#000000" font-family="sans-serif" font-size="7.8" font-weight="bold" lengthAdjust="spacing" textLength="16.8" x="1236.6" y="530.4486">loop</text><a href="for" target="_top" title="for" xlink:actuate="onRequest" xlink:href="for" xlink:show="new" xlink:title="for" xlink:type="simple"><text fill="#1D1D1D" font-family="sans-serif" font-size="6.6" font-weight="bold" lengthAdjust="spacing" text-decoration="underline" textLength="76.8" x="1280.4" y="529.7537">each Team in TeamList</text></a><polygon fill="#181818" points="1368,544.5809,1374,546.9809,1368,549.3809,1370.4,546.9809" style="stroke:#181818;stroke-width:0.6;"/><line style="stroke:#181818;stroke-width:0.6;" x1="1266" x2="1371.6" y1="546.9809" y2="546.9809"/><text fill="#000000" font-family="sans-serif" font-size="7.8" font-weight="bold" lengthAdjust="spacing" textLength="8.4" x="1270.2" y="543.8232">21</text><text fill="#000000" font-family="sans-serif" font-size="7.8" lengthAdjust="spacing" textLength="87" x="1281" y="543.8232">teamDTO = toDTO(team)</text><polygon fill="#181818" points="441.9,567.5555,435.9,569.9555,441.9,572.3555,439.5,569.9555" style="stroke:#181818;stroke-width:0.6;"/><line style="stroke:#181818;stroke-width:0.6;stroke-dasharray:2.0,2.0;" x1="438.3" x2="1259.4" y1="569.9555" y2="569.9555"/><text fill="#000000" font-family="sans-serif" font-size="7.8" font-weight="bold" lengthAdjust="spacing" textLength="8.4" x="445.5" y="566.7979">22</text><text fill="#000000" font-family="sans-serif" font-size="7.8" lengthAdjust="spacing" textLength="45.6" x="456.3" y="566.7979">teamDTOList</text><polygon fill="#181818" points="239.7,604.3301,233.7,606.7301,239.7,609.1301,237.3,606.7301" style="stroke:#181818;stroke-width:0.6;"/><line style="stroke:#181818;stroke-width:0.6;stroke-dasharray:2.0,2.0;" x1="236.1" x2="428.7" y1="606.7301" y2="606.7301"/><text fill="#000000" font-family="sans-serif" font-size="7.8" font-weight="bold" lengthAdjust="spacing" textLength="8.4" x="243.3" y="603.5725">23</text><text fill="#000000" font-family="sans-serif" font-size="7.8" lengthAdjust="spacing" textLength="72" x="254.1" y="603.5725">agendaEntryDTOList</text><polygon fill="#181818" points="239.7,623.1047,233.7,625.5047,239.7,627.9047,237.3,625.5047" style="stroke:#181818;stroke-width:0.6;"/><line style="stroke:#181818;stroke-width:0.6;stroke-dasharray:2.0,2.0;" x1="236.1" x2="431.7" y1="625.5047" y2="625.5047"/><text fill="#000000" font-family="sans-serif" font-size="7.8" font-weight="bold" lengthAdjust="spacing" textLength="8.4" x="243.3" y="622.3471">24</text><text fill="#000000" font-family="sans-serif" font-size="7.8" lengthAdjust="spacing" textLength="45.6" x="254.1" y="622.3471">teamDTOList</text><polygon fill="#181818" points="23.7,652.2539,17.7,654.6539,23.7,657.0539,21.3,654.6539" style="stroke:#181818;stroke-width:0.6;"/><line style="stroke:#181818;stroke-width:0.6;stroke-dasharray:2.0,2.0;" x1="20.1" x2="226.5" y1="654.6539" y2="654.6539"/><text fill="#000000" font-family="sans-serif" font-size="7.8" font-weight="bold" lengthAdjust="spacing" textLength="8.4" x="27.3" y="646.309">25</text><text fill="#000000" font-family="sans-serif" font-size="7.8" lengthAdjust="spacing" textLength="131.4" x="38.1" y="641.1217">shows the list of entries in the agenda</text><text fill="#000000" font-family="sans-serif" font-size="7.8" lengthAdjust="spacing" textLength="182.4" x="40.5" y="651.4963">and the list of  teams and asks to select one of each</text><polygon fill="#181818" points="219.9,671.0285,225.9,673.4285,219.9,675.8285,222.3,673.4285" style="stroke:#181818;stroke-width:0.6;"/><line style="stroke:#181818;stroke-width:0.6;" x1="17.1" x2="223.5" y1="673.4285" y2="673.4285"/><text fill="#000000" font-family="sans-serif" font-size="7.8" font-weight="bold" lengthAdjust="spacing" textLength="8.4" x="21.3" y="670.2709">26</text><text fill="#000000" font-family="sans-serif" font-size="7.8" lengthAdjust="spacing" textLength="79.8" x="32.1" y="670.2709">selects entry and team</text><polygon fill="#181818" points="1006.2,689.8031,1012.2,692.2031,1006.2,694.6031,1008.6,692.2031" style="stroke:#181818;stroke-width:0.6;"/><line style="stroke:#181818;stroke-width:0.6;" x1="233.1" x2="1009.8" y1="692.2031" y2="692.2031"/><text fill="#000000" font-family="sans-serif" font-size="7.8" font-weight="bold" lengthAdjust="spacing" textLength="8.4" x="237.3" y="689.0455">27</text><text fill="#000000" font-family="sans-serif" font-size="7.8" lengthAdjust="spacing" textLength="132.6" x="248.1" y="689.0455">create(description, greenSpace, team)</text><polygon fill="#181818" points="422.1,708.5777,428.1,710.9777,422.1,713.3777,424.5,710.9777" style="stroke:#181818;stroke-width:0.6;"/><line style="stroke:#181818;stroke-width:0.6;" x1="233.1" x2="425.7" y1="710.9777" y2="710.9777"/><text fill="#000000" font-family="sans-serif" font-size="7.8" font-weight="bold" lengthAdjust="spacing" textLength="8.4" x="237.3" y="707.8201">28</text><text fill="#000000" font-family="sans-serif" font-size="7.8" lengthAdjust="spacing" textLength="174" x="248.1" y="707.8201">assignTeamToAgendaEntry(AgendaEntryDTO dto)</text><polygon fill="#181818" points="698.1,752.3396,704.1,754.7396,698.1,757.1396,700.5,754.7396" style="stroke:#181818;stroke-width:0.6;"/><line style="stroke:#181818;stroke-width:0.6;" x1="435.3" x2="701.7" y1="754.7396" y2="754.7396"/><text fill="#000000" font-family="sans-serif" font-size="7.8" font-weight="bold" lengthAdjust="spacing" textLength="8.4" x="439.5" y="751.582">29</text><text fill="#000000" font-family="sans-serif" font-size="7.8" lengthAdjust="spacing" textLength="144.6" x="450.3" y="751.582">getAgendaEntry(description, greenSpace)</text><path d="M714,736.7777 L714,763.1777 L923.4,763.1777 L923.4,742.7777 L917.4,736.7777 L714,736.7777 " fill="#FAFAFA" style="stroke:#181818;stroke-width:0.3;"/><path d="M917.4,736.7777 L917.4,742.7777 L923.4,742.7777 L917.4,736.7777 " fill="#FAFAFA" style="stroke:#181818;stroke-width:0.3;"/><text fill="#000000" font-family="sans-serif" font-size="7.8" lengthAdjust="spacing" textLength="172.8" x="717.6" y="748.1947">iterates through the agenda entry list and gets the</text><text fill="#000000" font-family="sans-serif" font-size="7.8" lengthAdjust="spacing" textLength="194.4" x="720" y="758.5693">agenda entry by description and greenSpace of the DTO</text><polygon fill="#181818" points="441.9,778.1016,435.9,780.5016,441.9,782.9016,439.5,780.5016" style="stroke:#181818;stroke-width:0.6;"/><line style="stroke:#181818;stroke-width:0.6;stroke-dasharray:2.0,2.0;" x1="438.3" x2="704.7" y1="780.5016" y2="780.5016"/><text fill="#000000" font-family="sans-serif" font-size="7.8" font-weight="bold" lengthAdjust="spacing" textLength="8.4" x="445.5" y="777.3439">30</text><text fill="#000000" font-family="sans-serif" font-size="7.8" lengthAdjust="spacing" textLength="43.8" x="456.3" y="777.3439">agendaEntry</text><polygon fill="#181818" points="1050,796.8762,1056,799.2762,1050,801.6762,1052.4,799.2762" style="stroke:#181818;stroke-width:0.6;"/><line style="stroke:#181818;stroke-width:0.6;" x1="435.3" x2="1053.6" y1="799.2762" y2="799.2762"/><text fill="#000000" font-family="sans-serif" font-size="7.8" font-weight="bold" lengthAdjust="spacing" textLength="8.4" x="439.5" y="796.1186">31</text><text fill="#000000" font-family="sans-serif" font-size="7.8" lengthAdjust="spacing" textLength="21.6" x="450.3" y="796.1186">create</text><rect fill="#E3E3E3" height="19.5727" rx="1.5" ry="1.5" style="stroke:#181818;stroke-width:0.3;" width="57.6" x="1057.2" y="785.3016"/><text fill="#000000" font-family="sans-serif" font-size="8.4" lengthAdjust="spacing" textLength="49.2" x="1061.4" y="798.566">AgendaEntry</text><polygon fill="#181818" points="698.1,823.0488,704.1,825.4488,698.1,827.8488,700.5,825.4488" style="stroke:#181818;stroke-width:0.6;"/><line style="stroke:#181818;stroke-width:0.6;" x1="435.3" x2="701.7" y1="825.4488" y2="825.4488"/><text fill="#000000" font-family="sans-serif" font-size="7.8" font-weight="bold" lengthAdjust="spacing" textLength="8.4" x="439.5" y="822.2912">32</text><text fill="#000000" font-family="sans-serif" font-size="7.8" lengthAdjust="spacing" textLength="113.4" x="450.3" y="822.2912">updateTeam(agendaEntry, team)</text><polygon fill="#181818" points="1078.8,841.8234,1084.8,844.2234,1078.8,846.6234,1081.2,844.2234" style="stroke:#181818;stroke-width:0.6;"/><line style="stroke:#181818;stroke-width:0.6;" x1="711.3" x2="1082.4" y1="844.2234" y2="844.2234"/><text fill="#000000" font-family="sans-serif" font-size="7.8" font-weight="bold" lengthAdjust="spacing" textLength="8.4" x="715.5" y="841.0658">33</text><text fill="#000000" font-family="sans-serif" font-size="7.8" lengthAdjust="spacing" textLength="91.2" x="726.3" y="841.0658">setAssociatedTeam(team)</text><polygon fill="#181818" points="441.9,860.598,435.9,862.998,441.9,865.398,439.5,862.998" style="stroke:#181818;stroke-width:0.6;"/><line style="stroke:#181818;stroke-width:0.6;stroke-dasharray:2.0,2.0;" x1="438.3" x2="707.7" y1="862.998" y2="862.998"/><text fill="#000000" font-family="sans-serif" font-size="7.8" font-weight="bold" lengthAdjust="spacing" textLength="8.4" x="445.5" y="859.8404">34</text><text fill="#000000" font-family="sans-serif" font-size="7.8" lengthAdjust="spacing" textLength="63" x="456.3" y="859.8404">success/insucess</text><line style="stroke:#181818;stroke-width:0.6;" x1="435.3" x2="460.5" y1="887.86" y2="887.86"/><line style="stroke:#181818;stroke-width:0.6;" x1="460.5" x2="460.5" y1="887.86" y2="895.66"/><line style="stroke:#181818;stroke-width:0.6;" x1="432.3" x2="460.5" y1="895.66" y2="895.66"/><polygon fill="#181818" points="438.3,893.26,432.3,895.66,438.3,898.06,435.9,895.66" style="stroke:#181818;stroke-width:0.6;"/><text fill="#000000" font-family="sans-serif" font-size="7.8" font-weight="bold" lengthAdjust="spacing" textLength="8.4" x="439.5" y="884.7023">35</text><text fill="#000000" font-family="sans-serif" font-size="7.8" lengthAdjust="spacing" textLength="101.4" x="450.3" y="884.7023">sendNotificationEmails(team)</text><path d="M273.6,870.798 L273.6,897.198 L426,897.198 L426,876.798 L420,870.798 L273.6,870.798 " fill="#FAFAFA" style="stroke:#181818;stroke-width:0.3;"/><path d="M420,870.798 L420,876.798 L426,876.798 L420,870.798 " fill="#FAFAFA" style="stroke:#181818;stroke-width:0.3;"/><text fill="#000000" font-family="sans-serif" font-size="7.8" lengthAdjust="spacing" textLength="139.8" x="277.2" y="882.215">gets the collaborators for each team and</text><text fill="#000000" font-family="sans-serif" font-size="7.8" lengthAdjust="spacing" textLength="119.4" x="277.2" y="892.5896">gets the email of each collaborator</text><polygon fill="#181818" points="1439.4,912.1219,1445.4,914.5219,1439.4,916.9219,1441.8,914.5219" style="stroke:#181818;stroke-width:0.6;"/><line style="stroke:#181818;stroke-width:0.6;" x1="435.3" x2="1443" y1="914.5219" y2="914.5219"/><text fill="#000000" font-family="sans-serif" font-size="7.8" font-weight="bold" lengthAdjust="spacing" textLength="8.4" x="439.5" y="911.3643">36</text><text fill="#000000" font-family="sans-serif" font-size="7.8" lengthAdjust="spacing" textLength="81.6" x="450.3" y="911.3643">sendEmail(email, body)</text><polygon fill="#181818" points="239.7,930.8965,233.7,933.2965,239.7,935.6965,237.3,933.2965" style="stroke:#181818;stroke-width:0.6;"/><line style="stroke:#181818;stroke-width:0.6;stroke-dasharray:2.0,2.0;" x1="236.1" x2="428.7" y1="933.2965" y2="933.2965"/><text fill="#000000" font-family="sans-serif" font-size="7.8" font-weight="bold" lengthAdjust="spacing" textLength="8.4" x="243.3" y="930.1389">37</text><text fill="#000000" font-family="sans-serif" font-size="7.8" lengthAdjust="spacing" textLength="67.2" x="254.1" y="930.1389">success/insuccess</text><polygon fill="#181818" points="20.7,949.6711,14.7,952.0711,20.7,954.4711,18.3,952.0711" style="stroke:#181818;stroke-width:0.6;"/><line style="stroke:#181818;stroke-width:0.6;stroke-dasharray:2.0,2.0;" x1="17.1" x2="226.5" y1="952.0711" y2="952.0711"/><text fill="#000000" font-family="sans-serif" font-size="7.8" font-weight="bold" lengthAdjust="spacing" textLength="8.4" x="24.3" y="948.9135">38</text><text fill="#000000" font-family="sans-serif" font-size="7.8" lengthAdjust="spacing" textLength="101.4" x="35.1" y="948.9135">shows (in))success message</text><!--SRC=[bLTBZnev4BxxLrXpMHZDQEz86scKH56adHrfOKzB3gRRDDOqTiisIVZtgNA_xFQ3m04QTzLNhy_bidaNicEQdUbPILMTj3fpQlM54pEzwLZrpXg-jTUMKyqhosJJ-WBcn6hrGyY67bbhE27iOfMyd0zS4_B7ITIS7fMo1_MJiCegJH- -R5yVA3CKVWbWM569ZabB7pOl3PSr-oojllxtrSbSn49anzbvfpp1Zmg-LTjoG4QDokfseVClxvGHO5jmusIcXUjMO3ZWSAYYFOszZ06wbjbGWyqUpUYRlNn9hJkCNWCNGoHFuvLr7TUUTByGo7lYdtPlA1gkPC4zMFS_5CGyEmaB3-4hN0bYt0KBarOS6WeECSKlm5UdEZml_ExQLbJC2YMtt1ZuwTtlEaAGL-8xizmnYj351nRfymTW4js0oZlufk3NY4PIvlnq2t981UKk5n7AP0CO6Rq4RB20p7jy12kLvY1Pm70SZLxZAi3ubVRXKk9e5WIBLaUv1Eb1g-7sgpImgok-MkSzJksOI1e_AIlFGt8srDzNaNhDxpCt1eQRiOyakTbAORbzd8p3WSwE_owo5qCQUoWoldGk8zkdh5plzHHNPoV3ZKdkT-uY9gmmcx0V_nR69WAUgGybe70Qg1yltvbesQ7b69i1dNpfvXuO5J1ZRuh0Qv-nq0mxPuU5sANibB13r_jj2ivRzSagv_F2piqGXfvUSATl5p5DMwKwE5mr1T6J7nyLCWetLWyYW8Z2UhkUmiB3vIyCS_VcXxXERP_9yyLH54l2wrBa2trI3c4c8ekeUxlScJeigv0bnBZxw6ROrgP4t-c0Z4Gcd71Z5_jb7ctqpZzxOQFET7NO1KU3G_iMIPCCfVzF74Ki92V-elLliSE-FNHy60Vw9FWanFy5lySnWjn9kL6lx5TGcXp58lRGWjrYdeSoJcFCRNhx6cKlRzNGjNZ0WJbgu_exJ50dJbl0ekhevYKupR6gkDoxjeV-8-j0hYUnMnwdCCDRk51G9Ra30e8aciaqlcq6UTEFQBq174vJ7Zz_25l7E1wjQcugBJeS99zeepcNMxZYy2VQqoa3DfmWRcgCRY2hnGXUMxKczCxXhz3rwEtJStbuvi9CTMkfmAGMpGa64c6v1W-mmbfTcfDNqY7hhfoOUZ3eYB0F9sTwk5BFU2ywsSSw8wJRc8KS-GTmzkJ2rydZdTnAcPDwVCoEriaCNxeQPB7w_lcN9uu_X0I6aSZsnHXL2G2i7U80ybkHcajLmHteJo7X2HwIy-jCfzmCEe01_Z_AYkDmk_fyXk7DP9fhT6RswKxPTwng-R6VSlkMKS4rdHqKC4nfCmykxWu6FDdBIPAZ5sDJ2FIojwQkmm4Kmt4Xh1p44pse-fgVGCV6ucSqcL8_ShXp9df4s25NGgxN0nWzmnVaYn0F1Q-glm00]--></g></svg>