<?xml version="1.0" encoding="us-ascii" standalone="no"?><svg xmlns="http://www.w3.org/2000/svg" xmlns:xlink="http://www.w3.org/1999/xlink" contentStyleType="text/css" height="832px" preserveAspectRatio="none" style="width:1240px;height:832px;background:#FFFFFF;" version="1.1" viewBox="0 0 1240 832" width="1240.5px" zoomAndPan="magnify"><defs/><g><rect fill="#FFFFFF" height="734.9365" style="stroke:#181818;stroke-width:0.5;" width="5" x="9.25" y="46.8105"/><rect fill="#FFFFFF" height="727.791" style="stroke:#181818;stroke-width:0.5;" width="5" x="189.25" y="58.4561"/><rect fill="#FFFFFF" height="216.2412" style="stroke:#181818;stroke-width:0.5;" width="5" x="357.75" y="79.1016"/><rect fill="#FFFFFF" height="77.582" style="stroke:#181818;stroke-width:0.5;" width="5" x="357.75" y="349.4443"/><rect fill="#FFFFFF" height="46.291" style="stroke:#181818;stroke-width:0.5;" width="5" x="357.75" y="474.9629"/><rect fill="#FFFFFF" height="193.7656" style="stroke:#181818;stroke-width:0.5;" width="5" x="357.75" y="592.4814"/><rect fill="#FFFFFF" height="15.6455" style="stroke:#181818;stroke-width:0.5;" width="5" x="463.25" y="139.5332"/><rect fill="#FFFFFF" height="15.6455" style="stroke:#181818;stroke-width:0.5;" width="5" x="516.75" y="170.8242"/><rect fill="#FFFFFF" height="15.6455" style="stroke:#181818;stroke-width:0.5;" width="5" x="516.75" y="202.1152"/><rect fill="#FFFFFF" height="15.6455" style="stroke:#181818;stroke-width:0.5;" width="5" x="587.75" y="249.0518"/><rect fill="#FFFFFF" height="84.3926" style="stroke:#181818;stroke-width:0.5;" width="5" x="587.75" y="623.127"/><rect fill="#FFFFFF" height="69.1016" style="stroke:#181818;stroke-width:0.5;" width="5" x="670.5" y="280.3428"/><rect fill="#FFFFFF" height="8.665" style="stroke:#181818;stroke-width:0.5;" width="5" x="842" y="329.1338"/><rect fill="#FFFFFF" height="15.6455" style="stroke:#181818;stroke-width:0.5;" width="5" x="991" y="380.7354"/><rect fill="#FFFFFF" height="77.9365" style="stroke:#181818;stroke-width:0.5;" width="5" x="1050" y="412.0264"/><rect fill="#FFFFFF" height="7.5" style="stroke:#181818;stroke-width:0.5;" width="5" x="1146" y="455.8174"/><rect fill="none" height="31.4561" style="stroke:#000000;stroke-width:0.75;" width="249" x="632" y="302.8428"/><rect fill="none" height="25.291" style="stroke:#000000;stroke-width:0.75;" width="150.5" x="1023" y="434.5264"/><line style="stroke:#181818;stroke-width:0.25;stroke-dasharray:5.0,5.0;" x1="11.5" x2="11.5" y1="41.8105" y2="790.7471"/><line style="stroke:#181818;stroke-width:0.25;stroke-dasharray:5.0,5.0;" x1="191.75" x2="191.75" y1="41.8105" y2="790.7471"/><line style="stroke:#181818;stroke-width:0.25;stroke-dasharray:5.0,5.0;" x1="360" x2="360" y1="78.3613" y2="790.7471"/><line style="stroke:#181818;stroke-width:0.25;stroke-dasharray:5.0,5.0;" x1="465.5" x2="465.5" y1="41.8105" y2="790.7471"/><line style="stroke:#181818;stroke-width:0.25;stroke-dasharray:5.0,5.0;" x1="519" x2="519" y1="41.8105" y2="790.7471"/><line style="stroke:#181818;stroke-width:0.25;stroke-dasharray:5.0,5.0;" x1="590" x2="590" y1="41.8105" y2="790.7471"/><line style="stroke:#181818;stroke-width:0.25;stroke-dasharray:5.0,5.0;" x1="673" x2="673" y1="100.1719" y2="790.7471"/><line style="stroke:#181818;stroke-width:0.25;stroke-dasharray:5.0,5.0;" x1="844.5" x2="844.5" y1="328.3936" y2="790.7471"/><line style="stroke:#181818;stroke-width:0.25;stroke-dasharray:5.0,5.0;" x1="905" x2="905" y1="658.6777" y2="790.7471"/><line style="stroke:#181818;stroke-width:0.25;stroke-dasharray:5.0,5.0;" x1="946.5" x2="946.5" y1="41.8105" y2="790.7471"/><line style="stroke:#181818;stroke-width:0.25;stroke-dasharray:5.0,5.0;" x1="993.5" x2="993.5" y1="41.8105" y2="790.7471"/><line style="stroke:#181818;stroke-width:0.25;stroke-dasharray:5.0,5.0;" x1="1052.5" x2="1052.5" y1="41.8105" y2="790.7471"/><line style="stroke:#181818;stroke-width:0.25;stroke-dasharray:5.0,5.0;" x1="1148.5" x2="1148.5" y1="41.8105" y2="790.7471"/><line style="stroke:#181818;stroke-width:0.25;stroke-dasharray:5.0,5.0;" x1="1205.5" x2="1205.5" y1="121.9824" y2="790.7471"/><text fill="#000000" font-family="sans-serif" font-size="7" lengthAdjust="spacing" textLength="15.5" x="2.5" y="40.0537">GSM</text><ellipse cx="11.75" cy="6.75" fill="#E3E3E3" rx="4" ry="4" style="stroke:#181818;stroke-width:0.25;"/><path d="M11.75,10.75 L11.75,24.25 M5.25,14.75 L18.25,14.75 M11.75,24.25 L5.25,31.75 M11.75,24.25 L18.25,31.75 " fill="none" style="stroke:#181818;stroke-width:0.25;"/><text fill="#000000" font-family="sans-serif" font-size="7" lengthAdjust="spacing" textLength="15.5" x="2.5" y="797.8008">GSM</text><ellipse cx="11.75" cy="803.8076" fill="#E3E3E3" rx="4" ry="4" style="stroke:#181818;stroke-width:0.25;"/><path d="M11.75,807.8076 L11.75,821.3076 M5.25,811.8076 L18.25,811.8076 M11.75,821.3076 L5.25,828.8076 M11.75,821.3076 L18.25,828.8076 " fill="none" style="stroke:#181818;stroke-width:0.25;"/><rect fill="#E3E3E3" height="16.3105" rx="1.25" ry="1.25" style="stroke:#181818;stroke-width:0.25;" width="56" x="163.75" y="25"/><text fill="#000000" font-family="sans-serif" font-size="7" lengthAdjust="spacing" textLength="49" x="167.25" y="36.0537">:AgendaEntryUI</text><rect fill="#E3E3E3" height="16.3105" rx="1.25" ry="1.25" style="stroke:#181818;stroke-width:0.25;" width="56" x="163.75" y="790.2471"/><text fill="#000000" font-family="sans-serif" font-size="7" lengthAdjust="spacing" textLength="49" x="167.25" y="801.3008">:AgendaEntryUI</text><rect fill="#E3E3E3" height="16.3105" rx="1.25" ry="1.25" style="stroke:#181818;stroke-width:0.25;" width="109.5" x="305.5" y="790.2471"/><text fill="#000000" font-family="sans-serif" font-size="7" lengthAdjust="spacing" textLength="100.5" x="309" y="801.3008">:TeamToAgendaEntryController</text><rect fill="#E3E3E3" height="16.3105" rx="1.25" ry="1.25" style="stroke:#181818;stroke-width:0.25;" width="48.5" x="441.5" y="25"/><text fill="#000000" font-family="sans-serif" font-size="7" lengthAdjust="spacing" textLength="41.5" x="445" y="36.0537">:Repositories</text><rect fill="#E3E3E3" height="16.3105" rx="1.25" ry="1.25" style="stroke:#181818;stroke-width:0.25;" width="48.5" x="441.5" y="790.2471"/><text fill="#000000" font-family="sans-serif" font-size="7" lengthAdjust="spacing" textLength="41.5" x="445" y="801.3008">:Repositories</text><rect fill="#E3E3E3" height="25.6211" rx="1.25" ry="1.25" style="stroke:#181818;stroke-width:0.25;" width="48.5" x="495" y="15.6895"/><text fill="#000000" font-family="sans-serif" font-size="7" lengthAdjust="spacing" textLength="37" x="500.75" y="26.7432">repositories</text><text fill="#000000" font-family="sans-serif" font-size="7" lengthAdjust="spacing" textLength="41.5" x="498.5" y="36.0537">:Repositories</text><rect fill="#E3E3E3" height="25.6211" rx="1.25" ry="1.25" style="stroke:#181818;stroke-width:0.25;" width="48.5" x="495" y="790.2471"/><text fill="#000000" font-family="sans-serif" font-size="7" lengthAdjust="spacing" textLength="37" x="500.75" y="801.3008">repositories</text><text fill="#000000" font-family="sans-serif" font-size="7" lengthAdjust="spacing" textLength="41.5" x="498.5" y="810.6113">:Repositories</text><rect fill="#E3E3E3" height="25.6211" rx="1.25" ry="1.25" style="stroke:#181818;stroke-width:0.25;" width="83.5" x="548.5" y="15.6895"/><text fill="#000000" font-family="sans-serif" font-size="7" lengthAdjust="spacing" textLength="76.5" x="552" y="26.7432">agendaEntryRepository:</text><text fill="#000000" font-family="sans-serif" font-size="7" lengthAdjust="spacing" textLength="75" x="552.75" y="36.0537">AgendaEntryRepository</text><rect fill="#E3E3E3" height="25.6211" rx="1.25" ry="1.25" style="stroke:#181818;stroke-width:0.25;" width="83.5" x="548.5" y="790.2471"/><text fill="#000000" font-family="sans-serif" font-size="7" lengthAdjust="spacing" textLength="76.5" x="552" y="801.3008">agendaEntryRepository:</text><text fill="#000000" font-family="sans-serif" font-size="7" lengthAdjust="spacing" textLength="75" x="552.75" y="810.6113">AgendaEntryRepository</text><rect fill="#E3E3E3" height="16.3105" rx="1.25" ry="1.25" style="stroke:#181818;stroke-width:0.25;" width="72" x="637" y="790.2471"/><text fill="#000000" font-family="sans-serif" font-size="7" lengthAdjust="spacing" textLength="65" x="640.5" y="801.3008">AgendaEntryMapper</text><rect fill="#E3E3E3" height="16.3105" rx="1.25" ry="1.25" style="stroke:#181818;stroke-width:0.25;" width="63" x="813" y="790.2471"/><text fill="#000000" font-family="sans-serif" font-size="7" lengthAdjust="spacing" textLength="56" x="816.5" y="801.3008">AgendaEntryDTO</text><rect fill="#E3E3E3" height="16.3105" rx="1.25" ry="1.25" style="stroke:#181818;stroke-width:0.25;" width="48" x="881" y="790.2471"/><text fill="#000000" font-family="sans-serif" font-size="7" lengthAdjust="spacing" textLength="41" x="884.5" y="801.3008">AgendaEntry</text><rect fill="#E3E3E3" height="16.3105" rx="1.25" ry="1.25" style="stroke:#181818;stroke-width:0.25;" width="25" x="934" y="25"/><text fill="#000000" font-family="sans-serif" font-size="7" lengthAdjust="spacing" textLength="18" x="937.5" y="36.0537">Team</text><rect fill="#E3E3E3" height="16.3105" rx="1.25" ry="1.25" style="stroke:#181818;stroke-width:0.25;" width="25" x="934" y="790.2471"/><text fill="#000000" font-family="sans-serif" font-size="7" lengthAdjust="spacing" textLength="18" x="937.5" y="801.3008">Team</text><rect fill="#E3E3E3" height="25.6211" rx="1.25" ry="1.25" style="stroke:#181818;stroke-width:0.25;" width="59" x="964" y="15.6895"/><text fill="#000000" font-family="sans-serif" font-size="7" lengthAdjust="spacing" textLength="51.5" x="967.75" y="26.7432">teamRepository:</text><text fill="#000000" font-family="sans-serif" font-size="7" lengthAdjust="spacing" textLength="52" x="967.5" y="36.0537">TeamRepository</text><rect fill="#E3E3E3" height="25.6211" rx="1.25" ry="1.25" style="stroke:#181818;stroke-width:0.25;" width="59" x="964" y="790.2471"/><text fill="#000000" font-family="sans-serif" font-size="7" lengthAdjust="spacing" textLength="51.5" x="967.75" y="801.3008">teamRepository:</text><text fill="#000000" font-family="sans-serif" font-size="7" lengthAdjust="spacing" textLength="52" x="967.5" y="810.6113">TeamRepository</text><rect fill="#E3E3E3" height="16.3105" rx="1.25" ry="1.25" style="stroke:#181818;stroke-width:0.25;" width="49" x="1028" y="25"/><text fill="#000000" font-family="sans-serif" font-size="7" lengthAdjust="spacing" textLength="42" x="1031.5" y="36.0537">TeamMapper</text><rect fill="#E3E3E3" height="16.3105" rx="1.25" ry="1.25" style="stroke:#181818;stroke-width:0.25;" width="49" x="1028" y="790.2471"/><text fill="#000000" font-family="sans-serif" font-size="7" lengthAdjust="spacing" textLength="42" x="1031.5" y="801.3008">TeamMapper</text><rect fill="#E3E3E3" height="16.3105" rx="1.25" ry="1.25" style="stroke:#181818;stroke-width:0.25;" width="40" x="1128.5" y="25"/><text fill="#000000" font-family="sans-serif" font-size="7" lengthAdjust="spacing" textLength="33" x="1132" y="36.0537">TeamDTO</text><rect fill="#E3E3E3" height="16.3105" rx="1.25" ry="1.25" style="stroke:#181818;stroke-width:0.25;" width="40" x="1128.5" y="790.2471"/><text fill="#000000" font-family="sans-serif" font-size="7" lengthAdjust="spacing" textLength="33" x="1132" y="801.3008">TeamDTO</text><rect fill="#E3E3E3" height="16.3105" rx="1.25" ry="1.25" style="stroke:#181818;stroke-width:0.25;" width="64" x="1173.5" y="790.2471"/><text fill="#000000" font-family="sans-serif" font-size="7" lengthAdjust="spacing" textLength="57" x="1177" y="801.3008">ApllicationSession</text><rect fill="#FFFFFF" height="734.9365" style="stroke:#181818;stroke-width:0.5;" width="5" x="9.25" y="46.8105"/><rect fill="#FFFFFF" height="727.791" style="stroke:#181818;stroke-width:0.5;" width="5" x="189.25" y="58.4561"/><rect fill="#FFFFFF" height="216.2412" style="stroke:#181818;stroke-width:0.5;" width="5" x="357.75" y="79.1016"/><rect fill="#FFFFFF" height="77.582" style="stroke:#181818;stroke-width:0.5;" width="5" x="357.75" y="349.4443"/><rect fill="#FFFFFF" height="46.291" style="stroke:#181818;stroke-width:0.5;" width="5" x="357.75" y="474.9629"/><rect fill="#FFFFFF" height="193.7656" style="stroke:#181818;stroke-width:0.5;" width="5" x="357.75" y="592.4814"/><rect fill="#FFFFFF" height="15.6455" style="stroke:#181818;stroke-width:0.5;" width="5" x="463.25" y="139.5332"/><rect fill="#FFFFFF" height="15.6455" style="stroke:#181818;stroke-width:0.5;" width="5" x="516.75" y="170.8242"/><rect fill="#FFFFFF" height="15.6455" style="stroke:#181818;stroke-width:0.5;" width="5" x="516.75" y="202.1152"/><rect fill="#FFFFFF" height="15.6455" style="stroke:#181818;stroke-width:0.5;" width="5" x="587.75" y="249.0518"/><rect fill="#FFFFFF" height="84.3926" style="stroke:#181818;stroke-width:0.5;" width="5" x="587.75" y="623.127"/><rect fill="#FFFFFF" height="69.1016" style="stroke:#181818;stroke-width:0.5;" width="5" x="670.5" y="280.3428"/><rect fill="#FFFFFF" height="8.665" style="stroke:#181818;stroke-width:0.5;" width="5" x="842" y="329.1338"/><rect fill="#FFFFFF" height="15.6455" style="stroke:#181818;stroke-width:0.5;" width="5" x="991" y="380.7354"/><rect fill="#FFFFFF" height="77.9365" style="stroke:#181818;stroke-width:0.5;" width="5" x="1050" y="412.0264"/><rect fill="#FFFFFF" height="7.5" style="stroke:#181818;stroke-width:0.5;" width="5" x="1146" y="455.8174"/><polygon fill="#181818" points="183.25,56.4561,188.25,58.4561,183.25,60.4561,185.25,58.4561" style="stroke:#181818;stroke-width:0.5;"/><line style="stroke:#181818;stroke-width:0.5;" x1="14.25" x2="186.25" y1="58.4561" y2="58.4561"/><text fill="#000000" font-family="sans-serif" font-size="6.5" font-weight="bold" lengthAdjust="spacing" textLength="3.5" x="17.75" y="55.8247">1</text><text fill="#000000" font-family="sans-serif" font-size="6.5" lengthAdjust="spacing" textLength="120.5" x="23.25" y="55.8247">asks to assign a team to an agenda entry</text><polygon fill="#181818" points="299.5,72.1016,304.5,74.1016,299.5,76.1016,301.5,74.1016" style="stroke:#181818;stroke-width:0.5;"/><line style="stroke:#181818;stroke-width:0.5;" x1="194.25" x2="302.5" y1="74.1016" y2="74.1016"/><text fill="#000000" font-family="sans-serif" font-size="6.5" font-weight="bold" lengthAdjust="spacing" textLength="3.5" x="197.75" y="71.4702">2</text><text fill="#000000" font-family="sans-serif" font-size="6.5" lengthAdjust="spacing" textLength="18" x="203.25" y="71.4702">create</text><rect fill="#E3E3E3" height="16.3105" rx="1.25" ry="1.25" style="stroke:#181818;stroke-width:0.25;" width="109.5" x="305.5" y="62.4561"/><text fill="#000000" font-family="sans-serif" font-size="7" lengthAdjust="spacing" textLength="100.5" x="309" y="73.5098">:TeamToAgendaEntryController</text><polygon fill="#181818" points="631,93.9121,636,95.9121,631,97.9121,633,95.9121" style="stroke:#181818;stroke-width:0.5;"/><line style="stroke:#181818;stroke-width:0.5;" x1="362.75" x2="634" y1="95.9121" y2="95.9121"/><text fill="#000000" font-family="sans-serif" font-size="6.5" font-weight="bold" lengthAdjust="spacing" textLength="3.5" x="366.25" y="93.2808">3</text><text fill="#000000" font-family="sans-serif" font-size="6.5" lengthAdjust="spacing" textLength="18" x="371.75" y="93.2808">create</text><rect fill="#E3E3E3" height="16.3105" rx="1.25" ry="1.25" style="stroke:#181818;stroke-width:0.25;" width="72" x="637" y="84.2666"/><text fill="#000000" font-family="sans-serif" font-size="7" lengthAdjust="spacing" textLength="65" x="640.5" y="95.3203">AgendaEntryMapper</text><polygon fill="#181818" points="1167.5,115.7227,1172.5,117.7227,1167.5,119.7227,1169.5,117.7227" style="stroke:#181818;stroke-width:0.5;"/><line style="stroke:#181818;stroke-width:0.5;" x1="362.75" x2="1170.5" y1="117.7227" y2="117.7227"/><text fill="#000000" font-family="sans-serif" font-size="6.5" font-weight="bold" lengthAdjust="spacing" textLength="3.5" x="366.25" y="115.0913">4</text><text fill="#000000" font-family="sans-serif" font-size="6.5" lengthAdjust="spacing" textLength="18" x="371.75" y="115.0913">create</text><rect fill="#E3E3E3" height="16.3105" rx="1.25" ry="1.25" style="stroke:#181818;stroke-width:0.25;" width="64" x="1173.5" y="106.0771"/><text fill="#000000" font-family="sans-serif" font-size="7" lengthAdjust="spacing" textLength="57" x="1177" y="117.1309">ApllicationSession</text><polygon fill="#181818" points="457.25,137.5332,462.25,139.5332,457.25,141.5332,459.25,139.5332" style="stroke:#181818;stroke-width:0.5;"/><line style="stroke:#181818;stroke-width:0.5;" x1="362.75" x2="460.25" y1="139.5332" y2="139.5332"/><text fill="#000000" font-family="sans-serif" font-size="6.5" font-weight="bold" lengthAdjust="spacing" textLength="3.5" x="366.25" y="136.9019">5</text><text fill="#000000" font-family="sans-serif" font-size="6.5" lengthAdjust="spacing" textLength="37.5" x="371.75" y="136.9019">getInstance()</text><polygon fill="#181818" points="368.25,153.1787,363.25,155.1787,368.25,157.1787,366.25,155.1787" style="stroke:#181818;stroke-width:0.5;"/><line style="stroke:#181818;stroke-width:0.5;stroke-dasharray:2.0,2.0;" x1="365.25" x2="465.25" y1="155.1787" y2="155.1787"/><text fill="#000000" font-family="sans-serif" font-size="6.5" font-weight="bold" lengthAdjust="spacing" textLength="3.5" x="371.25" y="152.5474">6</text><text fill="#000000" font-family="sans-serif" font-size="6.5" lengthAdjust="spacing" textLength="33.5" x="376.75" y="152.5474">repositories</text><polygon fill="#181818" points="510.75,168.8242,515.75,170.8242,510.75,172.8242,512.75,170.8242" style="stroke:#181818;stroke-width:0.5;"/><line style="stroke:#181818;stroke-width:0.5;" x1="362.75" x2="513.75" y1="170.8242" y2="170.8242"/><text fill="#000000" font-family="sans-serif" font-size="6.5" font-weight="bold" lengthAdjust="spacing" textLength="3.5" x="366.25" y="168.1929">7</text><text fill="#000000" font-family="sans-serif" font-size="6.5" lengthAdjust="spacing" textLength="81.5" x="371.75" y="168.1929">getAgendaEntryRepository()</text><polygon fill="#181818" points="368.25,184.4697,363.25,186.4697,368.25,188.4697,366.25,186.4697" style="stroke:#181818;stroke-width:0.5;"/><line style="stroke:#181818;stroke-width:0.5;stroke-dasharray:2.0,2.0;" x1="365.25" x2="518.75" y1="186.4697" y2="186.4697"/><text fill="#000000" font-family="sans-serif" font-size="6.5" font-weight="bold" lengthAdjust="spacing" textLength="3.5" x="371.25" y="183.8384">8</text><text fill="#000000" font-family="sans-serif" font-size="6.5" lengthAdjust="spacing" textLength="72.5" x="376.75" y="183.8384">AgendaEntryRepository()</text><polygon fill="#181818" points="510.75,200.1152,515.75,202.1152,510.75,204.1152,512.75,202.1152" style="stroke:#181818;stroke-width:0.5;"/><line style="stroke:#181818;stroke-width:0.5;" x1="362.75" x2="513.75" y1="202.1152" y2="202.1152"/><text fill="#000000" font-family="sans-serif" font-size="6.5" font-weight="bold" lengthAdjust="spacing" textLength="3.5" x="366.25" y="199.4839">9</text><text fill="#000000" font-family="sans-serif" font-size="6.5" lengthAdjust="spacing" textLength="53.5" x="371.75" y="199.4839">getTeamrepository</text><polygon fill="#181818" points="368.25,215.7607,363.25,217.7607,368.25,219.7607,366.25,217.7607" style="stroke:#181818;stroke-width:0.5;"/><line style="stroke:#181818;stroke-width:0.5;stroke-dasharray:2.0,2.0;" x1="365.25" x2="518.75" y1="217.7607" y2="217.7607"/><text fill="#000000" font-family="sans-serif" font-size="6.5" font-weight="bold" lengthAdjust="spacing" textLength="7" x="371.25" y="215.1294">10</text><text fill="#000000" font-family="sans-serif" font-size="6.5" lengthAdjust="spacing" textLength="45.5" x="380.25" y="215.1294">teamRepository</text><polygon fill="#181818" points="351.75,231.4063,356.75,233.4063,351.75,235.4063,353.75,233.4063" style="stroke:#181818;stroke-width:0.5;"/><line style="stroke:#181818;stroke-width:0.5;" x1="194.25" x2="354.75" y1="233.4063" y2="233.4063"/><text fill="#000000" font-family="sans-serif" font-size="6.5" font-weight="bold" lengthAdjust="spacing" textLength="7" x="197.75" y="230.7749">11</text><text fill="#000000" font-family="sans-serif" font-size="6.5" lengthAdjust="spacing" textLength="74" x="206.75" y="230.7749">getAgendaEntryDTOList()</text><polygon fill="#181818" points="581.75,247.0518,586.75,249.0518,581.75,251.0518,583.75,249.0518" style="stroke:#181818;stroke-width:0.5;"/><line style="stroke:#181818;stroke-width:0.5;" x1="362.75" x2="584.75" y1="249.0518" y2="249.0518"/><text fill="#000000" font-family="sans-serif" font-size="6.5" font-weight="bold" lengthAdjust="spacing" textLength="7" x="366.25" y="246.4204">12</text><text fill="#000000" font-family="sans-serif" font-size="6.5" lengthAdjust="spacing" textLength="61" x="375.25" y="246.4204">getAgendaEntryList()</text><polygon fill="#181818" points="368.25,262.6973,363.25,264.6973,368.25,266.6973,366.25,264.6973" style="stroke:#181818;stroke-width:0.5;"/><line style="stroke:#181818;stroke-width:0.5;stroke-dasharray:2.0,2.0;" x1="365.25" x2="589.75" y1="264.6973" y2="264.6973"/><text fill="#000000" font-family="sans-serif" font-size="6.5" font-weight="bold" lengthAdjust="spacing" textLength="7" x="371.25" y="262.0659">13</text><text fill="#000000" font-family="sans-serif" font-size="6.5" lengthAdjust="spacing" textLength="47" x="380.25" y="262.0659">agendaEntryList</text><polygon fill="#181818" points="664.5,278.3428,669.5,280.3428,664.5,282.3428,666.5,280.3428" style="stroke:#181818;stroke-width:0.5;"/><line style="stroke:#181818;stroke-width:0.5;" x1="362.75" x2="667.5" y1="280.3428" y2="280.3428"/><text fill="#000000" font-family="sans-serif" font-size="6.5" font-weight="bold" lengthAdjust="spacing" textLength="7" x="366.25" y="277.7114">14</text><text fill="#000000" font-family="sans-serif" font-size="6.5" lengthAdjust="spacing" textLength="77" x="375.25" y="277.7114">toDtoList(agendaEntryList)</text><path d="M632,302.8428 L668.5,302.8428 L668.5,307.4883 L663.5,312.4883 L632,312.4883 L632,302.8428 " fill="#EEEEEE" style="stroke:#000000;stroke-width:0.75;"/><rect fill="none" height="31.4561" style="stroke:#000000;stroke-width:0.75;" width="249" x="632" y="302.8428"/><text fill="#000000" font-family="sans-serif" font-size="6.5" font-weight="bold" lengthAdjust="spacing" textLength="14" x="639.5" y="310.3569">loop</text><text fill="#000000" font-family="sans-serif" font-size="5.5" font-weight="bold" lengthAdjust="spacing" textLength="114.5" x="676" y="309.7778">[for each agendaEntry in agendaEntryList]</text><polygon fill="#181818" points="807,322.1338,812,324.1338,807,326.1338,809,324.1338" style="stroke:#181818;stroke-width:0.5;"/><line style="stroke:#181818;stroke-width:0.5;" x1="675.5" x2="810" y1="324.1338" y2="324.1338"/><text fill="#000000" font-family="sans-serif" font-size="6.5" font-weight="bold" lengthAdjust="spacing" textLength="7" x="679" y="321.5024">15</text><text fill="#000000" font-family="sans-serif" font-size="6.5" lengthAdjust="spacing" textLength="116.5" x="688" y="321.5024">agendaEntryDTO = toDTO(agendaEntry)</text><rect fill="#E3E3E3" height="16.3105" rx="1.25" ry="1.25" style="stroke:#181818;stroke-width:0.25;" width="63" x="813" y="312.4883"/><text fill="#000000" font-family="sans-serif" font-size="7" lengthAdjust="spacing" textLength="56" x="816.5" y="323.542">AgendaEntryDTO</text><polygon fill="#181818" points="368.25,347.4443,363.25,349.4443,368.25,351.4443,366.25,349.4443" style="stroke:#181818;stroke-width:0.5;"/><line style="stroke:#181818;stroke-width:0.5;stroke-dasharray:2.0,2.0;" x1="365.25" x2="672.5" y1="349.4443" y2="349.4443"/><text fill="#000000" font-family="sans-serif" font-size="6.5" font-weight="bold" lengthAdjust="spacing" textLength="7" x="371.25" y="346.813">16</text><text fill="#000000" font-family="sans-serif" font-size="6.5" lengthAdjust="spacing" textLength="60" x="380.25" y="346.813">agendaEntryDTOList</text><polygon fill="#181818" points="351.75,363.0898,356.75,365.0898,351.75,367.0898,353.75,365.0898" style="stroke:#181818;stroke-width:0.5;"/><line style="stroke:#181818;stroke-width:0.5;" x1="194.25" x2="354.75" y1="365.0898" y2="365.0898"/><text fill="#000000" font-family="sans-serif" font-size="6.5" font-weight="bold" lengthAdjust="spacing" textLength="7" x="197.75" y="362.4585">17</text><text fill="#000000" font-family="sans-serif" font-size="6.5" lengthAdjust="spacing" textLength="52.5" x="206.75" y="362.4585">getTeamDTOList()</text><polygon fill="#181818" points="985,378.7354,990,380.7354,985,382.7354,987,380.7354" style="stroke:#181818;stroke-width:0.5;"/><line style="stroke:#181818;stroke-width:0.5;" x1="362.75" x2="988" y1="380.7354" y2="380.7354"/><text fill="#000000" font-family="sans-serif" font-size="6.5" font-weight="bold" lengthAdjust="spacing" textLength="7" x="366.25" y="378.104">18</text><text fill="#000000" font-family="sans-serif" font-size="6.5" lengthAdjust="spacing" textLength="64" x="375.25" y="378.104">showAvailableTeams()</text><polygon fill="#181818" points="368.25,394.3809,363.25,396.3809,368.25,398.3809,366.25,396.3809" style="stroke:#181818;stroke-width:0.5;"/><line style="stroke:#181818;stroke-width:0.5;stroke-dasharray:2.0,2.0;" x1="365.25" x2="993" y1="396.3809" y2="396.3809"/><text fill="#000000" font-family="sans-serif" font-size="6.5" font-weight="bold" lengthAdjust="spacing" textLength="7" x="371.25" y="393.7495">19</text><text fill="#000000" font-family="sans-serif" font-size="6.5" lengthAdjust="spacing" textLength="25" x="380.25" y="393.7495">teamList</text><polygon fill="#181818" points="1044,410.0264,1049,412.0264,1044,414.0264,1046,412.0264" style="stroke:#181818;stroke-width:0.5;"/><line style="stroke:#181818;stroke-width:0.5;" x1="362.75" x2="1047" y1="412.0264" y2="412.0264"/><text fill="#000000" font-family="sans-serif" font-size="6.5" font-weight="bold" lengthAdjust="spacing" textLength="7" x="366.25" y="409.395">20</text><text fill="#000000" font-family="sans-serif" font-size="6.5" lengthAdjust="spacing" textLength="55" x="375.25" y="409.395">toDtoList(teamList)</text><path d="M1023,434.5264 L1059.5,434.5264 L1059.5,439.1719 L1054.5,444.1719 L1023,444.1719 L1023,434.5264 " fill="#EEEEEE" style="stroke:#000000;stroke-width:0.75;"/><rect fill="none" height="25.291" style="stroke:#000000;stroke-width:0.75;" width="150.5" x="1023" y="434.5264"/><text fill="#000000" font-family="sans-serif" font-size="6.5" font-weight="bold" lengthAdjust="spacing" textLength="14" x="1030.5" y="442.0405">loop</text><a href="for" target="_top" title="for" xlink:actuate="onRequest" xlink:href="for" xlink:show="new" xlink:title="for" xlink:type="simple"><text fill="#1D1D1D" font-family="sans-serif" font-size="5.5" font-weight="bold" lengthAdjust="spacing" text-decoration="underline" textLength="64" x="1067" y="441.4614">each Team in TeamList</text></a><polygon fill="#181818" points="1140,453.8174,1145,455.8174,1140,457.8174,1142,455.8174" style="stroke:#181818;stroke-width:0.5;"/><line style="stroke:#181818;stroke-width:0.5;" x1="1055" x2="1143" y1="455.8174" y2="455.8174"/><text fill="#000000" font-family="sans-serif" font-size="6.5" font-weight="bold" lengthAdjust="spacing" textLength="7" x="1058.5" y="453.186">21</text><text fill="#000000" font-family="sans-serif" font-size="6.5" lengthAdjust="spacing" textLength="72.5" x="1067.5" y="453.186">teamDTO = toDTO(team)</text><polygon fill="#181818" points="368.25,472.9629,363.25,474.9629,368.25,476.9629,366.25,474.9629" style="stroke:#181818;stroke-width:0.5;"/><line style="stroke:#181818;stroke-width:0.5;stroke-dasharray:2.0,2.0;" x1="365.25" x2="1049.5" y1="474.9629" y2="474.9629"/><text fill="#000000" font-family="sans-serif" font-size="6.5" font-weight="bold" lengthAdjust="spacing" textLength="7" x="371.25" y="472.3315">22</text><text fill="#000000" font-family="sans-serif" font-size="6.5" lengthAdjust="spacing" textLength="39.5" x="380.25" y="472.3315">TeamDTOList</text><polygon fill="#181818" points="199.75,503.6084,194.75,505.6084,199.75,507.6084,197.75,505.6084" style="stroke:#181818;stroke-width:0.5;"/><line style="stroke:#181818;stroke-width:0.5;stroke-dasharray:2.0,2.0;" x1="196.75" x2="357.25" y1="505.6084" y2="505.6084"/><text fill="#000000" font-family="sans-serif" font-size="6.5" font-weight="bold" lengthAdjust="spacing" textLength="7" x="202.75" y="502.9771">23</text><text fill="#000000" font-family="sans-serif" font-size="6.5" lengthAdjust="spacing" textLength="60" x="211.75" y="502.9771">agendaEntryDTOList</text><polygon fill="#181818" points="199.75,519.2539,194.75,521.2539,199.75,523.2539,197.75,521.2539" style="stroke:#181818;stroke-width:0.5;"/><line style="stroke:#181818;stroke-width:0.5;stroke-dasharray:2.0,2.0;" x1="196.75" x2="359.75" y1="521.2539" y2="521.2539"/><text fill="#000000" font-family="sans-serif" font-size="6.5" font-weight="bold" lengthAdjust="spacing" textLength="7" x="202.75" y="518.6226">24</text><text fill="#000000" font-family="sans-serif" font-size="6.5" lengthAdjust="spacing" textLength="38" x="211.75" y="518.6226">teamDTOList</text><polygon fill="#181818" points="19.75,543.5449,14.75,545.5449,19.75,547.5449,17.75,545.5449" style="stroke:#181818;stroke-width:0.5;"/><line style="stroke:#181818;stroke-width:0.5;stroke-dasharray:2.0,2.0;" x1="16.75" x2="188.75" y1="545.5449" y2="545.5449"/><text fill="#000000" font-family="sans-serif" font-size="6.5" font-weight="bold" lengthAdjust="spacing" textLength="7" x="22.75" y="538.5908">25</text><text fill="#000000" font-family="sans-serif" font-size="6.5" lengthAdjust="spacing" textLength="109.5" x="31.75" y="534.2681">shows the list of entries in the agenda</text><text fill="#000000" font-family="sans-serif" font-size="6.5" lengthAdjust="spacing" textLength="152" x="33.75" y="542.9136">and the list of  teams and asks to select one of each</text><polygon fill="#181818" points="183.25,559.1904,188.25,561.1904,183.25,563.1904,185.25,561.1904" style="stroke:#181818;stroke-width:0.5;"/><line style="stroke:#181818;stroke-width:0.5;" x1="14.25" x2="186.25" y1="561.1904" y2="561.1904"/><text fill="#000000" font-family="sans-serif" font-size="6.5" font-weight="bold" lengthAdjust="spacing" textLength="7" x="17.75" y="558.5591">26</text><text fill="#000000" font-family="sans-serif" font-size="6.5" lengthAdjust="spacing" textLength="66.5" x="26.75" y="558.5591">selects entry and team</text><polygon fill="#181818" points="838.5,574.8359,843.5,576.8359,838.5,578.8359,840.5,576.8359" style="stroke:#181818;stroke-width:0.5;"/><line style="stroke:#181818;stroke-width:0.5;" x1="194.25" x2="841.5" y1="576.8359" y2="576.8359"/><text fill="#000000" font-family="sans-serif" font-size="6.5" font-weight="bold" lengthAdjust="spacing" textLength="7" x="197.75" y="574.2046">27</text><text fill="#000000" font-family="sans-serif" font-size="6.5" lengthAdjust="spacing" textLength="130.5" x="206.75" y="574.2046">create(create(description, greenSpace, team)</text><polygon fill="#181818" points="351.75,590.4814,356.75,592.4814,351.75,594.4814,353.75,592.4814" style="stroke:#181818;stroke-width:0.5;"/><line style="stroke:#181818;stroke-width:0.5;" x1="194.25" x2="354.75" y1="592.4814" y2="592.4814"/><text fill="#000000" font-family="sans-serif" font-size="6.5" font-weight="bold" lengthAdjust="spacing" textLength="7" x="197.75" y="589.8501">28</text><text fill="#000000" font-family="sans-serif" font-size="6.5" lengthAdjust="spacing" textLength="145" x="206.75" y="589.8501">assignTeamToAgendaEntry(AgendaEntryDTO dto)</text><polygon fill="#181818" points="581.75,621.127,586.75,623.127,581.75,625.127,583.75,623.127" style="stroke:#181818;stroke-width:0.5;"/><line style="stroke:#181818;stroke-width:0.5;" x1="362.75" x2="584.75" y1="623.127" y2="623.127"/><text fill="#000000" font-family="sans-serif" font-size="6.5" font-weight="bold" lengthAdjust="spacing" textLength="7" x="366.25" y="620.4956">29</text><text fill="#000000" font-family="sans-serif" font-size="6.5" lengthAdjust="spacing" textLength="120.5" x="375.25" y="620.4956">getAgendaEntry(description, greenSpace)</text><polygon fill="#181818" points="368.25,636.7725,363.25,638.7725,368.25,640.7725,366.25,638.7725" style="stroke:#181818;stroke-width:0.5;"/><line style="stroke:#181818;stroke-width:0.5;stroke-dasharray:2.0,2.0;" x1="365.25" x2="587.25" y1="638.7725" y2="638.7725"/><text fill="#000000" font-family="sans-serif" font-size="6.5" font-weight="bold" lengthAdjust="spacing" textLength="7" x="371.25" y="636.1411">30</text><text fill="#000000" font-family="sans-serif" font-size="6.5" lengthAdjust="spacing" textLength="36.5" x="380.25" y="636.1411">agendaEntry</text><polygon fill="#181818" points="875,652.418,880,654.418,875,656.418,877,654.418" style="stroke:#181818;stroke-width:0.5;"/><line style="stroke:#181818;stroke-width:0.5;" x1="362.75" x2="878" y1="654.418" y2="654.418"/><text fill="#000000" font-family="sans-serif" font-size="6.5" font-weight="bold" lengthAdjust="spacing" textLength="7" x="366.25" y="651.7866">31</text><text fill="#000000" font-family="sans-serif" font-size="6.5" lengthAdjust="spacing" textLength="18" x="375.25" y="651.7866">create</text><rect fill="#E3E3E3" height="16.3105" rx="1.25" ry="1.25" style="stroke:#181818;stroke-width:0.25;" width="48" x="881" y="642.7725"/><text fill="#000000" font-family="sans-serif" font-size="7" lengthAdjust="spacing" textLength="41" x="884.5" y="653.8262">AgendaEntry</text><polygon fill="#181818" points="581.75,674.2285,586.75,676.2285,581.75,678.2285,583.75,676.2285" style="stroke:#181818;stroke-width:0.5;"/><line style="stroke:#181818;stroke-width:0.5;" x1="362.75" x2="584.75" y1="676.2285" y2="676.2285"/><text fill="#000000" font-family="sans-serif" font-size="6.5" font-weight="bold" lengthAdjust="spacing" textLength="7" x="366.25" y="673.5972">32</text><text fill="#000000" font-family="sans-serif" font-size="6.5" lengthAdjust="spacing" textLength="94.5" x="375.25" y="673.5972">updateTeam(agendaEntry, team)</text><polygon fill="#181818" points="899,689.874,904,691.874,899,693.874,901,691.874" style="stroke:#181818;stroke-width:0.5;"/><line style="stroke:#181818;stroke-width:0.5;" x1="592.75" x2="902" y1="691.874" y2="691.874"/><text fill="#000000" font-family="sans-serif" font-size="6.5" font-weight="bold" lengthAdjust="spacing" textLength="7" x="596.25" y="689.2427">33</text><text fill="#000000" font-family="sans-serif" font-size="6.5" lengthAdjust="spacing" textLength="76" x="605.25" y="689.2427">setAssociatedTeam(team)</text><polygon fill="#181818" points="368.25,705.5195,363.25,707.5195,368.25,709.5195,366.25,707.5195" style="stroke:#181818;stroke-width:0.5;"/><line style="stroke:#181818;stroke-width:0.5;stroke-dasharray:2.0,2.0;" x1="365.25" x2="589.75" y1="707.5195" y2="707.5195"/><text fill="#000000" font-family="sans-serif" font-size="6.5" font-weight="bold" lengthAdjust="spacing" textLength="7" x="371.25" y="704.8882">34</text><text fill="#000000" font-family="sans-serif" font-size="6.5" lengthAdjust="spacing" textLength="52.5" x="380.25" y="704.8882">success/insucess</text><line style="stroke:#181818;stroke-width:0.5;" x1="362.75" x2="383.75" y1="728.2378" y2="728.2378"/><line style="stroke:#181818;stroke-width:0.5;" x1="383.75" x2="383.75" y1="728.2378" y2="734.7378"/><line style="stroke:#181818;stroke-width:0.5;" x1="360.25" x2="383.75" y1="734.7378" y2="734.7378"/><polygon fill="#181818" points="365.25,732.7378,360.25,734.7378,365.25,736.7378,363.25,734.7378" style="stroke:#181818;stroke-width:0.5;"/><text fill="#000000" font-family="sans-serif" font-size="6.5" font-weight="bold" lengthAdjust="spacing" textLength="7" x="366.25" y="725.6064">35</text><text fill="#000000" font-family="sans-serif" font-size="6.5" lengthAdjust="spacing" textLength="84.5" x="375.25" y="725.6064">sendNotificationEmails(team)</text><path d="M228,714.0195 L228,736.0195 L355,736.0195 L355,719.0195 L350,714.0195 L228,714.0195 " fill="#FAFAFA" style="stroke:#181818;stroke-width:0.25;"/><path d="M350,714.0195 L350,719.0195 L355,719.0195 L350,714.0195 " fill="#FAFAFA" style="stroke:#181818;stroke-width:0.25;"/><text fill="#000000" font-family="sans-serif" font-size="6.5" lengthAdjust="spacing" textLength="116.5" x="231" y="723.5337">gets the collaborators for each team and</text><text fill="#000000" font-family="sans-serif" font-size="6.5" lengthAdjust="spacing" textLength="99.5" x="231" y="732.1792">gets the email of each collaborator</text><polygon fill="#181818" points="1199.5,748.4561,1204.5,750.4561,1199.5,752.4561,1201.5,750.4561" style="stroke:#181818;stroke-width:0.5;"/><line style="stroke:#181818;stroke-width:0.5;" x1="362.75" x2="1202.5" y1="750.4561" y2="750.4561"/><text fill="#000000" font-family="sans-serif" font-size="6.5" font-weight="bold" lengthAdjust="spacing" textLength="7" x="366.25" y="747.8247">36</text><text fill="#000000" font-family="sans-serif" font-size="6.5" lengthAdjust="spacing" textLength="68" x="375.25" y="747.8247">sendEmail(email, body)</text><polygon fill="#181818" points="199.75,764.1016,194.75,766.1016,199.75,768.1016,197.75,766.1016" style="stroke:#181818;stroke-width:0.5;"/><line style="stroke:#181818;stroke-width:0.5;stroke-dasharray:2.0,2.0;" x1="196.75" x2="357.25" y1="766.1016" y2="766.1016"/><text fill="#000000" font-family="sans-serif" font-size="6.5" font-weight="bold" lengthAdjust="spacing" textLength="7" x="202.75" y="763.4702">37</text><text fill="#000000" font-family="sans-serif" font-size="6.5" lengthAdjust="spacing" textLength="56" x="211.75" y="763.4702">success/insuccess</text><polygon fill="#181818" points="17.25,779.7471,12.25,781.7471,17.25,783.7471,15.25,781.7471" style="stroke:#181818;stroke-width:0.5;"/><line style="stroke:#181818;stroke-width:0.5;stroke-dasharray:2.0,2.0;" x1="14.25" x2="188.75" y1="781.7471" y2="781.7471"/><text fill="#000000" font-family="sans-serif" font-size="6.5" font-weight="bold" lengthAdjust="spacing" textLength="7" x="20.25" y="779.1157">38</text><text fill="#000000" font-family="sans-serif" font-size="6.5" lengthAdjust="spacing" textLength="84.5" x="29.25" y="779.1157">shows (in))success message</text><!--SRC=[bLV1Rjim3BthAuHUbXGjTW-m0S5Q30NM5LYoqxA3OYk9K4SoBALT_dwaBDkI9JbD3eaZau-F52bI-bN8cZNiI8zAgkBGg2EdfZbnelitDIjUsPwlpBdYjE65ON9V-GBwm4hrBkIUxbYbEI7iP9Gy7RUy8UJJGPISxfGoM_MFiCAeXjvyNptVKAOf_1B0CA8GDPE6tYoMUovBzYXDS_xzP6LEOYIovkouLfxWDmNVggeu8AD6OPfgfFEBrqeBi2sujZBzmdabq1qW7AeqdiP6nW1rnKoemGP60_fY8vUfTOlHQk1YYEHfFBEwveqdtIu4yfxum_e5HSELBBW7Q_-7WXXdAs7W8No5Au6Fws2XrufTGq7dK_m2k5fLzppYNLULA9WHIgwurl3JqgzhGZ2ln1ipt6OKeQCFBDBxhv19T04ghy1DmQyMUqcPvMaNf0i5vJOM4Kfl0p8oUWdOO04px_OMh1GD1ya939kZqMjS1HX_ftsub3YQ1S59gvrS8kb1Qy_DazHGrGMVpVECKnKJIUCdPUNU1MT1_RgAr4j-dRdECIp6rfDaiKsvPUiuwOS57OX_5Ddp8OtjDXbVMigOxNrKpjSonTM1P5YOv7fo9z5ZXT64UlmXj067yzimd6VHPZZTh7FUKHWB3R23fop4dl9q2ZkatfOSa3VgmIZBUMJdeWlkV9wWqvP-d7ALKZKqoeQ2wC7tZmePkHkh1nw0H-7UsVE1XOtY2xgvVl5TdATAeMS-QYkn9BoUydoaJwPTS5iTyVxOTcVsuS81F1pZOBOhJY_rS-dJrHrewODwNxunKR5jnL5TJ-LztoKZaHuohEvBtkS1Ewv-3mOdXrJlu2Ve1ltxKeud4vp-wLCSiJ2tryxktvYpRm-vk-reG-7dCFwVuDrD5EJAZEtqfddr6-HbIwgbJ8V7jpiPPxUJ_KHpkJfyZJvsbp8fJH8h171Wf6fJ7OQf0wSLO56riwCJD7RSLLnkgMtW-99b86SvQBlS3MIQLt2te4fo2mG9aZYB-abkuUHrEwsr1d1EJJ6-_ngUFDsaD7C_9TT58seSBU_elk5Shk3Im-zecrKPJDU7x1mPtKbcew6yD6fEw9MdqSJPII_tu74BphcPElEJlJFRTF1riZEJIpojrErjTi9DkdMgIv35aFkjAxzR_lmG6COaCakjLI40iBI83kH3dkfJKS1LvBEGy0GFoJ5osCFSAEZ00F-dCcBdBZcFH-WXEdEmHUsk3NVAlbGWLF5TEsosvLh0RPbjLSDWIjJ3p66lGb196zbBScJH5MIWbxsyr3NsJdJ7kZ2p47TqgyfpVdZiYjgFQ3AalkTmzKiKPdWwpOISpnqOFS8Nn8iG3mLlZFy1]--></g></svg>