<?xml version="1.0" encoding="us-ascii" standalone="no"?><svg xmlns="http://www.w3.org/2000/svg" xmlns:xlink="http://www.w3.org/1999/xlink" contentStyleType="text/css" height="686px" preserveAspectRatio="none" style="width:1923px;height:686px;background:#FFFFFF;" version="1.1" viewBox="0 0 1923 686" width="1923px" zoomAndPan="magnify"><defs/><g><rect fill="#FFFFFF" height="468.6563" style="stroke:#181818;stroke-width:1.0;" width="10" x="18.5" y="116.9121"/><rect fill="#FFFFFF" height="477.6563" style="stroke:#181818;stroke-width:1.0;" width="10" x="235.5" y="116.9121"/><rect fill="#FFFFFF" height="446.3652" style="stroke:#181818;stroke-width:1.0;" width="10" x="590.5" y="148.2031"/><rect fill="#FFFFFF" height="42.9365" style="stroke:#181818;stroke-width:1.0;" width="10" x="928.5" y="191.1396"/><rect fill="#FFFFFF" height="62.582" style="stroke:#181818;stroke-width:1.0;" width="10" x="928.5" y="351.2402"/><rect fill="#FFFFFF" height="42.9365" style="stroke:#181818;stroke-width:1.0;" width="10" x="1081" y="277.0127"/><line style="stroke:#181818;stroke-width:0.5;stroke-dasharray:5.0,5.0;" x1="23" x2="23" y1="83.6211" y2="603.5684"/><line style="stroke:#181818;stroke-width:0.5;stroke-dasharray:5.0,5.0;" x1="240.5" x2="240.5" y1="83.6211" y2="603.5684"/><line style="stroke:#181818;stroke-width:0.5;stroke-dasharray:5.0,5.0;" x1="595" x2="595" y1="83.6211" y2="603.5684"/><line style="stroke:#181818;stroke-width:0.5;stroke-dasharray:5.0,5.0;" x1="933" x2="933" y1="83.6211" y2="603.5684"/><line style="stroke:#181818;stroke-width:0.5;stroke-dasharray:5.0,5.0;" x1="1086" x2="1086" y1="83.6211" y2="603.5684"/><line style="stroke:#181818;stroke-width:0.5;stroke-dasharray:5.0,5.0;" x1="1218" x2="1218" y1="83.6211" y2="603.5684"/><line style="stroke:#181818;stroke-width:0.5;stroke-dasharray:5.0,5.0;" x1="1339" x2="1339" y1="83.6211" y2="603.5684"/><line style="stroke:#181818;stroke-width:0.5;stroke-dasharray:5.0,5.0;" x1="1422" x2="1422" y1="83.6211" y2="603.5684"/><line style="stroke:#181818;stroke-width:0.5;stroke-dasharray:5.0,5.0;" x1="1521" x2="1521" y1="83.6211" y2="603.5684"/><text fill="#000000" font-family="sans-serif" font-size="14" lengthAdjust="spacing" textLength="31" x="5" y="80.1074">GSM</text><ellipse cx="23.5" cy="13.5" fill="#E3E3E3" rx="8" ry="8" style="stroke:#181818;stroke-width:0.5;"/><path d="M23.5,21.5 L23.5,48.5 M10.5,29.5 L36.5,29.5 M23.5,48.5 L10.5,63.5 M23.5,48.5 L36.5,63.5 " fill="none" style="stroke:#181818;stroke-width:0.5;"/><text fill="#000000" font-family="sans-serif" font-size="14" lengthAdjust="spacing" textLength="31" x="5" y="617.6758">GSM</text><ellipse cx="23.5" cy="629.6895" fill="#E3E3E3" rx="8" ry="8" style="stroke:#181818;stroke-width:0.5;"/><path d="M23.5,637.6895 L23.5,664.6895 M10.5,645.6895 L36.5,645.6895 M23.5,664.6895 L10.5,679.6895 M23.5,664.6895 L36.5,679.6895 " fill="none" style="stroke:#181818;stroke-width:0.5;"/><rect fill="#E3E3E3" height="32.6211" rx="2.5" ry="2.5" style="stroke:#181818;stroke-width:0.5;" width="112" x="184.5" y="50"/><text fill="#000000" font-family="sans-serif" font-size="14" lengthAdjust="spacing" textLength="98" x="191.5" y="72.1074">:AgendaEntryUI</text><rect fill="#E3E3E3" height="32.6211" rx="2.5" ry="2.5" style="stroke:#181818;stroke-width:0.5;" width="112" x="184.5" y="602.5684"/><text fill="#000000" font-family="sans-serif" font-size="14" lengthAdjust="spacing" textLength="98" x="191.5" y="624.6758">:AgendaEntryUI</text><rect fill="#E3E3E3" height="32.6211" rx="2.5" ry="2.5" style="stroke:#181818;stroke-width:0.5;" width="219" x="486" y="50"/><text fill="#000000" font-family="sans-serif" font-size="14" lengthAdjust="spacing" textLength="201" x="493" y="72.1074">:TeamToAgendaEntryController</text><rect fill="#E3E3E3" height="32.6211" rx="2.5" ry="2.5" style="stroke:#181818;stroke-width:0.5;" width="219" x="486" y="602.5684"/><text fill="#000000" font-family="sans-serif" font-size="14" lengthAdjust="spacing" textLength="201" x="493" y="624.6758">:TeamToAgendaEntryController</text><rect fill="#E3E3E3" height="51.2422" rx="2.5" ry="2.5" style="stroke:#181818;stroke-width:0.5;" width="167" x="850" y="31.3789"/><text fill="#000000" font-family="sans-serif" font-size="14" lengthAdjust="spacing" textLength="153" x="857" y="53.4863">agendaEntryRepository:</text><text fill="#000000" font-family="sans-serif" font-size="14" lengthAdjust="spacing" textLength="150" x="858.5" y="72.1074">AgendaEntryRepository</text><rect fill="#E3E3E3" height="51.2422" rx="2.5" ry="2.5" style="stroke:#181818;stroke-width:0.5;" width="167" x="850" y="602.5684"/><text fill="#000000" font-family="sans-serif" font-size="14" lengthAdjust="spacing" textLength="153" x="857" y="624.6758">agendaEntryRepository:</text><text fill="#000000" font-family="sans-serif" font-size="14" lengthAdjust="spacing" textLength="150" x="858.5" y="643.2969">AgendaEntryRepository</text><rect fill="#E3E3E3" height="51.2422" rx="2.5" ry="2.5" style="stroke:#181818;stroke-width:0.5;" width="118" x="1027" y="31.3789"/><text fill="#000000" font-family="sans-serif" font-size="14" lengthAdjust="spacing" textLength="103" x="1034.5" y="53.4863">teamRepository:</text><text fill="#000000" font-family="sans-serif" font-size="14" lengthAdjust="spacing" textLength="104" x="1034" y="72.1074">TeamRepository</text><rect fill="#E3E3E3" height="51.2422" rx="2.5" ry="2.5" style="stroke:#181818;stroke-width:0.5;" width="118" x="1027" y="602.5684"/><text fill="#000000" font-family="sans-serif" font-size="14" lengthAdjust="spacing" textLength="103" x="1034.5" y="624.6758">teamRepository:</text><text fill="#000000" font-family="sans-serif" font-size="14" lengthAdjust="spacing" textLength="104" x="1034" y="643.2969">TeamRepository</text><rect fill="#E3E3E3" height="32.6211" rx="2.5" ry="2.5" style="stroke:#181818;stroke-width:0.5;" width="126" x="1155" y="50"/><text fill="#000000" font-family="sans-serif" font-size="14" lengthAdjust="spacing" textLength="112" x="1162" y="72.1074">AgendaEntryDTO</text><rect fill="#E3E3E3" height="32.6211" rx="2.5" ry="2.5" style="stroke:#181818;stroke-width:0.5;" width="126" x="1155" y="602.5684"/><text fill="#000000" font-family="sans-serif" font-size="14" lengthAdjust="spacing" textLength="112" x="1162" y="624.6758">AgendaEntryDTO</text><rect fill="#E3E3E3" height="32.6211" rx="2.5" ry="2.5" style="stroke:#181818;stroke-width:0.5;" width="96" x="1291" y="50"/><text fill="#000000" font-family="sans-serif" font-size="14" lengthAdjust="spacing" textLength="82" x="1298" y="72.1074">AgendaEntry</text><rect fill="#E3E3E3" height="32.6211" rx="2.5" ry="2.5" style="stroke:#181818;stroke-width:0.5;" width="96" x="1291" y="602.5684"/><text fill="#000000" font-family="sans-serif" font-size="14" lengthAdjust="spacing" textLength="82" x="1298" y="624.6758">AgendaEntry</text><rect fill="#E3E3E3" height="32.6211" rx="2.5" ry="2.5" style="stroke:#181818;stroke-width:0.5;" width="50" x="1397" y="50"/><text fill="#000000" font-family="sans-serif" font-size="14" lengthAdjust="spacing" textLength="36" x="1404" y="72.1074">Team</text><rect fill="#E3E3E3" height="32.6211" rx="2.5" ry="2.5" style="stroke:#181818;stroke-width:0.5;" width="50" x="1397" y="602.5684"/><text fill="#000000" font-family="sans-serif" font-size="14" lengthAdjust="spacing" textLength="36" x="1404" y="624.6758">Team</text><rect fill="#E3E3E3" height="32.6211" rx="2.5" ry="2.5" style="stroke:#181818;stroke-width:0.5;" width="128" x="1457" y="50"/><text fill="#000000" font-family="sans-serif" font-size="14" lengthAdjust="spacing" textLength="114" x="1464" y="72.1074">ApllicationSession</text><rect fill="#E3E3E3" height="32.6211" rx="2.5" ry="2.5" style="stroke:#181818;stroke-width:0.5;" width="128" x="1457" y="602.5684"/><text fill="#000000" font-family="sans-serif" font-size="14" lengthAdjust="spacing" textLength="114" x="1464" y="624.6758">ApllicationSession</text><rect fill="#FFFFFF" height="468.6563" style="stroke:#181818;stroke-width:1.0;" width="10" x="18.5" y="116.9121"/><rect fill="#FFFFFF" height="477.6563" style="stroke:#181818;stroke-width:1.0;" width="10" x="235.5" y="116.9121"/><rect fill="#FFFFFF" height="446.3652" style="stroke:#181818;stroke-width:1.0;" width="10" x="590.5" y="148.2031"/><rect fill="#FFFFFF" height="42.9365" style="stroke:#181818;stroke-width:1.0;" width="10" x="928.5" y="191.1396"/><rect fill="#FFFFFF" height="62.582" style="stroke:#181818;stroke-width:1.0;" width="10" x="928.5" y="351.2402"/><rect fill="#FFFFFF" height="42.9365" style="stroke:#181818;stroke-width:1.0;" width="10" x="1081" y="277.0127"/><polygon fill="#181818" points="223.5,112.9121,233.5,116.9121,223.5,120.9121,227.5,116.9121" style="stroke:#181818;stroke-width:1.0;"/><line style="stroke:#181818;stroke-width:1.0;" x1="28.5" x2="229.5" y1="116.9121" y2="116.9121"/><text fill="#000000" font-family="sans-serif" font-size="13" font-weight="bold" lengthAdjust="spacing" textLength="7" x="35.5" y="111.6494">1</text><text fill="#000000" font-family="sans-serif" font-size="13" lengthAdjust="spacing" textLength="133" x="46.5" y="111.6494">selects entry and team</text><polygon fill="#181818" points="578.5,144.2031,588.5,148.2031,578.5,152.2031,582.5,148.2031" style="stroke:#181818;stroke-width:1.0;"/><line style="stroke:#181818;stroke-width:1.0;" x1="245.5" x2="584.5" y1="148.2031" y2="148.2031"/><text fill="#000000" font-family="sans-serif" font-size="13" font-weight="bold" lengthAdjust="spacing" textLength="7" x="252.5" y="142.9404">2</text><text fill="#000000" font-family="sans-serif" font-size="13" lengthAdjust="spacing" textLength="315" x="263.5" y="142.9404">assignTeamToAgendaEntry(selectedEntry, teamEntry)</text><polygon fill="#181818" points="916.5,187.1396,926.5,191.1396,916.5,195.1396,920.5,191.1396" style="stroke:#181818;stroke-width:1.0;"/><line style="stroke:#181818;stroke-width:1.0;" x1="600.5" x2="922.5" y1="191.1396" y2="191.1396"/><text fill="#000000" font-family="sans-serif" font-size="13" font-weight="bold" lengthAdjust="spacing" textLength="7" x="607.5" y="185.877">3</text><text fill="#000000" font-family="sans-serif" font-size="13" lengthAdjust="spacing" textLength="241" x="618.5" y="185.877">getAgendaEntry(description, greenSpace)</text><path d="M943,161.2031 L943,205.2031 L1292,205.2031 L1292,171.2031 L1282,161.2031 L943,161.2031 " fill="#FAFAFA" style="stroke:#181818;stroke-width:0.5;"/><path d="M1282,161.2031 L1282,171.2031 L1292,171.2031 L1282,161.2031 " fill="#FAFAFA" style="stroke:#181818;stroke-width:0.5;"/><text fill="#000000" font-family="sans-serif" font-size="13" lengthAdjust="spacing" textLength="288" x="949" y="180.2314">iterates through the agenda entry list and gets the</text><text fill="#000000" font-family="sans-serif" font-size="13" lengthAdjust="spacing" textLength="324" x="953" y="197.5225">agenda entry by description and greenSpace of the DTO</text><polygon fill="#181818" points="611.5,230.0762,601.5,234.0762,611.5,238.0762,607.5,234.0762" style="stroke:#181818;stroke-width:1.0;"/><line style="stroke:#181818;stroke-width:1.0;stroke-dasharray:2.0,2.0;" x1="605.5" x2="932.5" y1="234.0762" y2="234.0762"/><text fill="#000000" font-family="sans-serif" font-size="13" font-weight="bold" lengthAdjust="spacing" textLength="7" x="617.5" y="228.8135">4</text><text fill="#000000" font-family="sans-serif" font-size="13" lengthAdjust="spacing" textLength="73" x="628.5" y="228.8135">agendaEntry</text><polygon fill="#181818" points="1069,273.0127,1079,277.0127,1069,281.0127,1073,277.0127" style="stroke:#181818;stroke-width:1.0;"/><line style="stroke:#181818;stroke-width:1.0;" x1="600.5" x2="1075" y1="277.0127" y2="277.0127"/><text fill="#000000" font-family="sans-serif" font-size="13" font-weight="bold" lengthAdjust="spacing" textLength="7" x="607.5" y="271.75">5</text><text fill="#000000" font-family="sans-serif" font-size="13" lengthAdjust="spacing" textLength="311" x="618.5" y="271.75">getTeamByCollaborators(teamDTO.getCollaborators())</text><path d="M1096,247.0762 L1096,291.0762 L1366,291.0762 L1366,257.0762 L1356,247.0762 L1096,247.0762 " fill="#FAFAFA" style="stroke:#181818;stroke-width:0.5;"/><path d="M1356,247.0762 L1356,257.0762 L1366,257.0762 L1356,247.0762 " fill="#FAFAFA" style="stroke:#181818;stroke-width:0.5;"/><text fill="#000000" font-family="sans-serif" font-size="13" lengthAdjust="spacing" textLength="249" x="1102" y="266.1045">iterates through the teams list and gets the</text><text fill="#000000" font-family="sans-serif" font-size="13" lengthAdjust="spacing" textLength="191" x="1106" y="283.3955">team by collaborator names DTO</text><polygon fill="#181818" points="611.5,315.9492,601.5,319.9492,611.5,323.9492,607.5,319.9492" style="stroke:#181818;stroke-width:1.0;"/><line style="stroke:#181818;stroke-width:1.0;stroke-dasharray:2.0,2.0;" x1="605.5" x2="1085" y1="319.9492" y2="319.9492"/><text fill="#000000" font-family="sans-serif" font-size="13" font-weight="bold" lengthAdjust="spacing" textLength="7" x="617.5" y="314.6865">6</text><text fill="#000000" font-family="sans-serif" font-size="13" lengthAdjust="spacing" textLength="29" x="628.5" y="314.6865">team</text><polygon fill="#181818" points="916.5,347.2402,926.5,351.2402,916.5,355.2402,920.5,351.2402" style="stroke:#181818;stroke-width:1.0;"/><line style="stroke:#181818;stroke-width:1.0;" x1="600.5" x2="922.5" y1="351.2402" y2="351.2402"/><text fill="#000000" font-family="sans-serif" font-size="13" font-weight="bold" lengthAdjust="spacing" textLength="7" x="607.5" y="345.9775">7</text><text fill="#000000" font-family="sans-serif" font-size="13" lengthAdjust="spacing" textLength="144" x="618.5" y="345.9775">assignTeam(entry, team)</text><polygon fill="#181818" points="1327,378.5313,1337,382.5313,1327,386.5313,1331,382.5313" style="stroke:#181818;stroke-width:1.0;"/><line style="stroke:#181818;stroke-width:1.0;" x1="938.5" x2="1333" y1="382.5313" y2="382.5313"/><text fill="#000000" font-family="sans-serif" font-size="13" font-weight="bold" lengthAdjust="spacing" textLength="7" x="945.5" y="377.2686">8</text><text fill="#000000" font-family="sans-serif" font-size="13" lengthAdjust="spacing" textLength="152" x="956.5" y="377.2686">setAssociatedTeam(team)</text><polygon fill="#181818" points="611.5,409.8223,601.5,413.8223,611.5,417.8223,607.5,413.8223" style="stroke:#181818;stroke-width:1.0;"/><line style="stroke:#181818;stroke-width:1.0;stroke-dasharray:2.0,2.0;" x1="605.5" x2="932.5" y1="413.8223" y2="413.8223"/><text fill="#000000" font-family="sans-serif" font-size="13" font-weight="bold" lengthAdjust="spacing" textLength="7" x="617.5" y="408.5596">9</text><text fill="#000000" font-family="sans-serif" font-size="13" lengthAdjust="spacing" textLength="105" x="628.5" y="408.5596">success/insucess</text><line style="stroke:#181818;stroke-width:1.0;" x1="600.5" x2="642.5" y1="450.2588" y2="450.2588"/><line style="stroke:#181818;stroke-width:1.0;" x1="642.5" x2="642.5" y1="450.2588" y2="463.2588"/><line style="stroke:#181818;stroke-width:1.0;" x1="601.5" x2="642.5" y1="463.2588" y2="463.2588"/><polygon fill="#181818" points="611.5,459.2588,601.5,463.2588,611.5,467.2588,607.5,463.2588" style="stroke:#181818;stroke-width:1.0;"/><text fill="#000000" font-family="sans-serif" font-size="13" font-weight="bold" lengthAdjust="spacing" textLength="14" x="607.5" y="444.9961">10</text><text fill="#000000" font-family="sans-serif" font-size="13" lengthAdjust="spacing" textLength="296" x="625.5" y="444.9961">sendNotificationEmails(entry.getAssociatedTeam())</text><path d="M331,426.8223 L331,470.8223 L585,470.8223 L585,436.8223 L575,426.8223 L331,426.8223 " fill="#FAFAFA" style="stroke:#181818;stroke-width:0.5;"/><path d="M575,426.8223 L575,436.8223 L585,436.8223 L575,426.8223 " fill="#FAFAFA" style="stroke:#181818;stroke-width:0.5;"/><text fill="#000000" font-family="sans-serif" font-size="13" lengthAdjust="spacing" textLength="233" x="337" y="445.8506">gets the collaborators for each team and</text><text fill="#000000" font-family="sans-serif" font-size="13" lengthAdjust="spacing" textLength="199" x="337" y="463.1416">gets the email of each collaborator</text><polygon fill="#181818" points="1509,507.3408,1519,511.3408,1509,515.3408,1513,511.3408" style="stroke:#181818;stroke-width:1.0;"/><line style="stroke:#181818;stroke-width:1.0;" x1="600.5" x2="1515" y1="511.3408" y2="511.3408"/><text fill="#000000" font-family="sans-serif" font-size="13" font-weight="bold" lengthAdjust="spacing" textLength="14" x="607.5" y="506.0781">11</text><text fill="#000000" font-family="sans-serif" font-size="13" lengthAdjust="spacing" textLength="101" x="625.5" y="506.0781">getEmailService()</text><path d="M1526,481.4043 L1526,525.4043 L1916,525.4043 L1916,491.4043 L1906,481.4043 L1526,481.4043 " fill="#FAFAFA" style="stroke:#181818;stroke-width:0.5;"/><path d="M1906,481.4043 L1906,491.4043 L1916,491.4043 L1906,481.4043 " fill="#FAFAFA" style="stroke:#181818;stroke-width:0.5;"/><text fill="#000000" font-family="sans-serif" font-size="13" lengthAdjust="spacing" textLength="353" x="1532" y="500.4326">goes to the config file and gets the property of the used email</text><text fill="#000000" font-family="sans-serif" font-size="13" lengthAdjust="spacing" textLength="365" x="1536" y="517.7236">service and then sends an email through EmailService interface</text><polygon fill="#181818" points="256.5,550.2773,246.5,554.2773,256.5,558.2773,252.5,554.2773" style="stroke:#181818;stroke-width:1.0;"/><line style="stroke:#181818;stroke-width:1.0;stroke-dasharray:2.0,2.0;" x1="250.5" x2="589.5" y1="554.2773" y2="554.2773"/><text fill="#000000" font-family="sans-serif" font-size="13" font-weight="bold" lengthAdjust="spacing" textLength="14" x="262.5" y="549.0146">12</text><text fill="#000000" font-family="sans-serif" font-size="13" lengthAdjust="spacing" textLength="112" x="280.5" y="549.0146">success/insuccess</text><polygon fill="#181818" points="34.5,581.5684,24.5,585.5684,34.5,589.5684,30.5,585.5684" style="stroke:#181818;stroke-width:1.0;"/><line style="stroke:#181818;stroke-width:1.0;stroke-dasharray:2.0,2.0;" x1="28.5" x2="234.5" y1="585.5684" y2="585.5684"/><text fill="#000000" font-family="sans-serif" font-size="13" font-weight="bold" lengthAdjust="spacing" textLength="14" x="40.5" y="580.3057">13</text><text fill="#000000" font-family="sans-serif" font-size="13" lengthAdjust="spacing" textLength="165" x="58.5" y="580.3057">shows (in)success message</text><!--SRC=[ZLHDRzim3BtxLn0v9K2ptNqea6t5iCCsOCbkkIWoRHEL9K6IM-JVZvA_v3H3Ux5bwV6HV7oMVoPjXHCTT4ORsJhJ8GJNO-7d4olaisZm6AuAmQ4CGZSg1_XMLEQLT0ErK1wBGlJ1wBwxeEEr3CR1vllnvmQ41tuN71L8aXKwmAOyDAWhyQI3k_xzaJ0ztK1EABgJoO1V3J-DKiZCCK86fzOnOW7_GMiySHNNygmFz_OJnn0HDzTCWPElA4whZHGxOTQHMQvlfzy9kDxwBpmhA7slWR60EUqDXrMAf0Xaz16zvzT0PMrHiFImVsHrI_2eU8uUC9A3qDL0nREY5n4mJMd-u77qj7-C6fTCvgdHRmQo7HYnIbyFYIujTmjF6b8Hdx6CHUuI6WmvLuLUEhAnYGTe7A8-iWTnLsZ3D8wQDfH00HspiWXishvf-OqZwTYM8XzIRqmVONZMQy3b2bcg0Jfd0rCdoZYckONC8yjopzsCucGJg_1UrDp-v9ZKV9Jp2vjQAN4nt9LnVXi1dFiJ7wyFTX_G8GRxkmB4azYup3X1Yuu9LftEZfuMiBIPl9BrDsFl3dTnp1ONS-pU4NLXIN96ouQ3zqOIXrI9RQIvCmVVIydk_qoQLxnuRnXZ51_yCe7gyGTwwWGfFnGTnt2JVfg3mZgKiyGhOJtKh2xdRWVTUHPdFICnyaUR9K0Uj-XeBIJkLCiHtGj9tAuDq9WuV3CcrpNnDKnyK-U31-kCHHUkawjxZzLG07l23xp3FT2YJahmfQ774YTdvKK0QJPUpJ_A9EDqjUJQln6Vxw6U4fQl60QtvjN3blHk10CRqVE8YZmgtaR_0000]--></g></svg>