<?xml version="1.0" encoding="us-ascii" standalone="no"?><svg xmlns="http://www.w3.org/2000/svg" xmlns:xlink="http://www.w3.org/1999/xlink" contentStyleType="text/css" height="1109px" preserveAspectRatio="none" style="width:1690px;height:1109px;background:#FFFFFF;" version="1.1" viewBox="0 0 1690 1109" width="1690px" zoomAndPan="magnify"><defs/><g><!--class AgendaEntry--><g id="elem_AgendaEntry"><rect codeLine="9" fill="#F1F1F1" height="122.4844" id="AgendaEntry" rx="2.5" ry="2.5" style="stroke:#181818;stroke-width:0.5;" width="185" x="911" y="578"/><ellipse cx="958.25" cy="594" fill="#ADD1B2" rx="11" ry="11" style="stroke:#181818;stroke-width:1.0;"/><path d="M961.0156,589.875 Q961.1719,589.6563 961.3594,589.5469 Q961.5469,589.4375 961.7656,589.4375 Q962.1406,589.4375 962.375,589.7031 Q962.6094,589.9531 962.6094,590.5625 L962.6094,592.0156 Q962.6094,592.625 962.375,592.8906 Q962.1406,593.1563 961.7656,593.1563 Q961.4219,593.1563 961.2188,592.9531 Q961.0156,592.7656 960.9063,592.25 Q960.8594,591.8906 960.6719,591.7031 Q960.3438,591.3281 959.7344,591.1094 Q959.125,590.8906 958.5,590.8906 Q957.7344,590.8906 957.0938,591.2188 Q956.4688,591.5469 955.9688,592.2969 Q955.4844,593.0469 955.4844,594.0781 L955.4844,595.1719 Q955.4844,596.4063 956.375,597.2344 Q957.2656,598.0469 958.8594,598.0469 Q959.7969,598.0469 960.4531,597.7969 Q960.8438,597.6406 961.2656,597.2031 Q961.5313,596.9375 961.6719,596.8594 Q961.8281,596.7813 962.0313,596.7813 Q962.3594,596.7813 962.6094,597.0469 Q962.875,597.2969 962.875,597.6406 Q962.875,597.9844 962.5313,598.3906 Q962.0313,598.9688 961.2344,599.2969 Q960.1563,599.75 958.8594,599.75 Q957.3438,599.75 956.1406,599.125 Q955.1563,598.625 954.4688,597.5625 Q953.7813,596.4844 953.7813,595.2031 L953.7813,594.0469 Q953.7813,592.7188 954.3906,591.5781 Q955.0156,590.4219 956.1094,589.8125 Q957.2031,589.1875 958.4375,589.1875 Q959.1719,589.1875 959.8125,589.3594 Q960.4688,589.5156 961.0156,589.875 Z " fill="#000000"/><text fill="#000000" font-family="sans-serif" font-size="14" lengthAdjust="spacing" textLength="82" x="978.75" y="599.7969">AgendaEntry</text><line style="stroke:#181818;stroke-width:0.5;" x1="912" x2="1095" y1="610" y2="610"/><text fill="#000000" font-family="sans-serif" font-size="14" lengthAdjust="spacing" textLength="28" x="917" y="629.1074">date</text><text fill="#000000" font-family="sans-serif" font-size="14" lengthAdjust="spacing" textLength="104" x="917" y="647.7285">associatedTeam</text><text fill="#000000" font-family="sans-serif" font-size="14" lengthAdjust="spacing" textLength="121" x="917" y="666.3496">associatedVehicles</text><line style="stroke:#181818;stroke-width:0.5;" x1="912" x2="1095" y1="673.8633" y2="673.8633"/><text fill="#000000" font-family="sans-serif" font-size="14" lengthAdjust="spacing" textLength="173" x="917" y="692.9707">+setAssociatedTeam(team)</text></g><!--class AgendaEntryDTO--><g id="elem_AgendaEntryDTO"><rect codeLine="16" fill="#F1F1F1" height="196.9688" id="AgendaEntryDTO" rx="2.5" ry="2.5" style="stroke:#181818;stroke-width:0.5;" width="144" x="684.5" y="7"/><ellipse cx="699.5" cy="23" fill="#ADD1B2" rx="11" ry="11" style="stroke:#181818;stroke-width:1.0;"/><path d="M702.2656,18.875 Q702.4219,18.6563 702.6094,18.5469 Q702.7969,18.4375 703.0156,18.4375 Q703.3906,18.4375 703.625,18.7031 Q703.8594,18.9531 703.8594,19.5625 L703.8594,21.0156 Q703.8594,21.625 703.625,21.8906 Q703.3906,22.1563 703.0156,22.1563 Q702.6719,22.1563 702.4688,21.9531 Q702.2656,21.7656 702.1563,21.25 Q702.1094,20.8906 701.9219,20.7031 Q701.5938,20.3281 700.9844,20.1094 Q700.375,19.8906 699.75,19.8906 Q698.9844,19.8906 698.3438,20.2188 Q697.7188,20.5469 697.2188,21.2969 Q696.7344,22.0469 696.7344,23.0781 L696.7344,24.1719 Q696.7344,25.4063 697.625,26.2344 Q698.5156,27.0469 700.1094,27.0469 Q701.0469,27.0469 701.7031,26.7969 Q702.0938,26.6406 702.5156,26.2031 Q702.7813,25.9375 702.9219,25.8594 Q703.0781,25.7813 703.2813,25.7813 Q703.6094,25.7813 703.8594,26.0469 Q704.125,26.2969 704.125,26.6406 Q704.125,26.9844 703.7813,27.3906 Q703.2813,27.9688 702.4844,28.2969 Q701.4063,28.75 700.1094,28.75 Q698.5938,28.75 697.3906,28.125 Q696.4063,27.625 695.7188,26.5625 Q695.0313,25.4844 695.0313,24.2031 L695.0313,23.0469 Q695.0313,21.7188 695.6406,20.5781 Q696.2656,19.4219 697.3594,18.8125 Q698.4531,18.1875 699.6875,18.1875 Q700.4219,18.1875 701.0625,18.3594 Q701.7188,18.5156 702.2656,18.875 Z " fill="#000000"/><text fill="#000000" font-family="sans-serif" font-size="14" lengthAdjust="spacing" textLength="112" x="713.5" y="28.7969">AgendaEntryDTO</text><line style="stroke:#181818;stroke-width:0.5;" x1="685.5" x2="827.5" y1="39" y2="39"/><text fill="#000000" font-family="sans-serif" font-size="14" lengthAdjust="spacing" textLength="28" x="690.5" y="58.1074">date</text><text fill="#000000" font-family="sans-serif" font-size="14" lengthAdjust="spacing" textLength="77" x="690.5" y="76.7285">greenSpace</text><text fill="#000000" font-family="sans-serif" font-size="14" lengthAdjust="spacing" textLength="69" x="690.5" y="95.3496">description</text><text fill="#000000" font-family="sans-serif" font-size="14" lengthAdjust="spacing" textLength="111" x="690.5" y="113.9707">expectedDuration</text><text fill="#000000" font-family="sans-serif" font-size="14" lengthAdjust="spacing" textLength="98" x="690.5" y="132.5918">urgencyDegree</text><text fill="#000000" font-family="sans-serif" font-size="14" lengthAdjust="spacing" textLength="72" x="690.5" y="151.2129">entryStatus</text><text fill="#000000" font-family="sans-serif" font-size="14" lengthAdjust="spacing" textLength="104" x="690.5" y="169.834">associatedTeam</text><text fill="#000000" font-family="sans-serif" font-size="14" lengthAdjust="spacing" textLength="121" x="690.5" y="188.4551">associatedVehicles</text><line style="stroke:#181818;stroke-width:0.5;" x1="685.5" x2="827.5" y1="195.9688" y2="195.9688"/></g><!--class SystemUser--><g id="elem_SystemUser"><rect codeLine="29" fill="#F1F1F1" height="122.4844" id="SystemUser" rx="2.5" ry="2.5" style="stroke:#181818;stroke-width:0.5;" width="107" x="7" y="44.5"/><ellipse cx="22" cy="60.5" fill="#ADD1B2" rx="11" ry="11" style="stroke:#181818;stroke-width:1.0;"/><path d="M24.7656,56.375 Q24.9219,56.1563 25.1094,56.0469 Q25.2969,55.9375 25.5156,55.9375 Q25.8906,55.9375 26.125,56.2031 Q26.3594,56.4531 26.3594,57.0625 L26.3594,58.5156 Q26.3594,59.125 26.125,59.3906 Q25.8906,59.6563 25.5156,59.6563 Q25.1719,59.6563 24.9688,59.4531 Q24.7656,59.2656 24.6563,58.75 Q24.6094,58.3906 24.4219,58.2031 Q24.0938,57.8281 23.4844,57.6094 Q22.875,57.3906 22.25,57.3906 Q21.4844,57.3906 20.8438,57.7188 Q20.2188,58.0469 19.7188,58.7969 Q19.2344,59.5469 19.2344,60.5781 L19.2344,61.6719 Q19.2344,62.9063 20.125,63.7344 Q21.0156,64.5469 22.6094,64.5469 Q23.5469,64.5469 24.2031,64.2969 Q24.5938,64.1406 25.0156,63.7031 Q25.2813,63.4375 25.4219,63.3594 Q25.5781,63.2813 25.7813,63.2813 Q26.1094,63.2813 26.3594,63.5469 Q26.625,63.7969 26.625,64.1406 Q26.625,64.4844 26.2813,64.8906 Q25.7813,65.4688 24.9844,65.7969 Q23.9063,66.25 22.6094,66.25 Q21.0938,66.25 19.8906,65.625 Q18.9063,65.125 18.2188,64.0625 Q17.5313,62.9844 17.5313,61.7031 L17.5313,60.5469 Q17.5313,59.2188 18.1406,58.0781 Q18.7656,56.9219 19.8594,56.3125 Q20.9531,55.6875 22.1875,55.6875 Q22.9219,55.6875 23.5625,55.8594 Q24.2188,56.0156 24.7656,56.375 Z " fill="#000000"/><text fill="#000000" font-family="sans-serif" font-size="14" lengthAdjust="spacing" textLength="75" x="36" y="66.2969">SystemUser</text><line style="stroke:#181818;stroke-width:0.5;" x1="8" x2="113" y1="76.5" y2="76.5"/><text fill="#000000" font-family="sans-serif" font-size="14" lengthAdjust="spacing" textLength="35" x="13" y="95.6074">name</text><text fill="#000000" font-family="sans-serif" font-size="14" lengthAdjust="spacing" textLength="33" x="13" y="114.2285">email</text><text fill="#000000" font-family="sans-serif" font-size="14" lengthAdjust="spacing" textLength="60" x="13" y="132.8496">password</text><text fill="#000000" font-family="sans-serif" font-size="14" lengthAdjust="spacing" textLength="40" x="13" y="151.4707">phone</text><line style="stroke:#181818;stroke-width:0.5;" x1="8" x2="113" y1="158.9844" y2="158.9844"/></g><!--class AgendaEntryRepository--><g id="elem_AgendaEntryRepository"><rect codeLine="37" fill="#F1F1F1" height="122.4844" id="AgendaEntryRepository" rx="2.5" ry="2.5" style="stroke:#181818;stroke-width:0.5;" width="534" x="342.5" y="798"/><ellipse cx="530.25" cy="814" fill="#ADD1B2" rx="11" ry="11" style="stroke:#181818;stroke-width:1.0;"/><path d="M533.0156,809.875 Q533.1719,809.6563 533.3594,809.5469 Q533.5469,809.4375 533.7656,809.4375 Q534.1406,809.4375 534.375,809.7031 Q534.6094,809.9531 534.6094,810.5625 L534.6094,812.0156 Q534.6094,812.625 534.375,812.8906 Q534.1406,813.1563 533.7656,813.1563 Q533.4219,813.1563 533.2188,812.9531 Q533.0156,812.7656 532.9063,812.25 Q532.8594,811.8906 532.6719,811.7031 Q532.3438,811.3281 531.7344,811.1094 Q531.125,810.8906 530.5,810.8906 Q529.7344,810.8906 529.0938,811.2188 Q528.4688,811.5469 527.9688,812.2969 Q527.4844,813.0469 527.4844,814.0781 L527.4844,815.1719 Q527.4844,816.4063 528.375,817.2344 Q529.2656,818.0469 530.8594,818.0469 Q531.7969,818.0469 532.4531,817.7969 Q532.8438,817.6406 533.2656,817.2031 Q533.5313,816.9375 533.6719,816.8594 Q533.8281,816.7813 534.0313,816.7813 Q534.3594,816.7813 534.6094,817.0469 Q534.875,817.2969 534.875,817.6406 Q534.875,817.9844 534.5313,818.3906 Q534.0313,818.9688 533.2344,819.2969 Q532.1563,819.75 530.8594,819.75 Q529.3438,819.75 528.1406,819.125 Q527.1563,818.625 526.4688,817.5625 Q525.7813,816.4844 525.7813,815.2031 L525.7813,814.0469 Q525.7813,812.7188 526.3906,811.5781 Q527.0156,810.4219 528.1094,809.8125 Q529.2031,809.1875 530.4375,809.1875 Q531.1719,809.1875 531.8125,809.3594 Q532.4688,809.5156 533.0156,809.875 Z " fill="#000000"/><text fill="#000000" font-family="sans-serif" font-size="14" lengthAdjust="spacing" textLength="150" x="550.75" y="819.7969">AgendaEntryRepository</text><line style="stroke:#181818;stroke-width:0.5;" x1="343.5" x2="875.5" y1="830" y2="830"/><text fill="#000000" font-family="sans-serif" font-size="14" lengthAdjust="spacing" textLength="255" x="348.5" y="849.1074">-ArrayList&lt;AgendaEntry&gt; agendaEntries</text><line style="stroke:#181818;stroke-width:0.5;" x1="343.5" x2="875.5" y1="856.6211" y2="856.6211"/><text fill="#000000" font-family="sans-serif" font-size="14" lengthAdjust="spacing" textLength="522" x="348.5" y="875.7285">+getAgendaEntryListWithoutTeam(authenticationController.getCurrentUserEmail())</text><text fill="#000000" font-family="sans-serif" font-size="14" lengthAdjust="spacing" textLength="274" x="348.5" y="894.3496">+getAgendaEntry(description, greenSpace)</text><text fill="#000000" font-family="sans-serif" font-size="14" lengthAdjust="spacing" textLength="350" x="348.5" y="912.9707">+getTeamByCollaborators(teamDTO.getCollaborators()</text></g><!--class Repositories--><g id="elem_Repositories"><rect codeLine="44" fill="#F1F1F1" height="159.7266" id="Repositories" rx="2.5" ry="2.5" style="stroke:#181818;stroke-width:0.5;" width="200" x="509.5" y="559"/><ellipse cx="565.75" cy="575" fill="#ADD1B2" rx="11" ry="11" style="stroke:#181818;stroke-width:1.0;"/><path d="M568.5156,570.875 Q568.6719,570.6563 568.8594,570.5469 Q569.0469,570.4375 569.2656,570.4375 Q569.6406,570.4375 569.875,570.7031 Q570.1094,570.9531 570.1094,571.5625 L570.1094,573.0156 Q570.1094,573.625 569.875,573.8906 Q569.6406,574.1563 569.2656,574.1563 Q568.9219,574.1563 568.7188,573.9531 Q568.5156,573.7656 568.4063,573.25 Q568.3594,572.8906 568.1719,572.7031 Q567.8438,572.3281 567.2344,572.1094 Q566.625,571.8906 566,571.8906 Q565.2344,571.8906 564.5938,572.2188 Q563.9688,572.5469 563.4688,573.2969 Q562.9844,574.0469 562.9844,575.0781 L562.9844,576.1719 Q562.9844,577.4063 563.875,578.2344 Q564.7656,579.0469 566.3594,579.0469 Q567.2969,579.0469 567.9531,578.7969 Q568.3438,578.6406 568.7656,578.2031 Q569.0313,577.9375 569.1719,577.8594 Q569.3281,577.7813 569.5313,577.7813 Q569.8594,577.7813 570.1094,578.0469 Q570.375,578.2969 570.375,578.6406 Q570.375,578.9844 570.0313,579.3906 Q569.5313,579.9688 568.7344,580.2969 Q567.6563,580.75 566.3594,580.75 Q564.8438,580.75 563.6406,580.125 Q562.6563,579.625 561.9688,578.5625 Q561.2813,577.4844 561.2813,576.2031 L561.2813,575.0469 Q561.2813,573.7188 561.8906,572.5781 Q562.5156,571.4219 563.6094,570.8125 Q564.7031,570.1875 565.9375,570.1875 Q566.6719,570.1875 567.3125,570.3594 Q567.9688,570.5156 568.5156,570.875 Z " fill="#000000"/><text fill="#000000" font-family="sans-serif" font-size="14" lengthAdjust="spacing" textLength="79" x="586.25" y="580.7969">Repositories</text><line style="stroke:#181818;stroke-width:0.5;" x1="510.5" x2="708.5" y1="591" y2="591"/><text fill="#000000" font-family="sans-serif" font-size="14" lengthAdjust="spacing" textLength="154" x="515.5" y="610.1074">-agendaEntryRepository</text><text fill="#000000" font-family="sans-serif" font-size="14" lengthAdjust="spacing" textLength="104" x="515.5" y="628.7285">-teamRepository</text><line style="stroke:#181818;stroke-width:0.5;" x1="510.5" x2="708.5" y1="636.2422" y2="636.2422"/><text fill="#000000" font-family="sans-serif" font-size="14" lengthAdjust="spacing" textLength="94" x="515.5" y="655.3496">-Repositories()</text><text fill="#000000" font-family="sans-serif" font-size="14" lengthAdjust="spacing" textLength="91" x="515.5" y="673.9707">+getInstance()</text><text fill="#000000" font-family="sans-serif" font-size="14" lengthAdjust="spacing" textLength="188" x="515.5" y="692.5918">+getAgendaEntryRepository()</text><text fill="#000000" font-family="sans-serif" font-size="14" lengthAdjust="spacing" textLength="142" x="515.5" y="711.2129">+getTeamRepository()</text></g><!--class AgendaEntryMapper--><g id="elem_AgendaEntryMapper"><rect codeLine="55" fill="#F1F1F1" height="66.6211" id="AgendaEntryMapper" rx="2.5" ry="2.5" style="stroke:#181818;stroke-width:0.5;" width="189" x="662" y="348"/><ellipse cx="689.15" cy="364" fill="#ADD1B2" rx="11" ry="11" style="stroke:#181818;stroke-width:1.0;"/><path d="M691.9156,359.875 Q692.0719,359.6563 692.2594,359.5469 Q692.4469,359.4375 692.6656,359.4375 Q693.0406,359.4375 693.275,359.7031 Q693.5094,359.9531 693.5094,360.5625 L693.5094,362.0156 Q693.5094,362.625 693.275,362.8906 Q693.0406,363.1563 692.6656,363.1563 Q692.3219,363.1563 692.1188,362.9531 Q691.9156,362.7656 691.8063,362.25 Q691.7594,361.8906 691.5719,361.7031 Q691.2438,361.3281 690.6344,361.1094 Q690.025,360.8906 689.4,360.8906 Q688.6344,360.8906 687.9938,361.2188 Q687.3688,361.5469 686.8688,362.2969 Q686.3844,363.0469 686.3844,364.0781 L686.3844,365.1719 Q686.3844,366.4063 687.275,367.2344 Q688.1656,368.0469 689.7594,368.0469 Q690.6969,368.0469 691.3531,367.7969 Q691.7438,367.6406 692.1656,367.2031 Q692.4313,366.9375 692.5719,366.8594 Q692.7281,366.7813 692.9313,366.7813 Q693.2594,366.7813 693.5094,367.0469 Q693.775,367.2969 693.775,367.6406 Q693.775,367.9844 693.4313,368.3906 Q692.9313,368.9688 692.1344,369.2969 Q691.0563,369.75 689.7594,369.75 Q688.2438,369.75 687.0406,369.125 Q686.0563,368.625 685.3688,367.5625 Q684.6813,366.4844 684.6813,365.2031 L684.6813,364.0469 Q684.6813,362.7188 685.2906,361.5781 Q685.9156,360.4219 687.0094,359.8125 Q688.1031,359.1875 689.3375,359.1875 Q690.0719,359.1875 690.7125,359.3594 Q691.3688,359.5156 691.9156,359.875 Z " fill="#000000"/><text fill="#000000" font-family="sans-serif" font-size="14" lengthAdjust="spacing" textLength="130" x="705.85" y="369.7969">AgendaEntryMapper</text><line style="stroke:#181818;stroke-width:0.5;" x1="663" x2="850" y1="380" y2="380"/><line style="stroke:#181818;stroke-width:0.5;" x1="663" x2="850" y1="388" y2="388"/><text fill="#000000" font-family="sans-serif" font-size="14" lengthAdjust="spacing" textLength="177" x="668" y="407.1074">+toDtoList(agendaEntryList)</text></g><!--class TeamToAgendaEntryController--><g id="elem_TeamToAgendaEntryController"><rect codeLine="61" fill="#F1F1F1" height="196.9688" id="TeamToAgendaEntryController" rx="2.5" ry="2.5" style="stroke:#181818;stroke-width:0.5;" width="364" x="262.5" y="283"/><ellipse cx="341.75" cy="299" fill="#ADD1B2" rx="11" ry="11" style="stroke:#181818;stroke-width:1.0;"/><path d="M344.5156,294.875 Q344.6719,294.6563 344.8594,294.5469 Q345.0469,294.4375 345.2656,294.4375 Q345.6406,294.4375 345.875,294.7031 Q346.1094,294.9531 346.1094,295.5625 L346.1094,297.0156 Q346.1094,297.625 345.875,297.8906 Q345.6406,298.1563 345.2656,298.1563 Q344.9219,298.1563 344.7188,297.9531 Q344.5156,297.7656 344.4063,297.25 Q344.3594,296.8906 344.1719,296.7031 Q343.8438,296.3281 343.2344,296.1094 Q342.625,295.8906 342,295.8906 Q341.2344,295.8906 340.5938,296.2188 Q339.9688,296.5469 339.4688,297.2969 Q338.9844,298.0469 338.9844,299.0781 L338.9844,300.1719 Q338.9844,301.4063 339.875,302.2344 Q340.7656,303.0469 342.3594,303.0469 Q343.2969,303.0469 343.9531,302.7969 Q344.3438,302.6406 344.7656,302.2031 Q345.0313,301.9375 345.1719,301.8594 Q345.3281,301.7813 345.5313,301.7813 Q345.8594,301.7813 346.1094,302.0469 Q346.375,302.2969 346.375,302.6406 Q346.375,302.9844 346.0313,303.3906 Q345.5313,303.9688 344.7344,304.2969 Q343.6563,304.75 342.3594,304.75 Q340.8438,304.75 339.6406,304.125 Q338.6563,303.625 337.9688,302.5625 Q337.2813,301.4844 337.2813,300.2031 L337.2813,299.0469 Q337.2813,297.7188 337.8906,296.5781 Q338.5156,295.4219 339.6094,294.8125 Q340.7031,294.1875 341.9375,294.1875 Q342.6719,294.1875 343.3125,294.3594 Q343.9688,294.5156 344.5156,294.875 Z " fill="#000000"/><text fill="#000000" font-family="sans-serif" font-size="14" lengthAdjust="spacing" textLength="197" x="362.25" y="304.7969">TeamToAgendaEntryController</text><line style="stroke:#181818;stroke-width:0.5;" x1="263.5" x2="625.5" y1="315" y2="315"/><text fill="#000000" font-family="sans-serif" font-size="14" lengthAdjust="spacing" textLength="308" x="268.5" y="334.1074">-AgendaEntryRepository agendaEntryRepository</text><text fill="#000000" font-family="sans-serif" font-size="14" lengthAdjust="spacing" textLength="268" x="268.5" y="352.7285">-AgendaEntryMapper agendaEntryMapper</text><text fill="#000000" font-family="sans-serif" font-size="14" lengthAdjust="spacing" textLength="170" x="268.5" y="371.3496">-EmailService emailService</text><line style="stroke:#181818;stroke-width:0.5;" x1="263.5" x2="625.5" y1="378.8633" y2="378.8633"/><text fill="#000000" font-family="sans-serif" font-size="14" lengthAdjust="spacing" textLength="245" x="268.5" y="397.9707">+getAgendaEntriesDTOWithoutTeam()</text><text fill="#000000" font-family="sans-serif" font-size="14" lengthAdjust="spacing" textLength="180" x="268.5" y="416.5918">+showAvailableTeamsDTO()</text><text fill="#000000" font-family="sans-serif" font-size="14" lengthAdjust="spacing" textLength="277" x="268.5" y="435.2129">+hasOverlappingEntries(entry, collaborator)</text><text fill="#000000" font-family="sans-serif" font-size="14" lengthAdjust="spacing" textLength="352" x="268.5" y="453.834">+assignTeamToAgendaEntry(selectedEntry, teamEntry)</text><text fill="#000000" font-family="sans-serif" font-size="14" lengthAdjust="spacing" textLength="325" x="268.5" y="472.4551">+sendNotificationEmails(entry.getAssociatedTeam()</text></g><!--class AgendaUI--><g id="elem_AgendaUI"><rect codeLine="73" fill="#F1F1F1" height="48" id="AgendaUI" rx="2.5" ry="2.5" style="stroke:#181818;stroke-width:0.5;" width="93" x="134" y="357.5"/><ellipse cx="149" cy="373.5" fill="#ADD1B2" rx="11" ry="11" style="stroke:#181818;stroke-width:1.0;"/><path d="M151.7656,369.375 Q151.9219,369.1563 152.1094,369.0469 Q152.2969,368.9375 152.5156,368.9375 Q152.8906,368.9375 153.125,369.2031 Q153.3594,369.4531 153.3594,370.0625 L153.3594,371.5156 Q153.3594,372.125 153.125,372.3906 Q152.8906,372.6563 152.5156,372.6563 Q152.1719,372.6563 151.9688,372.4531 Q151.7656,372.2656 151.6563,371.75 Q151.6094,371.3906 151.4219,371.2031 Q151.0938,370.8281 150.4844,370.6094 Q149.875,370.3906 149.25,370.3906 Q148.4844,370.3906 147.8438,370.7188 Q147.2188,371.0469 146.7188,371.7969 Q146.2344,372.5469 146.2344,373.5781 L146.2344,374.6719 Q146.2344,375.9063 147.125,376.7344 Q148.0156,377.5469 149.6094,377.5469 Q150.5469,377.5469 151.2031,377.2969 Q151.5938,377.1406 152.0156,376.7031 Q152.2813,376.4375 152.4219,376.3594 Q152.5781,376.2813 152.7813,376.2813 Q153.1094,376.2813 153.3594,376.5469 Q153.625,376.7969 153.625,377.1406 Q153.625,377.4844 153.2813,377.8906 Q152.7813,378.4688 151.9844,378.7969 Q150.9063,379.25 149.6094,379.25 Q148.0938,379.25 146.8906,378.625 Q145.9063,378.125 145.2188,377.0625 Q144.5313,375.9844 144.5313,374.7031 L144.5313,373.5469 Q144.5313,372.2188 145.1406,371.0781 Q145.7656,369.9219 146.8594,369.3125 Q147.9531,368.6875 149.1875,368.6875 Q149.9219,368.6875 150.5625,368.8594 Q151.2188,369.0156 151.7656,369.375 Z " fill="#000000"/><text fill="#000000" font-family="sans-serif" font-size="14" lengthAdjust="spacing" textLength="61" x="163" y="379.2969">AgendaUI</text><line style="stroke:#181818;stroke-width:0.5;" x1="135" x2="226" y1="389.5" y2="389.5"/><line style="stroke:#181818;stroke-width:0.5;" x1="135" x2="226" y1="397.5" y2="397.5"/></g><!--class Team--><g id="elem_Team"><rect codeLine="77" fill="#F1F1F1" height="85.2422" id="Team" rx="2.5" ry="2.5" style="stroke:#181818;stroke-width:0.5;" width="96" x="955.5" y="816.5"/><ellipse cx="983.1" cy="832.5" fill="#ADD1B2" rx="11" ry="11" style="stroke:#181818;stroke-width:1.0;"/><path d="M985.8656,828.375 Q986.0219,828.1563 986.2094,828.0469 Q986.3969,827.9375 986.6156,827.9375 Q986.9906,827.9375 987.225,828.2031 Q987.4594,828.4531 987.4594,829.0625 L987.4594,830.5156 Q987.4594,831.125 987.225,831.3906 Q986.9906,831.6563 986.6156,831.6563 Q986.2719,831.6563 986.0688,831.4531 Q985.8656,831.2656 985.7563,830.75 Q985.7094,830.3906 985.5219,830.2031 Q985.1938,829.8281 984.5844,829.6094 Q983.975,829.3906 983.35,829.3906 Q982.5844,829.3906 981.9438,829.7188 Q981.3188,830.0469 980.8188,830.7969 Q980.3344,831.5469 980.3344,832.5781 L980.3344,833.6719 Q980.3344,834.9063 981.225,835.7344 Q982.1156,836.5469 983.7094,836.5469 Q984.6469,836.5469 985.3031,836.2969 Q985.6938,836.1406 986.1156,835.7031 Q986.3813,835.4375 986.5219,835.3594 Q986.6781,835.2813 986.8813,835.2813 Q987.2094,835.2813 987.4594,835.5469 Q987.725,835.7969 987.725,836.1406 Q987.725,836.4844 987.3813,836.8906 Q986.8813,837.4688 986.0844,837.7969 Q985.0063,838.25 983.7094,838.25 Q982.1938,838.25 980.9906,837.625 Q980.0063,837.125 979.3188,836.0625 Q978.6313,834.9844 978.6313,833.7031 L978.6313,832.5469 Q978.6313,831.2188 979.2406,830.0781 Q979.8656,828.9219 980.9594,828.3125 Q982.0531,827.6875 983.2875,827.6875 Q984.0219,827.6875 984.6625,827.8594 Q985.3188,828.0156 985.8656,828.375 Z " fill="#000000"/><text fill="#000000" font-family="sans-serif" font-size="14" lengthAdjust="spacing" textLength="36" x="999.9" y="838.2969">Team</text><line style="stroke:#181818;stroke-width:0.5;" x1="956.5" x2="1050.5" y1="848.5" y2="848.5"/><text fill="#000000" font-family="sans-serif" font-size="14" lengthAdjust="spacing" textLength="84" x="961.5" y="867.6074">maximumSize</text><text fill="#000000" font-family="sans-serif" font-size="14" lengthAdjust="spacing" textLength="81" x="961.5" y="886.2285">minimumSize</text><line style="stroke:#181818;stroke-width:0.5;" x1="956.5" x2="1050.5" y1="893.7422" y2="893.7422"/></g><!--class TeamRepository--><g id="elem_TeamRepository"><rect codeLine="83" fill="#F1F1F1" height="103.8633" id="TeamRepository" rx="2.5" ry="2.5" style="stroke:#181818;stroke-width:0.5;" width="362" x="822.5" y="999"/><ellipse cx="947.25" cy="1015" fill="#ADD1B2" rx="11" ry="11" style="stroke:#181818;stroke-width:1.0;"/><path d="M950.0156,1010.875 Q950.1719,1010.6563 950.3594,1010.5469 Q950.5469,1010.4375 950.7656,1010.4375 Q951.1406,1010.4375 951.375,1010.7031 Q951.6094,1010.9531 951.6094,1011.5625 L951.6094,1013.0156 Q951.6094,1013.625 951.375,1013.8906 Q951.1406,1014.1563 950.7656,1014.1563 Q950.4219,1014.1563 950.2188,1013.9531 Q950.0156,1013.7656 949.9063,1013.25 Q949.8594,1012.8906 949.6719,1012.7031 Q949.3438,1012.3281 948.7344,1012.1094 Q948.125,1011.8906 947.5,1011.8906 Q946.7344,1011.8906 946.0938,1012.2188 Q945.4688,1012.5469 944.9688,1013.2969 Q944.4844,1014.0469 944.4844,1015.0781 L944.4844,1016.1719 Q944.4844,1017.4063 945.375,1018.2344 Q946.2656,1019.0469 947.8594,1019.0469 Q948.7969,1019.0469 949.4531,1018.7969 Q949.8438,1018.6406 950.2656,1018.2031 Q950.5313,1017.9375 950.6719,1017.8594 Q950.8281,1017.7813 951.0313,1017.7813 Q951.3594,1017.7813 951.6094,1018.0469 Q951.875,1018.2969 951.875,1018.6406 Q951.875,1018.9844 951.5313,1019.3906 Q951.0313,1019.9688 950.2344,1020.2969 Q949.1563,1020.75 947.8594,1020.75 Q946.3438,1020.75 945.1406,1020.125 Q944.1563,1019.625 943.4688,1018.5625 Q942.7813,1017.4844 942.7813,1016.2031 L942.7813,1015.0469 Q942.7813,1013.7188 943.3906,1012.5781 Q944.0156,1011.4219 945.1094,1010.8125 Q946.2031,1010.1875 947.4375,1010.1875 Q948.1719,1010.1875 948.8125,1010.3594 Q949.4688,1010.5156 950.0156,1010.875 Z " fill="#000000"/><text fill="#000000" font-family="sans-serif" font-size="14" lengthAdjust="spacing" textLength="104" x="967.75" y="1020.7969">TeamRepository</text><line style="stroke:#181818;stroke-width:0.5;" x1="823.5" x2="1183.5" y1="1031" y2="1031"/><text fill="#000000" font-family="sans-serif" font-size="14" lengthAdjust="spacing" textLength="150" x="828.5" y="1050.1074">ArrayList&lt;Team&gt; teams</text><line style="stroke:#181818;stroke-width:0.5;" x1="823.5" x2="1183.5" y1="1057.6211" y2="1057.6211"/><text fill="#000000" font-family="sans-serif" font-size="14" lengthAdjust="spacing" textLength="81" x="828.5" y="1076.7285">+getTeams()</text><text fill="#000000" font-family="sans-serif" font-size="14" lengthAdjust="spacing" textLength="350" x="828.5" y="1095.3496">+getTeamByCollaborators(teamDTO.getCollaborators()</text></g><!--class TeamMapper--><g id="elem_TeamMapper"><rect codeLine="90" fill="#F1F1F1" height="85.2422" id="TeamMapper" rx="2.5" ry="2.5" style="stroke:#181818;stroke-width:0.5;" width="236" x="886.5" y="339"/><ellipse cx="958.25" cy="355" fill="#ADD1B2" rx="11" ry="11" style="stroke:#181818;stroke-width:1.0;"/><path d="M961.0156,350.875 Q961.1719,350.6563 961.3594,350.5469 Q961.5469,350.4375 961.7656,350.4375 Q962.1406,350.4375 962.375,350.7031 Q962.6094,350.9531 962.6094,351.5625 L962.6094,353.0156 Q962.6094,353.625 962.375,353.8906 Q962.1406,354.1563 961.7656,354.1563 Q961.4219,354.1563 961.2188,353.9531 Q961.0156,353.7656 960.9063,353.25 Q960.8594,352.8906 960.6719,352.7031 Q960.3438,352.3281 959.7344,352.1094 Q959.125,351.8906 958.5,351.8906 Q957.7344,351.8906 957.0938,352.2188 Q956.4688,352.5469 955.9688,353.2969 Q955.4844,354.0469 955.4844,355.0781 L955.4844,356.1719 Q955.4844,357.4063 956.375,358.2344 Q957.2656,359.0469 958.8594,359.0469 Q959.7969,359.0469 960.4531,358.7969 Q960.8438,358.6406 961.2656,358.2031 Q961.5313,357.9375 961.6719,357.8594 Q961.8281,357.7813 962.0313,357.7813 Q962.3594,357.7813 962.6094,358.0469 Q962.875,358.2969 962.875,358.6406 Q962.875,358.9844 962.5313,359.3906 Q962.0313,359.9688 961.2344,360.2969 Q960.1563,360.75 958.8594,360.75 Q957.3438,360.75 956.1406,360.125 Q955.1563,359.625 954.4688,358.5625 Q953.7813,357.4844 953.7813,356.2031 L953.7813,355.0469 Q953.7813,353.7188 954.3906,352.5781 Q955.0156,351.4219 956.1094,350.8125 Q957.2031,350.1875 958.4375,350.1875 Q959.1719,350.1875 959.8125,350.3594 Q960.4688,350.5156 961.0156,350.875 Z " fill="#000000"/><text fill="#000000" font-family="sans-serif" font-size="14" lengthAdjust="spacing" textLength="84" x="978.75" y="360.7969">TeamMapper</text><line style="stroke:#181818;stroke-width:0.5;" x1="887.5" x2="1121.5" y1="371" y2="371"/><line style="stroke:#181818;stroke-width:0.5;" x1="887.5" x2="1121.5" y1="379" y2="379"/><text fill="#000000" font-family="sans-serif" font-size="14" lengthAdjust="spacing" textLength="224" x="892.5" y="398.1074">+toDtoList(ArrayList&lt;Team&gt; teams)</text><text fill="#000000" font-family="sans-serif" font-size="14" lengthAdjust="spacing" textLength="127" x="892.5" y="416.7285">+toDtoList(teamList)</text></g><!--class TeamDTO--><g id="elem_TeamDTO"><rect codeLine="96" fill="#F1F1F1" height="66.6211" id="TeamDTO" rx="2.5" ry="2.5" style="stroke:#181818;stroke-width:0.5;" width="162" x="923.5" y="72"/><ellipse cx="967.3" cy="88" fill="#ADD1B2" rx="11" ry="11" style="stroke:#181818;stroke-width:1.0;"/><path d="M970.0656,83.875 Q970.2219,83.6563 970.4094,83.5469 Q970.5969,83.4375 970.8156,83.4375 Q971.1906,83.4375 971.425,83.7031 Q971.6594,83.9531 971.6594,84.5625 L971.6594,86.0156 Q971.6594,86.625 971.425,86.8906 Q971.1906,87.1563 970.8156,87.1563 Q970.4719,87.1563 970.2688,86.9531 Q970.0656,86.7656 969.9563,86.25 Q969.9094,85.8906 969.7219,85.7031 Q969.3938,85.3281 968.7844,85.1094 Q968.175,84.8906 967.55,84.8906 Q966.7844,84.8906 966.1438,85.2188 Q965.5188,85.5469 965.0188,86.2969 Q964.5344,87.0469 964.5344,88.0781 L964.5344,89.1719 Q964.5344,90.4063 965.425,91.2344 Q966.3156,92.0469 967.9094,92.0469 Q968.8469,92.0469 969.5031,91.7969 Q969.8938,91.6406 970.3156,91.2031 Q970.5813,90.9375 970.7219,90.8594 Q970.8781,90.7813 971.0813,90.7813 Q971.4094,90.7813 971.6594,91.0469 Q971.925,91.2969 971.925,91.6406 Q971.925,91.9844 971.5813,92.3906 Q971.0813,92.9688 970.2844,93.2969 Q969.2063,93.75 967.9094,93.75 Q966.3938,93.75 965.1906,93.125 Q964.2063,92.625 963.5188,91.5625 Q962.8313,90.4844 962.8313,89.2031 L962.8313,88.0469 Q962.8313,86.7188 963.4406,85.5781 Q964.0656,84.4219 965.1594,83.8125 Q966.2531,83.1875 967.4875,83.1875 Q968.2219,83.1875 968.8625,83.3594 Q969.5188,83.5156 970.0656,83.875 Z " fill="#000000"/><text fill="#000000" font-family="sans-serif" font-size="14" lengthAdjust="spacing" textLength="66" x="987.7" y="93.7969">TeamDTO</text><line style="stroke:#181818;stroke-width:0.5;" x1="924.5" x2="1084.5" y1="104" y2="104"/><text fill="#000000" font-family="sans-serif" font-size="14" lengthAdjust="spacing" textLength="150" x="929.5" y="123.1074">ArrayList&lt;Team&gt; teams</text><line style="stroke:#181818;stroke-width:0.5;" x1="924.5" x2="1084.5" y1="130.6211" y2="130.6211"/></g><!--class EmailService--><g id="elem_EmailService"><rect codeLine="100" fill="#F1F1F1" height="66.6211" id="EmailService" rx="2.5" ry="2.5" style="stroke:#181818;stroke-width:0.5;" width="146" x="1356.5" y="348"/><ellipse cx="1386.8" cy="364" fill="#B4A7E5" rx="11" ry="11" style="stroke:#181818;stroke-width:1.0;"/><path d="M1387.7531,360.6406 L1387.7531,367.2969 L1389.4719,367.2969 Q1390.0813,367.2969 1390.3469,367.5313 Q1390.6125,367.7656 1390.6125,368.1563 Q1390.6125,368.5313 1390.3469,368.7656 Q1390.0813,369 1389.4719,369 L1384.3313,369 Q1383.7219,369 1383.4563,368.7656 Q1383.1906,368.5313 1383.1906,368.1406 Q1383.1906,367.7656 1383.4563,367.5313 Q1383.7219,367.2969 1384.3313,367.2969 L1386.05,367.2969 L1386.05,360.6406 L1384.3313,360.6406 Q1383.7219,360.6406 1383.4563,360.4063 Q1383.1906,360.1719 1383.1906,359.7813 Q1383.1906,359.4063 1383.4563,359.1719 Q1383.7219,358.9375 1384.3313,358.9375 L1389.4719,358.9375 Q1390.0813,358.9375 1390.3469,359.1719 Q1390.6125,359.4063 1390.6125,359.7813 Q1390.6125,360.1719 1390.3469,360.4063 Q1390.0813,360.6406 1389.4719,360.6406 L1387.7531,360.6406 Z " fill="#000000"/><text fill="#000000" font-family="sans-serif" font-size="14" font-style="italic" lengthAdjust="spacing" textLength="80" x="1404.2" y="369.7969">EmailService</text><line style="stroke:#181818;stroke-width:0.5;" x1="1357.5" x2="1501.5" y1="380" y2="380"/><line style="stroke:#181818;stroke-width:0.5;" x1="1357.5" x2="1501.5" y1="388" y2="388"/><text fill="#000000" font-family="sans-serif" font-size="14" lengthAdjust="spacing" textLength="134" x="1362.5" y="407.1074">+sendEmail(to, body)</text></g><!--class DeiService--><g id="elem_DeiService"><rect codeLine="104" fill="#F1F1F1" height="66.6211" id="DeiService" rx="2.5" ry="2.5" style="stroke:#181818;stroke-width:0.5;" width="146" x="1175.5" y="605.5"/><ellipse cx="1211.2" cy="621.5" fill="#ADD1B2" rx="11" ry="11" style="stroke:#181818;stroke-width:1.0;"/><path d="M1213.9656,617.375 Q1214.1219,617.1563 1214.3094,617.0469 Q1214.4969,616.9375 1214.7156,616.9375 Q1215.0906,616.9375 1215.325,617.2031 Q1215.5594,617.4531 1215.5594,618.0625 L1215.5594,619.5156 Q1215.5594,620.125 1215.325,620.3906 Q1215.0906,620.6563 1214.7156,620.6563 Q1214.3719,620.6563 1214.1688,620.4531 Q1213.9656,620.2656 1213.8563,619.75 Q1213.8094,619.3906 1213.6219,619.2031 Q1213.2938,618.8281 1212.6844,618.6094 Q1212.075,618.3906 1211.45,618.3906 Q1210.6844,618.3906 1210.0438,618.7188 Q1209.4188,619.0469 1208.9188,619.7969 Q1208.4344,620.5469 1208.4344,621.5781 L1208.4344,622.6719 Q1208.4344,623.9063 1209.325,624.7344 Q1210.2156,625.5469 1211.8094,625.5469 Q1212.7469,625.5469 1213.4031,625.2969 Q1213.7938,625.1406 1214.2156,624.7031 Q1214.4813,624.4375 1214.6219,624.3594 Q1214.7781,624.2813 1214.9813,624.2813 Q1215.3094,624.2813 1215.5594,624.5469 Q1215.825,624.7969 1215.825,625.1406 Q1215.825,625.4844 1215.4813,625.8906 Q1214.9813,626.4688 1214.1844,626.7969 Q1213.1063,627.25 1211.8094,627.25 Q1210.2938,627.25 1209.0906,626.625 Q1208.1063,626.125 1207.4188,625.0625 Q1206.7313,623.9844 1206.7313,622.7031 L1206.7313,621.5469 Q1206.7313,620.2188 1207.3406,619.0781 Q1207.9656,617.9219 1209.0594,617.3125 Q1210.1531,616.6875 1211.3875,616.6875 Q1212.1219,616.6875 1212.7625,616.8594 Q1213.4188,617.0156 1213.9656,617.375 Z " fill="#000000"/><text fill="#000000" font-family="sans-serif" font-size="14" lengthAdjust="spacing" textLength="68" x="1229.8" y="627.2969">DeiService</text><line style="stroke:#181818;stroke-width:0.5;" x1="1176.5" x2="1320.5" y1="637.5" y2="637.5"/><line style="stroke:#181818;stroke-width:0.5;" x1="1176.5" x2="1320.5" y1="645.5" y2="645.5"/><text fill="#000000" font-family="sans-serif" font-size="14" lengthAdjust="spacing" textLength="134" x="1181.5" y="664.6074">+sendEmail(to, body)</text></g><!--class GmailService--><g id="elem_GmailService"><rect codeLine="108" fill="#F1F1F1" height="66.6211" id="GmailService" rx="2.5" ry="2.5" style="stroke:#181818;stroke-width:0.5;" width="146" x="1356.5" y="605.5"/><ellipse cx="1385.45" cy="621.5" fill="#ADD1B2" rx="11" ry="11" style="stroke:#181818;stroke-width:1.0;"/><path d="M1388.2156,617.375 Q1388.3719,617.1563 1388.5594,617.0469 Q1388.7469,616.9375 1388.9656,616.9375 Q1389.3406,616.9375 1389.575,617.2031 Q1389.8094,617.4531 1389.8094,618.0625 L1389.8094,619.5156 Q1389.8094,620.125 1389.575,620.3906 Q1389.3406,620.6563 1388.9656,620.6563 Q1388.6219,620.6563 1388.4188,620.4531 Q1388.2156,620.2656 1388.1063,619.75 Q1388.0594,619.3906 1387.8719,619.2031 Q1387.5438,618.8281 1386.9344,618.6094 Q1386.325,618.3906 1385.7,618.3906 Q1384.9344,618.3906 1384.2938,618.7188 Q1383.6688,619.0469 1383.1688,619.7969 Q1382.6844,620.5469 1382.6844,621.5781 L1382.6844,622.6719 Q1382.6844,623.9063 1383.575,624.7344 Q1384.4656,625.5469 1386.0594,625.5469 Q1386.9969,625.5469 1387.6531,625.2969 Q1388.0438,625.1406 1388.4656,624.7031 Q1388.7313,624.4375 1388.8719,624.3594 Q1389.0281,624.2813 1389.2313,624.2813 Q1389.5594,624.2813 1389.8094,624.5469 Q1390.075,624.7969 1390.075,625.1406 Q1390.075,625.4844 1389.7313,625.8906 Q1389.2313,626.4688 1388.4344,626.7969 Q1387.3563,627.25 1386.0594,627.25 Q1384.5438,627.25 1383.3406,626.625 Q1382.3563,626.125 1381.6688,625.0625 Q1380.9813,623.9844 1380.9813,622.7031 L1380.9813,621.5469 Q1380.9813,620.2188 1381.5906,619.0781 Q1382.2156,617.9219 1383.3094,617.3125 Q1384.4031,616.6875 1385.6375,616.6875 Q1386.3719,616.6875 1387.0125,616.8594 Q1387.6688,617.0156 1388.2156,617.375 Z " fill="#000000"/><text fill="#000000" font-family="sans-serif" font-size="14" lengthAdjust="spacing" textLength="83" x="1402.55" y="627.2969">GmailService</text><line style="stroke:#181818;stroke-width:0.5;" x1="1357.5" x2="1501.5" y1="637.5" y2="637.5"/><line style="stroke:#181818;stroke-width:0.5;" x1="1357.5" x2="1501.5" y1="645.5" y2="645.5"/><text fill="#000000" font-family="sans-serif" font-size="14" lengthAdjust="spacing" textLength="134" x="1362.5" y="664.6074">+sendEmail(to, body)</text></g><!--class OutlookService--><g id="elem_OutlookService"><rect codeLine="112" fill="#F1F1F1" height="66.6211" id="OutlookService" rx="2.5" ry="2.5" style="stroke:#181818;stroke-width:0.5;" width="146" x="1537.5" y="605.5"/><ellipse cx="1560.6" cy="621.5" fill="#ADD1B2" rx="11" ry="11" style="stroke:#181818;stroke-width:1.0;"/><path d="M1563.3656,617.375 Q1563.5219,617.1563 1563.7094,617.0469 Q1563.8969,616.9375 1564.1156,616.9375 Q1564.4906,616.9375 1564.725,617.2031 Q1564.9594,617.4531 1564.9594,618.0625 L1564.9594,619.5156 Q1564.9594,620.125 1564.725,620.3906 Q1564.4906,620.6563 1564.1156,620.6563 Q1563.7719,620.6563 1563.5688,620.4531 Q1563.3656,620.2656 1563.2563,619.75 Q1563.2094,619.3906 1563.0219,619.2031 Q1562.6938,618.8281 1562.0844,618.6094 Q1561.475,618.3906 1560.85,618.3906 Q1560.0844,618.3906 1559.4438,618.7188 Q1558.8188,619.0469 1558.3188,619.7969 Q1557.8344,620.5469 1557.8344,621.5781 L1557.8344,622.6719 Q1557.8344,623.9063 1558.725,624.7344 Q1559.6156,625.5469 1561.2094,625.5469 Q1562.1469,625.5469 1562.8031,625.2969 Q1563.1938,625.1406 1563.6156,624.7031 Q1563.8813,624.4375 1564.0219,624.3594 Q1564.1781,624.2813 1564.3813,624.2813 Q1564.7094,624.2813 1564.9594,624.5469 Q1565.225,624.7969 1565.225,625.1406 Q1565.225,625.4844 1564.8813,625.8906 Q1564.3813,626.4688 1563.5844,626.7969 Q1562.5063,627.25 1561.2094,627.25 Q1559.6938,627.25 1558.4906,626.625 Q1557.5063,626.125 1556.8188,625.0625 Q1556.1313,623.9844 1556.1313,622.7031 L1556.1313,621.5469 Q1556.1313,620.2188 1556.7406,619.0781 Q1557.3656,617.9219 1558.4594,617.3125 Q1559.5531,616.6875 1560.7875,616.6875 Q1561.5219,616.6875 1562.1625,616.8594 Q1562.8188,617.0156 1563.3656,617.375 Z " fill="#000000"/><text fill="#000000" font-family="sans-serif" font-size="14" lengthAdjust="spacing" textLength="96" x="1576.4" y="627.2969">OutlookService</text><line style="stroke:#181818;stroke-width:0.5;" x1="1538.5" x2="1682.5" y1="637.5" y2="637.5"/><line style="stroke:#181818;stroke-width:0.5;" x1="1538.5" x2="1682.5" y1="645.5" y2="645.5"/><text fill="#000000" font-family="sans-serif" font-size="14" lengthAdjust="spacing" textLength="134" x="1543.5" y="664.6074">+sendEmail(to, body)</text></g><!--class ApplicationSession--><g id="elem_ApplicationSession"><rect codeLine="116" fill="#F1F1F1" height="159.7266" id="ApplicationSession" rx="2.5" ry="2.5" style="stroke:#181818;stroke-width:0.5;" width="340" x="1259.5" y="25.5"/><ellipse cx="1365.75" cy="41.5" fill="#ADD1B2" rx="11" ry="11" style="stroke:#181818;stroke-width:1.0;"/><path d="M1368.5156,37.375 Q1368.6719,37.1563 1368.8594,37.0469 Q1369.0469,36.9375 1369.2656,36.9375 Q1369.6406,36.9375 1369.875,37.2031 Q1370.1094,37.4531 1370.1094,38.0625 L1370.1094,39.5156 Q1370.1094,40.125 1369.875,40.3906 Q1369.6406,40.6563 1369.2656,40.6563 Q1368.9219,40.6563 1368.7188,40.4531 Q1368.5156,40.2656 1368.4063,39.75 Q1368.3594,39.3906 1368.1719,39.2031 Q1367.8438,38.8281 1367.2344,38.6094 Q1366.625,38.3906 1366,38.3906 Q1365.2344,38.3906 1364.5938,38.7188 Q1363.9688,39.0469 1363.4688,39.7969 Q1362.9844,40.5469 1362.9844,41.5781 L1362.9844,42.6719 Q1362.9844,43.9063 1363.875,44.7344 Q1364.7656,45.5469 1366.3594,45.5469 Q1367.2969,45.5469 1367.9531,45.2969 Q1368.3438,45.1406 1368.7656,44.7031 Q1369.0313,44.4375 1369.1719,44.3594 Q1369.3281,44.2813 1369.5313,44.2813 Q1369.8594,44.2813 1370.1094,44.5469 Q1370.375,44.7969 1370.375,45.1406 Q1370.375,45.4844 1370.0313,45.8906 Q1369.5313,46.4688 1368.7344,46.7969 Q1367.6563,47.25 1366.3594,47.25 Q1364.8438,47.25 1363.6406,46.625 Q1362.6563,46.125 1361.9688,45.0625 Q1361.2813,43.9844 1361.2813,42.7031 L1361.2813,41.5469 Q1361.2813,40.2188 1361.8906,39.0781 Q1362.5156,37.9219 1363.6094,37.3125 Q1364.7031,36.6875 1365.9375,36.6875 Q1366.6719,36.6875 1367.3125,36.8594 Q1367.9688,37.0156 1368.5156,37.375 Z " fill="#000000"/><text fill="#000000" font-family="sans-serif" font-size="14" lengthAdjust="spacing" textLength="119" x="1386.25" y="47.2969">ApplicationSession</text><line style="stroke:#181818;stroke-width:0.5;" x1="1260.5" x2="1598.5" y1="57.5" y2="57.5"/><text fill="#000000" font-family="sans-serif" font-size="14" lengthAdjust="spacing" textLength="328" x="1265.5" y="76.6074">-authenticationRepository: AuthenticationRepository</text><text fill="#000000" font-family="sans-serif" font-size="14" lengthAdjust="spacing" textLength="174" x="1265.5" y="95.2285">-emailService: EmailService</text><text fill="#000000" font-family="sans-serif" font-size="14" lengthAdjust="spacing" textLength="193" x="1265.5" y="113.8496">-CONFIGURATION_FILENAME</text><text fill="#000000" font-family="sans-serif" font-size="14" lengthAdjust="spacing" textLength="173" x="1265.5" y="132.4707">-COMPANY_DESIGNATION</text><line style="stroke:#181818;stroke-width:0.5;" x1="1260.5" x2="1598.5" y1="139.9844" y2="139.9844"/><text fill="#000000" font-family="sans-serif" font-size="14" lengthAdjust="spacing" textLength="173" x="1265.5" y="159.0918">-getProperties(): Properties</text><text fill="#000000" font-family="sans-serif" font-size="14" lengthAdjust="spacing" textLength="228" x="1265.5" y="177.7129">+createEmailService(): EmailService</text></g><!--class GSM--><g id="elem_GSM"><rect fill="#F1F1F1" height="48" id="GSM" rx="2.5" ry="2.5" style="stroke:#181818;stroke-width:0.5;" width="63" x="149" y="81.5"/><ellipse cx="164" cy="97.5" fill="#ADD1B2" rx="11" ry="11" style="stroke:#181818;stroke-width:1.0;"/><path d="M166.7656,93.375 Q166.9219,93.1563 167.1094,93.0469 Q167.2969,92.9375 167.5156,92.9375 Q167.8906,92.9375 168.125,93.2031 Q168.3594,93.4531 168.3594,94.0625 L168.3594,95.5156 Q168.3594,96.125 168.125,96.3906 Q167.8906,96.6563 167.5156,96.6563 Q167.1719,96.6563 166.9688,96.4531 Q166.7656,96.2656 166.6563,95.75 Q166.6094,95.3906 166.4219,95.2031 Q166.0938,94.8281 165.4844,94.6094 Q164.875,94.3906 164.25,94.3906 Q163.4844,94.3906 162.8438,94.7188 Q162.2188,95.0469 161.7188,95.7969 Q161.2344,96.5469 161.2344,97.5781 L161.2344,98.6719 Q161.2344,99.9063 162.125,100.7344 Q163.0156,101.5469 164.6094,101.5469 Q165.5469,101.5469 166.2031,101.2969 Q166.5938,101.1406 167.0156,100.7031 Q167.2813,100.4375 167.4219,100.3594 Q167.5781,100.2813 167.7813,100.2813 Q168.1094,100.2813 168.3594,100.5469 Q168.625,100.7969 168.625,101.1406 Q168.625,101.4844 168.2813,101.8906 Q167.7813,102.4688 166.9844,102.7969 Q165.9063,103.25 164.6094,103.25 Q163.0938,103.25 161.8906,102.625 Q160.9063,102.125 160.2188,101.0625 Q159.5313,99.9844 159.5313,98.7031 L159.5313,97.5469 Q159.5313,96.2188 160.1406,95.0781 Q160.7656,93.9219 161.8594,93.3125 Q162.9531,92.6875 164.1875,92.6875 Q164.9219,92.6875 165.5625,92.8594 Q166.2188,93.0156 166.7656,93.375 Z " fill="#000000"/><text fill="#000000" font-family="sans-serif" font-size="14" lengthAdjust="spacing" textLength="31" x="178" y="103.2969">GSM</text><line style="stroke:#181818;stroke-width:0.5;" x1="150" x2="211" y1="113.5" y2="113.5"/><line style="stroke:#181818;stroke-width:0.5;" x1="150" x2="211" y1="121.5" y2="121.5"/></g><!--class ToDoEntry--><g id="elem_ToDoEntry"><rect fill="#F1F1F1" height="48" id="ToDoEntry" rx="2.5" ry="2.5" style="stroke:#181818;stroke-width:0.5;" width="100" x="1157.5" y="357.5"/><ellipse cx="1172.5" cy="373.5" fill="#ADD1B2" rx="11" ry="11" style="stroke:#181818;stroke-width:1.0;"/><path d="M1175.2656,369.375 Q1175.4219,369.1563 1175.6094,369.0469 Q1175.7969,368.9375 1176.0156,368.9375 Q1176.3906,368.9375 1176.625,369.2031 Q1176.8594,369.4531 1176.8594,370.0625 L1176.8594,371.5156 Q1176.8594,372.125 1176.625,372.3906 Q1176.3906,372.6563 1176.0156,372.6563 Q1175.6719,372.6563 1175.4688,372.4531 Q1175.2656,372.2656 1175.1563,371.75 Q1175.1094,371.3906 1174.9219,371.2031 Q1174.5938,370.8281 1173.9844,370.6094 Q1173.375,370.3906 1172.75,370.3906 Q1171.9844,370.3906 1171.3438,370.7188 Q1170.7188,371.0469 1170.2188,371.7969 Q1169.7344,372.5469 1169.7344,373.5781 L1169.7344,374.6719 Q1169.7344,375.9063 1170.625,376.7344 Q1171.5156,377.5469 1173.1094,377.5469 Q1174.0469,377.5469 1174.7031,377.2969 Q1175.0938,377.1406 1175.5156,376.7031 Q1175.7813,376.4375 1175.9219,376.3594 Q1176.0781,376.2813 1176.2813,376.2813 Q1176.6094,376.2813 1176.8594,376.5469 Q1177.125,376.7969 1177.125,377.1406 Q1177.125,377.4844 1176.7813,377.8906 Q1176.2813,378.4688 1175.4844,378.7969 Q1174.4063,379.25 1173.1094,379.25 Q1171.5938,379.25 1170.3906,378.625 Q1169.4063,378.125 1168.7188,377.0625 Q1168.0313,375.9844 1168.0313,374.7031 L1168.0313,373.5469 Q1168.0313,372.2188 1168.6406,371.0781 Q1169.2656,369.9219 1170.3594,369.3125 Q1171.4531,368.6875 1172.6875,368.6875 Q1173.4219,368.6875 1174.0625,368.8594 Q1174.7188,369.0156 1175.2656,369.375 Z " fill="#000000"/><text fill="#000000" font-family="sans-serif" font-size="14" lengthAdjust="spacing" textLength="68" x="1186.5" y="379.2969">ToDoEntry</text><line style="stroke:#181818;stroke-width:0.5;" x1="1158.5" x2="1256.5" y1="389.5" y2="389.5"/><line style="stroke:#181818;stroke-width:0.5;" x1="1158.5" x2="1256.5" y1="397.5" y2="397.5"/></g><!--reverse link EmailService to DeiService--><g id="link_EmailService_DeiService"><path d="M1395.9851,429.808 C1361.2951,478.778 1306.53,556.08 1271.76,605.17 " fill="none" id="EmailService-backto-DeiService" style="stroke:#181818;stroke-width:1.0;stroke-dasharray:7.0,7.0;"/><polygon fill="none" points="1406.39,415.12,1391.0891,426.3397,1400.8811,433.2763,1406.39,415.12" style="stroke:#181818;stroke-width:1.0;"/></g><!--reverse link EmailService to GmailService--><g id="link_EmailService_GmailService"><path d="M1429.5,433.12 C1429.5,482.09 1429.5,556.08 1429.5,605.17 " fill="none" id="EmailService-backto-GmailService" style="stroke:#181818;stroke-width:1.0;stroke-dasharray:7.0,7.0;"/><polygon fill="none" points="1429.5,415.12,1423.5,433.12,1435.5,433.12,1429.5,415.12" style="stroke:#181818;stroke-width:1.0;"/></g><!--reverse link EmailService to OutlookService--><g id="link_EmailService_OutlookService"><path d="M1463.0149,429.808 C1497.7049,478.778 1552.47,556.08 1587.24,605.17 " fill="none" id="EmailService-backto-OutlookService" style="stroke:#181818;stroke-width:1.0;stroke-dasharray:7.0,7.0;"/><polygon fill="none" points="1452.61,415.12,1458.1189,433.2763,1467.9109,426.3397,1452.61,415.12" style="stroke:#181818;stroke-width:1.0;"/></g><!--link AgendaUI to TeamToAgendaEntryController--><g id="link_AgendaUI_TeamToAgendaEntryController"><path codeLine="129" d="M227.08,381.5 C241.09,381.5 248.76,381.5 256.36,381.5 " fill="none" id="AgendaUI-to-TeamToAgendaEntryController" style="stroke:#181818;stroke-width:1.0;stroke-dasharray:7.0,7.0;"/><polygon fill="#181818" points="262.36,381.5,253.36,377.5,257.36,381.5,253.36,385.5,262.36,381.5" style="stroke:#181818;stroke-width:1.0;"/></g><!--link TeamToAgendaEntryController to Repositories--><g id="link_TeamToAgendaEntryController_Repositories"><path codeLine="130" d="M507.59,480.19 C524.33,506.11 538.9462,528.7389 554.9662,553.5589 " fill="none" id="TeamToAgendaEntryController-to-Repositories" style="stroke:#181818;stroke-width:1.0;stroke-dasharray:7.0,7.0;"/><polygon fill="#181818" points="558.22,558.6,556.7001,548.8691,555.5085,554.3991,549.9786,553.2075,558.22,558.6" style="stroke:#181818;stroke-width:1.0;"/><text fill="#000000" font-family="sans-serif" font-size="13" lengthAdjust="spacing" textLength="67" x="538.5" y="525.0283">repositories</text></g><!--link Repositories to AgendaEntryRepository--><g id="link_Repositories_AgendaEntryRepository"><path codeLine="131" d="M609.5,719.01 C609.5,744.97 609.5,767.38 609.5,791.72 " fill="none" id="Repositories-to-AgendaEntryRepository" style="stroke:#181818;stroke-width:1.0;"/><polygon fill="#181818" points="609.5,797.72,613.5,788.72,609.5,792.72,605.5,788.72,609.5,797.72" style="stroke:#181818;stroke-width:1.0;"/><text fill="#000000" font-family="sans-serif" font-size="13" lengthAdjust="spacing" textLength="7" x="602.0953" y="786.6688">1</text></g><!--link Repositories to Repositories--><g id="link_Repositories_Repositories"><path codeLine="132" d="M709.59,617.72 C729.93,620.04 744.5,627.13 744.5,639 C744.5,650.87 735.8913,657.28 715.5513,659.6 " fill="none" id="Repositories-to-Repositories" style="stroke:#181818;stroke-width:1.0;"/><polygon fill="#181818" points="709.59,660.28,718.9853,663.2343,714.5578,659.7134,718.0787,655.2858,709.59,660.28" style="stroke:#181818;stroke-width:1.0;"/><text fill="#000000" font-family="sans-serif" font-size="13" lengthAdjust="spacing" textLength="49" x="750.5" y="644.5283">instance</text></g><!--link TeamToAgendaEntryController to AgendaEntryMapper--><g id="link_TeamToAgendaEntryController_AgendaEntryMapper"><path codeLine="133" d="M626.52,381.5 C641.44,381.5 652.5,381.5 652.5,381.5 C652.5,381.5 650.01,381.5 655.73,381.5 " fill="none" id="TeamToAgendaEntryController-to-AgendaEntryMapper" style="stroke:#181818;stroke-width:1.0;stroke-dasharray:7.0,7.0;"/><polygon fill="#181818" points="661.73,381.5,652.73,377.5,656.73,381.5,652.73,385.5,661.73,381.5" style="stroke:#181818;stroke-width:1.0;"/></g><!--link TeamToAgendaEntryController to TeamMapper--><g id="link_TeamToAgendaEntryController_TeamMapper"><path codeLine="134" d="M599.96,282.86 C634.97,260.65 662,243.5 662,243.5 C662,243.5 851,243.5 851,243.5 C851,243.5 907.6283,294.4084 952.7283,334.9584 " fill="none" id="TeamToAgendaEntryController-to-TeamMapper" style="stroke:#181818;stroke-width:1.0;stroke-dasharray:7.0,7.0;"/><polygon fill="#181818" points="957.19,338.97,953.1718,329.9781,953.4719,335.627,947.823,335.9271,957.19,338.97" style="stroke:#181818;stroke-width:1.0;"/></g><!--link TeamToAgendaEntryController to AgendaEntryRepository--><g id="link_TeamToAgendaEntryController_AgendaEntryRepository"><path codeLine="135" d="M449.44,480.28 C454.46,579.63 461.5,719 461.5,719 C461.5,719 501.0766,756.1623 541.0766,793.7323 " fill="none" id="TeamToAgendaEntryController-to-AgendaEntryRepository" style="stroke:#181818;stroke-width:1.0;"/><polygon fill="#181818" points="545.45,797.84,541.6284,788.7628,541.8055,794.4169,536.1514,794.594,545.45,797.84" style="stroke:#181818;stroke-width:1.0;"/><text fill="#000000" font-family="sans-serif" font-size="13" lengthAdjust="spacing" textLength="28" x="462.5" y="644.5283">uses</text></g><!--reverse link SystemUser to GSM--><g id="link_SystemUser_GSM"><path codeLine="137" d="M132.04,105.5 C143.65,105.5 140.5,105.5 140.5,105.5 C140.5,105.5 144.03,105.5 148.98,105.5 " fill="none" id="SystemUser-backto-GSM" style="stroke:#181818;stroke-width:1.0;"/><polygon fill="none" points="114.04,105.5,132.04,111.5,132.04,99.5,114.04,105.5" style="stroke:#181818;stroke-width:1.0;"/></g><!--reverse link ToDoEntry to AgendaEntry--><g id="link_ToDoEntry_AgendaEntry"><path codeLine="138" d="M1181.0855,420.3756 C1160.9855,449.2056 1139.5,480 1139.5,480 C1139.5,480 1093.74,533.17 1055.3,577.82 " fill="none" id="ToDoEntry-backto-AgendaEntry" style="stroke:#181818;stroke-width:1.0;"/><polygon fill="none" points="1191.38,405.61,1176.1637,416.9442,1186.0074,423.8071,1191.38,405.61" style="stroke:#181818;stroke-width:1.0;"/></g><!--link GSM to AgendaUI--><g id="link_GSM_AgendaUI"><path codeLine="140" d="M180.5,129.86 C180.5,181.63 180.5,305.49 180.5,357.2 " fill="none" id="GSM-AgendaUI" style="stroke:#181818;stroke-width:1.0;"/><text fill="#000000" font-family="sans-serif" font-size="13" lengthAdjust="spacing" textLength="7" x="172.6906" y="151.5208">1</text><text fill="#000000" font-family="sans-serif" font-size="13" lengthAdjust="spacing" textLength="7" x="172.6469" y="346.2688">1</text></g><!--reverse link AgendaEntry to AgendaEntryRepository--><g id="link_AgendaEntry_AgendaEntryRepository"><path codeLine="141" d="M905.3799,694.2945 C847.6999,726.2045 778.57,764.45 718.16,797.88 " fill="none" id="AgendaEntry-backto-AgendaEntryRepository" style="stroke:#181818;stroke-width:1.0;"/><polygon fill="#181818" points="910.63,691.39,900.8185,692.2467,906.2549,693.8104,904.6911,699.2468,910.63,691.39" style="stroke:#181818;stroke-width:1.0;"/><text fill="#000000" font-family="sans-serif" font-size="13" lengthAdjust="spacing" textLength="36" x="807.5" y="764.0283">stores</text><text fill="#000000" font-family="sans-serif" font-size="13" lengthAdjust="spacing" textLength="5" x="898.0302" y="691.9081">*</text><text fill="#000000" font-family="sans-serif" font-size="13" lengthAdjust="spacing" textLength="7" x="723.3191" y="786.8473">1</text></g><!--reverse link AgendaEntryDTO to AgendaEntryMapper--><g id="link_AgendaEntryDTO_AgendaEntryMapper"><path codeLine="142" d="M719.245,209.7544 C713.015,227.0344 710.5,234 710.5,234 C710.5,234 710.5,253 710.5,253 C710.5,253 731.14,310.22 744.77,348 " fill="none" id="AgendaEntryDTO-backto-AgendaEntryMapper" style="stroke:#181818;stroke-width:1.0;"/><polygon fill="#181818" points="721.28,204.11,714.4646,211.2199,719.5842,208.8136,721.9904,213.9332,721.28,204.11" style="stroke:#181818;stroke-width:1.0;"/><text fill="#000000" font-family="sans-serif" font-size="13" lengthAdjust="spacing" textLength="43" x="711.5" y="249.0283">creates</text><text fill="#000000" font-family="sans-serif" font-size="13" lengthAdjust="spacing" textLength="5" x="713.5099" y="226.016">*</text><text fill="#000000" font-family="sans-serif" font-size="13" lengthAdjust="spacing" textLength="7" x="734.7716" y="336.8255">1</text></g><!--reverse link AgendaEntryDTO to AgendaEntryMapper--><g id="link_AgendaEntryDTO_AgendaEntryMapper"><path codeLine="145" d="M758.9389,210.1084 C759.3389,227.3884 759.5,234 759.5,234 C759.5,234 759.5,253 759.5,253 C759.5,253 758.15,310.22 757.26,348 " fill="none" id="AgendaEntryDTO-backto-AgendaEntryMapper-1" style="stroke:#181818;stroke-width:1.0;"/><polygon fill="#181818" points="758.8,204.11,755.0093,213.2002,758.9157,209.1087,763.0072,213.015,758.8,204.11" style="stroke:#181818;stroke-width:1.0;"/><text fill="#000000" font-family="sans-serif" font-size="13" lengthAdjust="spacing" textLength="43" x="760.5" y="249.0283">creates</text><text fill="#000000" font-family="sans-serif" font-size="13" lengthAdjust="spacing" textLength="5" x="753.7853" y="226.016">*</text><text fill="#000000" font-family="sans-serif" font-size="13" lengthAdjust="spacing" textLength="7" x="749.7206" y="336.8255">1</text></g><!--link AgendaEntry to Team--><g id="link_AgendaEntry_Team"><path codeLine="143" d="M1003.5,700.15 C1003.5,737.07 1003.5,777.43 1003.5,810.33 " fill="none" id="AgendaEntry-to-Team" style="stroke:#181818;stroke-width:1.0;"/><polygon fill="#181818" points="1003.5,816.33,1007.5,807.33,1003.5,811.33,999.5,807.33,1003.5,816.33" style="stroke:#181818;stroke-width:1.0;"/><text fill="#000000" font-family="sans-serif" font-size="13" lengthAdjust="spacing" textLength="67" x="1004.5" y="764.0283">assigned to</text><text fill="#000000" font-family="sans-serif" font-size="13" lengthAdjust="spacing" textLength="7" x="996.0734" y="722.6551">1</text><text fill="#000000" font-family="sans-serif" font-size="13" lengthAdjust="spacing" textLength="7" x="995.9422" y="805.207">1</text></g><!--reverse link Team to TeamRepository--><g id="link_Team_TeamRepository"><path codeLine="144" d="M1003.5,907.7 C1003.5,936.32 1003.5,968.48 1003.5,998.93 " fill="none" id="Team-backto-TeamRepository" style="stroke:#181818;stroke-width:1.0;"/><polygon fill="#181818" points="1003.5,901.7,999.5,910.7,1003.5,906.7,1007.5,910.7,1003.5,901.7" style="stroke:#181818;stroke-width:1.0;"/><text fill="#000000" font-family="sans-serif" font-size="13" lengthAdjust="spacing" textLength="36" x="1004.5" y="965.0283">stores</text><text fill="#000000" font-family="sans-serif" font-size="13" lengthAdjust="spacing" textLength="5" x="998.1016" y="923.8922">*</text><text fill="#000000" font-family="sans-serif" font-size="13" lengthAdjust="spacing" textLength="7" x="996.0297" y="987.848">1</text></g><!--reverse link TeamDTO to TeamMapper--><g id="link_TeamDTO_TeamMapper"><path codeLine="146" d="M1004.5,145.01 C1004.5,194.76 1004.5,283.8 1004.5,338.64 " fill="none" id="TeamDTO-backto-TeamMapper" style="stroke:#181818;stroke-width:1.0;"/><polygon fill="#181818" points="1004.5,139.01,1000.5,148.01,1004.5,144.01,1008.5,148.01,1004.5,139.01" style="stroke:#181818;stroke-width:1.0;"/><text fill="#000000" font-family="sans-serif" font-size="13" lengthAdjust="spacing" textLength="43" x="1005.5" y="249.0283">creates</text><text fill="#000000" font-family="sans-serif" font-size="13" lengthAdjust="spacing" textLength="5" x="999.0547" y="160.581">*</text><text fill="#000000" font-family="sans-serif" font-size="13" lengthAdjust="spacing" textLength="7" x="996.9641" y="327.8076">1</text></g><!--link ApplicationSession to EmailService--><g id="link_ApplicationSession_EmailService"><path codeLine="149" d="M1429.5,185.75 C1429.5,239.65 1429.5,302.14 1429.5,341.88 " fill="none" id="ApplicationSession-to-EmailService" style="stroke:#181818;stroke-width:1.0;stroke-dasharray:7.0,7.0;"/><polygon fill="#181818" points="1429.5,347.88,1433.5,338.88,1429.5,342.88,1425.5,338.88,1429.5,347.88" style="stroke:#181818;stroke-width:1.0;"/></g><!--SRC=[hLPRJzim57xFhx1uMLW1RQyLgfJHWYf1YqYxQK_898VM8eaZsm4ond_ViPF6TXiwCSP3iNs-S_5tBh5yO4L91Sr9ab4f8wK4kwiKJ1DUnEmNa2_19zbXSbxmP2ru3aI92W8hAMdoG5SGgpe38Y1Hj5XbBa2kQSgVMB4YzpIJhYHZ1QYw15BohDORrsCdv49nH-dDQ0CZ8T4AYfHE2YLgyX8G_4kf0hD0CKyOxj85q7phw3kiMPA1DCS32IhoqA72dyFWjSVDU357JxwhbG0eOkIcsQOW4y5AnNXXzl1S8bEGZYj1kyDAeCsa7eDMRc3QVAoegkGxBc23Z6kf85zA42qL1SrRopbbcLcL27pY8cqsQuvPGFtTMzv0oILJlAFrc4H2qFgIINNgu4Q4TXksePEia4-BqJe_c5hpIXbkQQNMU5UM63BEE69ube4uGRMpIWYKwKjCTD3XuM6lpT3X-CZXtq5hNz_gCpHDxpWIpuKqQSK46a-UmCbrTtMyJtTvsaTD8zCsdRDMmRKIEb5D2uazaq3OVozhADowYYVfhSmhMfPTxWT4yR7YclkG-hber5jzRNh17Iis7pRplNMnXvAUgEZsIOiqMOv1FB84cZfjDmsH0uyUv1ApvzPIIv9SywVe4PNfNGPQe74RuPhA-IE83DtYN6hjXARRZaZYb46BHrhOgjWX9fIGcJQUD9ewxsQvYG6HCwxOVLlOvcQj7rrmMnDcPxeiftgklBg9UGbo-ipoAjT3ByXPqQrzdEM_IPbjLIqTcL1bnwVXPqFE-nl5TzqLtS3MMw_xGnUXJsmfMclDSEqF7u6iK23kiStzijbKlCv0CpKKFo9tFAqTaiV0DdYMbndac1Zv3tOkN8qFMPfNAkFyuR_OYieoQ-ik1gnVNhJDwmzRMoX34hqXCNf6rst7eHUKnPpDP-VJY-LDj9ZEPxVdqyl9BBgQkFAhwsZsytOyYQSNCuCAh1JBwrfmB21bnkIGs5q76YG2i6jSznhfXQFdMH1qVNGosZVNWdqpxmHrlI_049yvTXjuikFZ4JduUj0_8BUWEsPP-oNO7yveTvR-JS6svLwa3hv_iWz99VNBmdbGdFu-9XVnLR3WOzwyjl34c_D1W7B31fvRKfRJm7sZ7Nm-8ASUODUvnF_eVklDzOPcEt-6fAaIJwq9facHPc98cj4EANuS3JUULN-IVZYGpJpRTh43nCBTwLvJXrw9_m40]--></g></svg>