<?xml version="1.0" encoding="us-ascii" standalone="no"?><svg xmlns="http://www.w3.org/2000/svg" xmlns:xlink="http://www.w3.org/1999/xlink" contentStyleType="text/css" height="746px" preserveAspectRatio="none" style="width:1915px;height:746px;background:#FFFFFF;" version="1.1" viewBox="0 0 1915 746" width="1915px" zoomAndPan="magnify"><defs/><g><rect fill="#FFFFFF" height="590.9473" style="stroke:#181818;stroke-width:1.0;" width="10" x="22.5" y="90.5332"/><rect fill="#FFFFFF" height="590.9473" style="stroke:#181818;stroke-width:1.0;" width="10" x="378.5" y="90.5332"/><rect fill="#FFFFFF" height="155.1641" style="stroke:#181818;stroke-width:1.0;" width="10" x="627.5" y="90.5332"/><rect fill="#FFFFFF" height="123.873" style="stroke:#181818;stroke-width:1.0;" width="10" x="627.5" y="341.5703"/><rect fill="#FFFFFF" height="62.582" style="stroke:#181818;stroke-width:1.0;" width="10" x="627.5" y="561.3164"/><rect fill="#FFFFFF" height="31.291" style="stroke:#181818;stroke-width:1.0;" width="10" x="1134.5" y="153.1152"/><rect fill="#FFFFFF" height="125.873" style="stroke:#181818;stroke-width:1.0;" width="10" x="1300" y="215.6973"/><rect fill="#FFFFFF" height="31.291" style="stroke:#181818;stroke-width:1.0;" width="10" x="1501" y="372.8613"/><rect fill="#FFFFFF" height="246.0371" style="stroke:#181818;stroke-width:1.0;" width="10" x="1619" y="435.4434"/><rect fill="#FFFFFF" height="15" style="stroke:#181818;stroke-width:1.0;" width="10" x="1741" y="303.2793"/><rect fill="#FFFFFF" height="15" style="stroke:#181818;stroke-width:1.0;" width="10" x="1854" y="523.0254"/><rect fill="none" height="50.582" style="stroke:#000000;stroke-width:1.5;" width="596" x="1223" y="260.6973"/><rect fill="none" height="50.582" style="stroke:#000000;stroke-width:1.5;" width="344" x="1565" y="480.4434"/><line style="stroke:#181818;stroke-width:0.5;stroke-dasharray:5.0,5.0;" x1="27" x2="27" y1="57.2422" y2="690.4805"/><line style="stroke:#181818;stroke-width:0.5;stroke-dasharray:5.0,5.0;" x1="383.5" x2="383.5" y1="57.2422" y2="690.4805"/><line style="stroke:#181818;stroke-width:0.5;stroke-dasharray:5.0,5.0;" x1="632" x2="632" y1="57.2422" y2="690.4805"/><line style="stroke:#181818;stroke-width:0.5;stroke-dasharray:5.0,5.0;" x1="1139" x2="1139" y1="57.2422" y2="690.4805"/><line style="stroke:#181818;stroke-width:0.5;stroke-dasharray:5.0,5.0;" x1="1305" x2="1305" y1="57.2422" y2="690.4805"/><line style="stroke:#181818;stroke-width:0.5;stroke-dasharray:5.0,5.0;" x1="1412" x2="1412" y1="57.2422" y2="690.4805"/><line style="stroke:#181818;stroke-width:0.5;stroke-dasharray:5.0,5.0;" x1="1506" x2="1506" y1="57.2422" y2="690.4805"/><line style="stroke:#181818;stroke-width:0.5;stroke-dasharray:5.0,5.0;" x1="1624" x2="1624" y1="57.2422" y2="690.4805"/><line style="stroke:#181818;stroke-width:0.5;stroke-dasharray:5.0,5.0;" x1="1746" x2="1746" y1="57.2422" y2="690.4805"/><line style="stroke:#181818;stroke-width:0.5;stroke-dasharray:5.0,5.0;" x1="1859" x2="1859" y1="57.2422" y2="690.4805"/><rect fill="#E3E3E3" height="32.6211" rx="2.5" ry="2.5" style="stroke:#181818;stroke-width:0.5;" width="45" x="5" y="23.6211"/><text fill="#000000" font-family="sans-serif" font-size="14" lengthAdjust="spacing" textLength="31" x="12" y="45.7285">GSM</text><rect fill="#E3E3E3" height="32.6211" rx="2.5" ry="2.5" style="stroke:#181818;stroke-width:0.5;" width="45" x="5" y="689.4805"/><text fill="#000000" font-family="sans-serif" font-size="14" lengthAdjust="spacing" textLength="31" x="12" y="711.5879">GSM</text><rect fill="#E3E3E3" height="32.6211" rx="2.5" ry="2.5" style="stroke:#181818;stroke-width:0.5;" width="112" x="327.5" y="23.6211"/><text fill="#000000" font-family="sans-serif" font-size="14" lengthAdjust="spacing" textLength="98" x="334.5" y="45.7285">:AgendaEntryUI</text><rect fill="#E3E3E3" height="32.6211" rx="2.5" ry="2.5" style="stroke:#181818;stroke-width:0.5;" width="112" x="327.5" y="689.4805"/><text fill="#000000" font-family="sans-serif" font-size="14" lengthAdjust="spacing" textLength="98" x="334.5" y="711.5879">:AgendaEntryUI</text><rect fill="#E3E3E3" height="32.6211" rx="2.5" ry="2.5" style="stroke:#181818;stroke-width:0.5;" width="219" x="523" y="23.6211"/><text fill="#000000" font-family="sans-serif" font-size="14" lengthAdjust="spacing" textLength="201" x="530" y="45.7285">:TeamToAgendaEntryController</text><rect fill="#E3E3E3" height="32.6211" rx="2.5" ry="2.5" style="stroke:#181818;stroke-width:0.5;" width="219" x="523" y="689.4805"/><text fill="#000000" font-family="sans-serif" font-size="14" lengthAdjust="spacing" textLength="201" x="530" y="711.5879">:TeamToAgendaEntryController</text><rect fill="#E3E3E3" height="51.2422" rx="2.5" ry="2.5" style="stroke:#181818;stroke-width:0.5;" width="167" x="1056" y="5"/><text fill="#000000" font-family="sans-serif" font-size="14" lengthAdjust="spacing" textLength="153" x="1063" y="27.1074">agendaEntryRepository:</text><text fill="#000000" font-family="sans-serif" font-size="14" lengthAdjust="spacing" textLength="150" x="1064.5" y="45.7285">AgendaEntryRepository</text><rect fill="#E3E3E3" height="51.2422" rx="2.5" ry="2.5" style="stroke:#181818;stroke-width:0.5;" width="167" x="1056" y="689.4805"/><text fill="#000000" font-family="sans-serif" font-size="14" lengthAdjust="spacing" textLength="153" x="1063" y="711.5879">agendaEntryRepository:</text><text fill="#000000" font-family="sans-serif" font-size="14" lengthAdjust="spacing" textLength="150" x="1064.5" y="730.209">AgendaEntryRepository</text><rect fill="#E3E3E3" height="32.6211" rx="2.5" ry="2.5" style="stroke:#181818;stroke-width:0.5;" width="144" x="1233" y="23.6211"/><text fill="#000000" font-family="sans-serif" font-size="14" lengthAdjust="spacing" textLength="130" x="1240" y="45.7285">AgendaEntryMapper</text><rect fill="#E3E3E3" height="32.6211" rx="2.5" ry="2.5" style="stroke:#181818;stroke-width:0.5;" width="144" x="1233" y="689.4805"/><text fill="#000000" font-family="sans-serif" font-size="14" lengthAdjust="spacing" textLength="130" x="1240" y="711.5879">AgendaEntryMapper</text><rect fill="#E3E3E3" height="32.6211" rx="2.5" ry="2.5" style="stroke:#181818;stroke-width:0.5;" width="50" x="1387" y="23.6211"/><text fill="#000000" font-family="sans-serif" font-size="14" lengthAdjust="spacing" textLength="36" x="1394" y="45.7285">Team</text><rect fill="#E3E3E3" height="32.6211" rx="2.5" ry="2.5" style="stroke:#181818;stroke-width:0.5;" width="50" x="1387" y="689.4805"/><text fill="#000000" font-family="sans-serif" font-size="14" lengthAdjust="spacing" textLength="36" x="1394" y="711.5879">Team</text><rect fill="#E3E3E3" height="51.2422" rx="2.5" ry="2.5" style="stroke:#181818;stroke-width:0.5;" width="118" x="1447" y="5"/><text fill="#000000" font-family="sans-serif" font-size="14" lengthAdjust="spacing" textLength="103" x="1454.5" y="27.1074">teamRepository:</text><text fill="#000000" font-family="sans-serif" font-size="14" lengthAdjust="spacing" textLength="104" x="1454" y="45.7285">TeamRepository</text><rect fill="#E3E3E3" height="51.2422" rx="2.5" ry="2.5" style="stroke:#181818;stroke-width:0.5;" width="118" x="1447" y="689.4805"/><text fill="#000000" font-family="sans-serif" font-size="14" lengthAdjust="spacing" textLength="103" x="1454.5" y="711.5879">teamRepository:</text><text fill="#000000" font-family="sans-serif" font-size="14" lengthAdjust="spacing" textLength="104" x="1454" y="730.209">TeamRepository</text><rect fill="#E3E3E3" height="32.6211" rx="2.5" ry="2.5" style="stroke:#181818;stroke-width:0.5;" width="98" x="1575" y="23.6211"/><text fill="#000000" font-family="sans-serif" font-size="14" lengthAdjust="spacing" textLength="84" x="1582" y="45.7285">TeamMapper</text><rect fill="#E3E3E3" height="32.6211" rx="2.5" ry="2.5" style="stroke:#181818;stroke-width:0.5;" width="98" x="1575" y="689.4805"/><text fill="#000000" font-family="sans-serif" font-size="14" lengthAdjust="spacing" textLength="84" x="1582" y="711.5879">TeamMapper</text><rect fill="#E3E3E3" height="32.6211" rx="2.5" ry="2.5" style="stroke:#181818;stroke-width:0.5;" width="126" x="1683" y="23.6211"/><text fill="#000000" font-family="sans-serif" font-size="14" lengthAdjust="spacing" textLength="112" x="1690" y="45.7285">AgendaEntryDTO</text><rect fill="#E3E3E3" height="32.6211" rx="2.5" ry="2.5" style="stroke:#181818;stroke-width:0.5;" width="126" x="1683" y="689.4805"/><text fill="#000000" font-family="sans-serif" font-size="14" lengthAdjust="spacing" textLength="112" x="1690" y="711.5879">AgendaEntryDTO</text><rect fill="#E3E3E3" height="32.6211" rx="2.5" ry="2.5" style="stroke:#181818;stroke-width:0.5;" width="80" x="1819" y="23.6211"/><text fill="#000000" font-family="sans-serif" font-size="14" lengthAdjust="spacing" textLength="66" x="1826" y="45.7285">TeamDTO</text><rect fill="#E3E3E3" height="32.6211" rx="2.5" ry="2.5" style="stroke:#181818;stroke-width:0.5;" width="80" x="1819" y="689.4805"/><text fill="#000000" font-family="sans-serif" font-size="14" lengthAdjust="spacing" textLength="66" x="1826" y="711.5879">TeamDTO</text><rect fill="#FFFFFF" height="590.9473" style="stroke:#181818;stroke-width:1.0;" width="10" x="22.5" y="90.5332"/><rect fill="#FFFFFF" height="590.9473" style="stroke:#181818;stroke-width:1.0;" width="10" x="378.5" y="90.5332"/><rect fill="#FFFFFF" height="155.1641" style="stroke:#181818;stroke-width:1.0;" width="10" x="627.5" y="90.5332"/><rect fill="#FFFFFF" height="123.873" style="stroke:#181818;stroke-width:1.0;" width="10" x="627.5" y="341.5703"/><rect fill="#FFFFFF" height="62.582" style="stroke:#181818;stroke-width:1.0;" width="10" x="627.5" y="561.3164"/><rect fill="#FFFFFF" height="31.291" style="stroke:#181818;stroke-width:1.0;" width="10" x="1134.5" y="153.1152"/><rect fill="#FFFFFF" height="125.873" style="stroke:#181818;stroke-width:1.0;" width="10" x="1300" y="215.6973"/><rect fill="#FFFFFF" height="31.291" style="stroke:#181818;stroke-width:1.0;" width="10" x="1501" y="372.8613"/><rect fill="#FFFFFF" height="246.0371" style="stroke:#181818;stroke-width:1.0;" width="10" x="1619" y="435.4434"/><rect fill="#FFFFFF" height="15" style="stroke:#181818;stroke-width:1.0;" width="10" x="1741" y="303.2793"/><rect fill="#FFFFFF" height="15" style="stroke:#181818;stroke-width:1.0;" width="10" x="1854" y="523.0254"/><polygon fill="#181818" points="615.5,86.5332,625.5,90.5332,615.5,94.5332,619.5,90.5332" style="stroke:#181818;stroke-width:1.0;"/><line style="stroke:#181818;stroke-width:1.0;" x1="388.5" x2="621.5" y1="90.5332" y2="90.5332"/><text fill="#000000" font-family="sans-serif" font-size="13" font-weight="bold" lengthAdjust="spacing" textLength="7" x="395.5" y="85.2705">1</text><text fill="#000000" font-family="sans-serif" font-size="13" lengthAdjust="spacing" textLength="214" x="406.5" y="85.2705">getAgendaEntriesDTOWithoutTeam()</text><polygon fill="#181818" points="615.5,117.8242,625.5,121.8242,615.5,125.8242,619.5,121.8242" style="stroke:#181818;stroke-width:1.0;"/><line style="stroke:#181818;stroke-width:1.0;" x1="388.5" x2="621.5" y1="121.8242" y2="121.8242"/><text fill="#000000" font-family="sans-serif" font-size="13" font-weight="bold" lengthAdjust="spacing" textLength="7" x="395.5" y="116.5615">2</text><text fill="#000000" font-family="sans-serif" font-size="13" lengthAdjust="spacing" textLength="154" x="406.5" y="116.5615">showAvailableTeamsDTO()</text><polygon fill="#181818" points="1122.5,149.1152,1132.5,153.1152,1122.5,157.1152,1126.5,153.1152" style="stroke:#181818;stroke-width:1.0;"/><line style="stroke:#181818;stroke-width:1.0;" x1="637.5" x2="1128.5" y1="153.1152" y2="153.1152"/><text fill="#000000" font-family="sans-serif" font-size="13" font-weight="bold" lengthAdjust="spacing" textLength="7" x="644.5" y="147.8525">3</text><text fill="#000000" font-family="sans-serif" font-size="13" lengthAdjust="spacing" textLength="467" x="655.5" y="147.8525">getAgendaEntryListWithoutTeam(authenticationController.getCurrentUserEmail())</text><polygon fill="#181818" points="648.5,180.4063,638.5,184.4063,648.5,188.4063,644.5,184.4063" style="stroke:#181818;stroke-width:1.0;"/><line style="stroke:#181818;stroke-width:1.0;stroke-dasharray:2.0,2.0;" x1="642.5" x2="1138.5" y1="184.4063" y2="184.4063"/><text fill="#000000" font-family="sans-serif" font-size="13" font-weight="bold" lengthAdjust="spacing" textLength="7" x="654.5" y="179.1436">4</text><text fill="#000000" font-family="sans-serif" font-size="13" lengthAdjust="spacing" textLength="94" x="665.5" y="179.1436">agendaEntryList</text><polygon fill="#181818" points="1288,211.6973,1298,215.6973,1288,219.6973,1292,215.6973" style="stroke:#181818;stroke-width:1.0;"/><line style="stroke:#181818;stroke-width:1.0;" x1="637.5" x2="1294" y1="215.6973" y2="215.6973"/><text fill="#000000" font-family="sans-serif" font-size="13" font-weight="bold" lengthAdjust="spacing" textLength="7" x="644.5" y="210.4346">5</text><text fill="#000000" font-family="sans-serif" font-size="13" lengthAdjust="spacing" textLength="154" x="655.5" y="210.4346">toDtoList(agendaEntryList)</text><path d="M1223,260.6973 L1296,260.6973 L1296,269.9883 L1286,279.9883 L1223,279.9883 L1223,260.6973 " fill="#EEEEEE" style="stroke:#000000;stroke-width:1.5;"/><rect fill="none" height="50.582" style="stroke:#000000;stroke-width:1.5;" width="596" x="1223" y="260.6973"/><text fill="#000000" font-family="sans-serif" font-size="13" font-weight="bold" lengthAdjust="spacing" textLength="28" x="1238" y="275.7256">loop</text><text fill="#000000" font-family="sans-serif" font-size="11" font-weight="bold" lengthAdjust="spacing" textLength="229" x="1311" y="274.5674">[for each agendaEntry in agendaEntryList]</text><polygon fill="#181818" points="1729,299.2793,1739,303.2793,1729,307.2793,1733,303.2793" style="stroke:#181818;stroke-width:1.0;"/><line style="stroke:#181818;stroke-width:1.0;" x1="1310" x2="1735" y1="303.2793" y2="303.2793"/><text fill="#000000" font-family="sans-serif" font-size="13" font-weight="bold" lengthAdjust="spacing" textLength="7" x="1317" y="298.0166">6</text><text fill="#000000" font-family="sans-serif" font-size="13" lengthAdjust="spacing" textLength="233" x="1328" y="298.0166">agendaEntryDTO = toDTO(agendaEntry)</text><polygon fill="#181818" points="648.5,337.5703,638.5,341.5703,648.5,345.5703,644.5,341.5703" style="stroke:#181818;stroke-width:1.0;"/><line style="stroke:#181818;stroke-width:1.0;stroke-dasharray:2.0,2.0;" x1="642.5" x2="1304" y1="341.5703" y2="341.5703"/><text fill="#000000" font-family="sans-serif" font-size="13" font-weight="bold" lengthAdjust="spacing" textLength="7" x="654.5" y="336.3076">7</text><text fill="#000000" font-family="sans-serif" font-size="13" lengthAdjust="spacing" textLength="120" x="665.5" y="336.3076">agendaEntryDTOList</text><polygon fill="#181818" points="1489,368.8613,1499,372.8613,1489,376.8613,1493,372.8613" style="stroke:#181818;stroke-width:1.0;"/><line style="stroke:#181818;stroke-width:1.0;" x1="637.5" x2="1495" y1="372.8613" y2="372.8613"/><text fill="#000000" font-family="sans-serif" font-size="13" font-weight="bold" lengthAdjust="spacing" textLength="7" x="644.5" y="367.5986">8</text><text fill="#000000" font-family="sans-serif" font-size="13" lengthAdjust="spacing" textLength="65" x="655.5" y="367.5986">getTeams()</text><polygon fill="#181818" points="648.5,400.1523,638.5,404.1523,648.5,408.1523,644.5,404.1523" style="stroke:#181818;stroke-width:1.0;"/><line style="stroke:#181818;stroke-width:1.0;stroke-dasharray:2.0,2.0;" x1="642.5" x2="1505" y1="404.1523" y2="404.1523"/><text fill="#000000" font-family="sans-serif" font-size="13" font-weight="bold" lengthAdjust="spacing" textLength="7" x="654.5" y="398.8896">9</text><text fill="#000000" font-family="sans-serif" font-size="13" lengthAdjust="spacing" textLength="36" x="665.5" y="398.8896">teams</text><polygon fill="#181818" points="1607,431.4434,1617,435.4434,1607,439.4434,1611,435.4434" style="stroke:#181818;stroke-width:1.0;"/><line style="stroke:#181818;stroke-width:1.0;" x1="637.5" x2="1613" y1="435.4434" y2="435.4434"/><text fill="#000000" font-family="sans-serif" font-size="13" font-weight="bold" lengthAdjust="spacing" textLength="14" x="644.5" y="430.1807">10</text><text fill="#000000" font-family="sans-serif" font-size="13" lengthAdjust="spacing" textLength="96" x="662.5" y="430.1807">toDtoList(teams)</text><path d="M1565,480.4434 L1638,480.4434 L1638,489.7344 L1628,499.7344 L1565,499.7344 L1565,480.4434 " fill="#EEEEEE" style="stroke:#000000;stroke-width:1.5;"/><rect fill="none" height="50.582" style="stroke:#000000;stroke-width:1.5;" width="344" x="1565" y="480.4434"/><text fill="#000000" font-family="sans-serif" font-size="13" font-weight="bold" lengthAdjust="spacing" textLength="28" x="1580" y="495.4717">loop</text><text fill="#000000" font-family="sans-serif" font-size="11" font-weight="bold" lengthAdjust="spacing" textLength="155" x="1653" y="494.3135">[for each Team in TeamList]</text><polygon fill="#181818" points="1842,519.0254,1852,523.0254,1842,527.0254,1846,523.0254" style="stroke:#181818;stroke-width:1.0;"/><line style="stroke:#181818;stroke-width:1.0;" x1="1629" x2="1848" y1="523.0254" y2="523.0254"/><text fill="#000000" font-family="sans-serif" font-size="13" font-weight="bold" lengthAdjust="spacing" textLength="14" x="1636" y="517.7627">11</text><text fill="#000000" font-family="sans-serif" font-size="13" lengthAdjust="spacing" textLength="145" x="1654" y="517.7627">teamDTO = toDTO(team)</text><polygon fill="#181818" points="648.5,557.3164,638.5,561.3164,648.5,565.3164,644.5,561.3164" style="stroke:#181818;stroke-width:1.0;"/><line style="stroke:#181818;stroke-width:1.0;stroke-dasharray:2.0,2.0;" x1="642.5" x2="1618" y1="561.3164" y2="561.3164"/><text fill="#000000" font-family="sans-serif" font-size="13" font-weight="bold" lengthAdjust="spacing" textLength="14" x="654.5" y="556.0537">12</text><text fill="#000000" font-family="sans-serif" font-size="13" lengthAdjust="spacing" textLength="76" x="672.5" y="556.0537">teamDTOList</text><polygon fill="#181818" points="399.5,588.6074,389.5,592.6074,399.5,596.6074,395.5,592.6074" style="stroke:#181818;stroke-width:1.0;"/><line style="stroke:#181818;stroke-width:1.0;stroke-dasharray:2.0,2.0;" x1="393.5" x2="626.5" y1="592.6074" y2="592.6074"/><text fill="#000000" font-family="sans-serif" font-size="13" font-weight="bold" lengthAdjust="spacing" textLength="14" x="405.5" y="587.3447">13</text><text fill="#000000" font-family="sans-serif" font-size="13" lengthAdjust="spacing" textLength="120" x="423.5" y="587.3447">agendaEntryDTOList</text><polygon fill="#181818" points="399.5,619.8984,389.5,623.8984,399.5,627.8984,395.5,623.8984" style="stroke:#181818;stroke-width:1.0;"/><line style="stroke:#181818;stroke-width:1.0;stroke-dasharray:2.0,2.0;" x1="393.5" x2="631.5" y1="623.8984" y2="623.8984"/><text fill="#000000" font-family="sans-serif" font-size="13" font-weight="bold" lengthAdjust="spacing" textLength="14" x="405.5" y="618.6357">14</text><text fill="#000000" font-family="sans-serif" font-size="13" lengthAdjust="spacing" textLength="76" x="423.5" y="618.6357">teamDTOList</text><polygon fill="#181818" points="43.5,668.4805,33.5,672.4805,43.5,676.4805,39.5,672.4805" style="stroke:#181818;stroke-width:1.0;"/><line style="stroke:#181818;stroke-width:1.0;stroke-dasharray:2.0,2.0;" x1="37.5" x2="377.5" y1="672.4805" y2="672.4805"/><text fill="#000000" font-family="sans-serif" font-size="13" font-weight="bold" lengthAdjust="spacing" textLength="14" x="49.5" y="658.5723">15</text><text fill="#000000" font-family="sans-serif" font-size="13" lengthAdjust="spacing" textLength="219" x="67.5" y="649.9268">shows the list of entries in the agenda</text><text fill="#000000" font-family="sans-serif" font-size="13" lengthAdjust="spacing" textLength="300" x="71.5" y="667.2178">and the list of teams and asks to select one of each</text><!--SRC=[XLN1Rjim3BthAuIUaaFt0G4s86YBOS2A0MkANNfX7SOM8ek69BV8tu-IRLbICkmIMzGZ-SX7Ekwip00MUjcJeQQprAFqTaJXqiq0pHbQVF4NZT9Yuy6qEWUu3exqgKmhJw0T2W6Z9pFsxsW58xngr036o-ylpn9SU1Jckzs-HNE49-FjvVN7NS2Cge8S4Fe3PS07ub_I6gsC7estklI15VmR1tBAaxtitip-bZt6c3o2iOoKUJp3CA3Dq9EXn0Uo4UBvfRmAbeBDeJ0ahsiI0PXbNu__vFfu-1MXfUawweARtuKOrVstsD2TRD6lxWeTt_zHlgFH1_HcAw3nwWCyHbdJWVLBxr6PKSavfjpnmD3d_WEKXdUD8Ku8ox54l6VSAeIiA5n-AkTp1Znh7Hek2BmYiqx55tPx6AtbkrU7zgddT9ijvqYyChMpVFUfT2YJYYFUSgquJv8mQq-FdeBVfegphHdCAcRXOyU49XhaYQpaYovd8vMv8bTaPpQbvhAe9XY-1eBSzCoS4QicXWyvlUgsohtANAQytSEv-AhqfQVB9anJ42Sb7xcqA0ctgXTCBi-Nm2dwkaA5Nj4pov9jsdyq2iWWJdZ6ShCCSxv933-_BIg4SvNnHjyNSnwrg7VfSjNEgLv6yXBUL2K3b86kwWrhp3ZUzMcB-MFLeTICbNIIE7qZGWk2UShqniDgZWKkTZXQmPqv14c7clzO91cCSRYPuYy0]--></g></svg>