<?xml version="1.0" encoding="us-ascii" standalone="no"?><svg xmlns="http://www.w3.org/2000/svg" xmlns:xlink="http://www.w3.org/1999/xlink" contentStyleType="text/css" height="746px" preserveAspectRatio="none" style="width:1632px;height:746px;background:#FFFFFF;" version="1.1" viewBox="0 0 1632 746" width="1632px" zoomAndPan="magnify"><defs/><g><rect fill="#FFFFFF" height="123.873" style="stroke:#181818;stroke-width:1.0;" width="10" x="305" y="341.5703"/><rect fill="#FFFFFF" height="62.582" style="stroke:#181818;stroke-width:1.0;" width="10" x="305" y="561.3164"/><rect fill="#FFFFFF" height="31.291" style="stroke:#181818;stroke-width:1.0;" width="10" x="807" y="153.1152"/><rect fill="#FFFFFF" height="125.873" style="stroke:#181818;stroke-width:1.0;" width="10" x="972.5" y="215.6973"/><rect fill="#FFFFFF" height="31.291" style="stroke:#181818;stroke-width:1.0;" width="10" x="1173.5" y="372.8613"/><rect fill="#FFFFFF" height="246.0371" style="stroke:#181818;stroke-width:1.0;" width="10" x="1291.5" y="435.4434"/><rect fill="#FFFFFF" height="15" style="stroke:#181818;stroke-width:1.0;" width="10" x="1413.5" y="303.2793"/><rect fill="#FFFFFF" height="15" style="stroke:#181818;stroke-width:1.0;" width="10" x="1526.5" y="523.0254"/><rect fill="none" height="50.582" style="stroke:#000000;stroke-width:1.5;" width="596" x="895.5" y="260.6973"/><rect fill="none" height="50.582" style="stroke:#000000;stroke-width:1.5;" width="344" x="1237.5" y="480.4434"/><line style="stroke:#181818;stroke-width:0.5;stroke-dasharray:5.0,5.0;" x1="61" x2="61" y1="57.2422" y2="690.4805"/><line style="stroke:#181818;stroke-width:0.5;stroke-dasharray:5.0,5.0;" x1="309.5" x2="309.5" y1="57.2422" y2="690.4805"/><line style="stroke:#181818;stroke-width:0.5;stroke-dasharray:5.0,5.0;" x1="811.5" x2="811.5" y1="57.2422" y2="690.4805"/><line style="stroke:#181818;stroke-width:0.5;stroke-dasharray:5.0,5.0;" x1="977.5" x2="977.5" y1="57.2422" y2="690.4805"/><line style="stroke:#181818;stroke-width:0.5;stroke-dasharray:5.0,5.0;" x1="1084.5" x2="1084.5" y1="57.2422" y2="690.4805"/><line style="stroke:#181818;stroke-width:0.5;stroke-dasharray:5.0,5.0;" x1="1178.5" x2="1178.5" y1="57.2422" y2="690.4805"/><line style="stroke:#181818;stroke-width:0.5;stroke-dasharray:5.0,5.0;" x1="1296.5" x2="1296.5" y1="57.2422" y2="690.4805"/><line style="stroke:#181818;stroke-width:0.5;stroke-dasharray:5.0,5.0;" x1="1418.5" x2="1418.5" y1="57.2422" y2="690.4805"/><line style="stroke:#181818;stroke-width:0.5;stroke-dasharray:5.0,5.0;" x1="1531.5" x2="1531.5" y1="57.2422" y2="690.4805"/><line style="stroke:#181818;stroke-width:0.5;stroke-dasharray:5.0,5.0;" x1="1603.5" x2="1603.5" y1="57.2422" y2="690.4805"/><rect fill="#E3E3E3" height="32.6211" rx="2.5" ry="2.5" style="stroke:#181818;stroke-width:0.5;" width="112" x="5" y="23.6211"/><text fill="#000000" font-family="sans-serif" font-size="14" lengthAdjust="spacing" textLength="98" x="12" y="45.7285">:AgendaEntryUI</text><rect fill="#E3E3E3" height="32.6211" rx="2.5" ry="2.5" style="stroke:#181818;stroke-width:0.5;" width="112" x="5" y="689.4805"/><text fill="#000000" font-family="sans-serif" font-size="14" lengthAdjust="spacing" textLength="98" x="12" y="711.5879">:AgendaEntryUI</text><rect fill="#E3E3E3" height="32.6211" rx="2.5" ry="2.5" style="stroke:#181818;stroke-width:0.5;" width="219" x="200.5" y="23.6211"/><text fill="#000000" font-family="sans-serif" font-size="14" lengthAdjust="spacing" textLength="201" x="207.5" y="45.7285">:TeamToAgendaEntryController</text><rect fill="#E3E3E3" height="32.6211" rx="2.5" ry="2.5" style="stroke:#181818;stroke-width:0.5;" width="219" x="200.5" y="689.4805"/><text fill="#000000" font-family="sans-serif" font-size="14" lengthAdjust="spacing" textLength="201" x="207.5" y="711.5879">:TeamToAgendaEntryController</text><rect fill="#E3E3E3" height="51.2422" rx="2.5" ry="2.5" style="stroke:#181818;stroke-width:0.5;" width="167" x="728.5" y="5"/><text fill="#000000" font-family="sans-serif" font-size="14" lengthAdjust="spacing" textLength="153" x="735.5" y="27.1074">agendaEntryRepository:</text><text fill="#000000" font-family="sans-serif" font-size="14" lengthAdjust="spacing" textLength="150" x="737" y="45.7285">AgendaEntryRepository</text><rect fill="#E3E3E3" height="51.2422" rx="2.5" ry="2.5" style="stroke:#181818;stroke-width:0.5;" width="167" x="728.5" y="689.4805"/><text fill="#000000" font-family="sans-serif" font-size="14" lengthAdjust="spacing" textLength="153" x="735.5" y="711.5879">agendaEntryRepository:</text><text fill="#000000" font-family="sans-serif" font-size="14" lengthAdjust="spacing" textLength="150" x="737" y="730.209">AgendaEntryRepository</text><rect fill="#E3E3E3" height="32.6211" rx="2.5" ry="2.5" style="stroke:#181818;stroke-width:0.5;" width="144" x="905.5" y="23.6211"/><text fill="#000000" font-family="sans-serif" font-size="14" lengthAdjust="spacing" textLength="130" x="912.5" y="45.7285">AgendaEntryMapper</text><rect fill="#E3E3E3" height="32.6211" rx="2.5" ry="2.5" style="stroke:#181818;stroke-width:0.5;" width="144" x="905.5" y="689.4805"/><text fill="#000000" font-family="sans-serif" font-size="14" lengthAdjust="spacing" textLength="130" x="912.5" y="711.5879">AgendaEntryMapper</text><rect fill="#E3E3E3" height="32.6211" rx="2.5" ry="2.5" style="stroke:#181818;stroke-width:0.5;" width="50" x="1059.5" y="23.6211"/><text fill="#000000" font-family="sans-serif" font-size="14" lengthAdjust="spacing" textLength="36" x="1066.5" y="45.7285">Team</text><rect fill="#E3E3E3" height="32.6211" rx="2.5" ry="2.5" style="stroke:#181818;stroke-width:0.5;" width="50" x="1059.5" y="689.4805"/><text fill="#000000" font-family="sans-serif" font-size="14" lengthAdjust="spacing" textLength="36" x="1066.5" y="711.5879">Team</text><rect fill="#E3E3E3" height="51.2422" rx="2.5" ry="2.5" style="stroke:#181818;stroke-width:0.5;" width="118" x="1119.5" y="5"/><text fill="#000000" font-family="sans-serif" font-size="14" lengthAdjust="spacing" textLength="103" x="1127" y="27.1074">teamRepository:</text><text fill="#000000" font-family="sans-serif" font-size="14" lengthAdjust="spacing" textLength="104" x="1126.5" y="45.7285">TeamRepository</text><rect fill="#E3E3E3" height="51.2422" rx="2.5" ry="2.5" style="stroke:#181818;stroke-width:0.5;" width="118" x="1119.5" y="689.4805"/><text fill="#000000" font-family="sans-serif" font-size="14" lengthAdjust="spacing" textLength="103" x="1127" y="711.5879">teamRepository:</text><text fill="#000000" font-family="sans-serif" font-size="14" lengthAdjust="spacing" textLength="104" x="1126.5" y="730.209">TeamRepository</text><rect fill="#E3E3E3" height="32.6211" rx="2.5" ry="2.5" style="stroke:#181818;stroke-width:0.5;" width="98" x="1247.5" y="23.6211"/><text fill="#000000" font-family="sans-serif" font-size="14" lengthAdjust="spacing" textLength="84" x="1254.5" y="45.7285">TeamMapper</text><rect fill="#E3E3E3" height="32.6211" rx="2.5" ry="2.5" style="stroke:#181818;stroke-width:0.5;" width="98" x="1247.5" y="689.4805"/><text fill="#000000" font-family="sans-serif" font-size="14" lengthAdjust="spacing" textLength="84" x="1254.5" y="711.5879">TeamMapper</text><rect fill="#E3E3E3" height="32.6211" rx="2.5" ry="2.5" style="stroke:#181818;stroke-width:0.5;" width="126" x="1355.5" y="23.6211"/><text fill="#000000" font-family="sans-serif" font-size="14" lengthAdjust="spacing" textLength="112" x="1362.5" y="45.7285">AgendaEntryDTO</text><rect fill="#E3E3E3" height="32.6211" rx="2.5" ry="2.5" style="stroke:#181818;stroke-width:0.5;" width="126" x="1355.5" y="689.4805"/><text fill="#000000" font-family="sans-serif" font-size="14" lengthAdjust="spacing" textLength="112" x="1362.5" y="711.5879">AgendaEntryDTO</text><rect fill="#E3E3E3" height="32.6211" rx="2.5" ry="2.5" style="stroke:#181818;stroke-width:0.5;" width="80" x="1491.5" y="23.6211"/><text fill="#000000" font-family="sans-serif" font-size="14" lengthAdjust="spacing" textLength="66" x="1498.5" y="45.7285">TeamDTO</text><rect fill="#E3E3E3" height="32.6211" rx="2.5" ry="2.5" style="stroke:#181818;stroke-width:0.5;" width="80" x="1491.5" y="689.4805"/><text fill="#000000" font-family="sans-serif" font-size="14" lengthAdjust="spacing" textLength="66" x="1498.5" y="711.5879">TeamDTO</text><rect fill="#E3E3E3" height="32.6211" rx="2.5" ry="2.5" style="stroke:#181818;stroke-width:0.5;" width="45" x="1581.5" y="23.6211"/><text fill="#000000" font-family="sans-serif" font-size="14" lengthAdjust="spacing" textLength="31" x="1588.5" y="45.7285">GSM</text><rect fill="#E3E3E3" height="32.6211" rx="2.5" ry="2.5" style="stroke:#181818;stroke-width:0.5;" width="45" x="1581.5" y="689.4805"/><text fill="#000000" font-family="sans-serif" font-size="14" lengthAdjust="spacing" textLength="31" x="1588.5" y="711.5879">GSM</text><rect fill="#FFFFFF" height="123.873" style="stroke:#181818;stroke-width:1.0;" width="10" x="305" y="341.5703"/><rect fill="#FFFFFF" height="62.582" style="stroke:#181818;stroke-width:1.0;" width="10" x="305" y="561.3164"/><rect fill="#FFFFFF" height="31.291" style="stroke:#181818;stroke-width:1.0;" width="10" x="807" y="153.1152"/><rect fill="#FFFFFF" height="125.873" style="stroke:#181818;stroke-width:1.0;" width="10" x="972.5" y="215.6973"/><rect fill="#FFFFFF" height="31.291" style="stroke:#181818;stroke-width:1.0;" width="10" x="1173.5" y="372.8613"/><rect fill="#FFFFFF" height="246.0371" style="stroke:#181818;stroke-width:1.0;" width="10" x="1291.5" y="435.4434"/><rect fill="#FFFFFF" height="15" style="stroke:#181818;stroke-width:1.0;" width="10" x="1413.5" y="303.2793"/><rect fill="#FFFFFF" height="15" style="stroke:#181818;stroke-width:1.0;" width="10" x="1526.5" y="523.0254"/><polygon fill="#181818" points="298,86.5332,308,90.5332,298,94.5332,302,90.5332" style="stroke:#181818;stroke-width:1.0;"/><line style="stroke:#181818;stroke-width:1.0;" x1="61" x2="304" y1="90.5332" y2="90.5332"/><text fill="#000000" font-family="sans-serif" font-size="13" font-weight="bold" lengthAdjust="spacing" textLength="7" x="68" y="85.2705">1</text><text fill="#000000" font-family="sans-serif" font-size="13" lengthAdjust="spacing" textLength="214" x="79" y="85.2705">getAgendaEntriesDTOWithoutTeam()</text><polygon fill="#181818" points="298,117.8242,308,121.8242,298,125.8242,302,121.8242" style="stroke:#181818;stroke-width:1.0;"/><line style="stroke:#181818;stroke-width:1.0;" x1="61" x2="304" y1="121.8242" y2="121.8242"/><text fill="#000000" font-family="sans-serif" font-size="13" font-weight="bold" lengthAdjust="spacing" textLength="7" x="68" y="116.5615">2</text><text fill="#000000" font-family="sans-serif" font-size="13" lengthAdjust="spacing" textLength="154" x="79" y="116.5615">showAvailableTeamsDTO()</text><polygon fill="#181818" points="795,149.1152,805,153.1152,795,157.1152,799,153.1152" style="stroke:#181818;stroke-width:1.0;"/><line style="stroke:#181818;stroke-width:1.0;" x1="310" x2="801" y1="153.1152" y2="153.1152"/><text fill="#000000" font-family="sans-serif" font-size="13" font-weight="bold" lengthAdjust="spacing" textLength="7" x="317" y="147.8525">3</text><text fill="#000000" font-family="sans-serif" font-size="13" lengthAdjust="spacing" textLength="467" x="328" y="147.8525">getAgendaEntryListWithoutTeam(authenticationController.getCurrentUserEmail())</text><polygon fill="#181818" points="321,180.4063,311,184.4063,321,188.4063,317,184.4063" style="stroke:#181818;stroke-width:1.0;"/><line style="stroke:#181818;stroke-width:1.0;stroke-dasharray:2.0,2.0;" x1="315" x2="811" y1="184.4063" y2="184.4063"/><text fill="#000000" font-family="sans-serif" font-size="13" font-weight="bold" lengthAdjust="spacing" textLength="7" x="327" y="179.1436">4</text><text fill="#000000" font-family="sans-serif" font-size="13" lengthAdjust="spacing" textLength="94" x="338" y="179.1436">agendaEntryList</text><polygon fill="#181818" points="960.5,211.6973,970.5,215.6973,960.5,219.6973,964.5,215.6973" style="stroke:#181818;stroke-width:1.0;"/><line style="stroke:#181818;stroke-width:1.0;" x1="310" x2="966.5" y1="215.6973" y2="215.6973"/><text fill="#000000" font-family="sans-serif" font-size="13" font-weight="bold" lengthAdjust="spacing" textLength="7" x="317" y="210.4346">5</text><text fill="#000000" font-family="sans-serif" font-size="13" lengthAdjust="spacing" textLength="154" x="328" y="210.4346">toDtoList(agendaEntryList)</text><path d="M895.5,260.6973 L968.5,260.6973 L968.5,269.9883 L958.5,279.9883 L895.5,279.9883 L895.5,260.6973 " fill="#EEEEEE" style="stroke:#000000;stroke-width:1.5;"/><rect fill="none" height="50.582" style="stroke:#000000;stroke-width:1.5;" width="596" x="895.5" y="260.6973"/><text fill="#000000" font-family="sans-serif" font-size="13" font-weight="bold" lengthAdjust="spacing" textLength="28" x="910.5" y="275.7256">loop</text><text fill="#000000" font-family="sans-serif" font-size="11" font-weight="bold" lengthAdjust="spacing" textLength="229" x="983.5" y="274.5674">[for each agendaEntry in agendaEntryList]</text><polygon fill="#181818" points="1401.5,299.2793,1411.5,303.2793,1401.5,307.2793,1405.5,303.2793" style="stroke:#181818;stroke-width:1.0;"/><line style="stroke:#181818;stroke-width:1.0;" x1="982.5" x2="1407.5" y1="303.2793" y2="303.2793"/><text fill="#000000" font-family="sans-serif" font-size="13" font-weight="bold" lengthAdjust="spacing" textLength="7" x="989.5" y="298.0166">6</text><text fill="#000000" font-family="sans-serif" font-size="13" lengthAdjust="spacing" textLength="233" x="1000.5" y="298.0166">agendaEntryDTO = toDTO(agendaEntry)</text><polygon fill="#181818" points="326,337.5703,316,341.5703,326,345.5703,322,341.5703" style="stroke:#181818;stroke-width:1.0;"/><line style="stroke:#181818;stroke-width:1.0;stroke-dasharray:2.0,2.0;" x1="320" x2="976.5" y1="341.5703" y2="341.5703"/><text fill="#000000" font-family="sans-serif" font-size="13" font-weight="bold" lengthAdjust="spacing" textLength="7" x="332" y="336.3076">7</text><text fill="#000000" font-family="sans-serif" font-size="13" lengthAdjust="spacing" textLength="120" x="343" y="336.3076">agendaEntryDTOList</text><polygon fill="#181818" points="1161.5,368.8613,1171.5,372.8613,1161.5,376.8613,1165.5,372.8613" style="stroke:#181818;stroke-width:1.0;"/><line style="stroke:#181818;stroke-width:1.0;" x1="315" x2="1167.5" y1="372.8613" y2="372.8613"/><text fill="#000000" font-family="sans-serif" font-size="13" font-weight="bold" lengthAdjust="spacing" textLength="7" x="322" y="367.5986">8</text><text fill="#000000" font-family="sans-serif" font-size="13" lengthAdjust="spacing" textLength="65" x="333" y="367.5986">getTeams()</text><polygon fill="#181818" points="326,400.1523,316,404.1523,326,408.1523,322,404.1523" style="stroke:#181818;stroke-width:1.0;"/><line style="stroke:#181818;stroke-width:1.0;stroke-dasharray:2.0,2.0;" x1="320" x2="1177.5" y1="404.1523" y2="404.1523"/><text fill="#000000" font-family="sans-serif" font-size="13" font-weight="bold" lengthAdjust="spacing" textLength="7" x="332" y="398.8896">9</text><text fill="#000000" font-family="sans-serif" font-size="13" lengthAdjust="spacing" textLength="36" x="343" y="398.8896">teams</text><polygon fill="#181818" points="1279.5,431.4434,1289.5,435.4434,1279.5,439.4434,1283.5,435.4434" style="stroke:#181818;stroke-width:1.0;"/><line style="stroke:#181818;stroke-width:1.0;" x1="315" x2="1285.5" y1="435.4434" y2="435.4434"/><text fill="#000000" font-family="sans-serif" font-size="13" font-weight="bold" lengthAdjust="spacing" textLength="14" x="322" y="430.1807">10</text><text fill="#000000" font-family="sans-serif" font-size="13" lengthAdjust="spacing" textLength="96" x="340" y="430.1807">toDtoList(teams)</text><path d="M1237.5,480.4434 L1310.5,480.4434 L1310.5,489.7344 L1300.5,499.7344 L1237.5,499.7344 L1237.5,480.4434 " fill="#EEEEEE" style="stroke:#000000;stroke-width:1.5;"/><rect fill="none" height="50.582" style="stroke:#000000;stroke-width:1.5;" width="344" x="1237.5" y="480.4434"/><text fill="#000000" font-family="sans-serif" font-size="13" font-weight="bold" lengthAdjust="spacing" textLength="28" x="1252.5" y="495.4717">loop</text><text fill="#000000" font-family="sans-serif" font-size="11" font-weight="bold" lengthAdjust="spacing" textLength="155" x="1325.5" y="494.3135">[for each Team in TeamList]</text><polygon fill="#181818" points="1514.5,519.0254,1524.5,523.0254,1514.5,527.0254,1518.5,523.0254" style="stroke:#181818;stroke-width:1.0;"/><line style="stroke:#181818;stroke-width:1.0;" x1="1301.5" x2="1520.5" y1="523.0254" y2="523.0254"/><text fill="#000000" font-family="sans-serif" font-size="13" font-weight="bold" lengthAdjust="spacing" textLength="14" x="1308.5" y="517.7627">11</text><text fill="#000000" font-family="sans-serif" font-size="13" lengthAdjust="spacing" textLength="145" x="1326.5" y="517.7627">teamDTO = toDTO(team)</text><polygon fill="#181818" points="326,557.3164,316,561.3164,326,565.3164,322,561.3164" style="stroke:#181818;stroke-width:1.0;"/><line style="stroke:#181818;stroke-width:1.0;stroke-dasharray:2.0,2.0;" x1="320" x2="1290.5" y1="561.3164" y2="561.3164"/><text fill="#000000" font-family="sans-serif" font-size="13" font-weight="bold" lengthAdjust="spacing" textLength="14" x="332" y="556.0537">12</text><text fill="#000000" font-family="sans-serif" font-size="13" lengthAdjust="spacing" textLength="76" x="350" y="556.0537">teamDTOList</text><polygon fill="#181818" points="72,588.6074,62,592.6074,72,596.6074,68,592.6074" style="stroke:#181818;stroke-width:1.0;"/><line style="stroke:#181818;stroke-width:1.0;stroke-dasharray:2.0,2.0;" x1="66" x2="304" y1="592.6074" y2="592.6074"/><text fill="#000000" font-family="sans-serif" font-size="13" font-weight="bold" lengthAdjust="spacing" textLength="14" x="78" y="587.3447">13</text><text fill="#000000" font-family="sans-serif" font-size="13" lengthAdjust="spacing" textLength="120" x="96" y="587.3447">agendaEntryDTOList</text><polygon fill="#181818" points="72,619.8984,62,623.8984,72,627.8984,68,623.8984" style="stroke:#181818;stroke-width:1.0;"/><line style="stroke:#181818;stroke-width:1.0;stroke-dasharray:2.0,2.0;" x1="66" x2="309" y1="623.8984" y2="623.8984"/><text fill="#000000" font-family="sans-serif" font-size="13" font-weight="bold" lengthAdjust="spacing" textLength="14" x="78" y="618.6357">14</text><text fill="#000000" font-family="sans-serif" font-size="13" lengthAdjust="spacing" textLength="76" x="96" y="618.6357">teamDTOList</text><polygon fill="#181818" points="1592,668.4805,1602,672.4805,1592,676.4805,1596,672.4805" style="stroke:#181818;stroke-width:1.0;"/><line style="stroke:#181818;stroke-width:1.0;stroke-dasharray:2.0,2.0;" x1="61" x2="1598" y1="672.4805" y2="672.4805"/><text fill="#000000" font-family="sans-serif" font-size="13" font-weight="bold" lengthAdjust="spacing" textLength="14" x="68" y="658.5723">15</text><text fill="#000000" font-family="sans-serif" font-size="13" lengthAdjust="spacing" textLength="219" x="86" y="649.9268">shows the list of entries in the agenda</text><text fill="#000000" font-family="sans-serif" font-size="13" lengthAdjust="spacing" textLength="300" x="90" y="667.2178">and the list of teams and asks to select one of each</text><!--SRC=[XLLDRzim3BthLn0z9OVk1mJOWA0jXW4h1gmfTkc5THXRY2mQajmY_twK_2Kv6NP9RFAHx_4hyMTjEtJOGikMgyPnIn1SJyhFdWwhCzRq4Yw6m54LqDOc1_W6Z_ofRGqdD9wKmZwmxTjtSae99EXATsW3tEtsDTaZFjdWBgy_xW0zz7e5EH2s1yw03ooVR0mvI15LSAQCmGNycphsEh2xxDxi_fOzvHWYeh7Cb4KyOzUHoz23eSH7iGaIvA5qHKkXvb0OvgXh4H6OiI-l_zJwUFYLeANfEkk46v-LwlNzjzJG7TGKbd1DNln_T6Yu3n6zsGeMHZ3iPERykVz0RV3TK0H4l81KyWjkwJ2iSbz-QX_orB8k3LbHYa6pNSRzHS8UUkV4z-h9FRL2jzbk5LP1Vs2WV8ePtVrS4fQSwaYtGbUIXrQBwC2FWMFSPfNdIi4udInzsb5bc3iuiGDnDBaQqFPANC4kQifPGb5DD7oD0gNdcJaJjje4USdbhRmhxcNA9UNj7ex5hqgVUZfj-B04QL4scSpv06RSChreyZdV39wpBwTHp2j5PYpP1VrdHX4PXnE_KxaPmyWt32ECJzCKulkAyKRV9tEUjQXtwlAgdKEzWfGRl3cL350ckgetNh7Wlhyy3qSiFq8DWH4iy0bekFtOWcWUcDvaMUsnmAKE9olwiwHWy6Jahm7OKieZpLH_0G00]--></g></svg>