<?xml version="1.0" encoding="us-ascii" standalone="no"?><svg xmlns="http://www.w3.org/2000/svg" xmlns:xlink="http://www.w3.org/1999/xlink" contentStyleType="text/css" height="468px" preserveAspectRatio="none" style="width:437px;height:468px;background:#FFFFFF;" version="1.1" viewBox="0 0 437 468" width="437px" zoomAndPan="magnify"><defs/><g><!--class HRM--><g id="elem_HRM"><rect codeLine="11" fill="#F1F1F1" height="36.6211" id="HRM" rx="2.5" ry="2.5" style="stroke:#181818;stroke-width:0.5;" width="36" x="219.23" y="7"/><text fill="#000000" font-family="sans-serif" font-size="14" lengthAdjust="spacing" textLength="30" x="222.23" y="27.1074">HRM</text><line style="stroke:#181818;stroke-width:0.5;" x1="220.23" x2="254.23" y1="35.6211" y2="35.6211"/></g><!--class SystemUser--><g id="elem_SystemUser"><rect codeLine="15" fill="#F1F1F1" height="111.1055" id="SystemUser" rx="2.5" ry="2.5" style="stroke:#181818;stroke-width:0.5;" width="81" x="349.73" y="313.5"/><text fill="#000000" font-family="sans-serif" font-size="14" lengthAdjust="spacing" textLength="75" x="352.73" y="333.6074">SystemUser</text><line style="stroke:#181818;stroke-width:0.5;" x1="350.73" x2="429.73" y1="342.1211" y2="342.1211"/><text fill="#000000" font-family="sans-serif" font-size="14" lengthAdjust="spacing" textLength="35" x="355.73" y="361.2285">name</text><text fill="#000000" font-family="sans-serif" font-size="14" lengthAdjust="spacing" textLength="33" x="355.73" y="379.8496">email</text><text fill="#000000" font-family="sans-serif" font-size="14" lengthAdjust="spacing" textLength="60" x="355.73" y="398.4707">password</text><text fill="#000000" font-family="sans-serif" font-size="14" lengthAdjust="spacing" textLength="40" x="355.73" y="417.0918">phone</text></g><!--class Collaborator--><g id="elem_Collaborator"><rect codeLine="23" fill="#F1F1F1" height="185.5898" id="Collaborator" rx="2.5" ry="2.5" style="stroke:#181818;stroke-width:0.5;" width="136" x="55.23" y="276"/><text fill="#000000" font-family="sans-serif" font-size="14" lengthAdjust="spacing" textLength="78" x="84.23" y="296.1074">Collaborator</text><line style="stroke:#181818;stroke-width:0.5;" x1="56.23" x2="190.23" y1="304.6211" y2="304.6211"/><text fill="#000000" font-family="sans-serif" font-size="14" lengthAdjust="spacing" textLength="35" x="61.23" y="323.7285">name</text><text fill="#000000" font-family="sans-serif" font-size="14" lengthAdjust="spacing" textLength="40" x="61.23" y="342.3496">phone</text><text fill="#000000" font-family="sans-serif" font-size="14" lengthAdjust="spacing" textLength="56" x="61.23" y="360.9707">birthdate</text><text fill="#000000" font-family="sans-serif" font-size="14" lengthAdjust="spacing" textLength="93" x="61.23" y="379.5918">admissionDate</text><text fill="#000000" font-family="sans-serif" font-size="14" lengthAdjust="spacing" textLength="51" x="61.23" y="398.2129">address</text><text fill="#000000" font-family="sans-serif" font-size="14" lengthAdjust="spacing" textLength="107" x="61.23" y="416.834">idDocumentType</text><text fill="#000000" font-family="sans-serif" font-size="14" lengthAdjust="spacing" textLength="124" x="61.23" y="435.4551">idDocumentNumber</text><text fill="#000000" font-family="sans-serif" font-size="14" lengthAdjust="spacing" textLength="38" x="61.23" y="454.0762">status</text></g><!--class Team--><g id="elem_Team"><rect codeLine="36" fill="#F1F1F1" height="73.8633" id="Team" rx="2.5" ry="2.5" style="stroke:#181818;stroke-width:0.5;" width="96" x="119.23" y="123"/><text fill="#000000" font-family="sans-serif" font-size="14" lengthAdjust="spacing" textLength="36" x="149.23" y="143.1074">Team</text><line style="stroke:#181818;stroke-width:0.5;" x1="120.23" x2="214.23" y1="151.6211" y2="151.6211"/><text fill="#000000" font-family="sans-serif" font-size="14" lengthAdjust="spacing" textLength="81" x="125.23" y="170.7285">minimumSize</text><text fill="#000000" font-family="sans-serif" font-size="14" lengthAdjust="spacing" textLength="84" x="125.23" y="189.3496">maximumSize</text></g><!--class Skill--><g id="elem_Skill"><rect codeLine="42" fill="#F1F1F1" height="55.2422" id="Skill" rx="2.5" ry="2.5" style="stroke:#181818;stroke-width:0.5;" width="47" x="261.73" y="341.5"/><text fill="#000000" font-family="sans-serif" font-size="14" lengthAdjust="spacing" textLength="25" x="272.73" y="361.6074">Skill</text><line style="stroke:#181818;stroke-width:0.5;" x1="262.73" x2="307.73" y1="370.1211" y2="370.1211"/><text fill="#000000" font-family="sans-serif" font-size="14" lengthAdjust="spacing" textLength="35" x="267.73" y="389.2285">name</text></g><!--link HRM to Collaborator--><g id="link_HRM_Collaborator"><path codeLine="46" d="M219.12,28.83 C177.94,35.21 77.66,57.15 36.23,123 C6,171.04 26.46,231 55.11,279.58 " fill="none" id="HRM-Collaborator" style="stroke:#181818;stroke-width:1.0;"/><polygon fill="#000000" points="38.4931,164.3299,45.9038,158.369,40.9847,155.1515,38.4931,164.3299" style="stroke:#000000;stroke-width:1.0;"/><text fill="#000000" font-family="sans-serif" font-size="13" lengthAdjust="spacing" textLength="50" x="50.23" y="165.5283">registers</text><text fill="#000000" font-family="sans-serif" font-size="13" lengthAdjust="spacing" textLength="7" x="200.2992" y="24.2567">1</text><text fill="#000000" font-family="sans-serif" font-size="13" lengthAdjust="spacing" textLength="5" x="42.3859" y="265.9367">*</text></g><!--link HRM to Team--><g id="link_HRM_Team"><path codeLine="47" d="M218.94,39.49 C208.14,48.09 195.1,60.29 187.23,74 C178.7,88.86 173.81,107.16 171,122.97 " fill="none" id="HRM-Team" style="stroke:#181818;stroke-width:1.0;"/><polygon fill="#000000" points="189.74,87.9814,196.793,81.6013,191.6959,78.6741,189.74,87.9814" style="stroke:#000000;stroke-width:1.0;"/><text fill="#000000" font-family="sans-serif" font-size="13" lengthAdjust="spacing" textLength="57" x="201.23" y="89.0283">generates</text><text fill="#000000" font-family="sans-serif" font-size="13" lengthAdjust="spacing" textLength="7" x="200.3569" y="60.7938">1</text><text fill="#000000" font-family="sans-serif" font-size="13" lengthAdjust="spacing" textLength="5" x="166.2342" y="111.6432">*</text></g><!--link Team to Collaborator--><g id="link_Team_Collaborator"><path codeLine="48" d="M150.44,197.06 C146.56,206.62 142.81,217.05 140.23,227 C136.17,242.63 133.07,259.49 130.71,275.93 " fill="none" id="Team-Collaborator" style="stroke:#181818;stroke-width:1.0;"/><polygon fill="#000000" points="144.0166,241.496,149.0627,233.4346,143.3606,232.0081,144.0166,241.496" style="stroke:#000000;stroke-width:1.0;"/><text fill="#000000" font-family="sans-serif" font-size="13" lengthAdjust="spacing" textLength="21" x="154.23" y="242.0283">has</text><text fill="#000000" font-family="sans-serif" font-size="13" lengthAdjust="spacing" textLength="7" x="135.6089" y="218.9557">1</text><text fill="#000000" font-family="sans-serif" font-size="13" lengthAdjust="spacing" textLength="5" x="126.1068" y="264.8924">*</text></g><!--link Team to Skill--><g id="link_Team_Skill"><path codeLine="49" d="M187.78,197.06 C211.22,238.18 249.01,304.46 269.97,341.24 " fill="none" id="Team-Skill" style="stroke:#181818;stroke-width:1.0;"/><polygon fill="#000000" points="223.7062,240.9893,221.7799,231.6758,216.6735,234.5868,223.7062,240.9893" style="stroke:#000000;stroke-width:1.0;"/><text fill="#000000" font-family="sans-serif" font-size="13" lengthAdjust="spacing" textLength="21" x="230.23" y="242.0283">has</text><text fill="#000000" font-family="sans-serif" font-size="13" lengthAdjust="spacing" textLength="7" x="179.3667" y="218.9557">1</text><text fill="#000000" font-family="sans-serif" font-size="13" lengthAdjust="spacing" textLength="5" x="261.085" y="330.3418">*</text></g><!--link HRM to Skill--><g id="link_HRM_Skill"><path codeLine="50" d="M249.28,44.2 C254.51,52.81 260.13,63.54 263.23,74 C291.41,169.21 289.51,288.96 286.94,341.37 " fill="none" id="HRM-Skill" style="stroke:#181818;stroke-width:1.0;"/><polygon fill="#000000" points="290.8586,165.1058,292.637,155.763,286.8058,156.502,290.8586,165.1058" style="stroke:#000000;stroke-width:1.0;"/><text fill="#000000" font-family="sans-serif" font-size="13" lengthAdjust="spacing" textLength="43" x="299.23" y="165.5283">creates</text><text fill="#000000" font-family="sans-serif" font-size="13" lengthAdjust="spacing" textLength="7" x="240.0403" y="65.6283">1</text><text fill="#000000" font-family="sans-serif" font-size="13" lengthAdjust="spacing" textLength="5" x="281.7573" y="330.0489">*</text></g><!--link Collaborator to Skill--><g id="link_Collaborator_Skill"><path codeLine="51" d="M191.46,369 C216.37,369 242.92,369 261.39,369 " fill="none" id="Collaborator-Skill" style="stroke:#181818;stroke-width:1.0;"/><polygon fill="#000000" points="218.48,356.6455,209.4349,353.7066,209.4349,359.5844,218.48,356.6455" style="stroke:#000000;stroke-width:1.0;"/><text fill="#000000" font-family="sans-serif" font-size="13" lengthAdjust="spacing" textLength="21" x="222.48" y="362.0283">has</text><text fill="#000000" font-family="sans-serif" font-size="13" lengthAdjust="spacing" textLength="7" x="199.0634" y="365.1879">1</text><text fill="#000000" font-family="sans-serif" font-size="13" lengthAdjust="spacing" textLength="20" x="229.55" y="384.893">0..*</text></g><!--reverse link SystemUser to HRM--><g id="link_SystemUser_HRM"><path codeLine="52" d="M391.9605,295.3509 C391.4405,243.2209 384.53,182.1 351.23,123 C328.32,82.34 281.27,51.15 255.35,36.21 " fill="none" id="SystemUser-backto-HRM" style="stroke:#181818;stroke-width:1.0;"/><polygon fill="none" points="392.14,313.35,397.9602,295.291,385.9608,295.4107,392.14,313.35" style="stroke:#181818;stroke-width:1.0;"/></g><!--link Collaborator to SystemUser--><g id="link_Collaborator_SystemUser"><path codeLine="53" d="M191.29,284.38 C211.68,264.97 235.63,246.97 261.73,236.5 C281.12,228.72 290.5,226.31 308.73,236.5 C338.2,252.97 350.8876,268.5561 363.7676,296.9661 " fill="none" id="Collaborator-to-SystemUser" style="stroke:#181818;stroke-width:1.0;"/><polygon fill="none" points="371.2,313.36,369.2323,294.4886,358.303,299.4436,371.2,313.36" style="stroke:#181818;stroke-width:1.0;"/></g><!--SRC=[RLBBJWCn3BpdAwmUAxM2QuKg8Ng00nne-G1lOdQZvh6AiogbvT_9FbAbXPpiyNZiJC9xxLeCQC5wvsKJl2M8eIF1bqgBSeyrRUFH40II4LrjIW8tgFn1kne-qJ09KTIaGUR768EkkaWlqhkj_YQu4wBHYa3g89FM45kAZLSinD03p- -lS1BY9-VR8qUo7qmXmP2EGqj3G1Qr6Q8s4Gy-g35flAD2uCaRWvKF6FqaSL78v36kT8YDmfXpL5OpQ-ys9QO2CK-PLXilEqikxeuj_G7VEbjHc62E6BlSc9RBw-qesNKILZjjEzkx92n-NUB2YBqsflGWLNgpPlSmWmNCvhFhgwxIezKwcHSOrWLpf0vZLr2JeqIddZ909QUKMq63_vB6jNBvTaokoa3JbAiTy-vto-KSRhMAbtyuB_gFSTsyEA-Bto74Bm00]--></g></svg>