<?xml version="1.0" encoding="us-ascii" standalone="no"?><svg xmlns="http://www.w3.org/2000/svg" xmlns:xlink="http://www.w3.org/1999/xlink" contentStyleType="text/css" height="542px" preserveAspectRatio="none" style="width:347px;height:542px;background:#FFFFFF;" version="1.1" viewBox="0 0 347 542" width="347px" zoomAndPan="magnify"><defs/><g><!--class HRM--><g id="elem_HRM"><rect codeLine="11" fill="#F1F1F1" height="36.6211" id="HRM" rx="2.5" ry="2.5" style="stroke:#181818;stroke-width:0.5;" width="36" x="169" y="44"/><text fill="#000000" font-family="sans-serif" font-size="14" lengthAdjust="spacing" textLength="30" x="172" y="64.1074">HRM</text><line style="stroke:#181818;stroke-width:0.5;" x1="170" x2="204" y1="72.6211" y2="72.6211"/></g><!--class SystemUser--><g id="elem_SystemUser"><rect codeLine="15" fill="#F1F1F1" height="111.1055" id="SystemUser" rx="2.5" ry="2.5" style="stroke:#181818;stroke-width:0.5;" width="81" x="52.5" y="7"/><text fill="#000000" font-family="sans-serif" font-size="14" lengthAdjust="spacing" textLength="75" x="55.5" y="27.1074">SystemUser</text><line style="stroke:#181818;stroke-width:0.5;" x1="53.5" x2="132.5" y1="35.6211" y2="35.6211"/><text fill="#000000" font-family="sans-serif" font-size="14" lengthAdjust="spacing" textLength="35" x="58.5" y="54.7285">name</text><text fill="#000000" font-family="sans-serif" font-size="14" lengthAdjust="spacing" textLength="33" x="58.5" y="73.3496">email</text><text fill="#000000" font-family="sans-serif" font-size="14" lengthAdjust="spacing" textLength="60" x="58.5" y="91.9707">password</text><text fill="#000000" font-family="sans-serif" font-size="14" lengthAdjust="spacing" textLength="40" x="58.5" y="110.5918">phone</text></g><!--class Collaborator--><g id="elem_Collaborator"><rect codeLine="23" fill="#F1F1F1" height="185.5898" id="Collaborator" rx="2.5" ry="2.5" style="stroke:#181818;stroke-width:0.5;" width="136" x="7" y="350"/><text fill="#000000" font-family="sans-serif" font-size="14" lengthAdjust="spacing" textLength="78" x="36" y="370.1074">Collaborator</text><line style="stroke:#181818;stroke-width:0.5;" x1="8" x2="142" y1="378.6211" y2="378.6211"/><text fill="#000000" font-family="sans-serif" font-size="14" lengthAdjust="spacing" textLength="35" x="13" y="397.7285">name</text><text fill="#000000" font-family="sans-serif" font-size="14" lengthAdjust="spacing" textLength="40" x="13" y="416.3496">phone</text><text fill="#000000" font-family="sans-serif" font-size="14" lengthAdjust="spacing" textLength="56" x="13" y="434.9707">birthdate</text><text fill="#000000" font-family="sans-serif" font-size="14" lengthAdjust="spacing" textLength="93" x="13" y="453.5918">admissionDate</text><text fill="#000000" font-family="sans-serif" font-size="14" lengthAdjust="spacing" textLength="51" x="13" y="472.2129">address</text><text fill="#000000" font-family="sans-serif" font-size="14" lengthAdjust="spacing" textLength="107" x="13" y="490.834">idDocumentType</text><text fill="#000000" font-family="sans-serif" font-size="14" lengthAdjust="spacing" textLength="124" x="13" y="509.4551">idDocumentNumber</text><text fill="#000000" font-family="sans-serif" font-size="14" lengthAdjust="spacing" textLength="38" x="13" y="528.0762">status</text></g><!--class Team--><g id="elem_Team"><rect codeLine="36" fill="#F1F1F1" height="73.8633" id="Team" rx="2.5" ry="2.5" style="stroke:#181818;stroke-width:0.5;" width="96" x="139" y="197"/><text fill="#000000" font-family="sans-serif" font-size="14" lengthAdjust="spacing" textLength="36" x="169" y="217.1074">Team</text><line style="stroke:#181818;stroke-width:0.5;" x1="140" x2="234" y1="225.6211" y2="225.6211"/><text fill="#000000" font-family="sans-serif" font-size="14" lengthAdjust="spacing" textLength="81" x="145" y="244.7285">minimumSize</text><text fill="#000000" font-family="sans-serif" font-size="14" lengthAdjust="spacing" textLength="84" x="145" y="263.3496">maximumSize</text></g><!--class Skill--><g id="elem_Skill"><rect codeLine="42" fill="#F1F1F1" height="55.2422" id="Skill" rx="2.5" ry="2.5" style="stroke:#181818;stroke-width:0.5;" width="47" x="213.5" y="415.5"/><text fill="#000000" font-family="sans-serif" font-size="14" lengthAdjust="spacing" textLength="25" x="224.5" y="435.6074">Skill</text><line style="stroke:#181818;stroke-width:0.5;" x1="214.5" x2="259.5" y1="444.1211" y2="444.1211"/><text fill="#000000" font-family="sans-serif" font-size="14" lengthAdjust="spacing" textLength="35" x="219.5" y="463.2285">name</text></g><!--link HRM to Collaborator--><g id="link_HRM_Collaborator"><path codeLine="46" d="M177.17,81.12 C170.53,92.28 161.14,106.68 151,118 C114.36,158.9 79.32,147.28 56,197 C33.85,244.22 37.19,302.21 46.72,349.92 " fill="none" id="HRM-Collaborator" style="stroke:#181818;stroke-width:1.0;"/><polygon fill="#000000" points="58.817,238.6438,65.4101,231.7895,60.1221,229.2232,58.817,238.6438" style="stroke:#000000;stroke-width:1.0;"/><text fill="#000000" font-family="sans-serif" font-size="13" lengthAdjust="spacing" textLength="50" x="70" y="239.5283">registers</text><text fill="#000000" font-family="sans-serif" font-size="13" lengthAdjust="spacing" textLength="7" x="162.0501" y="102.5268">1</text><text fill="#000000" font-family="sans-serif" font-size="13" lengthAdjust="spacing" textLength="5" x="39.2672" y="338.8816">*</text></g><!--link HRM to Team--><g id="link_HRM_Team"><path codeLine="47" d="M187,81 C187,108.24 187,161.33 187,196.99 " fill="none" id="HRM-Team" style="stroke:#181818;stroke-width:1.0;"/><polygon fill="#000000" points="192,162.6455,194.9389,153.6004,189.0611,153.6004,192,162.6455" style="stroke:#000000;stroke-width:1.0;"/><text fill="#000000" font-family="sans-serif" font-size="13" lengthAdjust="spacing" textLength="57" x="201" y="163.0283">generates</text><text fill="#000000" font-family="sans-serif" font-size="13" lengthAdjust="spacing" textLength="7" x="188.5469" y="102.7163">1</text><text fill="#000000" font-family="sans-serif" font-size="13" lengthAdjust="spacing" textLength="5" x="181.5391" y="185.6668">*</text></g><!--link Team to Collaborator--><g id="link_Team_Collaborator"><path codeLine="48" d="M167.49,271.06 C155.65,292.95 139.94,321.97 124.84,349.88 " fill="none" id="Team-Collaborator" style="stroke:#181818;stroke-width:1.0;"/><polygon fill="#000000" points="153.6205,315.043,160.5098,308.4865,155.3403,305.6892,153.6205,315.043" style="stroke:#000000;stroke-width:1.0;"/><text fill="#000000" font-family="sans-serif" font-size="13" lengthAdjust="spacing" textLength="21" x="165" y="316.0283">has</text><text fill="#000000" font-family="sans-serif" font-size="13" lengthAdjust="spacing" textLength="7" x="152.1914" y="292.9557">1</text><text fill="#000000" font-family="sans-serif" font-size="13" lengthAdjust="spacing" textLength="5" x="123.6124" y="338.8384">*</text></g><!--link Team to Skill--><g id="link_Team_Skill"><path codeLine="49" d="M195.71,271.06 C205.64,312.18 221.65,378.46 230.54,415.24 " fill="none" id="Team-Skill" style="stroke:#181818;stroke-width:1.0;"/><polygon fill="#000000" points="214.1741,315.5057,214.9069,306.0234,209.1934,307.4036,214.1741,315.5057" style="stroke:#000000;stroke-width:1.0;"/><text fill="#000000" font-family="sans-serif" font-size="13" lengthAdjust="spacing" textLength="21" x="222" y="316.0283">has</text><text fill="#000000" font-family="sans-serif" font-size="13" lengthAdjust="spacing" textLength="7" x="185.2617" y="292.9557">1</text><text fill="#000000" font-family="sans-serif" font-size="13" lengthAdjust="spacing" textLength="5" x="223.58" y="404.3418">*</text></g><!--link HRM to Skill--><g id="link_HRM_Skill"><path codeLine="50" d="M205.11,75.94 C224.64,90.56 254.59,116.85 267,148 C303.92,240.71 267.42,362.25 247.76,415.3 " fill="none" id="HRM-Skill" style="stroke:#181818;stroke-width:1.0;"/><polygon fill="#000000" points="287.6235,239.1065,289.4116,229.7655,283.5796,230.4985,287.6235,239.1065" style="stroke:#000000;stroke-width:1.0;"/><text fill="#000000" font-family="sans-serif" font-size="13" lengthAdjust="spacing" textLength="43" x="296" y="239.5283">creates</text><text fill="#000000" font-family="sans-serif" font-size="13" lengthAdjust="spacing" textLength="7" x="212.9308" y="74.7157">1</text><text fill="#000000" font-family="sans-serif" font-size="13" lengthAdjust="spacing" textLength="5" x="244.5669" y="404.4149">*</text></g><!--link Collaborator to Skill--><g id="link_Collaborator_Skill"><path codeLine="51" d="M143.23,443 C168.14,443 194.69,443 213.16,443 " fill="none" id="Collaborator-Skill" style="stroke:#181818;stroke-width:1.0;"/><polygon fill="#000000" points="170.25,430.6455,161.2049,427.7066,161.2049,433.5844,170.25,430.6455" style="stroke:#000000;stroke-width:1.0;"/><text fill="#000000" font-family="sans-serif" font-size="13" lengthAdjust="spacing" textLength="21" x="174.25" y="436.0283">has</text><text fill="#000000" font-family="sans-serif" font-size="13" lengthAdjust="spacing" textLength="7" x="150.8334" y="439.1879">1</text><text fill="#000000" font-family="sans-serif" font-size="13" lengthAdjust="spacing" textLength="20" x="181.32" y="458.893">0..*</text></g><!--reverse link SystemUser to HRM--><g id="link_SystemUser_HRM"><path codeLine="52" d="M151.76,62.5 C163.4,62.5 157.05,62.5 168.7,62.5 " fill="none" id="SystemUser-backto-HRM" style="stroke:#181818;stroke-width:1.0;"/><polygon fill="none" points="133.76,62.5,151.76,68.5,151.76,56.5,133.76,62.5" style="stroke:#181818;stroke-width:1.0;"/></g><!--SRC=[RLBBJiCm4BpxArOvLce5rmeX8Ng00nne-O2DlIIh-X7PZaef_3lEmvLRo6btPpmx7YVisNReqO1nridMEqCGVKyYd94EvHuRsiQZ9l0a8zf6buJGed87jWrye0uaH859ZI4ynEYvxYCzIsUt_4Lm8qJBYa2obqbhh0t5rgaWn7W6djvUu2J4J-wtnn39l0VoQGpfisXeBCWWwx7g4l7Wl9gQrbag11wTrbWxZz7D4cU5J9xgcdri5SRSep8S0ZkxAMVAKmXpnshZP6_8njsnep_3rzxKvETnY1ZxV32Po_PsbE8w2SEMJM-6b8J1ptDT1B5dhSiC4ZA4LTr21Kke5jNbLTVfqHfEuVa0zmLpeevhrz2GfKIdWJAEIaufjuOM_oLDjZ9ylIQZqjEyvS9ZzdwpMYtWMgju-RllvV1ZY5y0]--></g></svg>