<?xml version="1.0" encoding="us-ascii" standalone="no"?><svg xmlns="http://www.w3.org/2000/svg" xmlns:xlink="http://www.w3.org/1999/xlink" contentStyleType="text/css" height="983px" preserveAspectRatio="none" style="width:1002px;height:983px;background:#FFFFFF;" version="1.1" viewBox="0 0 1002 983" width="1002px" zoomAndPan="magnify"><defs/><g><!--class Collaborator--><g id="elem_Collaborator"><rect codeLine="11" fill="#F1F1F1" height="271.4531" id="Collaborator" rx="2.5" ry="2.5" style="stroke:#181818;stroke-width:0.5;" width="141" x="556" y="466"/><ellipse cx="584.95" cy="482" fill="#ADD1B2" rx="11" ry="11" style="stroke:#181818;stroke-width:1.0;"/><path d="M587.7156,477.875 Q587.8719,477.6563 588.0594,477.5469 Q588.2469,477.4375 588.4656,477.4375 Q588.8406,477.4375 589.075,477.7031 Q589.3094,477.9531 589.3094,478.5625 L589.3094,480.0156 Q589.3094,480.625 589.075,480.8906 Q588.8406,481.1563 588.4656,481.1563 Q588.1219,481.1563 587.9188,480.9531 Q587.7156,480.7656 587.6063,480.25 Q587.5594,479.8906 587.3719,479.7031 Q587.0438,479.3281 586.4344,479.1094 Q585.825,478.8906 585.2,478.8906 Q584.4344,478.8906 583.7938,479.2188 Q583.1688,479.5469 582.6688,480.2969 Q582.1844,481.0469 582.1844,482.0781 L582.1844,483.1719 Q582.1844,484.4063 583.075,485.2344 Q583.9656,486.0469 585.5594,486.0469 Q586.4969,486.0469 587.1531,485.7969 Q587.5438,485.6406 587.9656,485.2031 Q588.2313,484.9375 588.3719,484.8594 Q588.5281,484.7813 588.7313,484.7813 Q589.0594,484.7813 589.3094,485.0469 Q589.575,485.2969 589.575,485.6406 Q589.575,485.9844 589.2313,486.3906 Q588.7313,486.9688 587.9344,487.2969 Q586.8563,487.75 585.5594,487.75 Q584.0438,487.75 582.8406,487.125 Q581.8563,486.625 581.1688,485.5625 Q580.4813,484.4844 580.4813,483.2031 L580.4813,482.0469 Q580.4813,480.7188 581.0906,479.5781 Q581.7156,478.4219 582.8094,477.8125 Q583.9031,477.1875 585.1375,477.1875 Q585.8719,477.1875 586.5125,477.3594 Q587.1688,477.5156 587.7156,477.875 Z " fill="#000000"/><text fill="#000000" font-family="sans-serif" font-size="14" lengthAdjust="spacing" textLength="78" x="602.05" y="487.7969">Collaborator</text><line style="stroke:#181818;stroke-width:0.5;" x1="557" x2="696" y1="498" y2="498"/><text fill="#000000" font-family="sans-serif" font-size="14" lengthAdjust="spacing" textLength="40" x="562" y="517.1074">-name</text><text fill="#000000" font-family="sans-serif" font-size="14" lengthAdjust="spacing" textLength="45" x="562" y="535.7285">-phone</text><text fill="#000000" font-family="sans-serif" font-size="14" lengthAdjust="spacing" textLength="63" x="562" y="554.3496">-birthDate</text><text fill="#000000" font-family="sans-serif" font-size="14" lengthAdjust="spacing" textLength="98" x="562" y="572.9707">-admissionDate</text><text fill="#000000" font-family="sans-serif" font-size="14" lengthAdjust="spacing" textLength="56" x="562" y="591.5918">-address</text><text fill="#000000" font-family="sans-serif" font-size="14" lengthAdjust="spacing" textLength="24" x="562" y="610.2129">-job</text><text fill="#000000" font-family="sans-serif" font-size="14" lengthAdjust="spacing" textLength="112" x="562" y="628.834">-idDocumentType</text><text fill="#000000" font-family="sans-serif" font-size="14" lengthAdjust="spacing" textLength="129" x="562" y="647.4551">-idDocumentNumber</text><text fill="#000000" font-family="sans-serif" font-size="14" lengthAdjust="spacing" textLength="35" x="562" y="666.0762">-skills</text><line style="stroke:#181818;stroke-width:0.5;" x1="557" x2="696" y1="673.5898" y2="673.5898"/><text fill="#000000" font-family="sans-serif" font-size="14" lengthAdjust="spacing" textLength="114" x="562" y="692.6973">+alreadyHasSkill()</text><text fill="#000000" font-family="sans-serif" font-size="14" lengthAdjust="spacing" textLength="60" x="562" y="711.3184">+equals()</text><text fill="#000000" font-family="sans-serif" font-size="14" lengthAdjust="spacing" textLength="67" x="562" y="729.9395">+addSkill()</text></g><!--class Repositories--><g id="elem_Repositories"><rect codeLine="26" fill="#F1F1F1" height="178.3477" id="Repositories" rx="2.5" ry="2.5" style="stroke:#181818;stroke-width:0.5;" width="208" x="233.5" y="512.5"/><ellipse cx="293.75" cy="528.5" fill="#ADD1B2" rx="11" ry="11" style="stroke:#181818;stroke-width:1.0;"/><path d="M296.5156,524.375 Q296.6719,524.1563 296.8594,524.0469 Q297.0469,523.9375 297.2656,523.9375 Q297.6406,523.9375 297.875,524.2031 Q298.1094,524.4531 298.1094,525.0625 L298.1094,526.5156 Q298.1094,527.125 297.875,527.3906 Q297.6406,527.6563 297.2656,527.6563 Q296.9219,527.6563 296.7188,527.4531 Q296.5156,527.2656 296.4063,526.75 Q296.3594,526.3906 296.1719,526.2031 Q295.8438,525.8281 295.2344,525.6094 Q294.625,525.3906 294,525.3906 Q293.2344,525.3906 292.5938,525.7188 Q291.9688,526.0469 291.4688,526.7969 Q290.9844,527.5469 290.9844,528.5781 L290.9844,529.6719 Q290.9844,530.9063 291.875,531.7344 Q292.7656,532.5469 294.3594,532.5469 Q295.2969,532.5469 295.9531,532.2969 Q296.3438,532.1406 296.7656,531.7031 Q297.0313,531.4375 297.1719,531.3594 Q297.3281,531.2813 297.5313,531.2813 Q297.8594,531.2813 298.1094,531.5469 Q298.375,531.7969 298.375,532.1406 Q298.375,532.4844 298.0313,532.8906 Q297.5313,533.4688 296.7344,533.7969 Q295.6563,534.25 294.3594,534.25 Q292.8438,534.25 291.6406,533.625 Q290.6563,533.125 289.9688,532.0625 Q289.2813,530.9844 289.2813,529.7031 L289.2813,528.5469 Q289.2813,527.2188 289.8906,526.0781 Q290.5156,524.9219 291.6094,524.3125 Q292.7031,523.6875 293.9375,523.6875 Q294.6719,523.6875 295.3125,523.8594 Q295.9688,524.0156 296.5156,524.375 Z " fill="#000000"/><text fill="#000000" font-family="sans-serif" font-size="14" lengthAdjust="spacing" textLength="79" x="314.25" y="534.2969">Repositories</text><line style="stroke:#181818;stroke-width:0.5;" x1="234.5" x2="440.5" y1="544.5" y2="544.5"/><line style="stroke:#181818;stroke-width:0.5;" x1="234.5" x2="440.5" y1="552.5" y2="552.5"/><text fill="#000000" font-family="sans-serif" font-size="14" lengthAdjust="spacing" textLength="94" x="239.5" y="571.6074">-Repositories()</text><text fill="#000000" font-family="sans-serif" font-size="14" lengthAdjust="spacing" textLength="182" x="239.5" y="590.2285">+getInstance() : Repositories</text><text fill="#000000" font-family="sans-serif" font-size="14" lengthAdjust="spacing" textLength="184" x="239.5" y="608.8496">+getCollaboratorRepository()</text><text fill="#000000" font-family="sans-serif" font-size="14" lengthAdjust="spacing" textLength="152" x="239.5" y="627.4707">+getVehicleRepository()</text><text fill="#000000" font-family="sans-serif" font-size="14" lengthAdjust="spacing" textLength="131" x="239.5" y="646.0918">+getSkillRepository()</text><text fill="#000000" font-family="sans-serif" font-size="14" lengthAdjust="spacing" textLength="128" x="239.5" y="664.7129">+getJobRepository()</text><text fill="#000000" font-family="sans-serif" font-size="14" lengthAdjust="spacing" textLength="196" x="239.5" y="683.334">+getAuthenticationRepository()</text></g><!--class CollaboratorRepository--><g id="elem_CollaboratorRepository"><rect codeLine="38" fill="#F1F1F1" height="178.3477" id="CollaboratorRepository" rx="2.5" ry="2.5" style="stroke:#181818;stroke-width:0.5;" width="737" x="258" y="798"/><ellipse cx="549.25" cy="814" fill="#ADD1B2" rx="11" ry="11" style="stroke:#181818;stroke-width:1.0;"/><path d="M552.0156,809.875 Q552.1719,809.6563 552.3594,809.5469 Q552.5469,809.4375 552.7656,809.4375 Q553.1406,809.4375 553.375,809.7031 Q553.6094,809.9531 553.6094,810.5625 L553.6094,812.0156 Q553.6094,812.625 553.375,812.8906 Q553.1406,813.1563 552.7656,813.1563 Q552.4219,813.1563 552.2188,812.9531 Q552.0156,812.7656 551.9063,812.25 Q551.8594,811.8906 551.6719,811.7031 Q551.3438,811.3281 550.7344,811.1094 Q550.125,810.8906 549.5,810.8906 Q548.7344,810.8906 548.0938,811.2188 Q547.4688,811.5469 546.9688,812.2969 Q546.4844,813.0469 546.4844,814.0781 L546.4844,815.1719 Q546.4844,816.4063 547.375,817.2344 Q548.2656,818.0469 549.8594,818.0469 Q550.7969,818.0469 551.4531,817.7969 Q551.8438,817.6406 552.2656,817.2031 Q552.5313,816.9375 552.6719,816.8594 Q552.8281,816.7813 553.0313,816.7813 Q553.3594,816.7813 553.6094,817.0469 Q553.875,817.2969 553.875,817.6406 Q553.875,817.9844 553.5313,818.3906 Q553.0313,818.9688 552.2344,819.2969 Q551.1563,819.75 549.8594,819.75 Q548.3438,819.75 547.1406,819.125 Q546.1563,818.625 545.4688,817.5625 Q544.7813,816.4844 544.7813,815.2031 L544.7813,814.0469 Q544.7813,812.7188 545.3906,811.5781 Q546.0156,810.4219 547.1094,809.8125 Q548.2031,809.1875 549.4375,809.1875 Q550.1719,809.1875 550.8125,809.3594 Q551.4688,809.5156 552.0156,809.875 Z " fill="#000000"/><text fill="#000000" font-family="sans-serif" font-size="14" lengthAdjust="spacing" textLength="146" x="569.75" y="819.7969">CollaboratorRepository</text><line style="stroke:#181818;stroke-width:0.5;" x1="259" x2="994" y1="830" y2="830"/><text fill="#000000" font-family="sans-serif" font-size="14" lengthAdjust="spacing" textLength="102" x="264" y="849.1074">-collaboratorList</text><line style="stroke:#181818;stroke-width:0.5;" x1="259" x2="994" y1="856.6211" y2="856.6211"/><text fill="#000000" font-family="sans-serif" font-size="14" lengthAdjust="spacing" textLength="138" x="264" y="875.7285">+getCollaboratorList()</text><text fill="#000000" font-family="sans-serif" font-size="14" lengthAdjust="spacing" textLength="725" x="264" y="894.3496">+registerCollaborator(name, phone, birthdate, admissionDate, address, idDocumentNumber, job, idDocumentType)</text><text fill="#000000" font-family="sans-serif" font-size="14" lengthAdjust="spacing" textLength="42" x="264" y="912.9707">+size()</text><text fill="#000000" font-family="sans-serif" font-size="14" lengthAdjust="spacing" textLength="204" x="264" y="931.5918">+assignSkills(collaborator, skills)</text><text fill="#000000" font-family="sans-serif" font-size="14" lengthAdjust="spacing" textLength="225" x="264" y="950.2129">+isCollaboratorUnique(collaborator)</text><text fill="#000000" font-family="sans-serif" font-size="14" lengthAdjust="spacing" textLength="276" x="264" y="968.834">+getDeactivatedCollaboratorsBySkills(skills)</text></g><!--class RegisterCollaboratorController--><g id="elem_RegisterCollaboratorController"><rect codeLine="49" fill="#F1F1F1" height="196.9688" id="RegisterCollaboratorController" rx="2.5" ry="2.5" style="stroke:#181818;stroke-width:0.5;" width="426" x="280.5" y="190"/><ellipse cx="392.75" cy="206" fill="#ADD1B2" rx="11" ry="11" style="stroke:#181818;stroke-width:1.0;"/><path d="M395.5156,201.875 Q395.6719,201.6563 395.8594,201.5469 Q396.0469,201.4375 396.2656,201.4375 Q396.6406,201.4375 396.875,201.7031 Q397.1094,201.9531 397.1094,202.5625 L397.1094,204.0156 Q397.1094,204.625 396.875,204.8906 Q396.6406,205.1563 396.2656,205.1563 Q395.9219,205.1563 395.7188,204.9531 Q395.5156,204.7656 395.4063,204.25 Q395.3594,203.8906 395.1719,203.7031 Q394.8438,203.3281 394.2344,203.1094 Q393.625,202.8906 393,202.8906 Q392.2344,202.8906 391.5938,203.2188 Q390.9688,203.5469 390.4688,204.2969 Q389.9844,205.0469 389.9844,206.0781 L389.9844,207.1719 Q389.9844,208.4063 390.875,209.2344 Q391.7656,210.0469 393.3594,210.0469 Q394.2969,210.0469 394.9531,209.7969 Q395.3438,209.6406 395.7656,209.2031 Q396.0313,208.9375 396.1719,208.8594 Q396.3281,208.7813 396.5313,208.7813 Q396.8594,208.7813 397.1094,209.0469 Q397.375,209.2969 397.375,209.6406 Q397.375,209.9844 397.0313,210.3906 Q396.5313,210.9688 395.7344,211.2969 Q394.6563,211.75 393.3594,211.75 Q391.8438,211.75 390.6406,211.125 Q389.6563,210.625 388.9688,209.5625 Q388.2813,208.4844 388.2813,207.2031 L388.2813,206.0469 Q388.2813,204.7188 388.8906,203.5781 Q389.5156,202.4219 390.6094,201.8125 Q391.7031,201.1875 392.9375,201.1875 Q393.6719,201.1875 394.3125,201.3594 Q394.9688,201.5156 395.5156,201.875 Z " fill="#000000"/><text fill="#000000" font-family="sans-serif" font-size="14" lengthAdjust="spacing" textLength="193" x="413.25" y="211.7969">RegisterCollaboratorController</text><line style="stroke:#181818;stroke-width:0.5;" x1="281.5" x2="705.5" y1="222" y2="222"/><line style="stroke:#181818;stroke-width:0.5;" x1="281.5" x2="705.5" y1="230" y2="230"/><text fill="#000000" font-family="sans-serif" font-size="14" lengthAdjust="spacing" textLength="211" x="286.5" y="249.1074">+RegisterCollaboratorController()</text><text fill="#000000" font-family="sans-serif" font-size="14" lengthAdjust="spacing" textLength="414" x="286.5" y="267.7285">+registerVehicle(brand, model, vehicleID, type, grossWeight, tare,</text><text fill="#000000" font-family="sans-serif" font-size="14" lengthAdjust="spacing" textLength="390" x="290.5" y="286.3496">currentKm, registerDate, acquisitionDate, checkupFrequency)</text><text fill="#000000" font-family="sans-serif" font-size="14" lengthAdjust="spacing" textLength="181" x="286.5" y="304.9707">-getCollaboratorRepository()</text><text fill="#000000" font-family="sans-serif" font-size="14" lengthAdjust="spacing" textLength="125" x="286.5" y="323.5918">-getJobRepository()</text><text fill="#000000" font-family="sans-serif" font-size="14" lengthAdjust="spacing" textLength="142" x="286.5" y="342.2129">-getVehicleTypesList()</text><text fill="#000000" font-family="sans-serif" font-size="14" lengthAdjust="spacing" textLength="79" x="286.5" y="360.834">-getJobList()</text><text fill="#000000" font-family="sans-serif" font-size="14" lengthAdjust="spacing" textLength="114" x="286.5" y="379.4551">-getDocTypeList()</text></g><!--class JobRepository--><g id="elem_JobRepository"><rect codeLine="60" fill="#F1F1F1" height="159.7266" id="JobRepository" rx="2.5" ry="2.5" style="stroke:#181818;stroke-width:0.5;" width="191" x="7" y="521.5"/><ellipse cx="53.25" cy="537.5" fill="#ADD1B2" rx="11" ry="11" style="stroke:#181818;stroke-width:1.0;"/><path d="M56.0156,533.375 Q56.1719,533.1563 56.3594,533.0469 Q56.5469,532.9375 56.7656,532.9375 Q57.1406,532.9375 57.375,533.2031 Q57.6094,533.4531 57.6094,534.0625 L57.6094,535.5156 Q57.6094,536.125 57.375,536.3906 Q57.1406,536.6563 56.7656,536.6563 Q56.4219,536.6563 56.2188,536.4531 Q56.0156,536.2656 55.9063,535.75 Q55.8594,535.3906 55.6719,535.2031 Q55.3438,534.8281 54.7344,534.6094 Q54.125,534.3906 53.5,534.3906 Q52.7344,534.3906 52.0938,534.7188 Q51.4688,535.0469 50.9688,535.7969 Q50.4844,536.5469 50.4844,537.5781 L50.4844,538.6719 Q50.4844,539.9063 51.375,540.7344 Q52.2656,541.5469 53.8594,541.5469 Q54.7969,541.5469 55.4531,541.2969 Q55.8438,541.1406 56.2656,540.7031 Q56.5313,540.4375 56.6719,540.3594 Q56.8281,540.2813 57.0313,540.2813 Q57.3594,540.2813 57.6094,540.5469 Q57.875,540.7969 57.875,541.1406 Q57.875,541.4844 57.5313,541.8906 Q57.0313,542.4688 56.2344,542.7969 Q55.1563,543.25 53.8594,543.25 Q52.3438,543.25 51.1406,542.625 Q50.1563,542.125 49.4688,541.0625 Q48.7813,539.9844 48.7813,538.7031 L48.7813,537.5469 Q48.7813,536.2188 49.3906,535.0781 Q50.0156,533.9219 51.1094,533.3125 Q52.2031,532.6875 53.4375,532.6875 Q54.1719,532.6875 54.8125,532.8594 Q55.4688,533.0156 56.0156,533.375 Z " fill="#000000"/><text fill="#000000" font-family="sans-serif" font-size="14" lengthAdjust="spacing" textLength="90" x="73.75" y="543.2969">JobRepository</text><line style="stroke:#181818;stroke-width:0.5;" x1="8" x2="197" y1="553.5" y2="553.5"/><line style="stroke:#181818;stroke-width:0.5;" x1="8" x2="197" y1="561.5" y2="561.5"/><text fill="#000000" font-family="sans-serif" font-size="14" lengthAdjust="spacing" textLength="82" x="13" y="580.6074">+getJobList()</text><text fill="#000000" font-family="sans-serif" font-size="14" lengthAdjust="spacing" textLength="143" x="13" y="599.2285">+registerJob(jobName)</text><text fill="#000000" font-family="sans-serif" font-size="14" lengthAdjust="spacing" textLength="42" x="13" y="617.8496">+size()</text><text fill="#000000" font-family="sans-serif" font-size="14" lengthAdjust="spacing" textLength="130" x="13" y="636.4707">-jobIsValid(jobName)</text><text fill="#000000" font-family="sans-serif" font-size="14" lengthAdjust="spacing" textLength="169" x="13" y="655.0918">-isValidJobName(jobName)</text><text fill="#000000" font-family="sans-serif" font-size="14" lengthAdjust="spacing" textLength="179" x="13" y="673.7129">-jobNameIsUnique(jobName)</text></g><!--class HRM--><g id="elem_HRM"><rect codeLine="69" fill="#F1F1F1" height="48" id="HRM" rx="2.5" ry="2.5" style="stroke:#181818;stroke-width:0.5;" width="62" x="794.5" y="264.5"/><ellipse cx="809.5" cy="280.5" fill="#ADD1B2" rx="11" ry="11" style="stroke:#181818;stroke-width:1.0;"/><path d="M812.2656,276.375 Q812.4219,276.1563 812.6094,276.0469 Q812.7969,275.9375 813.0156,275.9375 Q813.3906,275.9375 813.625,276.2031 Q813.8594,276.4531 813.8594,277.0625 L813.8594,278.5156 Q813.8594,279.125 813.625,279.3906 Q813.3906,279.6563 813.0156,279.6563 Q812.6719,279.6563 812.4688,279.4531 Q812.2656,279.2656 812.1563,278.75 Q812.1094,278.3906 811.9219,278.2031 Q811.5938,277.8281 810.9844,277.6094 Q810.375,277.3906 809.75,277.3906 Q808.9844,277.3906 808.3438,277.7188 Q807.7188,278.0469 807.2188,278.7969 Q806.7344,279.5469 806.7344,280.5781 L806.7344,281.6719 Q806.7344,282.9063 807.625,283.7344 Q808.5156,284.5469 810.1094,284.5469 Q811.0469,284.5469 811.7031,284.2969 Q812.0938,284.1406 812.5156,283.7031 Q812.7813,283.4375 812.9219,283.3594 Q813.0781,283.2813 813.2813,283.2813 Q813.6094,283.2813 813.8594,283.5469 Q814.125,283.7969 814.125,284.1406 Q814.125,284.4844 813.7813,284.8906 Q813.2813,285.4688 812.4844,285.7969 Q811.4063,286.25 810.1094,286.25 Q808.5938,286.25 807.3906,285.625 Q806.4063,285.125 805.7188,284.0625 Q805.0313,282.9844 805.0313,281.7031 L805.0313,280.5469 Q805.0313,279.2188 805.6406,278.0781 Q806.2656,276.9219 807.3594,276.3125 Q808.4531,275.6875 809.6875,275.6875 Q810.4219,275.6875 811.0625,275.8594 Q811.7188,276.0156 812.2656,276.375 Z " fill="#000000"/><text fill="#000000" font-family="sans-serif" font-size="14" lengthAdjust="spacing" textLength="30" x="823.5" y="286.2969">HRM</text><line style="stroke:#181818;stroke-width:0.5;" x1="795.5" x2="855.5" y1="296.5" y2="296.5"/><line style="stroke:#181818;stroke-width:0.5;" x1="795.5" x2="855.5" y1="304.5" y2="304.5"/></g><!--class SystemUser--><g id="elem_SystemUser"><rect codeLine="71" fill="#F1F1F1" height="122.4844" id="SystemUser" rx="2.5" ry="2.5" style="stroke:#181818;stroke-width:0.5;" width="107" x="772" y="7"/><ellipse cx="787" cy="23" fill="#ADD1B2" rx="11" ry="11" style="stroke:#181818;stroke-width:1.0;"/><path d="M789.7656,18.875 Q789.9219,18.6563 790.1094,18.5469 Q790.2969,18.4375 790.5156,18.4375 Q790.8906,18.4375 791.125,18.7031 Q791.3594,18.9531 791.3594,19.5625 L791.3594,21.0156 Q791.3594,21.625 791.125,21.8906 Q790.8906,22.1563 790.5156,22.1563 Q790.1719,22.1563 789.9688,21.9531 Q789.7656,21.7656 789.6563,21.25 Q789.6094,20.8906 789.4219,20.7031 Q789.0938,20.3281 788.4844,20.1094 Q787.875,19.8906 787.25,19.8906 Q786.4844,19.8906 785.8438,20.2188 Q785.2188,20.5469 784.7188,21.2969 Q784.2344,22.0469 784.2344,23.0781 L784.2344,24.1719 Q784.2344,25.4063 785.125,26.2344 Q786.0156,27.0469 787.6094,27.0469 Q788.5469,27.0469 789.2031,26.7969 Q789.5938,26.6406 790.0156,26.2031 Q790.2813,25.9375 790.4219,25.8594 Q790.5781,25.7813 790.7813,25.7813 Q791.1094,25.7813 791.3594,26.0469 Q791.625,26.2969 791.625,26.6406 Q791.625,26.9844 791.2813,27.3906 Q790.7813,27.9688 789.9844,28.2969 Q788.9063,28.75 787.6094,28.75 Q786.0938,28.75 784.8906,28.125 Q783.9063,27.625 783.2188,26.5625 Q782.5313,25.4844 782.5313,24.2031 L782.5313,23.0469 Q782.5313,21.7188 783.1406,20.5781 Q783.7656,19.4219 784.8594,18.8125 Q785.9531,18.1875 787.1875,18.1875 Q787.9219,18.1875 788.5625,18.3594 Q789.2188,18.5156 789.7656,18.875 Z " fill="#000000"/><text fill="#000000" font-family="sans-serif" font-size="14" lengthAdjust="spacing" textLength="75" x="801" y="28.7969">SystemUser</text><line style="stroke:#181818;stroke-width:0.5;" x1="773" x2="878" y1="39" y2="39"/><text fill="#000000" font-family="sans-serif" font-size="14" lengthAdjust="spacing" textLength="35" x="778" y="58.1074">name</text><text fill="#000000" font-family="sans-serif" font-size="14" lengthAdjust="spacing" textLength="33" x="778" y="76.7285">email</text><text fill="#000000" font-family="sans-serif" font-size="14" lengthAdjust="spacing" textLength="60" x="778" y="95.3496">password</text><text fill="#000000" font-family="sans-serif" font-size="14" lengthAdjust="spacing" textLength="40" x="778" y="113.9707">phone</text><line style="stroke:#181818;stroke-width:0.5;" x1="773" x2="878" y1="121.4844" y2="121.4844"/></g><!--class CollaboratorVehicleUI--><g id="elem_CollaboratorVehicleUI"><rect fill="#F1F1F1" height="48" id="CollaboratorVehicleUI" rx="2.5" ry="2.5" style="stroke:#181818;stroke-width:0.5;" width="168" x="77.5" y="264.5"/><ellipse cx="92.5" cy="280.5" fill="#ADD1B2" rx="11" ry="11" style="stroke:#181818;stroke-width:1.0;"/><path d="M95.2656,276.375 Q95.4219,276.1563 95.6094,276.0469 Q95.7969,275.9375 96.0156,275.9375 Q96.3906,275.9375 96.625,276.2031 Q96.8594,276.4531 96.8594,277.0625 L96.8594,278.5156 Q96.8594,279.125 96.625,279.3906 Q96.3906,279.6563 96.0156,279.6563 Q95.6719,279.6563 95.4688,279.4531 Q95.2656,279.2656 95.1563,278.75 Q95.1094,278.3906 94.9219,278.2031 Q94.5938,277.8281 93.9844,277.6094 Q93.375,277.3906 92.75,277.3906 Q91.9844,277.3906 91.3438,277.7188 Q90.7188,278.0469 90.2188,278.7969 Q89.7344,279.5469 89.7344,280.5781 L89.7344,281.6719 Q89.7344,282.9063 90.625,283.7344 Q91.5156,284.5469 93.1094,284.5469 Q94.0469,284.5469 94.7031,284.2969 Q95.0938,284.1406 95.5156,283.7031 Q95.7813,283.4375 95.9219,283.3594 Q96.0781,283.2813 96.2813,283.2813 Q96.6094,283.2813 96.8594,283.5469 Q97.125,283.7969 97.125,284.1406 Q97.125,284.4844 96.7813,284.8906 Q96.2813,285.4688 95.4844,285.7969 Q94.4063,286.25 93.1094,286.25 Q91.5938,286.25 90.3906,285.625 Q89.4063,285.125 88.7188,284.0625 Q88.0313,282.9844 88.0313,281.7031 L88.0313,280.5469 Q88.0313,279.2188 88.6406,278.0781 Q89.2656,276.9219 90.3594,276.3125 Q91.4531,275.6875 92.6875,275.6875 Q93.4219,275.6875 94.0625,275.8594 Q94.7188,276.0156 95.2656,276.375 Z " fill="#000000"/><text fill="#000000" font-family="sans-serif" font-size="14" lengthAdjust="spacing" textLength="136" x="106.5" y="286.2969">CollaboratorVehicleUI</text><line style="stroke:#181818;stroke-width:0.5;" x1="78.5" x2="244.5" y1="296.5" y2="296.5"/><line style="stroke:#181818;stroke-width:0.5;" x1="78.5" x2="244.5" y1="304.5" y2="304.5"/></g><!--reverse link SystemUser to HRM--><g id="link_SystemUser_HRM"><path codeLine="79" d="M825.5,147.28 C825.5,192 825.5,232.52 825.5,264.37 " fill="none" id="SystemUser-backto-HRM" style="stroke:#181818;stroke-width:1.0;"/><polygon fill="none" points="825.5,129.28,819.5,147.28,831.5,147.28,825.5,129.28" style="stroke:#181818;stroke-width:1.0;"/></g><!--reverse link HRM to Collaborator--><g id="link_HRM_Collaborator"><path codeLine="80" d="M807.4765,317.6741 C783.6065,354.9841 738.33,425.73 697.08,490.19 " fill="none" id="HRM-backto-Collaborator" style="stroke:#181818;stroke-width:1.0;"/><polygon fill="#181818" points="810.71,312.62,802.4903,318.0455,808.0154,316.8318,809.2292,322.3569,810.71,312.62" style="stroke:#181818;stroke-width:1.0;"/><text fill="#000000" font-family="sans-serif" font-size="13" lengthAdjust="spacing" textLength="75" x="744.5" y="432.0283">registered by</text></g><!--link RegisterCollaboratorController to Repositories--><g id="link_RegisterCollaboratorController_Repositories"><path codeLine="81" d="M444.57,387.05 C424.46,427.13 404.0393,467.8365 384.4493,506.9065 " fill="none" id="RegisterCollaboratorController-to-Repositories" style="stroke:#181818;stroke-width:1.0;stroke-dasharray:7.0,7.0;"/><polygon fill="#181818" points="381.76,512.27,389.3697,506.0176,384.0011,507.8004,382.2183,502.4318,381.76,512.27" style="stroke:#181818;stroke-width:1.0;"/><text fill="#000000" font-family="sans-serif" font-size="13" lengthAdjust="spacing" textLength="67" x="430.5" y="432.0283">repositories</text></g><!--link RegisterCollaboratorController to CollaboratorRepository--><g id="link_RegisterCollaboratorController_CollaboratorRepository"><path codeLine="82" d="M615.64,387.04 C666.75,427.86 714.5,466 714.5,466 C714.5,466 714.5,737 714.5,737 C714.5,737 700.7116,760.354 681.7616,792.434 " fill="none" id="RegisterCollaboratorController-to-CollaboratorRepository" style="stroke:#181818;stroke-width:1.0;stroke-dasharray:7.0,7.0;"/><polygon fill="#181818" points="678.71,797.6,686.7314,791.8854,681.253,793.295,679.8434,787.8166,678.71,797.6" style="stroke:#181818;stroke-width:1.0;"/><text fill="#000000" font-family="sans-serif" font-size="13" lengthAdjust="spacing" textLength="129" x="715.5" y="607.0283">collaboratorRepository</text></g><!--link RegisterCollaboratorController to JobRepository--><g id="link_RegisterCollaboratorController_JobRepository"><path codeLine="83" d="M339.86,387.04 C275.57,427.86 215.5,466 215.5,466 C215.5,466 197.3394,487.616 172.7494,516.886 " fill="none" id="RegisterCollaboratorController-to-JobRepository" style="stroke:#181818;stroke-width:1.0;stroke-dasharray:7.0,7.0;"/><polygon fill="#181818" points="168.89,521.48,177.7418,517.162,172.1062,517.6517,171.6165,512.0161,168.89,521.48" style="stroke:#181818;stroke-width:1.0;"/><text fill="#000000" font-family="sans-serif" font-size="13" lengthAdjust="spacing" textLength="79" x="291.5" y="432.0283">jobRepository</text></g><!--link RegisterCollaboratorController to Collaborator--><g id="link_RegisterCollaboratorController_Collaborator"><path codeLine="84" d="M535.22,387.05 C545.92,412.08 555.2607,433.9233 566.6107,460.4633 " fill="none" id="RegisterCollaboratorController-to-Collaborator" style="stroke:#181818;stroke-width:1.0;stroke-dasharray:7.0,7.0;"/><polygon fill="#181818" points="568.97,465.98,569.1089,456.1321,567.004,461.3828,561.7533,459.2778,568.97,465.98" style="stroke:#181818;stroke-width:1.0;"/><text fill="#000000" font-family="sans-serif" font-size="13" lengthAdjust="spacing" textLength="67" x="556.5" y="432.0283">collaborator</text></g><!--link CollaboratorVehicleUI to RegisterCollaboratorController--><g id="link_CollaboratorVehicleUI_RegisterCollaboratorController"><path codeLine="86" d="M245.66,288.5 C260.95,288.5 272.17,288.5 272.17,288.5 C272.17,288.5 269.29,288.5 274.48,288.5 " fill="none" id="CollaboratorVehicleUI-to-RegisterCollaboratorController" style="stroke:#181818;stroke-width:1.0;stroke-dasharray:7.0,7.0;"/><polygon fill="#181818" points="280.48,288.5,271.48,284.5,275.48,288.5,271.48,292.5,280.48,288.5" style="stroke:#181818;stroke-width:1.0;"/></g><!--link Repositories to CollaboratorRepository--><g id="link_Repositories_CollaboratorRepository"><path codeLine="87" d="M427.36,690.65 C462.15,724.78 497.6269,759.5782 532.4169,793.7082 " fill="none" id="Repositories-to-CollaboratorRepository" style="stroke:#181818;stroke-width:1.0;"/><polygon fill="#181818" points="536.7,797.91,533.0766,788.7519,533.1308,794.4085,527.4742,794.4627,536.7,797.91" style="stroke:#181818;stroke-width:1.0;"/><text fill="#000000" font-family="sans-serif" font-size="13" lengthAdjust="spacing" textLength="7" x="521.9736" y="786.8543">1</text></g><!--link Repositories to Repositories--><g id="link_Repositories_Repositories"><path codeLine="88" d="M441.76,571.76 C462.08,575.21 476.5,585.13 476.5,601.5 C476.5,617.87 467.9953,626.7857 447.6753,630.2357 " fill="none" id="Repositories-to-Repositories" style="stroke:#181818;stroke-width:1.0;"/><polygon fill="#181818" points="441.76,631.24,451.3026,633.6771,446.6895,630.4031,449.9635,625.7899,441.76,631.24" style="stroke:#181818;stroke-width:1.0;"/><text fill="#000000" font-family="sans-serif" font-size="13" lengthAdjust="spacing" textLength="49" x="482.5" y="607.0283">instance</text></g><!--reverse link Collaborator to CollaboratorRepository--><g id="link_Collaborator_CollaboratorRepository"><path codeLine="89" d="M626.5,743.19 C626.5,763.77 626.5,778.54 626.5,797.77 " fill="none" id="Collaborator-backto-CollaboratorRepository" style="stroke:#181818;stroke-width:1.0;"/><polygon fill="#181818" points="626.5,737.19,622.5,746.19,626.5,742.19,630.5,746.19,626.5,737.19" style="stroke:#181818;stroke-width:1.0;"/><text fill="#000000" font-family="sans-serif" font-size="13" lengthAdjust="spacing" textLength="5" x="621.3555" y="759.5496">*</text></g><!--SRC=[bLLDKzim4BthLsXo8HI7QQyPXXbAfaDeou4qzDABB2-sYYmPIOPnAV-zgrXsvCHyD2Vlr_Fks-VDWRqJgcA6bRJKIlF2w1AeCpMGRQHY_8xbi7AD16g0EwPo6IVOWcNwKQYStZ9fuuWK2bnJ0QsqRBn13aQ2sZXDeYekcRLdpXcHrWwMNAkL-0Fq8o474cuTTPeQaHUEPiAt8xGYP5D3pxMKBDM6EMte4w7ucr75IWYFLQ5LzvmAuue5SvtDib9OYs03NsR0sc3zrcbu4jb2yxe4vNxW07lEgxfCmGGtpYLb2t54cJJ0ikQ2sPLtJm-37-vhfAutyRrT_BcRxHegRGKE9i3YR2J0n-w-FWUtL1ONnM5wIEU3f6rAp5QVqSGWDr08Bc4ykEbmF7Ifq_70MUqA94XmvjSso7aUM-8serydZyBVX7NZy_X8_s83EPfWueIfbqNIAY9fnP3XufEX3f9E0idUUXElXsH72jqRBGfskqs4ozM6BZkDsq-2EBf4OUCErqhSrp0e28auwm8OAly1MypY6lkv2U_fa6C1xRDmhfKpQ8F_N48Nh-VjaHeqCaqDKrc2ToG3cT27rhjS9DH_umdDZRRs9_Zl5btCGF9BKLuRWynzBPCUBh3Exsk1Y-_Nm0lWTtNrnU2N0eetXq4DRybuzf8SPv6-_UPif9YkQDU5c_QfmTqJEu0FEZtQXzXIXlufYkSA5JWYcCsXMTeR9aKsJCCRqxelM-zkD9XB6wJJX_jMBww_qwVUMZNOJRcsq1tB_bH2oOJSF5MO-AXDrXgR-udr92ez-JkRUM3YmUa96eCpFE_7Xeoc3Nb3XiV7fyDJv-kZw_MEyXSEo7nmEhQ1zq0ELpptJFyVm0ubSIU4nC4WoVMIReXu3PWCU9hDJYUV9YyClvEwHx48_nQ3LkZamsHldn7cFm00]--></g></svg>