<?xml version="1.0" encoding="us-ascii" standalone="no"?><svg xmlns="http://www.w3.org/2000/svg" xmlns:xlink="http://www.w3.org/1999/xlink" contentStyleType="text/css" height="2137px" preserveAspectRatio="none" style="width:648px;height:2137px;background:#FFFFFF;" version="1.1" viewBox="0 0 648 2137" width="648px" zoomAndPan="magnify"><defs/><g><!--entity Collaborator--><g id="elem_Collaborator"><ellipse cx="45" cy="2062" fill="#F1F1F1" rx="8" ry="8" style="stroke:#181818;stroke-width:0.5;"/><path d="M45,2070 L45,2097 M32,2078 L58,2078 M45,2097 L32,2112 M45,2097 L58,2112 " fill="none" style="stroke:#181818;stroke-width:0.5;"/><text fill="#000000" font-family="sans-serif" font-size="14" lengthAdjust="spacing" textLength="78" x="6" y="2128.6074">Collaborator</text></g><!--entity GSU--><g id="elem_GSU"><ellipse cx="45" cy="1948" fill="#F1F1F1" rx="8" ry="8" style="stroke:#181818;stroke-width:0.5;"/><path d="M45,1956 L45,1983 M32,1964 L58,1964 M45,1983 L32,1998 M45,1983 L58,1998 " fill="none" style="stroke:#181818;stroke-width:0.5;"/><text fill="#000000" font-family="sans-serif" font-size="14" lengthAdjust="spacing" textLength="29" x="30.5" y="2014.6074">GSU</text></g><!--entity GSM--><g id="elem_GSM"><ellipse cx="45" cy="1368" fill="#F1F1F1" rx="8" ry="8" style="stroke:#181818;stroke-width:0.5;"/><path d="M45,1376 L45,1403 M32,1384 L58,1384 M45,1403 L32,1418 M45,1403 L58,1418 " fill="none" style="stroke:#181818;stroke-width:0.5;"/><text fill="#000000" font-family="sans-serif" font-size="14" lengthAdjust="spacing" textLength="31" x="29.5" y="1434.6074">GSM</text></g><g id="elem_GMN5"><path d="M317,2070.5 L317,2089 L84.07,2093 L317,2097 L317,2115.082 A0,0 0 0 0 317,2115.082 L470,2115.082 A0,0 0 0 0 470,2115.082 L470,2080.5 L460,2070.5 L317,2070.5 A0,0 0 0 0 317,2070.5 " fill="#FEFFDD" style="stroke:#181818;stroke-width:0.5;"/><path d="M460,2070.5 L460,2080.5 L470,2080.5 L460,2070.5 " fill="#FEFFDD" style="stroke:#181818;stroke-width:0.5;"/><text fill="#000000" font-family="sans-serif" font-size="13" lengthAdjust="spacing" textLength="132" x="323" y="2089.5283">Actor identified but still</text><text fill="#000000" font-family="sans-serif" font-size="13" lengthAdjust="spacing" textLength="132" x="323" y="2106.8193">no concrete use cases</text></g><g id="elem_GMN8"><path d="M317,1956.5 L317,1975 L59.58,1979 L317,1983 L317,2001.082 A0,0 0 0 0 317,2001.082 L470,2001.082 A0,0 0 0 0 470,2001.082 L470,1966.5 L460,1956.5 L317,1956.5 A0,0 0 0 0 317,1956.5 " fill="#FEFFDD" style="stroke:#181818;stroke-width:0.5;"/><path d="M460,1956.5 L460,1966.5 L470,1966.5 L460,1956.5 " fill="#FEFFDD" style="stroke:#181818;stroke-width:0.5;"/><text fill="#000000" font-family="sans-serif" font-size="13" lengthAdjust="spacing" textLength="132" x="323" y="1975.5283">Actor identified but still</text><text fill="#000000" font-family="sans-serif" font-size="13" lengthAdjust="spacing" textLength="132" x="323" y="1992.8193">no concrete use cases</text></g><g id="elem_UC6"><ellipse cx="393.4983" cy="660.9997" fill="#F1F1F1" rx="172.9983" ry="36.9997" style="stroke:#181818;stroke-width:0.5;"/><text fill="#000000" font-family="sans-serif" font-size="14" lengthAdjust="spacing" textLength="315" x="235.9983" y="664.7965">UC 006 - Register a vehicle with fundamental data</text></g><!--entity VFM--><g id="elem_VFM"><ellipse cx="45" cy="732" fill="#F1F1F1" rx="8" ry="8" style="stroke:#181818;stroke-width:0.5;"/><path d="M45,740 L45,767 M32,748 L58,748 M45,767 L32,782 M45,767 L58,782 " fill="none" style="stroke:#181818;stroke-width:0.5;"/><text fill="#000000" font-family="sans-serif" font-size="14" lengthAdjust="spacing" textLength="29" x="30.5" y="798.6074">VFM</text></g><g id="elem_UC7"><ellipse cx="393.7026" cy="763.2405" fill="#F1F1F1" rx="139.2026" ry="30.2405" style="stroke:#181818;stroke-width:0.5;"/><text fill="#000000" font-family="sans-serif" font-size="14" lengthAdjust="spacing" textLength="244" x="271.7026" y="767.0374">UC 007 - Register vehicle for check-up</text></g><g id="elem_UC8"><ellipse cx="393.5132" cy="863.1026" fill="#F1F1F1" rx="161.0132" ry="34.6026" style="stroke:#181818;stroke-width:0.5;"/><text fill="#000000" font-family="sans-serif" font-size="14" lengthAdjust="spacing" textLength="290" x="248.5132" y="866.8995">UC 008 - List the vehicles needing a check-up</text></g><g id="elem_UC1"><ellipse cx="393.4868" cy="45.7974" fill="#F1F1F1" rx="186.9868" ry="39.7974" style="stroke:#181818;stroke-width:0.5;"/><text fill="#000000" font-family="sans-serif" font-size="14" lengthAdjust="spacing" textLength="344" x="221.4868" y="49.5942">UC 001 - Create a skill to be apointed to a collaborator</text></g><!--entity HRM--><g id="elem_HRM"><ellipse cx="45" cy="257" fill="#F1F1F1" rx="8" ry="8" style="stroke:#181818;stroke-width:0.5;"/><path d="M45,265 L45,292 M32,273 L58,273 M45,292 L32,307 M45,292 L58,307 " fill="none" style="stroke:#181818;stroke-width:0.5;"/><text fill="#000000" font-family="sans-serif" font-size="14" lengthAdjust="spacing" textLength="30" x="30" y="323.6074">HRM</text></g><g id="elem_UC2"><ellipse cx="393.5526" cy="160.9105" fill="#F1F1F1" rx="185.0526" ry="39.4105" style="stroke:#181818;stroke-width:0.5;"/><text fill="#000000" font-family="sans-serif" font-size="14" lengthAdjust="spacing" textLength="340" x="223.5526" y="164.7074">UC 002 - Create a job to be apointed to a collaborator</text></g><g id="elem_UC3"><ellipse cx="393.4369" cy="287.7874" fill="#F1F1F1" rx="249.4369" ry="52.2874" style="stroke:#181818;stroke-width:0.5;"/><text fill="#000000" font-family="sans-serif" font-size="14" lengthAdjust="spacing" textLength="472" x="157.4369" y="291.5843">UC 003 - Register a collaborator with a job and fundamental characteristics</text></g><g id="elem_UC4"><ellipse cx="393.3306" cy="413.8661" fill="#F1F1F1" rx="177.3306" ry="37.8661" style="stroke:#181818;stroke-width:0.5;"/><text fill="#000000" font-family="sans-serif" font-size="14" lengthAdjust="spacing" textLength="324" x="231.3306" y="417.663">UC 004 - Assign one or more skills to a collaborator</text></g><g id="elem_UC5"><ellipse cx="393.5382" cy="538.2076" fill="#F1F1F1" rx="244.0382" ry="51.2076" style="stroke:#181818;stroke-width:0.5;"/><text fill="#000000" font-family="sans-serif" font-size="14" lengthAdjust="spacing" textLength="461" x="163.0382" y="542.0045">UC 005 - Generate a team proposal automatically based on skills needed</text></g><g id="elem_UC20"><ellipse cx="393.2514" cy="959.8503" fill="#F1F1F1" rx="124.7514" ry="27.3503" style="stroke:#181818;stroke-width:0.5;"/><text fill="#000000" font-family="sans-serif" font-size="14" lengthAdjust="spacing" textLength="213" x="286.7514" y="963.6472">UC 020 - Register a Green Space</text></g><g id="elem_UC21"><ellipse cx="393.4361" cy="1055.8872" fill="#F1F1F1" rx="152.4361" ry="32.8872" style="stroke:#181818;stroke-width:0.5;"/><text fill="#000000" font-family="sans-serif" font-size="14" lengthAdjust="spacing" textLength="272" x="257.4361" y="1059.6841">UC 021 - Add a new entry to the To-Do List</text></g><g id="elem_UC22"><ellipse cx="393.7136" cy="1151.9427" fill="#F1F1F1" rx="125.2136" ry="27.4427" style="stroke:#181818;stroke-width:0.5;"/><text fill="#000000" font-family="sans-serif" font-size="14" lengthAdjust="spacing" textLength="214" x="286.7136" y="1155.7396">UC 022 - Add entry to the Agenda</text></g><g id="elem_UC23"><ellipse cx="393.5561" cy="1251.2112" fill="#F1F1F1" rx="171.5561" ry="36.7112" style="stroke:#181818;stroke-width:0.5;"/><text fill="#000000" font-family="sans-serif" font-size="14" lengthAdjust="spacing" textLength="312" x="237.5561" y="1255.0081">UC 023 - Assign a team to an entry in the agenda</text></g><g id="elem_UC24"><ellipse cx="393.7135" cy="1351.2427" fill="#F1F1F1" rx="131.7135" ry="28.7427" style="stroke:#181818;stroke-width:0.5;"/><text fill="#000000" font-family="sans-serif" font-size="14" lengthAdjust="spacing" textLength="228" x="279.7135" y="1355.0396">UC 024 - Postpone an agenda entry</text></g><g id="elem_UC25"><ellipse cx="393.4684" cy="1445.9937" fill="#F1F1F1" rx="142.9684" ry="30.9937" style="stroke:#181818;stroke-width:0.5;"/><text fill="#000000" font-family="sans-serif" font-size="14" lengthAdjust="spacing" textLength="252" x="267.4684" y="1449.7906">UC 025 - Cancel an entry in the Agenda</text></g><g id="elem_UC26"><ellipse cx="393.6701" cy="1557.934" fill="#F1F1F1" rx="215.1701" ry="45.434" style="stroke:#181818;stroke-width:0.5;"/><text fill="#000000" font-family="sans-serif" font-size="14" lengthAdjust="spacing" textLength="402" x="192.6701" y="1561.7309">UC 026 - Assign one or more vehicles to an entry in the Agenda</text></g><g id="elem_UC27"><ellipse cx="393.4227" cy="1675.8845" fill="#F1F1F1" rx="174.9227" ry="37.3845" style="stroke:#181818;stroke-width:0.5;"/><text fill="#000000" font-family="sans-serif" font-size="14" lengthAdjust="spacing" textLength="319" x="233.9227" y="1679.6814">UC 027 - List all green spaces managed by a GSM</text></g><g id="elem_UC28"><ellipse cx="393.375" cy="1788.975" fill="#F1F1F1" rx="190.375" ry="40.475" style="stroke:#181818;stroke-width:0.5;"/><text fill="#000000" font-family="sans-serif" font-size="14" lengthAdjust="spacing" textLength="351" x="217.875" y="1792.7719">UC 028 - Consult the tasks assigned between two dates</text></g><g id="elem_UC29"><ellipse cx="393.4568" cy="1893.0914" fill="#F1F1F1" rx="128.4568" ry="28.0914" style="stroke:#181818;stroke-width:0.5;"/><text fill="#000000" font-family="sans-serif" font-size="14" lengthAdjust="spacing" textLength="221" x="282.9568" y="1896.8882">UC 029 - Mark a task as completed</text></g><!--link VFM to UC6--><g id="link_VFM_UC6"><path d="M59.53,755.27 C78.06,744.99 112.61,726.84 144,716 C180.86,703.27 215.9785,694.0616 253.8485,685.7816 " fill="none" id="VFM-to-UC6" style="stroke:#181818;stroke-width:1.0;"/><polygon fill="#181818" points="259.71,684.5,250.0633,682.5147,254.8254,685.568,251.7721,690.3301,259.71,684.5" style="stroke:#181818;stroke-width:1.0;"/></g><!--link VFM to UC7--><g id="link_VFM_UC7"><path d="M59.58,763 C92.24,763 172.11,763 248.46,763 " fill="none" id="VFM-to-UC7" style="stroke:#181818;stroke-width:1.0;"/><polygon fill="#181818" points="254.46,763,245.46,759,249.46,763,245.46,767,254.46,763" style="stroke:#181818;stroke-width:1.0;"/></g><!--link VFM to UC8--><g id="link_VFM_UC8"><path d="M59.81,771.14 C78.36,781.75 112.64,800.23 144,811 C182.14,824.1 218.8902,833.2851 257.9102,841.2151 " fill="none" id="VFM-to-UC8" style="stroke:#181818;stroke-width:1.0;"/><polygon fill="#181818" points="263.79,842.41,255.7669,836.6977,258.8902,841.4142,254.1737,844.5374,263.79,842.41" style="stroke:#181818;stroke-width:1.0;"/></g><!--link HRM to UC1--><g id="link_HRM_UC1"><path d="M56.52,248.19 C69.79,205.91 96.8,140.28 144,104 C167.97,85.57 191.0688,74.5599 220.4988,65.8099 " fill="none" id="HRM-to-UC1" style="stroke:#181818;stroke-width:1.0;"/><polygon fill="#181818" points="226.25,64.1,216.4833,62.8308,221.4573,65.5249,218.7632,70.499,226.25,64.1" style="stroke:#181818;stroke-width:1.0;"/></g><!--link HRM to UC2--><g id="link_HRM_UC2"><path d="M60.14,275.1 C78.24,259.28 111.21,232.76 144,218 C175.58,203.79 205.2475,194.3476 239.3075,186.1276 " fill="none" id="HRM-to-UC2" style="stroke:#181818;stroke-width:1.0;"/><polygon fill="#181818" points="245.14,184.72,235.4528,182.9431,240.2795,185.893,237.3296,190.7198,245.14,184.72" style="stroke:#181818;stroke-width:1.0;"/></g><!--link HRM to UC3--><g id="link_HRM_UC3"><path d="M60.01,288 C76.91,288 101.61,288 137.75,288 " fill="none" id="HRM-to-UC3" style="stroke:#181818;stroke-width:1.0;"/><polygon fill="#181818" points="143.75,288,134.75,284,138.75,288,134.75,292,143.75,288" style="stroke:#181818;stroke-width:1.0;"/></g><!--link HRM to UC4--><g id="link_HRM_UC4"><path d="M60.13,300.92 C78.22,316.76 111.18,343.3 144,358 C176.8,372.68 207.9654,382.3333 243.2054,390.5133 " fill="none" id="HRM-to-UC4" style="stroke:#181818;stroke-width:1.0;"/><polygon fill="#181818" points="249.05,391.87,241.1875,385.9386,244.1795,390.7394,239.3786,393.7314,249.05,391.87" style="stroke:#181818;stroke-width:1.0;"/></g><!--link HRM to UC5--><g id="link_HRM_UC5"><path d="M57.24,327.56 C71,368.86 98.3,432.6 144,469 C162.82,484 179.1347,493.4978 201.9447,502.6878 " fill="none" id="HRM-to-UC5" style="stroke:#181818;stroke-width:1.0;"/><polygon fill="#181818" points="207.51,504.93,200.6569,497.8565,202.8723,503.0615,197.6673,505.2769,207.51,504.93" style="stroke:#181818;stroke-width:1.0;"/></g><!--link GSM to UC20--><g id="link_GSM_UC20"><path d="M50.46,1359.41 C61.39,1269.61 92.46,1054.48 144,1006 C177.4,974.59 218.9759,961.8157 263.5459,956.9157 " fill="none" id="GSM-to-UC20" style="stroke:#181818;stroke-width:1.0;"/><polygon fill="#181818" points="269.51,956.26,260.1268,953.2675,264.5399,956.8064,261.001,961.2196,269.51,956.26" style="stroke:#181818;stroke-width:1.0;"/></g><!--link GSM to UC21--><g id="link_GSM_UC21"><path d="M47.32,1359.47 C51.69,1296.2 69.83,1172.67 144,1107 C171.29,1082.84 201.0352,1070.2366 236.7352,1062.5266 " fill="none" id="GSM-to-UC21" style="stroke:#181818;stroke-width:1.0;"/><polygon fill="#181818" points="242.6,1061.26,232.9584,1059.25,237.7127,1062.3155,234.6472,1067.0698,242.6,1061.26" style="stroke:#181818;stroke-width:1.0;"/></g><!--link GSM to UC22--><g id="link_GSM_UC22"><path d="M53.88,1359.49 C65.32,1312.99 91.21,1237.06 144,1197 C179.28,1170.23 219.4488,1158.344 262.3688,1152.834 " fill="none" id="GSM-to-UC22" style="stroke:#181818;stroke-width:1.0;"/><polygon fill="#181818" points="268.32,1152.07,258.8839,1149.2486,263.3607,1152.7067,259.9026,1157.1834,268.32,1152.07" style="stroke:#181818;stroke-width:1.0;"/></g><!--link GSM to UC23--><g id="link_GSM_UC23"><path d="M60.7,1379.53 C78.13,1357.87 109.25,1323.5 144,1305 C174.79,1288.61 204.3949,1278.5448 238.6949,1270.5948 " fill="none" id="GSM-to-UC23" style="stroke:#181818;stroke-width:1.0;"/><polygon fill="#181818" points="244.54,1269.24,234.8693,1267.3754,239.6691,1270.369,236.6756,1275.1688,244.54,1269.24" style="stroke:#181818;stroke-width:1.0;"/></g><!--link GSM to UC24--><g id="link_GSM_UC24"><path d="M60.89,1396.94 C98.71,1391.7 195.3068,1378.3133 276.4468,1367.0733 " fill="none" id="GSM-to-UC24" style="stroke:#181818;stroke-width:1.0;"/><polygon fill="#181818" points="282.39,1366.25,272.9263,1363.5228,277.4373,1366.9361,274.024,1371.4471,282.39,1366.25" style="stroke:#181818;stroke-width:1.0;"/></g><!--link GSM to UC25--><g id="link_GSM_UC25"><path d="M60.89,1401.02 C97.09,1405.93 186.6445,1418.073 265.9145,1428.833 " fill="none" id="GSM-to-UC25" style="stroke:#181818;stroke-width:1.0;"/><polygon fill="#181818" points="271.86,1429.64,263.4798,1424.4658,266.9054,1428.9675,262.4038,1432.3931,271.86,1429.64" style="stroke:#181818;stroke-width:1.0;"/></g><!--link GSM to UC26--><g id="link_GSM_UC26"><path d="M60.72,1418.68 C78.18,1440.61 109.32,1475.52 144,1495 C169.52,1509.33 192.5734,1518.7246 221.2834,1527.3446 " fill="none" id="GSM-to-UC26" style="stroke:#181818;stroke-width:1.0;"/><polygon fill="#181818" points="227.03,1529.07,219.5604,1522.6509,222.2412,1527.6322,217.2599,1530.313,227.03,1529.07" style="stroke:#181818;stroke-width:1.0;"/></g><!--link GSM to UC27--><g id="link_GSM_UC27"><path d="M52.36,1438.87 C62.54,1489.17 87.46,1574.67 144,1621 C168.52,1641.09 193.0362,1652.6439 223.9462,1661.1739 " fill="none" id="GSM-to-UC27" style="stroke:#181818;stroke-width:1.0;"/><polygon fill="#181818" points="229.73,1662.77,222.1184,1656.52,224.9102,1661.4399,219.9902,1664.2317,229.73,1662.77" style="stroke:#181818;stroke-width:1.0;"/></g><!--link GSM to UC28--><g id="link_GSM_UC28"><path d="M45.64,1438.74 C47.27,1508.47 61.18,1652.83 144,1731 C164.78,1750.61 185.1652,1762.1407 212.5652,1771.2307 " fill="none" id="GSM-to-UC28" style="stroke:#181818;stroke-width:1.0;"/><polygon fill="#181818" points="218.26,1773.12,210.9773,1766.4896,213.5143,1771.5456,208.4583,1774.0826,218.26,1773.12" style="stroke:#181818;stroke-width:1.0;"/></g><!--link GSM to UC29--><g id="link_GSM_UC29"><path d="M49.17,1438.86 C57.86,1537.72 85.44,1790.3 144,1847 C176.23,1878.21 216.4003,1891.1257 260.1803,1896.2257 " fill="none" id="GSM-to-UC29" style="stroke:#181818;stroke-width:1.0;"/><polygon fill="#181818" points="266.14,1896.92,257.6633,1891.9055,261.1736,1896.3415,256.7376,1899.8518,266.14,1896.92" style="stroke:#181818;stroke-width:1.0;"/></g><!--SRC=[bPLDZzem48Rl-HKZBdj20lEvbqgKgjj3aQgbsxjnXiJ5iIFRAK9L_tl7-G0IN6dBpR7dUUsPTuOd070dgKjkUG65qKRarXG8tbQOt7PABauymxs_A0IBmdETAKoURYTSpbDpbZg38rSEaxlWw_dV2Sd1HsDJj5kZZ8KBAcNEoPyaIHGUFNW3LcQvXrI6A6bqKiTmuUaqnIX-C9RJulxxo_wjjzeHhlwWZSSMQ8xzS6X_cpf6fgYzF4fCuL1vS5ugTJsY3GYZXKM2LGv1S8UktaMTrXenjUvI_o7qNh56ZdR39epUjZ2PB64ChvX9vz42Xr-OIq6rEakVmx7IAIz8c2j8kUSZu0xUjiiQC_hnUJU2yVZ3zKiVlBe7TzWZFKNaA4xZgcnfgmVQAa9R4-qhiS3dsD4SQCGqM8SFeUi7w3e2dH9qQv5JodYmirB1I0TQbKPgJxcc9R7lwj_ofmt_o-kLFutmsJt_fpcybyuUw2n2d_KhTyzfojTeSYh_VI55JiqbA8O2fN2jvEn1SXQHd9FanZcPQJ0QWOGAOx59dVldS-OFx7c4lI3s2sgqJReyXl5XJMaSNPfNtXISxikLki21ebAwGISSR81fgxPuK5j4VCyc_UozM4GDUvfNs1LXKaVHLEXgC8bWWeKsQKe4ZMTgDMyl8G_1fT_D-9EfJTiHfqDYn3ICjSGUQvDH5tVznzYG4x47czrgrMOpr4UtNAbhBkznPqDkn0CiUE2RSRuC3Y1UWsYm7MW-14KApaB1jrmBL0_NwZztCQGj8hHbt9hNKH5vV5zbELI933MswiOG-H2osZCkUCP1mJLbWgRp9RXfl-kmgo4sCjrOc6vRersbcW7dkJiv0eJd12RwSv3oPnFcC7PDozP3U6JAiMU2xxWz1HiGDuGAKvIA_Ycwdc7FGz3pNm00]--></g></svg>