<?xml version="1.0" encoding="us-ascii" standalone="no"?><svg xmlns="http://www.w3.org/2000/svg" xmlns:xlink="http://www.w3.org/1999/xlink" contentStyleType="text/css" height="2037px" preserveAspectRatio="none" style="width:648px;height:2037px;background:#FFFFFF;" version="1.1" viewBox="0 0 648 2037" width="648px" zoomAndPan="magnify"><defs/><g><!--entity Collaborator--><g id="elem_Collaborator"><ellipse cx="45" cy="1898" fill="#F1F1F1" rx="8" ry="8" style="stroke:#181818;stroke-width:0.5;"/><path d="M45,1906 L45,1933 M32,1914 L58,1914 M45,1933 L32,1948 M45,1933 L58,1948 " fill="none" style="stroke:#181818;stroke-width:0.5;"/><text fill="#000000" font-family="sans-serif" font-size="14" lengthAdjust="spacing" textLength="78" x="6" y="1964.6074">Collaborator</text></g><!--entity GSU--><g id="elem_GSU"><ellipse cx="45" cy="1740" fill="#F1F1F1" rx="8" ry="8" style="stroke:#181818;stroke-width:0.5;"/><path d="M45,1748 L45,1775 M32,1756 L58,1756 M45,1775 L32,1790 M45,1775 L58,1790 " fill="none" style="stroke:#181818;stroke-width:0.5;"/><text fill="#000000" font-family="sans-serif" font-size="14" lengthAdjust="spacing" textLength="29" x="30.5" y="1806.6074">GSU</text></g><!--entity GSM--><g id="elem_GSM"><ellipse cx="45" cy="1270" fill="#F1F1F1" rx="8" ry="8" style="stroke:#181818;stroke-width:0.5;"/><path d="M45,1278 L45,1305 M32,1286 L58,1286 M45,1305 L32,1320 M45,1305 L58,1320 " fill="none" style="stroke:#181818;stroke-width:0.5;"/><text fill="#000000" font-family="sans-serif" font-size="14" lengthAdjust="spacing" textLength="31" x="29.5" y="1336.6074">GSM</text></g><g id="elem_GMN5"><path d="M317,1748.5 L317,1767 L59.58,1771 L317,1775 L317,1793.082 A0,0 0 0 0 317,1793.082 L470,1793.082 A0,0 0 0 0 470,1793.082 L470,1758.5 L460,1748.5 L317,1748.5 A0,0 0 0 0 317,1748.5 " fill="#FEFFDD" style="stroke:#181818;stroke-width:0.5;"/><path d="M460,1748.5 L460,1758.5 L470,1758.5 L460,1748.5 " fill="#FEFFDD" style="stroke:#181818;stroke-width:0.5;"/><text fill="#000000" font-family="sans-serif" font-size="13" lengthAdjust="spacing" textLength="132" x="323" y="1767.5283">Actor identified but still</text><text fill="#000000" font-family="sans-serif" font-size="13" lengthAdjust="spacing" textLength="132" x="323" y="1784.8193">no concrete use cases</text></g><g id="elem_UC6"><ellipse cx="393.4983" cy="660.9997" fill="#F1F1F1" rx="172.9983" ry="36.9997" style="stroke:#181818;stroke-width:0.5;"/><text fill="#000000" font-family="sans-serif" font-size="14" lengthAdjust="spacing" textLength="315" x="235.9983" y="664.7965">UC 006 - Register a vehicle with fundamental data</text></g><!--entity VFM--><g id="elem_VFM"><ellipse cx="45" cy="732" fill="#F1F1F1" rx="8" ry="8" style="stroke:#181818;stroke-width:0.5;"/><path d="M45,740 L45,767 M32,748 L58,748 M45,767 L32,782 M45,767 L58,782 " fill="none" style="stroke:#181818;stroke-width:0.5;"/><text fill="#000000" font-family="sans-serif" font-size="14" lengthAdjust="spacing" textLength="29" x="30.5" y="798.6074">VFM</text></g><g id="elem_UC7"><ellipse cx="393.7026" cy="763.2405" fill="#F1F1F1" rx="139.2026" ry="30.2405" style="stroke:#181818;stroke-width:0.5;"/><text fill="#000000" font-family="sans-serif" font-size="14" lengthAdjust="spacing" textLength="244" x="271.7026" y="767.0374">UC 007 - Register vehicle for check-up</text></g><g id="elem_UC8"><ellipse cx="393.5132" cy="863.1026" fill="#F1F1F1" rx="161.0132" ry="34.6026" style="stroke:#181818;stroke-width:0.5;"/><text fill="#000000" font-family="sans-serif" font-size="14" lengthAdjust="spacing" textLength="290" x="248.5132" y="866.8995">UC 008 - List the vehicles needing a check-up</text></g><g id="elem_UC1"><ellipse cx="393.4868" cy="45.7974" fill="#F1F1F1" rx="186.9868" ry="39.7974" style="stroke:#181818;stroke-width:0.5;"/><text fill="#000000" font-family="sans-serif" font-size="14" lengthAdjust="spacing" textLength="344" x="221.4868" y="49.5942">UC 001 - Create a skill to be apointed to a collaborator</text></g><!--entity HRM--><g id="elem_HRM"><ellipse cx="45" cy="257" fill="#F1F1F1" rx="8" ry="8" style="stroke:#181818;stroke-width:0.5;"/><path d="M45,265 L45,292 M32,273 L58,273 M45,292 L32,307 M45,292 L58,307 " fill="none" style="stroke:#181818;stroke-width:0.5;"/><text fill="#000000" font-family="sans-serif" font-size="14" lengthAdjust="spacing" textLength="30" x="30" y="323.6074">HRM</text></g><g id="elem_UC2"><ellipse cx="393.5526" cy="160.9105" fill="#F1F1F1" rx="185.0526" ry="39.4105" style="stroke:#181818;stroke-width:0.5;"/><text fill="#000000" font-family="sans-serif" font-size="14" lengthAdjust="spacing" textLength="340" x="223.5526" y="164.7074">UC 002 - Create a job to be apointed to a collaborator</text></g><g id="elem_UC3"><ellipse cx="393.4369" cy="287.7874" fill="#F1F1F1" rx="249.4369" ry="52.2874" style="stroke:#181818;stroke-width:0.5;"/><text fill="#000000" font-family="sans-serif" font-size="14" lengthAdjust="spacing" textLength="472" x="157.4369" y="291.5843">UC 003 - Register a collaborator with a job and fundamental characteristics</text></g><g id="elem_UC4"><ellipse cx="393.3306" cy="413.8661" fill="#F1F1F1" rx="177.3306" ry="37.8661" style="stroke:#181818;stroke-width:0.5;"/><text fill="#000000" font-family="sans-serif" font-size="14" lengthAdjust="spacing" textLength="324" x="231.3306" y="417.663">UC 004 - Assign one or more skills to a collaborator</text></g><g id="elem_UC5"><ellipse cx="393.5382" cy="538.2076" fill="#F1F1F1" rx="244.0382" ry="51.2076" style="stroke:#181818;stroke-width:0.5;"/><text fill="#000000" font-family="sans-serif" font-size="14" lengthAdjust="spacing" textLength="461" x="163.0382" y="542.0045">UC 005 - Generate a team proposal automatically based on skills needed</text></g><g id="elem_UC20"><ellipse cx="393.2514" cy="959.8503" fill="#F1F1F1" rx="124.7514" ry="27.3503" style="stroke:#181818;stroke-width:0.5;"/><text fill="#000000" font-family="sans-serif" font-size="14" lengthAdjust="spacing" textLength="213" x="286.7514" y="963.6472">UC 020 - Register a Green Space</text></g><g id="elem_UC21"><ellipse cx="393.4361" cy="1055.8872" fill="#F1F1F1" rx="152.4361" ry="32.8872" style="stroke:#181818;stroke-width:0.5;"/><text fill="#000000" font-family="sans-serif" font-size="14" lengthAdjust="spacing" textLength="272" x="257.4361" y="1059.6841">UC 021 - Add a new entry to the To-Do List</text></g><g id="elem_UC22"><ellipse cx="393.7136" cy="1151.9427" fill="#F1F1F1" rx="125.2136" ry="27.4427" style="stroke:#181818;stroke-width:0.5;"/><text fill="#000000" font-family="sans-serif" font-size="14" lengthAdjust="spacing" textLength="214" x="286.7136" y="1155.7396">UC 022 - Add entry to the Agenda</text></g><g id="elem_UC23"><ellipse cx="393.5561" cy="1251.2112" fill="#F1F1F1" rx="171.5561" ry="36.7112" style="stroke:#181818;stroke-width:0.5;"/><text fill="#000000" font-family="sans-serif" font-size="14" lengthAdjust="spacing" textLength="312" x="237.5561" y="1255.0081">UC 023 - Assign a team to an entry in the agenda</text></g><g id="elem_UC24"><ellipse cx="393.7135" cy="1351.2427" fill="#F1F1F1" rx="131.7135" ry="28.7427" style="stroke:#181818;stroke-width:0.5;"/><text fill="#000000" font-family="sans-serif" font-size="14" lengthAdjust="spacing" textLength="228" x="279.7135" y="1355.0396">UC 024 - Postpone an agenda entry</text></g><g id="elem_UC25"><ellipse cx="393.4684" cy="1445.9937" fill="#F1F1F1" rx="142.9684" ry="30.9937" style="stroke:#181818;stroke-width:0.5;"/><text fill="#000000" font-family="sans-serif" font-size="14" lengthAdjust="spacing" textLength="252" x="267.4684" y="1449.7906">UC 025 - Cancel an entry in the Agenda</text></g><g id="elem_UC26"><ellipse cx="393.6701" cy="1557.934" fill="#F1F1F1" rx="215.1701" ry="45.434" style="stroke:#181818;stroke-width:0.5;"/><text fill="#000000" font-family="sans-serif" font-size="14" lengthAdjust="spacing" textLength="402" x="192.6701" y="1561.7309">UC 026 - Assign one or more vehicles to an entry in the Agenda</text></g><g id="elem_UC27"><ellipse cx="393.4227" cy="1675.8845" fill="#F1F1F1" rx="174.9227" ry="37.3845" style="stroke:#181818;stroke-width:0.5;"/><text fill="#000000" font-family="sans-serif" font-size="14" lengthAdjust="spacing" textLength="319" x="233.9227" y="1679.6814">UC 027 - List all green spaces managed by a GSM</text></g><g id="elem_UC28"><ellipse cx="393.375" cy="1898.975" fill="#F1F1F1" rx="190.375" ry="40.475" style="stroke:#181818;stroke-width:0.5;"/><text fill="#000000" font-family="sans-serif" font-size="14" lengthAdjust="spacing" textLength="351" x="217.875" y="1902.7719">UC 028 - Consult the tasks assigned between two dates</text></g><g id="elem_UC29"><ellipse cx="393.4568" cy="2003.0914" fill="#F1F1F1" rx="128.4568" ry="28.0914" style="stroke:#181818;stroke-width:0.5;"/><text fill="#000000" font-family="sans-serif" font-size="14" lengthAdjust="spacing" textLength="221" x="282.9568" y="2006.8882">UC 029 - Mark a task as completed</text></g><!--link VFM to UC6--><g id="link_VFM_UC6"><path d="M59.53,755.27 C78.06,744.99 112.61,726.84 144,716 C180.86,703.27 215.9785,694.0616 253.8485,685.7816 " fill="none" id="VFM-to-UC6" style="stroke:#181818;stroke-width:1.0;"/><polygon fill="#181818" points="259.71,684.5,250.0633,682.5147,254.8254,685.568,251.7721,690.3301,259.71,684.5" style="stroke:#181818;stroke-width:1.0;"/></g><!--link VFM to UC7--><g id="link_VFM_UC7"><path d="M59.58,763 C92.24,763 172.11,763 248.46,763 " fill="none" id="VFM-to-UC7" style="stroke:#181818;stroke-width:1.0;"/><polygon fill="#181818" points="254.46,763,245.46,759,249.46,763,245.46,767,254.46,763" style="stroke:#181818;stroke-width:1.0;"/></g><!--link VFM to UC8--><g id="link_VFM_UC8"><path d="M59.81,771.14 C78.36,781.75 112.64,800.23 144,811 C182.14,824.1 218.8902,833.2851 257.9102,841.2151 " fill="none" id="VFM-to-UC8" style="stroke:#181818;stroke-width:1.0;"/><polygon fill="#181818" points="263.79,842.41,255.7669,836.6977,258.8902,841.4142,254.1737,844.5374,263.79,842.41" style="stroke:#181818;stroke-width:1.0;"/></g><!--link HRM to UC1--><g id="link_HRM_UC1"><path d="M56.52,248.19 C69.79,205.91 96.8,140.28 144,104 C167.97,85.57 191.0688,74.5599 220.4988,65.8099 " fill="none" id="HRM-to-UC1" style="stroke:#181818;stroke-width:1.0;"/><polygon fill="#181818" points="226.25,64.1,216.4833,62.8308,221.4573,65.5249,218.7632,70.499,226.25,64.1" style="stroke:#181818;stroke-width:1.0;"/></g><!--link HRM to UC2--><g id="link_HRM_UC2"><path d="M60.14,275.1 C78.24,259.28 111.21,232.76 144,218 C175.58,203.79 205.2475,194.3476 239.3075,186.1276 " fill="none" id="HRM-to-UC2" style="stroke:#181818;stroke-width:1.0;"/><polygon fill="#181818" points="245.14,184.72,235.4528,182.9431,240.2795,185.893,237.3296,190.7198,245.14,184.72" style="stroke:#181818;stroke-width:1.0;"/></g><!--link HRM to UC3--><g id="link_HRM_UC3"><path d="M60.01,288 C76.91,288 101.61,288 137.75,288 " fill="none" id="HRM-to-UC3" style="stroke:#181818;stroke-width:1.0;"/><polygon fill="#181818" points="143.75,288,134.75,284,138.75,288,134.75,292,143.75,288" style="stroke:#181818;stroke-width:1.0;"/></g><!--link HRM to UC4--><g id="link_HRM_UC4"><path d="M60.13,300.92 C78.22,316.76 111.18,343.3 144,358 C176.8,372.68 207.9654,382.3333 243.2054,390.5133 " fill="none" id="HRM-to-UC4" style="stroke:#181818;stroke-width:1.0;"/><polygon fill="#181818" points="249.05,391.87,241.1875,385.9386,244.1795,390.7394,239.3786,393.7314,249.05,391.87" style="stroke:#181818;stroke-width:1.0;"/></g><!--link HRM to UC5--><g id="link_HRM_UC5"><path d="M57.24,327.56 C71,368.86 98.3,432.6 144,469 C162.82,484 179.1347,493.4978 201.9447,502.6878 " fill="none" id="HRM-to-UC5" style="stroke:#181818;stroke-width:1.0;"/><polygon fill="#181818" points="207.51,504.93,200.6569,497.8565,202.8723,503.0615,197.6673,505.2769,207.51,504.93" style="stroke:#181818;stroke-width:1.0;"/></g><!--link GSM to UC20--><g id="link_GSM_UC20"><path d="M47.01,1261.42 C50.92,1197.44 68.41,1071.84 144,1006 C178.08,976.32 219.0022,963.7903 262.8722,958.5603 " fill="none" id="GSM-to-UC20" style="stroke:#181818;stroke-width:1.0;"/><polygon fill="#181818" points="268.83,957.85,259.4198,954.9435,263.8652,958.4419,260.3668,962.8873,268.83,957.85" style="stroke:#181818;stroke-width:1.0;"/></g><!--link GSM to UC21--><g id="link_GSM_UC21"><path d="M55.04,1261.24 C67.33,1216.59 93.79,1145.39 144,1107 C173.04,1084.8 203.5022,1072.8825 239.3422,1065.2325 " fill="none" id="GSM-to-UC21" style="stroke:#181818;stroke-width:1.0;"/><polygon fill="#181818" points="245.21,1063.98,235.5733,1061.9468,240.3202,1065.0237,237.2433,1069.7706,245.21,1063.98" style="stroke:#181818;stroke-width:1.0;"/></g><!--link GSM to UC22--><g id="link_GSM_UC22"><path d="M60.71,1278.32 C77.71,1254.08 108.02,1216.52 144,1197 C182.73,1175.99 223.4125,1165.4038 265.7525,1159.2438 " fill="none" id="GSM-to-UC22" style="stroke:#181818;stroke-width:1.0;"/><polygon fill="#181818" points="271.69,1158.38,262.2079,1155.7174,266.7421,1159.0999,263.3597,1163.6341,271.69,1158.38" style="stroke:#181818;stroke-width:1.0;"/></g><!--link GSM to UC23--><g id="link_GSM_UC23"><path d="M60.89,1298.85 C93.99,1294.08 170.6915,1283.0069 245.1915,1272.2569 " fill="none" id="GSM-to-UC23" style="stroke:#181818;stroke-width:1.0;"/><polygon fill="#181818" points="251.13,1271.4,241.651,1268.7263,246.1813,1272.1141,242.7935,1276.6443,251.13,1271.4" style="stroke:#181818;stroke-width:1.0;"/></g><!--link GSM to UC24--><g id="link_GSM_UC24"><path d="M60.89,1303.15 C98.91,1308.63 196.3714,1322.7035 277.7014,1334.4335 " fill="none" id="GSM-to-UC24" style="stroke:#181818;stroke-width:1.0;"/><polygon fill="#181818" points="283.64,1335.29,275.3032,1330.0462,278.6912,1334.5762,274.1612,1337.9643,283.64,1335.29" style="stroke:#181818;stroke-width:1.0;"/></g><!--link GSM to UC25--><g id="link_GSM_UC25"><path d="M60.54,1321.02 C77.83,1343.26 108.81,1378.46 144,1397 C179.5,1415.7 215.3689,1426.215 254.4189,1433.395 " fill="none" id="GSM-to-UC25" style="stroke:#181818;stroke-width:1.0;"/><polygon fill="#181818" points="260.32,1434.48,252.1917,1428.9184,255.4024,1433.5758,250.745,1436.7865,260.32,1434.48" style="stroke:#181818;stroke-width:1.0;"/></g><!--link GSM to UC26--><g id="link_GSM_UC26"><path d="M55.47,1340.75 C68.11,1385.04 94.83,1455.59 144,1495 C164.58,1511.49 183.2913,1521.7072 208.5913,1530.7672 " fill="none" id="GSM-to-UC26" style="stroke:#181818;stroke-width:1.0;"/><polygon fill="#181818" points="214.24,1532.79,207.1155,1525.9899,209.5327,1531.1043,204.4184,1533.5216,214.24,1532.79" style="stroke:#181818;stroke-width:1.0;"/></g><!--link GSM to UC27--><g id="link_GSM_UC27"><path d="M46.07,1340.51 C48.44,1408.32 63.54,1546.69 144,1621 C166.97,1642.21 190.4529,1654.2446 220.7629,1662.9446 " fill="none" id="GSM-to-UC27" style="stroke:#181818;stroke-width:1.0;"/><polygon fill="#181818" points="226.53,1664.6,218.9829,1658.2722,221.7241,1663.2205,216.7757,1665.9617,226.53,1664.6" style="stroke:#181818;stroke-width:1.0;"/></g><!--link Collaborator to UC28--><g id="link_Collaborator_UC28"><path d="M84.07,1925.7 C116.86,1922.86 160.7024,1919.0678 210.8024,1914.7278 " fill="none" id="Collaborator-to-UC28" style="stroke:#181818;stroke-width:1.0;"/><polygon fill="#181818" points="216.78,1914.21,207.4684,1911.0017,211.7987,1914.6415,208.1588,1918.9718,216.78,1914.21" style="stroke:#181818;stroke-width:1.0;"/></g><!--link Collaborator to UC29--><g id="link_Collaborator_UC29"><path d="M84.41,1940.89 C102.4,1946.22 124.19,1952.35 144,1957 C191.73,1968.21 239.2307,1977.3609 284.2707,1985.2809 " fill="none" id="Collaborator-to-UC29" style="stroke:#181818;stroke-width:1.0;"/><polygon fill="#181818" points="290.18,1986.32,282.0087,1980.8218,285.2556,1985.4541,280.6233,1988.7009,290.18,1986.32" style="stroke:#181818;stroke-width:1.0;"/></g><!--SRC=[ZPNBRjim44Nt-eg1DraPiEbNiWdWkcYwg84YRhgdgR74cY85agvX5Ftt3lLmz620QaTfvbnovdBq003kB7N9BI-WCDg8t9e2mTiB9kzVIYxEFCE3loa4Yy9pdIbC7juZNCvJSvKwWnDN3fDEyZt-Jq9oyCdO5EtEA6FXXagPQ_8tIHA59m_UW9LPxY6L8KiQdLGvN7YAfXp5ZyPoMdHUlnpUUgjzKYTfux71cTCzgdssLRHCKNjvafZ2yUB1UQbKBqmR44OBYyIwE0J17Reg0dLQIIID77qD7s7ojeFPR0rJUCLCEeyMEFp6N0ggtLNw74uNdVA2XBc2b7i-0UxWRRUkC9EVN_OJc4wVxs_wu4qNt69FT1IHepXFBsL3sunecmZjaMZVY0K-nvRcG2EcePLy27qSGHyZq3b1TnOvbOm7UoaL6dkaLMcazbHhMXAxqyw6Fw_vNr_l_7c4pxhyN-RultGsehC8VT7lN9TJjw_MvDJ-RYD5JcONb4E9KhX6SZ6IN4GaboIvTKvc6en68A72MAnBvpuypdB4NaROAsA_e4PRbyjZkCxMbCRHfld5cuBJVhbIDpXILaexQ8M33J1jr5OZjLN4zspMhzwBHTHmeFc1RHDcLHPTqxO7imWcM6YRfaJGUAMhvkqjr26uz8UPVZQLQLlYV4YCc8QnXjXZRJEwnUtzOsp8YTY3BTvxrLGpz4StNAahBkzn5qDkn0CiUE2xSRuC3Y1UZQYnBMWv14KQpaB3TrmBLADjzO-x6j9M4TewRitxg8WSlg-o7gf4XXhRj6E8V0XPvHaNFEEWu9egGTFv5jnqsBVOpH2xYOrX5kRRpcXtKVM8yzoT7I72WG8L_JM8-Qi9anZRQylgiTRzuRGwaO77daXbp-qvE8840aEOebJqqsYl3tlwaFZq3m00]--></g></svg>