<?xml version="1.0" encoding="us-ascii" standalone="no"?><svg xmlns="http://www.w3.org/2000/svg" xmlns:xlink="http://www.w3.org/1999/xlink" contentStyleType="text/css" height="613px" preserveAspectRatio="none" style="width:1004px;height:613px;background:#FFFFFF;" version="1.1" viewBox="0 0 1004 613" width="1004px" zoomAndPan="magnify"><defs/><g><!--class Vehicle--><g id="elem_Vehicle"><rect codeLine="9" fill="#F1F1F1" height="234.2109" id="Vehicle" rx="2.5" ry="2.5" style="stroke:#181818;stroke-width:0.5;" width="133" x="850.5" y="171"/><ellipse cx="890.25" cy="187" fill="#ADD1B2" rx="11" ry="11" style="stroke:#181818;stroke-width:1.0;"/><path d="M893.0156,182.875 Q893.1719,182.6563 893.3594,182.5469 Q893.5469,182.4375 893.7656,182.4375 Q894.1406,182.4375 894.375,182.7031 Q894.6094,182.9531 894.6094,183.5625 L894.6094,185.0156 Q894.6094,185.625 894.375,185.8906 Q894.1406,186.1563 893.7656,186.1563 Q893.4219,186.1563 893.2188,185.9531 Q893.0156,185.7656 892.9063,185.25 Q892.8594,184.8906 892.6719,184.7031 Q892.3438,184.3281 891.7344,184.1094 Q891.125,183.8906 890.5,183.8906 Q889.7344,183.8906 889.0938,184.2188 Q888.4688,184.5469 887.9688,185.2969 Q887.4844,186.0469 887.4844,187.0781 L887.4844,188.1719 Q887.4844,189.4063 888.375,190.2344 Q889.2656,191.0469 890.8594,191.0469 Q891.7969,191.0469 892.4531,190.7969 Q892.8438,190.6406 893.2656,190.2031 Q893.5313,189.9375 893.6719,189.8594 Q893.8281,189.7813 894.0313,189.7813 Q894.3594,189.7813 894.6094,190.0469 Q894.875,190.2969 894.875,190.6406 Q894.875,190.9844 894.5313,191.3906 Q894.0313,191.9688 893.2344,192.2969 Q892.1563,192.75 890.8594,192.75 Q889.3438,192.75 888.1406,192.125 Q887.1563,191.625 886.4688,190.5625 Q885.7813,189.4844 885.7813,188.2031 L885.7813,187.0469 Q885.7813,185.7188 886.3906,184.5781 Q887.0156,183.4219 888.1094,182.8125 Q889.2031,182.1875 890.4375,182.1875 Q891.1719,182.1875 891.8125,182.3594 Q892.4688,182.5156 893.0156,182.875 Z " fill="#000000"/><text fill="#000000" font-family="sans-serif" font-size="14" lengthAdjust="spacing" textLength="46" x="909.75" y="192.7969">Vehicle</text><line style="stroke:#181818;stroke-width:0.5;" x1="851.5" x2="982.5" y1="203" y2="203"/><text fill="#000000" font-family="sans-serif" font-size="14" lengthAdjust="spacing" textLength="37" x="856.5" y="222.1074">brand</text><text fill="#000000" font-family="sans-serif" font-size="14" lengthAdjust="spacing" textLength="38" x="856.5" y="240.7285">model</text><text fill="#000000" font-family="sans-serif" font-size="14" lengthAdjust="spacing" textLength="57" x="856.5" y="259.3496">vehicleID</text><text fill="#000000" font-family="sans-serif" font-size="14" lengthAdjust="spacing" textLength="27" x="856.5" y="277.9707">type</text><text fill="#000000" font-family="sans-serif" font-size="14" lengthAdjust="spacing" textLength="25" x="856.5" y="296.5918">tare</text><text fill="#000000" font-family="sans-serif" font-size="14" lengthAdjust="spacing" textLength="79" x="856.5" y="315.2129">grossWeight</text><text fill="#000000" font-family="sans-serif" font-size="14" lengthAdjust="spacing" textLength="65" x="856.5" y="333.834">currentKm</text><text fill="#000000" font-family="sans-serif" font-size="14" lengthAdjust="spacing" textLength="78" x="856.5" y="352.4551">registerDate</text><text fill="#000000" font-family="sans-serif" font-size="14" lengthAdjust="spacing" textLength="97" x="856.5" y="371.0762">acquisitionDate</text><text fill="#000000" font-family="sans-serif" font-size="14" lengthAdjust="spacing" textLength="121" x="856.5" y="389.6973">checkupFrequency</text><line style="stroke:#181818;stroke-width:0.5;" x1="851.5" x2="982.5" y1="397.2109" y2="397.2109"/></g><!--class VehicleCheckup--><g id="elem_VehicleCheckup"><rect codeLine="23" fill="#F1F1F1" height="85.2422" id="VehicleCheckup" rx="2.5" ry="2.5" style="stroke:#181818;stroke-width:0.5;" width="134" x="795" y="502.5"/><ellipse cx="810" cy="518.5" fill="#ADD1B2" rx="11" ry="11" style="stroke:#181818;stroke-width:1.0;"/><path d="M812.7656,514.375 Q812.9219,514.1563 813.1094,514.0469 Q813.2969,513.9375 813.5156,513.9375 Q813.8906,513.9375 814.125,514.2031 Q814.3594,514.4531 814.3594,515.0625 L814.3594,516.5156 Q814.3594,517.125 814.125,517.3906 Q813.8906,517.6563 813.5156,517.6563 Q813.1719,517.6563 812.9688,517.4531 Q812.7656,517.2656 812.6563,516.75 Q812.6094,516.3906 812.4219,516.2031 Q812.0938,515.8281 811.4844,515.6094 Q810.875,515.3906 810.25,515.3906 Q809.4844,515.3906 808.8438,515.7188 Q808.2188,516.0469 807.7188,516.7969 Q807.2344,517.5469 807.2344,518.5781 L807.2344,519.6719 Q807.2344,520.9063 808.125,521.7344 Q809.0156,522.5469 810.6094,522.5469 Q811.5469,522.5469 812.2031,522.2969 Q812.5938,522.1406 813.0156,521.7031 Q813.2813,521.4375 813.4219,521.3594 Q813.5781,521.2813 813.7813,521.2813 Q814.1094,521.2813 814.3594,521.5469 Q814.625,521.7969 814.625,522.1406 Q814.625,522.4844 814.2813,522.8906 Q813.7813,523.4688 812.9844,523.7969 Q811.9063,524.25 810.6094,524.25 Q809.0938,524.25 807.8906,523.625 Q806.9063,523.125 806.2188,522.0625 Q805.5313,520.9844 805.5313,519.7031 L805.5313,518.5469 Q805.5313,517.2188 806.1406,516.0781 Q806.7656,514.9219 807.8594,514.3125 Q808.9531,513.6875 810.1875,513.6875 Q810.9219,513.6875 811.5625,513.8594 Q812.2188,514.0156 812.7656,514.375 Z " fill="#000000"/><text fill="#000000" font-family="sans-serif" font-size="14" lengthAdjust="spacing" textLength="102" x="824" y="524.2969">VehicleCheckup</text><line style="stroke:#181818;stroke-width:0.5;" x1="796" x2="928" y1="534.5" y2="534.5"/><text fill="#000000" font-family="sans-serif" font-size="14" lengthAdjust="spacing" textLength="72" x="801" y="553.6074">currentKms</text><text fill="#000000" font-family="sans-serif" font-size="14" lengthAdjust="spacing" textLength="28" x="801" y="572.2285">date</text><line style="stroke:#181818;stroke-width:0.5;" x1="796" x2="928" y1="579.7422" y2="579.7422"/></g><!--class SystemUser--><g id="elem_SystemUser"><rect codeLine="30" fill="#F1F1F1" height="122.4844" id="SystemUser" rx="2.5" ry="2.5" style="stroke:#181818;stroke-width:0.5;" width="107" x="556.5" y="227"/><ellipse cx="571.5" cy="243" fill="#ADD1B2" rx="11" ry="11" style="stroke:#181818;stroke-width:1.0;"/><path d="M574.2656,238.875 Q574.4219,238.6563 574.6094,238.5469 Q574.7969,238.4375 575.0156,238.4375 Q575.3906,238.4375 575.625,238.7031 Q575.8594,238.9531 575.8594,239.5625 L575.8594,241.0156 Q575.8594,241.625 575.625,241.8906 Q575.3906,242.1563 575.0156,242.1563 Q574.6719,242.1563 574.4688,241.9531 Q574.2656,241.7656 574.1563,241.25 Q574.1094,240.8906 573.9219,240.7031 Q573.5938,240.3281 572.9844,240.1094 Q572.375,239.8906 571.75,239.8906 Q570.9844,239.8906 570.3438,240.2188 Q569.7188,240.5469 569.2188,241.2969 Q568.7344,242.0469 568.7344,243.0781 L568.7344,244.1719 Q568.7344,245.4063 569.625,246.2344 Q570.5156,247.0469 572.1094,247.0469 Q573.0469,247.0469 573.7031,246.7969 Q574.0938,246.6406 574.5156,246.2031 Q574.7813,245.9375 574.9219,245.8594 Q575.0781,245.7813 575.2813,245.7813 Q575.6094,245.7813 575.8594,246.0469 Q576.125,246.2969 576.125,246.6406 Q576.125,246.9844 575.7813,247.3906 Q575.2813,247.9688 574.4844,248.2969 Q573.4063,248.75 572.1094,248.75 Q570.5938,248.75 569.3906,248.125 Q568.4063,247.625 567.7188,246.5625 Q567.0313,245.4844 567.0313,244.2031 L567.0313,243.0469 Q567.0313,241.7188 567.6406,240.5781 Q568.2656,239.4219 569.3594,238.8125 Q570.4531,238.1875 571.6875,238.1875 Q572.4219,238.1875 573.0625,238.3594 Q573.7188,238.5156 574.2656,238.875 Z " fill="#000000"/><text fill="#000000" font-family="sans-serif" font-size="14" lengthAdjust="spacing" textLength="75" x="585.5" y="248.7969">SystemUser</text><line style="stroke:#181818;stroke-width:0.5;" x1="557.5" x2="662.5" y1="259" y2="259"/><text fill="#000000" font-family="sans-serif" font-size="14" lengthAdjust="spacing" textLength="35" x="562.5" y="278.1074">name</text><text fill="#000000" font-family="sans-serif" font-size="14" lengthAdjust="spacing" textLength="33" x="562.5" y="296.7285">email</text><text fill="#000000" font-family="sans-serif" font-size="14" lengthAdjust="spacing" textLength="60" x="562.5" y="315.3496">password</text><text fill="#000000" font-family="sans-serif" font-size="14" lengthAdjust="spacing" textLength="40" x="562.5" y="333.9707">phone</text><line style="stroke:#181818;stroke-width:0.5;" x1="557.5" x2="662.5" y1="341.4844" y2="341.4844"/></g><!--class VehicleRepository--><g id="elem_VehicleRepository"><rect codeLine="37" fill="#F1F1F1" height="122.4844" id="VehicleRepository" rx="2.5" ry="2.5" style="stroke:#181818;stroke-width:0.5;" width="233" x="474.5" y="484"/><ellipse cx="529.75" cy="500" fill="#ADD1B2" rx="11" ry="11" style="stroke:#181818;stroke-width:1.0;"/><path d="M532.5156,495.875 Q532.6719,495.6563 532.8594,495.5469 Q533.0469,495.4375 533.2656,495.4375 Q533.6406,495.4375 533.875,495.7031 Q534.1094,495.9531 534.1094,496.5625 L534.1094,498.0156 Q534.1094,498.625 533.875,498.8906 Q533.6406,499.1563 533.2656,499.1563 Q532.9219,499.1563 532.7188,498.9531 Q532.5156,498.7656 532.4063,498.25 Q532.3594,497.8906 532.1719,497.7031 Q531.8438,497.3281 531.2344,497.1094 Q530.625,496.8906 530,496.8906 Q529.2344,496.8906 528.5938,497.2188 Q527.9688,497.5469 527.4688,498.2969 Q526.9844,499.0469 526.9844,500.0781 L526.9844,501.1719 Q526.9844,502.4063 527.875,503.2344 Q528.7656,504.0469 530.3594,504.0469 Q531.2969,504.0469 531.9531,503.7969 Q532.3438,503.6406 532.7656,503.2031 Q533.0313,502.9375 533.1719,502.8594 Q533.3281,502.7813 533.5313,502.7813 Q533.8594,502.7813 534.1094,503.0469 Q534.375,503.2969 534.375,503.6406 Q534.375,503.9844 534.0313,504.3906 Q533.5313,504.9688 532.7344,505.2969 Q531.6563,505.75 530.3594,505.75 Q528.8438,505.75 527.6406,505.125 Q526.6563,504.625 525.9688,503.5625 Q525.2813,502.4844 525.2813,501.2031 L525.2813,500.0469 Q525.2813,498.7188 525.8906,497.5781 Q526.5156,496.4219 527.6094,495.8125 Q528.7031,495.1875 529.9375,495.1875 Q530.6719,495.1875 531.3125,495.3594 Q531.9688,495.5156 532.5156,495.875 Z " fill="#000000"/><text fill="#000000" font-family="sans-serif" font-size="14" lengthAdjust="spacing" textLength="114" x="550.25" y="505.7969">VehicleRepository</text><line style="stroke:#181818;stroke-width:0.5;" x1="475.5" x2="706.5" y1="516" y2="516"/><text fill="#000000" font-family="sans-serif" font-size="14" lengthAdjust="spacing" textLength="138" x="480.5" y="535.1074">-ArrayList vehiclesList</text><line style="stroke:#181818;stroke-width:0.5;" x1="475.5" x2="706.5" y1="542.6211" y2="542.6211"/><text fill="#000000" font-family="sans-serif" font-size="14" lengthAdjust="spacing" textLength="159" x="480.5" y="561.7285">+getVehiclesRepository()</text><text fill="#000000" font-family="sans-serif" font-size="14" lengthAdjust="spacing" textLength="91" x="480.5" y="580.3496">+getVehicles()</text><text fill="#000000" font-family="sans-serif" font-size="14" lengthAdjust="spacing" textLength="221" x="480.5" y="598.9707">+getVehiclesNeedingCheckupList()</text></g><!--class Repositories--><g id="elem_Repositories"><rect codeLine="45" fill="#F1F1F1" height="234.2109" id="Repositories" rx="2.5" ry="2.5" style="stroke:#181818;stroke-width:0.5;" width="196" x="246" y="171"/><ellipse cx="300.25" cy="187" fill="#ADD1B2" rx="11" ry="11" style="stroke:#181818;stroke-width:1.0;"/><path d="M303.0156,182.875 Q303.1719,182.6563 303.3594,182.5469 Q303.5469,182.4375 303.7656,182.4375 Q304.1406,182.4375 304.375,182.7031 Q304.6094,182.9531 304.6094,183.5625 L304.6094,185.0156 Q304.6094,185.625 304.375,185.8906 Q304.1406,186.1563 303.7656,186.1563 Q303.4219,186.1563 303.2188,185.9531 Q303.0156,185.7656 302.9063,185.25 Q302.8594,184.8906 302.6719,184.7031 Q302.3438,184.3281 301.7344,184.1094 Q301.125,183.8906 300.5,183.8906 Q299.7344,183.8906 299.0938,184.2188 Q298.4688,184.5469 297.9688,185.2969 Q297.4844,186.0469 297.4844,187.0781 L297.4844,188.1719 Q297.4844,189.4063 298.375,190.2344 Q299.2656,191.0469 300.8594,191.0469 Q301.7969,191.0469 302.4531,190.7969 Q302.8438,190.6406 303.2656,190.2031 Q303.5313,189.9375 303.6719,189.8594 Q303.8281,189.7813 304.0313,189.7813 Q304.3594,189.7813 304.6094,190.0469 Q304.875,190.2969 304.875,190.6406 Q304.875,190.9844 304.5313,191.3906 Q304.0313,191.9688 303.2344,192.2969 Q302.1563,192.75 300.8594,192.75 Q299.3438,192.75 298.1406,192.125 Q297.1563,191.625 296.4688,190.5625 Q295.7813,189.4844 295.7813,188.2031 L295.7813,187.0469 Q295.7813,185.7188 296.3906,184.5781 Q297.0156,183.4219 298.1094,182.8125 Q299.2031,182.1875 300.4375,182.1875 Q301.1719,182.1875 301.8125,182.3594 Q302.4688,182.5156 303.0156,182.875 Z " fill="#000000"/><text fill="#000000" font-family="sans-serif" font-size="14" lengthAdjust="spacing" textLength="79" x="320.75" y="192.7969">Repositories</text><line style="stroke:#181818;stroke-width:0.5;" x1="247" x2="441" y1="203" y2="203"/><text fill="#000000" font-family="sans-serif" font-size="14" lengthAdjust="spacing" textLength="148" x="252" y="222.1074">-collaboratorRepository</text><text fill="#000000" font-family="sans-serif" font-size="14" lengthAdjust="spacing" textLength="117" x="252" y="240.7285">-vehicleRepository</text><text fill="#000000" font-family="sans-serif" font-size="14" lengthAdjust="spacing" textLength="96" x="252" y="259.3496">-skillRepository</text><text fill="#000000" font-family="sans-serif" font-size="14" lengthAdjust="spacing" textLength="92" x="252" y="277.9707">-jobRepository</text><line style="stroke:#181818;stroke-width:0.5;" x1="247" x2="441" y1="285.4844" y2="285.4844"/><text fill="#000000" font-family="sans-serif" font-size="14" lengthAdjust="spacing" textLength="94" x="252" y="304.5918">-Repositories()</text><text fill="#000000" font-family="sans-serif" font-size="14" lengthAdjust="spacing" textLength="91" x="252" y="323.2129">+getInstance()</text><text fill="#000000" font-family="sans-serif" font-size="14" lengthAdjust="spacing" textLength="184" x="252" y="341.834">+getCollaboratorRepository()</text><text fill="#000000" font-family="sans-serif" font-size="14" lengthAdjust="spacing" textLength="152" x="252" y="360.4551">+getVehicleRepository()</text><text fill="#000000" font-family="sans-serif" font-size="14" lengthAdjust="spacing" textLength="131" x="252" y="379.0762">+getSkillRepository()</text><text fill="#000000" font-family="sans-serif" font-size="14" lengthAdjust="spacing" textLength="128" x="252" y="397.6973">+getJobRepository()</text></g><!--class ListVehivclesCheckupsController--><g id="elem_ListVehivclesCheckupsController"><rect codeLine="61" fill="#F1F1F1" height="85.2422" id="ListVehivclesCheckupsController" rx="2.5" ry="2.5" style="stroke:#181818;stroke-width:0.5;" width="239" x="224.5" y="7"/><ellipse cx="239.5" cy="23" fill="#ADD1B2" rx="11" ry="11" style="stroke:#181818;stroke-width:1.0;"/><path d="M242.2656,18.875 Q242.4219,18.6563 242.6094,18.5469 Q242.7969,18.4375 243.0156,18.4375 Q243.3906,18.4375 243.625,18.7031 Q243.8594,18.9531 243.8594,19.5625 L243.8594,21.0156 Q243.8594,21.625 243.625,21.8906 Q243.3906,22.1563 243.0156,22.1563 Q242.6719,22.1563 242.4688,21.9531 Q242.2656,21.7656 242.1563,21.25 Q242.1094,20.8906 241.9219,20.7031 Q241.5938,20.3281 240.9844,20.1094 Q240.375,19.8906 239.75,19.8906 Q238.9844,19.8906 238.3438,20.2188 Q237.7188,20.5469 237.2188,21.2969 Q236.7344,22.0469 236.7344,23.0781 L236.7344,24.1719 Q236.7344,25.4063 237.625,26.2344 Q238.5156,27.0469 240.1094,27.0469 Q241.0469,27.0469 241.7031,26.7969 Q242.0938,26.6406 242.5156,26.2031 Q242.7813,25.9375 242.9219,25.8594 Q243.0781,25.7813 243.2813,25.7813 Q243.6094,25.7813 243.8594,26.0469 Q244.125,26.2969 244.125,26.6406 Q244.125,26.9844 243.7813,27.3906 Q243.2813,27.9688 242.4844,28.2969 Q241.4063,28.75 240.1094,28.75 Q238.5938,28.75 237.3906,28.125 Q236.4063,27.625 235.7188,26.5625 Q235.0313,25.4844 235.0313,24.2031 L235.0313,23.0469 Q235.0313,21.7188 235.6406,20.5781 Q236.2656,19.4219 237.3594,18.8125 Q238.4531,18.1875 239.6875,18.1875 Q240.4219,18.1875 241.0625,18.3594 Q241.7188,18.5156 242.2656,18.875 Z " fill="#000000"/><text fill="#000000" font-family="sans-serif" font-size="14" lengthAdjust="spacing" textLength="207" x="253.5" y="28.7969">ListVehivclesCheckupsController</text><line style="stroke:#181818;stroke-width:0.5;" x1="225.5" x2="462.5" y1="39" y2="39"/><text fill="#000000" font-family="sans-serif" font-size="14" lengthAdjust="spacing" textLength="119" x="230.5" y="58.1074">-VehicleRepository</text><line style="stroke:#181818;stroke-width:0.5;" x1="225.5" x2="462.5" y1="65.6211" y2="65.6211"/><text fill="#000000" font-family="sans-serif" font-size="14" lengthAdjust="spacing" textLength="221" x="230.5" y="84.7285">+getVehiclesNeedingCheckupList()</text></g><!--class ListVehiclesCheckupsUI--><g id="elem_ListVehiclesCheckupsUI"><rect fill="#F1F1F1" height="48" id="ListVehiclesCheckupsUI" rx="2.5" ry="2.5" style="stroke:#181818;stroke-width:0.5;" width="182" x="7" y="25.5"/><ellipse cx="22" cy="41.5" fill="#ADD1B2" rx="11" ry="11" style="stroke:#181818;stroke-width:1.0;"/><path d="M24.7656,37.375 Q24.9219,37.1563 25.1094,37.0469 Q25.2969,36.9375 25.5156,36.9375 Q25.8906,36.9375 26.125,37.2031 Q26.3594,37.4531 26.3594,38.0625 L26.3594,39.5156 Q26.3594,40.125 26.125,40.3906 Q25.8906,40.6563 25.5156,40.6563 Q25.1719,40.6563 24.9688,40.4531 Q24.7656,40.2656 24.6563,39.75 Q24.6094,39.3906 24.4219,39.2031 Q24.0938,38.8281 23.4844,38.6094 Q22.875,38.3906 22.25,38.3906 Q21.4844,38.3906 20.8438,38.7188 Q20.2188,39.0469 19.7188,39.7969 Q19.2344,40.5469 19.2344,41.5781 L19.2344,42.6719 Q19.2344,43.9063 20.125,44.7344 Q21.0156,45.5469 22.6094,45.5469 Q23.5469,45.5469 24.2031,45.2969 Q24.5938,45.1406 25.0156,44.7031 Q25.2813,44.4375 25.4219,44.3594 Q25.5781,44.2813 25.7813,44.2813 Q26.1094,44.2813 26.3594,44.5469 Q26.625,44.7969 26.625,45.1406 Q26.625,45.4844 26.2813,45.8906 Q25.7813,46.4688 24.9844,46.7969 Q23.9063,47.25 22.6094,47.25 Q21.0938,47.25 19.8906,46.625 Q18.9063,46.125 18.2188,45.0625 Q17.5313,43.9844 17.5313,42.7031 L17.5313,41.5469 Q17.5313,40.2188 18.1406,39.0781 Q18.7656,37.9219 19.8594,37.3125 Q20.9531,36.6875 22.1875,36.6875 Q22.9219,36.6875 23.5625,36.8594 Q24.2188,37.0156 24.7656,37.375 Z " fill="#000000"/><text fill="#000000" font-family="sans-serif" font-size="14" lengthAdjust="spacing" textLength="150" x="36" y="47.2969">ListVehiclesCheckupsUI</text><line style="stroke:#181818;stroke-width:0.5;" x1="8" x2="188" y1="57.5" y2="57.5"/><line style="stroke:#181818;stroke-width:0.5;" x1="8" x2="188" y1="65.5" y2="65.5"/></g><!--class FM--><g id="elem_FM"><rect fill="#F1F1F1" height="48" id="FM" rx="2.5" ry="2.5" style="stroke:#181818;stroke-width:0.5;" width="52" x="699" y="264"/><ellipse cx="714" cy="280" fill="#ADD1B2" rx="11" ry="11" style="stroke:#181818;stroke-width:1.0;"/><path d="M716.7656,275.875 Q716.9219,275.6563 717.1094,275.5469 Q717.2969,275.4375 717.5156,275.4375 Q717.8906,275.4375 718.125,275.7031 Q718.3594,275.9531 718.3594,276.5625 L718.3594,278.0156 Q718.3594,278.625 718.125,278.8906 Q717.8906,279.1563 717.5156,279.1563 Q717.1719,279.1563 716.9688,278.9531 Q716.7656,278.7656 716.6563,278.25 Q716.6094,277.8906 716.4219,277.7031 Q716.0938,277.3281 715.4844,277.1094 Q714.875,276.8906 714.25,276.8906 Q713.4844,276.8906 712.8438,277.2188 Q712.2188,277.5469 711.7188,278.2969 Q711.2344,279.0469 711.2344,280.0781 L711.2344,281.1719 Q711.2344,282.4063 712.125,283.2344 Q713.0156,284.0469 714.6094,284.0469 Q715.5469,284.0469 716.2031,283.7969 Q716.5938,283.6406 717.0156,283.2031 Q717.2813,282.9375 717.4219,282.8594 Q717.5781,282.7813 717.7813,282.7813 Q718.1094,282.7813 718.3594,283.0469 Q718.625,283.2969 718.625,283.6406 Q718.625,283.9844 718.2813,284.3906 Q717.7813,284.9688 716.9844,285.2969 Q715.9063,285.75 714.6094,285.75 Q713.0938,285.75 711.8906,285.125 Q710.9063,284.625 710.2188,283.5625 Q709.5313,282.4844 709.5313,281.2031 L709.5313,280.0469 Q709.5313,278.7188 710.1406,277.5781 Q710.7656,276.4219 711.8594,275.8125 Q712.9531,275.1875 714.1875,275.1875 Q714.9219,275.1875 715.5625,275.3594 Q716.2188,275.5156 716.7656,275.875 Z " fill="#000000"/><text fill="#000000" font-family="sans-serif" font-size="14" lengthAdjust="spacing" textLength="20" x="728" y="285.7969">FM</text><line style="stroke:#181818;stroke-width:0.5;" x1="700" x2="750" y1="296" y2="296"/><line style="stroke:#181818;stroke-width:0.5;" x1="700" x2="750" y1="304" y2="304"/></g><!--link ListVehiclesCheckupsUI to ListVehivclesCheckupsController--><g id="link_ListVehiclesCheckupsUI_ListVehivclesCheckupsController"><path codeLine="69" d="M189.09,49.5 C197.68,49.5 205.16,49.5 218.2,49.5 " fill="none" id="ListVehiclesCheckupsUI-to-ListVehivclesCheckupsController" style="stroke:#181818;stroke-width:1.0;stroke-dasharray:7.0,7.0;"/><polygon fill="#181818" points="224.2,49.5,215.2,45.5,219.2,49.5,215.2,53.5,224.2,49.5" style="stroke:#181818;stroke-width:1.0;"/></g><!--link Repositories to VehicleRepository--><g id="link_Repositories_VehicleRepository"><path codeLine="72" d="M442.33,390.52 C473,422.18 501.666,451.7699 528.656,479.6399 " fill="none" id="Repositories-to-VehicleRepository" style="stroke:#181818;stroke-width:1.0;"/><polygon fill="#181818" points="532.83,483.95,529.4424,474.7021,529.3516,480.3582,523.6955,480.2675,532.83,483.95" style="stroke:#181818;stroke-width:1.0;"/><text fill="#000000" font-family="sans-serif" font-size="13" lengthAdjust="spacing" textLength="7" x="518.6994" y="472.9254">1</text></g><!--link Repositories to Repositories--><g id="link_Repositories_Repositories"><path codeLine="73" d="M442.02,259.78 C462.37,262.75 477,272.16 477,288 C477,303.84 468.3071,312.3835 447.9571,315.3535 " fill="none" id="Repositories-to-Repositories" style="stroke:#181818;stroke-width:1.0;"/><polygon fill="#181818" points="442.02,316.22,451.5033,318.8783,446.9676,315.4979,450.348,310.9622,442.02,316.22" style="stroke:#181818;stroke-width:1.0;"/><text fill="#000000" font-family="sans-serif" font-size="13" lengthAdjust="spacing" textLength="49" x="483" y="293.5283">instance</text></g><!--link ListVehivclesCheckupsController to Repositories--><g id="link_ListVehivclesCheckupsController_Repositories"><path codeLine="74" d="M344,92.24 C344,114.32 344,136.63 344,164.79 " fill="none" id="ListVehivclesCheckupsController-to-Repositories" style="stroke:#181818;stroke-width:1.0;stroke-dasharray:7.0,7.0;"/><polygon fill="#181818" points="344,170.79,348,161.79,344,165.79,340,161.79,344,170.79" style="stroke:#181818;stroke-width:1.0;"/><text fill="#000000" font-family="sans-serif" font-size="13" lengthAdjust="spacing" textLength="67" x="345" y="137.0283">repositories</text></g><!--reverse link Vehicle to VehicleRepository--><g id="link_Vehicle_VehicleRepository"><path codeLine="75" d="M846.8411,393.2885 C823.3311,428.2385 806,454 806,454 C806,454 758.17,474.02 707.62,495.18 " fill="none" id="Vehicle-backto-VehicleRepository" style="stroke:#181818;stroke-width:1.0;"/><polygon fill="#181818" points="850.19,388.31,841.8477,393.5451,847.3993,392.4587,848.4856,398.0103,850.19,388.31" style="stroke:#181818;stroke-width:1.0;"/><text fill="#000000" font-family="sans-serif" font-size="13" lengthAdjust="spacing" textLength="21" x="818" y="450.0283">has</text><text fill="#000000" font-family="sans-serif" font-size="13" lengthAdjust="spacing" textLength="5" x="837.6092" y="395.3844">*</text><text fill="#000000" font-family="sans-serif" font-size="13" lengthAdjust="spacing" textLength="7" x="715.3152" y="488.466">1</text></g><!--link FM to Vehicle--><g id="link_FM_Vehicle"><path codeLine="78" d="M751.29,288 C776.66,288 816.12,288 850.17,288 " fill="none" id="FM-Vehicle" style="stroke:#181818;stroke-width:1.0;"/><polygon fill="#000000" points="778.25,275.6455,769.2049,272.7066,769.2049,278.5844,778.25,275.6455" style="stroke:#000000;stroke-width:1.0;"/><text fill="#000000" font-family="sans-serif" font-size="13" lengthAdjust="spacing" textLength="50" x="782.25" y="281.0283">registers</text><text fill="#000000" font-family="sans-serif" font-size="13" lengthAdjust="spacing" textLength="7" x="758.9237" y="282.8875">1</text><text fill="#000000" font-family="sans-serif" font-size="13" lengthAdjust="spacing" textLength="5" x="837.587" y="284.103">*</text></g><!--link Vehicle to VehicleCheckup--><g id="link_Vehicle_VehicleCheckup"><path codeLine="79" d="M891.91,405.31 C884.43,439.98 876.72,475.78 870.99,502.31 " fill="none" id="Vehicle-VehicleCheckup" style="stroke:#181818;stroke-width:1.0;"/><polygon fill="#000000" points="887.9459,449.5331,892.7257,441.3109,886.9799,440.0717,887.9459,449.5331" style="stroke:#000000;stroke-width:1.0;"/><text fill="#000000" font-family="sans-serif" font-size="13" lengthAdjust="spacing" textLength="50" x="898" y="450.0283">registers</text><text fill="#000000" font-family="sans-serif" font-size="13" lengthAdjust="spacing" textLength="7" x="870.6941" y="427.4006">1</text><text fill="#000000" font-family="sans-serif" font-size="13" lengthAdjust="spacing" textLength="20" x="881.6665" y="491.1838">0..*</text></g><!--link FM to VehicleCheckup--><g id="link_FM_VehicleCheckup"><path codeLine="80" d="M726.69,312.29 C730,357.77 737,454 737,454 C737,454 771.5,478.84 804.26,502.42 " fill="none" id="FM-VehicleCheckup" style="stroke:#181818;stroke-width:1.0;"/><polygon fill="#000000" points="743.8888,449.275,743.1931,439.7899,737.7508,442.0103,743.8888,449.275" style="stroke:#000000;stroke-width:1.0;"/><text fill="#000000" font-family="sans-serif" font-size="13" lengthAdjust="spacing" textLength="50" x="751" y="450.0283">requests</text><text fill="#000000" font-family="sans-serif" font-size="13" lengthAdjust="spacing" textLength="7" x="709.7214" y="333.9347">1</text><text fill="#000000" font-family="sans-serif" font-size="13" lengthAdjust="spacing" textLength="20" x="760.5077" y="491.3113">0..*</text></g><!--reverse link SystemUser to FM--><g id="link_SystemUser_FM"><path codeLine="81" d="M681.92,288 C692.54,288 686.67,288 686.67,288 C686.67,288 692.06,288 698.8,288 " fill="none" id="SystemUser-backto-FM" style="stroke:#181818;stroke-width:1.0;"/><polygon fill="none" points="663.92,288,681.92,294,681.92,282,663.92,288" style="stroke:#181818;stroke-width:1.0;"/></g><!--SRC=[XLHDRzim3BtxLmY-R6jXexaMHO0YHO1qwmuBsfqLcRFLo99BoIcyZ_y-oL5asN4HtqY-n_T8ITPxBXkAj2PCKAtlZK6-Qmric99R_Xl8JV991qojf68LgXg8mHQIeT9GjgSbR4qdW20mGsKfOe2kQA7UkIp9BofqN15SWkaQ88qIdGjYnL1KQ5H4-j1jqbV82rISMIj_4kA_7L9PXAXM1OWG7OxepKF8ECqXe3W49IgjVm8lAnDoh4K4QRxM8ODGScq07wWPg9IzjLnpmvKSvLa5RDysQuIt5YJhakJVP8xL4U772NAw3mlNor4yPzjPvVfP0tgyfFLH36hAZrCt5lYkyBYGfb9swrFD7z0eQrPXvzjav1wHTj_iOAUDQHVqnMjIWl5CFL0_VpclpkM-0nJsSlWvNLUB6aOA3Jdeu8Of8UXE8RNvGT4N3zCXVDvU8I7Eigzg5-LyCXQDFM-ajjURGPnRpNgPcNI-k1sxYakFiJLRYBRYrkJQ7jm6_UhqIac3rar_-jdBp1ekBxxNI4xju-xF6v8lBmbRxkZ0icoPBjBpUpL1BSV7V4kuNtHoQT0yF-DY52Qdlq5wbPAxB2EpRYofejfwNp_rWAo7dwYtuKbhiXmQBkmnMQZ5tkJv5VdWIwVlUDpD2KRe1Ud5VSDPhlrFQEEeqLk_-vkHzTD_]--></g></svg>