<?xml version="1.0" encoding="us-ascii" standalone="no"?><svg xmlns="http://www.w3.org/2000/svg" xmlns:xlink="http://www.w3.org/1999/xlink" contentStyleType="text/css" height="449px" preserveAspectRatio="none" style="width:478px;height:449px;background:#FFFFFF;" version="1.1" viewBox="0 0 478 449" width="478px" zoomAndPan="magnify"><defs/><g><!--class GSM--><g id="elem_GSM"><rect codeLine="13" fill="#F1F1F1" height="36.6211" id="GSM" rx="2.5" ry="2.5" style="stroke:#181818;stroke-width:0.5;" width="37" x="123" y="160"/><text fill="#000000" font-family="sans-serif" font-size="14" lengthAdjust="spacing" textLength="31" x="126" y="180.1074">GSM</text><line style="stroke:#181818;stroke-width:0.5;" x1="124" x2="159" y1="188.6211" y2="188.6211"/></g><!--class SystemUser--><g id="elem_SystemUser"><rect codeLine="17" fill="#F1F1F1" height="111.1055" id="SystemUser" rx="2.5" ry="2.5" style="stroke:#181818;stroke-width:0.5;" width="81" x="7" y="123"/><text fill="#000000" font-family="sans-serif" font-size="14" lengthAdjust="spacing" textLength="75" x="10" y="143.1074">SystemUser</text><line style="stroke:#181818;stroke-width:0.5;" x1="8" x2="87" y1="151.6211" y2="151.6211"/><text fill="#000000" font-family="sans-serif" font-size="14" lengthAdjust="spacing" textLength="35" x="13" y="170.7285">name</text><text fill="#000000" font-family="sans-serif" font-size="14" lengthAdjust="spacing" textLength="33" x="13" y="189.3496">email</text><text fill="#000000" font-family="sans-serif" font-size="14" lengthAdjust="spacing" textLength="60" x="13" y="207.9707">password</text><text fill="#000000" font-family="sans-serif" font-size="14" lengthAdjust="spacing" textLength="40" x="13" y="226.5918">phone</text></g><!--class Team--><g id="elem_Team"><rect codeLine="25" fill="#F1F1F1" height="73.8633" id="Team" rx="2.5" ry="2.5" style="stroke:#181818;stroke-width:0.5;" width="96" x="216.5" y="341"/><text fill="#000000" font-family="sans-serif" font-size="14" lengthAdjust="spacing" textLength="36" x="246.5" y="361.1074">Team</text><line style="stroke:#181818;stroke-width:0.5;" x1="217.5" x2="311.5" y1="369.6211" y2="369.6211"/><text fill="#000000" font-family="sans-serif" font-size="14" lengthAdjust="spacing" textLength="81" x="222.5" y="388.7285">minimumSize</text><text fill="#000000" font-family="sans-serif" font-size="14" lengthAdjust="spacing" textLength="84" x="222.5" y="407.3496">maximumSize</text></g><!--class Agenda--><g id="elem_Agenda"><rect codeLine="31" fill="#F1F1F1" height="36.6211" id="Agenda" rx="2.5" ry="2.5" style="stroke:#181818;stroke-width:0.5;" width="55" x="309" y="7"/><text fill="#000000" font-family="sans-serif" font-size="14" lengthAdjust="spacing" textLength="49" x="312" y="27.1074">Agenda</text><line style="stroke:#181818;stroke-width:0.5;" x1="310" x2="363" y1="35.6211" y2="35.6211"/></g><!--class AgendaEntry--><g id="elem_AgendaEntry"><rect codeLine="34" fill="#F1F1F1" height="92.4844" id="AgendaEntry" rx="2.5" ry="2.5" style="stroke:#181818;stroke-width:0.5;" width="148" x="262.5" y="132.5"/><text fill="#000000" font-family="sans-serif" font-size="14" lengthAdjust="spacing" textLength="82" x="295.5" y="152.6074">AgendaEntry</text><line style="stroke:#181818;stroke-width:0.5;" x1="263.5" x2="409.5" y1="161.1211" y2="161.1211"/><text fill="#000000" font-family="sans-serif" font-size="14" lengthAdjust="spacing" textLength="28" x="268.5" y="180.2285">date</text><text fill="#000000" font-family="sans-serif" font-size="14" lengthAdjust="spacing" textLength="104" x="268.5" y="198.8496">associatedTeam</text><text fill="#000000" font-family="sans-serif" font-size="14" lengthAdjust="spacing" textLength="136" x="268.5" y="217.4707">associatedVehicleList</text></g><!--class ToDoEntry--><g id="elem_ToDoEntry"><rect codeLine="41" fill="#F1F1F1" height="129.7266" id="ToDoEntry" rx="2.5" ry="2.5" style="stroke:#181818;stroke-width:0.5;" width="123" x="348" y="313"/><text fill="#000000" font-family="sans-serif" font-size="14" lengthAdjust="spacing" textLength="68" x="375.5" y="333.1074">ToDoEntry</text><line style="stroke:#181818;stroke-width:0.5;" x1="349" x2="470" y1="341.6211" y2="341.6211"/><text fill="#000000" font-family="sans-serif" font-size="14" lengthAdjust="spacing" textLength="69" x="354" y="360.7285">description</text><text fill="#000000" font-family="sans-serif" font-size="14" lengthAdjust="spacing" textLength="111" x="354" y="379.3496">expectedDuration</text><text fill="#000000" font-family="sans-serif" font-size="14" lengthAdjust="spacing" textLength="98" x="354" y="397.9707">urgencyDegree</text><text fill="#000000" font-family="sans-serif" font-size="14" lengthAdjust="spacing" textLength="72" x="354" y="416.5918">entryStatus</text><text fill="#000000" font-family="sans-serif" font-size="14" lengthAdjust="spacing" textLength="51" x="354" y="435.2129">address</text></g><!--reverse link SystemUser to GSM--><g id="link_SystemUser_GSM"><path codeLine="53" d="M106.26,178.5 C117.77,178.5 111.27,178.5 122.78,178.5 " fill="none" id="SystemUser-backto-GSM" style="stroke:#181818;stroke-width:1.0;"/><polygon fill="none" points="88.26,178.5,106.26,184.5,106.26,172.5,88.26,178.5" style="stroke:#181818;stroke-width:1.0;"/></g><!--link GSM to AgendaEntry--><g id="link_GSM_AgendaEntry"><path codeLine="54" d="M160.2,178.5 C183.65,178.5 225.26,178.5 262.17,178.5 " fill="none" id="GSM-AgendaEntry" style="stroke:#181818;stroke-width:1.0;"/><polygon fill="#000000" points="187.25,166.1455,178.2049,163.2066,178.2049,169.0844,187.25,166.1455" style="stroke:#000000;stroke-width:1.0;"/><text fill="#000000" font-family="sans-serif" font-size="13" lengthAdjust="spacing" textLength="53" x="191.25" y="171.5283">manages</text><text fill="#000000" font-family="sans-serif" font-size="13" lengthAdjust="spacing" textLength="7" x="168.1088" y="172.6195">1</text><text fill="#000000" font-family="sans-serif" font-size="13" lengthAdjust="spacing" textLength="5" x="249.607" y="174.6821">*</text></g><!--link AgendaEntry to Team--><g id="link_AgendaEntry_Team"><path codeLine="55" d="M316.97,224.86 C311.75,237.46 306.24,251.19 301.5,264 C292.08,289.46 282.57,318.58 275.55,340.88 " fill="none" id="AgendaEntry-Team" style="stroke:#181818;stroke-width:1.0;"/><polygon fill="#000000" points="304.8189,278.3544,310.6279,270.8241,305.0922,268.8478,304.8189,278.3544" style="stroke:#000000;stroke-width:1.0;"/><text fill="#000000" font-family="sans-serif" font-size="13" lengthAdjust="spacing" textLength="67" x="315.5" y="279.0283">assigned to</text><text fill="#000000" font-family="sans-serif" font-size="13" lengthAdjust="spacing" textLength="7" x="306.5875" y="246.9317">1</text><text fill="#000000" font-family="sans-serif" font-size="13" lengthAdjust="spacing" textLength="7" x="261.1823" y="329.8204">1</text></g><!--link Agenda to AgendaEntry--><g id="link_Agenda_AgendaEntry"><path codeLine="56" d="M336.5,44.12 C336.5,65.59 336.5,102.67 336.5,132.29 " fill="none" id="Agenda-AgendaEntry" style="stroke:#181818;stroke-width:1.0;"/><polygon fill="#000000" points="341.5,88.6455,344.4389,79.6004,338.5611,79.6004,341.5,88.6455" style="stroke:#000000;stroke-width:1.0;"/><text fill="#000000" font-family="sans-serif" font-size="13" lengthAdjust="spacing" textLength="21" x="350.5" y="89.0283">has</text><text fill="#000000" font-family="sans-serif" font-size="13" lengthAdjust="spacing" textLength="7" x="328.5594" y="65.5268">1</text><text fill="#000000" font-family="sans-serif" font-size="13" lengthAdjust="spacing" textLength="5" x="331.1328" y="121.2686">*</text></g><!--link AgendaEntry to ToDoEntry--><g id="link_AgendaEntry_ToDoEntry"><path codeLine="57" d="M367.89,224.93 C375.23,237.18 382.39,250.73 387.5,264 C393.43,279.39 394.3129,278.935 397.5429,295.195 " fill="none" id="AgendaEntry-to-ToDoEntry" style="stroke:#181818;stroke-width:1.0;"/><polygon fill="none" points="401.05,312.85,403.4279,294.0259,391.6579,296.364,401.05,312.85" style="stroke:#181818;stroke-width:1.0;"/></g><!--SRC=[PL71QiCm3BtxAqIEWy9wBQDGw1Y3xPHkTytM4jFO3hP2cxNzzodkbcIT820zFJz9BsblVOiH7RZWWwvZS0GSEr9fxBIezrXHoNr344ap-ggP4rAD9Xoih-0JcqHAOchg1bFQC4VxqJ4zw-1B-qLmhrHj3O6sKOjOpXrn7KoIv_aHF9MlS5ANiIxxnEJU4aM1GSAZevoGGzlah1NY8KHpBUhWPPtBhy2EPA6JSjPRrxbX3-NmEEOJSLEHDtWTFaSUFSV-PxX1lWwNTj1MAZFetq3lL5ivyCKcdbso2zimryfwb7IqBTlWHuoEhVXDPjj5_DFeekoZ-orLaMYY3v8b8tTfnD2OI2dbuH8p3n_EYy5Y9L-nB601nLqnltC53hty-0HhDOE5kn3k4g38Xgw6QstboG27aGfPyfychA366q6XdTUJ9RBaDm00]--></g></svg>