<?xml version="1.0" encoding="us-ascii" standalone="no"?><svg xmlns="http://www.w3.org/2000/svg" xmlns:xlink="http://www.w3.org/1999/xlink" contentStyleType="text/css" height="953px" preserveAspectRatio="none" style="width:1011px;height:953px;background:#FFFFFF;" version="1.1" viewBox="0 0 1011 953" width="1011px" zoomAndPan="magnify"><defs/><g><rect fill="#FFFFFF" height="768.1504" style="stroke:#181818;stroke-width:1.0;" width="10" x="20" y="93.6211"/><rect fill="#FFFFFF" height="74.9121" style="stroke:#181818;stroke-width:1.0;" width="10" x="247" y="116.9121"/><rect fill="#FFFFFF" height="31.291" style="stroke:#181818;stroke-width:1.0;" width="10" x="247" y="223.1152"/><rect fill="#FFFFFF" height="567.0742" style="stroke:#181818;stroke-width:1.0;" width="10" x="247" y="285.6973"/><rect fill="#FFFFFF" height="535.7832" style="stroke:#181818;stroke-width:1.0;" width="10" x="409" y="316.9883"/><rect fill="#FFFFFF" height="31.291" style="stroke:#181818;stroke-width:1.0;" width="10" x="545" y="348.2793"/><rect fill="#FFFFFF" height="31.291" style="stroke:#181818;stroke-width:1.0;" width="10" x="652" y="410.8613"/><rect fill="#FFFFFF" height="316.7461" style="stroke:#181818;stroke-width:1.0;" width="10" x="763" y="473.4434"/><rect fill="#FFFFFF" height="28" style="stroke:#181818;stroke-width:1.0;" width="10" x="768" y="512.7344"/><rect fill="#FFFFFF" height="28" style="stroke:#181818;stroke-width:1.0;" width="10" x="768" y="587.0254"/><rect fill="#FFFFFF" height="28" style="stroke:#181818;stroke-width:1.0;" width="10" x="768" y="723.8984"/><rect fill="#FFFFFF" height="31.291" style="stroke:#181818;stroke-width:1.0;" width="10" x="971" y="653.3164"/><line style="stroke:#181818;stroke-width:0.5;stroke-dasharray:5.0,5.0;" x1="25" x2="25" y1="83.6211" y2="870.7715"/><line style="stroke:#181818;stroke-width:0.5;stroke-dasharray:5.0,5.0;" x1="251.5" x2="251.5" y1="83.6211" y2="870.7715"/><line style="stroke:#181818;stroke-width:0.5;stroke-dasharray:5.0,5.0;" x1="413.5" x2="413.5" y1="156.7227" y2="870.7715"/><line style="stroke:#181818;stroke-width:0.5;stroke-dasharray:5.0,5.0;" x1="549.5" x2="549.5" y1="83.6211" y2="870.7715"/><line style="stroke:#181818;stroke-width:0.5;stroke-dasharray:5.0,5.0;" x1="656.5" x2="656.5" y1="83.6211" y2="870.7715"/><line style="stroke:#181818;stroke-width:0.5;stroke-dasharray:5.0,5.0;" x1="767.5" x2="767.5" y1="83.6211" y2="870.7715"/><line style="stroke:#181818;stroke-width:0.5;stroke-dasharray:5.0,5.0;" x1="975.5" x2="975.5" y1="83.6211" y2="870.7715"/><text fill="#000000" font-family="sans-serif" font-size="14" lengthAdjust="spacing" textLength="30" x="9" y="80.1074">HRM</text><ellipse cx="25" cy="13.5" fill="#E3E3E3" rx="8" ry="8" style="stroke:#181818;stroke-width:0.5;"/><path d="M25,21.5 L25,48.5 M12,29.5 L38,29.5 M25,48.5 L12,63.5 M25,48.5 L38,63.5 " fill="none" style="stroke:#181818;stroke-width:0.5;"/><text fill="#000000" font-family="sans-serif" font-size="14" lengthAdjust="spacing" textLength="30" x="9" y="884.8789">HRM</text><ellipse cx="25" cy="896.8926" fill="#E3E3E3" rx="8" ry="8" style="stroke:#181818;stroke-width:0.5;"/><path d="M25,904.8926 L25,931.8926 M12,912.8926 L38,912.8926 M25,931.8926 L12,946.8926 M25,931.8926 L38,946.8926 " fill="none" style="stroke:#181818;stroke-width:0.5;"/><rect fill="#E3E3E3" height="32.6211" rx="2.5" ry="2.5" style="stroke:#181818;stroke-width:0.5;" width="105" x="199.5" y="50"/><text fill="#000000" font-family="sans-serif" font-size="14" lengthAdjust="spacing" textLength="91" x="206.5" y="72.1074">:RegisterJobUI</text><rect fill="#E3E3E3" height="32.6211" rx="2.5" ry="2.5" style="stroke:#181818;stroke-width:0.5;" width="105" x="199.5" y="869.7715"/><text fill="#000000" font-family="sans-serif" font-size="14" lengthAdjust="spacing" textLength="91" x="206.5" y="891.8789">:RegisterJobUI</text><rect fill="#E3E3E3" height="32.6211" rx="2.5" ry="2.5" style="stroke:#181818;stroke-width:0.5;" width="155" x="336.5" y="869.7715"/><text fill="#000000" font-family="sans-serif" font-size="14" lengthAdjust="spacing" textLength="141" x="343.5" y="891.8789">:RegisterJobController</text><rect fill="#E3E3E3" height="32.6211" rx="2.5" ry="2.5" style="stroke:#181818;stroke-width:0.5;" width="97" x="501.5" y="50"/><text fill="#000000" font-family="sans-serif" font-size="14" lengthAdjust="spacing" textLength="83" x="508.5" y="72.1074">:Repositories</text><rect fill="#E3E3E3" height="32.6211" rx="2.5" ry="2.5" style="stroke:#181818;stroke-width:0.5;" width="97" x="501.5" y="869.7715"/><text fill="#000000" font-family="sans-serif" font-size="14" lengthAdjust="spacing" textLength="83" x="508.5" y="891.8789">:Repositories</text><rect fill="#E3E3E3" height="51.2422" rx="2.5" ry="2.5" style="stroke:#181818;stroke-width:0.5;" width="97" x="608.5" y="31.3789"/><text fill="#000000" font-family="sans-serif" font-size="14" lengthAdjust="spacing" textLength="74" x="620" y="53.4863">repositories</text><text fill="#000000" font-family="sans-serif" font-size="14" lengthAdjust="spacing" textLength="83" x="615.5" y="72.1074">:Repositories</text><rect fill="#E3E3E3" height="51.2422" rx="2.5" ry="2.5" style="stroke:#181818;stroke-width:0.5;" width="97" x="608.5" y="869.7715"/><text fill="#000000" font-family="sans-serif" font-size="14" lengthAdjust="spacing" textLength="74" x="620" y="891.8789">repositories</text><text fill="#000000" font-family="sans-serif" font-size="14" lengthAdjust="spacing" textLength="83" x="615.5" y="910.5">:Repositories</text><rect fill="#E3E3E3" height="51.2422" rx="2.5" ry="2.5" style="stroke:#181818;stroke-width:0.5;" width="105" x="715.5" y="31.3789"/><text fill="#000000" font-family="sans-serif" font-size="14" lengthAdjust="spacing" textLength="91" x="722.5" y="53.4863">jobRepository:</text><text fill="#000000" font-family="sans-serif" font-size="14" lengthAdjust="spacing" textLength="90" x="723" y="72.1074">JobRepository</text><rect fill="#E3E3E3" height="51.2422" rx="2.5" ry="2.5" style="stroke:#181818;stroke-width:0.5;" width="105" x="715.5" y="869.7715"/><text fill="#000000" font-family="sans-serif" font-size="14" lengthAdjust="spacing" textLength="91" x="722.5" y="891.8789">jobRepository:</text><text fill="#000000" font-family="sans-serif" font-size="14" lengthAdjust="spacing" textLength="90" x="723" y="910.5">JobRepository</text><rect fill="#E3E3E3" height="32.6211" rx="2.5" ry="2.5" style="stroke:#181818;stroke-width:0.5;" width="59" x="946.5" y="50"/><text fill="#000000" font-family="sans-serif" font-size="14" lengthAdjust="spacing" textLength="45" x="953.5" y="72.1074">job:Job</text><rect fill="#E3E3E3" height="32.6211" rx="2.5" ry="2.5" style="stroke:#181818;stroke-width:0.5;" width="59" x="946.5" y="869.7715"/><text fill="#000000" font-family="sans-serif" font-size="14" lengthAdjust="spacing" textLength="45" x="953.5" y="891.8789">job:Job</text><rect fill="#FFFFFF" height="768.1504" style="stroke:#181818;stroke-width:1.0;" width="10" x="20" y="93.6211"/><rect fill="#FFFFFF" height="74.9121" style="stroke:#181818;stroke-width:1.0;" width="10" x="247" y="116.9121"/><rect fill="#FFFFFF" height="31.291" style="stroke:#181818;stroke-width:1.0;" width="10" x="247" y="223.1152"/><rect fill="#FFFFFF" height="567.0742" style="stroke:#181818;stroke-width:1.0;" width="10" x="247" y="285.6973"/><rect fill="#FFFFFF" height="535.7832" style="stroke:#181818;stroke-width:1.0;" width="10" x="409" y="316.9883"/><rect fill="#FFFFFF" height="31.291" style="stroke:#181818;stroke-width:1.0;" width="10" x="545" y="348.2793"/><rect fill="#FFFFFF" height="31.291" style="stroke:#181818;stroke-width:1.0;" width="10" x="652" y="410.8613"/><rect fill="#FFFFFF" height="316.7461" style="stroke:#181818;stroke-width:1.0;" width="10" x="763" y="473.4434"/><rect fill="#FFFFFF" height="28" style="stroke:#181818;stroke-width:1.0;" width="10" x="768" y="512.7344"/><rect fill="#FFFFFF" height="28" style="stroke:#181818;stroke-width:1.0;" width="10" x="768" y="587.0254"/><rect fill="#FFFFFF" height="28" style="stroke:#181818;stroke-width:1.0;" width="10" x="768" y="723.8984"/><rect fill="#FFFFFF" height="31.291" style="stroke:#181818;stroke-width:1.0;" width="10" x="971" y="653.3164"/><polygon fill="#181818" points="235,112.9121,245,116.9121,235,120.9121,239,116.9121" style="stroke:#181818;stroke-width:1.0;"/><line style="stroke:#181818;stroke-width:1.0;" x1="30" x2="241" y1="116.9121" y2="116.9121"/><text fill="#000000" font-family="sans-serif" font-size="13" font-weight="bold" lengthAdjust="spacing" textLength="7" x="37" y="111.6494">1</text><text fill="#000000" font-family="sans-serif" font-size="13" lengthAdjust="spacing" textLength="149" x="48" y="111.6494">asks to register a new job</text><polygon fill="#181818" points="324.5,144.2031,334.5,148.2031,324.5,152.2031,328.5,148.2031" style="stroke:#181818;stroke-width:1.0;"/><line style="stroke:#181818;stroke-width:1.0;" x1="257" x2="330.5" y1="148.2031" y2="148.2031"/><text fill="#000000" font-family="sans-serif" font-size="13" font-weight="bold" lengthAdjust="spacing" textLength="7" x="264" y="142.9404">2</text><text fill="#000000" font-family="sans-serif" font-size="13" lengthAdjust="spacing" textLength="36" x="275" y="142.9404">create</text><rect fill="#E3E3E3" height="32.6211" rx="2.5" ry="2.5" style="stroke:#181818;stroke-width:0.5;" width="155" x="336.5" y="124.9121"/><text fill="#000000" font-family="sans-serif" font-size="14" lengthAdjust="spacing" textLength="141" x="343.5" y="147.0195">:RegisterJobController</text><polygon fill="#181818" points="41,187.8242,31,191.8242,41,195.8242,37,191.8242" style="stroke:#181818;stroke-width:1.0;"/><line style="stroke:#181818;stroke-width:1.0;stroke-dasharray:2.0,2.0;" x1="35" x2="251" y1="191.8242" y2="191.8242"/><text fill="#000000" font-family="sans-serif" font-size="13" font-weight="bold" lengthAdjust="spacing" textLength="7" x="47" y="186.5615">3</text><text fill="#000000" font-family="sans-serif" font-size="13" lengthAdjust="spacing" textLength="79" x="58" y="186.5615">requests data</text><polygon fill="#181818" points="235,219.1152,245,223.1152,235,227.1152,239,223.1152" style="stroke:#181818;stroke-width:1.0;"/><line style="stroke:#181818;stroke-width:1.0;" x1="30" x2="241" y1="223.1152" y2="223.1152"/><text fill="#000000" font-family="sans-serif" font-size="13" font-weight="bold" lengthAdjust="spacing" textLength="7" x="37" y="217.8525">4</text><text fill="#000000" font-family="sans-serif" font-size="13" lengthAdjust="spacing" textLength="187" x="48" y="217.8525">types requested data (job name)</text><polygon fill="#181818" points="41,250.4063,31,254.4063,41,258.4063,37,254.4063" style="stroke:#181818;stroke-width:1.0;"/><line style="stroke:#181818;stroke-width:1.0;stroke-dasharray:2.0,2.0;" x1="35" x2="251" y1="254.4063" y2="254.4063"/><text fill="#000000" font-family="sans-serif" font-size="13" font-weight="bold" lengthAdjust="spacing" textLength="7" x="47" y="249.1436">5</text><text fill="#000000" font-family="sans-serif" font-size="13" lengthAdjust="spacing" textLength="124" x="58" y="249.1436">requests confirmation</text><polygon fill="#181818" points="235,281.6973,245,285.6973,235,289.6973,239,285.6973" style="stroke:#181818;stroke-width:1.0;"/><line style="stroke:#181818;stroke-width:1.0;" x1="30" x2="241" y1="285.6973" y2="285.6973"/><text fill="#000000" font-family="sans-serif" font-size="13" font-weight="bold" lengthAdjust="spacing" textLength="7" x="37" y="280.4346">6</text><text fill="#000000" font-family="sans-serif" font-size="13" lengthAdjust="spacing" textLength="49" x="48" y="280.4346">confirms</text><polygon fill="#181818" points="397,312.9883,407,316.9883,397,320.9883,401,316.9883" style="stroke:#181818;stroke-width:1.0;"/><line style="stroke:#181818;stroke-width:1.0;" x1="257" x2="403" y1="316.9883" y2="316.9883"/><text fill="#000000" font-family="sans-serif" font-size="13" font-weight="bold" lengthAdjust="spacing" textLength="7" x="264" y="311.7256">7</text><text fill="#000000" font-family="sans-serif" font-size="13" lengthAdjust="spacing" textLength="122" x="275" y="311.7256">registerJob(jobName)</text><polygon fill="#181818" points="533,344.2793,543,348.2793,533,352.2793,537,348.2793" style="stroke:#181818;stroke-width:1.0;"/><line style="stroke:#181818;stroke-width:1.0;" x1="419" x2="539" y1="348.2793" y2="348.2793"/><text fill="#000000" font-family="sans-serif" font-size="13" font-weight="bold" lengthAdjust="spacing" textLength="7" x="426" y="343.0166">8</text><text fill="#000000" font-family="sans-serif" font-size="13" lengthAdjust="spacing" textLength="75" x="437" y="343.0166">getInstance()</text><polygon fill="#181818" points="430,375.5703,420,379.5703,430,383.5703,426,379.5703" style="stroke:#181818;stroke-width:1.0;"/><line style="stroke:#181818;stroke-width:1.0;stroke-dasharray:2.0,2.0;" x1="424" x2="549" y1="379.5703" y2="379.5703"/><text fill="#000000" font-family="sans-serif" font-size="13" font-weight="bold" lengthAdjust="spacing" textLength="7" x="436" y="374.3076">9</text><text fill="#000000" font-family="sans-serif" font-size="13" lengthAdjust="spacing" textLength="67" x="447" y="374.3076">repositories</text><polygon fill="#181818" points="640,406.8613,650,410.8613,640,414.8613,644,410.8613" style="stroke:#181818;stroke-width:1.0;"/><line style="stroke:#181818;stroke-width:1.0;" x1="419" x2="646" y1="410.8613" y2="410.8613"/><text fill="#000000" font-family="sans-serif" font-size="13" font-weight="bold" lengthAdjust="spacing" textLength="14" x="426" y="405.5986">10</text><text fill="#000000" font-family="sans-serif" font-size="13" lengthAdjust="spacing" textLength="108" x="444" y="405.5986">getJobRepository()</text><polygon fill="#181818" points="430,438.1523,420,442.1523,430,446.1523,426,442.1523" style="stroke:#181818;stroke-width:1.0;"/><line style="stroke:#181818;stroke-width:1.0;stroke-dasharray:2.0,2.0;" x1="424" x2="656" y1="442.1523" y2="442.1523"/><text fill="#000000" font-family="sans-serif" font-size="13" font-weight="bold" lengthAdjust="spacing" textLength="14" x="436" y="436.8896">11</text><text fill="#000000" font-family="sans-serif" font-size="13" lengthAdjust="spacing" textLength="82" x="454" y="436.8896">JobRepository</text><polygon fill="#181818" points="751,469.4434,761,473.4434,751,477.4434,755,473.4434" style="stroke:#181818;stroke-width:1.0;"/><line style="stroke:#181818;stroke-width:1.0;" x1="419" x2="757" y1="473.4434" y2="473.4434"/><text fill="#000000" font-family="sans-serif" font-size="13" font-weight="bold" lengthAdjust="spacing" textLength="14" x="426" y="468.1807">12</text><text fill="#000000" font-family="sans-serif" font-size="13" lengthAdjust="spacing" textLength="122" x="444" y="468.1807">registerJob(jobName)</text><line style="stroke:#181818;stroke-width:1.0;" x1="778" x2="820" y1="504.7344" y2="504.7344"/><line style="stroke:#181818;stroke-width:1.0;" x1="820" x2="820" y1="504.7344" y2="517.7344"/><line style="stroke:#181818;stroke-width:1.0;" x1="779" x2="820" y1="517.7344" y2="517.7344"/><polygon fill="#181818" points="789,513.7344,779,517.7344,789,521.7344,785,517.7344" style="stroke:#181818;stroke-width:1.0;"/><text fill="#000000" font-family="sans-serif" font-size="13" font-weight="bold" lengthAdjust="spacing" textLength="14" x="785" y="499.4717">13</text><text fill="#000000" font-family="sans-serif" font-size="13" lengthAdjust="spacing" textLength="121" x="803" y="499.4717">jobIsValid(skillName)</text><line style="stroke:#181818;stroke-width:1.0;" x1="778" x2="820" y1="579.0254" y2="579.0254"/><line style="stroke:#181818;stroke-width:1.0;" x1="820" x2="820" y1="579.0254" y2="592.0254"/><line style="stroke:#181818;stroke-width:1.0;" x1="779" x2="820" y1="592.0254" y2="592.0254"/><polygon fill="#181818" points="789,588.0254,779,592.0254,789,596.0254,785,592.0254" style="stroke:#181818;stroke-width:1.0;"/><text fill="#000000" font-family="sans-serif" font-size="13" font-weight="bold" lengthAdjust="spacing" textLength="14" x="785" y="573.7627">14</text><text fill="#000000" font-family="sans-serif" font-size="13" lengthAdjust="spacing" textLength="166" x="803" y="573.7627">jobNameIsUnique(skillName)</text><polygon fill="#181818" points="959,649.3164,969,653.3164,959,657.3164,963,653.3164" style="stroke:#181818;stroke-width:1.0;"/><line style="stroke:#181818;stroke-width:1.0;" x1="773" x2="965" y1="653.3164" y2="653.3164"/><text fill="#000000" font-family="sans-serif" font-size="13" font-weight="bold" lengthAdjust="spacing" textLength="14" x="780" y="648.0537">15</text><text fill="#000000" font-family="sans-serif" font-size="13" lengthAdjust="spacing" textLength="79" x="798" y="648.0537">Job(jobName)</text><polygon fill="#181818" points="784,680.6074,774,684.6074,784,688.6074,780,684.6074" style="stroke:#181818;stroke-width:1.0;"/><line style="stroke:#181818;stroke-width:1.0;stroke-dasharray:2.0,2.0;" x1="778" x2="975" y1="684.6074" y2="684.6074"/><text fill="#000000" font-family="sans-serif" font-size="13" font-weight="bold" lengthAdjust="spacing" textLength="14" x="790" y="679.3447">16</text><text fill="#000000" font-family="sans-serif" font-size="13" lengthAdjust="spacing" textLength="23" x="808" y="679.3447">skill</text><line style="stroke:#181818;stroke-width:1.0;" x1="778" x2="820" y1="715.8984" y2="715.8984"/><line style="stroke:#181818;stroke-width:1.0;" x1="820" x2="820" y1="715.8984" y2="728.8984"/><line style="stroke:#181818;stroke-width:1.0;" x1="779" x2="820" y1="728.8984" y2="728.8984"/><polygon fill="#181818" points="789,724.8984,779,728.8984,789,732.8984,785,728.8984" style="stroke:#181818;stroke-width:1.0;"/><text fill="#000000" font-family="sans-serif" font-size="13" font-weight="bold" lengthAdjust="spacing" textLength="14" x="785" y="710.6357">17</text><text fill="#000000" font-family="sans-serif" font-size="13" lengthAdjust="spacing" textLength="99" x="803" y="710.6357">registerSkill(skill)</text><polygon fill="#181818" points="430,786.1895,420,790.1895,430,794.1895,426,790.1895" style="stroke:#181818;stroke-width:1.0;"/><line style="stroke:#181818;stroke-width:1.0;stroke-dasharray:2.0,2.0;" x1="424" x2="767" y1="790.1895" y2="790.1895"/><text fill="#000000" font-family="sans-serif" font-size="13" font-weight="bold" lengthAdjust="spacing" textLength="14" x="436" y="784.9268">18</text><text fill="#000000" font-family="sans-serif" font-size="13" lengthAdjust="spacing" textLength="100" x="454" y="784.9268">status of creation</text><polygon fill="#181818" points="268,817.4805,258,821.4805,268,825.4805,264,821.4805" style="stroke:#181818;stroke-width:1.0;"/><line style="stroke:#181818;stroke-width:1.0;stroke-dasharray:2.0,2.0;" x1="262" x2="408" y1="821.4805" y2="821.4805"/><text fill="#000000" font-family="sans-serif" font-size="13" font-weight="bold" lengthAdjust="spacing" textLength="14" x="274" y="816.2178">19</text><text fill="#000000" font-family="sans-serif" font-size="13" lengthAdjust="spacing" textLength="100" x="292" y="816.2178">status of creation</text><polygon fill="#181818" points="41,848.7715,31,852.7715,41,856.7715,37,852.7715" style="stroke:#181818;stroke-width:1.0;"/><line style="stroke:#181818;stroke-width:1.0;stroke-dasharray:2.0,2.0;" x1="35" x2="251" y1="852.7715" y2="852.7715"/><text fill="#000000" font-family="sans-serif" font-size="13" font-weight="bold" lengthAdjust="spacing" textLength="14" x="47" y="847.5088">20</text><text fill="#000000" font-family="sans-serif" font-size="13" lengthAdjust="spacing" textLength="134" x="65" y="847.5088">shows operation status</text><!--SRC=[nLLDSzem4BthL-nm2Sc4F-3fT2QJ7a8cwNGWzCH5o6jGiILNaalvzrt97zZOWDjBTRAjtVVUFcdNTYzLpWtF8DDAYvtH6O8p1JBRxEHSxFaMb-wO8XWKZgjjsWwmEnxhWrHRI7XgaJ5UEAsAR8E6iRkTZ14IhTr6_sPSE6rW0Y-Bzmbm2qzVtXc1E2bapfM3IRJ0hRGEpQlUhEOXPZM_7FAibJCwJT64qEUFnLilEDTM4gj46sAQ3yUbz8MGr6wAQMMiLH_WszlJHpVZXzwSKAErUcs_XvpEbrvoHDiXZ9wPzqZ-uWw3EOn1jUWDPf_93OWeT6_1QJgDqWdWeF1GfZS93GuP2Ar528JZhNfuY8H12c5tvm4KuGaZelXPe7KMOkuuJ0qcQ509V8GOhJ0oTrAhHm2f4cqodi9QTNSSYfsIWdOwd-F2yF99QElkEmhlIbNbSJ8sJbiJ5cExSdRkdJlcQEjKZAkwo3fGFCDII0_WChNGAf5KkA-5ZQ2lukrrdl9y0azprxt6hut4Jlg0KNu53C8QkF84lKKtLvQwMU3qlfVRO0_rIo_Qho6MMLM9B-JKHhtqbcUZwEh2V2kMbNGQx5eveNi7zGUmsSdwRizUaJmCMMlimDmwqPxSheX1tNvrIGPOYMbkl_DKnbCQt6awJ3jIngsqbZT_bpYc3AzyRbTAKWF-prekPaxEnZ-LuQTBk52NJxmdqm_piHIVPhEA8nZ2HXHp3VxcCTHtUEdPoaCOKT4uuoyRpaPeFRKlJJPNMD09XBz9FPx_-PwM_LoFyH7elN-6tUa3fUHO_lag37R3XBE_Tskdclf_0000]--></g></svg>