<?xml version="1.0" encoding="us-ascii" standalone="no"?><svg xmlns="http://www.w3.org/2000/svg" xmlns:xlink="http://www.w3.org/1999/xlink" contentStyleType="text/css" height="679.7px" preserveAspectRatio="none" style="width:999px;height:679px;background:#FFFFFF;" version="1.1" viewBox="0 0 999 679" width="999.6px" zoomAndPan="magnify"><defs/><g><rect fill="#FFFFFF" height="543.8822" style="stroke:#181818;stroke-width:0.6999999999999998;" width="7" x="12.25" y="65.5348"/><rect fill="#FFFFFF" height="227.6682" style="stroke:#181818;stroke-width:0.6999999999999998;" width="7" x="241.85" y="81.8385"/><rect fill="#FFFFFF" height="21.9037" style="stroke:#181818;stroke-width:0.6999999999999998;" width="7" x="241.85" y="331.4104"/><rect fill="#FFFFFF" height="234.1992" style="stroke:#181818;stroke-width:0.6999999999999998;" width="7" x="241.85" y="375.2178"/><rect fill="#FFFFFF" height="176.8607" style="stroke:#181818;stroke-width:0.6999999999999998;" width="7" x="474.25" y="110.7422"/><rect fill="#FFFFFF" height="190.3918" style="stroke:#181818;stroke-width:0.6999999999999998;" width="7" x="474.25" y="397.1215"/><rect fill="#FFFFFF" height="21.9037" style="stroke:#181818;stroke-width:0.6999999999999998;" width="7" x="596.05" y="134.277"/><rect fill="#FFFFFF" height="21.9037" style="stroke:#181818;stroke-width:0.6999999999999998;" width="7" x="670.95" y="178.0844"/><rect fill="#FFFFFF" height="21.9037" style="stroke:#181818;stroke-width:0.6999999999999998;" width="7" x="757.4" y="243.7955"/><rect fill="#FFFFFF" height="146.5844" style="stroke:#181818;stroke-width:0.6999999999999998;" width="7" x="757.4" y="419.0252"/><rect fill="#FFFFFF" height="21" style="stroke:#181818;stroke-width:0.6999999999999998;" width="7" x="880.6" y="514.554"/><rect fill="#FFFFFF" height="36.5695" style="stroke:#181818;stroke-width:0.6999999999999998;" width="7" x="950.6" y="447.9289"/><line style="stroke:#181818;stroke-width:0.3499999999999999;stroke-dasharray:5.0,5.0;" x1="15.4" x2="15.4" y1="58.5348" y2="622.017"/><line style="stroke:#181818;stroke-width:0.3499999999999999;stroke-dasharray:5.0,5.0;" x1="245" x2="245" y1="58.5348" y2="622.017"/><line style="stroke:#181818;stroke-width:0.3499999999999999;stroke-dasharray:5.0,5.0;" x1="477.4" x2="477.4" y1="109.7059" y2="622.017"/><line style="stroke:#181818;stroke-width:0.3499999999999999;stroke-dasharray:5.0,5.0;" x1="599.2" x2="599.2" y1="58.5348" y2="622.017"/><line style="stroke:#181818;stroke-width:0.3499999999999999;stroke-dasharray:5.0,5.0;" x1="674.1" x2="674.1" y1="58.5348" y2="622.017"/><line style="stroke:#181818;stroke-width:0.3499999999999999;stroke-dasharray:5.0,5.0;" x1="760.9" x2="760.9" y1="58.5348" y2="622.017"/><line style="stroke:#181818;stroke-width:0.3499999999999999;stroke-dasharray:5.0,5.0;" x1="884.1" x2="884.1" y1="58.5348" y2="622.017"/><line style="stroke:#181818;stroke-width:0.3499999999999999;stroke-dasharray:5.0,5.0;" x1="954.1" x2="954.1" y1="453.41" y2="622.017"/><text fill="#000000" font-family="sans-serif" font-size="9.8" lengthAdjust="spacing" textLength="20.3" x="3.5" y="56.0752">VFM</text><ellipse cx="15.75" cy="9.45" fill="#E3E3E3" rx="5.6" ry="5.6" style="stroke:#181818;stroke-width:0.3499999999999999;"/><path d="M15.75,15.05 L15.75,33.95 M6.65,20.65 L24.85,20.65 M15.75,33.95 L6.65,44.45 M15.75,33.95 L24.85,44.45 " fill="none" style="stroke:#181818;stroke-width:0.3499999999999999;"/><text fill="#000000" font-family="sans-serif" font-size="9.8" lengthAdjust="spacing" textLength="20.3" x="3.5" y="631.8922">VFM</text><ellipse cx="15.75" cy="640.3018" fill="#E3E3E3" rx="5.6" ry="5.6" style="stroke:#181818;stroke-width:0.3499999999999999;"/><path d="M15.75,645.9018 L15.75,664.8018 M6.65,651.5018 L24.85,651.5018 M15.75,664.8018 L6.65,675.3018 M15.75,664.8018 L24.85,675.3018 " fill="none" style="stroke:#181818;stroke-width:0.3499999999999999;"/><rect fill="#E3E3E3" height="22.8348" rx="1.75" ry="1.75" style="stroke:#181818;stroke-width:0.3499999999999999;" width="129.5" x="180.6" y="35"/><text fill="#000000" font-family="sans-serif" font-size="9.8" lengthAdjust="spacing" textLength="119.7" x="185.5" y="50.4752">:RegisterVehicleCheckupUI</text><rect fill="#E3E3E3" height="22.8348" rx="1.75" ry="1.75" style="stroke:#181818;stroke-width:0.3499999999999999;" width="129.5" x="180.6" y="621.317"/><text fill="#000000" font-family="sans-serif" font-size="9.8" lengthAdjust="spacing" textLength="119.7" x="185.5" y="636.7922">:RegisterVehicleCheckupUI</text><rect fill="#E3E3E3" height="22.8348" rx="1.75" ry="1.75" style="stroke:#181818;stroke-width:0.3499999999999999;" width="161.7" x="396.9" y="621.317"/><text fill="#000000" font-family="sans-serif" font-size="9.8" lengthAdjust="spacing" textLength="151.9" x="401.8" y="636.7922">RegisterVehicleCheckupController</text><rect fill="#E3E3E3" height="22.8348" rx="1.75" ry="1.75" style="stroke:#181818;stroke-width:0.3499999999999999;" width="67.9" x="565.6" y="35"/><text fill="#000000" font-family="sans-serif" font-size="9.8" lengthAdjust="spacing" textLength="58.1" x="570.5" y="50.4752">:Repositories</text><rect fill="#E3E3E3" height="22.8348" rx="1.75" ry="1.75" style="stroke:#181818;stroke-width:0.3499999999999999;" width="67.9" x="565.6" y="621.317"/><text fill="#000000" font-family="sans-serif" font-size="9.8" lengthAdjust="spacing" textLength="58.1" x="570.5" y="636.7922">:Repositories</text><rect fill="#E3E3E3" height="35.8695" rx="1.75" ry="1.75" style="stroke:#181818;stroke-width:0.3499999999999999;" width="67.9" x="640.5" y="21.9652"/><text fill="#000000" font-family="sans-serif" font-size="9.8" lengthAdjust="spacing" textLength="51.8" x="648.55" y="37.4404">repositories</text><text fill="#000000" font-family="sans-serif" font-size="9.8" lengthAdjust="spacing" textLength="58.1" x="645.4" y="50.4752">:Repositories</text><rect fill="#E3E3E3" height="35.8695" rx="1.75" ry="1.75" style="stroke:#181818;stroke-width:0.3499999999999999;" width="67.9" x="640.5" y="621.317"/><text fill="#000000" font-family="sans-serif" font-size="9.8" lengthAdjust="spacing" textLength="51.8" x="648.55" y="636.7922">repositories</text><text fill="#000000" font-family="sans-serif" font-size="9.8" lengthAdjust="spacing" textLength="58.1" x="645.4" y="649.827">:Repositories</text><rect fill="#E3E3E3" height="35.8695" rx="1.75" ry="1.75" style="stroke:#181818;stroke-width:0.3499999999999999;" width="91" x="715.4" y="21.9652"/><text fill="#000000" font-family="sans-serif" font-size="9.8" lengthAdjust="spacing" textLength="81.2" x="720.3" y="37.4404">vehicleRepository:</text><text fill="#000000" font-family="sans-serif" font-size="9.8" lengthAdjust="spacing" textLength="79.8" x="721" y="50.4752">VehicleRepository</text><rect fill="#E3E3E3" height="35.8695" rx="1.75" ry="1.75" style="stroke:#181818;stroke-width:0.3499999999999999;" width="91" x="715.4" y="621.317"/><text fill="#000000" font-family="sans-serif" font-size="9.8" lengthAdjust="spacing" textLength="81.2" x="720.3" y="636.7922">vehicleRepository:</text><text fill="#000000" font-family="sans-serif" font-size="9.8" lengthAdjust="spacing" textLength="79.8" x="721" y="649.827">VehicleRepository</text><rect fill="#E3E3E3" height="35.8695" rx="1.75" ry="1.75" style="stroke:#181818;stroke-width:0.3499999999999999;" width="43.4" x="862.4" y="21.9652"/><text fill="#000000" font-family="sans-serif" font-size="9.8" lengthAdjust="spacing" textLength="33.6" x="867.3" y="37.4404">vehicle:</text><text fill="#000000" font-family="sans-serif" font-size="9.8" lengthAdjust="spacing" textLength="32.2" x="868" y="50.4752">Vehicle</text><rect fill="#E3E3E3" height="35.8695" rx="1.75" ry="1.75" style="stroke:#181818;stroke-width:0.3499999999999999;" width="43.4" x="862.4" y="621.317"/><text fill="#000000" font-family="sans-serif" font-size="9.8" lengthAdjust="spacing" textLength="33.6" x="867.3" y="636.7922">vehicle:</text><text fill="#000000" font-family="sans-serif" font-size="9.8" lengthAdjust="spacing" textLength="32.2" x="868" y="649.827">Vehicle</text><rect fill="#E3E3E3" height="35.8695" rx="1.75" ry="1.75" style="stroke:#181818;stroke-width:0.3499999999999999;" width="82.6" x="912.8" y="621.317"/><text fill="#000000" font-family="sans-serif" font-size="9.8" lengthAdjust="spacing" textLength="72.8" x="917.7" y="636.7922">vehicleCheckup:</text><text fill="#000000" font-family="sans-serif" font-size="9.8" lengthAdjust="spacing" textLength="71.4" x="918.4" y="649.827">VehicleCheckup</text><rect fill="#FFFFFF" height="543.8822" style="stroke:#181818;stroke-width:0.6999999999999998;" width="7" x="12.25" y="65.5348"/><rect fill="#FFFFFF" height="227.6682" style="stroke:#181818;stroke-width:0.6999999999999998;" width="7" x="241.85" y="81.8385"/><rect fill="#FFFFFF" height="21.9037" style="stroke:#181818;stroke-width:0.6999999999999998;" width="7" x="241.85" y="331.4104"/><rect fill="#FFFFFF" height="234.1992" style="stroke:#181818;stroke-width:0.6999999999999998;" width="7" x="241.85" y="375.2178"/><rect fill="#FFFFFF" height="176.8607" style="stroke:#181818;stroke-width:0.6999999999999998;" width="7" x="474.25" y="110.7422"/><rect fill="#FFFFFF" height="190.3918" style="stroke:#181818;stroke-width:0.6999999999999998;" width="7" x="474.25" y="397.1215"/><rect fill="#FFFFFF" height="21.9037" style="stroke:#181818;stroke-width:0.6999999999999998;" width="7" x="596.05" y="134.277"/><rect fill="#FFFFFF" height="21.9037" style="stroke:#181818;stroke-width:0.6999999999999998;" width="7" x="670.95" y="178.0844"/><rect fill="#FFFFFF" height="21.9037" style="stroke:#181818;stroke-width:0.6999999999999998;" width="7" x="757.4" y="243.7955"/><rect fill="#FFFFFF" height="146.5844" style="stroke:#181818;stroke-width:0.6999999999999998;" width="7" x="757.4" y="419.0252"/><rect fill="#FFFFFF" height="21" style="stroke:#181818;stroke-width:0.6999999999999998;" width="7" x="880.6" y="514.554"/><rect fill="#FFFFFF" height="36.5695" style="stroke:#181818;stroke-width:0.6999999999999998;" width="7" x="950.6" y="447.9289"/><polygon fill="#181818" points="233.45,79.0385,240.45,81.8385,233.45,84.6385,236.25,81.8385" style="stroke:#181818;stroke-width:0.6999999999999998;"/><line style="stroke:#181818;stroke-width:0.6999999999999998;" x1="19.25" x2="237.65" y1="81.8385" y2="81.8385"/><text fill="#000000" font-family="sans-serif" font-size="9.1" font-weight="bold" lengthAdjust="spacing" textLength="4.9" x="24.15" y="78.1546">1</text><text fill="#000000" font-family="sans-serif" font-size="9.1" lengthAdjust="spacing" textLength="140.7" x="31.85" y="78.1546">asks to register a vehicle check-up</text><polygon fill="#181818" points="388.5,100.9422,395.5,103.7422,388.5,106.5422,391.3,103.7422" style="stroke:#181818;stroke-width:0.6999999999999998;"/><line style="stroke:#181818;stroke-width:0.6999999999999998;" x1="248.85" x2="392.7" y1="103.7422" y2="103.7422"/><text fill="#000000" font-family="sans-serif" font-size="9.1" font-weight="bold" lengthAdjust="spacing" textLength="4.9" x="253.75" y="100.0583">2</text><text fill="#000000" font-family="sans-serif" font-size="9.1" lengthAdjust="spacing" textLength="25.2" x="261.45" y="100.0583">create</text><rect fill="#E3E3E3" height="22.8348" rx="1.75" ry="1.75" style="stroke:#181818;stroke-width:0.3499999999999999;" width="161.7" x="396.9" y="87.4385"/><text fill="#000000" font-family="sans-serif" font-size="9.8" lengthAdjust="spacing" textLength="151.9" x="401.8" y="102.9137">RegisterVehicleCheckupController</text><polygon fill="#181818" points="587.65,131.477,594.65,134.277,587.65,137.077,590.45,134.277" style="stroke:#181818;stroke-width:0.6999999999999998;"/><line style="stroke:#181818;stroke-width:0.6999999999999998;" x1="481.25" x2="591.85" y1="134.277" y2="134.277"/><text fill="#000000" font-family="sans-serif" font-size="9.1" font-weight="bold" lengthAdjust="spacing" textLength="4.9" x="486.15" y="130.5931">3</text><text fill="#000000" font-family="sans-serif" font-size="9.1" lengthAdjust="spacing" textLength="52.5" x="493.85" y="130.5931">getInstance()</text><polygon fill="#181818" points="488.95,153.3807,481.95,156.1807,488.95,158.9807,486.15,156.1807" style="stroke:#181818;stroke-width:0.6999999999999998;"/><line style="stroke:#181818;stroke-width:0.6999999999999998;stroke-dasharray:2.0,2.0;" x1="484.75" x2="598.85" y1="156.1807" y2="156.1807"/><text fill="#000000" font-family="sans-serif" font-size="9.1" font-weight="bold" lengthAdjust="spacing" textLength="4.9" x="493.15" y="152.4968">4</text><text fill="#000000" font-family="sans-serif" font-size="9.1" lengthAdjust="spacing" textLength="46.9" x="500.85" y="152.4968">repositories</text><polygon fill="#181818" points="662.55,175.2844,669.55,178.0844,662.55,180.8844,665.35,178.0844" style="stroke:#181818;stroke-width:0.6999999999999998;"/><line style="stroke:#181818;stroke-width:0.6999999999999998;" x1="481.25" x2="666.75" y1="178.0844" y2="178.0844"/><text fill="#000000" font-family="sans-serif" font-size="9.1" font-weight="bold" lengthAdjust="spacing" textLength="4.9" x="486.15" y="174.4005">5</text><text fill="#000000" font-family="sans-serif" font-size="9.1" lengthAdjust="spacing" textLength="91.7" x="493.85" y="174.4005">getVehicleRepository()</text><polygon fill="#181818" points="488.95,197.1881,481.95,199.9881,488.95,202.7881,486.15,199.9881" style="stroke:#181818;stroke-width:0.6999999999999998;"/><line style="stroke:#181818;stroke-width:0.6999999999999998;stroke-dasharray:2.0,2.0;" x1="484.75" x2="673.75" y1="199.9881" y2="199.9881"/><text fill="#000000" font-family="sans-serif" font-size="9.1" font-weight="bold" lengthAdjust="spacing" textLength="4.9" x="493.15" y="196.3042">6</text><text fill="#000000" font-family="sans-serif" font-size="9.1" lengthAdjust="spacing" textLength="70.7" x="500.85" y="196.3042">vehicleRepository</text><polygon fill="#181818" points="465.85,219.0918,472.85,221.8918,465.85,224.6918,468.65,221.8918" style="stroke:#181818;stroke-width:0.6999999999999998;"/><line style="stroke:#181818;stroke-width:0.6999999999999998;" x1="248.85" x2="470.05" y1="221.8918" y2="221.8918"/><text fill="#000000" font-family="sans-serif" font-size="9.1" font-weight="bold" lengthAdjust="spacing" textLength="4.9" x="253.75" y="218.2079">7</text><text fill="#000000" font-family="sans-serif" font-size="9.1" lengthAdjust="spacing" textLength="53.2" x="261.45" y="218.2079">getVehicles()</text><polygon fill="#181818" points="749,240.9955,756,243.7955,749,246.5955,751.8,243.7955" style="stroke:#181818;stroke-width:0.6999999999999998;"/><line style="stroke:#181818;stroke-width:0.6999999999999998;" x1="481.25" x2="753.2" y1="243.7955" y2="243.7955"/><text fill="#000000" font-family="sans-serif" font-size="9.1" font-weight="bold" lengthAdjust="spacing" textLength="4.9" x="486.15" y="240.1116">8</text><text fill="#000000" font-family="sans-serif" font-size="9.1" lengthAdjust="spacing" textLength="53.2" x="493.85" y="240.1116">getVehicles()</text><polygon fill="#181818" points="488.95,262.8992,481.95,265.6992,488.95,268.4992,486.15,265.6992" style="stroke:#181818;stroke-width:0.6999999999999998;"/><line style="stroke:#181818;stroke-width:0.6999999999999998;stroke-dasharray:2.0,2.0;" x1="484.75" x2="760.2" y1="265.6992" y2="265.6992"/><text fill="#000000" font-family="sans-serif" font-size="9.1" font-weight="bold" lengthAdjust="spacing" textLength="4.9" x="493.15" y="262.0153">9</text><text fill="#000000" font-family="sans-serif" font-size="9.1" lengthAdjust="spacing" textLength="46.9" x="500.85" y="262.0153">vehiclesList</text><polygon fill="#181818" points="256.55,284.8029,249.55,287.6029,256.55,290.4029,253.75,287.6029" style="stroke:#181818;stroke-width:0.6999999999999998;"/><line style="stroke:#181818;stroke-width:0.6999999999999998;stroke-dasharray:2.0,2.0;" x1="252.35" x2="477.05" y1="287.6029" y2="287.6029"/><text fill="#000000" font-family="sans-serif" font-size="9.1" font-weight="bold" lengthAdjust="spacing" textLength="9.8" x="260.75" y="283.919">10</text><text fill="#000000" font-family="sans-serif" font-size="9.1" lengthAdjust="spacing" textLength="46.9" x="273.35" y="283.919">vehiclesList</text><polygon fill="#181818" points="26.95,306.7066,19.95,309.5066,26.95,312.3066,24.15,309.5066" style="stroke:#181818;stroke-width:0.6999999999999998;"/><line style="stroke:#181818;stroke-width:0.6999999999999998;stroke-dasharray:2.0,2.0;" x1="22.75" x2="244.65" y1="309.5066" y2="309.5066"/><text fill="#000000" font-family="sans-serif" font-size="9.1" font-weight="bold" lengthAdjust="spacing" textLength="9.8" x="31.15" y="305.8228">11</text><text fill="#000000" font-family="sans-serif" font-size="9.1" lengthAdjust="spacing" textLength="193.2" x="43.75" y="305.8228">shows available vehicles and asks to select one</text><polygon fill="#181818" points="233.45,328.6104,240.45,331.4104,233.45,334.2104,236.25,331.4104" style="stroke:#181818;stroke-width:0.6999999999999998;"/><line style="stroke:#181818;stroke-width:0.6999999999999998;" x1="19.25" x2="237.65" y1="331.4104" y2="331.4104"/><text fill="#000000" font-family="sans-serif" font-size="9.1" font-weight="bold" lengthAdjust="spacing" textLength="9.8" x="24.15" y="327.7265">12</text><text fill="#000000" font-family="sans-serif" font-size="9.1" lengthAdjust="spacing" textLength="67.2" x="36.75" y="327.7265">selects a vehicle</text><polygon fill="#181818" points="26.95,350.5141,19.95,353.3141,26.95,356.1141,24.15,353.3141" style="stroke:#181818;stroke-width:0.6999999999999998;"/><line style="stroke:#181818;stroke-width:0.6999999999999998;stroke-dasharray:2.0,2.0;" x1="22.75" x2="244.65" y1="353.3141" y2="353.3141"/><text fill="#000000" font-family="sans-serif" font-size="9.1" font-weight="bold" lengthAdjust="spacing" textLength="9.8" x="31.15" y="349.6302">13</text><text fill="#000000" font-family="sans-serif" font-size="9.1" lengthAdjust="spacing" textLength="122.5" x="43.75" y="349.6302">requests date and currentKms</text><polygon fill="#181818" points="233.45,372.4178,240.45,375.2178,233.45,378.0178,236.25,375.2178" style="stroke:#181818;stroke-width:0.6999999999999998;"/><line style="stroke:#181818;stroke-width:0.6999999999999998;" x1="19.25" x2="237.65" y1="375.2178" y2="375.2178"/><text fill="#000000" font-family="sans-serif" font-size="9.1" font-weight="bold" lengthAdjust="spacing" textLength="9.8" x="24.15" y="371.5339">14</text><text fill="#000000" font-family="sans-serif" font-size="9.1" lengthAdjust="spacing" textLength="85.4" x="36.75" y="371.5339">types requested data</text><polygon fill="#181818" points="465.85,394.3215,472.85,397.1215,465.85,399.9215,468.65,397.1215" style="stroke:#181818;stroke-width:0.6999999999999998;"/><line style="stroke:#181818;stroke-width:0.6999999999999998;" x1="248.85" x2="470.05" y1="397.1215" y2="397.1215"/><text fill="#000000" font-family="sans-serif" font-size="9.1" font-weight="bold" lengthAdjust="spacing" textLength="9.8" x="253.75" y="393.4376">15</text><text fill="#000000" font-family="sans-serif" font-size="9.1" lengthAdjust="spacing" textLength="199.5" x="266.35" y="393.4376">createVehicleCheckup(vehicle, date, currentKms)</text><polygon fill="#181818" points="749,416.2252,756,419.0252,749,421.8252,751.8,419.0252" style="stroke:#181818;stroke-width:0.6999999999999998;"/><line style="stroke:#181818;stroke-width:0.6999999999999998;" x1="481.25" x2="753.2" y1="419.0252" y2="419.0252"/><text fill="#000000" font-family="sans-serif" font-size="9.1" font-weight="bold" lengthAdjust="spacing" textLength="9.8" x="486.15" y="415.3413">16</text><text fill="#000000" font-family="sans-serif" font-size="9.1" lengthAdjust="spacing" textLength="199.5" x="498.75" y="415.3413">createVehicleCheckup(vehicle, date, currentKms)</text><polygon fill="#181818" points="904.4,438.1289,911.4,440.9289,904.4,443.7289,907.2,440.9289" style="stroke:#181818;stroke-width:0.6999999999999998;"/><line style="stroke:#181818;stroke-width:0.6999999999999998;" x1="764.4" x2="908.6" y1="440.9289" y2="440.9289"/><text fill="#000000" font-family="sans-serif" font-size="9.1" font-weight="bold" lengthAdjust="spacing" textLength="9.8" x="769.3" y="437.245">17</text><text fill="#000000" font-family="sans-serif" font-size="9.1" lengthAdjust="spacing" textLength="100.8" x="781.9" y="437.245">create(date, currentKms)</text><rect fill="#E3E3E3" height="35.8695" rx="1.75" ry="1.75" style="stroke:#181818;stroke-width:0.3499999999999999;" width="82.6" x="912.8" y="424.6252"/><text fill="#000000" font-family="sans-serif" font-size="9.8" lengthAdjust="spacing" textLength="72.8" x="917.7" y="440.1004">vehicleCheckup:</text><text fill="#000000" font-family="sans-serif" font-size="9.8" lengthAdjust="spacing" textLength="71.4" x="918.4" y="453.1352">VehicleCheckup</text><polygon fill="#181818" points="772.1,481.6984,765.1,484.4984,772.1,487.2984,769.3,484.4984" style="stroke:#181818;stroke-width:0.6999999999999998;"/><line style="stroke:#181818;stroke-width:0.6999999999999998;stroke-dasharray:2.0,2.0;" x1="767.9" x2="953.4" y1="484.4984" y2="484.4984"/><text fill="#000000" font-family="sans-serif" font-size="9.1" font-weight="bold" lengthAdjust="spacing" textLength="9.8" x="776.3" y="480.8146">18</text><text fill="#000000" font-family="sans-serif" font-size="9.1" lengthAdjust="spacing" textLength="63" x="788.9" y="480.8146">vehicleCheckup</text><polygon fill="#181818" points="872.2,511.754,879.2,514.554,872.2,517.354,875,514.554" style="stroke:#181818;stroke-width:0.6999999999999998;"/><line style="stroke:#181818;stroke-width:0.6999999999999998;" x1="764.4" x2="876.4" y1="514.554" y2="514.554"/><text fill="#000000" font-family="sans-serif" font-size="9.1" font-weight="bold" lengthAdjust="spacing" textLength="9.8" x="769.3" y="510.8701">19</text><text fill="#000000" font-family="sans-serif" font-size="9.1" lengthAdjust="spacing" textLength="90.3" x="781.9" y="510.8701">addCheckup(checkup)</text><path d="M617.4,493.5984 L617.4,524.3984 L753.9,524.3984 L753.9,500.5984 L746.9,493.5984 L617.4,493.5984 " fill="#FAFAFA" style="stroke:#181818;stroke-width:0.3499999999999999;"/><path d="M746.9,493.5984 L746.9,500.5984 L753.9,500.5984 L746.9,493.5984 " fill="#FAFAFA" style="stroke:#181818;stroke-width:0.3499999999999999;"/><text fill="#000000" font-family="sans-serif" font-size="9.1" lengthAdjust="spacing" textLength="119" x="621.6" y="506.9183">adds checkup to checkupList</text><text fill="#000000" font-family="sans-serif" font-size="9.1" lengthAdjust="spacing" textLength="99.4" x="621.6" y="519.022">and updates currentKms</text><polygon fill="#181818" points="488.95,562.8096,481.95,565.6096,488.95,568.4096,486.15,565.6096" style="stroke:#181818;stroke-width:0.6999999999999998;"/><line style="stroke:#181818;stroke-width:0.6999999999999998;stroke-dasharray:2.0,2.0;" x1="484.75" x2="760.2" y1="565.6096" y2="565.6096"/><text fill="#000000" font-family="sans-serif" font-size="9.1" font-weight="bold" lengthAdjust="spacing" textLength="9.8" x="493.15" y="561.9257">20</text><text fill="#000000" font-family="sans-serif" font-size="9.1" lengthAdjust="spacing" textLength="70" x="505.75" y="561.9257">status of creation</text><polygon fill="#181818" points="256.55,584.7133,249.55,587.5133,256.55,590.3133,253.75,587.5133" style="stroke:#181818;stroke-width:0.6999999999999998;"/><line style="stroke:#181818;stroke-width:0.6999999999999998;stroke-dasharray:2.0,2.0;" x1="252.35" x2="477.05" y1="587.5133" y2="587.5133"/><text fill="#000000" font-family="sans-serif" font-size="9.1" font-weight="bold" lengthAdjust="spacing" textLength="9.8" x="260.75" y="583.8294">21</text><text fill="#000000" font-family="sans-serif" font-size="9.1" lengthAdjust="spacing" textLength="70" x="273.35" y="583.8294">status of creation</text><polygon fill="#181818" points="23.45,606.617,16.45,609.417,23.45,612.217,20.65,609.417" style="stroke:#181818;stroke-width:0.6999999999999998;"/><line style="stroke:#181818;stroke-width:0.6999999999999998;stroke-dasharray:2.0,2.0;" x1="19.25" x2="244.65" y1="609.417" y2="609.417"/><text fill="#000000" font-family="sans-serif" font-size="9.1" font-weight="bold" lengthAdjust="spacing" textLength="9.8" x="27.65" y="605.7331">22</text><text fill="#000000" font-family="sans-serif" font-size="9.1" lengthAdjust="spacing" textLength="93.8" x="40.25" y="605.7331">shows operation status</text><!--SRC=[bLN9Zk8m4BtxAwo-D8sQ7-3GqWXf9DICDEg54nUJ560Hx8pjqCFVJtb9uc2JPd8XEFLURQ_A-iX5pHGxqPCKiZWeUG9gL0D4TrzgLXpP7jxDfGAge31CxAlOG1zOAR-usDCTgpGGmXeZHNFQWYBayS1Be3ifpLR-9QmmKj67zSzV3vHfYhy4EGmlUCs4eG_pDzXpRK2juS2B2XO7A8vD_Rbqvf_BeNNUU265KRAgG3dGukDjbJYffUOO2GVjRBg3opktoM7uGuYA41kH4lnU_VWO8iu-ffvvlX7hwpDVXElJB54FTw1mcZKDTUWHuS012_zkEy7Fp83h0Q7XmJzqzeA5fdCqFcfg9BRSLvcorgidcI5B1-pei4VaiJks3v8XfMt3T8gqXGAq6rZ4UDUk-8izi0IP7Y7R7inIQ9Ha0PEdQzAyXropoIZKFZdtiv3NdCRw6AKgOJoECMnR2IisdteYdNjhuFJwRSxEKPza8kbxC_NUReXYa8d613BDQ3DFyat0DpDEfomRVUfXriSP2g1NE0za9D-ChnifjRDsapbYTPEH5D5M1OTsZbjOVcdApenNR8ipsb9I9ifkbZLKkC2f5Fq0HXxix5vl0O_G_V2JPDopuIZuqu16O6dDR0n5enG8ytho4_ADNtEfCVR00gMbOQdheVEkKNx73BVV9CJ_x29wZi9v8lajHEwHt_-wwbpaL99HtqkxiQVJrjbaXBLTxpRiyEwRabn7T7XRaAWVBKa-dlP2egmisuG38WeaLekGUB2LniYJGtMta9LaUBNAfnjXXTBKDa4T2oOAhYLEOkiN5Tu7fj5Kxdp1k5siu-CvdCOC_deElTRZoPCrA6SRu6GeyDW_thZ_0000]--></g></svg>