<?xml version="1.0" encoding="us-ascii" standalone="no"?><svg xmlns="http://www.w3.org/2000/svg" xmlns:xlink="http://www.w3.org/1999/xlink" contentStyleType="text/css" height="849px" preserveAspectRatio="none" style="width:611px;height:849px;background:#FFFFFF;" version="1.1" viewBox="0 0 611 849" width="611px" zoomAndPan="magnify"><defs/><g><!--class RegisterVehicleCheckupUI--><g id="elem_RegisterVehicleCheckupUI"><rect codeLine="12" fill="#F1F1F1" height="48" id="RegisterVehicleCheckupUI" rx="2.5" ry="2.5" style="stroke:#181818;stroke-width:0.5;" width="199" x="342.5" y="7"/><ellipse cx="357.5" cy="23" fill="#ADD1B2" rx="11" ry="11" style="stroke:#181818;stroke-width:1.0;"/><path d="M360.2656,18.875 Q360.4219,18.6563 360.6094,18.5469 Q360.7969,18.4375 361.0156,18.4375 Q361.3906,18.4375 361.625,18.7031 Q361.8594,18.9531 361.8594,19.5625 L361.8594,21.0156 Q361.8594,21.625 361.625,21.8906 Q361.3906,22.1563 361.0156,22.1563 Q360.6719,22.1563 360.4688,21.9531 Q360.2656,21.7656 360.1563,21.25 Q360.1094,20.8906 359.9219,20.7031 Q359.5938,20.3281 358.9844,20.1094 Q358.375,19.8906 357.75,19.8906 Q356.9844,19.8906 356.3438,20.2188 Q355.7188,20.5469 355.2188,21.2969 Q354.7344,22.0469 354.7344,23.0781 L354.7344,24.1719 Q354.7344,25.4063 355.625,26.2344 Q356.5156,27.0469 358.1094,27.0469 Q359.0469,27.0469 359.7031,26.7969 Q360.0938,26.6406 360.5156,26.2031 Q360.7813,25.9375 360.9219,25.8594 Q361.0781,25.7813 361.2813,25.7813 Q361.6094,25.7813 361.8594,26.0469 Q362.125,26.2969 362.125,26.6406 Q362.125,26.9844 361.7813,27.3906 Q361.2813,27.9688 360.4844,28.2969 Q359.4063,28.75 358.1094,28.75 Q356.5938,28.75 355.3906,28.125 Q354.4063,27.625 353.7188,26.5625 Q353.0313,25.4844 353.0313,24.2031 L353.0313,23.0469 Q353.0313,21.7188 353.6406,20.5781 Q354.2656,19.4219 355.3594,18.8125 Q356.4531,18.1875 357.6875,18.1875 Q358.4219,18.1875 359.0625,18.3594 Q359.7188,18.5156 360.2656,18.875 Z " fill="#000000"/><text fill="#000000" font-family="sans-serif" font-size="14" lengthAdjust="spacing" textLength="167" x="371.5" y="28.7969">RegisterVehicleCheckupUI</text><line style="stroke:#181818;stroke-width:0.5;" x1="343.5" x2="540.5" y1="39" y2="39"/><line style="stroke:#181818;stroke-width:0.5;" x1="343.5" x2="540.5" y1="47" y2="47"/></g><!--class RegisterVehicleCheckupController--><g id="elem_RegisterVehicleCheckupController"><rect codeLine="18" fill="#F1F1F1" height="85.2422" id="RegisterVehicleCheckupController" rx="2.5" ry="2.5" style="stroke:#181818;stroke-width:0.5;" width="325" x="279.5" y="116"/><ellipse cx="329.25" cy="132" fill="#ADD1B2" rx="11" ry="11" style="stroke:#181818;stroke-width:1.0;"/><path d="M332.0156,127.875 Q332.1719,127.6563 332.3594,127.5469 Q332.5469,127.4375 332.7656,127.4375 Q333.1406,127.4375 333.375,127.7031 Q333.6094,127.9531 333.6094,128.5625 L333.6094,130.0156 Q333.6094,130.625 333.375,130.8906 Q333.1406,131.1563 332.7656,131.1563 Q332.4219,131.1563 332.2188,130.9531 Q332.0156,130.7656 331.9063,130.25 Q331.8594,129.8906 331.6719,129.7031 Q331.3438,129.3281 330.7344,129.1094 Q330.125,128.8906 329.5,128.8906 Q328.7344,128.8906 328.0938,129.2188 Q327.4688,129.5469 326.9688,130.2969 Q326.4844,131.0469 326.4844,132.0781 L326.4844,133.1719 Q326.4844,134.4063 327.375,135.2344 Q328.2656,136.0469 329.8594,136.0469 Q330.7969,136.0469 331.4531,135.7969 Q331.8438,135.6406 332.2656,135.2031 Q332.5313,134.9375 332.6719,134.8594 Q332.8281,134.7813 333.0313,134.7813 Q333.3594,134.7813 333.6094,135.0469 Q333.875,135.2969 333.875,135.6406 Q333.875,135.9844 333.5313,136.3906 Q333.0313,136.9688 332.2344,137.2969 Q331.1563,137.75 329.8594,137.75 Q328.3438,137.75 327.1406,137.125 Q326.1563,136.625 325.4688,135.5625 Q324.7813,134.4844 324.7813,133.2031 L324.7813,132.0469 Q324.7813,130.7188 325.3906,129.5781 Q326.0156,128.4219 327.1094,127.8125 Q328.2031,127.1875 329.4375,127.1875 Q330.1719,127.1875 330.8125,127.3594 Q331.4688,127.5156 332.0156,127.875 Z " fill="#000000"/><text fill="#000000" font-family="sans-serif" font-size="14" lengthAdjust="spacing" textLength="217" x="349.75" y="137.7969">RegisterVehicleCheckupController</text><line style="stroke:#181818;stroke-width:0.5;" x1="280.5" x2="603.5" y1="148" y2="148"/><line style="stroke:#181818;stroke-width:0.5;" x1="280.5" x2="603.5" y1="156" y2="156"/><text fill="#000000" font-family="sans-serif" font-size="14" lengthAdjust="spacing" textLength="91" x="285.5" y="175.1074">+getVehicles()</text><text fill="#000000" font-family="sans-serif" font-size="14" lengthAdjust="spacing" textLength="313" x="285.5" y="193.7285">+createVehicleCheckup(vehicle, date, currentKm)</text></g><!--class Repositories--><g id="elem_Repositories"><rect codeLine="26" fill="#F1F1F1" height="85.2422" id="Repositories" rx="2.5" ry="2.5" style="stroke:#181818;stroke-width:0.5;" width="286" x="7" y="280"/><ellipse cx="104.25" cy="296" fill="#ADD1B2" rx="11" ry="11" style="stroke:#181818;stroke-width:1.0;"/><path d="M107.0156,291.875 Q107.1719,291.6563 107.3594,291.5469 Q107.5469,291.4375 107.7656,291.4375 Q108.1406,291.4375 108.375,291.7031 Q108.6094,291.9531 108.6094,292.5625 L108.6094,294.0156 Q108.6094,294.625 108.375,294.8906 Q108.1406,295.1563 107.7656,295.1563 Q107.4219,295.1563 107.2188,294.9531 Q107.0156,294.7656 106.9063,294.25 Q106.8594,293.8906 106.6719,293.7031 Q106.3438,293.3281 105.7344,293.1094 Q105.125,292.8906 104.5,292.8906 Q103.7344,292.8906 103.0938,293.2188 Q102.4688,293.5469 101.9688,294.2969 Q101.4844,295.0469 101.4844,296.0781 L101.4844,297.1719 Q101.4844,298.4063 102.375,299.2344 Q103.2656,300.0469 104.8594,300.0469 Q105.7969,300.0469 106.4531,299.7969 Q106.8438,299.6406 107.2656,299.2031 Q107.5313,298.9375 107.6719,298.8594 Q107.8281,298.7813 108.0313,298.7813 Q108.3594,298.7813 108.6094,299.0469 Q108.875,299.2969 108.875,299.6406 Q108.875,299.9844 108.5313,300.3906 Q108.0313,300.9688 107.2344,301.2969 Q106.1563,301.75 104.8594,301.75 Q103.3438,301.75 102.1406,301.125 Q101.1563,300.625 100.4688,299.5625 Q99.7813,298.4844 99.7813,297.2031 L99.7813,296.0469 Q99.7813,294.7188 100.3906,293.5781 Q101.0156,292.4219 102.1094,291.8125 Q103.2031,291.1875 104.4375,291.1875 Q105.1719,291.1875 105.8125,291.3594 Q106.4688,291.5156 107.0156,291.875 Z " fill="#000000"/><text fill="#000000" font-family="sans-serif" font-size="14" lengthAdjust="spacing" textLength="83" x="124.75" y="301.7969">:Repositories</text><line style="stroke:#181818;stroke-width:0.5;" x1="8" x2="292" y1="312" y2="312"/><line style="stroke:#181818;stroke-width:0.5;" x1="8" x2="292" y1="320" y2="320"/><text fill="#000000" font-family="sans-serif" font-size="14" lengthAdjust="spacing" textLength="178" x="13" y="339.1074">+getInstance(): Repositories</text><text fill="#000000" font-family="sans-serif" font-size="14" lengthAdjust="spacing" textLength="274" x="13" y="357.7285">+getVehicleRepository(): VehicleRepository</text></g><!--class VehicleRepository--><g id="elem_VehicleRepository"><rect codeLine="32" fill="#F1F1F1" height="85.2422" id="VehicleRepository" rx="2.5" ry="2.5" style="stroke:#181818;stroke-width:0.5;" width="332" x="213" y="426"/><ellipse cx="317.75" cy="442" fill="#ADD1B2" rx="11" ry="11" style="stroke:#181818;stroke-width:1.0;"/><path d="M320.5156,437.875 Q320.6719,437.6563 320.8594,437.5469 Q321.0469,437.4375 321.2656,437.4375 Q321.6406,437.4375 321.875,437.7031 Q322.1094,437.9531 322.1094,438.5625 L322.1094,440.0156 Q322.1094,440.625 321.875,440.8906 Q321.6406,441.1563 321.2656,441.1563 Q320.9219,441.1563 320.7188,440.9531 Q320.5156,440.7656 320.4063,440.25 Q320.3594,439.8906 320.1719,439.7031 Q319.8438,439.3281 319.2344,439.1094 Q318.625,438.8906 318,438.8906 Q317.2344,438.8906 316.5938,439.2188 Q315.9688,439.5469 315.4688,440.2969 Q314.9844,441.0469 314.9844,442.0781 L314.9844,443.1719 Q314.9844,444.4063 315.875,445.2344 Q316.7656,446.0469 318.3594,446.0469 Q319.2969,446.0469 319.9531,445.7969 Q320.3438,445.6406 320.7656,445.2031 Q321.0313,444.9375 321.1719,444.8594 Q321.3281,444.7813 321.5313,444.7813 Q321.8594,444.7813 322.1094,445.0469 Q322.375,445.2969 322.375,445.6406 Q322.375,445.9844 322.0313,446.3906 Q321.5313,446.9688 320.7344,447.2969 Q319.6563,447.75 318.3594,447.75 Q316.8438,447.75 315.6406,447.125 Q314.6563,446.625 313.9688,445.5625 Q313.2813,444.4844 313.2813,443.2031 L313.2813,442.0469 Q313.2813,440.7188 313.8906,439.5781 Q314.5156,438.4219 315.6094,437.8125 Q316.7031,437.1875 317.9375,437.1875 Q318.6719,437.1875 319.3125,437.3594 Q319.9688,437.5156 320.5156,437.875 Z " fill="#000000"/><text fill="#000000" font-family="sans-serif" font-size="14" lengthAdjust="spacing" textLength="114" x="338.25" y="447.7969">VehicleRepository</text><line style="stroke:#181818;stroke-width:0.5;" x1="214" x2="544" y1="458" y2="458"/><line style="stroke:#181818;stroke-width:0.5;" x1="214" x2="544" y1="466" y2="466"/><text fill="#000000" font-family="sans-serif" font-size="14" lengthAdjust="spacing" textLength="91" x="219" y="485.1074">+getVehicles()</text><text fill="#000000" font-family="sans-serif" font-size="14" lengthAdjust="spacing" textLength="320" x="219" y="503.7285">+createVehicleCheckup(vehicle, date, currentKms)</text></g><!--class Vehicle--><g id="elem_Vehicle"><rect codeLine="39" fill="#F1F1F1" height="252.832" id="Vehicle" rx="2.5" ry="2.5" style="stroke:#181818;stroke-width:0.5;" width="211" x="383.5" y="590"/><ellipse cx="461.75" cy="606" fill="#ADD1B2" rx="11" ry="11" style="stroke:#181818;stroke-width:1.0;"/><path d="M464.5156,601.875 Q464.6719,601.6563 464.8594,601.5469 Q465.0469,601.4375 465.2656,601.4375 Q465.6406,601.4375 465.875,601.7031 Q466.1094,601.9531 466.1094,602.5625 L466.1094,604.0156 Q466.1094,604.625 465.875,604.8906 Q465.6406,605.1563 465.2656,605.1563 Q464.9219,605.1563 464.7188,604.9531 Q464.5156,604.7656 464.4063,604.25 Q464.3594,603.8906 464.1719,603.7031 Q463.8438,603.3281 463.2344,603.1094 Q462.625,602.8906 462,602.8906 Q461.2344,602.8906 460.5938,603.2188 Q459.9688,603.5469 459.4688,604.2969 Q458.9844,605.0469 458.9844,606.0781 L458.9844,607.1719 Q458.9844,608.4063 459.875,609.2344 Q460.7656,610.0469 462.3594,610.0469 Q463.2969,610.0469 463.9531,609.7969 Q464.3438,609.6406 464.7656,609.2031 Q465.0313,608.9375 465.1719,608.8594 Q465.3281,608.7813 465.5313,608.7813 Q465.8594,608.7813 466.1094,609.0469 Q466.375,609.2969 466.375,609.6406 Q466.375,609.9844 466.0313,610.3906 Q465.5313,610.9688 464.7344,611.2969 Q463.6563,611.75 462.3594,611.75 Q460.8438,611.75 459.6406,611.125 Q458.6563,610.625 457.9688,609.5625 Q457.2813,608.4844 457.2813,607.2031 L457.2813,606.0469 Q457.2813,604.7188 457.8906,603.5781 Q458.5156,602.4219 459.6094,601.8125 Q460.7031,601.1875 461.9375,601.1875 Q462.6719,601.1875 463.3125,601.3594 Q463.9688,601.5156 464.5156,601.875 Z " fill="#000000"/><text fill="#000000" font-family="sans-serif" font-size="14" lengthAdjust="spacing" textLength="46" x="482.25" y="611.7969">Vehicle</text><line style="stroke:#181818;stroke-width:0.5;" x1="384.5" x2="593.5" y1="622" y2="622"/><text fill="#000000" font-family="sans-serif" font-size="14" lengthAdjust="spacing" textLength="83" x="389.5" y="641.1074">-String brand</text><text fill="#000000" font-family="sans-serif" font-size="14" lengthAdjust="spacing" textLength="84" x="389.5" y="659.7285">-String model</text><text fill="#000000" font-family="sans-serif" font-size="14" lengthAdjust="spacing" textLength="103" x="389.5" y="678.3496">-String vehicleID</text><text fill="#000000" font-family="sans-serif" font-size="14" lengthAdjust="spacing" textLength="73" x="389.5" y="696.9707">-String type</text><text fill="#000000" font-family="sans-serif" font-size="14" lengthAdjust="spacing" textLength="133" x="389.5" y="715.5918">-Double grossWeight</text><text fill="#000000" font-family="sans-serif" font-size="14" lengthAdjust="spacing" textLength="79" x="389.5" y="734.2129">-Double tare</text><text fill="#000000" font-family="sans-serif" font-size="14" lengthAdjust="spacing" textLength="118" x="389.5" y="752.834">-Integer currentKm</text><text fill="#000000" font-family="sans-serif" font-size="14" lengthAdjust="spacing" textLength="124" x="389.5" y="771.4551">-String registerDate</text><text fill="#000000" font-family="sans-serif" font-size="14" lengthAdjust="spacing" textLength="143" x="389.5" y="790.0762">-String acquisitionDate</text><text fill="#000000" font-family="sans-serif" font-size="14" lengthAdjust="spacing" textLength="174" x="389.5" y="808.6973">-Integer checkupFrequency</text><line style="stroke:#181818;stroke-width:0.5;" x1="384.5" x2="593.5" y1="816.2109" y2="816.2109"/><text fill="#000000" font-family="sans-serif" font-size="14" lengthAdjust="spacing" textLength="199" x="389.5" y="835.3184">+addCheckup(date, currentKm)</text></g><!--link RegisterVehicleCheckupUI to RegisterVehicleCheckupController--><g id="link_RegisterVehicleCheckupUI_RegisterVehicleCheckupController"><path codeLine="54" d="M442,55.02 C442,72 442,89.58 442,109.84 " fill="none" id="RegisterVehicleCheckupUI-to-RegisterVehicleCheckupController" style="stroke:#181818;stroke-width:1.0;stroke-dasharray:7.0,7.0;"/><polygon fill="#181818" points="442,115.84,446,106.84,442,110.84,438,106.84,442,115.84" style="stroke:#181818;stroke-width:1.0;"/></g><!--link Repositories to Repositories--><g id="link_Repositories_Repositories"><path codeLine="55" d="M293.16,310.32 C313.98,312.25 328,316.31 328,322.5 C328,328.69 319.9544,332.1962 299.1344,334.1262 " fill="none" id="Repositories-to-Repositories" style="stroke:#181818;stroke-width:1.0;"/><polygon fill="#181818" points="293.16,334.68,302.4908,337.8322,298.1387,334.2185,301.7524,329.8663,293.16,334.68" style="stroke:#181818;stroke-width:1.0;"/><text fill="#000000" font-family="sans-serif" font-size="13" lengthAdjust="spacing" textLength="49" x="334" y="328.0283">instance</text></g><!--link RegisterVehicleCheckupController to Repositories--><g id="link_RegisterVehicleCheckupController_Repositories"><path codeLine="56" d="M367.18,201.01 C323.5,225.24 273.8166,252.8091 230.1266,277.0491 " fill="none" id="RegisterVehicleCheckupController-to-Repositories" style="stroke:#181818;stroke-width:1.0;stroke-dasharray:7.0,7.0;"/><polygon fill="#181818" points="224.88,279.96,234.6905,279.0914,229.2522,277.5342,230.8093,272.0959,224.88,279.96" style="stroke:#181818;stroke-width:1.0;"/><text fill="#000000" font-family="sans-serif" font-size="13" lengthAdjust="spacing" textLength="67" x="306" y="246.0283">repositories</text></g><!--link Repositories to VehicleRepository--><g id="link_Repositories_VehicleRepository"><path codeLine="57" d="M216.24,365.15 C246.62,384.26 277.4707,403.6562 307.8307,422.7462 " fill="none" id="Repositories-to-VehicleRepository" style="stroke:#181818;stroke-width:1.0;"/><polygon fill="#181818" points="312.91,425.94,307.4202,417.7631,308.6772,423.2785,303.1618,424.5355,312.91,425.94" style="stroke:#181818;stroke-width:1.0;"/><text fill="#000000" font-family="sans-serif" font-size="13" lengthAdjust="spacing" textLength="7" x="294.8191" y="414.8345">1</text></g><!--link RegisterVehicleCheckupController to VehicleRepository--><g id="link_RegisterVehicleCheckupController_VehicleRepository"><path codeLine="58" d="M433.5,201.04 C421.48,259.82 400.8224,360.8017 388.7624,419.7617 " fill="none" id="RegisterVehicleCheckupController-to-VehicleRepository" style="stroke:#181818;stroke-width:1.0;stroke-dasharray:7.0,7.0;"/><polygon fill="#181818" points="387.56,425.64,393.2824,417.6242,388.562,420.7414,385.4447,416.021,387.56,425.64" style="stroke:#181818;stroke-width:1.0;"/><text fill="#000000" font-family="sans-serif" font-size="13" lengthAdjust="spacing" textLength="101" x="419" y="328.0283">vehicleRepository</text></g><!--link RegisterVehicleCheckupController to Vehicle--><g id="link_RegisterVehicleCheckupController_Vehicle"><path codeLine="59" d="M472.18,201.31 C497.31,236.11 529,280 529,280 C529,280 563,426 563,426 C563,426 563,511 563,511 C563,511 551.8115,541.928 536.5415,584.128 " fill="none" id="RegisterVehicleCheckupController-to-Vehicle" style="stroke:#181818;stroke-width:1.0;stroke-dasharray:7.0,7.0;"/><polygon fill="#181818" points="534.5,589.77,541.3236,582.668,536.2013,585.0683,533.801,579.946,534.5,589.77" style="stroke:#181818;stroke-width:1.0;"/></g><!--link VehicleRepository to Vehicle--><g id="link_VehicleRepository_Vehicle"><path codeLine="61" d="M397.66,511.23 C407.5,533.23 417.6901,556.0329 430.4201,584.4929 " fill="none" id="VehicleRepository-to-Vehicle" style="stroke:#181818;stroke-width:1.0;"/><polygon fill="#181818" points="432.87,589.97,432.8466,580.1212,430.8285,585.4058,425.5438,583.3876,432.87,589.97" style="stroke:#181818;stroke-width:1.0;"/><text fill="#000000" font-family="sans-serif" font-size="13" lengthAdjust="spacing" textLength="39" x="419" y="556.0283">vehicle</text><text fill="#000000" font-family="sans-serif" font-size="13" lengthAdjust="spacing" textLength="7" x="393.0761" y="533.427">1</text><text fill="#000000" font-family="sans-serif" font-size="13" lengthAdjust="spacing" textLength="5" x="424.2972" y="578.7839">*</text></g><!--SRC=[fPDDRzim38Rl-XL4BadM3wnN7meC3GOOkpNOTbParXOYIov5RyY6_VV9ZkB8LRiCcs_cI_AXg5TBlzUsaoHRQ9rrgY7N8Z3rACvA9zLUrhZbWq4WL2njRT84tyZAVTUsXYTfVAeORP4F7KBdp67u4SjNH4ViH5AbZFJ-0pFfNSzOAcUt-WV2Uo6M1fyOs07fkc6ez32ETbO8CHR1uX5hxHdf2pPQ6NneKEtxxdEv0EdXBH5-XWQ_BZLvS9R96OFqXsRdfD3qgaQEib-j1OJlIX5AnddHwjlnzngge5s3wedGygTsVHphD5VnY9tpcXrfz768So00HqA0bjQ7MrAuMXUpb2aXyYVjC6HcmP4UsPauyhDeCiH_dTolPpSIgr9c907Sm3PO9RXlHz9MCPY4MrUXoSEHN6voQN1b4jsuVXTuDJdll-BWl5naIMb9QHdhu87fF3c4edysuU2vAjLphyDAWxbV94ojZnlyIFZSerNXiiOjowewxVOrCxtr16vlxoywMipSTdC_Try1EhfEN7mQHzgvk0ZRI5mwvmJGuYxttzzHihBYTF7_s4c8_2NSBSOXtvs6d1ZYDm00]--></g></svg>