<?xml version="1.0" encoding="us-ascii" standalone="no"?><svg xmlns="http://www.w3.org/2000/svg" xmlns:xlink="http://www.w3.org/1999/xlink" contentStyleType="text/css" height="639.6px" preserveAspectRatio="none" style="width:1228px;height:639px;background:#FFFFFF;" version="1.1" viewBox="0 0 1228 639" width="1228.2px" zoomAndPan="magnify"><defs/><g><!--class MS--><g id="elem_MS"><rect codeLine="12" fill="#F1F1F1" height="77.8359" id="MS" rx="1.5" ry="1.5" style="stroke:#181818;stroke-width:0.3;" width="60.6" x="217.926" y="34.548"/><text fill="#000000" font-family="sans-serif" font-size="8.4" lengthAdjust="spacing" textLength="12" x="242.226" y="46.6125">MS</text><line style="stroke:#181818;stroke-width:0.3;" x1="218.526" x2="277.926" y1="51.7207" y2="51.7207"/><text fill="#000000" font-family="sans-serif" font-size="8.4" lengthAdjust="spacing" textLength="21" x="221.526" y="63.1851">name</text><text fill="#000000" font-family="sans-serif" font-size="8.4" lengthAdjust="spacing" textLength="40.8" x="221.526" y="74.3578">vatNumber</text><text fill="#000000" font-family="sans-serif" font-size="8.4" lengthAdjust="spacing" textLength="28.2" x="221.526" y="85.5304">website</text><text fill="#000000" font-family="sans-serif" font-size="8.4" lengthAdjust="spacing" textLength="53.4" x="221.526" y="96.7031">phoneNumber</text><text fill="#000000" font-family="sans-serif" font-size="8.4" lengthAdjust="spacing" textLength="19.8" x="221.526" y="107.8757">email</text></g><!--class GreenSpace--><g id="elem_GreenSpace"><rect codeLine="21" fill="#F1F1F1" height="33.1453" id="GreenSpace" rx="1.5" ry="1.5" style="stroke:#181818;stroke-width:0.3;" width="51.6" x="270.426" y="483.048"/><text fill="#000000" font-family="sans-serif" font-size="8.4" lengthAdjust="spacing" textLength="48" x="272.226" y="495.1125">GreenSpace</text><line style="stroke:#181818;stroke-width:0.3;" x1="271.026" x2="321.426" y1="500.2207" y2="500.2207"/><text fill="#000000" font-family="sans-serif" font-size="8.4" lengthAdjust="spacing" textLength="14.4" x="274.026" y="511.6851">size</text></g><!--class Garden--><g id="elem_Garden"><rect codeLine="25" fill="#F1F1F1" height="21.9727" id="Garden" rx="1.5" ry="1.5" style="stroke:#181818;stroke-width:0.3;" width="32.4" x="349.026" y="608.148"/><text fill="#000000" font-family="sans-serif" font-size="8.4" lengthAdjust="spacing" textLength="28.8" x="350.826" y="620.2125">Garden</text><line style="stroke:#181818;stroke-width:0.3;" x1="349.626" x2="380.826" y1="625.3207" y2="625.3207"/></g><!--class MediumSizedPark--><g id="elem_MediumSizedPark"><rect codeLine="26" fill="#F1F1F1" height="21.9727" id="MediumSizedPark" rx="1.5" ry="1.5" style="stroke:#181818;stroke-width:0.3;" width="70.8" x="172.626" y="608.148"/><text fill="#000000" font-family="sans-serif" font-size="8.4" lengthAdjust="spacing" textLength="67.2" x="174.426" y="620.2125">MediumSizedPark</text><line style="stroke:#181818;stroke-width:0.3;" x1="173.226" x2="242.826" y1="625.3207" y2="625.3207"/></g><!--class LargeSizedPark--><g id="elem_LargeSizedPark"><rect codeLine="27" fill="#F1F1F1" height="21.9727" id="LargeSizedPark" rx="1.5" ry="1.5" style="stroke:#181818;stroke-width:0.3;" width="63.6" x="264.426" y="608.148"/><text fill="#000000" font-family="sans-serif" font-size="8.4" lengthAdjust="spacing" textLength="60" x="266.226" y="620.2125">LargeSizedPark</text><line style="stroke:#181818;stroke-width:0.3;" x1="265.026" x2="327.426" y1="625.3207" y2="625.3207"/></g><!--class SystemUser--><g id="elem_SystemUser"><rect codeLine="29" fill="#F1F1F1" height="66.6633" id="SystemUser" rx="1.5" ry="1.5" style="stroke:#181818;stroke-width:0.3;" width="48.6" x="404.526" y="40.248"/><text fill="#000000" font-family="sans-serif" font-size="8.4" lengthAdjust="spacing" textLength="45" x="406.326" y="52.3125">SystemUser</text><line style="stroke:#181818;stroke-width:0.3;" x1="405.126" x2="452.526" y1="57.4207" y2="57.4207"/><text fill="#000000" font-family="sans-serif" font-size="8.4" lengthAdjust="spacing" textLength="21" x="408.126" y="68.8851">name</text><text fill="#000000" font-family="sans-serif" font-size="8.4" lengthAdjust="spacing" textLength="19.8" x="408.126" y="80.0578">email</text><text fill="#000000" font-family="sans-serif" font-size="8.4" lengthAdjust="spacing" textLength="36" x="408.126" y="91.2304">password</text><text fill="#000000" font-family="sans-serif" font-size="8.4" lengthAdjust="spacing" textLength="24" x="408.126" y="102.4031">phone</text></g><!--class HRM--><g id="elem_HRM"><rect codeLine="36" fill="#F1F1F1" height="21.9727" id="HRM" rx="1.5" ry="1.5" style="stroke:#181818;stroke-width:0.3;" width="21.6" x="1033.626" y="171.048"/><text fill="#000000" font-family="sans-serif" font-size="8.4" lengthAdjust="spacing" textLength="18" x="1035.426" y="183.1125">HRM</text><line style="stroke:#181818;stroke-width:0.3;" x1="1034.226" x2="1054.626" y1="188.2207" y2="188.2207"/></g><!--class VFM--><g id="elem_VFM"><rect codeLine="38" fill="#F1F1F1" height="21.9727" id="VFM" rx="1.5" ry="1.5" style="stroke:#181818;stroke-width:0.3;" width="21" x="455.526" y="171.048"/><text fill="#000000" font-family="sans-serif" font-size="8.4" lengthAdjust="spacing" textLength="17.4" x="457.326" y="183.1125">VFM</text><line style="stroke:#181818;stroke-width:0.3;" x1="456.126" x2="475.926" y1="188.2207" y2="188.2207"/></g><!--class Collaborator--><g id="elem_Collaborator"><rect codeLine="40" fill="#F1F1F1" height="111.3539" id="Collaborator" rx="1.5" ry="1.5" style="stroke:#181818;stroke-width:0.3;" width="81.6" x="977.226" y="443.748"/><text fill="#000000" font-family="sans-serif" font-size="8.4" lengthAdjust="spacing" textLength="46.8" x="994.626" y="455.8125">Collaborator</text><line style="stroke:#181818;stroke-width:0.3;" x1="977.826" x2="1058.226" y1="460.9207" y2="460.9207"/><text fill="#000000" font-family="sans-serif" font-size="8.4" lengthAdjust="spacing" textLength="21" x="980.826" y="472.3851">name</text><text fill="#000000" font-family="sans-serif" font-size="8.4" lengthAdjust="spacing" textLength="24" x="980.826" y="483.5578">phone</text><text fill="#000000" font-family="sans-serif" font-size="8.4" lengthAdjust="spacing" textLength="33.6" x="980.826" y="494.7304">birthdate</text><text fill="#000000" font-family="sans-serif" font-size="8.4" lengthAdjust="spacing" textLength="55.8" x="980.826" y="505.9031">admissionDate</text><text fill="#000000" font-family="sans-serif" font-size="8.4" lengthAdjust="spacing" textLength="30.6" x="980.826" y="517.0757">address</text><text fill="#000000" font-family="sans-serif" font-size="8.4" lengthAdjust="spacing" textLength="64.2" x="980.826" y="528.2484">idDocumentType</text><text fill="#000000" font-family="sans-serif" font-size="8.4" lengthAdjust="spacing" textLength="74.4" x="980.826" y="539.421">idDocumentNumber</text><text fill="#000000" font-family="sans-serif" font-size="8.4" lengthAdjust="spacing" textLength="22.8" x="980.826" y="550.5937">status</text></g><!--class GSM--><g id="elem_GSM"><rect codeLine="50" fill="#F1F1F1" height="21.9727" id="GSM" rx="1.5" ry="1.5" style="stroke:#181818;stroke-width:0.3;" width="22.2" x="311.526" y="222.348"/><text fill="#000000" font-family="sans-serif" font-size="8.4" lengthAdjust="spacing" textLength="18.6" x="313.326" y="234.4125">GSM</text><line style="stroke:#181818;stroke-width:0.3;" x1="312.126" x2="333.126" y1="239.5207" y2="239.5207"/></g><!--class GSU--><g id="elem_GSU"><rect codeLine="52" fill="#F1F1F1" height="21.9727" id="GSU" rx="1.5" ry="1.5" style="stroke:#181818;stroke-width:0.3;" width="21" x="679.326" y="171.048"/><text fill="#000000" font-family="sans-serif" font-size="8.4" lengthAdjust="spacing" textLength="17.4" x="681.126" y="183.1125">GSU</text><line style="stroke:#181818;stroke-width:0.3;" x1="679.926" x2="699.726" y1="188.2207" y2="188.2207"/></g><!--class Team--><g id="elem_Team"><rect codeLine="56" fill="#F1F1F1" height="44.318" id="Team" rx="1.5" ry="1.5" style="stroke:#181818;stroke-width:0.3;" width="57.6" x="1015.626" y="307.248"/><text fill="#000000" font-family="sans-serif" font-size="8.4" lengthAdjust="spacing" textLength="21.6" x="1033.626" y="319.3125">Team</text><line style="stroke:#181818;stroke-width:0.3;" x1="1016.226" x2="1072.626" y1="324.4207" y2="324.4207"/><text fill="#000000" font-family="sans-serif" font-size="8.4" lengthAdjust="spacing" textLength="48.6" x="1019.226" y="335.8851">minimumSize</text><text fill="#000000" font-family="sans-serif" font-size="8.4" lengthAdjust="spacing" textLength="50.4" x="1019.226" y="347.0578">maximumSize</text></g><!--class Skill--><g id="elem_Skill"><rect codeLine="61" fill="#F1F1F1" height="33.1453" id="Skill" rx="1.5" ry="1.5" style="stroke:#181818;stroke-width:0.3;" width="28.2" x="1101.126" y="483.048"/><text fill="#000000" font-family="sans-serif" font-size="8.4" lengthAdjust="spacing" textLength="15" x="1107.726" y="495.1125">Skill</text><line style="stroke:#181818;stroke-width:0.3;" x1="1101.726" x2="1128.726" y1="500.2207" y2="500.2207"/><text fill="#000000" font-family="sans-serif" font-size="8.4" lengthAdjust="spacing" textLength="21" x="1104.726" y="511.6851">name</text></g><!--class Job--><g id="elem_Job"><rect codeLine="65" fill="#F1F1F1" height="33.1453" id="Job" rx="1.5" ry="1.5" style="stroke:#181818;stroke-width:0.3;" width="28.2" x="1117.926" y="602.748"/><text fill="#000000" font-family="sans-serif" font-size="8.4" lengthAdjust="spacing" textLength="13.2" x="1125.426" y="614.8125">Job</text><line style="stroke:#181818;stroke-width:0.3;" x1="1118.526" x2="1145.526" y1="619.9207" y2="619.9207"/><text fill="#000000" font-family="sans-serif" font-size="8.4" lengthAdjust="spacing" textLength="21" x="1121.526" y="631.3851">name</text></g><!--class Task--><g id="elem_Task"><rect codeLine="69" fill="#F1F1F1" height="44.318" id="Task" rx="1.5" ry="1.5" style="stroke:#181818;stroke-width:0.3;" width="48.6" x="144.726" y="307.248"/><text fill="#000000" font-family="sans-serif" font-size="8.4" lengthAdjust="spacing" textLength="18.6" x="159.726" y="319.3125">Task</text><line style="stroke:#181818;stroke-width:0.3;" x1="145.326" x2="192.726" y1="324.4207" y2="324.4207"/><text fill="#000000" font-family="sans-serif" font-size="8.4" lengthAdjust="spacing" textLength="41.4" x="148.326" y="335.8851">description</text><text fill="#000000" font-family="sans-serif" font-size="8.4" lengthAdjust="spacing" textLength="40.8" x="148.326" y="347.0578">recurrency</text></g><!--class VehicleCheckup--><g id="elem_VehicleCheckup"><rect codeLine="74" fill="#F1F1F1" height="44.318" id="VehicleCheckup" rx="1.5" ry="1.5" style="stroke:#181818;stroke-width:0.3;" width="64.8" x="478.026" y="477.348"/><text fill="#000000" font-family="sans-serif" font-size="8.4" lengthAdjust="spacing" textLength="61.2" x="479.826" y="489.4125">VehicleCheckup</text><line style="stroke:#181818;stroke-width:0.3;" x1="478.626" x2="542.226" y1="494.5207" y2="494.5207"/><text fill="#000000" font-family="sans-serif" font-size="8.4" lengthAdjust="spacing" textLength="16.8" x="481.626" y="505.9851">date</text><text fill="#000000" font-family="sans-serif" font-size="8.4" lengthAdjust="spacing" textLength="43.2" x="481.626" y="517.1578">currentKms</text></g><!--class Vehicle--><g id="elem_Vehicle"><rect codeLine="80" fill="#F1F1F1" height="133.6992" id="Vehicle" rx="1.5" ry="1.5" style="stroke:#181818;stroke-width:0.3;" width="79.8" x="418.926" y="262.548"/><text fill="#000000" font-family="sans-serif" font-size="8.4" lengthAdjust="spacing" textLength="27.6" x="445.026" y="274.6125">Vehicle</text><line style="stroke:#181818;stroke-width:0.3;" x1="419.526" x2="498.126" y1="279.7207" y2="279.7207"/><text fill="#000000" font-family="sans-serif" font-size="8.4" lengthAdjust="spacing" textLength="22.2" x="422.526" y="291.1851">brand</text><text fill="#000000" font-family="sans-serif" font-size="8.4" lengthAdjust="spacing" textLength="22.8" x="422.526" y="302.3578">model</text><text fill="#000000" font-family="sans-serif" font-size="8.4" lengthAdjust="spacing" textLength="34.2" x="422.526" y="313.5304">vehicleID</text><text fill="#000000" font-family="sans-serif" font-size="8.4" lengthAdjust="spacing" textLength="16.2" x="422.526" y="324.7031">type</text><text fill="#000000" font-family="sans-serif" font-size="8.4" lengthAdjust="spacing" textLength="15" x="422.526" y="335.8757">tare</text><text fill="#000000" font-family="sans-serif" font-size="8.4" lengthAdjust="spacing" textLength="47.4" x="422.526" y="347.0484">grossWeight</text><text fill="#000000" font-family="sans-serif" font-size="8.4" lengthAdjust="spacing" textLength="39" x="422.526" y="358.221">currentKm</text><text fill="#000000" font-family="sans-serif" font-size="8.4" lengthAdjust="spacing" textLength="46.8" x="422.526" y="369.3937">registerDate</text><text fill="#000000" font-family="sans-serif" font-size="8.4" lengthAdjust="spacing" textLength="58.2" x="422.526" y="380.5664">acquisitionDate</text><text fill="#000000" font-family="sans-serif" font-size="8.4" lengthAdjust="spacing" textLength="72.6" x="422.526" y="391.739">checkupFrequency</text></g><!--class Machine--><g id="elem_Machine"><rect codeLine="93" fill="#F1F1F1" height="33.1453" id="Machine" rx="1.5" ry="1.5" style="stroke:#181818;stroke-width:0.3;" width="35.4" x="214.326" y="312.948"/><text fill="#000000" font-family="sans-serif" font-size="8.4" lengthAdjust="spacing" textLength="31.8" x="216.126" y="325.0125">Machine</text><line style="stroke:#181818;stroke-width:0.3;" x1="214.926" x2="249.126" y1="330.1207" y2="330.1207"/><text fill="#000000" font-family="sans-serif" font-size="8.4" lengthAdjust="spacing" textLength="21" x="217.926" y="341.5851">name</text></g><!--class Equipment--><g id="elem_Equipment"><rect codeLine="97" fill="#F1F1F1" height="33.1453" id="Equipment" rx="1.5" ry="1.5" style="stroke:#181818;stroke-width:0.3;" width="43.8" x="270.726" y="312.948"/><text fill="#000000" font-family="sans-serif" font-size="8.4" lengthAdjust="spacing" textLength="40.2" x="272.526" y="325.0125">Equipment</text><line style="stroke:#181818;stroke-width:0.3;" x1="271.326" x2="313.926" y1="330.1207" y2="330.1207"/><text fill="#000000" font-family="sans-serif" font-size="8.4" lengthAdjust="spacing" textLength="21" x="274.326" y="341.5851">name</text></g><!--class Agenda--><g id="elem_Agenda"><rect codeLine="101" fill="#F1F1F1" height="21.9727" id="Agenda" rx="1.5" ry="1.5" style="stroke:#181818;stroke-width:0.3;" width="33" x="340.926" y="62.448"/><text fill="#000000" font-family="sans-serif" font-size="8.4" lengthAdjust="spacing" textLength="29.4" x="342.726" y="74.5125">Agenda</text><line style="stroke:#181818;stroke-width:0.3;" x1="341.526" x2="373.326" y1="79.6207" y2="79.6207"/></g><!--class AgendaEntry--><g id="elem_AgendaEntry"><rect codeLine="104" fill="#F1F1F1" height="44.318" id="AgendaEntry" rx="1.5" ry="1.5" style="stroke:#181818;stroke-width:0.3;" width="52.8" x="338.826" y="159.948"/><text fill="#000000" font-family="sans-serif" font-size="8.4" lengthAdjust="spacing" textLength="49.2" x="340.626" y="172.0125">AgendaEntry</text><line style="stroke:#181818;stroke-width:0.3;" x1="339.426" x2="391.026" y1="177.1207" y2="177.1207"/><text fill="#000000" font-family="sans-serif" font-size="8.4" lengthAdjust="spacing" textLength="43.2" x="342.426" y="188.5851">timeInterval</text><text fill="#000000" font-family="sans-serif" font-size="8.4" lengthAdjust="spacing" textLength="16.8" x="342.426" y="199.7578">date</text></g><!--class GreenSpacesUserPortal--><g id="elem_GreenSpacesUserPortal"><rect codeLine="109" fill="#F1F1F1" height="21.9727" id="GreenSpacesUserPortal" rx="1.5" ry="1.5" style="stroke:#181818;stroke-width:0.3;" width="95.4" x="743.526" y="318.348"/><text fill="#000000" font-family="sans-serif" font-size="8.4" lengthAdjust="spacing" textLength="91.8" x="745.326" y="330.4125">GreenSpacesUserPortal</text><line style="stroke:#181818;stroke-width:0.3;" x1="744.126" x2="838.326" y1="335.5207" y2="335.5207"/></g><!--class Comment--><g id="elem_Comment"><rect codeLine="112" fill="#F1F1F1" height="33.1453" id="Comment" rx="1.5" ry="1.5" style="stroke:#181818;stroke-width:0.3;" width="48.6" x="825.126" y="483.048"/><text fill="#000000" font-family="sans-serif" font-size="8.4" lengthAdjust="spacing" textLength="36" x="831.426" y="495.1125">Comment</text><line style="stroke:#181818;stroke-width:0.3;" x1="825.726" x2="873.126" y1="500.2207" y2="500.2207"/><text fill="#000000" font-family="sans-serif" font-size="8.4" lengthAdjust="spacing" textLength="41.4" x="828.726" y="511.6851">description</text></g><!--class Report--><g id="elem_Report"><rect codeLine="115" fill="#F1F1F1" height="33.1453" id="Report" rx="1.5" ry="1.5" style="stroke:#181818;stroke-width:0.3;" width="48.6" x="701.526" y="483.048"/><text fill="#000000" font-family="sans-serif" font-size="8.4" lengthAdjust="spacing" textLength="25.8" x="712.926" y="495.1125">Report</text><line style="stroke:#181818;stroke-width:0.3;" x1="702.126" x2="749.526" y1="500.2207" y2="500.2207"/><text fill="#000000" font-family="sans-serif" font-size="8.4" lengthAdjust="spacing" textLength="41.4" x="705.126" y="511.6851">description</text></g><!--class ToDoList--><g id="elem_ToDoList"><rect codeLine="121" fill="#F1F1F1" height="21.9727" id="ToDoList" rx="1.5" ry="1.5" style="stroke:#181818;stroke-width:0.3;" width="37.8" x="47.526" y="318.348"/><text fill="#000000" font-family="sans-serif" font-size="8.4" lengthAdjust="spacing" textLength="34.2" x="49.326" y="330.4125">ToDoList</text><line style="stroke:#181818;stroke-width:0.3;" x1="48.126" x2="84.726" y1="335.5207" y2="335.5207"/></g><!--reverse link SystemUser to HRM--><g id="link_SystemUser_HRM"><path codeLine="126" d="M463.7893,80.2461 C567.6913,98.3721 961.626,167.1 1033.482,179.64 " fill="none" id="SystemUser-backto-HRM" style="stroke:#181818;stroke-width:0.6;"/><polygon fill="none" points="453.15,78.39,463.1706,83.7925,464.408,76.6996,453.15,78.39" style="stroke:#181818;stroke-width:0.6;"/></g><!--reverse link SystemUser to VFM--><g id="link_SystemUser_VFM"><path codeLine="127" d="M443.7262,117.1607 C451.2922,138.9947 457.212,156.09 462.324,170.862 " fill="none" id="SystemUser-backto-VFM" style="stroke:#181818;stroke-width:0.6;"/><polygon fill="none" points="440.19,106.956,440.3246,118.3394,447.1277,115.982,440.19,106.956" style="stroke:#181818;stroke-width:0.6;"/></g><!--reverse link SystemUser to GSM--><g id="link_SystemUser_GSM"><path codeLine="128" d="M430.8099,117.84 C430.7559,146.868 426.012,177.792 402.426,204.348 C385.464,223.452 371.772,213.426 347.826,222.348 C343.212,224.07 338.184,226.122 333.846,227.958 " fill="none" id="SystemUser-backto-GSM" style="stroke:#181818;stroke-width:0.6;"/><polygon fill="none" points="430.83,107.04,427.2099,117.8333,434.4099,117.8467,430.83,107.04" style="stroke:#181818;stroke-width:0.6;"/></g><!--reverse link SystemUser to GSU--><g id="link_SystemUser_GSU"><path codeLine="129" d="M463.1377,88.2654 C518.1877,110.9154 640.548,161.268 679.116,177.138 " fill="none" id="SystemUser-backto-GSU" style="stroke:#181818;stroke-width:0.6;"/><polygon fill="none" points="453.15,84.156,461.7679,91.5946,464.5074,84.9361,453.15,84.156" style="stroke:#181818;stroke-width:0.6;"/></g><!--reverse link GreenSpace to Garden--><g id="link_GreenSpace_Garden"><path codeLine="131" d="M310.9674,525.4645 C325.2774,550.0345 346.866,587.118 359.028,607.998 " fill="none" id="GreenSpace-backto-Garden" style="stroke:#181818;stroke-width:0.6;"/><polygon fill="none" points="305.532,516.132,307.8566,527.2763,314.0783,523.6527,305.532,516.132" style="stroke:#181818;stroke-width:0.6;"/></g><!--reverse link GreenSpace to MediumSizedPark--><g id="link_GreenSpace_MediumSizedPark"><path codeLine="132" d="M277.8842,524.7945 C259.5902,549.3645 231.498,587.118 215.958,607.998 " fill="none" id="GreenSpace-backto-MediumSizedPark" style="stroke:#181818;stroke-width:0.6;"/><polygon fill="none" points="284.334,516.132,274.9966,522.6446,280.7717,526.9445,284.334,516.132" style="stroke:#181818;stroke-width:0.6;"/></g><!--reverse link GreenSpace to LargeSizedPark--><g id="link_GreenSpace_LargeSizedPark"><path codeLine="133" d="M296.226,526.932 C296.226,551.502 296.226,587.118 296.226,607.998 " fill="none" id="GreenSpace-backto-LargeSizedPark" style="stroke:#181818;stroke-width:0.6;"/><polygon fill="none" points="296.226,516.132,292.626,526.932,299.826,526.932,296.226,516.132" style="stroke:#181818;stroke-width:0.6;"/></g><!--link Task to GreenSpace--><g id="link_Task_GreenSpace"><path codeLine="135" d="M178.71,351.732 C185.076,365.076 194.022,382.266 203.826,396.348 C226.98,429.594 259.83,463.656 279.486,482.97 " fill="none" id="Task-GreenSpace" style="stroke:#181818;stroke-width:0.6;"/><polygon fill="#000000" points="229.6531,422.5147,227.7464,417.1364,224.9492,419.2843,229.6531,422.5147" style="stroke:#000000;stroke-width:0.6;"/><text fill="#000000" font-family="sans-serif" font-size="7.8" lengthAdjust="spacing" textLength="31.8" x="233.226" y="423.365">occurs in</text><text fill="#000000" font-family="sans-serif" font-size="7.8" lengthAdjust="spacing" textLength="4.2" x="175.7661" y="364.7057">1</text><text fill="#000000" font-family="sans-serif" font-size="7.8" lengthAdjust="spacing" textLength="12" x="262.2274" y="476.1773">1..*</text></g><!--link Agenda to AgendaEntry--><g id="link_Agenda_AgendaEntry"><path codeLine="137" d="M358.206,84.84 C359.466,102.24 361.998,137.034 363.648,159.798 " fill="none" id="Agenda-AgendaEntry" style="stroke:#181818;stroke-width:0.6;"/><polygon fill="#000000" points="366.0432,139.3274,367.409,133.7869,363.8915,134.0423,366.0432,139.3274" style="stroke:#000000;stroke-width:0.6;"/><text fill="#000000" font-family="sans-serif" font-size="7.8" lengthAdjust="spacing" textLength="12.6" x="371.226" y="139.565">has</text><text fill="#000000" font-family="sans-serif" font-size="7.8" lengthAdjust="spacing" textLength="4.2" x="353.6513" y="97.7164">1</text><text fill="#000000" font-family="sans-serif" font-size="7.8" lengthAdjust="spacing" textLength="3" x="360.0997" y="153.1483">*</text></g><!--link AgendaEntry to Task--><g id="link_AgendaEntry_Task"><path codeLine="138" d="M338.73,197.778 C333.516,200.28 327.996,202.614 322.626,204.348 C273.57,220.2 247.866,189.618 208.026,222.348 C182.472,243.348 173.658,282.654 170.622,307.188 " fill="none" id="AgendaEntry-Task" style="stroke:#181818;stroke-width:0.6;"/><polygon fill="#000000" points="208.5116,235.1717,214.022,233.6893,212.0983,230.7335,208.5116,235.1717" style="stroke:#000000;stroke-width:0.6;"/><text fill="#000000" font-family="sans-serif" font-size="7.8" lengthAdjust="spacing" textLength="24.6" x="216.426" y="236.765">defines</text><text fill="#000000" font-family="sans-serif" font-size="7.8" lengthAdjust="spacing" textLength="4.2" x="329.7938" y="197.7603">1</text><text fill="#000000" font-family="sans-serif" font-size="7.8" lengthAdjust="spacing" textLength="4.2" x="166.3322" y="300.5543">1</text></g><!--link VFM to Vehicle--><g id="link_VFM_Vehicle"><path codeLine="141" d="M458.832,193.29 C454.044,200.97 448.182,211.824 445.626,222.348 C442.512,235.206 442.14,249.12 443.226,262.518 " fill="none" id="VFM-Vehicle" style="stroke:#181818;stroke-width:0.6;"/><polygon fill="#000000" points="447.9663,236.4619,450.8799,231.5554,447.4395,230.7799,447.9663,236.4619" style="stroke:#000000;stroke-width:0.6;"/><text fill="#000000" font-family="sans-serif" font-size="7.8" lengthAdjust="spacing" textLength="30" x="454.026" y="236.765">registers</text><text fill="#000000" font-family="sans-serif" font-size="7.8" lengthAdjust="spacing" textLength="4.2" x="451.6806" y="206.3316">1</text><text fill="#000000" font-family="sans-serif" font-size="7.8" lengthAdjust="spacing" textLength="3" x="439.0237" y="255.6801">*</text></g><!--link VFM to Machine--><g id="link_VFM_Machine"><path codeLine="142" d="M455.418,187.092 C442.944,192.018 421.518,199.944 402.426,204.348 C371.394,211.506 284.196,201.372 260.226,222.348 C246.702,234.186 237.834,286.074 234.078,312.804 " fill="none" id="VFM-Machine" style="stroke:#181818;stroke-width:0.6;"/><polygon fill="#000000" points="260.6174,235.0169,266.2073,233.87,264.4656,230.8034,260.6174,235.0169" style="stroke:#000000;stroke-width:0.6;"/><text fill="#000000" font-family="sans-serif" font-size="7.8" lengthAdjust="spacing" textLength="31.8" x="268.626" y="236.765">manages</text><text fill="#000000" font-family="sans-serif" font-size="7.8" lengthAdjust="spacing" textLength="4.2" x="444.0275" y="185.3222">1</text><text fill="#000000" font-family="sans-serif" font-size="7.8" lengthAdjust="spacing" textLength="3" x="231.1988" y="306.2677">*</text></g><!--link VFM to Equipment--><g id="link_VFM_Equipment"><path codeLine="143" d="M455.484,192.282 C450.684,196.326 444.798,200.892 439.026,204.348 C421.608,214.788 415.08,213.042 397.026,222.348 C366.498,238.086 355.044,237.996 331.026,262.548 C316.614,277.29 305.574,298.482 299.112,312.912 " fill="none" id="VFM-Equipment" style="stroke:#181818;stroke-width:0.6;"/><polygon fill="#000000" points="397.6507,235.3677,403.0248,233.449,400.8706,230.6567,397.6507,235.3677" style="stroke:#000000;stroke-width:0.6;"/><text fill="#000000" font-family="sans-serif" font-size="7.8" lengthAdjust="spacing" textLength="31.8" x="405.426" y="236.765">manages</text><text fill="#000000" font-family="sans-serif" font-size="7.8" lengthAdjust="spacing" textLength="4.2" x="436.8475" y="204.4613">1</text><text fill="#000000" font-family="sans-serif" font-size="7.8" lengthAdjust="spacing" textLength="3" x="297.265" y="306.1291">*</text></g><!--link Vehicle to VehicleCheckup--><g id="link_Vehicle_VehicleCheckup"><path codeLine="144" d="M479.148,396.558 C487.92,425.268 497.574,456.876 503.808,477.27 " fill="none" id="Vehicle-VehicleCheckup" style="stroke:#181818;stroke-width:0.6;"/><polygon fill="#000000" points="491.5026,423.0044,491.6032,417.2989,488.2304,418.3294,491.5026,423.0044" style="stroke:#000000;stroke-width:0.6;"/><text fill="#000000" font-family="sans-serif" font-size="7.8" lengthAdjust="spacing" textLength="12.6" x="496.026" y="423.365">has</text><text fill="#000000" font-family="sans-serif" font-size="7.8" lengthAdjust="spacing" textLength="4.2" x="468.639" y="409.3837">1</text><text fill="#000000" font-family="sans-serif" font-size="7.8" lengthAdjust="spacing" textLength="12" x="486.9467" y="470.6331">0..*</text></g><!--link VFM to VehicleCheckup--><g id="link_VFM_VehicleCheckup"><path codeLine="145" d="M476.76,184.386 C494.856,187.794 530.976,197.508 546.426,222.348 C572.94,264.954 532.932,419.862 516.732,477.312 " fill="none" id="VFM-VehicleCheckup" style="stroke:#181818;stroke-width:0.6;"/><polygon fill="#000000" points="558.2316,332.5078,559.245,326.8921,555.7507,327.369,558.2316,332.5078" style="stroke:#000000;stroke-width:0.6;"/><text fill="#000000" font-family="sans-serif" font-size="7.8" lengthAdjust="spacing" textLength="30" x="563.226" y="332.765">registers</text><text fill="#000000" font-family="sans-serif" font-size="7.8" lengthAdjust="spacing" textLength="4.2" x="481.4088" y="181.7215">1</text><text fill="#000000" font-family="sans-serif" font-size="7.8" lengthAdjust="spacing" textLength="3" x="514.6181" y="470.5126">*</text></g><!--link GSU to Report--><g id="link_GSU_Report"><path codeLine="146" d="M689.658,193.266 C689.292,224.442 689.28,319.014 700.626,396.348 C705.198,427.47 714.954,462.942 720.894,482.964 " fill="none" id="GSU-Report" style="stroke:#181818;stroke-width:0.6;"/><polygon fill="#000000" points="703.9476,332.518,705.119,326.9332,701.6126,327.3113,703.9476,332.518" style="stroke:#000000;stroke-width:0.6;"/><text fill="#000000" font-family="sans-serif" font-size="7.8" lengthAdjust="spacing" textLength="23.4" x="709.026" y="332.765">makes</text><text fill="#000000" font-family="sans-serif" font-size="7.8" lengthAdjust="spacing" textLength="4.2" x="691.9311" y="206.3008">1</text><text fill="#000000" font-family="sans-serif" font-size="7.8" lengthAdjust="spacing" textLength="12" x="706.366" y="476.17">0..*</text></g><!--link GSU to Comment--><g id="link_GSU_Comment"><path codeLine="147" d="M700.542,184.266 C730.512,189.162 815.28,207.54 849.426,262.548 C893.694,333.858 867.24,442.092 854.802,482.754 " fill="none" id="GSU-Comment" style="stroke:#181818;stroke-width:0.6;"/><polygon fill="#000000" points="878.4034,332.2004,877.4782,326.5696,874.3452,328.1888,878.4034,332.2004" style="stroke:#000000;stroke-width:0.6;"/><text fill="#000000" font-family="sans-serif" font-size="7.8" lengthAdjust="spacing" textLength="23.4" x="882.426" y="332.765">makes</text><text fill="#000000" font-family="sans-serif" font-size="7.8" lengthAdjust="spacing" textLength="4.2" x="709.8561" y="181.7704">1</text><text fill="#000000" font-family="sans-serif" font-size="7.8" lengthAdjust="spacing" textLength="12" x="840.003" y="476.1849">0..*</text></g><!--link GSU to GreenSpacesUserPortal--><g id="link_GSU_GreenSpacesUserPortal"><path codeLine="148" d="M697.122,193.254 C715.782,220.146 765.126,291.24 783.864,318.24 " fill="none" id="GSU-GreenSpacesUserPortal" style="stroke:#181818;stroke-width:0.6;"/><polygon fill="#000000" points="735.9365,235.9999,734.2909,230.536,731.3935,232.5468,735.9365,235.9999" style="stroke:#000000;stroke-width:0.6;"/><text fill="#000000" font-family="sans-serif" font-size="7.8" lengthAdjust="spacing" textLength="16.8" x="739.626" y="236.765">uses</text><text fill="#000000" font-family="sans-serif" font-size="7.8" lengthAdjust="spacing" textLength="4.2" x="705.9146" y="206.2855">1</text><text fill="#000000" font-family="sans-serif" font-size="7.8" lengthAdjust="spacing" textLength="4.2" x="771.2313" y="311.5242">1</text></g><!--link GreenSpacesUserPortal to Report--><g id="link_GreenSpacesUserPortal_Report"><path codeLine="149" d="M787.14,340.614 C776.034,369.282 745.29,448.686 732.036,482.91 " fill="none" id="GreenSpacesUserPortal-Report" style="stroke:#181818;stroke-width:0.6;"/><polygon fill="#000000" points="760.1426,422.9329,763.7468,418.5088,760.4581,417.2353,760.1426,422.9329" style="stroke:#000000;stroke-width:0.6;"/><text fill="#000000" font-family="sans-serif" font-size="7.8" lengthAdjust="spacing" textLength="12.6" x="766.626" y="423.365">has</text><text fill="#000000" font-family="sans-serif" font-size="7.8" lengthAdjust="spacing" textLength="4.2" x="775.8325" y="353.4565">1</text><text fill="#000000" font-family="sans-serif" font-size="7.8" lengthAdjust="spacing" textLength="12" x="734.9694" y="476.375">0..*</text></g><!--link GreenSpacesUserPortal to Comment--><g id="link_GreenSpacesUserPortal_Comment"><path codeLine="150" d="M794.868,340.614 C804.75,369.282 832.11,448.686 843.9,482.91 " fill="none" id="GreenSpacesUserPortal-Comment" style="stroke:#181818;stroke-width:0.6;"/><polygon fill="#000000" points="827.6033,422.9716,827.5025,417.2662,824.1682,418.4151,827.6033,422.9716" style="stroke:#000000;stroke-width:0.6;"/><text fill="#000000" font-family="sans-serif" font-size="7.8" lengthAdjust="spacing" textLength="12.6" x="832.026" y="423.365">has</text><text fill="#000000" font-family="sans-serif" font-size="7.8" lengthAdjust="spacing" textLength="4.2" x="788.3599" y="353.4565">1</text><text fill="#000000" font-family="sans-serif" font-size="7.8" lengthAdjust="spacing" textLength="12" x="826.7162" y="476.375">0..*</text></g><!--link MS to SystemUser--><g id="link_MS_SystemUser"><path codeLine="152" d="M278.55,39.516 C289.308,29.802 302.208,20.466 316.026,15.348 C347.748,3.6 381.984,26.868 404.316,47.382 " fill="none" id="MS-SystemUser" style="stroke:#181818;stroke-width:0.6;"/><polygon fill="#000000" points="322.0201,11.1226,316.7138,9.0239,316.4936,12.5437,322.0201,11.1226" style="stroke:#000000;stroke-width:0.6;"/><text fill="#000000" font-family="sans-serif" font-size="7.8" lengthAdjust="spacing" textLength="12.6" x="324.426" y="14.165">has</text><text fill="#000000" font-family="sans-serif" font-size="7.8" lengthAdjust="spacing" textLength="4.2" x="283.3123" y="32.0104">1</text><text fill="#000000" font-family="sans-serif" font-size="7.8" lengthAdjust="spacing" textLength="3" x="396.683" y="40.0397">*</text></g><!--link MS to Task--><g id="link_MS_Task"><path codeLine="153" d="M217.758,89.49 C192.876,103.896 159.468,128.004 144.426,159.948 C121.392,208.878 143.706,273.882 158.412,307.176 " fill="none" id="MS-Task" style="stroke:#181818;stroke-width:0.6;"/><polygon fill="#000000" points="146.6369,185.1297,149.7656,180.3575,146.3631,179.4299,146.6369,185.1297" style="stroke:#000000;stroke-width:0.6;"/><text fill="#000000" font-family="sans-serif" font-size="7.8" lengthAdjust="spacing" textLength="18" x="152.826" y="185.465">owns</text><text fill="#000000" font-family="sans-serif" font-size="7.8" lengthAdjust="spacing" textLength="4.2" x="204.0592" y="89.1866">1</text><text fill="#000000" font-family="sans-serif" font-size="7.8" lengthAdjust="spacing" textLength="3" x="153.2542" y="300.5402">*</text></g><!--link MS to Machine--><g id="link_MS_Machine"><path codeLine="154" d="M217.806,105.378 C205.116,120.558 191.82,139.842 185.226,159.948 C173.52,195.678 171.18,209.916 185.826,244.548 C190.236,254.97 197.496,253.17 203.826,262.548 C214.464,278.304 222.414,298.722 227.112,312.714 " fill="none" id="MS-Machine" style="stroke:#181818;stroke-width:0.6;"/><polygon fill="#000000" points="188.3605,185.2323,189.8788,179.7316,186.3556,179.8898,188.3605,185.2323" style="stroke:#000000;stroke-width:0.6;"/><text fill="#000000" font-family="sans-serif" font-size="7.8" lengthAdjust="spacing" textLength="12.6" x="193.626" y="185.465">has</text><text fill="#000000" font-family="sans-serif" font-size="7.8" lengthAdjust="spacing" textLength="4.2" x="208.8296" y="107.5458">1</text><text fill="#000000" font-family="sans-serif" font-size="7.8" lengthAdjust="spacing" textLength="3" x="222.7089" y="306.158">*</text></g><!--link MS to Vehicle--><g id="link_MS_Vehicle"><path codeLine="155" d="M258.918,112.77 C268.074,140.574 283.47,177.72 306.426,204.348 C316.14,215.61 322.686,213.486 334.626,222.348 C339.078,225.648 384.222,264.474 418.818,294.306 " fill="none" id="MS-Vehicle" style="stroke:#181818;stroke-width:0.6;"/><polygon fill="#000000" points="311.4089,184.4865,309.145,179.2485,306.4985,181.5796,311.4089,184.4865" style="stroke:#000000;stroke-width:0.6;"/><text fill="#000000" font-family="sans-serif" font-size="7.8" lengthAdjust="spacing" textLength="12.6" x="314.826" y="185.465">has</text><text fill="#000000" font-family="sans-serif" font-size="7.8" lengthAdjust="spacing" textLength="4.2" x="253.0457" y="125.5666">1</text><text fill="#000000" font-family="sans-serif" font-size="7.8" lengthAdjust="spacing" textLength="3" x="411.0186" y="287.8859">*</text></g><!--link MS to Equipment--><g id="link_MS_Equipment"><path codeLine="156" d="M240.312,112.584 C234.732,147.936 230.652,201.276 245.826,244.548 C249.222,254.214 254.748,253.896 260.226,262.548 C270.582,278.892 279.99,299.022 285.972,312.786 " fill="none" id="MS-Equipment" style="stroke:#181818;stroke-width:0.6;"/><polygon fill="#000000" points="240.4931,185.1602,241.0055,179.4769,237.5671,180.2611,240.4931,185.1602" style="stroke:#000000;stroke-width:0.6;"/><text fill="#000000" font-family="sans-serif" font-size="7.8" lengthAdjust="spacing" textLength="12.6" x="245.226" y="185.465">has</text><text fill="#000000" font-family="sans-serif" font-size="7.8" lengthAdjust="spacing" textLength="4.2" x="235.0793" y="125.57">1</text><text fill="#000000" font-family="sans-serif" font-size="7.8" lengthAdjust="spacing" textLength="3" x="281.1883" y="306.2458">*</text></g><!--link Task to Team--><g id="link_Task_Team"><path codeLine="158" d="M174.432,307.194 C179.394,291.918 188.376,272.652 203.826,262.548 C257.064,227.736 425.856,245.484 489.426,243.348 C682.506,236.868 953.85,237.024 999.426,262.548 C1016.772,272.262 1028.718,291.78 1035.924,307.242 " fill="none" id="Task-Team" style="stroke:#181818;stroke-width:0.6;"/><polygon fill="#000000" points="495.426,233.5355,489.999,231.7718,489.9989,235.2985,495.426,233.5355" style="stroke:#000000;stroke-width:0.6;"/><text fill="#000000" font-family="sans-serif" font-size="7.8" lengthAdjust="spacing" textLength="47.4" x="497.826" y="236.765">carried out by</text><text fill="#000000" font-family="sans-serif" font-size="7.8" lengthAdjust="spacing" textLength="4.2" x="175.769" y="300.5614">1</text><text fill="#000000" font-family="sans-serif" font-size="7.8" lengthAdjust="spacing" textLength="4.2" x="1024.5268" y="300.4481">1</text></g><!--link ToDoList to Task--><g id="link_ToDoList_Task"><path codeLine="159" d="M85.488,329.448 C102.174,329.448 126.522,329.448 144.63,329.448 " fill="none" id="ToDoList-Task" style="stroke:#181818;stroke-width:0.6;"/><polygon fill="#000000" points="101.826,322.0353,96.3989,320.2719,96.3989,323.7987,101.826,322.0353" style="stroke:#000000;stroke-width:0.6;"/><text fill="#000000" font-family="sans-serif" font-size="7.8" lengthAdjust="spacing" textLength="29.4" x="104.226" y="325.265">contains</text><text fill="#000000" font-family="sans-serif" font-size="7.8" lengthAdjust="spacing" textLength="4.2" x="90.1172" y="326.5933">1</text><text fill="#000000" font-family="sans-serif" font-size="7.8" lengthAdjust="spacing" textLength="12" x="127.9756" y="338.6656">0..*</text></g><!--link HRM to Collaborator--><g id="link_HRM_Collaborator"><path codeLine="161" d="M1033.464,189.702 C1015.416,201.882 980.1,229.002 966.426,262.548 C943.986,317.616 952.698,338.49 966.426,396.348 C970.224,412.35 976.938,428.7 984.282,443.502 " fill="none" id="HRM-Collaborator" style="stroke:#181818;stroke-width:0.6;"/><polygon fill="#000000" points="968.8553,332.4805,971.6189,327.488,968.1566,326.8171,968.8553,332.4805" style="stroke:#000000;stroke-width:0.6;"/><text fill="#000000" font-family="sans-serif" font-size="7.8" lengthAdjust="spacing" textLength="30" x="974.826" y="332.765">registers</text><text fill="#000000" font-family="sans-serif" font-size="7.8" lengthAdjust="spacing" textLength="4.2" x="1022.1397" y="188.7985">1</text><text fill="#000000" font-family="sans-serif" font-size="7.8" lengthAdjust="spacing" textLength="3" x="978.5836" y="437.0536">*</text></g><!--link HRM to Job--><g id="link_HRM_Job"><path codeLine="162" d="M1055.256,185.838 C1080.444,193.692 1142.514,217.104 1165.026,262.548 C1224.018,381.6 1161.324,550.452 1139.166,602.652 " fill="none" id="HRM-Job" style="stroke:#181818;stroke-width:0.6;"/><polygon fill="#000000" points="1191.4181,423.0763,1192.0757,417.408,1188.6183,418.104,1191.4181,423.0763" style="stroke:#000000;stroke-width:0.6;"/><text fill="#000000" font-family="sans-serif" font-size="7.8" lengthAdjust="spacing" textLength="25.8" x="1196.226" y="423.365">creates</text><text fill="#000000" font-family="sans-serif" font-size="7.8" lengthAdjust="spacing" textLength="4.2" x="1060.1132" y="197.3456">1</text><text fill="#000000" font-family="sans-serif" font-size="7.8" lengthAdjust="spacing" textLength="3" x="1137.4703" y="595.8552">*</text></g><!--link HRM to Skill--><g id="link_HRM_Skill"><path codeLine="163" d="M1055.388,188.334 C1066.83,194.808 1084.224,206.646 1092.426,222.348 C1138.908,311.274 1124.856,438.558 1117.998,482.952 " fill="none" id="HRM-Skill" style="stroke:#181818;stroke-width:0.6;"/><polygon fill="#000000" points="1129.0496,332.4698,1129.6463,326.7947,1126.1967,327.5278,1129.0496,332.4698" style="stroke:#000000;stroke-width:0.6;"/><text fill="#000000" font-family="sans-serif" font-size="7.8" lengthAdjust="spacing" textLength="25.8" x="1133.826" y="332.765">creates</text><text fill="#000000" font-family="sans-serif" font-size="7.8" lengthAdjust="spacing" textLength="4.2" x="1060.1123" y="186.9773">1</text><text fill="#000000" font-family="sans-serif" font-size="7.8" lengthAdjust="spacing" textLength="3" x="1115.2922" y="476.1552">*</text></g><!--link HRM to Team--><g id="link_HRM_Team"><path codeLine="164" d="M1044.426,193.254 C1044.426,217.008 1044.426,275.238 1044.426,307.116 " fill="none" id="HRM-Team" style="stroke:#181818;stroke-width:0.6;"/><polygon fill="#000000" points="1047.426,236.5353,1049.1894,231.1083,1045.6626,231.1083,1047.426,236.5353" style="stroke:#000000;stroke-width:0.6;"/><text fill="#000000" font-family="sans-serif" font-size="7.8" lengthAdjust="spacing" textLength="34.2" x="1052.826" y="236.765">generates</text><text fill="#000000" font-family="sans-serif" font-size="7.8" lengthAdjust="spacing" textLength="4.2" x="1036.8979" y="206.2855">1</text><text fill="#000000" font-family="sans-serif" font-size="7.8" lengthAdjust="spacing" textLength="3" x="1041.1588" y="300.4695">*</text></g><!--link Team to Collaborator--><g id="link_Team_Collaborator"><path codeLine="165" d="M1039.812,351.81 C1036.32,368.79 1031.562,393 1028.226,414.348 C1026.756,423.774 1025.376,433.824 1024.14,443.58 " fill="none" id="Team-Collaborator" style="stroke:#181818;stroke-width:0.6;"/><polygon fill="#000000" points="1030.721,423.0925,1033.3728,418.0397,1029.8964,417.446,1030.721,423.0925" style="stroke:#000000;stroke-width:0.6;"/><text fill="#000000" font-family="sans-serif" font-size="7.8" lengthAdjust="spacing" textLength="12.6" x="1036.626" y="423.365">has</text><text fill="#000000" font-family="sans-serif" font-size="7.8" lengthAdjust="spacing" textLength="4.2" x="1031.9012" y="364.7966">1</text><text fill="#000000" font-family="sans-serif" font-size="7.8" lengthAdjust="spacing" textLength="3" x="1021.5077" y="436.9474">*</text></g><!--link Collaborator to Skill--><g id="link_Collaborator_Skill"><path codeLine="166" d="M1058.97,499.548 C1073.91,499.548 1089.846,499.548 1100.928,499.548 " fill="none" id="Collaborator-Skill" style="stroke:#181818;stroke-width:0.6;"/><polygon fill="#000000" points="1075.176,492.1353,1069.7489,490.3719,1069.7489,493.8987,1075.176,492.1353" style="stroke:#000000;stroke-width:0.6;"/><text fill="#000000" font-family="sans-serif" font-size="7.8" lengthAdjust="spacing" textLength="12.6" x="1077.576" y="495.365">has</text><text fill="#000000" font-family="sans-serif" font-size="7.8" lengthAdjust="spacing" textLength="4.2" x="1063.6779" y="497.2302">1</text><text fill="#000000" font-family="sans-serif" font-size="7.8" lengthAdjust="spacing" textLength="12" x="1084.2341" y="509.1478">0..*</text></g><!--link Collaborator to Job--><g id="link_Collaborator_Job"><path codeLine="167" d="M1058.862,542.592 C1079.436,563.976 1103.07,588.546 1117.776,603.834 " fill="none" id="Collaborator-Job" style="stroke:#181818;stroke-width:0.6;"/><polygon fill="#000000" points="1102.9058,581.2973,1100.4142,576.1637,1097.8726,578.6087,1102.9058,581.2973" style="stroke:#000000;stroke-width:0.6;"/><text fill="#000000" font-family="sans-serif" font-size="7.8" lengthAdjust="spacing" textLength="12.6" x="1106.226" y="582.365">has</text><text fill="#000000" font-family="sans-serif" font-size="7.8" lengthAdjust="spacing" textLength="4.2" x="1063.6894" y="544.9821">1</text><text fill="#000000" font-family="sans-serif" font-size="7.8" lengthAdjust="spacing" textLength="4.2" x="1108.9776" y="596.2855">1</text></g><!--link MS to Agenda--><g id="link_MS_Agenda"><path codeLine="168" d="M278.646,73.548 C298.776,73.548 324.408,73.548 340.866,73.548 " fill="none" id="MS-Agenda" style="stroke:#181818;stroke-width:0.6;"/><polygon fill="#000000" points="304.926,66.1353,299.4989,64.3719,299.4989,67.8987,304.926,66.1353" style="stroke:#000000;stroke-width:0.6;"/><text fill="#000000" font-family="sans-serif" font-size="7.8" lengthAdjust="spacing" textLength="12.6" x="307.326" y="69.365">has</text><text fill="#000000" font-family="sans-serif" font-size="7.8" lengthAdjust="spacing" textLength="4.2" x="283.4224" y="71.0408">1</text><text fill="#000000" font-family="sans-serif" font-size="7.8" lengthAdjust="spacing" textLength="4.2" x="331.8844" y="70.5096">1</text></g><!--link MS to GreenSpace--><g id="link_MS_GreenSpace"><path codeLine="169" d="M217.878,88.86 C167.574,115.296 69.264,176.244 37.026,262.548 C16.218,318.258 3.6,347.166 37.026,396.348 C90.756,475.404 215.856,493.542 270.228,497.706 " fill="none" id="MS-GreenSpace" style="stroke:#181818;stroke-width:0.6;"/><polygon fill="#000000" points="60.207,236.511,61.2668,230.904,57.7687,231.3519,60.207,236.511" style="stroke:#000000;stroke-width:0.6;"/><text fill="#000000" font-family="sans-serif" font-size="7.8" lengthAdjust="spacing" textLength="31.8" x="65.226" y="236.765">manages</text><text fill="#000000" font-family="sans-serif" font-size="7.8" lengthAdjust="spacing" textLength="4.2" x="199.3056" y="99.914">1</text><text fill="#000000" font-family="sans-serif" font-size="7.8" lengthAdjust="spacing" textLength="3" x="262.6736" y="494.7756">*</text></g><!--link GSU to GreenSpace--><g id="link_GSU_GreenSpace"><path codeLine="170" d="M685.524,193.494 C668.55,235.788 606.78,388.794 598.626,396.348 C593.31,401.274 394.65,466.698 322.266,490.428 " fill="none" id="GSU-GreenSpace" style="stroke:#181818;stroke-width:0.6;"/><polygon fill="#000000" points="656.9033,331.434,662.2211,329.3645,659.9891,326.634,656.9033,331.434" style="stroke:#000000;stroke-width:0.6;"/><text fill="#000000" font-family="sans-serif" font-size="7.8" lengthAdjust="spacing" textLength="16.8" x="664.626" y="332.765">uses</text><text fill="#000000" font-family="sans-serif" font-size="7.8" lengthAdjust="spacing" textLength="4.2" x="671.561" y="206.1768">1</text><text fill="#000000" font-family="sans-serif" font-size="7.8" lengthAdjust="spacing" textLength="3" x="326.8273" y="486.2922">*</text></g><!--link GSM to GreenSpace--><g id="link_GSM_GreenSpace"><path codeLine="171" d="M323.874,244.56 C326.718,270.492 332.85,339.54 325.026,396.348 C320.712,427.686 309.312,462.936 302.22,482.892 " fill="none" id="GSM-GreenSpace" style="stroke:#181818;stroke-width:0.6;"/><polygon fill="#000000" points="331.9545,332.523,334.2017,327.2778,330.6895,326.9587,331.9545,332.523" style="stroke:#000000;stroke-width:0.6;"/><text fill="#000000" font-family="sans-serif" font-size="7.8" lengthAdjust="spacing" textLength="31.8" x="337.626" y="332.765">manages</text><text fill="#000000" font-family="sans-serif" font-size="7.8" lengthAdjust="spacing" textLength="4.2" x="316.6969" y="257.5931">1</text><text fill="#000000" font-family="sans-serif" font-size="7.8" lengthAdjust="spacing" textLength="3" x="300.2031" y="476.3531">*</text></g><!--link Team to Skill--><g id="link_Team_Skill"><path codeLine="172" d="M1051.164,351.834 C1057.44,371.436 1067.406,400.896 1078.026,425.748 C1086.654,445.932 1098.366,468.324 1106.328,482.958 " fill="none" id="Team-Skill" style="stroke:#181818;stroke-width:0.6;"/><polygon fill="#000000" points="1082.1893,422.9006,1081.7102,417.2144,1078.4595,418.582,1082.1893,422.9006" style="stroke:#000000;stroke-width:0.6;"/><text fill="#000000" font-family="sans-serif" font-size="7.8" lengthAdjust="spacing" textLength="12.6" x="1086.426" y="423.365">has</text><text fill="#000000" font-family="sans-serif" font-size="7.8" lengthAdjust="spacing" textLength="4.2" x="1045.1334" y="364.8246">1</text><text fill="#000000" font-family="sans-serif" font-size="7.8" lengthAdjust="spacing" textLength="3" x="1100.9235" y="476.1626">*</text></g><!--SRC=[VLLDRzim3BthLmY-51ZGehaQGu6YN-lM34NTRcVPPcCXbfHAShEistyV9LcsuZZB9JBvI3sHZv9PSxbXcWagb5HLevK0QdK7n0oU3QlMR0M5tRL0DLIMoLMR0ap3QhNbSaLVMMk0d8okbakmkmrGfMsZo4aBhvPQHJLVDPRMtANZIYR9gfOPSscjvcLduRvIik2_WPwJXjT0AwuhtDkl1M3AsX3y-I2wBEW7eVYJJ81Vl3FxlHCbQF-rXT9m6poRHab8V20ORmdv6tFTQG1PuD6XpscGHU9ckWOPzuMQTyBHh1-PNlVM1wQnQ8EnjnOxOq6y6D1Jhe61vuR0hTBrIDGH2_5VdfOO6Bz-tAPVLwfjMQaqi-eWUqZZLYN7LjIihmEh1JS6Mt0zMceDnlWrhwzLrGcGzXcRE34brJEMsSuCHEwAbDPTyUA_OWcU0TlyGGINN8Io4S5-3UkXniMQjsrwZi7pLPMpzcTcrhsZ1bDfll7YSjyej4vhaDLkXF-0XgEQhXgerjq60qDaB4G8iD-4EGW9cvIQITyaeMhmhNiFxljhzs7xabcc_VzAAsD-WbC-ITCJJs_5KHWwTe5LRnr7iIQDgGBDMmrltVuvbgngSCvcItA3UJQkMxFUonN8ceNkf9ORQVMkZx1SmBr4Rk-i7GiqCoZ6gVeH1vsrIS8h9TpsXrs9ydY23SRC-KV5g6lrWFNvy0DAaXdw_EVqrCt4WGqduy26ifonlH2I37imXkcUcgTpFlLF9zxBCLja57tPukpiKvPUApbL5Mh0K2xf1I5zAo8SiMahSjemWx3KDcJEWl1pBDyhwi3X275NGqR7R56v-Q0rXmiekg03Beeffu99lFRtKFWRWAEozg3zDjbYm9xZoMasdRPu8fyxsVy0bjB5RWKUO-Qi5v0ZiOOZ85psEZmAyujPCUUKTYQ4pBdxq6IhG6WuuT6eENv35C7Np7VOLoMHRGHulz_P8vm4K59REVYYP-ne6XYzeouIRtIcFUvfZQBkjtVNUUxk9wOrXvggpj9oXuOB4kSsuaE_0bDys2tZdYrnZrggWRs7R5y1KwXx2Z2P1hoKvlpX4VaVmZz7ESN10jr3lEaOeLY9FP9x1_Hx7e7HOMO3ysdH5t7kftqUEptgAHqy9-V54LIKRx5CEp-Vv-3iwMd-0G00]--></g></svg>