<?xml version="1.0" encoding="us-ascii" standalone="no"?><svg xmlns="http://www.w3.org/2000/svg" xmlns:xlink="http://www.w3.org/1999/xlink" contentStyleType="text/css" height="313.8px" preserveAspectRatio="none" style="width:606px;height:313px;background:#FFFFFF;" version="1.1" viewBox="0 0 606 313" width="606.9px" zoomAndPan="magnify"><defs/><g><!--class MS--><g id="elem_MS"><rect codeLine="12" fill="#F1F1F1" height="38.918" id="MS" rx="0.75" ry="0.75" style="stroke:#181818;stroke-width:0.15;" width="30.3" x="184.2" y="16.7288"/><text fill="#000000" font-family="sans-serif" font-size="4.2" lengthAdjust="spacing" textLength="6" x="196.35" y="22.761">MS</text><line style="stroke:#181818;stroke-width:0.15;" x1="184.5" x2="214.2" y1="25.3151" y2="25.3151"/><text fill="#000000" font-family="sans-serif" font-size="4.2" lengthAdjust="spacing" textLength="10.5" x="186" y="31.0474">name</text><text fill="#000000" font-family="sans-serif" font-size="4.2" lengthAdjust="spacing" textLength="20.4" x="186" y="36.6337">vatNumber</text><text fill="#000000" font-family="sans-serif" font-size="4.2" lengthAdjust="spacing" textLength="14.1" x="186" y="42.22">website</text><text fill="#000000" font-family="sans-serif" font-size="4.2" lengthAdjust="spacing" textLength="26.7" x="186" y="47.8063">phoneNumber</text><text fill="#000000" font-family="sans-serif" font-size="4.2" lengthAdjust="spacing" textLength="9.9" x="186" y="53.3927">email</text></g><!--class GreenSpace--><g id="elem_GreenSpace"><rect codeLine="21" fill="#F1F1F1" height="16.5727" id="GreenSpace" rx="0.75" ry="0.75" style="stroke:#181818;stroke-width:0.15;" width="25.8" x="227.85" y="238.1288"/><text fill="#000000" font-family="sans-serif" font-size="4.2" lengthAdjust="spacing" textLength="24" x="228.75" y="244.161">GreenSpace</text><line style="stroke:#181818;stroke-width:0.15;" x1="228.15" x2="253.35" y1="246.7151" y2="246.7151"/><text fill="#000000" font-family="sans-serif" font-size="4.2" lengthAdjust="spacing" textLength="7.2" x="229.65" y="252.4474">size</text></g><!--class Garden--><g id="elem_Garden"><rect codeLine="25" fill="#F1F1F1" height="10.9863" id="Garden" rx="0.75" ry="0.75" style="stroke:#181818;stroke-width:0.15;" width="16.2" x="196.35" y="297.8288"/><text fill="#000000" font-family="sans-serif" font-size="4.2" lengthAdjust="spacing" textLength="14.4" x="197.25" y="303.861">Garden</text><line style="stroke:#181818;stroke-width:0.15;" x1="196.65" x2="212.25" y1="306.4151" y2="306.4151"/></g><!--class MediumSizedPark--><g id="elem_MediumSizedPark"><rect codeLine="26" fill="#F1F1F1" height="10.9863" id="MediumSizedPark" rx="0.75" ry="0.75" style="stroke:#181818;stroke-width:0.15;" width="35.4" x="223.05" y="297.8288"/><text fill="#000000" font-family="sans-serif" font-size="4.2" lengthAdjust="spacing" textLength="33.6" x="223.95" y="303.861">MediumSizedPark</text><line style="stroke:#181818;stroke-width:0.15;" x1="223.35" x2="258.15" y1="306.4151" y2="306.4151"/></g><!--class LargeSizedPark--><g id="elem_LargeSizedPark"><rect codeLine="27" fill="#F1F1F1" height="10.9863" id="LargeSizedPark" rx="0.75" ry="0.75" style="stroke:#181818;stroke-width:0.15;" width="31.8" x="268.95" y="297.8288"/><text fill="#000000" font-family="sans-serif" font-size="4.2" lengthAdjust="spacing" textLength="30" x="269.85" y="303.861">LargeSizedPark</text><line style="stroke:#181818;stroke-width:0.15;" x1="269.25" x2="300.45" y1="306.4151" y2="306.4151"/></g><!--class SystemUser--><g id="elem_SystemUser"><rect codeLine="29" fill="#F1F1F1" height="33.3316" id="SystemUser" rx="0.75" ry="0.75" style="stroke:#181818;stroke-width:0.15;" width="24.3" x="235.8" y="19.5788"/><text fill="#000000" font-family="sans-serif" font-size="4.2" lengthAdjust="spacing" textLength="22.5" x="236.7" y="25.611">SystemUser</text><line style="stroke:#181818;stroke-width:0.15;" x1="236.1" x2="259.8" y1="28.1651" y2="28.1651"/><text fill="#000000" font-family="sans-serif" font-size="4.2" lengthAdjust="spacing" textLength="10.5" x="237.6" y="33.8974">name</text><text fill="#000000" font-family="sans-serif" font-size="4.2" lengthAdjust="spacing" textLength="9.9" x="237.6" y="39.4837">email</text><text fill="#000000" font-family="sans-serif" font-size="4.2" lengthAdjust="spacing" textLength="18" x="237.6" y="45.07">password</text><text fill="#000000" font-family="sans-serif" font-size="4.2" lengthAdjust="spacing" textLength="12" x="237.6" y="50.6563">phone</text></g><!--class HRM--><g id="elem_HRM"><rect codeLine="36" fill="#F1F1F1" height="10.9863" id="HRM" rx="0.75" ry="0.75" style="stroke:#181818;stroke-width:0.15;" width="10.8" x="392.55" y="84.9788"/><text fill="#000000" font-family="sans-serif" font-size="4.2" lengthAdjust="spacing" textLength="9" x="393.45" y="91.011">HRM</text><line style="stroke:#181818;stroke-width:0.15;" x1="392.85" x2="403.05" y1="93.5651" y2="93.5651"/></g><!--class VFM--><g id="elem_VFM"><rect codeLine="38" fill="#F1F1F1" height="10.9863" id="VFM" rx="0.75" ry="0.75" style="stroke:#181818;stroke-width:0.15;" width="10.5" x="153.9" y="84.9788"/><text fill="#000000" font-family="sans-serif" font-size="4.2" lengthAdjust="spacing" textLength="8.7" x="154.8" y="91.011">VFM</text><line style="stroke:#181818;stroke-width:0.15;" x1="154.2" x2="164.1" y1="93.5651" y2="93.5651"/></g><!--class Collaborator--><g id="elem_Collaborator"><rect codeLine="40" fill="#F1F1F1" height="50.0906" id="Collaborator" rx="0.75" ry="0.75" style="stroke:#181818;stroke-width:0.15;" width="40.8" x="379.05" y="221.3288"/><text fill="#000000" font-family="sans-serif" font-size="4.2" lengthAdjust="spacing" textLength="23.4" x="387.75" y="227.361">Collaborator</text><line style="stroke:#181818;stroke-width:0.15;" x1="379.35" x2="419.55" y1="229.9151" y2="229.9151"/><text fill="#000000" font-family="sans-serif" font-size="4.2" lengthAdjust="spacing" textLength="10.5" x="380.85" y="235.6474">name</text><text fill="#000000" font-family="sans-serif" font-size="4.2" lengthAdjust="spacing" textLength="12" x="380.85" y="241.2337">phone</text><text fill="#000000" font-family="sans-serif" font-size="4.2" lengthAdjust="spacing" textLength="16.8" x="380.85" y="246.82">birthdate</text><text fill="#000000" font-family="sans-serif" font-size="4.2" lengthAdjust="spacing" textLength="27.9" x="380.85" y="252.4063">admissionDate</text><text fill="#000000" font-family="sans-serif" font-size="4.2" lengthAdjust="spacing" textLength="15.3" x="380.85" y="257.9927">address</text><text fill="#000000" font-family="sans-serif" font-size="4.2" lengthAdjust="spacing" textLength="32.1" x="380.85" y="263.579">idDocumentType</text><text fill="#000000" font-family="sans-serif" font-size="4.2" lengthAdjust="spacing" textLength="37.2" x="380.85" y="269.1653">idDocumentNumber</text></g><!--class GSM--><g id="elem_GSM"><rect codeLine="49" fill="#F1F1F1" height="10.9863" id="GSM" rx="0.75" ry="0.75" style="stroke:#181818;stroke-width:0.15;" width="11.1" x="222.6" y="110.6288"/><text fill="#000000" font-family="sans-serif" font-size="4.2" lengthAdjust="spacing" textLength="9.3" x="223.5" y="116.661">GSM</text><line style="stroke:#181818;stroke-width:0.15;" x1="222.9" x2="233.4" y1="119.2151" y2="119.2151"/></g><!--class GSU--><g id="elem_GSU"><rect codeLine="51" fill="#F1F1F1" height="10.9863" id="GSU" rx="0.75" ry="0.75" style="stroke:#181818;stroke-width:0.15;" width="10.5" x="493.8" y="84.9788"/><text fill="#000000" font-family="sans-serif" font-size="4.2" lengthAdjust="spacing" textLength="8.7" x="494.7" y="91.011">GSU</text><line style="stroke:#181818;stroke-width:0.15;" x1="494.1" x2="504" y1="93.5651" y2="93.5651"/></g><!--class Team--><g id="elem_Team"><rect codeLine="56" fill="#F1F1F1" height="22.159" id="Team" rx="0.75" ry="0.75" style="stroke:#181818;stroke-width:0.15;" width="28.8" x="427.95" y="153.0788"/><text fill="#000000" font-family="sans-serif" font-size="4.2" lengthAdjust="spacing" textLength="10.8" x="436.95" y="159.111">Team</text><line style="stroke:#181818;stroke-width:0.15;" x1="428.25" x2="456.45" y1="161.6651" y2="161.6651"/><text fill="#000000" font-family="sans-serif" font-size="4.2" lengthAdjust="spacing" textLength="24.3" x="429.75" y="167.3974">minimumSize</text><text fill="#000000" font-family="sans-serif" font-size="4.2" lengthAdjust="spacing" textLength="25.2" x="429.75" y="172.9837">maximumSize</text></g><!--class Skill--><g id="elem_Skill"><rect codeLine="61" fill="#F1F1F1" height="16.5727" id="Skill" rx="0.75" ry="0.75" style="stroke:#181818;stroke-width:0.15;" width="14.1" x="435.3" y="295.1288"/><text fill="#000000" font-family="sans-serif" font-size="4.2" lengthAdjust="spacing" textLength="7.5" x="438.6" y="301.161">Skill</text><line style="stroke:#181818;stroke-width:0.15;" x1="435.6" x2="449.1" y1="303.7151" y2="303.7151"/><text fill="#000000" font-family="sans-serif" font-size="4.2" lengthAdjust="spacing" textLength="10.5" x="437.1" y="309.4474">name</text></g><!--class Job--><g id="elem_Job"><rect codeLine="65" fill="#F1F1F1" height="16.5727" id="Job" rx="0.75" ry="0.75" style="stroke:#181818;stroke-width:0.15;" width="14.1" x="351" y="295.1288"/><text fill="#000000" font-family="sans-serif" font-size="4.2" lengthAdjust="spacing" textLength="6.6" x="354.75" y="301.161">Job</text><line style="stroke:#181818;stroke-width:0.15;" x1="351.3" x2="364.8" y1="303.7151" y2="303.7151"/><text fill="#000000" font-family="sans-serif" font-size="4.2" lengthAdjust="spacing" textLength="10.5" x="352.8" y="309.4474">name</text></g><!--class Task--><g id="elem_Task"><rect codeLine="69" fill="#F1F1F1" height="22.159" id="Task" rx="0.75" ry="0.75" style="stroke:#181818;stroke-width:0.15;" width="24.3" x="297.3" y="153.0788"/><text fill="#000000" font-family="sans-serif" font-size="4.2" lengthAdjust="spacing" textLength="9.3" x="304.8" y="159.111">Task</text><line style="stroke:#181818;stroke-width:0.15;" x1="297.6" x2="321.3" y1="161.6651" y2="161.6651"/><text fill="#000000" font-family="sans-serif" font-size="4.2" lengthAdjust="spacing" textLength="20.7" x="299.1" y="167.3974">description</text><text fill="#000000" font-family="sans-serif" font-size="4.2" lengthAdjust="spacing" textLength="20.4" x="299.1" y="172.9837">recurrency</text></g><!--class VehicleCheckup--><g id="elem_VehicleCheckup"><rect codeLine="74" fill="#F1F1F1" height="22.159" id="VehicleCheckup" rx="0.75" ry="0.75" style="stroke:#181818;stroke-width:0.15;" width="32.4" x="73.05" y="235.2788"/><text fill="#000000" font-family="sans-serif" font-size="4.2" lengthAdjust="spacing" textLength="30.6" x="73.95" y="241.311">VehicleCheckup</text><line style="stroke:#181818;stroke-width:0.15;" x1="73.35" x2="105.15" y1="243.8651" y2="243.8651"/><text fill="#000000" font-family="sans-serif" font-size="4.2" lengthAdjust="spacing" textLength="8.4" x="74.85" y="249.5974">date</text><text fill="#000000" font-family="sans-serif" font-size="4.2" lengthAdjust="spacing" textLength="21.6" x="74.85" y="255.1837">currentKms</text></g><!--class Vehicle--><g id="elem_Vehicle"><rect codeLine="80" fill="#F1F1F1" height="66.8496" id="Vehicle" rx="0.75" ry="0.75" style="stroke:#181818;stroke-width:0.15;" width="39.9" x="2.1" y="130.7288"/><text fill="#000000" font-family="sans-serif" font-size="4.2" lengthAdjust="spacing" textLength="13.8" x="15.15" y="136.761">Vehicle</text><line style="stroke:#181818;stroke-width:0.15;" x1="2.4" x2="41.7" y1="139.3151" y2="139.3151"/><text fill="#000000" font-family="sans-serif" font-size="4.2" lengthAdjust="spacing" textLength="11.1" x="3.9" y="145.0474">brand</text><text fill="#000000" font-family="sans-serif" font-size="4.2" lengthAdjust="spacing" textLength="11.4" x="3.9" y="150.6337">model</text><text fill="#000000" font-family="sans-serif" font-size="4.2" lengthAdjust="spacing" textLength="17.1" x="3.9" y="156.22">vehicleID</text><text fill="#000000" font-family="sans-serif" font-size="4.2" lengthAdjust="spacing" textLength="8.1" x="3.9" y="161.8063">type</text><text fill="#000000" font-family="sans-serif" font-size="4.2" lengthAdjust="spacing" textLength="7.5" x="3.9" y="167.3927">tare</text><text fill="#000000" font-family="sans-serif" font-size="4.2" lengthAdjust="spacing" textLength="23.7" x="3.9" y="172.979">grossWeight</text><text fill="#000000" font-family="sans-serif" font-size="4.2" lengthAdjust="spacing" textLength="19.5" x="3.9" y="178.5653">currentKm</text><text fill="#000000" font-family="sans-serif" font-size="4.2" lengthAdjust="spacing" textLength="23.4" x="3.9" y="184.1517">registerDate</text><text fill="#000000" font-family="sans-serif" font-size="4.2" lengthAdjust="spacing" textLength="29.1" x="3.9" y="189.738">acquisitionDate</text><text fill="#000000" font-family="sans-serif" font-size="4.2" lengthAdjust="spacing" textLength="36.3" x="3.9" y="195.3243">checkupFrequency</text></g><!--class Machine--><g id="elem_Machine"><rect codeLine="93" fill="#F1F1F1" height="16.5727" id="Machine" rx="0.75" ry="0.75" style="stroke:#181818;stroke-width:0.15;" width="17.7" x="105.6" y="155.9288"/><text fill="#000000" font-family="sans-serif" font-size="4.2" lengthAdjust="spacing" textLength="15.9" x="106.5" y="161.961">Machine</text><line style="stroke:#181818;stroke-width:0.15;" x1="105.9" x2="123" y1="164.5151" y2="164.5151"/><text fill="#000000" font-family="sans-serif" font-size="4.2" lengthAdjust="spacing" textLength="10.5" x="107.4" y="170.2474">name</text></g><!--class Equipment--><g id="elem_Equipment"><rect codeLine="97" fill="#F1F1F1" height="16.5727" id="Equipment" rx="0.75" ry="0.75" style="stroke:#181818;stroke-width:0.15;" width="21.9" x="174.6" y="155.9288"/><text fill="#000000" font-family="sans-serif" font-size="4.2" lengthAdjust="spacing" textLength="20.1" x="175.5" y="161.961">Equipment</text><line style="stroke:#181818;stroke-width:0.15;" x1="174.9" x2="196.2" y1="164.5151" y2="164.5151"/><text fill="#000000" font-family="sans-serif" font-size="4.2" lengthAdjust="spacing" textLength="10.5" x="176.4" y="170.2474">name</text></g><!--class Agenda--><g id="elem_Agenda"><rect codeLine="101" fill="#F1F1F1" height="10.9863" id="Agenda" rx="0.75" ry="0.75" style="stroke:#181818;stroke-width:0.15;" width="16.5" x="270.6" y="30.6788"/><text fill="#000000" font-family="sans-serif" font-size="4.2" lengthAdjust="spacing" textLength="14.7" x="271.5" y="36.711">Agenda</text><line style="stroke:#181818;stroke-width:0.15;" x1="270.9" x2="286.8" y1="39.2651" y2="39.2651"/></g><!--class AgendaEntry--><g id="elem_AgendaEntry"><rect codeLine="104" fill="#F1F1F1" height="22.159" id="AgendaEntry" rx="0.75" ry="0.75" style="stroke:#181818;stroke-width:0.15;" width="26.4" x="293.25" y="79.4288"/><text fill="#000000" font-family="sans-serif" font-size="4.2" lengthAdjust="spacing" textLength="24.6" x="294.15" y="85.461">AgendaEntry</text><line style="stroke:#181818;stroke-width:0.15;" x1="293.55" x2="319.35" y1="88.0151" y2="88.0151"/><text fill="#000000" font-family="sans-serif" font-size="4.2" lengthAdjust="spacing" textLength="21.6" x="295.05" y="93.7474">timeInterval</text><text fill="#000000" font-family="sans-serif" font-size="4.2" lengthAdjust="spacing" textLength="8.4" x="295.05" y="99.3337">date</text></g><!--class GreenSpacesUserPortal--><g id="elem_GreenSpacesUserPortal"><rect codeLine="109" fill="#F1F1F1" height="10.9863" id="GreenSpacesUserPortal" rx="0.75" ry="0.75" style="stroke:#181818;stroke-width:0.15;" width="47.7" x="525.9" y="158.6288"/><text fill="#000000" font-family="sans-serif" font-size="4.2" lengthAdjust="spacing" textLength="45.9" x="526.8" y="164.661">GreenSpacesUserPortal</text><line style="stroke:#181818;stroke-width:0.15;" x1="526.2" x2="573.3" y1="167.2151" y2="167.2151"/></g><!--class Comment--><g id="elem_Comment"><rect codeLine="112" fill="#F1F1F1" height="16.5727" id="Comment" rx="0.75" ry="0.75" style="stroke:#181818;stroke-width:0.15;" width="24.3" x="558" y="238.1288"/><text fill="#000000" font-family="sans-serif" font-size="4.2" lengthAdjust="spacing" textLength="18" x="561.15" y="244.161">Comment</text><line style="stroke:#181818;stroke-width:0.15;" x1="558.3" x2="582" y1="246.7151" y2="246.7151"/><text fill="#000000" font-family="sans-serif" font-size="4.2" lengthAdjust="spacing" textLength="20.7" x="559.8" y="252.4474">description</text></g><!--class Report--><g id="elem_Report"><rect codeLine="115" fill="#F1F1F1" height="16.5727" id="Report" rx="0.75" ry="0.75" style="stroke:#181818;stroke-width:0.15;" width="24.3" x="516.3" y="238.1288"/><text fill="#000000" font-family="sans-serif" font-size="4.2" lengthAdjust="spacing" textLength="12.9" x="522" y="244.161">Report</text><line style="stroke:#181818;stroke-width:0.15;" x1="516.6" x2="540.3" y1="246.7151" y2="246.7151"/><text fill="#000000" font-family="sans-serif" font-size="4.2" lengthAdjust="spacing" textLength="20.7" x="518.1" y="252.4474">description</text></g><!--class ToDoList--><g id="elem_ToDoList"><rect codeLine="121" fill="#F1F1F1" height="10.9863" id="ToDoList" rx="0.75" ry="0.75" style="stroke:#181818;stroke-width:0.15;" width="18.9" x="248.7" y="158.6288"/><text fill="#000000" font-family="sans-serif" font-size="4.2" lengthAdjust="spacing" textLength="17.1" x="249.6" y="164.661">ToDoList</text><line style="stroke:#181818;stroke-width:0.15;" x1="249" x2="267.3" y1="167.2151" y2="167.2151"/></g><!--reverse link SystemUser to HRM--><g id="link_SystemUser_HRM"><path codeLine="126" d="M264.1819,55.5043 C265.8109,56.9443 263.514,54.6788 265.35,55.7288 C282.489,65.5268 289.68,60.0098 308.85,64.7288 C340.8,72.5948 378.561,84.1658 392.463,88.5038 " fill="none" id="SystemUser-backto-HRM" style="stroke:#181818;stroke-width:0.3;"/><polygon fill="none" points="260.136,51.9278,262.9897,56.8529,265.374,54.1556,260.136,51.9278" style="stroke:#181818;stroke-width:0.3;"/></g><!--reverse link SystemUser to VFM--><g id="link_SystemUser_VFM"><path codeLine="127" d="M231.2926,48.2239 C226.3846,51.6109 225.078,52.4078 219.75,55.7288 C199.719,68.2208 175.044,81.6998 164.421,87.4148 " fill="none" id="SystemUser-backto-VFM" style="stroke:#181818;stroke-width:0.3;"/><polygon fill="none" points="235.737,45.1568,230.2702,46.7424,232.3149,49.7054,235.737,45.1568" style="stroke:#181818;stroke-width:0.3;"/></g><!--reverse link SystemUser to GSM--><g id="link_SystemUser_GSM"><path codeLine="128" d="M242.5394,58.2083 C238.0334,76.2773 232.353,99.0278 229.467,110.5988 " fill="none" id="SystemUser-backto-GSM" style="stroke:#181818;stroke-width:0.3;"/><polygon fill="none" points="243.846,52.9688,240.7929,57.7728,244.2859,58.6439,243.846,52.9688" style="stroke:#181818;stroke-width:0.3;"/></g><!--reverse link SystemUser to GSU--><g id="link_SystemUser_GSU"><path codeLine="129" d="M264.2778,55.6408 C265.8918,57.0268 263.526,54.7538 265.35,55.7288 C265.35,55.7288 458.943,84.3068 493.731,89.4428 " fill="none" id="SystemUser-backto-GSU" style="stroke:#181818;stroke-width:0.3;"/><polygon fill="none" points="260.181,52.1228,263.1051,57.0064,265.4504,54.2753,260.181,52.1228" style="stroke:#181818;stroke-width:0.3;"/></g><!--reverse link GreenSpace to Garden--><g id="link_GreenSpace_Garden"><path codeLine="131" d="M232.7036,259.1817 C225.1796,270.8727 214.266,287.8298 207.864,297.7748 " fill="none" id="GreenSpace-backto-Garden" style="stroke:#181818;stroke-width:0.3;"/><polygon fill="none" points="235.626,254.6408,231.19,258.2076,234.2172,260.1558,235.626,254.6408" style="stroke:#181818;stroke-width:0.3;"/></g><!--reverse link GreenSpace to MediumSizedPark--><g id="link_GreenSpace_MediumSizedPark"><path codeLine="132" d="M240.75,260.0408 C240.75,271.7318 240.75,287.8298 240.75,297.7748 " fill="none" id="GreenSpace-backto-MediumSizedPark" style="stroke:#181818;stroke-width:0.3;"/><polygon fill="none" points="240.75,254.6408,238.95,260.0408,242.55,260.0408,240.75,254.6408" style="stroke:#181818;stroke-width:0.3;"/></g><!--reverse link GreenSpace to LargeSizedPark--><g id="link_GreenSpace_LargeSizedPark"><path codeLine="133" d="M250.3012,258.8948 C259.4422,270.5858 272.925,287.8298 280.701,297.7748 " fill="none" id="GreenSpace-backto-LargeSizedPark" style="stroke:#181818;stroke-width:0.3;"/><polygon fill="none" points="246.975,254.6408,248.8831,260.0035,251.7192,257.7861,246.975,254.6408" style="stroke:#181818;stroke-width:0.3;"/></g><!--link Task to GreenSpace--><g id="link_Task_GreenSpace"><path codeLine="135" d="M300.327,175.3148 C286.347,191.9198 259.944,223.2788 247.527,238.0268 " fill="none" id="Task-GreenSpace" style="stroke:#181818;stroke-width:0.3;"/><polygon fill="#000000" points="273.6839,210.6699,276.106,209.162,274.7571,208.0263,273.6839,210.6699" style="stroke:#000000;stroke-width:0.3;"/><text fill="#000000" font-family="sans-serif" font-size="3.9" lengthAdjust="spacing" textLength="15.9" x="277.35" y="211.1373">occurs in</text><text fill="#000000" font-family="sans-serif" font-size="3.9" lengthAdjust="spacing" textLength="2.1" x="296.4785" y="181.8866">1</text><text fill="#000000" font-family="sans-serif" font-size="3.9" lengthAdjust="spacing" textLength="6" x="242.3532" y="234.7521">1..*</text></g><!--link Agenda to AgendaEntry--><g id="link_Agenda_AgendaEntry"><path codeLine="137" d="M281.598,41.8748 C286.071,50.5748 295.011,67.9718 300.861,79.3538 " fill="none" id="Agenda-AgendaEntry" style="stroke:#181818;stroke-width:0.3;"/><polygon fill="#000000" points="297.8357,68.9566,297.3794,66.1401,295.8111,66.9462,297.8357,68.9566" style="stroke:#000000;stroke-width:0.3;"/><text fill="#000000" font-family="sans-serif" font-size="3.9" lengthAdjust="spacing" textLength="6.3" x="299.85" y="69.2373">has</text><text fill="#000000" font-family="sans-serif" font-size="3.9" lengthAdjust="spacing" textLength="2.1" x="279.9543" y="48.313">1</text><text fill="#000000" font-family="sans-serif" font-size="3.9" lengthAdjust="spacing" textLength="1.5" x="298.2319" y="76.029">*</text></g><!--link AgendaEntry to Task--><g id="link_AgendaEntry_Task"><path codeLine="138" d="M306.897,101.6858 C307.461,115.4768 308.433,139.1408 309.003,152.9618 " fill="none" id="AgendaEntry-Task" style="stroke:#181818;stroke-width:0.3;"/><polygon fill="#000000" points="309.2116,117.7212,309.9811,114.9738,308.2193,115.0461,309.2116,117.7212" style="stroke:#000000;stroke-width:0.3;"/><text fill="#000000" font-family="sans-serif" font-size="3.9" lengthAdjust="spacing" textLength="12.3" x="311.85" y="117.8373">defines</text><text fill="#000000" font-family="sans-serif" font-size="3.9" lengthAdjust="spacing" textLength="2.1" x="304.6971" y="108.1752">1</text><text fill="#000000" font-family="sans-serif" font-size="3.9" lengthAdjust="spacing" textLength="2.1" x="306.6457" y="149.7151">1</text></g><!--link VFM to Vehicle--><g id="link_VFM_Vehicle"><path codeLine="141" d="M153.837,92.6648 C140.307,97.3448 105.432,109.4468 103.05,110.6288 C81.114,121.5098 57.948,137.2238 42.036,148.7618 " fill="none" id="VFM-Vehicle" style="stroke:#181818;stroke-width:0.3;"/><polygon fill="#000000" points="103.2093,116.8952,106.0301,116.4663,105.2392,114.8902,103.2093,116.8952" style="stroke:#000000;stroke-width:0.3;"/><text fill="#000000" font-family="sans-serif" font-size="3.9" lengthAdjust="spacing" textLength="15" x="107.25" y="117.8373">registers</text><text fill="#000000" font-family="sans-serif" font-size="3.9" lengthAdjust="spacing" textLength="2.1" x="149.4305" y="91.6695">1</text><text fill="#000000" font-family="sans-serif" font-size="3.9" lengthAdjust="spacing" textLength="1.5" x="44.4336" y="145.8008">*</text></g><!--link VFM to Machine--><g id="link_VFM_Machine"><path codeLine="142" d="M153.879,93.1928 C147.531,96.3038 136.974,102.3608 130.95,110.6288 C120.834,124.5158 116.814,144.7448 115.299,155.8448 " fill="none" id="VFM-Machine" style="stroke:#181818;stroke-width:0.3;"/><polygon fill="#000000" points="131.6635,117.4997,133.8371,115.6514,132.3355,114.7268,131.6635,117.4997" style="stroke:#000000;stroke-width:0.3;"/><text fill="#000000" font-family="sans-serif" font-size="3.9" lengthAdjust="spacing" textLength="15.9" x="135.15" y="117.8373">manages</text><text fill="#000000" font-family="sans-serif" font-size="3.9" lengthAdjust="spacing" textLength="2.1" x="148.1935" y="98.9624">1</text><text fill="#000000" font-family="sans-serif" font-size="3.9" lengthAdjust="spacing" textLength="1.5" x="115.6488" y="152.574">*</text></g><!--link VFM to Equipment--><g id="link_VFM_Equipment"><path codeLine="143" d="M161.049,96.0818 C165.612,108.7088 177.222,140.8328 182.658,155.8748 " fill="none" id="VFM-Equipment" style="stroke:#181818;stroke-width:0.3;"/><polygon fill="#000000" points="172.2598,117.6332,172.1667,114.7815,170.5084,115.3808,172.2598,117.6332" style="stroke:#000000;stroke-width:0.3;"/><text fill="#000000" font-family="sans-serif" font-size="3.9" lengthAdjust="spacing" textLength="15.9" x="174.45" y="117.8373">manages</text><text fill="#000000" font-family="sans-serif" font-size="3.9" lengthAdjust="spacing" textLength="2.1" x="165.2909" y="102.5975">1</text><text fill="#000000" font-family="sans-serif" font-size="3.9" lengthAdjust="spacing" textLength="1.5" x="180.3613" y="152.6106">*</text></g><!--link Vehicle to VehicleCheckup--><g id="link_Vehicle_VehicleCheckup"><path codeLine="144" d="M31.026,197.6948 C33.279,202.8878 36.054,207.9698 39.45,212.3288 C48.342,223.7378 62.187,232.6808 73.026,238.4858 " fill="none" id="Vehicle-VehicleCheckup" style="stroke:#181818;stroke-width:0.3;"/><polygon fill="#000000" points="42.026,210.5675,40.6937,208.0445,39.4652,209.3095,42.026,210.5675" style="stroke:#000000;stroke-width:0.3;"/><text fill="#000000" font-family="sans-serif" font-size="3.9" lengthAdjust="spacing" textLength="6.3" x="43.65" y="211.1373">has</text><text fill="#000000" font-family="sans-serif" font-size="3.9" lengthAdjust="spacing" textLength="2.1" x="25.7184" y="204.2182">1</text><text fill="#000000" font-family="sans-serif" font-size="3.9" lengthAdjust="spacing" textLength="6" x="63.4099" y="236.3294">0..*</text></g><!--link VFM to VehicleCheckup--><g id="link_VFM_VehicleCheckup"><path codeLine="145" d="M158.181,96.1148 C157.011,102.2948 154.905,112.8188 152.55,121.7288 C151.986,123.8678 129.597,195.6818 128.55,197.6288 C120.9,211.8368 108.843,225.9188 100.098,235.2098 " fill="none" id="VFM-VehicleCheckup" style="stroke:#181818;stroke-width:0.3;"/><polygon fill="#000000" points="150.772,165.6066,152.6312,163.4424,151.004,162.7629,150.772,165.6066" style="stroke:#000000;stroke-width:0.3;"/><text fill="#000000" font-family="sans-serif" font-size="3.9" lengthAdjust="spacing" textLength="15" x="154.05" y="165.8373">registers</text><text fill="#000000" font-family="sans-serif" font-size="3.9" lengthAdjust="spacing" textLength="2.1" x="154.1771" y="102.5369">1</text><text fill="#000000" font-family="sans-serif" font-size="3.9" lengthAdjust="spacing" textLength="1.5" x="100.3967" y="231.886">*</text></g><!--link GSU to Report--><g id="link_GSU_Report"><path codeLine="146" d="M498.567,96.1658 C497.292,111.9788 494.583,159.8138 504.45,197.6288 C508.407,212.7968 517.416,228.7928 523.2,238.0838 " fill="none" id="GSU-Report" style="stroke:#181818;stroke-width:0.3;"/><polygon fill="#000000" points="506.2065,165.7004,506.6112,162.876,504.8738,163.1776,506.2065,165.7004" style="stroke:#000000;stroke-width:0.3;"/><text fill="#000000" font-family="sans-serif" font-size="3.9" lengthAdjust="spacing" textLength="11.7" x="508.65" y="165.8373">makes</text><text fill="#000000" font-family="sans-serif" font-size="3.9" lengthAdjust="spacing" textLength="2.1" x="493.01" y="102.6016">1</text><text fill="#000000" font-family="sans-serif" font-size="3.9" lengthAdjust="spacing" textLength="6" x="515.2922" y="234.6861">0..*</text></g><!--link GSU to Comment--><g id="link_GSU_Comment"><path codeLine="147" d="M504.303,91.5668 C519.21,93.9788 561.789,103.1258 578.85,130.7288 C600.39,165.5798 582.075,218.1338 573.747,238.0478 " fill="none" id="GSU-Comment" style="stroke:#181818;stroke-width:0.3;"/><polygon fill="#000000" points="590.8926,165.5779,590.5268,162.7482,588.9335,163.5036,590.8926,165.5779" style="stroke:#000000;stroke-width:0.3;"/><text fill="#000000" font-family="sans-serif" font-size="3.9" lengthAdjust="spacing" textLength="11.7" x="592.95" y="165.8373">makes</text><text fill="#000000" font-family="sans-serif" font-size="3.9" lengthAdjust="spacing" textLength="2.1" x="509.1507" y="90.2783">1</text><text fill="#000000" font-family="sans-serif" font-size="3.9" lengthAdjust="spacing" textLength="6" x="575.3213" y="234.7777">0..*</text></g><!--link GSU to GreenSpacesUserPortal--><g id="link_GSU_GreenSpacesUserPortal"><path codeLine="148" d="M502.695,96.0818 C512.028,109.5278 536.7,145.0748 546.069,158.5748 " fill="none" id="GSU-GreenSpacesUserPortal" style="stroke:#181818;stroke-width:0.3;"/><polygon fill="#000000" points="522.1053,117.4547,521.2824,114.7228,519.8338,115.7282,522.1053,117.4547" style="stroke:#000000;stroke-width:0.3;"/><text fill="#000000" font-family="sans-serif" font-size="3.9" lengthAdjust="spacing" textLength="8.4" x="523.95" y="117.8373">uses</text><text fill="#000000" font-family="sans-serif" font-size="3.9" lengthAdjust="spacing" textLength="2.1" x="507.0905" y="102.5975">1</text><text fill="#000000" font-family="sans-serif" font-size="3.9" lengthAdjust="spacing" textLength="2.1" x="539.7526" y="155.2169">1</text></g><!--link GreenSpacesUserPortal to Report--><g id="link_GreenSpacesUserPortal_Report"><path codeLine="149" d="M548.352,169.8338 C544.707,183.8018 534.885,221.4218 530.553,238.0208 " fill="none" id="GreenSpacesUserPortal-Report" style="stroke:#181818;stroke-width:0.3;"/><polygon fill="#000000" points="539.4711,210.9738,541.0096,208.571,539.3034,208.1256,539.4711,210.9738" style="stroke:#000000;stroke-width:0.3;"/><text fill="#000000" font-family="sans-serif" font-size="3.9" lengthAdjust="spacing" textLength="6.3" x="542.55" y="211.1373">has</text><text fill="#000000" font-family="sans-serif" font-size="3.9" lengthAdjust="spacing" textLength="2.1" x="542.8716" y="176.2744">1</text><text fill="#000000" font-family="sans-serif" font-size="3.9" lengthAdjust="spacing" textLength="6" x="523.0255" y="234.7448">0..*</text></g><!--link GreenSpacesUserPortal to Comment--><g id="link_GreenSpacesUserPortal_Comment"><path codeLine="150" d="M551.088,169.8338 C554.58,183.8018 563.985,221.4218 568.137,238.0208 " fill="none" id="GreenSpacesUserPortal-Comment" style="stroke:#181818;stroke-width:0.3;"/><polygon fill="#000000" points="563.0138,210.9777,563.211,208.1313,561.5003,208.559,563.0138,210.9777" style="stroke:#000000;stroke-width:0.3;"/><text fill="#000000" font-family="sans-serif" font-size="3.9" lengthAdjust="spacing" textLength="6.3" x="565.35" y="211.1373">has</text><text fill="#000000" font-family="sans-serif" font-size="3.9" lengthAdjust="spacing" textLength="2.1" x="547.7041" y="176.2744">1</text><text fill="#000000" font-family="sans-serif" font-size="3.9" lengthAdjust="spacing" textLength="6" x="559.7092" y="234.7448">0..*</text></g><!--link MS to SystemUser--><g id="link_MS_SystemUser"><path codeLine="152" d="M214.593,36.2288 C221.415,36.2288 229.344,36.2288 235.761,36.2288 " fill="none" id="MS-SystemUser" style="stroke:#181818;stroke-width:0.3;"/><polygon fill="#000000" points="222.75,32.5225,220.0365,31.6408,220.0365,33.4041,222.75,32.5225" style="stroke:#000000;stroke-width:0.3;"/><text fill="#000000" font-family="sans-serif" font-size="3.9" lengthAdjust="spacing" textLength="6.3" x="223.95" y="34.1373">has</text><text fill="#000000" font-family="sans-serif" font-size="3.9" lengthAdjust="spacing" textLength="2.1" x="216.8842" y="34.9906">1</text><text fill="#000000" font-family="sans-serif" font-size="3.9" lengthAdjust="spacing" textLength="1.5" x="231.8754" y="34.8723">*</text></g><!--link MS to Task--><g id="link_MS_Task"><path codeLine="153" d="M214.542,54.1028 C237.669,80.8508 281.016,130.9898 300.063,153.0218 " fill="none" id="MS-Task" style="stroke:#181818;stroke-width:0.3;"/><polygon fill="#000000" points="257.031,91.7072,255.9233,89.0778,254.5894,90.2311,257.031,91.7072" style="stroke:#000000;stroke-width:0.3;"/><text fill="#000000" font-family="sans-serif" font-size="3.9" lengthAdjust="spacing" textLength="9" x="258.75" y="92.1873">owns</text><text fill="#000000" font-family="sans-serif" font-size="3.9" lengthAdjust="spacing" textLength="2.1" x="216.8858" y="55.2818">1</text><text fill="#000000" font-family="sans-serif" font-size="3.9" lengthAdjust="spacing" textLength="1.5" x="296.7573" y="149.7002">*</text></g><!--link MS to Machine--><g id="link_MS_Machine"><path codeLine="154" d="M184.188,44.2118 C170.631,51.6968 150.942,64.1618 137.85,79.4288 C118.44,102.0668 115.035,139.5428 114.504,155.8658 " fill="none" id="MS-Machine" style="stroke:#181818;stroke-width:0.3;"/><polygon fill="#000000" points="138.5558,91.845,140.7405,90.0098,139.2445,89.0762,138.5558,91.845" style="stroke:#000000;stroke-width:0.3;"/><text fill="#000000" font-family="sans-serif" font-size="3.9" lengthAdjust="spacing" textLength="6.3" x="142.05" y="92.1873">has</text><text fill="#000000" font-family="sans-serif" font-size="3.9" lengthAdjust="spacing" textLength="2.1" x="179.7069" y="44.1307">1</text><text fill="#000000" font-family="sans-serif" font-size="3.9" lengthAdjust="spacing" textLength="1.5" x="112.8518" y="152.5996">*</text></g><!--link MS to Vehicle--><g id="link_MS_Vehicle"><path codeLine="155" d="M184.152,37.9328 C150.432,41.2718 70.536,50.4848 47.85,64.7288 C26.382,78.2048 20.82,107.4008 20.109,130.6388 " fill="none" id="MS-Vehicle" style="stroke:#181818;stroke-width:0.3;"/><polygon fill="#000000" points="32.7441,91.3105,35.5403,90.743,34.6727,89.2078,32.7441,91.3105" style="stroke:#000000;stroke-width:0.3;"/><text fill="#000000" font-family="sans-serif" font-size="3.9" lengthAdjust="spacing" textLength="6.3" x="36.75" y="92.1873">has</text><text fill="#000000" font-family="sans-serif" font-size="3.9" lengthAdjust="spacing" textLength="2.1" x="178.4827" y="36.9342">1</text><text fill="#000000" font-family="sans-serif" font-size="3.9" lengthAdjust="spacing" textLength="1.5" x="18.4282" y="127.3271">*</text></g><!--link MS to Equipment--><g id="link_MS_Equipment"><path codeLine="156" d="M198.489,55.7888 C197.583,73.0928 195.882,99.1748 193.05,121.7288 C191.544,133.7138 188.928,147.4658 187.218,155.9138 " fill="none" id="MS-Equipment" style="stroke:#181818;stroke-width:0.3;"/><polygon fill="#000000" points="198.5822,92.063,199.7619,89.4652,198.0096,89.2679,198.5822,92.063" style="stroke:#000000;stroke-width:0.3;"/><text fill="#000000" font-family="sans-serif" font-size="3.9" lengthAdjust="spacing" textLength="6.3" x="201.45" y="92.1873">has</text><text fill="#000000" font-family="sans-serif" font-size="3.9" lengthAdjust="spacing" textLength="2.1" x="196.1919" y="62.2861">1</text><text fill="#000000" font-family="sans-serif" font-size="3.9" lengthAdjust="spacing" textLength="1.5" x="185.9303" y="152.523">*</text></g><!--link Task to Team--><g id="link_Task_Team"><path codeLine="158" d="M317.001,152.9828 C324.816,142.5008 338.079,127.5188 353.85,121.1288 C381.321,109.9958 395.616,113.6588 419.85,130.7288 C427.776,136.3118 433.71,145.6448 437.49,153.0338 " fill="none" id="Task-Team" style="stroke:#181818;stroke-width:0.3;"/><polygon fill="#000000" points="356.85,116.2231,354.1368,115.3403,354.1361,117.1036,356.85,116.2231" style="stroke:#000000;stroke-width:0.3;"/><text fill="#000000" font-family="sans-serif" font-size="3.9" lengthAdjust="spacing" textLength="23.7" x="358.05" y="117.8373">carried out by</text><text fill="#000000" font-family="sans-serif" font-size="3.9" lengthAdjust="spacing" textLength="2.1" x="316.0184" y="149.7397">1</text><text fill="#000000" font-family="sans-serif" font-size="3.9" lengthAdjust="spacing" textLength="2.1" x="436.8113" y="149.7143">1</text></g><!--link ToDoList to Task--><g id="link_ToDoList_Task"><path codeLine="159" d="M267.678,164.1788 C276.024,164.1788 288.198,164.1788 297.252,164.1788 " fill="none" id="ToDoList-Task" style="stroke:#181818;stroke-width:0.3;"/><polygon fill="#000000" points="275.85,160.4725,273.1365,159.5908,273.1365,161.3541,275.85,160.4725" style="stroke:#000000;stroke-width:0.3;"/><text fill="#000000" font-family="sans-serif" font-size="3.9" lengthAdjust="spacing" textLength="14.7" x="277.05" y="162.0873">contains</text><text fill="#000000" font-family="sans-serif" font-size="3.9" lengthAdjust="spacing" textLength="2.1" x="269.9919" y="162.7515">1</text><text fill="#000000" font-family="sans-serif" font-size="3.9" lengthAdjust="spacing" textLength="6" x="288.9248" y="168.7876">0..*</text></g><!--link HRM to Collaborator--><g id="link_HRM_Collaborator"><path codeLine="161" d="M398.001,96.0818 C398.187,115.4948 398.85,183.9728 399.21,221.3258 " fill="none" id="HRM-Collaborator" style="stroke:#181818;stroke-width:0.3;"/><polygon fill="#000000" points="400.3645,165.7224,401.2199,163.0005,399.4566,163.0175,400.3645,165.7224" style="stroke:#000000;stroke-width:0.3;"/><text fill="#000000" font-family="sans-serif" font-size="3.9" lengthAdjust="spacing" textLength="15" x="403.05" y="165.8373">registers</text><text fill="#000000" font-family="sans-serif" font-size="3.9" lengthAdjust="spacing" textLength="2.1" x="394.2513" y="102.5975">1</text><text fill="#000000" font-family="sans-serif" font-size="3.9" lengthAdjust="spacing" textLength="1.5" x="397.6218" y="217.9802">*</text></g><!--link HRM to Job--><g id="link_HRM_Job"><path codeLine="162" d="M392.475,91.6928 C382.857,93.4958 362.859,98.5328 351.45,110.6288 C344.94,117.5318 345.873,121.3808 344.25,130.7288 C333.36,193.4288 349.971,270.4778 356.001,295.1108 " fill="none" id="HRM-Job" style="stroke:#181818;stroke-width:0.3;"/><polygon fill="#000000" points="343.3853,210.9989,344.732,208.4836,342.9963,208.1724,343.3853,210.9989" style="stroke:#000000;stroke-width:0.3;"/><text fill="#000000" font-family="sans-serif" font-size="3.9" lengthAdjust="spacing" textLength="12.9" x="346.35" y="211.1373">creates</text><text fill="#000000" font-family="sans-serif" font-size="3.9" lengthAdjust="spacing" textLength="2.1" x="386.8148" y="90.3755">1</text><text fill="#000000" font-family="sans-serif" font-size="3.9" lengthAdjust="spacing" textLength="1.5" x="353.8537" y="291.7193">*</text></g><!--link HRM to Skill--><g id="link_HRM_Skill"><path codeLine="163" d="M403.377,92.0438 C416.805,95.3978 451.269,106.1978 462.15,130.7288 C487.533,187.9538 469.248,210.3428 455.55,271.4288 C453.675,279.7928 449.733,288.7628 446.643,295.0088 " fill="none" id="HRM-Skill" style="stroke:#181818;stroke-width:0.3;"/><polygon fill="#000000" points="473.8627,210.9895,474.1593,208.1518,472.4347,208.5194,473.8627,210.9895" style="stroke:#000000;stroke-width:0.3;"/><text fill="#000000" font-family="sans-serif" font-size="3.9" lengthAdjust="spacing" textLength="12.9" x="476.25" y="211.1373">creates</text><text fill="#000000" font-family="sans-serif" font-size="3.9" lengthAdjust="spacing" textLength="2.1" x="405.7213" y="90.8427">1</text><text fill="#000000" font-family="sans-serif" font-size="3.9" lengthAdjust="spacing" textLength="1.5" x="445.918" y="291.7302">*</text></g><!--link HRM to Team--><g id="link_HRM_Team"><path codeLine="164" d="M401.142,96.0818 C408.36,107.9588 426.057,137.0738 435.747,153.0128 " fill="none" id="HRM-Team" style="stroke:#181818;stroke-width:0.3;"/><polygon fill="#000000" points="418.2291,117.5042,417.5731,114.7275,416.0663,115.6434,418.2291,117.5042" style="stroke:#000000;stroke-width:0.3;"/><text fill="#000000" font-family="sans-serif" font-size="3.9" lengthAdjust="spacing" textLength="17.1" x="420.15" y="117.8373">generates</text><text fill="#000000" font-family="sans-serif" font-size="3.9" lengthAdjust="spacing" textLength="2.1" x="399.6444" y="102.5975">1</text><text fill="#000000" font-family="sans-serif" font-size="3.9" lengthAdjust="spacing" textLength="1.5" x="430.1097" y="149.6896">*</text></g><!--link Team to Collaborator--><g id="link_Team_Collaborator"><path codeLine="166" d="M436.653,175.3148 C430.521,186.9758 420.564,205.9178 412.494,221.2688 " fill="none" id="Team-Collaborator" style="stroke:#181818;stroke-width:0.3;"/><polygon fill="#000000" points="420.352,210.8502,422.3951,208.8586,420.8343,208.0381,420.352,210.8502" style="stroke:#000000;stroke-width:0.3;"/><text fill="#000000" font-family="sans-serif" font-size="3.9" lengthAdjust="spacing" textLength="6.3" x="423.75" y="211.1373">has</text><text fill="#000000" font-family="sans-serif" font-size="3.9" lengthAdjust="spacing" textLength="2.1" x="432.0902" y="181.8866">1</text><text fill="#000000" font-family="sans-serif" font-size="3.9" lengthAdjust="spacing" textLength="1.5" x="412.0889" y="217.9181">*</text></g><!--link Collaborator to Skill--><g id="link_Collaborator_Skill"><path codeLine="167" d="M413.271,271.5068 C416.466,276.5258 420.03,281.6378 423.75,286.1288 C427.179,290.2658 431.607,294.3398 435.282,297.4568 " fill="none" id="Collaborator-Skill" style="stroke:#181818;stroke-width:0.3;"/><polygon fill="#000000" points="426.2203,284.4664,425.1374,281.8267,423.7926,282.9673,426.2203,284.4664" style="stroke:#000000;stroke-width:0.3;"/><text fill="#000000" font-family="sans-serif" font-size="3.9" lengthAdjust="spacing" textLength="6.3" x="427.95" y="284.9373">has</text><text fill="#000000" font-family="sans-serif" font-size="3.9" lengthAdjust="spacing" textLength="2.1" x="410.9789" y="278.0114">1</text><text fill="#000000" font-family="sans-serif" font-size="3.9" lengthAdjust="spacing" textLength="6" x="426.958" y="294.8195">0..*</text></g><!--link Collaborator to Job--><g id="link_Collaborator_Job"><path codeLine="168" d="M381.231,271.4978 C374.982,280.0088 368.43,288.9398 363.891,295.1228 " fill="none" id="Collaborator-Job" style="stroke:#181818;stroke-width:0.3;"/><polygon fill="#000000" points="374.2625,284.5317,376.5788,282.8658,375.1573,281.8225,374.2625,284.5317" style="stroke:#000000;stroke-width:0.3;"/><text fill="#000000" font-family="sans-serif" font-size="3.9" lengthAdjust="spacing" textLength="6.3" x="377.85" y="284.9373">has</text><text fill="#000000" font-family="sans-serif" font-size="3.9" lengthAdjust="spacing" textLength="2.1" x="376.2856" y="278.0016">1</text><text fill="#000000" font-family="sans-serif" font-size="3.9" lengthAdjust="spacing" textLength="2.1" x="360.2214" y="291.7341">1</text></g><!--link MS to Agenda--><g id="link_MS_Agenda"><path codeLine="169" d="M214.515,20.8778 C220.929,15.4328 228.84,9.9578 237.15,7.1288 C249.684,2.8628 255.525,7.8548 265.35,16.7288 C269.781,20.7308 273.522,26.4548 275.937,30.6668 " fill="none" id="MS-Agenda" style="stroke:#181818;stroke-width:0.3;"/><polygon fill="#000000" points="240.1313,5.1585,237.5904,3.8608,237.3128,5.6022,240.1313,5.1585" style="stroke:#000000;stroke-width:0.3;"/><text fill="#000000" font-family="sans-serif" font-size="3.9" lengthAdjust="spacing" textLength="6.3" x="241.35" y="6.5373">has</text><text fill="#000000" font-family="sans-serif" font-size="3.9" lengthAdjust="spacing" textLength="2.1" x="216.8966" y="17.3695">1</text><text fill="#000000" font-family="sans-serif" font-size="3.9" lengthAdjust="spacing" textLength="2.1" x="272.6233" y="27.3218">1</text></g><!--link MS to GreenSpace--><g id="link_MS_GreenSpace"><path codeLine="170" d="M184.095,38.5658 C145.53,44.5628 48.123,65.4188 61.65,121.7288 C70.494,158.5478 71.778,172.7828 100.35,197.6288 C138.633,230.9198 201,241.6568 227.82,244.8428 " fill="none" id="MS-GreenSpace" style="stroke:#181818;stroke-width:0.3;"/><polygon fill="#000000" points="63.461,117.6899,63.7609,114.8525,62.0358,115.2181,63.461,117.6899" style="stroke:#000000;stroke-width:0.3;"/><text fill="#000000" font-family="sans-serif" font-size="3.9" lengthAdjust="spacing" textLength="15.9" x="65.85" y="117.8373">manages</text><text fill="#000000" font-family="sans-serif" font-size="3.9" lengthAdjust="spacing" textLength="2.1" x="174.9153" y="43.3802">1</text><text fill="#000000" font-family="sans-serif" font-size="3.9" lengthAdjust="spacing" textLength="1.5" x="223.9688" y="243.2503">*</text></g><!--link GSU to GreenSpace--><g id="link_GSU_GreenSpace"><path codeLine="171" d="M493.785,91.5398 C480.495,93.4478 444.663,99.3338 416.85,110.6288 C400.62,117.2198 396.3,119.3888 382.95,130.7288 C353.373,155.8478 356.709,172.8458 326.85,197.6288 C303.522,216.9908 271.365,232.7138 253.689,240.5918 " fill="none" id="GSU-GreenSpace" style="stroke:#181818;stroke-width:0.3;"/><polygon fill="#000000" points="383.1756,165.0136,385.946,164.3315,385.016,162.8333,383.1756,165.0136" style="stroke:#000000;stroke-width:0.3;"/><text fill="#000000" font-family="sans-serif" font-size="3.9" lengthAdjust="spacing" textLength="8.4" x="387.15" y="165.8373">uses</text><text fill="#000000" font-family="sans-serif" font-size="3.9" lengthAdjust="spacing" textLength="2.1" x="485.7012" y="90.2257">1</text><text fill="#000000" font-family="sans-serif" font-size="3.9" lengthAdjust="spacing" textLength="1.5" x="256.0418" y="238.2686">*</text></g><!--link GSM to GreenSpace--><g id="link_GSM_GreenSpace"><path codeLine="172" d="M225.765,121.7738 C224.706,124.4078 223.581,127.6748 223.05,130.7288 C217.965,160.0238 217.869,168.3488 223.05,197.6288 C225.672,212.4428 232.476,228.6788 236.844,238.0898 " fill="none" id="GSM-GreenSpace" style="stroke:#181818;stroke-width:0.3;"/><polygon fill="#000000" points="224.6922,165.7157,225.3126,162.9308,223.5572,163.098,224.6922,165.7157" style="stroke:#000000;stroke-width:0.3;"/><text fill="#000000" font-family="sans-serif" font-size="3.9" lengthAdjust="spacing" textLength="15.9" x="227.25" y="165.8373">manages</text><text fill="#000000" font-family="sans-serif" font-size="3.9" lengthAdjust="spacing" textLength="2.1" x="221.3806" y="128.1983">1</text><text fill="#000000" font-family="sans-serif" font-size="3.9" lengthAdjust="spacing" textLength="1.5" x="234.2673" y="234.6935">*</text></g><!--link Team to Skill--><g id="link_Team_Skill"><path codeLine="173" d="M442.35,175.3538 C442.35,202.2848 442.35,271.5908 442.35,295.1228 " fill="none" id="Team-Skill" style="stroke:#181818;stroke-width:0.3;"/><polygon fill="#000000" points="443.85,247.9225,444.7317,245.2089,442.9683,245.2089,443.85,247.9225" style="stroke:#000000;stroke-width:0.3;"/><text fill="#000000" font-family="sans-serif" font-size="3.9" lengthAdjust="spacing" textLength="6.3" x="446.55" y="248.0373">has</text><text fill="#000000" font-family="sans-serif" font-size="3.9" lengthAdjust="spacing" textLength="2.1" x="438.7767" y="181.8461">1</text><text fill="#000000" font-family="sans-serif" font-size="3.9" lengthAdjust="spacing" textLength="1.5" x="440.6766" y="291.7341">*</text></g><!--SRC=[VLLHJzim47xthx3oWeG4eg_LX8GeC3Ow8GBisKcEncfi5zkXwzZ- -yvsdBXfkhxKkVlk_FdkEzkikTmmpGGLIggorae0jRe5OdhFXfLhjeBSxXgW6ahBvAf90QPcbTfokQ9lh350JWPNmoNOtGQeqhPMvAI1DqkjefglQaihxj9n9PDaPSECkR9MywArS5ygcVFVG2z8pIkW9TSbxktN0Z1bPGZ-V11TvlIJKFn99i0lFfZzqOe2jF_QGc6u3PvDhIGaFX2CDuJyZRdkD83CyUZGvJJ88d4pNO6C-qB5M-5eLezChplh0zDOjDxOMVETiI1U3EWnry30SqFWLkbg8Eg8XVYlJqiCZ5-lj-dNjMeQLYZDh3h87jAuLS6n5HNhwi0gmOt15Ym6IwN16B_crKALhG1fdx698rDNlRZxNPvokSjV_5VVd6V0vduImIKNeLX4i5_zkgzilkPDaxBlFTzKCMb_PcRTEIemfUORBodtZV9gjGPPxWRuAzGSDNHTGxbkDnWO8kFnGu3zBin1IDYaq4pwrWXLWM_OHt3VBzo7xGfbcVR_AwsC-GbExoHDJpoz5KSvw5XxLhwt72MQjACCD6yrlBVxvrYoiiRfcYp93URPk1vDUgzM82iMsfDQRgJLkox2SW7t4hbzi6OeqCHu6AVbHnnlrYG9hvLmsnzs9UhZ2JOOC-KV5ACMwW7hy-d7aYIJy-NFsPcRX0CRpiE13NKvONiX91dnO0mpFJQFftli7y-vbsCsooZwijdv-McMNYPpgahKWA5Sqaj2kbP4E6BJLinfpGp2KbkVEGl2dsFvtb073aU8kn0oEcIBofttMdEuWA8pskEYcEPKC8cN_HuAVprmKDOUjDicc_NO2pmvpSRJ5a_aSoVx7y1IkjYjm6F8d7K2SYJMS0I4oqw7Hs5-CIdcEQMj2I5JxYuqsIeGwazuD6gANnz5y0tp7VPLIMGR0TxlT_O89m6Kr5RslkWPEfe6Hk-WYyGRdMcFErg3g8Foy3AVkzk9QSsXeggrjDYXuPB4gOteqAt04nzpoxZdIjn3bYfWx_7Qx_yOwXu2JAO1hwGfVtX23X41GEcfgvz_Z-OK9mjqXoBUTenKhCKUqHvCQJXetFj_MD-_S8XnzMVn0XWtV6Zv8Anq0fskPqTGKSVvCfN0T9w34lW3TMJ-0G00]--></g></svg>