<?xml version="1.0" encoding="us-ascii" standalone="no"?><svg xmlns="http://www.w3.org/2000/svg" xmlns:xlink="http://www.w3.org/1999/xlink" contentStyleType="text/css" height="814px" preserveAspectRatio="none" style="width:1132px;height:814px;background:#FFFFFF;" version="1.1" viewBox="0 0 1132 814" width="1132px" zoomAndPan="magnify"><defs/><g><!--class AgendaEntry--><g id="elem_AgendaEntry"><rect codeLine="7" fill="#F1F1F1" height="103.8633" id="AgendaEntry" rx="2.5" ry="2.5" style="stroke:#181818;stroke-width:0.5;" width="133" x="942" y="493"/><ellipse cx="965.55" cy="509" fill="#ADD1B2" rx="11" ry="11" style="stroke:#181818;stroke-width:1.0;"/><path d="M968.3156,504.875 Q968.4719,504.6563 968.6594,504.5469 Q968.8469,504.4375 969.0656,504.4375 Q969.4406,504.4375 969.675,504.7031 Q969.9094,504.9531 969.9094,505.5625 L969.9094,507.0156 Q969.9094,507.625 969.675,507.8906 Q969.4406,508.1563 969.0656,508.1563 Q968.7219,508.1563 968.5188,507.9531 Q968.3156,507.7656 968.2063,507.25 Q968.1594,506.8906 967.9719,506.7031 Q967.6438,506.3281 967.0344,506.1094 Q966.425,505.8906 965.8,505.8906 Q965.0344,505.8906 964.3938,506.2188 Q963.7688,506.5469 963.2688,507.2969 Q962.7844,508.0469 962.7844,509.0781 L962.7844,510.1719 Q962.7844,511.4063 963.675,512.2344 Q964.5656,513.0469 966.1594,513.0469 Q967.0969,513.0469 967.7531,512.7969 Q968.1438,512.6406 968.5656,512.2031 Q968.8313,511.9375 968.9719,511.8594 Q969.1281,511.7813 969.3313,511.7813 Q969.6594,511.7813 969.9094,512.0469 Q970.175,512.2969 970.175,512.6406 Q970.175,512.9844 969.8313,513.3906 Q969.3313,513.9688 968.5344,514.2969 Q967.4563,514.75 966.1594,514.75 Q964.6438,514.75 963.4406,514.125 Q962.4563,513.625 961.7688,512.5625 Q961.0813,511.4844 961.0813,510.2031 L961.0813,509.0469 Q961.0813,507.7188 961.6906,506.5781 Q962.3156,505.4219 963.4094,504.8125 Q964.5031,504.1875 965.7375,504.1875 Q966.4719,504.1875 967.1125,504.3594 Q967.7688,504.5156 968.3156,504.875 Z " fill="#000000"/><text fill="#000000" font-family="sans-serif" font-size="14" lengthAdjust="spacing" textLength="82" x="981.45" y="514.7969">AgendaEntry</text><line style="stroke:#181818;stroke-width:0.5;" x1="943" x2="1074" y1="525" y2="525"/><text fill="#000000" font-family="sans-serif" font-size="14" lengthAdjust="spacing" textLength="28" x="948" y="544.1074">date</text><text fill="#000000" font-family="sans-serif" font-size="14" lengthAdjust="spacing" textLength="104" x="948" y="562.7285">associatedTeam</text><text fill="#000000" font-family="sans-serif" font-size="14" lengthAdjust="spacing" textLength="121" x="948" y="581.3496">associatedVehicles</text><line style="stroke:#181818;stroke-width:0.5;" x1="943" x2="1074" y1="588.8633" y2="588.8633"/></g><!--class AgendaEntryDTO--><g id="elem_AgendaEntryDTO"><rect codeLine="13" fill="#F1F1F1" height="196.9688" id="AgendaEntryDTO" rx="2.5" ry="2.5" style="stroke:#181818;stroke-width:0.5;" width="144" x="770.5" y="7"/><ellipse cx="785.5" cy="23" fill="#ADD1B2" rx="11" ry="11" style="stroke:#181818;stroke-width:1.0;"/><path d="M788.2656,18.875 Q788.4219,18.6563 788.6094,18.5469 Q788.7969,18.4375 789.0156,18.4375 Q789.3906,18.4375 789.625,18.7031 Q789.8594,18.9531 789.8594,19.5625 L789.8594,21.0156 Q789.8594,21.625 789.625,21.8906 Q789.3906,22.1563 789.0156,22.1563 Q788.6719,22.1563 788.4688,21.9531 Q788.2656,21.7656 788.1563,21.25 Q788.1094,20.8906 787.9219,20.7031 Q787.5938,20.3281 786.9844,20.1094 Q786.375,19.8906 785.75,19.8906 Q784.9844,19.8906 784.3438,20.2188 Q783.7188,20.5469 783.2188,21.2969 Q782.7344,22.0469 782.7344,23.0781 L782.7344,24.1719 Q782.7344,25.4063 783.625,26.2344 Q784.5156,27.0469 786.1094,27.0469 Q787.0469,27.0469 787.7031,26.7969 Q788.0938,26.6406 788.5156,26.2031 Q788.7813,25.9375 788.9219,25.8594 Q789.0781,25.7813 789.2813,25.7813 Q789.6094,25.7813 789.8594,26.0469 Q790.125,26.2969 790.125,26.6406 Q790.125,26.9844 789.7813,27.3906 Q789.2813,27.9688 788.4844,28.2969 Q787.4063,28.75 786.1094,28.75 Q784.5938,28.75 783.3906,28.125 Q782.4063,27.625 781.7188,26.5625 Q781.0313,25.4844 781.0313,24.2031 L781.0313,23.0469 Q781.0313,21.7188 781.6406,20.5781 Q782.2656,19.4219 783.3594,18.8125 Q784.4531,18.1875 785.6875,18.1875 Q786.4219,18.1875 787.0625,18.3594 Q787.7188,18.5156 788.2656,18.875 Z " fill="#000000"/><text fill="#000000" font-family="sans-serif" font-size="14" lengthAdjust="spacing" textLength="112" x="799.5" y="28.7969">AgendaEntryDTO</text><line style="stroke:#181818;stroke-width:0.5;" x1="771.5" x2="913.5" y1="39" y2="39"/><text fill="#000000" font-family="sans-serif" font-size="14" lengthAdjust="spacing" textLength="28" x="776.5" y="58.1074">date</text><text fill="#000000" font-family="sans-serif" font-size="14" lengthAdjust="spacing" textLength="77" x="776.5" y="76.7285">greenSpace</text><text fill="#000000" font-family="sans-serif" font-size="14" lengthAdjust="spacing" textLength="69" x="776.5" y="95.3496">description</text><text fill="#000000" font-family="sans-serif" font-size="14" lengthAdjust="spacing" textLength="111" x="776.5" y="113.9707">expectedDuration</text><text fill="#000000" font-family="sans-serif" font-size="14" lengthAdjust="spacing" textLength="98" x="776.5" y="132.5918">urgencyDegree</text><text fill="#000000" font-family="sans-serif" font-size="14" lengthAdjust="spacing" textLength="72" x="776.5" y="151.2129">entryStatus</text><text fill="#000000" font-family="sans-serif" font-size="14" lengthAdjust="spacing" textLength="104" x="776.5" y="169.834">associatedTeam</text><text fill="#000000" font-family="sans-serif" font-size="14" lengthAdjust="spacing" textLength="121" x="776.5" y="188.4551">associatedVehicles</text><line style="stroke:#181818;stroke-width:0.5;" x1="771.5" x2="913.5" y1="195.9688" y2="195.9688"/></g><!--class SystemUser--><g id="elem_SystemUser"><rect codeLine="26" fill="#F1F1F1" height="122.4844" id="SystemUser" rx="2.5" ry="2.5" style="stroke:#181818;stroke-width:0.5;" width="107" x="7" y="44.5"/><ellipse cx="22" cy="60.5" fill="#ADD1B2" rx="11" ry="11" style="stroke:#181818;stroke-width:1.0;"/><path d="M24.7656,56.375 Q24.9219,56.1563 25.1094,56.0469 Q25.2969,55.9375 25.5156,55.9375 Q25.8906,55.9375 26.125,56.2031 Q26.3594,56.4531 26.3594,57.0625 L26.3594,58.5156 Q26.3594,59.125 26.125,59.3906 Q25.8906,59.6563 25.5156,59.6563 Q25.1719,59.6563 24.9688,59.4531 Q24.7656,59.2656 24.6563,58.75 Q24.6094,58.3906 24.4219,58.2031 Q24.0938,57.8281 23.4844,57.6094 Q22.875,57.3906 22.25,57.3906 Q21.4844,57.3906 20.8438,57.7188 Q20.2188,58.0469 19.7188,58.7969 Q19.2344,59.5469 19.2344,60.5781 L19.2344,61.6719 Q19.2344,62.9063 20.125,63.7344 Q21.0156,64.5469 22.6094,64.5469 Q23.5469,64.5469 24.2031,64.2969 Q24.5938,64.1406 25.0156,63.7031 Q25.2813,63.4375 25.4219,63.3594 Q25.5781,63.2813 25.7813,63.2813 Q26.1094,63.2813 26.3594,63.5469 Q26.625,63.7969 26.625,64.1406 Q26.625,64.4844 26.2813,64.8906 Q25.7813,65.4688 24.9844,65.7969 Q23.9063,66.25 22.6094,66.25 Q21.0938,66.25 19.8906,65.625 Q18.9063,65.125 18.2188,64.0625 Q17.5313,62.9844 17.5313,61.7031 L17.5313,60.5469 Q17.5313,59.2188 18.1406,58.0781 Q18.7656,56.9219 19.8594,56.3125 Q20.9531,55.6875 22.1875,55.6875 Q22.9219,55.6875 23.5625,55.8594 Q24.2188,56.0156 24.7656,56.375 Z " fill="#000000"/><text fill="#000000" font-family="sans-serif" font-size="14" lengthAdjust="spacing" textLength="75" x="36" y="66.2969">SystemUser</text><line style="stroke:#181818;stroke-width:0.5;" x1="8" x2="113" y1="76.5" y2="76.5"/><text fill="#000000" font-family="sans-serif" font-size="14" lengthAdjust="spacing" textLength="35" x="13" y="95.6074">name</text><text fill="#000000" font-family="sans-serif" font-size="14" lengthAdjust="spacing" textLength="33" x="13" y="114.2285">email</text><text fill="#000000" font-family="sans-serif" font-size="14" lengthAdjust="spacing" textLength="60" x="13" y="132.8496">password</text><text fill="#000000" font-family="sans-serif" font-size="14" lengthAdjust="spacing" textLength="40" x="13" y="151.4707">phone</text><line style="stroke:#181818;stroke-width:0.5;" x1="8" x2="113" y1="158.9844" y2="158.9844"/></g><!--class Collaborator--><g id="elem_Collaborator"><rect codeLine="33" fill="#F1F1F1" height="196.9688" id="Collaborator" rx="2.5" ry="2.5" style="stroke:#181818;stroke-width:0.5;" width="136" x="149.5" y="7"/><ellipse cx="176.2" cy="23" fill="#ADD1B2" rx="11" ry="11" style="stroke:#181818;stroke-width:1.0;"/><path d="M178.9656,18.875 Q179.1219,18.6563 179.3094,18.5469 Q179.4969,18.4375 179.7156,18.4375 Q180.0906,18.4375 180.325,18.7031 Q180.5594,18.9531 180.5594,19.5625 L180.5594,21.0156 Q180.5594,21.625 180.325,21.8906 Q180.0906,22.1563 179.7156,22.1563 Q179.3719,22.1563 179.1688,21.9531 Q178.9656,21.7656 178.8563,21.25 Q178.8094,20.8906 178.6219,20.7031 Q178.2938,20.3281 177.6844,20.1094 Q177.075,19.8906 176.45,19.8906 Q175.6844,19.8906 175.0438,20.2188 Q174.4188,20.5469 173.9188,21.2969 Q173.4344,22.0469 173.4344,23.0781 L173.4344,24.1719 Q173.4344,25.4063 174.325,26.2344 Q175.2156,27.0469 176.8094,27.0469 Q177.7469,27.0469 178.4031,26.7969 Q178.7938,26.6406 179.2156,26.2031 Q179.4813,25.9375 179.6219,25.8594 Q179.7781,25.7813 179.9813,25.7813 Q180.3094,25.7813 180.5594,26.0469 Q180.825,26.2969 180.825,26.6406 Q180.825,26.9844 180.4813,27.3906 Q179.9813,27.9688 179.1844,28.2969 Q178.1063,28.75 176.8094,28.75 Q175.2938,28.75 174.0906,28.125 Q173.1063,27.625 172.4188,26.5625 Q171.7313,25.4844 171.7313,24.2031 L171.7313,23.0469 Q171.7313,21.7188 172.3406,20.5781 Q172.9656,19.4219 174.0594,18.8125 Q175.1531,18.1875 176.3875,18.1875 Q177.1219,18.1875 177.7625,18.3594 Q178.4188,18.5156 178.9656,18.875 Z " fill="#000000"/><text fill="#000000" font-family="sans-serif" font-size="14" lengthAdjust="spacing" textLength="78" x="192.8" y="28.7969">Collaborator</text><line style="stroke:#181818;stroke-width:0.5;" x1="150.5" x2="284.5" y1="39" y2="39"/><text fill="#000000" font-family="sans-serif" font-size="14" lengthAdjust="spacing" textLength="35" x="155.5" y="58.1074">name</text><text fill="#000000" font-family="sans-serif" font-size="14" lengthAdjust="spacing" textLength="40" x="155.5" y="76.7285">phone</text><text fill="#000000" font-family="sans-serif" font-size="14" lengthAdjust="spacing" textLength="56" x="155.5" y="95.3496">birthdate</text><text fill="#000000" font-family="sans-serif" font-size="14" lengthAdjust="spacing" textLength="93" x="155.5" y="113.9707">admissionDate</text><text fill="#000000" font-family="sans-serif" font-size="14" lengthAdjust="spacing" textLength="51" x="155.5" y="132.5918">address</text><text fill="#000000" font-family="sans-serif" font-size="14" lengthAdjust="spacing" textLength="107" x="155.5" y="151.2129">idDocumentType</text><text fill="#000000" font-family="sans-serif" font-size="14" lengthAdjust="spacing" textLength="124" x="155.5" y="169.834">idDocumentNumber</text><text fill="#000000" font-family="sans-serif" font-size="14" lengthAdjust="spacing" textLength="38" x="155.5" y="188.4551">status</text><line style="stroke:#181818;stroke-width:0.5;" x1="150.5" x2="284.5" y1="195.9688" y2="195.9688"/></g><!--class AgendaEntryRepository--><g id="elem_AgendaEntryRepository"><rect codeLine="45" fill="#F1F1F1" height="122.4844" id="AgendaEntryRepository" rx="2.5" ry="2.5" style="stroke:#181818;stroke-width:0.5;" width="524" x="486.5" y="685"/><ellipse cx="669.25" cy="701" fill="#ADD1B2" rx="11" ry="11" style="stroke:#181818;stroke-width:1.0;"/><path d="M672.0156,696.875 Q672.1719,696.6563 672.3594,696.5469 Q672.5469,696.4375 672.7656,696.4375 Q673.1406,696.4375 673.375,696.7031 Q673.6094,696.9531 673.6094,697.5625 L673.6094,699.0156 Q673.6094,699.625 673.375,699.8906 Q673.1406,700.1563 672.7656,700.1563 Q672.4219,700.1563 672.2188,699.9531 Q672.0156,699.7656 671.9063,699.25 Q671.8594,698.8906 671.6719,698.7031 Q671.3438,698.3281 670.7344,698.1094 Q670.125,697.8906 669.5,697.8906 Q668.7344,697.8906 668.0938,698.2188 Q667.4688,698.5469 666.9688,699.2969 Q666.4844,700.0469 666.4844,701.0781 L666.4844,702.1719 Q666.4844,703.4063 667.375,704.2344 Q668.2656,705.0469 669.8594,705.0469 Q670.7969,705.0469 671.4531,704.7969 Q671.8438,704.6406 672.2656,704.2031 Q672.5313,703.9375 672.6719,703.8594 Q672.8281,703.7813 673.0313,703.7813 Q673.3594,703.7813 673.6094,704.0469 Q673.875,704.2969 673.875,704.6406 Q673.875,704.9844 673.5313,705.3906 Q673.0313,705.9688 672.2344,706.2969 Q671.1563,706.75 669.8594,706.75 Q668.3438,706.75 667.1406,706.125 Q666.1563,705.625 665.4688,704.5625 Q664.7813,703.4844 664.7813,702.2031 L664.7813,701.0469 Q664.7813,699.7188 665.3906,698.5781 Q666.0156,697.4219 667.1094,696.8125 Q668.2031,696.1875 669.4375,696.1875 Q670.1719,696.1875 670.8125,696.3594 Q671.4688,696.5156 672.0156,696.875 Z " fill="#000000"/><text fill="#000000" font-family="sans-serif" font-size="14" lengthAdjust="spacing" textLength="150" x="689.75" y="706.7969">AgendaEntryRepository</text><line style="stroke:#181818;stroke-width:0.5;" x1="487.5" x2="1009.5" y1="717" y2="717"/><text fill="#000000" font-family="sans-serif" font-size="14" lengthAdjust="spacing" textLength="255" x="492.5" y="736.1074">-ArrayList&lt;AgendaEntry&gt; agendaEntries</text><line style="stroke:#181818;stroke-width:0.5;" x1="487.5" x2="1009.5" y1="743.6211" y2="743.6211"/><text fill="#000000" font-family="sans-serif" font-size="14" lengthAdjust="spacing" textLength="321" x="492.5" y="762.7285">+getEntrysByCollaborator(String currentUserEmail)</text><text fill="#000000" font-family="sans-serif" font-size="14" lengthAdjust="spacing" textLength="512" x="492.5" y="781.3496">+getAgendaEntryByDescriptionAndGreenspace(dto.description, dto.greenSpace)</text><text fill="#000000" font-family="sans-serif" font-size="14" lengthAdjust="spacing" textLength="218" x="492.5" y="799.9707">+update(entry, EntryStatus.DONE)</text></g><!--class Repositories--><g id="elem_Repositories"><rect codeLine="53" fill="#F1F1F1" height="122.4844" id="Repositories" rx="2.5" ry="2.5" style="stroke:#181818;stroke-width:0.5;" width="200" x="399.5" y="484"/><ellipse cx="455.75" cy="500" fill="#ADD1B2" rx="11" ry="11" style="stroke:#181818;stroke-width:1.0;"/><path d="M458.5156,495.875 Q458.6719,495.6563 458.8594,495.5469 Q459.0469,495.4375 459.2656,495.4375 Q459.6406,495.4375 459.875,495.7031 Q460.1094,495.9531 460.1094,496.5625 L460.1094,498.0156 Q460.1094,498.625 459.875,498.8906 Q459.6406,499.1563 459.2656,499.1563 Q458.9219,499.1563 458.7188,498.9531 Q458.5156,498.7656 458.4063,498.25 Q458.3594,497.8906 458.1719,497.7031 Q457.8438,497.3281 457.2344,497.1094 Q456.625,496.8906 456,496.8906 Q455.2344,496.8906 454.5938,497.2188 Q453.9688,497.5469 453.4688,498.2969 Q452.9844,499.0469 452.9844,500.0781 L452.9844,501.1719 Q452.9844,502.4063 453.875,503.2344 Q454.7656,504.0469 456.3594,504.0469 Q457.2969,504.0469 457.9531,503.7969 Q458.3438,503.6406 458.7656,503.2031 Q459.0313,502.9375 459.1719,502.8594 Q459.3281,502.7813 459.5313,502.7813 Q459.8594,502.7813 460.1094,503.0469 Q460.375,503.2969 460.375,503.6406 Q460.375,503.9844 460.0313,504.3906 Q459.5313,504.9688 458.7344,505.2969 Q457.6563,505.75 456.3594,505.75 Q454.8438,505.75 453.6406,505.125 Q452.6563,504.625 451.9688,503.5625 Q451.2813,502.4844 451.2813,501.2031 L451.2813,500.0469 Q451.2813,498.7188 451.8906,497.5781 Q452.5156,496.4219 453.6094,495.8125 Q454.7031,495.1875 455.9375,495.1875 Q456.6719,495.1875 457.3125,495.3594 Q457.9688,495.5156 458.5156,495.875 Z " fill="#000000"/><text fill="#000000" font-family="sans-serif" font-size="14" lengthAdjust="spacing" textLength="79" x="476.25" y="505.7969">Repositories</text><line style="stroke:#181818;stroke-width:0.5;" x1="400.5" x2="598.5" y1="516" y2="516"/><text fill="#000000" font-family="sans-serif" font-size="14" lengthAdjust="spacing" textLength="154" x="405.5" y="535.1074">-agendaEntryRepository</text><line style="stroke:#181818;stroke-width:0.5;" x1="400.5" x2="598.5" y1="542.6211" y2="542.6211"/><text fill="#000000" font-family="sans-serif" font-size="14" lengthAdjust="spacing" textLength="94" x="405.5" y="561.7285">-Repositories()</text><text fill="#000000" font-family="sans-serif" font-size="14" lengthAdjust="spacing" textLength="91" x="405.5" y="580.3496">+getInstance()</text><text fill="#000000" font-family="sans-serif" font-size="14" lengthAdjust="spacing" textLength="188" x="405.5" y="598.9707">+getAgendaEntryRepository()</text></g><!--class AgendaEntryMapper--><g id="elem_AgendaEntryMapper"><rect codeLine="62" fill="#F1F1F1" height="66.6211" id="AgendaEntryMapper" rx="2.5" ry="2.5" style="stroke:#181818;stroke-width:0.5;" width="295" x="695" y="310.5"/><ellipse cx="773.25" cy="326.5" fill="#ADD1B2" rx="11" ry="11" style="stroke:#181818;stroke-width:1.0;"/><path d="M776.0156,322.375 Q776.1719,322.1563 776.3594,322.0469 Q776.5469,321.9375 776.7656,321.9375 Q777.1406,321.9375 777.375,322.2031 Q777.6094,322.4531 777.6094,323.0625 L777.6094,324.5156 Q777.6094,325.125 777.375,325.3906 Q777.1406,325.6563 776.7656,325.6563 Q776.4219,325.6563 776.2188,325.4531 Q776.0156,325.2656 775.9063,324.75 Q775.8594,324.3906 775.6719,324.2031 Q775.3438,323.8281 774.7344,323.6094 Q774.125,323.3906 773.5,323.3906 Q772.7344,323.3906 772.0938,323.7188 Q771.4688,324.0469 770.9688,324.7969 Q770.4844,325.5469 770.4844,326.5781 L770.4844,327.6719 Q770.4844,328.9063 771.375,329.7344 Q772.2656,330.5469 773.8594,330.5469 Q774.7969,330.5469 775.4531,330.2969 Q775.8438,330.1406 776.2656,329.7031 Q776.5313,329.4375 776.6719,329.3594 Q776.8281,329.2813 777.0313,329.2813 Q777.3594,329.2813 777.6094,329.5469 Q777.875,329.7969 777.875,330.1406 Q777.875,330.4844 777.5313,330.8906 Q777.0313,331.4688 776.2344,331.7969 Q775.1563,332.25 773.8594,332.25 Q772.3438,332.25 771.1406,331.625 Q770.1563,331.125 769.4688,330.0625 Q768.7813,328.9844 768.7813,327.7031 L768.7813,326.5469 Q768.7813,325.2188 769.3906,324.0781 Q770.0156,322.9219 771.1094,322.3125 Q772.2031,321.6875 773.4375,321.6875 Q774.1719,321.6875 774.8125,321.8594 Q775.4688,322.0156 776.0156,322.375 Z " fill="#000000"/><text fill="#000000" font-family="sans-serif" font-size="14" lengthAdjust="spacing" textLength="130" x="793.75" y="332.2969">AgendaEntryMapper</text><line style="stroke:#181818;stroke-width:0.5;" x1="696" x2="989" y1="342.5" y2="342.5"/><line style="stroke:#181818;stroke-width:0.5;" x1="696" x2="989" y1="350.5" y2="350.5"/><text fill="#000000" font-family="sans-serif" font-size="14" lengthAdjust="spacing" textLength="283" x="701" y="369.6074">+toDtoList(List&lt;AgendaEntry&gt; toDoEntryList)</text></g><!--class MarkTaskCompletedController--><g id="elem_MarkTaskCompletedController"><rect codeLine="68" fill="#F1F1F1" height="122.4844" id="MarkTaskCompletedController" rx="2.5" ry="2.5" style="stroke:#181818;stroke-width:0.5;" width="320" x="339.5" y="283"/><ellipse cx="399.25" cy="299" fill="#ADD1B2" rx="11" ry="11" style="stroke:#181818;stroke-width:1.0;"/><path d="M402.0156,294.875 Q402.1719,294.6563 402.3594,294.5469 Q402.5469,294.4375 402.7656,294.4375 Q403.1406,294.4375 403.375,294.7031 Q403.6094,294.9531 403.6094,295.5625 L403.6094,297.0156 Q403.6094,297.625 403.375,297.8906 Q403.1406,298.1563 402.7656,298.1563 Q402.4219,298.1563 402.2188,297.9531 Q402.0156,297.7656 401.9063,297.25 Q401.8594,296.8906 401.6719,296.7031 Q401.3438,296.3281 400.7344,296.1094 Q400.125,295.8906 399.5,295.8906 Q398.7344,295.8906 398.0938,296.2188 Q397.4688,296.5469 396.9688,297.2969 Q396.4844,298.0469 396.4844,299.0781 L396.4844,300.1719 Q396.4844,301.4063 397.375,302.2344 Q398.2656,303.0469 399.8594,303.0469 Q400.7969,303.0469 401.4531,302.7969 Q401.8438,302.6406 402.2656,302.2031 Q402.5313,301.9375 402.6719,301.8594 Q402.8281,301.7813 403.0313,301.7813 Q403.3594,301.7813 403.6094,302.0469 Q403.875,302.2969 403.875,302.6406 Q403.875,302.9844 403.5313,303.3906 Q403.0313,303.9688 402.2344,304.2969 Q401.1563,304.75 399.8594,304.75 Q398.3438,304.75 397.1406,304.125 Q396.1563,303.625 395.4688,302.5625 Q394.7813,301.4844 394.7813,300.2031 L394.7813,299.0469 Q394.7813,297.7188 395.3906,296.5781 Q396.0156,295.4219 397.1094,294.8125 Q398.2031,294.1875 399.4375,294.1875 Q400.1719,294.1875 400.8125,294.3594 Q401.4688,294.5156 402.0156,294.875 Z " fill="#000000"/><text fill="#000000" font-family="sans-serif" font-size="14" lengthAdjust="spacing" textLength="192" x="419.75" y="304.7969">MarkTaskCompletedController</text><line style="stroke:#181818;stroke-width:0.5;" x1="340.5" x2="658.5" y1="315" y2="315"/><text fill="#000000" font-family="sans-serif" font-size="14" lengthAdjust="spacing" textLength="308" x="345.5" y="334.1074">-AgendaEntryRepository agendaEntryRepository</text><text fill="#000000" font-family="sans-serif" font-size="14" lengthAdjust="spacing" textLength="268" x="345.5" y="352.7285">-AgendaEntryMapper agendaEntryMapper</text><line style="stroke:#181818;stroke-width:0.5;" x1="340.5" x2="658.5" y1="360.2422" y2="360.2422"/><text fill="#000000" font-family="sans-serif" font-size="14" lengthAdjust="spacing" textLength="172" x="345.5" y="379.3496">+getEntrysByCollaborator()</text><text fill="#000000" font-family="sans-serif" font-size="14" lengthAdjust="spacing" textLength="301" x="345.5" y="397.9707">+completedAgendaEntry(AgendaEntryDTO dto)</text></g><!--class MarkTaskCompletedUI--><g id="elem_MarkTaskCompletedUI"><rect codeLine="77" fill="#F1F1F1" height="48" id="MarkTaskCompletedUI" rx="2.5" ry="2.5" style="stroke:#181818;stroke-width:0.5;" width="174" x="130.5" y="320"/><ellipse cx="145.5" cy="336" fill="#ADD1B2" rx="11" ry="11" style="stroke:#181818;stroke-width:1.0;"/><path d="M148.2656,331.875 Q148.4219,331.6563 148.6094,331.5469 Q148.7969,331.4375 149.0156,331.4375 Q149.3906,331.4375 149.625,331.7031 Q149.8594,331.9531 149.8594,332.5625 L149.8594,334.0156 Q149.8594,334.625 149.625,334.8906 Q149.3906,335.1563 149.0156,335.1563 Q148.6719,335.1563 148.4688,334.9531 Q148.2656,334.7656 148.1563,334.25 Q148.1094,333.8906 147.9219,333.7031 Q147.5938,333.3281 146.9844,333.1094 Q146.375,332.8906 145.75,332.8906 Q144.9844,332.8906 144.3438,333.2188 Q143.7188,333.5469 143.2188,334.2969 Q142.7344,335.0469 142.7344,336.0781 L142.7344,337.1719 Q142.7344,338.4063 143.625,339.2344 Q144.5156,340.0469 146.1094,340.0469 Q147.0469,340.0469 147.7031,339.7969 Q148.0938,339.6406 148.5156,339.2031 Q148.7813,338.9375 148.9219,338.8594 Q149.0781,338.7813 149.2813,338.7813 Q149.6094,338.7813 149.8594,339.0469 Q150.125,339.2969 150.125,339.6406 Q150.125,339.9844 149.7813,340.3906 Q149.2813,340.9688 148.4844,341.2969 Q147.4063,341.75 146.1094,341.75 Q144.5938,341.75 143.3906,341.125 Q142.4063,340.625 141.7188,339.5625 Q141.0313,338.4844 141.0313,337.2031 L141.0313,336.0469 Q141.0313,334.7188 141.6406,333.5781 Q142.2656,332.4219 143.3594,331.8125 Q144.4531,331.1875 145.6875,331.1875 Q146.4219,331.1875 147.0625,331.3594 Q147.7188,331.5156 148.2656,331.875 Z " fill="#000000"/><text fill="#000000" font-family="sans-serif" font-size="14" lengthAdjust="spacing" textLength="142" x="159.5" y="341.7969">MarkTaskCompletedUI</text><line style="stroke:#181818;stroke-width:0.5;" x1="131.5" x2="303.5" y1="352" y2="352"/><line style="stroke:#181818;stroke-width:0.5;" x1="131.5" x2="303.5" y1="360" y2="360"/></g><!--class ToDoEntry--><g id="elem_ToDoEntry"><rect fill="#F1F1F1" height="48" id="ToDoEntry" rx="2.5" ry="2.5" style="stroke:#181818;stroke-width:0.5;" width="100" x="1025.5" y="320"/><ellipse cx="1040.5" cy="336" fill="#ADD1B2" rx="11" ry="11" style="stroke:#181818;stroke-width:1.0;"/><path d="M1043.2656,331.875 Q1043.4219,331.6563 1043.6094,331.5469 Q1043.7969,331.4375 1044.0156,331.4375 Q1044.3906,331.4375 1044.625,331.7031 Q1044.8594,331.9531 1044.8594,332.5625 L1044.8594,334.0156 Q1044.8594,334.625 1044.625,334.8906 Q1044.3906,335.1563 1044.0156,335.1563 Q1043.6719,335.1563 1043.4688,334.9531 Q1043.2656,334.7656 1043.1563,334.25 Q1043.1094,333.8906 1042.9219,333.7031 Q1042.5938,333.3281 1041.9844,333.1094 Q1041.375,332.8906 1040.75,332.8906 Q1039.9844,332.8906 1039.3438,333.2188 Q1038.7188,333.5469 1038.2188,334.2969 Q1037.7344,335.0469 1037.7344,336.0781 L1037.7344,337.1719 Q1037.7344,338.4063 1038.625,339.2344 Q1039.5156,340.0469 1041.1094,340.0469 Q1042.0469,340.0469 1042.7031,339.7969 Q1043.0938,339.6406 1043.5156,339.2031 Q1043.7813,338.9375 1043.9219,338.8594 Q1044.0781,338.7813 1044.2813,338.7813 Q1044.6094,338.7813 1044.8594,339.0469 Q1045.125,339.2969 1045.125,339.6406 Q1045.125,339.9844 1044.7813,340.3906 Q1044.2813,340.9688 1043.4844,341.2969 Q1042.4063,341.75 1041.1094,341.75 Q1039.5938,341.75 1038.3906,341.125 Q1037.4063,340.625 1036.7188,339.5625 Q1036.0313,338.4844 1036.0313,337.2031 L1036.0313,336.0469 Q1036.0313,334.7188 1036.6406,333.5781 Q1037.2656,332.4219 1038.3594,331.8125 Q1039.4531,331.1875 1040.6875,331.1875 Q1041.4219,331.1875 1042.0625,331.3594 Q1042.7188,331.5156 1043.2656,331.875 Z " fill="#000000"/><text fill="#000000" font-family="sans-serif" font-size="14" lengthAdjust="spacing" textLength="68" x="1054.5" y="341.7969">ToDoEntry</text><line style="stroke:#181818;stroke-width:0.5;" x1="1026.5" x2="1124.5" y1="352" y2="352"/><line style="stroke:#181818;stroke-width:0.5;" x1="1026.5" x2="1124.5" y1="360" y2="360"/></g><!--link MarkTaskCompletedUI to MarkTaskCompletedController--><g id="link_MarkTaskCompletedUI_MarkTaskCompletedController"><path codeLine="81" d="M304.74,344 C308.97,344 311.5,344 311.5,344 C311.5,344 317.77,344 333.45,344 " fill="none" id="MarkTaskCompletedUI-to-MarkTaskCompletedController" style="stroke:#181818;stroke-width:1.0;stroke-dasharray:7.0,7.0;"/><polygon fill="#181818" points="339.45,344,330.45,340,334.45,344,330.45,348,339.45,344" style="stroke:#181818;stroke-width:1.0;"/></g><!--link MarkTaskCompletedController to Repositories--><g id="link_MarkTaskCompletedController_Repositories"><path codeLine="82" d="M499.5,405.25 C499.5,430.18 499.5,453.04 499.5,477.96 " fill="none" id="MarkTaskCompletedController-to-Repositories" style="stroke:#181818;stroke-width:1.0;stroke-dasharray:7.0,7.0;"/><polygon fill="#181818" points="499.5,483.96,503.5,474.96,499.5,478.96,495.5,474.96,499.5,483.96" style="stroke:#181818;stroke-width:1.0;"/><text fill="#000000" font-family="sans-serif" font-size="13" lengthAdjust="spacing" textLength="67" x="500.5" y="450.0283">repositories</text></g><!--link Repositories to AgendaEntryRepository--><g id="link_Repositories_AgendaEntryRepository"><path codeLine="83" d="M574.88,606.25 C606.09,631.18 637.503,656.294 668.683,681.214 " fill="none" id="Repositories-to-AgendaEntryRepository" style="stroke:#181818;stroke-width:1.0;"/><polygon fill="#181818" points="673.37,684.96,668.8369,676.2164,669.4642,681.8384,663.8422,682.4657,673.37,684.96" style="stroke:#181818;stroke-width:1.0;"/><text fill="#000000" font-family="sans-serif" font-size="13" lengthAdjust="spacing" textLength="7" x="657.2784" y="673.9366">1</text></g><!--link Repositories to Repositories--><g id="link_Repositories_Repositories"><path codeLine="84" d="M599.59,526.97 C619.93,528.93 634.5,534.94 634.5,545 C634.5,555.06 625.9023,560.4945 605.5623,562.4545 " fill="none" id="Repositories-to-Repositories" style="stroke:#181818;stroke-width:1.0;"/><polygon fill="#181818" points="599.59,563.03,608.9322,566.1483,604.5669,562.5504,608.1648,558.1852,599.59,563.03" style="stroke:#181818;stroke-width:1.0;"/><text fill="#000000" font-family="sans-serif" font-size="13" lengthAdjust="spacing" textLength="49" x="640.5" y="550.5283">instance</text></g><!--link MarkTaskCompletedController to AgendaEntryMapper--><g id="link_MarkTaskCompletedController_AgendaEntryMapper"><path codeLine="85" d="M659.68,344 C671.48,344 677.96,344 688.98,344 " fill="none" id="MarkTaskCompletedController-to-AgendaEntryMapper" style="stroke:#181818;stroke-width:1.0;stroke-dasharray:7.0,7.0;"/><polygon fill="#181818" points="694.98,344,685.98,340,689.98,344,685.98,348,694.98,344" style="stroke:#181818;stroke-width:1.0;"/></g><!--link MarkTaskCompletedController to AgendaEntryRepository--><g id="link_MarkTaskCompletedController_AgendaEntryRepository"><path codeLine="86" d="M584.33,405.16 C637.3,442.73 695.5,484 695.5,484 C695.5,484 719.4261,601.83 735.0761,678.91 " fill="none" id="MarkTaskCompletedController-to-AgendaEntryRepository" style="stroke:#181818;stroke-width:1.0;"/><polygon fill="#181818" points="736.27,684.79,738.3992,675.1741,735.2751,679.89,730.5592,676.7659,736.27,684.79" style="stroke:#181818;stroke-width:1.0;"/><text fill="#000000" font-family="sans-serif" font-size="13" lengthAdjust="spacing" textLength="28" x="721.5" y="550.5283">uses</text></g><!--reverse link SystemUser to Collaborator--><g id="link_SystemUser_Collaborator"><path codeLine="88" d="M132.13,105.5 C136.94,105.5 136.23,105.5 149.37,105.5 " fill="none" id="SystemUser-backto-Collaborator" style="stroke:#181818;stroke-width:1.0;"/><polygon fill="none" points="114.13,105.5,132.13,111.5,132.13,99.5,114.13,105.5" style="stroke:#181818;stroke-width:1.0;"/></g><!--reverse link ToDoEntry to AgendaEntry--><g id="link_ToDoEntry_AgendaEntry"><path codeLine="89" d="M1061.9407,385.2805 C1051.7307,415.6305 1039.28,452.58 1025.76,492.74 " fill="none" id="ToDoEntry-backto-AgendaEntry" style="stroke:#181818;stroke-width:1.0;"/><polygon fill="none" points="1067.68,368.22,1056.2539,383.3674,1067.6275,387.1936,1067.68,368.22" style="stroke:#181818;stroke-width:1.0;"/></g><!--link Collaborator to MarkTaskCompletedUI--><g id="link_Collaborator_MarkTaskCompletedUI"><path codeLine="91" d="M217.5,204.06 C217.5,246.56 217.5,292.74 217.5,319.71 " fill="none" id="Collaborator-MarkTaskCompletedUI" style="stroke:#181818;stroke-width:1.0;"/><text fill="#000000" font-family="sans-serif" font-size="13" lengthAdjust="spacing" textLength="7" x="210.243" y="225.9624">1</text><text fill="#000000" font-family="sans-serif" font-size="13" lengthAdjust="spacing" textLength="7" x="209.6469" y="308.7812">1</text></g><!--reverse link AgendaEntry to AgendaEntryRepository--><g id="link_AgendaEntry_AgendaEntryRepository"><path codeLine="92" d="M937.1151,600.6364 C902.0551,627.4664 863.63,656.88 826.96,684.95 " fill="none" id="AgendaEntry-backto-AgendaEntryRepository" style="stroke:#181818;stroke-width:1.0;"/><polygon fill="#181818" points="941.88,596.99,932.3018,599.283,937.9093,600.0286,937.1636,605.6361,941.88,596.99" style="stroke:#181818;stroke-width:1.0;"/><text fill="#000000" font-family="sans-serif" font-size="13" lengthAdjust="spacing" textLength="36" x="886.5" y="651.0283">stores</text><text fill="#000000" font-family="sans-serif" font-size="13" lengthAdjust="spacing" textLength="5" x="928.888" y="599.0716">*</text><text fill="#000000" font-family="sans-serif" font-size="13" lengthAdjust="spacing" textLength="7" x="828.6273" y="673.9254">1</text></g><!--reverse link AgendaEntryDTO to AgendaEntryMapper--><g id="link_AgendaEntryDTO_AgendaEntryMapper"><path codeLine="93" d="M842.5,210.06 C842.5,247.98 842.5,282.82 842.5,310.34 " fill="none" id="AgendaEntryDTO-backto-AgendaEntryMapper" style="stroke:#181818;stroke-width:1.0;"/><polygon fill="#181818" points="842.5,204.06,838.5,213.06,842.5,209.06,846.5,213.06,842.5,204.06" style="stroke:#181818;stroke-width:1.0;"/><text fill="#000000" font-family="sans-serif" font-size="13" lengthAdjust="spacing" textLength="43" x="843.5" y="249.0283">creates</text><text fill="#000000" font-family="sans-serif" font-size="13" lengthAdjust="spacing" textLength="5" x="837.3164" y="225.9624">*</text><text fill="#000000" font-family="sans-serif" font-size="13" lengthAdjust="spacing" textLength="7" x="834.8109" y="299.134">1</text></g><!--SRC=[bLHBZzem4BxxLrYSicL1xHKX99QW2gcxApLixoQP1el4jcn7stJR_zvn4XBd0LAv4CyhtsDYS-52CSro6cVCcAsrcfyA2uTOYeZ_1lgPcBP4iVZ2KeXicG7L45icqWoy0dDcYNpd8gK_MMRyJCO5s581LJ8htS7BtNmpgJ9qcu98s5vONT8FGl6NC0lL0wPbpF6K787bWz0FEFCu0qF-JamAZwyuh3yjrG0YGfRrCG4JQwuibw8wmo-5d2492ytQOA5nPbo6u9hhCZS-iimMvZymTY2ZqbZ8tmpeXgrWUJCvPpohdXGMlakTr8UpH3tR_ftCCdQIY56E9jIbxkd4jJrtEYOvDmOvXLqaqM1g1Zm9PLpaIEo85Wv2BqL-0bq5JKqQaOpr_WvA6ewGhXukw5PhLdxZngwzkWrbxO4xNR1qdeAjakQfzDa54TRWiiM5reZ4IRPt4ZrScxovJsXHQ-TM95-TryPv7IHMBZsl7waBTBjGJokK4okep7sa-yxZPVZwid_ev6-98lgMAfiIWZH9loEetaRd5D4V10eg4A0NcrGK2oPt_9afrMxHd5ePMkdq3iQYOqvMZovLZslcFJDzEJ9psSbSPO0hkvDOXowqanStV9ucFUfeKB9XX7Ii9yrlL8clkBoHmU13HqDzYKQKtWuVLNeYGPURUnAGU_8iiRUt3YkyDRiZwUKMYmsTVPbDQpae7OtbpQhSXxCPotwtmK6QjdP52-C-Jk-kMlzPzAuUShokb4lr72UaTqSvrbZW_YOC8FxrF_iqe-kczXOoW_-8RR02DpgRvLlHM0D-tqZf7m00]--></g></svg>