<?xml version="1.0" encoding="us-ascii" standalone="no"?><svg xmlns="http://www.w3.org/2000/svg" xmlns:xlink="http://www.w3.org/1999/xlink" contentStyleType="text/css" height="451.8px" preserveAspectRatio="none" style="width:1085px;height:451px;background:#FFFFFF;" version="1.1" viewBox="0 0 1085 451" width="1085.4px" zoomAndPan="magnify"><defs/><g><rect fill="#FFFFFF" height="312.4811" style="stroke:#181818;stroke-width:0.9;" width="9" x="70.2" y="81.4799"/><rect fill="#FFFFFF" height="304.3811" style="stroke:#181818;stroke-width:0.9;" width="9" x="243.9" y="81.4799"/><rect fill="#FFFFFF" height="28.1619" style="stroke:#181818;stroke-width:0.9;" width="9" x="391.05" y="81.4799"/><rect fill="#FFFFFF" height="28.1619" style="stroke:#181818;stroke-width:0.9;" width="9" x="487.35" y="137.8037"/><rect fill="#FFFFFF" height="38.6429" style="stroke:#181818;stroke-width:0.9;" width="9" x="615.15" y="204.6085"/><rect fill="#FFFFFF" height="86.2857" style="stroke:#181818;stroke-width:0.9;" width="9" x="764.1" y="271.4133"/><rect fill="#FFFFFF" height="13.5" style="stroke:#181818;stroke-width:0.9;" width="9" x="1009.8" y="323.2371"/><rect fill="none" height="45.5238" style="stroke:#000000;stroke-width:1.35;" width="385.2" x="694.8" y="284.9133"/><line style="stroke:#181818;stroke-width:0.45;stroke-dasharray:5.0,5.0;" x1="74.7" x2="74.7" y1="51.518" y2="402.0609"/><line style="stroke:#181818;stroke-width:0.45;stroke-dasharray:5.0,5.0;" x1="248.4" x2="248.4" y1="51.518" y2="402.0609"/><line style="stroke:#181818;stroke-width:0.45;stroke-dasharray:5.0,5.0;" x1="395.1" x2="395.1" y1="51.518" y2="402.0609"/><line style="stroke:#181818;stroke-width:0.45;stroke-dasharray:5.0,5.0;" x1="491.4" x2="491.4" y1="51.518" y2="402.0609"/><line style="stroke:#181818;stroke-width:0.45;stroke-dasharray:5.0,5.0;" x1="619.2" x2="619.2" y1="51.518" y2="402.0609"/><line style="stroke:#181818;stroke-width:0.45;stroke-dasharray:5.0,5.0;" x1="768.6" x2="768.6" y1="51.518" y2="402.0609"/><line style="stroke:#181818;stroke-width:0.45;stroke-dasharray:5.0,5.0;" x1="1014.3" x2="1014.3" y1="51.518" y2="402.0609"/><rect fill="#E3E3E3" height="29.359" rx="2.25" ry="2.25" style="stroke:#181818;stroke-width:0.45;" width="140.4" x="4.5" y="21.259"/><text fill="#000000" font-family="sans-serif" font-size="12.6" lengthAdjust="spacing" textLength="127.8" x="10.8" y="41.1557">MarkTaskCompletedUI</text><rect fill="#E3E3E3" height="29.359" rx="2.25" ry="2.25" style="stroke:#181818;stroke-width:0.45;" width="140.4" x="4.5" y="401.1609"/><text fill="#000000" font-family="sans-serif" font-size="12.6" lengthAdjust="spacing" textLength="127.8" x="10.8" y="421.0576">MarkTaskCompletedUI</text><rect fill="#E3E3E3" height="29.359" rx="2.25" ry="2.25" style="stroke:#181818;stroke-width:0.45;" width="189" x="153.9" y="21.259"/><text fill="#000000" font-family="sans-serif" font-size="12.6" lengthAdjust="spacing" textLength="176.4" x="160.2" y="41.1557">:MarkTaskCompletedController</text><rect fill="#E3E3E3" height="29.359" rx="2.25" ry="2.25" style="stroke:#181818;stroke-width:0.45;" width="189" x="153.9" y="401.1609"/><text fill="#000000" font-family="sans-serif" font-size="12.6" lengthAdjust="spacing" textLength="176.4" x="160.2" y="421.0576">:MarkTaskCompletedController</text><rect fill="#E3E3E3" height="29.359" rx="2.25" ry="2.25" style="stroke:#181818;stroke-width:0.45;" width="87.3" x="351.9" y="21.259"/><text fill="#000000" font-family="sans-serif" font-size="12.6" lengthAdjust="spacing" textLength="74.7" x="358.2" y="41.1557">:Repositories</text><rect fill="#E3E3E3" height="29.359" rx="2.25" ry="2.25" style="stroke:#181818;stroke-width:0.45;" width="87.3" x="351.9" y="401.1609"/><text fill="#000000" font-family="sans-serif" font-size="12.6" lengthAdjust="spacing" textLength="74.7" x="358.2" y="421.0576">:Repositories</text><rect fill="#E3E3E3" height="46.118" rx="2.25" ry="2.25" style="stroke:#181818;stroke-width:0.45;" width="87.3" x="448.2" y="4.5"/><text fill="#000000" font-family="sans-serif" font-size="12.6" lengthAdjust="spacing" textLength="66.6" x="458.55" y="24.3967">repositories</text><text fill="#000000" font-family="sans-serif" font-size="12.6" lengthAdjust="spacing" textLength="74.7" x="454.5" y="41.1557">:Repositories</text><rect fill="#E3E3E3" height="46.118" rx="2.25" ry="2.25" style="stroke:#181818;stroke-width:0.45;" width="87.3" x="448.2" y="401.1609"/><text fill="#000000" font-family="sans-serif" font-size="12.6" lengthAdjust="spacing" textLength="66.6" x="458.55" y="421.0576">repositories</text><text fill="#000000" font-family="sans-serif" font-size="12.6" lengthAdjust="spacing" textLength="74.7" x="454.5" y="437.8166">:Repositories</text><rect fill="#E3E3E3" height="46.118" rx="2.25" ry="2.25" style="stroke:#181818;stroke-width:0.45;" width="150.3" x="544.5" y="4.5"/><text fill="#000000" font-family="sans-serif" font-size="12.6" lengthAdjust="spacing" textLength="137.7" x="550.8" y="24.3967">agendaEntryRepository:</text><text fill="#000000" font-family="sans-serif" font-size="12.6" lengthAdjust="spacing" textLength="135" x="552.15" y="41.1557">AgendaEntryRepository</text><rect fill="#E3E3E3" height="46.118" rx="2.25" ry="2.25" style="stroke:#181818;stroke-width:0.45;" width="150.3" x="544.5" y="401.1609"/><text fill="#000000" font-family="sans-serif" font-size="12.6" lengthAdjust="spacing" textLength="137.7" x="550.8" y="421.0576">agendaEntryRepository:</text><text fill="#000000" font-family="sans-serif" font-size="12.6" lengthAdjust="spacing" textLength="135" x="552.15" y="437.8166">AgendaEntryRepository</text><rect fill="#E3E3E3" height="29.359" rx="2.25" ry="2.25" style="stroke:#181818;stroke-width:0.45;" width="129.6" x="703.8" y="21.259"/><text fill="#000000" font-family="sans-serif" font-size="12.6" lengthAdjust="spacing" textLength="117" x="710.1" y="41.1557">AgendaEntryMapper</text><rect fill="#E3E3E3" height="29.359" rx="2.25" ry="2.25" style="stroke:#181818;stroke-width:0.45;" width="129.6" x="703.8" y="401.1609"/><text fill="#000000" font-family="sans-serif" font-size="12.6" lengthAdjust="spacing" textLength="117" x="710.1" y="421.0576">AgendaEntryMapper</text><rect fill="#E3E3E3" height="29.359" rx="2.25" ry="2.25" style="stroke:#181818;stroke-width:0.45;" width="113.4" x="957.6" y="21.259"/><text fill="#000000" font-family="sans-serif" font-size="12.6" lengthAdjust="spacing" textLength="100.8" x="963.9" y="41.1557">AgendaEntryDTO</text><rect fill="#E3E3E3" height="29.359" rx="2.25" ry="2.25" style="stroke:#181818;stroke-width:0.45;" width="113.4" x="957.6" y="401.1609"/><text fill="#000000" font-family="sans-serif" font-size="12.6" lengthAdjust="spacing" textLength="100.8" x="963.9" y="421.0576">AgendaEntryDTO</text><rect fill="#FFFFFF" height="312.4811" style="stroke:#181818;stroke-width:0.9;" width="9" x="70.2" y="81.4799"/><rect fill="#FFFFFF" height="304.3811" style="stroke:#181818;stroke-width:0.9;" width="9" x="243.9" y="81.4799"/><rect fill="#FFFFFF" height="28.1619" style="stroke:#181818;stroke-width:0.9;" width="9" x="391.05" y="81.4799"/><rect fill="#FFFFFF" height="28.1619" style="stroke:#181818;stroke-width:0.9;" width="9" x="487.35" y="137.8037"/><rect fill="#FFFFFF" height="38.6429" style="stroke:#181818;stroke-width:0.9;" width="9" x="615.15" y="204.6085"/><rect fill="#FFFFFF" height="86.2857" style="stroke:#181818;stroke-width:0.9;" width="9" x="764.1" y="271.4133"/><rect fill="#FFFFFF" height="13.5" style="stroke:#181818;stroke-width:0.9;" width="9" x="1009.8" y="323.2371"/><polygon fill="#181818" points="380.25,77.8799,389.25,81.4799,380.25,85.0799,383.85,81.4799" style="stroke:#181818;stroke-width:0.9;"/><line style="stroke:#181818;stroke-width:0.9;" x1="252.9" x2="385.65" y1="81.4799" y2="81.4799"/><text fill="#000000" font-family="sans-serif" font-size="11.7" font-weight="bold" lengthAdjust="spacing" textLength="6.3" x="259.2" y="76.7435">1</text><text fill="#000000" font-family="sans-serif" font-size="11.7" lengthAdjust="spacing" textLength="67.5" x="269.1" y="76.7435">getInstance()</text><polygon fill="#181818" points="262.8,106.0418,253.8,109.6418,262.8,113.2418,259.2,109.6418" style="stroke:#181818;stroke-width:0.9;"/><line style="stroke:#181818;stroke-width:0.9;stroke-dasharray:2.0,2.0;" x1="257.4" x2="394.65" y1="109.6418" y2="109.6418"/><text fill="#000000" font-family="sans-serif" font-size="11.7" font-weight="bold" lengthAdjust="spacing" textLength="6.3" x="268.2" y="104.9054">2</text><text fill="#000000" font-family="sans-serif" font-size="11.7" lengthAdjust="spacing" textLength="60.3" x="278.1" y="104.9054">repositories</text><polygon fill="#181818" points="476.55,134.2037,485.55,137.8037,476.55,141.4037,480.15,137.8037" style="stroke:#181818;stroke-width:0.9;"/><line style="stroke:#181818;stroke-width:0.9;" x1="252.9" x2="481.95" y1="137.8037" y2="137.8037"/><text fill="#000000" font-family="sans-serif" font-size="11.7" font-weight="bold" lengthAdjust="spacing" textLength="6.3" x="259.2" y="133.0673">3</text><text fill="#000000" font-family="sans-serif" font-size="11.7" lengthAdjust="spacing" textLength="146.7" x="269.1" y="133.0673">getAgendaEntryRepository()</text><polygon fill="#181818" points="262.8,162.3656,253.8,165.9656,262.8,169.5656,259.2,165.9656" style="stroke:#181818;stroke-width:0.9;"/><line style="stroke:#181818;stroke-width:0.9;stroke-dasharray:2.0,2.0;" x1="257.4" x2="490.95" y1="165.9656" y2="165.9656"/><text fill="#000000" font-family="sans-serif" font-size="11.7" font-weight="bold" lengthAdjust="spacing" textLength="6.3" x="268.2" y="161.2292">4</text><text fill="#000000" font-family="sans-serif" font-size="11.7" lengthAdjust="spacing" textLength="130.5" x="278.1" y="161.2292">AgendaEntryRepository()</text><polygon fill="#181818" points="604.35,201.0085,613.35,204.6085,604.35,208.2085,607.95,204.6085" style="stroke:#181818;stroke-width:0.9;"/><line style="stroke:#181818;stroke-width:0.9;" x1="252.9" x2="609.75" y1="204.6085" y2="204.6085"/><text fill="#000000" font-family="sans-serif" font-size="11.7" font-weight="bold" lengthAdjust="spacing" textLength="6.3" x="259.2" y="199.8721">5</text><text fill="#000000" font-family="sans-serif" font-size="11.7" lengthAdjust="spacing" textLength="258.3" x="269.1" y="199.8721">getEntrysByCollaborator(String currentUserEmail)</text><path d="M628.2,177.6656 L628.2,217.2656 L891.9,217.2656 L891.9,186.6656 L882.9,177.6656 L628.2,177.6656 " fill="#FAFAFA" style="stroke:#181818;stroke-width:0.45;"/><path d="M882.9,177.6656 L882.9,186.6656 L891.9,186.6656 L882.9,177.6656 " fill="#FAFAFA" style="stroke:#181818;stroke-width:0.45;"/><text fill="#000000" font-family="sans-serif" font-size="11.7" lengthAdjust="spacing" textLength="241.2" x="633.6" y="194.7911">check the email associated with the employee</text><text fill="#000000" font-family="sans-serif" font-size="11.7" lengthAdjust="spacing" textLength="196.2" x="633.6" y="210.353">and see the team they are included in</text><polygon fill="#181818" points="262.8,239.6514,253.8,243.2514,262.8,246.8514,259.2,243.2514" style="stroke:#181818;stroke-width:0.9;"/><line style="stroke:#181818;stroke-width:0.9;stroke-dasharray:2.0,2.0;" x1="257.4" x2="618.75" y1="243.2514" y2="243.2514"/><text fill="#000000" font-family="sans-serif" font-size="11.7" font-weight="bold" lengthAdjust="spacing" textLength="6.3" x="268.2" y="238.5149">6</text><text fill="#000000" font-family="sans-serif" font-size="11.7" lengthAdjust="spacing" textLength="146.7" x="278.1" y="238.5149">agendaEntryListCollaborator</text><polygon fill="#181818" points="753.3,267.8133,762.3,271.4133,753.3,275.0133,756.9,271.4133" style="stroke:#181818;stroke-width:0.9;"/><line style="stroke:#181818;stroke-width:0.9;" x1="252.9" x2="758.7" y1="271.4133" y2="271.4133"/><text fill="#000000" font-family="sans-serif" font-size="11.7" font-weight="bold" lengthAdjust="spacing" textLength="6.3" x="259.2" y="266.6769">7</text><text fill="#000000" font-family="sans-serif" font-size="11.7" lengthAdjust="spacing" textLength="200.7" x="269.1" y="266.6769">toDtoList(agendaEntryListCollaborator)</text><path d="M694.8,284.9133 L760.5,284.9133 L760.5,293.2752 L751.5,302.2752 L694.8,302.2752 L694.8,284.9133 " fill="#EEEEEE" style="stroke:#000000;stroke-width:1.35;"/><rect fill="none" height="45.5238" style="stroke:#000000;stroke-width:1.35;" width="385.2" x="694.8" y="284.9133"/><text fill="#000000" font-family="sans-serif" font-size="11.7" font-weight="bold" lengthAdjust="spacing" textLength="25.2" x="708.3" y="298.4388">loop</text><text fill="#000000" font-family="sans-serif" font-size="9.9" font-weight="bold" lengthAdjust="spacing" textLength="206.1" x="774" y="297.3964">[for each agendaEntry in agendaEntryList]</text><polygon fill="#181818" points="999,319.6371,1008,323.2371,999,326.8371,1002.6,323.2371" style="stroke:#181818;stroke-width:0.9;"/><line style="stroke:#181818;stroke-width:0.9;" x1="773.1" x2="1004.4" y1="323.2371" y2="323.2371"/><text fill="#000000" font-family="sans-serif" font-size="11.7" font-weight="bold" lengthAdjust="spacing" textLength="6.3" x="779.4" y="318.5007">8</text><text fill="#000000" font-family="sans-serif" font-size="11.7" lengthAdjust="spacing" textLength="209.7" x="789.3" y="318.5007">agendaEntryDTO = toDTO(agendaEntry)</text><polygon fill="#181818" points="262.8,354.099,253.8,357.699,262.8,361.299,259.2,357.699" style="stroke:#181818;stroke-width:0.9;"/><line style="stroke:#181818;stroke-width:0.9;stroke-dasharray:2.0,2.0;" x1="257.4" x2="767.7" y1="357.699" y2="357.699"/><text fill="#000000" font-family="sans-serif" font-size="11.7" font-weight="bold" lengthAdjust="spacing" textLength="6.3" x="268.2" y="352.9626">9</text><text fill="#000000" font-family="sans-serif" font-size="11.7" lengthAdjust="spacing" textLength="108" x="278.1" y="352.9626">agendaEntryDTOList</text><polygon fill="#181818" points="89.1,382.2609,80.1,385.8609,89.1,389.4609,85.5,385.8609" style="stroke:#181818;stroke-width:0.9;"/><line style="stroke:#181818;stroke-width:0.9;stroke-dasharray:2.0,2.0;" x1="83.7" x2="247.5" y1="385.8609" y2="385.8609"/><text fill="#000000" font-family="sans-serif" font-size="11.7" font-weight="bold" lengthAdjust="spacing" textLength="12.6" x="94.5" y="381.1245">10</text><text fill="#000000" font-family="sans-serif" font-size="11.7" lengthAdjust="spacing" textLength="108" x="110.7" y="381.1245">agendaEntryDTOList</text><!--SRC=[XLF1RgCm4BtxAqOzfOV-0DAkr4rxY9IgguRSSfcQALY0ZUnXA_v-noHBJA3Tcnc_z-RDyn1gOplqs4BhhDELToq1-vvKc6uwr3MMTE2X8V2a6MtPf81GOU4-ZItX0vj0Ic7FplRjEtcb1C96cmujmzqB-Zh7K6zTspN4L1ntTu01ZhivBbi0jywoTqr3VYHiyxVz3UMDEXSCEsyeZ9YfC1nCT2oUvXIVC4vsAV1x_vZF6HA3BV1Ph0nNzUna7zVgaucvHe9zmQwx3BIeVabwobzl6L9IAaO23p_NneOCIkAT3V9qcZRt2ZMRFyWKWv_EQtbDbsFWQz8FqZ9UPf36gGhwLdTo6pC-srlDCFKwFiU8l_RyYfIq7scpTCxzHbBuDMnbg_3TUHJgvi0-xh7klIVBnq3-kKNJtCzJKjR9oPkouWnqHRe6hWWeGkLfWjD6e0Ly6gukDrtZ1Y8uMRG513d5CfFyFN8O03s1iRhf2w4PEoQTZ9ditTu4JYtV9dqTTR5ICZUx9tPHOlEDP3BjSYrLurm77yw3zArIP-BxrgXQUfWRays5sNYny2FQp5zJY-kMujxBHnh1xL-nOk2IwgBlQ7XTwj_ivsX5uBZxBttyO_u2]--></g></svg>