<?xml version="1.0" encoding="us-ascii" standalone="no"?><svg xmlns="http://www.w3.org/2000/svg" xmlns:xlink="http://www.w3.org/1999/xlink" contentStyleType="text/css" height="814px" preserveAspectRatio="none" style="width:1119px;height:814px;background:#FFFFFF;" version="1.1" viewBox="0 0 1119 814" width="1119px" zoomAndPan="magnify"><defs/><g><!--class AgendaEntry--><g id="elem_AgendaEntry"><rect codeLine="9" fill="#F1F1F1" height="103.8633" id="AgendaEntry" rx="2.5" ry="2.5" style="stroke:#181818;stroke-width:0.5;" width="133" x="929" y="493"/><ellipse cx="952.55" cy="509" fill="#ADD1B2" rx="11" ry="11" style="stroke:#181818;stroke-width:1.0;"/><path d="M955.3156,504.875 Q955.4719,504.6563 955.6594,504.5469 Q955.8469,504.4375 956.0656,504.4375 Q956.4406,504.4375 956.675,504.7031 Q956.9094,504.9531 956.9094,505.5625 L956.9094,507.0156 Q956.9094,507.625 956.675,507.8906 Q956.4406,508.1563 956.0656,508.1563 Q955.7219,508.1563 955.5188,507.9531 Q955.3156,507.7656 955.2063,507.25 Q955.1594,506.8906 954.9719,506.7031 Q954.6438,506.3281 954.0344,506.1094 Q953.425,505.8906 952.8,505.8906 Q952.0344,505.8906 951.3938,506.2188 Q950.7688,506.5469 950.2688,507.2969 Q949.7844,508.0469 949.7844,509.0781 L949.7844,510.1719 Q949.7844,511.4063 950.675,512.2344 Q951.5656,513.0469 953.1594,513.0469 Q954.0969,513.0469 954.7531,512.7969 Q955.1438,512.6406 955.5656,512.2031 Q955.8313,511.9375 955.9719,511.8594 Q956.1281,511.7813 956.3313,511.7813 Q956.6594,511.7813 956.9094,512.0469 Q957.175,512.2969 957.175,512.6406 Q957.175,512.9844 956.8313,513.3906 Q956.3313,513.9688 955.5344,514.2969 Q954.4563,514.75 953.1594,514.75 Q951.6438,514.75 950.4406,514.125 Q949.4563,513.625 948.7688,512.5625 Q948.0813,511.4844 948.0813,510.2031 L948.0813,509.0469 Q948.0813,507.7188 948.6906,506.5781 Q949.3156,505.4219 950.4094,504.8125 Q951.5031,504.1875 952.7375,504.1875 Q953.4719,504.1875 954.1125,504.3594 Q954.7688,504.5156 955.3156,504.875 Z " fill="#000000"/><text fill="#000000" font-family="sans-serif" font-size="14" lengthAdjust="spacing" textLength="82" x="968.45" y="514.7969">AgendaEntry</text><line style="stroke:#181818;stroke-width:0.5;" x1="930" x2="1061" y1="525" y2="525"/><text fill="#000000" font-family="sans-serif" font-size="14" lengthAdjust="spacing" textLength="28" x="935" y="544.1074">date</text><text fill="#000000" font-family="sans-serif" font-size="14" lengthAdjust="spacing" textLength="104" x="935" y="562.7285">associatedTeam</text><text fill="#000000" font-family="sans-serif" font-size="14" lengthAdjust="spacing" textLength="121" x="935" y="581.3496">associatedVehicles</text><line style="stroke:#181818;stroke-width:0.5;" x1="930" x2="1061" y1="588.8633" y2="588.8633"/></g><!--class AgendaEntryDTO--><g id="elem_AgendaEntryDTO"><rect codeLine="15" fill="#F1F1F1" height="196.9688" id="AgendaEntryDTO" rx="2.5" ry="2.5" style="stroke:#181818;stroke-width:0.5;" width="144" x="757.5" y="7"/><ellipse cx="772.5" cy="23" fill="#ADD1B2" rx="11" ry="11" style="stroke:#181818;stroke-width:1.0;"/><path d="M775.2656,18.875 Q775.4219,18.6563 775.6094,18.5469 Q775.7969,18.4375 776.0156,18.4375 Q776.3906,18.4375 776.625,18.7031 Q776.8594,18.9531 776.8594,19.5625 L776.8594,21.0156 Q776.8594,21.625 776.625,21.8906 Q776.3906,22.1563 776.0156,22.1563 Q775.6719,22.1563 775.4688,21.9531 Q775.2656,21.7656 775.1563,21.25 Q775.1094,20.8906 774.9219,20.7031 Q774.5938,20.3281 773.9844,20.1094 Q773.375,19.8906 772.75,19.8906 Q771.9844,19.8906 771.3438,20.2188 Q770.7188,20.5469 770.2188,21.2969 Q769.7344,22.0469 769.7344,23.0781 L769.7344,24.1719 Q769.7344,25.4063 770.625,26.2344 Q771.5156,27.0469 773.1094,27.0469 Q774.0469,27.0469 774.7031,26.7969 Q775.0938,26.6406 775.5156,26.2031 Q775.7813,25.9375 775.9219,25.8594 Q776.0781,25.7813 776.2813,25.7813 Q776.6094,25.7813 776.8594,26.0469 Q777.125,26.2969 777.125,26.6406 Q777.125,26.9844 776.7813,27.3906 Q776.2813,27.9688 775.4844,28.2969 Q774.4063,28.75 773.1094,28.75 Q771.5938,28.75 770.3906,28.125 Q769.4063,27.625 768.7188,26.5625 Q768.0313,25.4844 768.0313,24.2031 L768.0313,23.0469 Q768.0313,21.7188 768.6406,20.5781 Q769.2656,19.4219 770.3594,18.8125 Q771.4531,18.1875 772.6875,18.1875 Q773.4219,18.1875 774.0625,18.3594 Q774.7188,18.5156 775.2656,18.875 Z " fill="#000000"/><text fill="#000000" font-family="sans-serif" font-size="14" lengthAdjust="spacing" textLength="112" x="786.5" y="28.7969">AgendaEntryDTO</text><line style="stroke:#181818;stroke-width:0.5;" x1="758.5" x2="900.5" y1="39" y2="39"/><text fill="#000000" font-family="sans-serif" font-size="14" lengthAdjust="spacing" textLength="28" x="763.5" y="58.1074">date</text><text fill="#000000" font-family="sans-serif" font-size="14" lengthAdjust="spacing" textLength="77" x="763.5" y="76.7285">greenSpace</text><text fill="#000000" font-family="sans-serif" font-size="14" lengthAdjust="spacing" textLength="69" x="763.5" y="95.3496">description</text><text fill="#000000" font-family="sans-serif" font-size="14" lengthAdjust="spacing" textLength="111" x="763.5" y="113.9707">expectedDuration</text><text fill="#000000" font-family="sans-serif" font-size="14" lengthAdjust="spacing" textLength="98" x="763.5" y="132.5918">urgencyDegree</text><text fill="#000000" font-family="sans-serif" font-size="14" lengthAdjust="spacing" textLength="72" x="763.5" y="151.2129">entryStatus</text><text fill="#000000" font-family="sans-serif" font-size="14" lengthAdjust="spacing" textLength="104" x="763.5" y="169.834">associatedTeam</text><text fill="#000000" font-family="sans-serif" font-size="14" lengthAdjust="spacing" textLength="121" x="763.5" y="188.4551">associatedVehicles</text><line style="stroke:#181818;stroke-width:0.5;" x1="758.5" x2="900.5" y1="195.9688" y2="195.9688"/></g><!--class SystemUser--><g id="elem_SystemUser"><rect codeLine="28" fill="#F1F1F1" height="122.4844" id="SystemUser" rx="2.5" ry="2.5" style="stroke:#181818;stroke-width:0.5;" width="107" x="7" y="44.5"/><ellipse cx="22" cy="60.5" fill="#ADD1B2" rx="11" ry="11" style="stroke:#181818;stroke-width:1.0;"/><path d="M24.7656,56.375 Q24.9219,56.1563 25.1094,56.0469 Q25.2969,55.9375 25.5156,55.9375 Q25.8906,55.9375 26.125,56.2031 Q26.3594,56.4531 26.3594,57.0625 L26.3594,58.5156 Q26.3594,59.125 26.125,59.3906 Q25.8906,59.6563 25.5156,59.6563 Q25.1719,59.6563 24.9688,59.4531 Q24.7656,59.2656 24.6563,58.75 Q24.6094,58.3906 24.4219,58.2031 Q24.0938,57.8281 23.4844,57.6094 Q22.875,57.3906 22.25,57.3906 Q21.4844,57.3906 20.8438,57.7188 Q20.2188,58.0469 19.7188,58.7969 Q19.2344,59.5469 19.2344,60.5781 L19.2344,61.6719 Q19.2344,62.9063 20.125,63.7344 Q21.0156,64.5469 22.6094,64.5469 Q23.5469,64.5469 24.2031,64.2969 Q24.5938,64.1406 25.0156,63.7031 Q25.2813,63.4375 25.4219,63.3594 Q25.5781,63.2813 25.7813,63.2813 Q26.1094,63.2813 26.3594,63.5469 Q26.625,63.7969 26.625,64.1406 Q26.625,64.4844 26.2813,64.8906 Q25.7813,65.4688 24.9844,65.7969 Q23.9063,66.25 22.6094,66.25 Q21.0938,66.25 19.8906,65.625 Q18.9063,65.125 18.2188,64.0625 Q17.5313,62.9844 17.5313,61.7031 L17.5313,60.5469 Q17.5313,59.2188 18.1406,58.0781 Q18.7656,56.9219 19.8594,56.3125 Q20.9531,55.6875 22.1875,55.6875 Q22.9219,55.6875 23.5625,55.8594 Q24.2188,56.0156 24.7656,56.375 Z " fill="#000000"/><text fill="#000000" font-family="sans-serif" font-size="14" lengthAdjust="spacing" textLength="75" x="36" y="66.2969">SystemUser</text><line style="stroke:#181818;stroke-width:0.5;" x1="8" x2="113" y1="76.5" y2="76.5"/><text fill="#000000" font-family="sans-serif" font-size="14" lengthAdjust="spacing" textLength="35" x="13" y="95.6074">name</text><text fill="#000000" font-family="sans-serif" font-size="14" lengthAdjust="spacing" textLength="33" x="13" y="114.2285">email</text><text fill="#000000" font-family="sans-serif" font-size="14" lengthAdjust="spacing" textLength="60" x="13" y="132.8496">password</text><text fill="#000000" font-family="sans-serif" font-size="14" lengthAdjust="spacing" textLength="40" x="13" y="151.4707">phone</text><line style="stroke:#181818;stroke-width:0.5;" x1="8" x2="113" y1="158.9844" y2="158.9844"/></g><!--class AgendaEntryRepository--><g id="elem_AgendaEntryRepository"><rect codeLine="36" fill="#F1F1F1" height="122.4844" id="AgendaEntryRepository" rx="2.5" ry="2.5" style="stroke:#181818;stroke-width:0.5;" width="524" x="473.5" y="685"/><ellipse cx="656.25" cy="701" fill="#ADD1B2" rx="11" ry="11" style="stroke:#181818;stroke-width:1.0;"/><path d="M659.0156,696.875 Q659.1719,696.6563 659.3594,696.5469 Q659.5469,696.4375 659.7656,696.4375 Q660.1406,696.4375 660.375,696.7031 Q660.6094,696.9531 660.6094,697.5625 L660.6094,699.0156 Q660.6094,699.625 660.375,699.8906 Q660.1406,700.1563 659.7656,700.1563 Q659.4219,700.1563 659.2188,699.9531 Q659.0156,699.7656 658.9063,699.25 Q658.8594,698.8906 658.6719,698.7031 Q658.3438,698.3281 657.7344,698.1094 Q657.125,697.8906 656.5,697.8906 Q655.7344,697.8906 655.0938,698.2188 Q654.4688,698.5469 653.9688,699.2969 Q653.4844,700.0469 653.4844,701.0781 L653.4844,702.1719 Q653.4844,703.4063 654.375,704.2344 Q655.2656,705.0469 656.8594,705.0469 Q657.7969,705.0469 658.4531,704.7969 Q658.8438,704.6406 659.2656,704.2031 Q659.5313,703.9375 659.6719,703.8594 Q659.8281,703.7813 660.0313,703.7813 Q660.3594,703.7813 660.6094,704.0469 Q660.875,704.2969 660.875,704.6406 Q660.875,704.9844 660.5313,705.3906 Q660.0313,705.9688 659.2344,706.2969 Q658.1563,706.75 656.8594,706.75 Q655.3438,706.75 654.1406,706.125 Q653.1563,705.625 652.4688,704.5625 Q651.7813,703.4844 651.7813,702.2031 L651.7813,701.0469 Q651.7813,699.7188 652.3906,698.5781 Q653.0156,697.4219 654.1094,696.8125 Q655.2031,696.1875 656.4375,696.1875 Q657.1719,696.1875 657.8125,696.3594 Q658.4688,696.5156 659.0156,696.875 Z " fill="#000000"/><text fill="#000000" font-family="sans-serif" font-size="14" lengthAdjust="spacing" textLength="150" x="676.75" y="706.7969">AgendaEntryRepository</text><line style="stroke:#181818;stroke-width:0.5;" x1="474.5" x2="996.5" y1="717" y2="717"/><text fill="#000000" font-family="sans-serif" font-size="14" lengthAdjust="spacing" textLength="255" x="479.5" y="736.1074">-ArrayList&lt;AgendaEntry&gt; agendaEntries</text><line style="stroke:#181818;stroke-width:0.5;" x1="474.5" x2="996.5" y1="743.6211" y2="743.6211"/><text fill="#000000" font-family="sans-serif" font-size="14" lengthAdjust="spacing" textLength="321" x="479.5" y="762.7285">+getEntrysByCollaborator(String currentUserEmail)</text><text fill="#000000" font-family="sans-serif" font-size="14" lengthAdjust="spacing" textLength="512" x="479.5" y="781.3496">+getAgendaEntryByDescriptionAndGreenspace(dto.description, dto.greenSpace)</text><text fill="#000000" font-family="sans-serif" font-size="14" lengthAdjust="spacing" textLength="218" x="479.5" y="799.9707">+update(entry, EntryStatus.DONE)</text></g><!--class Repositories--><g id="elem_Repositories"><rect codeLine="44" fill="#F1F1F1" height="122.4844" id="Repositories" rx="2.5" ry="2.5" style="stroke:#181818;stroke-width:0.5;" width="200" x="386.5" y="484"/><ellipse cx="442.75" cy="500" fill="#ADD1B2" rx="11" ry="11" style="stroke:#181818;stroke-width:1.0;"/><path d="M445.5156,495.875 Q445.6719,495.6563 445.8594,495.5469 Q446.0469,495.4375 446.2656,495.4375 Q446.6406,495.4375 446.875,495.7031 Q447.1094,495.9531 447.1094,496.5625 L447.1094,498.0156 Q447.1094,498.625 446.875,498.8906 Q446.6406,499.1563 446.2656,499.1563 Q445.9219,499.1563 445.7188,498.9531 Q445.5156,498.7656 445.4063,498.25 Q445.3594,497.8906 445.1719,497.7031 Q444.8438,497.3281 444.2344,497.1094 Q443.625,496.8906 443,496.8906 Q442.2344,496.8906 441.5938,497.2188 Q440.9688,497.5469 440.4688,498.2969 Q439.9844,499.0469 439.9844,500.0781 L439.9844,501.1719 Q439.9844,502.4063 440.875,503.2344 Q441.7656,504.0469 443.3594,504.0469 Q444.2969,504.0469 444.9531,503.7969 Q445.3438,503.6406 445.7656,503.2031 Q446.0313,502.9375 446.1719,502.8594 Q446.3281,502.7813 446.5313,502.7813 Q446.8594,502.7813 447.1094,503.0469 Q447.375,503.2969 447.375,503.6406 Q447.375,503.9844 447.0313,504.3906 Q446.5313,504.9688 445.7344,505.2969 Q444.6563,505.75 443.3594,505.75 Q441.8438,505.75 440.6406,505.125 Q439.6563,504.625 438.9688,503.5625 Q438.2813,502.4844 438.2813,501.2031 L438.2813,500.0469 Q438.2813,498.7188 438.8906,497.5781 Q439.5156,496.4219 440.6094,495.8125 Q441.7031,495.1875 442.9375,495.1875 Q443.6719,495.1875 444.3125,495.3594 Q444.9688,495.5156 445.5156,495.875 Z " fill="#000000"/><text fill="#000000" font-family="sans-serif" font-size="14" lengthAdjust="spacing" textLength="79" x="463.25" y="505.7969">Repositories</text><line style="stroke:#181818;stroke-width:0.5;" x1="387.5" x2="585.5" y1="516" y2="516"/><text fill="#000000" font-family="sans-serif" font-size="14" lengthAdjust="spacing" textLength="154" x="392.5" y="535.1074">-agendaEntryRepository</text><line style="stroke:#181818;stroke-width:0.5;" x1="387.5" x2="585.5" y1="542.6211" y2="542.6211"/><text fill="#000000" font-family="sans-serif" font-size="14" lengthAdjust="spacing" textLength="94" x="392.5" y="561.7285">-Repositories()</text><text fill="#000000" font-family="sans-serif" font-size="14" lengthAdjust="spacing" textLength="91" x="392.5" y="580.3496">+getInstance()</text><text fill="#000000" font-family="sans-serif" font-size="14" lengthAdjust="spacing" textLength="188" x="392.5" y="598.9707">+getAgendaEntryRepository()</text></g><!--class AgendaEntryMapper--><g id="elem_AgendaEntryMapper"><rect codeLine="53" fill="#F1F1F1" height="66.6211" id="AgendaEntryMapper" rx="2.5" ry="2.5" style="stroke:#181818;stroke-width:0.5;" width="295" x="682" y="310.5"/><ellipse cx="760.25" cy="326.5" fill="#ADD1B2" rx="11" ry="11" style="stroke:#181818;stroke-width:1.0;"/><path d="M763.0156,322.375 Q763.1719,322.1563 763.3594,322.0469 Q763.5469,321.9375 763.7656,321.9375 Q764.1406,321.9375 764.375,322.2031 Q764.6094,322.4531 764.6094,323.0625 L764.6094,324.5156 Q764.6094,325.125 764.375,325.3906 Q764.1406,325.6563 763.7656,325.6563 Q763.4219,325.6563 763.2188,325.4531 Q763.0156,325.2656 762.9063,324.75 Q762.8594,324.3906 762.6719,324.2031 Q762.3438,323.8281 761.7344,323.6094 Q761.125,323.3906 760.5,323.3906 Q759.7344,323.3906 759.0938,323.7188 Q758.4688,324.0469 757.9688,324.7969 Q757.4844,325.5469 757.4844,326.5781 L757.4844,327.6719 Q757.4844,328.9063 758.375,329.7344 Q759.2656,330.5469 760.8594,330.5469 Q761.7969,330.5469 762.4531,330.2969 Q762.8438,330.1406 763.2656,329.7031 Q763.5313,329.4375 763.6719,329.3594 Q763.8281,329.2813 764.0313,329.2813 Q764.3594,329.2813 764.6094,329.5469 Q764.875,329.7969 764.875,330.1406 Q764.875,330.4844 764.5313,330.8906 Q764.0313,331.4688 763.2344,331.7969 Q762.1563,332.25 760.8594,332.25 Q759.3438,332.25 758.1406,331.625 Q757.1563,331.125 756.4688,330.0625 Q755.7813,328.9844 755.7813,327.7031 L755.7813,326.5469 Q755.7813,325.2188 756.3906,324.0781 Q757.0156,322.9219 758.1094,322.3125 Q759.2031,321.6875 760.4375,321.6875 Q761.1719,321.6875 761.8125,321.8594 Q762.4688,322.0156 763.0156,322.375 Z " fill="#000000"/><text fill="#000000" font-family="sans-serif" font-size="14" lengthAdjust="spacing" textLength="130" x="780.75" y="332.2969">AgendaEntryMapper</text><line style="stroke:#181818;stroke-width:0.5;" x1="683" x2="976" y1="342.5" y2="342.5"/><line style="stroke:#181818;stroke-width:0.5;" x1="683" x2="976" y1="350.5" y2="350.5"/><text fill="#000000" font-family="sans-serif" font-size="14" lengthAdjust="spacing" textLength="283" x="688" y="369.6074">+toDtoList(List&lt;AgendaEntry&gt; toDoEntryList)</text></g><!--class MarkTaskCompletedController--><g id="elem_MarkTaskCompletedController"><rect codeLine="59" fill="#F1F1F1" height="122.4844" id="MarkTaskCompletedController" rx="2.5" ry="2.5" style="stroke:#181818;stroke-width:0.5;" width="320" x="326.5" y="283"/><ellipse cx="386.25" cy="299" fill="#ADD1B2" rx="11" ry="11" style="stroke:#181818;stroke-width:1.0;"/><path d="M389.0156,294.875 Q389.1719,294.6563 389.3594,294.5469 Q389.5469,294.4375 389.7656,294.4375 Q390.1406,294.4375 390.375,294.7031 Q390.6094,294.9531 390.6094,295.5625 L390.6094,297.0156 Q390.6094,297.625 390.375,297.8906 Q390.1406,298.1563 389.7656,298.1563 Q389.4219,298.1563 389.2188,297.9531 Q389.0156,297.7656 388.9063,297.25 Q388.8594,296.8906 388.6719,296.7031 Q388.3438,296.3281 387.7344,296.1094 Q387.125,295.8906 386.5,295.8906 Q385.7344,295.8906 385.0938,296.2188 Q384.4688,296.5469 383.9688,297.2969 Q383.4844,298.0469 383.4844,299.0781 L383.4844,300.1719 Q383.4844,301.4063 384.375,302.2344 Q385.2656,303.0469 386.8594,303.0469 Q387.7969,303.0469 388.4531,302.7969 Q388.8438,302.6406 389.2656,302.2031 Q389.5313,301.9375 389.6719,301.8594 Q389.8281,301.7813 390.0313,301.7813 Q390.3594,301.7813 390.6094,302.0469 Q390.875,302.2969 390.875,302.6406 Q390.875,302.9844 390.5313,303.3906 Q390.0313,303.9688 389.2344,304.2969 Q388.1563,304.75 386.8594,304.75 Q385.3438,304.75 384.1406,304.125 Q383.1563,303.625 382.4688,302.5625 Q381.7813,301.4844 381.7813,300.2031 L381.7813,299.0469 Q381.7813,297.7188 382.3906,296.5781 Q383.0156,295.4219 384.1094,294.8125 Q385.2031,294.1875 386.4375,294.1875 Q387.1719,294.1875 387.8125,294.3594 Q388.4688,294.5156 389.0156,294.875 Z " fill="#000000"/><text fill="#000000" font-family="sans-serif" font-size="14" lengthAdjust="spacing" textLength="192" x="406.75" y="304.7969">MarkTaskCompletedController</text><line style="stroke:#181818;stroke-width:0.5;" x1="327.5" x2="645.5" y1="315" y2="315"/><text fill="#000000" font-family="sans-serif" font-size="14" lengthAdjust="spacing" textLength="308" x="332.5" y="334.1074">-AgendaEntryRepository agendaEntryRepository</text><text fill="#000000" font-family="sans-serif" font-size="14" lengthAdjust="spacing" textLength="268" x="332.5" y="352.7285">-AgendaEntryMapper agendaEntryMapper</text><line style="stroke:#181818;stroke-width:0.5;" x1="327.5" x2="645.5" y1="360.2422" y2="360.2422"/><text fill="#000000" font-family="sans-serif" font-size="14" lengthAdjust="spacing" textLength="172" x="332.5" y="379.3496">+getEntrysByCollaborator()</text><text fill="#000000" font-family="sans-serif" font-size="14" lengthAdjust="spacing" textLength="301" x="332.5" y="397.9707">+completedAgendaEntry(AgendaEntryDTO dto)</text></g><!--class MarkTaskCompletedUI--><g id="elem_MarkTaskCompletedUI"><rect codeLine="68" fill="#F1F1F1" height="48" id="MarkTaskCompletedUI" rx="2.5" ry="2.5" style="stroke:#181818;stroke-width:0.5;" width="174" x="117.5" y="320"/><ellipse cx="132.5" cy="336" fill="#ADD1B2" rx="11" ry="11" style="stroke:#181818;stroke-width:1.0;"/><path d="M135.2656,331.875 Q135.4219,331.6563 135.6094,331.5469 Q135.7969,331.4375 136.0156,331.4375 Q136.3906,331.4375 136.625,331.7031 Q136.8594,331.9531 136.8594,332.5625 L136.8594,334.0156 Q136.8594,334.625 136.625,334.8906 Q136.3906,335.1563 136.0156,335.1563 Q135.6719,335.1563 135.4688,334.9531 Q135.2656,334.7656 135.1563,334.25 Q135.1094,333.8906 134.9219,333.7031 Q134.5938,333.3281 133.9844,333.1094 Q133.375,332.8906 132.75,332.8906 Q131.9844,332.8906 131.3438,333.2188 Q130.7188,333.5469 130.2188,334.2969 Q129.7344,335.0469 129.7344,336.0781 L129.7344,337.1719 Q129.7344,338.4063 130.625,339.2344 Q131.5156,340.0469 133.1094,340.0469 Q134.0469,340.0469 134.7031,339.7969 Q135.0938,339.6406 135.5156,339.2031 Q135.7813,338.9375 135.9219,338.8594 Q136.0781,338.7813 136.2813,338.7813 Q136.6094,338.7813 136.8594,339.0469 Q137.125,339.2969 137.125,339.6406 Q137.125,339.9844 136.7813,340.3906 Q136.2813,340.9688 135.4844,341.2969 Q134.4063,341.75 133.1094,341.75 Q131.5938,341.75 130.3906,341.125 Q129.4063,340.625 128.7188,339.5625 Q128.0313,338.4844 128.0313,337.2031 L128.0313,336.0469 Q128.0313,334.7188 128.6406,333.5781 Q129.2656,332.4219 130.3594,331.8125 Q131.4531,331.1875 132.6875,331.1875 Q133.4219,331.1875 134.0625,331.3594 Q134.7188,331.5156 135.2656,331.875 Z " fill="#000000"/><text fill="#000000" font-family="sans-serif" font-size="14" lengthAdjust="spacing" textLength="142" x="146.5" y="341.7969">MarkTaskCompletedUI</text><line style="stroke:#181818;stroke-width:0.5;" x1="118.5" x2="290.5" y1="352" y2="352"/><line style="stroke:#181818;stroke-width:0.5;" x1="118.5" x2="290.5" y1="360" y2="360"/></g><!--class Collaborator--><g id="elem_Collaborator"><rect fill="#F1F1F1" height="48" id="Collaborator" rx="2.5" ry="2.5" style="stroke:#181818;stroke-width:0.5;" width="110" x="149.5" y="81.5"/><ellipse cx="164.5" cy="97.5" fill="#ADD1B2" rx="11" ry="11" style="stroke:#181818;stroke-width:1.0;"/><path d="M167.2656,93.375 Q167.4219,93.1563 167.6094,93.0469 Q167.7969,92.9375 168.0156,92.9375 Q168.3906,92.9375 168.625,93.2031 Q168.8594,93.4531 168.8594,94.0625 L168.8594,95.5156 Q168.8594,96.125 168.625,96.3906 Q168.3906,96.6563 168.0156,96.6563 Q167.6719,96.6563 167.4688,96.4531 Q167.2656,96.2656 167.1563,95.75 Q167.1094,95.3906 166.9219,95.2031 Q166.5938,94.8281 165.9844,94.6094 Q165.375,94.3906 164.75,94.3906 Q163.9844,94.3906 163.3438,94.7188 Q162.7188,95.0469 162.2188,95.7969 Q161.7344,96.5469 161.7344,97.5781 L161.7344,98.6719 Q161.7344,99.9063 162.625,100.7344 Q163.5156,101.5469 165.1094,101.5469 Q166.0469,101.5469 166.7031,101.2969 Q167.0938,101.1406 167.5156,100.7031 Q167.7813,100.4375 167.9219,100.3594 Q168.0781,100.2813 168.2813,100.2813 Q168.6094,100.2813 168.8594,100.5469 Q169.125,100.7969 169.125,101.1406 Q169.125,101.4844 168.7813,101.8906 Q168.2813,102.4688 167.4844,102.7969 Q166.4063,103.25 165.1094,103.25 Q163.5938,103.25 162.3906,102.625 Q161.4063,102.125 160.7188,101.0625 Q160.0313,99.9844 160.0313,98.7031 L160.0313,97.5469 Q160.0313,96.2188 160.6406,95.0781 Q161.2656,93.9219 162.3594,93.3125 Q163.4531,92.6875 164.6875,92.6875 Q165.4219,92.6875 166.0625,92.8594 Q166.7188,93.0156 167.2656,93.375 Z " fill="#000000"/><text fill="#000000" font-family="sans-serif" font-size="14" lengthAdjust="spacing" textLength="78" x="178.5" y="103.2969">Collaborator</text><line style="stroke:#181818;stroke-width:0.5;" x1="150.5" x2="258.5" y1="113.5" y2="113.5"/><line style="stroke:#181818;stroke-width:0.5;" x1="150.5" x2="258.5" y1="121.5" y2="121.5"/></g><!--class ToDoEntry--><g id="elem_ToDoEntry"><rect fill="#F1F1F1" height="48" id="ToDoEntry" rx="2.5" ry="2.5" style="stroke:#181818;stroke-width:0.5;" width="100" x="1012.5" y="320"/><ellipse cx="1027.5" cy="336" fill="#ADD1B2" rx="11" ry="11" style="stroke:#181818;stroke-width:1.0;"/><path d="M1030.2656,331.875 Q1030.4219,331.6563 1030.6094,331.5469 Q1030.7969,331.4375 1031.0156,331.4375 Q1031.3906,331.4375 1031.625,331.7031 Q1031.8594,331.9531 1031.8594,332.5625 L1031.8594,334.0156 Q1031.8594,334.625 1031.625,334.8906 Q1031.3906,335.1563 1031.0156,335.1563 Q1030.6719,335.1563 1030.4688,334.9531 Q1030.2656,334.7656 1030.1563,334.25 Q1030.1094,333.8906 1029.9219,333.7031 Q1029.5938,333.3281 1028.9844,333.1094 Q1028.375,332.8906 1027.75,332.8906 Q1026.9844,332.8906 1026.3438,333.2188 Q1025.7188,333.5469 1025.2188,334.2969 Q1024.7344,335.0469 1024.7344,336.0781 L1024.7344,337.1719 Q1024.7344,338.4063 1025.625,339.2344 Q1026.5156,340.0469 1028.1094,340.0469 Q1029.0469,340.0469 1029.7031,339.7969 Q1030.0938,339.6406 1030.5156,339.2031 Q1030.7813,338.9375 1030.9219,338.8594 Q1031.0781,338.7813 1031.2813,338.7813 Q1031.6094,338.7813 1031.8594,339.0469 Q1032.125,339.2969 1032.125,339.6406 Q1032.125,339.9844 1031.7813,340.3906 Q1031.2813,340.9688 1030.4844,341.2969 Q1029.4063,341.75 1028.1094,341.75 Q1026.5938,341.75 1025.3906,341.125 Q1024.4063,340.625 1023.7188,339.5625 Q1023.0313,338.4844 1023.0313,337.2031 L1023.0313,336.0469 Q1023.0313,334.7188 1023.6406,333.5781 Q1024.2656,332.4219 1025.3594,331.8125 Q1026.4531,331.1875 1027.6875,331.1875 Q1028.4219,331.1875 1029.0625,331.3594 Q1029.7188,331.5156 1030.2656,331.875 Z " fill="#000000"/><text fill="#000000" font-family="sans-serif" font-size="14" lengthAdjust="spacing" textLength="68" x="1041.5" y="341.7969">ToDoEntry</text><line style="stroke:#181818;stroke-width:0.5;" x1="1013.5" x2="1111.5" y1="352" y2="352"/><line style="stroke:#181818;stroke-width:0.5;" x1="1013.5" x2="1111.5" y1="360" y2="360"/></g><!--link MarkTaskCompletedUI to MarkTaskCompletedController--><g id="link_MarkTaskCompletedUI_MarkTaskCompletedController"><path codeLine="72" d="M291.74,344 C295.97,344 298.5,344 298.5,344 C298.5,344 304.77,344 320.45,344 " fill="none" id="MarkTaskCompletedUI-to-MarkTaskCompletedController" style="stroke:#181818;stroke-width:1.0;stroke-dasharray:7.0,7.0;"/><polygon fill="#181818" points="326.45,344,317.45,340,321.45,344,317.45,348,326.45,344" style="stroke:#181818;stroke-width:1.0;"/></g><!--link MarkTaskCompletedController to Repositories--><g id="link_MarkTaskCompletedController_Repositories"><path codeLine="73" d="M486.5,405.25 C486.5,430.18 486.5,453.04 486.5,477.96 " fill="none" id="MarkTaskCompletedController-to-Repositories" style="stroke:#181818;stroke-width:1.0;stroke-dasharray:7.0,7.0;"/><polygon fill="#181818" points="486.5,483.96,490.5,474.96,486.5,478.96,482.5,474.96,486.5,483.96" style="stroke:#181818;stroke-width:1.0;"/><text fill="#000000" font-family="sans-serif" font-size="13" lengthAdjust="spacing" textLength="67" x="487.5" y="450.0283">repositories</text></g><!--link Repositories to AgendaEntryRepository--><g id="link_Repositories_AgendaEntryRepository"><path codeLine="74" d="M561.88,606.25 C593.09,631.18 624.503,656.294 655.683,681.214 " fill="none" id="Repositories-to-AgendaEntryRepository" style="stroke:#181818;stroke-width:1.0;"/><polygon fill="#181818" points="660.37,684.96,655.8369,676.2164,656.4642,681.8384,650.8422,682.4657,660.37,684.96" style="stroke:#181818;stroke-width:1.0;"/><text fill="#000000" font-family="sans-serif" font-size="13" lengthAdjust="spacing" textLength="7" x="644.2784" y="673.9366">1</text></g><!--link Repositories to Repositories--><g id="link_Repositories_Repositories"><path codeLine="75" d="M586.59,526.97 C606.93,528.93 621.5,534.94 621.5,545 C621.5,555.06 612.9023,560.4945 592.5623,562.4545 " fill="none" id="Repositories-to-Repositories" style="stroke:#181818;stroke-width:1.0;"/><polygon fill="#181818" points="586.59,563.03,595.9322,566.1483,591.5669,562.5504,595.1648,558.1852,586.59,563.03" style="stroke:#181818;stroke-width:1.0;"/><text fill="#000000" font-family="sans-serif" font-size="13" lengthAdjust="spacing" textLength="49" x="627.5" y="550.5283">instance</text></g><!--link MarkTaskCompletedController to AgendaEntryMapper--><g id="link_MarkTaskCompletedController_AgendaEntryMapper"><path codeLine="76" d="M646.68,344 C658.48,344 664.96,344 675.98,344 " fill="none" id="MarkTaskCompletedController-to-AgendaEntryMapper" style="stroke:#181818;stroke-width:1.0;stroke-dasharray:7.0,7.0;"/><polygon fill="#181818" points="681.98,344,672.98,340,676.98,344,672.98,348,681.98,344" style="stroke:#181818;stroke-width:1.0;"/></g><!--link MarkTaskCompletedController to AgendaEntryRepository--><g id="link_MarkTaskCompletedController_AgendaEntryRepository"><path codeLine="77" d="M571.33,405.16 C624.3,442.73 682.5,484 682.5,484 C682.5,484 706.4261,601.83 722.0761,678.91 " fill="none" id="MarkTaskCompletedController-to-AgendaEntryRepository" style="stroke:#181818;stroke-width:1.0;"/><polygon fill="#181818" points="723.27,684.79,725.3992,675.1741,722.2751,679.89,717.5592,676.7659,723.27,684.79" style="stroke:#181818;stroke-width:1.0;"/><text fill="#000000" font-family="sans-serif" font-size="13" lengthAdjust="spacing" textLength="28" x="708.5" y="550.5283">uses</text></g><!--reverse link SystemUser to Collaborator--><g id="link_SystemUser_Collaborator"><path codeLine="79" d="M132.01,105.5 C140.67,105.5 139.51,105.5 149.18,105.5 " fill="none" id="SystemUser-backto-Collaborator" style="stroke:#181818;stroke-width:1.0;"/><polygon fill="none" points="114.01,105.5,132.01,111.5,132.01,99.5,114.01,105.5" style="stroke:#181818;stroke-width:1.0;"/></g><!--reverse link ToDoEntry to AgendaEntry--><g id="link_ToDoEntry_AgendaEntry"><path codeLine="80" d="M1048.9407,385.2805 C1038.7307,415.6305 1026.28,452.58 1012.76,492.74 " fill="none" id="ToDoEntry-backto-AgendaEntry" style="stroke:#181818;stroke-width:1.0;"/><polygon fill="none" points="1054.68,368.22,1043.2539,383.3674,1054.6275,387.1936,1054.68,368.22" style="stroke:#181818;stroke-width:1.0;"/></g><!--link Collaborator to MarkTaskCompletedUI--><g id="link_Collaborator_MarkTaskCompletedUI"><path codeLine="82" d="M204.5,129.61 C204.5,174.82 204.5,274.51 204.5,319.8 " fill="none" id="Collaborator-MarkTaskCompletedUI" style="stroke:#181818;stroke-width:1.0;"/><text fill="#000000" font-family="sans-serif" font-size="13" lengthAdjust="spacing" textLength="7" x="196.6469" y="151.6225">1</text><text fill="#000000" font-family="sans-serif" font-size="13" lengthAdjust="spacing" textLength="7" x="196.6469" y="308.8932">1</text></g><!--reverse link AgendaEntry to AgendaEntryRepository--><g id="link_AgendaEntry_AgendaEntryRepository"><path codeLine="83" d="M924.1151,600.6364 C889.0551,627.4664 850.63,656.88 813.96,684.95 " fill="none" id="AgendaEntry-backto-AgendaEntryRepository" style="stroke:#181818;stroke-width:1.0;"/><polygon fill="#181818" points="928.88,596.99,919.3018,599.283,924.9093,600.0286,924.1636,605.6361,928.88,596.99" style="stroke:#181818;stroke-width:1.0;"/><text fill="#000000" font-family="sans-serif" font-size="13" lengthAdjust="spacing" textLength="36" x="873.5" y="651.0283">stores</text><text fill="#000000" font-family="sans-serif" font-size="13" lengthAdjust="spacing" textLength="5" x="915.888" y="599.0716">*</text><text fill="#000000" font-family="sans-serif" font-size="13" lengthAdjust="spacing" textLength="7" x="815.6273" y="673.9254">1</text></g><!--reverse link AgendaEntryDTO to AgendaEntryMapper--><g id="link_AgendaEntryDTO_AgendaEntryMapper"><path codeLine="84" d="M829.5,210.06 C829.5,247.98 829.5,282.82 829.5,310.34 " fill="none" id="AgendaEntryDTO-backto-AgendaEntryMapper" style="stroke:#181818;stroke-width:1.0;"/><polygon fill="#181818" points="829.5,204.06,825.5,213.06,829.5,209.06,833.5,213.06,829.5,204.06" style="stroke:#181818;stroke-width:1.0;"/><text fill="#000000" font-family="sans-serif" font-size="13" lengthAdjust="spacing" textLength="43" x="830.5" y="249.0283">creates</text><text fill="#000000" font-family="sans-serif" font-size="13" lengthAdjust="spacing" textLength="5" x="824.3164" y="225.9624">*</text><text fill="#000000" font-family="sans-serif" font-size="13" lengthAdjust="spacing" textLength="7" x="821.8109" y="299.134">1</text></g><!--SRC=[bLJ1Zjem4BtxAomkpPO5jLUqGc81LKZThbJOtcUTQR18RCjsj4st_VUEGqWC2KZD9HdFcvStRoPn1waCM2YuoC6vXVTMlfOUDqAhhVoD_1Fxu5fCePKMUwiBvDwMoBgC0N603BU-of5R51vKbiS0juTKlqcLyP-GkpYJIuM-CiYDpgiGn6ziazfw7HLTLSlg35zag59OAsyh_iuuNIbuh1yehOMaADqX51T7Ft0lHOwE_HrWMksUYUoSBRE8Qalj7yCKdR3IUAbL7UClGsPWkYejj8Ub9KvHhJ0K7s61Vkl1b-u_D7OYjvNpMBmuj4st2eg6kG2Prq-6W6_QfiTWhybegkzt-HsDTjBhrha9NrWBrLVf_4E4ctDe0ndK47ISeQ-Jxh5QwZo7LqrzQvji2KEp5wMrr6iGkWx2xav54UyZ6TEQk53fb-2m2mudgTVJoE5x7Www2HpPIXE6azIMtlDrv-nqzVnjVTUPrZPAwjjMOSW8rYJZYgH-6nzpKhzHZXQU14PdWuuIO72pdi2OTdPZxlNAw-1tqZUTShf-3AaZNSFt1FQm0tTOwiBaI8kor8IZARJCaojp7cwwLz6eXCiJrdKzEFp65N7I5L4c5vyN3JIsgDVIo-QzJWya-7H-om9sovufrPwjmun-Obt8pdAJoPoFFe-6lRo0zcXbiogtvSpxjjyi29A6HplZfGiVP_I7UFWpuV5ysEwqKY5rDd76Oc3TDG72RM00BFxfZZwE-4E3lQRCqPsqNQp0bSfc-MPSMAJlcrhw1m00]--></g></svg>