<?xml version="1.0" encoding="us-ascii" standalone="no"?><svg xmlns="http://www.w3.org/2000/svg" xmlns:xlink="http://www.w3.org/1999/xlink" contentStyleType="text/css" height="1017px" preserveAspectRatio="none" style="width:1660px;height:1017px;background:#FFFFFF;" version="1.1" viewBox="0 0 1660 1017" width="1660px" zoomAndPan="magnify"><defs/><g><rect fill="#FFFFFF" height="822.5566" style="stroke:#181818;stroke-width:1.0;" width="10" x="18.5" y="93.6211"/><rect fill="#FFFFFF" height="799.2656" style="stroke:#181818;stroke-width:1.0;" width="10" x="291.5" y="116.9121"/><rect fill="#FFFFFF" height="459.0645" style="stroke:#181818;stroke-width:1.0;" width="10" x="561.5" y="158.2031"/><rect fill="#FFFFFF" height="156.4551" style="stroke:#181818;stroke-width:1.0;" width="10" x="561.5" y="728.4316"/><rect fill="#FFFFFF" height="31.291" style="stroke:#181818;stroke-width:1.0;" width="10" x="725" y="266.7363"/><rect fill="#FFFFFF" height="31.291" style="stroke:#181818;stroke-width:1.0;" width="10" x="832" y="329.3184"/><rect fill="#FFFFFF" height="42.9365" style="stroke:#181818;stroke-width:1.0;" width="10" x="1067.5" y="403.5459"/><rect fill="#FFFFFF" height="31.291" style="stroke:#181818;stroke-width:1.0;" width="10" x="1067.5" y="759.7227"/><rect fill="#FFFFFF" height="31.291" style="stroke:#181818;stroke-width:1.0;" width="10" x="1067.5" y="822.3047"/><rect fill="#FFFFFF" height="108.2031" style="stroke:#181818;stroke-width:1.0;" width="10" x="1233" y="477.7734"/><rect fill="#FFFFFF" height="17.3301" style="stroke:#181818;stroke-width:1.0;" width="10" x="1576" y="545.3555"/><rect fill="none" height="62.9121" style="stroke:#000000;stroke-width:1.5;" width="498" x="1156" y="492.7734"/><line style="stroke:#181818;stroke-width:0.5;stroke-dasharray:5.0,5.0;" x1="23" x2="23" y1="83.6211" y2="934.1777"/><line style="stroke:#181818;stroke-width:0.5;stroke-dasharray:5.0,5.0;" x1="296.5" x2="296.5" y1="83.6211" y2="934.1777"/><line style="stroke:#181818;stroke-width:0.5;stroke-dasharray:5.0,5.0;" x1="566.5" x2="566.5" y1="156.7227" y2="934.1777"/><line style="stroke:#181818;stroke-width:0.5;stroke-dasharray:5.0,5.0;" x1="729.5" x2="729.5" y1="83.6211" y2="934.1777"/><line style="stroke:#181818;stroke-width:0.5;stroke-dasharray:5.0,5.0;" x1="836.5" x2="836.5" y1="83.6211" y2="934.1777"/><line style="stroke:#181818;stroke-width:0.5;stroke-dasharray:5.0,5.0;" x1="1072" x2="1072" y1="83.6211" y2="934.1777"/><line style="stroke:#181818;stroke-width:0.5;stroke-dasharray:5.0,5.0;" x1="1238" x2="1238" y1="231.6348" y2="934.1777"/><line style="stroke:#181818;stroke-width:0.5;stroke-dasharray:5.0,5.0;" x1="1581" x2="1581" y1="543.875" y2="934.1777"/><text fill="#000000" font-family="sans-serif" font-size="14" lengthAdjust="spacing" textLength="31" x="5" y="80.1074">GSM</text><ellipse cx="23.5" cy="13.5" fill="#E3E3E3" rx="8" ry="8" style="stroke:#181818;stroke-width:0.5;"/><path d="M23.5,21.5 L23.5,48.5 M10.5,29.5 L36.5,29.5 M23.5,48.5 L10.5,63.5 M23.5,48.5 L36.5,63.5 " fill="none" style="stroke:#181818;stroke-width:0.5;"/><text fill="#000000" font-family="sans-serif" font-size="14" lengthAdjust="spacing" textLength="31" x="5" y="948.2852">GSM</text><ellipse cx="23.5" cy="960.2988" fill="#E3E3E3" rx="8" ry="8" style="stroke:#181818;stroke-width:0.5;"/><path d="M23.5,968.2988 L23.5,995.2988 M10.5,976.2988 L36.5,976.2988 M23.5,995.2988 L10.5,1010.2988 M23.5,995.2988 L36.5,1010.2988 " fill="none" style="stroke:#181818;stroke-width:0.5;"/><rect fill="#E3E3E3" height="32.6211" rx="2.5" ry="2.5" style="stroke:#181818;stroke-width:0.5;" width="160" x="216.5" y="50"/><text fill="#000000" font-family="sans-serif" font-size="14" lengthAdjust="spacing" textLength="146" x="223.5" y="72.1074">:MarkTaskCompletedUI</text><rect fill="#E3E3E3" height="32.6211" rx="2.5" ry="2.5" style="stroke:#181818;stroke-width:0.5;" width="160" x="216.5" y="933.1777"/><text fill="#000000" font-family="sans-serif" font-size="14" lengthAdjust="spacing" textLength="146" x="223.5" y="955.2852">:MarkTaskCompletedUI</text><rect fill="#E3E3E3" height="32.6211" rx="2.5" ry="2.5" style="stroke:#181818;stroke-width:0.5;" width="210" x="461.5" y="933.1777"/><text fill="#000000" font-family="sans-serif" font-size="14" lengthAdjust="spacing" textLength="196" x="468.5" y="955.2852">:MarkTaskCompletedController</text><rect fill="#E3E3E3" height="32.6211" rx="2.5" ry="2.5" style="stroke:#181818;stroke-width:0.5;" width="97" x="681.5" y="50"/><text fill="#000000" font-family="sans-serif" font-size="14" lengthAdjust="spacing" textLength="83" x="688.5" y="72.1074">:Repositories</text><rect fill="#E3E3E3" height="32.6211" rx="2.5" ry="2.5" style="stroke:#181818;stroke-width:0.5;" width="97" x="681.5" y="933.1777"/><text fill="#000000" font-family="sans-serif" font-size="14" lengthAdjust="spacing" textLength="83" x="688.5" y="955.2852">:Repositories</text><rect fill="#E3E3E3" height="51.2422" rx="2.5" ry="2.5" style="stroke:#181818;stroke-width:0.5;" width="97" x="788.5" y="31.3789"/><text fill="#000000" font-family="sans-serif" font-size="14" lengthAdjust="spacing" textLength="74" x="800" y="53.4863">repositories</text><text fill="#000000" font-family="sans-serif" font-size="14" lengthAdjust="spacing" textLength="83" x="795.5" y="72.1074">:Repositories</text><rect fill="#E3E3E3" height="51.2422" rx="2.5" ry="2.5" style="stroke:#181818;stroke-width:0.5;" width="97" x="788.5" y="933.1777"/><text fill="#000000" font-family="sans-serif" font-size="14" lengthAdjust="spacing" textLength="74" x="800" y="955.2852">repositories</text><text fill="#000000" font-family="sans-serif" font-size="14" lengthAdjust="spacing" textLength="83" x="795.5" y="973.9063">:Repositories</text><rect fill="#E3E3E3" height="51.2422" rx="2.5" ry="2.5" style="stroke:#181818;stroke-width:0.5;" width="167" x="989" y="31.3789"/><text fill="#000000" font-family="sans-serif" font-size="14" lengthAdjust="spacing" textLength="153" x="996" y="53.4863">agendaEntryRepository:</text><text fill="#000000" font-family="sans-serif" font-size="14" lengthAdjust="spacing" textLength="150" x="997.5" y="72.1074">AgendaEntryRepository</text><rect fill="#E3E3E3" height="51.2422" rx="2.5" ry="2.5" style="stroke:#181818;stroke-width:0.5;" width="167" x="989" y="933.1777"/><text fill="#000000" font-family="sans-serif" font-size="14" lengthAdjust="spacing" textLength="153" x="996" y="955.2852">agendaEntryRepository:</text><text fill="#000000" font-family="sans-serif" font-size="14" lengthAdjust="spacing" textLength="150" x="997.5" y="973.9063">AgendaEntryRepository</text><rect fill="#E3E3E3" height="32.6211" rx="2.5" ry="2.5" style="stroke:#181818;stroke-width:0.5;" width="144" x="1166" y="933.1777"/><text fill="#000000" font-family="sans-serif" font-size="14" lengthAdjust="spacing" textLength="130" x="1173" y="955.2852">AgendaEntryMapper</text><rect fill="#E3E3E3" height="32.6211" rx="2.5" ry="2.5" style="stroke:#181818;stroke-width:0.5;" width="126" x="1518" y="933.1777"/><text fill="#000000" font-family="sans-serif" font-size="14" lengthAdjust="spacing" textLength="112" x="1525" y="955.2852">AgendaEntryDTO</text><rect fill="#FFFFFF" height="822.5566" style="stroke:#181818;stroke-width:1.0;" width="10" x="18.5" y="93.6211"/><rect fill="#FFFFFF" height="799.2656" style="stroke:#181818;stroke-width:1.0;" width="10" x="291.5" y="116.9121"/><rect fill="#FFFFFF" height="459.0645" style="stroke:#181818;stroke-width:1.0;" width="10" x="561.5" y="158.2031"/><rect fill="#FFFFFF" height="156.4551" style="stroke:#181818;stroke-width:1.0;" width="10" x="561.5" y="728.4316"/><rect fill="#FFFFFF" height="31.291" style="stroke:#181818;stroke-width:1.0;" width="10" x="725" y="266.7363"/><rect fill="#FFFFFF" height="31.291" style="stroke:#181818;stroke-width:1.0;" width="10" x="832" y="329.3184"/><rect fill="#FFFFFF" height="42.9365" style="stroke:#181818;stroke-width:1.0;" width="10" x="1067.5" y="403.5459"/><rect fill="#FFFFFF" height="31.291" style="stroke:#181818;stroke-width:1.0;" width="10" x="1067.5" y="759.7227"/><rect fill="#FFFFFF" height="31.291" style="stroke:#181818;stroke-width:1.0;" width="10" x="1067.5" y="822.3047"/><rect fill="#FFFFFF" height="108.2031" style="stroke:#181818;stroke-width:1.0;" width="10" x="1233" y="477.7734"/><rect fill="#FFFFFF" height="17.3301" style="stroke:#181818;stroke-width:1.0;" width="10" x="1576" y="545.3555"/><polygon fill="#181818" points="279.5,112.9121,289.5,116.9121,279.5,120.9121,283.5,116.9121" style="stroke:#181818;stroke-width:1.0;"/><line style="stroke:#181818;stroke-width:1.0;" x1="28.5" x2="285.5" y1="116.9121" y2="116.9121"/><text fill="#000000" font-family="sans-serif" font-size="13" font-weight="bold" lengthAdjust="spacing" textLength="7" x="35.5" y="111.6494">1</text><text fill="#000000" font-family="sans-serif" font-size="13" lengthAdjust="spacing" textLength="198" x="46.5" y="111.6494">asks to mark a task as completed</text><polygon fill="#181818" points="449.5,144.2031,459.5,148.2031,449.5,152.2031,453.5,148.2031" style="stroke:#181818;stroke-width:1.0;"/><line style="stroke:#181818;stroke-width:1.0;" x1="301.5" x2="455.5" y1="148.2031" y2="148.2031"/><text fill="#000000" font-family="sans-serif" font-size="13" font-weight="bold" lengthAdjust="spacing" textLength="7" x="308.5" y="142.9404">2</text><text fill="#000000" font-family="sans-serif" font-size="13" lengthAdjust="spacing" textLength="36" x="319.5" y="142.9404">create</text><rect fill="#E3E3E3" height="32.6211" rx="2.5" ry="2.5" style="stroke:#181818;stroke-width:0.5;" width="210" x="461.5" y="124.9121"/><text fill="#000000" font-family="sans-serif" font-size="14" lengthAdjust="spacing" textLength="196" x="468.5" y="147.0195">:MarkTaskCompletedController</text><polygon fill="#181818" points="549.5,187.8242,559.5,191.8242,549.5,195.8242,553.5,191.8242" style="stroke:#181818;stroke-width:1.0;"/><line style="stroke:#181818;stroke-width:1.0;" x1="301.5" x2="555.5" y1="191.8242" y2="191.8242"/><text fill="#000000" font-family="sans-serif" font-size="13" font-weight="bold" lengthAdjust="spacing" textLength="7" x="308.5" y="186.5615">3</text><text fill="#000000" font-family="sans-serif" font-size="13" lengthAdjust="spacing" textLength="223" x="319.5" y="186.5615">getAgendaEntryWithoutDoneDTOList()</text><polygon fill="#181818" points="1154,219.1152,1164,223.1152,1154,227.1152,1158,223.1152" style="stroke:#181818;stroke-width:1.0;"/><line style="stroke:#181818;stroke-width:1.0;" x1="571.5" x2="1160" y1="223.1152" y2="223.1152"/><text fill="#000000" font-family="sans-serif" font-size="13" font-weight="bold" lengthAdjust="spacing" textLength="7" x="578.5" y="217.8525">4</text><text fill="#000000" font-family="sans-serif" font-size="13" lengthAdjust="spacing" textLength="36" x="589.5" y="217.8525">create</text><rect fill="#E3E3E3" height="32.6211" rx="2.5" ry="2.5" style="stroke:#181818;stroke-width:0.5;" width="144" x="1166" y="199.8242"/><text fill="#000000" font-family="sans-serif" font-size="14" lengthAdjust="spacing" textLength="130" x="1173" y="221.9316">AgendaEntryMapper</text><polygon fill="#181818" points="713,262.7363,723,266.7363,713,270.7363,717,266.7363" style="stroke:#181818;stroke-width:1.0;"/><line style="stroke:#181818;stroke-width:1.0;" x1="571.5" x2="719" y1="266.7363" y2="266.7363"/><text fill="#000000" font-family="sans-serif" font-size="13" font-weight="bold" lengthAdjust="spacing" textLength="7" x="578.5" y="261.4736">5</text><text fill="#000000" font-family="sans-serif" font-size="13" lengthAdjust="spacing" textLength="75" x="589.5" y="261.4736">getInstance()</text><polygon fill="#181818" points="582.5,294.0273,572.5,298.0273,582.5,302.0273,578.5,298.0273" style="stroke:#181818;stroke-width:1.0;"/><line style="stroke:#181818;stroke-width:1.0;stroke-dasharray:2.0,2.0;" x1="576.5" x2="729" y1="298.0273" y2="298.0273"/><text fill="#000000" font-family="sans-serif" font-size="13" font-weight="bold" lengthAdjust="spacing" textLength="7" x="588.5" y="292.7646">6</text><text fill="#000000" font-family="sans-serif" font-size="13" lengthAdjust="spacing" textLength="67" x="599.5" y="292.7646">repositories</text><polygon fill="#181818" points="820,325.3184,830,329.3184,820,333.3184,824,329.3184" style="stroke:#181818;stroke-width:1.0;"/><line style="stroke:#181818;stroke-width:1.0;" x1="571.5" x2="826" y1="329.3184" y2="329.3184"/><text fill="#000000" font-family="sans-serif" font-size="13" font-weight="bold" lengthAdjust="spacing" textLength="7" x="578.5" y="324.0557">7</text><text fill="#000000" font-family="sans-serif" font-size="13" lengthAdjust="spacing" textLength="163" x="589.5" y="324.0557">getAgendaEntryRepository()</text><polygon fill="#181818" points="582.5,356.6094,572.5,360.6094,582.5,364.6094,578.5,360.6094" style="stroke:#181818;stroke-width:1.0;"/><line style="stroke:#181818;stroke-width:1.0;stroke-dasharray:2.0,2.0;" x1="576.5" x2="836" y1="360.6094" y2="360.6094"/><text fill="#000000" font-family="sans-serif" font-size="13" font-weight="bold" lengthAdjust="spacing" textLength="7" x="588.5" y="355.3467">8</text><text fill="#000000" font-family="sans-serif" font-size="13" lengthAdjust="spacing" textLength="145" x="599.5" y="355.3467">AgendaEntryRepository()</text><polygon fill="#181818" points="1055.5,399.5459,1065.5,403.5459,1055.5,407.5459,1059.5,403.5459" style="stroke:#181818;stroke-width:1.0;"/><line style="stroke:#181818;stroke-width:1.0;" x1="571.5" x2="1061.5" y1="403.5459" y2="403.5459"/><text fill="#000000" font-family="sans-serif" font-size="13" font-weight="bold" lengthAdjust="spacing" textLength="7" x="578.5" y="398.2832">9</text><text fill="#000000" font-family="sans-serif" font-size="13" lengthAdjust="spacing" textLength="252" x="589.5" y="398.2832">getEntriesByCollaborator(currentUserEmail)</text><path d="M1082,373.6094 L1082,417.6094 L1375,417.6094 L1375,383.6094 L1365,373.6094 L1082,373.6094 " fill="#FAFAFA" style="stroke:#181818;stroke-width:0.5;"/><path d="M1365,373.6094 L1365,383.6094 L1375,383.6094 L1365,373.6094 " fill="#FAFAFA" style="stroke:#181818;stroke-width:0.5;"/><text fill="#000000" font-family="sans-serif" font-size="13" lengthAdjust="spacing" textLength="268" x="1088" y="392.6377">check the email associated with the employee</text><text fill="#000000" font-family="sans-serif" font-size="13" lengthAdjust="spacing" textLength="218" x="1088" y="409.9287">and see the team they are included in</text><polygon fill="#181818" points="582.5,442.4824,572.5,446.4824,582.5,450.4824,578.5,446.4824" style="stroke:#181818;stroke-width:1.0;"/><line style="stroke:#181818;stroke-width:1.0;stroke-dasharray:2.0,2.0;" x1="576.5" x2="1071.5" y1="446.4824" y2="446.4824"/><text fill="#000000" font-family="sans-serif" font-size="13" font-weight="bold" lengthAdjust="spacing" textLength="14" x="588.5" y="441.2197">10</text><text fill="#000000" font-family="sans-serif" font-size="13" lengthAdjust="spacing" textLength="94" x="606.5" y="441.2197">agendaEntryList</text><polygon fill="#181818" points="1221,473.7734,1231,477.7734,1221,481.7734,1225,477.7734" style="stroke:#181818;stroke-width:1.0;"/><line style="stroke:#181818;stroke-width:1.0;" x1="571.5" x2="1227" y1="477.7734" y2="477.7734"/><text fill="#000000" font-family="sans-serif" font-size="13" font-weight="bold" lengthAdjust="spacing" textLength="14" x="578.5" y="472.5107">11</text><text fill="#000000" font-family="sans-serif" font-size="13" lengthAdjust="spacing" textLength="223" x="596.5" y="472.5107">toDtoList(agendaEntryListCollaborator)</text><path d="M1156,492.7734 L1229,492.7734 L1229,502.0645 L1219,512.0645 L1156,512.0645 L1156,492.7734 " fill="#EEEEEE" style="stroke:#000000;stroke-width:1.5;"/><rect fill="none" height="62.9121" style="stroke:#000000;stroke-width:1.5;" width="498" x="1156" y="492.7734"/><text fill="#000000" font-family="sans-serif" font-size="13" font-weight="bold" lengthAdjust="spacing" textLength="28" x="1171" y="507.8018">loop</text><text fill="#000000" font-family="sans-serif" font-size="11" font-weight="bold" lengthAdjust="spacing" textLength="229" x="1244" y="506.6436">[for each agendaEntry in agendaEntryList]</text><polygon fill="#181818" points="1506,531.3555,1516,535.3555,1506,539.3555,1510,535.3555" style="stroke:#181818;stroke-width:1.0;"/><line style="stroke:#181818;stroke-width:1.0;" x1="1243" x2="1512" y1="535.3555" y2="535.3555"/><text fill="#000000" font-family="sans-serif" font-size="13" font-weight="bold" lengthAdjust="spacing" textLength="14" x="1250" y="530.0928">12</text><text fill="#000000" font-family="sans-serif" font-size="13" lengthAdjust="spacing" textLength="233" x="1268" y="530.0928">agendaEntryDTO = toDTO(agendaEntry)</text><rect fill="#E3E3E3" height="32.6211" rx="2.5" ry="2.5" style="stroke:#181818;stroke-width:0.5;" width="126" x="1518" y="512.0645"/><text fill="#000000" font-family="sans-serif" font-size="14" lengthAdjust="spacing" textLength="112" x="1525" y="534.1719">AgendaEntryDTO</text><polygon fill="#181818" points="582.5,581.9766,572.5,585.9766,582.5,589.9766,578.5,585.9766" style="stroke:#181818;stroke-width:1.0;"/><line style="stroke:#181818;stroke-width:1.0;stroke-dasharray:2.0,2.0;" x1="576.5" x2="1237" y1="585.9766" y2="585.9766"/><text fill="#000000" font-family="sans-serif" font-size="13" font-weight="bold" lengthAdjust="spacing" textLength="14" x="588.5" y="580.7139">13</text><text fill="#000000" font-family="sans-serif" font-size="13" lengthAdjust="spacing" textLength="120" x="606.5" y="580.7139">agendaEntryDTOList</text><polygon fill="#181818" points="312.5,613.2676,302.5,617.2676,312.5,621.2676,308.5,617.2676" style="stroke:#181818;stroke-width:1.0;"/><line style="stroke:#181818;stroke-width:1.0;stroke-dasharray:2.0,2.0;" x1="306.5" x2="565.5" y1="617.2676" y2="617.2676"/><text fill="#000000" font-family="sans-serif" font-size="13" font-weight="bold" lengthAdjust="spacing" textLength="14" x="318.5" y="612.0049">14</text><text fill="#000000" font-family="sans-serif" font-size="13" lengthAdjust="spacing" textLength="120" x="336.5" y="612.0049">agendaEntryDTOList</text><polygon fill="#181818" points="39.5,661.8496,29.5,665.8496,39.5,669.8496,35.5,665.8496" style="stroke:#181818;stroke-width:1.0;"/><line style="stroke:#181818;stroke-width:1.0;stroke-dasharray:2.0,2.0;" x1="33.5" x2="290.5" y1="665.8496" y2="665.8496"/><text fill="#000000" font-family="sans-serif" font-size="13" font-weight="bold" lengthAdjust="spacing" textLength="14" x="45.5" y="651.9414">15</text><text fill="#000000" font-family="sans-serif" font-size="13" lengthAdjust="spacing" textLength="221" x="63.5" y="643.2959">shows the list of entries in the Agenda</text><text fill="#000000" font-family="sans-serif" font-size="13" lengthAdjust="spacing" textLength="132" x="67.5" y="660.5869">and asks to select one</text><polygon fill="#181818" points="279.5,693.1406,289.5,697.1406,279.5,701.1406,283.5,697.1406" style="stroke:#181818;stroke-width:1.0;"/><line style="stroke:#181818;stroke-width:1.0;" x1="28.5" x2="285.5" y1="697.1406" y2="697.1406"/><text fill="#000000" font-family="sans-serif" font-size="13" font-weight="bold" lengthAdjust="spacing" textLength="14" x="35.5" y="691.8779">16</text><text fill="#000000" font-family="sans-serif" font-size="13" lengthAdjust="spacing" textLength="93" x="53.5" y="691.8779">selects an entry</text><polygon fill="#181818" points="549.5,724.4316,559.5,728.4316,549.5,732.4316,553.5,728.4316" style="stroke:#181818;stroke-width:1.0;"/><line style="stroke:#181818;stroke-width:1.0;" x1="301.5" x2="555.5" y1="728.4316" y2="728.4316"/><text fill="#000000" font-family="sans-serif" font-size="13" font-weight="bold" lengthAdjust="spacing" textLength="14" x="308.5" y="723.1689">17</text><text fill="#000000" font-family="sans-serif" font-size="13" lengthAdjust="spacing" textLength="223" x="326.5" y="723.1689">completedAgendaEntry(selectedEntry)</text><polygon fill="#181818" points="1055.5,755.7227,1065.5,759.7227,1055.5,763.7227,1059.5,759.7227" style="stroke:#181818;stroke-width:1.0;"/><line style="stroke:#181818;stroke-width:1.0;" x1="571.5" x2="1061.5" y1="759.7227" y2="759.7227"/><text fill="#000000" font-family="sans-serif" font-size="13" font-weight="bold" lengthAdjust="spacing" textLength="14" x="578.5" y="754.46">18</text><text fill="#000000" font-family="sans-serif" font-size="13" lengthAdjust="spacing" textLength="459" x="596.5" y="754.46">getAgendaEntryByDescriptionAndGreenspace(dto.description, dto.greenSpace)</text><polygon fill="#181818" points="582.5,787.0137,572.5,791.0137,582.5,795.0137,578.5,791.0137" style="stroke:#181818;stroke-width:1.0;"/><line style="stroke:#181818;stroke-width:1.0;stroke-dasharray:2.0,2.0;" x1="576.5" x2="1071.5" y1="791.0137" y2="791.0137"/><text fill="#000000" font-family="sans-serif" font-size="13" font-weight="bold" lengthAdjust="spacing" textLength="14" x="588.5" y="785.751">19</text><text fill="#000000" font-family="sans-serif" font-size="13" lengthAdjust="spacing" textLength="73" x="606.5" y="785.751">agendaEntry</text><polygon fill="#181818" points="1055.5,818.3047,1065.5,822.3047,1055.5,826.3047,1059.5,822.3047" style="stroke:#181818;stroke-width:1.0;"/><line style="stroke:#181818;stroke-width:1.0;" x1="571.5" x2="1061.5" y1="822.3047" y2="822.3047"/><text fill="#000000" font-family="sans-serif" font-size="13" font-weight="bold" lengthAdjust="spacing" textLength="14" x="578.5" y="817.042">20</text><text fill="#000000" font-family="sans-serif" font-size="13" lengthAdjust="spacing" textLength="270" x="596.5" y="817.042">updateStatus(entry, EntryStatusENUM.DONE)</text><polygon fill="#181818" points="582.5,849.5957,572.5,853.5957,582.5,857.5957,578.5,853.5957" style="stroke:#181818;stroke-width:1.0;"/><line style="stroke:#181818;stroke-width:1.0;stroke-dasharray:2.0,2.0;" x1="576.5" x2="1071.5" y1="853.5957" y2="853.5957"/><text fill="#000000" font-family="sans-serif" font-size="13" font-weight="bold" lengthAdjust="spacing" textLength="14" x="588.5" y="848.333">21</text><text fill="#000000" font-family="sans-serif" font-size="13" lengthAdjust="spacing" textLength="112" x="606.5" y="848.333">success/insuccess</text><polygon fill="#181818" points="312.5,880.8867,302.5,884.8867,312.5,888.8867,308.5,884.8867" style="stroke:#181818;stroke-width:1.0;"/><line style="stroke:#181818;stroke-width:1.0;stroke-dasharray:2.0,2.0;" x1="306.5" x2="565.5" y1="884.8867" y2="884.8867"/><text fill="#000000" font-family="sans-serif" font-size="13" font-weight="bold" lengthAdjust="spacing" textLength="14" x="318.5" y="879.624">22</text><text fill="#000000" font-family="sans-serif" font-size="13" lengthAdjust="spacing" textLength="112" x="336.5" y="879.624">success/insuccess</text><polygon fill="#181818" points="34.5,912.1777,24.5,916.1777,34.5,920.1777,30.5,916.1777" style="stroke:#181818;stroke-width:1.0;"/><line style="stroke:#181818;stroke-width:1.0;stroke-dasharray:2.0,2.0;" x1="28.5" x2="295.5" y1="916.1777" y2="916.1777"/><text fill="#000000" font-family="sans-serif" font-size="13" font-weight="bold" lengthAdjust="spacing" textLength="14" x="40.5" y="910.915">23</text><text fill="#000000" font-family="sans-serif" font-size="13" lengthAdjust="spacing" textLength="165" x="58.5" y="910.915">shows (in)success message</text><!--SRC=[fLR1Rjim3BtxAuXSbWHjTpUm0MqI50MQTcWIx9ABQhEn45io97cT_twKuYPE9DijvaFhYEGJ7_b4MU-vA9bY1HHIo2HJia0mgi987oqbI_PiXojJvmWA4yF4Bcyxw8obyfsB7RonN6CKiSf8KHMlgABeMyPJX3SfpQly6x74I0MZ-zLo14m3_Oy8m_24bqmO6CLBflPhflSpMPGv6amt3yvpyp3aE9F2A9ddg5p0RFtoU17oWgNKd1BWg9tFSQ5USSk9iZuFKQs8hV01VZtUhiyZg50YPGjAfJwXnrjn6re_9d6EqV9Tih8aGfts-Vfv5D53TUL_c45NqGWk7bg4wvzKGuXfnxq68w6W-W43Gxzj5ib76Vte8pRrm3CI9Y7ROa-dX9ue9Czk2DSLpqme3KWCEpGjVh-voMHbvb8WKNtasemdVhoDj6a4AZUTnl2HLVDqHGVK02wV1w59ymdIrft4GbBoUT8JskNwoBujE2yynVxjEfbPcS9bQKyGVRoSmeD47EWfyyyYjqWSi7lx0J4bRK6f7dVrZ8utUvMA4VOugPH2OJOQrQ9WF1zeZh-Fa6HIV9SPqcs6oHvCXe0MYqw4bWcds1JUIOADfSnbZGXRmKGAcjxiia4QWVHI0rC8N2HvbL8O3_JVCJgLh3KhhBA7-jqhte3qgUD6perqf-PYhtObUmeN6aK1DUHIbZJY5L32MPiMLS5ZwOU7Sh-WPEUS6p3iR0r-M8hhvpQzIKYkGKPkUFg-PEzhXJz-FyMdwRf7OQZpmHP0M0R76J-yGtkBZg7iPZj1sjiZfajUlcid-9pmGBvHdTonj3ssouSyjzHmEXmVjup6d3uOWCPtI3U4x5AE6pzDiGws3aczTKaSRwjMSSO734mR5NobXL-yh-ngCw0kf-fTFKUTA5uQBiMjIEyLej3q2ONZrCYRz6Iy0hkmi_QLjG_Dhz0meVPue-GpOwINK5McvBiop5HwxBfn1GxviBHusYnlvizFYqdqFndhAabGw-zSD6zUMbxU_QBt0OSaFoptCHUJ1WqA-aDbZhf1xVTHZzb-clq3]--></g></svg>