<?xml version="1.0" encoding="us-ascii" standalone="no"?><svg xmlns="http://www.w3.org/2000/svg" xmlns:xlink="http://www.w3.org/1999/xlink" contentStyleType="text/css" height="1017px" preserveAspectRatio="none" style="width:1661px;height:1017px;background:#FFFFFF;" version="1.1" viewBox="0 0 1661 1017" width="1661px" zoomAndPan="magnify"><defs/><g><rect fill="#FFFFFF" height="822.5566" style="stroke:#181818;stroke-width:1.0;" width="10" x="18.5" y="93.6211"/><rect fill="#FFFFFF" height="799.2656" style="stroke:#181818;stroke-width:1.0;" width="10" x="291.5" y="116.9121"/><rect fill="#FFFFFF" height="459.0645" style="stroke:#181818;stroke-width:1.0;" width="10" x="604.5" y="158.2031"/><rect fill="#FFFFFF" height="156.4551" style="stroke:#181818;stroke-width:1.0;" width="10" x="604.5" y="728.4316"/><rect fill="#FFFFFF" height="31.291" style="stroke:#181818;stroke-width:1.0;" width="10" x="768" y="266.7363"/><rect fill="#FFFFFF" height="31.291" style="stroke:#181818;stroke-width:1.0;" width="10" x="875" y="329.3184"/><rect fill="#FFFFFF" height="42.9365" style="stroke:#181818;stroke-width:1.0;" width="10" x="1068.5" y="403.5459"/><rect fill="#FFFFFF" height="31.291" style="stroke:#181818;stroke-width:1.0;" width="10" x="1068.5" y="759.7227"/><rect fill="#FFFFFF" height="31.291" style="stroke:#181818;stroke-width:1.0;" width="10" x="1068.5" y="822.3047"/><rect fill="#FFFFFF" height="108.2031" style="stroke:#181818;stroke-width:1.0;" width="10" x="1234" y="477.7734"/><rect fill="#FFFFFF" height="17.3301" style="stroke:#181818;stroke-width:1.0;" width="10" x="1577" y="545.3555"/><rect fill="none" height="62.9121" style="stroke:#000000;stroke-width:1.5;" width="498" x="1157" y="492.7734"/><line style="stroke:#181818;stroke-width:0.5;stroke-dasharray:5.0,5.0;" x1="23" x2="23" y1="83.6211" y2="934.1777"/><line style="stroke:#181818;stroke-width:0.5;stroke-dasharray:5.0,5.0;" x1="296.5" x2="296.5" y1="83.6211" y2="934.1777"/><line style="stroke:#181818;stroke-width:0.5;stroke-dasharray:5.0,5.0;" x1="609.5" x2="609.5" y1="156.7227" y2="934.1777"/><line style="stroke:#181818;stroke-width:0.5;stroke-dasharray:5.0,5.0;" x1="772.5" x2="772.5" y1="83.6211" y2="934.1777"/><line style="stroke:#181818;stroke-width:0.5;stroke-dasharray:5.0,5.0;" x1="879.5" x2="879.5" y1="83.6211" y2="934.1777"/><line style="stroke:#181818;stroke-width:0.5;stroke-dasharray:5.0,5.0;" x1="1073" x2="1073" y1="83.6211" y2="934.1777"/><line style="stroke:#181818;stroke-width:0.5;stroke-dasharray:5.0,5.0;" x1="1239" x2="1239" y1="231.6348" y2="934.1777"/><line style="stroke:#181818;stroke-width:0.5;stroke-dasharray:5.0,5.0;" x1="1582" x2="1582" y1="543.875" y2="934.1777"/><text fill="#000000" font-family="sans-serif" font-size="14" lengthAdjust="spacing" textLength="31" x="5" y="80.1074">GSM</text><ellipse cx="23.5" cy="13.5" fill="#E3E3E3" rx="8" ry="8" style="stroke:#181818;stroke-width:0.5;"/><path d="M23.5,21.5 L23.5,48.5 M10.5,29.5 L36.5,29.5 M23.5,48.5 L10.5,63.5 M23.5,48.5 L36.5,63.5 " fill="none" style="stroke:#181818;stroke-width:0.5;"/><text fill="#000000" font-family="sans-serif" font-size="14" lengthAdjust="spacing" textLength="31" x="5" y="948.2852">GSM</text><ellipse cx="23.5" cy="960.2988" fill="#E3E3E3" rx="8" ry="8" style="stroke:#181818;stroke-width:0.5;"/><path d="M23.5,968.2988 L23.5,995.2988 M10.5,976.2988 L36.5,976.2988 M23.5,995.2988 L10.5,1010.2988 M23.5,995.2988 L36.5,1010.2988 " fill="none" style="stroke:#181818;stroke-width:0.5;"/><rect fill="#E3E3E3" height="32.6211" rx="2.5" ry="2.5" style="stroke:#181818;stroke-width:0.5;" width="160" x="216.5" y="50"/><text fill="#000000" font-family="sans-serif" font-size="14" lengthAdjust="spacing" textLength="146" x="223.5" y="72.1074">:MarkTaskCompletedUI</text><rect fill="#E3E3E3" height="32.6211" rx="2.5" ry="2.5" style="stroke:#181818;stroke-width:0.5;" width="160" x="216.5" y="933.1777"/><text fill="#000000" font-family="sans-serif" font-size="14" lengthAdjust="spacing" textLength="146" x="223.5" y="955.2852">:MarkTaskCompletedUI</text><rect fill="#E3E3E3" height="32.6211" rx="2.5" ry="2.5" style="stroke:#181818;stroke-width:0.5;" width="210" x="504.5" y="933.1777"/><text fill="#000000" font-family="sans-serif" font-size="14" lengthAdjust="spacing" textLength="196" x="511.5" y="955.2852">:MarkTaskCompletedController</text><rect fill="#E3E3E3" height="32.6211" rx="2.5" ry="2.5" style="stroke:#181818;stroke-width:0.5;" width="97" x="724.5" y="50"/><text fill="#000000" font-family="sans-serif" font-size="14" lengthAdjust="spacing" textLength="83" x="731.5" y="72.1074">:Repositories</text><rect fill="#E3E3E3" height="32.6211" rx="2.5" ry="2.5" style="stroke:#181818;stroke-width:0.5;" width="97" x="724.5" y="933.1777"/><text fill="#000000" font-family="sans-serif" font-size="14" lengthAdjust="spacing" textLength="83" x="731.5" y="955.2852">:Repositories</text><rect fill="#E3E3E3" height="51.2422" rx="2.5" ry="2.5" style="stroke:#181818;stroke-width:0.5;" width="97" x="831.5" y="31.3789"/><text fill="#000000" font-family="sans-serif" font-size="14" lengthAdjust="spacing" textLength="74" x="843" y="53.4863">repositories</text><text fill="#000000" font-family="sans-serif" font-size="14" lengthAdjust="spacing" textLength="83" x="838.5" y="72.1074">:Repositories</text><rect fill="#E3E3E3" height="51.2422" rx="2.5" ry="2.5" style="stroke:#181818;stroke-width:0.5;" width="97" x="831.5" y="933.1777"/><text fill="#000000" font-family="sans-serif" font-size="14" lengthAdjust="spacing" textLength="74" x="843" y="955.2852">repositories</text><text fill="#000000" font-family="sans-serif" font-size="14" lengthAdjust="spacing" textLength="83" x="838.5" y="973.9063">:Repositories</text><rect fill="#E3E3E3" height="51.2422" rx="2.5" ry="2.5" style="stroke:#181818;stroke-width:0.5;" width="167" x="990" y="31.3789"/><text fill="#000000" font-family="sans-serif" font-size="14" lengthAdjust="spacing" textLength="153" x="997" y="53.4863">agendaEntryRepository:</text><text fill="#000000" font-family="sans-serif" font-size="14" lengthAdjust="spacing" textLength="150" x="998.5" y="72.1074">AgendaEntryRepository</text><rect fill="#E3E3E3" height="51.2422" rx="2.5" ry="2.5" style="stroke:#181818;stroke-width:0.5;" width="167" x="990" y="933.1777"/><text fill="#000000" font-family="sans-serif" font-size="14" lengthAdjust="spacing" textLength="153" x="997" y="955.2852">agendaEntryRepository:</text><text fill="#000000" font-family="sans-serif" font-size="14" lengthAdjust="spacing" textLength="150" x="998.5" y="973.9063">AgendaEntryRepository</text><rect fill="#E3E3E3" height="32.6211" rx="2.5" ry="2.5" style="stroke:#181818;stroke-width:0.5;" width="144" x="1167" y="933.1777"/><text fill="#000000" font-family="sans-serif" font-size="14" lengthAdjust="spacing" textLength="130" x="1174" y="955.2852">AgendaEntryMapper</text><rect fill="#E3E3E3" height="32.6211" rx="2.5" ry="2.5" style="stroke:#181818;stroke-width:0.5;" width="126" x="1519" y="933.1777"/><text fill="#000000" font-family="sans-serif" font-size="14" lengthAdjust="spacing" textLength="112" x="1526" y="955.2852">AgendaEntryDTO</text><rect fill="#FFFFFF" height="822.5566" style="stroke:#181818;stroke-width:1.0;" width="10" x="18.5" y="93.6211"/><rect fill="#FFFFFF" height="799.2656" style="stroke:#181818;stroke-width:1.0;" width="10" x="291.5" y="116.9121"/><rect fill="#FFFFFF" height="459.0645" style="stroke:#181818;stroke-width:1.0;" width="10" x="604.5" y="158.2031"/><rect fill="#FFFFFF" height="156.4551" style="stroke:#181818;stroke-width:1.0;" width="10" x="604.5" y="728.4316"/><rect fill="#FFFFFF" height="31.291" style="stroke:#181818;stroke-width:1.0;" width="10" x="768" y="266.7363"/><rect fill="#FFFFFF" height="31.291" style="stroke:#181818;stroke-width:1.0;" width="10" x="875" y="329.3184"/><rect fill="#FFFFFF" height="42.9365" style="stroke:#181818;stroke-width:1.0;" width="10" x="1068.5" y="403.5459"/><rect fill="#FFFFFF" height="31.291" style="stroke:#181818;stroke-width:1.0;" width="10" x="1068.5" y="759.7227"/><rect fill="#FFFFFF" height="31.291" style="stroke:#181818;stroke-width:1.0;" width="10" x="1068.5" y="822.3047"/><rect fill="#FFFFFF" height="108.2031" style="stroke:#181818;stroke-width:1.0;" width="10" x="1234" y="477.7734"/><rect fill="#FFFFFF" height="17.3301" style="stroke:#181818;stroke-width:1.0;" width="10" x="1577" y="545.3555"/><polygon fill="#181818" points="279.5,112.9121,289.5,116.9121,279.5,120.9121,283.5,116.9121" style="stroke:#181818;stroke-width:1.0;"/><line style="stroke:#181818;stroke-width:1.0;" x1="28.5" x2="285.5" y1="116.9121" y2="116.9121"/><text fill="#000000" font-family="sans-serif" font-size="13" font-weight="bold" lengthAdjust="spacing" textLength="7" x="35.5" y="111.6494">1</text><text fill="#000000" font-family="sans-serif" font-size="13" lengthAdjust="spacing" textLength="198" x="46.5" y="111.6494">asks to mark a task as completed</text><polygon fill="#181818" points="492.5,144.2031,502.5,148.2031,492.5,152.2031,496.5,148.2031" style="stroke:#181818;stroke-width:1.0;"/><line style="stroke:#181818;stroke-width:1.0;" x1="301.5" x2="498.5" y1="148.2031" y2="148.2031"/><text fill="#000000" font-family="sans-serif" font-size="13" font-weight="bold" lengthAdjust="spacing" textLength="7" x="308.5" y="142.9404">2</text><text fill="#000000" font-family="sans-serif" font-size="13" lengthAdjust="spacing" textLength="36" x="319.5" y="142.9404">create</text><rect fill="#E3E3E3" height="32.6211" rx="2.5" ry="2.5" style="stroke:#181818;stroke-width:0.5;" width="210" x="504.5" y="124.9121"/><text fill="#000000" font-family="sans-serif" font-size="14" lengthAdjust="spacing" textLength="196" x="511.5" y="147.0195">:MarkTaskCompletedController</text><polygon fill="#181818" points="592.5,187.8242,602.5,191.8242,592.5,195.8242,596.5,191.8242" style="stroke:#181818;stroke-width:1.0;"/><line style="stroke:#181818;stroke-width:1.0;" x1="301.5" x2="598.5" y1="191.8242" y2="191.8242"/><text fill="#000000" font-family="sans-serif" font-size="13" font-weight="bold" lengthAdjust="spacing" textLength="7" x="308.5" y="186.5615">3</text><text fill="#000000" font-family="sans-serif" font-size="13" lengthAdjust="spacing" textLength="145" x="319.5" y="186.5615">getEntrysByCollaborato()</text><polygon fill="#181818" points="1155,219.1152,1165,223.1152,1155,227.1152,1159,223.1152" style="stroke:#181818;stroke-width:1.0;"/><line style="stroke:#181818;stroke-width:1.0;" x1="614.5" x2="1161" y1="223.1152" y2="223.1152"/><text fill="#000000" font-family="sans-serif" font-size="13" font-weight="bold" lengthAdjust="spacing" textLength="7" x="621.5" y="217.8525">4</text><text fill="#000000" font-family="sans-serif" font-size="13" lengthAdjust="spacing" textLength="36" x="632.5" y="217.8525">create</text><rect fill="#E3E3E3" height="32.6211" rx="2.5" ry="2.5" style="stroke:#181818;stroke-width:0.5;" width="144" x="1167" y="199.8242"/><text fill="#000000" font-family="sans-serif" font-size="14" lengthAdjust="spacing" textLength="130" x="1174" y="221.9316">AgendaEntryMapper</text><polygon fill="#181818" points="756,262.7363,766,266.7363,756,270.7363,760,266.7363" style="stroke:#181818;stroke-width:1.0;"/><line style="stroke:#181818;stroke-width:1.0;" x1="614.5" x2="762" y1="266.7363" y2="266.7363"/><text fill="#000000" font-family="sans-serif" font-size="13" font-weight="bold" lengthAdjust="spacing" textLength="7" x="621.5" y="261.4736">5</text><text fill="#000000" font-family="sans-serif" font-size="13" lengthAdjust="spacing" textLength="75" x="632.5" y="261.4736">getInstance()</text><polygon fill="#181818" points="625.5,294.0273,615.5,298.0273,625.5,302.0273,621.5,298.0273" style="stroke:#181818;stroke-width:1.0;"/><line style="stroke:#181818;stroke-width:1.0;stroke-dasharray:2.0,2.0;" x1="619.5" x2="772" y1="298.0273" y2="298.0273"/><text fill="#000000" font-family="sans-serif" font-size="13" font-weight="bold" lengthAdjust="spacing" textLength="7" x="631.5" y="292.7646">6</text><text fill="#000000" font-family="sans-serif" font-size="13" lengthAdjust="spacing" textLength="67" x="642.5" y="292.7646">repositories</text><polygon fill="#181818" points="863,325.3184,873,329.3184,863,333.3184,867,329.3184" style="stroke:#181818;stroke-width:1.0;"/><line style="stroke:#181818;stroke-width:1.0;" x1="614.5" x2="869" y1="329.3184" y2="329.3184"/><text fill="#000000" font-family="sans-serif" font-size="13" font-weight="bold" lengthAdjust="spacing" textLength="7" x="621.5" y="324.0557">7</text><text fill="#000000" font-family="sans-serif" font-size="13" lengthAdjust="spacing" textLength="163" x="632.5" y="324.0557">getAgendaEntryRepository()</text><polygon fill="#181818" points="625.5,356.6094,615.5,360.6094,625.5,364.6094,621.5,360.6094" style="stroke:#181818;stroke-width:1.0;"/><line style="stroke:#181818;stroke-width:1.0;stroke-dasharray:2.0,2.0;" x1="619.5" x2="879" y1="360.6094" y2="360.6094"/><text fill="#000000" font-family="sans-serif" font-size="13" font-weight="bold" lengthAdjust="spacing" textLength="7" x="631.5" y="355.3467">8</text><text fill="#000000" font-family="sans-serif" font-size="13" lengthAdjust="spacing" textLength="145" x="642.5" y="355.3467">AgendaEntryRepository()</text><polygon fill="#181818" points="1056.5,399.5459,1066.5,403.5459,1056.5,407.5459,1060.5,403.5459" style="stroke:#181818;stroke-width:1.0;"/><line style="stroke:#181818;stroke-width:1.0;" x1="614.5" x2="1062.5" y1="403.5459" y2="403.5459"/><text fill="#000000" font-family="sans-serif" font-size="13" font-weight="bold" lengthAdjust="spacing" textLength="7" x="621.5" y="398.2832">9</text><text fill="#000000" font-family="sans-serif" font-size="13" lengthAdjust="spacing" textLength="287" x="632.5" y="398.2832">getEntrysByCollaborator(String currentUserEmail)</text><path d="M1083,373.6094 L1083,417.6094 L1376,417.6094 L1376,383.6094 L1366,373.6094 L1083,373.6094 " fill="#FAFAFA" style="stroke:#181818;stroke-width:0.5;"/><path d="M1366,373.6094 L1366,383.6094 L1376,383.6094 L1366,373.6094 " fill="#FAFAFA" style="stroke:#181818;stroke-width:0.5;"/><text fill="#000000" font-family="sans-serif" font-size="13" lengthAdjust="spacing" textLength="268" x="1089" y="392.6377">check the email associated with the employee</text><text fill="#000000" font-family="sans-serif" font-size="13" lengthAdjust="spacing" textLength="218" x="1089" y="409.9287">and see the team they are included in</text><polygon fill="#181818" points="625.5,442.4824,615.5,446.4824,625.5,450.4824,621.5,446.4824" style="stroke:#181818;stroke-width:1.0;"/><line style="stroke:#181818;stroke-width:1.0;stroke-dasharray:2.0,2.0;" x1="619.5" x2="1072.5" y1="446.4824" y2="446.4824"/><text fill="#000000" font-family="sans-serif" font-size="13" font-weight="bold" lengthAdjust="spacing" textLength="14" x="631.5" y="441.2197">10</text><text fill="#000000" font-family="sans-serif" font-size="13" lengthAdjust="spacing" textLength="163" x="649.5" y="441.2197">agendaEntryListCollaborator</text><polygon fill="#181818" points="1222,473.7734,1232,477.7734,1222,481.7734,1226,477.7734" style="stroke:#181818;stroke-width:1.0;"/><line style="stroke:#181818;stroke-width:1.0;" x1="614.5" x2="1228" y1="477.7734" y2="477.7734"/><text fill="#000000" font-family="sans-serif" font-size="13" font-weight="bold" lengthAdjust="spacing" textLength="14" x="621.5" y="472.5107">11</text><text fill="#000000" font-family="sans-serif" font-size="13" lengthAdjust="spacing" textLength="223" x="639.5" y="472.5107">toDtoList(agendaEntryListCollaborator)</text><path d="M1157,492.7734 L1230,492.7734 L1230,502.0645 L1220,512.0645 L1157,512.0645 L1157,492.7734 " fill="#EEEEEE" style="stroke:#000000;stroke-width:1.5;"/><rect fill="none" height="62.9121" style="stroke:#000000;stroke-width:1.5;" width="498" x="1157" y="492.7734"/><text fill="#000000" font-family="sans-serif" font-size="13" font-weight="bold" lengthAdjust="spacing" textLength="28" x="1172" y="507.8018">loop</text><text fill="#000000" font-family="sans-serif" font-size="11" font-weight="bold" lengthAdjust="spacing" textLength="229" x="1245" y="506.6436">[for each agendaEntry in agendaEntryList]</text><polygon fill="#181818" points="1507,531.3555,1517,535.3555,1507,539.3555,1511,535.3555" style="stroke:#181818;stroke-width:1.0;"/><line style="stroke:#181818;stroke-width:1.0;" x1="1244" x2="1513" y1="535.3555" y2="535.3555"/><text fill="#000000" font-family="sans-serif" font-size="13" font-weight="bold" lengthAdjust="spacing" textLength="14" x="1251" y="530.0928">12</text><text fill="#000000" font-family="sans-serif" font-size="13" lengthAdjust="spacing" textLength="233" x="1269" y="530.0928">agendaEntryDTO = toDTO(agendaEntry)</text><rect fill="#E3E3E3" height="32.6211" rx="2.5" ry="2.5" style="stroke:#181818;stroke-width:0.5;" width="126" x="1519" y="512.0645"/><text fill="#000000" font-family="sans-serif" font-size="14" lengthAdjust="spacing" textLength="112" x="1526" y="534.1719">AgendaEntryDTO</text><polygon fill="#181818" points="625.5,581.9766,615.5,585.9766,625.5,589.9766,621.5,585.9766" style="stroke:#181818;stroke-width:1.0;"/><line style="stroke:#181818;stroke-width:1.0;stroke-dasharray:2.0,2.0;" x1="619.5" x2="1238" y1="585.9766" y2="585.9766"/><text fill="#000000" font-family="sans-serif" font-size="13" font-weight="bold" lengthAdjust="spacing" textLength="14" x="631.5" y="580.7139">13</text><text fill="#000000" font-family="sans-serif" font-size="13" lengthAdjust="spacing" textLength="120" x="649.5" y="580.7139">agendaEntryDTOList</text><polygon fill="#181818" points="312.5,613.2676,302.5,617.2676,312.5,621.2676,308.5,617.2676" style="stroke:#181818;stroke-width:1.0;"/><line style="stroke:#181818;stroke-width:1.0;stroke-dasharray:2.0,2.0;" x1="306.5" x2="608.5" y1="617.2676" y2="617.2676"/><text fill="#000000" font-family="sans-serif" font-size="13" font-weight="bold" lengthAdjust="spacing" textLength="14" x="318.5" y="612.0049">14</text><text fill="#000000" font-family="sans-serif" font-size="13" lengthAdjust="spacing" textLength="120" x="336.5" y="612.0049">agendaEntryDTOList</text><polygon fill="#181818" points="39.5,661.8496,29.5,665.8496,39.5,669.8496,35.5,665.8496" style="stroke:#181818;stroke-width:1.0;"/><line style="stroke:#181818;stroke-width:1.0;stroke-dasharray:2.0,2.0;" x1="33.5" x2="290.5" y1="665.8496" y2="665.8496"/><text fill="#000000" font-family="sans-serif" font-size="13" font-weight="bold" lengthAdjust="spacing" textLength="14" x="45.5" y="651.9414">15</text><text fill="#000000" font-family="sans-serif" font-size="13" lengthAdjust="spacing" textLength="221" x="63.5" y="643.2959">shows the list of entries in the Agenda</text><text fill="#000000" font-family="sans-serif" font-size="13" lengthAdjust="spacing" textLength="132" x="67.5" y="660.5869">and asks to select one</text><polygon fill="#181818" points="279.5,693.1406,289.5,697.1406,279.5,701.1406,283.5,697.1406" style="stroke:#181818;stroke-width:1.0;"/><line style="stroke:#181818;stroke-width:1.0;" x1="28.5" x2="285.5" y1="697.1406" y2="697.1406"/><text fill="#000000" font-family="sans-serif" font-size="13" font-weight="bold" lengthAdjust="spacing" textLength="14" x="35.5" y="691.8779">16</text><text fill="#000000" font-family="sans-serif" font-size="13" lengthAdjust="spacing" textLength="93" x="53.5" y="691.8779">selects an entry</text><polygon fill="#181818" points="592.5,724.4316,602.5,728.4316,592.5,732.4316,596.5,728.4316" style="stroke:#181818;stroke-width:1.0;"/><line style="stroke:#181818;stroke-width:1.0;" x1="301.5" x2="598.5" y1="728.4316" y2="728.4316"/><text fill="#000000" font-family="sans-serif" font-size="13" font-weight="bold" lengthAdjust="spacing" textLength="14" x="308.5" y="723.1689">17</text><text fill="#000000" font-family="sans-serif" font-size="13" lengthAdjust="spacing" textLength="266" x="326.5" y="723.1689">completedAgendaEntry(AgendaEntryDTO dto)</text><polygon fill="#181818" points="1056.5,755.7227,1066.5,759.7227,1056.5,763.7227,1060.5,759.7227" style="stroke:#181818;stroke-width:1.0;"/><line style="stroke:#181818;stroke-width:1.0;" x1="614.5" x2="1062.5" y1="759.7227" y2="759.7227"/><text fill="#000000" font-family="sans-serif" font-size="13" font-weight="bold" lengthAdjust="spacing" textLength="14" x="621.5" y="754.46">18</text><text fill="#000000" font-family="sans-serif" font-size="13" lengthAdjust="spacing" textLength="417" x="639.5" y="754.46">getAgendaEntryByDescriptionAndGreenSpace(description, greenSpace)</text><polygon fill="#181818" points="625.5,787.0137,615.5,791.0137,625.5,795.0137,621.5,791.0137" style="stroke:#181818;stroke-width:1.0;"/><line style="stroke:#181818;stroke-width:1.0;stroke-dasharray:2.0,2.0;" x1="619.5" x2="1072.5" y1="791.0137" y2="791.0137"/><text fill="#000000" font-family="sans-serif" font-size="13" font-weight="bold" lengthAdjust="spacing" textLength="14" x="631.5" y="785.751">19</text><text fill="#000000" font-family="sans-serif" font-size="13" lengthAdjust="spacing" textLength="73" x="649.5" y="785.751">agendaEntry</text><polygon fill="#181818" points="1056.5,818.3047,1066.5,822.3047,1056.5,826.3047,1060.5,822.3047" style="stroke:#181818;stroke-width:1.0;"/><line style="stroke:#181818;stroke-width:1.0;" x1="614.5" x2="1062.5" y1="822.3047" y2="822.3047"/><text fill="#000000" font-family="sans-serif" font-size="13" font-weight="bold" lengthAdjust="spacing" textLength="14" x="621.5" y="817.042">20</text><text fill="#000000" font-family="sans-serif" font-size="13" lengthAdjust="spacing" textLength="194" x="639.5" y="817.042">update(entry, EntryStatus.DONE)</text><polygon fill="#181818" points="625.5,849.5957,615.5,853.5957,625.5,857.5957,621.5,853.5957" style="stroke:#181818;stroke-width:1.0;"/><line style="stroke:#181818;stroke-width:1.0;stroke-dasharray:2.0,2.0;" x1="619.5" x2="1072.5" y1="853.5957" y2="853.5957"/><text fill="#000000" font-family="sans-serif" font-size="13" font-weight="bold" lengthAdjust="spacing" textLength="14" x="631.5" y="848.333">21</text><text fill="#000000" font-family="sans-serif" font-size="13" lengthAdjust="spacing" textLength="112" x="649.5" y="848.333">success/insuccess</text><polygon fill="#181818" points="312.5,880.8867,302.5,884.8867,312.5,888.8867,308.5,884.8867" style="stroke:#181818;stroke-width:1.0;"/><line style="stroke:#181818;stroke-width:1.0;stroke-dasharray:2.0,2.0;" x1="306.5" x2="608.5" y1="884.8867" y2="884.8867"/><text fill="#000000" font-family="sans-serif" font-size="13" font-weight="bold" lengthAdjust="spacing" textLength="14" x="318.5" y="879.624">22</text><text fill="#000000" font-family="sans-serif" font-size="13" lengthAdjust="spacing" textLength="112" x="336.5" y="879.624">success/insuccess</text><polygon fill="#181818" points="34.5,912.1777,24.5,916.1777,34.5,920.1777,30.5,916.1777" style="stroke:#181818;stroke-width:1.0;"/><line style="stroke:#181818;stroke-width:1.0;stroke-dasharray:2.0,2.0;" x1="28.5" x2="295.5" y1="916.1777" y2="916.1777"/><text fill="#000000" font-family="sans-serif" font-size="13" font-weight="bold" lengthAdjust="spacing" textLength="14" x="40.5" y="910.915">23</text><text fill="#000000" font-family="sans-serif" font-size="13" lengthAdjust="spacing" textLength="165" x="58.5" y="910.915">shows (in)success message</text><!--SRC=[fLR1JkCm4BtdAqQzR5l1xZtIhWGjGaYmh6YvzMASeR6Qs97jB9k_tx49QLexQH4vG6hFl9atypAssGbPCSrAA9LKFDUgHB2wniHqEnNZExR5bMqA18tSChaj-WOcPvbw4t8Bhwmmc2IijahMvGlg9FcMYmpXLIdxelubZ5kbONAxUfW0Cq3_4yAmWekAIGkJz87ftPgPtKALLO4Mi-SxR_byTyfmeQJLgYXGUuV5-kd-oEK9AsK49I3GU9jkeLa9nucoFdJHFO-D307-t5-j3pseK39ZDvHAiqTFD_8gjjubSOZHitrWLKM41lUNwyT9GW_LLVnb5dr54pXwQ14kVr4D8QM8EmDMGKdr0mQMVhii-4SPG-yEcteGR18c8RjYp-U4pZMIvJ24xqgmJIWjI0fRj9wPkMuMr4tseZIpQZeBlPoz2nwfrtoUmaSkxJFa7T40-2pkf26bSwJGWtHY0WhPqHEBSjbnxiiiSCzmFDmWCoVETofHyOtnyhgE4l6W-ypFHUwHUCSUxGUaSHNewSfgDsTuhJLA-snGtvHC52TQ54QJYhQqsEQMD9iZtu7D4T1XqTTW51Vacy6Ri7cxKnMgGOIDP383GszksIADFtffW6a48NbHP-Gc8YhmlFQ5wys9Us5id-Gf1OpAEV8na0QiMbhbuan7ueuKCJQI8leebAfer6kWXFC-HQh8CUE8Uopt8qfktlb1mmxMuAUZk7xiqvl511nbv8TeQ4lxOwq8n_1PV5e511HyJSuCrxK0uZBePltf2FqG0yFPptY2TAT8IeUzUZDU_0NXWNgbEbatk5oFtV9xdXjgE7qe7wUDmO8k3g0andH3o3xbjBKpvEjXcvZKUuT5TshrYZCzx0jaLiq-rSTF7bvkjPrRnyFskbcYuLfKLYXv9RDRZIXNT9_2QRRVk81jjtvgaCMc2lKcc2ddp91H8dMLaUtKD-42FERACbkRxyl7tpUpv2jvcffpDEQ7aErRa4oGxRZEGy1JAZ-jyAcGinODIlf3nKs6GTtLQ6JRtSh-0m00]--></g></svg>