<?xml version="1.0" encoding="us-ascii" standalone="no"?><svg xmlns="http://www.w3.org/2000/svg" xmlns:xlink="http://www.w3.org/1999/xlink" contentStyleType="text/css" height="794px" preserveAspectRatio="none" style="width:1680px;height:794px;background:#FFFFFF;" version="1.1" viewBox="0 0 1680 794" width="1680px" zoomAndPan="magnify"><defs/><g><rect fill="#FFFFFF" height="599.5684" style="stroke:#181818;stroke-width:1.0;" width="10" x="42" y="93.6211"/><rect fill="#FFFFFF" height="576.2773" style="stroke:#181818;stroke-width:1.0;" width="10" x="441" y="116.9121"/><rect fill="#FFFFFF" height="513.6953" style="stroke:#181818;stroke-width:1.0;" width="10" x="712" y="148.2031"/><rect fill="#FFFFFF" height="31.291" style="stroke:#181818;stroke-width:1.0;" width="10" x="875" y="285.6973"/><rect fill="#FFFFFF" height="31.291" style="stroke:#181818;stroke-width:1.0;" width="10" x="982" y="348.2793"/><rect fill="#FFFFFF" height="31.291" style="stroke:#181818;stroke-width:1.0;" width="10" x="1124" y="442.1523"/><rect fill="#FFFFFF" height="125.873" style="stroke:#181818;stroke-width:1.0;" width="10" x="1289.5" y="504.7344"/><rect fill="#FFFFFF" height="30" style="stroke:#181818;stroke-width:1.0;" width="10" x="1569.5" y="562.3164"/><rect fill="none" height="80.582" style="stroke:#000000;stroke-width:1.5;" width="461.5" x="1212.5" y="519.7344"/><line style="stroke:#181818;stroke-width:0.5;stroke-dasharray:5.0,5.0;" x1="47" x2="47" y1="83.6211" y2="711.1895"/><line style="stroke:#181818;stroke-width:0.5;stroke-dasharray:5.0,5.0;" x1="445.5" x2="445.5" y1="83.6211" y2="711.1895"/><line style="stroke:#181818;stroke-width:0.5;stroke-dasharray:5.0,5.0;" x1="716.5" x2="716.5" y1="83.6211" y2="711.1895"/><line style="stroke:#181818;stroke-width:0.5;stroke-dasharray:5.0,5.0;" x1="879.5" x2="879.5" y1="83.6211" y2="711.1895"/><line style="stroke:#181818;stroke-width:0.5;stroke-dasharray:5.0,5.0;" x1="986.5" x2="986.5" y1="83.6211" y2="711.1895"/><line style="stroke:#181818;stroke-width:0.5;stroke-dasharray:5.0,5.0;" x1="1128.5" x2="1128.5" y1="83.6211" y2="711.1895"/><line style="stroke:#181818;stroke-width:0.5;stroke-dasharray:5.0,5.0;" x1="1294.5" x2="1294.5" y1="188.0137" y2="711.1895"/><line style="stroke:#181818;stroke-width:0.5;stroke-dasharray:5.0,5.0;" x1="1574" x2="1574" y1="83.6211" y2="711.1895"/><text fill="#000000" font-family="sans-serif" font-size="14" lengthAdjust="spacing" textLength="78" x="5" y="80.1074">Collaborator</text><ellipse cx="47" cy="13.5" fill="#E3E3E3" rx="8" ry="8" style="stroke:#181818;stroke-width:0.5;"/><path d="M47,21.5 L47,48.5 M34,29.5 L60,29.5 M47,48.5 L34,63.5 M47,48.5 L60,63.5 " fill="none" style="stroke:#181818;stroke-width:0.5;"/><text fill="#000000" font-family="sans-serif" font-size="14" lengthAdjust="spacing" textLength="78" x="5" y="725.2969">Collaborator</text><ellipse cx="47" cy="737.3105" fill="#E3E3E3" rx="8" ry="8" style="stroke:#181818;stroke-width:0.5;"/><path d="M47,745.3105 L47,772.3105 M34,753.3105 L60,753.3105 M47,772.3105 L34,787.3105 M47,772.3105 L60,787.3105 " fill="none" style="stroke:#181818;stroke-width:0.5;"/><rect fill="#E3E3E3" height="32.6211" rx="2.5" ry="2.5" style="stroke:#181818;stroke-width:0.5;" width="159" x="366.5" y="50"/><text fill="#000000" font-family="sans-serif" font-size="14" lengthAdjust="spacing" textLength="145" x="373.5" y="72.1074">:TasksBetweenDatesUI</text><rect fill="#E3E3E3" height="32.6211" rx="2.5" ry="2.5" style="stroke:#181818;stroke-width:0.5;" width="159" x="366.5" y="710.1895"/><text fill="#000000" font-family="sans-serif" font-size="14" lengthAdjust="spacing" textLength="145" x="373.5" y="732.2969">:TasksBetweenDatesUI</text><rect fill="#E3E3E3" height="32.6211" rx="2.5" ry="2.5" style="stroke:#181818;stroke-width:0.5;" width="209" x="612.5" y="50"/><text fill="#000000" font-family="sans-serif" font-size="14" lengthAdjust="spacing" textLength="195" x="619.5" y="72.1074">:TasksBetweenDatesController</text><rect fill="#E3E3E3" height="32.6211" rx="2.5" ry="2.5" style="stroke:#181818;stroke-width:0.5;" width="209" x="612.5" y="710.1895"/><text fill="#000000" font-family="sans-serif" font-size="14" lengthAdjust="spacing" textLength="195" x="619.5" y="732.2969">:TasksBetweenDatesController</text><rect fill="#E3E3E3" height="32.6211" rx="2.5" ry="2.5" style="stroke:#181818;stroke-width:0.5;" width="97" x="831.5" y="50"/><text fill="#000000" font-family="sans-serif" font-size="14" lengthAdjust="spacing" textLength="83" x="838.5" y="72.1074">:Repositories</text><rect fill="#E3E3E3" height="32.6211" rx="2.5" ry="2.5" style="stroke:#181818;stroke-width:0.5;" width="97" x="831.5" y="710.1895"/><text fill="#000000" font-family="sans-serif" font-size="14" lengthAdjust="spacing" textLength="83" x="838.5" y="732.2969">:Repositories</text><rect fill="#E3E3E3" height="51.2422" rx="2.5" ry="2.5" style="stroke:#181818;stroke-width:0.5;" width="97" x="938.5" y="31.3789"/><text fill="#000000" font-family="sans-serif" font-size="14" lengthAdjust="spacing" textLength="74" x="950" y="53.4863">repositories</text><text fill="#000000" font-family="sans-serif" font-size="14" lengthAdjust="spacing" textLength="83" x="945.5" y="72.1074">:Repositories</text><rect fill="#E3E3E3" height="51.2422" rx="2.5" ry="2.5" style="stroke:#181818;stroke-width:0.5;" width="97" x="938.5" y="710.1895"/><text fill="#000000" font-family="sans-serif" font-size="14" lengthAdjust="spacing" textLength="74" x="950" y="732.2969">repositories</text><text fill="#000000" font-family="sans-serif" font-size="14" lengthAdjust="spacing" textLength="83" x="945.5" y="750.918">:Repositories</text><rect fill="#E3E3E3" height="51.2422" rx="2.5" ry="2.5" style="stroke:#181818;stroke-width:0.5;" width="167" x="1045.5" y="31.3789"/><text fill="#000000" font-family="sans-serif" font-size="14" lengthAdjust="spacing" textLength="153" x="1052.5" y="53.4863">agendaEntryRepository:</text><text fill="#000000" font-family="sans-serif" font-size="14" lengthAdjust="spacing" textLength="150" x="1054" y="72.1074">AgendaEntryRepository</text><rect fill="#E3E3E3" height="51.2422" rx="2.5" ry="2.5" style="stroke:#181818;stroke-width:0.5;" width="167" x="1045.5" y="710.1895"/><text fill="#000000" font-family="sans-serif" font-size="14" lengthAdjust="spacing" textLength="153" x="1052.5" y="732.2969">agendaEntryRepository:</text><text fill="#000000" font-family="sans-serif" font-size="14" lengthAdjust="spacing" textLength="150" x="1054" y="750.918">AgendaEntryRepository</text><rect fill="#E3E3E3" height="32.6211" rx="2.5" ry="2.5" style="stroke:#181818;stroke-width:0.5;" width="144" x="1222.5" y="710.1895"/><text fill="#000000" font-family="sans-serif" font-size="14" lengthAdjust="spacing" textLength="130" x="1229.5" y="732.2969">AgendaEntryMapper</text><rect fill="#E3E3E3" height="32.6211" rx="2.5" ry="2.5" style="stroke:#181818;stroke-width:0.5;" width="179" x="1485" y="50"/><text fill="#000000" font-family="sans-serif" font-size="14" lengthAdjust="spacing" textLength="165" x="1492" y="72.1074">EntriesBetweenDatesDTO</text><rect fill="#E3E3E3" height="32.6211" rx="2.5" ry="2.5" style="stroke:#181818;stroke-width:0.5;" width="179" x="1485" y="710.1895"/><text fill="#000000" font-family="sans-serif" font-size="14" lengthAdjust="spacing" textLength="165" x="1492" y="732.2969">EntriesBetweenDatesDTO</text><rect fill="#FFFFFF" height="599.5684" style="stroke:#181818;stroke-width:1.0;" width="10" x="42" y="93.6211"/><rect fill="#FFFFFF" height="576.2773" style="stroke:#181818;stroke-width:1.0;" width="10" x="441" y="116.9121"/><rect fill="#FFFFFF" height="513.6953" style="stroke:#181818;stroke-width:1.0;" width="10" x="712" y="148.2031"/><rect fill="#FFFFFF" height="31.291" style="stroke:#181818;stroke-width:1.0;" width="10" x="875" y="285.6973"/><rect fill="#FFFFFF" height="31.291" style="stroke:#181818;stroke-width:1.0;" width="10" x="982" y="348.2793"/><rect fill="#FFFFFF" height="31.291" style="stroke:#181818;stroke-width:1.0;" width="10" x="1124" y="442.1523"/><rect fill="#FFFFFF" height="125.873" style="stroke:#181818;stroke-width:1.0;" width="10" x="1289.5" y="504.7344"/><rect fill="#FFFFFF" height="30" style="stroke:#181818;stroke-width:1.0;" width="10" x="1569.5" y="562.3164"/><polygon fill="#181818" points="429,112.9121,439,116.9121,429,120.9121,433,116.9121" style="stroke:#181818;stroke-width:1.0;"/><line style="stroke:#181818;stroke-width:1.0;" x1="52" x2="435" y1="116.9121" y2="116.9121"/><text fill="#000000" font-family="sans-serif" font-size="13" font-weight="bold" lengthAdjust="spacing" textLength="7" x="59" y="111.6494">1</text><text fill="#000000" font-family="sans-serif" font-size="13" lengthAdjust="spacing" textLength="359" x="70" y="111.6494">asks to consult the tasks assigned to him between two dates.</text><polygon fill="#181818" points="700,144.2031,710,148.2031,700,152.2031,704,148.2031" style="stroke:#181818;stroke-width:1.0;"/><line style="stroke:#181818;stroke-width:1.0;" x1="451" x2="706" y1="148.2031" y2="148.2031"/><text fill="#000000" font-family="sans-serif" font-size="13" font-weight="bold" lengthAdjust="spacing" textLength="7" x="458" y="142.9404">2</text><text fill="#000000" font-family="sans-serif" font-size="13" lengthAdjust="spacing" textLength="36" x="469" y="142.9404">create</text><polygon fill="#181818" points="1210.5,175.4941,1220.5,179.4941,1210.5,183.4941,1214.5,179.4941" style="stroke:#181818;stroke-width:1.0;"/><line style="stroke:#181818;stroke-width:1.0;" x1="722" x2="1216.5" y1="179.4941" y2="179.4941"/><text fill="#000000" font-family="sans-serif" font-size="13" font-weight="bold" lengthAdjust="spacing" textLength="7" x="729" y="174.2314">3</text><text fill="#000000" font-family="sans-serif" font-size="13" lengthAdjust="spacing" textLength="36" x="740" y="174.2314">create</text><rect fill="#E3E3E3" height="32.6211" rx="2.5" ry="2.5" style="stroke:#181818;stroke-width:0.5;" width="144" x="1222.5" y="156.2031"/><text fill="#000000" font-family="sans-serif" font-size="14" lengthAdjust="spacing" textLength="130" x="1229.5" y="178.3105">AgendaEntryMapper</text><polygon fill="#181818" points="63,219.1152,53,223.1152,63,227.1152,59,223.1152" style="stroke:#181818;stroke-width:1.0;"/><line style="stroke:#181818;stroke-width:1.0;stroke-dasharray:2.0,2.0;" x1="57" x2="440" y1="223.1152" y2="223.1152"/><text fill="#000000" font-family="sans-serif" font-size="13" font-weight="bold" lengthAdjust="spacing" textLength="7" x="69" y="217.8525">4</text><text fill="#000000" font-family="sans-serif" font-size="13" lengthAdjust="spacing" textLength="218" x="80" y="217.8525">asks for the dates he wants to search</text><polygon fill="#181818" points="429,250.4063,439,254.4063,429,258.4063,433,254.4063" style="stroke:#181818;stroke-width:1.0;"/><line style="stroke:#181818;stroke-width:1.0;" x1="52" x2="435" y1="254.4063" y2="254.4063"/><text fill="#000000" font-family="sans-serif" font-size="13" font-weight="bold" lengthAdjust="spacing" textLength="7" x="59" y="249.1436">5</text><text fill="#000000" font-family="sans-serif" font-size="13" lengthAdjust="spacing" textLength="131" x="70" y="249.1436">write the desired dates</text><polygon fill="#181818" points="863,281.6973,873,285.6973,863,289.6973,867,285.6973" style="stroke:#181818;stroke-width:1.0;"/><line style="stroke:#181818;stroke-width:1.0;" x1="722" x2="869" y1="285.6973" y2="285.6973"/><text fill="#000000" font-family="sans-serif" font-size="13" font-weight="bold" lengthAdjust="spacing" textLength="7" x="729" y="280.4346">6</text><text fill="#000000" font-family="sans-serif" font-size="13" lengthAdjust="spacing" textLength="75" x="740" y="280.4346">getInstance()</text><polygon fill="#181818" points="733,312.9883,723,316.9883,733,320.9883,729,316.9883" style="stroke:#181818;stroke-width:1.0;"/><line style="stroke:#181818;stroke-width:1.0;stroke-dasharray:2.0,2.0;" x1="727" x2="879" y1="316.9883" y2="316.9883"/><text fill="#000000" font-family="sans-serif" font-size="13" font-weight="bold" lengthAdjust="spacing" textLength="7" x="739" y="311.7256">7</text><text fill="#000000" font-family="sans-serif" font-size="13" lengthAdjust="spacing" textLength="67" x="750" y="311.7256">repositories</text><polygon fill="#181818" points="970,344.2793,980,348.2793,970,352.2793,974,348.2793" style="stroke:#181818;stroke-width:1.0;"/><line style="stroke:#181818;stroke-width:1.0;" x1="722" x2="976" y1="348.2793" y2="348.2793"/><text fill="#000000" font-family="sans-serif" font-size="13" font-weight="bold" lengthAdjust="spacing" textLength="7" x="729" y="343.0166">8</text><text fill="#000000" font-family="sans-serif" font-size="13" lengthAdjust="spacing" textLength="163" x="740" y="343.0166">getAgendaEntryRepository()</text><polygon fill="#181818" points="733,375.5703,723,379.5703,733,383.5703,729,379.5703" style="stroke:#181818;stroke-width:1.0;"/><line style="stroke:#181818;stroke-width:1.0;stroke-dasharray:2.0,2.0;" x1="727" x2="986" y1="379.5703" y2="379.5703"/><text fill="#000000" font-family="sans-serif" font-size="13" font-weight="bold" lengthAdjust="spacing" textLength="7" x="739" y="374.3076">9</text><text fill="#000000" font-family="sans-serif" font-size="13" lengthAdjust="spacing" textLength="137" x="750" y="374.3076">AgendaEntryRepository</text><polygon fill="#181818" points="700,406.8613,710,410.8613,700,414.8613,704,410.8613" style="stroke:#181818;stroke-width:1.0;"/><line style="stroke:#181818;stroke-width:1.0;" x1="451" x2="706" y1="410.8613" y2="410.8613"/><text fill="#000000" font-family="sans-serif" font-size="13" font-weight="bold" lengthAdjust="spacing" textLength="14" x="458" y="405.5986">10</text><text fill="#000000" font-family="sans-serif" font-size="13" lengthAdjust="spacing" textLength="219" x="476" y="405.5986">getEntriesBetweenDates(date1,date2)</text><polygon fill="#181818" points="1112,438.1523,1122,442.1523,1112,446.1523,1116,442.1523" style="stroke:#181818;stroke-width:1.0;"/><line style="stroke:#181818;stroke-width:1.0;" x1="722" x2="1118" y1="442.1523" y2="442.1523"/><text fill="#000000" font-family="sans-serif" font-size="13" font-weight="bold" lengthAdjust="spacing" textLength="14" x="729" y="436.8896">11</text><text fill="#000000" font-family="sans-serif" font-size="13" lengthAdjust="spacing" textLength="151" x="747" y="436.8896">getEntriesBetweenDates()</text><polygon fill="#181818" points="733,469.4434,723,473.4434,733,477.4434,729,473.4434" style="stroke:#181818;stroke-width:1.0;"/><line style="stroke:#181818;stroke-width:1.0;stroke-dasharray:2.0,2.0;" x1="727" x2="1128" y1="473.4434" y2="473.4434"/><text fill="#000000" font-family="sans-serif" font-size="13" font-weight="bold" lengthAdjust="spacing" textLength="14" x="739" y="468.1807">12</text><text fill="#000000" font-family="sans-serif" font-size="13" lengthAdjust="spacing" textLength="144" x="757" y="468.1807">entriesBetweenDatesList</text><polygon fill="#181818" points="1277.5,500.7344,1287.5,504.7344,1277.5,508.7344,1281.5,504.7344" style="stroke:#181818;stroke-width:1.0;"/><line style="stroke:#181818;stroke-width:1.0;" x1="722" x2="1283.5" y1="504.7344" y2="504.7344"/><text fill="#000000" font-family="sans-serif" font-size="13" font-weight="bold" lengthAdjust="spacing" textLength="14" x="729" y="499.4717">13</text><text fill="#000000" font-family="sans-serif" font-size="13" lengthAdjust="spacing" textLength="191" x="747" y="499.4717">toDTO(EntriesBetweenDatesList)</text><path d="M1212.5,519.7344 L1285.5,519.7344 L1285.5,529.0254 L1275.5,539.0254 L1212.5,539.0254 L1212.5,519.7344 " fill="#EEEEEE" style="stroke:#000000;stroke-width:1.5;"/><rect fill="none" height="80.582" style="stroke:#000000;stroke-width:1.5;" width="461.5" x="1212.5" y="519.7344"/><text fill="#000000" font-family="sans-serif" font-size="13" font-weight="bold" lengthAdjust="spacing" textLength="28" x="1227.5" y="534.7627">loop</text><text fill="#000000" font-family="sans-serif" font-size="11" font-weight="bold" lengthAdjust="spacing" textLength="280" x="1300.5" y="533.6045">[for each agendaEntry in EntriesBetweenDatesList]</text><polygon fill="#181818" points="1557.5,558.3164,1567.5,562.3164,1557.5,566.3164,1561.5,562.3164" style="stroke:#181818;stroke-width:1.0;"/><line style="stroke:#181818;stroke-width:1.0;" x1="1299.5" x2="1563.5" y1="562.3164" y2="562.3164"/><text fill="#000000" font-family="sans-serif" font-size="13" font-weight="bold" lengthAdjust="spacing" textLength="14" x="1306.5" y="557.0537">14</text><text fill="#000000" font-family="sans-serif" font-size="13" lengthAdjust="spacing" textLength="233" x="1324.5" y="557.0537">agendaEntryDTO = toDTO(agendaEntry)</text><polygon fill="#181818" points="733,626.6074,723,630.6074,733,634.6074,729,630.6074" style="stroke:#181818;stroke-width:1.0;"/><line style="stroke:#181818;stroke-width:1.0;stroke-dasharray:2.0,2.0;" x1="727" x2="1293.5" y1="630.6074" y2="630.6074"/><text fill="#000000" font-family="sans-serif" font-size="13" font-weight="bold" lengthAdjust="spacing" textLength="14" x="739" y="625.3447">15</text><text fill="#000000" font-family="sans-serif" font-size="13" lengthAdjust="spacing" textLength="191" x="757" y="625.3447">entriesBetweenDatesListListDTO</text><polygon fill="#181818" points="462,657.8984,452,661.8984,462,665.8984,458,661.8984" style="stroke:#181818;stroke-width:1.0;"/><line style="stroke:#181818;stroke-width:1.0;stroke-dasharray:2.0,2.0;" x1="456" x2="716" y1="661.8984" y2="661.8984"/><text fill="#000000" font-family="sans-serif" font-size="13" font-weight="bold" lengthAdjust="spacing" textLength="14" x="468" y="656.6357">16</text><text fill="#000000" font-family="sans-serif" font-size="13" lengthAdjust="spacing" textLength="172" x="486" y="656.6357">EntriesBetweenDatesListDTO</text><polygon fill="#181818" points="58,689.1895,48,693.1895,58,697.1895,54,693.1895" style="stroke:#181818;stroke-width:1.0;"/><line style="stroke:#181818;stroke-width:1.0;stroke-dasharray:2.0,2.0;" x1="52" x2="445" y1="693.1895" y2="693.1895"/><text fill="#000000" font-family="sans-serif" font-size="13" font-weight="bold" lengthAdjust="spacing" textLength="14" x="64" y="687.9268">17</text><text fill="#000000" font-family="sans-serif" font-size="13" lengthAdjust="spacing" textLength="271" x="82" y="687.9268">show the list of tasks between these two dates</text><!--SRC=[XLJ1Rk8m4BtxAqQSe5fMsZr6sfKez814jQkMtdenOI0MmOviin5_l-C9ZHtgg4X4YJtlpPld6RkJqesqyWndeqrPMND6yFQ2mlKxZInFyeYl_beZM2ozrCSw3N2Lt9jMwICSPErG27dnHb_EExJqNdfZOR8qTIrtnahwce1qi5Wz2u9xLQf6QW-JOYlToJsYRn7rIdfqRskEV5j_5RWqsbjAW1trSlkokOEyO6ESejmA7SVq2zTN5SeXmKE8JH3l-ZF1tyrYEqIGHteldqZADR8NxtgHM-z533cIs6VPD5JGS3_ia8Aq-DNspuHjLl_eatqLz83vRt8E2WXcWJTG6kqkjGTVqGdpedHE7JNkmswbph3hMC6t1lQ1-dkafKCGH4UamLsYBItIUWnWq_b9CPaw7XuYQ8yzB5Sn9oAMKCLD_u5wA0XdMK0lBTd1PJcKjgm65RTM4JE7erEM2cIO42oTeZA7Jx0Z-hLsrDqbJcUni5odY1p3_6PE0MdlfCLcgJv4XORgL6GR9fN4lISO49DcKMds3ZKuH4gMwQXfiEl7j_3yEHkwDewvSwopg9S71Nx6R9Jpz_R4T9dEAEZ0gTsdJtckH4AshMfZ6kuaIbb1CgwWD8nm2g1VXeqLZanZQDe8e1NuTHEUBC-OEGeUc-mGbSxBM1mH2v4L6ezxv0p2dpY-6aleQEOVOpRYM622v9UmyXqnd6vNcPP7jIOecCFjQkgleWeTnWifbHXkfEGpt7l_0G00]--></g></svg>