<?xml version="1.0" encoding="us-ascii" standalone="no"?><svg xmlns="http://www.w3.org/2000/svg" xmlns:xlink="http://www.w3.org/1999/xlink" contentStyleType="text/css" height="384px" preserveAspectRatio="none" style="width:1085px;height:384px;background:#FFFFFF;" version="1.1" viewBox="0 0 1085 384" width="1085px" zoomAndPan="magnify"><defs/><g><rect fill="#FFFFFF" height="252.0371" style="stroke:#181818;stroke-width:1.0;" width="10" x="79.5" y="67.2422"/><rect fill="#FFFFFF" height="219.7461" style="stroke:#181818;stroke-width:1.0;" width="10" x="338.5" y="90.5332"/><rect fill="#FFFFFF" height="31.291" style="stroke:#181818;stroke-width:1.0;" width="10" x="536.5" y="121.8242"/><rect fill="#FFFFFF" height="125.873" style="stroke:#181818;stroke-width:1.0;" width="10" x="702" y="184.4063"/><rect fill="#FFFFFF" height="30" style="stroke:#181818;stroke-width:1.0;" width="10" x="975" y="241.9883"/><rect fill="none" height="80.582" style="stroke:#000000;stroke-width:1.5;" width="454.5" x="625" y="199.4063"/><line style="stroke:#181818;stroke-width:0.5;stroke-dasharray:5.0,5.0;" x1="84" x2="84" y1="57.2422" y2="328.2793"/><line style="stroke:#181818;stroke-width:0.5;stroke-dasharray:5.0,5.0;" x1="343" x2="343" y1="57.2422" y2="328.2793"/><line style="stroke:#181818;stroke-width:0.5;stroke-dasharray:5.0,5.0;" x1="541" x2="541" y1="57.2422" y2="328.2793"/><line style="stroke:#181818;stroke-width:0.5;stroke-dasharray:5.0,5.0;" x1="707" x2="707" y1="57.2422" y2="328.2793"/><line style="stroke:#181818;stroke-width:0.5;stroke-dasharray:5.0,5.0;" x1="979.5" x2="979.5" y1="57.2422" y2="328.2793"/><rect fill="#E3E3E3" height="32.6211" rx="2.5" ry="2.5" style="stroke:#181818;stroke-width:0.5;" width="159" x="5" y="23.6211"/><text fill="#000000" font-family="sans-serif" font-size="14" lengthAdjust="spacing" textLength="145" x="12" y="45.7285">:TasksBetweenDatesUI</text><rect fill="#E3E3E3" height="32.6211" rx="2.5" ry="2.5" style="stroke:#181818;stroke-width:0.5;" width="159" x="5" y="327.2793"/><text fill="#000000" font-family="sans-serif" font-size="14" lengthAdjust="spacing" textLength="145" x="12" y="349.3867">:TasksBetweenDatesUI</text><rect fill="#E3E3E3" height="32.6211" rx="2.5" ry="2.5" style="stroke:#181818;stroke-width:0.5;" width="209" x="239" y="23.6211"/><text fill="#000000" font-family="sans-serif" font-size="14" lengthAdjust="spacing" textLength="195" x="246" y="45.7285">:TasksBetweenDatesController</text><rect fill="#E3E3E3" height="32.6211" rx="2.5" ry="2.5" style="stroke:#181818;stroke-width:0.5;" width="209" x="239" y="327.2793"/><text fill="#000000" font-family="sans-serif" font-size="14" lengthAdjust="spacing" textLength="195" x="246" y="349.3867">:TasksBetweenDatesController</text><rect fill="#E3E3E3" height="51.2422" rx="2.5" ry="2.5" style="stroke:#181818;stroke-width:0.5;" width="167" x="458" y="5"/><text fill="#000000" font-family="sans-serif" font-size="14" lengthAdjust="spacing" textLength="153" x="465" y="27.1074">agendaEntryRepository:</text><text fill="#000000" font-family="sans-serif" font-size="14" lengthAdjust="spacing" textLength="150" x="466.5" y="45.7285">AgendaEntryRepository</text><rect fill="#E3E3E3" height="51.2422" rx="2.5" ry="2.5" style="stroke:#181818;stroke-width:0.5;" width="167" x="458" y="327.2793"/><text fill="#000000" font-family="sans-serif" font-size="14" lengthAdjust="spacing" textLength="153" x="465" y="349.3867">agendaEntryRepository:</text><text fill="#000000" font-family="sans-serif" font-size="14" lengthAdjust="spacing" textLength="150" x="466.5" y="368.0078">AgendaEntryRepository</text><rect fill="#E3E3E3" height="32.6211" rx="2.5" ry="2.5" style="stroke:#181818;stroke-width:0.5;" width="144" x="635" y="23.6211"/><text fill="#000000" font-family="sans-serif" font-size="14" lengthAdjust="spacing" textLength="130" x="642" y="45.7285">AgendaEntryMapper</text><rect fill="#E3E3E3" height="32.6211" rx="2.5" ry="2.5" style="stroke:#181818;stroke-width:0.5;" width="144" x="635" y="327.2793"/><text fill="#000000" font-family="sans-serif" font-size="14" lengthAdjust="spacing" textLength="130" x="642" y="349.3867">AgendaEntryMapper</text><rect fill="#E3E3E3" height="32.6211" rx="2.5" ry="2.5" style="stroke:#181818;stroke-width:0.5;" width="179" x="890.5" y="23.6211"/><text fill="#000000" font-family="sans-serif" font-size="14" lengthAdjust="spacing" textLength="165" x="897.5" y="45.7285">EntriesBetweenDatesDTO</text><rect fill="#E3E3E3" height="32.6211" rx="2.5" ry="2.5" style="stroke:#181818;stroke-width:0.5;" width="179" x="890.5" y="327.2793"/><text fill="#000000" font-family="sans-serif" font-size="14" lengthAdjust="spacing" textLength="165" x="897.5" y="349.3867">EntriesBetweenDatesDTO</text><rect fill="#FFFFFF" height="252.0371" style="stroke:#181818;stroke-width:1.0;" width="10" x="79.5" y="67.2422"/><rect fill="#FFFFFF" height="219.7461" style="stroke:#181818;stroke-width:1.0;" width="10" x="338.5" y="90.5332"/><rect fill="#FFFFFF" height="31.291" style="stroke:#181818;stroke-width:1.0;" width="10" x="536.5" y="121.8242"/><rect fill="#FFFFFF" height="125.873" style="stroke:#181818;stroke-width:1.0;" width="10" x="702" y="184.4063"/><rect fill="#FFFFFF" height="30" style="stroke:#181818;stroke-width:1.0;" width="10" x="975" y="241.9883"/><polygon fill="#181818" points="326.5,86.5332,336.5,90.5332,326.5,94.5332,330.5,90.5332" style="stroke:#181818;stroke-width:1.0;"/><line style="stroke:#181818;stroke-width:1.0;" x1="89.5" x2="332.5" y1="90.5332" y2="90.5332"/><text fill="#000000" font-family="sans-serif" font-size="13" font-weight="bold" lengthAdjust="spacing" textLength="7" x="96.5" y="85.2705">1</text><text fill="#000000" font-family="sans-serif" font-size="13" lengthAdjust="spacing" textLength="219" x="107.5" y="85.2705">getEntriesBetweenDates(date1,date2)</text><polygon fill="#181818" points="524.5,117.8242,534.5,121.8242,524.5,125.8242,528.5,121.8242" style="stroke:#181818;stroke-width:1.0;"/><line style="stroke:#181818;stroke-width:1.0;" x1="348.5" x2="530.5" y1="121.8242" y2="121.8242"/><text fill="#000000" font-family="sans-serif" font-size="13" font-weight="bold" lengthAdjust="spacing" textLength="7" x="355.5" y="116.5615">2</text><text fill="#000000" font-family="sans-serif" font-size="13" lengthAdjust="spacing" textLength="155" x="366.5" y="116.5615">getEntriesBetweenDates ()</text><polygon fill="#181818" points="359.5,149.1152,349.5,153.1152,359.5,157.1152,355.5,153.1152" style="stroke:#181818;stroke-width:1.0;"/><line style="stroke:#181818;stroke-width:1.0;stroke-dasharray:2.0,2.0;" x1="353.5" x2="540.5" y1="153.1152" y2="153.1152"/><text fill="#000000" font-family="sans-serif" font-size="13" font-weight="bold" lengthAdjust="spacing" textLength="7" x="365.5" y="147.8525">3</text><text fill="#000000" font-family="sans-serif" font-size="13" lengthAdjust="spacing" textLength="144" x="376.5" y="147.8525">entriesBetweenDatesList</text><polygon fill="#181818" points="690,180.4063,700,184.4063,690,188.4063,694,184.4063" style="stroke:#181818;stroke-width:1.0;"/><line style="stroke:#181818;stroke-width:1.0;" x1="348.5" x2="696" y1="184.4063" y2="184.4063"/><text fill="#000000" font-family="sans-serif" font-size="13" font-weight="bold" lengthAdjust="spacing" textLength="7" x="355.5" y="179.1436">4</text><text fill="#000000" font-family="sans-serif" font-size="13" lengthAdjust="spacing" textLength="189" x="366.5" y="179.1436">toDTO(entriesBetweenDatesList)</text><path d="M625,199.4063 L698,199.4063 L698,208.6973 L688,218.6973 L625,218.6973 L625,199.4063 " fill="#EEEEEE" style="stroke:#000000;stroke-width:1.5;"/><rect fill="none" height="80.582" style="stroke:#000000;stroke-width:1.5;" width="454.5" x="625" y="199.4063"/><text fill="#000000" font-family="sans-serif" font-size="13" font-weight="bold" lengthAdjust="spacing" textLength="28" x="640" y="214.4346">loop</text><text fill="#000000" font-family="sans-serif" font-size="11" font-weight="bold" lengthAdjust="spacing" textLength="281" x="713" y="213.2764">[for each agendaEntry in entriesBetweenDatesList]</text><polygon fill="#181818" points="963,237.9883,973,241.9883,963,245.9883,967,241.9883" style="stroke:#181818;stroke-width:1.0;"/><line style="stroke:#181818;stroke-width:1.0;" x1="712" x2="969" y1="241.9883" y2="241.9883"/><text fill="#000000" font-family="sans-serif" font-size="13" font-weight="bold" lengthAdjust="spacing" textLength="7" x="719" y="236.7256">5</text><text fill="#000000" font-family="sans-serif" font-size="13" lengthAdjust="spacing" textLength="233" x="730" y="236.7256">agendaEntryDTO = toDTO(agendaEntry)</text><polygon fill="#181818" points="354.5,306.2793,344.5,310.2793,354.5,314.2793,350.5,310.2793" style="stroke:#181818;stroke-width:1.0;"/><line style="stroke:#181818;stroke-width:1.0;stroke-dasharray:2.0,2.0;" x1="348.5" x2="706" y1="310.2793" y2="310.2793"/><text fill="#000000" font-family="sans-serif" font-size="13" font-weight="bold" lengthAdjust="spacing" textLength="7" x="360.5" y="305.0166">6</text><text fill="#000000" font-family="sans-serif" font-size="13" lengthAdjust="spacing" textLength="170" x="371.5" y="305.0166">entriesBetweenDatesListDTO</text><!--SRC=[XL71JiCm3BtdAwoTDeaTu5W99DWuJ1f26jkDYsczDbgRH8d7jB_7YO2bq6evH8hztlDxSJXeuz1Z1vqrjcoyxGZO7qc5tux3ye0rlV6v9V1KCfgwpG6XmSgUjAbXZsqWfV38rXox3_9A2OHrgHqQXacnnN08JyGd8hD4fh1RJG03x5RNW0jhsDks9Py8Y-rctQU8HLFXiw3E6t8sQBR-NBoRnw5wqeZFlaQ6VK7dP5Q_7pkQUhwMszU992vPVyep1b6x5SmVaaCee2OUO4qhkMzludqtkx1JAfMOeX3zZIh0DEEb92hXvvVHz9-rre5LHN-8FmC7yXV0LY9EHxGo3qEVfrfh7Uoj1ndPGBOYq6RK7yWPK4iEHpOWQJDngS3zj_6iF4lA5yDZsuoex8z6SIAirA3HgpiGVhw6mR_B-b7i2m00]--></g></svg>