<?xml version="1.0" encoding="us-ascii" standalone="no"?><svg xmlns="http://www.w3.org/2000/svg" xmlns:xlink="http://www.w3.org/1999/xlink" contentStyleType="text/css" height="684px" preserveAspectRatio="none" style="width:1073px;height:684px;background:#FFFFFF;" version="1.1" viewBox="0 0 1073 684" width="1073.6px" zoomAndPan="magnify"><defs/><g><text fill="#000000" font-family="sans-serif" font-size="11.2" font-weight="bold" lengthAdjust="spacing" textLength="79.2" x="491.6" y="20.0859">Class Diagram</text><!--class ToDoEntry--><g id="elem_ToDoEntry"><rect codeLine="8" fill="#F1F1F1" height="112.8844" id="ToDoEntry" rx="2" ry="2" style="stroke:#181818;stroke-width:0.4000000000000001;" width="98.4" x="969.6" y="220.8969"/><ellipse cx="989.88" cy="233.6969" fill="#ADD1B2" rx="8.8" ry="8.8" style="stroke:#181818;stroke-width:0.8000000000000002;"/><path d="M992.0925,230.3969 Q992.2175,230.2219 992.3675,230.1344 Q992.5175,230.0469 992.6925,230.0469 Q992.9925,230.0469 993.18,230.2594 Q993.3675,230.4594 993.3675,230.9469 L993.3675,232.1094 Q993.3675,232.5969 993.18,232.8094 Q992.9925,233.0219 992.6925,233.0219 Q992.4175,233.0219 992.255,232.8594 Q992.0925,232.7094 992.005,232.2969 Q991.9675,232.0094 991.8175,231.8594 Q991.555,231.5594 991.0675,231.3844 Q990.58,231.2094 990.08,231.2094 Q989.4675,231.2094 988.955,231.4719 Q988.455,231.7344 988.055,232.3344 Q987.6675,232.9344 987.6675,233.7594 L987.6675,234.6344 Q987.6675,235.6219 988.38,236.2844 Q989.0925,236.9344 990.3675,236.9344 Q991.1175,236.9344 991.6425,236.7344 Q991.955,236.6094 992.2925,236.2594 Q992.505,236.0469 992.6175,235.9844 Q992.7425,235.9219 992.905,235.9219 Q993.1675,235.9219 993.3675,236.1344 Q993.58,236.3344 993.58,236.6094 Q993.58,236.8844 993.305,237.2094 Q992.905,237.6719 992.2675,237.9344 Q991.405,238.2969 990.3675,238.2969 Q989.155,238.2969 988.1925,237.7969 Q987.405,237.3969 986.855,236.5469 Q986.305,235.6844 986.305,234.6594 L986.305,233.7344 Q986.305,232.6719 986.7925,231.7594 Q987.2925,230.8344 988.1675,230.3469 Q989.0425,229.8469 990.03,229.8469 Q990.6175,229.8469 991.13,229.9844 Q991.655,230.1094 992.0925,230.3969 Z " fill="#000000"/><text fill="#000000" font-family="sans-serif" font-size="11.2" lengthAdjust="spacing" textLength="54.4" x="1002.92" y="238.3344">ToDoEntry</text><line style="stroke:#181818;stroke-width:0.4000000000000001;" x1="970.4" x2="1067.2" y1="246.4969" y2="246.4969"/><text fill="#000000" font-family="sans-serif" font-size="11.2" lengthAdjust="spacing" textLength="61.6" x="974.4" y="261.7828">greenSpace</text><text fill="#000000" font-family="sans-serif" font-size="11.2" lengthAdjust="spacing" textLength="55.2" x="974.4" y="276.6797">description</text><text fill="#000000" font-family="sans-serif" font-size="11.2" lengthAdjust="spacing" textLength="78.4" x="974.4" y="291.5766">urgencyDegree</text><text fill="#000000" font-family="sans-serif" font-size="11.2" lengthAdjust="spacing" textLength="30.4" x="974.4" y="306.4734">status</text><text fill="#000000" font-family="sans-serif" font-size="11.2" lengthAdjust="spacing" textLength="88.8" x="974.4" y="321.3703">expectedDuration</text><line style="stroke:#181818;stroke-width:0.4000000000000001;" x1="970.4" x2="1067.2" y1="327.3813" y2="327.3813"/></g><!--class AgendaEntry--><g id="elem_AgendaEntry"><rect codeLine="16" fill="#F1F1F1" height="83.0906" id="AgendaEntry" rx="2" ry="2" style="stroke:#181818;stroke-width:0.4000000000000001;" width="106.4" x="914.4" y="426.8969"/><ellipse cx="933.24" cy="439.6969" fill="#ADD1B2" rx="8.8" ry="8.8" style="stroke:#181818;stroke-width:0.8000000000000002;"/><path d="M935.4525,436.3969 Q935.5775,436.2219 935.7275,436.1344 Q935.8775,436.0469 936.0525,436.0469 Q936.3525,436.0469 936.54,436.2594 Q936.7275,436.4594 936.7275,436.9469 L936.7275,438.1094 Q936.7275,438.5969 936.54,438.8094 Q936.3525,439.0219 936.0525,439.0219 Q935.7775,439.0219 935.615,438.8594 Q935.4525,438.7094 935.365,438.2969 Q935.3275,438.0094 935.1775,437.8594 Q934.915,437.5594 934.4275,437.3844 Q933.94,437.2094 933.44,437.2094 Q932.8275,437.2094 932.315,437.4719 Q931.815,437.7344 931.415,438.3344 Q931.0275,438.9344 931.0275,439.7594 L931.0275,440.6344 Q931.0275,441.6219 931.74,442.2844 Q932.4525,442.9344 933.7275,442.9344 Q934.4775,442.9344 935.0025,442.7344 Q935.315,442.6094 935.6525,442.2594 Q935.865,442.0469 935.9775,441.9844 Q936.1025,441.9219 936.265,441.9219 Q936.5275,441.9219 936.7275,442.1344 Q936.94,442.3344 936.94,442.6094 Q936.94,442.8844 936.665,443.2094 Q936.265,443.6719 935.6275,443.9344 Q934.765,444.2969 933.7275,444.2969 Q932.515,444.2969 931.5525,443.7969 Q930.765,443.3969 930.215,442.5469 Q929.665,441.6844 929.665,440.6594 L929.665,439.7344 Q929.665,438.6719 930.1525,437.7594 Q930.6525,436.8344 931.5275,436.3469 Q932.4025,435.8469 933.39,435.8469 Q933.9775,435.8469 934.49,435.9844 Q935.015,436.1094 935.4525,436.3969 Z " fill="#000000"/><text fill="#000000" font-family="sans-serif" font-size="11.2" lengthAdjust="spacing" textLength="65.6" x="945.96" y="444.3344">AgendaEntry</text><line style="stroke:#181818;stroke-width:0.4000000000000001;" x1="915.2" x2="1020" y1="452.4969" y2="452.4969"/><text fill="#000000" font-family="sans-serif" font-size="11.2" lengthAdjust="spacing" textLength="22.4" x="919.2" y="467.7828">date</text><text fill="#000000" font-family="sans-serif" font-size="11.2" lengthAdjust="spacing" textLength="83.2" x="919.2" y="482.6797">associatedTeam</text><text fill="#000000" font-family="sans-serif" font-size="11.2" lengthAdjust="spacing" textLength="96.8" x="919.2" y="497.5766">associatedVehicles</text><line style="stroke:#181818;stroke-width:0.4000000000000001;" x1="915.2" x2="1020" y1="503.5875" y2="503.5875"/></g><!--class AgendaEntryDTO--><g id="elem_AgendaEntryDTO"><rect codeLine="22" fill="#F1F1F1" height="97.9875" id="AgendaEntryDTO" rx="2" ry="2" style="stroke:#181818;stroke-width:0.4000000000000001;" width="115.2" x="636.4" y="44.8969"/><ellipse cx="648.4" cy="57.6969" fill="#ADD1B2" rx="8.8" ry="8.8" style="stroke:#181818;stroke-width:0.8000000000000002;"/><path d="M650.6125,54.3969 Q650.7375,54.2219 650.8875,54.1344 Q651.0375,54.0469 651.2125,54.0469 Q651.5125,54.0469 651.7,54.2594 Q651.8875,54.4594 651.8875,54.9469 L651.8875,56.1094 Q651.8875,56.5969 651.7,56.8094 Q651.5125,57.0219 651.2125,57.0219 Q650.9375,57.0219 650.775,56.8594 Q650.6125,56.7094 650.525,56.2969 Q650.4875,56.0094 650.3375,55.8594 Q650.075,55.5594 649.5875,55.3844 Q649.1,55.2094 648.6,55.2094 Q647.9875,55.2094 647.475,55.4719 Q646.975,55.7344 646.575,56.3344 Q646.1875,56.9344 646.1875,57.7594 L646.1875,58.6344 Q646.1875,59.6219 646.9,60.2844 Q647.6125,60.9344 648.8875,60.9344 Q649.6375,60.9344 650.1625,60.7344 Q650.475,60.6094 650.8125,60.2594 Q651.025,60.0469 651.1375,59.9844 Q651.2625,59.9219 651.425,59.9219 Q651.6875,59.9219 651.8875,60.1344 Q652.1,60.3344 652.1,60.6094 Q652.1,60.8844 651.825,61.2094 Q651.425,61.6719 650.7875,61.9344 Q649.925,62.2969 648.8875,62.2969 Q647.675,62.2969 646.7125,61.7969 Q645.925,61.3969 645.375,60.5469 Q644.825,59.6844 644.825,58.6594 L644.825,57.7344 Q644.825,56.6719 645.3125,55.7594 Q645.8125,54.8344 646.6875,54.3469 Q647.5625,53.8469 648.55,53.8469 Q649.1375,53.8469 649.65,53.9844 Q650.175,54.1094 650.6125,54.3969 Z " fill="#000000"/><text fill="#000000" font-family="sans-serif" font-size="11.2" lengthAdjust="spacing" textLength="89.6" x="659.6" y="62.3344">AgendaEntryDTO</text><line style="stroke:#181818;stroke-width:0.4000000000000001;" x1="637.2" x2="750.8" y1="70.4969" y2="70.4969"/><text fill="#000000" font-family="sans-serif" font-size="11.2" lengthAdjust="spacing" textLength="36" x="641.2" y="85.7828">entryID</text><text fill="#000000" font-family="sans-serif" font-size="11.2" lengthAdjust="spacing" textLength="55.2" x="641.2" y="100.6797">description</text><text fill="#000000" font-family="sans-serif" font-size="11.2" lengthAdjust="spacing" textLength="64.8" x="641.2" y="115.5766">plannedDate</text><text fill="#000000" font-family="sans-serif" font-size="11.2" lengthAdjust="spacing" textLength="30.4" x="641.2" y="130.4734">status</text><line style="stroke:#181818;stroke-width:0.4000000000000001;" x1="637.2" x2="750.8" y1="136.4844" y2="136.4844"/></g><!--class SystemUser--><g id="elem_SystemUser"><rect codeLine="29" fill="#F1F1F1" height="97.9875" id="SystemUser" rx="2" ry="2" style="stroke:#181818;stroke-width:0.4000000000000001;" width="85.6" x="5.6" y="44.8969"/><ellipse cx="17.6" cy="57.6969" fill="#ADD1B2" rx="8.8" ry="8.8" style="stroke:#181818;stroke-width:0.8000000000000002;"/><path d="M19.8125,54.3969 Q19.9375,54.2219 20.0875,54.1344 Q20.2375,54.0469 20.4125,54.0469 Q20.7125,54.0469 20.9,54.2594 Q21.0875,54.4594 21.0875,54.9469 L21.0875,56.1094 Q21.0875,56.5969 20.9,56.8094 Q20.7125,57.0219 20.4125,57.0219 Q20.1375,57.0219 19.975,56.8594 Q19.8125,56.7094 19.725,56.2969 Q19.6875,56.0094 19.5375,55.8594 Q19.275,55.5594 18.7875,55.3844 Q18.3,55.2094 17.8,55.2094 Q17.1875,55.2094 16.675,55.4719 Q16.175,55.7344 15.775,56.3344 Q15.3875,56.9344 15.3875,57.7594 L15.3875,58.6344 Q15.3875,59.6219 16.1,60.2844 Q16.8125,60.9344 18.0875,60.9344 Q18.8375,60.9344 19.3625,60.7344 Q19.675,60.6094 20.0125,60.2594 Q20.225,60.0469 20.3375,59.9844 Q20.4625,59.9219 20.625,59.9219 Q20.8875,59.9219 21.0875,60.1344 Q21.3,60.3344 21.3,60.6094 Q21.3,60.8844 21.025,61.2094 Q20.625,61.6719 19.9875,61.9344 Q19.125,62.2969 18.0875,62.2969 Q16.875,62.2969 15.9125,61.7969 Q15.125,61.3969 14.575,60.5469 Q14.025,59.6844 14.025,58.6594 L14.025,57.7344 Q14.025,56.6719 14.5125,55.7594 Q15.0125,54.8344 15.8875,54.3469 Q16.7625,53.8469 17.75,53.8469 Q18.3375,53.8469 18.85,53.9844 Q19.375,54.1094 19.8125,54.3969 Z " fill="#000000"/><text fill="#000000" font-family="sans-serif" font-size="11.2" lengthAdjust="spacing" textLength="60" x="28.8" y="62.3344">SystemUser</text><line style="stroke:#181818;stroke-width:0.4000000000000001;" x1="6.4" x2="90.4" y1="70.4969" y2="70.4969"/><text fill="#000000" font-family="sans-serif" font-size="11.2" lengthAdjust="spacing" textLength="28" x="10.4" y="85.7828">name</text><text fill="#000000" font-family="sans-serif" font-size="11.2" lengthAdjust="spacing" textLength="26.4" x="10.4" y="100.6797">email</text><text fill="#000000" font-family="sans-serif" font-size="11.2" lengthAdjust="spacing" textLength="48" x="10.4" y="115.5766">password</text><text fill="#000000" font-family="sans-serif" font-size="11.2" lengthAdjust="spacing" textLength="32" x="10.4" y="130.4734">phone</text><line style="stroke:#181818;stroke-width:0.4000000000000001;" x1="6.4" x2="90.4" y1="136.4844" y2="136.4844"/></g><!--class ToDoEntryDTO--><g id="elem_ToDoEntryDTO"><rect codeLine="36" fill="#F1F1F1" height="112.8844" id="ToDoEntryDTO" rx="2" ry="2" style="stroke:#181818;stroke-width:0.4000000000000001;" width="104" x="830" y="37.2969"/><ellipse cx="842" cy="50.0969" fill="#ADD1B2" rx="8.8" ry="8.8" style="stroke:#181818;stroke-width:0.8000000000000002;"/><path d="M844.2125,46.7969 Q844.3375,46.6219 844.4875,46.5344 Q844.6375,46.4469 844.8125,46.4469 Q845.1125,46.4469 845.3,46.6594 Q845.4875,46.8594 845.4875,47.3469 L845.4875,48.5094 Q845.4875,48.9969 845.3,49.2094 Q845.1125,49.4219 844.8125,49.4219 Q844.5375,49.4219 844.375,49.2594 Q844.2125,49.1094 844.125,48.6969 Q844.0875,48.4094 843.9375,48.2594 Q843.675,47.9594 843.1875,47.7844 Q842.7,47.6094 842.2,47.6094 Q841.5875,47.6094 841.075,47.8719 Q840.575,48.1344 840.175,48.7344 Q839.7875,49.3344 839.7875,50.1594 L839.7875,51.0344 Q839.7875,52.0219 840.5,52.6844 Q841.2125,53.3344 842.4875,53.3344 Q843.2375,53.3344 843.7625,53.1344 Q844.075,53.0094 844.4125,52.6594 Q844.625,52.4469 844.7375,52.3844 Q844.8625,52.3219 845.025,52.3219 Q845.2875,52.3219 845.4875,52.5344 Q845.7,52.7344 845.7,53.0094 Q845.7,53.2844 845.425,53.6094 Q845.025,54.0719 844.3875,54.3344 Q843.525,54.6969 842.4875,54.6969 Q841.275,54.6969 840.3125,54.1969 Q839.525,53.7969 838.975,52.9469 Q838.425,52.0844 838.425,51.0594 L838.425,50.1344 Q838.425,49.0719 838.9125,48.1594 Q839.4125,47.2344 840.2875,46.7469 Q841.1625,46.2469 842.15,46.2469 Q842.7375,46.2469 843.25,46.3844 Q843.775,46.5094 844.2125,46.7969 Z " fill="#000000"/><text fill="#000000" font-family="sans-serif" font-size="11.2" lengthAdjust="spacing" textLength="78.4" x="853.2" y="54.7344">ToDoEntryDTO</text><line style="stroke:#181818;stroke-width:0.4000000000000001;" x1="830.8" x2="933.2" y1="62.8969" y2="62.8969"/><text fill="#000000" font-family="sans-serif" font-size="11.2" lengthAdjust="spacing" textLength="61.6" x="834.8" y="78.1828">greenSpace</text><text fill="#000000" font-family="sans-serif" font-size="11.2" lengthAdjust="spacing" textLength="55.2" x="834.8" y="93.0797">description</text><text fill="#000000" font-family="sans-serif" font-size="11.2" lengthAdjust="spacing" textLength="78.4" x="834.8" y="107.9766">urgencyDegree</text><text fill="#000000" font-family="sans-serif" font-size="11.2" lengthAdjust="spacing" textLength="30.4" x="834.8" y="122.8734">status</text><text fill="#000000" font-family="sans-serif" font-size="11.2" lengthAdjust="spacing" textLength="88.8" x="834.8" y="137.7703">expectedDuration</text><line style="stroke:#181818;stroke-width:0.4000000000000001;" x1="830.8" x2="933.2" y1="143.7813" y2="143.7813"/></g><!--class ToDoEntryRepository--><g id="elem_ToDoEntryRepository"><rect codeLine="44" fill="#F1F1F1" height="68.1938" id="ToDoEntryRepository" rx="2" ry="2" style="stroke:#181818;stroke-width:0.4000000000000001;" width="188" x="352" y="603.2969"/><ellipse cx="388.2" cy="616.0969" fill="#ADD1B2" rx="8.8" ry="8.8" style="stroke:#181818;stroke-width:0.8000000000000002;"/><path d="M390.4125,612.7969 Q390.5375,612.6219 390.6875,612.5344 Q390.8375,612.4469 391.0125,612.4469 Q391.3125,612.4469 391.5,612.6594 Q391.6875,612.8594 391.6875,613.3469 L391.6875,614.5094 Q391.6875,614.9969 391.5,615.2094 Q391.3125,615.4219 391.0125,615.4219 Q390.7375,615.4219 390.575,615.2594 Q390.4125,615.1094 390.325,614.6969 Q390.2875,614.4094 390.1375,614.2594 Q389.875,613.9594 389.3875,613.7844 Q388.9,613.6094 388.4,613.6094 Q387.7875,613.6094 387.275,613.8719 Q386.775,614.1344 386.375,614.7344 Q385.9875,615.3344 385.9875,616.1594 L385.9875,617.0344 Q385.9875,618.0219 386.7,618.6844 Q387.4125,619.3344 388.6875,619.3344 Q389.4375,619.3344 389.9625,619.1344 Q390.275,619.0094 390.6125,618.6594 Q390.825,618.4469 390.9375,618.3844 Q391.0625,618.3219 391.225,618.3219 Q391.4875,618.3219 391.6875,618.5344 Q391.9,618.7344 391.9,619.0094 Q391.9,619.2844 391.625,619.6094 Q391.225,620.0719 390.5875,620.3344 Q389.725,620.6969 388.6875,620.6969 Q387.475,620.6969 386.5125,620.1969 Q385.725,619.7969 385.175,618.9469 Q384.625,618.0844 384.625,617.0594 L384.625,616.1344 Q384.625,615.0719 385.1125,614.1594 Q385.6125,613.2344 386.4875,612.7469 Q387.3625,612.2469 388.35,612.2469 Q388.9375,612.2469 389.45,612.3844 Q389.975,612.5094 390.4125,612.7969 Z " fill="#000000"/><text fill="#000000" font-family="sans-serif" font-size="11.2" lengthAdjust="spacing" textLength="108.8" x="404.6" y="620.7344">ToDoEntryRepository</text><line style="stroke:#181818;stroke-width:0.4000000000000001;" x1="352.8" x2="539.2" y1="628.8969" y2="628.8969"/><text fill="#000000" font-family="sans-serif" font-size="11.2" lengthAdjust="spacing" textLength="178.4" x="356.8" y="644.1828">-ArrayList&lt;ToDoEntry&gt; toDoEntries</text><line style="stroke:#181818;stroke-width:0.4000000000000001;" x1="352.8" x2="539.2" y1="650.1938" y2="650.1938"/><text fill="#000000" font-family="sans-serif" font-size="11.2" lengthAdjust="spacing" textLength="158.4" x="356.8" y="665.4797">+getToDoEntriesNotInAgenda()</text></g><!--class AgendaEntryRepository--><g id="elem_AgendaEntryRepository"><rect codeLine="49" fill="#F1F1F1" height="83.0906" id="AgendaEntryRepository" rx="2" ry="2" style="stroke:#181818;stroke-width:0.4000000000000001;" width="213.6" x="616.8" y="595.6969"/><ellipse cx="660.2" cy="608.4969" fill="#ADD1B2" rx="8.8" ry="8.8" style="stroke:#181818;stroke-width:0.8000000000000002;"/><path d="M662.4125,605.1969 Q662.5375,605.0219 662.6875,604.9344 Q662.8375,604.8469 663.0125,604.8469 Q663.3125,604.8469 663.5,605.0594 Q663.6875,605.2594 663.6875,605.7469 L663.6875,606.9094 Q663.6875,607.3969 663.5,607.6094 Q663.3125,607.8219 663.0125,607.8219 Q662.7375,607.8219 662.575,607.6594 Q662.4125,607.5094 662.325,607.0969 Q662.2875,606.8094 662.1375,606.6594 Q661.875,606.3594 661.3875,606.1844 Q660.9,606.0094 660.4,606.0094 Q659.7875,606.0094 659.275,606.2719 Q658.775,606.5344 658.375,607.1344 Q657.9875,607.7344 657.9875,608.5594 L657.9875,609.4344 Q657.9875,610.4219 658.7,611.0844 Q659.4125,611.7344 660.6875,611.7344 Q661.4375,611.7344 661.9625,611.5344 Q662.275,611.4094 662.6125,611.0594 Q662.825,610.8469 662.9375,610.7844 Q663.0625,610.7219 663.225,610.7219 Q663.4875,610.7219 663.6875,610.9344 Q663.9,611.1344 663.9,611.4094 Q663.9,611.6844 663.625,612.0094 Q663.225,612.4719 662.5875,612.7344 Q661.725,613.0969 660.6875,613.0969 Q659.475,613.0969 658.5125,612.5969 Q657.725,612.1969 657.175,611.3469 Q656.625,610.4844 656.625,609.4594 L656.625,608.5344 Q656.625,607.4719 657.1125,606.5594 Q657.6125,605.6344 658.4875,605.1469 Q659.3625,604.6469 660.35,604.6469 Q660.9375,604.6469 661.45,604.7844 Q661.975,604.9094 662.4125,605.1969 Z " fill="#000000"/><text fill="#000000" font-family="sans-serif" font-size="11.2" lengthAdjust="spacing" textLength="120" x="676.6" y="613.1344">AgendaEntryRepository</text><line style="stroke:#181818;stroke-width:0.4000000000000001;" x1="617.6" x2="829.6" y1="621.2969" y2="621.2969"/><text fill="#000000" font-family="sans-serif" font-size="11.2" lengthAdjust="spacing" textLength="204" x="621.6" y="636.5828">-ArrayList&lt;AgendaEntry&gt; agendaEntries</text><line style="stroke:#181818;stroke-width:0.4000000000000001;" x1="617.6" x2="829.6" y1="642.5938" y2="642.5938"/><text fill="#000000" font-family="sans-serif" font-size="11.2" lengthAdjust="spacing" textLength="104.8" x="621.6" y="657.8797">+getAgendaEntries()</text><text fill="#000000" font-family="sans-serif" font-size="11.2" lengthAdjust="spacing" textLength="178.4" x="621.6" y="672.7766">+addEntryToAgenda(AgendaEntry)</text></g><!--class Repositories--><g id="elem_Repositories"><rect codeLine="55" fill="#F1F1F1" height="127.7813" id="Repositories" rx="2" ry="2" style="stroke:#181818;stroke-width:0.4000000000000001;" width="160" x="444.4" y="404.4969"/><ellipse cx="489.4" cy="417.2969" fill="#ADD1B2" rx="8.8" ry="8.8" style="stroke:#181818;stroke-width:0.8000000000000002;"/><path d="M491.6125,413.9969 Q491.7375,413.8219 491.8875,413.7344 Q492.0375,413.6469 492.2125,413.6469 Q492.5125,413.6469 492.7,413.8594 Q492.8875,414.0594 492.8875,414.5469 L492.8875,415.7094 Q492.8875,416.1969 492.7,416.4094 Q492.5125,416.6219 492.2125,416.6219 Q491.9375,416.6219 491.775,416.4594 Q491.6125,416.3094 491.525,415.8969 Q491.4875,415.6094 491.3375,415.4594 Q491.075,415.1594 490.5875,414.9844 Q490.1,414.8094 489.6,414.8094 Q488.9875,414.8094 488.475,415.0719 Q487.975,415.3344 487.575,415.9344 Q487.1875,416.5344 487.1875,417.3594 L487.1875,418.2344 Q487.1875,419.2219 487.9,419.8844 Q488.6125,420.5344 489.8875,420.5344 Q490.6375,420.5344 491.1625,420.3344 Q491.475,420.2094 491.8125,419.8594 Q492.025,419.6469 492.1375,419.5844 Q492.2625,419.5219 492.425,419.5219 Q492.6875,419.5219 492.8875,419.7344 Q493.1,419.9344 493.1,420.2094 Q493.1,420.4844 492.825,420.8094 Q492.425,421.2719 491.7875,421.5344 Q490.925,421.8969 489.8875,421.8969 Q488.675,421.8969 487.7125,421.3969 Q486.925,420.9969 486.375,420.1469 Q485.825,419.2844 485.825,418.2594 L485.825,417.3344 Q485.825,416.2719 486.3125,415.3594 Q486.8125,414.4344 487.6875,413.9469 Q488.5625,413.4469 489.55,413.4469 Q490.1375,413.4469 490.65,413.5844 Q491.175,413.7094 491.6125,413.9969 Z " fill="#000000"/><text fill="#000000" font-family="sans-serif" font-size="11.2" lengthAdjust="spacing" textLength="63.2" x="505.8" y="421.9344">Repositories</text><line style="stroke:#181818;stroke-width:0.4000000000000001;" x1="445.2" x2="603.6" y1="430.0969" y2="430.0969"/><text fill="#000000" font-family="sans-serif" font-size="11.2" lengthAdjust="spacing" textLength="123.2" x="449.2" y="445.3828">-agendaEntryRepository</text><text fill="#000000" font-family="sans-serif" font-size="11.2" lengthAdjust="spacing" textLength="108.8" x="449.2" y="460.2797">-toDoEntryRepository</text><line style="stroke:#181818;stroke-width:0.4000000000000001;" x1="445.2" x2="603.6" y1="466.2906" y2="466.2906"/><text fill="#000000" font-family="sans-serif" font-size="11.2" lengthAdjust="spacing" textLength="75.2" x="449.2" y="481.5766">-Repositories()</text><text fill="#000000" font-family="sans-serif" font-size="11.2" lengthAdjust="spacing" textLength="72.8" x="449.2" y="496.4734">+getInstance()</text><text fill="#000000" font-family="sans-serif" font-size="11.2" lengthAdjust="spacing" textLength="150.4" x="449.2" y="511.3703">+getAgendaEntryRepository()</text><text fill="#000000" font-family="sans-serif" font-size="11.2" lengthAdjust="spacing" textLength="139.2" x="449.2" y="526.2672">+getToDoEntryRepository()</text></g><!--class AgendaEntryMapper--><g id="elem_AgendaEntryMapper"><rect codeLine="65" fill="#F1F1F1" height="83.0906" id="AgendaEntryMapper" rx="2" ry="2" style="stroke:#181818;stroke-width:0.4000000000000001;" width="200.8" x="593.6" y="235.6969"/><ellipse cx="638.6" cy="248.4969" fill="#ADD1B2" rx="8.8" ry="8.8" style="stroke:#181818;stroke-width:0.8000000000000002;"/><path d="M640.8125,245.1969 Q640.9375,245.0219 641.0875,244.9344 Q641.2375,244.8469 641.4125,244.8469 Q641.7125,244.8469 641.9,245.0594 Q642.0875,245.2594 642.0875,245.7469 L642.0875,246.9094 Q642.0875,247.3969 641.9,247.6094 Q641.7125,247.8219 641.4125,247.8219 Q641.1375,247.8219 640.975,247.6594 Q640.8125,247.5094 640.725,247.0969 Q640.6875,246.8094 640.5375,246.6594 Q640.275,246.3594 639.7875,246.1844 Q639.3,246.0094 638.8,246.0094 Q638.1875,246.0094 637.675,246.2719 Q637.175,246.5344 636.775,247.1344 Q636.3875,247.7344 636.3875,248.5594 L636.3875,249.4344 Q636.3875,250.4219 637.1,251.0844 Q637.8125,251.7344 639.0875,251.7344 Q639.8375,251.7344 640.3625,251.5344 Q640.675,251.4094 641.0125,251.0594 Q641.225,250.8469 641.3375,250.7844 Q641.4625,250.7219 641.625,250.7219 Q641.8875,250.7219 642.0875,250.9344 Q642.3,251.1344 642.3,251.4094 Q642.3,251.6844 642.025,252.0094 Q641.625,252.4719 640.9875,252.7344 Q640.125,253.0969 639.0875,253.0969 Q637.875,253.0969 636.9125,252.5969 Q636.125,252.1969 635.575,251.3469 Q635.025,250.4844 635.025,249.4594 L635.025,248.5344 Q635.025,247.4719 635.5125,246.5594 Q636.0125,245.6344 636.8875,245.1469 Q637.7625,244.6469 638.75,244.6469 Q639.3375,244.6469 639.85,244.7844 Q640.375,244.9094 640.8125,245.1969 Z " fill="#000000"/><text fill="#000000" font-family="sans-serif" font-size="11.2" lengthAdjust="spacing" textLength="104" x="655" y="253.1344">AgendaEntryMapper</text><line style="stroke:#181818;stroke-width:0.4000000000000001;" x1="594.4" x2="793.6" y1="261.2969" y2="261.2969"/><line style="stroke:#181818;stroke-width:0.4000000000000001;" x1="594.4" x2="793.6" y1="267.6969" y2="267.6969"/><text fill="#000000" font-family="sans-serif" font-size="11.2" lengthAdjust="spacing" textLength="112.8" x="598.4" y="282.9828">+toDTO(agendaEntry)</text><text fill="#000000" font-family="sans-serif" font-size="11.2" lengthAdjust="spacing" textLength="191.2" x="598.4" y="297.8797">+toEntity(agendaEntryDTO, newDate)</text><text fill="#000000" font-family="sans-serif" font-size="11.2" lengthAdjust="spacing" textLength="140.8" x="598.4" y="312.7766">+toEntity(agendaEntryDTO)</text></g><!--class ToDoEntryMapper--><g id="elem_ToDoEntryMapper"><rect codeLine="71" fill="#F1F1F1" height="53.2969" id="ToDoEntryMapper" rx="2" ry="2" style="stroke:#181818;stroke-width:0.4000000000000001;" width="118.4" x="822.8" y="250.4969"/><ellipse cx="834.8" cy="263.2969" fill="#ADD1B2" rx="8.8" ry="8.8" style="stroke:#181818;stroke-width:0.8000000000000002;"/><path d="M837.0125,259.9969 Q837.1375,259.8219 837.2875,259.7344 Q837.4375,259.6469 837.6125,259.6469 Q837.9125,259.6469 838.1,259.8594 Q838.2875,260.0594 838.2875,260.5469 L838.2875,261.7094 Q838.2875,262.1969 838.1,262.4094 Q837.9125,262.6219 837.6125,262.6219 Q837.3375,262.6219 837.175,262.4594 Q837.0125,262.3094 836.925,261.8969 Q836.8875,261.6094 836.7375,261.4594 Q836.475,261.1594 835.9875,260.9844 Q835.5,260.8094 835,260.8094 Q834.3875,260.8094 833.875,261.0719 Q833.375,261.3344 832.975,261.9344 Q832.5875,262.5344 832.5875,263.3594 L832.5875,264.2344 Q832.5875,265.2219 833.3,265.8844 Q834.0125,266.5344 835.2875,266.5344 Q836.0375,266.5344 836.5625,266.3344 Q836.875,266.2094 837.2125,265.8594 Q837.425,265.6469 837.5375,265.5844 Q837.6625,265.5219 837.825,265.5219 Q838.0875,265.5219 838.2875,265.7344 Q838.5,265.9344 838.5,266.2094 Q838.5,266.4844 838.225,266.8094 Q837.825,267.2719 837.1875,267.5344 Q836.325,267.8969 835.2875,267.8969 Q834.075,267.8969 833.1125,267.3969 Q832.325,266.9969 831.775,266.1469 Q831.225,265.2844 831.225,264.2594 L831.225,263.3344 Q831.225,262.2719 831.7125,261.3594 Q832.2125,260.4344 833.0875,259.9469 Q833.9625,259.4469 834.95,259.4469 Q835.5375,259.4469 836.05,259.5844 Q836.575,259.7094 837.0125,259.9969 Z " fill="#000000"/><text fill="#000000" font-family="sans-serif" font-size="11.2" lengthAdjust="spacing" textLength="92.8" x="846" y="267.9344">ToDoEntryMapper</text><line style="stroke:#181818;stroke-width:0.4000000000000001;" x1="823.6" x2="940.4" y1="276.0969" y2="276.0969"/><line style="stroke:#181818;stroke-width:0.4000000000000001;" x1="823.6" x2="940.4" y1="282.4969" y2="282.4969"/><text fill="#000000" font-family="sans-serif" font-size="11.2" lengthAdjust="spacing" textLength="98.4" x="827.6" y="297.7828">+toDTO(toDoEntry)</text></g><!--class AgendaController--><g id="elem_AgendaController"><rect codeLine="75" fill="#F1F1F1" height="127.7813" id="AgendaController" rx="2" ry="2" style="stroke:#181818;stroke-width:0.4000000000000001;" width="256" x="309.2" y="213.2969"/><ellipse cx="389.4" cy="226.0969" fill="#ADD1B2" rx="8.8" ry="8.8" style="stroke:#181818;stroke-width:0.8000000000000002;"/><path d="M391.6125,222.7969 Q391.7375,222.6219 391.8875,222.5344 Q392.0375,222.4469 392.2125,222.4469 Q392.5125,222.4469 392.7,222.6594 Q392.8875,222.8594 392.8875,223.3469 L392.8875,224.5094 Q392.8875,224.9969 392.7,225.2094 Q392.5125,225.4219 392.2125,225.4219 Q391.9375,225.4219 391.775,225.2594 Q391.6125,225.1094 391.525,224.6969 Q391.4875,224.4094 391.3375,224.2594 Q391.075,223.9594 390.5875,223.7844 Q390.1,223.6094 389.6,223.6094 Q388.9875,223.6094 388.475,223.8719 Q387.975,224.1344 387.575,224.7344 Q387.1875,225.3344 387.1875,226.1594 L387.1875,227.0344 Q387.1875,228.0219 387.9,228.6844 Q388.6125,229.3344 389.8875,229.3344 Q390.6375,229.3344 391.1625,229.1344 Q391.475,229.0094 391.8125,228.6594 Q392.025,228.4469 392.1375,228.3844 Q392.2625,228.3219 392.425,228.3219 Q392.6875,228.3219 392.8875,228.5344 Q393.1,228.7344 393.1,229.0094 Q393.1,229.2844 392.825,229.6094 Q392.425,230.0719 391.7875,230.3344 Q390.925,230.6969 389.8875,230.6969 Q388.675,230.6969 387.7125,230.1969 Q386.925,229.7969 386.375,228.9469 Q385.825,228.0844 385.825,227.0594 L385.825,226.1344 Q385.825,225.0719 386.3125,224.1594 Q386.8125,223.2344 387.6875,222.7469 Q388.5625,222.2469 389.55,222.2469 Q390.1375,222.2469 390.65,222.3844 Q391.175,222.5094 391.6125,222.7969 Z " fill="#000000"/><text fill="#000000" font-family="sans-serif" font-size="11.2" lengthAdjust="spacing" textLength="88.8" x="405.8" y="230.7344">AgendaController</text><line style="stroke:#181818;stroke-width:0.4000000000000001;" x1="310" x2="564.4" y1="238.8969" y2="238.8969"/><text fill="#000000" font-family="sans-serif" font-size="11.2" lengthAdjust="spacing" textLength="246.4" x="314" y="254.1828">-AgendaEntryRepository agendaEntryRepository</text><text fill="#000000" font-family="sans-serif" font-size="11.2" lengthAdjust="spacing" textLength="220.8" x="314" y="269.0797">-ToDoEntryRepository toDoEntryRepository</text><text fill="#000000" font-family="sans-serif" font-size="11.2" lengthAdjust="spacing" textLength="214.4" x="314" y="283.9766">-AgendaEntryMapper agendaEntryMapper</text><text fill="#000000" font-family="sans-serif" font-size="11.2" lengthAdjust="spacing" textLength="188.8" x="314" y="298.8734">-ToDoEntryMapper toDoEntryMapper</text><line style="stroke:#181818;stroke-width:0.4000000000000001;" x1="310" x2="564.4" y1="304.8844" y2="304.8844"/><text fill="#000000" font-family="sans-serif" font-size="11.2" lengthAdjust="spacing" textLength="139.2" x="314" y="320.1703">+getAvailableToDoEntries()</text><text fill="#000000" font-family="sans-serif" font-size="11.2" lengthAdjust="spacing" textLength="201.6" x="314" y="335.0672">+addEntryToAgenda(agendaEntryDTO)</text></g><!--class AgendaUI--><g id="elem_AgendaUI"><rect codeLine="84" fill="#F1F1F1" height="112.8844" id="AgendaUI" rx="2" ry="2" style="stroke:#181818;stroke-width:0.4000000000000001;" width="272.8" x="8" y="220.8969"/><ellipse cx="116.6" cy="233.6969" fill="#ADD1B2" rx="8.8" ry="8.8" style="stroke:#181818;stroke-width:0.8000000000000002;"/><path d="M118.8125,230.3969 Q118.9375,230.2219 119.0875,230.1344 Q119.2375,230.0469 119.4125,230.0469 Q119.7125,230.0469 119.9,230.2594 Q120.0875,230.4594 120.0875,230.9469 L120.0875,232.1094 Q120.0875,232.5969 119.9,232.8094 Q119.7125,233.0219 119.4125,233.0219 Q119.1375,233.0219 118.975,232.8594 Q118.8125,232.7094 118.725,232.2969 Q118.6875,232.0094 118.5375,231.8594 Q118.275,231.5594 117.7875,231.3844 Q117.3,231.2094 116.8,231.2094 Q116.1875,231.2094 115.675,231.4719 Q115.175,231.7344 114.775,232.3344 Q114.3875,232.9344 114.3875,233.7594 L114.3875,234.6344 Q114.3875,235.6219 115.1,236.2844 Q115.8125,236.9344 117.0875,236.9344 Q117.8375,236.9344 118.3625,236.7344 Q118.675,236.6094 119.0125,236.2594 Q119.225,236.0469 119.3375,235.9844 Q119.4625,235.9219 119.625,235.9219 Q119.8875,235.9219 120.0875,236.1344 Q120.3,236.3344 120.3,236.6094 Q120.3,236.8844 120.025,237.2094 Q119.625,237.6719 118.9875,237.9344 Q118.125,238.2969 117.0875,238.2969 Q115.875,238.2969 114.9125,237.7969 Q114.125,237.3969 113.575,236.5469 Q113.025,235.6844 113.025,234.6594 L113.025,233.7344 Q113.025,232.6719 113.5125,231.7594 Q114.0125,230.8344 114.8875,230.3469 Q115.7625,229.8469 116.75,229.8469 Q117.3375,229.8469 117.85,229.9844 Q118.375,230.1094 118.8125,230.3969 Z " fill="#000000"/><text fill="#000000" font-family="sans-serif" font-size="11.2" lengthAdjust="spacing" textLength="48.8" x="133" y="238.3344">AgendaUI</text><line style="stroke:#181818;stroke-width:0.4000000000000001;" x1="8.8" x2="280" y1="246.4969" y2="246.4969"/><text fill="#000000" font-family="sans-serif" font-size="11.2" lengthAdjust="spacing" textLength="184" x="12.8" y="261.7828">-AgendaController agendaController</text><line style="stroke:#181818;stroke-width:0.4000000000000001;" x1="8.8" x2="280" y1="267.7938" y2="267.7938"/><text fill="#000000" font-family="sans-serif" font-size="11.2" lengthAdjust="spacing" textLength="263.2" x="12.8" y="283.0797">+displayAvailableToDoEntries(List&lt;toDoEntryDTO&gt;)</text><text fill="#000000" font-family="sans-serif" font-size="11.2" lengthAdjust="spacing" textLength="70.4" x="12.8" y="297.9766">+selectEntry()</text><text fill="#000000" font-family="sans-serif" font-size="11.2" lengthAdjust="spacing" textLength="68" x="12.8" y="312.8734">+selectDate()</text><text fill="#000000" font-family="sans-serif" font-size="11.2" lengthAdjust="spacing" textLength="136" x="12.8" y="327.7703">+displayMessage(success)</text></g><!--class GSM--><g id="elem_GSM"><rect fill="#F1F1F1" height="38.4" id="GSM" rx="2" ry="2" style="stroke:#181818;stroke-width:0.4000000000000001;" width="50.4" x="119.2" y="74.4969"/><ellipse cx="131.2" cy="87.2969" fill="#ADD1B2" rx="8.8" ry="8.8" style="stroke:#181818;stroke-width:0.8000000000000002;"/><path d="M133.4125,83.9969 Q133.5375,83.8219 133.6875,83.7344 Q133.8375,83.6469 134.0125,83.6469 Q134.3125,83.6469 134.5,83.8594 Q134.6875,84.0594 134.6875,84.5469 L134.6875,85.7094 Q134.6875,86.1969 134.5,86.4094 Q134.3125,86.6219 134.0125,86.6219 Q133.7375,86.6219 133.575,86.4594 Q133.4125,86.3094 133.325,85.8969 Q133.2875,85.6094 133.1375,85.4594 Q132.875,85.1594 132.3875,84.9844 Q131.9,84.8094 131.4,84.8094 Q130.7875,84.8094 130.275,85.0719 Q129.775,85.3344 129.375,85.9344 Q128.9875,86.5344 128.9875,87.3594 L128.9875,88.2344 Q128.9875,89.2219 129.7,89.8844 Q130.4125,90.5344 131.6875,90.5344 Q132.4375,90.5344 132.9625,90.3344 Q133.275,90.2094 133.6125,89.8594 Q133.825,89.6469 133.9375,89.5844 Q134.0625,89.5219 134.225,89.5219 Q134.4875,89.5219 134.6875,89.7344 Q134.9,89.9344 134.9,90.2094 Q134.9,90.4844 134.625,90.8094 Q134.225,91.2719 133.5875,91.5344 Q132.725,91.8969 131.6875,91.8969 Q130.475,91.8969 129.5125,91.3969 Q128.725,90.9969 128.175,90.1469 Q127.625,89.2844 127.625,88.2594 L127.625,87.3344 Q127.625,86.2719 128.1125,85.3594 Q128.6125,84.4344 129.4875,83.9469 Q130.3625,83.4469 131.35,83.4469 Q131.9375,83.4469 132.45,83.5844 Q132.975,83.7094 133.4125,83.9969 Z " fill="#000000"/><text fill="#000000" font-family="sans-serif" font-size="11.2" lengthAdjust="spacing" textLength="24.8" x="142.4" y="91.9344">GSM</text><line style="stroke:#181818;stroke-width:0.4000000000000001;" x1="120" x2="168.8" y1="100.0969" y2="100.0969"/><line style="stroke:#181818;stroke-width:0.4000000000000001;" x1="120" x2="168.8" y1="106.4969" y2="106.4969"/></g><!--link AgendaUI to AgendaController--><g id="link_AgendaUI_AgendaController"><path codeLine="92" d="M280.856,277.2969 C290.208,277.2969 295.272,277.2969 304.192,277.2969 " fill="none" id="AgendaUI-to-AgendaController" style="stroke:#181818;stroke-width:0.8000000000000002;stroke-dasharray:7.0,7.0;"/><polygon fill="#181818" points="308.992,277.2969,301.792,274.0969,304.992,277.2969,301.792,280.4969,308.992,277.2969" style="stroke:#181818;stroke-width:0.8000000000000002;"/></g><!--link AgendaController to Repositories--><g id="link_AgendaController_Repositories"><path codeLine="93" d="M466.36,341.4969 C475.664,361.7369 483.9538,379.7603 493.2658,400.0003 " fill="none" id="AgendaController-to-Repositories" style="stroke:#181818;stroke-width:0.8000000000000002;stroke-dasharray:7.0,7.0;"/><polygon fill="#181818" points="495.272,404.3609,495.1697,396.4825,493.6001,400.727,489.3556,399.1574,495.272,404.3609" style="stroke:#181818;stroke-width:0.8000000000000002;"/><text fill="#000000" font-family="sans-serif" font-size="10.4" lengthAdjust="spacing" textLength="53.6" x="484.4" y="377.3195">repositories</text></g><!--link Repositories to AgendaEntryRepository--><g id="link_Repositories_AgendaEntryRepository"><path codeLine="94" d="M599.712,532.5049 C624.832,553.5929 648.467,573.4354 671.043,592.3794 " fill="none" id="Repositories-to-AgendaEntryRepository" style="stroke:#181818;stroke-width:0.8000000000000002;"/><polygon fill="#181818" points="674.72,595.4649,671.2615,588.3854,671.6559,592.8937,667.1476,593.2881,674.72,595.4649" style="stroke:#181818;stroke-width:0.8000000000000002;"/><text fill="#000000" font-family="sans-serif" font-size="10.4" lengthAdjust="spacing" textLength="5.6" x="662.1755" y="586.5756">1</text></g><!--link Repositories to ToDoEntryRepository--><g id="link_Repositories_ToDoEntryRepository"><path codeLine="95" d="M494.76,532.5049 C483.488,556.5529 473.1259,578.6469 463.6539,598.8469 " fill="none" id="Repositories-to-ToDoEntryRepository" style="stroke:#181818;stroke-width:0.8000000000000002;"/><polygon fill="#181818" points="461.616,603.1929,467.5701,598.0325,463.3142,599.5713,461.7755,595.3154,461.616,603.1929" style="stroke:#181818;stroke-width:0.8000000000000002;"/><text fill="#000000" font-family="sans-serif" font-size="10.4" lengthAdjust="spacing" textLength="5.6" x="458.0586" y="594.2996">1</text></g><!--link Repositories to Repositories--><g id="link_Repositories_Repositories"><path codeLine="96" d="M604.472,451.4729 C620.744,453.3289 632.4,459.0009 632.4,468.4969 C632.4,477.9929 625.5131,483.1209 609.2411,484.9769 " fill="none" id="Repositories-to-Repositories" style="stroke:#181818;stroke-width:0.8000000000000002;"/><polygon fill="#181818" points="604.472,485.5209,611.9883,487.8843,608.4462,485.0676,611.263,481.5255,604.472,485.5209" style="stroke:#181818;stroke-width:0.8000000000000002;"/><text fill="#000000" font-family="sans-serif" font-size="10.4" lengthAdjust="spacing" textLength="39.2" x="637.2" y="472.9195">instance</text></g><!--link AgendaController to AgendaEntryMapper--><g id="link_AgendaController_AgendaEntryMapper"><path codeLine="97" d="M565.352,277.2969 C575.416,277.2969 580.712,277.2969 588.584,277.2969 " fill="none" id="AgendaController-to-AgendaEntryMapper" style="stroke:#181818;stroke-width:0.8000000000000002;stroke-dasharray:7.0,7.0;"/><polygon fill="#181818" points="593.384,277.2969,586.184,274.0969,589.384,277.2969,586.184,280.4969,593.384,277.2969" style="stroke:#181818;stroke-width:0.8000000000000002;"/></g><!--link AgendaController to ToDoEntryMapper--><g id="link_AgendaController_ToDoEntryMapper"><path codeLine="98" d="M541.952,213.2649 C570.448,195.8489 593.6,181.6969 593.6,181.6969 C593.6,181.6969 794.4,181.6969 794.4,181.6969 C794.4,181.6969 828.2128,218.5983 854.1248,246.8703 " fill="none" id="AgendaController-to-ToDoEntryMapper" style="stroke:#181818;stroke-width:0.8000000000000002;stroke-dasharray:7.0,7.0;"/><polygon fill="#181818" points="857.368,250.4089,854.8623,242.9389,854.6653,247.4601,850.1441,247.2631,857.368,250.4089" style="stroke:#181818;stroke-width:0.8000000000000002;"/></g><!--link AgendaController to AgendaEntryRepository--><g id="link_AgendaController_AgendaEntryRepository"><path codeLine="99" d="M559.56,341.4809 C620.44,373.0169 681.2,404.4969 681.2,404.4969 C681.2,404.4969 703.0808,524.2311 715.2568,590.8311 " fill="none" id="AgendaController-to-AgendaEntryRepository" style="stroke:#181818;stroke-width:0.8000000000000002;"/><polygon fill="#181818" points="716.12,595.5529,717.973,587.8948,715.4006,591.6181,711.6773,589.0458,716.12,595.5529" style="stroke:#181818;stroke-width:0.8000000000000002;"/><text fill="#000000" font-family="sans-serif" font-size="10.4" lengthAdjust="spacing" textLength="22.4" x="706" y="472.9195">uses</text></g><!--link AgendaController to ToDoEntryRepository--><g id="link_AgendaController_ToDoEntryRepository"><path codeLine="100" d="M421.512,341.6649 C413.736,373.1449 406,404.4969 406,404.4969 C406,404.4969 406,532.4969 406,532.4969 C406,532.4969 419.7095,568.1366 431.3975,598.5366 " fill="none" id="AgendaController-to-ToDoEntryRepository" style="stroke:#181818;stroke-width:0.8000000000000002;"/><polygon fill="#181818" points="433.12,603.0169,433.523,595.1481,431.6845,599.2833,427.5493,597.4448,433.12,603.0169" style="stroke:#181818;stroke-width:0.8000000000000002;"/><text fill="#000000" font-family="sans-serif" font-size="10.4" lengthAdjust="spacing" textLength="22.4" x="406.8" y="472.9195">uses</text></g><!--reverse link SystemUser to GSM--><g id="link_SystemUser_GSM"><path codeLine="102" d="M105.632,93.6969 C114.92,93.6969 112.4,93.6969 112.4,93.6969 C112.4,93.6969 115.224,93.6969 119.184,93.6969 " fill="none" id="SystemUser-backto-GSM" style="stroke:#181818;stroke-width:0.8000000000000002;"/><polygon fill="none" points="91.232,93.6969,105.632,98.4969,105.632,88.8969,91.232,93.6969" style="stroke:#181818;stroke-width:0.8000000000000002;"/></g><!--reverse link ToDoEntry to AgendaEntry--><g id="link_ToDoEntry_AgendaEntry"><path codeLine="103" d="M1000.0289,347.6066 C991.9729,377.4306 985.976,399.6489 978.624,426.8649 " fill="none" id="ToDoEntry-backto-AgendaEntry" style="stroke:#181818;stroke-width:0.8000000000000002;"/><polygon fill="none" points="1003.784,333.7049,995.395,346.3549,1004.6628,348.8583,1003.784,333.7049" style="stroke:#181818;stroke-width:0.8000000000000002;"/></g><!--link GSM to AgendaUI--><g id="link_GSM_AgendaUI"><path codeLine="105" d="M144.4,112.9529 C144.4,137.9849 144.4,183.8009 144.4,220.5849 " fill="none" id="GSM-AgendaUI" style="stroke:#181818;stroke-width:0.8000000000000002;"/><text fill="#000000" font-family="sans-serif" font-size="10.4" lengthAdjust="spacing" textLength="5.6" x="138.1175" y="130.5551">1</text><text fill="#000000" font-family="sans-serif" font-size="10.4" lengthAdjust="spacing" textLength="5.6" x="138.5244" y="211.9629">1</text></g><!--reverse link AgendaEntry to AgendaEntryRepository--><g id="link_AgendaEntry_AgendaEntryRepository"><path codeLine="106" d="M910.3926,508.4984 C871.6966,535.0184 823.248,568.2169 783.152,595.6889 " fill="none" id="AgendaEntry-backto-AgendaEntryRepository" style="stroke:#181818;stroke-width:0.8000000000000002;"/><polygon fill="#181818" points="914.352,505.7849,906.6039,507.2156,911.0525,508.0462,910.2219,512.4948,914.352,505.7849" style="stroke:#181818;stroke-width:0.8000000000000002;"/><text fill="#000000" font-family="sans-serif" font-size="10.4" lengthAdjust="spacing" textLength="28.8" x="839.6" y="568.5195">stores</text><text fill="#000000" font-family="sans-serif" font-size="10.4" lengthAdjust="spacing" textLength="4" x="903.964" y="506.9525">*</text><text fill="#000000" font-family="sans-serif" font-size="10.4" lengthAdjust="spacing" textLength="5.6" x="785.1781" y="586.8297">1</text></g><!--reverse link AgendaEntryDTO to AgendaEntryMapper--><g id="link_AgendaEntryDTO_AgendaEntryMapper"><path codeLine="107" d="M694,147.3529 C694,176.3129 694,208.0089 694,235.5849 " fill="none" id="AgendaEntryDTO-backto-AgendaEntryMapper" style="stroke:#181818;stroke-width:0.8000000000000002;"/><polygon fill="#181818" points="694,142.5529,690.8,149.7529,694,146.5529,697.2,149.7529,694,142.5529" style="stroke:#181818;stroke-width:0.8000000000000002;"/><text fill="#000000" font-family="sans-serif" font-size="10.4" lengthAdjust="spacing" textLength="34.4" x="694.8" y="186.1195">creates</text><text fill="#000000" font-family="sans-serif" font-size="10.4" lengthAdjust="spacing" textLength="4" x="689.7563" y="160.5492">*</text><text fill="#000000" font-family="sans-serif" font-size="10.4" lengthAdjust="spacing" textLength="5.6" x="688.0238" y="226.7117">1</text></g><!--reverse link ToDoEntryDTO to ToDoEntryMapper--><g id="link_ToDoEntryDTO_ToDoEntryMapper"><path codeLine="108" d="M882,155.1369 C882,188.4729 882,224.4409 882,250.4409 " fill="none" id="ToDoEntryDTO-backto-ToDoEntryMapper" style="stroke:#181818;stroke-width:0.8000000000000002;"/><polygon fill="#181818" points="882,150.3369,878.8,157.5369,882,154.3369,885.2,157.5369,882,150.3369" style="stroke:#181818;stroke-width:0.8000000000000002;"/><text fill="#000000" font-family="sans-serif" font-size="10.4" lengthAdjust="spacing" textLength="34.4" x="882.8" y="186.1195">creates</text><text fill="#000000" font-family="sans-serif" font-size="10.4" lengthAdjust="spacing" textLength="4" x="877.8031" y="167.8117">*</text><text fill="#000000" font-family="sans-serif" font-size="10.4" lengthAdjust="spacing" textLength="5.6" x="875.8488" y="241.4903">1</text></g><!--SRC=[jLN1Rjim3BthAuISqhKfjcjG10YQOGYmhC3YxCxQd2DKaGn9MUPj_VVHjgB8jjATbajCyf7lcI8j-o9K1GOEF9TWxT8v8vwF3jUvLbln2_bxPWEaWlm5IjowMY8tc3jGfSG8OFTGw9DG9VyEqiOHAHIwka9UQLat1cDEE2hpsD3obO2IO8orAdYcL_gZSgR-pJZzIeEejiIEhLcWpOsedD2gjO-cH9NNAsnmhSSwS4VRFkBFYeHYiJeQQ3DUpoHBoYgWfU4TJm6kowUmpWLPHOQagk_wXdkHIxJ9IglioHV3nbolaeeh2KgHfZEVrniARclhyB2pQ7mn1OSEYGSGigj1m9CsHMViDRNqTTI_Yvp_qyD0z1KhRONJePSplZG6wi_2keU0Md3d7mLsfMzvYIwxEBzejrPTFwStoGw_oHJX5Xo2qMDRncuYwG9G56rQfZrxL2eI4jWfD_13IfsFkN67c0_5jO8E4hXMr7kLO-nBDY0694xYIWCtK5LXi6uRWTdJ5EAtFGV85AwEOmIzumfFpUJ-0tUJc98aTUZGIEwZ9hUMCgJChWp2MmUG6j7KeOpgUx4mz0phUfphsz7H_Q2LXMU9qPXV7xkhJUpYk_MW5L6FOE3m58MmzBsfapBQfN7Hrs9n5cPHqiwtxcdVrvnzSFdY6xIMwAVscEVqsCeEWkyN8wri9FwUKBtbcjCDSp5PBpQRBVZamoGz3MbeOWm6m16_y7kO4BiO3qeIDHYICQQHbvxfEJzQUkzaHcgcFPv5TyV3dnd_jDsm06yylHbdZE9jVyX_wUXkpUBRSV9kmXzwW36vfVyWDzmzLpBzoinvRf2coRBUXHKd3RVial8N]--></g></svg>