<?xml version="1.0" encoding="us-ascii" standalone="no"?><svg xmlns="http://www.w3.org/2000/svg" xmlns:xlink="http://www.w3.org/1999/xlink" contentStyleType="text/css" height="1102px" preserveAspectRatio="none" style="width:2035px;height:1102px;background:#FFFFFF;" version="1.1" viewBox="0 0 2035 1102" width="2035px" zoomAndPan="magnify"><defs/><g><rect fill="#FFFFFF" height="908.0215" style="stroke:#181818;stroke-width:1.0;" width="10" x="18.5" y="93.6211"/><rect fill="#FFFFFF" height="394.7832" style="stroke:#181818;stroke-width:1.0;" width="10" x="321.5" y="134.2031"/><rect fill="#FFFFFF" height="31.291" style="stroke:#181818;stroke-width:1.0;" width="10" x="321.5" y="560.2773"/><rect fill="#FFFFFF" height="378.7832" style="stroke:#181818;stroke-width:1.0;" width="10" x="321.5" y="622.8594"/><rect fill="#FFFFFF" height="314.9102" style="stroke:#181818;stroke-width:1.0;" width="10" x="585.5" y="165.4941"/><rect fill="#FFFFFF" height="253.6191" style="stroke:#181818;stroke-width:1.0;" width="10" x="585.5" y="716.7324"/><rect fill="#FFFFFF" height="31.291" style="stroke:#181818;stroke-width:1.0;" width="10" x="708.5" y="196.7852"/><rect fill="#FFFFFF" height="31.291" style="stroke:#181818;stroke-width:1.0;" width="10" x="842" y="259.3672"/><rect fill="#FFFFFF" height="31.291" style="stroke:#181818;stroke-width:1.0;" width="10" x="1011" y="907.7695"/><rect fill="#FFFFFF" height="127.1641" style="stroke:#181818;stroke-width:1.0;" width="10" x="1170" y="321.9492"/><rect fill="#FFFFFF" height="31.291" style="stroke:#181818;stroke-width:1.0;" width="10" x="1413" y="379.5313"/><rect fill="#FFFFFF" height="128.4551" style="stroke:#181818;stroke-width:1.0;" width="10" x="1551" y="748.0234"/><rect fill="#FFFFFF" height="31.291" style="stroke:#181818;stroke-width:1.0;" width="10" x="1696" y="654.1504"/><rect fill="#FFFFFF" height="31.291" style="stroke:#181818;stroke-width:1.0;" width="10" x="1976" y="813.8965"/><rect fill="none" height="81.873" style="stroke:#000000;stroke-width:1.5;" width="384" x="1100" y="336.9492"/><line style="stroke:#181818;stroke-width:0.5;stroke-dasharray:5.0,5.0;" x1="23" x2="23" y1="83.6211" y2="1019.6426"/><line style="stroke:#181818;stroke-width:0.5;stroke-dasharray:5.0,5.0;" x1="326.5" x2="326.5" y1="83.6211" y2="1019.6426"/><line style="stroke:#181818;stroke-width:0.5;stroke-dasharray:5.0,5.0;" x1="590" x2="590" y1="83.6211" y2="1019.6426"/><line style="stroke:#181818;stroke-width:0.5;stroke-dasharray:5.0,5.0;" x1="713" x2="713" y1="83.6211" y2="1019.6426"/><line style="stroke:#181818;stroke-width:0.5;stroke-dasharray:5.0,5.0;" x1="847" x2="847" y1="83.6211" y2="1019.6426"/><line style="stroke:#181818;stroke-width:0.5;stroke-dasharray:5.0,5.0;" x1="1016" x2="1016" y1="83.6211" y2="1019.6426"/><line style="stroke:#181818;stroke-width:0.5;stroke-dasharray:5.0,5.0;" x1="1175" x2="1175" y1="83.6211" y2="1019.6426"/><line style="stroke:#181818;stroke-width:0.5;stroke-dasharray:5.0,5.0;" x1="1418" x2="1418" y1="83.6211" y2="1019.6426"/><line style="stroke:#181818;stroke-width:0.5;stroke-dasharray:5.0,5.0;" x1="1556" x2="1556" y1="83.6211" y2="1019.6426"/><line style="stroke:#181818;stroke-width:0.5;stroke-dasharray:5.0,5.0;" x1="1701" x2="1701" y1="83.6211" y2="1019.6426"/><line style="stroke:#181818;stroke-width:0.5;stroke-dasharray:5.0,5.0;" x1="1981" x2="1981" y1="83.6211" y2="1019.6426"/><text fill="#000000" font-family="sans-serif" font-size="14" lengthAdjust="spacing" textLength="31" x="5" y="80.1074">GSM</text><ellipse cx="23.5" cy="13.5" fill="#E3E3E3" rx="8" ry="8" style="stroke:#181818;stroke-width:0.5;"/><path d="M23.5,21.5 L23.5,48.5 M10.5,29.5 L36.5,29.5 M23.5,48.5 L10.5,63.5 M23.5,48.5 L36.5,63.5 " fill="none" style="stroke:#181818;stroke-width:0.5;"/><text fill="#000000" font-family="sans-serif" font-size="14" lengthAdjust="spacing" textLength="31" x="5" y="1033.75">GSM</text><ellipse cx="23.5" cy="1045.7637" fill="#E3E3E3" rx="8" ry="8" style="stroke:#181818;stroke-width:0.5;"/><path d="M23.5,1053.7637 L23.5,1080.7637 M10.5,1061.7637 L36.5,1061.7637 M23.5,1080.7637 L10.5,1095.7637 M23.5,1080.7637 L36.5,1095.7637 " fill="none" style="stroke:#181818;stroke-width:0.5;"/><rect fill="#E3E3E3" height="32.6211" rx="2.5" ry="2.5" style="stroke:#181818;stroke-width:0.5;" width="90" x="281.5" y="50"/><text fill="#000000" font-family="sans-serif" font-size="14" lengthAdjust="spacing" textLength="76" x="288.5" y="72.1074">:AgendaGUI</text><rect fill="#E3E3E3" height="32.6211" rx="2.5" ry="2.5" style="stroke:#181818;stroke-width:0.5;" width="90" x="281.5" y="1018.6426"/><text fill="#000000" font-family="sans-serif" font-size="14" lengthAdjust="spacing" textLength="76" x="288.5" y="1040.75">:AgendaGUI</text><rect fill="#E3E3E3" height="32.6211" rx="2.5" ry="2.5" style="stroke:#181818;stroke-width:0.5;" width="129" x="526" y="50"/><text fill="#000000" font-family="sans-serif" font-size="14" lengthAdjust="spacing" textLength="115" x="533" y="72.1074">:AgendaController</text><rect fill="#E3E3E3" height="32.6211" rx="2.5" ry="2.5" style="stroke:#181818;stroke-width:0.5;" width="129" x="526" y="1018.6426"/><text fill="#000000" font-family="sans-serif" font-size="14" lengthAdjust="spacing" textLength="115" x="533" y="1040.75">:AgendaController</text><rect fill="#E3E3E3" height="32.6211" rx="2.5" ry="2.5" style="stroke:#181818;stroke-width:0.5;" width="97" x="665" y="50"/><text fill="#000000" font-family="sans-serif" font-size="14" lengthAdjust="spacing" textLength="83" x="672" y="72.1074">:Repositories</text><rect fill="#E3E3E3" height="32.6211" rx="2.5" ry="2.5" style="stroke:#181818;stroke-width:0.5;" width="97" x="665" y="1018.6426"/><text fill="#000000" font-family="sans-serif" font-size="14" lengthAdjust="spacing" textLength="83" x="672" y="1040.75">:Repositories</text><rect fill="#E3E3E3" height="51.2422" rx="2.5" ry="2.5" style="stroke:#181818;stroke-width:0.5;" width="150" x="772" y="31.3789"/><text fill="#000000" font-family="sans-serif" font-size="14" lengthAdjust="spacing" textLength="136" x="779" y="53.4863">ToDoEntryRepository</text><text fill="#000000" font-family="sans-serif" font-size="14" lengthAdjust="spacing" textLength="135" x="779.5" y="72.1074">:toDoEntryRepository</text><rect fill="#E3E3E3" height="51.2422" rx="2.5" ry="2.5" style="stroke:#181818;stroke-width:0.5;" width="150" x="772" y="1018.6426"/><text fill="#000000" font-family="sans-serif" font-size="14" lengthAdjust="spacing" textLength="136" x="779" y="1040.75">ToDoEntryRepository</text><text fill="#000000" font-family="sans-serif" font-size="14" lengthAdjust="spacing" textLength="135" x="779.5" y="1059.3711">:toDoEntryRepository</text><rect fill="#E3E3E3" height="51.2422" rx="2.5" ry="2.5" style="stroke:#181818;stroke-width:0.5;" width="168" x="932" y="31.3789"/><text fill="#000000" font-family="sans-serif" font-size="14" lengthAdjust="spacing" textLength="154" x="939" y="53.4863">AgendaEntryRepository:</text><text fill="#000000" font-family="sans-serif" font-size="14" lengthAdjust="spacing" textLength="149" x="941.5" y="72.1074">agendaEntryRepository</text><rect fill="#E3E3E3" height="51.2422" rx="2.5" ry="2.5" style="stroke:#181818;stroke-width:0.5;" width="168" x="932" y="1018.6426"/><text fill="#000000" font-family="sans-serif" font-size="14" lengthAdjust="spacing" textLength="154" x="939" y="1040.75">AgendaEntryRepository:</text><text fill="#000000" font-family="sans-serif" font-size="14" lengthAdjust="spacing" textLength="149" x="941.5" y="1059.3711">agendaEntryRepository</text><rect fill="#E3E3E3" height="32.6211" rx="2.5" ry="2.5" style="stroke:#181818;stroke-width:0.5;" width="130" x="1110" y="50"/><text fill="#000000" font-family="sans-serif" font-size="14" lengthAdjust="spacing" textLength="116" x="1117" y="72.1074">ToDoEntryMapper</text><rect fill="#E3E3E3" height="32.6211" rx="2.5" ry="2.5" style="stroke:#181818;stroke-width:0.5;" width="130" x="1110" y="1018.6426"/><text fill="#000000" font-family="sans-serif" font-size="14" lengthAdjust="spacing" textLength="116" x="1117" y="1040.75">ToDoEntryMapper</text><rect fill="#E3E3E3" height="32.6211" rx="2.5" ry="2.5" style="stroke:#181818;stroke-width:0.5;" width="112" x="1362" y="50"/><text fill="#000000" font-family="sans-serif" font-size="14" lengthAdjust="spacing" textLength="98" x="1369" y="72.1074">ToDoEntryDTO</text><rect fill="#E3E3E3" height="32.6211" rx="2.5" ry="2.5" style="stroke:#181818;stroke-width:0.5;" width="112" x="1362" y="1018.6426"/><text fill="#000000" font-family="sans-serif" font-size="14" lengthAdjust="spacing" textLength="98" x="1369" y="1040.75">ToDoEntryDTO</text><rect fill="#E3E3E3" height="32.6211" rx="2.5" ry="2.5" style="stroke:#181818;stroke-width:0.5;" width="144" x="1484" y="50"/><text fill="#000000" font-family="sans-serif" font-size="14" lengthAdjust="spacing" textLength="130" x="1491" y="72.1074">AgendaEntryMapper</text><rect fill="#E3E3E3" height="32.6211" rx="2.5" ry="2.5" style="stroke:#181818;stroke-width:0.5;" width="144" x="1484" y="1018.6426"/><text fill="#000000" font-family="sans-serif" font-size="14" lengthAdjust="spacing" textLength="130" x="1491" y="1040.75">AgendaEntryMapper</text><rect fill="#E3E3E3" height="32.6211" rx="2.5" ry="2.5" style="stroke:#181818;stroke-width:0.5;" width="126" x="1638" y="50"/><text fill="#000000" font-family="sans-serif" font-size="14" lengthAdjust="spacing" textLength="112" x="1645" y="72.1074">AgendaEntryDTO</text><rect fill="#E3E3E3" height="32.6211" rx="2.5" ry="2.5" style="stroke:#181818;stroke-width:0.5;" width="126" x="1638" y="1018.6426"/><text fill="#000000" font-family="sans-serif" font-size="14" lengthAdjust="spacing" textLength="112" x="1645" y="1040.75">AgendaEntryDTO</text><rect fill="#E3E3E3" height="32.6211" rx="2.5" ry="2.5" style="stroke:#181818;stroke-width:0.5;" width="96" x="1933" y="50"/><text fill="#000000" font-family="sans-serif" font-size="14" lengthAdjust="spacing" textLength="82" x="1940" y="72.1074">AgendaEntry</text><rect fill="#E3E3E3" height="32.6211" rx="2.5" ry="2.5" style="stroke:#181818;stroke-width:0.5;" width="96" x="1933" y="1018.6426"/><text fill="#000000" font-family="sans-serif" font-size="14" lengthAdjust="spacing" textLength="82" x="1940" y="1040.75">AgendaEntry</text><rect fill="#FFFFFF" height="908.0215" style="stroke:#181818;stroke-width:1.0;" width="10" x="18.5" y="93.6211"/><rect fill="#FFFFFF" height="394.7832" style="stroke:#181818;stroke-width:1.0;" width="10" x="321.5" y="134.2031"/><rect fill="#FFFFFF" height="31.291" style="stroke:#181818;stroke-width:1.0;" width="10" x="321.5" y="560.2773"/><rect fill="#FFFFFF" height="378.7832" style="stroke:#181818;stroke-width:1.0;" width="10" x="321.5" y="622.8594"/><rect fill="#FFFFFF" height="314.9102" style="stroke:#181818;stroke-width:1.0;" width="10" x="585.5" y="165.4941"/><rect fill="#FFFFFF" height="253.6191" style="stroke:#181818;stroke-width:1.0;" width="10" x="585.5" y="716.7324"/><rect fill="#FFFFFF" height="31.291" style="stroke:#181818;stroke-width:1.0;" width="10" x="708.5" y="196.7852"/><rect fill="#FFFFFF" height="31.291" style="stroke:#181818;stroke-width:1.0;" width="10" x="842" y="259.3672"/><rect fill="#FFFFFF" height="31.291" style="stroke:#181818;stroke-width:1.0;" width="10" x="1011" y="907.7695"/><rect fill="#FFFFFF" height="127.1641" style="stroke:#181818;stroke-width:1.0;" width="10" x="1170" y="321.9492"/><rect fill="#FFFFFF" height="31.291" style="stroke:#181818;stroke-width:1.0;" width="10" x="1413" y="379.5313"/><rect fill="#FFFFFF" height="128.4551" style="stroke:#181818;stroke-width:1.0;" width="10" x="1551" y="748.0234"/><rect fill="#FFFFFF" height="31.291" style="stroke:#181818;stroke-width:1.0;" width="10" x="1696" y="654.1504"/><rect fill="#FFFFFF" height="31.291" style="stroke:#181818;stroke-width:1.0;" width="10" x="1976" y="813.8965"/><polygon fill="#181818" points="309.5,130.2031,319.5,134.2031,309.5,138.2031,313.5,134.2031" style="stroke:#181818;stroke-width:1.0;"/><line style="stroke:#181818;stroke-width:1.0;" x1="28.5" x2="315.5" y1="134.2031" y2="134.2031"/><text fill="#000000" font-family="sans-serif" font-size="13" font-weight="bold" lengthAdjust="spacing" textLength="7" x="35.5" y="120.2949">1</text><text fill="#000000" font-family="sans-serif" font-size="13" lengthAdjust="spacing" textLength="263" x="46.5" y="111.6494">asks to add a new entry from the "To Do List"</text><text fill="#000000" font-family="sans-serif" font-size="13" lengthAdjust="spacing" textLength="81" x="50.5" y="128.9404">to the Agenda</text><polygon fill="#181818" points="573.5,161.4941,583.5,165.4941,573.5,169.4941,577.5,165.4941" style="stroke:#181818;stroke-width:1.0;"/><line style="stroke:#181818;stroke-width:1.0;" x1="331.5" x2="579.5" y1="165.4941" y2="165.4941"/><text fill="#000000" font-family="sans-serif" font-size="13" font-weight="bold" lengthAdjust="spacing" textLength="7" x="338.5" y="160.2314">2</text><text fill="#000000" font-family="sans-serif" font-size="13" lengthAdjust="spacing" textLength="148" x="349.5" y="160.2314">getAvailableToDoEntries()</text><polygon fill="#181818" points="696.5,192.7852,706.5,196.7852,696.5,200.7852,700.5,196.7852" style="stroke:#181818;stroke-width:1.0;"/><line style="stroke:#181818;stroke-width:1.0;" x1="595.5" x2="702.5" y1="196.7852" y2="196.7852"/><text fill="#000000" font-family="sans-serif" font-size="13" font-weight="bold" lengthAdjust="spacing" textLength="7" x="602.5" y="191.5225">3</text><text fill="#000000" font-family="sans-serif" font-size="13" lengthAdjust="spacing" textLength="75" x="613.5" y="191.5225">getInstance()</text><polygon fill="#181818" points="606.5,224.0762,596.5,228.0762,606.5,232.0762,602.5,228.0762" style="stroke:#181818;stroke-width:1.0;"/><line style="stroke:#181818;stroke-width:1.0;stroke-dasharray:2.0,2.0;" x1="600.5" x2="712.5" y1="228.0762" y2="228.0762"/><text fill="#000000" font-family="sans-serif" font-size="13" font-weight="bold" lengthAdjust="spacing" textLength="7" x="612.5" y="222.8135">4</text><text fill="#000000" font-family="sans-serif" font-size="13" lengthAdjust="spacing" textLength="67" x="623.5" y="222.8135">repositories</text><polygon fill="#181818" points="830,255.3672,840,259.3672,830,263.3672,834,259.3672" style="stroke:#181818;stroke-width:1.0;"/><line style="stroke:#181818;stroke-width:1.0;" x1="595.5" x2="836" y1="259.3672" y2="259.3672"/><text fill="#000000" font-family="sans-serif" font-size="13" font-weight="bold" lengthAdjust="spacing" textLength="7" x="602.5" y="254.1045">5</text><text fill="#000000" font-family="sans-serif" font-size="13" lengthAdjust="spacing" textLength="108" x="613.5" y="254.1045">getToDoEntryList()</text><polygon fill="#181818" points="606.5,286.6582,596.5,290.6582,606.5,294.6582,602.5,290.6582" style="stroke:#181818;stroke-width:1.0;"/><line style="stroke:#181818;stroke-width:1.0;stroke-dasharray:2.0,2.0;" x1="600.5" x2="846" y1="290.6582" y2="290.6582"/><text fill="#000000" font-family="sans-serif" font-size="13" font-weight="bold" lengthAdjust="spacing" textLength="7" x="612.5" y="285.3955">6</text><text fill="#000000" font-family="sans-serif" font-size="13" lengthAdjust="spacing" textLength="131" x="623.5" y="285.3955">availableToDoEntryList</text><polygon fill="#181818" points="1158,317.9492,1168,321.9492,1158,325.9492,1162,321.9492" style="stroke:#181818;stroke-width:1.0;"/><line style="stroke:#181818;stroke-width:1.0;" x1="595.5" x2="1164" y1="321.9492" y2="321.9492"/><text fill="#000000" font-family="sans-serif" font-size="13" font-weight="bold" lengthAdjust="spacing" textLength="7" x="602.5" y="316.6865">7</text><text fill="#000000" font-family="sans-serif" font-size="13" lengthAdjust="spacing" textLength="261" x="613.5" y="316.6865">getToDoEntriesDTOs(availableToDoEntryList)</text><path d="M1100,336.9492 L1173,336.9492 L1173,346.2402 L1163,356.2402 L1100,356.2402 L1100,336.9492 " fill="#EEEEEE" style="stroke:#000000;stroke-width:1.5;"/><rect fill="none" height="81.873" style="stroke:#000000;stroke-width:1.5;" width="384" x="1100" y="336.9492"/><text fill="#000000" font-family="sans-serif" font-size="13" font-weight="bold" lengthAdjust="spacing" textLength="28" x="1115" y="351.9775">loop</text><text fill="#000000" font-family="sans-serif" font-size="11" font-weight="bold" lengthAdjust="spacing" textLength="249" x="1188" y="350.8193">[for each toDoEntry in availableToDoEntryList]</text><polygon fill="#181818" points="1401,375.5313,1411,379.5313,1401,383.5313,1405,379.5313" style="stroke:#181818;stroke-width:1.0;"/><line style="stroke:#181818;stroke-width:1.0;" x1="1180" x2="1407" y1="379.5313" y2="379.5313"/><text fill="#000000" font-family="sans-serif" font-size="13" font-weight="bold" lengthAdjust="spacing" textLength="7" x="1187" y="374.2686">8</text><text fill="#000000" font-family="sans-serif" font-size="13" lengthAdjust="spacing" textLength="203" x="1198" y="374.2686">toDoEntryDTO = toDTO(toDoEntry)</text><polygon fill="#181818" points="1191,406.8223,1181,410.8223,1191,414.8223,1187,410.8223" style="stroke:#181818;stroke-width:1.0;"/><line style="stroke:#181818;stroke-width:1.0;stroke-dasharray:2.0,2.0;" x1="1185" x2="1417" y1="410.8223" y2="410.8223"/><text fill="#000000" font-family="sans-serif" font-size="13" font-weight="bold" lengthAdjust="spacing" textLength="7" x="1197" y="405.5596">9</text><text fill="#000000" font-family="sans-serif" font-size="13" lengthAdjust="spacing" textLength="82" x="1208" y="405.5596">toDoentryDTO</text><polygon fill="#181818" points="606.5,445.1133,596.5,449.1133,606.5,453.1133,602.5,449.1133" style="stroke:#181818;stroke-width:1.0;"/><line style="stroke:#181818;stroke-width:1.0;stroke-dasharray:2.0,2.0;" x1="600.5" x2="1174" y1="449.1133" y2="449.1133"/><text fill="#000000" font-family="sans-serif" font-size="13" font-weight="bold" lengthAdjust="spacing" textLength="14" x="612.5" y="443.8506">10</text><text fill="#000000" font-family="sans-serif" font-size="13" lengthAdjust="spacing" textLength="105" x="630.5" y="443.8506">toDoEntryDTOList</text><polygon fill="#181818" points="342.5,476.4043,332.5,480.4043,342.5,484.4043,338.5,480.4043" style="stroke:#181818;stroke-width:1.0;"/><line style="stroke:#181818;stroke-width:1.0;stroke-dasharray:2.0,2.0;" x1="336.5" x2="589.5" y1="480.4043" y2="480.4043"/><text fill="#000000" font-family="sans-serif" font-size="13" font-weight="bold" lengthAdjust="spacing" textLength="14" x="348.5" y="475.1416">11</text><text fill="#000000" font-family="sans-serif" font-size="13" lengthAdjust="spacing" textLength="157" x="366.5" y="475.1416">availableToDoEntryDTOList</text><polygon fill="#181818" points="39.5,524.9863,29.5,528.9863,39.5,532.9863,35.5,528.9863" style="stroke:#181818;stroke-width:1.0;"/><line style="stroke:#181818;stroke-width:1.0;stroke-dasharray:2.0,2.0;" x1="33.5" x2="325.5" y1="528.9863" y2="528.9863"/><text fill="#000000" font-family="sans-serif" font-size="13" font-weight="bold" lengthAdjust="spacing" textLength="14" x="45.5" y="515.0781">12</text><text fill="#000000" font-family="sans-serif" font-size="13" lengthAdjust="spacing" textLength="234" x="63.5" y="506.4326">displays the "To Do List" entries that are</text><text fill="#000000" font-family="sans-serif" font-size="13" lengthAdjust="spacing" textLength="102" x="67.5" y="523.7236">not in the Agenda</text><polygon fill="#181818" points="309.5,556.2773,319.5,560.2773,309.5,564.2773,313.5,560.2773" style="stroke:#181818;stroke-width:1.0;"/><line style="stroke:#181818;stroke-width:1.0;" x1="28.5" x2="315.5" y1="560.2773" y2="560.2773"/><text fill="#000000" font-family="sans-serif" font-size="13" font-weight="bold" lengthAdjust="spacing" textLength="14" x="35.5" y="555.0146">13</text><text fill="#000000" font-family="sans-serif" font-size="13" lengthAdjust="spacing" textLength="143" x="53.5" y="555.0146">selects the desired entry</text><polygon fill="#181818" points="39.5,587.5684,29.5,591.5684,39.5,595.5684,35.5,591.5684" style="stroke:#181818;stroke-width:1.0;"/><line style="stroke:#181818;stroke-width:1.0;" x1="33.5" x2="325.5" y1="591.5684" y2="591.5684"/><text fill="#000000" font-family="sans-serif" font-size="13" font-weight="bold" lengthAdjust="spacing" textLength="14" x="45.5" y="586.3057">14</text><text fill="#000000" font-family="sans-serif" font-size="13" lengthAdjust="spacing" textLength="247" x="63.5" y="586.3057">asks for a date for the entry on the Agenda</text><polygon fill="#181818" points="309.5,618.8594,319.5,622.8594,309.5,626.8594,313.5,622.8594" style="stroke:#181818;stroke-width:1.0;"/><line style="stroke:#181818;stroke-width:1.0;" x1="28.5" x2="315.5" y1="622.8594" y2="622.8594"/><text fill="#000000" font-family="sans-serif" font-size="13" font-weight="bold" lengthAdjust="spacing" textLength="14" x="35.5" y="617.5967">15</text><text fill="#000000" font-family="sans-serif" font-size="13" lengthAdjust="spacing" textLength="144" x="53.5" y="617.5967">selects date for the entry</text><polygon fill="#181818" points="1684,650.1504,1694,654.1504,1684,658.1504,1688,654.1504" style="stroke:#181818;stroke-width:1.0;"/><line style="stroke:#181818;stroke-width:1.0;" x1="331.5" x2="1690" y1="654.1504" y2="654.1504"/><text fill="#000000" font-family="sans-serif" font-size="13" font-weight="bold" lengthAdjust="spacing" textLength="14" x="338.5" y="648.8877">16</text><text fill="#000000" font-family="sans-serif" font-size="13" lengthAdjust="spacing" textLength="161" x="356.5" y="648.8877">create(toDoEntryDTO, date)</text><polygon fill="#181818" points="342.5,681.4414,332.5,685.4414,342.5,689.4414,338.5,685.4414" style="stroke:#181818;stroke-width:1.0;"/><line style="stroke:#181818;stroke-width:1.0;stroke-dasharray:2.0,2.0;" x1="336.5" x2="1700" y1="685.4414" y2="685.4414"/><text fill="#000000" font-family="sans-serif" font-size="13" font-weight="bold" lengthAdjust="spacing" textLength="14" x="348.5" y="680.1787">17</text><text fill="#000000" font-family="sans-serif" font-size="13" lengthAdjust="spacing" textLength="99" x="366.5" y="680.1787">agendaEntryDTO</text><polygon fill="#181818" points="573.5,712.7324,583.5,716.7324,573.5,720.7324,577.5,716.7324" style="stroke:#181818;stroke-width:1.0;"/><line style="stroke:#181818;stroke-width:1.0;" x1="331.5" x2="579.5" y1="716.7324" y2="716.7324"/><text fill="#000000" font-family="sans-serif" font-size="13" font-weight="bold" lengthAdjust="spacing" textLength="14" x="338.5" y="711.4697">18</text><text fill="#000000" font-family="sans-serif" font-size="13" lengthAdjust="spacing" textLength="217" x="356.5" y="711.4697">addEntryToAgenda(agendaEntryDTO)</text><polygon fill="#181818" points="1539,744.0234,1549,748.0234,1539,752.0234,1543,748.0234" style="stroke:#181818;stroke-width:1.0;"/><line style="stroke:#181818;stroke-width:1.0;" x1="595.5" x2="1545" y1="748.0234" y2="748.0234"/><text fill="#000000" font-family="sans-serif" font-size="13" font-weight="bold" lengthAdjust="spacing" textLength="14" x="602.5" y="742.7607">19</text><text fill="#000000" font-family="sans-serif" font-size="13" lengthAdjust="spacing" textLength="152" x="620.5" y="742.7607">toEntity(agendaEntryDTO)</text><polygon fill="#181818" points="1964,809.8965,1974,813.8965,1964,817.8965,1968,813.8965" style="stroke:#181818;stroke-width:1.0;"/><line style="stroke:#181818;stroke-width:1.0;" x1="1561" x2="1970" y1="813.8965" y2="813.8965"/><text fill="#000000" font-family="sans-serif" font-size="13" font-weight="bold" lengthAdjust="spacing" textLength="14" x="1568" y="791.3428">20</text><text fill="#000000" font-family="sans-serif" font-size="13" lengthAdjust="spacing" textLength="378" x="1586" y="774.0518">AgendaEntry(dto.description, dto.greenspace, dto.urgencyDegree</text><text fill="#000000" font-family="sans-serif" font-size="13" lengthAdjust="spacing" textLength="377" x="1586" y="791.3428">, dto.status, dto.expectedDuration, dto.date, dto.associatedTeam</text><text fill="#000000" font-family="sans-serif" font-size="13" lengthAdjust="spacing" textLength="147" x="1586" y="808.6338">, dto.associatedVehicles)</text><polygon fill="#181818" points="1572,841.1875,1562,845.1875,1572,849.1875,1568,845.1875" style="stroke:#181818;stroke-width:1.0;"/><line style="stroke:#181818;stroke-width:1.0;stroke-dasharray:2.0,2.0;" x1="1566" x2="1980" y1="845.1875" y2="845.1875"/><text fill="#000000" font-family="sans-serif" font-size="13" font-weight="bold" lengthAdjust="spacing" textLength="14" x="1578" y="839.9248">21</text><text fill="#000000" font-family="sans-serif" font-size="13" lengthAdjust="spacing" textLength="73" x="1596" y="839.9248">agendaEntry</text><polygon fill="#181818" points="606.5,872.4785,596.5,876.4785,606.5,880.4785,602.5,876.4785" style="stroke:#181818;stroke-width:1.0;"/><line style="stroke:#181818;stroke-width:1.0;stroke-dasharray:2.0,2.0;" x1="600.5" x2="1555" y1="876.4785" y2="876.4785"/><text fill="#000000" font-family="sans-serif" font-size="13" font-weight="bold" lengthAdjust="spacing" textLength="14" x="612.5" y="871.2158">22</text><text fill="#000000" font-family="sans-serif" font-size="13" lengthAdjust="spacing" textLength="73" x="630.5" y="871.2158">agendaEntry</text><polygon fill="#181818" points="999,903.7695,1009,907.7695,999,911.7695,1003,907.7695" style="stroke:#181818;stroke-width:1.0;"/><line style="stroke:#181818;stroke-width:1.0;" x1="595.5" x2="1005" y1="907.7695" y2="907.7695"/><text fill="#000000" font-family="sans-serif" font-size="13" font-weight="bold" lengthAdjust="spacing" textLength="14" x="602.5" y="902.5068">23</text><text fill="#000000" font-family="sans-serif" font-size="13" lengthAdjust="spacing" textLength="191" x="620.5" y="902.5068">addEntryToAgenda(agendaEntry)</text><polygon fill="#181818" points="606.5,935.0605,596.5,939.0605,606.5,943.0605,602.5,939.0605" style="stroke:#181818;stroke-width:1.0;"/><line style="stroke:#181818;stroke-width:1.0;stroke-dasharray:2.0,2.0;" x1="600.5" x2="1015" y1="939.0605" y2="939.0605"/><text fill="#000000" font-family="sans-serif" font-size="13" font-weight="bold" lengthAdjust="spacing" textLength="14" x="612.5" y="933.7979">24</text><text fill="#000000" font-family="sans-serif" font-size="13" lengthAdjust="spacing" textLength="87" x="630.5" y="933.7979">success/failure</text><polygon fill="#181818" points="342.5,966.3516,332.5,970.3516,342.5,974.3516,338.5,970.3516" style="stroke:#181818;stroke-width:1.0;"/><line style="stroke:#181818;stroke-width:1.0;stroke-dasharray:2.0,2.0;" x1="336.5" x2="589.5" y1="970.3516" y2="970.3516"/><text fill="#000000" font-family="sans-serif" font-size="13" font-weight="bold" lengthAdjust="spacing" textLength="14" x="348.5" y="965.0889">25</text><text fill="#000000" font-family="sans-serif" font-size="13" lengthAdjust="spacing" textLength="190" x="366.5" y="965.0889">displays message of (in)success</text><polygon fill="#181818" points="34.5,997.6426,24.5,1001.6426,34.5,1005.6426,30.5,1001.6426" style="stroke:#181818;stroke-width:1.0;"/><line style="stroke:#181818;stroke-width:1.0;stroke-dasharray:2.0,2.0;" x1="28.5" x2="325.5" y1="1001.6426" y2="1001.6426"/><text fill="#000000" font-family="sans-serif" font-size="13" font-weight="bold" lengthAdjust="spacing" textLength="14" x="40.5" y="996.3799">26</text><text fill="#000000" font-family="sans-serif" font-size="13" lengthAdjust="spacing" textLength="190" x="58.5" y="996.3799">displays message of (in)success</text><!--SRC=[fLPBRzim3BxdLn0vkS2otOrjGB4KHO4M1TfqfrnKcqc4s98XoUtyxqV9jIpvaQIeJnP5VNpge_IHYuefLa8fXSmEIfO8HjMuq7wdOjcHxV7PD0M2mimmiIz21NrWkNpdOWyxLcXSB5XjfAZBLrJqdncfO7dx_B04fk6ch0hP82xegE4PhvWmi4olzoXoTljovvHUxYQt_qXXb2mAL4xhp-RfVg3tX9NKd0nor4x72vfdRhqcl-8Z6xcMDmJRz9fRaPgnrC5jc3vQKOpHUZVGJxU2JScNC_OVM5LHO3ExwytZSjPeTzJcchynWtsM5q1VjuBLRqejf1J9KOEHmF8S60Xy1xGuiAFoWpcWDGnh2VTSc-LMM5KhRKqwI6-9IkK4zYDiic3BGZRsQAxV62_OQu5T65ILvCghUmnNI2-sdyCWh8dojT1tGbCRPXZ0HP1JTOyqxJU5llg88ALExtifEfhZvMQwGBh6QRttPRK9dWl1zzh8Rm-swjFDXhbss7D-JsDtpewQClQQya7jg9DfapFHZ1izqYkah617H44-7i1VF-3YaiXSKc9yb_JWzgGzAAtWbrrk7XCll1e1ziaA3iwRjQYhq6ZhHsiNvuw7DPapGvSkJjOeLD-pOOmdwnyZJBM1vufH-eVO0MvyaoqV48oddnHohgk2DNf4Cew0gB5eWnbW2ebrX3Is_WFc2Qnrt3FYDuq5ZQdMIewQAynRXZl7NO6hZYDjHpB8hRBzjNWjKyel-JK6FETOmFQsqLB8599c4XRycyETuDVuS8ZySxKQGxDfzI300U3q0A3XuZGsibLFOjnFpO69QGSqf6dDJJCB71FGrC0SNiUHpY3t55QmId8ZlrD_POfNXaj11I31NY4AJOycRDUreXDPiqQxiVrGekbbQjt-ux-AkWBpTQrO3sDhsVunhMN6QPbla9KTGY_zYmUU5QXFK5ZWzAcOtNKTvo1gYLCKTg6P0MsTm0-mpzPlgbSkU8wTwTGBkkcIDzye7P_rCaYMhhCCjVwn8sAk5LwIi4-x6Cy0JzibsQNZ87UGS77ruScN9i49o06b1al_llqF]--></g></svg>