<?xml version="1.0" encoding="us-ascii" standalone="no"?><svg xmlns="http://www.w3.org/2000/svg" xmlns:xlink="http://www.w3.org/1999/xlink" contentStyleType="text/css" height="893px" preserveAspectRatio="none" style="width:1479px;height:893px;background:#FFFFFF;" version="1.1" viewBox="0 0 1479 893" width="1479px" zoomAndPan="magnify"><defs/><g><text fill="#000000" font-family="sans-serif" font-size="14" font-weight="bold" lengthAdjust="spacing" textLength="99" x="683.25" y="25.1074">Class Diagram</text><!--class ToDoEntry--><g id="elem_ToDoEntry"><rect codeLine="8" fill="#F1F1F1" height="141.1055" id="ToDoEntry" rx="2.5" ry="2.5" style="stroke:#181818;stroke-width:0.5;" width="123" x="1109" y="46.6211"/><ellipse cx="1134.35" cy="62.6211" fill="#ADD1B2" rx="11" ry="11" style="stroke:#181818;stroke-width:1.0;"/><path d="M1137.1156,58.4961 Q1137.2719,58.2773 1137.4594,58.168 Q1137.6469,58.0586 1137.8656,58.0586 Q1138.2406,58.0586 1138.475,58.3242 Q1138.7094,58.5742 1138.7094,59.1836 L1138.7094,60.6367 Q1138.7094,61.2461 1138.475,61.5117 Q1138.2406,61.7773 1137.8656,61.7773 Q1137.5219,61.7773 1137.3188,61.5742 Q1137.1156,61.3867 1137.0063,60.8711 Q1136.9594,60.5117 1136.7719,60.3242 Q1136.4438,59.9492 1135.8344,59.7305 Q1135.225,59.5117 1134.6,59.5117 Q1133.8344,59.5117 1133.1938,59.8398 Q1132.5688,60.168 1132.0688,60.918 Q1131.5844,61.668 1131.5844,62.6992 L1131.5844,63.793 Q1131.5844,65.0273 1132.475,65.8555 Q1133.3656,66.668 1134.9594,66.668 Q1135.8969,66.668 1136.5531,66.418 Q1136.9438,66.2617 1137.3656,65.8242 Q1137.6313,65.5586 1137.7719,65.4805 Q1137.9281,65.4023 1138.1313,65.4023 Q1138.4594,65.4023 1138.7094,65.668 Q1138.975,65.918 1138.975,66.2617 Q1138.975,66.6055 1138.6313,67.0117 Q1138.1313,67.5898 1137.3344,67.918 Q1136.2563,68.3711 1134.9594,68.3711 Q1133.4438,68.3711 1132.2406,67.7461 Q1131.2563,67.2461 1130.5688,66.1836 Q1129.8813,65.1055 1129.8813,63.8242 L1129.8813,62.668 Q1129.8813,61.3398 1130.4906,60.1992 Q1131.1156,59.043 1132.2094,58.4336 Q1133.3031,57.8086 1134.5375,57.8086 Q1135.2719,57.8086 1135.9125,57.9805 Q1136.5688,58.1367 1137.1156,58.4961 Z " fill="#000000"/><text fill="#000000" font-family="sans-serif" font-size="14" lengthAdjust="spacing" textLength="68" x="1150.65" y="68.418">ToDoEntry</text><line style="stroke:#181818;stroke-width:0.5;" x1="1110" x2="1231" y1="78.6211" y2="78.6211"/><text fill="#000000" font-family="sans-serif" font-size="14" lengthAdjust="spacing" textLength="77" x="1115" y="97.7285">greenSpace</text><text fill="#000000" font-family="sans-serif" font-size="14" lengthAdjust="spacing" textLength="69" x="1115" y="116.3496">description</text><text fill="#000000" font-family="sans-serif" font-size="14" lengthAdjust="spacing" textLength="98" x="1115" y="134.9707">urgencyDegree</text><text fill="#000000" font-family="sans-serif" font-size="14" lengthAdjust="spacing" textLength="38" x="1115" y="153.5918">status</text><text fill="#000000" font-family="sans-serif" font-size="14" lengthAdjust="spacing" textLength="111" x="1115" y="172.2129">expectedDuration</text><line style="stroke:#181818;stroke-width:0.5;" x1="1110" x2="1231" y1="179.7266" y2="179.7266"/></g><!--class AgendaEntry--><g id="elem_AgendaEntry"><rect codeLine="16" fill="#F1F1F1" height="103.8633" id="AgendaEntry" rx="2.5" ry="2.5" style="stroke:#181818;stroke-width:0.5;" width="133" x="1104" y="322.6211"/><ellipse cx="1127.55" cy="338.6211" fill="#ADD1B2" rx="11" ry="11" style="stroke:#181818;stroke-width:1.0;"/><path d="M1130.3156,334.4961 Q1130.4719,334.2773 1130.6594,334.168 Q1130.8469,334.0586 1131.0656,334.0586 Q1131.4406,334.0586 1131.675,334.3242 Q1131.9094,334.5742 1131.9094,335.1836 L1131.9094,336.6367 Q1131.9094,337.2461 1131.675,337.5117 Q1131.4406,337.7773 1131.0656,337.7773 Q1130.7219,337.7773 1130.5188,337.5742 Q1130.3156,337.3867 1130.2063,336.8711 Q1130.1594,336.5117 1129.9719,336.3242 Q1129.6438,335.9492 1129.0344,335.7305 Q1128.425,335.5117 1127.8,335.5117 Q1127.0344,335.5117 1126.3938,335.8398 Q1125.7688,336.168 1125.2688,336.918 Q1124.7844,337.668 1124.7844,338.6992 L1124.7844,339.793 Q1124.7844,341.0273 1125.675,341.8555 Q1126.5656,342.668 1128.1594,342.668 Q1129.0969,342.668 1129.7531,342.418 Q1130.1438,342.2617 1130.5656,341.8242 Q1130.8313,341.5586 1130.9719,341.4805 Q1131.1281,341.4023 1131.3313,341.4023 Q1131.6594,341.4023 1131.9094,341.668 Q1132.175,341.918 1132.175,342.2617 Q1132.175,342.6055 1131.8313,343.0117 Q1131.3313,343.5898 1130.5344,343.918 Q1129.4563,344.3711 1128.1594,344.3711 Q1126.6438,344.3711 1125.4406,343.7461 Q1124.4563,343.2461 1123.7688,342.1836 Q1123.0813,341.1055 1123.0813,339.8242 L1123.0813,338.668 Q1123.0813,337.3398 1123.6906,336.1992 Q1124.3156,335.043 1125.4094,334.4336 Q1126.5031,333.8086 1127.7375,333.8086 Q1128.4719,333.8086 1129.1125,333.9805 Q1129.7688,334.1367 1130.3156,334.4961 Z " fill="#000000"/><text fill="#000000" font-family="sans-serif" font-size="14" lengthAdjust="spacing" textLength="82" x="1143.45" y="344.418">AgendaEntry</text><line style="stroke:#181818;stroke-width:0.5;" x1="1105" x2="1236" y1="354.6211" y2="354.6211"/><text fill="#000000" font-family="sans-serif" font-size="14" lengthAdjust="spacing" textLength="28" x="1110" y="373.7285">date</text><text fill="#000000" font-family="sans-serif" font-size="14" lengthAdjust="spacing" textLength="104" x="1110" y="392.3496">associatedTeam</text><text fill="#000000" font-family="sans-serif" font-size="14" lengthAdjust="spacing" textLength="121" x="1110" y="410.9707">associatedVehicles</text><line style="stroke:#181818;stroke-width:0.5;" x1="1105" x2="1236" y1="418.4844" y2="418.4844"/></g><!--class AgendaEntryDTO--><g id="elem_AgendaEntryDTO"><rect codeLine="22" fill="#F1F1F1" height="122.4844" id="AgendaEntryDTO" rx="2.5" ry="2.5" style="stroke:#181818;stroke-width:0.5;" width="144" x="845.5" y="56.1211"/><ellipse cx="860.5" cy="72.1211" fill="#ADD1B2" rx="11" ry="11" style="stroke:#181818;stroke-width:1.0;"/><path d="M863.2656,67.9961 Q863.4219,67.7773 863.6094,67.668 Q863.7969,67.5586 864.0156,67.5586 Q864.3906,67.5586 864.625,67.8242 Q864.8594,68.0742 864.8594,68.6836 L864.8594,70.1367 Q864.8594,70.7461 864.625,71.0117 Q864.3906,71.2773 864.0156,71.2773 Q863.6719,71.2773 863.4688,71.0742 Q863.2656,70.8867 863.1563,70.3711 Q863.1094,70.0117 862.9219,69.8242 Q862.5938,69.4492 861.9844,69.2305 Q861.375,69.0117 860.75,69.0117 Q859.9844,69.0117 859.3438,69.3398 Q858.7188,69.668 858.2188,70.418 Q857.7344,71.168 857.7344,72.1992 L857.7344,73.293 Q857.7344,74.5273 858.625,75.3555 Q859.5156,76.168 861.1094,76.168 Q862.0469,76.168 862.7031,75.918 Q863.0938,75.7617 863.5156,75.3242 Q863.7813,75.0586 863.9219,74.9805 Q864.0781,74.9023 864.2813,74.9023 Q864.6094,74.9023 864.8594,75.168 Q865.125,75.418 865.125,75.7617 Q865.125,76.1055 864.7813,76.5117 Q864.2813,77.0898 863.4844,77.418 Q862.4063,77.8711 861.1094,77.8711 Q859.5938,77.8711 858.3906,77.2461 Q857.4063,76.7461 856.7188,75.6836 Q856.0313,74.6055 856.0313,73.3242 L856.0313,72.168 Q856.0313,70.8398 856.6406,69.6992 Q857.2656,68.543 858.3594,67.9336 Q859.4531,67.3086 860.6875,67.3086 Q861.4219,67.3086 862.0625,67.4805 Q862.7188,67.6367 863.2656,67.9961 Z " fill="#000000"/><text fill="#000000" font-family="sans-serif" font-size="14" lengthAdjust="spacing" textLength="112" x="874.5" y="77.918">AgendaEntryDTO</text><line style="stroke:#181818;stroke-width:0.5;" x1="846.5" x2="988.5" y1="88.1211" y2="88.1211"/><text fill="#000000" font-family="sans-serif" font-size="14" lengthAdjust="spacing" textLength="45" x="851.5" y="107.2285">entryID</text><text fill="#000000" font-family="sans-serif" font-size="14" lengthAdjust="spacing" textLength="69" x="851.5" y="125.8496">description</text><text fill="#000000" font-family="sans-serif" font-size="14" lengthAdjust="spacing" textLength="81" x="851.5" y="144.4707">plannedDate</text><text fill="#000000" font-family="sans-serif" font-size="14" lengthAdjust="spacing" textLength="38" x="851.5" y="163.0918">status</text><line style="stroke:#181818;stroke-width:0.5;" x1="846.5" x2="988.5" y1="170.6055" y2="170.6055"/></g><!--class SystemUser--><g id="elem_SystemUser"><rect codeLine="29" fill="#F1F1F1" height="122.4844" id="SystemUser" rx="2.5" ry="2.5" style="stroke:#181818;stroke-width:0.5;" width="107" x="9" y="56.1211"/><ellipse cx="24" cy="72.1211" fill="#ADD1B2" rx="11" ry="11" style="stroke:#181818;stroke-width:1.0;"/><path d="M26.7656,67.9961 Q26.9219,67.7773 27.1094,67.668 Q27.2969,67.5586 27.5156,67.5586 Q27.8906,67.5586 28.125,67.8242 Q28.3594,68.0742 28.3594,68.6836 L28.3594,70.1367 Q28.3594,70.7461 28.125,71.0117 Q27.8906,71.2773 27.5156,71.2773 Q27.1719,71.2773 26.9688,71.0742 Q26.7656,70.8867 26.6563,70.3711 Q26.6094,70.0117 26.4219,69.8242 Q26.0938,69.4492 25.4844,69.2305 Q24.875,69.0117 24.25,69.0117 Q23.4844,69.0117 22.8438,69.3398 Q22.2188,69.668 21.7188,70.418 Q21.2344,71.168 21.2344,72.1992 L21.2344,73.293 Q21.2344,74.5273 22.125,75.3555 Q23.0156,76.168 24.6094,76.168 Q25.5469,76.168 26.2031,75.918 Q26.5938,75.7617 27.0156,75.3242 Q27.2813,75.0586 27.4219,74.9805 Q27.5781,74.9023 27.7813,74.9023 Q28.1094,74.9023 28.3594,75.168 Q28.625,75.418 28.625,75.7617 Q28.625,76.1055 28.2813,76.5117 Q27.7813,77.0898 26.9844,77.418 Q25.9063,77.8711 24.6094,77.8711 Q23.0938,77.8711 21.8906,77.2461 Q20.9063,76.7461 20.2188,75.6836 Q19.5313,74.6055 19.5313,73.3242 L19.5313,72.168 Q19.5313,70.8398 20.1406,69.6992 Q20.7656,68.543 21.8594,67.9336 Q22.9531,67.3086 24.1875,67.3086 Q24.9219,67.3086 25.5625,67.4805 Q26.2188,67.6367 26.7656,67.9961 Z " fill="#000000"/><text fill="#000000" font-family="sans-serif" font-size="14" lengthAdjust="spacing" textLength="75" x="38" y="77.918">SystemUser</text><line style="stroke:#181818;stroke-width:0.5;" x1="10" x2="115" y1="88.1211" y2="88.1211"/><text fill="#000000" font-family="sans-serif" font-size="14" lengthAdjust="spacing" textLength="35" x="15" y="107.2285">name</text><text fill="#000000" font-family="sans-serif" font-size="14" lengthAdjust="spacing" textLength="33" x="15" y="125.8496">email</text><text fill="#000000" font-family="sans-serif" font-size="14" lengthAdjust="spacing" textLength="60" x="15" y="144.4707">password</text><text fill="#000000" font-family="sans-serif" font-size="14" lengthAdjust="spacing" textLength="40" x="15" y="163.0918">phone</text><line style="stroke:#181818;stroke-width:0.5;" x1="10" x2="115" y1="170.6055" y2="170.6055"/></g><!--class ToDoEntryDTO--><g id="elem_ToDoEntryDTO"><rect codeLine="36" fill="#F1F1F1" height="141.1055" id="ToDoEntryDTO" rx="2.5" ry="2.5" style="stroke:#181818;stroke-width:0.5;" width="130" x="1307.5" y="46.6211"/><ellipse cx="1322.5" cy="62.6211" fill="#ADD1B2" rx="11" ry="11" style="stroke:#181818;stroke-width:1.0;"/><path d="M1325.2656,58.4961 Q1325.4219,58.2773 1325.6094,58.168 Q1325.7969,58.0586 1326.0156,58.0586 Q1326.3906,58.0586 1326.625,58.3242 Q1326.8594,58.5742 1326.8594,59.1836 L1326.8594,60.6367 Q1326.8594,61.2461 1326.625,61.5117 Q1326.3906,61.7773 1326.0156,61.7773 Q1325.6719,61.7773 1325.4688,61.5742 Q1325.2656,61.3867 1325.1563,60.8711 Q1325.1094,60.5117 1324.9219,60.3242 Q1324.5938,59.9492 1323.9844,59.7305 Q1323.375,59.5117 1322.75,59.5117 Q1321.9844,59.5117 1321.3438,59.8398 Q1320.7188,60.168 1320.2188,60.918 Q1319.7344,61.668 1319.7344,62.6992 L1319.7344,63.793 Q1319.7344,65.0273 1320.625,65.8555 Q1321.5156,66.668 1323.1094,66.668 Q1324.0469,66.668 1324.7031,66.418 Q1325.0938,66.2617 1325.5156,65.8242 Q1325.7813,65.5586 1325.9219,65.4805 Q1326.0781,65.4023 1326.2813,65.4023 Q1326.6094,65.4023 1326.8594,65.668 Q1327.125,65.918 1327.125,66.2617 Q1327.125,66.6055 1326.7813,67.0117 Q1326.2813,67.5898 1325.4844,67.918 Q1324.4063,68.3711 1323.1094,68.3711 Q1321.5938,68.3711 1320.3906,67.7461 Q1319.4063,67.2461 1318.7188,66.1836 Q1318.0313,65.1055 1318.0313,63.8242 L1318.0313,62.668 Q1318.0313,61.3398 1318.6406,60.1992 Q1319.2656,59.043 1320.3594,58.4336 Q1321.4531,57.8086 1322.6875,57.8086 Q1323.4219,57.8086 1324.0625,57.9805 Q1324.7188,58.1367 1325.2656,58.4961 Z " fill="#000000"/><text fill="#000000" font-family="sans-serif" font-size="14" lengthAdjust="spacing" textLength="98" x="1336.5" y="68.418">ToDoEntryDTO</text><line style="stroke:#181818;stroke-width:0.5;" x1="1308.5" x2="1436.5" y1="78.6211" y2="78.6211"/><text fill="#000000" font-family="sans-serif" font-size="14" lengthAdjust="spacing" textLength="77" x="1313.5" y="97.7285">greenSpace</text><text fill="#000000" font-family="sans-serif" font-size="14" lengthAdjust="spacing" textLength="69" x="1313.5" y="116.3496">description</text><text fill="#000000" font-family="sans-serif" font-size="14" lengthAdjust="spacing" textLength="98" x="1313.5" y="134.9707">urgencyDegree</text><text fill="#000000" font-family="sans-serif" font-size="14" lengthAdjust="spacing" textLength="38" x="1313.5" y="153.5918">status</text><text fill="#000000" font-family="sans-serif" font-size="14" lengthAdjust="spacing" textLength="111" x="1313.5" y="172.2129">expectedDuration</text><line style="stroke:#181818;stroke-width:0.5;" x1="1308.5" x2="1436.5" y1="179.7266" y2="179.7266"/></g><!--class ToDoEntryRepository--><g id="elem_ToDoEntryRepository"><rect codeLine="44" fill="#F1F1F1" height="85.2422" id="ToDoEntryRepository" rx="2.5" ry="2.5" style="stroke:#181818;stroke-width:0.5;" width="275" x="435" y="792.1211"/><ellipse cx="500.25" cy="808.1211" fill="#ADD1B2" rx="11" ry="11" style="stroke:#181818;stroke-width:1.0;"/><path d="M503.0156,803.9961 Q503.1719,803.7773 503.3594,803.668 Q503.5469,803.5586 503.7656,803.5586 Q504.1406,803.5586 504.375,803.8242 Q504.6094,804.0742 504.6094,804.6836 L504.6094,806.1367 Q504.6094,806.7461 504.375,807.0117 Q504.1406,807.2773 503.7656,807.2773 Q503.4219,807.2773 503.2188,807.0742 Q503.0156,806.8867 502.9063,806.3711 Q502.8594,806.0117 502.6719,805.8242 Q502.3438,805.4492 501.7344,805.2305 Q501.125,805.0117 500.5,805.0117 Q499.7344,805.0117 499.0938,805.3398 Q498.4688,805.668 497.9688,806.418 Q497.4844,807.168 497.4844,808.1992 L497.4844,809.293 Q497.4844,810.5273 498.375,811.3555 Q499.2656,812.168 500.8594,812.168 Q501.7969,812.168 502.4531,811.918 Q502.8438,811.7617 503.2656,811.3242 Q503.5313,811.0586 503.6719,810.9805 Q503.8281,810.9023 504.0313,810.9023 Q504.3594,810.9023 504.6094,811.168 Q504.875,811.418 504.875,811.7617 Q504.875,812.1055 504.5313,812.5117 Q504.0313,813.0898 503.2344,813.418 Q502.1563,813.8711 500.8594,813.8711 Q499.3438,813.8711 498.1406,813.2461 Q497.1563,812.7461 496.4688,811.6836 Q495.7813,810.6055 495.7813,809.3242 L495.7813,808.168 Q495.7813,806.8398 496.3906,805.6992 Q497.0156,804.543 498.1094,803.9336 Q499.2031,803.3086 500.4375,803.3086 Q501.1719,803.3086 501.8125,803.4805 Q502.4688,803.6367 503.0156,803.9961 Z " fill="#000000"/><text fill="#000000" font-family="sans-serif" font-size="14" lengthAdjust="spacing" textLength="136" x="520.75" y="813.918">ToDoEntryRepository</text><line style="stroke:#181818;stroke-width:0.5;" x1="436" x2="709" y1="824.1211" y2="824.1211"/><text fill="#000000" font-family="sans-serif" font-size="14" lengthAdjust="spacing" textLength="223" x="441" y="843.2285">-ArrayList&lt;ToDoEntry&gt; toDoEntries</text><line style="stroke:#181818;stroke-width:0.5;" x1="436" x2="709" y1="850.7422" y2="850.7422"/><text fill="#000000" font-family="sans-serif" font-size="14" lengthAdjust="spacing" textLength="263" x="441" y="869.8496">+getToDoEntryListByStatus(email, status)</text></g><!--class AgendaEntryRepository--><g id="elem_AgendaEntryRepository"><rect codeLine="49" fill="#F1F1F1" height="103.8633" id="AgendaEntryRepository" rx="2.5" ry="2.5" style="stroke:#181818;stroke-width:0.5;" width="267" x="799" y="782.6211"/><ellipse cx="853.25" cy="798.6211" fill="#ADD1B2" rx="11" ry="11" style="stroke:#181818;stroke-width:1.0;"/><path d="M856.0156,794.4961 Q856.1719,794.2773 856.3594,794.168 Q856.5469,794.0586 856.7656,794.0586 Q857.1406,794.0586 857.375,794.3242 Q857.6094,794.5742 857.6094,795.1836 L857.6094,796.6367 Q857.6094,797.2461 857.375,797.5117 Q857.1406,797.7773 856.7656,797.7773 Q856.4219,797.7773 856.2188,797.5742 Q856.0156,797.3867 855.9063,796.8711 Q855.8594,796.5117 855.6719,796.3242 Q855.3438,795.9492 854.7344,795.7305 Q854.125,795.5117 853.5,795.5117 Q852.7344,795.5117 852.0938,795.8398 Q851.4688,796.168 850.9688,796.918 Q850.4844,797.668 850.4844,798.6992 L850.4844,799.793 Q850.4844,801.0273 851.375,801.8555 Q852.2656,802.668 853.8594,802.668 Q854.7969,802.668 855.4531,802.418 Q855.8438,802.2617 856.2656,801.8242 Q856.5313,801.5586 856.6719,801.4805 Q856.8281,801.4023 857.0313,801.4023 Q857.3594,801.4023 857.6094,801.668 Q857.875,801.918 857.875,802.2617 Q857.875,802.6055 857.5313,803.0117 Q857.0313,803.5898 856.2344,803.918 Q855.1563,804.3711 853.8594,804.3711 Q852.3438,804.3711 851.1406,803.7461 Q850.1563,803.2461 849.4688,802.1836 Q848.7813,801.1055 848.7813,799.8242 L848.7813,798.668 Q848.7813,797.3398 849.3906,796.1992 Q850.0156,795.043 851.1094,794.4336 Q852.2031,793.8086 853.4375,793.8086 Q854.1719,793.8086 854.8125,793.9805 Q855.4688,794.1367 856.0156,794.4961 Z " fill="#000000"/><text fill="#000000" font-family="sans-serif" font-size="14" lengthAdjust="spacing" textLength="150" x="873.75" y="804.418">AgendaEntryRepository</text><line style="stroke:#181818;stroke-width:0.5;" x1="800" x2="1065" y1="814.6211" y2="814.6211"/><text fill="#000000" font-family="sans-serif" font-size="14" lengthAdjust="spacing" textLength="255" x="805" y="833.7285">-ArrayList&lt;AgendaEntry&gt; agendaEntries</text><line style="stroke:#181818;stroke-width:0.5;" x1="800" x2="1065" y1="841.2422" y2="841.2422"/><text fill="#000000" font-family="sans-serif" font-size="14" lengthAdjust="spacing" textLength="131" x="805" y="860.3496">+getAgendaEntries()</text><text fill="#000000" font-family="sans-serif" font-size="14" lengthAdjust="spacing" textLength="223" x="805" y="878.9707">+addEntryToAgenda(AgendaEntry)</text></g><!--class Repositories--><g id="elem_Repositories"><rect codeLine="55" fill="#F1F1F1" height="159.7266" id="Repositories" rx="2.5" ry="2.5" style="stroke:#181818;stroke-width:0.5;" width="200" x="583.5" y="561.6211"/><ellipse cx="639.75" cy="577.6211" fill="#ADD1B2" rx="11" ry="11" style="stroke:#181818;stroke-width:1.0;"/><path d="M642.5156,573.4961 Q642.6719,573.2773 642.8594,573.168 Q643.0469,573.0586 643.2656,573.0586 Q643.6406,573.0586 643.875,573.3242 Q644.1094,573.5742 644.1094,574.1836 L644.1094,575.6367 Q644.1094,576.2461 643.875,576.5117 Q643.6406,576.7773 643.2656,576.7773 Q642.9219,576.7773 642.7188,576.5742 Q642.5156,576.3867 642.4063,575.8711 Q642.3594,575.5117 642.1719,575.3242 Q641.8438,574.9492 641.2344,574.7305 Q640.625,574.5117 640,574.5117 Q639.2344,574.5117 638.5938,574.8398 Q637.9688,575.168 637.4688,575.918 Q636.9844,576.668 636.9844,577.6992 L636.9844,578.793 Q636.9844,580.0273 637.875,580.8555 Q638.7656,581.668 640.3594,581.668 Q641.2969,581.668 641.9531,581.418 Q642.3438,581.2617 642.7656,580.8242 Q643.0313,580.5586 643.1719,580.4805 Q643.3281,580.4023 643.5313,580.4023 Q643.8594,580.4023 644.1094,580.668 Q644.375,580.918 644.375,581.2617 Q644.375,581.6055 644.0313,582.0117 Q643.5313,582.5898 642.7344,582.918 Q641.6563,583.3711 640.3594,583.3711 Q638.8438,583.3711 637.6406,582.7461 Q636.6563,582.2461 635.9688,581.1836 Q635.2813,580.1055 635.2813,578.8242 L635.2813,577.668 Q635.2813,576.3398 635.8906,575.1992 Q636.5156,574.043 637.6094,573.4336 Q638.7031,572.8086 639.9375,572.8086 Q640.6719,572.8086 641.3125,572.9805 Q641.9688,573.1367 642.5156,573.4961 Z " fill="#000000"/><text fill="#000000" font-family="sans-serif" font-size="14" lengthAdjust="spacing" textLength="79" x="660.25" y="583.418">Repositories</text><line style="stroke:#181818;stroke-width:0.5;" x1="584.5" x2="782.5" y1="593.6211" y2="593.6211"/><text fill="#000000" font-family="sans-serif" font-size="14" lengthAdjust="spacing" textLength="154" x="589.5" y="612.7285">-agendaEntryRepository</text><text fill="#000000" font-family="sans-serif" font-size="14" lengthAdjust="spacing" textLength="136" x="589.5" y="631.3496">-toDoEntryRepository</text><line style="stroke:#181818;stroke-width:0.5;" x1="584.5" x2="782.5" y1="638.8633" y2="638.8633"/><text fill="#000000" font-family="sans-serif" font-size="14" lengthAdjust="spacing" textLength="94" x="589.5" y="657.9707">-Repositories()</text><text fill="#000000" font-family="sans-serif" font-size="14" lengthAdjust="spacing" textLength="91" x="589.5" y="676.5918">+getInstance()</text><text fill="#000000" font-family="sans-serif" font-size="14" lengthAdjust="spacing" textLength="188" x="589.5" y="695.2129">+getAgendaEntryRepository()</text><text fill="#000000" font-family="sans-serif" font-size="14" lengthAdjust="spacing" textLength="174" x="589.5" y="713.834">+getToDoEntryRepository()</text></g><!--class AgendaEntryMapper--><g id="elem_AgendaEntryMapper"><rect codeLine="65" fill="#F1F1F1" height="103.8633" id="AgendaEntryMapper" rx="2.5" ry="2.5" style="stroke:#181818;stroke-width:0.5;" width="214" x="810.5" y="322.6211"/><ellipse cx="848.9" cy="338.6211" fill="#ADD1B2" rx="11" ry="11" style="stroke:#181818;stroke-width:1.0;"/><path d="M851.6656,334.4961 Q851.8219,334.2773 852.0094,334.168 Q852.1969,334.0586 852.4156,334.0586 Q852.7906,334.0586 853.025,334.3242 Q853.2594,334.5742 853.2594,335.1836 L853.2594,336.6367 Q853.2594,337.2461 853.025,337.5117 Q852.7906,337.7773 852.4156,337.7773 Q852.0719,337.7773 851.8688,337.5742 Q851.6656,337.3867 851.5563,336.8711 Q851.5094,336.5117 851.3219,336.3242 Q850.9938,335.9492 850.3844,335.7305 Q849.775,335.5117 849.15,335.5117 Q848.3844,335.5117 847.7438,335.8398 Q847.1188,336.168 846.6188,336.918 Q846.1344,337.668 846.1344,338.6992 L846.1344,339.793 Q846.1344,341.0273 847.025,341.8555 Q847.9156,342.668 849.5094,342.668 Q850.4469,342.668 851.1031,342.418 Q851.4938,342.2617 851.9156,341.8242 Q852.1813,341.5586 852.3219,341.4805 Q852.4781,341.4023 852.6813,341.4023 Q853.0094,341.4023 853.2594,341.668 Q853.525,341.918 853.525,342.2617 Q853.525,342.6055 853.1813,343.0117 Q852.6813,343.5898 851.8844,343.918 Q850.8063,344.3711 849.5094,344.3711 Q847.9938,344.3711 846.7906,343.7461 Q845.8063,343.2461 845.1188,342.1836 Q844.4313,341.1055 844.4313,339.8242 L844.4313,338.668 Q844.4313,337.3398 845.0406,336.1992 Q845.6656,335.043 846.7594,334.4336 Q847.8531,333.8086 849.0875,333.8086 Q849.8219,333.8086 850.4625,333.9805 Q851.1188,334.1367 851.6656,334.4961 Z " fill="#000000"/><text fill="#000000" font-family="sans-serif" font-size="14" lengthAdjust="spacing" textLength="130" x="868.1" y="344.418">AgendaEntryMapper</text><line style="stroke:#181818;stroke-width:0.5;" x1="811.5" x2="1023.5" y1="354.6211" y2="354.6211"/><line style="stroke:#181818;stroke-width:0.5;" x1="811.5" x2="1023.5" y1="362.6211" y2="362.6211"/><text fill="#000000" font-family="sans-serif" font-size="14" lengthAdjust="spacing" textLength="141" x="816.5" y="381.7285">+toDTO(agendaEntry)</text><text fill="#000000" font-family="sans-serif" font-size="14" lengthAdjust="spacing" textLength="176" x="816.5" y="400.3496">+toEntity(agendaEntryDTO)</text><text fill="#000000" font-family="sans-serif" font-size="14" lengthAdjust="spacing" textLength="202" x="816.5" y="418.9707">+toDTOList(List&lt;AgendaEntry&gt;)</text></g><!--class ToDoEntryMapper--><g id="elem_ToDoEntryMapper"><rect codeLine="71" fill="#F1F1F1" height="103.8633" id="ToDoEntryMapper" rx="2.5" ry="2.5" style="stroke:#181818;stroke-width:0.5;" width="200" x="1272.5" y="322.6211"/><ellipse cx="1310.9" cy="338.6211" fill="#ADD1B2" rx="11" ry="11" style="stroke:#181818;stroke-width:1.0;"/><path d="M1313.6656,334.4961 Q1313.8219,334.2773 1314.0094,334.168 Q1314.1969,334.0586 1314.4156,334.0586 Q1314.7906,334.0586 1315.025,334.3242 Q1315.2594,334.5742 1315.2594,335.1836 L1315.2594,336.6367 Q1315.2594,337.2461 1315.025,337.5117 Q1314.7906,337.7773 1314.4156,337.7773 Q1314.0719,337.7773 1313.8688,337.5742 Q1313.6656,337.3867 1313.5563,336.8711 Q1313.5094,336.5117 1313.3219,336.3242 Q1312.9938,335.9492 1312.3844,335.7305 Q1311.775,335.5117 1311.15,335.5117 Q1310.3844,335.5117 1309.7438,335.8398 Q1309.1188,336.168 1308.6188,336.918 Q1308.1344,337.668 1308.1344,338.6992 L1308.1344,339.793 Q1308.1344,341.0273 1309.025,341.8555 Q1309.9156,342.668 1311.5094,342.668 Q1312.4469,342.668 1313.1031,342.418 Q1313.4938,342.2617 1313.9156,341.8242 Q1314.1813,341.5586 1314.3219,341.4805 Q1314.4781,341.4023 1314.6813,341.4023 Q1315.0094,341.4023 1315.2594,341.668 Q1315.525,341.918 1315.525,342.2617 Q1315.525,342.6055 1315.1813,343.0117 Q1314.6813,343.5898 1313.8844,343.918 Q1312.8063,344.3711 1311.5094,344.3711 Q1309.9938,344.3711 1308.7906,343.7461 Q1307.8063,343.2461 1307.1188,342.1836 Q1306.4313,341.1055 1306.4313,339.8242 L1306.4313,338.668 Q1306.4313,337.3398 1307.0406,336.1992 Q1307.6656,335.043 1308.7594,334.4336 Q1309.8531,333.8086 1311.0875,333.8086 Q1311.8219,333.8086 1312.4625,333.9805 Q1313.1188,334.1367 1313.6656,334.4961 Z " fill="#000000"/><text fill="#000000" font-family="sans-serif" font-size="14" lengthAdjust="spacing" textLength="116" x="1330.1" y="344.418">ToDoEntryMapper</text><line style="stroke:#181818;stroke-width:0.5;" x1="1273.5" x2="1471.5" y1="354.6211" y2="354.6211"/><line style="stroke:#181818;stroke-width:0.5;" x1="1273.5" x2="1471.5" y1="362.6211" y2="362.6211"/><text fill="#000000" font-family="sans-serif" font-size="14" lengthAdjust="spacing" textLength="123" x="1278.5" y="381.7285">+toDTO(toDoEntry)</text><text fill="#000000" font-family="sans-serif" font-size="14" lengthAdjust="spacing" textLength="125" x="1278.5" y="400.3496">+toEntity(toDoDTO)</text><text fill="#000000" font-family="sans-serif" font-size="14" lengthAdjust="spacing" textLength="188" x="1278.5" y="418.9707">+toDTOList(List&lt;ToDoEntry&gt;)</text></g><!--class RegisterAgendaEntryGUIController--><g id="elem_RegisterAgendaEntryGUIController"><rect codeLine="77" fill="#F1F1F1" height="215.5898" id="RegisterAgendaEntryGUIController" rx="2.5" ry="2.5" style="stroke:#181818;stroke-width:0.5;" width="382" x="393.5" y="266.6211"/><ellipse cx="470.25" cy="282.6211" fill="#ADD1B2" rx="11" ry="11" style="stroke:#181818;stroke-width:1.0;"/><path d="M473.0156,278.4961 Q473.1719,278.2773 473.3594,278.168 Q473.5469,278.0586 473.7656,278.0586 Q474.1406,278.0586 474.375,278.3242 Q474.6094,278.5742 474.6094,279.1836 L474.6094,280.6367 Q474.6094,281.2461 474.375,281.5117 Q474.1406,281.7773 473.7656,281.7773 Q473.4219,281.7773 473.2188,281.5742 Q473.0156,281.3867 472.9063,280.8711 Q472.8594,280.5117 472.6719,280.3242 Q472.3438,279.9492 471.7344,279.7305 Q471.125,279.5117 470.5,279.5117 Q469.7344,279.5117 469.0938,279.8398 Q468.4688,280.168 467.9688,280.918 Q467.4844,281.668 467.4844,282.6992 L467.4844,283.793 Q467.4844,285.0273 468.375,285.8555 Q469.2656,286.668 470.8594,286.668 Q471.7969,286.668 472.4531,286.418 Q472.8438,286.2617 473.2656,285.8242 Q473.5313,285.5586 473.6719,285.4805 Q473.8281,285.4023 474.0313,285.4023 Q474.3594,285.4023 474.6094,285.668 Q474.875,285.918 474.875,286.2617 Q474.875,286.6055 474.5313,287.0117 Q474.0313,287.5898 473.2344,287.918 Q472.1563,288.3711 470.8594,288.3711 Q469.3438,288.3711 468.1406,287.7461 Q467.1563,287.2461 466.4688,286.1836 Q465.7813,285.1055 465.7813,283.8242 L465.7813,282.668 Q465.7813,281.3398 466.3906,280.1992 Q467.0156,279.043 468.1094,278.4336 Q469.2031,277.8086 470.4375,277.8086 Q471.1719,277.8086 471.8125,277.9805 Q472.4688,278.1367 473.0156,278.4961 Z " fill="#000000"/><text fill="#000000" font-family="sans-serif" font-size="14" lengthAdjust="spacing" textLength="220" x="490.75" y="288.418">RegisterAgendaEntryGUIController</text><line style="stroke:#181818;stroke-width:0.5;" x1="394.5" x2="774.5" y1="298.6211" y2="298.6211"/><text fill="#000000" font-family="sans-serif" font-size="14" lengthAdjust="spacing" textLength="308" x="399.5" y="317.7285">-AgendaEntryRepository agendaEntryRepository</text><text fill="#000000" font-family="sans-serif" font-size="14" lengthAdjust="spacing" textLength="276" x="399.5" y="336.3496">-ToDoEntryRepository toDoEntryRepository</text><text fill="#000000" font-family="sans-serif" font-size="14" lengthAdjust="spacing" textLength="268" x="399.5" y="354.9707">-AgendaEntryMapper agendaEntryMapper</text><text fill="#000000" font-family="sans-serif" font-size="14" lengthAdjust="spacing" textLength="236" x="399.5" y="373.5918">-ToDoEntryMapper toDoEntryMapper</text><line style="stroke:#181818;stroke-width:0.5;" x1="394.5" x2="774.5" y1="381.1055" y2="381.1055"/><text fill="#000000" font-family="sans-serif" font-size="14" lengthAdjust="spacing" textLength="209" x="399.5" y="400.2129">+getAvailableToDoEntries(event)</text><text fill="#000000" font-family="sans-serif" font-size="14" lengthAdjust="spacing" textLength="183" x="399.5" y="418.834">+registerAgendaEntry(event)</text><text fill="#000000" font-family="sans-serif" font-size="14" lengthAdjust="spacing" textLength="135" x="399.5" y="437.4551">+closeWindow(event)</text><text fill="#000000" font-family="sans-serif" font-size="14" lengthAdjust="spacing" textLength="370" x="399.5" y="456.0762">+setAgendaMenuGUIController(AgendaMenuGUIController</text><text fill="#000000" font-family="sans-serif" font-size="14" lengthAdjust="spacing" textLength="160" x="403.5" y="474.6973">agendaListGUIController)</text></g><!--class AgendaGUI--><g id="elem_AgendaGUI"><rect codeLine="88" fill="#F1F1F1" height="85.2422" id="AgendaGUI" rx="2.5" ry="2.5" style="stroke:#181818;stroke-width:0.5;" width="351" x="7" y="332.1211"/><ellipse cx="142.25" cy="348.1211" fill="#ADD1B2" rx="11" ry="11" style="stroke:#181818;stroke-width:1.0;"/><path d="M145.0156,343.9961 Q145.1719,343.7773 145.3594,343.668 Q145.5469,343.5586 145.7656,343.5586 Q146.1406,343.5586 146.375,343.8242 Q146.6094,344.0742 146.6094,344.6836 L146.6094,346.1367 Q146.6094,346.7461 146.375,347.0117 Q146.1406,347.2773 145.7656,347.2773 Q145.4219,347.2773 145.2188,347.0742 Q145.0156,346.8867 144.9063,346.3711 Q144.8594,346.0117 144.6719,345.8242 Q144.3438,345.4492 143.7344,345.2305 Q143.125,345.0117 142.5,345.0117 Q141.7344,345.0117 141.0938,345.3398 Q140.4688,345.668 139.9688,346.418 Q139.4844,347.168 139.4844,348.1992 L139.4844,349.293 Q139.4844,350.5273 140.375,351.3555 Q141.2656,352.168 142.8594,352.168 Q143.7969,352.168 144.4531,351.918 Q144.8438,351.7617 145.2656,351.3242 Q145.5313,351.0586 145.6719,350.9805 Q145.8281,350.9023 146.0313,350.9023 Q146.3594,350.9023 146.6094,351.168 Q146.875,351.418 146.875,351.7617 Q146.875,352.1055 146.5313,352.5117 Q146.0313,353.0898 145.2344,353.418 Q144.1563,353.8711 142.8594,353.8711 Q141.3438,353.8711 140.1406,353.2461 Q139.1563,352.7461 138.4688,351.6836 Q137.7813,350.6055 137.7813,349.3242 L137.7813,348.168 Q137.7813,346.8398 138.3906,345.6992 Q139.0156,344.543 140.1094,343.9336 Q141.2031,343.3086 142.4375,343.3086 Q143.1719,343.3086 143.8125,343.4805 Q144.4688,343.6367 145.0156,343.9961 Z " fill="#000000"/><text fill="#000000" font-family="sans-serif" font-size="14" lengthAdjust="spacing" textLength="72" x="162.75" y="353.918">AgendaGUI</text><line style="stroke:#181818;stroke-width:0.5;" x1="8" x2="357" y1="364.1211" y2="364.1211"/><text fill="#000000" font-family="sans-serif" font-size="14" lengthAdjust="spacing" textLength="339" x="13" y="383.2285">-RegisterAgendaEntryGUIController agendaController</text><line style="stroke:#181818;stroke-width:0.5;" x1="8" x2="357" y1="390.7422" y2="390.7422"/><text fill="#000000" font-family="sans-serif" font-size="14" lengthAdjust="spacing" textLength="269" x="13" y="409.8496">+openRegisterAgendaEntryWindow(event)</text></g><!--class GSM--><g id="elem_GSM"><rect fill="#F1F1F1" height="48" id="GSM" rx="2.5" ry="2.5" style="stroke:#181818;stroke-width:0.5;" width="63" x="151" y="93.1211"/><ellipse cx="166" cy="109.1211" fill="#ADD1B2" rx="11" ry="11" style="stroke:#181818;stroke-width:1.0;"/><path d="M168.7656,104.9961 Q168.9219,104.7773 169.1094,104.668 Q169.2969,104.5586 169.5156,104.5586 Q169.8906,104.5586 170.125,104.8242 Q170.3594,105.0742 170.3594,105.6836 L170.3594,107.1367 Q170.3594,107.7461 170.125,108.0117 Q169.8906,108.2773 169.5156,108.2773 Q169.1719,108.2773 168.9688,108.0742 Q168.7656,107.8867 168.6563,107.3711 Q168.6094,107.0117 168.4219,106.8242 Q168.0938,106.4492 167.4844,106.2305 Q166.875,106.0117 166.25,106.0117 Q165.4844,106.0117 164.8438,106.3398 Q164.2188,106.668 163.7188,107.418 Q163.2344,108.168 163.2344,109.1992 L163.2344,110.293 Q163.2344,111.5273 164.125,112.3555 Q165.0156,113.168 166.6094,113.168 Q167.5469,113.168 168.2031,112.918 Q168.5938,112.7617 169.0156,112.3242 Q169.2813,112.0586 169.4219,111.9805 Q169.5781,111.9023 169.7813,111.9023 Q170.1094,111.9023 170.3594,112.168 Q170.625,112.418 170.625,112.7617 Q170.625,113.1055 170.2813,113.5117 Q169.7813,114.0898 168.9844,114.418 Q167.9063,114.8711 166.6094,114.8711 Q165.0938,114.8711 163.8906,114.2461 Q162.9063,113.7461 162.2188,112.6836 Q161.5313,111.6055 161.5313,110.3242 L161.5313,109.168 Q161.5313,107.8398 162.1406,106.6992 Q162.7656,105.543 163.8594,104.9336 Q164.9531,104.3086 166.1875,104.3086 Q166.9219,104.3086 167.5625,104.4805 Q168.2188,104.6367 168.7656,104.9961 Z " fill="#000000"/><text fill="#000000" font-family="sans-serif" font-size="14" lengthAdjust="spacing" textLength="31" x="180" y="114.918">GSM</text><line style="stroke:#181818;stroke-width:0.5;" x1="152" x2="213" y1="125.1211" y2="125.1211"/><line style="stroke:#181818;stroke-width:0.5;" x1="152" x2="213" y1="133.1211" y2="133.1211"/></g><!--link AgendaGUI to RegisterAgendaEntryGUIController--><g id="link_AgendaGUI_RegisterAgendaEntryGUIController"><path codeLine="93" d="M358.16,374.6211 C369.23,374.6211 375.37,374.6211 387.11,374.6211 " fill="none" id="AgendaGUI-to-RegisterAgendaEntryGUIController" style="stroke:#181818;stroke-width:1.0;stroke-dasharray:7.0,7.0;"/><polygon fill="#181818" points="393.11,374.6211,384.11,370.6211,388.11,374.6211,384.11,378.6211,393.11,374.6211" style="stroke:#181818;stroke-width:1.0;"/></g><!--link RegisterAgendaEntryGUIController to Repositories--><g id="link_RegisterAgendaEntryGUIController_Repositories"><path codeLine="94" d="M624.48,482.6411 C634.3,508.9311 642.5385,530.9912 651.7785,555.7012 " fill="none" id="RegisterAgendaEntryGUIController-to-Repositories" style="stroke:#181818;stroke-width:1.0;stroke-dasharray:7.0,7.0;"/><polygon fill="#181818" points="653.88,561.3211,654.4744,551.4902,652.1287,556.6378,646.9811,554.2922,653.88,561.3211" style="stroke:#181818;stroke-width:1.0;"/><text fill="#000000" font-family="sans-serif" font-size="13" lengthAdjust="spacing" textLength="67" x="641.5" y="527.6494">repositories</text></g><!--link Repositories to AgendaEntryRepository--><g id="link_Repositories_AgendaEntryRepository"><path codeLine="95" d="M783.7,719.4811 C811.27,740.6311 835.7298,759.3887 860.9098,778.7087 " fill="none" id="Repositories-to-AgendaEntryRepository" style="stroke:#181818;stroke-width:1.0;"/><polygon fill="#181818" points="865.67,782.3611,860.9646,773.709,861.7031,779.3174,856.0947,780.056,865.67,782.3611" style="stroke:#181818;stroke-width:1.0;"/><text fill="#000000" font-family="sans-serif" font-size="13" lengthAdjust="spacing" textLength="7" x="849.2194" y="771.2535">1</text></g><!--link Repositories to ToDoEntryRepository--><g id="link_Repositories_ToDoEntryRepository"><path codeLine="96" d="M637.55,721.6911 C623.53,745.8011 611.6945,766.1733 599.7245,786.7733 " fill="none" id="Repositories-to-ToDoEntryRepository" style="stroke:#181818;stroke-width:1.0;"/><polygon fill="#181818" points="596.71,791.9611,604.6902,786.1891,599.222,787.6379,597.7732,782.1698,596.71,791.9611" style="stroke:#181818;stroke-width:1.0;"/><text fill="#000000" font-family="sans-serif" font-size="13" lengthAdjust="spacing" textLength="7" x="593.0107" y="780.8397">1</text></g><!--link Repositories to Repositories--><g id="link_Repositories_Repositories"><path codeLine="97" d="M783.59,621.7811 C803.93,623.9411 818.5,630.5611 818.5,641.6211 C818.5,652.6811 809.8965,658.6675 789.5565,660.8275 " fill="none" id="Repositories-to-Repositories" style="stroke:#181818;stroke-width:1.0;"/><polygon fill="#181818" points="783.59,661.4611,792.9621,664.4883,788.562,660.9331,792.1173,656.5331,783.59,661.4611" style="stroke:#181818;stroke-width:1.0;"/><text fill="#000000" font-family="sans-serif" font-size="13" lengthAdjust="spacing" textLength="49" x="824.5" y="647.1494">instance</text></g><!--link RegisterAgendaEntryGUIController to AgendaEntryMapper--><g id="link_RegisterAgendaEntryGUIController_AgendaEntryMapper"><path codeLine="98" d="M775.58,374.6211 C793.08,374.6211 806.5,374.6211 806.5,374.6211 C806.5,374.6211 801.92,374.6211 804.45,374.6211 " fill="none" id="RegisterAgendaEntryGUIController-to-AgendaEntryMapper" style="stroke:#181818;stroke-width:1.0;stroke-dasharray:7.0,7.0;"/><polygon fill="#181818" points="810.45,374.6211,801.45,370.6211,805.45,374.6211,801.45,378.6211,810.45,374.6211" style="stroke:#181818;stroke-width:1.0;"/></g><!--link RegisterAgendaEntryGUIController to ToDoEntryMapper--><g id="link_RegisterAgendaEntryGUIController_ToDoEntryMapper"><path codeLine="99" d="M749.87,266.4511 C784.11,244.0611 810,227.1211 810,227.1211 C810,227.1211 1237,227.1211 1237,227.1211 C1237,227.1211 1281.6612,275.7323 1320.6712,318.2023 " fill="none" id="RegisterAgendaEntryGUIController-to-ToDoEntryMapper" style="stroke:#181818;stroke-width:1.0;stroke-dasharray:7.0,7.0;"/><polygon fill="#181818" points="1324.73,322.6211,1321.5876,313.287,1321.3476,318.9387,1315.6959,318.6987,1324.73,322.6211" style="stroke:#181818;stroke-width:1.0;"/></g><!--link RegisterAgendaEntryGUIController to AgendaEntryRepository--><g id="link_RegisterAgendaEntryGUIController_AgendaEntryRepository"><path codeLine="100" d="M754.39,482.7411 C819.97,524.0911 879.5,561.6211 879.5,561.6211 C879.5,561.6211 906.0326,697.7818 921.3826,776.5718 " fill="none" id="RegisterAgendaEntryGUIController-to-AgendaEntryRepository" style="stroke:#181818;stroke-width:1.0;"/><polygon fill="#181818" points="922.53,782.4611,924.7351,772.8623,921.5739,777.5534,916.8828,774.3921,922.53,782.4611" style="stroke:#181818;stroke-width:1.0;"/><text fill="#000000" font-family="sans-serif" font-size="13" lengthAdjust="spacing" textLength="28" x="912.5" y="647.1494">uses</text></g><!--link RegisterAgendaEntryGUIController to ToDoEntryRepository--><g id="link_RegisterAgendaEntryGUIController_ToDoEntryRepository"><path codeLine="101" d="M556.28,482.7411 C545.39,524.0911 535.5,561.6211 535.5,561.6211 C535.5,561.6211 535.5,721.6211 535.5,721.6211 C535.5,721.6211 546.3182,754.3738 556.8382,786.2238 " fill="none" id="RegisterAgendaEntryGUIController-to-ToDoEntryRepository" style="stroke:#181818;stroke-width:1.0;"/><polygon fill="#181818" points="558.72,791.9211,559.6955,782.1207,557.1518,787.1734,552.0991,784.6297,558.72,791.9211" style="stroke:#181818;stroke-width:1.0;"/><text fill="#000000" font-family="sans-serif" font-size="13" lengthAdjust="spacing" textLength="28" x="536.5" y="647.1494">uses</text></g><!--reverse link SystemUser to GSM--><g id="link_SystemUser_GSM"><path codeLine="103" d="M134.04,117.1211 C145.65,117.1211 142.5,117.1211 142.5,117.1211 C142.5,117.1211 146.03,117.1211 150.98,117.1211 " fill="none" id="SystemUser-backto-GSM" style="stroke:#181818;stroke-width:1.0;"/><polygon fill="none" points="116.04,117.1211,134.04,123.1211,134.04,111.1211,116.04,117.1211" style="stroke:#181818;stroke-width:1.0;"/></g><!--reverse link ToDoEntry to AgendaEntry--><g id="link_ToDoEntry_AgendaEntry"><path codeLine="104" d="M1170.5,205.9411 C1170.5,248.4911 1170.5,283.9211 1170.5,322.5311 " fill="none" id="ToDoEntry-backto-AgendaEntry" style="stroke:#181818;stroke-width:1.0;"/><polygon fill="none" points="1170.5,187.9411,1164.5,205.9411,1176.5,205.9411,1170.5,187.9411" style="stroke:#181818;stroke-width:1.0;"/></g><!--link GSM to AgendaGUI--><g id="link_GSM_AgendaGUI"><path codeLine="106" d="M182.5,141.2411 C182.5,184.3611 182.5,277.5711 182.5,331.9311 " fill="none" id="GSM-AgendaGUI" style="stroke:#181818;stroke-width:1.0;"/></g><!--link AgendaEntryMapper to AgendaEntry--><g id="link_AgendaEntryMapper_AgendaEntry"><path codeLine="107" d="M1024.79,374.6211 C1051.6,374.6211 1073.57,374.6211 1097.77,374.6211 " fill="none" id="AgendaEntryMapper-to-AgendaEntry" style="stroke:#181818;stroke-width:1.0;"/><polygon fill="#181818" points="1103.77,374.6211,1094.77,370.6211,1098.77,374.6211,1094.77,378.6211,1103.77,374.6211" style="stroke:#181818;stroke-width:1.0;"/><text fill="#000000" font-family="sans-serif" font-size="13" lengthAdjust="spacing" textLength="43" x="1042.75" y="367.6494">creates</text><text fill="#000000" font-family="sans-serif" font-size="13" lengthAdjust="spacing" textLength="7" x="1032.5799" y="371.0668">1</text><text fill="#000000" font-family="sans-serif" font-size="13" lengthAdjust="spacing" textLength="5" x="1091.198" y="370.7431">*</text></g><!--reverse link AgendaEntry to AgendaEntryRepository--><g id="link_AgendaEntry_AgendaEntryRepository"><path codeLine="108" d="M1141.1232,432.1551 C1095.3332,520.2651 1004.92,694.2611 959.12,782.3911 " fill="none" id="AgendaEntry-backto-AgendaEntryRepository" style="stroke:#181818;stroke-width:1.0;"/><polygon fill="#181818" points="1143.89,426.8311,1136.1905,432.9725,1141.5843,431.2677,1143.2891,436.6616,1143.89,426.8311" style="stroke:#181818;stroke-width:1.0;"/><text fill="#000000" font-family="sans-serif" font-size="13" lengthAdjust="spacing" textLength="36" x="1074.5" y="647.1494">stores</text><text fill="#000000" font-family="sans-serif" font-size="13" lengthAdjust="spacing" textLength="5" x="1135.1603" y="448.6653">*</text><text fill="#000000" font-family="sans-serif" font-size="13" lengthAdjust="spacing" textLength="7" x="955.2268" y="771.2876">1</text></g><!--reverse link AgendaEntryDTO to AgendaEntryMapper--><g id="link_AgendaEntryDTO_AgendaEntryMapper"><path codeLine="109" d="M917.5,184.3511 C917.5,228.1611 917.5,280.8511 917.5,322.4211 " fill="none" id="AgendaEntryDTO-backto-AgendaEntryMapper" style="stroke:#181818;stroke-width:1.0;"/><polygon fill="#181818" points="917.5,178.3511,913.5,187.3511,917.5,183.3511,921.5,187.3511,917.5,178.3511" style="stroke:#181818;stroke-width:1.0;"/><text fill="#000000" font-family="sans-serif" font-size="13" lengthAdjust="spacing" textLength="43" x="918.5" y="232.6494">creates</text><text fill="#000000" font-family="sans-serif" font-size="13" lengthAdjust="spacing" textLength="5" x="912.2109" y="200.4308">*</text><text fill="#000000" font-family="sans-serif" font-size="13" lengthAdjust="spacing" textLength="7" x="910.0297" y="311.3216">1</text></g><!--reverse link ToDoEntryDTO to ToDoEntryMapper--><g id="link_ToDoEntryDTO_ToDoEntryMapper"><path codeLine="110" d="M1372.5,193.9411 C1372.5,236.4911 1372.5,283.9211 1372.5,322.5311 " fill="none" id="ToDoEntryDTO-backto-ToDoEntryMapper" style="stroke:#181818;stroke-width:1.0;"/><polygon fill="#181818" points="1372.5,187.9411,1368.5,196.9411,1372.5,192.9411,1376.5,196.9411,1372.5,187.9411" style="stroke:#181818;stroke-width:1.0;"/><text fill="#000000" font-family="sans-serif" font-size="13" lengthAdjust="spacing" textLength="43" x="1373.5" y="232.6494">creates</text><text fill="#000000" font-family="sans-serif" font-size="13" lengthAdjust="spacing" textLength="5" x="1367.2539" y="209.7866">*</text><text fill="#000000" font-family="sans-serif" font-size="13" lengthAdjust="spacing" textLength="7" x="1365.0297" y="311.4464">1</text></g><!--SRC=[jLN1RXiX4Btp5IYdTLD7xJMABBbn5Lbg5AbssailP7UwGS6m0fnqs-RVEyjY5hmuzgM-U8TvC-ynCu1vuh9XccreAPWnSsirVzXQM9PAhlXle1-82P26bK-iXfLj1L0DfMMo5X01p2Ehr0kNDVt9X8azWakmRGEqKQBj348ijvZckgEb2yvgX17YLD2rMgZFqkhs3w7ugpM0N24xEBC2KshUMAwaixUw1bcs2-XmRiLOPhV6VSAl1eL2jTXgvY9UToHpZAgOew4zJyLi7uzkLNAqgZMWgdJf6ppoKe39PbgixtmowCpb8gku4KnArBJZytf3mbLhB6pk3MYVJB9DZuGDuwBFWS0NfQlUU5HOqjTH_GOv_wU6WUWhDCfmgq8jftIkDMk_S6El0cf6hV_aqAS-fpNOuE_GdzgLOoxSLjzx7PDijTzaZN0poeAHCC_ZvMBY7QogNDXQzVuYIXK92UmO6_XPJfttsN6rY7V5kO8E5BYKk7zPGhoMBK0Co7Ibo1VmbZLD6BBpJk3whc3nRdSEDBbjOnz29t5SL_HYLFb9PbYohA4u8yxESvXi6AwaDJNwG4TARkwNrme_b121UtfWcDvgOcxaSuqTvVUxPlih-tazpgPsrFvdF1ViGS1wE4i5FEDziwkG7ky-1PH26VZE9LxMgSFifkiMv3QfM75W_OVqE-gQaNX64uVUKFUZ3UgJ3WjUe6f0PcBJlI3lm7WnEqf6ZggvS5cYutw9HHvCalYcqnaz-tYMdwqyD3DKUy0HF_StmmdYP-CnF2bgRoIFntJRoP-eIxerhaudPCYTC1zFefVnwk-KtgnkIO1tAyc98mJzE6tJOG39-41Y_Rikl4iQXeIb1doVJHpXK5UOxs1xCSxWVnhMlS878hs6WIrvkkEW_VjX2Fa7]--></g></svg>