<?xml version="1.0" encoding="us-ascii" standalone="no"?><svg xmlns="http://www.w3.org/2000/svg" xmlns:xlink="http://www.w3.org/1999/xlink" contentStyleType="text/css" height="418px" preserveAspectRatio="none" style="width:1149px;height:418px;background:#FFFFFF;" version="1.1" viewBox="0 0 1149 418" width="1149px" zoomAndPan="magnify"><defs/><g><rect fill="#FFFFFF" height="276.9102" style="stroke:#181818;stroke-width:1.0;" width="10" x="45" y="67.2422"/><rect fill="#FFFFFF" height="253.6191" style="stroke:#181818;stroke-width:1.0;" width="10" x="302" y="90.5332"/><rect fill="#FFFFFF" height="128.4551" style="stroke:#181818;stroke-width:1.0;" width="10" x="494" y="121.8242"/><rect fill="#FFFFFF" height="31.291" style="stroke:#181818;stroke-width:1.0;" width="10" x="912" y="187.6973"/><rect fill="#FFFFFF" height="31.291" style="stroke:#181818;stroke-width:1.0;" width="10" x="1054" y="281.5703"/><line style="stroke:#181818;stroke-width:0.5;stroke-dasharray:5.0,5.0;" x1="50" x2="50" y1="57.2422" y2="362.1523"/><line style="stroke:#181818;stroke-width:0.5;stroke-dasharray:5.0,5.0;" x1="306.5" x2="306.5" y1="57.2422" y2="362.1523"/><line style="stroke:#181818;stroke-width:0.5;stroke-dasharray:5.0,5.0;" x1="499" x2="499" y1="57.2422" y2="362.1523"/><line style="stroke:#181818;stroke-width:0.5;stroke-dasharray:5.0,5.0;" x1="917" x2="917" y1="57.2422" y2="362.1523"/><line style="stroke:#181818;stroke-width:0.5;stroke-dasharray:5.0,5.0;" x1="1059" x2="1059" y1="57.2422" y2="362.1523"/><rect fill="#E3E3E3" height="32.6211" rx="2.5" ry="2.5" style="stroke:#181818;stroke-width:0.5;" width="90" x="5" y="23.6211"/><text fill="#000000" font-family="sans-serif" font-size="14" lengthAdjust="spacing" textLength="76" x="12" y="45.7285">:AgendaGUI</text><rect fill="#E3E3E3" height="32.6211" rx="2.5" ry="2.5" style="stroke:#181818;stroke-width:0.5;" width="90" x="5" y="361.1523"/><text fill="#000000" font-family="sans-serif" font-size="14" lengthAdjust="spacing" textLength="76" x="12" y="383.2598">:AgendaGUI</text><rect fill="#E3E3E3" height="32.6211" rx="2.5" ry="2.5" style="stroke:#181818;stroke-width:0.5;" width="129" x="242.5" y="23.6211"/><text fill="#000000" font-family="sans-serif" font-size="14" lengthAdjust="spacing" textLength="115" x="249.5" y="45.7285">:AgendaController</text><rect fill="#E3E3E3" height="32.6211" rx="2.5" ry="2.5" style="stroke:#181818;stroke-width:0.5;" width="129" x="242.5" y="361.1523"/><text fill="#000000" font-family="sans-serif" font-size="14" lengthAdjust="spacing" textLength="115" x="249.5" y="383.2598">:AgendaController</text><rect fill="#E3E3E3" height="32.6211" rx="2.5" ry="2.5" style="stroke:#181818;stroke-width:0.5;" width="144" x="427" y="23.6211"/><text fill="#000000" font-family="sans-serif" font-size="14" lengthAdjust="spacing" textLength="130" x="434" y="45.7285">AgendaEntryMapper</text><rect fill="#E3E3E3" height="32.6211" rx="2.5" ry="2.5" style="stroke:#181818;stroke-width:0.5;" width="144" x="427" y="361.1523"/><text fill="#000000" font-family="sans-serif" font-size="14" lengthAdjust="spacing" textLength="130" x="434" y="383.2598">AgendaEntryMapper</text><rect fill="#E3E3E3" height="32.6211" rx="2.5" ry="2.5" style="stroke:#181818;stroke-width:0.5;" width="96" x="869" y="23.6211"/><text fill="#000000" font-family="sans-serif" font-size="14" lengthAdjust="spacing" textLength="82" x="876" y="45.7285">AgendaEntry</text><rect fill="#E3E3E3" height="32.6211" rx="2.5" ry="2.5" style="stroke:#181818;stroke-width:0.5;" width="96" x="869" y="361.1523"/><text fill="#000000" font-family="sans-serif" font-size="14" lengthAdjust="spacing" textLength="82" x="876" y="383.2598">AgendaEntry</text><rect fill="#E3E3E3" height="51.2422" rx="2.5" ry="2.5" style="stroke:#181818;stroke-width:0.5;" width="168" x="975" y="5"/><text fill="#000000" font-family="sans-serif" font-size="14" lengthAdjust="spacing" textLength="154" x="982" y="27.1074">AgendaEntryRepository:</text><text fill="#000000" font-family="sans-serif" font-size="14" lengthAdjust="spacing" textLength="149" x="984.5" y="45.7285">agendaEntryRepository</text><rect fill="#E3E3E3" height="51.2422" rx="2.5" ry="2.5" style="stroke:#181818;stroke-width:0.5;" width="168" x="975" y="361.1523"/><text fill="#000000" font-family="sans-serif" font-size="14" lengthAdjust="spacing" textLength="154" x="982" y="383.2598">AgendaEntryRepository:</text><text fill="#000000" font-family="sans-serif" font-size="14" lengthAdjust="spacing" textLength="149" x="984.5" y="401.8809">agendaEntryRepository</text><rect fill="#FFFFFF" height="276.9102" style="stroke:#181818;stroke-width:1.0;" width="10" x="45" y="67.2422"/><rect fill="#FFFFFF" height="253.6191" style="stroke:#181818;stroke-width:1.0;" width="10" x="302" y="90.5332"/><rect fill="#FFFFFF" height="128.4551" style="stroke:#181818;stroke-width:1.0;" width="10" x="494" y="121.8242"/><rect fill="#FFFFFF" height="31.291" style="stroke:#181818;stroke-width:1.0;" width="10" x="912" y="187.6973"/><rect fill="#FFFFFF" height="31.291" style="stroke:#181818;stroke-width:1.0;" width="10" x="1054" y="281.5703"/><polygon fill="#181818" points="290,86.5332,300,90.5332,290,94.5332,294,90.5332" style="stroke:#181818;stroke-width:1.0;"/><line style="stroke:#181818;stroke-width:1.0;" x1="55" x2="296" y1="90.5332" y2="90.5332"/><text fill="#000000" font-family="sans-serif" font-size="13" font-weight="bold" lengthAdjust="spacing" textLength="7" x="62" y="85.2705">1</text><text fill="#000000" font-family="sans-serif" font-size="13" lengthAdjust="spacing" textLength="217" x="73" y="85.2705">addEntryToAgenda(agendaEntryDTO)</text><polygon fill="#181818" points="482,117.8242,492,121.8242,482,125.8242,486,121.8242" style="stroke:#181818;stroke-width:1.0;"/><line style="stroke:#181818;stroke-width:1.0;" x1="312" x2="488" y1="121.8242" y2="121.8242"/><text fill="#000000" font-family="sans-serif" font-size="13" font-weight="bold" lengthAdjust="spacing" textLength="7" x="319" y="116.5615">2</text><text fill="#000000" font-family="sans-serif" font-size="13" lengthAdjust="spacing" textLength="152" x="330" y="116.5615">toEntity(agendaEntryDTO)</text><polygon fill="#181818" points="900,183.6973,910,187.6973,900,191.6973,904,187.6973" style="stroke:#181818;stroke-width:1.0;"/><line style="stroke:#181818;stroke-width:1.0;" x1="504" x2="906" y1="187.6973" y2="187.6973"/><text fill="#000000" font-family="sans-serif" font-size="13" font-weight="bold" lengthAdjust="spacing" textLength="7" x="511" y="165.1436">3</text><text fill="#000000" font-family="sans-serif" font-size="13" lengthAdjust="spacing" textLength="378" x="522" y="147.8525">AgendaEntry(dto.description, dto.greenspace, dto.urgencyDegree</text><text fill="#000000" font-family="sans-serif" font-size="13" lengthAdjust="spacing" textLength="377" x="522" y="165.1436">, dto.status, dto.expectedDuration, dto.date, dto.associatedTeam</text><text fill="#000000" font-family="sans-serif" font-size="13" lengthAdjust="spacing" textLength="147" x="522" y="182.4346">, dto.associatedVehicles)</text><polygon fill="#181818" points="515,214.9883,505,218.9883,515,222.9883,511,218.9883" style="stroke:#181818;stroke-width:1.0;"/><line style="stroke:#181818;stroke-width:1.0;stroke-dasharray:2.0,2.0;" x1="509" x2="916" y1="218.9883" y2="218.9883"/><text fill="#000000" font-family="sans-serif" font-size="13" font-weight="bold" lengthAdjust="spacing" textLength="7" x="521" y="213.7256">4</text><text fill="#000000" font-family="sans-serif" font-size="13" lengthAdjust="spacing" textLength="73" x="532" y="213.7256">agendaEntry</text><polygon fill="#181818" points="323,246.2793,313,250.2793,323,254.2793,319,250.2793" style="stroke:#181818;stroke-width:1.0;"/><line style="stroke:#181818;stroke-width:1.0;stroke-dasharray:2.0,2.0;" x1="317" x2="498" y1="250.2793" y2="250.2793"/><text fill="#000000" font-family="sans-serif" font-size="13" font-weight="bold" lengthAdjust="spacing" textLength="7" x="329" y="245.0166">5</text><text fill="#000000" font-family="sans-serif" font-size="13" lengthAdjust="spacing" textLength="73" x="340" y="245.0166">agendaEntry</text><polygon fill="#181818" points="1042,277.5703,1052,281.5703,1042,285.5703,1046,281.5703" style="stroke:#181818;stroke-width:1.0;"/><line style="stroke:#181818;stroke-width:1.0;" x1="312" x2="1048" y1="281.5703" y2="281.5703"/><text fill="#000000" font-family="sans-serif" font-size="13" font-weight="bold" lengthAdjust="spacing" textLength="7" x="319" y="276.3076">6</text><text fill="#000000" font-family="sans-serif" font-size="13" lengthAdjust="spacing" textLength="191" x="330" y="276.3076">addEntryToAgenda(agendaEntry)</text><polygon fill="#181818" points="323,308.8613,313,312.8613,323,316.8613,319,312.8613" style="stroke:#181818;stroke-width:1.0;"/><line style="stroke:#181818;stroke-width:1.0;stroke-dasharray:2.0,2.0;" x1="317" x2="1058" y1="312.8613" y2="312.8613"/><text fill="#000000" font-family="sans-serif" font-size="13" font-weight="bold" lengthAdjust="spacing" textLength="7" x="329" y="307.5986">7</text><text fill="#000000" font-family="sans-serif" font-size="13" lengthAdjust="spacing" textLength="87" x="340" y="307.5986">success/failure</text><polygon fill="#181818" points="61,340.1523,51,344.1523,61,348.1523,57,344.1523" style="stroke:#181818;stroke-width:1.0;"/><line style="stroke:#181818;stroke-width:1.0;stroke-dasharray:2.0,2.0;" x1="55" x2="306" y1="344.1523" y2="344.1523"/><text fill="#000000" font-family="sans-serif" font-size="13" font-weight="bold" lengthAdjust="spacing" textLength="7" x="67" y="338.8896">8</text><text fill="#000000" font-family="sans-serif" font-size="13" lengthAdjust="spacing" textLength="138" x="78" y="338.8896">message of (in)success</text><!--SRC=[bLDDJyCm3BttLrWxRHA3Umz8Q4De4WXfT9nsCOdNHMkJAac1_dlSTXyfj6pBARQVd_qSn-sKBj1Y3hdHHcojoGcyBIbonqY1OeSflVag8x0aFEeq2m5kYz9yAPt21ZD7KOIbDxhCFyX64KEy4gf0xM4KFwIa9Jwj5YD01wj5RtXcjBScoyWsg5coVExYMjWZeweNB0h63SQ78qigZ5FUs2fUQ-ppZrY9yEeJFTMjHi1djO3fVTCIn81IDYc9QNd70SqyUPqq6KUAHaVZgaz3mLGzOY3sXctbgrx23cdVB8we-lo9rqK39yi8hB7qvbQI4rOLNXbz0xKZjKJQyHvGQvUMCqGrfpgmteESHr-wzaxV1Uy9oNbfyKGZkU7sXiuPeTYK2M5-O3XvtschH4Pkqf5o51qqFAGLfbsPU-tyPWEvagwXFumos8MUf83pttVgsuKBrlFC1fxPbelsFvH_RNV1S5mf13btjq6LbPRE3UYgrjhXSIt-cZ7aN8Opm6nWhFHaNpZwLQpzYe5ZjVW1]--></g></svg>