<?xml version="1.0" encoding="us-ascii" standalone="no"?><svg xmlns="http://www.w3.org/2000/svg" xmlns:xlink="http://www.w3.org/1999/xlink" contentStyleType="text/css" height="855px" preserveAspectRatio="none" style="width:1342px;height:855px;background:#FFFFFF;" version="1.1" viewBox="0 0 1342 855" width="1342px" zoomAndPan="magnify"><defs/><g><text fill="#000000" font-family="sans-serif" font-size="14" font-weight="bold" lengthAdjust="spacing" textLength="99" x="614.5" y="25.1074">Class Diagram</text><!--class ToDoEntry--><g id="elem_ToDoEntry"><rect codeLine="8" fill="#F1F1F1" height="141.1055" id="ToDoEntry" rx="2.5" ry="2.5" style="stroke:#181818;stroke-width:0.5;" width="123" x="1212" y="276.1211"/><ellipse cx="1237.35" cy="292.1211" fill="#ADD1B2" rx="11" ry="11" style="stroke:#181818;stroke-width:1.0;"/><path d="M1240.1156,287.9961 Q1240.2719,287.7773 1240.4594,287.668 Q1240.6469,287.5586 1240.8656,287.5586 Q1241.2406,287.5586 1241.475,287.8242 Q1241.7094,288.0742 1241.7094,288.6836 L1241.7094,290.1367 Q1241.7094,290.7461 1241.475,291.0117 Q1241.2406,291.2773 1240.8656,291.2773 Q1240.5219,291.2773 1240.3188,291.0742 Q1240.1156,290.8867 1240.0063,290.3711 Q1239.9594,290.0117 1239.7719,289.8242 Q1239.4438,289.4492 1238.8344,289.2305 Q1238.225,289.0117 1237.6,289.0117 Q1236.8344,289.0117 1236.1938,289.3398 Q1235.5688,289.668 1235.0688,290.418 Q1234.5844,291.168 1234.5844,292.1992 L1234.5844,293.293 Q1234.5844,294.5273 1235.475,295.3555 Q1236.3656,296.168 1237.9594,296.168 Q1238.8969,296.168 1239.5531,295.918 Q1239.9438,295.7617 1240.3656,295.3242 Q1240.6313,295.0586 1240.7719,294.9805 Q1240.9281,294.9023 1241.1313,294.9023 Q1241.4594,294.9023 1241.7094,295.168 Q1241.975,295.418 1241.975,295.7617 Q1241.975,296.1055 1241.6313,296.5117 Q1241.1313,297.0898 1240.3344,297.418 Q1239.2563,297.8711 1237.9594,297.8711 Q1236.4438,297.8711 1235.2406,297.2461 Q1234.2563,296.7461 1233.5688,295.6836 Q1232.8813,294.6055 1232.8813,293.3242 L1232.8813,292.168 Q1232.8813,290.8398 1233.4906,289.6992 Q1234.1156,288.543 1235.2094,287.9336 Q1236.3031,287.3086 1237.5375,287.3086 Q1238.2719,287.3086 1238.9125,287.4805 Q1239.5688,287.6367 1240.1156,287.9961 Z " fill="#000000"/><text fill="#000000" font-family="sans-serif" font-size="14" lengthAdjust="spacing" textLength="68" x="1253.65" y="297.918">ToDoEntry</text><line style="stroke:#181818;stroke-width:0.5;" x1="1213" x2="1334" y1="308.1211" y2="308.1211"/><text fill="#000000" font-family="sans-serif" font-size="14" lengthAdjust="spacing" textLength="77" x="1218" y="327.2285">greenSpace</text><text fill="#000000" font-family="sans-serif" font-size="14" lengthAdjust="spacing" textLength="69" x="1218" y="345.8496">description</text><text fill="#000000" font-family="sans-serif" font-size="14" lengthAdjust="spacing" textLength="98" x="1218" y="364.4707">urgencyDegree</text><text fill="#000000" font-family="sans-serif" font-size="14" lengthAdjust="spacing" textLength="38" x="1218" y="383.0918">status</text><text fill="#000000" font-family="sans-serif" font-size="14" lengthAdjust="spacing" textLength="111" x="1218" y="401.7129">expectedDuration</text><line style="stroke:#181818;stroke-width:0.5;" x1="1213" x2="1334" y1="409.2266" y2="409.2266"/></g><!--class AgendaEntry--><g id="elem_AgendaEntry"><rect codeLine="16" fill="#F1F1F1" height="103.8633" id="AgendaEntry" rx="2.5" ry="2.5" style="stroke:#181818;stroke-width:0.5;" width="133" x="1143" y="533.6211"/><ellipse cx="1166.55" cy="549.6211" fill="#ADD1B2" rx="11" ry="11" style="stroke:#181818;stroke-width:1.0;"/><path d="M1169.3156,545.4961 Q1169.4719,545.2773 1169.6594,545.168 Q1169.8469,545.0586 1170.0656,545.0586 Q1170.4406,545.0586 1170.675,545.3242 Q1170.9094,545.5742 1170.9094,546.1836 L1170.9094,547.6367 Q1170.9094,548.2461 1170.675,548.5117 Q1170.4406,548.7773 1170.0656,548.7773 Q1169.7219,548.7773 1169.5188,548.5742 Q1169.3156,548.3867 1169.2063,547.8711 Q1169.1594,547.5117 1168.9719,547.3242 Q1168.6438,546.9492 1168.0344,546.7305 Q1167.425,546.5117 1166.8,546.5117 Q1166.0344,546.5117 1165.3938,546.8398 Q1164.7688,547.168 1164.2688,547.918 Q1163.7844,548.668 1163.7844,549.6992 L1163.7844,550.793 Q1163.7844,552.0273 1164.675,552.8555 Q1165.5656,553.668 1167.1594,553.668 Q1168.0969,553.668 1168.7531,553.418 Q1169.1438,553.2617 1169.5656,552.8242 Q1169.8313,552.5586 1169.9719,552.4805 Q1170.1281,552.4023 1170.3313,552.4023 Q1170.6594,552.4023 1170.9094,552.668 Q1171.175,552.918 1171.175,553.2617 Q1171.175,553.6055 1170.8313,554.0117 Q1170.3313,554.5898 1169.5344,554.918 Q1168.4563,555.3711 1167.1594,555.3711 Q1165.6438,555.3711 1164.4406,554.7461 Q1163.4563,554.2461 1162.7688,553.1836 Q1162.0813,552.1055 1162.0813,550.8242 L1162.0813,549.668 Q1162.0813,548.3398 1162.6906,547.1992 Q1163.3156,546.043 1164.4094,545.4336 Q1165.5031,544.8086 1166.7375,544.8086 Q1167.4719,544.8086 1168.1125,544.9805 Q1168.7688,545.1367 1169.3156,545.4961 Z " fill="#000000"/><text fill="#000000" font-family="sans-serif" font-size="14" lengthAdjust="spacing" textLength="82" x="1182.45" y="555.418">AgendaEntry</text><line style="stroke:#181818;stroke-width:0.5;" x1="1144" x2="1275" y1="565.6211" y2="565.6211"/><text fill="#000000" font-family="sans-serif" font-size="14" lengthAdjust="spacing" textLength="28" x="1149" y="584.7285">date</text><text fill="#000000" font-family="sans-serif" font-size="14" lengthAdjust="spacing" textLength="104" x="1149" y="603.3496">associatedTeam</text><text fill="#000000" font-family="sans-serif" font-size="14" lengthAdjust="spacing" textLength="121" x="1149" y="621.9707">associatedVehicles</text><line style="stroke:#181818;stroke-width:0.5;" x1="1144" x2="1275" y1="629.4844" y2="629.4844"/></g><!--class AgendaEntryDTO--><g id="elem_AgendaEntryDTO"><rect codeLine="22" fill="#F1F1F1" height="122.4844" id="AgendaEntryDTO" rx="2.5" ry="2.5" style="stroke:#181818;stroke-width:0.5;" width="144" x="795.5" y="56.1211"/><ellipse cx="810.5" cy="72.1211" fill="#ADD1B2" rx="11" ry="11" style="stroke:#181818;stroke-width:1.0;"/><path d="M813.2656,67.9961 Q813.4219,67.7773 813.6094,67.668 Q813.7969,67.5586 814.0156,67.5586 Q814.3906,67.5586 814.625,67.8242 Q814.8594,68.0742 814.8594,68.6836 L814.8594,70.1367 Q814.8594,70.7461 814.625,71.0117 Q814.3906,71.2773 814.0156,71.2773 Q813.6719,71.2773 813.4688,71.0742 Q813.2656,70.8867 813.1563,70.3711 Q813.1094,70.0117 812.9219,69.8242 Q812.5938,69.4492 811.9844,69.2305 Q811.375,69.0117 810.75,69.0117 Q809.9844,69.0117 809.3438,69.3398 Q808.7188,69.668 808.2188,70.418 Q807.7344,71.168 807.7344,72.1992 L807.7344,73.293 Q807.7344,74.5273 808.625,75.3555 Q809.5156,76.168 811.1094,76.168 Q812.0469,76.168 812.7031,75.918 Q813.0938,75.7617 813.5156,75.3242 Q813.7813,75.0586 813.9219,74.9805 Q814.0781,74.9023 814.2813,74.9023 Q814.6094,74.9023 814.8594,75.168 Q815.125,75.418 815.125,75.7617 Q815.125,76.1055 814.7813,76.5117 Q814.2813,77.0898 813.4844,77.418 Q812.4063,77.8711 811.1094,77.8711 Q809.5938,77.8711 808.3906,77.2461 Q807.4063,76.7461 806.7188,75.6836 Q806.0313,74.6055 806.0313,73.3242 L806.0313,72.168 Q806.0313,70.8398 806.6406,69.6992 Q807.2656,68.543 808.3594,67.9336 Q809.4531,67.3086 810.6875,67.3086 Q811.4219,67.3086 812.0625,67.4805 Q812.7188,67.6367 813.2656,67.9961 Z " fill="#000000"/><text fill="#000000" font-family="sans-serif" font-size="14" lengthAdjust="spacing" textLength="112" x="824.5" y="77.918">AgendaEntryDTO</text><line style="stroke:#181818;stroke-width:0.5;" x1="796.5" x2="938.5" y1="88.1211" y2="88.1211"/><text fill="#000000" font-family="sans-serif" font-size="14" lengthAdjust="spacing" textLength="45" x="801.5" y="107.2285">entryID</text><text fill="#000000" font-family="sans-serif" font-size="14" lengthAdjust="spacing" textLength="69" x="801.5" y="125.8496">description</text><text fill="#000000" font-family="sans-serif" font-size="14" lengthAdjust="spacing" textLength="81" x="801.5" y="144.4707">plannedDate</text><text fill="#000000" font-family="sans-serif" font-size="14" lengthAdjust="spacing" textLength="38" x="801.5" y="163.0918">status</text><line style="stroke:#181818;stroke-width:0.5;" x1="796.5" x2="938.5" y1="170.6055" y2="170.6055"/></g><!--class SystemUser--><g id="elem_SystemUser"><rect codeLine="29" fill="#F1F1F1" height="122.4844" id="SystemUser" rx="2.5" ry="2.5" style="stroke:#181818;stroke-width:0.5;" width="107" x="7" y="56.1211"/><ellipse cx="22" cy="72.1211" fill="#ADD1B2" rx="11" ry="11" style="stroke:#181818;stroke-width:1.0;"/><path d="M24.7656,67.9961 Q24.9219,67.7773 25.1094,67.668 Q25.2969,67.5586 25.5156,67.5586 Q25.8906,67.5586 26.125,67.8242 Q26.3594,68.0742 26.3594,68.6836 L26.3594,70.1367 Q26.3594,70.7461 26.125,71.0117 Q25.8906,71.2773 25.5156,71.2773 Q25.1719,71.2773 24.9688,71.0742 Q24.7656,70.8867 24.6563,70.3711 Q24.6094,70.0117 24.4219,69.8242 Q24.0938,69.4492 23.4844,69.2305 Q22.875,69.0117 22.25,69.0117 Q21.4844,69.0117 20.8438,69.3398 Q20.2188,69.668 19.7188,70.418 Q19.2344,71.168 19.2344,72.1992 L19.2344,73.293 Q19.2344,74.5273 20.125,75.3555 Q21.0156,76.168 22.6094,76.168 Q23.5469,76.168 24.2031,75.918 Q24.5938,75.7617 25.0156,75.3242 Q25.2813,75.0586 25.4219,74.9805 Q25.5781,74.9023 25.7813,74.9023 Q26.1094,74.9023 26.3594,75.168 Q26.625,75.418 26.625,75.7617 Q26.625,76.1055 26.2813,76.5117 Q25.7813,77.0898 24.9844,77.418 Q23.9063,77.8711 22.6094,77.8711 Q21.0938,77.8711 19.8906,77.2461 Q18.9063,76.7461 18.2188,75.6836 Q17.5313,74.6055 17.5313,73.3242 L17.5313,72.168 Q17.5313,70.8398 18.1406,69.6992 Q18.7656,68.543 19.8594,67.9336 Q20.9531,67.3086 22.1875,67.3086 Q22.9219,67.3086 23.5625,67.4805 Q24.2188,67.6367 24.7656,67.9961 Z " fill="#000000"/><text fill="#000000" font-family="sans-serif" font-size="14" lengthAdjust="spacing" textLength="75" x="36" y="77.918">SystemUser</text><line style="stroke:#181818;stroke-width:0.5;" x1="8" x2="113" y1="88.1211" y2="88.1211"/><text fill="#000000" font-family="sans-serif" font-size="14" lengthAdjust="spacing" textLength="35" x="13" y="107.2285">name</text><text fill="#000000" font-family="sans-serif" font-size="14" lengthAdjust="spacing" textLength="33" x="13" y="125.8496">email</text><text fill="#000000" font-family="sans-serif" font-size="14" lengthAdjust="spacing" textLength="60" x="13" y="144.4707">password</text><text fill="#000000" font-family="sans-serif" font-size="14" lengthAdjust="spacing" textLength="40" x="13" y="163.0918">phone</text><line style="stroke:#181818;stroke-width:0.5;" x1="8" x2="113" y1="170.6055" y2="170.6055"/></g><!--class ToDoEntryDTO--><g id="elem_ToDoEntryDTO"><rect codeLine="36" fill="#F1F1F1" height="141.1055" id="ToDoEntryDTO" rx="2.5" ry="2.5" style="stroke:#181818;stroke-width:0.5;" width="130" x="1037.5" y="46.6211"/><ellipse cx="1052.5" cy="62.6211" fill="#ADD1B2" rx="11" ry="11" style="stroke:#181818;stroke-width:1.0;"/><path d="M1055.2656,58.4961 Q1055.4219,58.2773 1055.6094,58.168 Q1055.7969,58.0586 1056.0156,58.0586 Q1056.3906,58.0586 1056.625,58.3242 Q1056.8594,58.5742 1056.8594,59.1836 L1056.8594,60.6367 Q1056.8594,61.2461 1056.625,61.5117 Q1056.3906,61.7773 1056.0156,61.7773 Q1055.6719,61.7773 1055.4688,61.5742 Q1055.2656,61.3867 1055.1563,60.8711 Q1055.1094,60.5117 1054.9219,60.3242 Q1054.5938,59.9492 1053.9844,59.7305 Q1053.375,59.5117 1052.75,59.5117 Q1051.9844,59.5117 1051.3438,59.8398 Q1050.7188,60.168 1050.2188,60.918 Q1049.7344,61.668 1049.7344,62.6992 L1049.7344,63.793 Q1049.7344,65.0273 1050.625,65.8555 Q1051.5156,66.668 1053.1094,66.668 Q1054.0469,66.668 1054.7031,66.418 Q1055.0938,66.2617 1055.5156,65.8242 Q1055.7813,65.5586 1055.9219,65.4805 Q1056.0781,65.4023 1056.2813,65.4023 Q1056.6094,65.4023 1056.8594,65.668 Q1057.125,65.918 1057.125,66.2617 Q1057.125,66.6055 1056.7813,67.0117 Q1056.2813,67.5898 1055.4844,67.918 Q1054.4063,68.3711 1053.1094,68.3711 Q1051.5938,68.3711 1050.3906,67.7461 Q1049.4063,67.2461 1048.7188,66.1836 Q1048.0313,65.1055 1048.0313,63.8242 L1048.0313,62.668 Q1048.0313,61.3398 1048.6406,60.1992 Q1049.2656,59.043 1050.3594,58.4336 Q1051.4531,57.8086 1052.6875,57.8086 Q1053.4219,57.8086 1054.0625,57.9805 Q1054.7188,58.1367 1055.2656,58.4961 Z " fill="#000000"/><text fill="#000000" font-family="sans-serif" font-size="14" lengthAdjust="spacing" textLength="98" x="1066.5" y="68.418">ToDoEntryDTO</text><line style="stroke:#181818;stroke-width:0.5;" x1="1038.5" x2="1166.5" y1="78.6211" y2="78.6211"/><text fill="#000000" font-family="sans-serif" font-size="14" lengthAdjust="spacing" textLength="77" x="1043.5" y="97.7285">greenSpace</text><text fill="#000000" font-family="sans-serif" font-size="14" lengthAdjust="spacing" textLength="69" x="1043.5" y="116.3496">description</text><text fill="#000000" font-family="sans-serif" font-size="14" lengthAdjust="spacing" textLength="98" x="1043.5" y="134.9707">urgencyDegree</text><text fill="#000000" font-family="sans-serif" font-size="14" lengthAdjust="spacing" textLength="38" x="1043.5" y="153.5918">status</text><text fill="#000000" font-family="sans-serif" font-size="14" lengthAdjust="spacing" textLength="111" x="1043.5" y="172.2129">expectedDuration</text><line style="stroke:#181818;stroke-width:0.5;" x1="1038.5" x2="1166.5" y1="179.7266" y2="179.7266"/></g><!--class ToDoEntryRepository--><g id="elem_ToDoEntryRepository"><rect codeLine="44" fill="#F1F1F1" height="85.2422" id="ToDoEntryRepository" rx="2.5" ry="2.5" style="stroke:#181818;stroke-width:0.5;" width="235" x="440" y="754.1211"/><ellipse cx="485.25" cy="770.1211" fill="#ADD1B2" rx="11" ry="11" style="stroke:#181818;stroke-width:1.0;"/><path d="M488.0156,765.9961 Q488.1719,765.7773 488.3594,765.668 Q488.5469,765.5586 488.7656,765.5586 Q489.1406,765.5586 489.375,765.8242 Q489.6094,766.0742 489.6094,766.6836 L489.6094,768.1367 Q489.6094,768.7461 489.375,769.0117 Q489.1406,769.2773 488.7656,769.2773 Q488.4219,769.2773 488.2188,769.0742 Q488.0156,768.8867 487.9063,768.3711 Q487.8594,768.0117 487.6719,767.8242 Q487.3438,767.4492 486.7344,767.2305 Q486.125,767.0117 485.5,767.0117 Q484.7344,767.0117 484.0938,767.3398 Q483.4688,767.668 482.9688,768.418 Q482.4844,769.168 482.4844,770.1992 L482.4844,771.293 Q482.4844,772.5273 483.375,773.3555 Q484.2656,774.168 485.8594,774.168 Q486.7969,774.168 487.4531,773.918 Q487.8438,773.7617 488.2656,773.3242 Q488.5313,773.0586 488.6719,772.9805 Q488.8281,772.9023 489.0313,772.9023 Q489.3594,772.9023 489.6094,773.168 Q489.875,773.418 489.875,773.7617 Q489.875,774.1055 489.5313,774.5117 Q489.0313,775.0898 488.2344,775.418 Q487.1563,775.8711 485.8594,775.8711 Q484.3438,775.8711 483.1406,775.2461 Q482.1563,774.7461 481.4688,773.6836 Q480.7813,772.6055 480.7813,771.3242 L480.7813,770.168 Q480.7813,768.8398 481.3906,767.6992 Q482.0156,766.543 483.1094,765.9336 Q484.2031,765.3086 485.4375,765.3086 Q486.1719,765.3086 486.8125,765.4805 Q487.4688,765.6367 488.0156,765.9961 Z " fill="#000000"/><text fill="#000000" font-family="sans-serif" font-size="14" lengthAdjust="spacing" textLength="136" x="505.75" y="775.918">ToDoEntryRepository</text><line style="stroke:#181818;stroke-width:0.5;" x1="441" x2="674" y1="786.1211" y2="786.1211"/><text fill="#000000" font-family="sans-serif" font-size="14" lengthAdjust="spacing" textLength="223" x="446" y="805.2285">-ArrayList&lt;ToDoEntry&gt; toDoEntries</text><line style="stroke:#181818;stroke-width:0.5;" x1="441" x2="674" y1="812.7422" y2="812.7422"/><text fill="#000000" font-family="sans-serif" font-size="14" lengthAdjust="spacing" textLength="198" x="446" y="831.8496">+getToDoEntriesNotInAgenda()</text></g><!--class AgendaEntryRepository--><g id="elem_AgendaEntryRepository"><rect codeLine="49" fill="#F1F1F1" height="103.8633" id="AgendaEntryRepository" rx="2.5" ry="2.5" style="stroke:#181818;stroke-width:0.5;" width="267" x="771" y="744.6211"/><ellipse cx="825.25" cy="760.6211" fill="#ADD1B2" rx="11" ry="11" style="stroke:#181818;stroke-width:1.0;"/><path d="M828.0156,756.4961 Q828.1719,756.2773 828.3594,756.168 Q828.5469,756.0586 828.7656,756.0586 Q829.1406,756.0586 829.375,756.3242 Q829.6094,756.5742 829.6094,757.1836 L829.6094,758.6367 Q829.6094,759.2461 829.375,759.5117 Q829.1406,759.7773 828.7656,759.7773 Q828.4219,759.7773 828.2188,759.5742 Q828.0156,759.3867 827.9063,758.8711 Q827.8594,758.5117 827.6719,758.3242 Q827.3438,757.9492 826.7344,757.7305 Q826.125,757.5117 825.5,757.5117 Q824.7344,757.5117 824.0938,757.8398 Q823.4688,758.168 822.9688,758.918 Q822.4844,759.668 822.4844,760.6992 L822.4844,761.793 Q822.4844,763.0273 823.375,763.8555 Q824.2656,764.668 825.8594,764.668 Q826.7969,764.668 827.4531,764.418 Q827.8438,764.2617 828.2656,763.8242 Q828.5313,763.5586 828.6719,763.4805 Q828.8281,763.4023 829.0313,763.4023 Q829.3594,763.4023 829.6094,763.668 Q829.875,763.918 829.875,764.2617 Q829.875,764.6055 829.5313,765.0117 Q829.0313,765.5898 828.2344,765.918 Q827.1563,766.3711 825.8594,766.3711 Q824.3438,766.3711 823.1406,765.7461 Q822.1563,765.2461 821.4688,764.1836 Q820.7813,763.1055 820.7813,761.8242 L820.7813,760.668 Q820.7813,759.3398 821.3906,758.1992 Q822.0156,757.043 823.1094,756.4336 Q824.2031,755.8086 825.4375,755.8086 Q826.1719,755.8086 826.8125,755.9805 Q827.4688,756.1367 828.0156,756.4961 Z " fill="#000000"/><text fill="#000000" font-family="sans-serif" font-size="14" lengthAdjust="spacing" textLength="150" x="845.75" y="766.418">AgendaEntryRepository</text><line style="stroke:#181818;stroke-width:0.5;" x1="772" x2="1037" y1="776.6211" y2="776.6211"/><text fill="#000000" font-family="sans-serif" font-size="14" lengthAdjust="spacing" textLength="255" x="777" y="795.7285">-ArrayList&lt;AgendaEntry&gt; agendaEntries</text><line style="stroke:#181818;stroke-width:0.5;" x1="772" x2="1037" y1="803.2422" y2="803.2422"/><text fill="#000000" font-family="sans-serif" font-size="14" lengthAdjust="spacing" textLength="131" x="777" y="822.3496">+getAgendaEntries()</text><text fill="#000000" font-family="sans-serif" font-size="14" lengthAdjust="spacing" textLength="223" x="777" y="840.9707">+addEntryToAgenda(AgendaEntry)</text></g><!--class Repositories--><g id="elem_Repositories"><rect codeLine="55" fill="#F1F1F1" height="159.7266" id="Repositories" rx="2.5" ry="2.5" style="stroke:#181818;stroke-width:0.5;" width="200" x="555.5" y="505.6211"/><ellipse cx="611.75" cy="521.6211" fill="#ADD1B2" rx="11" ry="11" style="stroke:#181818;stroke-width:1.0;"/><path d="M614.5156,517.4961 Q614.6719,517.2773 614.8594,517.168 Q615.0469,517.0586 615.2656,517.0586 Q615.6406,517.0586 615.875,517.3242 Q616.1094,517.5742 616.1094,518.1836 L616.1094,519.6367 Q616.1094,520.2461 615.875,520.5117 Q615.6406,520.7773 615.2656,520.7773 Q614.9219,520.7773 614.7188,520.5742 Q614.5156,520.3867 614.4063,519.8711 Q614.3594,519.5117 614.1719,519.3242 Q613.8438,518.9492 613.2344,518.7305 Q612.625,518.5117 612,518.5117 Q611.2344,518.5117 610.5938,518.8398 Q609.9688,519.168 609.4688,519.918 Q608.9844,520.668 608.9844,521.6992 L608.9844,522.793 Q608.9844,524.0273 609.875,524.8555 Q610.7656,525.668 612.3594,525.668 Q613.2969,525.668 613.9531,525.418 Q614.3438,525.2617 614.7656,524.8242 Q615.0313,524.5586 615.1719,524.4805 Q615.3281,524.4023 615.5313,524.4023 Q615.8594,524.4023 616.1094,524.668 Q616.375,524.918 616.375,525.2617 Q616.375,525.6055 616.0313,526.0117 Q615.5313,526.5898 614.7344,526.918 Q613.6563,527.3711 612.3594,527.3711 Q610.8438,527.3711 609.6406,526.7461 Q608.6563,526.2461 607.9688,525.1836 Q607.2813,524.1055 607.2813,522.8242 L607.2813,521.668 Q607.2813,520.3398 607.8906,519.1992 Q608.5156,518.043 609.6094,517.4336 Q610.7031,516.8086 611.9375,516.8086 Q612.6719,516.8086 613.3125,516.9805 Q613.9688,517.1367 614.5156,517.4961 Z " fill="#000000"/><text fill="#000000" font-family="sans-serif" font-size="14" lengthAdjust="spacing" textLength="79" x="632.25" y="527.418">Repositories</text><line style="stroke:#181818;stroke-width:0.5;" x1="556.5" x2="754.5" y1="537.6211" y2="537.6211"/><text fill="#000000" font-family="sans-serif" font-size="14" lengthAdjust="spacing" textLength="154" x="561.5" y="556.7285">-agendaEntryRepository</text><text fill="#000000" font-family="sans-serif" font-size="14" lengthAdjust="spacing" textLength="136" x="561.5" y="575.3496">-toDoEntryRepository</text><line style="stroke:#181818;stroke-width:0.5;" x1="556.5" x2="754.5" y1="582.8633" y2="582.8633"/><text fill="#000000" font-family="sans-serif" font-size="14" lengthAdjust="spacing" textLength="94" x="561.5" y="601.9707">-Repositories()</text><text fill="#000000" font-family="sans-serif" font-size="14" lengthAdjust="spacing" textLength="91" x="561.5" y="620.5918">+getInstance()</text><text fill="#000000" font-family="sans-serif" font-size="14" lengthAdjust="spacing" textLength="188" x="561.5" y="639.2129">+getAgendaEntryRepository()</text><text fill="#000000" font-family="sans-serif" font-size="14" lengthAdjust="spacing" textLength="174" x="561.5" y="657.834">+getToDoEntryRepository()</text></g><!--class AgendaEntryMapper--><g id="elem_AgendaEntryMapper"><rect codeLine="65" fill="#F1F1F1" height="103.8633" id="AgendaEntryMapper" rx="2.5" ry="2.5" style="stroke:#181818;stroke-width:0.5;" width="251" x="742" y="294.6211"/><ellipse cx="798.25" cy="310.6211" fill="#ADD1B2" rx="11" ry="11" style="stroke:#181818;stroke-width:1.0;"/><path d="M801.0156,306.4961 Q801.1719,306.2773 801.3594,306.168 Q801.5469,306.0586 801.7656,306.0586 Q802.1406,306.0586 802.375,306.3242 Q802.6094,306.5742 802.6094,307.1836 L802.6094,308.6367 Q802.6094,309.2461 802.375,309.5117 Q802.1406,309.7773 801.7656,309.7773 Q801.4219,309.7773 801.2188,309.5742 Q801.0156,309.3867 800.9063,308.8711 Q800.8594,308.5117 800.6719,308.3242 Q800.3438,307.9492 799.7344,307.7305 Q799.125,307.5117 798.5,307.5117 Q797.7344,307.5117 797.0938,307.8398 Q796.4688,308.168 795.9688,308.918 Q795.4844,309.668 795.4844,310.6992 L795.4844,311.793 Q795.4844,313.0273 796.375,313.8555 Q797.2656,314.668 798.8594,314.668 Q799.7969,314.668 800.4531,314.418 Q800.8438,314.2617 801.2656,313.8242 Q801.5313,313.5586 801.6719,313.4805 Q801.8281,313.4023 802.0313,313.4023 Q802.3594,313.4023 802.6094,313.668 Q802.875,313.918 802.875,314.2617 Q802.875,314.6055 802.5313,315.0117 Q802.0313,315.5898 801.2344,315.918 Q800.1563,316.3711 798.8594,316.3711 Q797.3438,316.3711 796.1406,315.7461 Q795.1563,315.2461 794.4688,314.1836 Q793.7813,313.1055 793.7813,311.8242 L793.7813,310.668 Q793.7813,309.3398 794.3906,308.1992 Q795.0156,307.043 796.1094,306.4336 Q797.2031,305.8086 798.4375,305.8086 Q799.1719,305.8086 799.8125,305.9805 Q800.4688,306.1367 801.0156,306.4961 Z " fill="#000000"/><text fill="#000000" font-family="sans-serif" font-size="14" lengthAdjust="spacing" textLength="130" x="818.75" y="316.418">AgendaEntryMapper</text><line style="stroke:#181818;stroke-width:0.5;" x1="743" x2="992" y1="326.6211" y2="326.6211"/><line style="stroke:#181818;stroke-width:0.5;" x1="743" x2="992" y1="334.6211" y2="334.6211"/><text fill="#000000" font-family="sans-serif" font-size="14" lengthAdjust="spacing" textLength="141" x="748" y="353.7285">+toDTO(agendaEntry)</text><text fill="#000000" font-family="sans-serif" font-size="14" lengthAdjust="spacing" textLength="239" x="748" y="372.3496">+toEntity(agendaEntryDTO, newDate)</text><text fill="#000000" font-family="sans-serif" font-size="14" lengthAdjust="spacing" textLength="176" x="748" y="390.9707">+toEntity(agendaEntryDTO)</text></g><!--class ToDoEntryMapper--><g id="elem_ToDoEntryMapper"><rect codeLine="71" fill="#F1F1F1" height="66.6211" id="ToDoEntryMapper" rx="2.5" ry="2.5" style="stroke:#181818;stroke-width:0.5;" width="148" x="1028.5" y="313.1211"/><ellipse cx="1043.5" cy="329.1211" fill="#ADD1B2" rx="11" ry="11" style="stroke:#181818;stroke-width:1.0;"/><path d="M1046.2656,324.9961 Q1046.4219,324.7773 1046.6094,324.668 Q1046.7969,324.5586 1047.0156,324.5586 Q1047.3906,324.5586 1047.625,324.8242 Q1047.8594,325.0742 1047.8594,325.6836 L1047.8594,327.1367 Q1047.8594,327.7461 1047.625,328.0117 Q1047.3906,328.2773 1047.0156,328.2773 Q1046.6719,328.2773 1046.4688,328.0742 Q1046.2656,327.8867 1046.1563,327.3711 Q1046.1094,327.0117 1045.9219,326.8242 Q1045.5938,326.4492 1044.9844,326.2305 Q1044.375,326.0117 1043.75,326.0117 Q1042.9844,326.0117 1042.3438,326.3398 Q1041.7188,326.668 1041.2188,327.418 Q1040.7344,328.168 1040.7344,329.1992 L1040.7344,330.293 Q1040.7344,331.5273 1041.625,332.3555 Q1042.5156,333.168 1044.1094,333.168 Q1045.0469,333.168 1045.7031,332.918 Q1046.0938,332.7617 1046.5156,332.3242 Q1046.7813,332.0586 1046.9219,331.9805 Q1047.0781,331.9023 1047.2813,331.9023 Q1047.6094,331.9023 1047.8594,332.168 Q1048.125,332.418 1048.125,332.7617 Q1048.125,333.1055 1047.7813,333.5117 Q1047.2813,334.0898 1046.4844,334.418 Q1045.4063,334.8711 1044.1094,334.8711 Q1042.5938,334.8711 1041.3906,334.2461 Q1040.4063,333.7461 1039.7188,332.6836 Q1039.0313,331.6055 1039.0313,330.3242 L1039.0313,329.168 Q1039.0313,327.8398 1039.6406,326.6992 Q1040.2656,325.543 1041.3594,324.9336 Q1042.4531,324.3086 1043.6875,324.3086 Q1044.4219,324.3086 1045.0625,324.4805 Q1045.7188,324.6367 1046.2656,324.9961 Z " fill="#000000"/><text fill="#000000" font-family="sans-serif" font-size="14" lengthAdjust="spacing" textLength="116" x="1057.5" y="334.918">ToDoEntryMapper</text><line style="stroke:#181818;stroke-width:0.5;" x1="1029.5" x2="1175.5" y1="345.1211" y2="345.1211"/><line style="stroke:#181818;stroke-width:0.5;" x1="1029.5" x2="1175.5" y1="353.1211" y2="353.1211"/><text fill="#000000" font-family="sans-serif" font-size="14" lengthAdjust="spacing" textLength="123" x="1034.5" y="372.2285">+toDTO(toDoEntry)</text></g><!--class AgendaController--><g id="elem_AgendaController"><rect codeLine="75" fill="#F1F1F1" height="159.7266" id="AgendaController" rx="2.5" ry="2.5" style="stroke:#181818;stroke-width:0.5;" width="320" x="386.5" y="266.6211"/><ellipse cx="486.75" cy="282.6211" fill="#ADD1B2" rx="11" ry="11" style="stroke:#181818;stroke-width:1.0;"/><path d="M489.5156,278.4961 Q489.6719,278.2773 489.8594,278.168 Q490.0469,278.0586 490.2656,278.0586 Q490.6406,278.0586 490.875,278.3242 Q491.1094,278.5742 491.1094,279.1836 L491.1094,280.6367 Q491.1094,281.2461 490.875,281.5117 Q490.6406,281.7773 490.2656,281.7773 Q489.9219,281.7773 489.7188,281.5742 Q489.5156,281.3867 489.4063,280.8711 Q489.3594,280.5117 489.1719,280.3242 Q488.8438,279.9492 488.2344,279.7305 Q487.625,279.5117 487,279.5117 Q486.2344,279.5117 485.5938,279.8398 Q484.9688,280.168 484.4688,280.918 Q483.9844,281.668 483.9844,282.6992 L483.9844,283.793 Q483.9844,285.0273 484.875,285.8555 Q485.7656,286.668 487.3594,286.668 Q488.2969,286.668 488.9531,286.418 Q489.3438,286.2617 489.7656,285.8242 Q490.0313,285.5586 490.1719,285.4805 Q490.3281,285.4023 490.5313,285.4023 Q490.8594,285.4023 491.1094,285.668 Q491.375,285.918 491.375,286.2617 Q491.375,286.6055 491.0313,287.0117 Q490.5313,287.5898 489.7344,287.918 Q488.6563,288.3711 487.3594,288.3711 Q485.8438,288.3711 484.6406,287.7461 Q483.6563,287.2461 482.9688,286.1836 Q482.2813,285.1055 482.2813,283.8242 L482.2813,282.668 Q482.2813,281.3398 482.8906,280.1992 Q483.5156,279.043 484.6094,278.4336 Q485.7031,277.8086 486.9375,277.8086 Q487.6719,277.8086 488.3125,277.9805 Q488.9688,278.1367 489.5156,278.4961 Z " fill="#000000"/><text fill="#000000" font-family="sans-serif" font-size="14" lengthAdjust="spacing" textLength="111" x="507.25" y="288.418">AgendaController</text><line style="stroke:#181818;stroke-width:0.5;" x1="387.5" x2="705.5" y1="298.6211" y2="298.6211"/><text fill="#000000" font-family="sans-serif" font-size="14" lengthAdjust="spacing" textLength="308" x="392.5" y="317.7285">-AgendaEntryRepository agendaEntryRepository</text><text fill="#000000" font-family="sans-serif" font-size="14" lengthAdjust="spacing" textLength="276" x="392.5" y="336.3496">-ToDoEntryRepository toDoEntryRepository</text><text fill="#000000" font-family="sans-serif" font-size="14" lengthAdjust="spacing" textLength="268" x="392.5" y="354.9707">-AgendaEntryMapper agendaEntryMapper</text><text fill="#000000" font-family="sans-serif" font-size="14" lengthAdjust="spacing" textLength="236" x="392.5" y="373.5918">-ToDoEntryMapper toDoEntryMapper</text><line style="stroke:#181818;stroke-width:0.5;" x1="387.5" x2="705.5" y1="381.1055" y2="381.1055"/><text fill="#000000" font-family="sans-serif" font-size="14" lengthAdjust="spacing" textLength="174" x="392.5" y="400.2129">+getAvailableToDoEntries()</text><text fill="#000000" font-family="sans-serif" font-size="14" lengthAdjust="spacing" textLength="252" x="392.5" y="418.834">+addEntryToAgenda(agendaEntryDTO)</text></g><!--class AgendaUI--><g id="elem_AgendaUI"><rect codeLine="84" fill="#F1F1F1" height="141.1055" id="AgendaUI" rx="2.5" ry="2.5" style="stroke:#181818;stroke-width:0.5;" width="341" x="10" y="276.1211"/><ellipse cx="145.75" cy="292.1211" fill="#ADD1B2" rx="11" ry="11" style="stroke:#181818;stroke-width:1.0;"/><path d="M148.5156,287.9961 Q148.6719,287.7773 148.8594,287.668 Q149.0469,287.5586 149.2656,287.5586 Q149.6406,287.5586 149.875,287.8242 Q150.1094,288.0742 150.1094,288.6836 L150.1094,290.1367 Q150.1094,290.7461 149.875,291.0117 Q149.6406,291.2773 149.2656,291.2773 Q148.9219,291.2773 148.7188,291.0742 Q148.5156,290.8867 148.4063,290.3711 Q148.3594,290.0117 148.1719,289.8242 Q147.8438,289.4492 147.2344,289.2305 Q146.625,289.0117 146,289.0117 Q145.2344,289.0117 144.5938,289.3398 Q143.9688,289.668 143.4688,290.418 Q142.9844,291.168 142.9844,292.1992 L142.9844,293.293 Q142.9844,294.5273 143.875,295.3555 Q144.7656,296.168 146.3594,296.168 Q147.2969,296.168 147.9531,295.918 Q148.3438,295.7617 148.7656,295.3242 Q149.0313,295.0586 149.1719,294.9805 Q149.3281,294.9023 149.5313,294.9023 Q149.8594,294.9023 150.1094,295.168 Q150.375,295.418 150.375,295.7617 Q150.375,296.1055 150.0313,296.5117 Q149.5313,297.0898 148.7344,297.418 Q147.6563,297.8711 146.3594,297.8711 Q144.8438,297.8711 143.6406,297.2461 Q142.6563,296.7461 141.9688,295.6836 Q141.2813,294.6055 141.2813,293.3242 L141.2813,292.168 Q141.2813,290.8398 141.8906,289.6992 Q142.5156,288.543 143.6094,287.9336 Q144.7031,287.3086 145.9375,287.3086 Q146.6719,287.3086 147.3125,287.4805 Q147.9688,287.6367 148.5156,287.9961 Z " fill="#000000"/><text fill="#000000" font-family="sans-serif" font-size="14" lengthAdjust="spacing" textLength="61" x="166.25" y="297.918">AgendaUI</text><line style="stroke:#181818;stroke-width:0.5;" x1="11" x2="350" y1="308.1211" y2="308.1211"/><text fill="#000000" font-family="sans-serif" font-size="14" lengthAdjust="spacing" textLength="230" x="16" y="327.2285">-AgendaController agendaController</text><line style="stroke:#181818;stroke-width:0.5;" x1="11" x2="350" y1="334.7422" y2="334.7422"/><text fill="#000000" font-family="sans-serif" font-size="14" lengthAdjust="spacing" textLength="329" x="16" y="353.8496">+displayAvailableToDoEntries(List&lt;toDoEntryDTO&gt;)</text><text fill="#000000" font-family="sans-serif" font-size="14" lengthAdjust="spacing" textLength="88" x="16" y="372.4707">+selectEntry()</text><text fill="#000000" font-family="sans-serif" font-size="14" lengthAdjust="spacing" textLength="85" x="16" y="391.0918">+selectDate()</text><text fill="#000000" font-family="sans-serif" font-size="14" lengthAdjust="spacing" textLength="170" x="16" y="409.7129">+displayMessage(success)</text></g><!--class GSM--><g id="elem_GSM"><rect fill="#F1F1F1" height="48" id="GSM" rx="2.5" ry="2.5" style="stroke:#181818;stroke-width:0.5;" width="63" x="149" y="93.1211"/><ellipse cx="164" cy="109.1211" fill="#ADD1B2" rx="11" ry="11" style="stroke:#181818;stroke-width:1.0;"/><path d="M166.7656,104.9961 Q166.9219,104.7773 167.1094,104.668 Q167.2969,104.5586 167.5156,104.5586 Q167.8906,104.5586 168.125,104.8242 Q168.3594,105.0742 168.3594,105.6836 L168.3594,107.1367 Q168.3594,107.7461 168.125,108.0117 Q167.8906,108.2773 167.5156,108.2773 Q167.1719,108.2773 166.9688,108.0742 Q166.7656,107.8867 166.6563,107.3711 Q166.6094,107.0117 166.4219,106.8242 Q166.0938,106.4492 165.4844,106.2305 Q164.875,106.0117 164.25,106.0117 Q163.4844,106.0117 162.8438,106.3398 Q162.2188,106.668 161.7188,107.418 Q161.2344,108.168 161.2344,109.1992 L161.2344,110.293 Q161.2344,111.5273 162.125,112.3555 Q163.0156,113.168 164.6094,113.168 Q165.5469,113.168 166.2031,112.918 Q166.5938,112.7617 167.0156,112.3242 Q167.2813,112.0586 167.4219,111.9805 Q167.5781,111.9023 167.7813,111.9023 Q168.1094,111.9023 168.3594,112.168 Q168.625,112.418 168.625,112.7617 Q168.625,113.1055 168.2813,113.5117 Q167.7813,114.0898 166.9844,114.418 Q165.9063,114.8711 164.6094,114.8711 Q163.0938,114.8711 161.8906,114.2461 Q160.9063,113.7461 160.2188,112.6836 Q159.5313,111.6055 159.5313,110.3242 L159.5313,109.168 Q159.5313,107.8398 160.1406,106.6992 Q160.7656,105.543 161.8594,104.9336 Q162.9531,104.3086 164.1875,104.3086 Q164.9219,104.3086 165.5625,104.4805 Q166.2188,104.6367 166.7656,104.9961 Z " fill="#000000"/><text fill="#000000" font-family="sans-serif" font-size="14" lengthAdjust="spacing" textLength="31" x="178" y="114.918">GSM</text><line style="stroke:#181818;stroke-width:0.5;" x1="150" x2="211" y1="125.1211" y2="125.1211"/><line style="stroke:#181818;stroke-width:0.5;" x1="150" x2="211" y1="133.1211" y2="133.1211"/></g><!--link AgendaUI to AgendaController--><g id="link_AgendaUI_AgendaController"><path codeLine="92" d="M351.07,346.6211 C362.76,346.6211 369.09,346.6211 380.24,346.6211 " fill="none" id="AgendaUI-to-AgendaController" style="stroke:#181818;stroke-width:1.0;stroke-dasharray:7.0,7.0;"/><polygon fill="#181818" points="386.24,346.6211,377.24,342.6211,381.24,346.6211,377.24,350.6211,386.24,346.6211" style="stroke:#181818;stroke-width:1.0;"/></g><!--link AgendaController to Repositories--><g id="link_AgendaController_Repositories"><path codeLine="93" d="M582.95,426.8711 C594.58,452.1711 604.9422,474.7003 616.5822,500.0003 " fill="none" id="AgendaController-to-Repositories" style="stroke:#181818;stroke-width:1.0;stroke-dasharray:7.0,7.0;"/><polygon fill="#181818" points="619.09,505.4511,618.9622,495.6031,617.0002,500.9088,611.6945,498.9468,619.09,505.4511" style="stroke:#181818;stroke-width:1.0;"/><text fill="#000000" font-family="sans-serif" font-size="13" lengthAdjust="spacing" textLength="67" x="605.5" y="471.6494">repositories</text></g><!--link Repositories to AgendaEntryRepository--><g id="link_Repositories_AgendaEntryRepository"><path codeLine="94" d="M749.64,665.6311 C781.04,691.9911 810.5838,716.7943 838.8038,740.4743 " fill="none" id="Repositories-to-AgendaEntryRepository" style="stroke:#181818;stroke-width:1.0;"/><polygon fill="#181818" points="843.4,744.3311,839.0769,735.4818,839.5698,741.1171,833.9345,741.6101,843.4,744.3311" style="stroke:#181818;stroke-width:1.0;"/><text fill="#000000" font-family="sans-serif" font-size="13" lengthAdjust="spacing" textLength="7" x="827.7194" y="733.2195">1</text></g><!--link Repositories to ToDoEntryRepository--><g id="link_Repositories_ToDoEntryRepository"><path codeLine="95" d="M618.45,665.6311 C604.36,695.6911 591.4073,723.3087 579.5673,748.5587 " fill="none" id="Repositories-to-ToDoEntryRepository" style="stroke:#181818;stroke-width:1.0;"/><polygon fill="#181818" points="577.02,753.9911,584.4626,747.5407,579.1428,749.4641,577.2194,744.1443,577.02,753.9911" style="stroke:#181818;stroke-width:1.0;"/><text fill="#000000" font-family="sans-serif" font-size="13" lengthAdjust="spacing" textLength="7" x="572.5732" y="742.8745">1</text></g><!--link Repositories to Repositories--><g id="link_Repositories_Repositories"><path codeLine="96" d="M755.59,564.3411 C775.93,566.6611 790.5,573.7511 790.5,585.6211 C790.5,597.4911 781.8913,603.9011 761.5513,606.2211 " fill="none" id="Repositories-to-Repositories" style="stroke:#181818;stroke-width:1.0;"/><polygon fill="#181818" points="755.59,606.9011,764.9853,609.8554,760.5578,606.3345,764.0787,601.9069,755.59,606.9011" style="stroke:#181818;stroke-width:1.0;"/><text fill="#000000" font-family="sans-serif" font-size="13" lengthAdjust="spacing" textLength="49" x="796.5" y="591.1494">instance</text></g><!--link AgendaController to AgendaEntryMapper--><g id="link_AgendaController_AgendaEntryMapper"><path codeLine="97" d="M706.69,346.6211 C719.27,346.6211 725.89,346.6211 735.73,346.6211 " fill="none" id="AgendaController-to-AgendaEntryMapper" style="stroke:#181818;stroke-width:1.0;stroke-dasharray:7.0,7.0;"/><polygon fill="#181818" points="741.73,346.6211,732.73,342.6211,736.73,346.6211,732.73,350.6211,741.73,346.6211" style="stroke:#181818;stroke-width:1.0;"/></g><!--link AgendaController to ToDoEntryMapper--><g id="link_AgendaController_ToDoEntryMapper"><path codeLine="98" d="M677.44,266.5811 C713.06,244.8111 742,227.1211 742,227.1211 C742,227.1211 993,227.1211 993,227.1211 C993,227.1211 1035.266,273.2479 1067.656,308.5879 " fill="none" id="AgendaController-to-ToDoEntryMapper" style="stroke:#181818;stroke-width:1.0;stroke-dasharray:7.0,7.0;"/><polygon fill="#181818" points="1071.71,313.0111,1068.5778,303.6736,1068.3317,309.3251,1062.6802,309.0789,1071.71,313.0111" style="stroke:#181818;stroke-width:1.0;"/></g><!--link AgendaController to AgendaEntryRepository--><g id="link_AgendaController_AgendaEntryRepository"><path codeLine="99" d="M699.45,426.8511 C775.55,466.2711 851.5,505.6211 851.5,505.6211 C851.5,505.6211 878.8509,655.2889 894.0709,738.5389 " fill="none" id="AgendaController-to-AgendaEntryRepository" style="stroke:#181818;stroke-width:1.0;"/><polygon fill="#181818" points="895.15,744.4411,897.4662,734.8685,894.2508,739.5226,889.5966,736.3072,895.15,744.4411" style="stroke:#181818;stroke-width:1.0;"/><text fill="#000000" font-family="sans-serif" font-size="13" lengthAdjust="spacing" textLength="28" x="882.5" y="591.1494">uses</text></g><!--link AgendaController to ToDoEntryRepository--><g id="link_AgendaController_ToDoEntryRepository"><path codeLine="100" d="M526.89,427.0811 C517.17,466.4311 507.5,505.6211 507.5,505.6211 C507.5,505.6211 507.5,665.6211 507.5,665.6211 C507.5,665.6211 524.6368,710.1708 539.2468,748.1708 " fill="none" id="AgendaController-to-ToDoEntryRepository" style="stroke:#181818;stroke-width:1.0;"/><polygon fill="#181818" points="541.4,753.7711,541.9038,743.9351,539.6057,749.1041,534.4367,746.806,541.4,753.7711" style="stroke:#181818;stroke-width:1.0;"/><text fill="#000000" font-family="sans-serif" font-size="13" lengthAdjust="spacing" textLength="28" x="508.5" y="591.1494">uses</text></g><!--reverse link SystemUser to GSM--><g id="link_SystemUser_GSM"><path codeLine="102" d="M132.04,117.1211 C143.65,117.1211 140.5,117.1211 140.5,117.1211 C140.5,117.1211 144.03,117.1211 148.98,117.1211 " fill="none" id="SystemUser-backto-GSM" style="stroke:#181818;stroke-width:1.0;"/><polygon fill="none" points="114.04,117.1211,132.04,123.1211,132.04,111.1211,114.04,117.1211" style="stroke:#181818;stroke-width:1.0;"/></g><!--reverse link ToDoEntry to AgendaEntry--><g id="link_ToDoEntry_AgendaEntry"><path codeLine="103" d="M1250.0361,434.5083 C1239.9661,471.7883 1232.47,499.5611 1223.28,533.5811 " fill="none" id="ToDoEntry-backto-AgendaEntry" style="stroke:#181818;stroke-width:1.0;"/><polygon fill="none" points="1254.73,417.1311,1244.2437,432.9437,1255.8285,436.0729,1254.73,417.1311" style="stroke:#181818;stroke-width:1.0;"/></g><!--link GSM to AgendaUI--><g id="link_GSM_AgendaUI"><path codeLine="105" d="M180.5,141.1911 C180.5,172.4811 180.5,229.7511 180.5,275.7311 " fill="none" id="GSM-AgendaUI" style="stroke:#181818;stroke-width:1.0;"/><text fill="#000000" font-family="sans-serif" font-size="13" lengthAdjust="spacing" textLength="7" x="172.6469" y="163.1938">1</text><text fill="#000000" font-family="sans-serif" font-size="13" lengthAdjust="spacing" textLength="7" x="173.1555" y="264.9536">1</text></g><!--reverse link AgendaEntry to AgendaEntryRepository--><g id="link_AgendaEntry_AgendaEntryRepository"><path codeLine="106" d="M1137.9908,635.623 C1089.6208,668.773 1029.06,710.2711 978.94,744.6111 " fill="none" id="AgendaEntry-backto-AgendaEntryRepository" style="stroke:#181818;stroke-width:1.0;"/><polygon fill="#181818" points="1142.94,632.2311,1133.2549,634.0195,1138.8156,635.0577,1137.7774,640.6185,1142.94,632.2311" style="stroke:#181818;stroke-width:1.0;"/><text fill="#000000" font-family="sans-serif" font-size="13" lengthAdjust="spacing" textLength="36" x="1049.5" y="710.6494">stores</text><text fill="#000000" font-family="sans-serif" font-size="13" lengthAdjust="spacing" textLength="5" x="1129.9549" y="633.6906">*</text><text fill="#000000" font-family="sans-serif" font-size="13" lengthAdjust="spacing" textLength="7" x="981.4726" y="733.5371">1</text></g><!--reverse link AgendaEntryDTO to AgendaEntryMapper--><g id="link_AgendaEntryDTO_AgendaEntryMapper"><path codeLine="107" d="M867.5,184.1911 C867.5,220.3911 867.5,260.0111 867.5,294.4811 " fill="none" id="AgendaEntryDTO-backto-AgendaEntryMapper" style="stroke:#181818;stroke-width:1.0;"/><polygon fill="#181818" points="867.5,178.1911,863.5,187.1911,867.5,183.1911,871.5,187.1911,867.5,178.1911" style="stroke:#181818;stroke-width:1.0;"/><text fill="#000000" font-family="sans-serif" font-size="13" lengthAdjust="spacing" textLength="43" x="868.5" y="232.6494">creates</text><text fill="#000000" font-family="sans-serif" font-size="13" lengthAdjust="spacing" textLength="5" x="862.1953" y="200.6865">*</text><text fill="#000000" font-family="sans-serif" font-size="13" lengthAdjust="spacing" textLength="7" x="860.0297" y="283.3897">1</text></g><!--reverse link ToDoEntryDTO to ToDoEntryMapper--><g id="link_ToDoEntryDTO_ToDoEntryMapper"><path codeLine="108" d="M1102.5,193.9211 C1102.5,235.5911 1102.5,280.5511 1102.5,313.0511 " fill="none" id="ToDoEntryDTO-backto-ToDoEntryMapper" style="stroke:#181818;stroke-width:1.0;"/><polygon fill="#181818" points="1102.5,187.9211,1098.5,196.9211,1102.5,192.9211,1106.5,196.9211,1102.5,187.9211" style="stroke:#181818;stroke-width:1.0;"/><text fill="#000000" font-family="sans-serif" font-size="13" lengthAdjust="spacing" textLength="43" x="1103.5" y="232.6494">creates</text><text fill="#000000" font-family="sans-serif" font-size="13" lengthAdjust="spacing" textLength="5" x="1097.2539" y="209.7646">*</text><text fill="#000000" font-family="sans-serif" font-size="13" lengthAdjust="spacing" textLength="7" x="1094.8109" y="301.8628">1</text></g><!--SRC=[jLN1Rjim3BthAuISqhKfjcjG10YQOGYmhC3YxCxQd2DKaGn9MUPj_VVHjgB8jjATbajCyf7lcI8j-o9K1GOEF9TWxT8v8vwF3jUvLbln2_bxPWEaWlm5IjowMY8tc3jGfSG8OFTGw9DG9VyEqiOHAHIwka9UQLat1cDEE2hpsD3obO2IO8orAdYcL_gZSgR-pJZzIeEejiIEhLcWpOsedD2gjO-cH9NNAsnmhSSwS4VRFkBFYeHYiJeQQ3DUpoHBoYgWfU4TJm6kowUmpWLPHOQagk_wXdkHIxJ9IglioHV3nbolaeeh2KgHfZEVrniARclhyB2pQ7mn1OSEYGSGigj1m9CsHMViDRNqTTI_Yvp_qyD0z1KhRONJePSplZG6wi_2keU0Md3d7mLsfMzvYIwxEBzejrPTFwStoGw_oHJX5Xo2qMDRncuYwG9G56rQfZrxL2eI4jWfD_13IfsFkN67c0_5jO8E4hXMr7kLO-nBDY0694xYIWCtK5LXi6uRWTdJ5EAtFGV85AwEOmIzumfFpUJ-0tUJc98aTUZGIEwZ9hUMCgJChWp2MmUG6j7KeOpgUx4mz0phUfphsz7H_Q2LXMU9qPXV7xkhJUpYk_MW5L6FOE3m58MmzBsfapBQfN7Hrs9n5cPHqiwtxcdVrvnzSFdY6xIMwAVscEVqsCeEWkyN8wri9FwUKBtbcjCDSp5PBpQRBVZamoGz3MbeOWm6m16_y7kO4BiO3qeIDHYICQQHbvxfEJzQUkzaHcgcFPv5TyV3dnd_jDsm06yylHbdZE9jVyX_wUXkpUBRSV9kmXzwW36vfVyWDzmzLpBzoinvRf2coRBUXHKd3RVial8N]--></g></svg>