<?xml version="1.0" encoding="us-ascii" standalone="no"?><svg xmlns="http://www.w3.org/2000/svg" xmlns:xlink="http://www.w3.org/1999/xlink" contentStyleType="text/css" height="931.5px" preserveAspectRatio="none" style="width:1688px;height:931px;background:#FFFFFF;" version="1.1" viewBox="0 0 1688 931" width="1688.4px" zoomAndPan="magnify"><defs/><g><rect fill="#FFFFFF" height="756.7717" style="stroke:#181818;stroke-width:0.9;" width="9" x="16.65" y="84.259"/><rect fill="#FFFFFF" height="354.143" style="stroke:#181818;stroke-width:0.9;" width="9" x="289.35" y="120.7828"/><rect fill="#FFFFFF" height="28.1619" style="stroke:#181818;stroke-width:0.9;" width="9" x="289.35" y="503.0877"/><rect fill="#FFFFFF" height="281.6191" style="stroke:#181818;stroke-width:0.9;" width="9" x="289.35" y="559.4115"/><rect fill="#FFFFFF" height="282.2572" style="stroke:#181818;stroke-width:0.9;" width="9" x="526.95" y="148.9447"/><rect fill="#FFFFFF" height="168.9715" style="stroke:#181818;stroke-width:0.9;" width="9" x="526.95" y="643.8973"/><rect fill="#FFFFFF" height="28.1619" style="stroke:#181818;stroke-width:0.9;" width="9" x="637.65" y="177.1066"/><rect fill="#FFFFFF" height="28.1619" style="stroke:#181818;stroke-width:0.9;" width="9" x="757.8" y="233.4305"/><rect fill="#FFFFFF" height="28.1619" style="stroke:#181818;stroke-width:0.9;" width="9" x="909.9" y="756.5449"/><rect fill="#FFFFFF" height="113.2857" style="stroke:#181818;stroke-width:0.9;" width="9" x="1053" y="289.7543"/><rect fill="#FFFFFF" height="27" style="stroke:#181818;stroke-width:0.9;" width="9" x="1271.7" y="341.5781"/><rect fill="#FFFFFF" height="56.3238" style="stroke:#181818;stroke-width:0.9;" width="9" x="1395.9" y="672.0592"/><rect fill="none" height="72.5238" style="stroke:#000000;stroke-width:1.35;" width="345.6" x="990" y="303.2543"/><line style="stroke:#181818;stroke-width:0.45;stroke-dasharray:5.0,5.0;" x1="20.7" x2="20.7" y1="75.259" y2="857.2307"/><line style="stroke:#181818;stroke-width:0.45;stroke-dasharray:5.0,5.0;" x1="293.4" x2="293.4" y1="75.259" y2="857.2307"/><line style="stroke:#181818;stroke-width:0.45;stroke-dasharray:5.0,5.0;" x1="531" x2="531" y1="75.259" y2="857.2307"/><line style="stroke:#181818;stroke-width:0.45;stroke-dasharray:5.0,5.0;" x1="641.7" x2="641.7" y1="75.259" y2="857.2307"/><line style="stroke:#181818;stroke-width:0.45;stroke-dasharray:5.0,5.0;" x1="762.3" x2="762.3" y1="75.259" y2="857.2307"/><line style="stroke:#181818;stroke-width:0.45;stroke-dasharray:5.0,5.0;" x1="914.4" x2="914.4" y1="75.259" y2="857.2307"/><line style="stroke:#181818;stroke-width:0.45;stroke-dasharray:5.0,5.0;" x1="1057.5" x2="1057.5" y1="75.259" y2="857.2307"/><line style="stroke:#181818;stroke-width:0.45;stroke-dasharray:5.0,5.0;" x1="1276.2" x2="1276.2" y1="75.259" y2="857.2307"/><line style="stroke:#181818;stroke-width:0.45;stroke-dasharray:5.0,5.0;" x1="1400.4" x2="1400.4" y1="75.259" y2="857.2307"/><line style="stroke:#181818;stroke-width:0.45;stroke-dasharray:5.0,5.0;" x1="1530.9" x2="1530.9" y1="75.259" y2="857.2307"/><line style="stroke:#181818;stroke-width:0.45;stroke-dasharray:5.0,5.0;" x1="1639.8" x2="1639.8" y1="75.259" y2="857.2307"/><text fill="#000000" font-family="sans-serif" font-size="12.6" lengthAdjust="spacing" textLength="27.9" x="4.5" y="72.0967">GSM</text><ellipse cx="21.15" cy="12.15" fill="#E3E3E3" rx="7.2" ry="7.2" style="stroke:#181818;stroke-width:0.45;"/><path d="M21.15,19.35 L21.15,43.65 M9.45,26.55 L32.85,26.55 M21.15,43.65 L9.45,57.15 M21.15,43.65 L32.85,57.15 " fill="none" style="stroke:#181818;stroke-width:0.45;"/><text fill="#000000" font-family="sans-serif" font-size="12.6" lengthAdjust="spacing" textLength="27.9" x="4.5" y="869.9273">GSM</text><ellipse cx="21.15" cy="880.7396" fill="#E3E3E3" rx="7.2" ry="7.2" style="stroke:#181818;stroke-width:0.45;"/><path d="M21.15,887.9396 L21.15,912.2396 M9.45,895.1396 L32.85,895.1396 M21.15,912.2396 L9.45,925.7396 M21.15,912.2396 L32.85,925.7396 " fill="none" style="stroke:#181818;stroke-width:0.45;"/><rect fill="#E3E3E3" height="29.359" rx="2.25" ry="2.25" style="stroke:#181818;stroke-width:0.45;" width="71.1" x="258.3" y="45"/><text fill="#000000" font-family="sans-serif" font-size="12.6" lengthAdjust="spacing" textLength="58.5" x="264.6" y="64.8967">:AgendaUI</text><rect fill="#E3E3E3" height="29.359" rx="2.25" ry="2.25" style="stroke:#181818;stroke-width:0.45;" width="71.1" x="258.3" y="856.3307"/><text fill="#000000" font-family="sans-serif" font-size="12.6" lengthAdjust="spacing" textLength="58.5" x="264.6" y="876.2273">:AgendaUI</text><rect fill="#E3E3E3" height="29.359" rx="2.25" ry="2.25" style="stroke:#181818;stroke-width:0.45;" width="116.1" x="473.4" y="45"/><text fill="#000000" font-family="sans-serif" font-size="12.6" lengthAdjust="spacing" textLength="103.5" x="479.7" y="64.8967">:AgendaController</text><rect fill="#E3E3E3" height="29.359" rx="2.25" ry="2.25" style="stroke:#181818;stroke-width:0.45;" width="116.1" x="473.4" y="856.3307"/><text fill="#000000" font-family="sans-serif" font-size="12.6" lengthAdjust="spacing" textLength="103.5" x="479.7" y="876.2273">:AgendaController</text><rect fill="#E3E3E3" height="29.359" rx="2.25" ry="2.25" style="stroke:#181818;stroke-width:0.45;" width="87.3" x="598.5" y="45"/><text fill="#000000" font-family="sans-serif" font-size="12.6" lengthAdjust="spacing" textLength="74.7" x="604.8" y="64.8967">:Repositories</text><rect fill="#E3E3E3" height="29.359" rx="2.25" ry="2.25" style="stroke:#181818;stroke-width:0.45;" width="87.3" x="598.5" y="856.3307"/><text fill="#000000" font-family="sans-serif" font-size="12.6" lengthAdjust="spacing" textLength="74.7" x="604.8" y="876.2273">:Repositories</text><rect fill="#E3E3E3" height="46.118" rx="2.25" ry="2.25" style="stroke:#181818;stroke-width:0.45;" width="135" x="694.8" y="28.241"/><text fill="#000000" font-family="sans-serif" font-size="12.6" lengthAdjust="spacing" textLength="122.4" x="701.1" y="48.1377">ToDoEntryRepository</text><text fill="#000000" font-family="sans-serif" font-size="12.6" lengthAdjust="spacing" textLength="121.5" x="701.55" y="64.8967">:toDoEntryRepository</text><rect fill="#E3E3E3" height="46.118" rx="2.25" ry="2.25" style="stroke:#181818;stroke-width:0.45;" width="135" x="694.8" y="856.3307"/><text fill="#000000" font-family="sans-serif" font-size="12.6" lengthAdjust="spacing" textLength="122.4" x="701.1" y="876.2273">ToDoEntryRepository</text><text fill="#000000" font-family="sans-serif" font-size="12.6" lengthAdjust="spacing" textLength="121.5" x="701.55" y="892.9863">:toDoEntryRepository</text><rect fill="#E3E3E3" height="46.118" rx="2.25" ry="2.25" style="stroke:#181818;stroke-width:0.45;" width="151.2" x="838.8" y="28.241"/><text fill="#000000" font-family="sans-serif" font-size="12.6" lengthAdjust="spacing" textLength="138.6" x="845.1" y="48.1377">AgendaEntryRepository:</text><text fill="#000000" font-family="sans-serif" font-size="12.6" lengthAdjust="spacing" textLength="134.1" x="847.35" y="64.8967">agendaEntryRepository</text><rect fill="#E3E3E3" height="46.118" rx="2.25" ry="2.25" style="stroke:#181818;stroke-width:0.45;" width="151.2" x="838.8" y="856.3307"/><text fill="#000000" font-family="sans-serif" font-size="12.6" lengthAdjust="spacing" textLength="138.6" x="845.1" y="876.2273">AgendaEntryRepository:</text><text fill="#000000" font-family="sans-serif" font-size="12.6" lengthAdjust="spacing" textLength="134.1" x="847.35" y="892.9863">agendaEntryRepository</text><rect fill="#E3E3E3" height="29.359" rx="2.25" ry="2.25" style="stroke:#181818;stroke-width:0.45;" width="117" x="999" y="45"/><text fill="#000000" font-family="sans-serif" font-size="12.6" lengthAdjust="spacing" textLength="104.4" x="1005.3" y="64.8967">ToDoEntryMapper</text><rect fill="#E3E3E3" height="29.359" rx="2.25" ry="2.25" style="stroke:#181818;stroke-width:0.45;" width="117" x="999" y="856.3307"/><text fill="#000000" font-family="sans-serif" font-size="12.6" lengthAdjust="spacing" textLength="104.4" x="1005.3" y="876.2273">ToDoEntryMapper</text><rect fill="#E3E3E3" height="29.359" rx="2.25" ry="2.25" style="stroke:#181818;stroke-width:0.45;" width="100.8" x="1225.8" y="45"/><text fill="#000000" font-family="sans-serif" font-size="12.6" lengthAdjust="spacing" textLength="88.2" x="1232.1" y="64.8967">ToDoEntryDTO</text><rect fill="#E3E3E3" height="29.359" rx="2.25" ry="2.25" style="stroke:#181818;stroke-width:0.45;" width="100.8" x="1225.8" y="856.3307"/><text fill="#000000" font-family="sans-serif" font-size="12.6" lengthAdjust="spacing" textLength="88.2" x="1232.1" y="876.2273">ToDoEntryDTO</text><rect fill="#E3E3E3" height="29.359" rx="2.25" ry="2.25" style="stroke:#181818;stroke-width:0.45;" width="129.6" x="1335.6" y="45"/><text fill="#000000" font-family="sans-serif" font-size="12.6" lengthAdjust="spacing" textLength="117" x="1341.9" y="64.8967">AgendaEntryMapper</text><rect fill="#E3E3E3" height="29.359" rx="2.25" ry="2.25" style="stroke:#181818;stroke-width:0.45;" width="129.6" x="1335.6" y="856.3307"/><text fill="#000000" font-family="sans-serif" font-size="12.6" lengthAdjust="spacing" textLength="117" x="1341.9" y="876.2273">AgendaEntryMapper</text><rect fill="#E3E3E3" height="29.359" rx="2.25" ry="2.25" style="stroke:#181818;stroke-width:0.45;" width="113.4" x="1474.2" y="45"/><text fill="#000000" font-family="sans-serif" font-size="12.6" lengthAdjust="spacing" textLength="100.8" x="1480.5" y="64.8967">AgendaEntryDTO</text><rect fill="#E3E3E3" height="29.359" rx="2.25" ry="2.25" style="stroke:#181818;stroke-width:0.45;" width="113.4" x="1474.2" y="856.3307"/><text fill="#000000" font-family="sans-serif" font-size="12.6" lengthAdjust="spacing" textLength="100.8" x="1480.5" y="876.2273">AgendaEntryDTO</text><rect fill="#E3E3E3" height="29.359" rx="2.25" ry="2.25" style="stroke:#181818;stroke-width:0.45;" width="86.4" x="1596.6" y="45"/><text fill="#000000" font-family="sans-serif" font-size="12.6" lengthAdjust="spacing" textLength="73.8" x="1602.9" y="64.8967">AgendaEntry</text><rect fill="#E3E3E3" height="29.359" rx="2.25" ry="2.25" style="stroke:#181818;stroke-width:0.45;" width="86.4" x="1596.6" y="856.3307"/><text fill="#000000" font-family="sans-serif" font-size="12.6" lengthAdjust="spacing" textLength="73.8" x="1602.9" y="876.2273">AgendaEntry</text><rect fill="#FFFFFF" height="756.7717" style="stroke:#181818;stroke-width:0.9;" width="9" x="16.65" y="84.259"/><rect fill="#FFFFFF" height="354.143" style="stroke:#181818;stroke-width:0.9;" width="9" x="289.35" y="120.7828"/><rect fill="#FFFFFF" height="28.1619" style="stroke:#181818;stroke-width:0.9;" width="9" x="289.35" y="503.0877"/><rect fill="#FFFFFF" height="281.6191" style="stroke:#181818;stroke-width:0.9;" width="9" x="289.35" y="559.4115"/><rect fill="#FFFFFF" height="282.2572" style="stroke:#181818;stroke-width:0.9;" width="9" x="526.95" y="148.9447"/><rect fill="#FFFFFF" height="168.9715" style="stroke:#181818;stroke-width:0.9;" width="9" x="526.95" y="643.8973"/><rect fill="#FFFFFF" height="28.1619" style="stroke:#181818;stroke-width:0.9;" width="9" x="637.65" y="177.1066"/><rect fill="#FFFFFF" height="28.1619" style="stroke:#181818;stroke-width:0.9;" width="9" x="757.8" y="233.4305"/><rect fill="#FFFFFF" height="28.1619" style="stroke:#181818;stroke-width:0.9;" width="9" x="909.9" y="756.5449"/><rect fill="#FFFFFF" height="113.2857" style="stroke:#181818;stroke-width:0.9;" width="9" x="1053" y="289.7543"/><rect fill="#FFFFFF" height="27" style="stroke:#181818;stroke-width:0.9;" width="9" x="1271.7" y="341.5781"/><rect fill="#FFFFFF" height="56.3238" style="stroke:#181818;stroke-width:0.9;" width="9" x="1395.9" y="672.0592"/><polygon fill="#181818" points="278.55,117.1828,287.55,120.7828,278.55,124.3828,282.15,120.7828" style="stroke:#181818;stroke-width:0.9;"/><line style="stroke:#181818;stroke-width:0.9;" x1="25.65" x2="283.95" y1="120.7828" y2="120.7828"/><text fill="#000000" font-family="sans-serif" font-size="11.7" font-weight="bold" lengthAdjust="spacing" textLength="6.3" x="31.95" y="108.2654">1</text><text fill="#000000" font-family="sans-serif" font-size="11.7" lengthAdjust="spacing" textLength="236.7" x="41.85" y="100.4845">asks to add a new entry from the "To Do List"</text><text fill="#000000" font-family="sans-serif" font-size="11.7" lengthAdjust="spacing" textLength="72.9" x="45.45" y="116.0464">to the Agenda</text><polygon fill="#181818" points="516.15,145.3447,525.15,148.9447,516.15,152.5447,519.75,148.9447" style="stroke:#181818;stroke-width:0.9;"/><line style="stroke:#181818;stroke-width:0.9;" x1="298.35" x2="521.55" y1="148.9447" y2="148.9447"/><text fill="#000000" font-family="sans-serif" font-size="11.7" font-weight="bold" lengthAdjust="spacing" textLength="6.3" x="304.65" y="144.2083">2</text><text fill="#000000" font-family="sans-serif" font-size="11.7" lengthAdjust="spacing" textLength="133.2" x="314.55" y="144.2083">getAvailableToDoEntries()</text><polygon fill="#181818" points="626.85,173.5066,635.85,177.1066,626.85,180.7066,630.45,177.1066" style="stroke:#181818;stroke-width:0.9;"/><line style="stroke:#181818;stroke-width:0.9;" x1="535.95" x2="632.25" y1="177.1066" y2="177.1066"/><text fill="#000000" font-family="sans-serif" font-size="11.7" font-weight="bold" lengthAdjust="spacing" textLength="6.3" x="542.25" y="172.3702">3</text><text fill="#000000" font-family="sans-serif" font-size="11.7" lengthAdjust="spacing" textLength="67.5" x="552.15" y="172.3702">getInstance()</text><polygon fill="#181818" points="545.85,201.6686,536.85,205.2686,545.85,208.8686,542.25,205.2686" style="stroke:#181818;stroke-width:0.9;"/><line style="stroke:#181818;stroke-width:0.9;stroke-dasharray:2.0,2.0;" x1="540.45" x2="641.25" y1="205.2686" y2="205.2686"/><text fill="#000000" font-family="sans-serif" font-size="11.7" font-weight="bold" lengthAdjust="spacing" textLength="6.3" x="551.25" y="200.5321">4</text><text fill="#000000" font-family="sans-serif" font-size="11.7" lengthAdjust="spacing" textLength="60.3" x="561.15" y="200.5321">repositories</text><polygon fill="#181818" points="747,229.8305,756,233.4305,747,237.0305,750.6,233.4305" style="stroke:#181818;stroke-width:0.9;"/><line style="stroke:#181818;stroke-width:0.9;" x1="535.95" x2="752.4" y1="233.4305" y2="233.4305"/><text fill="#000000" font-family="sans-serif" font-size="11.7" font-weight="bold" lengthAdjust="spacing" textLength="6.3" x="542.25" y="228.694">5</text><text fill="#000000" font-family="sans-serif" font-size="11.7" lengthAdjust="spacing" textLength="153.9" x="552.15" y="228.694">getToDoEntriesNotInAgenda()</text><polygon fill="#181818" points="545.85,257.9924,536.85,261.5924,545.85,265.1924,542.25,261.5924" style="stroke:#181818;stroke-width:0.9;"/><line style="stroke:#181818;stroke-width:0.9;stroke-dasharray:2.0,2.0;" x1="540.45" x2="761.4" y1="261.5924" y2="261.5924"/><text fill="#000000" font-family="sans-serif" font-size="11.7" font-weight="bold" lengthAdjust="spacing" textLength="6.3" x="551.25" y="256.856">6</text><text fill="#000000" font-family="sans-serif" font-size="11.7" lengthAdjust="spacing" textLength="117.9" x="561.15" y="256.856">availableToDoEntryList</text><polygon fill="#181818" points="1042.2,286.1543,1051.2,289.7543,1042.2,293.3543,1045.8,289.7543" style="stroke:#181818;stroke-width:0.9;"/><line style="stroke:#181818;stroke-width:0.9;" x1="535.95" x2="1047.6" y1="289.7543" y2="289.7543"/><text fill="#000000" font-family="sans-serif" font-size="11.7" font-weight="bold" lengthAdjust="spacing" textLength="6.3" x="542.25" y="285.0179">7</text><text fill="#000000" font-family="sans-serif" font-size="11.7" lengthAdjust="spacing" textLength="234.9" x="552.15" y="285.0179">getToDoEntriesDTOs(availableToDoEntryList)</text><path d="M990,303.2543 L1055.7,303.2543 L1055.7,311.6162 L1046.7,320.6162 L990,320.6162 L990,303.2543 " fill="#EEEEEE" style="stroke:#000000;stroke-width:1.35;"/><rect fill="none" height="72.5238" style="stroke:#000000;stroke-width:1.35;" width="345.6" x="990" y="303.2543"/><text fill="#000000" font-family="sans-serif" font-size="11.7" font-weight="bold" lengthAdjust="spacing" textLength="25.2" x="1003.5" y="316.7798">loop</text><text fill="#000000" font-family="sans-serif" font-size="9.9" font-weight="bold" lengthAdjust="spacing" textLength="224.1" x="1069.2" y="315.7374">[for each toDoEntry in availableToDoEntryList]</text><polygon fill="#181818" points="1260.9,337.9781,1269.9,341.5781,1260.9,345.1781,1264.5,341.5781" style="stroke:#181818;stroke-width:0.9;"/><line style="stroke:#181818;stroke-width:0.9;" x1="1062" x2="1266.3" y1="341.5781" y2="341.5781"/><text fill="#000000" font-family="sans-serif" font-size="11.7" font-weight="bold" lengthAdjust="spacing" textLength="6.3" x="1068.3" y="336.8417">8</text><text fill="#000000" font-family="sans-serif" font-size="11.7" lengthAdjust="spacing" textLength="182.7" x="1078.2" y="336.8417">toDoEntryDTO = toDTO(toDoEntry)</text><polygon fill="#181818" points="545.85,399.44,536.85,403.04,545.85,406.64,542.25,403.04" style="stroke:#181818;stroke-width:0.9;"/><line style="stroke:#181818;stroke-width:0.9;stroke-dasharray:2.0,2.0;" x1="540.45" x2="1056.6" y1="403.04" y2="403.04"/><text fill="#000000" font-family="sans-serif" font-size="11.7" font-weight="bold" lengthAdjust="spacing" textLength="6.3" x="551.25" y="398.3036">9</text><text fill="#000000" font-family="sans-serif" font-size="11.7" lengthAdjust="spacing" textLength="94.5" x="561.15" y="398.3036">toDoEntryDTOList</text><polygon fill="#181818" points="308.25,427.602,299.25,431.202,308.25,434.802,304.65,431.202" style="stroke:#181818;stroke-width:0.9;"/><line style="stroke:#181818;stroke-width:0.9;stroke-dasharray:2.0,2.0;" x1="302.85" x2="530.55" y1="431.202" y2="431.202"/><text fill="#000000" font-family="sans-serif" font-size="11.7" font-weight="bold" lengthAdjust="spacing" textLength="12.6" x="313.65" y="426.4655">10</text><text fill="#000000" font-family="sans-serif" font-size="11.7" lengthAdjust="spacing" textLength="141.3" x="329.85" y="426.4655">availableToDoEntryDTOList</text><polygon fill="#181818" points="35.55,471.3258,26.55,474.9258,35.55,478.5258,31.95,474.9258" style="stroke:#181818;stroke-width:0.9;"/><line style="stroke:#181818;stroke-width:0.9;stroke-dasharray:2.0,2.0;" x1="30.15" x2="292.95" y1="474.9258" y2="474.9258"/><text fill="#000000" font-family="sans-serif" font-size="11.7" font-weight="bold" lengthAdjust="spacing" textLength="12.6" x="40.95" y="462.4084">11</text><text fill="#000000" font-family="sans-serif" font-size="11.7" lengthAdjust="spacing" textLength="210.6" x="57.15" y="454.6274">displays the "To Do List" entries that are</text><text fill="#000000" font-family="sans-serif" font-size="11.7" lengthAdjust="spacing" textLength="91.8" x="60.75" y="470.1894">not in the Agenda</text><polygon fill="#181818" points="278.55,499.4877,287.55,503.0877,278.55,506.6877,282.15,503.0877" style="stroke:#181818;stroke-width:0.9;"/><line style="stroke:#181818;stroke-width:0.9;" x1="25.65" x2="283.95" y1="503.0877" y2="503.0877"/><text fill="#000000" font-family="sans-serif" font-size="11.7" font-weight="bold" lengthAdjust="spacing" textLength="12.6" x="31.95" y="498.3513">12</text><text fill="#000000" font-family="sans-serif" font-size="11.7" lengthAdjust="spacing" textLength="128.7" x="48.15" y="498.3513">selects the desired entry</text><polygon fill="#181818" points="35.55,527.6496,26.55,531.2496,35.55,534.8496,31.95,531.2496" style="stroke:#181818;stroke-width:0.9;"/><line style="stroke:#181818;stroke-width:0.9;" x1="30.15" x2="292.95" y1="531.2496" y2="531.2496"/><text fill="#000000" font-family="sans-serif" font-size="11.7" font-weight="bold" lengthAdjust="spacing" textLength="12.6" x="40.95" y="526.5132">13</text><text fill="#000000" font-family="sans-serif" font-size="11.7" lengthAdjust="spacing" textLength="222.3" x="57.15" y="526.5132">asks for a date for the entry on the Agenda</text><polygon fill="#181818" points="278.55,555.8115,287.55,559.4115,278.55,563.0115,282.15,559.4115" style="stroke:#181818;stroke-width:0.9;"/><line style="stroke:#181818;stroke-width:0.9;" x1="25.65" x2="283.95" y1="559.4115" y2="559.4115"/><text fill="#000000" font-family="sans-serif" font-size="11.7" font-weight="bold" lengthAdjust="spacing" textLength="12.6" x="31.95" y="554.6751">14</text><text fill="#000000" font-family="sans-serif" font-size="11.7" lengthAdjust="spacing" textLength="129.6" x="48.15" y="554.6751">selects date for the entry</text><polygon fill="#181818" points="1520.1,583.9734,1529.1,587.5734,1520.1,591.1734,1523.7,587.5734" style="stroke:#181818;stroke-width:0.9;"/><line style="stroke:#181818;stroke-width:0.9;" x1="298.35" x2="1525.5" y1="587.5734" y2="587.5734"/><text fill="#000000" font-family="sans-serif" font-size="11.7" font-weight="bold" lengthAdjust="spacing" textLength="12.6" x="304.65" y="582.837">15</text><text fill="#000000" font-family="sans-serif" font-size="11.7" lengthAdjust="spacing" textLength="144.9" x="320.85" y="582.837">create(toDoEntryDTO, date)</text><polygon fill="#181818" points="308.25,612.1354,299.25,615.7354,308.25,619.3354,304.65,615.7354" style="stroke:#181818;stroke-width:0.9;"/><line style="stroke:#181818;stroke-width:0.9;stroke-dasharray:2.0,2.0;" x1="302.85" x2="1530" y1="615.7354" y2="615.7354"/><text fill="#000000" font-family="sans-serif" font-size="11.7" font-weight="bold" lengthAdjust="spacing" textLength="12.6" x="313.65" y="610.9989">16</text><text fill="#000000" font-family="sans-serif" font-size="11.7" lengthAdjust="spacing" textLength="89.1" x="329.85" y="610.9989">agendaEntryDTO</text><polygon fill="#181818" points="516.15,640.2973,525.15,643.8973,516.15,647.4973,519.75,643.8973" style="stroke:#181818;stroke-width:0.9;"/><line style="stroke:#181818;stroke-width:0.9;" x1="298.35" x2="521.55" y1="643.8973" y2="643.8973"/><text fill="#000000" font-family="sans-serif" font-size="11.7" font-weight="bold" lengthAdjust="spacing" textLength="12.6" x="304.65" y="639.1608">17</text><text fill="#000000" font-family="sans-serif" font-size="11.7" lengthAdjust="spacing" textLength="195.3" x="320.85" y="639.1608">addEntryToAgenda(agendaEntryDTO)</text><polygon fill="#181818" points="1385.1,668.4592,1394.1,672.0592,1385.1,675.6592,1388.7,672.0592" style="stroke:#181818;stroke-width:0.9;"/><line style="stroke:#181818;stroke-width:0.9;" x1="535.95" x2="1390.5" y1="672.0592" y2="672.0592"/><text fill="#000000" font-family="sans-serif" font-size="11.7" font-weight="bold" lengthAdjust="spacing" textLength="12.6" x="542.25" y="667.3228">18</text><text fill="#000000" font-family="sans-serif" font-size="11.7" lengthAdjust="spacing" textLength="202.5" x="558.45" y="667.3228">registerAgendaEntry(agendaEntryDTO)</text><polygon fill="#181818" points="1629,696.6211,1638,700.2211,1629,703.8211,1632.6,700.2211" style="stroke:#181818;stroke-width:0.9;"/><line style="stroke:#181818;stroke-width:0.9;" x1="1404.9" x2="1634.4" y1="700.2211" y2="700.2211"/><text fill="#000000" font-family="sans-serif" font-size="11.7" font-weight="bold" lengthAdjust="spacing" textLength="12.6" x="1411.2" y="695.4847">19</text><text fill="#000000" font-family="sans-serif" font-size="11.7" lengthAdjust="spacing" textLength="136.8" x="1427.4" y="695.4847">toEntity(agendaEntryDTO)</text><polygon fill="#181818" points="545.85,724.783,536.85,728.383,545.85,731.983,542.25,728.383" style="stroke:#181818;stroke-width:0.9;"/><line style="stroke:#181818;stroke-width:0.9;stroke-dasharray:2.0,2.0;" x1="540.45" x2="1399.5" y1="728.383" y2="728.383"/><text fill="#000000" font-family="sans-serif" font-size="11.7" font-weight="bold" lengthAdjust="spacing" textLength="12.6" x="551.25" y="723.6466">20</text><text fill="#000000" font-family="sans-serif" font-size="11.7" lengthAdjust="spacing" textLength="65.7" x="567.45" y="723.6466">agendaEntry</text><polygon fill="#181818" points="899.1,752.9449,908.1,756.5449,899.1,760.1449,902.7,756.5449" style="stroke:#181818;stroke-width:0.9;"/><line style="stroke:#181818;stroke-width:0.9;" x1="535.95" x2="904.5" y1="756.5449" y2="756.5449"/><text fill="#000000" font-family="sans-serif" font-size="11.7" font-weight="bold" lengthAdjust="spacing" textLength="12.6" x="542.25" y="751.8085">21</text><text fill="#000000" font-family="sans-serif" font-size="11.7" lengthAdjust="spacing" textLength="171.9" x="558.45" y="751.8085">addEntryToAgenda(agendaEntry)</text><polygon fill="#181818" points="545.85,781.1068,536.85,784.7068,545.85,788.3068,542.25,784.7068" style="stroke:#181818;stroke-width:0.9;"/><line style="stroke:#181818;stroke-width:0.9;stroke-dasharray:2.0,2.0;" x1="540.45" x2="913.5" y1="784.7068" y2="784.7068"/><text fill="#000000" font-family="sans-serif" font-size="11.7" font-weight="bold" lengthAdjust="spacing" textLength="12.6" x="551.25" y="779.9704">22</text><text fill="#000000" font-family="sans-serif" font-size="11.7" lengthAdjust="spacing" textLength="78.3" x="567.45" y="779.9704">success/failure</text><polygon fill="#181818" points="308.25,809.2688,299.25,812.8688,308.25,816.4688,304.65,812.8688" style="stroke:#181818;stroke-width:0.9;"/><line style="stroke:#181818;stroke-width:0.9;stroke-dasharray:2.0,2.0;" x1="302.85" x2="530.55" y1="812.8688" y2="812.8688"/><text fill="#000000" font-family="sans-serif" font-size="11.7" font-weight="bold" lengthAdjust="spacing" textLength="12.6" x="313.65" y="808.1323">23</text><text fill="#000000" font-family="sans-serif" font-size="11.7" lengthAdjust="spacing" textLength="171" x="329.85" y="808.1323">displays message of (in)success</text><polygon fill="#181818" points="31.05,837.4307,22.05,841.0307,31.05,844.6307,27.45,841.0307" style="stroke:#181818;stroke-width:0.9;"/><line style="stroke:#181818;stroke-width:0.9;stroke-dasharray:2.0,2.0;" x1="25.65" x2="292.95" y1="841.0307" y2="841.0307"/><text fill="#000000" font-family="sans-serif" font-size="11.7" font-weight="bold" lengthAdjust="spacing" textLength="12.6" x="36.45" y="836.2942">24</text><text fill="#000000" font-family="sans-serif" font-size="11.7" lengthAdjust="spacing" textLength="171" x="52.65" y="836.2942">displays message of (in)success</text><!--SRC=[fLPDR-8m4BtpAqQSG5gqzsXtfQfKAwHsAnLwu-8c0rW4Ex9DA_xzZXtYs772X-fJCXw_cNapVedUSr4nnGvma4BcEoKF24OTSQJzJiNoFTlYqfnA18MvOM9RXWvwnmhvnSKMDgpKE1gnev7YUFX0HS-vaGh6VvSlOs0QdWvLAK-88pfgUCuh9WoCiuSjYeAzBvpF-w9tzr4AesHPed9UZwktvuxV6rPISuh7KJiVRpWjkKsQqegFhEHSFX7igVLSYyoaLWUtOdflJJ56dLt7FriBrcSV3yH_OLL5XGtipbUluy6WpL5BDVza1bkIHq2hUOFP7w8MCgfahy58O4K130H-0LeSs53tmUpG1eQvX6UkpNWjhAkrrY4Tf8z4hN86kmYR8jYsK8mjceTFnalsKM9J1dLbClNk7iCrqfljSXY4rTE-6deXD4rXZW5S1DdNzyZJhZxqsRc2Z0QzdQNeQ86tXsaAQGQdpZxWuv-aMcfYXshnGvSKu55dBU-iI_h9Td6eW7xi9kjaEfFqQIxrf3_aG3Nfn4T-fPGLR4WmACST-7i8NDnIcICbndVi1zSeQq7f3NxRrzNhn1kd2M1BLd0myGf97VAZBiVL9hdwwGkJlDZ06A6lZ_xM9_nriGFS-4xQcqqmNaWoABYkIdRIYLmuAQ79e0rcW2aa_H3Is0PsD2I8rgX8ebGQI_hUr54Ar5nXKMlLDHKAKdLgPqUAGM6TxQF5gpLFVYkl5F1QOe5ks_dB85T8dfEmuJySxZGy-MisIu-oo30Wn2JopcCbpp8JdxfBZtk-Ec2LSakTHnLi3WQ9jQ3l8zQzM8bFXqMmbuMUkBaSTG0h8AhT7BfjLnFk8-g6Vu8hRRg1lbj-F18wxiqo84iVynor_haXJJagl8MmkrECvSihpe7Yqd6G6vXmCJrdyYqHkm3PKOFWrVza_GS0]--></g></svg>