<?xml version="1.0" encoding="us-ascii" standalone="no"?><svg xmlns="http://www.w3.org/2000/svg" xmlns:xlink="http://www.w3.org/1999/xlink" contentStyleType="text/css" height="814px" preserveAspectRatio="none" style="width:1011px;height:814px;background:#FFFFFF;" version="1.1" viewBox="0 0 1011 814" width="1011px" zoomAndPan="magnify"><defs/><g><!--class AgendaEntry--><g id="elem_AgendaEntry"><rect codeLine="9" fill="#F1F1F1" height="103.8633" id="AgendaEntry" rx="2.5" ry="2.5" style="stroke:#181818;stroke-width:0.5;" width="133" x="832" y="502.5"/><ellipse cx="855.55" cy="518.5" fill="#ADD1B2" rx="11" ry="11" style="stroke:#181818;stroke-width:1.0;"/><path d="M858.3156,514.375 Q858.4719,514.1563 858.6594,514.0469 Q858.8469,513.9375 859.0656,513.9375 Q859.4406,513.9375 859.675,514.2031 Q859.9094,514.4531 859.9094,515.0625 L859.9094,516.5156 Q859.9094,517.125 859.675,517.3906 Q859.4406,517.6563 859.0656,517.6563 Q858.7219,517.6563 858.5188,517.4531 Q858.3156,517.2656 858.2063,516.75 Q858.1594,516.3906 857.9719,516.2031 Q857.6438,515.8281 857.0344,515.6094 Q856.425,515.3906 855.8,515.3906 Q855.0344,515.3906 854.3938,515.7188 Q853.7688,516.0469 853.2688,516.7969 Q852.7844,517.5469 852.7844,518.5781 L852.7844,519.6719 Q852.7844,520.9063 853.675,521.7344 Q854.5656,522.5469 856.1594,522.5469 Q857.0969,522.5469 857.7531,522.2969 Q858.1438,522.1406 858.5656,521.7031 Q858.8313,521.4375 858.9719,521.3594 Q859.1281,521.2813 859.3313,521.2813 Q859.6594,521.2813 859.9094,521.5469 Q860.175,521.7969 860.175,522.1406 Q860.175,522.4844 859.8313,522.8906 Q859.3313,523.4688 858.5344,523.7969 Q857.4563,524.25 856.1594,524.25 Q854.6438,524.25 853.4406,523.625 Q852.4563,523.125 851.7688,522.0625 Q851.0813,520.9844 851.0813,519.7031 L851.0813,518.5469 Q851.0813,517.2188 851.6906,516.0781 Q852.3156,514.9219 853.4094,514.3125 Q854.5031,513.6875 855.7375,513.6875 Q856.4719,513.6875 857.1125,513.8594 Q857.7688,514.0156 858.3156,514.375 Z " fill="#000000"/><text fill="#000000" font-family="sans-serif" font-size="14" lengthAdjust="spacing" textLength="82" x="871.45" y="524.2969">AgendaEntry</text><line style="stroke:#181818;stroke-width:0.5;" x1="833" x2="964" y1="534.5" y2="534.5"/><text fill="#000000" font-family="sans-serif" font-size="14" lengthAdjust="spacing" textLength="28" x="838" y="553.6074">date</text><text fill="#000000" font-family="sans-serif" font-size="14" lengthAdjust="spacing" textLength="104" x="838" y="572.2285">associatedTeam</text><text fill="#000000" font-family="sans-serif" font-size="14" lengthAdjust="spacing" textLength="121" x="838" y="590.8496">associatedVehicles</text><line style="stroke:#181818;stroke-width:0.5;" x1="833" x2="964" y1="598.3633" y2="598.3633"/></g><!--class AgendaEntryDTO--><g id="elem_AgendaEntryDTO"><rect codeLine="15" fill="#F1F1F1" height="196.9688" id="AgendaEntryDTO" rx="2.5" ry="2.5" style="stroke:#181818;stroke-width:0.5;" width="144" x="671.5" y="7"/><ellipse cx="686.5" cy="23" fill="#ADD1B2" rx="11" ry="11" style="stroke:#181818;stroke-width:1.0;"/><path d="M689.2656,18.875 Q689.4219,18.6563 689.6094,18.5469 Q689.7969,18.4375 690.0156,18.4375 Q690.3906,18.4375 690.625,18.7031 Q690.8594,18.9531 690.8594,19.5625 L690.8594,21.0156 Q690.8594,21.625 690.625,21.8906 Q690.3906,22.1563 690.0156,22.1563 Q689.6719,22.1563 689.4688,21.9531 Q689.2656,21.7656 689.1563,21.25 Q689.1094,20.8906 688.9219,20.7031 Q688.5938,20.3281 687.9844,20.1094 Q687.375,19.8906 686.75,19.8906 Q685.9844,19.8906 685.3438,20.2188 Q684.7188,20.5469 684.2188,21.2969 Q683.7344,22.0469 683.7344,23.0781 L683.7344,24.1719 Q683.7344,25.4063 684.625,26.2344 Q685.5156,27.0469 687.1094,27.0469 Q688.0469,27.0469 688.7031,26.7969 Q689.0938,26.6406 689.5156,26.2031 Q689.7813,25.9375 689.9219,25.8594 Q690.0781,25.7813 690.2813,25.7813 Q690.6094,25.7813 690.8594,26.0469 Q691.125,26.2969 691.125,26.6406 Q691.125,26.9844 690.7813,27.3906 Q690.2813,27.9688 689.4844,28.2969 Q688.4063,28.75 687.1094,28.75 Q685.5938,28.75 684.3906,28.125 Q683.4063,27.625 682.7188,26.5625 Q682.0313,25.4844 682.0313,24.2031 L682.0313,23.0469 Q682.0313,21.7188 682.6406,20.5781 Q683.2656,19.4219 684.3594,18.8125 Q685.4531,18.1875 686.6875,18.1875 Q687.4219,18.1875 688.0625,18.3594 Q688.7188,18.5156 689.2656,18.875 Z " fill="#000000"/><text fill="#000000" font-family="sans-serif" font-size="14" lengthAdjust="spacing" textLength="112" x="700.5" y="28.7969">AgendaEntryDTO</text><line style="stroke:#181818;stroke-width:0.5;" x1="672.5" x2="814.5" y1="39" y2="39"/><text fill="#000000" font-family="sans-serif" font-size="14" lengthAdjust="spacing" textLength="28" x="677.5" y="58.1074">date</text><text fill="#000000" font-family="sans-serif" font-size="14" lengthAdjust="spacing" textLength="77" x="677.5" y="76.7285">greenSpace</text><text fill="#000000" font-family="sans-serif" font-size="14" lengthAdjust="spacing" textLength="69" x="677.5" y="95.3496">description</text><text fill="#000000" font-family="sans-serif" font-size="14" lengthAdjust="spacing" textLength="111" x="677.5" y="113.9707">expectedDuration</text><text fill="#000000" font-family="sans-serif" font-size="14" lengthAdjust="spacing" textLength="98" x="677.5" y="132.5918">urgencyDegree</text><text fill="#000000" font-family="sans-serif" font-size="14" lengthAdjust="spacing" textLength="72" x="677.5" y="151.2129">entryStatus</text><text fill="#000000" font-family="sans-serif" font-size="14" lengthAdjust="spacing" textLength="104" x="677.5" y="169.834">associatedTeam</text><text fill="#000000" font-family="sans-serif" font-size="14" lengthAdjust="spacing" textLength="121" x="677.5" y="188.4551">associatedVehicles</text><line style="stroke:#181818;stroke-width:0.5;" x1="672.5" x2="814.5" y1="195.9688" y2="195.9688"/></g><!--class SystemUser--><g id="elem_SystemUser"><rect codeLine="28" fill="#F1F1F1" height="122.4844" id="SystemUser" rx="2.5" ry="2.5" style="stroke:#181818;stroke-width:0.5;" width="107" x="7" y="44.5"/><ellipse cx="22" cy="60.5" fill="#ADD1B2" rx="11" ry="11" style="stroke:#181818;stroke-width:1.0;"/><path d="M24.7656,56.375 Q24.9219,56.1563 25.1094,56.0469 Q25.2969,55.9375 25.5156,55.9375 Q25.8906,55.9375 26.125,56.2031 Q26.3594,56.4531 26.3594,57.0625 L26.3594,58.5156 Q26.3594,59.125 26.125,59.3906 Q25.8906,59.6563 25.5156,59.6563 Q25.1719,59.6563 24.9688,59.4531 Q24.7656,59.2656 24.6563,58.75 Q24.6094,58.3906 24.4219,58.2031 Q24.0938,57.8281 23.4844,57.6094 Q22.875,57.3906 22.25,57.3906 Q21.4844,57.3906 20.8438,57.7188 Q20.2188,58.0469 19.7188,58.7969 Q19.2344,59.5469 19.2344,60.5781 L19.2344,61.6719 Q19.2344,62.9063 20.125,63.7344 Q21.0156,64.5469 22.6094,64.5469 Q23.5469,64.5469 24.2031,64.2969 Q24.5938,64.1406 25.0156,63.7031 Q25.2813,63.4375 25.4219,63.3594 Q25.5781,63.2813 25.7813,63.2813 Q26.1094,63.2813 26.3594,63.5469 Q26.625,63.7969 26.625,64.1406 Q26.625,64.4844 26.2813,64.8906 Q25.7813,65.4688 24.9844,65.7969 Q23.9063,66.25 22.6094,66.25 Q21.0938,66.25 19.8906,65.625 Q18.9063,65.125 18.2188,64.0625 Q17.5313,62.9844 17.5313,61.7031 L17.5313,60.5469 Q17.5313,59.2188 18.1406,58.0781 Q18.7656,56.9219 19.8594,56.3125 Q20.9531,55.6875 22.1875,55.6875 Q22.9219,55.6875 23.5625,55.8594 Q24.2188,56.0156 24.7656,56.375 Z " fill="#000000"/><text fill="#000000" font-family="sans-serif" font-size="14" lengthAdjust="spacing" textLength="75" x="36" y="66.2969">SystemUser</text><line style="stroke:#181818;stroke-width:0.5;" x1="8" x2="113" y1="76.5" y2="76.5"/><text fill="#000000" font-family="sans-serif" font-size="14" lengthAdjust="spacing" textLength="35" x="13" y="95.6074">name</text><text fill="#000000" font-family="sans-serif" font-size="14" lengthAdjust="spacing" textLength="33" x="13" y="114.2285">email</text><text fill="#000000" font-family="sans-serif" font-size="14" lengthAdjust="spacing" textLength="60" x="13" y="132.8496">password</text><text fill="#000000" font-family="sans-serif" font-size="14" lengthAdjust="spacing" textLength="40" x="13" y="151.4707">phone</text><line style="stroke:#181818;stroke-width:0.5;" x1="8" x2="113" y1="158.9844" y2="158.9844"/></g><!--class AgendaEntryRepository--><g id="elem_AgendaEntryRepository"><rect codeLine="36" fill="#F1F1F1" height="103.8633" id="AgendaEntryRepository" rx="2.5" ry="2.5" style="stroke:#181818;stroke-width:0.5;" width="267" x="538" y="704"/><ellipse cx="592.25" cy="720" fill="#ADD1B2" rx="11" ry="11" style="stroke:#181818;stroke-width:1.0;"/><path d="M595.0156,715.875 Q595.1719,715.6563 595.3594,715.5469 Q595.5469,715.4375 595.7656,715.4375 Q596.1406,715.4375 596.375,715.7031 Q596.6094,715.9531 596.6094,716.5625 L596.6094,718.0156 Q596.6094,718.625 596.375,718.8906 Q596.1406,719.1563 595.7656,719.1563 Q595.4219,719.1563 595.2188,718.9531 Q595.0156,718.7656 594.9063,718.25 Q594.8594,717.8906 594.6719,717.7031 Q594.3438,717.3281 593.7344,717.1094 Q593.125,716.8906 592.5,716.8906 Q591.7344,716.8906 591.0938,717.2188 Q590.4688,717.5469 589.9688,718.2969 Q589.4844,719.0469 589.4844,720.0781 L589.4844,721.1719 Q589.4844,722.4063 590.375,723.2344 Q591.2656,724.0469 592.8594,724.0469 Q593.7969,724.0469 594.4531,723.7969 Q594.8438,723.6406 595.2656,723.2031 Q595.5313,722.9375 595.6719,722.8594 Q595.8281,722.7813 596.0313,722.7813 Q596.3594,722.7813 596.6094,723.0469 Q596.875,723.2969 596.875,723.6406 Q596.875,723.9844 596.5313,724.3906 Q596.0313,724.9688 595.2344,725.2969 Q594.1563,725.75 592.8594,725.75 Q591.3438,725.75 590.1406,725.125 Q589.1563,724.625 588.4688,723.5625 Q587.7813,722.4844 587.7813,721.2031 L587.7813,720.0469 Q587.7813,718.7188 588.3906,717.5781 Q589.0156,716.4219 590.1094,715.8125 Q591.2031,715.1875 592.4375,715.1875 Q593.1719,715.1875 593.8125,715.3594 Q594.4688,715.5156 595.0156,715.875 Z " fill="#000000"/><text fill="#000000" font-family="sans-serif" font-size="14" lengthAdjust="spacing" textLength="150" x="612.75" y="725.7969">AgendaEntryRepository</text><line style="stroke:#181818;stroke-width:0.5;" x1="539" x2="804" y1="736" y2="736"/><text fill="#000000" font-family="sans-serif" font-size="14" lengthAdjust="spacing" textLength="255" x="544" y="755.1074">-ArrayList&lt;AgendaEntry&gt; agendaEntries</text><line style="stroke:#181818;stroke-width:0.5;" x1="539" x2="804" y1="762.6211" y2="762.6211"/><text fill="#000000" font-family="sans-serif" font-size="14" lengthAdjust="spacing" textLength="142" x="544" y="781.7285">+getAgendaEntryList()</text><text fill="#000000" font-family="sans-serif" font-size="14" lengthAdjust="spacing" textLength="143" x="544" y="800.3496">+update(agendaEntry)</text></g><!--class Repositories--><g id="elem_Repositories"><rect codeLine="42" fill="#F1F1F1" height="141.1055" id="Repositories" rx="2.5" ry="2.5" style="stroke:#181818;stroke-width:0.5;" width="200" x="322.5" y="484"/><ellipse cx="378.75" cy="500" fill="#ADD1B2" rx="11" ry="11" style="stroke:#181818;stroke-width:1.0;"/><path d="M381.5156,495.875 Q381.6719,495.6563 381.8594,495.5469 Q382.0469,495.4375 382.2656,495.4375 Q382.6406,495.4375 382.875,495.7031 Q383.1094,495.9531 383.1094,496.5625 L383.1094,498.0156 Q383.1094,498.625 382.875,498.8906 Q382.6406,499.1563 382.2656,499.1563 Q381.9219,499.1563 381.7188,498.9531 Q381.5156,498.7656 381.4063,498.25 Q381.3594,497.8906 381.1719,497.7031 Q380.8438,497.3281 380.2344,497.1094 Q379.625,496.8906 379,496.8906 Q378.2344,496.8906 377.5938,497.2188 Q376.9688,497.5469 376.4688,498.2969 Q375.9844,499.0469 375.9844,500.0781 L375.9844,501.1719 Q375.9844,502.4063 376.875,503.2344 Q377.7656,504.0469 379.3594,504.0469 Q380.2969,504.0469 380.9531,503.7969 Q381.3438,503.6406 381.7656,503.2031 Q382.0313,502.9375 382.1719,502.8594 Q382.3281,502.7813 382.5313,502.7813 Q382.8594,502.7813 383.1094,503.0469 Q383.375,503.2969 383.375,503.6406 Q383.375,503.9844 383.0313,504.3906 Q382.5313,504.9688 381.7344,505.2969 Q380.6563,505.75 379.3594,505.75 Q377.8438,505.75 376.6406,505.125 Q375.6563,504.625 374.9688,503.5625 Q374.2813,502.4844 374.2813,501.2031 L374.2813,500.0469 Q374.2813,498.7188 374.8906,497.5781 Q375.5156,496.4219 376.6094,495.8125 Q377.7031,495.1875 378.9375,495.1875 Q379.6719,495.1875 380.3125,495.3594 Q380.9688,495.5156 381.5156,495.875 Z " fill="#000000"/><text fill="#000000" font-family="sans-serif" font-size="14" lengthAdjust="spacing" textLength="79" x="399.25" y="505.7969">Repositories</text><line style="stroke:#181818;stroke-width:0.5;" x1="323.5" x2="521.5" y1="516" y2="516"/><text fill="#000000" font-family="sans-serif" font-size="14" lengthAdjust="spacing" textLength="154" x="328.5" y="535.1074">-agendaEntryRepository</text><text fill="#000000" font-family="sans-serif" font-size="14" lengthAdjust="spacing" textLength="136" x="328.5" y="553.7285">-toDoEntryRepository</text><line style="stroke:#181818;stroke-width:0.5;" x1="323.5" x2="521.5" y1="561.2422" y2="561.2422"/><text fill="#000000" font-family="sans-serif" font-size="14" lengthAdjust="spacing" textLength="94" x="328.5" y="580.3496">-Repositories()</text><text fill="#000000" font-family="sans-serif" font-size="14" lengthAdjust="spacing" textLength="91" x="328.5" y="598.9707">+getInstance()</text><text fill="#000000" font-family="sans-serif" font-size="14" lengthAdjust="spacing" textLength="188" x="328.5" y="617.5918">+getAgendaEntryRepository()</text></g><!--class AgendaEntryMapper--><g id="elem_AgendaEntryMapper"><rect codeLine="52" fill="#F1F1F1" height="103.8633" id="AgendaEntryMapper" rx="2.5" ry="2.5" style="stroke:#181818;stroke-width:0.5;" width="251" x="618" y="292"/><ellipse cx="674.25" cy="308" fill="#ADD1B2" rx="11" ry="11" style="stroke:#181818;stroke-width:1.0;"/><path d="M677.0156,303.875 Q677.1719,303.6563 677.3594,303.5469 Q677.5469,303.4375 677.7656,303.4375 Q678.1406,303.4375 678.375,303.7031 Q678.6094,303.9531 678.6094,304.5625 L678.6094,306.0156 Q678.6094,306.625 678.375,306.8906 Q678.1406,307.1563 677.7656,307.1563 Q677.4219,307.1563 677.2188,306.9531 Q677.0156,306.7656 676.9063,306.25 Q676.8594,305.8906 676.6719,305.7031 Q676.3438,305.3281 675.7344,305.1094 Q675.125,304.8906 674.5,304.8906 Q673.7344,304.8906 673.0938,305.2188 Q672.4688,305.5469 671.9688,306.2969 Q671.4844,307.0469 671.4844,308.0781 L671.4844,309.1719 Q671.4844,310.4063 672.375,311.2344 Q673.2656,312.0469 674.8594,312.0469 Q675.7969,312.0469 676.4531,311.7969 Q676.8438,311.6406 677.2656,311.2031 Q677.5313,310.9375 677.6719,310.8594 Q677.8281,310.7813 678.0313,310.7813 Q678.3594,310.7813 678.6094,311.0469 Q678.875,311.2969 678.875,311.6406 Q678.875,311.9844 678.5313,312.3906 Q678.0313,312.9688 677.2344,313.2969 Q676.1563,313.75 674.8594,313.75 Q673.3438,313.75 672.1406,313.125 Q671.1563,312.625 670.4688,311.5625 Q669.7813,310.4844 669.7813,309.2031 L669.7813,308.0469 Q669.7813,306.7188 670.3906,305.5781 Q671.0156,304.4219 672.1094,303.8125 Q673.2031,303.1875 674.4375,303.1875 Q675.1719,303.1875 675.8125,303.3594 Q676.4688,303.5156 677.0156,303.875 Z " fill="#000000"/><text fill="#000000" font-family="sans-serif" font-size="14" lengthAdjust="spacing" textLength="130" x="694.75" y="313.7969">AgendaEntryMapper</text><line style="stroke:#181818;stroke-width:0.5;" x1="619" x2="868" y1="324" y2="324"/><line style="stroke:#181818;stroke-width:0.5;" x1="619" x2="868" y1="332" y2="332"/><text fill="#000000" font-family="sans-serif" font-size="14" lengthAdjust="spacing" textLength="141" x="624" y="351.1074">+toDTO(agendaEntry)</text><text fill="#000000" font-family="sans-serif" font-size="14" lengthAdjust="spacing" textLength="239" x="624" y="369.7285">+toEntity(agendaEntryDTO, newDate)</text><text fill="#000000" font-family="sans-serif" font-size="14" lengthAdjust="spacing" textLength="176" x="624" y="388.3496">+toEntity(agendaEntryDTO)</text></g><!--class CancelAgendaEntryController--><g id="elem_CancelAgendaEntryController"><rect codeLine="59" fill="#F1F1F1" height="122.4844" id="CancelAgendaEntryController" rx="2.5" ry="2.5" style="stroke:#181818;stroke-width:0.5;" width="320" x="262.5" y="283"/><ellipse cx="324.25" cy="299" fill="#ADD1B2" rx="11" ry="11" style="stroke:#181818;stroke-width:1.0;"/><path d="M327.0156,294.875 Q327.1719,294.6563 327.3594,294.5469 Q327.5469,294.4375 327.7656,294.4375 Q328.1406,294.4375 328.375,294.7031 Q328.6094,294.9531 328.6094,295.5625 L328.6094,297.0156 Q328.6094,297.625 328.375,297.8906 Q328.1406,298.1563 327.7656,298.1563 Q327.4219,298.1563 327.2188,297.9531 Q327.0156,297.7656 326.9063,297.25 Q326.8594,296.8906 326.6719,296.7031 Q326.3438,296.3281 325.7344,296.1094 Q325.125,295.8906 324.5,295.8906 Q323.7344,295.8906 323.0938,296.2188 Q322.4688,296.5469 321.9688,297.2969 Q321.4844,298.0469 321.4844,299.0781 L321.4844,300.1719 Q321.4844,301.4063 322.375,302.2344 Q323.2656,303.0469 324.8594,303.0469 Q325.7969,303.0469 326.4531,302.7969 Q326.8438,302.6406 327.2656,302.2031 Q327.5313,301.9375 327.6719,301.8594 Q327.8281,301.7813 328.0313,301.7813 Q328.3594,301.7813 328.6094,302.0469 Q328.875,302.2969 328.875,302.6406 Q328.875,302.9844 328.5313,303.3906 Q328.0313,303.9688 327.2344,304.2969 Q326.1563,304.75 324.8594,304.75 Q323.3438,304.75 322.1406,304.125 Q321.1563,303.625 320.4688,302.5625 Q319.7813,301.4844 319.7813,300.2031 L319.7813,299.0469 Q319.7813,297.7188 320.3906,296.5781 Q321.0156,295.4219 322.1094,294.8125 Q323.2031,294.1875 324.4375,294.1875 Q325.1719,294.1875 325.8125,294.3594 Q326.4688,294.5156 327.0156,294.875 Z " fill="#000000"/><text fill="#000000" font-family="sans-serif" font-size="14" lengthAdjust="spacing" textLength="188" x="344.75" y="304.7969">CancelAgendaEntryController</text><line style="stroke:#181818;stroke-width:0.5;" x1="263.5" x2="581.5" y1="315" y2="315"/><text fill="#000000" font-family="sans-serif" font-size="14" lengthAdjust="spacing" textLength="308" x="268.5" y="334.1074">-AgendaEntryRepository agendaEntryRepository</text><text fill="#000000" font-family="sans-serif" font-size="14" lengthAdjust="spacing" textLength="268" x="268.5" y="352.7285">-AgendaEntryMapper agendaEntryMapper</text><line style="stroke:#181818;stroke-width:0.5;" x1="263.5" x2="581.5" y1="360.2422" y2="360.2422"/><text fill="#000000" font-family="sans-serif" font-size="14" lengthAdjust="spacing" textLength="172" x="268.5" y="379.3496">+getAgendaEntryDTOList()</text><text fill="#000000" font-family="sans-serif" font-size="14" lengthAdjust="spacing" textLength="181" x="268.5" y="397.9707">+cancelsEntry(AgendaEntry)</text></g><!--class AgendaUI--><g id="elem_AgendaUI"><rect codeLine="67" fill="#F1F1F1" height="48" id="AgendaUI" rx="2.5" ry="2.5" style="stroke:#181818;stroke-width:0.5;" width="93" x="134" y="320"/><ellipse cx="149" cy="336" fill="#ADD1B2" rx="11" ry="11" style="stroke:#181818;stroke-width:1.0;"/><path d="M151.7656,331.875 Q151.9219,331.6563 152.1094,331.5469 Q152.2969,331.4375 152.5156,331.4375 Q152.8906,331.4375 153.125,331.7031 Q153.3594,331.9531 153.3594,332.5625 L153.3594,334.0156 Q153.3594,334.625 153.125,334.8906 Q152.8906,335.1563 152.5156,335.1563 Q152.1719,335.1563 151.9688,334.9531 Q151.7656,334.7656 151.6563,334.25 Q151.6094,333.8906 151.4219,333.7031 Q151.0938,333.3281 150.4844,333.1094 Q149.875,332.8906 149.25,332.8906 Q148.4844,332.8906 147.8438,333.2188 Q147.2188,333.5469 146.7188,334.2969 Q146.2344,335.0469 146.2344,336.0781 L146.2344,337.1719 Q146.2344,338.4063 147.125,339.2344 Q148.0156,340.0469 149.6094,340.0469 Q150.5469,340.0469 151.2031,339.7969 Q151.5938,339.6406 152.0156,339.2031 Q152.2813,338.9375 152.4219,338.8594 Q152.5781,338.7813 152.7813,338.7813 Q153.1094,338.7813 153.3594,339.0469 Q153.625,339.2969 153.625,339.6406 Q153.625,339.9844 153.2813,340.3906 Q152.7813,340.9688 151.9844,341.2969 Q150.9063,341.75 149.6094,341.75 Q148.0938,341.75 146.8906,341.125 Q145.9063,340.625 145.2188,339.5625 Q144.5313,338.4844 144.5313,337.2031 L144.5313,336.0469 Q144.5313,334.7188 145.1406,333.5781 Q145.7656,332.4219 146.8594,331.8125 Q147.9531,331.1875 149.1875,331.1875 Q149.9219,331.1875 150.5625,331.3594 Q151.2188,331.5156 151.7656,331.875 Z " fill="#000000"/><text fill="#000000" font-family="sans-serif" font-size="14" lengthAdjust="spacing" textLength="61" x="163" y="341.7969">AgendaUI</text><line style="stroke:#181818;stroke-width:0.5;" x1="135" x2="226" y1="352" y2="352"/><line style="stroke:#181818;stroke-width:0.5;" x1="135" x2="226" y1="360" y2="360"/></g><!--class GSM--><g id="elem_GSM"><rect fill="#F1F1F1" height="48" id="GSM" rx="2.5" ry="2.5" style="stroke:#181818;stroke-width:0.5;" width="63" x="149" y="81.5"/><ellipse cx="164" cy="97.5" fill="#ADD1B2" rx="11" ry="11" style="stroke:#181818;stroke-width:1.0;"/><path d="M166.7656,93.375 Q166.9219,93.1563 167.1094,93.0469 Q167.2969,92.9375 167.5156,92.9375 Q167.8906,92.9375 168.125,93.2031 Q168.3594,93.4531 168.3594,94.0625 L168.3594,95.5156 Q168.3594,96.125 168.125,96.3906 Q167.8906,96.6563 167.5156,96.6563 Q167.1719,96.6563 166.9688,96.4531 Q166.7656,96.2656 166.6563,95.75 Q166.6094,95.3906 166.4219,95.2031 Q166.0938,94.8281 165.4844,94.6094 Q164.875,94.3906 164.25,94.3906 Q163.4844,94.3906 162.8438,94.7188 Q162.2188,95.0469 161.7188,95.7969 Q161.2344,96.5469 161.2344,97.5781 L161.2344,98.6719 Q161.2344,99.9063 162.125,100.7344 Q163.0156,101.5469 164.6094,101.5469 Q165.5469,101.5469 166.2031,101.2969 Q166.5938,101.1406 167.0156,100.7031 Q167.2813,100.4375 167.4219,100.3594 Q167.5781,100.2813 167.7813,100.2813 Q168.1094,100.2813 168.3594,100.5469 Q168.625,100.7969 168.625,101.1406 Q168.625,101.4844 168.2813,101.8906 Q167.7813,102.4688 166.9844,102.7969 Q165.9063,103.25 164.6094,103.25 Q163.0938,103.25 161.8906,102.625 Q160.9063,102.125 160.2188,101.0625 Q159.5313,99.9844 159.5313,98.7031 L159.5313,97.5469 Q159.5313,96.2188 160.1406,95.0781 Q160.7656,93.9219 161.8594,93.3125 Q162.9531,92.6875 164.1875,92.6875 Q164.9219,92.6875 165.5625,92.8594 Q166.2188,93.0156 166.7656,93.375 Z " fill="#000000"/><text fill="#000000" font-family="sans-serif" font-size="14" lengthAdjust="spacing" textLength="31" x="178" y="103.2969">GSM</text><line style="stroke:#181818;stroke-width:0.5;" x1="150" x2="211" y1="113.5" y2="113.5"/><line style="stroke:#181818;stroke-width:0.5;" x1="150" x2="211" y1="121.5" y2="121.5"/></g><!--class ToDoEntry--><g id="elem_ToDoEntry"><rect fill="#F1F1F1" height="48" id="ToDoEntry" rx="2.5" ry="2.5" style="stroke:#181818;stroke-width:0.5;" width="100" x="904.5" y="320"/><ellipse cx="919.5" cy="336" fill="#ADD1B2" rx="11" ry="11" style="stroke:#181818;stroke-width:1.0;"/><path d="M922.2656,331.875 Q922.4219,331.6563 922.6094,331.5469 Q922.7969,331.4375 923.0156,331.4375 Q923.3906,331.4375 923.625,331.7031 Q923.8594,331.9531 923.8594,332.5625 L923.8594,334.0156 Q923.8594,334.625 923.625,334.8906 Q923.3906,335.1563 923.0156,335.1563 Q922.6719,335.1563 922.4688,334.9531 Q922.2656,334.7656 922.1563,334.25 Q922.1094,333.8906 921.9219,333.7031 Q921.5938,333.3281 920.9844,333.1094 Q920.375,332.8906 919.75,332.8906 Q918.9844,332.8906 918.3438,333.2188 Q917.7188,333.5469 917.2188,334.2969 Q916.7344,335.0469 916.7344,336.0781 L916.7344,337.1719 Q916.7344,338.4063 917.625,339.2344 Q918.5156,340.0469 920.1094,340.0469 Q921.0469,340.0469 921.7031,339.7969 Q922.0938,339.6406 922.5156,339.2031 Q922.7813,338.9375 922.9219,338.8594 Q923.0781,338.7813 923.2813,338.7813 Q923.6094,338.7813 923.8594,339.0469 Q924.125,339.2969 924.125,339.6406 Q924.125,339.9844 923.7813,340.3906 Q923.2813,340.9688 922.4844,341.2969 Q921.4063,341.75 920.1094,341.75 Q918.5938,341.75 917.3906,341.125 Q916.4063,340.625 915.7188,339.5625 Q915.0313,338.4844 915.0313,337.2031 L915.0313,336.0469 Q915.0313,334.7188 915.6406,333.5781 Q916.2656,332.4219 917.3594,331.8125 Q918.4531,331.1875 919.6875,331.1875 Q920.4219,331.1875 921.0625,331.3594 Q921.7188,331.5156 922.2656,331.875 Z " fill="#000000"/><text fill="#000000" font-family="sans-serif" font-size="14" lengthAdjust="spacing" textLength="68" x="933.5" y="341.7969">ToDoEntry</text><line style="stroke:#181818;stroke-width:0.5;" x1="905.5" x2="1003.5" y1="352" y2="352"/><line style="stroke:#181818;stroke-width:0.5;" x1="905.5" x2="1003.5" y1="360" y2="360"/></g><!--link AgendaUI to CancelAgendaEntryController--><g id="link_AgendaUI_CancelAgendaEntryController"><path codeLine="71" d="M227.42,344 C245.17,344 261.17,344 261.17,344 C261.17,344 255.57,344 256.31,344 " fill="none" id="AgendaUI-to-CancelAgendaEntryController" style="stroke:#181818;stroke-width:1.0;stroke-dasharray:7.0,7.0;"/><polygon fill="#181818" points="262.31,344,253.31,340,257.31,344,253.31,348,262.31,344" style="stroke:#181818;stroke-width:1.0;"/></g><!--link CancelAgendaEntryController to Repositories--><g id="link_CancelAgendaEntryController_Repositories"><path codeLine="72" d="M422.5,405.03 C422.5,429.69 422.5,452.4 422.5,477.97 " fill="none" id="CancelAgendaEntryController-to-Repositories" style="stroke:#181818;stroke-width:1.0;stroke-dasharray:7.0,7.0;"/><polygon fill="#181818" points="422.5,483.97,426.5,474.97,422.5,478.97,418.5,474.97,422.5,483.97" style="stroke:#181818;stroke-width:1.0;"/><text fill="#000000" font-family="sans-serif" font-size="13" lengthAdjust="spacing" textLength="67" x="423.5" y="450.0283">repositories</text></g><!--link Repositories to AgendaEntryRepository--><g id="link_Repositories_AgendaEntryRepository"><path codeLine="73" d="M509.59,625.28 C541.84,651.12 573.1074,676.1686 602.9274,700.0586 " fill="none" id="Repositories-to-AgendaEntryRepository" style="stroke:#181818;stroke-width:1.0;"/><polygon fill="#181818" points="607.61,703.81,603.087,695.0611,603.7078,700.6838,598.0851,701.3046,607.61,703.81" style="stroke:#181818;stroke-width:1.0;"/><text fill="#000000" font-family="sans-serif" font-size="13" lengthAdjust="spacing" textLength="7" x="591.5545" y="692.7118">1</text></g><!--link Repositories to Repositories--><g id="link_Repositories_Repositories"><path codeLine="74" d="M522.59,534.66 C542.93,536.82 557.5,543.44 557.5,554.5 C557.5,565.56 548.8965,571.5464 528.5565,573.7064 " fill="none" id="Repositories-to-Repositories" style="stroke:#181818;stroke-width:1.0;"/><polygon fill="#181818" points="522.59,574.34,531.9621,577.3672,527.562,573.812,531.1173,569.412,522.59,574.34" style="stroke:#181818;stroke-width:1.0;"/><text fill="#000000" font-family="sans-serif" font-size="13" lengthAdjust="spacing" textLength="49" x="563.5" y="560.0283">instance</text></g><!--link CancelAgendaEntryController to AgendaEntryMapper--><g id="link_CancelAgendaEntryController_AgendaEntryMapper"><path codeLine="75" d="M582.69,344 C595.27,344 601.89,344 611.73,344 " fill="none" id="CancelAgendaEntryController-to-AgendaEntryMapper" style="stroke:#181818;stroke-width:1.0;stroke-dasharray:7.0,7.0;"/><polygon fill="#181818" points="617.73,344,608.73,340,612.73,344,608.73,348,617.73,344" style="stroke:#181818;stroke-width:1.0;"/></g><!--link CancelAgendaEntryController to AgendaEntryRepository--><g id="link_CancelAgendaEntryController_AgendaEntryRepository"><path codeLine="76" d="M507.33,405.16 C560.3,442.73 618.5,484 618.5,484 C618.5,484 644.9481,619.2516 660.3181,697.8216 " fill="none" id="CancelAgendaEntryController-to-AgendaEntryRepository" style="stroke:#181818;stroke-width:1.0;"/><polygon fill="#181818" points="661.47,703.71,663.6677,694.1095,660.5101,698.803,655.8166,695.6453,661.47,703.71" style="stroke:#181818;stroke-width:1.0;"/><text fill="#000000" font-family="sans-serif" font-size="13" lengthAdjust="spacing" textLength="28" x="647.5" y="560.0283">uses</text></g><!--reverse link SystemUser to GSM--><g id="link_SystemUser_GSM"><path codeLine="78" d="M132.04,105.5 C143.65,105.5 140.5,105.5 140.5,105.5 C140.5,105.5 144.03,105.5 148.98,105.5 " fill="none" id="SystemUser-backto-GSM" style="stroke:#181818;stroke-width:1.0;"/><polygon fill="none" points="114.04,105.5,132.04,111.5,132.04,99.5,114.04,105.5" style="stroke:#181818;stroke-width:1.0;"/></g><!--reverse link ToDoEntry to AgendaEntry--><g id="link_ToDoEntry_AgendaEntry"><path codeLine="79" d="M943.6208,385.4938 C934.9908,417.6238 923.81,459.27 912.3,502.1 " fill="none" id="ToDoEntry-backto-AgendaEntry" style="stroke:#181818;stroke-width:1.0;"/><polygon fill="none" points="948.29,368.11,937.8261,383.9374,949.4154,387.0503,948.29,368.11" style="stroke:#181818;stroke-width:1.0;"/></g><!--link GSM to AgendaUI--><g id="link_GSM_AgendaUI"><path codeLine="81" d="M180.5,129.61 C180.5,174.82 180.5,274.51 180.5,319.8 " fill="none" id="GSM-AgendaUI" style="stroke:#181818;stroke-width:1.0;"/><text fill="#000000" font-family="sans-serif" font-size="13" lengthAdjust="spacing" textLength="7" x="172.6469" y="151.6225">1</text><text fill="#000000" font-family="sans-serif" font-size="13" lengthAdjust="spacing" textLength="7" x="172.6469" y="308.8932">1</text></g><!--reverse link AgendaEntry to AgendaEntryRepository--><g id="link_AgendaEntry_AgendaEntryRepository"><path codeLine="82" d="M835.8329,610.5805 C801.9429,640.3605 763.84,673.85 729.91,703.67 " fill="none" id="AgendaEntry-backto-AgendaEntryRepository" style="stroke:#181818;stroke-width:1.0;"/><polygon fill="#181818" points="840.34,606.62,830.939,609.556,836.5841,609.9204,836.2197,615.5655,840.34,606.62" style="stroke:#181818;stroke-width:1.0;"/><text fill="#000000" font-family="sans-serif" font-size="13" lengthAdjust="spacing" textLength="36" x="785.5" y="670.0283">stores</text><text fill="#000000" font-family="sans-serif" font-size="13" lengthAdjust="spacing" textLength="5" x="827.5679" y="628.4427">*</text><text fill="#000000" font-family="sans-serif" font-size="13" lengthAdjust="spacing" textLength="7" x="730.2885" y="692.553">1</text></g><!--reverse link AgendaEntryDTO to AgendaEntryMapper--><g id="link_AgendaEntryDTO_AgendaEntryMapper"><path codeLine="83" d="M743.5,210.06 C743.5,240.21 743.5,266.22 743.5,291.91 " fill="none" id="AgendaEntryDTO-backto-AgendaEntryMapper" style="stroke:#181818;stroke-width:1.0;"/><polygon fill="#181818" points="743.5,204.06,739.5,213.06,743.5,209.06,747.5,213.06,743.5,204.06" style="stroke:#181818;stroke-width:1.0;"/><text fill="#000000" font-family="sans-serif" font-size="13" lengthAdjust="spacing" textLength="43" x="744.5" y="249.0283">creates</text><text fill="#000000" font-family="sans-serif" font-size="13" lengthAdjust="spacing" textLength="5" x="738.3164" y="225.9624">*</text><text fill="#000000" font-family="sans-serif" font-size="13" lengthAdjust="spacing" textLength="7" x="736.0297" y="280.8253">1</text></g><!--SRC=[bLHBYzim4BxhLuXScdJhfRs640YRiWHsMQYJtbLvweYL9I79fExZltVaU6NPSLBgW-sPRnxVF2JtAfHXbbMKI-RSndihljKUTbohNFm4-f6ySz6cqahpezKLK6zh83rY67zb9UI-aK0jSCzKALC3TsI5FWbLqkzCkXIHGe5l352ZPHE4D6C4jVKwSRhAbhG8tPIW2lPPUTlGNuJYKp0FxG_2cWkKYZsmQgJw2aV19JZoPoBITl-2mORHIWkWSYp_B1RWk1N62wrQ6NuOR0OKszgogAmjnkJD5eBpsIo4pptpjViFZZt9l74UgeC3srMhMDL5hfYGxPz1mvEsnLauQcmq-bzM-GMCTiBhsBcCRgnbpPDmVfNOhIcBWe0pxpjQWaziWizyqK6r2LsRzrxDegyWPiLGCI-ROjLXNc_r6EcWD5RCZiHsok5USaXrauMZmUG2F3DZOell0eNzox2UDm15uPiKGzCFLC5fYptuXzqY6Sn382mJ3WyQtrhAo2ExChnRpRkiYOqrPB97o2wTAM_PkHQQRoO7UzOUTk7ae3AAz-jRjP5RTT-Zxs1VbdZbz28PO5csfhDFi-acZKmlmefkOsxJML_sywP3e3GzioMjNJZOoNbU_SxeO_vCzc_x7ZI32HA2U5iZwljI3pkIteApzpEw6XXS9dVunVIZA- -APxSuIyeju4uZwxy0]--></g></svg>