<?xml version="1.0" encoding="us-ascii" standalone="no"?><svg xmlns="http://www.w3.org/2000/svg" xmlns:xlink="http://www.w3.org/1999/xlink" contentStyleType="text/css" height="1068px" preserveAspectRatio="none" style="width:1735px;height:1068px;background:#FFFFFF;" version="1.1" viewBox="0 0 1735 1068" width="1735px" zoomAndPan="magnify"><defs/><g><rect fill="#FFFFFF" height="874.1777" style="stroke:#181818;stroke-width:1.0;" width="10" x="18.5" y="93.6211"/><rect fill="#FFFFFF" height="850.8867" style="stroke:#181818;stroke-width:1.0;" width="10" x="291.5" y="116.9121"/><rect fill="#FFFFFF" height="435.7734" style="stroke:#181818;stroke-width:1.0;" width="10" x="582.5" y="158.2031"/><rect fill="#FFFFFF" height="200.0762" style="stroke:#181818;stroke-width:1.0;" width="10" x="582.5" y="736.4316"/><rect fill="#FFFFFF" height="31.291" style="stroke:#181818;stroke-width:1.0;" width="10" x="744" y="266.7363"/><rect fill="#FFFFFF" height="31.291" style="stroke:#181818;stroke-width:1.0;" width="10" x="851" y="329.3184"/><rect fill="#FFFFFF" height="31.291" style="stroke:#181818;stroke-width:1.0;" width="10" x="1046.5" y="391.9004"/><rect fill="#FFFFFF" height="31.291" style="stroke:#181818;stroke-width:1.0;" width="10" x="1046.5" y="767.7227"/><rect fill="#FFFFFF" height="31.291" style="stroke:#181818;stroke-width:1.0;" width="10" x="1046.5" y="873.9258"/><rect fill="#FFFFFF" height="108.2031" style="stroke:#181818;stroke-width:1.0;" width="10" x="1212" y="454.4824"/><rect fill="#FFFFFF" height="17.3301" style="stroke:#181818;stroke-width:1.0;" width="10" x="1555" y="522.0645"/><rect fill="#FFFFFF" height="31.291" style="stroke:#181818;stroke-width:1.0;" width="10" x="1555" y="705.1406"/><rect fill="none" height="62.9121" style="stroke:#000000;stroke-width:1.5;" width="498" x="1135" y="469.4824"/><line style="stroke:#181818;stroke-width:0.5;stroke-dasharray:5.0,5.0;" x1="23" x2="23" y1="83.6211" y2="985.7988"/><line style="stroke:#181818;stroke-width:0.5;stroke-dasharray:5.0,5.0;" x1="296.5" x2="296.5" y1="83.6211" y2="985.7988"/><line style="stroke:#181818;stroke-width:0.5;stroke-dasharray:5.0,5.0;" x1="587.5" x2="587.5" y1="156.7227" y2="985.7988"/><line style="stroke:#181818;stroke-width:0.5;stroke-dasharray:5.0,5.0;" x1="748.5" x2="748.5" y1="83.6211" y2="985.7988"/><line style="stroke:#181818;stroke-width:0.5;stroke-dasharray:5.0,5.0;" x1="855.5" x2="855.5" y1="83.6211" y2="985.7988"/><line style="stroke:#181818;stroke-width:0.5;stroke-dasharray:5.0,5.0;" x1="1051" x2="1051" y1="83.6211" y2="985.7988"/><line style="stroke:#181818;stroke-width:0.5;stroke-dasharray:5.0,5.0;" x1="1217" x2="1217" y1="231.6348" y2="985.7988"/><line style="stroke:#181818;stroke-width:0.5;stroke-dasharray:5.0,5.0;" x1="1560" x2="1560" y1="520.584" y2="985.7988"/><line style="stroke:#181818;stroke-width:0.5;stroke-dasharray:5.0,5.0;" x1="1681" x2="1681" y1="838.8242" y2="985.7988"/><text fill="#000000" font-family="sans-serif" font-size="14" lengthAdjust="spacing" textLength="31" x="5" y="80.1074">GSM</text><ellipse cx="23.5" cy="13.5" fill="#E3E3E3" rx="8" ry="8" style="stroke:#181818;stroke-width:0.5;"/><path d="M23.5,21.5 L23.5,48.5 M10.5,29.5 L36.5,29.5 M23.5,48.5 L10.5,63.5 M23.5,48.5 L36.5,63.5 " fill="none" style="stroke:#181818;stroke-width:0.5;"/><text fill="#000000" font-family="sans-serif" font-size="14" lengthAdjust="spacing" textLength="31" x="5" y="999.9063">GSM</text><ellipse cx="23.5" cy="1011.9199" fill="#E3E3E3" rx="8" ry="8" style="stroke:#181818;stroke-width:0.5;"/><path d="M23.5,1019.9199 L23.5,1046.9199 M10.5,1027.9199 L36.5,1027.9199 M23.5,1046.9199 L10.5,1061.9199 M23.5,1046.9199 L36.5,1061.9199 " fill="none" style="stroke:#181818;stroke-width:0.5;"/><rect fill="#E3E3E3" height="32.6211" rx="2.5" ry="2.5" style="stroke:#181818;stroke-width:0.5;" width="156" x="218.5" y="50"/><text fill="#000000" font-family="sans-serif" font-size="14" lengthAdjust="spacing" textLength="142" x="225.5" y="72.1074">:CancelAgendaEntryUI</text><rect fill="#E3E3E3" height="32.6211" rx="2.5" ry="2.5" style="stroke:#181818;stroke-width:0.5;" width="156" x="218.5" y="984.7988"/><text fill="#000000" font-family="sans-serif" font-size="14" lengthAdjust="spacing" textLength="142" x="225.5" y="1006.9063">:CancelAgendaEntryUI</text><rect fill="#E3E3E3" height="32.6211" rx="2.5" ry="2.5" style="stroke:#181818;stroke-width:0.5;" width="206" x="484.5" y="984.7988"/><text fill="#000000" font-family="sans-serif" font-size="14" lengthAdjust="spacing" textLength="192" x="491.5" y="1006.9063">:CancelAgendaEntryController</text><rect fill="#E3E3E3" height="32.6211" rx="2.5" ry="2.5" style="stroke:#181818;stroke-width:0.5;" width="97" x="700.5" y="50"/><text fill="#000000" font-family="sans-serif" font-size="14" lengthAdjust="spacing" textLength="83" x="707.5" y="72.1074">:Repositories</text><rect fill="#E3E3E3" height="32.6211" rx="2.5" ry="2.5" style="stroke:#181818;stroke-width:0.5;" width="97" x="700.5" y="984.7988"/><text fill="#000000" font-family="sans-serif" font-size="14" lengthAdjust="spacing" textLength="83" x="707.5" y="1006.9063">:Repositories</text><rect fill="#E3E3E3" height="51.2422" rx="2.5" ry="2.5" style="stroke:#181818;stroke-width:0.5;" width="97" x="807.5" y="31.3789"/><text fill="#000000" font-family="sans-serif" font-size="14" lengthAdjust="spacing" textLength="74" x="819" y="53.4863">repositories</text><text fill="#000000" font-family="sans-serif" font-size="14" lengthAdjust="spacing" textLength="83" x="814.5" y="72.1074">:Repositories</text><rect fill="#E3E3E3" height="51.2422" rx="2.5" ry="2.5" style="stroke:#181818;stroke-width:0.5;" width="97" x="807.5" y="984.7988"/><text fill="#000000" font-family="sans-serif" font-size="14" lengthAdjust="spacing" textLength="74" x="819" y="1006.9063">repositories</text><text fill="#000000" font-family="sans-serif" font-size="14" lengthAdjust="spacing" textLength="83" x="814.5" y="1025.5273">:Repositories</text><rect fill="#E3E3E3" height="51.2422" rx="2.5" ry="2.5" style="stroke:#181818;stroke-width:0.5;" width="167" x="968" y="31.3789"/><text fill="#000000" font-family="sans-serif" font-size="14" lengthAdjust="spacing" textLength="153" x="975" y="53.4863">agendaEntryRepository:</text><text fill="#000000" font-family="sans-serif" font-size="14" lengthAdjust="spacing" textLength="150" x="976.5" y="72.1074">AgendaEntryRepository</text><rect fill="#E3E3E3" height="51.2422" rx="2.5" ry="2.5" style="stroke:#181818;stroke-width:0.5;" width="167" x="968" y="984.7988"/><text fill="#000000" font-family="sans-serif" font-size="14" lengthAdjust="spacing" textLength="153" x="975" y="1006.9063">agendaEntryRepository:</text><text fill="#000000" font-family="sans-serif" font-size="14" lengthAdjust="spacing" textLength="150" x="976.5" y="1025.5273">AgendaEntryRepository</text><rect fill="#E3E3E3" height="32.6211" rx="2.5" ry="2.5" style="stroke:#181818;stroke-width:0.5;" width="144" x="1145" y="984.7988"/><text fill="#000000" font-family="sans-serif" font-size="14" lengthAdjust="spacing" textLength="130" x="1152" y="1006.9063">AgendaEntryMapper</text><rect fill="#E3E3E3" height="32.6211" rx="2.5" ry="2.5" style="stroke:#181818;stroke-width:0.5;" width="126" x="1497" y="984.7988"/><text fill="#000000" font-family="sans-serif" font-size="14" lengthAdjust="spacing" textLength="112" x="1504" y="1006.9063">AgendaEntryDTO</text><rect fill="#E3E3E3" height="32.6211" rx="2.5" ry="2.5" style="stroke:#181818;stroke-width:0.5;" width="96" x="1633" y="984.7988"/><text fill="#000000" font-family="sans-serif" font-size="14" lengthAdjust="spacing" textLength="82" x="1640" y="1006.9063">AgendaEntry</text><rect fill="#FFFFFF" height="874.1777" style="stroke:#181818;stroke-width:1.0;" width="10" x="18.5" y="93.6211"/><rect fill="#FFFFFF" height="850.8867" style="stroke:#181818;stroke-width:1.0;" width="10" x="291.5" y="116.9121"/><rect fill="#FFFFFF" height="435.7734" style="stroke:#181818;stroke-width:1.0;" width="10" x="582.5" y="158.2031"/><rect fill="#FFFFFF" height="200.0762" style="stroke:#181818;stroke-width:1.0;" width="10" x="582.5" y="736.4316"/><rect fill="#FFFFFF" height="31.291" style="stroke:#181818;stroke-width:1.0;" width="10" x="744" y="266.7363"/><rect fill="#FFFFFF" height="31.291" style="stroke:#181818;stroke-width:1.0;" width="10" x="851" y="329.3184"/><rect fill="#FFFFFF" height="31.291" style="stroke:#181818;stroke-width:1.0;" width="10" x="1046.5" y="391.9004"/><rect fill="#FFFFFF" height="31.291" style="stroke:#181818;stroke-width:1.0;" width="10" x="1046.5" y="767.7227"/><rect fill="#FFFFFF" height="31.291" style="stroke:#181818;stroke-width:1.0;" width="10" x="1046.5" y="873.9258"/><rect fill="#FFFFFF" height="108.2031" style="stroke:#181818;stroke-width:1.0;" width="10" x="1212" y="454.4824"/><rect fill="#FFFFFF" height="17.3301" style="stroke:#181818;stroke-width:1.0;" width="10" x="1555" y="522.0645"/><rect fill="#FFFFFF" height="31.291" style="stroke:#181818;stroke-width:1.0;" width="10" x="1555" y="705.1406"/><polygon fill="#181818" points="279.5,112.9121,289.5,116.9121,279.5,120.9121,283.5,116.9121" style="stroke:#181818;stroke-width:1.0;"/><line style="stroke:#181818;stroke-width:1.0;" x1="28.5" x2="285.5" y1="116.9121" y2="116.9121"/><text fill="#000000" font-family="sans-serif" font-size="13" font-weight="bold" lengthAdjust="spacing" textLength="7" x="35.5" y="111.6494">1</text><text fill="#000000" font-family="sans-serif" font-size="13" lengthAdjust="spacing" textLength="224" x="46.5" y="111.6494">asks to cancel an entry on the Agenda</text><polygon fill="#181818" points="472.5,144.2031,482.5,148.2031,472.5,152.2031,476.5,148.2031" style="stroke:#181818;stroke-width:1.0;"/><line style="stroke:#181818;stroke-width:1.0;" x1="301.5" x2="478.5" y1="148.2031" y2="148.2031"/><text fill="#000000" font-family="sans-serif" font-size="13" font-weight="bold" lengthAdjust="spacing" textLength="7" x="308.5" y="142.9404">2</text><text fill="#000000" font-family="sans-serif" font-size="13" lengthAdjust="spacing" textLength="36" x="319.5" y="142.9404">create</text><rect fill="#E3E3E3" height="32.6211" rx="2.5" ry="2.5" style="stroke:#181818;stroke-width:0.5;" width="206" x="484.5" y="124.9121"/><text fill="#000000" font-family="sans-serif" font-size="14" lengthAdjust="spacing" textLength="192" x="491.5" y="147.0195">:CancelAgendaEntryController</text><polygon fill="#181818" points="570.5,187.8242,580.5,191.8242,570.5,195.8242,574.5,191.8242" style="stroke:#181818;stroke-width:1.0;"/><line style="stroke:#181818;stroke-width:1.0;" x1="301.5" x2="576.5" y1="191.8242" y2="191.8242"/><text fill="#000000" font-family="sans-serif" font-size="13" font-weight="bold" lengthAdjust="spacing" textLength="7" x="308.5" y="186.5615">3</text><text fill="#000000" font-family="sans-serif" font-size="13" lengthAdjust="spacing" textLength="148" x="319.5" y="186.5615">getAgendaEntryDTOList()</text><polygon fill="#181818" points="1133,219.1152,1143,223.1152,1133,227.1152,1137,223.1152" style="stroke:#181818;stroke-width:1.0;"/><line style="stroke:#181818;stroke-width:1.0;" x1="592.5" x2="1139" y1="223.1152" y2="223.1152"/><text fill="#000000" font-family="sans-serif" font-size="13" font-weight="bold" lengthAdjust="spacing" textLength="7" x="599.5" y="217.8525">4</text><text fill="#000000" font-family="sans-serif" font-size="13" lengthAdjust="spacing" textLength="36" x="610.5" y="217.8525">create</text><rect fill="#E3E3E3" height="32.6211" rx="2.5" ry="2.5" style="stroke:#181818;stroke-width:0.5;" width="144" x="1145" y="199.8242"/><text fill="#000000" font-family="sans-serif" font-size="14" lengthAdjust="spacing" textLength="130" x="1152" y="221.9316">AgendaEntryMapper</text><polygon fill="#181818" points="732,262.7363,742,266.7363,732,270.7363,736,266.7363" style="stroke:#181818;stroke-width:1.0;"/><line style="stroke:#181818;stroke-width:1.0;" x1="592.5" x2="738" y1="266.7363" y2="266.7363"/><text fill="#000000" font-family="sans-serif" font-size="13" font-weight="bold" lengthAdjust="spacing" textLength="7" x="599.5" y="261.4736">5</text><text fill="#000000" font-family="sans-serif" font-size="13" lengthAdjust="spacing" textLength="75" x="610.5" y="261.4736">getInstance()</text><polygon fill="#181818" points="603.5,294.0273,593.5,298.0273,603.5,302.0273,599.5,298.0273" style="stroke:#181818;stroke-width:1.0;"/><line style="stroke:#181818;stroke-width:1.0;stroke-dasharray:2.0,2.0;" x1="597.5" x2="748" y1="298.0273" y2="298.0273"/><text fill="#000000" font-family="sans-serif" font-size="13" font-weight="bold" lengthAdjust="spacing" textLength="7" x="609.5" y="292.7646">6</text><text fill="#000000" font-family="sans-serif" font-size="13" lengthAdjust="spacing" textLength="67" x="620.5" y="292.7646">repositories</text><polygon fill="#181818" points="839,325.3184,849,329.3184,839,333.3184,843,329.3184" style="stroke:#181818;stroke-width:1.0;"/><line style="stroke:#181818;stroke-width:1.0;" x1="592.5" x2="845" y1="329.3184" y2="329.3184"/><text fill="#000000" font-family="sans-serif" font-size="13" font-weight="bold" lengthAdjust="spacing" textLength="7" x="599.5" y="324.0557">7</text><text fill="#000000" font-family="sans-serif" font-size="13" lengthAdjust="spacing" textLength="163" x="610.5" y="324.0557">getAgendaEntryRepository()</text><polygon fill="#181818" points="603.5,356.6094,593.5,360.6094,603.5,364.6094,599.5,360.6094" style="stroke:#181818;stroke-width:1.0;"/><line style="stroke:#181818;stroke-width:1.0;stroke-dasharray:2.0,2.0;" x1="597.5" x2="855" y1="360.6094" y2="360.6094"/><text fill="#000000" font-family="sans-serif" font-size="13" font-weight="bold" lengthAdjust="spacing" textLength="7" x="609.5" y="355.3467">8</text><text fill="#000000" font-family="sans-serif" font-size="13" lengthAdjust="spacing" textLength="145" x="620.5" y="355.3467">AgendaEntryRepository()</text><polygon fill="#181818" points="1034.5,387.9004,1044.5,391.9004,1034.5,395.9004,1038.5,391.9004" style="stroke:#181818;stroke-width:1.0;"/><line style="stroke:#181818;stroke-width:1.0;" x1="592.5" x2="1040.5" y1="391.9004" y2="391.9004"/><text fill="#000000" font-family="sans-serif" font-size="13" font-weight="bold" lengthAdjust="spacing" textLength="7" x="599.5" y="386.6377">9</text><text fill="#000000" font-family="sans-serif" font-size="13" lengthAdjust="spacing" textLength="122" x="610.5" y="386.6377">getAgendaEntryList()</text><polygon fill="#181818" points="603.5,419.1914,593.5,423.1914,603.5,427.1914,599.5,423.1914" style="stroke:#181818;stroke-width:1.0;"/><line style="stroke:#181818;stroke-width:1.0;stroke-dasharray:2.0,2.0;" x1="597.5" x2="1050.5" y1="423.1914" y2="423.1914"/><text fill="#000000" font-family="sans-serif" font-size="13" font-weight="bold" lengthAdjust="spacing" textLength="14" x="609.5" y="417.9287">10</text><text fill="#000000" font-family="sans-serif" font-size="13" lengthAdjust="spacing" textLength="94" x="627.5" y="417.9287">agendaEntryList</text><polygon fill="#181818" points="1200,450.4824,1210,454.4824,1200,458.4824,1204,454.4824" style="stroke:#181818;stroke-width:1.0;"/><line style="stroke:#181818;stroke-width:1.0;" x1="592.5" x2="1206" y1="454.4824" y2="454.4824"/><text fill="#000000" font-family="sans-serif" font-size="13" font-weight="bold" lengthAdjust="spacing" textLength="14" x="599.5" y="449.2197">11</text><text fill="#000000" font-family="sans-serif" font-size="13" lengthAdjust="spacing" textLength="154" x="617.5" y="449.2197">toDtoList(agendaEntryList)</text><path d="M1135,469.4824 L1208,469.4824 L1208,478.7734 L1198,488.7734 L1135,488.7734 L1135,469.4824 " fill="#EEEEEE" style="stroke:#000000;stroke-width:1.5;"/><rect fill="none" height="62.9121" style="stroke:#000000;stroke-width:1.5;" width="498" x="1135" y="469.4824"/><text fill="#000000" font-family="sans-serif" font-size="13" font-weight="bold" lengthAdjust="spacing" textLength="28" x="1150" y="484.5107">loop</text><text fill="#000000" font-family="sans-serif" font-size="11" font-weight="bold" lengthAdjust="spacing" textLength="229" x="1223" y="483.3525">[for each agendaEntry in agendaEntryList]</text><polygon fill="#181818" points="1485,508.0645,1495,512.0645,1485,516.0645,1489,512.0645" style="stroke:#181818;stroke-width:1.0;"/><line style="stroke:#181818;stroke-width:1.0;" x1="1222" x2="1491" y1="512.0645" y2="512.0645"/><text fill="#000000" font-family="sans-serif" font-size="13" font-weight="bold" lengthAdjust="spacing" textLength="14" x="1229" y="506.8018">12</text><text fill="#000000" font-family="sans-serif" font-size="13" lengthAdjust="spacing" textLength="233" x="1247" y="506.8018">agendaEntryDTO = toDTO(agendaEntry)</text><rect fill="#E3E3E3" height="32.6211" rx="2.5" ry="2.5" style="stroke:#181818;stroke-width:0.5;" width="126" x="1497" y="488.7734"/><text fill="#000000" font-family="sans-serif" font-size="14" lengthAdjust="spacing" textLength="112" x="1504" y="510.8809">AgendaEntryDTO</text><polygon fill="#181818" points="603.5,558.6855,593.5,562.6855,603.5,566.6855,599.5,562.6855" style="stroke:#181818;stroke-width:1.0;"/><line style="stroke:#181818;stroke-width:1.0;stroke-dasharray:2.0,2.0;" x1="597.5" x2="1216" y1="562.6855" y2="562.6855"/><text fill="#000000" font-family="sans-serif" font-size="13" font-weight="bold" lengthAdjust="spacing" textLength="14" x="609.5" y="557.4229">13</text><text fill="#000000" font-family="sans-serif" font-size="13" lengthAdjust="spacing" textLength="120" x="627.5" y="557.4229">agendaEntryDTOList</text><polygon fill="#181818" points="312.5,589.9766,302.5,593.9766,312.5,597.9766,308.5,593.9766" style="stroke:#181818;stroke-width:1.0;"/><line style="stroke:#181818;stroke-width:1.0;stroke-dasharray:2.0,2.0;" x1="306.5" x2="586.5" y1="593.9766" y2="593.9766"/><text fill="#000000" font-family="sans-serif" font-size="13" font-weight="bold" lengthAdjust="spacing" textLength="14" x="318.5" y="588.7139">14</text><text fill="#000000" font-family="sans-serif" font-size="13" lengthAdjust="spacing" textLength="120" x="336.5" y="588.7139">agendaEntryDTOList</text><polygon fill="#181818" points="39.5,638.5586,29.5,642.5586,39.5,646.5586,35.5,642.5586" style="stroke:#181818;stroke-width:1.0;"/><line style="stroke:#181818;stroke-width:1.0;stroke-dasharray:2.0,2.0;" x1="33.5" x2="290.5" y1="642.5586" y2="642.5586"/><text fill="#000000" font-family="sans-serif" font-size="13" font-weight="bold" lengthAdjust="spacing" textLength="14" x="45.5" y="628.6504">15</text><text fill="#000000" font-family="sans-serif" font-size="13" lengthAdjust="spacing" textLength="221" x="63.5" y="620.0049">shows the list of entries in the Agenda</text><text fill="#000000" font-family="sans-serif" font-size="13" lengthAdjust="spacing" textLength="132" x="67.5" y="637.2959">and asks to select one</text><polygon fill="#181818" points="279.5,669.8496,289.5,673.8496,279.5,677.8496,283.5,673.8496" style="stroke:#181818;stroke-width:1.0;"/><line style="stroke:#181818;stroke-width:1.0;" x1="28.5" x2="285.5" y1="673.8496" y2="673.8496"/><text fill="#000000" font-family="sans-serif" font-size="13" font-weight="bold" lengthAdjust="spacing" textLength="14" x="35.5" y="668.5869">16</text><text fill="#000000" font-family="sans-serif" font-size="13" lengthAdjust="spacing" textLength="93" x="53.5" y="668.5869">selects an entry</text><polygon fill="#181818" points="1543,701.1406,1553,705.1406,1543,709.1406,1547,705.1406" style="stroke:#181818;stroke-width:1.0;"/><line style="stroke:#181818;stroke-width:1.0;" x1="301.5" x2="1549" y1="705.1406" y2="705.1406"/><text fill="#000000" font-family="sans-serif" font-size="13" font-weight="bold" lengthAdjust="spacing" textLength="14" x="308.5" y="699.8779">17</text><text fill="#000000" font-family="sans-serif" font-size="13" lengthAdjust="spacing" textLength="259" x="326.5" y="699.8779">create(description, greenSpace, entryStatus)</text><polygon fill="#181818" points="570.5,732.4316,580.5,736.4316,570.5,740.4316,574.5,736.4316" style="stroke:#181818;stroke-width:1.0;"/><line style="stroke:#181818;stroke-width:1.0;" x1="301.5" x2="576.5" y1="736.4316" y2="736.4316"/><text fill="#000000" font-family="sans-serif" font-size="13" font-weight="bold" lengthAdjust="spacing" textLength="14" x="308.5" y="731.1689">18</text><text fill="#000000" font-family="sans-serif" font-size="13" lengthAdjust="spacing" textLength="244" x="326.5" y="731.1689">cancelAgendaEntry(AgendaEntryDTO dto)</text><polygon fill="#181818" points="1034.5,763.7227,1044.5,767.7227,1034.5,771.7227,1038.5,767.7227" style="stroke:#181818;stroke-width:1.0;"/><line style="stroke:#181818;stroke-width:1.0;" x1="592.5" x2="1040.5" y1="767.7227" y2="767.7227"/><text fill="#000000" font-family="sans-serif" font-size="13" font-weight="bold" lengthAdjust="spacing" textLength="14" x="599.5" y="762.46">19</text><text fill="#000000" font-family="sans-serif" font-size="13" lengthAdjust="spacing" textLength="417" x="617.5" y="762.46">getAgendaEntryByDescriptionAndGreenSpace(description, greenSpace)</text><polygon fill="#181818" points="603.5,795.0137,593.5,799.0137,603.5,803.0137,599.5,799.0137" style="stroke:#181818;stroke-width:1.0;"/><line style="stroke:#181818;stroke-width:1.0;stroke-dasharray:2.0,2.0;" x1="597.5" x2="1050.5" y1="799.0137" y2="799.0137"/><text fill="#000000" font-family="sans-serif" font-size="13" font-weight="bold" lengthAdjust="spacing" textLength="14" x="609.5" y="793.751">20</text><text fill="#000000" font-family="sans-serif" font-size="13" lengthAdjust="spacing" textLength="73" x="627.5" y="793.751">agendaEntry</text><polygon fill="#181818" points="1621,826.3047,1631,830.3047,1621,834.3047,1625,830.3047" style="stroke:#181818;stroke-width:1.0;"/><line style="stroke:#181818;stroke-width:1.0;" x1="592.5" x2="1627" y1="830.3047" y2="830.3047"/><text fill="#000000" font-family="sans-serif" font-size="13" font-weight="bold" lengthAdjust="spacing" textLength="14" x="599.5" y="825.042">21</text><text fill="#000000" font-family="sans-serif" font-size="13" lengthAdjust="spacing" textLength="36" x="617.5" y="825.042">create</text><rect fill="#E3E3E3" height="32.6211" rx="2.5" ry="2.5" style="stroke:#181818;stroke-width:0.5;" width="96" x="1633" y="807.0137"/><text fill="#000000" font-family="sans-serif" font-size="14" lengthAdjust="spacing" textLength="82" x="1640" y="829.1211">AgendaEntry</text><polygon fill="#181818" points="1034.5,869.9258,1044.5,873.9258,1034.5,877.9258,1038.5,873.9258" style="stroke:#181818;stroke-width:1.0;"/><line style="stroke:#181818;stroke-width:1.0;" x1="592.5" x2="1040.5" y1="873.9258" y2="873.9258"/><text fill="#000000" font-family="sans-serif" font-size="13" font-weight="bold" lengthAdjust="spacing" textLength="14" x="599.5" y="868.6631">22</text><text fill="#000000" font-family="sans-serif" font-size="13" lengthAdjust="spacing" textLength="234" x="617.5" y="868.6631">update(entry, EntryStatus.CANCELLED)</text><polygon fill="#181818" points="603.5,901.2168,593.5,905.2168,603.5,909.2168,599.5,905.2168" style="stroke:#181818;stroke-width:1.0;"/><line style="stroke:#181818;stroke-width:1.0;stroke-dasharray:2.0,2.0;" x1="597.5" x2="1050.5" y1="905.2168" y2="905.2168"/><text fill="#000000" font-family="sans-serif" font-size="13" font-weight="bold" lengthAdjust="spacing" textLength="14" x="609.5" y="899.9541">23</text><text fill="#000000" font-family="sans-serif" font-size="13" lengthAdjust="spacing" textLength="112" x="627.5" y="899.9541">success/insuccess</text><polygon fill="#181818" points="312.5,932.5078,302.5,936.5078,312.5,940.5078,308.5,936.5078" style="stroke:#181818;stroke-width:1.0;"/><line style="stroke:#181818;stroke-width:1.0;stroke-dasharray:2.0,2.0;" x1="306.5" x2="586.5" y1="936.5078" y2="936.5078"/><text fill="#000000" font-family="sans-serif" font-size="13" font-weight="bold" lengthAdjust="spacing" textLength="14" x="318.5" y="931.2451">24</text><text fill="#000000" font-family="sans-serif" font-size="13" lengthAdjust="spacing" textLength="112" x="336.5" y="931.2451">success/insuccess</text><polygon fill="#181818" points="34.5,963.7988,24.5,967.7988,34.5,971.7988,30.5,967.7988" style="stroke:#181818;stroke-width:1.0;"/><line style="stroke:#181818;stroke-width:1.0;stroke-dasharray:2.0,2.0;" x1="28.5" x2="295.5" y1="967.7988" y2="967.7988"/><text fill="#000000" font-family="sans-serif" font-size="13" font-weight="bold" lengthAdjust="spacing" textLength="14" x="40.5" y="962.5361">25</text><text fill="#000000" font-family="sans-serif" font-size="13" lengthAdjust="spacing" textLength="165" x="58.5" y="962.5361">shows (in)success message</text><!--SRC=[fLPDZzem4BtdLuou55PiUqTg9HRG2edjLWjxu-9D1h08TcIRRldt7PiqNtOIK7DWLx7dpRnvu-Ve8nSPK-m49obaV53oX63K6IDTh6GiFh8zhiqbHL0O6oRsQNM3Fh14VdAnXnrBDKOHEnifpgSFL57qvS0JX9sKvaF-YLXif8B1y_fb04m3_Oq8m_2OPqmO64ncJCIOJlSe4hOGHbtUbsxd-x9luqpIhqnJL2vWjdbRDKBUC9EQKm4SjTjJlBYikUL4LTT3L2LYAto0NwlffXx1oe9AzCbMJ4FlYoBg69MzBopBY53h-dppshuuY2BRSFwR6NIjZg3nq4ju_47DXGcLSjHW9CIkiS04e0K1AS0S4AwuFaIHW1Jo5WcOuAqK3m-K8bP8EziXd6RUCg7a81FOewcpNt5jXYC_o6wdg40lgvLSdr2ihJim7k1AM0fjR9SeSIkNq6pvrEW9PNai25Sdq0jFi3jTApCxjz3iPWdHnSkDV9280oqhlnMvGkAAtQc7LtK-09qw-90EggoLrV7w6jqvDO6HewADd1lfQctawYWzP0I1rgTIPcIm2gZ8GvKASE4nyyD3zJPeM9TnnuRLti5tIslpMgKq2ir6a96pBdylhNUrtqE8RkAJA-rHw5CxA064fI-Cj3z3DKMBwJdl94XhqHEwOkMdTZwS4Xx8dJDdyWIhSMdFMn9S98MLQqpfkYO7nz3S4B8hUPBlquNdjtbmi_d_V7IOe8uLpmoNOWnxXIZMzDM0uolSsZ1prlwWmnsgLkw0k7dp3-lHa1Wvkck6xhoGyhl5Ea7JZPukyx8LKv4y5xrewr6VTOMSY-R2ywrUpxhXXgH3NhaQEscViyGAx_GTmwAK-Uji-dEsMAqMyr7qFzJqEOvHwszSvFy5FBT5qwQWddjtdry_Sz_fxJ-vGov6EHgSw8U4wo1ZFwKwbksdt5y0]--></g></svg>