<?xml version="1.0" encoding="us-ascii" standalone="no"?><svg xmlns="http://www.w3.org/2000/svg" xmlns:xlink="http://www.w3.org/1999/xlink" contentStyleType="text/css" height="520px" preserveAspectRatio="none" style="width:1183px;height:520px;background:#FFFFFF;" version="1.1" viewBox="0 0 1183 520" width="1183px" zoomAndPan="magnify"><defs/><g><rect fill="#FFFFFF" height="355.4922" style="stroke:#181818;stroke-width:1.0;" width="10" x="103" y="90.5332"/><rect fill="#FFFFFF" height="31.291" style="stroke:#181818;stroke-width:1.0;" width="10" x="264.5" y="90.5332"/><rect fill="#FFFFFF" height="31.291" style="stroke:#181818;stroke-width:1.0;" width="10" x="371.5" y="153.1152"/><rect fill="#FFFFFF" height="51.582" style="stroke:#181818;stroke-width:1.0;" width="10" x="635" y="235.9883"/><rect fill="#FFFFFF" height="95.873" style="stroke:#181818;stroke-width:1.0;" width="10" x="800.5" y="318.8613"/><rect fill="#FFFFFF" height="15" style="stroke:#181818;stroke-width:1.0;" width="10" x="1073.5" y="376.4434"/><rect fill="none" height="50.582" style="stroke:#000000;stroke-width:1.5;" width="428" x="723.5" y="333.8613"/><line style="stroke:#181818;stroke-width:0.5;stroke-dasharray:5.0,5.0;" x1="108" x2="108" y1="57.2422" y2="464.0254"/><line style="stroke:#181818;stroke-width:0.5;stroke-dasharray:5.0,5.0;" x1="269" x2="269" y1="57.2422" y2="464.0254"/><line style="stroke:#181818;stroke-width:0.5;stroke-dasharray:5.0,5.0;" x1="376" x2="376" y1="57.2422" y2="464.0254"/><line style="stroke:#181818;stroke-width:0.5;stroke-dasharray:5.0,5.0;" x1="639.5" x2="639.5" y1="57.2422" y2="464.0254"/><line style="stroke:#181818;stroke-width:0.5;stroke-dasharray:5.0,5.0;" x1="805.5" x2="805.5" y1="57.2422" y2="464.0254"/><line style="stroke:#181818;stroke-width:0.5;stroke-dasharray:5.0,5.0;" x1="1078.5" x2="1078.5" y1="57.2422" y2="464.0254"/><line style="stroke:#181818;stroke-width:0.5;stroke-dasharray:5.0,5.0;" x1="1164.5" x2="1164.5" y1="57.2422" y2="464.0254"/><rect fill="#E3E3E3" height="32.6211" rx="2.5" ry="2.5" style="stroke:#181818;stroke-width:0.5;" width="206" x="5" y="23.6211"/><text fill="#000000" font-family="sans-serif" font-size="14" lengthAdjust="spacing" textLength="192" x="12" y="45.7285">:CancelAgendaEntryController</text><rect fill="#E3E3E3" height="32.6211" rx="2.5" ry="2.5" style="stroke:#181818;stroke-width:0.5;" width="206" x="5" y="463.0254"/><text fill="#000000" font-family="sans-serif" font-size="14" lengthAdjust="spacing" textLength="192" x="12" y="485.1328">:CancelAgendaEntryController</text><rect fill="#E3E3E3" height="32.6211" rx="2.5" ry="2.5" style="stroke:#181818;stroke-width:0.5;" width="97" x="221" y="23.6211"/><text fill="#000000" font-family="sans-serif" font-size="14" lengthAdjust="spacing" textLength="83" x="228" y="45.7285">:Repositories</text><rect fill="#E3E3E3" height="32.6211" rx="2.5" ry="2.5" style="stroke:#181818;stroke-width:0.5;" width="97" x="221" y="463.0254"/><text fill="#000000" font-family="sans-serif" font-size="14" lengthAdjust="spacing" textLength="83" x="228" y="485.1328">:Repositories</text><rect fill="#E3E3E3" height="51.2422" rx="2.5" ry="2.5" style="stroke:#181818;stroke-width:0.5;" width="97" x="328" y="5"/><text fill="#000000" font-family="sans-serif" font-size="14" lengthAdjust="spacing" textLength="74" x="339.5" y="27.1074">repositories</text><text fill="#000000" font-family="sans-serif" font-size="14" lengthAdjust="spacing" textLength="83" x="335" y="45.7285">:Repositories</text><rect fill="#E3E3E3" height="51.2422" rx="2.5" ry="2.5" style="stroke:#181818;stroke-width:0.5;" width="97" x="328" y="463.0254"/><text fill="#000000" font-family="sans-serif" font-size="14" lengthAdjust="spacing" textLength="74" x="339.5" y="485.1328">repositories</text><text fill="#000000" font-family="sans-serif" font-size="14" lengthAdjust="spacing" textLength="83" x="335" y="503.7539">:Repositories</text><rect fill="#E3E3E3" height="51.2422" rx="2.5" ry="2.5" style="stroke:#181818;stroke-width:0.5;" width="167" x="556.5" y="5"/><text fill="#000000" font-family="sans-serif" font-size="14" lengthAdjust="spacing" textLength="153" x="563.5" y="27.1074">agendaEntryRepository:</text><text fill="#000000" font-family="sans-serif" font-size="14" lengthAdjust="spacing" textLength="150" x="565" y="45.7285">AgendaEntryRepository</text><rect fill="#E3E3E3" height="51.2422" rx="2.5" ry="2.5" style="stroke:#181818;stroke-width:0.5;" width="167" x="556.5" y="463.0254"/><text fill="#000000" font-family="sans-serif" font-size="14" lengthAdjust="spacing" textLength="153" x="563.5" y="485.1328">agendaEntryRepository:</text><text fill="#000000" font-family="sans-serif" font-size="14" lengthAdjust="spacing" textLength="150" x="565" y="503.7539">AgendaEntryRepository</text><rect fill="#E3E3E3" height="32.6211" rx="2.5" ry="2.5" style="stroke:#181818;stroke-width:0.5;" width="144" x="733.5" y="23.6211"/><text fill="#000000" font-family="sans-serif" font-size="14" lengthAdjust="spacing" textLength="130" x="740.5" y="45.7285">AgendaEntryMapper</text><rect fill="#E3E3E3" height="32.6211" rx="2.5" ry="2.5" style="stroke:#181818;stroke-width:0.5;" width="144" x="733.5" y="463.0254"/><text fill="#000000" font-family="sans-serif" font-size="14" lengthAdjust="spacing" textLength="130" x="740.5" y="485.1328">AgendaEntryMapper</text><rect fill="#E3E3E3" height="32.6211" rx="2.5" ry="2.5" style="stroke:#181818;stroke-width:0.5;" width="126" x="1015.5" y="23.6211"/><text fill="#000000" font-family="sans-serif" font-size="14" lengthAdjust="spacing" textLength="112" x="1022.5" y="45.7285">AgendaEntryDTO</text><rect fill="#E3E3E3" height="32.6211" rx="2.5" ry="2.5" style="stroke:#181818;stroke-width:0.5;" width="126" x="1015.5" y="463.0254"/><text fill="#000000" font-family="sans-serif" font-size="14" lengthAdjust="spacing" textLength="112" x="1022.5" y="485.1328">AgendaEntryDTO</text><rect fill="#E3E3E3" height="32.6211" rx="2.5" ry="2.5" style="stroke:#181818;stroke-width:0.5;" width="26" x="1151.5" y="23.6211"/><text fill="#000000" font-family="sans-serif" font-size="14" lengthAdjust="spacing" textLength="12" x="1158.5" y="45.7285">UI</text><rect fill="#E3E3E3" height="32.6211" rx="2.5" ry="2.5" style="stroke:#181818;stroke-width:0.5;" width="26" x="1151.5" y="463.0254"/><text fill="#000000" font-family="sans-serif" font-size="14" lengthAdjust="spacing" textLength="12" x="1158.5" y="485.1328">UI</text><rect fill="#FFFFFF" height="355.4922" style="stroke:#181818;stroke-width:1.0;" width="10" x="103" y="90.5332"/><rect fill="#FFFFFF" height="31.291" style="stroke:#181818;stroke-width:1.0;" width="10" x="264.5" y="90.5332"/><rect fill="#FFFFFF" height="31.291" style="stroke:#181818;stroke-width:1.0;" width="10" x="371.5" y="153.1152"/><rect fill="#FFFFFF" height="51.582" style="stroke:#181818;stroke-width:1.0;" width="10" x="635" y="235.9883"/><rect fill="#FFFFFF" height="95.873" style="stroke:#181818;stroke-width:1.0;" width="10" x="800.5" y="318.8613"/><rect fill="#FFFFFF" height="15" style="stroke:#181818;stroke-width:1.0;" width="10" x="1073.5" y="376.4434"/><polygon fill="#181818" points="252.5,86.5332,262.5,90.5332,252.5,94.5332,256.5,90.5332" style="stroke:#181818;stroke-width:1.0;"/><line style="stroke:#181818;stroke-width:1.0;" x1="113" x2="258.5" y1="90.5332" y2="90.5332"/><text fill="#000000" font-family="sans-serif" font-size="13" font-weight="bold" lengthAdjust="spacing" textLength="7" x="120" y="85.2705">1</text><text fill="#000000" font-family="sans-serif" font-size="13" lengthAdjust="spacing" textLength="75" x="131" y="85.2705">getInstance()</text><polygon fill="#181818" points="124,117.8242,114,121.8242,124,125.8242,120,121.8242" style="stroke:#181818;stroke-width:1.0;"/><line style="stroke:#181818;stroke-width:1.0;stroke-dasharray:2.0,2.0;" x1="118" x2="268.5" y1="121.8242" y2="121.8242"/><text fill="#000000" font-family="sans-serif" font-size="13" font-weight="bold" lengthAdjust="spacing" textLength="7" x="130" y="116.5615">2</text><text fill="#000000" font-family="sans-serif" font-size="13" lengthAdjust="spacing" textLength="67" x="141" y="116.5615">repositories</text><polygon fill="#181818" points="359.5,149.1152,369.5,153.1152,359.5,157.1152,363.5,153.1152" style="stroke:#181818;stroke-width:1.0;"/><line style="stroke:#181818;stroke-width:1.0;" x1="113" x2="365.5" y1="153.1152" y2="153.1152"/><text fill="#000000" font-family="sans-serif" font-size="13" font-weight="bold" lengthAdjust="spacing" textLength="7" x="120" y="147.8525">3</text><text fill="#000000" font-family="sans-serif" font-size="13" lengthAdjust="spacing" textLength="163" x="131" y="147.8525">getAgendaEntryRepository()</text><polygon fill="#181818" points="124,180.4063,114,184.4063,124,188.4063,120,184.4063" style="stroke:#181818;stroke-width:1.0;"/><line style="stroke:#181818;stroke-width:1.0;stroke-dasharray:2.0,2.0;" x1="118" x2="375.5" y1="184.4063" y2="184.4063"/><text fill="#000000" font-family="sans-serif" font-size="13" font-weight="bold" lengthAdjust="spacing" textLength="7" x="130" y="179.1436">4</text><text fill="#000000" font-family="sans-serif" font-size="13" lengthAdjust="spacing" textLength="145" x="141" y="179.1436">AgendaEntryRepository()</text><polygon fill="#181818" points="623,231.9883,633,235.9883,623,239.9883,627,235.9883" style="stroke:#181818;stroke-width:1.0;"/><line style="stroke:#181818;stroke-width:1.0;" x1="113" x2="629" y1="235.9883" y2="235.9883"/><text fill="#000000" font-family="sans-serif" font-size="13" font-weight="bold" lengthAdjust="spacing" textLength="7" x="120" y="230.7256">5</text><text fill="#000000" font-family="sans-serif" font-size="13" lengthAdjust="spacing" textLength="492" x="131" y="230.7256">getAgendaEntryListWithoutCancelled(authenticationController.getCurrentUserEmail())</text><path d="M650,197.4063 L650,258.4063 L983,258.4063 L983,207.4063 L973,197.4063 L650,197.4063 " fill="#FAFAFA" style="stroke:#181818;stroke-width:0.5;"/><path d="M973,197.4063 L973,207.4063 L983,207.4063 L973,197.4063 " fill="#FAFAFA" style="stroke:#181818;stroke-width:0.5;"/><text fill="#000000" font-family="sans-serif" font-size="13" lengthAdjust="spacing" textLength="262" x="656" y="216.4346">checks what gsm is based on the associated</text><text fill="#000000" font-family="sans-serif" font-size="13" lengthAdjust="spacing" textLength="312" x="656" y="233.7256">email, checks if the status is not pending or cancelled</text><text fill="#000000" font-family="sans-serif" font-size="13" lengthAdjust="spacing" textLength="281" x="656" y="251.0166">and adds that entry to the agendaList of the gsm</text><polygon fill="#181818" points="124,283.5703,114,287.5703,124,291.5703,120,287.5703" style="stroke:#181818;stroke-width:1.0;"/><line style="stroke:#181818;stroke-width:1.0;stroke-dasharray:2.0,2.0;" x1="118" x2="639" y1="287.5703" y2="287.5703"/><text fill="#000000" font-family="sans-serif" font-size="13" font-weight="bold" lengthAdjust="spacing" textLength="7" x="130" y="282.3076">6</text><text fill="#000000" font-family="sans-serif" font-size="13" lengthAdjust="spacing" textLength="124" x="141" y="282.3076">agendaEntryListGSM</text><polygon fill="#181818" points="788.5,314.8613,798.5,318.8613,788.5,322.8613,792.5,318.8613" style="stroke:#181818;stroke-width:1.0;"/><line style="stroke:#181818;stroke-width:1.0;" x1="113" x2="794.5" y1="318.8613" y2="318.8613"/><text fill="#000000" font-family="sans-serif" font-size="13" font-weight="bold" lengthAdjust="spacing" textLength="7" x="120" y="313.5986">7</text><text fill="#000000" font-family="sans-serif" font-size="13" lengthAdjust="spacing" textLength="184" x="131" y="313.5986">toDtoList(agendaEntryListGSM)</text><path d="M723.5,333.8613 L796.5,333.8613 L796.5,343.1523 L786.5,353.1523 L723.5,353.1523 L723.5,333.8613 " fill="#EEEEEE" style="stroke:#000000;stroke-width:1.5;"/><rect fill="none" height="50.582" style="stroke:#000000;stroke-width:1.5;" width="428" x="723.5" y="333.8613"/><text fill="#000000" font-family="sans-serif" font-size="13" font-weight="bold" lengthAdjust="spacing" textLength="28" x="738.5" y="348.8896">loop</text><text fill="#000000" font-family="sans-serif" font-size="11" font-weight="bold" lengthAdjust="spacing" textLength="229" x="811.5" y="347.7314">[for each agendaEntry in agendaEntryList]</text><polygon fill="#181818" points="1061.5,372.4434,1071.5,376.4434,1061.5,380.4434,1065.5,376.4434" style="stroke:#181818;stroke-width:1.0;"/><line style="stroke:#181818;stroke-width:1.0;" x1="810.5" x2="1067.5" y1="376.4434" y2="376.4434"/><text fill="#000000" font-family="sans-serif" font-size="13" font-weight="bold" lengthAdjust="spacing" textLength="7" x="817.5" y="371.1807">8</text><text fill="#000000" font-family="sans-serif" font-size="13" lengthAdjust="spacing" textLength="233" x="828.5" y="371.1807">agendaEntryDTO = toDTO(agendaEntry)</text><polygon fill="#181818" points="124,410.7344,114,414.7344,124,418.7344,120,414.7344" style="stroke:#181818;stroke-width:1.0;"/><line style="stroke:#181818;stroke-width:1.0;stroke-dasharray:2.0,2.0;" x1="118" x2="804.5" y1="414.7344" y2="414.7344"/><text fill="#000000" font-family="sans-serif" font-size="13" font-weight="bold" lengthAdjust="spacing" textLength="7" x="130" y="409.4717">9</text><text fill="#000000" font-family="sans-serif" font-size="13" lengthAdjust="spacing" textLength="120" x="141" y="409.4717">agendaEntryDTOList</text><polygon fill="#181818" points="1152.5,442.0254,1162.5,446.0254,1152.5,450.0254,1156.5,446.0254" style="stroke:#181818;stroke-width:1.0;"/><line style="stroke:#181818;stroke-width:1.0;stroke-dasharray:2.0,2.0;" x1="108" x2="1158.5" y1="446.0254" y2="446.0254"/><text fill="#000000" font-family="sans-serif" font-size="13" font-weight="bold" lengthAdjust="spacing" textLength="14" x="115" y="440.7627">10</text><text fill="#000000" font-family="sans-serif" font-size="13" lengthAdjust="spacing" textLength="120" x="133" y="440.7627">agendaEntryDTOList</text><!--SRC=[XLFDRjim3BxhAOYUKc3T0nZOW20jXW8fEZGfTic5jHbRY2qP4hqYRpzARXpvfzqbS2X-F_n4-PCsBJfieB76vfMp3G6xZfGVJbhCJrZIZiyrWQESqPHrsk0hBEoxDYKSiVQa57PiJTUyaLDAMbZdkaN3S9DjqEHKhqio1JuOTkUDbLzRr-Hk03rizY_R2UI5MkirMwV9nvwXSDxfu4IqnX2N80vcJl1xkzwF4NWrT6NF3cQzL1zCZ3cItYTisu-1PjLFGVVxvob2Iag5IE3kvzBOa459_6WyXrXNjmfprd-HQJ6ZuJ26l4Ht9pBXC8CqGbNGbxo3mv1hRsanjzHVl8BOVzNy39J8HzWeaPdULdl-exco7VVBLbEnaeMio4ZioDgQwyvz5-ocSqxENZsvXmPrlRgTvAYCbI-douepo2lAJnxUAsGeVGFQmnjwAa3Y4msvG6zpBT023eO2txSBHXzZXrmMTpu0XHTQCHvUZdMGN-mU39e2i2Yy04I7mbp0jXU8euOfmVQ4OYFUPX8bZlFujNkQNk8rnTc6IgHixza6v6hEbAGpNsvLMzl2KQOHkIhr0TfCRQcvzDYFx3-CXWc57y7T_Zbrjcmfl1xvaqu-VLiB1ZuodEb6myjKbzdxH8NWzV6_yFW6_m40]--></g></svg>