<?xml version="1.0" encoding="us-ascii" standalone="no"?><svg xmlns="http://www.w3.org/2000/svg" xmlns:xlink="http://www.w3.org/1999/xlink" contentStyleType="text/css" height="1034px" preserveAspectRatio="none" style="width:1711px;height:1034px;background:#FFFFFF;" version="1.1" viewBox="0 0 1711 1034" width="1711px" zoomAndPan="magnify"><defs/><g><rect fill="#FFFFFF" height="839.8477" style="stroke:#181818;stroke-width:1.0;" width="10" x="18.5" y="93.6211"/><rect fill="#FFFFFF" height="816.5566" style="stroke:#181818;stroke-width:1.0;" width="10" x="291.5" y="116.9121"/><rect fill="#FFFFFF" height="476.3555" style="stroke:#181818;stroke-width:1.0;" width="10" x="586.5" y="158.2031"/><rect fill="#FFFFFF" height="156.4551" style="stroke:#181818;stroke-width:1.0;" width="10" x="586.5" y="745.7227"/><rect fill="#FFFFFF" height="31.291" style="stroke:#181818;stroke-width:1.0;" width="10" x="748" y="266.7363"/><rect fill="#FFFFFF" height="31.291" style="stroke:#181818;stroke-width:1.0;" width="10" x="855" y="329.3184"/><rect fill="#FFFFFF" height="51.582" style="stroke:#181818;stroke-width:1.0;" width="10" x="1118.5" y="412.1914"/><rect fill="#FFFFFF" height="31.291" style="stroke:#181818;stroke-width:1.0;" width="10" x="1118.5" y="777.0137"/><rect fill="#FFFFFF" height="31.291" style="stroke:#181818;stroke-width:1.0;" width="10" x="1118.5" y="839.5957"/><rect fill="#FFFFFF" height="108.2031" style="stroke:#181818;stroke-width:1.0;" width="10" x="1284" y="495.0645"/><rect fill="#FFFFFF" height="17.3301" style="stroke:#181818;stroke-width:1.0;" width="10" x="1627" y="562.6465"/><rect fill="none" height="62.9121" style="stroke:#000000;stroke-width:1.5;" width="498" x="1207" y="510.0645"/><line style="stroke:#181818;stroke-width:0.5;stroke-dasharray:5.0,5.0;" x1="23" x2="23" y1="83.6211" y2="951.4688"/><line style="stroke:#181818;stroke-width:0.5;stroke-dasharray:5.0,5.0;" x1="296.5" x2="296.5" y1="83.6211" y2="951.4688"/><line style="stroke:#181818;stroke-width:0.5;stroke-dasharray:5.0,5.0;" x1="591.5" x2="591.5" y1="156.7227" y2="951.4688"/><line style="stroke:#181818;stroke-width:0.5;stroke-dasharray:5.0,5.0;" x1="752.5" x2="752.5" y1="83.6211" y2="951.4688"/><line style="stroke:#181818;stroke-width:0.5;stroke-dasharray:5.0,5.0;" x1="859.5" x2="859.5" y1="83.6211" y2="951.4688"/><line style="stroke:#181818;stroke-width:0.5;stroke-dasharray:5.0,5.0;" x1="1123" x2="1123" y1="83.6211" y2="951.4688"/><line style="stroke:#181818;stroke-width:0.5;stroke-dasharray:5.0,5.0;" x1="1289" x2="1289" y1="231.6348" y2="951.4688"/><line style="stroke:#181818;stroke-width:0.5;stroke-dasharray:5.0,5.0;" x1="1632" x2="1632" y1="561.166" y2="951.4688"/><text fill="#000000" font-family="sans-serif" font-size="14" lengthAdjust="spacing" textLength="31" x="5" y="80.1074">GSM</text><ellipse cx="23.5" cy="13.5" fill="#E3E3E3" rx="8" ry="8" style="stroke:#181818;stroke-width:0.5;"/><path d="M23.5,21.5 L23.5,48.5 M10.5,29.5 L36.5,29.5 M23.5,48.5 L10.5,63.5 M23.5,48.5 L36.5,63.5 " fill="none" style="stroke:#181818;stroke-width:0.5;"/><text fill="#000000" font-family="sans-serif" font-size="14" lengthAdjust="spacing" textLength="31" x="5" y="965.5762">GSM</text><ellipse cx="23.5" cy="977.5898" fill="#E3E3E3" rx="8" ry="8" style="stroke:#181818;stroke-width:0.5;"/><path d="M23.5,985.5898 L23.5,1012.5898 M10.5,993.5898 L36.5,993.5898 M23.5,1012.5898 L10.5,1027.5898 M23.5,1012.5898 L36.5,1027.5898 " fill="none" style="stroke:#181818;stroke-width:0.5;"/><rect fill="#E3E3E3" height="32.6211" rx="2.5" ry="2.5" style="stroke:#181818;stroke-width:0.5;" width="156" x="218.5" y="50"/><text fill="#000000" font-family="sans-serif" font-size="14" lengthAdjust="spacing" textLength="142" x="225.5" y="72.1074">:CancelAgendaEntryUI</text><rect fill="#E3E3E3" height="32.6211" rx="2.5" ry="2.5" style="stroke:#181818;stroke-width:0.5;" width="156" x="218.5" y="950.4688"/><text fill="#000000" font-family="sans-serif" font-size="14" lengthAdjust="spacing" textLength="142" x="225.5" y="972.5762">:CancelAgendaEntryUI</text><rect fill="#E3E3E3" height="32.6211" rx="2.5" ry="2.5" style="stroke:#181818;stroke-width:0.5;" width="206" x="488.5" y="950.4688"/><text fill="#000000" font-family="sans-serif" font-size="14" lengthAdjust="spacing" textLength="192" x="495.5" y="972.5762">:CancelAgendaEntryController</text><rect fill="#E3E3E3" height="32.6211" rx="2.5" ry="2.5" style="stroke:#181818;stroke-width:0.5;" width="97" x="704.5" y="50"/><text fill="#000000" font-family="sans-serif" font-size="14" lengthAdjust="spacing" textLength="83" x="711.5" y="72.1074">:Repositories</text><rect fill="#E3E3E3" height="32.6211" rx="2.5" ry="2.5" style="stroke:#181818;stroke-width:0.5;" width="97" x="704.5" y="950.4688"/><text fill="#000000" font-family="sans-serif" font-size="14" lengthAdjust="spacing" textLength="83" x="711.5" y="972.5762">:Repositories</text><rect fill="#E3E3E3" height="51.2422" rx="2.5" ry="2.5" style="stroke:#181818;stroke-width:0.5;" width="97" x="811.5" y="31.3789"/><text fill="#000000" font-family="sans-serif" font-size="14" lengthAdjust="spacing" textLength="74" x="823" y="53.4863">repositories</text><text fill="#000000" font-family="sans-serif" font-size="14" lengthAdjust="spacing" textLength="83" x="818.5" y="72.1074">:Repositories</text><rect fill="#E3E3E3" height="51.2422" rx="2.5" ry="2.5" style="stroke:#181818;stroke-width:0.5;" width="97" x="811.5" y="950.4688"/><text fill="#000000" font-family="sans-serif" font-size="14" lengthAdjust="spacing" textLength="74" x="823" y="972.5762">repositories</text><text fill="#000000" font-family="sans-serif" font-size="14" lengthAdjust="spacing" textLength="83" x="818.5" y="991.1973">:Repositories</text><rect fill="#E3E3E3" height="51.2422" rx="2.5" ry="2.5" style="stroke:#181818;stroke-width:0.5;" width="167" x="1040" y="31.3789"/><text fill="#000000" font-family="sans-serif" font-size="14" lengthAdjust="spacing" textLength="153" x="1047" y="53.4863">agendaEntryRepository:</text><text fill="#000000" font-family="sans-serif" font-size="14" lengthAdjust="spacing" textLength="150" x="1048.5" y="72.1074">AgendaEntryRepository</text><rect fill="#E3E3E3" height="51.2422" rx="2.5" ry="2.5" style="stroke:#181818;stroke-width:0.5;" width="167" x="1040" y="950.4688"/><text fill="#000000" font-family="sans-serif" font-size="14" lengthAdjust="spacing" textLength="153" x="1047" y="972.5762">agendaEntryRepository:</text><text fill="#000000" font-family="sans-serif" font-size="14" lengthAdjust="spacing" textLength="150" x="1048.5" y="991.1973">AgendaEntryRepository</text><rect fill="#E3E3E3" height="32.6211" rx="2.5" ry="2.5" style="stroke:#181818;stroke-width:0.5;" width="144" x="1217" y="950.4688"/><text fill="#000000" font-family="sans-serif" font-size="14" lengthAdjust="spacing" textLength="130" x="1224" y="972.5762">AgendaEntryMapper</text><rect fill="#E3E3E3" height="32.6211" rx="2.5" ry="2.5" style="stroke:#181818;stroke-width:0.5;" width="126" x="1569" y="950.4688"/><text fill="#000000" font-family="sans-serif" font-size="14" lengthAdjust="spacing" textLength="112" x="1576" y="972.5762">AgendaEntryDTO</text><rect fill="#FFFFFF" height="839.8477" style="stroke:#181818;stroke-width:1.0;" width="10" x="18.5" y="93.6211"/><rect fill="#FFFFFF" height="816.5566" style="stroke:#181818;stroke-width:1.0;" width="10" x="291.5" y="116.9121"/><rect fill="#FFFFFF" height="476.3555" style="stroke:#181818;stroke-width:1.0;" width="10" x="586.5" y="158.2031"/><rect fill="#FFFFFF" height="156.4551" style="stroke:#181818;stroke-width:1.0;" width="10" x="586.5" y="745.7227"/><rect fill="#FFFFFF" height="31.291" style="stroke:#181818;stroke-width:1.0;" width="10" x="748" y="266.7363"/><rect fill="#FFFFFF" height="31.291" style="stroke:#181818;stroke-width:1.0;" width="10" x="855" y="329.3184"/><rect fill="#FFFFFF" height="51.582" style="stroke:#181818;stroke-width:1.0;" width="10" x="1118.5" y="412.1914"/><rect fill="#FFFFFF" height="31.291" style="stroke:#181818;stroke-width:1.0;" width="10" x="1118.5" y="777.0137"/><rect fill="#FFFFFF" height="31.291" style="stroke:#181818;stroke-width:1.0;" width="10" x="1118.5" y="839.5957"/><rect fill="#FFFFFF" height="108.2031" style="stroke:#181818;stroke-width:1.0;" width="10" x="1284" y="495.0645"/><rect fill="#FFFFFF" height="17.3301" style="stroke:#181818;stroke-width:1.0;" width="10" x="1627" y="562.6465"/><polygon fill="#181818" points="279.5,112.9121,289.5,116.9121,279.5,120.9121,283.5,116.9121" style="stroke:#181818;stroke-width:1.0;"/><line style="stroke:#181818;stroke-width:1.0;" x1="28.5" x2="285.5" y1="116.9121" y2="116.9121"/><text fill="#000000" font-family="sans-serif" font-size="13" font-weight="bold" lengthAdjust="spacing" textLength="7" x="35.5" y="111.6494">1</text><text fill="#000000" font-family="sans-serif" font-size="13" lengthAdjust="spacing" textLength="224" x="46.5" y="111.6494">asks to cancel an entry on the Agenda</text><polygon fill="#181818" points="476.5,144.2031,486.5,148.2031,476.5,152.2031,480.5,148.2031" style="stroke:#181818;stroke-width:1.0;"/><line style="stroke:#181818;stroke-width:1.0;" x1="301.5" x2="482.5" y1="148.2031" y2="148.2031"/><text fill="#000000" font-family="sans-serif" font-size="13" font-weight="bold" lengthAdjust="spacing" textLength="7" x="308.5" y="142.9404">2</text><text fill="#000000" font-family="sans-serif" font-size="13" lengthAdjust="spacing" textLength="36" x="319.5" y="142.9404">create</text><rect fill="#E3E3E3" height="32.6211" rx="2.5" ry="2.5" style="stroke:#181818;stroke-width:0.5;" width="206" x="488.5" y="124.9121"/><text fill="#000000" font-family="sans-serif" font-size="14" lengthAdjust="spacing" textLength="192" x="495.5" y="147.0195">:CancelAgendaEntryController</text><polygon fill="#181818" points="574.5,187.8242,584.5,191.8242,574.5,195.8242,578.5,191.8242" style="stroke:#181818;stroke-width:1.0;"/><line style="stroke:#181818;stroke-width:1.0;" x1="301.5" x2="580.5" y1="191.8242" y2="191.8242"/><text fill="#000000" font-family="sans-serif" font-size="13" font-weight="bold" lengthAdjust="spacing" textLength="7" x="308.5" y="186.5615">3</text><text fill="#000000" font-family="sans-serif" font-size="13" lengthAdjust="spacing" textLength="250" x="319.5" y="186.5615">getAgendaEntryWithoutCancelledDTOList()</text><polygon fill="#181818" points="1205,219.1152,1215,223.1152,1205,227.1152,1209,223.1152" style="stroke:#181818;stroke-width:1.0;"/><line style="stroke:#181818;stroke-width:1.0;" x1="596.5" x2="1211" y1="223.1152" y2="223.1152"/><text fill="#000000" font-family="sans-serif" font-size="13" font-weight="bold" lengthAdjust="spacing" textLength="7" x="603.5" y="217.8525">4</text><text fill="#000000" font-family="sans-serif" font-size="13" lengthAdjust="spacing" textLength="36" x="614.5" y="217.8525">create</text><rect fill="#E3E3E3" height="32.6211" rx="2.5" ry="2.5" style="stroke:#181818;stroke-width:0.5;" width="144" x="1217" y="199.8242"/><text fill="#000000" font-family="sans-serif" font-size="14" lengthAdjust="spacing" textLength="130" x="1224" y="221.9316">AgendaEntryMapper</text><polygon fill="#181818" points="736,262.7363,746,266.7363,736,270.7363,740,266.7363" style="stroke:#181818;stroke-width:1.0;"/><line style="stroke:#181818;stroke-width:1.0;" x1="596.5" x2="742" y1="266.7363" y2="266.7363"/><text fill="#000000" font-family="sans-serif" font-size="13" font-weight="bold" lengthAdjust="spacing" textLength="7" x="603.5" y="261.4736">5</text><text fill="#000000" font-family="sans-serif" font-size="13" lengthAdjust="spacing" textLength="75" x="614.5" y="261.4736">getInstance()</text><polygon fill="#181818" points="607.5,294.0273,597.5,298.0273,607.5,302.0273,603.5,298.0273" style="stroke:#181818;stroke-width:1.0;"/><line style="stroke:#181818;stroke-width:1.0;stroke-dasharray:2.0,2.0;" x1="601.5" x2="752" y1="298.0273" y2="298.0273"/><text fill="#000000" font-family="sans-serif" font-size="13" font-weight="bold" lengthAdjust="spacing" textLength="7" x="613.5" y="292.7646">6</text><text fill="#000000" font-family="sans-serif" font-size="13" lengthAdjust="spacing" textLength="67" x="624.5" y="292.7646">repositories</text><polygon fill="#181818" points="843,325.3184,853,329.3184,843,333.3184,847,329.3184" style="stroke:#181818;stroke-width:1.0;"/><line style="stroke:#181818;stroke-width:1.0;" x1="596.5" x2="849" y1="329.3184" y2="329.3184"/><text fill="#000000" font-family="sans-serif" font-size="13" font-weight="bold" lengthAdjust="spacing" textLength="7" x="603.5" y="324.0557">7</text><text fill="#000000" font-family="sans-serif" font-size="13" lengthAdjust="spacing" textLength="163" x="614.5" y="324.0557">getAgendaEntryRepository()</text><polygon fill="#181818" points="607.5,356.6094,597.5,360.6094,607.5,364.6094,603.5,360.6094" style="stroke:#181818;stroke-width:1.0;"/><line style="stroke:#181818;stroke-width:1.0;stroke-dasharray:2.0,2.0;" x1="601.5" x2="859" y1="360.6094" y2="360.6094"/><text fill="#000000" font-family="sans-serif" font-size="13" font-weight="bold" lengthAdjust="spacing" textLength="7" x="613.5" y="355.3467">8</text><text fill="#000000" font-family="sans-serif" font-size="13" lengthAdjust="spacing" textLength="145" x="624.5" y="355.3467">AgendaEntryRepository()</text><polygon fill="#181818" points="1106.5,408.1914,1116.5,412.1914,1106.5,416.1914,1110.5,412.1914" style="stroke:#181818;stroke-width:1.0;"/><line style="stroke:#181818;stroke-width:1.0;" x1="596.5" x2="1112.5" y1="412.1914" y2="412.1914"/><text fill="#000000" font-family="sans-serif" font-size="13" font-weight="bold" lengthAdjust="spacing" textLength="7" x="603.5" y="406.9287">9</text><text fill="#000000" font-family="sans-serif" font-size="13" lengthAdjust="spacing" textLength="492" x="614.5" y="406.9287">getAgendaEntryListWithoutCancelled(authenticationController.getCurrentUserEmail())</text><path d="M1133,373.6094 L1133,434.6094 L1466,434.6094 L1466,383.6094 L1456,373.6094 L1133,373.6094 " fill="#FAFAFA" style="stroke:#181818;stroke-width:0.5;"/><path d="M1456,373.6094 L1456,383.6094 L1466,383.6094 L1456,373.6094 " fill="#FAFAFA" style="stroke:#181818;stroke-width:0.5;"/><text fill="#000000" font-family="sans-serif" font-size="13" lengthAdjust="spacing" textLength="262" x="1139" y="392.6377">checks what gsm is based on the associated</text><text fill="#000000" font-family="sans-serif" font-size="13" lengthAdjust="spacing" textLength="312" x="1139" y="409.9287">email, checks if the status is not pending or cancelled</text><text fill="#000000" font-family="sans-serif" font-size="13" lengthAdjust="spacing" textLength="281" x="1139" y="427.2197">and adds that entry to the agendaList of the gsm</text><polygon fill="#181818" points="607.5,459.7734,597.5,463.7734,607.5,467.7734,603.5,463.7734" style="stroke:#181818;stroke-width:1.0;"/><line style="stroke:#181818;stroke-width:1.0;stroke-dasharray:2.0,2.0;" x1="601.5" x2="1122.5" y1="463.7734" y2="463.7734"/><text fill="#000000" font-family="sans-serif" font-size="13" font-weight="bold" lengthAdjust="spacing" textLength="14" x="613.5" y="458.5107">10</text><text fill="#000000" font-family="sans-serif" font-size="13" lengthAdjust="spacing" textLength="124" x="631.5" y="458.5107">agendaEntryListGSM</text><polygon fill="#181818" points="1272,491.0645,1282,495.0645,1272,499.0645,1276,495.0645" style="stroke:#181818;stroke-width:1.0;"/><line style="stroke:#181818;stroke-width:1.0;" x1="596.5" x2="1278" y1="495.0645" y2="495.0645"/><text fill="#000000" font-family="sans-serif" font-size="13" font-weight="bold" lengthAdjust="spacing" textLength="14" x="603.5" y="489.8018">11</text><text fill="#000000" font-family="sans-serif" font-size="13" lengthAdjust="spacing" textLength="184" x="621.5" y="489.8018">toDtoList(agendaEntryListGSM)</text><path d="M1207,510.0645 L1280,510.0645 L1280,519.3555 L1270,529.3555 L1207,529.3555 L1207,510.0645 " fill="#EEEEEE" style="stroke:#000000;stroke-width:1.5;"/><rect fill="none" height="62.9121" style="stroke:#000000;stroke-width:1.5;" width="498" x="1207" y="510.0645"/><text fill="#000000" font-family="sans-serif" font-size="13" font-weight="bold" lengthAdjust="spacing" textLength="28" x="1222" y="525.0928">loop</text><text fill="#000000" font-family="sans-serif" font-size="11" font-weight="bold" lengthAdjust="spacing" textLength="229" x="1295" y="523.9346">[for each agendaEntry in agendaEntryList]</text><polygon fill="#181818" points="1557,548.6465,1567,552.6465,1557,556.6465,1561,552.6465" style="stroke:#181818;stroke-width:1.0;"/><line style="stroke:#181818;stroke-width:1.0;" x1="1294" x2="1563" y1="552.6465" y2="552.6465"/><text fill="#000000" font-family="sans-serif" font-size="13" font-weight="bold" lengthAdjust="spacing" textLength="14" x="1301" y="547.3838">12</text><text fill="#000000" font-family="sans-serif" font-size="13" lengthAdjust="spacing" textLength="233" x="1319" y="547.3838">agendaEntryDTO = toDTO(agendaEntry)</text><rect fill="#E3E3E3" height="32.6211" rx="2.5" ry="2.5" style="stroke:#181818;stroke-width:0.5;" width="126" x="1569" y="529.3555"/><text fill="#000000" font-family="sans-serif" font-size="14" lengthAdjust="spacing" textLength="112" x="1576" y="551.4629">AgendaEntryDTO</text><polygon fill="#181818" points="607.5,599.2676,597.5,603.2676,607.5,607.2676,603.5,603.2676" style="stroke:#181818;stroke-width:1.0;"/><line style="stroke:#181818;stroke-width:1.0;stroke-dasharray:2.0,2.0;" x1="601.5" x2="1288" y1="603.2676" y2="603.2676"/><text fill="#000000" font-family="sans-serif" font-size="13" font-weight="bold" lengthAdjust="spacing" textLength="14" x="613.5" y="598.0049">13</text><text fill="#000000" font-family="sans-serif" font-size="13" lengthAdjust="spacing" textLength="120" x="631.5" y="598.0049">agendaEntryDTOList</text><polygon fill="#181818" points="312.5,630.5586,302.5,634.5586,312.5,638.5586,308.5,634.5586" style="stroke:#181818;stroke-width:1.0;"/><line style="stroke:#181818;stroke-width:1.0;stroke-dasharray:2.0,2.0;" x1="306.5" x2="590.5" y1="634.5586" y2="634.5586"/><text fill="#000000" font-family="sans-serif" font-size="13" font-weight="bold" lengthAdjust="spacing" textLength="14" x="318.5" y="629.2959">14</text><text fill="#000000" font-family="sans-serif" font-size="13" lengthAdjust="spacing" textLength="120" x="336.5" y="629.2959">agendaEntryDTOList</text><polygon fill="#181818" points="39.5,679.1406,29.5,683.1406,39.5,687.1406,35.5,683.1406" style="stroke:#181818;stroke-width:1.0;"/><line style="stroke:#181818;stroke-width:1.0;stroke-dasharray:2.0,2.0;" x1="33.5" x2="290.5" y1="683.1406" y2="683.1406"/><text fill="#000000" font-family="sans-serif" font-size="13" font-weight="bold" lengthAdjust="spacing" textLength="14" x="45.5" y="669.2324">15</text><text fill="#000000" font-family="sans-serif" font-size="13" lengthAdjust="spacing" textLength="221" x="63.5" y="660.5869">shows the list of entries in the Agenda</text><text fill="#000000" font-family="sans-serif" font-size="13" lengthAdjust="spacing" textLength="132" x="67.5" y="677.8779">and asks to select one</text><polygon fill="#181818" points="279.5,710.4316,289.5,714.4316,279.5,718.4316,283.5,714.4316" style="stroke:#181818;stroke-width:1.0;"/><line style="stroke:#181818;stroke-width:1.0;" x1="28.5" x2="285.5" y1="714.4316" y2="714.4316"/><text fill="#000000" font-family="sans-serif" font-size="13" font-weight="bold" lengthAdjust="spacing" textLength="14" x="35.5" y="709.1689">16</text><text fill="#000000" font-family="sans-serif" font-size="13" lengthAdjust="spacing" textLength="93" x="53.5" y="709.1689">selects an entry</text><polygon fill="#181818" points="574.5,741.7227,584.5,745.7227,574.5,749.7227,578.5,745.7227" style="stroke:#181818;stroke-width:1.0;"/><line style="stroke:#181818;stroke-width:1.0;" x1="301.5" x2="580.5" y1="745.7227" y2="745.7227"/><text fill="#000000" font-family="sans-serif" font-size="13" font-weight="bold" lengthAdjust="spacing" textLength="14" x="308.5" y="740.46">17</text><text fill="#000000" font-family="sans-serif" font-size="13" lengthAdjust="spacing" textLength="244" x="326.5" y="740.46">cancelAgendaEntry(AgendaEntryDTO dto)</text><polygon fill="#181818" points="1106.5,773.0137,1116.5,777.0137,1106.5,781.0137,1110.5,777.0137" style="stroke:#181818;stroke-width:1.0;"/><line style="stroke:#181818;stroke-width:1.0;" x1="596.5" x2="1112.5" y1="777.0137" y2="777.0137"/><text fill="#000000" font-family="sans-serif" font-size="13" font-weight="bold" lengthAdjust="spacing" textLength="14" x="603.5" y="771.751">18</text><text fill="#000000" font-family="sans-serif" font-size="13" lengthAdjust="spacing" textLength="417" x="621.5" y="771.751">getAgendaEntryByDescriptionAndGreenSpace(description, greenSpace)</text><polygon fill="#181818" points="607.5,804.3047,597.5,808.3047,607.5,812.3047,603.5,808.3047" style="stroke:#181818;stroke-width:1.0;"/><line style="stroke:#181818;stroke-width:1.0;stroke-dasharray:2.0,2.0;" x1="601.5" x2="1122.5" y1="808.3047" y2="808.3047"/><text fill="#000000" font-family="sans-serif" font-size="13" font-weight="bold" lengthAdjust="spacing" textLength="14" x="613.5" y="803.042">19</text><text fill="#000000" font-family="sans-serif" font-size="13" lengthAdjust="spacing" textLength="73" x="631.5" y="803.042">agendaEntry</text><polygon fill="#181818" points="1106.5,835.5957,1116.5,839.5957,1106.5,843.5957,1110.5,839.5957" style="stroke:#181818;stroke-width:1.0;"/><line style="stroke:#181818;stroke-width:1.0;" x1="596.5" x2="1112.5" y1="839.5957" y2="839.5957"/><text fill="#000000" font-family="sans-serif" font-size="13" font-weight="bold" lengthAdjust="spacing" textLength="14" x="603.5" y="834.333">20</text><text fill="#000000" font-family="sans-serif" font-size="13" lengthAdjust="spacing" textLength="234" x="621.5" y="834.333">update(entry, EntryStatus.CANCELLED)</text><polygon fill="#181818" points="607.5,866.8867,597.5,870.8867,607.5,874.8867,603.5,870.8867" style="stroke:#181818;stroke-width:1.0;"/><line style="stroke:#181818;stroke-width:1.0;stroke-dasharray:2.0,2.0;" x1="601.5" x2="1122.5" y1="870.8867" y2="870.8867"/><text fill="#000000" font-family="sans-serif" font-size="13" font-weight="bold" lengthAdjust="spacing" textLength="14" x="613.5" y="865.624">21</text><text fill="#000000" font-family="sans-serif" font-size="13" lengthAdjust="spacing" textLength="112" x="631.5" y="865.624">success/insuccess</text><polygon fill="#181818" points="312.5,898.1777,302.5,902.1777,312.5,906.1777,308.5,902.1777" style="stroke:#181818;stroke-width:1.0;"/><line style="stroke:#181818;stroke-width:1.0;stroke-dasharray:2.0,2.0;" x1="306.5" x2="590.5" y1="902.1777" y2="902.1777"/><text fill="#000000" font-family="sans-serif" font-size="13" font-weight="bold" lengthAdjust="spacing" textLength="14" x="318.5" y="896.915">22</text><text fill="#000000" font-family="sans-serif" font-size="13" lengthAdjust="spacing" textLength="112" x="336.5" y="896.915">success/insuccess</text><polygon fill="#181818" points="34.5,929.4688,24.5,933.4688,34.5,937.4688,30.5,933.4688" style="stroke:#181818;stroke-width:1.0;"/><line style="stroke:#181818;stroke-width:1.0;stroke-dasharray:2.0,2.0;" x1="28.5" x2="295.5" y1="933.4688" y2="933.4688"/><text fill="#000000" font-family="sans-serif" font-size="13" font-weight="bold" lengthAdjust="spacing" textLength="14" x="40.5" y="928.2061">23</text><text fill="#000000" font-family="sans-serif" font-size="13" lengthAdjust="spacing" textLength="165" x="58.5" y="928.2061">shows (in)success message</text><!--SRC=[fLPDR-8m4BtdLuouBA2sUqVQbLX0LIMwNHMglN1ndMbYDTYHRRRBlz-n2Kc8JQ3Q76XbUzxCcuzdctSXIwRP5hPAAfvhjKMmUeU9gNTAnjzPXYkxBn0qSijaLhGFc9obwaF83DvOOJ19sCugkTk-eawIBxb84TwKig_gRyAuLHe6zwl70J03z3SX32kuA9cqC9ZCcEHOJ3EKALj8g_Sl3_xaoyEbWpD5lweeK7k3sVfvsJ5vnb8PGG48DFvClR1V2SU9eZurqIsBZGm1VYsdwrCBrWJKe4ysSXfRhuCunMYTVMHbIOJExi_NJuE4Figh-CCi-emcqFbe4Mw_KmvXGXxV3LW5tESFc0HqGA0as1pXW1r2r0we4C4c0HEyo_XuJ2wuHZfv7iAN9jWcb0fa0XdQ5idVmkPgPmyLBp0bqajXx70KWZXp5qiaX-Fn18wXLTyvwqXVW0_gGHhheY3NPzd5cYeaIr_CossTWdRh1UOfzhixoymrB7Jpsq3qyVAz7YNYGPl8hqLkaJXWzzOZYDgrGBSpXgGyEVMpuCmA9Hj9k2FRsKvhsding1TR9ehXw48Lmu2aeYqjijnIb-V8QPG-ScOXCriG1bwPmVGuISmOnGLXfR2Hw1pU76t4cpz1lMHtnXaIBfJ4p6aewIC_yjb89bDWQKeZw_mSHfMcrplmkN1f07K0f332c7tockgmqmmwlRZGNRsZ4XaqgfHLSwlyZ8RkUf8UKxv8onLAbNIZQA0uypOX4BBBBs8U2xd3nCcgbp9siWRV7BFrKvlLA3OJKKPUgyEpjDzNWL3jh-9JrJkWu7DofRkw112lVdsbNFRGTd56_lqjGf3kifhGcq9z6D_KHTNWhlT92rsDcujgGmLt4r9TQWOBUf_G16AiRmZPXpofpfdwzeiSZjrozH3nxkDZU5ebIAqQVQggdxmitMebZ5rT_B6Ve-5Qb4u1fpAzruXoHOyu7ARDnWrazVeb6Omf2bKgq9DhXAINoAvCwUpGb-G6FERAQ-JTRFfpjbWk5_DHyZ_1cXtdQCnN8Ql_WeY2aFjRFmIyrFYNctuevAX2WotzK8QJyw3kFTQpxVJz7m00]--></g></svg>