<?xml version="1.0" encoding="us-ascii" standalone="no"?><svg xmlns="http://www.w3.org/2000/svg" xmlns:xlink="http://www.w3.org/1999/xlink" contentStyleType="text/css" height="520px" preserveAspectRatio="none" style="width:1323px;height:520px;background:#FFFFFF;" version="1.1" viewBox="0 0 1323 520" width="1323px" zoomAndPan="magnify"><defs/><g><rect fill="#FFFFFF" height="364.4922" style="stroke:#181818;stroke-width:1.0;" width="10" x="78" y="90.5332"/><rect fill="#FFFFFF" height="355.4922" style="stroke:#181818;stroke-width:1.0;" width="10" x="269" y="90.5332"/><rect fill="#FFFFFF" height="31.291" style="stroke:#181818;stroke-width:1.0;" width="10" x="430.5" y="90.5332"/><rect fill="#FFFFFF" height="31.291" style="stroke:#181818;stroke-width:1.0;" width="10" x="537.5" y="153.1152"/><rect fill="#FFFFFF" height="51.582" style="stroke:#181818;stroke-width:1.0;" width="10" x="801" y="235.9883"/><rect fill="#FFFFFF" height="95.873" style="stroke:#181818;stroke-width:1.0;" width="10" x="966.5" y="318.8613"/><rect fill="#FFFFFF" height="15" style="stroke:#181818;stroke-width:1.0;" width="10" x="1239.5" y="376.4434"/><rect fill="none" height="50.582" style="stroke:#000000;stroke-width:1.5;" width="428" x="889.5" y="333.8613"/><line style="stroke:#181818;stroke-width:0.5;stroke-dasharray:5.0,5.0;" x1="83" x2="83" y1="57.2422" y2="464.0254"/><line style="stroke:#181818;stroke-width:0.5;stroke-dasharray:5.0,5.0;" x1="274" x2="274" y1="57.2422" y2="464.0254"/><line style="stroke:#181818;stroke-width:0.5;stroke-dasharray:5.0,5.0;" x1="435" x2="435" y1="57.2422" y2="464.0254"/><line style="stroke:#181818;stroke-width:0.5;stroke-dasharray:5.0,5.0;" x1="542" x2="542" y1="57.2422" y2="464.0254"/><line style="stroke:#181818;stroke-width:0.5;stroke-dasharray:5.0,5.0;" x1="805.5" x2="805.5" y1="57.2422" y2="464.0254"/><line style="stroke:#181818;stroke-width:0.5;stroke-dasharray:5.0,5.0;" x1="971.5" x2="971.5" y1="57.2422" y2="464.0254"/><line style="stroke:#181818;stroke-width:0.5;stroke-dasharray:5.0,5.0;" x1="1244.5" x2="1244.5" y1="57.2422" y2="464.0254"/><rect fill="#E3E3E3" height="32.6211" rx="2.5" ry="2.5" style="stroke:#181818;stroke-width:0.5;" width="156" x="5" y="23.6211"/><text fill="#000000" font-family="sans-serif" font-size="14" lengthAdjust="spacing" textLength="142" x="12" y="45.7285">:CancelAgendaEntryUI</text><rect fill="#E3E3E3" height="32.6211" rx="2.5" ry="2.5" style="stroke:#181818;stroke-width:0.5;" width="156" x="5" y="463.0254"/><text fill="#000000" font-family="sans-serif" font-size="14" lengthAdjust="spacing" textLength="142" x="12" y="485.1328">:CancelAgendaEntryUI</text><rect fill="#E3E3E3" height="32.6211" rx="2.5" ry="2.5" style="stroke:#181818;stroke-width:0.5;" width="206" x="171" y="23.6211"/><text fill="#000000" font-family="sans-serif" font-size="14" lengthAdjust="spacing" textLength="192" x="178" y="45.7285">:CancelAgendaEntryController</text><rect fill="#E3E3E3" height="32.6211" rx="2.5" ry="2.5" style="stroke:#181818;stroke-width:0.5;" width="206" x="171" y="463.0254"/><text fill="#000000" font-family="sans-serif" font-size="14" lengthAdjust="spacing" textLength="192" x="178" y="485.1328">:CancelAgendaEntryController</text><rect fill="#E3E3E3" height="32.6211" rx="2.5" ry="2.5" style="stroke:#181818;stroke-width:0.5;" width="97" x="387" y="23.6211"/><text fill="#000000" font-family="sans-serif" font-size="14" lengthAdjust="spacing" textLength="83" x="394" y="45.7285">:Repositories</text><rect fill="#E3E3E3" height="32.6211" rx="2.5" ry="2.5" style="stroke:#181818;stroke-width:0.5;" width="97" x="387" y="463.0254"/><text fill="#000000" font-family="sans-serif" font-size="14" lengthAdjust="spacing" textLength="83" x="394" y="485.1328">:Repositories</text><rect fill="#E3E3E3" height="51.2422" rx="2.5" ry="2.5" style="stroke:#181818;stroke-width:0.5;" width="97" x="494" y="5"/><text fill="#000000" font-family="sans-serif" font-size="14" lengthAdjust="spacing" textLength="74" x="505.5" y="27.1074">repositories</text><text fill="#000000" font-family="sans-serif" font-size="14" lengthAdjust="spacing" textLength="83" x="501" y="45.7285">:Repositories</text><rect fill="#E3E3E3" height="51.2422" rx="2.5" ry="2.5" style="stroke:#181818;stroke-width:0.5;" width="97" x="494" y="463.0254"/><text fill="#000000" font-family="sans-serif" font-size="14" lengthAdjust="spacing" textLength="74" x="505.5" y="485.1328">repositories</text><text fill="#000000" font-family="sans-serif" font-size="14" lengthAdjust="spacing" textLength="83" x="501" y="503.7539">:Repositories</text><rect fill="#E3E3E3" height="51.2422" rx="2.5" ry="2.5" style="stroke:#181818;stroke-width:0.5;" width="167" x="722.5" y="5"/><text fill="#000000" font-family="sans-serif" font-size="14" lengthAdjust="spacing" textLength="153" x="729.5" y="27.1074">agendaEntryRepository:</text><text fill="#000000" font-family="sans-serif" font-size="14" lengthAdjust="spacing" textLength="150" x="731" y="45.7285">AgendaEntryRepository</text><rect fill="#E3E3E3" height="51.2422" rx="2.5" ry="2.5" style="stroke:#181818;stroke-width:0.5;" width="167" x="722.5" y="463.0254"/><text fill="#000000" font-family="sans-serif" font-size="14" lengthAdjust="spacing" textLength="153" x="729.5" y="485.1328">agendaEntryRepository:</text><text fill="#000000" font-family="sans-serif" font-size="14" lengthAdjust="spacing" textLength="150" x="731" y="503.7539">AgendaEntryRepository</text><rect fill="#E3E3E3" height="32.6211" rx="2.5" ry="2.5" style="stroke:#181818;stroke-width:0.5;" width="144" x="899.5" y="23.6211"/><text fill="#000000" font-family="sans-serif" font-size="14" lengthAdjust="spacing" textLength="130" x="906.5" y="45.7285">AgendaEntryMapper</text><rect fill="#E3E3E3" height="32.6211" rx="2.5" ry="2.5" style="stroke:#181818;stroke-width:0.5;" width="144" x="899.5" y="463.0254"/><text fill="#000000" font-family="sans-serif" font-size="14" lengthAdjust="spacing" textLength="130" x="906.5" y="485.1328">AgendaEntryMapper</text><rect fill="#E3E3E3" height="32.6211" rx="2.5" ry="2.5" style="stroke:#181818;stroke-width:0.5;" width="126" x="1181.5" y="23.6211"/><text fill="#000000" font-family="sans-serif" font-size="14" lengthAdjust="spacing" textLength="112" x="1188.5" y="45.7285">AgendaEntryDTO</text><rect fill="#E3E3E3" height="32.6211" rx="2.5" ry="2.5" style="stroke:#181818;stroke-width:0.5;" width="126" x="1181.5" y="463.0254"/><text fill="#000000" font-family="sans-serif" font-size="14" lengthAdjust="spacing" textLength="112" x="1188.5" y="485.1328">AgendaEntryDTO</text><rect fill="#FFFFFF" height="364.4922" style="stroke:#181818;stroke-width:1.0;" width="10" x="78" y="90.5332"/><rect fill="#FFFFFF" height="355.4922" style="stroke:#181818;stroke-width:1.0;" width="10" x="269" y="90.5332"/><rect fill="#FFFFFF" height="31.291" style="stroke:#181818;stroke-width:1.0;" width="10" x="430.5" y="90.5332"/><rect fill="#FFFFFF" height="31.291" style="stroke:#181818;stroke-width:1.0;" width="10" x="537.5" y="153.1152"/><rect fill="#FFFFFF" height="51.582" style="stroke:#181818;stroke-width:1.0;" width="10" x="801" y="235.9883"/><rect fill="#FFFFFF" height="95.873" style="stroke:#181818;stroke-width:1.0;" width="10" x="966.5" y="318.8613"/><rect fill="#FFFFFF" height="15" style="stroke:#181818;stroke-width:1.0;" width="10" x="1239.5" y="376.4434"/><polygon fill="#181818" points="418.5,86.5332,428.5,90.5332,418.5,94.5332,422.5,90.5332" style="stroke:#181818;stroke-width:1.0;"/><line style="stroke:#181818;stroke-width:1.0;" x1="279" x2="424.5" y1="90.5332" y2="90.5332"/><text fill="#000000" font-family="sans-serif" font-size="13" font-weight="bold" lengthAdjust="spacing" textLength="7" x="286" y="85.2705">1</text><text fill="#000000" font-family="sans-serif" font-size="13" lengthAdjust="spacing" textLength="75" x="297" y="85.2705">getInstance()</text><polygon fill="#181818" points="290,117.8242,280,121.8242,290,125.8242,286,121.8242" style="stroke:#181818;stroke-width:1.0;"/><line style="stroke:#181818;stroke-width:1.0;stroke-dasharray:2.0,2.0;" x1="284" x2="434.5" y1="121.8242" y2="121.8242"/><text fill="#000000" font-family="sans-serif" font-size="13" font-weight="bold" lengthAdjust="spacing" textLength="7" x="296" y="116.5615">2</text><text fill="#000000" font-family="sans-serif" font-size="13" lengthAdjust="spacing" textLength="67" x="307" y="116.5615">repositories</text><polygon fill="#181818" points="525.5,149.1152,535.5,153.1152,525.5,157.1152,529.5,153.1152" style="stroke:#181818;stroke-width:1.0;"/><line style="stroke:#181818;stroke-width:1.0;" x1="279" x2="531.5" y1="153.1152" y2="153.1152"/><text fill="#000000" font-family="sans-serif" font-size="13" font-weight="bold" lengthAdjust="spacing" textLength="7" x="286" y="147.8525">3</text><text fill="#000000" font-family="sans-serif" font-size="13" lengthAdjust="spacing" textLength="163" x="297" y="147.8525">getAgendaEntryRepository()</text><polygon fill="#181818" points="290,180.4063,280,184.4063,290,188.4063,286,184.4063" style="stroke:#181818;stroke-width:1.0;"/><line style="stroke:#181818;stroke-width:1.0;stroke-dasharray:2.0,2.0;" x1="284" x2="541.5" y1="184.4063" y2="184.4063"/><text fill="#000000" font-family="sans-serif" font-size="13" font-weight="bold" lengthAdjust="spacing" textLength="7" x="296" y="179.1436">4</text><text fill="#000000" font-family="sans-serif" font-size="13" lengthAdjust="spacing" textLength="145" x="307" y="179.1436">AgendaEntryRepository()</text><polygon fill="#181818" points="789,231.9883,799,235.9883,789,239.9883,793,235.9883" style="stroke:#181818;stroke-width:1.0;"/><line style="stroke:#181818;stroke-width:1.0;" x1="279" x2="795" y1="235.9883" y2="235.9883"/><text fill="#000000" font-family="sans-serif" font-size="13" font-weight="bold" lengthAdjust="spacing" textLength="7" x="286" y="230.7256">5</text><text fill="#000000" font-family="sans-serif" font-size="13" lengthAdjust="spacing" textLength="492" x="297" y="230.7256">getAgendaEntryListWithoutCancelled(authenticationController.getCurrentUserEmail())</text><path d="M816,197.4063 L816,258.4063 L1149,258.4063 L1149,207.4063 L1139,197.4063 L816,197.4063 " fill="#FAFAFA" style="stroke:#181818;stroke-width:0.5;"/><path d="M1139,197.4063 L1139,207.4063 L1149,207.4063 L1139,197.4063 " fill="#FAFAFA" style="stroke:#181818;stroke-width:0.5;"/><text fill="#000000" font-family="sans-serif" font-size="13" lengthAdjust="spacing" textLength="262" x="822" y="216.4346">checks what gsm is based on the associated</text><text fill="#000000" font-family="sans-serif" font-size="13" lengthAdjust="spacing" textLength="312" x="822" y="233.7256">email, checks if the status is not pending or cancelled</text><text fill="#000000" font-family="sans-serif" font-size="13" lengthAdjust="spacing" textLength="281" x="822" y="251.0166">and adds that entry to the agendaList of the gsm</text><polygon fill="#181818" points="290,283.5703,280,287.5703,290,291.5703,286,287.5703" style="stroke:#181818;stroke-width:1.0;"/><line style="stroke:#181818;stroke-width:1.0;stroke-dasharray:2.0,2.0;" x1="284" x2="805" y1="287.5703" y2="287.5703"/><text fill="#000000" font-family="sans-serif" font-size="13" font-weight="bold" lengthAdjust="spacing" textLength="7" x="296" y="282.3076">6</text><text fill="#000000" font-family="sans-serif" font-size="13" lengthAdjust="spacing" textLength="124" x="307" y="282.3076">agendaEntryListGSM</text><polygon fill="#181818" points="954.5,314.8613,964.5,318.8613,954.5,322.8613,958.5,318.8613" style="stroke:#181818;stroke-width:1.0;"/><line style="stroke:#181818;stroke-width:1.0;" x1="279" x2="960.5" y1="318.8613" y2="318.8613"/><text fill="#000000" font-family="sans-serif" font-size="13" font-weight="bold" lengthAdjust="spacing" textLength="7" x="286" y="313.5986">7</text><text fill="#000000" font-family="sans-serif" font-size="13" lengthAdjust="spacing" textLength="184" x="297" y="313.5986">toDtoList(agendaEntryListGSM)</text><path d="M889.5,333.8613 L962.5,333.8613 L962.5,343.1523 L952.5,353.1523 L889.5,353.1523 L889.5,333.8613 " fill="#EEEEEE" style="stroke:#000000;stroke-width:1.5;"/><rect fill="none" height="50.582" style="stroke:#000000;stroke-width:1.5;" width="428" x="889.5" y="333.8613"/><text fill="#000000" font-family="sans-serif" font-size="13" font-weight="bold" lengthAdjust="spacing" textLength="28" x="904.5" y="348.8896">loop</text><text fill="#000000" font-family="sans-serif" font-size="11" font-weight="bold" lengthAdjust="spacing" textLength="229" x="977.5" y="347.7314">[for each agendaEntry in agendaEntryList]</text><polygon fill="#181818" points="1227.5,372.4434,1237.5,376.4434,1227.5,380.4434,1231.5,376.4434" style="stroke:#181818;stroke-width:1.0;"/><line style="stroke:#181818;stroke-width:1.0;" x1="976.5" x2="1233.5" y1="376.4434" y2="376.4434"/><text fill="#000000" font-family="sans-serif" font-size="13" font-weight="bold" lengthAdjust="spacing" textLength="7" x="983.5" y="371.1807">8</text><text fill="#000000" font-family="sans-serif" font-size="13" lengthAdjust="spacing" textLength="233" x="994.5" y="371.1807">agendaEntryDTO = toDTO(agendaEntry)</text><polygon fill="#181818" points="290,410.7344,280,414.7344,290,418.7344,286,414.7344" style="stroke:#181818;stroke-width:1.0;"/><line style="stroke:#181818;stroke-width:1.0;stroke-dasharray:2.0,2.0;" x1="284" x2="970.5" y1="414.7344" y2="414.7344"/><text fill="#000000" font-family="sans-serif" font-size="13" font-weight="bold" lengthAdjust="spacing" textLength="7" x="296" y="409.4717">9</text><text fill="#000000" font-family="sans-serif" font-size="13" lengthAdjust="spacing" textLength="120" x="307" y="409.4717">agendaEntryDTOList</text><polygon fill="#181818" points="99,442.0254,89,446.0254,99,450.0254,95,446.0254" style="stroke:#181818;stroke-width:1.0;"/><line style="stroke:#181818;stroke-width:1.0;stroke-dasharray:2.0,2.0;" x1="93" x2="273" y1="446.0254" y2="446.0254"/><text fill="#000000" font-family="sans-serif" font-size="13" font-weight="bold" lengthAdjust="spacing" textLength="14" x="105" y="440.7627">10</text><text fill="#000000" font-family="sans-serif" font-size="13" lengthAdjust="spacing" textLength="120" x="123" y="440.7627">agendaEntryDTOList</text><!--SRC=[XLF1QkD03BtFLuYU4jZk1nYw4DAo15AwD0bxoKMr5Nk8FMDcv9Ry_MecZJEEtUqbE1gzfwSdoH-rQT5X0uqrDg-SRGZOTQHy_z9YViIIDdog2HpbZAQiqmHVOM4_j2dXWBKdfR1ZQxhcZPnIai8wroqQXhjiYIQdUb6IAV39i3ljLdU07dQhxnANLdvjNPEBWENsTNq3UQNMUitMQV8nfm-SDZf85b53Y4iGUpCc-BDUR8S8l0gwicTxivYAzoA674dkCxRjPqEZw9UWn-tBBK92IWLBuFxNLDkGGKcyCfw3hREvmfprEp85u_llAR_wnsZu5FMzb0oF6QHsgeB-ozkh3HwVvKrwc6gDuuZvrvfVWPBo4JPmPrHlhJt_rLpPZi-BLrCnaoskoCW8aBKrr_txATXbvvoyxJovfmPrFPlFXpugO-NBwRBY3FAAygE7ZmePIj-0zl26dWeG-wI63DFRN0kqWBsXmFVZWj67c263uyu7eF12AyB3kLa7-KNktg0f08l22q3gKEWBs9uBn5P3bs3FX28ZJZEn4eT-_Duytmxnwk9eMyLIjezi0t8sPahS6I-wggrjuI3TIBagrG7QtCfIuz93FN8BC6Wc11w2kkrBgcnQKhWa-PDsVdjd4m8-FHpLZOAdgIwzdnqLWjtgMtYymNy0]--></g></svg>