<?xml version="1.0" encoding="us-ascii" standalone="no"?><svg xmlns="http://www.w3.org/2000/svg" xmlns:xlink="http://www.w3.org/1999/xlink" contentStyleType="text/css" height="1160.5px" preserveAspectRatio="none" style="width:1784px;height:1160px;background:#FFFFFF;" version="1.1" viewBox="0 0 1784 1160" width="1784.2px" zoomAndPan="magnify"><defs/><g><rect fill="#FFFFFF" height="946.6123" style="stroke:#181818;stroke-width:1.1;" width="11" x="20.35" y="102.9832"/><rect fill="#FFFFFF" height="920.9922" style="stroke:#181818;stroke-width:1.1;" width="11" x="320.65" y="128.6033"/><rect fill="#FFFFFF" height="479.3508" style="stroke:#181818;stroke-width:1.1;" width="11" x="575.85" y="174.0234"/><rect fill="#FFFFFF" height="239.5207" style="stroke:#181818;stroke-width:1.1;" width="11" x="575.85" y="775.6547"/><rect fill="#FFFFFF" height="34.4201" style="stroke:#181818;stroke-width:1.1;" width="11" x="753.5" y="258.9898"/><rect fill="#FFFFFF" height="34.4201" style="stroke:#181818;stroke-width:1.1;" width="11" x="871.2" y="327.8301"/><rect fill="#FFFFFF" height="34.4201" style="stroke:#181818;stroke-width:1.1;" width="11" x="1027.4" y="431.0904"/><rect fill="#FFFFFF" height="33" style="stroke:#181818;stroke-width:1.1;" width="11" x="1027.4" y="947.7553"/><rect fill="#FFFFFF" height="119.0234" style="stroke:#181818;stroke-width:1.1;" width="11" x="1209.45" y="499.9307"/><rect fill="#FFFFFF" height="103.2604" style="stroke:#181818;stroke-width:1.1;" width="11" x="1209.45" y="810.0748"/><rect fill="#FFFFFF" height="19.0631" style="stroke:#181818;stroke-width:1.1;" width="11" x="1586.75" y="574.2709"/><rect fill="#FFFFFF" height="68.8402" style="stroke:#181818;stroke-width:1.1;" width="11" x="1719.85" y="844.4949"/><rect fill="none" height="69.2033" style="stroke:#000000;stroke-width:1.6500000000000001;" width="547.8" x="1124.75" y="516.4307"/><line style="stroke:#181818;stroke-width:0.55;stroke-dasharray:5.0,5.0;" x1="25.3" x2="25.3" y1="91.9832" y2="1069.3955"/><line style="stroke:#181818;stroke-width:0.55;stroke-dasharray:5.0,5.0;" x1="326.15" x2="326.15" y1="91.9832" y2="1069.3955"/><line style="stroke:#181818;stroke-width:0.55;stroke-dasharray:5.0,5.0;" x1="581.35" x2="581.35" y1="172.3949" y2="1069.3955"/><line style="stroke:#181818;stroke-width:0.55;stroke-dasharray:5.0,5.0;" x1="758.45" x2="758.45" y1="91.9832" y2="1069.3955"/><line style="stroke:#181818;stroke-width:0.55;stroke-dasharray:5.0,5.0;" x1="876.15" x2="876.15" y1="91.9832" y2="1069.3955"/><line style="stroke:#181818;stroke-width:0.55;stroke-dasharray:5.0,5.0;" x1="1032.35" x2="1032.35" y1="91.9832" y2="1069.3955"/><line style="stroke:#181818;stroke-width:0.55;stroke-dasharray:5.0,5.0;" x1="1214.95" x2="1214.95" y1="220.3781" y2="1069.3955"/><line style="stroke:#181818;stroke-width:0.55;stroke-dasharray:5.0,5.0;" x1="1592.25" x2="1592.25" y1="572.6424" y2="1069.3955"/><line style="stroke:#181818;stroke-width:0.55;stroke-dasharray:5.0,5.0;" x1="1725.35" x2="1725.35" y1="91.9832" y2="1069.3955"/><text fill="#000000" font-family="sans-serif" font-size="15.4" lengthAdjust="spacing" textLength="34.1" x="5.5" y="88.1182">GSM</text><ellipse cx="25.85" cy="14.85" fill="#E3E3E3" rx="8.8" ry="8.8" style="stroke:#181818;stroke-width:0.55;"/><path d="M25.85,23.65 L25.85,53.35 M11.55,32.45 L40.15,32.45 M25.85,53.35 L11.55,69.85 M25.85,53.35 L40.15,69.85 " fill="none" style="stroke:#181818;stroke-width:0.55;"/><text fill="#000000" font-family="sans-serif" font-size="15.4" lengthAdjust="spacing" textLength="34.1" x="5.5" y="1084.9137">GSM</text><ellipse cx="25.85" cy="1098.1287" fill="#E3E3E3" rx="8.8" ry="8.8" style="stroke:#181818;stroke-width:0.55;"/><path d="M25.85,1106.9287 L25.85,1136.6287 M11.55,1115.7287 L40.15,1115.7287 M25.85,1136.6287 L11.55,1153.1287 M25.85,1136.6287 L40.15,1153.1287 " fill="none" style="stroke:#181818;stroke-width:0.55;"/><rect fill="#E3E3E3" height="35.8832" rx="2.75" ry="2.75" style="stroke:#181818;stroke-width:0.55;" width="123.2" x="264.55" y="55"/><text fill="#000000" font-family="sans-serif" font-size="15.4" lengthAdjust="spacing" textLength="107.8" x="272.25" y="79.3182">:AgendaEntryUI</text><rect fill="#E3E3E3" height="35.8832" rx="2.75" ry="2.75" style="stroke:#181818;stroke-width:0.55;" width="123.2" x="264.55" y="1068.2955"/><text fill="#000000" font-family="sans-serif" font-size="15.4" lengthAdjust="spacing" textLength="107.8" x="272.25" y="1092.6137">:AgendaEntryUI</text><rect fill="#E3E3E3" height="35.8832" rx="2.75" ry="2.75" style="stroke:#181818;stroke-width:0.55;" width="226.6" x="468.05" y="1068.2955"/><text fill="#000000" font-family="sans-serif" font-size="15.4" lengthAdjust="spacing" textLength="211.2" x="475.75" y="1092.6137">:CancelAgendaEntryController</text><rect fill="#E3E3E3" height="35.8832" rx="2.75" ry="2.75" style="stroke:#181818;stroke-width:0.55;" width="106.7" x="705.65" y="55"/><text fill="#000000" font-family="sans-serif" font-size="15.4" lengthAdjust="spacing" textLength="91.3" x="713.35" y="79.3182">:Repositories</text><rect fill="#E3E3E3" height="35.8832" rx="2.75" ry="2.75" style="stroke:#181818;stroke-width:0.55;" width="106.7" x="705.65" y="1068.2955"/><text fill="#000000" font-family="sans-serif" font-size="15.4" lengthAdjust="spacing" textLength="91.3" x="713.35" y="1092.6137">:Repositories</text><rect fill="#E3E3E3" height="56.3664" rx="2.75" ry="2.75" style="stroke:#181818;stroke-width:0.55;" width="106.7" x="823.35" y="34.5168"/><text fill="#000000" font-family="sans-serif" font-size="15.4" lengthAdjust="spacing" textLength="81.4" x="836" y="58.835">repositories</text><text fill="#000000" font-family="sans-serif" font-size="15.4" lengthAdjust="spacing" textLength="91.3" x="831.05" y="79.3182">:Repositories</text><rect fill="#E3E3E3" height="56.3664" rx="2.75" ry="2.75" style="stroke:#181818;stroke-width:0.55;" width="106.7" x="823.35" y="1068.2955"/><text fill="#000000" font-family="sans-serif" font-size="15.4" lengthAdjust="spacing" textLength="81.4" x="836" y="1092.6137">repositories</text><text fill="#000000" font-family="sans-serif" font-size="15.4" lengthAdjust="spacing" textLength="91.3" x="831.05" y="1113.0969">:Repositories</text><rect fill="#E3E3E3" height="56.3664" rx="2.75" ry="2.75" style="stroke:#181818;stroke-width:0.55;" width="183.7" x="941.05" y="34.5168"/><text fill="#000000" font-family="sans-serif" font-size="15.4" lengthAdjust="spacing" textLength="168.3" x="948.75" y="58.835">agendaEntryRepository:</text><text fill="#000000" font-family="sans-serif" font-size="15.4" lengthAdjust="spacing" textLength="165" x="950.4" y="79.3182">AgendaEntryRepository</text><rect fill="#E3E3E3" height="56.3664" rx="2.75" ry="2.75" style="stroke:#181818;stroke-width:0.55;" width="183.7" x="941.05" y="1068.2955"/><text fill="#000000" font-family="sans-serif" font-size="15.4" lengthAdjust="spacing" textLength="168.3" x="948.75" y="1092.6137">agendaEntryRepository:</text><text fill="#000000" font-family="sans-serif" font-size="15.4" lengthAdjust="spacing" textLength="165" x="950.4" y="1113.0969">AgendaEntryRepository</text><rect fill="#E3E3E3" height="35.8832" rx="2.75" ry="2.75" style="stroke:#181818;stroke-width:0.55;" width="158.4" x="1135.75" y="1068.2955"/><text fill="#000000" font-family="sans-serif" font-size="15.4" lengthAdjust="spacing" textLength="143" x="1143.45" y="1092.6137">AgendaEntryMapper</text><rect fill="#E3E3E3" height="35.8832" rx="2.75" ry="2.75" style="stroke:#181818;stroke-width:0.55;" width="138.6" x="1522.95" y="1068.2955"/><text fill="#000000" font-family="sans-serif" font-size="15.4" lengthAdjust="spacing" textLength="123.2" x="1530.65" y="1092.6137">AgendaEntryDTO</text><rect fill="#E3E3E3" height="35.8832" rx="2.75" ry="2.75" style="stroke:#181818;stroke-width:0.55;" width="105.6" x="1672.55" y="55"/><text fill="#000000" font-family="sans-serif" font-size="15.4" lengthAdjust="spacing" textLength="90.2" x="1680.25" y="79.3182">AgendaEntry</text><rect fill="#E3E3E3" height="35.8832" rx="2.75" ry="2.75" style="stroke:#181818;stroke-width:0.55;" width="105.6" x="1672.55" y="1068.2955"/><text fill="#000000" font-family="sans-serif" font-size="15.4" lengthAdjust="spacing" textLength="90.2" x="1680.25" y="1092.6137">AgendaEntry</text><rect fill="#FFFFFF" height="946.6123" style="stroke:#181818;stroke-width:1.1;" width="11" x="20.35" y="102.9832"/><rect fill="#FFFFFF" height="920.9922" style="stroke:#181818;stroke-width:1.1;" width="11" x="320.65" y="128.6033"/><rect fill="#FFFFFF" height="479.3508" style="stroke:#181818;stroke-width:1.1;" width="11" x="575.85" y="174.0234"/><rect fill="#FFFFFF" height="239.5207" style="stroke:#181818;stroke-width:1.1;" width="11" x="575.85" y="775.6547"/><rect fill="#FFFFFF" height="34.4201" style="stroke:#181818;stroke-width:1.1;" width="11" x="753.5" y="258.9898"/><rect fill="#FFFFFF" height="34.4201" style="stroke:#181818;stroke-width:1.1;" width="11" x="871.2" y="327.8301"/><rect fill="#FFFFFF" height="34.4201" style="stroke:#181818;stroke-width:1.1;" width="11" x="1027.4" y="431.0904"/><rect fill="#FFFFFF" height="33" style="stroke:#181818;stroke-width:1.1;" width="11" x="1027.4" y="947.7553"/><rect fill="#FFFFFF" height="119.0234" style="stroke:#181818;stroke-width:1.1;" width="11" x="1209.45" y="499.9307"/><rect fill="#FFFFFF" height="103.2604" style="stroke:#181818;stroke-width:1.1;" width="11" x="1209.45" y="810.0748"/><rect fill="#FFFFFF" height="19.0631" style="stroke:#181818;stroke-width:1.1;" width="11" x="1586.75" y="574.2709"/><rect fill="#FFFFFF" height="68.8402" style="stroke:#181818;stroke-width:1.1;" width="11" x="1719.85" y="844.4949"/><polygon fill="#181818" points="307.45,124.2033,318.45,128.6033,307.45,133.0033,311.85,128.6033" style="stroke:#181818;stroke-width:1.1;"/><line style="stroke:#181818;stroke-width:1.1;" x1="31.35" x2="314.05" y1="128.6033" y2="128.6033"/><text fill="#000000" font-family="sans-serif" font-size="14.3" font-weight="bold" lengthAdjust="spacing" textLength="7.7" x="39.05" y="122.8144">1</text><text fill="#000000" font-family="sans-serif" font-size="14.3" lengthAdjust="spacing" textLength="246.4" x="51.15" y="122.8144">asks to cancel an entry on the Agenda</text><polygon fill="#181818" points="454.85,158.6234,465.85,163.0234,454.85,167.4234,459.25,163.0234" style="stroke:#181818;stroke-width:1.1;"/><line style="stroke:#181818;stroke-width:1.1;" x1="331.65" x2="461.45" y1="163.0234" y2="163.0234"/><text fill="#000000" font-family="sans-serif" font-size="14.3" font-weight="bold" lengthAdjust="spacing" textLength="7.7" x="339.35" y="157.2345">2</text><text fill="#000000" font-family="sans-serif" font-size="14.3" lengthAdjust="spacing" textLength="39.6" x="351.45" y="157.2345">create</text><rect fill="#E3E3E3" height="35.8832" rx="2.75" ry="2.75" style="stroke:#181818;stroke-width:0.55;" width="226.6" x="468.05" y="137.4033"/><text fill="#000000" font-family="sans-serif" font-size="15.4" lengthAdjust="spacing" textLength="211.2" x="475.75" y="161.7215">:CancelAgendaEntryController</text><polygon fill="#181818" points="1122.55,206.6066,1133.55,211.0066,1122.55,215.4066,1126.95,211.0066" style="stroke:#181818;stroke-width:1.1;"/><line style="stroke:#181818;stroke-width:1.1;" x1="586.85" x2="1129.15" y1="211.0066" y2="211.0066"/><text fill="#000000" font-family="sans-serif" font-size="14.3" font-weight="bold" lengthAdjust="spacing" textLength="7.7" x="594.55" y="205.2177">3</text><text fill="#000000" font-family="sans-serif" font-size="14.3" lengthAdjust="spacing" textLength="39.6" x="606.65" y="205.2177">create</text><rect fill="#E3E3E3" height="35.8832" rx="2.75" ry="2.75" style="stroke:#181818;stroke-width:0.55;" width="158.4" x="1135.75" y="185.3865"/><text fill="#000000" font-family="sans-serif" font-size="15.4" lengthAdjust="spacing" textLength="143" x="1143.45" y="209.7047">AgendaEntryMapper</text><polygon fill="#181818" points="740.3,254.5898,751.3,258.9898,740.3,263.3898,744.7,258.9898" style="stroke:#181818;stroke-width:1.1;"/><line style="stroke:#181818;stroke-width:1.1;" x1="586.85" x2="746.9" y1="258.9898" y2="258.9898"/><text fill="#000000" font-family="sans-serif" font-size="14.3" font-weight="bold" lengthAdjust="spacing" textLength="7.7" x="594.55" y="253.2009">4</text><text fill="#000000" font-family="sans-serif" font-size="14.3" lengthAdjust="spacing" textLength="82.5" x="606.65" y="253.2009">getInstance()</text><polygon fill="#181818" points="598.95,289.01,587.95,293.41,598.95,297.81,594.55,293.41" style="stroke:#181818;stroke-width:1.1;"/><line style="stroke:#181818;stroke-width:1.1;stroke-dasharray:2.0,2.0;" x1="592.35" x2="757.9" y1="293.41" y2="293.41"/><text fill="#000000" font-family="sans-serif" font-size="14.3" font-weight="bold" lengthAdjust="spacing" textLength="7.7" x="605.55" y="287.621">5</text><text fill="#000000" font-family="sans-serif" font-size="14.3" lengthAdjust="spacing" textLength="73.7" x="617.65" y="287.621">repositories</text><polygon fill="#181818" points="858,323.4301,869,327.8301,858,332.2301,862.4,327.8301" style="stroke:#181818;stroke-width:1.1;"/><line style="stroke:#181818;stroke-width:1.1;" x1="586.85" x2="864.6" y1="327.8301" y2="327.8301"/><text fill="#000000" font-family="sans-serif" font-size="14.3" font-weight="bold" lengthAdjust="spacing" textLength="7.7" x="594.55" y="322.0411">6</text><text fill="#000000" font-family="sans-serif" font-size="14.3" lengthAdjust="spacing" textLength="179.3" x="606.65" y="322.0411">getAgendaEntryRepository()</text><polygon fill="#181818" points="598.95,357.8502,587.95,362.2502,598.95,366.6502,594.55,362.2502" style="stroke:#181818;stroke-width:1.1;"/><line style="stroke:#181818;stroke-width:1.1;stroke-dasharray:2.0,2.0;" x1="592.35" x2="875.6" y1="362.2502" y2="362.2502"/><text fill="#000000" font-family="sans-serif" font-size="14.3" font-weight="bold" lengthAdjust="spacing" textLength="7.7" x="605.55" y="356.4612">7</text><text fill="#000000" font-family="sans-serif" font-size="14.3" lengthAdjust="spacing" textLength="159.5" x="617.65" y="356.4612">AgendaEntryRepository()</text><polygon fill="#181818" points="562.65,392.2703,573.65,396.6703,562.65,401.0703,567.05,396.6703" style="stroke:#181818;stroke-width:1.1;"/><line style="stroke:#181818;stroke-width:1.1;" x1="331.65" x2="569.25" y1="396.6703" y2="396.6703"/><text fill="#000000" font-family="sans-serif" font-size="14.3" font-weight="bold" lengthAdjust="spacing" textLength="7.7" x="339.35" y="390.8813">8</text><text fill="#000000" font-family="sans-serif" font-size="14.3" lengthAdjust="spacing" textLength="162.8" x="351.45" y="390.8813">getAgendaEntryDTOList()</text><polygon fill="#181818" points="1014.2,426.6904,1025.2,431.0904,1014.2,435.4904,1018.6,431.0904" style="stroke:#181818;stroke-width:1.1;"/><line style="stroke:#181818;stroke-width:1.1;" x1="586.85" x2="1020.8" y1="431.0904" y2="431.0904"/><text fill="#000000" font-family="sans-serif" font-size="14.3" font-weight="bold" lengthAdjust="spacing" textLength="7.7" x="594.55" y="425.3015">9</text><text fill="#000000" font-family="sans-serif" font-size="14.3" lengthAdjust="spacing" textLength="134.2" x="606.65" y="425.3015">getAgendaEntryList()</text><polygon fill="#181818" points="598.95,461.1105,587.95,465.5105,598.95,469.9105,594.55,465.5105" style="stroke:#181818;stroke-width:1.1;"/><line style="stroke:#181818;stroke-width:1.1;stroke-dasharray:2.0,2.0;" x1="592.35" x2="1031.8" y1="465.5105" y2="465.5105"/><text fill="#000000" font-family="sans-serif" font-size="14.3" font-weight="bold" lengthAdjust="spacing" textLength="15.4" x="605.55" y="459.7216">10</text><text fill="#000000" font-family="sans-serif" font-size="14.3" lengthAdjust="spacing" textLength="103.4" x="625.35" y="459.7216">agendaEntryList</text><polygon fill="#181818" points="1196.25,495.5307,1207.25,499.9307,1196.25,504.3307,1200.65,499.9307" style="stroke:#181818;stroke-width:1.1;"/><line style="stroke:#181818;stroke-width:1.1;" x1="586.85" x2="1202.85" y1="499.9307" y2="499.9307"/><text fill="#000000" font-family="sans-serif" font-size="14.3" font-weight="bold" lengthAdjust="spacing" textLength="15.4" x="594.55" y="494.1417">11</text><text fill="#000000" font-family="sans-serif" font-size="14.3" lengthAdjust="spacing" textLength="169.4" x="614.35" y="494.1417">toDtoList(agendaEntryList)</text><path d="M1124.75,516.4307 L1205.05,516.4307 L1205.05,526.6508 L1194.05,537.6508 L1124.75,537.6508 L1124.75,516.4307 " fill="#EEEEEE" style="stroke:#000000;stroke-width:1.6500000000000001;"/><rect fill="none" height="69.2033" style="stroke:#000000;stroke-width:1.6500000000000001;" width="547.8" x="1124.75" y="516.4307"/><text fill="#000000" font-family="sans-serif" font-size="14.3" font-weight="bold" lengthAdjust="spacing" textLength="30.8" x="1141.25" y="532.9618">loop</text><text fill="#000000" font-family="sans-serif" font-size="12.1" font-weight="bold" lengthAdjust="spacing" textLength="251.9" x="1221.55" y="531.6878">[for each agendaEntry in agendaEntryList]</text><polygon fill="#181818" points="1509.75,558.8709,1520.75,563.2709,1509.75,567.6709,1514.15,563.2709" style="stroke:#181818;stroke-width:1.1;"/><line style="stroke:#181818;stroke-width:1.1;" x1="1220.45" x2="1516.35" y1="563.2709" y2="563.2709"/><text fill="#000000" font-family="sans-serif" font-size="14.3" font-weight="bold" lengthAdjust="spacing" textLength="15.4" x="1228.15" y="557.4819">12</text><text fill="#000000" font-family="sans-serif" font-size="14.3" lengthAdjust="spacing" textLength="256.3" x="1247.95" y="557.4819">agendaEntryDTO = toDTO(agendaEntry)</text><rect fill="#E3E3E3" height="35.8832" rx="2.75" ry="2.75" style="stroke:#181818;stroke-width:0.55;" width="138.6" x="1522.95" y="537.6508"/><text fill="#000000" font-family="sans-serif" font-size="15.4" lengthAdjust="spacing" textLength="123.2" x="1530.65" y="561.9689">AgendaEntryDTO</text><polygon fill="#181818" points="598.95,614.5541,587.95,618.9541,598.95,623.3541,594.55,618.9541" style="stroke:#181818;stroke-width:1.1;"/><line style="stroke:#181818;stroke-width:1.1;stroke-dasharray:2.0,2.0;" x1="592.35" x2="1213.85" y1="618.9541" y2="618.9541"/><text fill="#000000" font-family="sans-serif" font-size="14.3" font-weight="bold" lengthAdjust="spacing" textLength="15.4" x="605.55" y="613.1651">13</text><text fill="#000000" font-family="sans-serif" font-size="14.3" lengthAdjust="spacing" textLength="132" x="625.35" y="613.1651">agendaEntryDTOList</text><polygon fill="#181818" points="343.75,648.9742,332.75,653.3742,343.75,657.7742,339.35,653.3742" style="stroke:#181818;stroke-width:1.1;"/><line style="stroke:#181818;stroke-width:1.1;stroke-dasharray:2.0,2.0;" x1="337.15" x2="580.25" y1="653.3742" y2="653.3742"/><text fill="#000000" font-family="sans-serif" font-size="14.3" font-weight="bold" lengthAdjust="spacing" textLength="15.4" x="350.35" y="647.5853">14</text><text fill="#000000" font-family="sans-serif" font-size="14.3" lengthAdjust="spacing" textLength="132" x="370.15" y="647.5853">agendaEntryDTOList</text><polygon fill="#181818" points="43.45,702.4145,32.45,706.8145,43.45,711.2145,39.05,706.8145" style="stroke:#181818;stroke-width:1.1;"/><line style="stroke:#181818;stroke-width:1.1;stroke-dasharray:2.0,2.0;" x1="36.85" x2="319.55" y1="706.8145" y2="706.8145"/><text fill="#000000" font-family="sans-serif" font-size="14.3" font-weight="bold" lengthAdjust="spacing" textLength="15.4" x="50.05" y="691.5154">15</text><text fill="#000000" font-family="sans-serif" font-size="14.3" lengthAdjust="spacing" textLength="243.1" x="69.85" y="682.0054">shows the list of entries in the Agenda</text><text fill="#000000" font-family="sans-serif" font-size="14.3" lengthAdjust="spacing" textLength="145.2" x="74.25" y="701.0255">and asks to select one</text><polygon fill="#181818" points="307.45,736.8346,318.45,741.2346,307.45,745.6346,311.85,741.2346" style="stroke:#181818;stroke-width:1.1;"/><line style="stroke:#181818;stroke-width:1.1;" x1="31.35" x2="314.05" y1="741.2346" y2="741.2346"/><text fill="#000000" font-family="sans-serif" font-size="14.3" font-weight="bold" lengthAdjust="spacing" textLength="15.4" x="39.05" y="735.4456">16</text><text fill="#000000" font-family="sans-serif" font-size="14.3" lengthAdjust="spacing" textLength="102.3" x="58.85" y="735.4456">selects an entry</text><polygon fill="#181818" points="562.65,771.2547,573.65,775.6547,562.65,780.0547,567.05,775.6547" style="stroke:#181818;stroke-width:1.1;"/><line style="stroke:#181818;stroke-width:1.1;" x1="331.65" x2="569.25" y1="775.6547" y2="775.6547"/><text fill="#000000" font-family="sans-serif" font-size="14.3" font-weight="bold" lengthAdjust="spacing" textLength="15.4" x="339.35" y="769.8657">17</text><text fill="#000000" font-family="sans-serif" font-size="14.3" lengthAdjust="spacing" textLength="203.5" x="359.15" y="769.8657">cancelsEntry(AgendaEntryDTO)</text><polygon fill="#181818" points="1196.25,805.6748,1207.25,810.0748,1196.25,814.4748,1200.65,810.0748" style="stroke:#181818;stroke-width:1.1;"/><line style="stroke:#181818;stroke-width:1.1;" x1="586.85" x2="1202.85" y1="810.0748" y2="810.0748"/><text fill="#000000" font-family="sans-serif" font-size="14.3" font-weight="bold" lengthAdjust="spacing" textLength="15.4" x="594.55" y="804.2858">18</text><text fill="#000000" font-family="sans-serif" font-size="14.3" lengthAdjust="spacing" textLength="167.2" x="614.35" y="804.2858">toEntity(agendaEntryDTO)</text><polygon fill="#181818" points="1706.65,840.0949,1717.65,844.4949,1706.65,848.8949,1711.05,844.4949" style="stroke:#181818;stroke-width:1.1;"/><line style="stroke:#181818;stroke-width:1.1;" x1="1220.45" x2="1713.25" y1="844.4949" y2="844.4949"/><text fill="#000000" font-family="sans-serif" font-size="14.3" font-weight="bold" lengthAdjust="spacing" textLength="15.4" x="1228.15" y="838.706">19</text><text fill="#000000" font-family="sans-serif" font-size="14.3" lengthAdjust="spacing" textLength="265.1" x="1247.95" y="838.706">agendaEntry = toEntity(agendaEntryDTO)</text><polygon fill="#181818" points="1232.55,874.515,1221.55,878.915,1232.55,883.315,1228.15,878.915" style="stroke:#181818;stroke-width:1.1;"/><line style="stroke:#181818;stroke-width:1.1;stroke-dasharray:2.0,2.0;" x1="1225.95" x2="1718.75" y1="878.915" y2="878.915"/><text fill="#000000" font-family="sans-serif" font-size="14.3" font-weight="bold" lengthAdjust="spacing" textLength="15.4" x="1239.15" y="873.1261">20</text><text fill="#000000" font-family="sans-serif" font-size="14.3" lengthAdjust="spacing" textLength="80.3" x="1258.95" y="873.1261">agendaEntry</text><polygon fill="#181818" points="598.95,908.9352,587.95,913.3352,598.95,917.7352,594.55,913.3352" style="stroke:#181818;stroke-width:1.1;"/><line style="stroke:#181818;stroke-width:1.1;stroke-dasharray:2.0,2.0;" x1="592.35" x2="1213.85" y1="913.3352" y2="913.3352"/><text fill="#000000" font-family="sans-serif" font-size="14.3" font-weight="bold" lengthAdjust="spacing" textLength="15.4" x="605.55" y="907.5462">21</text><text fill="#000000" font-family="sans-serif" font-size="14.3" lengthAdjust="spacing" textLength="80.3" x="625.35" y="907.5462">agendaEntry</text><polygon fill="#181818" points="1014.2,943.3553,1025.2,947.7553,1014.2,952.1553,1018.6,947.7553" style="stroke:#181818;stroke-width:1.1;"/><line style="stroke:#181818;stroke-width:1.1;" x1="586.85" x2="1020.8" y1="947.7553" y2="947.7553"/><text fill="#000000" font-family="sans-serif" font-size="14.3" font-weight="bold" lengthAdjust="spacing" textLength="15.4" x="594.55" y="941.9663">22</text><text fill="#000000" font-family="sans-serif" font-size="14.3" lengthAdjust="spacing" textLength="180.4" x="614.35" y="941.9663">update(agendaEntry, status)</text><polygon fill="#181818" points="343.75,1010.7754,332.75,1015.1754,343.75,1019.5754,339.35,1015.1754" style="stroke:#181818;stroke-width:1.1;"/><line style="stroke:#181818;stroke-width:1.1;stroke-dasharray:2.0,2.0;" x1="337.15" x2="580.25" y1="1015.1754" y2="1015.1754"/><text fill="#000000" font-family="sans-serif" font-size="14.3" font-weight="bold" lengthAdjust="spacing" textLength="15.4" x="350.35" y="1009.3864">23</text><text fill="#000000" font-family="sans-serif" font-size="14.3" lengthAdjust="spacing" textLength="123.2" x="370.15" y="1009.3864">success/insuccess</text><polygon fill="#181818" points="37.95,1045.1955,26.95,1049.5955,37.95,1053.9955,33.55,1049.5955" style="stroke:#181818;stroke-width:1.1;"/><line style="stroke:#181818;stroke-width:1.1;stroke-dasharray:2.0,2.0;" x1="31.35" x2="325.05" y1="1049.5955" y2="1049.5955"/><text fill="#000000" font-family="sans-serif" font-size="14.3" font-weight="bold" lengthAdjust="spacing" textLength="15.4" x="44.55" y="1043.8065">24</text><text fill="#000000" font-family="sans-serif" font-size="14.3" lengthAdjust="spacing" textLength="181.5" x="64.35" y="1043.8065">shows (in)success message</text><!--SRC=[hLPDZzem4BtxLunoAQowwZrIAo6sgf1ORRN0ZOitCM0Hx2XskkNVTsoYuE19WhRBWGzxviqyl_4BvYXLoIj-WfDMEZjK-YJ0LhLWfjqfUNRaUx6ovq909JBBrRu80yo1v_fTgZtiU644OxosMjMdDr4nzkKWSm4xhUsR_ijuPdK5oQ_LSmBS07uonB0oaoLN5f9qjXSgvp-LhSwRXO_PB6v2vbnbeWW2vnhVTL68oYVCrw_BcvHNKMeZiRGKniUq2-ULT6omtsvA5MHiLGpmUpbRTpFujQ4hUhfLCsgzRQAB4SG-yx94GhtxJ-kN_is4CNVKyW-tmXyoWviNBiBZ3pnSIB6Lem6h8VC72ro1S22W5TY3W0jk3D4MG8MYJGH6U2V5mmEMo2g1aVqGNhFRNRU88CIfX9YCaOckFA4ovks5NIXZ7Td9jBybQaIYQFUYgZmsv5C81obApyLmkLvcRlmkLCZn6kBb9vSaua6ldT-B792WiJUB5hFRCCxmKXgBcCCQHaoRh47jOaWFTUN7ktXZuh2XIIDc59ks-ibgt-jDhO7MAGyWv2gqBj5LAy0c3o4La2fY5gTJ_TxGS0RZxndlhC5tHslz4bAQKlD4ClAk5SVY_j3nHmZiBZwDqX65CRL92O2MllNGyGfX2Uztn44usqH8vyufFbVrk_4MN20Uw9ttPVGHf_7LcRSekCfR5pUYm6SqchUWvWQHVSjf4sTQkoU2WujxUJOOJt3IbMFwQRQUMeq_fJrF-BqLAAq-Ckr9Hq8_v7UsGlT2T17ieiOK_R05qcw898IAxEpUuKx- -nOqMZf_JA4kSqmC3-mhu7FMrcRAHhpwWmr75ZryIKsTPSAORr8rtzZO5Hs_dXEffWqQdF0DsRD-KFTNQM3R_LNx1m00]--></g></svg>