<?xml version="1.0" encoding="us-ascii" standalone="no"?><svg xmlns="http://www.w3.org/2000/svg" xmlns:xlink="http://www.w3.org/1999/xlink" contentStyleType="text/css" height="1074px" preserveAspectRatio="none" style="width:1559px;height:1074px;background:#FFFFFF;" version="1.1" viewBox="0 0 1559 1074" width="1559px" zoomAndPan="magnify"><defs/><g><rect fill="#FFFFFF" height="879.5176" style="stroke:#181818;stroke-width:1.0;" width="10" x="18.5" y="93.6211"/><rect fill="#FFFFFF" height="856.2266" style="stroke:#181818;stroke-width:1.0;" width="10" x="291.5" y="116.9121"/><rect fill="#FFFFFF" height="423.4434" style="stroke:#181818;stroke-width:1.0;" width="10" x="523.5" y="158.2031"/><rect fill="#FFFFFF" height="249.0371" style="stroke:#181818;stroke-width:1.0;" width="10" x="523.5" y="692.8105"/><rect fill="#FFFFFF" height="31.291" style="stroke:#181818;stroke-width:1.0;" width="10" x="685" y="235.4453"/><rect fill="#FFFFFF" height="31.291" style="stroke:#181818;stroke-width:1.0;" width="10" x="792" y="298.0273"/><rect fill="#FFFFFF" height="31.291" style="stroke:#181818;stroke-width:1.0;" width="10" x="934" y="391.9004"/><rect fill="#FFFFFF" height="30" style="stroke:#181818;stroke-width:1.0;" width="10" x="934" y="880.5566"/><rect fill="#FFFFFF" height="95.873" style="stroke:#181818;stroke-width:1.0;" width="10" x="1099.5" y="454.4824"/><rect fill="#FFFFFF" height="93.873" style="stroke:#181818;stroke-width:1.0;" width="10" x="1099.5" y="724.1016"/><rect fill="#FFFFFF" height="15" style="stroke:#181818;stroke-width:1.0;" width="10" x="1379.5" y="512.0645"/><rect fill="#FFFFFF" height="62.582" style="stroke:#181818;stroke-width:1.0;" width="10" x="1500.5" y="755.3926"/><rect fill="none" height="50.582" style="stroke:#000000;stroke-width:1.5;" width="435" x="1022.5" y="469.4824"/><line style="stroke:#181818;stroke-width:0.5;stroke-dasharray:5.0,5.0;" x1="23" x2="23" y1="83.6211" y2="991.1387"/><line style="stroke:#181818;stroke-width:0.5;stroke-dasharray:5.0,5.0;" x1="296.5" x2="296.5" y1="83.6211" y2="991.1387"/><line style="stroke:#181818;stroke-width:0.5;stroke-dasharray:5.0,5.0;" x1="528.5" x2="528.5" y1="156.7227" y2="991.1387"/><line style="stroke:#181818;stroke-width:0.5;stroke-dasharray:5.0,5.0;" x1="689.5" x2="689.5" y1="83.6211" y2="991.1387"/><line style="stroke:#181818;stroke-width:0.5;stroke-dasharray:5.0,5.0;" x1="796.5" x2="796.5" y1="83.6211" y2="991.1387"/><line style="stroke:#181818;stroke-width:0.5;stroke-dasharray:5.0,5.0;" x1="938.5" x2="938.5" y1="83.6211" y2="991.1387"/><line style="stroke:#181818;stroke-width:0.5;stroke-dasharray:5.0,5.0;" x1="1104.5" x2="1104.5" y1="200.3438" y2="991.1387"/><line style="stroke:#181818;stroke-width:0.5;stroke-dasharray:5.0,5.0;" x1="1384.5" x2="1384.5" y1="83.6211" y2="991.1387"/><line style="stroke:#181818;stroke-width:0.5;stroke-dasharray:5.0,5.0;" x1="1505.5" x2="1505.5" y1="83.6211" y2="991.1387"/><text fill="#000000" font-family="sans-serif" font-size="14" lengthAdjust="spacing" textLength="31" x="5" y="80.1074">GSM</text><ellipse cx="23.5" cy="13.5" fill="#E3E3E3" rx="8" ry="8" style="stroke:#181818;stroke-width:0.5;"/><path d="M23.5,21.5 L23.5,48.5 M10.5,29.5 L36.5,29.5 M23.5,48.5 L10.5,63.5 M23.5,48.5 L36.5,63.5 " fill="none" style="stroke:#181818;stroke-width:0.5;"/><text fill="#000000" font-family="sans-serif" font-size="14" lengthAdjust="spacing" textLength="31" x="5" y="1005.2461">GSM</text><ellipse cx="23.5" cy="1017.2598" fill="#E3E3E3" rx="8" ry="8" style="stroke:#181818;stroke-width:0.5;"/><path d="M23.5,1025.2598 L23.5,1052.2598 M10.5,1033.2598 L36.5,1033.2598 M23.5,1052.2598 L10.5,1067.2598 M23.5,1052.2598 L36.5,1067.2598 " fill="none" style="stroke:#181818;stroke-width:0.5;"/><rect fill="#E3E3E3" height="32.6211" rx="2.5" ry="2.5" style="stroke:#181818;stroke-width:0.5;" width="112" x="240.5" y="50"/><text fill="#000000" font-family="sans-serif" font-size="14" lengthAdjust="spacing" textLength="98" x="247.5" y="72.1074">:AgendaEntryUI</text><rect fill="#E3E3E3" height="32.6211" rx="2.5" ry="2.5" style="stroke:#181818;stroke-width:0.5;" width="112" x="240.5" y="990.1387"/><text fill="#000000" font-family="sans-serif" font-size="14" lengthAdjust="spacing" textLength="98" x="247.5" y="1012.2461">:AgendaEntryUI</text><rect fill="#E3E3E3" height="32.6211" rx="2.5" ry="2.5" style="stroke:#181818;stroke-width:0.5;" width="206" x="425.5" y="990.1387"/><text fill="#000000" font-family="sans-serif" font-size="14" lengthAdjust="spacing" textLength="192" x="432.5" y="1012.2461">:CancelAgendaEntryController</text><rect fill="#E3E3E3" height="32.6211" rx="2.5" ry="2.5" style="stroke:#181818;stroke-width:0.5;" width="97" x="641.5" y="50"/><text fill="#000000" font-family="sans-serif" font-size="14" lengthAdjust="spacing" textLength="83" x="648.5" y="72.1074">:Repositories</text><rect fill="#E3E3E3" height="32.6211" rx="2.5" ry="2.5" style="stroke:#181818;stroke-width:0.5;" width="97" x="641.5" y="990.1387"/><text fill="#000000" font-family="sans-serif" font-size="14" lengthAdjust="spacing" textLength="83" x="648.5" y="1012.2461">:Repositories</text><rect fill="#E3E3E3" height="51.2422" rx="2.5" ry="2.5" style="stroke:#181818;stroke-width:0.5;" width="97" x="748.5" y="31.3789"/><text fill="#000000" font-family="sans-serif" font-size="14" lengthAdjust="spacing" textLength="74" x="760" y="53.4863">repositories</text><text fill="#000000" font-family="sans-serif" font-size="14" lengthAdjust="spacing" textLength="83" x="755.5" y="72.1074">:Repositories</text><rect fill="#E3E3E3" height="51.2422" rx="2.5" ry="2.5" style="stroke:#181818;stroke-width:0.5;" width="97" x="748.5" y="990.1387"/><text fill="#000000" font-family="sans-serif" font-size="14" lengthAdjust="spacing" textLength="74" x="760" y="1012.2461">repositories</text><text fill="#000000" font-family="sans-serif" font-size="14" lengthAdjust="spacing" textLength="83" x="755.5" y="1030.8672">:Repositories</text><rect fill="#E3E3E3" height="51.2422" rx="2.5" ry="2.5" style="stroke:#181818;stroke-width:0.5;" width="167" x="855.5" y="31.3789"/><text fill="#000000" font-family="sans-serif" font-size="14" lengthAdjust="spacing" textLength="153" x="862.5" y="53.4863">agendaEntryRepository:</text><text fill="#000000" font-family="sans-serif" font-size="14" lengthAdjust="spacing" textLength="150" x="864" y="72.1074">AgendaEntryRepository</text><rect fill="#E3E3E3" height="51.2422" rx="2.5" ry="2.5" style="stroke:#181818;stroke-width:0.5;" width="167" x="855.5" y="990.1387"/><text fill="#000000" font-family="sans-serif" font-size="14" lengthAdjust="spacing" textLength="153" x="862.5" y="1012.2461">agendaEntryRepository:</text><text fill="#000000" font-family="sans-serif" font-size="14" lengthAdjust="spacing" textLength="150" x="864" y="1030.8672">AgendaEntryRepository</text><rect fill="#E3E3E3" height="32.6211" rx="2.5" ry="2.5" style="stroke:#181818;stroke-width:0.5;" width="144" x="1032.5" y="990.1387"/><text fill="#000000" font-family="sans-serif" font-size="14" lengthAdjust="spacing" textLength="130" x="1039.5" y="1012.2461">AgendaEntryMapper</text><rect fill="#E3E3E3" height="32.6211" rx="2.5" ry="2.5" style="stroke:#181818;stroke-width:0.5;" width="126" x="1321.5" y="50"/><text fill="#000000" font-family="sans-serif" font-size="14" lengthAdjust="spacing" textLength="112" x="1328.5" y="72.1074">AgendaEntryDTO</text><rect fill="#E3E3E3" height="32.6211" rx="2.5" ry="2.5" style="stroke:#181818;stroke-width:0.5;" width="126" x="1321.5" y="990.1387"/><text fill="#000000" font-family="sans-serif" font-size="14" lengthAdjust="spacing" textLength="112" x="1328.5" y="1012.2461">AgendaEntryDTO</text><rect fill="#E3E3E3" height="32.6211" rx="2.5" ry="2.5" style="stroke:#181818;stroke-width:0.5;" width="96" x="1457.5" y="50"/><text fill="#000000" font-family="sans-serif" font-size="14" lengthAdjust="spacing" textLength="82" x="1464.5" y="72.1074">AgendaEntry</text><rect fill="#E3E3E3" height="32.6211" rx="2.5" ry="2.5" style="stroke:#181818;stroke-width:0.5;" width="96" x="1457.5" y="990.1387"/><text fill="#000000" font-family="sans-serif" font-size="14" lengthAdjust="spacing" textLength="82" x="1464.5" y="1012.2461">AgendaEntry</text><rect fill="#FFFFFF" height="879.5176" style="stroke:#181818;stroke-width:1.0;" width="10" x="18.5" y="93.6211"/><rect fill="#FFFFFF" height="856.2266" style="stroke:#181818;stroke-width:1.0;" width="10" x="291.5" y="116.9121"/><rect fill="#FFFFFF" height="423.4434" style="stroke:#181818;stroke-width:1.0;" width="10" x="523.5" y="158.2031"/><rect fill="#FFFFFF" height="249.0371" style="stroke:#181818;stroke-width:1.0;" width="10" x="523.5" y="692.8105"/><rect fill="#FFFFFF" height="31.291" style="stroke:#181818;stroke-width:1.0;" width="10" x="685" y="235.4453"/><rect fill="#FFFFFF" height="31.291" style="stroke:#181818;stroke-width:1.0;" width="10" x="792" y="298.0273"/><rect fill="#FFFFFF" height="31.291" style="stroke:#181818;stroke-width:1.0;" width="10" x="934" y="391.9004"/><rect fill="#FFFFFF" height="30" style="stroke:#181818;stroke-width:1.0;" width="10" x="934" y="880.5566"/><rect fill="#FFFFFF" height="95.873" style="stroke:#181818;stroke-width:1.0;" width="10" x="1099.5" y="454.4824"/><rect fill="#FFFFFF" height="93.873" style="stroke:#181818;stroke-width:1.0;" width="10" x="1099.5" y="724.1016"/><rect fill="#FFFFFF" height="15" style="stroke:#181818;stroke-width:1.0;" width="10" x="1379.5" y="512.0645"/><rect fill="#FFFFFF" height="62.582" style="stroke:#181818;stroke-width:1.0;" width="10" x="1500.5" y="755.3926"/><polygon fill="#181818" points="279.5,112.9121,289.5,116.9121,279.5,120.9121,283.5,116.9121" style="stroke:#181818;stroke-width:1.0;"/><line style="stroke:#181818;stroke-width:1.0;" x1="28.5" x2="285.5" y1="116.9121" y2="116.9121"/><text fill="#000000" font-family="sans-serif" font-size="13" font-weight="bold" lengthAdjust="spacing" textLength="7" x="35.5" y="111.6494">1</text><text fill="#000000" font-family="sans-serif" font-size="13" lengthAdjust="spacing" textLength="224" x="46.5" y="111.6494">asks to cancel an entry on the Agenda</text><polygon fill="#181818" points="413.5,144.2031,423.5,148.2031,413.5,152.2031,417.5,148.2031" style="stroke:#181818;stroke-width:1.0;"/><line style="stroke:#181818;stroke-width:1.0;" x1="301.5" x2="419.5" y1="148.2031" y2="148.2031"/><text fill="#000000" font-family="sans-serif" font-size="13" font-weight="bold" lengthAdjust="spacing" textLength="7" x="308.5" y="142.9404">2</text><text fill="#000000" font-family="sans-serif" font-size="13" lengthAdjust="spacing" textLength="36" x="319.5" y="142.9404">create</text><rect fill="#E3E3E3" height="32.6211" rx="2.5" ry="2.5" style="stroke:#181818;stroke-width:0.5;" width="206" x="425.5" y="124.9121"/><text fill="#000000" font-family="sans-serif" font-size="14" lengthAdjust="spacing" textLength="192" x="432.5" y="147.0195">:CancelAgendaEntryController</text><polygon fill="#181818" points="1020.5,187.8242,1030.5,191.8242,1020.5,195.8242,1024.5,191.8242" style="stroke:#181818;stroke-width:1.0;"/><line style="stroke:#181818;stroke-width:1.0;" x1="533.5" x2="1026.5" y1="191.8242" y2="191.8242"/><text fill="#000000" font-family="sans-serif" font-size="13" font-weight="bold" lengthAdjust="spacing" textLength="7" x="540.5" y="186.5615">3</text><text fill="#000000" font-family="sans-serif" font-size="13" lengthAdjust="spacing" textLength="36" x="551.5" y="186.5615">create</text><rect fill="#E3E3E3" height="32.6211" rx="2.5" ry="2.5" style="stroke:#181818;stroke-width:0.5;" width="144" x="1032.5" y="168.5332"/><text fill="#000000" font-family="sans-serif" font-size="14" lengthAdjust="spacing" textLength="130" x="1039.5" y="190.6406">AgendaEntryMapper</text><polygon fill="#181818" points="673,231.4453,683,235.4453,673,239.4453,677,235.4453" style="stroke:#181818;stroke-width:1.0;"/><line style="stroke:#181818;stroke-width:1.0;" x1="533.5" x2="679" y1="235.4453" y2="235.4453"/><text fill="#000000" font-family="sans-serif" font-size="13" font-weight="bold" lengthAdjust="spacing" textLength="7" x="540.5" y="230.1826">4</text><text fill="#000000" font-family="sans-serif" font-size="13" lengthAdjust="spacing" textLength="75" x="551.5" y="230.1826">getInstance()</text><polygon fill="#181818" points="544.5,262.7363,534.5,266.7363,544.5,270.7363,540.5,266.7363" style="stroke:#181818;stroke-width:1.0;"/><line style="stroke:#181818;stroke-width:1.0;stroke-dasharray:2.0,2.0;" x1="538.5" x2="689" y1="266.7363" y2="266.7363"/><text fill="#000000" font-family="sans-serif" font-size="13" font-weight="bold" lengthAdjust="spacing" textLength="7" x="550.5" y="261.4736">5</text><text fill="#000000" font-family="sans-serif" font-size="13" lengthAdjust="spacing" textLength="67" x="561.5" y="261.4736">repositories</text><polygon fill="#181818" points="780,294.0273,790,298.0273,780,302.0273,784,298.0273" style="stroke:#181818;stroke-width:1.0;"/><line style="stroke:#181818;stroke-width:1.0;" x1="533.5" x2="786" y1="298.0273" y2="298.0273"/><text fill="#000000" font-family="sans-serif" font-size="13" font-weight="bold" lengthAdjust="spacing" textLength="7" x="540.5" y="292.7646">6</text><text fill="#000000" font-family="sans-serif" font-size="13" lengthAdjust="spacing" textLength="163" x="551.5" y="292.7646">getAgendaEntryRepository()</text><polygon fill="#181818" points="544.5,325.3184,534.5,329.3184,544.5,333.3184,540.5,329.3184" style="stroke:#181818;stroke-width:1.0;"/><line style="stroke:#181818;stroke-width:1.0;stroke-dasharray:2.0,2.0;" x1="538.5" x2="796" y1="329.3184" y2="329.3184"/><text fill="#000000" font-family="sans-serif" font-size="13" font-weight="bold" lengthAdjust="spacing" textLength="7" x="550.5" y="324.0557">7</text><text fill="#000000" font-family="sans-serif" font-size="13" lengthAdjust="spacing" textLength="145" x="561.5" y="324.0557">AgendaEntryRepository()</text><polygon fill="#181818" points="511.5,356.6094,521.5,360.6094,511.5,364.6094,515.5,360.6094" style="stroke:#181818;stroke-width:1.0;"/><line style="stroke:#181818;stroke-width:1.0;" x1="301.5" x2="517.5" y1="360.6094" y2="360.6094"/><text fill="#000000" font-family="sans-serif" font-size="13" font-weight="bold" lengthAdjust="spacing" textLength="7" x="308.5" y="355.3467">8</text><text fill="#000000" font-family="sans-serif" font-size="13" lengthAdjust="spacing" textLength="148" x="319.5" y="355.3467">getAgendaEntryDTOList()</text><polygon fill="#181818" points="922,387.9004,932,391.9004,922,395.9004,926,391.9004" style="stroke:#181818;stroke-width:1.0;"/><line style="stroke:#181818;stroke-width:1.0;" x1="533.5" x2="928" y1="391.9004" y2="391.9004"/><text fill="#000000" font-family="sans-serif" font-size="13" font-weight="bold" lengthAdjust="spacing" textLength="7" x="540.5" y="386.6377">9</text><text fill="#000000" font-family="sans-serif" font-size="13" lengthAdjust="spacing" textLength="122" x="551.5" y="386.6377">getAgendaEntryList()</text><polygon fill="#181818" points="544.5,419.1914,534.5,423.1914,544.5,427.1914,540.5,423.1914" style="stroke:#181818;stroke-width:1.0;"/><line style="stroke:#181818;stroke-width:1.0;stroke-dasharray:2.0,2.0;" x1="538.5" x2="938" y1="423.1914" y2="423.1914"/><text fill="#000000" font-family="sans-serif" font-size="13" font-weight="bold" lengthAdjust="spacing" textLength="14" x="550.5" y="417.9287">10</text><text fill="#000000" font-family="sans-serif" font-size="13" lengthAdjust="spacing" textLength="94" x="568.5" y="417.9287">agendaEntryList</text><polygon fill="#181818" points="1087.5,450.4824,1097.5,454.4824,1087.5,458.4824,1091.5,454.4824" style="stroke:#181818;stroke-width:1.0;"/><line style="stroke:#181818;stroke-width:1.0;" x1="533.5" x2="1093.5" y1="454.4824" y2="454.4824"/><text fill="#000000" font-family="sans-serif" font-size="13" font-weight="bold" lengthAdjust="spacing" textLength="14" x="540.5" y="449.2197">11</text><text fill="#000000" font-family="sans-serif" font-size="13" lengthAdjust="spacing" textLength="154" x="558.5" y="449.2197">toDtoList(agendaEntryList)</text><path d="M1022.5,469.4824 L1095.5,469.4824 L1095.5,478.7734 L1085.5,488.7734 L1022.5,488.7734 L1022.5,469.4824 " fill="#EEEEEE" style="stroke:#000000;stroke-width:1.5;"/><rect fill="none" height="50.582" style="stroke:#000000;stroke-width:1.5;" width="435" x="1022.5" y="469.4824"/><text fill="#000000" font-family="sans-serif" font-size="13" font-weight="bold" lengthAdjust="spacing" textLength="28" x="1037.5" y="484.5107">loop</text><text fill="#000000" font-family="sans-serif" font-size="11" font-weight="bold" lengthAdjust="spacing" textLength="229" x="1110.5" y="483.3525">[for each agendaEntry in agendaEntryList]</text><polygon fill="#181818" points="1367.5,508.0645,1377.5,512.0645,1367.5,516.0645,1371.5,512.0645" style="stroke:#181818;stroke-width:1.0;"/><line style="stroke:#181818;stroke-width:1.0;" x1="1109.5" x2="1373.5" y1="512.0645" y2="512.0645"/><text fill="#000000" font-family="sans-serif" font-size="13" font-weight="bold" lengthAdjust="spacing" textLength="14" x="1116.5" y="506.8018">12</text><text fill="#000000" font-family="sans-serif" font-size="13" lengthAdjust="spacing" textLength="233" x="1134.5" y="506.8018">agendaEntryDTO = toDTO(agendaEntry)</text><polygon fill="#181818" points="544.5,546.3555,534.5,550.3555,544.5,554.3555,540.5,550.3555" style="stroke:#181818;stroke-width:1.0;"/><line style="stroke:#181818;stroke-width:1.0;stroke-dasharray:2.0,2.0;" x1="538.5" x2="1103.5" y1="550.3555" y2="550.3555"/><text fill="#000000" font-family="sans-serif" font-size="13" font-weight="bold" lengthAdjust="spacing" textLength="14" x="550.5" y="545.0928">13</text><text fill="#000000" font-family="sans-serif" font-size="13" lengthAdjust="spacing" textLength="120" x="568.5" y="545.0928">agendaEntryDTOList</text><polygon fill="#181818" points="312.5,577.6465,302.5,581.6465,312.5,585.6465,308.5,581.6465" style="stroke:#181818;stroke-width:1.0;"/><line style="stroke:#181818;stroke-width:1.0;stroke-dasharray:2.0,2.0;" x1="306.5" x2="527.5" y1="581.6465" y2="581.6465"/><text fill="#000000" font-family="sans-serif" font-size="13" font-weight="bold" lengthAdjust="spacing" textLength="14" x="318.5" y="576.3838">14</text><text fill="#000000" font-family="sans-serif" font-size="13" lengthAdjust="spacing" textLength="120" x="336.5" y="576.3838">agendaEntryDTOList</text><polygon fill="#181818" points="39.5,626.2285,29.5,630.2285,39.5,634.2285,35.5,630.2285" style="stroke:#181818;stroke-width:1.0;"/><line style="stroke:#181818;stroke-width:1.0;stroke-dasharray:2.0,2.0;" x1="33.5" x2="290.5" y1="630.2285" y2="630.2285"/><text fill="#000000" font-family="sans-serif" font-size="13" font-weight="bold" lengthAdjust="spacing" textLength="14" x="45.5" y="616.3203">15</text><text fill="#000000" font-family="sans-serif" font-size="13" lengthAdjust="spacing" textLength="221" x="63.5" y="607.6748">shows the list of entries in the Agenda</text><text fill="#000000" font-family="sans-serif" font-size="13" lengthAdjust="spacing" textLength="132" x="67.5" y="624.9658">and asks to select one</text><polygon fill="#181818" points="279.5,657.5195,289.5,661.5195,279.5,665.5195,283.5,661.5195" style="stroke:#181818;stroke-width:1.0;"/><line style="stroke:#181818;stroke-width:1.0;" x1="28.5" x2="285.5" y1="661.5195" y2="661.5195"/><text fill="#000000" font-family="sans-serif" font-size="13" font-weight="bold" lengthAdjust="spacing" textLength="14" x="35.5" y="656.2568">16</text><text fill="#000000" font-family="sans-serif" font-size="13" lengthAdjust="spacing" textLength="93" x="53.5" y="656.2568">selects an entry</text><polygon fill="#181818" points="511.5,688.8105,521.5,692.8105,511.5,696.8105,515.5,692.8105" style="stroke:#181818;stroke-width:1.0;"/><line style="stroke:#181818;stroke-width:1.0;" x1="301.5" x2="517.5" y1="692.8105" y2="692.8105"/><text fill="#000000" font-family="sans-serif" font-size="13" font-weight="bold" lengthAdjust="spacing" textLength="14" x="308.5" y="687.5479">17</text><text fill="#000000" font-family="sans-serif" font-size="13" lengthAdjust="spacing" textLength="185" x="326.5" y="687.5479">cancelsEntry(AgendaEntryDTO)</text><polygon fill="#181818" points="1087.5,720.1016,1097.5,724.1016,1087.5,728.1016,1091.5,724.1016" style="stroke:#181818;stroke-width:1.0;"/><line style="stroke:#181818;stroke-width:1.0;" x1="533.5" x2="1093.5" y1="724.1016" y2="724.1016"/><text fill="#000000" font-family="sans-serif" font-size="13" font-weight="bold" lengthAdjust="spacing" textLength="14" x="540.5" y="718.8389">18</text><text fill="#000000" font-family="sans-serif" font-size="13" lengthAdjust="spacing" textLength="152" x="558.5" y="718.8389">toEntity(agendaEntryDTO)</text><polygon fill="#181818" points="1488.5,751.3926,1498.5,755.3926,1488.5,759.3926,1492.5,755.3926" style="stroke:#181818;stroke-width:1.0;"/><line style="stroke:#181818;stroke-width:1.0;" x1="1109.5" x2="1494.5" y1="755.3926" y2="755.3926"/><text fill="#000000" font-family="sans-serif" font-size="13" font-weight="bold" lengthAdjust="spacing" textLength="14" x="1116.5" y="750.1299">19</text><text fill="#000000" font-family="sans-serif" font-size="13" lengthAdjust="spacing" textLength="241" x="1134.5" y="750.1299">agendaEntry = toEntity(agendaEntryDTO)</text><polygon fill="#181818" points="1120.5,782.6836,1110.5,786.6836,1120.5,790.6836,1116.5,786.6836" style="stroke:#181818;stroke-width:1.0;"/><line style="stroke:#181818;stroke-width:1.0;stroke-dasharray:2.0,2.0;" x1="1114.5" x2="1499.5" y1="786.6836" y2="786.6836"/><text fill="#000000" font-family="sans-serif" font-size="13" font-weight="bold" lengthAdjust="spacing" textLength="14" x="1126.5" y="781.4209">20</text><text fill="#000000" font-family="sans-serif" font-size="13" lengthAdjust="spacing" textLength="73" x="1144.5" y="781.4209">agendaEntry</text><polygon fill="#181818" points="544.5,813.9746,534.5,817.9746,544.5,821.9746,540.5,817.9746" style="stroke:#181818;stroke-width:1.0;"/><line style="stroke:#181818;stroke-width:1.0;stroke-dasharray:2.0,2.0;" x1="538.5" x2="1103.5" y1="817.9746" y2="817.9746"/><text fill="#000000" font-family="sans-serif" font-size="13" font-weight="bold" lengthAdjust="spacing" textLength="14" x="550.5" y="812.7119">21</text><text fill="#000000" font-family="sans-serif" font-size="13" lengthAdjust="spacing" textLength="73" x="568.5" y="812.7119">agendaEntry</text><polygon fill="#181818" points="1493.5,845.2656,1503.5,849.2656,1493.5,853.2656,1497.5,849.2656" style="stroke:#181818;stroke-width:1.0;"/><line style="stroke:#181818;stroke-width:1.0;" x1="533.5" x2="1499.5" y1="849.2656" y2="849.2656"/><text fill="#000000" font-family="sans-serif" font-size="13" font-weight="bold" lengthAdjust="spacing" textLength="14" x="540.5" y="844.0029">22</text><text fill="#000000" font-family="sans-serif" font-size="13" lengthAdjust="spacing" textLength="157" x="558.5" y="844.0029">cancelsEntry(agendaEntry)</text><polygon fill="#181818" points="922,876.5566,932,880.5566,922,884.5566,926,880.5566" style="stroke:#181818;stroke-width:1.0;"/><line style="stroke:#181818;stroke-width:1.0;" x1="533.5" x2="928" y1="880.5566" y2="880.5566"/><text fill="#000000" font-family="sans-serif" font-size="13" font-weight="bold" lengthAdjust="spacing" textLength="14" x="540.5" y="875.2939">23</text><text fill="#000000" font-family="sans-serif" font-size="13" lengthAdjust="spacing" textLength="120" x="558.5" y="875.2939">update(agendaEntry)</text><polygon fill="#181818" points="312.5,937.8477,302.5,941.8477,312.5,945.8477,308.5,941.8477" style="stroke:#181818;stroke-width:1.0;"/><line style="stroke:#181818;stroke-width:1.0;stroke-dasharray:2.0,2.0;" x1="306.5" x2="527.5" y1="941.8477" y2="941.8477"/><text fill="#000000" font-family="sans-serif" font-size="13" font-weight="bold" lengthAdjust="spacing" textLength="14" x="318.5" y="936.585">24</text><text fill="#000000" font-family="sans-serif" font-size="13" lengthAdjust="spacing" textLength="112" x="336.5" y="936.585">success/insuccess</text><polygon fill="#181818" points="34.5,969.1387,24.5,973.1387,34.5,977.1387,30.5,973.1387" style="stroke:#181818;stroke-width:1.0;"/><line style="stroke:#181818;stroke-width:1.0;stroke-dasharray:2.0,2.0;" x1="28.5" x2="295.5" y1="973.1387" y2="973.1387"/><text fill="#000000" font-family="sans-serif" font-size="13" font-weight="bold" lengthAdjust="spacing" textLength="14" x="40.5" y="967.876">25</text><text fill="#000000" font-family="sans-serif" font-size="13" lengthAdjust="spacing" textLength="165" x="58.5" y="967.876">shows (in)success message</text><!--SRC=[hLPDZzem4BtxLunoAQoqwZrIAw7Tga9YjTK2DoxUn815i2FRTCk_xzX4mOad0MtBWGzxviqyl_4BzY1LpGq_mb4hNUoDFWfmvYIORNTgNXpuJYpTkH9WHE6usbLnWDtpKdz8jOCjhwnWZ9-SLgVZkp2CVTdBKi1MQ_Uk_p1UE6qW-xbyoO1Rm4-664uMikRAGPRFTaAL_8TovhoUXvZrl1Von5KXgYZmIUExhYfXGiBJwctHItaJjROIIqjXGqoxS5vApmRxxQQOA6EZKe1VYzcgcy6l3LtHyusQKUjj4rsCAFQ5rpKI6jn_NhqERsQC-QEMlxaJuP0Pz5wu28_VyN0XnrOE5fo68XmiS0N2Wu1MuFO2BhWfH5i05Kes4HZXlHGF3rYYC08ZXo62PlrTluWWnAd4c8oHYRuyeJBcxOIRA-iysSbqk2LgH99e_wAgF3RaSuW7AKalnNYvGMP-_2vKoF4QunKcboGIGA-TtuiSaQ2nr_CMizimpl12MeUOunecJ9kiKUrIo01rvSUxUBV4OMEJHimeDktqizEXrrwjaTOf3o3aghIkqLKDO9Fxc0f8bJ1Bqwb-UpIymK3db705ldbIgzUOq9IQ9f9FyAmq5lV73Zz1O7UnQNHEADpIcXG0QE5R1xrT8IuHt8uu26-Q2EczESUdglwmmO0hn0Ez3QwCBk8Lllho1kLMPUlXLbJuX4Rh5jJK879eEM_YR6lsH71qRIzF1Xi8JhfoJF-RgUTEuq_fpXD-RmLAgy_CUjQHC0pvdQtGlH1THBkeCKK_Re4q6o89eH8pktUuit- -1OIMMMzOkZunXE3zDOTJNMBfRigunN-IQUBiuxVRdef2MFjLgkORktMtRz_hYLJJ1WsE-8QasJ2e_uV5ej_-BzrV]--></g></svg>