<?xml version="1.0" encoding="us-ascii" standalone="no"?><svg xmlns="http://www.w3.org/2000/svg" xmlns:xlink="http://www.w3.org/1999/xlink" contentStyleType="text/css" height="814px" preserveAspectRatio="none" style="width:1055px;height:814px;background:#FFFFFF;" version="1.1" viewBox="0 0 1055 814" width="1055px" zoomAndPan="magnify"><defs/><g><!--class AgendaEntry--><g id="elem_AgendaEntry"><rect codeLine="9" fill="#F1F1F1" height="103.8633" id="AgendaEntry" rx="2.5" ry="2.5" style="stroke:#181818;stroke-width:0.5;" width="133" x="865" y="493"/><ellipse cx="888.55" cy="509" fill="#ADD1B2" rx="11" ry="11" style="stroke:#181818;stroke-width:1.0;"/><path d="M891.3156,504.875 Q891.4719,504.6563 891.6594,504.5469 Q891.8469,504.4375 892.0656,504.4375 Q892.4406,504.4375 892.675,504.7031 Q892.9094,504.9531 892.9094,505.5625 L892.9094,507.0156 Q892.9094,507.625 892.675,507.8906 Q892.4406,508.1563 892.0656,508.1563 Q891.7219,508.1563 891.5188,507.9531 Q891.3156,507.7656 891.2063,507.25 Q891.1594,506.8906 890.9719,506.7031 Q890.6438,506.3281 890.0344,506.1094 Q889.425,505.8906 888.8,505.8906 Q888.0344,505.8906 887.3938,506.2188 Q886.7688,506.5469 886.2688,507.2969 Q885.7844,508.0469 885.7844,509.0781 L885.7844,510.1719 Q885.7844,511.4063 886.675,512.2344 Q887.5656,513.0469 889.1594,513.0469 Q890.0969,513.0469 890.7531,512.7969 Q891.1438,512.6406 891.5656,512.2031 Q891.8313,511.9375 891.9719,511.8594 Q892.1281,511.7813 892.3313,511.7813 Q892.6594,511.7813 892.9094,512.0469 Q893.175,512.2969 893.175,512.6406 Q893.175,512.9844 892.8313,513.3906 Q892.3313,513.9688 891.5344,514.2969 Q890.4563,514.75 889.1594,514.75 Q887.6438,514.75 886.4406,514.125 Q885.4563,513.625 884.7688,512.5625 Q884.0813,511.4844 884.0813,510.2031 L884.0813,509.0469 Q884.0813,507.7188 884.6906,506.5781 Q885.3156,505.4219 886.4094,504.8125 Q887.5031,504.1875 888.7375,504.1875 Q889.4719,504.1875 890.1125,504.3594 Q890.7688,504.5156 891.3156,504.875 Z " fill="#000000"/><text fill="#000000" font-family="sans-serif" font-size="14" lengthAdjust="spacing" textLength="82" x="904.45" y="514.7969">AgendaEntry</text><line style="stroke:#181818;stroke-width:0.5;" x1="866" x2="997" y1="525" y2="525"/><text fill="#000000" font-family="sans-serif" font-size="14" lengthAdjust="spacing" textLength="28" x="871" y="544.1074">date</text><text fill="#000000" font-family="sans-serif" font-size="14" lengthAdjust="spacing" textLength="104" x="871" y="562.7285">associatedTeam</text><text fill="#000000" font-family="sans-serif" font-size="14" lengthAdjust="spacing" textLength="121" x="871" y="581.3496">associatedVehicles</text><line style="stroke:#181818;stroke-width:0.5;" x1="866" x2="997" y1="588.8633" y2="588.8633"/></g><!--class AgendaEntryDTO--><g id="elem_AgendaEntryDTO"><rect codeLine="15" fill="#F1F1F1" height="196.9688" id="AgendaEntryDTO" rx="2.5" ry="2.5" style="stroke:#181818;stroke-width:0.5;" width="144" x="693.5" y="7"/><ellipse cx="708.5" cy="23" fill="#ADD1B2" rx="11" ry="11" style="stroke:#181818;stroke-width:1.0;"/><path d="M711.2656,18.875 Q711.4219,18.6563 711.6094,18.5469 Q711.7969,18.4375 712.0156,18.4375 Q712.3906,18.4375 712.625,18.7031 Q712.8594,18.9531 712.8594,19.5625 L712.8594,21.0156 Q712.8594,21.625 712.625,21.8906 Q712.3906,22.1563 712.0156,22.1563 Q711.6719,22.1563 711.4688,21.9531 Q711.2656,21.7656 711.1563,21.25 Q711.1094,20.8906 710.9219,20.7031 Q710.5938,20.3281 709.9844,20.1094 Q709.375,19.8906 708.75,19.8906 Q707.9844,19.8906 707.3438,20.2188 Q706.7188,20.5469 706.2188,21.2969 Q705.7344,22.0469 705.7344,23.0781 L705.7344,24.1719 Q705.7344,25.4063 706.625,26.2344 Q707.5156,27.0469 709.1094,27.0469 Q710.0469,27.0469 710.7031,26.7969 Q711.0938,26.6406 711.5156,26.2031 Q711.7813,25.9375 711.9219,25.8594 Q712.0781,25.7813 712.2813,25.7813 Q712.6094,25.7813 712.8594,26.0469 Q713.125,26.2969 713.125,26.6406 Q713.125,26.9844 712.7813,27.3906 Q712.2813,27.9688 711.4844,28.2969 Q710.4063,28.75 709.1094,28.75 Q707.5938,28.75 706.3906,28.125 Q705.4063,27.625 704.7188,26.5625 Q704.0313,25.4844 704.0313,24.2031 L704.0313,23.0469 Q704.0313,21.7188 704.6406,20.5781 Q705.2656,19.4219 706.3594,18.8125 Q707.4531,18.1875 708.6875,18.1875 Q709.4219,18.1875 710.0625,18.3594 Q710.7188,18.5156 711.2656,18.875 Z " fill="#000000"/><text fill="#000000" font-family="sans-serif" font-size="14" lengthAdjust="spacing" textLength="112" x="722.5" y="28.7969">AgendaEntryDTO</text><line style="stroke:#181818;stroke-width:0.5;" x1="694.5" x2="836.5" y1="39" y2="39"/><text fill="#000000" font-family="sans-serif" font-size="14" lengthAdjust="spacing" textLength="28" x="699.5" y="58.1074">date</text><text fill="#000000" font-family="sans-serif" font-size="14" lengthAdjust="spacing" textLength="77" x="699.5" y="76.7285">greenSpace</text><text fill="#000000" font-family="sans-serif" font-size="14" lengthAdjust="spacing" textLength="69" x="699.5" y="95.3496">description</text><text fill="#000000" font-family="sans-serif" font-size="14" lengthAdjust="spacing" textLength="111" x="699.5" y="113.9707">expectedDuration</text><text fill="#000000" font-family="sans-serif" font-size="14" lengthAdjust="spacing" textLength="98" x="699.5" y="132.5918">urgencyDegree</text><text fill="#000000" font-family="sans-serif" font-size="14" lengthAdjust="spacing" textLength="72" x="699.5" y="151.2129">entryStatus</text><text fill="#000000" font-family="sans-serif" font-size="14" lengthAdjust="spacing" textLength="104" x="699.5" y="169.834">associatedTeam</text><text fill="#000000" font-family="sans-serif" font-size="14" lengthAdjust="spacing" textLength="121" x="699.5" y="188.4551">associatedVehicles</text><line style="stroke:#181818;stroke-width:0.5;" x1="694.5" x2="836.5" y1="195.9688" y2="195.9688"/></g><!--class SystemUser--><g id="elem_SystemUser"><rect codeLine="28" fill="#F1F1F1" height="122.4844" id="SystemUser" rx="2.5" ry="2.5" style="stroke:#181818;stroke-width:0.5;" width="107" x="7" y="44.5"/><ellipse cx="22" cy="60.5" fill="#ADD1B2" rx="11" ry="11" style="stroke:#181818;stroke-width:1.0;"/><path d="M24.7656,56.375 Q24.9219,56.1563 25.1094,56.0469 Q25.2969,55.9375 25.5156,55.9375 Q25.8906,55.9375 26.125,56.2031 Q26.3594,56.4531 26.3594,57.0625 L26.3594,58.5156 Q26.3594,59.125 26.125,59.3906 Q25.8906,59.6563 25.5156,59.6563 Q25.1719,59.6563 24.9688,59.4531 Q24.7656,59.2656 24.6563,58.75 Q24.6094,58.3906 24.4219,58.2031 Q24.0938,57.8281 23.4844,57.6094 Q22.875,57.3906 22.25,57.3906 Q21.4844,57.3906 20.8438,57.7188 Q20.2188,58.0469 19.7188,58.7969 Q19.2344,59.5469 19.2344,60.5781 L19.2344,61.6719 Q19.2344,62.9063 20.125,63.7344 Q21.0156,64.5469 22.6094,64.5469 Q23.5469,64.5469 24.2031,64.2969 Q24.5938,64.1406 25.0156,63.7031 Q25.2813,63.4375 25.4219,63.3594 Q25.5781,63.2813 25.7813,63.2813 Q26.1094,63.2813 26.3594,63.5469 Q26.625,63.7969 26.625,64.1406 Q26.625,64.4844 26.2813,64.8906 Q25.7813,65.4688 24.9844,65.7969 Q23.9063,66.25 22.6094,66.25 Q21.0938,66.25 19.8906,65.625 Q18.9063,65.125 18.2188,64.0625 Q17.5313,62.9844 17.5313,61.7031 L17.5313,60.5469 Q17.5313,59.2188 18.1406,58.0781 Q18.7656,56.9219 19.8594,56.3125 Q20.9531,55.6875 22.1875,55.6875 Q22.9219,55.6875 23.5625,55.8594 Q24.2188,56.0156 24.7656,56.375 Z " fill="#000000"/><text fill="#000000" font-family="sans-serif" font-size="14" lengthAdjust="spacing" textLength="75" x="36" y="66.2969">SystemUser</text><line style="stroke:#181818;stroke-width:0.5;" x1="8" x2="113" y1="76.5" y2="76.5"/><text fill="#000000" font-family="sans-serif" font-size="14" lengthAdjust="spacing" textLength="35" x="13" y="95.6074">name</text><text fill="#000000" font-family="sans-serif" font-size="14" lengthAdjust="spacing" textLength="33" x="13" y="114.2285">email</text><text fill="#000000" font-family="sans-serif" font-size="14" lengthAdjust="spacing" textLength="60" x="13" y="132.8496">password</text><text fill="#000000" font-family="sans-serif" font-size="14" lengthAdjust="spacing" textLength="40" x="13" y="151.4707">phone</text><line style="stroke:#181818;stroke-width:0.5;" x1="8" x2="113" y1="158.9844" y2="158.9844"/></g><!--class AgendaEntryRepository--><g id="elem_AgendaEntryRepository"><rect codeLine="36" fill="#F1F1F1" height="122.4844" id="AgendaEntryRepository" rx="2.5" ry="2.5" style="stroke:#181818;stroke-width:0.5;" width="524" x="409.5" y="685"/><ellipse cx="592.25" cy="701" fill="#ADD1B2" rx="11" ry="11" style="stroke:#181818;stroke-width:1.0;"/><path d="M595.0156,696.875 Q595.1719,696.6563 595.3594,696.5469 Q595.5469,696.4375 595.7656,696.4375 Q596.1406,696.4375 596.375,696.7031 Q596.6094,696.9531 596.6094,697.5625 L596.6094,699.0156 Q596.6094,699.625 596.375,699.8906 Q596.1406,700.1563 595.7656,700.1563 Q595.4219,700.1563 595.2188,699.9531 Q595.0156,699.7656 594.9063,699.25 Q594.8594,698.8906 594.6719,698.7031 Q594.3438,698.3281 593.7344,698.1094 Q593.125,697.8906 592.5,697.8906 Q591.7344,697.8906 591.0938,698.2188 Q590.4688,698.5469 589.9688,699.2969 Q589.4844,700.0469 589.4844,701.0781 L589.4844,702.1719 Q589.4844,703.4063 590.375,704.2344 Q591.2656,705.0469 592.8594,705.0469 Q593.7969,705.0469 594.4531,704.7969 Q594.8438,704.6406 595.2656,704.2031 Q595.5313,703.9375 595.6719,703.8594 Q595.8281,703.7813 596.0313,703.7813 Q596.3594,703.7813 596.6094,704.0469 Q596.875,704.2969 596.875,704.6406 Q596.875,704.9844 596.5313,705.3906 Q596.0313,705.9688 595.2344,706.2969 Q594.1563,706.75 592.8594,706.75 Q591.3438,706.75 590.1406,706.125 Q589.1563,705.625 588.4688,704.5625 Q587.7813,703.4844 587.7813,702.2031 L587.7813,701.0469 Q587.7813,699.7188 588.3906,698.5781 Q589.0156,697.4219 590.1094,696.8125 Q591.2031,696.1875 592.4375,696.1875 Q593.1719,696.1875 593.8125,696.3594 Q594.4688,696.5156 595.0156,696.875 Z " fill="#000000"/><text fill="#000000" font-family="sans-serif" font-size="14" lengthAdjust="spacing" textLength="150" x="612.75" y="706.7969">AgendaEntryRepository</text><line style="stroke:#181818;stroke-width:0.5;" x1="410.5" x2="932.5" y1="717" y2="717"/><text fill="#000000" font-family="sans-serif" font-size="14" lengthAdjust="spacing" textLength="255" x="415.5" y="736.1074">-ArrayList&lt;AgendaEntry&gt; agendaEntries</text><line style="stroke:#181818;stroke-width:0.5;" x1="410.5" x2="932.5" y1="743.6211" y2="743.6211"/><text fill="#000000" font-family="sans-serif" font-size="14" lengthAdjust="spacing" textLength="142" x="415.5" y="762.7285">+getAgendaEntryList()</text><text fill="#000000" font-family="sans-serif" font-size="14" lengthAdjust="spacing" textLength="512" x="415.5" y="781.3496">+getAgendaEntryByDescriptionAndGreenspace(dto.description, dto.greenSpace)</text><text fill="#000000" font-family="sans-serif" font-size="14" lengthAdjust="spacing" textLength="261" x="415.5" y="799.9707">+update(entry, EntryStatus.CANCELLED)</text></g><!--class Repositories--><g id="elem_Repositories"><rect codeLine="44" fill="#F1F1F1" height="122.4844" id="Repositories" rx="2.5" ry="2.5" style="stroke:#181818;stroke-width:0.5;" width="200" x="322.5" y="484"/><ellipse cx="378.75" cy="500" fill="#ADD1B2" rx="11" ry="11" style="stroke:#181818;stroke-width:1.0;"/><path d="M381.5156,495.875 Q381.6719,495.6563 381.8594,495.5469 Q382.0469,495.4375 382.2656,495.4375 Q382.6406,495.4375 382.875,495.7031 Q383.1094,495.9531 383.1094,496.5625 L383.1094,498.0156 Q383.1094,498.625 382.875,498.8906 Q382.6406,499.1563 382.2656,499.1563 Q381.9219,499.1563 381.7188,498.9531 Q381.5156,498.7656 381.4063,498.25 Q381.3594,497.8906 381.1719,497.7031 Q380.8438,497.3281 380.2344,497.1094 Q379.625,496.8906 379,496.8906 Q378.2344,496.8906 377.5938,497.2188 Q376.9688,497.5469 376.4688,498.2969 Q375.9844,499.0469 375.9844,500.0781 L375.9844,501.1719 Q375.9844,502.4063 376.875,503.2344 Q377.7656,504.0469 379.3594,504.0469 Q380.2969,504.0469 380.9531,503.7969 Q381.3438,503.6406 381.7656,503.2031 Q382.0313,502.9375 382.1719,502.8594 Q382.3281,502.7813 382.5313,502.7813 Q382.8594,502.7813 383.1094,503.0469 Q383.375,503.2969 383.375,503.6406 Q383.375,503.9844 383.0313,504.3906 Q382.5313,504.9688 381.7344,505.2969 Q380.6563,505.75 379.3594,505.75 Q377.8438,505.75 376.6406,505.125 Q375.6563,504.625 374.9688,503.5625 Q374.2813,502.4844 374.2813,501.2031 L374.2813,500.0469 Q374.2813,498.7188 374.8906,497.5781 Q375.5156,496.4219 376.6094,495.8125 Q377.7031,495.1875 378.9375,495.1875 Q379.6719,495.1875 380.3125,495.3594 Q380.9688,495.5156 381.5156,495.875 Z " fill="#000000"/><text fill="#000000" font-family="sans-serif" font-size="14" lengthAdjust="spacing" textLength="79" x="399.25" y="505.7969">Repositories</text><line style="stroke:#181818;stroke-width:0.5;" x1="323.5" x2="521.5" y1="516" y2="516"/><text fill="#000000" font-family="sans-serif" font-size="14" lengthAdjust="spacing" textLength="154" x="328.5" y="535.1074">-agendaEntryRepository</text><line style="stroke:#181818;stroke-width:0.5;" x1="323.5" x2="521.5" y1="542.6211" y2="542.6211"/><text fill="#000000" font-family="sans-serif" font-size="14" lengthAdjust="spacing" textLength="94" x="328.5" y="561.7285">-Repositories()</text><text fill="#000000" font-family="sans-serif" font-size="14" lengthAdjust="spacing" textLength="91" x="328.5" y="580.3496">+getInstance()</text><text fill="#000000" font-family="sans-serif" font-size="14" lengthAdjust="spacing" textLength="188" x="328.5" y="598.9707">+getAgendaEntryRepository()</text></g><!--class AgendaEntryMapper--><g id="elem_AgendaEntryMapper"><rect codeLine="53" fill="#F1F1F1" height="66.6211" id="AgendaEntryMapper" rx="2.5" ry="2.5" style="stroke:#181818;stroke-width:0.5;" width="295" x="618" y="310.5"/><ellipse cx="696.25" cy="326.5" fill="#ADD1B2" rx="11" ry="11" style="stroke:#181818;stroke-width:1.0;"/><path d="M699.0156,322.375 Q699.1719,322.1563 699.3594,322.0469 Q699.5469,321.9375 699.7656,321.9375 Q700.1406,321.9375 700.375,322.2031 Q700.6094,322.4531 700.6094,323.0625 L700.6094,324.5156 Q700.6094,325.125 700.375,325.3906 Q700.1406,325.6563 699.7656,325.6563 Q699.4219,325.6563 699.2188,325.4531 Q699.0156,325.2656 698.9063,324.75 Q698.8594,324.3906 698.6719,324.2031 Q698.3438,323.8281 697.7344,323.6094 Q697.125,323.3906 696.5,323.3906 Q695.7344,323.3906 695.0938,323.7188 Q694.4688,324.0469 693.9688,324.7969 Q693.4844,325.5469 693.4844,326.5781 L693.4844,327.6719 Q693.4844,328.9063 694.375,329.7344 Q695.2656,330.5469 696.8594,330.5469 Q697.7969,330.5469 698.4531,330.2969 Q698.8438,330.1406 699.2656,329.7031 Q699.5313,329.4375 699.6719,329.3594 Q699.8281,329.2813 700.0313,329.2813 Q700.3594,329.2813 700.6094,329.5469 Q700.875,329.7969 700.875,330.1406 Q700.875,330.4844 700.5313,330.8906 Q700.0313,331.4688 699.2344,331.7969 Q698.1563,332.25 696.8594,332.25 Q695.3438,332.25 694.1406,331.625 Q693.1563,331.125 692.4688,330.0625 Q691.7813,328.9844 691.7813,327.7031 L691.7813,326.5469 Q691.7813,325.2188 692.3906,324.0781 Q693.0156,322.9219 694.1094,322.3125 Q695.2031,321.6875 696.4375,321.6875 Q697.1719,321.6875 697.8125,321.8594 Q698.4688,322.0156 699.0156,322.375 Z " fill="#000000"/><text fill="#000000" font-family="sans-serif" font-size="14" lengthAdjust="spacing" textLength="130" x="716.75" y="332.2969">AgendaEntryMapper</text><line style="stroke:#181818;stroke-width:0.5;" x1="619" x2="912" y1="342.5" y2="342.5"/><line style="stroke:#181818;stroke-width:0.5;" x1="619" x2="912" y1="350.5" y2="350.5"/><text fill="#000000" font-family="sans-serif" font-size="14" lengthAdjust="spacing" textLength="283" x="624" y="369.6074">+toDtoList(List&lt;AgendaEntry&gt; toDoEntryList)</text></g><!--class CancelAgendaEntryController--><g id="elem_CancelAgendaEntryController"><rect codeLine="59" fill="#F1F1F1" height="122.4844" id="CancelAgendaEntryController" rx="2.5" ry="2.5" style="stroke:#181818;stroke-width:0.5;" width="320" x="262.5" y="283"/><ellipse cx="324.25" cy="299" fill="#ADD1B2" rx="11" ry="11" style="stroke:#181818;stroke-width:1.0;"/><path d="M327.0156,294.875 Q327.1719,294.6563 327.3594,294.5469 Q327.5469,294.4375 327.7656,294.4375 Q328.1406,294.4375 328.375,294.7031 Q328.6094,294.9531 328.6094,295.5625 L328.6094,297.0156 Q328.6094,297.625 328.375,297.8906 Q328.1406,298.1563 327.7656,298.1563 Q327.4219,298.1563 327.2188,297.9531 Q327.0156,297.7656 326.9063,297.25 Q326.8594,296.8906 326.6719,296.7031 Q326.3438,296.3281 325.7344,296.1094 Q325.125,295.8906 324.5,295.8906 Q323.7344,295.8906 323.0938,296.2188 Q322.4688,296.5469 321.9688,297.2969 Q321.4844,298.0469 321.4844,299.0781 L321.4844,300.1719 Q321.4844,301.4063 322.375,302.2344 Q323.2656,303.0469 324.8594,303.0469 Q325.7969,303.0469 326.4531,302.7969 Q326.8438,302.6406 327.2656,302.2031 Q327.5313,301.9375 327.6719,301.8594 Q327.8281,301.7813 328.0313,301.7813 Q328.3594,301.7813 328.6094,302.0469 Q328.875,302.2969 328.875,302.6406 Q328.875,302.9844 328.5313,303.3906 Q328.0313,303.9688 327.2344,304.2969 Q326.1563,304.75 324.8594,304.75 Q323.3438,304.75 322.1406,304.125 Q321.1563,303.625 320.4688,302.5625 Q319.7813,301.4844 319.7813,300.2031 L319.7813,299.0469 Q319.7813,297.7188 320.3906,296.5781 Q321.0156,295.4219 322.1094,294.8125 Q323.2031,294.1875 324.4375,294.1875 Q325.1719,294.1875 325.8125,294.3594 Q326.4688,294.5156 327.0156,294.875 Z " fill="#000000"/><text fill="#000000" font-family="sans-serif" font-size="14" lengthAdjust="spacing" textLength="188" x="344.75" y="304.7969">CancelAgendaEntryController</text><line style="stroke:#181818;stroke-width:0.5;" x1="263.5" x2="581.5" y1="315" y2="315"/><text fill="#000000" font-family="sans-serif" font-size="14" lengthAdjust="spacing" textLength="308" x="268.5" y="334.1074">-AgendaEntryRepository agendaEntryRepository</text><text fill="#000000" font-family="sans-serif" font-size="14" lengthAdjust="spacing" textLength="268" x="268.5" y="352.7285">-AgendaEntryMapper agendaEntryMapper</text><line style="stroke:#181818;stroke-width:0.5;" x1="263.5" x2="581.5" y1="360.2422" y2="360.2422"/><text fill="#000000" font-family="sans-serif" font-size="14" lengthAdjust="spacing" textLength="172" x="268.5" y="379.3496">+getAgendaEntryDTOList()</text><text fill="#000000" font-family="sans-serif" font-size="14" lengthAdjust="spacing" textLength="277" x="268.5" y="397.9707">+cancelAgendaEntry(AgendaEntryDTO dto)</text></g><!--class AgendaUI--><g id="elem_AgendaUI"><rect codeLine="67" fill="#F1F1F1" height="48" id="AgendaUI" rx="2.5" ry="2.5" style="stroke:#181818;stroke-width:0.5;" width="93" x="134" y="320"/><ellipse cx="149" cy="336" fill="#ADD1B2" rx="11" ry="11" style="stroke:#181818;stroke-width:1.0;"/><path d="M151.7656,331.875 Q151.9219,331.6563 152.1094,331.5469 Q152.2969,331.4375 152.5156,331.4375 Q152.8906,331.4375 153.125,331.7031 Q153.3594,331.9531 153.3594,332.5625 L153.3594,334.0156 Q153.3594,334.625 153.125,334.8906 Q152.8906,335.1563 152.5156,335.1563 Q152.1719,335.1563 151.9688,334.9531 Q151.7656,334.7656 151.6563,334.25 Q151.6094,333.8906 151.4219,333.7031 Q151.0938,333.3281 150.4844,333.1094 Q149.875,332.8906 149.25,332.8906 Q148.4844,332.8906 147.8438,333.2188 Q147.2188,333.5469 146.7188,334.2969 Q146.2344,335.0469 146.2344,336.0781 L146.2344,337.1719 Q146.2344,338.4063 147.125,339.2344 Q148.0156,340.0469 149.6094,340.0469 Q150.5469,340.0469 151.2031,339.7969 Q151.5938,339.6406 152.0156,339.2031 Q152.2813,338.9375 152.4219,338.8594 Q152.5781,338.7813 152.7813,338.7813 Q153.1094,338.7813 153.3594,339.0469 Q153.625,339.2969 153.625,339.6406 Q153.625,339.9844 153.2813,340.3906 Q152.7813,340.9688 151.9844,341.2969 Q150.9063,341.75 149.6094,341.75 Q148.0938,341.75 146.8906,341.125 Q145.9063,340.625 145.2188,339.5625 Q144.5313,338.4844 144.5313,337.2031 L144.5313,336.0469 Q144.5313,334.7188 145.1406,333.5781 Q145.7656,332.4219 146.8594,331.8125 Q147.9531,331.1875 149.1875,331.1875 Q149.9219,331.1875 150.5625,331.3594 Q151.2188,331.5156 151.7656,331.875 Z " fill="#000000"/><text fill="#000000" font-family="sans-serif" font-size="14" lengthAdjust="spacing" textLength="61" x="163" y="341.7969">AgendaUI</text><line style="stroke:#181818;stroke-width:0.5;" x1="135" x2="226" y1="352" y2="352"/><line style="stroke:#181818;stroke-width:0.5;" x1="135" x2="226" y1="360" y2="360"/></g><!--class GSM--><g id="elem_GSM"><rect fill="#F1F1F1" height="48" id="GSM" rx="2.5" ry="2.5" style="stroke:#181818;stroke-width:0.5;" width="63" x="149" y="81.5"/><ellipse cx="164" cy="97.5" fill="#ADD1B2" rx="11" ry="11" style="stroke:#181818;stroke-width:1.0;"/><path d="M166.7656,93.375 Q166.9219,93.1563 167.1094,93.0469 Q167.2969,92.9375 167.5156,92.9375 Q167.8906,92.9375 168.125,93.2031 Q168.3594,93.4531 168.3594,94.0625 L168.3594,95.5156 Q168.3594,96.125 168.125,96.3906 Q167.8906,96.6563 167.5156,96.6563 Q167.1719,96.6563 166.9688,96.4531 Q166.7656,96.2656 166.6563,95.75 Q166.6094,95.3906 166.4219,95.2031 Q166.0938,94.8281 165.4844,94.6094 Q164.875,94.3906 164.25,94.3906 Q163.4844,94.3906 162.8438,94.7188 Q162.2188,95.0469 161.7188,95.7969 Q161.2344,96.5469 161.2344,97.5781 L161.2344,98.6719 Q161.2344,99.9063 162.125,100.7344 Q163.0156,101.5469 164.6094,101.5469 Q165.5469,101.5469 166.2031,101.2969 Q166.5938,101.1406 167.0156,100.7031 Q167.2813,100.4375 167.4219,100.3594 Q167.5781,100.2813 167.7813,100.2813 Q168.1094,100.2813 168.3594,100.5469 Q168.625,100.7969 168.625,101.1406 Q168.625,101.4844 168.2813,101.8906 Q167.7813,102.4688 166.9844,102.7969 Q165.9063,103.25 164.6094,103.25 Q163.0938,103.25 161.8906,102.625 Q160.9063,102.125 160.2188,101.0625 Q159.5313,99.9844 159.5313,98.7031 L159.5313,97.5469 Q159.5313,96.2188 160.1406,95.0781 Q160.7656,93.9219 161.8594,93.3125 Q162.9531,92.6875 164.1875,92.6875 Q164.9219,92.6875 165.5625,92.8594 Q166.2188,93.0156 166.7656,93.375 Z " fill="#000000"/><text fill="#000000" font-family="sans-serif" font-size="14" lengthAdjust="spacing" textLength="31" x="178" y="103.2969">GSM</text><line style="stroke:#181818;stroke-width:0.5;" x1="150" x2="211" y1="113.5" y2="113.5"/><line style="stroke:#181818;stroke-width:0.5;" x1="150" x2="211" y1="121.5" y2="121.5"/></g><!--class ToDoEntry--><g id="elem_ToDoEntry"><rect fill="#F1F1F1" height="48" id="ToDoEntry" rx="2.5" ry="2.5" style="stroke:#181818;stroke-width:0.5;" width="100" x="948.5" y="320"/><ellipse cx="963.5" cy="336" fill="#ADD1B2" rx="11" ry="11" style="stroke:#181818;stroke-width:1.0;"/><path d="M966.2656,331.875 Q966.4219,331.6563 966.6094,331.5469 Q966.7969,331.4375 967.0156,331.4375 Q967.3906,331.4375 967.625,331.7031 Q967.8594,331.9531 967.8594,332.5625 L967.8594,334.0156 Q967.8594,334.625 967.625,334.8906 Q967.3906,335.1563 967.0156,335.1563 Q966.6719,335.1563 966.4688,334.9531 Q966.2656,334.7656 966.1563,334.25 Q966.1094,333.8906 965.9219,333.7031 Q965.5938,333.3281 964.9844,333.1094 Q964.375,332.8906 963.75,332.8906 Q962.9844,332.8906 962.3438,333.2188 Q961.7188,333.5469 961.2188,334.2969 Q960.7344,335.0469 960.7344,336.0781 L960.7344,337.1719 Q960.7344,338.4063 961.625,339.2344 Q962.5156,340.0469 964.1094,340.0469 Q965.0469,340.0469 965.7031,339.7969 Q966.0938,339.6406 966.5156,339.2031 Q966.7813,338.9375 966.9219,338.8594 Q967.0781,338.7813 967.2813,338.7813 Q967.6094,338.7813 967.8594,339.0469 Q968.125,339.2969 968.125,339.6406 Q968.125,339.9844 967.7813,340.3906 Q967.2813,340.9688 966.4844,341.2969 Q965.4063,341.75 964.1094,341.75 Q962.5938,341.75 961.3906,341.125 Q960.4063,340.625 959.7188,339.5625 Q959.0313,338.4844 959.0313,337.2031 L959.0313,336.0469 Q959.0313,334.7188 959.6406,333.5781 Q960.2656,332.4219 961.3594,331.8125 Q962.4531,331.1875 963.6875,331.1875 Q964.4219,331.1875 965.0625,331.3594 Q965.7188,331.5156 966.2656,331.875 Z " fill="#000000"/><text fill="#000000" font-family="sans-serif" font-size="14" lengthAdjust="spacing" textLength="68" x="977.5" y="341.7969">ToDoEntry</text><line style="stroke:#181818;stroke-width:0.5;" x1="949.5" x2="1047.5" y1="352" y2="352"/><line style="stroke:#181818;stroke-width:0.5;" x1="949.5" x2="1047.5" y1="360" y2="360"/></g><!--link AgendaUI to CancelAgendaEntryController--><g id="link_AgendaUI_CancelAgendaEntryController"><path codeLine="71" d="M227.42,344 C245.17,344 261.17,344 261.17,344 C261.17,344 255.57,344 256.31,344 " fill="none" id="AgendaUI-to-CancelAgendaEntryController" style="stroke:#181818;stroke-width:1.0;stroke-dasharray:7.0,7.0;"/><polygon fill="#181818" points="262.31,344,253.31,340,257.31,344,253.31,348,262.31,344" style="stroke:#181818;stroke-width:1.0;"/></g><!--link CancelAgendaEntryController to Repositories--><g id="link_CancelAgendaEntryController_Repositories"><path codeLine="72" d="M422.5,405.25 C422.5,430.18 422.5,453.04 422.5,477.96 " fill="none" id="CancelAgendaEntryController-to-Repositories" style="stroke:#181818;stroke-width:1.0;stroke-dasharray:7.0,7.0;"/><polygon fill="#181818" points="422.5,483.96,426.5,474.96,422.5,478.96,418.5,474.96,422.5,483.96" style="stroke:#181818;stroke-width:1.0;"/><text fill="#000000" font-family="sans-serif" font-size="13" lengthAdjust="spacing" textLength="67" x="423.5" y="450.0283">repositories</text></g><!--link Repositories to AgendaEntryRepository--><g id="link_Repositories_AgendaEntryRepository"><path codeLine="73" d="M497.88,606.25 C529.09,631.18 560.503,656.294 591.683,681.214 " fill="none" id="Repositories-to-AgendaEntryRepository" style="stroke:#181818;stroke-width:1.0;"/><polygon fill="#181818" points="596.37,684.96,591.8369,676.2164,592.4642,681.8384,586.8422,682.4657,596.37,684.96" style="stroke:#181818;stroke-width:1.0;"/><text fill="#000000" font-family="sans-serif" font-size="13" lengthAdjust="spacing" textLength="7" x="580.2784" y="673.9366">1</text></g><!--link Repositories to Repositories--><g id="link_Repositories_Repositories"><path codeLine="74" d="M522.59,526.97 C542.93,528.93 557.5,534.94 557.5,545 C557.5,555.06 548.9023,560.4945 528.5623,562.4545 " fill="none" id="Repositories-to-Repositories" style="stroke:#181818;stroke-width:1.0;"/><polygon fill="#181818" points="522.59,563.03,531.9322,566.1483,527.5669,562.5504,531.1648,558.1852,522.59,563.03" style="stroke:#181818;stroke-width:1.0;"/><text fill="#000000" font-family="sans-serif" font-size="13" lengthAdjust="spacing" textLength="49" x="563.5" y="550.5283">instance</text></g><!--link CancelAgendaEntryController to AgendaEntryMapper--><g id="link_CancelAgendaEntryController_AgendaEntryMapper"><path codeLine="75" d="M582.68,344 C594.48,344 600.96,344 611.98,344 " fill="none" id="CancelAgendaEntryController-to-AgendaEntryMapper" style="stroke:#181818;stroke-width:1.0;stroke-dasharray:7.0,7.0;"/><polygon fill="#181818" points="617.98,344,608.98,340,612.98,344,608.98,348,617.98,344" style="stroke:#181818;stroke-width:1.0;"/></g><!--link CancelAgendaEntryController to AgendaEntryRepository--><g id="link_CancelAgendaEntryController_AgendaEntryRepository"><path codeLine="76" d="M507.33,405.16 C560.3,442.73 618.5,484 618.5,484 C618.5,484 642.4261,601.83 658.0761,678.91 " fill="none" id="CancelAgendaEntryController-to-AgendaEntryRepository" style="stroke:#181818;stroke-width:1.0;"/><polygon fill="#181818" points="659.27,684.79,661.3992,675.1741,658.2751,679.89,653.5592,676.7659,659.27,684.79" style="stroke:#181818;stroke-width:1.0;"/><text fill="#000000" font-family="sans-serif" font-size="13" lengthAdjust="spacing" textLength="28" x="644.5" y="550.5283">uses</text></g><!--reverse link SystemUser to GSM--><g id="link_SystemUser_GSM"><path codeLine="78" d="M132.04,105.5 C143.65,105.5 140.5,105.5 140.5,105.5 C140.5,105.5 144.03,105.5 148.98,105.5 " fill="none" id="SystemUser-backto-GSM" style="stroke:#181818;stroke-width:1.0;"/><polygon fill="none" points="114.04,105.5,132.04,111.5,132.04,99.5,114.04,105.5" style="stroke:#181818;stroke-width:1.0;"/></g><!--reverse link ToDoEntry to AgendaEntry--><g id="link_ToDoEntry_AgendaEntry"><path codeLine="79" d="M984.9407,385.2805 C974.7307,415.6305 962.28,452.58 948.76,492.74 " fill="none" id="ToDoEntry-backto-AgendaEntry" style="stroke:#181818;stroke-width:1.0;"/><polygon fill="none" points="990.68,368.22,979.2539,383.3674,990.6275,387.1936,990.68,368.22" style="stroke:#181818;stroke-width:1.0;"/></g><!--link GSM to AgendaUI--><g id="link_GSM_AgendaUI"><path codeLine="81" d="M180.5,129.61 C180.5,174.82 180.5,274.51 180.5,319.8 " fill="none" id="GSM-AgendaUI" style="stroke:#181818;stroke-width:1.0;"/><text fill="#000000" font-family="sans-serif" font-size="13" lengthAdjust="spacing" textLength="7" x="172.6469" y="151.6225">1</text><text fill="#000000" font-family="sans-serif" font-size="13" lengthAdjust="spacing" textLength="7" x="172.6469" y="308.8932">1</text></g><!--reverse link AgendaEntry to AgendaEntryRepository--><g id="link_AgendaEntry_AgendaEntryRepository"><path codeLine="82" d="M860.1151,600.6364 C825.0551,627.4664 786.63,656.88 749.96,684.95 " fill="none" id="AgendaEntry-backto-AgendaEntryRepository" style="stroke:#181818;stroke-width:1.0;"/><polygon fill="#181818" points="864.88,596.99,855.3018,599.283,860.9093,600.0286,860.1636,605.6361,864.88,596.99" style="stroke:#181818;stroke-width:1.0;"/><text fill="#000000" font-family="sans-serif" font-size="13" lengthAdjust="spacing" textLength="36" x="809.5" y="651.0283">stores</text><text fill="#000000" font-family="sans-serif" font-size="13" lengthAdjust="spacing" textLength="5" x="851.888" y="599.0716">*</text><text fill="#000000" font-family="sans-serif" font-size="13" lengthAdjust="spacing" textLength="7" x="751.6273" y="673.9254">1</text></g><!--reverse link AgendaEntryDTO to AgendaEntryMapper--><g id="link_AgendaEntryDTO_AgendaEntryMapper"><path codeLine="83" d="M765.5,210.06 C765.5,247.98 765.5,282.82 765.5,310.34 " fill="none" id="AgendaEntryDTO-backto-AgendaEntryMapper" style="stroke:#181818;stroke-width:1.0;"/><polygon fill="#181818" points="765.5,204.06,761.5,213.06,765.5,209.06,769.5,213.06,765.5,204.06" style="stroke:#181818;stroke-width:1.0;"/><text fill="#000000" font-family="sans-serif" font-size="13" lengthAdjust="spacing" textLength="43" x="766.5" y="249.0283">creates</text><text fill="#000000" font-family="sans-serif" font-size="13" lengthAdjust="spacing" textLength="5" x="760.3164" y="225.9624">*</text><text fill="#000000" font-family="sans-serif" font-size="13" lengthAdjust="spacing" textLength="7" x="757.8109" y="299.134">1</text></g><!--SRC=[bLJRZjem47ttLrYy5BeBQbyHGgA0LaXiApNGTpUP1ciTsx8TRTFBltSSievp0QayXCpjUCuPJ-mBbvePLj1KC6itpXd-lNHmI9LC-2-W7yWx6t8A9LLwCQe0wam9f8rebhwm719N2Q06KiTaBk84Us6PUkKofp-Oi754S0ckqa2r4fKtuXD3K1cdegARtP8wGZSvo8pjfJCL_Kqe_ZBce7x1i4evMja9MD5pVOCBJmLOydS4QNVwWc1TjDm0o0JfNyqCR6guTbp9seQV6iM0R5SQ5fobGSoqse4llgPv-CGnLzh_wB5jCgciW-9imJHi9IiQv89nKRzfJ7nL9hiQ5uL2O_sGvLVGodAdWd9pkZ66LKTktIhAMrCM3EwxyRaFD0SN9VcYwUmQwaO-8V-WrKPcJrv8wuMSPauj8Y4VgNUqGZTmfVP3cDRIFT9zg-1Yk_cytH-F-zsiLIYmmbO3BpR6cZJ1kEADWcTta1PlDxOv6sNS0c72w3LwPbg7GJrGftPErJeD5SQO2ZfUuHgyhMz1HCbRXKybH42UtnZgEEb1HTCbwtl6vuoh4OywxNStxQqHJdJM5-TyyDk5pc0krlTuadiQBB2sC_CbVfPQatHYy_cQJZvEnWNhfGvWUNCVxhUp7cfxjy2tD3w_9IsjNxTevrT_vlGfUIQdj-lYFPrf4eBncYFwMwhd0uc_b9Ft4xhg90mFj_YFn_VcUQEokKHBcXh0PSMk_m40]--></g></svg>