<?xml version="1.0" encoding="us-ascii" standalone="no"?><svg xmlns="http://www.w3.org/2000/svg" xmlns:xlink="http://www.w3.org/1999/xlink" contentStyleType="text/css" height="686px" preserveAspectRatio="none" style="width:1908px;height:686px;background:#FFFFFF;" version="1.1" viewBox="0 0 1908 686" width="1908px" zoomAndPan="magnify"><defs/><g><rect fill="#FFFFFF" height="446.3652" style="stroke:#181818;stroke-width:1.0;" width="10" x="575.5" y="148.2031"/><rect fill="#FFFFFF" height="42.9365" style="stroke:#181818;stroke-width:1.0;" width="10" x="913.5" y="191.1396"/><rect fill="#FFFFFF" height="62.582" style="stroke:#181818;stroke-width:1.0;" width="10" x="913.5" y="351.2402"/><rect fill="#FFFFFF" height="42.9365" style="stroke:#181818;stroke-width:1.0;" width="10" x="1066" y="277.0127"/><line style="stroke:#181818;stroke-width:0.5;stroke-dasharray:5.0,5.0;" x1="23" x2="23" y1="83.6211" y2="603.5684"/><line style="stroke:#181818;stroke-width:0.5;stroke-dasharray:5.0,5.0;" x1="230.5" x2="230.5" y1="83.6211" y2="603.5684"/><line style="stroke:#181818;stroke-width:0.5;stroke-dasharray:5.0,5.0;" x1="580" x2="580" y1="83.6211" y2="603.5684"/><line style="stroke:#181818;stroke-width:0.5;stroke-dasharray:5.0,5.0;" x1="918" x2="918" y1="83.6211" y2="603.5684"/><line style="stroke:#181818;stroke-width:0.5;stroke-dasharray:5.0,5.0;" x1="1071" x2="1071" y1="83.6211" y2="603.5684"/><line style="stroke:#181818;stroke-width:0.5;stroke-dasharray:5.0,5.0;" x1="1203" x2="1203" y1="83.6211" y2="603.5684"/><line style="stroke:#181818;stroke-width:0.5;stroke-dasharray:5.0,5.0;" x1="1324" x2="1324" y1="83.6211" y2="603.5684"/><line style="stroke:#181818;stroke-width:0.5;stroke-dasharray:5.0,5.0;" x1="1407" x2="1407" y1="83.6211" y2="603.5684"/><line style="stroke:#181818;stroke-width:0.5;stroke-dasharray:5.0,5.0;" x1="1506" x2="1506" y1="83.6211" y2="603.5684"/><text fill="#000000" font-family="sans-serif" font-size="14" lengthAdjust="spacing" textLength="31" x="5" y="80.1074">GSM</text><ellipse cx="23.5" cy="13.5" fill="#E3E3E3" rx="8" ry="8" style="stroke:#181818;stroke-width:0.5;"/><path d="M23.5,21.5 L23.5,48.5 M10.5,29.5 L36.5,29.5 M23.5,48.5 L10.5,63.5 M23.5,48.5 L36.5,63.5 " fill="none" style="stroke:#181818;stroke-width:0.5;"/><text fill="#000000" font-family="sans-serif" font-size="14" lengthAdjust="spacing" textLength="31" x="5" y="617.6758">GSM</text><ellipse cx="23.5" cy="629.6895" fill="#E3E3E3" rx="8" ry="8" style="stroke:#181818;stroke-width:0.5;"/><path d="M23.5,637.6895 L23.5,664.6895 M10.5,645.6895 L36.5,645.6895 M23.5,664.6895 L10.5,679.6895 M23.5,664.6895 L36.5,679.6895 " fill="none" style="stroke:#181818;stroke-width:0.5;"/><rect fill="#E3E3E3" height="32.6211" rx="2.5" ry="2.5" style="stroke:#181818;stroke-width:0.5;" width="112" x="174.5" y="50"/><text fill="#000000" font-family="sans-serif" font-size="14" lengthAdjust="spacing" textLength="98" x="181.5" y="72.1074">:AgendaEntryUI</text><rect fill="#E3E3E3" height="32.6211" rx="2.5" ry="2.5" style="stroke:#181818;stroke-width:0.5;" width="112" x="174.5" y="602.5684"/><text fill="#000000" font-family="sans-serif" font-size="14" lengthAdjust="spacing" textLength="98" x="181.5" y="624.6758">:AgendaEntryUI</text><rect fill="#E3E3E3" height="32.6211" rx="2.5" ry="2.5" style="stroke:#181818;stroke-width:0.5;" width="219" x="471" y="50"/><text fill="#000000" font-family="sans-serif" font-size="14" lengthAdjust="spacing" textLength="201" x="478" y="72.1074">:TeamToAgendaEntryController</text><rect fill="#E3E3E3" height="32.6211" rx="2.5" ry="2.5" style="stroke:#181818;stroke-width:0.5;" width="219" x="471" y="602.5684"/><text fill="#000000" font-family="sans-serif" font-size="14" lengthAdjust="spacing" textLength="201" x="478" y="624.6758">:TeamToAgendaEntryController</text><rect fill="#E3E3E3" height="51.2422" rx="2.5" ry="2.5" style="stroke:#181818;stroke-width:0.5;" width="167" x="835" y="31.3789"/><text fill="#000000" font-family="sans-serif" font-size="14" lengthAdjust="spacing" textLength="153" x="842" y="53.4863">agendaEntryRepository:</text><text fill="#000000" font-family="sans-serif" font-size="14" lengthAdjust="spacing" textLength="150" x="843.5" y="72.1074">AgendaEntryRepository</text><rect fill="#E3E3E3" height="51.2422" rx="2.5" ry="2.5" style="stroke:#181818;stroke-width:0.5;" width="167" x="835" y="602.5684"/><text fill="#000000" font-family="sans-serif" font-size="14" lengthAdjust="spacing" textLength="153" x="842" y="624.6758">agendaEntryRepository:</text><text fill="#000000" font-family="sans-serif" font-size="14" lengthAdjust="spacing" textLength="150" x="843.5" y="643.2969">AgendaEntryRepository</text><rect fill="#E3E3E3" height="51.2422" rx="2.5" ry="2.5" style="stroke:#181818;stroke-width:0.5;" width="118" x="1012" y="31.3789"/><text fill="#000000" font-family="sans-serif" font-size="14" lengthAdjust="spacing" textLength="103" x="1019.5" y="53.4863">teamRepository:</text><text fill="#000000" font-family="sans-serif" font-size="14" lengthAdjust="spacing" textLength="104" x="1019" y="72.1074">TeamRepository</text><rect fill="#E3E3E3" height="51.2422" rx="2.5" ry="2.5" style="stroke:#181818;stroke-width:0.5;" width="118" x="1012" y="602.5684"/><text fill="#000000" font-family="sans-serif" font-size="14" lengthAdjust="spacing" textLength="103" x="1019.5" y="624.6758">teamRepository:</text><text fill="#000000" font-family="sans-serif" font-size="14" lengthAdjust="spacing" textLength="104" x="1019" y="643.2969">TeamRepository</text><rect fill="#E3E3E3" height="32.6211" rx="2.5" ry="2.5" style="stroke:#181818;stroke-width:0.5;" width="126" x="1140" y="50"/><text fill="#000000" font-family="sans-serif" font-size="14" lengthAdjust="spacing" textLength="112" x="1147" y="72.1074">AgendaEntryDTO</text><rect fill="#E3E3E3" height="32.6211" rx="2.5" ry="2.5" style="stroke:#181818;stroke-width:0.5;" width="126" x="1140" y="602.5684"/><text fill="#000000" font-family="sans-serif" font-size="14" lengthAdjust="spacing" textLength="112" x="1147" y="624.6758">AgendaEntryDTO</text><rect fill="#E3E3E3" height="32.6211" rx="2.5" ry="2.5" style="stroke:#181818;stroke-width:0.5;" width="96" x="1276" y="50"/><text fill="#000000" font-family="sans-serif" font-size="14" lengthAdjust="spacing" textLength="82" x="1283" y="72.1074">AgendaEntry</text><rect fill="#E3E3E3" height="32.6211" rx="2.5" ry="2.5" style="stroke:#181818;stroke-width:0.5;" width="96" x="1276" y="602.5684"/><text fill="#000000" font-family="sans-serif" font-size="14" lengthAdjust="spacing" textLength="82" x="1283" y="624.6758">AgendaEntry</text><rect fill="#E3E3E3" height="32.6211" rx="2.5" ry="2.5" style="stroke:#181818;stroke-width:0.5;" width="50" x="1382" y="50"/><text fill="#000000" font-family="sans-serif" font-size="14" lengthAdjust="spacing" textLength="36" x="1389" y="72.1074">Team</text><rect fill="#E3E3E3" height="32.6211" rx="2.5" ry="2.5" style="stroke:#181818;stroke-width:0.5;" width="50" x="1382" y="602.5684"/><text fill="#000000" font-family="sans-serif" font-size="14" lengthAdjust="spacing" textLength="36" x="1389" y="624.6758">Team</text><rect fill="#E3E3E3" height="32.6211" rx="2.5" ry="2.5" style="stroke:#181818;stroke-width:0.5;" width="128" x="1442" y="50"/><text fill="#000000" font-family="sans-serif" font-size="14" lengthAdjust="spacing" textLength="114" x="1449" y="72.1074">ApllicationSession</text><rect fill="#E3E3E3" height="32.6211" rx="2.5" ry="2.5" style="stroke:#181818;stroke-width:0.5;" width="128" x="1442" y="602.5684"/><text fill="#000000" font-family="sans-serif" font-size="14" lengthAdjust="spacing" textLength="114" x="1449" y="624.6758">ApllicationSession</text><rect fill="#FFFFFF" height="446.3652" style="stroke:#181818;stroke-width:1.0;" width="10" x="575.5" y="148.2031"/><rect fill="#FFFFFF" height="42.9365" style="stroke:#181818;stroke-width:1.0;" width="10" x="913.5" y="191.1396"/><rect fill="#FFFFFF" height="62.582" style="stroke:#181818;stroke-width:1.0;" width="10" x="913.5" y="351.2402"/><rect fill="#FFFFFF" height="42.9365" style="stroke:#181818;stroke-width:1.0;" width="10" x="1066" y="277.0127"/><polygon fill="#181818" points="218.5,112.9121,228.5,116.9121,218.5,120.9121,222.5,116.9121" style="stroke:#181818;stroke-width:1.0;"/><line style="stroke:#181818;stroke-width:1.0;" x1="23.5" x2="224.5" y1="116.9121" y2="116.9121"/><text fill="#000000" font-family="sans-serif" font-size="13" font-weight="bold" lengthAdjust="spacing" textLength="7" x="30.5" y="111.6494">1</text><text fill="#000000" font-family="sans-serif" font-size="13" lengthAdjust="spacing" textLength="133" x="41.5" y="111.6494">selects entry and team</text><polygon fill="#181818" points="563.5,144.2031,573.5,148.2031,563.5,152.2031,567.5,148.2031" style="stroke:#181818;stroke-width:1.0;"/><line style="stroke:#181818;stroke-width:1.0;" x1="230.5" x2="569.5" y1="148.2031" y2="148.2031"/><text fill="#000000" font-family="sans-serif" font-size="13" font-weight="bold" lengthAdjust="spacing" textLength="7" x="237.5" y="142.9404">2</text><text fill="#000000" font-family="sans-serif" font-size="13" lengthAdjust="spacing" textLength="315" x="248.5" y="142.9404">assignTeamToAgendaEntry(selectedEntry, teamEntry)</text><polygon fill="#181818" points="901.5,187.1396,911.5,191.1396,901.5,195.1396,905.5,191.1396" style="stroke:#181818;stroke-width:1.0;"/><line style="stroke:#181818;stroke-width:1.0;" x1="585.5" x2="907.5" y1="191.1396" y2="191.1396"/><text fill="#000000" font-family="sans-serif" font-size="13" font-weight="bold" lengthAdjust="spacing" textLength="7" x="592.5" y="185.877">3</text><text fill="#000000" font-family="sans-serif" font-size="13" lengthAdjust="spacing" textLength="241" x="603.5" y="185.877">getAgendaEntry(description, greenSpace)</text><path d="M928,161.2031 L928,205.2031 L1277,205.2031 L1277,171.2031 L1267,161.2031 L928,161.2031 " fill="#FAFAFA" style="stroke:#181818;stroke-width:0.5;"/><path d="M1267,161.2031 L1267,171.2031 L1277,171.2031 L1267,161.2031 " fill="#FAFAFA" style="stroke:#181818;stroke-width:0.5;"/><text fill="#000000" font-family="sans-serif" font-size="13" lengthAdjust="spacing" textLength="288" x="934" y="180.2314">iterates through the agenda entry list and gets the</text><text fill="#000000" font-family="sans-serif" font-size="13" lengthAdjust="spacing" textLength="324" x="938" y="197.5225">agenda entry by description and greenSpace of the DTO</text><polygon fill="#181818" points="596.5,230.0762,586.5,234.0762,596.5,238.0762,592.5,234.0762" style="stroke:#181818;stroke-width:1.0;"/><line style="stroke:#181818;stroke-width:1.0;stroke-dasharray:2.0,2.0;" x1="590.5" x2="917.5" y1="234.0762" y2="234.0762"/><text fill="#000000" font-family="sans-serif" font-size="13" font-weight="bold" lengthAdjust="spacing" textLength="7" x="602.5" y="228.8135">4</text><text fill="#000000" font-family="sans-serif" font-size="13" lengthAdjust="spacing" textLength="73" x="613.5" y="228.8135">agendaEntry</text><polygon fill="#181818" points="1054,273.0127,1064,277.0127,1054,281.0127,1058,277.0127" style="stroke:#181818;stroke-width:1.0;"/><line style="stroke:#181818;stroke-width:1.0;" x1="585.5" x2="1060" y1="277.0127" y2="277.0127"/><text fill="#000000" font-family="sans-serif" font-size="13" font-weight="bold" lengthAdjust="spacing" textLength="7" x="592.5" y="271.75">5</text><text fill="#000000" font-family="sans-serif" font-size="13" lengthAdjust="spacing" textLength="311" x="603.5" y="271.75">getTeamByCollaborators(teamDTO.getCollaborators())</text><path d="M1081,247.0762 L1081,291.0762 L1351,291.0762 L1351,257.0762 L1341,247.0762 L1081,247.0762 " fill="#FAFAFA" style="stroke:#181818;stroke-width:0.5;"/><path d="M1341,247.0762 L1341,257.0762 L1351,257.0762 L1341,247.0762 " fill="#FAFAFA" style="stroke:#181818;stroke-width:0.5;"/><text fill="#000000" font-family="sans-serif" font-size="13" lengthAdjust="spacing" textLength="249" x="1087" y="266.1045">iterates through the teams list and gets the</text><text fill="#000000" font-family="sans-serif" font-size="13" lengthAdjust="spacing" textLength="191" x="1091" y="283.3955">team by collaborator names DTO</text><polygon fill="#181818" points="596.5,315.9492,586.5,319.9492,596.5,323.9492,592.5,319.9492" style="stroke:#181818;stroke-width:1.0;"/><line style="stroke:#181818;stroke-width:1.0;stroke-dasharray:2.0,2.0;" x1="590.5" x2="1070" y1="319.9492" y2="319.9492"/><text fill="#000000" font-family="sans-serif" font-size="13" font-weight="bold" lengthAdjust="spacing" textLength="7" x="602.5" y="314.6865">6</text><text fill="#000000" font-family="sans-serif" font-size="13" lengthAdjust="spacing" textLength="29" x="613.5" y="314.6865">team</text><polygon fill="#181818" points="901.5,347.2402,911.5,351.2402,901.5,355.2402,905.5,351.2402" style="stroke:#181818;stroke-width:1.0;"/><line style="stroke:#181818;stroke-width:1.0;" x1="585.5" x2="907.5" y1="351.2402" y2="351.2402"/><text fill="#000000" font-family="sans-serif" font-size="13" font-weight="bold" lengthAdjust="spacing" textLength="7" x="592.5" y="345.9775">7</text><text fill="#000000" font-family="sans-serif" font-size="13" lengthAdjust="spacing" textLength="144" x="603.5" y="345.9775">assignTeam(entry, team)</text><polygon fill="#181818" points="1312,378.5313,1322,382.5313,1312,386.5313,1316,382.5313" style="stroke:#181818;stroke-width:1.0;"/><line style="stroke:#181818;stroke-width:1.0;" x1="923.5" x2="1318" y1="382.5313" y2="382.5313"/><text fill="#000000" font-family="sans-serif" font-size="13" font-weight="bold" lengthAdjust="spacing" textLength="7" x="930.5" y="377.2686">8</text><text fill="#000000" font-family="sans-serif" font-size="13" lengthAdjust="spacing" textLength="152" x="941.5" y="377.2686">setAssociatedTeam(team)</text><polygon fill="#181818" points="596.5,409.8223,586.5,413.8223,596.5,417.8223,592.5,413.8223" style="stroke:#181818;stroke-width:1.0;"/><line style="stroke:#181818;stroke-width:1.0;stroke-dasharray:2.0,2.0;" x1="590.5" x2="917.5" y1="413.8223" y2="413.8223"/><text fill="#000000" font-family="sans-serif" font-size="13" font-weight="bold" lengthAdjust="spacing" textLength="7" x="602.5" y="408.5596">9</text><text fill="#000000" font-family="sans-serif" font-size="13" lengthAdjust="spacing" textLength="105" x="613.5" y="408.5596">success/insucess</text><line style="stroke:#181818;stroke-width:1.0;" x1="585.5" x2="627.5" y1="450.2588" y2="450.2588"/><line style="stroke:#181818;stroke-width:1.0;" x1="627.5" x2="627.5" y1="450.2588" y2="463.2588"/><line style="stroke:#181818;stroke-width:1.0;" x1="586.5" x2="627.5" y1="463.2588" y2="463.2588"/><polygon fill="#181818" points="596.5,459.2588,586.5,463.2588,596.5,467.2588,592.5,463.2588" style="stroke:#181818;stroke-width:1.0;"/><text fill="#000000" font-family="sans-serif" font-size="13" font-weight="bold" lengthAdjust="spacing" textLength="14" x="592.5" y="444.9961">10</text><text fill="#000000" font-family="sans-serif" font-size="13" lengthAdjust="spacing" textLength="296" x="610.5" y="444.9961">sendNotificationEmails(entry.getAssociatedTeam())</text><path d="M316,426.8223 L316,470.8223 L570,470.8223 L570,436.8223 L560,426.8223 L316,426.8223 " fill="#FAFAFA" style="stroke:#181818;stroke-width:0.5;"/><path d="M560,426.8223 L560,436.8223 L570,436.8223 L560,426.8223 " fill="#FAFAFA" style="stroke:#181818;stroke-width:0.5;"/><text fill="#000000" font-family="sans-serif" font-size="13" lengthAdjust="spacing" textLength="233" x="322" y="445.8506">gets the collaborators for each team and</text><text fill="#000000" font-family="sans-serif" font-size="13" lengthAdjust="spacing" textLength="199" x="322" y="463.1416">gets the email of each collaborator</text><polygon fill="#181818" points="1494,507.3408,1504,511.3408,1494,515.3408,1498,511.3408" style="stroke:#181818;stroke-width:1.0;"/><line style="stroke:#181818;stroke-width:1.0;" x1="585.5" x2="1500" y1="511.3408" y2="511.3408"/><text fill="#000000" font-family="sans-serif" font-size="13" font-weight="bold" lengthAdjust="spacing" textLength="14" x="592.5" y="506.0781">11</text><text fill="#000000" font-family="sans-serif" font-size="13" lengthAdjust="spacing" textLength="101" x="610.5" y="506.0781">getEmailService()</text><path d="M1511,481.4043 L1511,525.4043 L1901,525.4043 L1901,491.4043 L1891,481.4043 L1511,481.4043 " fill="#FAFAFA" style="stroke:#181818;stroke-width:0.5;"/><path d="M1891,481.4043 L1891,491.4043 L1901,491.4043 L1891,481.4043 " fill="#FAFAFA" style="stroke:#181818;stroke-width:0.5;"/><text fill="#000000" font-family="sans-serif" font-size="13" lengthAdjust="spacing" textLength="353" x="1517" y="500.4326">goes to the config file and gets the property of the used email</text><text fill="#000000" font-family="sans-serif" font-size="13" lengthAdjust="spacing" textLength="365" x="1521" y="517.7236">service and then sends an email through EmailService interface</text><polygon fill="#181818" points="241.5,550.2773,231.5,554.2773,241.5,558.2773,237.5,554.2773" style="stroke:#181818;stroke-width:1.0;"/><line style="stroke:#181818;stroke-width:1.0;stroke-dasharray:2.0,2.0;" x1="235.5" x2="574.5" y1="554.2773" y2="554.2773"/><text fill="#000000" font-family="sans-serif" font-size="13" font-weight="bold" lengthAdjust="spacing" textLength="14" x="247.5" y="549.0146">12</text><text fill="#000000" font-family="sans-serif" font-size="13" lengthAdjust="spacing" textLength="112" x="265.5" y="549.0146">success/insuccess</text><polygon fill="#181818" points="34.5,581.5684,24.5,585.5684,34.5,589.5684,30.5,585.5684" style="stroke:#181818;stroke-width:1.0;"/><line style="stroke:#181818;stroke-width:1.0;stroke-dasharray:2.0,2.0;" x1="28.5" x2="229.5" y1="585.5684" y2="585.5684"/><text fill="#000000" font-family="sans-serif" font-size="13" font-weight="bold" lengthAdjust="spacing" textLength="14" x="40.5" y="580.3057">13</text><text fill="#000000" font-family="sans-serif" font-size="13" lengthAdjust="spacing" textLength="165" x="58.5" y="580.3057">shows (in)success message</text><!--SRC=[ZLLDRzim3BtxLn0v9K2ptNqea6t5iCCsOCbkkIWoRHEL9K6IM-JVZvA_v3H3UubbwV6HV7nM_3DfAvpee3FQoDQP3Y6u7Wi_drWXdqM3nt1L20vb4BfHES2teZAlf1keXV9O5A8FHlVT1HslPJ0EDj-FFpSWFF2puAX0agpG0JRbeK5TYISTtFNlZuJfwGPoGj6TJ0RyQlZNA8NC72DaS6eT8nRm7xJ64rTnBS_wS6y_SGmHSNFD53ZvYkAqsaYn4sOTcUNwTlgTWEkj_yApWjBx6XWBcDFUS5YbI8f0HX_HUtuCLDOM1KiF-qTMjmIFYkVe0ICv25qDL3tj7wEK9STuQlGRtRT385RfxI55fUKkpfbUHC1X5aNyZTaMLKjeCEHS5NhfoCPQ7w1nYFh8LiDTeGtJE6hQK085TCpAlR8t-wRb9uwaO_MAV4WjC7s4uLcl0PShPAa6w9mDJ9qeupJc5Z8hBCizTpEAamscmdjHS_kJCLBpKSulx5sbnCLmLyRvRGHmxazyl3xOVK276Epl2X1FOkCoumGjEYPOTJeRTrh0qcQoHDRVZBqxtCKnMrpCiNj7r8KboHcT6GxU6qaSKYMsaURE77ml9PlyCsbUyUAzOOnHVF3B1Ah7x-If4wJyK7GSmqtwQGuAwr3E4g-4zL2pkfox7NJdMPprZCJ87ssM07dSegEraBXJBKTqBoHnkpP0O-BmpPXSryItBV65d0yUh3CMNRXEhkuzLaC1x0a_y0wVUuiwAS5tWnvBd9oL5m6asNWrVoYJZDCDacl_Hdo-RdfAMBvq6DoQLmzRqhiH36n4poCgygZur_0F]--></g></svg>