<?xml version="1.0" encoding="us-ascii" standalone="no"?><svg xmlns="http://www.w3.org/2000/svg" xmlns:xlink="http://www.w3.org/1999/xlink" contentStyleType="text/css" height="829.6px" preserveAspectRatio="none" style="width:1421px;height:829px;background:#FFFFFF;" version="1.1" viewBox="0 0 1421 829" width="1421.6px" zoomAndPan="magnify"><defs/><g><rect fill="#FFFFFF" height="674.3094" style="stroke:#181818;stroke-width:0.8000000000000002;" width="8" x="14.8" y="74.8969"/><rect fill="#FFFFFF" height="655.6766" style="stroke:#181818;stroke-width:0.8000000000000002;" width="8" x="233.2" y="93.5297"/><rect fill="#FFFFFF" height="348.6188" style="stroke:#181818;stroke-width:0.8000000000000002;" width="8" x="466" y="126.5625"/><rect fill="#FFFFFF" height="160.0609" style="stroke:#181818;stroke-width:0.8000000000000002;" width="8" x="466" y="564.1125"/><rect fill="#FFFFFF" height="25.0328" style="stroke:#181818;stroke-width:0.8000000000000002;" width="8" x="595.2" y="213.3891"/><rect fill="#FFFFFF" height="25.0328" style="stroke:#181818;stroke-width:0.8000000000000002;" width="8" x="680.8" y="263.4547"/><rect fill="#FFFFFF" height="25.0328" style="stroke:#181818;stroke-width:0.8000000000000002;" width="8" x="870.8" y="313.5203"/><rect fill="#FFFFFF" height="25.0328" style="stroke:#181818;stroke-width:0.8000000000000002;" width="8" x="870.8" y="589.1453"/><rect fill="#FFFFFF" height="25.0328" style="stroke:#181818;stroke-width:0.8000000000000002;" width="8" x="870.8" y="674.1078"/><rect fill="#FFFFFF" height="86.5625" style="stroke:#181818;stroke-width:0.8000000000000002;" width="8" x="1003.2" y="363.5859"/><rect fill="#FFFFFF" height="13.8641" style="stroke:#181818;stroke-width:0.8000000000000002;" width="8" x="1277.6" y="417.6516"/><rect fill="none" height="50.3297" style="stroke:#000000;stroke-width:1.2000000000000002;" width="398.4" x="941.6" y="375.5859"/><line style="stroke:#181818;stroke-width:0.4000000000000001;stroke-dasharray:5.0,5.0;" x1="18.4" x2="18.4" y1="66.8969" y2="763.6063"/><line style="stroke:#181818;stroke-width:0.4000000000000001;stroke-dasharray:5.0,5.0;" x1="237.2" x2="237.2" y1="66.8969" y2="763.6063"/><line style="stroke:#181818;stroke-width:0.4000000000000001;stroke-dasharray:5.0,5.0;" x1="470" x2="470" y1="125.3781" y2="763.6063"/><line style="stroke:#181818;stroke-width:0.4000000000000001;stroke-dasharray:5.0,5.0;" x1="598.8" x2="598.8" y1="66.8969" y2="763.6063"/><line style="stroke:#181818;stroke-width:0.4000000000000001;stroke-dasharray:5.0,5.0;" x1="684.4" x2="684.4" y1="66.8969" y2="763.6063"/><line style="stroke:#181818;stroke-width:0.4000000000000001;stroke-dasharray:5.0,5.0;" x1="874.4" x2="874.4" y1="66.8969" y2="763.6063"/><line style="stroke:#181818;stroke-width:0.4000000000000001;stroke-dasharray:5.0,5.0;" x1="1007.2" x2="1007.2" y1="185.3078" y2="763.6063"/><line style="stroke:#181818;stroke-width:0.4000000000000001;stroke-dasharray:5.0,5.0;" x1="1281.6" x2="1281.6" y1="416.4672" y2="763.6063"/><line style="stroke:#181818;stroke-width:0.4000000000000001;stroke-dasharray:5.0,5.0;" x1="1378.4" x2="1378.4" y1="646.0266" y2="763.6063"/><text fill="#000000" font-family="sans-serif" font-size="11.2" lengthAdjust="spacing" textLength="24.8" x="4" y="64.0859">GSM</text><ellipse cx="18.8" cy="10.8" fill="#E3E3E3" rx="6.4" ry="6.4" style="stroke:#181818;stroke-width:0.4000000000000001;"/><path d="M18.8,17.2 L18.8,38.8 M8.4,23.6 L29.2,23.6 M18.8,38.8 L8.4,50.8 M18.8,38.8 L29.2,50.8 " fill="none" style="stroke:#181818;stroke-width:0.4000000000000001;"/><text fill="#000000" font-family="sans-serif" font-size="11.2" lengthAdjust="spacing" textLength="24.8" x="4" y="774.8922">GSM</text><ellipse cx="18.8" cy="784.5031" fill="#E3E3E3" rx="6.4" ry="6.4" style="stroke:#181818;stroke-width:0.4000000000000001;"/><path d="M18.8,790.9031 L18.8,812.5031 M8.4,797.3031 L29.2,797.3031 M18.8,812.5031 L8.4,824.5031 M18.8,812.5031 L29.2,824.5031 " fill="none" style="stroke:#181818;stroke-width:0.4000000000000001;"/><rect fill="#E3E3E3" height="26.0969" rx="2" ry="2" style="stroke:#181818;stroke-width:0.4000000000000001;" width="89.6" x="192.4" y="40"/><text fill="#000000" font-family="sans-serif" font-size="11.2" lengthAdjust="spacing" textLength="78.4" x="198" y="57.6859">:AgendaEntryUI</text><rect fill="#E3E3E3" height="26.0969" rx="2" ry="2" style="stroke:#181818;stroke-width:0.4000000000000001;" width="89.6" x="192.4" y="762.8063"/><text fill="#000000" font-family="sans-serif" font-size="11.2" lengthAdjust="spacing" textLength="78.4" x="198" y="780.4922">:AgendaEntryUI</text><rect fill="#E3E3E3" height="26.0969" rx="2" ry="2" style="stroke:#181818;stroke-width:0.4000000000000001;" width="164.8" x="387.6" y="762.8063"/><text fill="#000000" font-family="sans-serif" font-size="11.2" lengthAdjust="spacing" textLength="153.6" x="393.2" y="780.4922">:CancelAgendaEntryController</text><rect fill="#E3E3E3" height="26.0969" rx="2" ry="2" style="stroke:#181818;stroke-width:0.4000000000000001;" width="77.6" x="560.4" y="40"/><text fill="#000000" font-family="sans-serif" font-size="11.2" lengthAdjust="spacing" textLength="66.4" x="566" y="57.6859">:Repositories</text><rect fill="#E3E3E3" height="26.0969" rx="2" ry="2" style="stroke:#181818;stroke-width:0.4000000000000001;" width="77.6" x="560.4" y="762.8063"/><text fill="#000000" font-family="sans-serif" font-size="11.2" lengthAdjust="spacing" textLength="66.4" x="566" y="780.4922">:Repositories</text><rect fill="#E3E3E3" height="40.9938" rx="2" ry="2" style="stroke:#181818;stroke-width:0.4000000000000001;" width="77.6" x="646" y="25.1031"/><text fill="#000000" font-family="sans-serif" font-size="11.2" lengthAdjust="spacing" textLength="59.2" x="655.2" y="42.7891">repositories</text><text fill="#000000" font-family="sans-serif" font-size="11.2" lengthAdjust="spacing" textLength="66.4" x="651.6" y="57.6859">:Repositories</text><rect fill="#E3E3E3" height="40.9938" rx="2" ry="2" style="stroke:#181818;stroke-width:0.4000000000000001;" width="77.6" x="646" y="762.8063"/><text fill="#000000" font-family="sans-serif" font-size="11.2" lengthAdjust="spacing" textLength="59.2" x="655.2" y="780.4922">repositories</text><text fill="#000000" font-family="sans-serif" font-size="11.2" lengthAdjust="spacing" textLength="66.4" x="651.6" y="795.3891">:Repositories</text><rect fill="#E3E3E3" height="40.9938" rx="2" ry="2" style="stroke:#181818;stroke-width:0.4000000000000001;" width="133.6" x="808" y="25.1031"/><text fill="#000000" font-family="sans-serif" font-size="11.2" lengthAdjust="spacing" textLength="122.4" x="813.6" y="42.7891">agendaEntryRepository:</text><text fill="#000000" font-family="sans-serif" font-size="11.2" lengthAdjust="spacing" textLength="120" x="814.8" y="57.6859">AgendaEntryRepository</text><rect fill="#E3E3E3" height="40.9938" rx="2" ry="2" style="stroke:#181818;stroke-width:0.4000000000000001;" width="133.6" x="808" y="762.8063"/><text fill="#000000" font-family="sans-serif" font-size="11.2" lengthAdjust="spacing" textLength="122.4" x="813.6" y="780.4922">agendaEntryRepository:</text><text fill="#000000" font-family="sans-serif" font-size="11.2" lengthAdjust="spacing" textLength="120" x="814.8" y="795.3891">AgendaEntryRepository</text><rect fill="#E3E3E3" height="26.0969" rx="2" ry="2" style="stroke:#181818;stroke-width:0.4000000000000001;" width="115.2" x="949.6" y="762.8063"/><text fill="#000000" font-family="sans-serif" font-size="11.2" lengthAdjust="spacing" textLength="104" x="955.2" y="780.4922">AgendaEntryMapper</text><rect fill="#E3E3E3" height="26.0969" rx="2" ry="2" style="stroke:#181818;stroke-width:0.4000000000000001;" width="100.8" x="1231.2" y="762.8063"/><text fill="#000000" font-family="sans-serif" font-size="11.2" lengthAdjust="spacing" textLength="89.6" x="1236.8" y="780.4922">AgendaEntryDTO</text><rect fill="#E3E3E3" height="26.0969" rx="2" ry="2" style="stroke:#181818;stroke-width:0.4000000000000001;" width="76.8" x="1340" y="762.8063"/><text fill="#000000" font-family="sans-serif" font-size="11.2" lengthAdjust="spacing" textLength="65.6" x="1345.6" y="780.4922">AgendaEntry</text><rect fill="#FFFFFF" height="674.3094" style="stroke:#181818;stroke-width:0.8000000000000002;" width="8" x="14.8" y="74.8969"/><rect fill="#FFFFFF" height="655.6766" style="stroke:#181818;stroke-width:0.8000000000000002;" width="8" x="233.2" y="93.5297"/><rect fill="#FFFFFF" height="348.6188" style="stroke:#181818;stroke-width:0.8000000000000002;" width="8" x="466" y="126.5625"/><rect fill="#FFFFFF" height="160.0609" style="stroke:#181818;stroke-width:0.8000000000000002;" width="8" x="466" y="564.1125"/><rect fill="#FFFFFF" height="25.0328" style="stroke:#181818;stroke-width:0.8000000000000002;" width="8" x="595.2" y="213.3891"/><rect fill="#FFFFFF" height="25.0328" style="stroke:#181818;stroke-width:0.8000000000000002;" width="8" x="680.8" y="263.4547"/><rect fill="#FFFFFF" height="25.0328" style="stroke:#181818;stroke-width:0.8000000000000002;" width="8" x="870.8" y="313.5203"/><rect fill="#FFFFFF" height="25.0328" style="stroke:#181818;stroke-width:0.8000000000000002;" width="8" x="870.8" y="589.1453"/><rect fill="#FFFFFF" height="25.0328" style="stroke:#181818;stroke-width:0.8000000000000002;" width="8" x="870.8" y="674.1078"/><rect fill="#FFFFFF" height="86.5625" style="stroke:#181818;stroke-width:0.8000000000000002;" width="8" x="1003.2" y="363.5859"/><rect fill="#FFFFFF" height="13.8641" style="stroke:#181818;stroke-width:0.8000000000000002;" width="8" x="1277.6" y="417.6516"/><polygon fill="#181818" points="223.6,90.3297,231.6,93.5297,223.6,96.7297,226.8,93.5297" style="stroke:#181818;stroke-width:0.8000000000000002;"/><line style="stroke:#181818;stroke-width:0.8000000000000002;" x1="22.8" x2="228.4" y1="93.5297" y2="93.5297"/><text fill="#000000" font-family="sans-serif" font-size="10.4" font-weight="bold" lengthAdjust="spacing" textLength="5.6" x="28.4" y="89.3195">1</text><text fill="#000000" font-family="sans-serif" font-size="10.4" lengthAdjust="spacing" textLength="179.2" x="37.2" y="89.3195">asks to cancel an entry on the Agenda</text><polygon fill="#181818" points="378,115.3625,386,118.5625,378,121.7625,381.2,118.5625" style="stroke:#181818;stroke-width:0.8000000000000002;"/><line style="stroke:#181818;stroke-width:0.8000000000000002;" x1="241.2" x2="382.8" y1="118.5625" y2="118.5625"/><text fill="#000000" font-family="sans-serif" font-size="10.4" font-weight="bold" lengthAdjust="spacing" textLength="5.6" x="246.8" y="114.3523">2</text><text fill="#000000" font-family="sans-serif" font-size="10.4" lengthAdjust="spacing" textLength="28.8" x="255.6" y="114.3523">create</text><rect fill="#E3E3E3" height="26.0969" rx="2" ry="2" style="stroke:#181818;stroke-width:0.4000000000000001;" width="164.8" x="387.6" y="99.9297"/><text fill="#000000" font-family="sans-serif" font-size="11.2" lengthAdjust="spacing" textLength="153.6" x="393.2" y="117.6156">:CancelAgendaEntryController</text><polygon fill="#181818" points="456.4,150.2594,464.4,153.4594,456.4,156.6594,459.6,153.4594" style="stroke:#181818;stroke-width:0.8000000000000002;"/><line style="stroke:#181818;stroke-width:0.8000000000000002;" x1="241.2" x2="461.2" y1="153.4594" y2="153.4594"/><text fill="#000000" font-family="sans-serif" font-size="10.4" font-weight="bold" lengthAdjust="spacing" textLength="5.6" x="246.8" y="149.2492">3</text><text fill="#000000" font-family="sans-serif" font-size="10.4" lengthAdjust="spacing" textLength="118.4" x="255.6" y="149.2492">getAgendaEntryDTOList()</text><polygon fill="#181818" points="940,175.2922,948,178.4922,940,181.6922,943.2,178.4922" style="stroke:#181818;stroke-width:0.8000000000000002;"/><line style="stroke:#181818;stroke-width:0.8000000000000002;" x1="474" x2="944.8" y1="178.4922" y2="178.4922"/><text fill="#000000" font-family="sans-serif" font-size="10.4" font-weight="bold" lengthAdjust="spacing" textLength="5.6" x="479.6" y="174.282">4</text><text fill="#000000" font-family="sans-serif" font-size="10.4" lengthAdjust="spacing" textLength="28.8" x="488.4" y="174.282">create</text><rect fill="#E3E3E3" height="26.0969" rx="2" ry="2" style="stroke:#181818;stroke-width:0.4000000000000001;" width="115.2" x="949.6" y="159.8594"/><text fill="#000000" font-family="sans-serif" font-size="11.2" lengthAdjust="spacing" textLength="104" x="955.2" y="177.5453">AgendaEntryMapper</text><polygon fill="#181818" points="585.6,210.1891,593.6,213.3891,585.6,216.5891,588.8,213.3891" style="stroke:#181818;stroke-width:0.8000000000000002;"/><line style="stroke:#181818;stroke-width:0.8000000000000002;" x1="474" x2="590.4" y1="213.3891" y2="213.3891"/><text fill="#000000" font-family="sans-serif" font-size="10.4" font-weight="bold" lengthAdjust="spacing" textLength="5.6" x="479.6" y="209.1789">5</text><text fill="#000000" font-family="sans-serif" font-size="10.4" lengthAdjust="spacing" textLength="60" x="488.4" y="209.1789">getInstance()</text><polygon fill="#181818" points="482.8,235.2219,474.8,238.4219,482.8,241.6219,479.6,238.4219" style="stroke:#181818;stroke-width:0.8000000000000002;"/><line style="stroke:#181818;stroke-width:0.8000000000000002;stroke-dasharray:2.0,2.0;" x1="478" x2="598.4" y1="238.4219" y2="238.4219"/><text fill="#000000" font-family="sans-serif" font-size="10.4" font-weight="bold" lengthAdjust="spacing" textLength="5.6" x="487.6" y="234.2117">6</text><text fill="#000000" font-family="sans-serif" font-size="10.4" lengthAdjust="spacing" textLength="53.6" x="496.4" y="234.2117">repositories</text><polygon fill="#181818" points="671.2,260.2547,679.2,263.4547,671.2,266.6547,674.4,263.4547" style="stroke:#181818;stroke-width:0.8000000000000002;"/><line style="stroke:#181818;stroke-width:0.8000000000000002;" x1="474" x2="676" y1="263.4547" y2="263.4547"/><text fill="#000000" font-family="sans-serif" font-size="10.4" font-weight="bold" lengthAdjust="spacing" textLength="5.6" x="479.6" y="259.2445">7</text><text fill="#000000" font-family="sans-serif" font-size="10.4" lengthAdjust="spacing" textLength="130.4" x="488.4" y="259.2445">getAgendaEntryRepository()</text><polygon fill="#181818" points="482.8,285.2875,474.8,288.4875,482.8,291.6875,479.6,288.4875" style="stroke:#181818;stroke-width:0.8000000000000002;"/><line style="stroke:#181818;stroke-width:0.8000000000000002;stroke-dasharray:2.0,2.0;" x1="478" x2="684" y1="288.4875" y2="288.4875"/><text fill="#000000" font-family="sans-serif" font-size="10.4" font-weight="bold" lengthAdjust="spacing" textLength="5.6" x="487.6" y="284.2773">8</text><text fill="#000000" font-family="sans-serif" font-size="10.4" lengthAdjust="spacing" textLength="116" x="496.4" y="284.2773">AgendaEntryRepository()</text><polygon fill="#181818" points="861.2,310.3203,869.2,313.5203,861.2,316.7203,864.4,313.5203" style="stroke:#181818;stroke-width:0.8000000000000002;"/><line style="stroke:#181818;stroke-width:0.8000000000000002;" x1="474" x2="866" y1="313.5203" y2="313.5203"/><text fill="#000000" font-family="sans-serif" font-size="10.4" font-weight="bold" lengthAdjust="spacing" textLength="5.6" x="479.6" y="309.3102">9</text><text fill="#000000" font-family="sans-serif" font-size="10.4" lengthAdjust="spacing" textLength="97.6" x="488.4" y="309.3102">getAgendaEntryList()</text><polygon fill="#181818" points="482.8,335.3531,474.8,338.5531,482.8,341.7531,479.6,338.5531" style="stroke:#181818;stroke-width:0.8000000000000002;"/><line style="stroke:#181818;stroke-width:0.8000000000000002;stroke-dasharray:2.0,2.0;" x1="478" x2="874" y1="338.5531" y2="338.5531"/><text fill="#000000" font-family="sans-serif" font-size="10.4" font-weight="bold" lengthAdjust="spacing" textLength="11.2" x="487.6" y="334.343">10</text><text fill="#000000" font-family="sans-serif" font-size="10.4" lengthAdjust="spacing" textLength="75.2" x="502" y="334.343">agendaEntryList</text><polygon fill="#181818" points="993.6,360.3859,1001.6,363.5859,993.6,366.7859,996.8,363.5859" style="stroke:#181818;stroke-width:0.8000000000000002;"/><line style="stroke:#181818;stroke-width:0.8000000000000002;" x1="474" x2="998.4" y1="363.5859" y2="363.5859"/><text fill="#000000" font-family="sans-serif" font-size="10.4" font-weight="bold" lengthAdjust="spacing" textLength="11.2" x="479.6" y="359.3758">11</text><text fill="#000000" font-family="sans-serif" font-size="10.4" lengthAdjust="spacing" textLength="123.2" x="494" y="359.3758">toDtoList(agendaEntryList)</text><path d="M941.6,375.5859 L1000,375.5859 L1000,383.0188 L992,391.0188 L941.6,391.0188 L941.6,375.5859 " fill="#EEEEEE" style="stroke:#000000;stroke-width:1.2000000000000002;"/><rect fill="none" height="50.3297" style="stroke:#000000;stroke-width:1.2000000000000002;" width="398.4" x="941.6" y="375.5859"/><text fill="#000000" font-family="sans-serif" font-size="10.4" font-weight="bold" lengthAdjust="spacing" textLength="22.4" x="953.6" y="387.6086">loop</text><text fill="#000000" font-family="sans-serif" font-size="8.8" font-weight="bold" lengthAdjust="spacing" textLength="183.2" x="1012" y="386.682">[for each agendaEntry in agendaEntryList]</text><polygon fill="#181818" points="1221.6,406.4516,1229.6,409.6516,1221.6,412.8516,1224.8,409.6516" style="stroke:#181818;stroke-width:0.8000000000000002;"/><line style="stroke:#181818;stroke-width:0.8000000000000002;" x1="1011.2" x2="1226.4" y1="409.6516" y2="409.6516"/><text fill="#000000" font-family="sans-serif" font-size="10.4" font-weight="bold" lengthAdjust="spacing" textLength="11.2" x="1016.8" y="405.4414">12</text><text fill="#000000" font-family="sans-serif" font-size="10.4" lengthAdjust="spacing" textLength="186.4" x="1031.2" y="405.4414">agendaEntryDTO = toDTO(agendaEntry)</text><rect fill="#E3E3E3" height="26.0969" rx="2" ry="2" style="stroke:#181818;stroke-width:0.4000000000000001;" width="100.8" x="1231.2" y="391.0188"/><text fill="#000000" font-family="sans-serif" font-size="11.2" lengthAdjust="spacing" textLength="89.6" x="1236.8" y="408.7047">AgendaEntryDTO</text><polygon fill="#181818" points="482.8,446.9484,474.8,450.1484,482.8,453.3484,479.6,450.1484" style="stroke:#181818;stroke-width:0.8000000000000002;"/><line style="stroke:#181818;stroke-width:0.8000000000000002;stroke-dasharray:2.0,2.0;" x1="478" x2="1006.4" y1="450.1484" y2="450.1484"/><text fill="#000000" font-family="sans-serif" font-size="10.4" font-weight="bold" lengthAdjust="spacing" textLength="11.2" x="487.6" y="445.9383">13</text><text fill="#000000" font-family="sans-serif" font-size="10.4" lengthAdjust="spacing" textLength="96" x="502" y="445.9383">agendaEntryDTOList</text><polygon fill="#181818" points="250,471.9813,242,475.1813,250,478.3813,246.8,475.1813" style="stroke:#181818;stroke-width:0.8000000000000002;"/><line style="stroke:#181818;stroke-width:0.8000000000000002;stroke-dasharray:2.0,2.0;" x1="245.2" x2="469.2" y1="475.1813" y2="475.1813"/><text fill="#000000" font-family="sans-serif" font-size="10.4" font-weight="bold" lengthAdjust="spacing" textLength="11.2" x="254.8" y="470.9711">14</text><text fill="#000000" font-family="sans-serif" font-size="10.4" lengthAdjust="spacing" textLength="96" x="269.2" y="470.9711">agendaEntryDTOList</text><polygon fill="#181818" points="31.6,510.8469,23.6,514.0469,31.6,517.2469,28.4,514.0469" style="stroke:#181818;stroke-width:0.8000000000000002;"/><line style="stroke:#181818;stroke-width:0.8000000000000002;stroke-dasharray:2.0,2.0;" x1="26.8" x2="232.4" y1="514.0469" y2="514.0469"/><text fill="#000000" font-family="sans-serif" font-size="10.4" font-weight="bold" lengthAdjust="spacing" textLength="11.2" x="36.4" y="502.9203">15</text><text fill="#000000" font-family="sans-serif" font-size="10.4" lengthAdjust="spacing" textLength="176.8" x="50.8" y="496.0039">shows the list of entries in the Agenda</text><text fill="#000000" font-family="sans-serif" font-size="10.4" lengthAdjust="spacing" textLength="105.6" x="54" y="509.8367">and asks to select one</text><polygon fill="#181818" points="223.6,535.8797,231.6,539.0797,223.6,542.2797,226.8,539.0797" style="stroke:#181818;stroke-width:0.8000000000000002;"/><line style="stroke:#181818;stroke-width:0.8000000000000002;" x1="22.8" x2="228.4" y1="539.0797" y2="539.0797"/><text fill="#000000" font-family="sans-serif" font-size="10.4" font-weight="bold" lengthAdjust="spacing" textLength="11.2" x="28.4" y="534.8695">16</text><text fill="#000000" font-family="sans-serif" font-size="10.4" lengthAdjust="spacing" textLength="74.4" x="42.8" y="534.8695">selects an entry</text><polygon fill="#181818" points="456.4,560.9125,464.4,564.1125,456.4,567.3125,459.6,564.1125" style="stroke:#181818;stroke-width:0.8000000000000002;"/><line style="stroke:#181818;stroke-width:0.8000000000000002;" x1="241.2" x2="461.2" y1="564.1125" y2="564.1125"/><text fill="#000000" font-family="sans-serif" font-size="10.4" font-weight="bold" lengthAdjust="spacing" textLength="11.2" x="246.8" y="559.9023">17</text><text fill="#000000" font-family="sans-serif" font-size="10.4" lengthAdjust="spacing" textLength="195.2" x="261.2" y="559.9023">cancelAgendaEntry(AgendaEntryDTO dto)</text><polygon fill="#181818" points="861.2,585.9453,869.2,589.1453,861.2,592.3453,864.4,589.1453" style="stroke:#181818;stroke-width:0.8000000000000002;"/><line style="stroke:#181818;stroke-width:0.8000000000000002;" x1="474" x2="866" y1="589.1453" y2="589.1453"/><text fill="#000000" font-family="sans-serif" font-size="10.4" font-weight="bold" lengthAdjust="spacing" textLength="11.2" x="479.6" y="584.9352">18</text><text fill="#000000" font-family="sans-serif" font-size="10.4" lengthAdjust="spacing" textLength="367.2" x="494" y="584.9352">getAgendaEntryByDescriptionAndGreenspace(dto.description, dto.greenSpace)</text><polygon fill="#181818" points="482.8,610.9781,474.8,614.1781,482.8,617.3781,479.6,614.1781" style="stroke:#181818;stroke-width:0.8000000000000002;"/><line style="stroke:#181818;stroke-width:0.8000000000000002;stroke-dasharray:2.0,2.0;" x1="478" x2="874" y1="614.1781" y2="614.1781"/><text fill="#000000" font-family="sans-serif" font-size="10.4" font-weight="bold" lengthAdjust="spacing" textLength="11.2" x="487.6" y="609.968">19</text><text fill="#000000" font-family="sans-serif" font-size="10.4" lengthAdjust="spacing" textLength="58.4" x="502" y="609.968">agendaEntry</text><polygon fill="#181818" points="1330.4,636.0109,1338.4,639.2109,1330.4,642.4109,1333.6,639.2109" style="stroke:#181818;stroke-width:0.8000000000000002;"/><line style="stroke:#181818;stroke-width:0.8000000000000002;" x1="474" x2="1335.2" y1="639.2109" y2="639.2109"/><text fill="#000000" font-family="sans-serif" font-size="10.4" font-weight="bold" lengthAdjust="spacing" textLength="11.2" x="479.6" y="635.0008">20</text><text fill="#000000" font-family="sans-serif" font-size="10.4" lengthAdjust="spacing" textLength="28.8" x="494" y="635.0008">create</text><rect fill="#E3E3E3" height="26.0969" rx="2" ry="2" style="stroke:#181818;stroke-width:0.4000000000000001;" width="76.8" x="1340" y="620.5781"/><text fill="#000000" font-family="sans-serif" font-size="11.2" lengthAdjust="spacing" textLength="65.6" x="1345.6" y="638.2641">AgendaEntry</text><polygon fill="#181818" points="861.2,670.9078,869.2,674.1078,861.2,677.3078,864.4,674.1078" style="stroke:#181818;stroke-width:0.8000000000000002;"/><line style="stroke:#181818;stroke-width:0.8000000000000002;" x1="474" x2="866" y1="674.1078" y2="674.1078"/><text fill="#000000" font-family="sans-serif" font-size="10.4" font-weight="bold" lengthAdjust="spacing" textLength="11.2" x="479.6" y="669.8977">21</text><text fill="#000000" font-family="sans-serif" font-size="10.4" lengthAdjust="spacing" textLength="187.2" x="494" y="669.8977">update(entry, EntryStatus.CANCELLED)</text><polygon fill="#181818" points="482.8,695.9406,474.8,699.1406,482.8,702.3406,479.6,699.1406" style="stroke:#181818;stroke-width:0.8000000000000002;"/><line style="stroke:#181818;stroke-width:0.8000000000000002;stroke-dasharray:2.0,2.0;" x1="478" x2="874" y1="699.1406" y2="699.1406"/><text fill="#000000" font-family="sans-serif" font-size="10.4" font-weight="bold" lengthAdjust="spacing" textLength="11.2" x="487.6" y="694.9305">22</text><text fill="#000000" font-family="sans-serif" font-size="10.4" lengthAdjust="spacing" textLength="89.6" x="502" y="694.9305">success/insuccess</text><polygon fill="#181818" points="250,720.9734,242,724.1734,250,727.3734,246.8,724.1734" style="stroke:#181818;stroke-width:0.8000000000000002;"/><line style="stroke:#181818;stroke-width:0.8000000000000002;stroke-dasharray:2.0,2.0;" x1="245.2" x2="469.2" y1="724.1734" y2="724.1734"/><text fill="#000000" font-family="sans-serif" font-size="10.4" font-weight="bold" lengthAdjust="spacing" textLength="11.2" x="254.8" y="719.9633">23</text><text fill="#000000" font-family="sans-serif" font-size="10.4" lengthAdjust="spacing" textLength="89.6" x="269.2" y="719.9633">success/insuccess</text><polygon fill="#181818" points="27.6,746.0063,19.6,749.2063,27.6,752.4063,24.4,749.2063" style="stroke:#181818;stroke-width:0.8000000000000002;"/><line style="stroke:#181818;stroke-width:0.8000000000000002;stroke-dasharray:2.0,2.0;" x1="22.8" x2="236.4" y1="749.2063" y2="749.2063"/><text fill="#000000" font-family="sans-serif" font-size="10.4" font-weight="bold" lengthAdjust="spacing" textLength="11.2" x="32.4" y="744.9961">24</text><text fill="#000000" font-family="sans-serif" font-size="10.4" lengthAdjust="spacing" textLength="132" x="46.8" y="744.9961">shows (in)success message</text><!--SRC=[fLPDRzim3BtxLn2vB2dQx1vW0x8aA0Aawz2ajrnKct64E98XAUloxqSfXhyasndcGrgOv2CVAJvPdxZ8cM9dE4iXuwEIPmIZBXZfqfAp-CHIt9fhXg0mDaoaMTr17raYFxb8uS0oZL74BaQAo_a3LHHzEV84uI2b-P1_8XORgM3ql7qP0TD0VoF2C3pcEHC6HhDvYY9XAs7KzNtjVDxNBPS54p5cDSU5f5-PPQXSm6Btjcc5l64kDQVK7BNpALzSjzooeNgR8QeMiHS-mA_DVDUCO5L15VfiB-QXzsKHJOoQxmlBSoBKQL_kNhkDeoYohUQ_cK7Nv0XQ3xs4f-_KN9XHAISDHaBi6WjC05eGa0BC4U66wqEK2MX2df602TwEuk61KiGAoRCRmitCCnDA0JA354sJ_OPhCvxuGTQTeWAzh5ToUqAnjkx0yG1NmbfeOxj4YJkvXCwMJusUK9Qdad3z17hX2VQdwsHcposqkrb1zF5oHpv8n85MbT-BN2Dnm-wTXrTrSG1wv-13EgYgLjR46sfqxwa973agsiYbaQxMLgwUqaD246Xz9cLEqgg0YZpMgG0N7ZC_F5HlYuPL6RSshF4ElbbQkzSwfKdeR0GPEUdoVSdUrtuF8RgBJp5fZyBGj8CZWF3eIo4Tpb1FqI5wJZi9qahqZ2vN-QcT3cU41_BWn9aqmSwuakSz3LmafPHhpEYY9WN7qBaXP5VohF3JfUQ7XBpSbRXzyOwR8u74oCc_QdmXrtQvsWl-uxf47IkU6ox5N2JF2b5e-Xp1CMMQ9fNnqQQUfjQ-jVOXLGY90hNSauH1ERZZyg7zgTqwlVGlUK9UOpU9Ht3HMyFCHKyNyv-BrMQpMluNCts9OzJwAnV5Vm4rwrY1zi9wkjY_6NxceRqOtean5vC23SxqGtFh8MC_KdhCzYFfBm00]--></g></svg>