<?xml version="1.0" encoding="us-ascii" standalone="no"?><svg xmlns="http://www.w3.org/2000/svg" xmlns:xlink="http://www.w3.org/1999/xlink" contentStyleType="text/css" height="976.8px" preserveAspectRatio="none" style="width:1311px;height:976px;background:#FFFFFF;" version="1.1" viewBox="0 0 1311 976" width="1311.6px" zoomAndPan="magnify"><defs/><g><!--class AgendaEntry--><g id="elem_AgendaEntry"><rect codeLine="9" fill="#F1F1F1" height="124.6359" id="AgendaEntry" rx="3" ry="3" style="stroke:#181818;stroke-width:0.6;" width="159.6" x="1083.6" y="591.6"/><ellipse cx="1111.86" cy="610.8" fill="#ADD1B2" rx="13.2" ry="13.2" style="stroke:#181818;stroke-width:1.2;"/><path d="M1115.1787,605.85 Q1115.3662,605.5875 1115.5913,605.4563 Q1115.8162,605.325 1116.0788,605.325 Q1116.5288,605.325 1116.81,605.6438 Q1117.0913,605.9438 1117.0913,606.675 L1117.0913,608.4187 Q1117.0913,609.15 1116.81,609.4688 Q1116.5288,609.7875 1116.0788,609.7875 Q1115.6663,609.7875 1115.4225,609.5437 Q1115.1787,609.3188 1115.0475,608.7 Q1114.9912,608.2688 1114.7663,608.0437 Q1114.3725,607.5938 1113.6413,607.3313 Q1112.91,607.0688 1112.16,607.0688 Q1111.2412,607.0688 1110.4725,607.4625 Q1109.7225,607.8562 1109.1225,608.7563 Q1108.5413,609.6563 1108.5413,610.8938 L1108.5413,612.2063 Q1108.5413,613.6875 1109.61,614.6813 Q1110.6787,615.6563 1112.5913,615.6563 Q1113.7163,615.6563 1114.5037,615.3562 Q1114.9725,615.1687 1115.4788,614.6438 Q1115.7975,614.325 1115.9663,614.2312 Q1116.1538,614.1375 1116.3975,614.1375 Q1116.7913,614.1375 1117.0913,614.4563 Q1117.41,614.7563 1117.41,615.1687 Q1117.41,615.5813 1116.9975,616.0688 Q1116.3975,616.7625 1115.4412,617.1563 Q1114.1475,617.7 1112.5913,617.7 Q1110.7725,617.7 1109.3288,616.95 Q1108.1475,616.35 1107.3225,615.075 Q1106.4975,613.7813 1106.4975,612.2438 L1106.4975,610.8562 Q1106.4975,609.2625 1107.2288,607.8938 Q1107.9788,606.5063 1109.2913,605.775 Q1110.6038,605.025 1112.085,605.025 Q1112.9663,605.025 1113.735,605.2312 Q1114.5225,605.4187 1115.1787,605.85 Z " fill="#000000"/><text fill="#000000" font-family="sans-serif" font-size="16.8" lengthAdjust="spacing" textLength="98.4" x="1130.94" y="617.7563">AgendaEntry</text><line style="stroke:#181818;stroke-width:0.6;" x1="1084.8" x2="1242" y1="630" y2="630"/><text fill="#000000" font-family="sans-serif" font-size="16.8" lengthAdjust="spacing" textLength="33.6" x="1090.8" y="652.9289">date</text><text fill="#000000" font-family="sans-serif" font-size="16.8" lengthAdjust="spacing" textLength="124.8" x="1090.8" y="675.2742">associatedTeam</text><text fill="#000000" font-family="sans-serif" font-size="16.8" lengthAdjust="spacing" textLength="145.2" x="1090.8" y="697.6195">associatedVehicles</text><line style="stroke:#181818;stroke-width:0.6;" x1="1084.8" x2="1242" y1="706.6359" y2="706.6359"/></g><!--class AgendaEntryDTO--><g id="elem_AgendaEntryDTO"><rect codeLine="15" fill="#F1F1F1" height="236.3625" id="AgendaEntryDTO" rx="3" ry="3" style="stroke:#181818;stroke-width:0.6;" width="172.8" x="877.8" y="8.4"/><ellipse cx="895.8" cy="27.6" fill="#ADD1B2" rx="13.2" ry="13.2" style="stroke:#181818;stroke-width:1.2;"/><path d="M899.1188,22.65 Q899.3063,22.3875 899.5313,22.2562 Q899.7563,22.125 900.0188,22.125 Q900.4688,22.125 900.75,22.4437 Q901.0313,22.7438 901.0313,23.475 L901.0313,25.2188 Q901.0313,25.95 900.75,26.2688 Q900.4688,26.5875 900.0188,26.5875 Q899.6062,26.5875 899.3625,26.3438 Q899.1188,26.1188 898.9875,25.5 Q898.9313,25.0687 898.7063,24.8438 Q898.3125,24.3938 897.5813,24.1312 Q896.85,23.8688 896.1,23.8688 Q895.1813,23.8688 894.4125,24.2625 Q893.6625,24.6563 893.0625,25.5563 Q892.4812,26.4563 892.4812,27.6937 L892.4812,29.0062 Q892.4812,30.4875 893.55,31.4813 Q894.6188,32.4563 896.5313,32.4563 Q897.6563,32.4563 898.4438,32.1563 Q898.9125,31.9688 899.4187,31.4437 Q899.7375,31.125 899.9063,31.0313 Q900.0938,30.9375 900.3375,30.9375 Q900.7312,30.9375 901.0313,31.2562 Q901.35,31.5563 901.35,31.9688 Q901.35,32.3813 900.9375,32.8688 Q900.3375,33.5625 899.3813,33.9563 Q898.0875,34.5 896.5313,34.5 Q894.7125,34.5 893.2688,33.75 Q892.0875,33.15 891.2625,31.875 Q890.4375,30.5812 890.4375,29.0438 L890.4375,27.6563 Q890.4375,26.0625 891.1687,24.6937 Q891.9187,23.3063 893.2312,22.575 Q894.5437,21.825 896.025,21.825 Q896.9063,21.825 897.675,22.0313 Q898.4625,22.2188 899.1188,22.65 Z " fill="#000000"/><text fill="#000000" font-family="sans-serif" font-size="16.8" lengthAdjust="spacing" textLength="134.4" x="912.6" y="34.5563">AgendaEntryDTO</text><line style="stroke:#181818;stroke-width:0.6;" x1="879" x2="1049.4" y1="46.8" y2="46.8"/><text fill="#000000" font-family="sans-serif" font-size="16.8" lengthAdjust="spacing" textLength="33.6" x="885" y="69.7289">date</text><text fill="#000000" font-family="sans-serif" font-size="16.8" lengthAdjust="spacing" textLength="92.4" x="885" y="92.0742">greenSpace</text><text fill="#000000" font-family="sans-serif" font-size="16.8" lengthAdjust="spacing" textLength="82.8" x="885" y="114.4195">description</text><text fill="#000000" font-family="sans-serif" font-size="16.8" lengthAdjust="spacing" textLength="133.2" x="885" y="136.7648">expectedDuration</text><text fill="#000000" font-family="sans-serif" font-size="16.8" lengthAdjust="spacing" textLength="117.6" x="885" y="159.1102">urgencyDegree</text><text fill="#000000" font-family="sans-serif" font-size="16.8" lengthAdjust="spacing" textLength="86.4" x="885" y="181.4555">entryStatus</text><text fill="#000000" font-family="sans-serif" font-size="16.8" lengthAdjust="spacing" textLength="124.8" x="885" y="203.8008">associatedTeam</text><text fill="#000000" font-family="sans-serif" font-size="16.8" lengthAdjust="spacing" textLength="145.2" x="885" y="226.1461">associatedVehicles</text><line style="stroke:#181818;stroke-width:0.6;" x1="879" x2="1049.4" y1="235.1625" y2="235.1625"/></g><!--class SystemUser--><g id="elem_SystemUser"><rect codeLine="28" fill="#F1F1F1" height="146.9813" id="SystemUser" rx="3" ry="3" style="stroke:#181818;stroke-width:0.6;" width="128.4" x="8.4" y="53.4"/><ellipse cx="26.4" cy="72.6" fill="#ADD1B2" rx="13.2" ry="13.2" style="stroke:#181818;stroke-width:1.2;"/><path d="M29.7188,67.65 Q29.9063,67.3875 30.1312,67.2563 Q30.3563,67.125 30.6188,67.125 Q31.0687,67.125 31.35,67.4438 Q31.6312,67.7437 31.6312,68.475 L31.6312,70.2188 Q31.6312,70.95 31.35,71.2688 Q31.0687,71.5875 30.6188,71.5875 Q30.2062,71.5875 29.9625,71.3438 Q29.7188,71.1187 29.5875,70.5 Q29.5313,70.0688 29.3063,69.8438 Q28.9125,69.3938 28.1813,69.1313 Q27.45,68.8687 26.7,68.8687 Q25.7813,68.8687 25.0125,69.2625 Q24.2625,69.6563 23.6625,70.5562 Q23.0813,71.4563 23.0813,72.6938 L23.0813,74.0063 Q23.0813,75.4875 24.15,76.4813 Q25.2188,77.4563 27.1312,77.4563 Q28.2562,77.4563 29.0438,77.1563 Q29.5125,76.9688 30.0187,76.4438 Q30.3375,76.125 30.5062,76.0313 Q30.6937,75.9375 30.9375,75.9375 Q31.3312,75.9375 31.6312,76.2563 Q31.95,76.5562 31.95,76.9688 Q31.95,77.3813 31.5375,77.8687 Q30.9375,78.5625 29.9813,78.9563 Q28.6875,79.5 27.1312,79.5 Q25.3125,79.5 23.8688,78.75 Q22.6875,78.15 21.8625,76.875 Q21.0375,75.5813 21.0375,74.0438 L21.0375,72.6563 Q21.0375,71.0625 21.7688,69.6938 Q22.5188,68.3062 23.8313,67.575 Q25.1438,66.825 26.625,66.825 Q27.5062,66.825 28.275,67.0313 Q29.0625,67.2188 29.7188,67.65 Z " fill="#000000"/><text fill="#000000" font-family="sans-serif" font-size="16.8" lengthAdjust="spacing" textLength="90" x="43.2" y="79.5562">SystemUser</text><line style="stroke:#181818;stroke-width:0.6;" x1="9.6" x2="135.6" y1="91.8" y2="91.8"/><text fill="#000000" font-family="sans-serif" font-size="16.8" lengthAdjust="spacing" textLength="42" x="15.6" y="114.7289">name</text><text fill="#000000" font-family="sans-serif" font-size="16.8" lengthAdjust="spacing" textLength="39.6" x="15.6" y="137.0742">email</text><text fill="#000000" font-family="sans-serif" font-size="16.8" lengthAdjust="spacing" textLength="72" x="15.6" y="159.4195">password</text><text fill="#000000" font-family="sans-serif" font-size="16.8" lengthAdjust="spacing" textLength="48" x="15.6" y="181.7648">phone</text><line style="stroke:#181818;stroke-width:0.6;" x1="9.6" x2="135.6" y1="190.7813" y2="190.7813"/></g><!--class AgendaEntryRepository--><g id="elem_AgendaEntryRepository"><rect codeLine="36" fill="#F1F1F1" height="146.9813" id="AgendaEntryRepository" rx="3" ry="3" style="stroke:#181818;stroke-width:0.6;" width="673.2" x="514.8" y="822"/><ellipse cx="756.3" cy="841.2" fill="#ADD1B2" rx="13.2" ry="13.2" style="stroke:#181818;stroke-width:1.2;"/><path d="M759.6188,836.25 Q759.8063,835.9875 760.0313,835.8562 Q760.2563,835.725 760.5188,835.725 Q760.9688,835.725 761.25,836.0437 Q761.5313,836.3438 761.5313,837.075 L761.5313,838.8188 Q761.5313,839.55 761.25,839.8688 Q760.9688,840.1875 760.5188,840.1875 Q760.1062,840.1875 759.8625,839.9438 Q759.6188,839.7188 759.4875,839.1 Q759.4313,838.6687 759.2063,838.4438 Q758.8125,837.9938 758.0813,837.7312 Q757.35,837.4688 756.6,837.4688 Q755.6813,837.4688 754.9125,837.8625 Q754.1625,838.2563 753.5625,839.1563 Q752.9812,840.0563 752.9812,841.2937 L752.9812,842.6062 Q752.9812,844.0875 754.05,845.0813 Q755.1188,846.0563 757.0313,846.0563 Q758.1563,846.0563 758.9438,845.7563 Q759.4125,845.5688 759.9187,845.0437 Q760.2375,844.725 760.4063,844.6313 Q760.5938,844.5375 760.8375,844.5375 Q761.2312,844.5375 761.5313,844.8562 Q761.85,845.1563 761.85,845.5688 Q761.85,845.9812 761.4375,846.4688 Q760.8375,847.1625 759.8813,847.5563 Q758.5875,848.1 757.0313,848.1 Q755.2125,848.1 753.7688,847.35 Q752.5875,846.75 751.7625,845.475 Q750.9375,844.1813 750.9375,842.6438 L750.9375,841.2563 Q750.9375,839.6625 751.6687,838.2937 Q752.4187,836.9063 753.7312,836.175 Q755.0437,835.425 756.525,835.425 Q757.4063,835.425 758.175,835.6313 Q758.9625,835.8188 759.6188,836.25 Z " fill="#000000"/><text fill="#000000" font-family="sans-serif" font-size="16.8" lengthAdjust="spacing" textLength="180" x="780.9" y="848.1563">AgendaEntryRepository</text><line style="stroke:#181818;stroke-width:0.6;" x1="516" x2="1186.8" y1="860.4" y2="860.4"/><text fill="#000000" font-family="sans-serif" font-size="16.8" lengthAdjust="spacing" textLength="306" x="522" y="883.3289">-ArrayList&lt;AgendaEntry&gt; agendaEntries</text><line style="stroke:#181818;stroke-width:0.6;" x1="516" x2="1186.8" y1="892.3453" y2="892.3453"/><text fill="#000000" font-family="sans-serif" font-size="16.8" lengthAdjust="spacing" textLength="658.8" x="522" y="915.2742">+getAgendaEntryListWithoutCancelled(authenticationController.getCurrentUserEmail())</text><text fill="#000000" font-family="sans-serif" font-size="16.8" lengthAdjust="spacing" textLength="614.4" x="522" y="937.6195">+getAgendaEntryByDescriptionAndGreenspace(dto.description, dto.greenSpace)</text><text fill="#000000" font-family="sans-serif" font-size="16.8" lengthAdjust="spacing" textLength="313.2" x="522" y="959.9648">+update(entry, EntryStatus.CANCELLED)</text></g><!--class Repositories--><g id="elem_Repositories"><rect codeLine="44" fill="#F1F1F1" height="146.9813" id="Repositories" rx="3" ry="3" style="stroke:#181818;stroke-width:0.6;" width="240" x="432.6" y="580.8"/><ellipse cx="500.1" cy="600" fill="#ADD1B2" rx="13.2" ry="13.2" style="stroke:#181818;stroke-width:1.2;"/><path d="M503.4188,595.05 Q503.6063,594.7875 503.8312,594.6563 Q504.0563,594.525 504.3187,594.525 Q504.7687,594.525 505.05,594.8438 Q505.3312,595.1438 505.3312,595.875 L505.3312,597.6188 Q505.3312,598.35 505.05,598.6687 Q504.7687,598.9875 504.3187,598.9875 Q503.9063,598.9875 503.6625,598.7438 Q503.4188,598.5188 503.2875,597.9 Q503.2313,597.4688 503.0062,597.2438 Q502.6125,596.7937 501.8812,596.5313 Q501.15,596.2688 500.4,596.2688 Q499.4813,596.2688 498.7125,596.6625 Q497.9625,597.0563 497.3625,597.9563 Q496.7813,598.8562 496.7813,600.0938 L496.7813,601.4063 Q496.7813,602.8875 497.85,603.8813 Q498.9188,604.8562 500.8312,604.8562 Q501.9562,604.8562 502.7438,604.5563 Q503.2125,604.3688 503.7188,603.8438 Q504.0375,603.525 504.2062,603.4313 Q504.3937,603.3375 504.6375,603.3375 Q505.0313,603.3375 505.3312,603.6563 Q505.65,603.9563 505.65,604.3688 Q505.65,604.7813 505.2375,605.2688 Q504.6375,605.9625 503.6813,606.3562 Q502.3875,606.9 500.8312,606.9 Q499.0125,606.9 497.5687,606.15 Q496.3875,605.55 495.5625,604.275 Q494.7375,602.9812 494.7375,601.4438 L494.7375,600.0563 Q494.7375,598.4625 495.4688,597.0938 Q496.2188,595.7063 497.5313,594.975 Q498.8438,594.225 500.325,594.225 Q501.2062,594.225 501.975,594.4313 Q502.7625,594.6188 503.4188,595.05 Z " fill="#000000"/><text fill="#000000" font-family="sans-serif" font-size="16.8" lengthAdjust="spacing" textLength="94.8" x="524.7" y="606.9563">Repositories</text><line style="stroke:#181818;stroke-width:0.6;" x1="433.8" x2="671.4" y1="619.2" y2="619.2"/><text fill="#000000" font-family="sans-serif" font-size="16.8" lengthAdjust="spacing" textLength="184.8" x="439.8" y="642.1289">-agendaEntryRepository</text><line style="stroke:#181818;stroke-width:0.6;" x1="433.8" x2="671.4" y1="651.1453" y2="651.1453"/><text fill="#000000" font-family="sans-serif" font-size="16.8" lengthAdjust="spacing" textLength="112.8" x="439.8" y="674.0742">-Repositories()</text><text fill="#000000" font-family="sans-serif" font-size="16.8" lengthAdjust="spacing" textLength="109.2" x="439.8" y="696.4195">+getInstance()</text><text fill="#000000" font-family="sans-serif" font-size="16.8" lengthAdjust="spacing" textLength="225.6" x="439.8" y="718.7648">+getAgendaEntryRepository()</text></g><!--class AgendaEntryMapper--><g id="elem_AgendaEntryMapper"><rect codeLine="53" fill="#F1F1F1" height="79.9453" id="AgendaEntryMapper" rx="3" ry="3" style="stroke:#181818;stroke-width:0.6;" width="354" x="787.2" y="372.6"/><ellipse cx="881.1" cy="391.8" fill="#ADD1B2" rx="13.2" ry="13.2" style="stroke:#181818;stroke-width:1.2;"/><path d="M884.4187,386.85 Q884.6062,386.5875 884.8313,386.4563 Q885.0563,386.325 885.3188,386.325 Q885.7688,386.325 886.05,386.6438 Q886.3313,386.9437 886.3313,387.675 L886.3313,389.4188 Q886.3313,390.15 886.05,390.4688 Q885.7688,390.7875 885.3188,390.7875 Q884.9063,390.7875 884.6625,390.5438 Q884.4187,390.3187 884.2875,389.7 Q884.2312,389.2688 884.0063,389.0438 Q883.6125,388.5938 882.8813,388.3313 Q882.15,388.0687 881.4,388.0687 Q880.4812,388.0687 879.7125,388.4625 Q878.9625,388.8563 878.3625,389.7562 Q877.7813,390.6563 877.7813,391.8938 L877.7813,393.2063 Q877.7813,394.6875 878.85,395.6813 Q879.9187,396.6563 881.8313,396.6563 Q882.9563,396.6563 883.7438,396.3563 Q884.2125,396.1688 884.7188,395.6438 Q885.0375,395.325 885.2063,395.2313 Q885.3938,395.1375 885.6375,395.1375 Q886.0313,395.1375 886.3313,395.4563 Q886.65,395.7562 886.65,396.1688 Q886.65,396.5813 886.2375,397.0687 Q885.6375,397.7625 884.6813,398.1563 Q883.3875,398.7 881.8313,398.7 Q880.0125,398.7 878.5688,397.95 Q877.3875,397.35 876.5625,396.075 Q875.7375,394.7813 875.7375,393.2438 L875.7375,391.8563 Q875.7375,390.2625 876.4688,388.8938 Q877.2188,387.5062 878.5313,386.775 Q879.8438,386.025 881.325,386.025 Q882.2063,386.025 882.975,386.2313 Q883.7625,386.4188 884.4187,386.85 Z " fill="#000000"/><text fill="#000000" font-family="sans-serif" font-size="16.8" lengthAdjust="spacing" textLength="156" x="905.7" y="398.7562">AgendaEntryMapper</text><line style="stroke:#181818;stroke-width:0.6;" x1="788.4" x2="1140" y1="411" y2="411"/><line style="stroke:#181818;stroke-width:0.6;" x1="788.4" x2="1140" y1="420.6" y2="420.6"/><text fill="#000000" font-family="sans-serif" font-size="16.8" lengthAdjust="spacing" textLength="339.6" x="794.4" y="443.5289">+toDtoList(List&lt;AgendaEntry&gt; toDoEntryList)</text></g><!--class CancelAgendaEntryController--><g id="elem_CancelAgendaEntryController"><rect codeLine="59" fill="#F1F1F1" height="146.9813" id="CancelAgendaEntryController" rx="3" ry="3" style="stroke:#181818;stroke-width:0.6;" width="384" x="360.6" y="339.6"/><ellipse cx="434.7" cy="358.8" fill="#ADD1B2" rx="13.2" ry="13.2" style="stroke:#181818;stroke-width:1.2;"/><path d="M438.0188,353.85 Q438.2063,353.5875 438.4313,353.4563 Q438.6563,353.325 438.9188,353.325 Q439.3688,353.325 439.65,353.6438 Q439.9313,353.9437 439.9313,354.675 L439.9313,356.4188 Q439.9313,357.15 439.65,357.4688 Q439.3688,357.7875 438.9188,357.7875 Q438.5062,357.7875 438.2625,357.5438 Q438.0188,357.3187 437.8875,356.7 Q437.8313,356.2688 437.6063,356.0438 Q437.2125,355.5938 436.4813,355.3313 Q435.75,355.0687 435,355.0687 Q434.0813,355.0687 433.3125,355.4625 Q432.5625,355.8563 431.9625,356.7562 Q431.3812,357.6563 431.3812,358.8938 L431.3812,360.2063 Q431.3812,361.6875 432.45,362.6813 Q433.5188,363.6563 435.4313,363.6563 Q436.5563,363.6563 437.3438,363.3563 Q437.8125,363.1688 438.3187,362.6438 Q438.6375,362.325 438.8063,362.2313 Q438.9938,362.1375 439.2375,362.1375 Q439.6312,362.1375 439.9313,362.4563 Q440.25,362.7562 440.25,363.1688 Q440.25,363.5813 439.8375,364.0687 Q439.2375,364.7625 438.2813,365.1563 Q436.9875,365.7 435.4313,365.7 Q433.6125,365.7 432.1688,364.95 Q430.9875,364.35 430.1625,363.075 Q429.3375,361.7813 429.3375,360.2438 L429.3375,358.8563 Q429.3375,357.2625 430.0687,355.8938 Q430.8187,354.5062 432.1312,353.775 Q433.4437,353.025 434.925,353.025 Q435.8063,353.025 436.575,353.2313 Q437.3625,353.4188 438.0188,353.85 Z " fill="#000000"/><text fill="#000000" font-family="sans-serif" font-size="16.8" lengthAdjust="spacing" textLength="225.6" x="459.3" y="365.7562">CancelAgendaEntryController</text><line style="stroke:#181818;stroke-width:0.6;" x1="361.8" x2="743.4" y1="378" y2="378"/><text fill="#000000" font-family="sans-serif" font-size="16.8" lengthAdjust="spacing" textLength="369.6" x="367.8" y="400.9289">-AgendaEntryRepository agendaEntryRepository</text><text fill="#000000" font-family="sans-serif" font-size="16.8" lengthAdjust="spacing" textLength="321.6" x="367.8" y="423.2742">-AgendaEntryMapper agendaEntryMapper</text><line style="stroke:#181818;stroke-width:0.6;" x1="361.8" x2="743.4" y1="432.2906" y2="432.2906"/><text fill="#000000" font-family="sans-serif" font-size="16.8" lengthAdjust="spacing" textLength="339.6" x="367.8" y="455.2195">+getAgendaEntryWithoutCancelledDTOList()</text><text fill="#000000" font-family="sans-serif" font-size="16.8" lengthAdjust="spacing" textLength="332.4" x="367.8" y="477.5648">+cancelAgendaEntry(AgendaEntryDTO dto)</text></g><!--class CancelAgendaEntryUI--><g id="elem_CancelAgendaEntryUI"><rect codeLine="67" fill="#F1F1F1" height="57.6" id="CancelAgendaEntryUI" rx="3" ry="3" style="stroke:#181818;stroke-width:0.6;" width="204" x="114.6" y="384"/><ellipse cx="132.6" cy="403.2" fill="#ADD1B2" rx="13.2" ry="13.2" style="stroke:#181818;stroke-width:1.2;"/><path d="M135.9188,398.25 Q136.1063,397.9875 136.3312,397.8563 Q136.5563,397.725 136.8188,397.725 Q137.2687,397.725 137.55,398.0438 Q137.8312,398.3438 137.8312,399.075 L137.8312,400.8187 Q137.8312,401.55 137.55,401.8688 Q137.2687,402.1875 136.8188,402.1875 Q136.4063,402.1875 136.1625,401.9437 Q135.9188,401.7188 135.7875,401.1 Q135.7313,400.6688 135.5063,400.4437 Q135.1125,399.9938 134.3813,399.7313 Q133.65,399.4688 132.9,399.4688 Q131.9813,399.4688 131.2125,399.8625 Q130.4625,400.2562 129.8625,401.1563 Q129.2813,402.0563 129.2813,403.2938 L129.2813,404.6063 Q129.2813,406.0875 130.35,407.0813 Q131.4188,408.0563 133.3312,408.0563 Q134.4562,408.0563 135.2438,407.7562 Q135.7125,407.5687 136.2188,407.0438 Q136.5375,406.725 136.7062,406.6312 Q136.8937,406.5375 137.1375,406.5375 Q137.5313,406.5375 137.8312,406.8563 Q138.15,407.1563 138.15,407.5687 Q138.15,407.9813 137.7375,408.4688 Q137.1375,409.1625 136.1813,409.5563 Q134.8875,410.1 133.3312,410.1 Q131.5125,410.1 130.0688,409.35 Q128.8875,408.75 128.0625,407.475 Q127.2375,406.1813 127.2375,404.6438 L127.2375,403.2562 Q127.2375,401.6625 127.9688,400.2938 Q128.7188,398.9063 130.0313,398.175 Q131.3438,397.425 132.825,397.425 Q133.7062,397.425 134.475,397.6312 Q135.2625,397.8187 135.9188,398.25 Z " fill="#000000"/><text fill="#000000" font-family="sans-serif" font-size="16.8" lengthAdjust="spacing" textLength="165.6" x="149.4" y="410.1563">CancelAgendaEntryUI</text><line style="stroke:#181818;stroke-width:0.6;" x1="115.8" x2="317.4" y1="422.4" y2="422.4"/><line style="stroke:#181818;stroke-width:0.6;" x1="115.8" x2="317.4" y1="432" y2="432"/></g><!--class GSM--><g id="elem_GSM"><rect fill="#F1F1F1" height="57.6" id="GSM" rx="3" ry="3" style="stroke:#181818;stroke-width:0.6;" width="75.6" x="178.8" y="97.8"/><ellipse cx="196.8" cy="117" fill="#ADD1B2" rx="13.2" ry="13.2" style="stroke:#181818;stroke-width:1.2;"/><path d="M200.1188,112.05 Q200.3063,111.7875 200.5313,111.6563 Q200.7563,111.525 201.0187,111.525 Q201.4688,111.525 201.75,111.8438 Q202.0313,112.1438 202.0313,112.875 L202.0313,114.6187 Q202.0313,115.35 201.75,115.6687 Q201.4688,115.9875 201.0187,115.9875 Q200.6063,115.9875 200.3625,115.7437 Q200.1188,115.5188 199.9875,114.9 Q199.9313,114.4688 199.7062,114.2437 Q199.3125,113.7938 198.5812,113.5313 Q197.85,113.2688 197.1,113.2688 Q196.1813,113.2688 195.4125,113.6625 Q194.6625,114.0562 194.0625,114.9563 Q193.4813,115.8562 193.4813,117.0938 L193.4813,118.4063 Q193.4813,119.8875 194.55,120.8813 Q195.6188,121.8562 197.5313,121.8562 Q198.6563,121.8562 199.4438,121.5562 Q199.9125,121.3687 200.4188,120.8438 Q200.7375,120.525 200.9063,120.4312 Q201.0938,120.3375 201.3375,120.3375 Q201.7313,120.3375 202.0313,120.6563 Q202.35,120.9563 202.35,121.3687 Q202.35,121.7813 201.9375,122.2688 Q201.3375,122.9625 200.3813,123.3562 Q199.0875,123.9 197.5313,123.9 Q195.7125,123.9 194.2687,123.15 Q193.0875,122.55 192.2625,121.275 Q191.4375,119.9812 191.4375,118.4438 L191.4375,117.0562 Q191.4375,115.4625 192.1688,114.0938 Q192.9188,112.7063 194.2313,111.975 Q195.5438,111.225 197.025,111.225 Q197.9063,111.225 198.675,111.4312 Q199.4625,111.6187 200.1188,112.05 Z " fill="#000000"/><text fill="#000000" font-family="sans-serif" font-size="16.8" lengthAdjust="spacing" textLength="37.2" x="213.6" y="123.9563">GSM</text><line style="stroke:#181818;stroke-width:0.6;" x1="180" x2="253.2" y1="136.2" y2="136.2"/><line style="stroke:#181818;stroke-width:0.6;" x1="180" x2="253.2" y1="145.8" y2="145.8"/></g><!--class ToDoEntry--><g id="elem_ToDoEntry"><rect fill="#F1F1F1" height="57.6" id="ToDoEntry" rx="3" ry="3" style="stroke:#181818;stroke-width:0.6;" width="120" x="1183.8" y="384"/><ellipse cx="1201.8" cy="403.2" fill="#ADD1B2" rx="13.2" ry="13.2" style="stroke:#181818;stroke-width:1.2;"/><path d="M1205.1187,398.25 Q1205.3062,397.9875 1205.5313,397.8563 Q1205.7563,397.725 1206.0188,397.725 Q1206.4688,397.725 1206.75,398.0438 Q1207.0313,398.3438 1207.0313,399.075 L1207.0313,400.8187 Q1207.0313,401.55 1206.75,401.8688 Q1206.4688,402.1875 1206.0188,402.1875 Q1205.6063,402.1875 1205.3625,401.9437 Q1205.1187,401.7188 1204.9875,401.1 Q1204.9312,400.6688 1204.7063,400.4437 Q1204.3125,399.9938 1203.5813,399.7313 Q1202.85,399.4688 1202.1,399.4688 Q1201.1812,399.4688 1200.4125,399.8625 Q1199.6625,400.2562 1199.0625,401.1563 Q1198.4813,402.0563 1198.4813,403.2938 L1198.4813,404.6063 Q1198.4813,406.0875 1199.55,407.0813 Q1200.6187,408.0563 1202.5313,408.0563 Q1203.6563,408.0563 1204.4438,407.7562 Q1204.9125,407.5687 1205.4188,407.0438 Q1205.7375,406.725 1205.9063,406.6312 Q1206.0938,406.5375 1206.3375,406.5375 Q1206.7313,406.5375 1207.0313,406.8563 Q1207.35,407.1563 1207.35,407.5687 Q1207.35,407.9813 1206.9375,408.4688 Q1206.3375,409.1625 1205.3813,409.5563 Q1204.0875,410.1 1202.5313,410.1 Q1200.7125,410.1 1199.2688,409.35 Q1198.0875,408.75 1197.2625,407.475 Q1196.4375,406.1813 1196.4375,404.6438 L1196.4375,403.2562 Q1196.4375,401.6625 1197.1688,400.2938 Q1197.9188,398.9063 1199.2313,398.175 Q1200.5438,397.425 1202.025,397.425 Q1202.9063,397.425 1203.675,397.6312 Q1204.4625,397.8187 1205.1187,398.25 Z " fill="#000000"/><text fill="#000000" font-family="sans-serif" font-size="16.8" lengthAdjust="spacing" textLength="81.6" x="1218.6" y="410.1563">ToDoEntry</text><line style="stroke:#181818;stroke-width:0.6;" x1="1185" x2="1302.6" y1="422.4" y2="422.4"/><line style="stroke:#181818;stroke-width:0.6;" x1="1185" x2="1302.6" y1="432" y2="432"/></g><!--link CancelAgendaEntryUI to CancelAgendaEntryController--><g id="link_CancelAgendaEntryUI_CancelAgendaEntryController"><path codeLine="71" d="M318.66,412.8 C324.828,412.8 328.596,412.8 328.596,412.8 C328.596,412.8 335.244,412.8 353.196,412.8 " fill="none" id="CancelAgendaEntryUI-to-CancelAgendaEntryController" style="stroke:#181818;stroke-width:1.2;stroke-dasharray:7.0,7.0;"/><polygon fill="#181818" points="360.396,412.8,349.596,408,354.396,412.8,349.596,417.6,360.396,412.8" style="stroke:#181818;stroke-width:1.2;"/></g><!--link CancelAgendaEntryController to Repositories--><g id="link_CancelAgendaEntryController_Repositories"><path codeLine="72" d="M552.6,486.3 C552.6,516.216 552.6,543.648 552.6,573.552 " fill="none" id="CancelAgendaEntryController-to-Repositories" style="stroke:#181818;stroke-width:1.2;stroke-dasharray:7.0,7.0;"/><polygon fill="#181818" points="552.6,580.752,557.4,569.952,552.6,574.752,547.8,569.952,552.6,580.752" style="stroke:#181818;stroke-width:1.2;"/><text fill="#000000" font-family="sans-serif" font-size="15.6" lengthAdjust="spacing" textLength="80.4" x="553.8" y="540.034">repositories</text></g><!--link Repositories to AgendaEntryRepository--><g id="link_Repositories_AgendaEntryRepository"><path codeLine="73" d="M643.056,727.5 C680.508,757.416 718.2036,787.5528 755.6196,817.4568 " fill="none" id="Repositories-to-AgendaEntryRepository" style="stroke:#181818;stroke-width:1.2;"/><polygon fill="#181818" points="761.244,821.952,755.8042,811.4597,756.557,818.206,749.8107,818.9588,761.244,821.952" style="stroke:#181818;stroke-width:1.2;"/><text fill="#000000" font-family="sans-serif" font-size="15.6" lengthAdjust="spacing" textLength="8.4" x="741.9341" y="808.7239">1</text></g><!--link Repositories to Repositories--><g id="link_Repositories_Repositories"><path codeLine="74" d="M672.708,632.364 C697.116,634.716 714.6,641.928 714.6,654 C714.6,666.072 704.2828,672.5934 679.8748,674.9454 " fill="none" id="Repositories-to-Repositories" style="stroke:#181818;stroke-width:1.2;"/><polygon fill="#181818" points="672.708,675.636,683.9186,679.378,678.6803,675.0605,682.9978,669.8222,672.708,675.636" style="stroke:#181818;stroke-width:1.2;"/><text fill="#000000" font-family="sans-serif" font-size="15.6" lengthAdjust="spacing" textLength="58.8" x="721.8" y="660.634">instance</text></g><!--link CancelAgendaEntryController to AgendaEntryMapper--><g id="link_CancelAgendaEntryController_AgendaEntryMapper"><path codeLine="75" d="M744.816,412.8 C758.976,412.8 766.752,412.8 779.976,412.8 " fill="none" id="CancelAgendaEntryController-to-AgendaEntryMapper" style="stroke:#181818;stroke-width:1.2;stroke-dasharray:7.0,7.0;"/><polygon fill="#181818" points="787.176,412.8,776.376,408,781.176,412.8,776.376,417.6,787.176,412.8" style="stroke:#181818;stroke-width:1.2;"/></g><!--link CancelAgendaEntryController to AgendaEntryRepository--><g id="link_CancelAgendaEntryController_AgendaEntryRepository"><path codeLine="76" d="M654.396,486.192 C717.96,531.276 787.8,580.8 787.8,580.8 C787.8,580.8 816.5114,722.196 835.2914,814.692 " fill="none" id="CancelAgendaEntryController-to-AgendaEntryRepository" style="stroke:#181818;stroke-width:1.2;"/><polygon fill="#181818" points="836.724,821.748,839.2791,810.2089,835.5301,815.868,829.871,812.119,836.724,821.748" style="stroke:#181818;stroke-width:1.2;"/><text fill="#000000" font-family="sans-serif" font-size="15.6" lengthAdjust="spacing" textLength="33.6" x="819" y="660.634">uses</text></g><!--reverse link SystemUser to GSM--><g id="link_SystemUser_GSM"><path codeLine="78" d="M158.448,126.6 C172.38,126.6 168.6,126.6 168.6,126.6 C168.6,126.6 172.836,126.6 178.776,126.6 " fill="none" id="SystemUser-backto-GSM" style="stroke:#181818;stroke-width:1.2;"/><polygon fill="none" points="136.848,126.6,158.448,133.8,158.448,119.4,136.848,126.6" style="stroke:#181818;stroke-width:1.2;"/></g><!--reverse link ToDoEntry to AgendaEntry--><g id="link_ToDoEntry_AgendaEntry"><path codeLine="79" d="M1227.5288,462.3366 C1215.2768,498.7566 1200.336,543.096 1184.112,591.288 " fill="none" id="ToDoEntry-backto-AgendaEntry" style="stroke:#181818;stroke-width:1.2;"/><polygon fill="none" points="1234.416,441.864,1220.7046,460.0409,1234.353,464.6323,1234.416,441.864" style="stroke:#181818;stroke-width:1.2;"/></g><!--link GSM to CancelAgendaEntryUI--><g id="link_GSM_CancelAgendaEntryUI"><path codeLine="81" d="M216.6,155.532 C216.6,209.784 216.6,329.412 216.6,383.76 " fill="none" id="GSM-CancelAgendaEntryUI" style="stroke:#181818;stroke-width:1.2;"/><text fill="#000000" font-family="sans-serif" font-size="15.6" lengthAdjust="spacing" textLength="8.4" x="207.1762" y="181.947">1</text><text fill="#000000" font-family="sans-serif" font-size="15.6" lengthAdjust="spacing" textLength="8.4" x="207.1762" y="370.6718">1</text></g><!--reverse link AgendaEntry to AgendaEntryRepository--><g id="link_AgendaEntry_AgendaEntryRepository"><path codeLine="82" d="M1077.7382,720.7636 C1035.6662,752.9596 989.556,788.256 945.552,821.94 " fill="none" id="AgendaEntry-backto-AgendaEntryRepository" style="stroke:#181818;stroke-width:1.2;"/><polygon fill="#181818" points="1083.456,716.388,1071.9621,719.1396,1078.6911,720.0344,1077.7963,726.7634,1083.456,716.388" style="stroke:#181818;stroke-width:1.2;"/><text fill="#000000" font-family="sans-serif" font-size="15.6" lengthAdjust="spacing" textLength="43.2" x="1017" y="781.234">stores</text><text fill="#000000" font-family="sans-serif" font-size="15.6" lengthAdjust="spacing" textLength="6" x="1067.8656" y="718.8859">*</text><text fill="#000000" font-family="sans-serif" font-size="15.6" lengthAdjust="spacing" textLength="8.4" x="947.5527" y="808.7105">1</text></g><!--reverse link AgendaEntryDTO to AgendaEntryMapper--><g id="link_AgendaEntryDTO_AgendaEntryMapper"><path codeLine="83" d="M964.2,252.072 C964.2,297.576 964.2,339.384 964.2,372.408 " fill="none" id="AgendaEntryDTO-backto-AgendaEntryMapper" style="stroke:#181818;stroke-width:1.2;"/><polygon fill="#181818" points="964.2,244.872,959.4,255.672,964.2,250.872,969,255.672,964.2,244.872" style="stroke:#181818;stroke-width:1.2;"/><text fill="#000000" font-family="sans-serif" font-size="15.6" lengthAdjust="spacing" textLength="51.6" x="965.4" y="298.834">creates</text><text fill="#000000" font-family="sans-serif" font-size="15.6" lengthAdjust="spacing" textLength="6" x="957.9797" y="271.1548">*</text><text fill="#000000" font-family="sans-serif" font-size="15.6" lengthAdjust="spacing" textLength="8.4" x="954.9731" y="358.9608">1</text></g><!--SRC=[bLHDZvim4BtxLrYvb7GtKNkDLf7I95f5ohPIoRPdrqo9jM0ZUz2MVlptZe620oHIkS3CcnbctXlRlIXT22joBZFXt0RHgcybma4Q7QkVmD-nDwwBoOqsycnD3Xnj2Qn72Y5VH0enLXbm2nA5JhCmm9r5ObwLJlbtaRaGoPG6h0hWXSagRuH_x41ZqGH9LxjbDS8tAUX4x3NQYlzYd9v48DGV11kfo4fE8FA1wmkSbSp0iJyJbNQdJrJiibfg0NHCupTc0avQLQ0okhRXHq5aGB8hhUYSfQMQijg1Jsx2VFaO1PRkFthicumhXv0_Ex3jj5haRULSgAp-AYZmrTYaCSw6YARyyPIVeJ1EeUcOM_2DjQ8wAeSFGToQYyvGlXiVUyTJm2389trLU3ObReMMa6MGHAB4CqsiP4t9rb2W8S0kANTRMakO7sNlMu_cywRmPTqFn5x7z4OdZru6vsM84ZJBG8PxxXszJ6svil0IHZNnztpVyx_SRZvkzyVZVZVl-UqueK4xLiGKPwm5munetdDpq0uz4Q5ladmAc5p29r4KdSnt7CqEZMSv6kj3cEbKQCgrzHejWk1UX5xqoPMO7dgKqNOfXfxfBHbk21sqUgIM8pdiDXeSIb8u46iqtFF17rl2fv3b-XORx1PJIygzs8mLNNszoIwmnMBDP-zdqxGEGaTbLRirjzjPZnMucU1RcbPvnKldZtHmhppyNl37-8cT_YsLzrnepXZXzOpazwy9kbbuCS_UplX36tkj3qTlwcGW-9NCTkjMN5gWqqq3_0K0]--></g></svg>