<?xml version="1.0" encoding="us-ascii" standalone="no"?><svg xmlns="http://www.w3.org/2000/svg" xmlns:xlink="http://www.w3.org/1999/xlink" contentStyleType="text/css" height="414px" preserveAspectRatio="none" style="width:379px;height:414px;background:#FFFFFF;" version="1.1" viewBox="0 0 379 414" width="379px" zoomAndPan="magnify"><defs/><g><text fill="#000000" font-family="sans-serif" font-size="14" font-weight="bold" lengthAdjust="spacing" textLength="351" x="10" y="30.1074">System Sequence Diagram (SSD) - Alternative One</text><rect fill="#FFFFFF" height="188.7461" style="stroke:#181818;stroke-width:1.0;" width="10" x="17.25" y="133.2422"/><rect fill="#FFFFFF" height="31.291" style="stroke:#181818;stroke-width:1.0;" width="10" x="326.25" y="156.5332"/><rect fill="#FFFFFF" height="31.291" style="stroke:#181818;stroke-width:1.0;" width="10" x="326.25" y="219.1152"/><rect fill="#FFFFFF" height="31.291" style="stroke:#181818;stroke-width:1.0;" width="10" x="326.25" y="281.6973"/><line style="stroke:#181818;stroke-width:0.5;stroke-dasharray:5.0,5.0;" x1="21.75" x2="21.75" y1="123.2422" y2="330.9883"/><line style="stroke:#181818;stroke-width:0.5;stroke-dasharray:5.0,5.0;" x1="331.25" x2="331.25" y1="123.2422" y2="330.9883"/><text fill="#000000" font-family="sans-serif" font-size="14" lengthAdjust="spacing" textLength="20" x="9.25" y="119.7285">FM</text><ellipse cx="22.25" cy="53.1211" fill="#E3E3E3" rx="8" ry="8" style="stroke:#181818;stroke-width:0.5;"/><path d="M22.25,61.1211 L22.25,88.1211 M9.25,69.1211 L35.25,69.1211 M22.25,88.1211 L9.25,103.1211 M22.25,88.1211 L35.25,103.1211 " fill="none" style="stroke:#181818;stroke-width:0.5;"/><text fill="#000000" font-family="sans-serif" font-size="14" lengthAdjust="spacing" textLength="20" x="9.25" y="345.0957">FM</text><ellipse cx="22.25" cy="357.1094" fill="#E3E3E3" rx="8" ry="8" style="stroke:#181818;stroke-width:0.5;"/><path d="M22.25,365.1094 L22.25,392.1094 M9.25,373.1094 L35.25,373.1094 M22.25,392.1094 L9.25,407.1094 M22.25,392.1094 L35.25,407.1094 " fill="none" style="stroke:#181818;stroke-width:0.5;"/><rect fill="#E3E3E3" height="32.6211" rx="2.5" ry="2.5" style="stroke:#181818;stroke-width:0.5;" width="64" x="299.25" y="89.6211"/><text fill="#000000" font-family="sans-serif" font-size="14" lengthAdjust="spacing" textLength="50" x="306.25" y="111.7285">:System</text><rect fill="#E3E3E3" height="32.6211" rx="2.5" ry="2.5" style="stroke:#181818;stroke-width:0.5;" width="64" x="299.25" y="329.9883"/><text fill="#000000" font-family="sans-serif" font-size="14" lengthAdjust="spacing" textLength="50" x="306.25" y="352.0957">:System</text><rect fill="#FFFFFF" height="188.7461" style="stroke:#181818;stroke-width:1.0;" width="10" x="17.25" y="133.2422"/><rect fill="#FFFFFF" height="31.291" style="stroke:#181818;stroke-width:1.0;" width="10" x="326.25" y="156.5332"/><rect fill="#FFFFFF" height="31.291" style="stroke:#181818;stroke-width:1.0;" width="10" x="326.25" y="219.1152"/><rect fill="#FFFFFF" height="31.291" style="stroke:#181818;stroke-width:1.0;" width="10" x="326.25" y="281.6973"/><polygon fill="#181818" points="314.25,152.5332,324.25,156.5332,314.25,160.5332,318.25,156.5332" style="stroke:#181818;stroke-width:1.0;"/><line style="stroke:#181818;stroke-width:1.0;" x1="27.25" x2="320.25" y1="156.5332" y2="156.5332"/><text fill="#000000" font-family="sans-serif" font-size="13" font-weight="bold" lengthAdjust="spacing" textLength="7" x="34.25" y="151.2705">1</text><text fill="#000000" font-family="sans-serif" font-size="13" lengthAdjust="spacing" textLength="225" x="45.25" y="151.2705">asks to register a vehicle for inspection</text><polygon fill="#181818" points="38.25,183.8242,28.25,187.8242,38.25,191.8242,34.25,187.8242" style="stroke:#181818;stroke-width:1.0;"/><line style="stroke:#181818;stroke-width:1.0;stroke-dasharray:2.0,2.0;" x1="32.25" x2="330.25" y1="187.8242" y2="187.8242"/><text fill="#000000" font-family="sans-serif" font-size="13" font-weight="bold" lengthAdjust="spacing" textLength="7" x="44.25" y="182.5615">2</text><text fill="#000000" font-family="sans-serif" font-size="13" lengthAdjust="spacing" textLength="264" x="55.25" y="182.5615">requests data (Vehicle ID, Date, Current kms)</text><polygon fill="#181818" points="314.25,215.1152,324.25,219.1152,314.25,223.1152,318.25,219.1152" style="stroke:#181818;stroke-width:1.0;"/><line style="stroke:#181818;stroke-width:1.0;" x1="27.25" x2="320.25" y1="219.1152" y2="219.1152"/><text fill="#000000" font-family="sans-serif" font-size="13" font-weight="bold" lengthAdjust="spacing" textLength="7" x="34.25" y="213.8525">3</text><text fill="#000000" font-family="sans-serif" font-size="13" lengthAdjust="spacing" textLength="122" x="45.25" y="213.8525">types requested data</text><polygon fill="#181818" points="38.25,246.4063,28.25,250.4063,38.25,254.4063,34.25,250.4063" style="stroke:#181818;stroke-width:1.0;"/><line style="stroke:#181818;stroke-width:1.0;stroke-dasharray:2.0,2.0;" x1="32.25" x2="330.25" y1="250.4063" y2="250.4063"/><text fill="#000000" font-family="sans-serif" font-size="13" font-weight="bold" lengthAdjust="spacing" textLength="7" x="44.25" y="245.1436">4</text><text fill="#000000" font-family="sans-serif" font-size="13" lengthAdjust="spacing" textLength="236" x="55.25" y="245.1436">shows all data and requests confirmation</text><polygon fill="#181818" points="314.25,277.6973,324.25,281.6973,314.25,285.6973,318.25,281.6973" style="stroke:#181818;stroke-width:1.0;"/><line style="stroke:#181818;stroke-width:1.0;" x1="27.25" x2="320.25" y1="281.6973" y2="281.6973"/><text fill="#000000" font-family="sans-serif" font-size="13" font-weight="bold" lengthAdjust="spacing" textLength="7" x="34.25" y="276.4346">5</text><text fill="#000000" font-family="sans-serif" font-size="13" lengthAdjust="spacing" textLength="78" x="45.25" y="276.4346">confirms data</text><polygon fill="#181818" points="38.25,308.9883,28.25,312.9883,38.25,316.9883,34.25,312.9883" style="stroke:#181818;stroke-width:1.0;"/><line style="stroke:#181818;stroke-width:1.0;stroke-dasharray:2.0,2.0;" x1="32.25" x2="330.25" y1="312.9883" y2="312.9883"/><text fill="#000000" font-family="sans-serif" font-size="13" font-weight="bold" lengthAdjust="spacing" textLength="7" x="44.25" y="307.7256">6</text><text fill="#000000" font-family="sans-serif" font-size="13" lengthAdjust="spacing" textLength="158" x="55.25" y="307.7256">displays operation success</text><!--SRC=[bP0zRiCm38LtduB8b0391J8KAEeMw51qCD2TbHbRiFugqWby-xAExNGmKfGJ9V6zzr7SsP0memSVGpHjZfv0Say5Boy9JOSDLJ8uWan6C3Jkzm2tMCUB3GsSq34LXLZHqMfW8GyLVVKK345fiVaPtrPLkOC3F3gX753icU0zg0nxYQ7tdvIrDn8pR5xUDe0CppwvE10L6YZMs8H1O7Ey9emJrtRKsJCAtIG5QCqdE3pCN4ULTGmITQV6wbK6X3ErrYZxISDjuAJRsXX6YyLvZeAf9h-3MYynHr1NtPk5eKP1s7vCpg_b7agrsSDJdpFf7ftdtMXMqsh6AhiCYNZEe7eCMSVyWvFRU650vwwS6EeRkOdXPBF7vG_-GpY9-GxQVRBQSd8uCCH4UMG0xeqXvdMMRm00]--></g></svg>