<?xml version="1.0" encoding="us-ascii" standalone="no"?><svg xmlns="http://www.w3.org/2000/svg" xmlns:xlink="http://www.w3.org/1999/xlink" contentStyleType="text/css" height="486px" preserveAspectRatio="none" style="width:320px;height:486px;background:#FFFFFF;" version="1.1" viewBox="0 0 320 486" width="320px" zoomAndPan="magnify"><defs/><g><!--class HRM--><g id="elem_HRM"><rect codeLine="11" fill="#F1F1F1" height="36.6211" id="HRM" rx="2.5" ry="2.5" style="stroke:#181818;stroke-width:0.5;" width="36" x="141.77" y="44"/><text fill="#000000" font-family="sans-serif" font-size="14" lengthAdjust="spacing" textLength="30" x="144.77" y="64.1074">HRM</text><line style="stroke:#181818;stroke-width:0.5;" x1="142.77" x2="176.77" y1="72.6211" y2="72.6211"/></g><!--class SystemUser--><g id="elem_SystemUser"><rect codeLine="15" fill="#F1F1F1" height="111.1055" id="SystemUser" rx="2.5" ry="2.5" style="stroke:#181818;stroke-width:0.5;" width="81" x="25.27" y="7"/><text fill="#000000" font-family="sans-serif" font-size="14" lengthAdjust="spacing" textLength="75" x="28.27" y="27.1074">SystemUser</text><line style="stroke:#181818;stroke-width:0.5;" x1="26.27" x2="105.27" y1="35.6211" y2="35.6211"/><text fill="#000000" font-family="sans-serif" font-size="14" lengthAdjust="spacing" textLength="35" x="31.27" y="54.7285">name</text><text fill="#000000" font-family="sans-serif" font-size="14" lengthAdjust="spacing" textLength="33" x="31.27" y="73.3496">email</text><text fill="#000000" font-family="sans-serif" font-size="14" lengthAdjust="spacing" textLength="60" x="31.27" y="91.9707">password</text><text fill="#000000" font-family="sans-serif" font-size="14" lengthAdjust="spacing" textLength="40" x="31.27" y="110.5918">phone</text></g><!--class Collaborator--><g id="elem_Collaborator"><rect codeLine="23" fill="#F1F1F1" height="129.7266" id="Collaborator" rx="2.5" ry="2.5" style="stroke:#181818;stroke-width:0.5;" width="105" x="24.27" y="350"/><text fill="#000000" font-family="sans-serif" font-size="14" lengthAdjust="spacing" textLength="78" x="37.77" y="370.1074">Collaborator</text><line style="stroke:#181818;stroke-width:0.5;" x1="25.27" x2="128.27" y1="378.6211" y2="378.6211"/><text fill="#000000" font-family="sans-serif" font-size="14" lengthAdjust="spacing" textLength="56" x="30.27" y="397.7285">birthdate</text><text fill="#000000" font-family="sans-serif" font-size="14" lengthAdjust="spacing" textLength="93" x="30.27" y="416.3496">admissionDate</text><text fill="#000000" font-family="sans-serif" font-size="14" lengthAdjust="spacing" textLength="51" x="30.27" y="434.9707">address</text><text fill="#000000" font-family="sans-serif" font-size="14" lengthAdjust="spacing" textLength="68" x="30.27" y="453.5918">idDocType</text><text fill="#000000" font-family="sans-serif" font-size="14" lengthAdjust="spacing" textLength="60" x="30.27" y="472.2129">idNumber</text></g><!--class Team--><g id="elem_Team"><rect codeLine="33" fill="#F1F1F1" height="73.8633" id="Team" rx="2.5" ry="2.5" style="stroke:#181818;stroke-width:0.5;" width="96" x="111.77" y="197"/><text fill="#000000" font-family="sans-serif" font-size="14" lengthAdjust="spacing" textLength="36" x="141.77" y="217.1074">Team</text><line style="stroke:#181818;stroke-width:0.5;" x1="112.77" x2="206.77" y1="225.6211" y2="225.6211"/><text fill="#000000" font-family="sans-serif" font-size="14" lengthAdjust="spacing" textLength="81" x="117.77" y="244.7285">minimumSize</text><text fill="#000000" font-family="sans-serif" font-size="14" lengthAdjust="spacing" textLength="84" x="117.77" y="263.3496">maximumSize</text></g><!--class Skill--><g id="elem_Skill"><rect codeLine="39" fill="#F1F1F1" height="55.2422" id="Skill" rx="2.5" ry="2.5" style="stroke:#181818;stroke-width:0.5;" width="47" x="200.27" y="387.5"/><text fill="#000000" font-family="sans-serif" font-size="14" lengthAdjust="spacing" textLength="25" x="211.27" y="407.6074">Skill</text><line style="stroke:#181818;stroke-width:0.5;" x1="201.27" x2="246.27" y1="416.1211" y2="416.1211"/><text fill="#000000" font-family="sans-serif" font-size="14" lengthAdjust="spacing" textLength="35" x="206.27" y="435.2285">name</text></g><!--link HRM to Collaborator--><g id="link_HRM_Collaborator"><path codeLine="43" d="M149.94,81.12 C143.3,92.28 133.91,106.68 123.77,118 C87.14,158.9 52.09,147.28 28.77,197 C6,245.56 22.11,305.36 41.59,349.88 " fill="none" id="HRM-Collaborator" style="stroke:#181818;stroke-width:1.0;"/><polygon fill="#000000" points="31.9005,238.7828,38.0082,231.4927,32.5567,229.2949,31.9005,238.7828" style="stroke:#000000;stroke-width:1.0;"/><text fill="#000000" font-family="sans-serif" font-size="13" lengthAdjust="spacing" textLength="50" x="42.77" y="239.5283">registers</text><text fill="#000000" font-family="sans-serif" font-size="13" lengthAdjust="spacing" textLength="7" x="134.8201" y="102.5268">1</text><text fill="#000000" font-family="sans-serif" font-size="13" lengthAdjust="spacing" textLength="5" x="32.4688" y="338.887">*</text></g><!--link HRM to Team--><g id="link_HRM_Team"><path codeLine="44" d="M159.77,81 C159.77,108.24 159.77,161.33 159.77,196.99 " fill="none" id="HRM-Team" style="stroke:#181818;stroke-width:1.0;"/><polygon fill="#000000" points="164.77,162.6455,167.7089,153.6004,161.8311,153.6004,164.77,162.6455" style="stroke:#000000;stroke-width:1.0;"/><text fill="#000000" font-family="sans-serif" font-size="13" lengthAdjust="spacing" textLength="57" x="173.77" y="163.0283">generates</text><text fill="#000000" font-family="sans-serif" font-size="13" lengthAdjust="spacing" textLength="7" x="161.3169" y="102.7163">1</text><text fill="#000000" font-family="sans-serif" font-size="13" lengthAdjust="spacing" textLength="5" x="154.3091" y="185.6668">*</text></g><!--link Team to Collaborator--><g id="link_Team_Collaborator"><path codeLine="45" d="M142.98,271.22 C132.51,293.8 118.74,323.49 106.48,349.94 " fill="none" id="Team-Collaborator" style="stroke:#181818;stroke-width:1.0;"/><polygon fill="#000000" points="131.6667,315.1816,138.1378,308.212,132.8053,305.7395,131.6667,315.1816" style="stroke:#000000;stroke-width:1.0;"/><text fill="#000000" font-family="sans-serif" font-size="13" lengthAdjust="spacing" textLength="21" x="142.77" y="316.0283">has</text><text fill="#000000" font-family="sans-serif" font-size="13" lengthAdjust="spacing" textLength="7" x="128.2882" y="292.8561">1</text><text fill="#000000" font-family="sans-serif" font-size="13" lengthAdjust="spacing" textLength="5" x="104.4561" y="338.9536">*</text></g><!--link Team to Skill--><g id="link_Team_Skill"><path codeLine="46" d="M172.72,271.22 C185.03,305.65 203.25,356.61 214.27,387.43 " fill="none" id="Team-Skill" style="stroke:#181818;stroke-width:1.0;"/><polygon fill="#000000" points="197.4534,315.3536,197.1755,305.8471,191.6408,307.826,197.4534,315.3536" style="stroke:#000000;stroke-width:1.0;"/><text fill="#000000" font-family="sans-serif" font-size="13" lengthAdjust="spacing" textLength="21" x="204.77" y="316.0283">has</text><text fill="#000000" font-family="sans-serif" font-size="13" lengthAdjust="spacing" textLength="7" x="162.9539" y="292.8561">1</text><text fill="#000000" font-family="sans-serif" font-size="13" lengthAdjust="spacing" textLength="5" x="206.495" y="376.1228">*</text></g><!--link HRM to Skill--><g id="link_HRM_Skill"><path codeLine="47" d="M177.88,75.94 C197.41,90.56 227.36,116.85 239.77,148 C272.47,230.09 247.47,337.76 232.67,387.14 " fill="none" id="HRM-Skill" style="stroke:#181818;stroke-width:1.0;"/><polygon fill="#000000" points="261.637,239.0698,262.963,229.6521,257.1742,230.6713,261.637,239.0698" style="stroke:#000000;stroke-width:1.0;"/><text fill="#000000" font-family="sans-serif" font-size="13" lengthAdjust="spacing" textLength="43" x="269.77" y="239.5283">creates</text><text fill="#000000" font-family="sans-serif" font-size="13" lengthAdjust="spacing" textLength="7" x="185.7008" y="74.7157">1</text><text fill="#000000" font-family="sans-serif" font-size="13" lengthAdjust="spacing" textLength="5" x="229.07" y="376.2199">*</text></g><!--link Collaborator to Skill--><g id="link_Collaborator_Skill"><path codeLine="48" d="M129.43,415 C153.65,415 181.16,415 200.2,415 " fill="none" id="Collaborator-Skill" style="stroke:#181818;stroke-width:1.0;"/><polygon fill="#000000" points="156.77,402.6455,147.7249,399.7066,147.7249,405.5844,156.77,402.6455" style="stroke:#000000;stroke-width:1.0;"/><text fill="#000000" font-family="sans-serif" font-size="13" lengthAdjust="spacing" textLength="21" x="160.77" y="408.0283">has</text><text fill="#000000" font-family="sans-serif" font-size="13" lengthAdjust="spacing" textLength="7" x="137.2453" y="410.9241">1</text><text fill="#000000" font-family="sans-serif" font-size="13" lengthAdjust="spacing" textLength="20" x="168.4191" y="430.893">0..*</text></g><!--reverse link SystemUser to HRM--><g id="link_SystemUser_HRM"><path codeLine="49" d="M124.53,62.5 C136.18,62.5 129.82,62.5 141.47,62.5 " fill="none" id="SystemUser-backto-HRM" style="stroke:#181818;stroke-width:1.0;"/><polygon fill="none" points="106.53,62.5,124.53,68.5,124.53,56.5,106.53,62.5" style="stroke:#181818;stroke-width:1.0;"/></g><!--SRC=[RL7BJiCm4BpxArOvLcfLhXL2GlH03t2WvGCszXAlwaTaEogbyEyuILFS2fzcTyQpEtRSisine0NhdPSwU4kGGaSYNfWMvHuRsgQZ8GWa4xh6b8AeKVa3kmO-q4GIek2amHWVKmfSTuasqhijVn4iXT2i22G7cRq6R2bfhw8GmnruVdk1an0_KxqznaJsFLB8RSZ7eQK1a4Ks0sgpyE236Wlj7HK6JzuOh7t0v2UBcaFI2jFeWyfoZEpT-g-Z0iKuO5PhBtV7bixLQsTh2htzD617EV19M7PiEzld51O_BxY8icTZoXIPwUDMTr317AfPTRtiAZzxmpb-YF1GA4VfC7O53JdASkebGwlKb7OhqFYlQ5nhec_7JAmCT9vojUEq-tAncC6jL_5tzz_p_cl5Bm00]--></g></svg>