<?xml version="1.0" encoding="us-ascii" standalone="no"?><svg xmlns="http://www.w3.org/2000/svg" xmlns:xlink="http://www.w3.org/1999/xlink" contentStyleType="text/css" height="1214px" preserveAspectRatio="none" style="width:1936px;height:1214px;background:#FFFFFF;" version="1.1" viewBox="0 0 1936 1214" width="1936px" zoomAndPan="magnify"><defs/><g><!--class MS--><g id="elem_MS"><rect codeLine="12" fill="#F1F1F1" height="129.7266" id="MS" rx="2.5" ry="2.5" style="stroke:#181818;stroke-width:0.5;" width="101" x="356" y="71.93"/><text fill="#000000" font-family="sans-serif" font-size="14" lengthAdjust="spacing" textLength="20" x="396.5" y="92.0374">MS</text><line style="stroke:#181818;stroke-width:0.5;" x1="357" x2="456" y1="100.5511" y2="100.5511"/><text fill="#000000" font-family="sans-serif" font-size="14" lengthAdjust="spacing" textLength="35" x="362" y="119.6585">name</text><text fill="#000000" font-family="sans-serif" font-size="14" lengthAdjust="spacing" textLength="68" x="362" y="138.2796">vatNumber</text><text fill="#000000" font-family="sans-serif" font-size="14" lengthAdjust="spacing" textLength="47" x="362" y="156.9007">website</text><text fill="#000000" font-family="sans-serif" font-size="14" lengthAdjust="spacing" textLength="89" x="362" y="175.5218">phoneNumber</text><text fill="#000000" font-family="sans-serif" font-size="14" lengthAdjust="spacing" textLength="33" x="362" y="194.1429">email</text></g><!--class GreenSpace--><g id="elem_GreenSpace"><rect codeLine="21" fill="#F1F1F1" height="55.2422" id="GreenSpace" rx="2.5" ry="2.5" style="stroke:#181818;stroke-width:0.5;" width="86" x="659.5" y="799.43"/><text fill="#000000" font-family="sans-serif" font-size="14" lengthAdjust="spacing" textLength="80" x="662.5" y="819.5374">GreenSpace</text><line style="stroke:#181818;stroke-width:0.5;" x1="660.5" x2="744.5" y1="828.0511" y2="828.0511"/><text fill="#000000" font-family="sans-serif" font-size="14" lengthAdjust="spacing" textLength="24" x="665.5" y="847.1585">size</text></g><!--class Garden--><g id="elem_Garden"><rect codeLine="25" fill="#F1F1F1" height="36.6211" id="Garden" rx="2.5" ry="2.5" style="stroke:#181818;stroke-width:0.5;" width="54" x="554.5" y="989.43"/><text fill="#000000" font-family="sans-serif" font-size="14" lengthAdjust="spacing" textLength="48" x="557.5" y="1009.5374">Garden</text><line style="stroke:#181818;stroke-width:0.5;" x1="555.5" x2="607.5" y1="1018.0511" y2="1018.0511"/></g><!--class MediumSizedPark--><g id="elem_MediumSizedPark"><rect codeLine="26" fill="#F1F1F1" height="36.6211" id="MediumSizedPark" rx="2.5" ry="2.5" style="stroke:#181818;stroke-width:0.5;" width="118" x="643.5" y="989.43"/><text fill="#000000" font-family="sans-serif" font-size="14" lengthAdjust="spacing" textLength="112" x="646.5" y="1009.5374">MediumSizedPark</text><line style="stroke:#181818;stroke-width:0.5;" x1="644.5" x2="760.5" y1="1018.0511" y2="1018.0511"/></g><!--class LargeSizedPark--><g id="elem_LargeSizedPark"><rect codeLine="27" fill="#F1F1F1" height="36.6211" id="LargeSizedPark" rx="2.5" ry="2.5" style="stroke:#181818;stroke-width:0.5;" width="106" x="796.5" y="989.43"/><text fill="#000000" font-family="sans-serif" font-size="14" lengthAdjust="spacing" textLength="100" x="799.5" y="1009.5374">LargeSizedPark</text><line style="stroke:#181818;stroke-width:0.5;" x1="797.5" x2="901.5" y1="1018.0511" y2="1018.0511"/></g><!--class SystemUser--><g id="elem_SystemUser"><rect codeLine="29" fill="#F1F1F1" height="111.1055" id="SystemUser" rx="2.5" ry="2.5" style="stroke:#181818;stroke-width:0.5;" width="81" x="857" y="81.43"/><text fill="#000000" font-family="sans-serif" font-size="14" lengthAdjust="spacing" textLength="75" x="860" y="101.5374">SystemUser</text><line style="stroke:#181818;stroke-width:0.5;" x1="858" x2="937" y1="110.0511" y2="110.0511"/><text fill="#000000" font-family="sans-serif" font-size="14" lengthAdjust="spacing" textLength="35" x="863" y="129.1585">name</text><text fill="#000000" font-family="sans-serif" font-size="14" lengthAdjust="spacing" textLength="33" x="863" y="147.7796">email</text><text fill="#000000" font-family="sans-serif" font-size="14" lengthAdjust="spacing" textLength="60" x="863" y="166.4007">password</text><text fill="#000000" font-family="sans-serif" font-size="14" lengthAdjust="spacing" textLength="40" x="863" y="185.0218">phone</text></g><!--class HRM--><g id="elem_HRM"><rect codeLine="36" fill="#F1F1F1" height="36.6211" id="HRM" rx="2.5" ry="2.5" style="stroke:#181818;stroke-width:0.5;" width="36" x="1204.5" y="299.43"/><text fill="#000000" font-family="sans-serif" font-size="14" lengthAdjust="spacing" textLength="30" x="1207.5" y="319.5374">HRM</text><line style="stroke:#181818;stroke-width:0.5;" x1="1205.5" x2="1239.5" y1="328.0511" y2="328.0511"/></g><!--class VFM--><g id="elem_VFM"><rect codeLine="38" fill="#F1F1F1" height="36.6211" id="VFM" rx="2.5" ry="2.5" style="stroke:#181818;stroke-width:0.5;" width="35" x="732" y="299.43"/><text fill="#000000" font-family="sans-serif" font-size="14" lengthAdjust="spacing" textLength="29" x="735" y="319.5374">VFM</text><line style="stroke:#181818;stroke-width:0.5;" x1="733" x2="766" y1="328.0511" y2="328.0511"/></g><!--class Collaborator--><g id="elem_Collaborator"><rect codeLine="40" fill="#F1F1F1" height="129.7266" id="Collaborator" rx="2.5" ry="2.5" style="stroke:#181818;stroke-width:0.5;" width="136" x="1154.5" y="942.93"/><text fill="#000000" font-family="sans-serif" font-size="14" lengthAdjust="spacing" textLength="78" x="1183.5" y="963.0374">Collaborator</text><line style="stroke:#181818;stroke-width:0.5;" x1="1155.5" x2="1289.5" y1="971.5511" y2="971.5511"/><text fill="#000000" font-family="sans-serif" font-size="14" lengthAdjust="spacing" textLength="56" x="1160.5" y="990.6585">birthdate</text><text fill="#000000" font-family="sans-serif" font-size="14" lengthAdjust="spacing" textLength="93" x="1160.5" y="1009.2796">admissionDate</text><text fill="#000000" font-family="sans-serif" font-size="14" lengthAdjust="spacing" textLength="51" x="1160.5" y="1027.9007">address</text><text fill="#000000" font-family="sans-serif" font-size="14" lengthAdjust="spacing" textLength="107" x="1160.5" y="1046.5218">idDocumentType</text><text fill="#000000" font-family="sans-serif" font-size="14" lengthAdjust="spacing" textLength="124" x="1160.5" y="1065.1429">idDocumentNumber</text></g><!--class GSM--><g id="elem_GSM"><rect codeLine="47" fill="#F1F1F1" height="36.6211" id="GSM" rx="2.5" ry="2.5" style="stroke:#181818;stroke-width:0.5;" width="37" x="879" y="384.93"/><text fill="#000000" font-family="sans-serif" font-size="14" lengthAdjust="spacing" textLength="31" x="882" y="405.0374">GSM</text><line style="stroke:#181818;stroke-width:0.5;" x1="880" x2="915" y1="413.5511" y2="413.5511"/></g><!--class GSU--><g id="elem_GSU"><rect codeLine="49" fill="#F1F1F1" height="36.6211" id="GSU" rx="2.5" ry="2.5" style="stroke:#181818;stroke-width:0.5;" width="35" x="1548" y="299.43"/><text fill="#000000" font-family="sans-serif" font-size="14" lengthAdjust="spacing" textLength="29" x="1551" y="319.5374">GSU</text><line style="stroke:#181818;stroke-width:0.5;" x1="1549" x2="1582" y1="328.0511" y2="328.0511"/></g><!--class TeamProposal--><g id="elem_TeamProposal"><rect codeLine="52" fill="#F1F1F1" height="36.6211" id="TeamProposal" rx="2.5" ry="2.5" style="stroke:#181818;stroke-width:0.5;" width="98" x="1071.5" y="544.93"/><text fill="#000000" font-family="sans-serif" font-size="14" lengthAdjust="spacing" textLength="92" x="1074.5" y="565.0374">TeamProposal</text><line style="stroke:#181818;stroke-width:0.5;" x1="1072.5" x2="1168.5" y1="573.5511" y2="573.5511"/></g><!--class Team--><g id="elem_Team"><rect codeLine="55" fill="#F1F1F1" height="73.8633" id="Team" rx="2.5" ry="2.5" style="stroke:#181818;stroke-width:0.5;" width="96" x="869.5" y="789.93"/><text fill="#000000" font-family="sans-serif" font-size="14" lengthAdjust="spacing" textLength="36" x="899.5" y="810.0374">Team</text><line style="stroke:#181818;stroke-width:0.5;" x1="870.5" x2="964.5" y1="818.5511" y2="818.5511"/><text fill="#000000" font-family="sans-serif" font-size="14" lengthAdjust="spacing" textLength="81" x="875.5" y="837.6585">minimumSize</text><text fill="#000000" font-family="sans-serif" font-size="14" lengthAdjust="spacing" textLength="84" x="875.5" y="856.2796">maximumSize</text></g><!--class Skill--><g id="elem_Skill"><rect codeLine="60" fill="#F1F1F1" height="55.2422" id="Skill" rx="2.5" ry="2.5" style="stroke:#181818;stroke-width:0.5;" width="47" x="1405" y="704.93"/><text fill="#000000" font-family="sans-serif" font-size="14" lengthAdjust="spacing" textLength="25" x="1416" y="725.0374">Skill</text><line style="stroke:#181818;stroke-width:0.5;" x1="1406" x2="1451" y1="733.5511" y2="733.5511"/><text fill="#000000" font-family="sans-serif" font-size="14" lengthAdjust="spacing" textLength="35" x="1411" y="752.6585">name</text></g><!--class Job--><g id="elem_Job"><rect codeLine="64" fill="#F1F1F1" height="55.2422" id="Job" rx="2.5" ry="2.5" style="stroke:#181818;stroke-width:0.5;" width="47" x="1326" y="1151.93"/><text fill="#000000" font-family="sans-serif" font-size="14" lengthAdjust="spacing" textLength="22" x="1338.5" y="1172.0374">Job</text><line style="stroke:#181818;stroke-width:0.5;" x1="1327" x2="1372" y1="1180.5511" y2="1180.5511"/><text fill="#000000" font-family="sans-serif" font-size="14" lengthAdjust="spacing" textLength="35" x="1332" y="1199.6585">name</text></g><!--class Task--><g id="elem_Task"><rect codeLine="68" fill="#F1F1F1" height="73.8633" id="Task" rx="2.5" ry="2.5" style="stroke:#181818;stroke-width:0.5;" width="81" x="409" y="526.43"/><text fill="#000000" font-family="sans-serif" font-size="14" lengthAdjust="spacing" textLength="31" x="434" y="546.5374">Task</text><line style="stroke:#181818;stroke-width:0.5;" x1="410" x2="489" y1="555.0511" y2="555.0511"/><text fill="#000000" font-family="sans-serif" font-size="14" lengthAdjust="spacing" textLength="69" x="415" y="574.1585">description</text><text fill="#000000" font-family="sans-serif" font-size="14" lengthAdjust="spacing" textLength="68" x="415" y="592.7796">recurrency</text></g><!--class VehicleCheckup--><g id="elem_VehicleCheckup"><rect codeLine="73" fill="#F1F1F1" height="73.8633" id="VehicleCheckup" rx="2.5" ry="2.5" style="stroke:#181818;stroke-width:0.5;" width="108" x="313.5" y="789.93"/><text fill="#000000" font-family="sans-serif" font-size="14" lengthAdjust="spacing" textLength="102" x="316.5" y="810.0374">VehicleCheckup</text><line style="stroke:#181818;stroke-width:0.5;" x1="314.5" x2="420.5" y1="818.5511" y2="818.5511"/><text fill="#000000" font-family="sans-serif" font-size="14" lengthAdjust="spacing" textLength="28" x="319.5" y="837.6585">date</text><text fill="#000000" font-family="sans-serif" font-size="14" lengthAdjust="spacing" textLength="72" x="319.5" y="856.2796">currentKms</text></g><!--class Vehicle--><g id="elem_Vehicle"><rect codeLine="79" fill="#F1F1F1" height="222.832" id="Vehicle" rx="2.5" ry="2.5" style="stroke:#181818;stroke-width:0.5;" width="133" x="7" y="451.93"/><text fill="#000000" font-family="sans-serif" font-size="14" lengthAdjust="spacing" textLength="46" x="50.5" y="472.0374">Vehicle</text><line style="stroke:#181818;stroke-width:0.5;" x1="8" x2="139" y1="480.5511" y2="480.5511"/><text fill="#000000" font-family="sans-serif" font-size="14" lengthAdjust="spacing" textLength="37" x="13" y="499.6585">brand</text><text fill="#000000" font-family="sans-serif" font-size="14" lengthAdjust="spacing" textLength="38" x="13" y="518.2796">model</text><text fill="#000000" font-family="sans-serif" font-size="14" lengthAdjust="spacing" textLength="57" x="13" y="536.9007">vehicleID</text><text fill="#000000" font-family="sans-serif" font-size="14" lengthAdjust="spacing" textLength="27" x="13" y="555.5218">type</text><text fill="#000000" font-family="sans-serif" font-size="14" lengthAdjust="spacing" textLength="25" x="13" y="574.1429">tare</text><text fill="#000000" font-family="sans-serif" font-size="14" lengthAdjust="spacing" textLength="79" x="13" y="592.764">grossWeight</text><text fill="#000000" font-family="sans-serif" font-size="14" lengthAdjust="spacing" textLength="65" x="13" y="611.3851">currentKm</text><text fill="#000000" font-family="sans-serif" font-size="14" lengthAdjust="spacing" textLength="78" x="13" y="630.0062">registerDate</text><text fill="#000000" font-family="sans-serif" font-size="14" lengthAdjust="spacing" textLength="97" x="13" y="648.6273">acquisitionDate</text><text fill="#000000" font-family="sans-serif" font-size="14" lengthAdjust="spacing" textLength="121" x="13" y="667.2484">checkupFrequency</text></g><!--class Machine--><g id="elem_Machine"><rect codeLine="92" fill="#F1F1F1" height="55.2422" id="Machine" rx="2.5" ry="2.5" style="stroke:#181818;stroke-width:0.5;" width="59" x="633" y="535.93"/><text fill="#000000" font-family="sans-serif" font-size="14" lengthAdjust="spacing" textLength="53" x="636" y="556.0374">Machine</text><line style="stroke:#181818;stroke-width:0.5;" x1="634" x2="691" y1="564.5511" y2="564.5511"/><text fill="#000000" font-family="sans-serif" font-size="14" lengthAdjust="spacing" textLength="35" x="639" y="583.6585">name</text></g><!--class Equipment--><g id="elem_Equipment"><rect codeLine="96" fill="#F1F1F1" height="55.2422" id="Equipment" rx="2.5" ry="2.5" style="stroke:#181818;stroke-width:0.5;" width="73" x="525" y="535.93"/><text fill="#000000" font-family="sans-serif" font-size="14" lengthAdjust="spacing" textLength="67" x="528" y="556.0374">Equipment</text><line style="stroke:#181818;stroke-width:0.5;" x1="526" x2="597" y1="564.5511" y2="564.5511"/><text fill="#000000" font-family="sans-serif" font-size="14" lengthAdjust="spacing" textLength="35" x="531" y="583.6585">name</text></g><!--class Agenda--><g id="elem_Agenda"><rect codeLine="100" fill="#F1F1F1" height="36.6211" id="Agenda" rx="2.5" ry="2.5" style="stroke:#181818;stroke-width:0.5;" width="55" x="642" y="118.43"/><text fill="#000000" font-family="sans-serif" font-size="14" lengthAdjust="spacing" textLength="49" x="645" y="138.5374">Agenda</text><line style="stroke:#181818;stroke-width:0.5;" x1="643" x2="696" y1="147.0511" y2="147.0511"/></g><!--class AgendaEntry--><g id="elem_AgendaEntry"><rect codeLine="103" fill="#F1F1F1" height="73.8633" id="AgendaEntry" rx="2.5" ry="2.5" style="stroke:#181818;stroke-width:0.5;" width="88" x="469.5" y="280.93"/><text fill="#000000" font-family="sans-serif" font-size="14" lengthAdjust="spacing" textLength="82" x="472.5" y="301.0374">AgendaEntry</text><line style="stroke:#181818;stroke-width:0.5;" x1="470.5" x2="556.5" y1="309.5511" y2="309.5511"/><text fill="#000000" font-family="sans-serif" font-size="14" lengthAdjust="spacing" textLength="72" x="475.5" y="328.6585">timeInterval</text><text fill="#000000" font-family="sans-serif" font-size="14" lengthAdjust="spacing" textLength="28" x="475.5" y="347.2796">date</text></g><!--class GreenSpacesUserPortal--><g id="elem_GreenSpacesUserPortal"><rect codeLine="108" fill="#F1F1F1" height="36.6211" id="GreenSpacesUserPortal" rx="2.5" ry="2.5" style="stroke:#181818;stroke-width:0.5;" width="159" x="1655" y="544.93"/><text fill="#000000" font-family="sans-serif" font-size="14" lengthAdjust="spacing" textLength="153" x="1658" y="565.0374">GreenSpacesUserPortal</text><line style="stroke:#181818;stroke-width:0.5;" x1="1656" x2="1813" y1="573.5511" y2="573.5511"/></g><!--class Comment--><g id="elem_Comment"><rect codeLine="111" fill="#F1F1F1" height="55.2422" id="Comment" rx="2.5" ry="2.5" style="stroke:#181818;stroke-width:0.5;" width="81" x="1629" y="799.43"/><text fill="#000000" font-family="sans-serif" font-size="14" lengthAdjust="spacing" textLength="60" x="1639.5" y="819.5374">Comment</text><line style="stroke:#181818;stroke-width:0.5;" x1="1630" x2="1709" y1="828.0511" y2="828.0511"/><text fill="#000000" font-family="sans-serif" font-size="14" lengthAdjust="spacing" textLength="69" x="1635" y="847.1585">description</text></g><!--class Report--><g id="elem_Report"><rect codeLine="114" fill="#F1F1F1" height="55.2422" id="Report" rx="2.5" ry="2.5" style="stroke:#181818;stroke-width:0.5;" width="81" x="1800" y="799.43"/><text fill="#000000" font-family="sans-serif" font-size="14" lengthAdjust="spacing" textLength="43" x="1819" y="819.5374">Report</text><line style="stroke:#181818;stroke-width:0.5;" x1="1801" x2="1880" y1="828.0511" y2="828.0511"/><text fill="#000000" font-family="sans-serif" font-size="14" lengthAdjust="spacing" textLength="69" x="1806" y="847.1585">description</text></g><!--class ToDoList--><g id="elem_ToDoList"><rect codeLine="120" fill="#F1F1F1" height="36.6211" id="ToDoList" rx="2.5" ry="2.5" style="stroke:#181818;stroke-width:0.5;" width="63" x="247" y="544.93"/><text fill="#000000" font-family="sans-serif" font-size="14" lengthAdjust="spacing" textLength="57" x="250" y="565.0374">ToDoList</text><line style="stroke:#181818;stroke-width:0.5;" x1="248" x2="309" y1="573.5511" y2="573.5511"/></g><!--reverse link SystemUser to HRM--><g id="link_SystemUser_HRM"><path codeLine="125" d="M953.7673,168.9228 C1024.8973,208.0928 1153.74,279.06 1204.45,306.99 " fill="none" id="SystemUser-backto-HRM" style="stroke:#181818;stroke-width:1.0;"/><polygon fill="none" points="938,160.24,950.8731,174.1786,956.6616,163.667,938,160.24" style="stroke:#181818;stroke-width:1.0;"/></g><!--reverse link SystemUser to VFM--><g id="link_SystemUser_VFM"><path codeLine="126" d="M845.1977,201.1903 C814.3877,238.4403 785.4,273.51 764.08,299.29 " fill="none" id="SystemUser-backto-VFM" style="stroke:#181818;stroke-width:1.0;"/><polygon fill="none" points="856.67,187.32,840.5742,197.3662,849.8211,205.0144,856.67,187.32" style="stroke:#181818;stroke-width:1.0;"/></g><!--reverse link SystemUser to Collaborator--><g id="link_SystemUser_Collaborator"><path codeLine="127" d="M951.2585,183.7443 C986.4085,216.7143 1018.5,258.23 1018.5,316.93 C1018.5,316.93 1018.5,316.93 1018.5,827.93 C1018.5,901.79 1094.98,952.31 1154.29,980.38 " fill="none" id="SystemUser-backto-Collaborator" style="stroke:#181818;stroke-width:1.0;"/><polygon fill="none" points="938.13,171.43,947.1538,188.1205,955.3633,179.3681,938.13,171.43" style="stroke:#181818;stroke-width:1.0;"/></g><!--reverse link SystemUser to GSM--><g id="link_SystemUser_GSM"><path codeLine="128" d="M897.5,210.73 C897.5,270.96 897.5,346.26 897.5,384.83 " fill="none" id="SystemUser-backto-GSM" style="stroke:#181818;stroke-width:1.0;"/><polygon fill="none" points="897.5,192.73,891.5,210.73,903.5,210.73,897.5,192.73" style="stroke:#181818;stroke-width:1.0;"/></g><!--reverse link SystemUser to GSU--><g id="link_SystemUser_GSU"><path codeLine="129" d="M955.6667,153.5186 C1084.1267,187.9386 1459.71,288.58 1547.84,312.2 " fill="none" id="SystemUser-backto-GSU" style="stroke:#181818;stroke-width:1.0;"/><polygon fill="none" points="938.28,148.86,954.1138,159.3142,957.2196,147.7231,938.28,148.86" style="stroke:#181818;stroke-width:1.0;"/></g><!--reverse link GreenSpace to Garden--><g id="link_GreenSpace_Garden"><path codeLine="131" d="M674.3072,869.641 C649.2472,906.701 614.79,957.68 593.49,989.19 " fill="none" id="GreenSpace-backto-Garden" style="stroke:#181818;stroke-width:1.0;"/><polygon fill="none" points="684.39,854.73,669.3369,866.28,679.2775,873.0019,684.39,854.73" style="stroke:#181818;stroke-width:1.0;"/></g><!--reverse link GreenSpace to MediumSizedPark--><g id="link_GreenSpace_MediumSizedPark"><path codeLine="132" d="M702.5,872.73 C702.5,909.79 702.5,957.68 702.5,989.19 " fill="none" id="GreenSpace-backto-MediumSizedPark" style="stroke:#181818;stroke-width:1.0;"/><polygon fill="none" points="702.5,854.73,696.5,872.73,708.5,872.73,702.5,854.73" style="stroke:#181818;stroke-width:1.0;"/></g><!--reverse link GreenSpace to LargeSizedPark--><g id="link_GreenSpace_LargeSizedPark"><path codeLine="133" d="M735.9326,868.6413 C766.3626,905.7013 809.05,957.68 834.93,989.19 " fill="none" id="GreenSpace-backto-LargeSizedPark" style="stroke:#181818;stroke-width:1.0;"/><polygon fill="none" points="724.51,854.73,731.2955,872.4488,740.5697,864.8338,724.51,854.73" style="stroke:#181818;stroke-width:1.0;"/></g><!--link Task to GreenSpace--><g id="link_Task_GreenSpace"><path codeLine="135" d="M463.76,600.64 C473.83,623.45 488.85,652.68 507.5,674.93 C551.51,727.43 616.68,773.29 659.37,800.3 " fill="none" id="Task-GreenSpace" style="stroke:#181818;stroke-width:1.0;"/><polygon fill="#000000" points="604.9991,736.1471,600.7685,727.6293,596.5698,731.7428,604.9991,736.1471" style="stroke:#000000;stroke-width:1.0;"/><text fill="#000000" font-family="sans-serif" font-size="13" lengthAdjust="spacing" textLength="53" x="610.5" y="737.9583">occurs in</text><text fill="#000000" font-family="sans-serif" font-size="13" lengthAdjust="spacing" textLength="7" x="466.7015" y="622.2745">1</text><text fill="#000000" font-family="sans-serif" font-size="13" lengthAdjust="spacing" textLength="20" x="631.5665" y="792.1722">1..*</text></g><!--link Agenda to AgendaEntry--><g id="link_Agenda_AgendaEntry"><path codeLine="137" d="M653.97,155.75 C628.69,184.75 578.15,242.74 545.09,280.68 " fill="none" id="Agenda-AgendaEntry" style="stroke:#181818;stroke-width:1.0;"/><polygon fill="#000000" points="589.2149,245.3449,597.3733,240.457,592.9421,236.5951,589.2149,245.3449" style="stroke:#000000;stroke-width:1.0;"/><text fill="#000000" font-family="sans-serif" font-size="13" lengthAdjust="spacing" textLength="21" x="601.5" y="246.9583">has</text><text fill="#000000" font-family="sans-serif" font-size="13" lengthAdjust="spacing" textLength="7" x="641.8557" y="177.2106">1</text><text fill="#000000" font-family="sans-serif" font-size="13" lengthAdjust="spacing" textLength="5" x="545.2717" y="269.5972">*</text></g><!--link AgendaEntry to Task--><g id="link_AgendaEntry_Task"><path codeLine="138" d="M469.1,334.36 C418.85,352.03 343.4,379.28 339.5,384.93 C304.49,435.65 364.49,497.28 408.75,532.97 " fill="none" id="AgendaEntry-Task" style="stroke:#181818;stroke-width:1.0;"/><polygon fill="#000000" points="343.0463,408.3595,348.488,400.5596,342.8641,398.8507,343.0463,408.3595" style="stroke:#000000;stroke-width:1.0;"/><text fill="#000000" font-family="sans-serif" font-size="13" lengthAdjust="spacing" textLength="41" x="353.5" y="408.9583">defines</text><text fill="#000000" font-family="sans-serif" font-size="13" lengthAdjust="spacing" textLength="7" x="454.4659" y="332.6862">1</text><text fill="#000000" font-family="sans-serif" font-size="13" lengthAdjust="spacing" textLength="7" x="393.868" y="543.1248">1</text></g><!--link VFM to Vehicle--><g id="link_VFM_Vehicle"><path codeLine="141" d="M731.63,336.62 C723.88,343.34 714.33,350.45 704.5,354.93 C637.08,385.67 612.83,368.85 540.5,384.93 C477.26,398.99 462.79,408.07 399.5,421.93 C324.55,438.35 300.3,422.37 229.5,451.93 C197.95,465.1 166.54,485.56 140.26,505.31 " fill="none" id="VFM-Vehicle" style="stroke:#181818;stroke-width:1.0;"/><polygon fill="#000000" points="540.6918,404.9471,550.1961,405.2921,548.5837,399.6397,540.6918,404.9471" style="stroke:#000000;stroke-width:1.0;"/><text fill="#000000" font-family="sans-serif" font-size="13" lengthAdjust="spacing" textLength="50" x="554.5" y="408.9583">registers</text><text fill="#000000" font-family="sans-serif" font-size="13" lengthAdjust="spacing" textLength="7" x="716.8887" y="337.1347">1</text><text fill="#000000" font-family="sans-serif" font-size="13" lengthAdjust="spacing" textLength="5" x="147.8353" y="495.0769">*</text></g><!--link VFM to Machine--><g id="link_VFM_Machine"><path codeLine="142" d="M743.24,336.44 C728.2,378.53 689.95,485.61 672.03,535.75 " fill="none" id="VFM-Machine" style="stroke:#181818;stroke-width:1.0;"/><polygon fill="#000000" points="727.8177,408.284,733.6286,400.7551,728.0934,398.7774,727.8177,408.284" style="stroke:#000000;stroke-width:1.0;"/><text fill="#000000" font-family="sans-serif" font-size="13" lengthAdjust="spacing" textLength="53" x="738.5" y="408.9583">manages</text><text fill="#000000" font-family="sans-serif" font-size="13" lengthAdjust="spacing" textLength="7" x="752.1513" y="358.1591">1</text><text fill="#000000" font-family="sans-serif" font-size="13" lengthAdjust="spacing" textLength="5" x="668.5678" y="524.8693">*</text></g><!--link VFM to Equipment--><g id="link_VFM_Equipment"><path codeLine="143" d="M731.87,334.72 C723.86,341.44 714.05,349.07 704.5,354.93 C677.04,371.79 661.09,361.95 638.5,384.93 C596.24,427.93 575.38,497.9 566.7,535.87 " fill="none" id="VFM-Equipment" style="stroke:#181818;stroke-width:1.0;"/><polygon fill="#000000" points="640.327,407.4397,648.3383,402.3143,643.7957,398.5843,640.327,407.4397" style="stroke:#000000;stroke-width:1.0;"/><text fill="#000000" font-family="sans-serif" font-size="13" lengthAdjust="spacing" textLength="53" x="652.5" y="408.9583">manages</text><text fill="#000000" font-family="sans-serif" font-size="13" lengthAdjust="spacing" textLength="7" x="700.7946" y="354.9944">1</text><text fill="#000000" font-family="sans-serif" font-size="13" lengthAdjust="spacing" textLength="5" x="562.3244" y="524.5651">*</text></g><!--link Vehicle to VehicleCheckup--><g id="link_Vehicle_VehicleCheckup"><path codeLine="144" d="M86.04,674.96 C94.5,705.92 108.48,737.27 131.5,759.93 C180.01,807.68 260.07,821.53 313.29,825.19 " fill="none" id="Vehicle-VehicleCheckup" style="stroke:#181818;stroke-width:1.0;"/><polygon fill="#000000" points="140.671,735.3329,134.7463,727.8931,131.5049,732.7964,140.671,735.3329" style="stroke:#000000;stroke-width:1.0;"/><text fill="#000000" font-family="sans-serif" font-size="13" lengthAdjust="spacing" textLength="21" x="145.5" y="737.9583">has</text><text fill="#000000" font-family="sans-serif" font-size="13" lengthAdjust="spacing" textLength="7" x="67.2347" y="696.6924">1</text><text fill="#000000" font-family="sans-serif" font-size="13" lengthAdjust="spacing" textLength="20" x="281.6345" y="821.059">0..*</text></g><!--link VFM to VehicleCheckup--><g id="link_VFM_VehicleCheckup"><path codeLine="145" d="M767.14,335.22 C779.1,347.55 793.9,365.61 800.5,384.93 C805.81,400.49 803.32,405.73 800.5,421.93 C779.97,539.65 792.09,588.57 709.5,674.93 C685.26,700.28 668.72,691.07 636.5,704.93 C561.59,737.16 475.78,776.11 421.62,800.96 " fill="none" id="VFM-VehicleCheckup" style="stroke:#181818;stroke-width:1.0;"/><polygon fill="#000000" points="796.5209,567.5911,804.2704,562.0779,799.5498,558.5758,796.5209,567.5911" style="stroke:#000000;stroke-width:1.0;"/><text fill="#000000" font-family="sans-serif" font-size="13" lengthAdjust="spacing" textLength="50" x="808.5" y="568.9583">registers</text><text fill="#000000" font-family="sans-serif" font-size="13" lengthAdjust="spacing" textLength="7" x="775.0944" y="335.385">1</text><text fill="#000000" font-family="sans-serif" font-size="13" lengthAdjust="spacing" textLength="5" x="429.5822" y="793.1711">*</text></g><!--link GSU to Report--><g id="link_GSU_Report"><path codeLine="146" d="M1583.29,321.8 C1632.47,330.75 1770.64,363.13 1831.5,451.93 C1906.22,560.95 1867.84,732.98 1848.95,798.95 " fill="none" id="GSU-Report" style="stroke:#181818;stroke-width:1.0;"/><polygon fill="#000000" points="1882.9322,567.9441,1881.1,558.6116,1875.9645,561.4709,1882.9322,567.9441" style="stroke:#000000;stroke-width:1.0;"/><text fill="#000000" font-family="sans-serif" font-size="13" lengthAdjust="spacing" textLength="39" x="1889.5" y="568.9583">makes</text><text fill="#000000" font-family="sans-serif" font-size="13" lengthAdjust="spacing" textLength="7" x="1599.1617" y="317.674">1</text><text fill="#000000" font-family="sans-serif" font-size="13" lengthAdjust="spacing" textLength="20" x="1828.6109" y="788.0037">0..*</text></g><!--link GSU to Comment--><g id="link_GSU_Comment"><path codeLine="147" d="M1563.58,336.44 C1558.4,389.02 1546.9,549.59 1583.5,674.93 C1597.28,722.13 1628.38,770.44 1649.15,799.31 " fill="none" id="GSU-Comment" style="stroke:#181818;stroke-width:1.0;"/><polygon fill="#000000" points="1589.4089,568.4922,1590.6546,559.0636,1584.8747,560.1321,1589.4089,568.4922" style="stroke:#000000;stroke-width:1.0;"/><text fill="#000000" font-family="sans-serif" font-size="13" lengthAdjust="spacing" textLength="39" x="1597.5" y="568.9583">makes</text><text fill="#000000" font-family="sans-serif" font-size="13" lengthAdjust="spacing" textLength="7" x="1566.9072" y="358.1591">1</text><text fill="#000000" font-family="sans-serif" font-size="13" lengthAdjust="spacing" textLength="20" x="1617.6691" y="787.9912">0..*</text></g><!--link GSU to GreenSpacesUserPortal--><g id="link_GSU_GreenSpacesUserPortal"><path codeLine="148" d="M1577.65,336.44 C1608.76,381.26 1691,499.75 1722.23,544.75 " fill="none" id="GSU-GreenSpacesUserPortal" style="stroke:#181818;stroke-width:1.0;"/><polygon fill="#000000" points="1642.3509,407.6831,1639.6079,398.5767,1634.7792,401.9281,1642.3509,407.6831" style="stroke:#000000;stroke-width:1.0;"/><text fill="#000000" font-family="sans-serif" font-size="13" lengthAdjust="spacing" textLength="28" x="1648.5" y="408.9583">uses</text><text fill="#000000" font-family="sans-serif" font-size="13" lengthAdjust="spacing" textLength="7" x="1592.3016" y="358.1591">1</text><text fill="#000000" font-family="sans-serif" font-size="13" lengthAdjust="spacing" textLength="7" x="1701.1754" y="533.557">1</text></g><!--link GreenSpacesUserPortal to Report--><g id="link_GreenSpacesUserPortal_Report"><path codeLine="149" d="M1741.62,581.99 C1759.82,626.88 1808.11,746.03 1829.75,799.41 " fill="none" id="GreenSpacesUserPortal-Report" style="stroke:#181818;stroke-width:1.0;"/><polygon fill="#000000" points="1818.3783,737.2093,1817.7041,727.7227,1812.2568,729.9307,1818.3783,737.2093" style="stroke:#000000;stroke-width:1.0;"/><text fill="#000000" font-family="sans-serif" font-size="13" lengthAdjust="spacing" textLength="21" x="1825.5" y="737.9583">has</text><text fill="#000000" font-family="sans-serif" font-size="13" lengthAdjust="spacing" textLength="7" x="1745.7319" y="603.7232">1</text><text fill="#000000" font-family="sans-serif" font-size="13" lengthAdjust="spacing" textLength="20" x="1800.4891" y="788.1143">0..*</text></g><!--link GreenSpacesUserPortal to Comment--><g id="link_GreenSpacesUserPortal_Comment"><path codeLine="150" d="M1729.86,582.15 C1722.92,608.77 1709.47,660.69 1698.5,704.93 C1690.49,737.22 1681.63,774.45 1675.83,798.99 " fill="none" id="GreenSpacesUserPortal-Comment" style="stroke:#181818;stroke-width:1.0;"/><polygon fill="#000000" points="1702.2911,737.4272,1707.3297,729.361,1701.6263,727.9399,1702.2911,737.4272" style="stroke:#000000;stroke-width:1.0;"/><text fill="#000000" font-family="sans-serif" font-size="13" lengthAdjust="spacing" textLength="21" x="1712.5" y="737.9583">has</text><text fill="#000000" font-family="sans-serif" font-size="13" lengthAdjust="spacing" textLength="7" x="1716.1349" y="603.5837">1</text><text fill="#000000" font-family="sans-serif" font-size="13" lengthAdjust="spacing" textLength="20" x="1650.5897" y="788.0524">0..*</text></g><!--link MS to SystemUser--><g id="link_MS_SystemUser"><path codeLine="152" d="M457.19,91.56 C482.92,71.56 515.8,50.28 549.5,39.93 C659.97,6 791.69,71.16 856.85,110.35 " fill="none" id="MS-SystemUser" style="stroke:#181818;stroke-width:1.0;"/><polygon fill="#000000" points="559.4945,32.8103,550.5974,29.4499,550.3214,35.3212,559.4945,32.8103" style="stroke:#000000;stroke-width:1.0;"/><text fill="#000000" font-family="sans-serif" font-size="13" lengthAdjust="spacing" textLength="21" x="563.5" y="37.9583">has</text><text fill="#000000" font-family="sans-serif" font-size="13" lengthAdjust="spacing" textLength="7" x="465.1492" y="80.7176">1</text><text fill="#000000" font-family="sans-serif" font-size="13" lengthAdjust="spacing" textLength="5" x="843.8942" y="100.9276">*</text></g><!--link MS to Task--><g id="link_MS_Task"><path codeLine="153" d="M363.14,202.06 C329.45,260.26 292.88,348.02 321.5,421.93 C338.96,467.01 378.35,506.51 408.86,532.05 " fill="none" id="MS-Task" style="stroke:#181818;stroke-width:1.0;"/><polygon fill="#000000" points="332.1862,323.0282,333.856,313.6654,328.0337,314.472,332.1862,323.0282" style="stroke:#000000;stroke-width:1.0;"/><text fill="#000000" font-family="sans-serif" font-size="13" lengthAdjust="spacing" textLength="30" x="340.5" y="323.4583">owns</text><text fill="#000000" font-family="sans-serif" font-size="13" lengthAdjust="spacing" textLength="7" x="342.8951" y="223.7105">1</text><text fill="#000000" font-family="sans-serif" font-size="13" lengthAdjust="spacing" textLength="5" x="395.9061" y="521.7649">*</text></g><!--link MS to Machine--><g id="link_MS_Machine"><path codeLine="154" d="M457,168.44 C518.23,208.91 617.67,286.81 653.5,384.93 C672.08,435.8 669.41,500.34 665.9,535.9 " fill="none" id="MS-Machine" style="stroke:#181818;stroke-width:1.0;"/><polygon fill="#000000" points="646.9711,322.4222,645.0558,313.1065,639.9459,316.0114,646.9711,322.4222" style="stroke:#000000;stroke-width:1.0;"/><text fill="#000000" font-family="sans-serif" font-size="13" lengthAdjust="spacing" textLength="21" x="653.5" y="323.4583">has</text><text fill="#000000" font-family="sans-serif" font-size="13" lengthAdjust="spacing" textLength="7" x="464.9313" y="168.8894">1</text><text fill="#000000" font-family="sans-serif" font-size="13" lengthAdjust="spacing" textLength="5" x="661.1081" y="524.602">*</text></g><!--link MS to Vehicle--><g id="link_MS_Vehicle"><path codeLine="155" d="M355.66,164.77 C311.82,189.98 249.18,231.21 207.5,280.93 C165.51,331.01 133.32,396.48 111.03,451.67 " fill="none" id="MS-Vehicle" style="stroke:#181818;stroke-width:1.0;"/><polygon fill="#000000" points="209.2559,321.8802,217.3609,316.9043,212.8882,313.0906,209.2559,321.8802" style="stroke:#000000;stroke-width:1.0;"/><text fill="#000000" font-family="sans-serif" font-size="13" lengthAdjust="spacing" textLength="21" x="221.5" y="323.4583">has</text><text fill="#000000" font-family="sans-serif" font-size="13" lengthAdjust="spacing" textLength="7" x="337.0893" y="164.4351">1</text><text fill="#000000" font-family="sans-serif" font-size="13" lengthAdjust="spacing" textLength="5" x="108.3836" y="440.6338">*</text></g><!--link MS to Equipment--><g id="link_MS_Equipment"><path codeLine="156" d="M355.75,173.45 C297.56,218.41 216.4,296.95 267.5,354.93 C337.7,434.58 422.82,317.1 504.5,384.93 C549.69,422.46 559.46,495.99 561.31,535.62 " fill="none" id="MS-Equipment" style="stroke:#181818;stroke-width:1.0;"/><polygon fill="#000000" points="274.9681,322.4239,273.0592,313.1069,267.9474,316.0083,274.9681,322.4239" style="stroke:#000000;stroke-width:1.0;"/><text fill="#000000" font-family="sans-serif" font-size="13" lengthAdjust="spacing" textLength="21" x="281.5" y="323.4583">has</text><text fill="#000000" font-family="sans-serif" font-size="13" lengthAdjust="spacing" textLength="7" x="341.1211" y="193.8489">1</text><text fill="#000000" font-family="sans-serif" font-size="13" lengthAdjust="spacing" textLength="5" x="555.7216" y="524.7108">*</text></g><!--link Task to Team--><g id="link_Task_Team"><path codeLine="158" d="M459.28,600.61 C467.89,625.38 482.97,656.91 507.5,674.93 C567.57,719.06 601.73,681.53 672.5,704.93 C744.12,728.61 821.28,769.55 869.48,797.18 " fill="none" id="Task-Team" style="stroke:#181818;stroke-width:1.0;"/><polygon fill="#000000" points="805.009,734.7363,798.1222,728.1771,795.5821,733.4778,805.009,734.7363" style="stroke:#000000;stroke-width:1.0;"/><text fill="#000000" font-family="sans-serif" font-size="13" lengthAdjust="spacing" textLength="79" x="809.5" y="737.9583">carried out by</text><text fill="#000000" font-family="sans-serif" font-size="13" lengthAdjust="spacing" textLength="7" x="453.3201" y="622.2395">1</text><text fill="#000000" font-family="sans-serif" font-size="13" lengthAdjust="spacing" textLength="7" x="846.6725" y="788.8595">1</text></g><!--link ToDoList to Task--><g id="link_ToDoList_Task"><path codeLine="159" d="M310.26,563.43 C338.08,563.43 378.66,563.43 408.84,563.43 " fill="none" id="ToDoList-Task" style="stroke:#181818;stroke-width:1.0;"/><polygon fill="#000000" points="337.5,551.0755,328.4549,548.1366,328.4549,554.0144,337.5,551.0755" style="stroke:#000000;stroke-width:1.0;"/><text fill="#000000" font-family="sans-serif" font-size="13" lengthAdjust="spacing" textLength="49" x="341.5" y="556.4583">contains</text><text fill="#000000" font-family="sans-serif" font-size="13" lengthAdjust="spacing" textLength="7" x="317.9731" y="558.6722">1</text><text fill="#000000" font-family="sans-serif" font-size="13" lengthAdjust="spacing" textLength="20" x="381.0827" y="578.7926">0..*</text></g><!--link HRM to Collaborator--><g id="link_HRM_Collaborator"><path codeLine="161" d="M1222.5,336.63 C1222.5,421.86 1222.5,792.1 1222.5,942.78 " fill="none" id="HRM-Collaborator" style="stroke:#181818;stroke-width:1.0;"/><polygon fill="#000000" points="1227.5,737.5755,1230.4389,728.5304,1224.5611,728.5304,1227.5,737.5755" style="stroke:#000000;stroke-width:1.0;"/><text fill="#000000" font-family="sans-serif" font-size="13" lengthAdjust="spacing" textLength="50" x="1236.5" y="737.9583">registers</text><text fill="#000000" font-family="sans-serif" font-size="13" lengthAdjust="spacing" textLength="7" x="1210.0219" y="358.0583">1</text><text fill="#000000" font-family="sans-serif" font-size="13" lengthAdjust="spacing" textLength="5" x="1217.2266" y="931.7837">*</text></g><!--link HRM to Job--><g id="link_HRM_Job"><path codeLine="162" d="M1240.8,323.15 C1286.29,334.7 1404.47,371.5 1455.5,451.93 C1522.25,557.15 1477.5,606.82 1477.5,731.43 C1477.5,731.43 1477.5,731.43 1477.5,1008.93 C1477.5,1077.33 1410.29,1135.6 1373.28,1162.51 " fill="none" id="HRM-Job" style="stroke:#181818;stroke-width:1.0;"/><polygon fill="#000000" points="1483.2795,832.0144,1484.7723,822.6217,1478.9664,823.5381,1483.2795,832.0144" style="stroke:#000000;stroke-width:1.0;"/><text fill="#000000" font-family="sans-serif" font-size="13" lengthAdjust="spacing" textLength="43" x="1491.5" y="832.4583">creates</text><text fill="#000000" font-family="sans-serif" font-size="13" lengthAdjust="spacing" textLength="7" x="1248.3863" y="319.2396">1</text><text fill="#000000" font-family="sans-serif" font-size="13" lengthAdjust="spacing" textLength="5" x="1380.9998" y="1152.0784">*</text></g><!--link HRM to Skill--><g id="link_HRM_Skill"><path codeLine="163" d="M1229.81,336.44 C1235.23,349.67 1242.66,368.32 1248.5,384.93 C1293.26,512.24 1256.23,567.95 1338.5,674.93 C1355.71,697.31 1384.49,713.12 1404.87,722.22 " fill="none" id="HRM-Skill" style="stroke:#181818;stroke-width:1.0;"/><polygon fill="#000000" points="1266.5661,408.1286,1265.5047,398.6775,1260.1522,401.1064,1266.5661,408.1286" style="stroke:#000000;stroke-width:1.0;"/><text fill="#000000" font-family="sans-serif" font-size="13" lengthAdjust="spacing" textLength="43" x="1273.5" y="408.9583">creates</text><text fill="#000000" font-family="sans-serif" font-size="13" lengthAdjust="spacing" textLength="7" x="1233.4128" y="358.1591">1</text><text fill="#000000" font-family="sans-serif" font-size="13" lengthAdjust="spacing" textLength="5" x="1391.8677" y="713.5259">*</text></g><!--link HRM to TeamProposal--><g id="link_HRM_TeamProposal"><path codeLine="164" d="M1204.38,326.25 C1182.78,336.06 1147.58,355.68 1131.5,384.93 C1102.87,437.01 1111.08,511.13 1116.91,544.7 " fill="none" id="HRM-TeamProposal" style="stroke:#181818;stroke-width:1.0;"/><polygon fill="#000000" points="1134.6414,408.2172,1140.732,400.9127,1135.2753,398.7278,1134.6414,408.2172" style="stroke:#000000;stroke-width:1.0;"/><text fill="#000000" font-family="sans-serif" font-size="13" lengthAdjust="spacing" textLength="50" x="1145.5" y="408.9583">requests</text><text fill="#000000" font-family="sans-serif" font-size="13" lengthAdjust="spacing" textLength="7" x="1189.4076" y="323.3355">1</text><text fill="#000000" font-family="sans-serif" font-size="13" lengthAdjust="spacing" textLength="7" x="1098.6523" y="533.8279">1</text></g><!--link TeamProposal to Team--><g id="link_TeamProposal_Team"><path codeLine="165" d="M1106.87,581.99 C1073.97,624.36 989.73,732.89 945.53,789.82 " fill="none" id="TeamProposal-Team" style="stroke:#181818;stroke-width:1.0;"/><polygon fill="#000000" points="1008.4339,736.5251,1016.302,731.1824,1011.659,727.578,1008.4339,736.5251" style="stroke:#000000;stroke-width:1.0;"/><text fill="#000000" font-family="sans-serif" font-size="13" lengthAdjust="spacing" textLength="21" x="1020.5" y="737.9583">has</text><text fill="#000000" font-family="sans-serif" font-size="13" lengthAdjust="spacing" textLength="7" x="1090.4897" y="603.7232">1</text><text fill="#000000" font-family="sans-serif" font-size="13" lengthAdjust="spacing" textLength="7" x="938.5432" y="778.7621">1</text></g><!--link Team to Collaborator--><g id="link_Team_Collaborator"><path codeLine="166" d="M926.95,864.14 C932.96,880.94 942.35,900.01 956.5,912.93 C1011.65,963.3 1095.49,987.02 1154.26,997.96 " fill="none" id="Team-Collaborator" style="stroke:#181818;stroke-width:1.0;"/><polygon fill="#000000" points="965.8088,906.1121,959.5051,898.9907,956.5231,904.056,965.8088,906.1121" style="stroke:#000000;stroke-width:1.0;"/><text fill="#000000" font-family="sans-serif" font-size="13" lengthAdjust="spacing" textLength="21" x="970.5" y="908.9583">has</text><text fill="#000000" font-family="sans-serif" font-size="13" lengthAdjust="spacing" textLength="7" x="916.6042" y="885.7745">1</text><text fill="#000000" font-family="sans-serif" font-size="13" lengthAdjust="spacing" textLength="5" x="1141.5228" y="992.999">*</text></g><!--link Skill to Collaborator--><g id="link_Skill_Collaborator"><path codeLine="167" d="M1404.7,757.53 C1403.64,758.37 1402.57,759.17 1401.5,759.93 C1376.85,777.4 1362.3,769.01 1340.5,789.93 C1296.1,832.54 1264.4,895.57 1245.11,942.73 " fill="none" id="Skill-Collaborator" style="stroke:#181818;stroke-width:1.0;"/><polygon fill="#000000" points="1342.2361,830.8632,1350.3669,825.9297,1345.9142,822.0927,1342.2361,830.8632" style="stroke:#000000;stroke-width:1.0;"/><text fill="#000000" font-family="sans-serif" font-size="13" lengthAdjust="spacing" textLength="79" x="1354.5" y="832.4583">is atributed to</text><text fill="#000000" font-family="sans-serif" font-size="13" lengthAdjust="spacing" textLength="20" x="1376.8838" y="758.4027">1..*</text><text fill="#000000" font-family="sans-serif" font-size="13" lengthAdjust="spacing" textLength="7" x="1240.2002" y="931.7283">1</text></g><!--link Collaborator to Job--><g id="link_Collaborator_Job"><path codeLine="168" d="M1270.51,1073.01 C1291.02,1100.39 1313.83,1130.82 1329.64,1151.93 " fill="none" id="Collaborator-Job" style="stroke:#181818;stroke-width:1.0;"/><polygon fill="#000000" points="1312.4981,1116.577,1309.4265,1107.576,1304.7225,1111.1005,1312.4981,1116.577" style="stroke:#000000;stroke-width:1.0;"/><text fill="#000000" font-family="sans-serif" font-size="13" lengthAdjust="spacing" textLength="21" x="1318.5" y="1117.9583">has</text><text fill="#000000" font-family="sans-serif" font-size="13" lengthAdjust="spacing" textLength="7" x="1263.8938" y="1094.6554">1</text><text fill="#000000" font-family="sans-serif" font-size="13" lengthAdjust="spacing" textLength="7" x="1317.238" y="1140.639">1</text></g><!--link MS to Agenda--><g id="link_MS_Agenda"><path codeLine="169" d="M457.21,136.93 C512.29,136.93 598.24,136.93 641.96,136.93 " fill="none" id="MS-Agenda" style="stroke:#181818;stroke-width:1.0;"/><polygon fill="#000000" points="541.5,124.5755,532.4549,121.6366,532.4549,127.5144,541.5,124.5755" style="stroke:#000000;stroke-width:1.0;"/><text fill="#000000" font-family="sans-serif" font-size="13" lengthAdjust="spacing" textLength="21" x="545.5" y="129.9583">has</text><text fill="#000000" font-family="sans-serif" font-size="13" lengthAdjust="spacing" textLength="7" x="464.8333" y="132.8027">1</text><text fill="#000000" font-family="sans-serif" font-size="13" lengthAdjust="spacing" textLength="7" x="627.006" y="131.866">1</text></g><!--link MS to GreenSpace--><g id="link_MS_GreenSpace"><path codeLine="170" d="M355.67,196.16 C270.67,300.88 119.34,524.13 229.5,674.93 C281.55,746.19 552.91,800.05 659.48,818.77 " fill="none" id="MS-GreenSpace" style="stroke:#181818;stroke-width:1.0;"/><polygon fill="#000000" points="240.6927,408.0691,239.3673,398.6513,234.0848,401.229,240.6927,408.0691" style="stroke:#000000;stroke-width:1.0;"/><text fill="#000000" font-family="sans-serif" font-size="13" lengthAdjust="spacing" textLength="53" x="247.5" y="408.9583">manages</text><text fill="#000000" font-family="sans-serif" font-size="13" lengthAdjust="spacing" textLength="7" x="325.0735" y="199.4054">1</text><text fill="#000000" font-family="sans-serif" font-size="13" lengthAdjust="spacing" textLength="5" x="646.3718" y="812.8351">*</text></g><!--link GSU to GreenSpace--><g id="link_GSU_GreenSpace"><path codeLine="171" d="M1557.47,336.44 C1522.45,411.93 1381.12,708.08 1295.5,759.93 C1211.1,811.04 950.04,775.03 852.5,789.93 C816.1,795.49 775.53,805.46 745.77,813.5 " fill="none" id="GSU-GreenSpace" style="stroke:#181818;stroke-width:1.0;"/><polygon fill="#000000" points="1499.1894,566.109,1508.4765,564.0596,1505.4982,558.9922,1499.1894,566.109" style="stroke:#000000;stroke-width:1.0;"/><text fill="#000000" font-family="sans-serif" font-size="13" lengthAdjust="spacing" textLength="28" x="1512.5" y="568.9583">uses</text><text fill="#000000" font-family="sans-serif" font-size="13" lengthAdjust="spacing" textLength="7" x="1533.5397" y="358.1591">1</text><text fill="#000000" font-family="sans-serif" font-size="13" lengthAdjust="spacing" textLength="5" x="753.6367" y="806.7633">*</text></g><!--link GSM to GreenSpace--><g id="link_GSM_GreenSpace"><path codeLine="172" d="M902.45,422.17 C916.94,478.18 953.53,653.82 875.5,759.93 C845.31,800.98 786.19,816.5 745.53,822.36 " fill="none" id="GSM-GreenSpace" style="stroke:#181818;stroke-width:1.0;"/><polygon fill="#000000" points="926.6747,568.2304,932.7128,560.8825,927.2406,558.7367,926.6747,568.2304" style="stroke:#000000;stroke-width:1.0;"/><text fill="#000000" font-family="sans-serif" font-size="13" lengthAdjust="spacing" textLength="53" x="937.5" y="568.9583">manages</text><text fill="#000000" font-family="sans-serif" font-size="13" lengthAdjust="spacing" textLength="7" x="891.3022" y="443.6091">1</text><text fill="#000000" font-family="sans-serif" font-size="13" lengthAdjust="spacing" textLength="5" x="753.64" y="837.0927">*</text></g><!--SRC=[TLPBRzGm4BxxLrYv8261sEiALK8jb0955MdXx8sd6sjZEzXEo_BuxunVYPFDvhBsp3SFptnZhpq8rJF399LQwQOrMW9rPW1YHqtFcWFRG-sE7L03ZMDgtvK0spAkduNQqqVMMI0l9bKd5BXZ3rGRrshoeeD7HvscHknRHxdmxeHMXREcOzQ-Syw8tU3Wfj6g5h-1lY6ju40ROHgC7TOIq2Mt1BzWH6zh-eTG_1IJ41PFp7qTv0vCs3t3pWeNDNsh5HGwa4nqXFpBlguDWAhnw91yMioYK3F3GUMumCKWVPhyZfb3advX1eis2fEqFbe7yi62MUOQCmYv8V1P6pubwXEBzX-_tQ9Xtdt_KEukTTUndJRCwUnz9x3kdAL3Cow5jLZlgqd23LWRre9VwMQGeDmzTcmXIgNAeQxhCl1r_H1sQNiFJDuPtMlBkgKSzr8e8MEzY6I_nlM8gm-YwyhoZ9fFUhSglsVsa1GSR6D47rZbzyYmmHXGpN62VuTM88qkMsWEGu-6qJ8N9HgupzAUcCGWEyDKw8xK74BFdgBwviflN2gVOoRyxesszWTuofFIFGdfxGKomkIEiERd892bHPEQcEO70p-7-JbkMTFYWAsMv3twwNtdLhNlzg0uAviJ9U-LCyTauOI46uMvFR5kAj3AX5XFvpkSSDOL3Y-rzE5Fkv9Pymrwj5dJZnDzhw_q5wpFdp2Pf1YUjtzVlVB3S2B3aJYHbODneaGghyWU22ckW2YCCxyKBwT_gL_U0u6hrQQYgAishr-_hChBPajrWmInL2XwGKZgKuOZjkpJbhRC8goKZPwhE1LRhEqZaiJZ2F4NHaKdRvdMsv687XTHT4D7N6RQbagcy36OeV0RWHFjPj0KfjgCs3TuSbejHp6VAFWkuf_0odInMp6FoNELsEMJEC0P42uJIS_2mcALwLjA1njDrjJ9j0WL4nfFUDPgBR_HYk0R5peSgbBGDWE2FaGE24y1fDIp6dLPCtMqDCpQYHU5DYlB7gUq9bAdyFwkt_hBYnaZW5CzEBexek22vA7E-DYlc2a-zuw9a2tnJrt9WTdpDcV04khV2NHc06-iDNryOKuHHTDdZvYFXfUlTHuwqoIluIUUELOal7Ndii-Wc4Qw1EBCpc72KfR-2N7_j-c2p8em-j_a8o-xjSaNnf8W4qKc8fOJw-TWSmQLUL_VbfHPz_CV]--></g></svg>