<?xml version="1.0" encoding="us-ascii" standalone="no"?><svg xmlns="http://www.w3.org/2000/svg" xmlns:xlink="http://www.w3.org/1999/xlink" contentStyleType="text/css" height="1161px" preserveAspectRatio="none" style="width:2538px;height:1161px;background:#FFFFFF;" version="1.1" viewBox="0 0 2538 1161" width="2538px" zoomAndPan="magnify"><defs/><g><!--class Organization--><g id="elem_Organization"><rect codeLine="16" fill="#F1F1F1" height="129.7266" id="Organization" rx="2.5" ry="2.5" style="stroke:#181818;stroke-width:0.5;" width="101" x="505.5" y="55.7627"/><text fill="#000000" font-family="sans-serif" font-size="14" lengthAdjust="spacing" textLength="80" x="516" y="75.8701">Organization</text><line style="stroke:#181818;stroke-width:0.5;" x1="506.5" x2="605.5" y1="84.3838" y2="84.3838"/><text fill="#000000" font-family="sans-serif" font-size="14" lengthAdjust="spacing" textLength="35" x="511.5" y="103.4912">name</text><text fill="#000000" font-family="sans-serif" font-size="14" lengthAdjust="spacing" textLength="68" x="511.5" y="122.1123">vatNumber</text><text fill="#000000" font-family="sans-serif" font-size="14" lengthAdjust="spacing" textLength="47" x="511.5" y="140.7334">website</text><text fill="#000000" font-family="sans-serif" font-size="14" lengthAdjust="spacing" textLength="89" x="511.5" y="159.3545">phoneNumber</text><text fill="#000000" font-family="sans-serif" font-size="14" lengthAdjust="spacing" textLength="33" x="511.5" y="177.9756">email</text></g><!--class GreenSpace--><g id="elem_GreenSpace"><rect codeLine="25" fill="#F1F1F1" height="55.2422" id="GreenSpace" rx="2.5" ry="2.5" style="stroke:#181818;stroke-width:0.5;" width="86" x="132" y="737.2627"/><text fill="#000000" font-family="sans-serif" font-size="14" lengthAdjust="spacing" textLength="80" x="135" y="757.3701">GreenSpace</text><line style="stroke:#181818;stroke-width:0.5;" x1="133" x2="217" y1="765.8838" y2="765.8838"/><text fill="#000000" font-family="sans-serif" font-size="14" lengthAdjust="spacing" textLength="24" x="138" y="784.9912">size</text></g><!--class Garden--><g id="elem_Garden"><rect codeLine="29" fill="#F1F1F1" height="36.6211" id="Garden" rx="2.5" ry="2.5" style="stroke:#181818;stroke-width:0.5;" width="54" x="148" y="936.2627"/><text fill="#000000" font-family="sans-serif" font-size="14" lengthAdjust="spacing" textLength="48" x="151" y="956.3701">Garden</text><line style="stroke:#181818;stroke-width:0.5;" x1="149" x2="201" y1="964.8838" y2="964.8838"/></g><!--class MediumSizedPark--><g id="elem_MediumSizedPark"><rect codeLine="30" fill="#F1F1F1" height="36.6211" id="MediumSizedPark" rx="2.5" ry="2.5" style="stroke:#181818;stroke-width:0.5;" width="118" x="237" y="936.2627"/><text fill="#000000" font-family="sans-serif" font-size="14" lengthAdjust="spacing" textLength="112" x="240" y="956.3701">MediumSizedPark</text><line style="stroke:#181818;stroke-width:0.5;" x1="238" x2="354" y1="964.8838" y2="964.8838"/></g><!--class LargeSizedPark--><g id="elem_LargeSizedPark"><rect codeLine="31" fill="#F1F1F1" height="36.6211" id="LargeSizedPark" rx="2.5" ry="2.5" style="stroke:#181818;stroke-width:0.5;" width="106" x="7" y="936.2627"/><text fill="#000000" font-family="sans-serif" font-size="14" lengthAdjust="spacing" textLength="100" x="10" y="956.3701">LargeSizedPark</text><line style="stroke:#181818;stroke-width:0.5;" x1="8" x2="112" y1="964.8838" y2="964.8838"/></g><!--class SystemUser--><g id="elem_SystemUser"><rect codeLine="33" fill="#F1F1F1" height="111.1055" id="SystemUser" rx="2.5" ry="2.5" style="stroke:#181818;stroke-width:0.5;" width="81" x="788.5" y="65.2627"/><text fill="#000000" font-family="sans-serif" font-size="14" lengthAdjust="spacing" textLength="75" x="791.5" y="85.3701">SystemUser</text><line style="stroke:#181818;stroke-width:0.5;" x1="789.5" x2="868.5" y1="93.8838" y2="93.8838"/><text fill="#000000" font-family="sans-serif" font-size="14" lengthAdjust="spacing" textLength="35" x="794.5" y="112.9912">name</text><text fill="#000000" font-family="sans-serif" font-size="14" lengthAdjust="spacing" textLength="33" x="794.5" y="131.6123">email</text><text fill="#000000" font-family="sans-serif" font-size="14" lengthAdjust="spacing" textLength="60" x="794.5" y="150.2334">password</text><text fill="#000000" font-family="sans-serif" font-size="14" lengthAdjust="spacing" textLength="40" x="794.5" y="168.8545">phone</text></g><!--class HRM--><g id="elem_HRM"><rect codeLine="40" fill="#F1F1F1" height="36.6211" id="HRM" rx="2.5" ry="2.5" style="stroke:#181818;stroke-width:0.5;" width="36" x="1015" y="283.2627"/><text fill="#000000" font-family="sans-serif" font-size="14" lengthAdjust="spacing" textLength="30" x="1018" y="303.3701">HRM</text><line style="stroke:#181818;stroke-width:0.5;" x1="1016" x2="1050" y1="311.8838" y2="311.8838"/></g><!--class FM--><g id="elem_FM"><rect codeLine="42" fill="#F1F1F1" height="36.6211" id="FM" rx="2.5" ry="2.5" style="stroke:#181818;stroke-width:0.5;" width="26" x="1915" y="283.2627"/><text fill="#000000" font-family="sans-serif" font-size="14" lengthAdjust="spacing" textLength="20" x="1918" y="303.3701">FM</text><line style="stroke:#181818;stroke-width:0.5;" x1="1916" x2="1940" y1="311.8838" y2="311.8838"/></g><!--class Collaborator--><g id="elem_Collaborator"><rect codeLine="44" fill="#F1F1F1" height="129.7266" id="Collaborator" rx="2.5" ry="2.5" style="stroke:#181818;stroke-width:0.5;" width="136" x="915" y="889.7627"/><text fill="#000000" font-family="sans-serif" font-size="14" lengthAdjust="spacing" textLength="78" x="944" y="909.8701">Collaborator</text><line style="stroke:#181818;stroke-width:0.5;" x1="916" x2="1050" y1="918.3838" y2="918.3838"/><text fill="#000000" font-family="sans-serif" font-size="14" lengthAdjust="spacing" textLength="51" x="921" y="937.4912">birthday</text><text fill="#000000" font-family="sans-serif" font-size="14" lengthAdjust="spacing" textLength="93" x="921" y="956.1123">admissionDate</text><text fill="#000000" font-family="sans-serif" font-size="14" lengthAdjust="spacing" textLength="51" x="921" y="974.7334">address</text><text fill="#000000" font-family="sans-serif" font-size="14" lengthAdjust="spacing" textLength="107" x="921" y="993.3545">idDocumentType</text><text fill="#000000" font-family="sans-serif" font-size="14" lengthAdjust="spacing" textLength="124" x="921" y="1011.9756">idDocumentNumber</text></g><!--class GSM--><g id="elem_GSM"><rect codeLine="51" fill="#F1F1F1" height="36.6211" id="GSM" rx="2.5" ry="2.5" style="stroke:#181818;stroke-width:0.5;" width="37" x="243.5" y="368.7627"/><text fill="#000000" font-family="sans-serif" font-size="14" lengthAdjust="spacing" textLength="31" x="246.5" y="388.8701">GSM</text><line style="stroke:#181818;stroke-width:0.5;" x1="244.5" x2="279.5" y1="397.3838" y2="397.3838"/></g><!--class GSU--><g id="elem_GSU"><rect codeLine="53" fill="#F1F1F1" height="36.6211" id="GSU" rx="2.5" ry="2.5" style="stroke:#181818;stroke-width:0.5;" width="35" x="1358.5" y="283.2627"/><text fill="#000000" font-family="sans-serif" font-size="14" lengthAdjust="spacing" textLength="29" x="1361.5" y="303.3701">GSU</text><line style="stroke:#181818;stroke-width:0.5;" x1="1359.5" x2="1392.5" y1="311.8838" y2="311.8838"/></g><!--class TeamProposal--><g id="elem_TeamProposal"><rect codeLine="56" fill="#F1F1F1" height="36.6211" id="TeamProposal" rx="2.5" ry="2.5" style="stroke:#181818;stroke-width:0.5;" width="98" x="882" y="519.2627"/><text fill="#000000" font-family="sans-serif" font-size="14" lengthAdjust="spacing" textLength="92" x="885" y="539.3701">TeamProposal</text><line style="stroke:#181818;stroke-width:0.5;" x1="883" x2="979" y1="547.8838" y2="547.8838"/></g><!--class Team--><g id="elem_Team"><rect codeLine="59" fill="#F1F1F1" height="36.6211" id="Team" rx="2.5" ry="2.5" style="stroke:#181818;stroke-width:0.5;" width="42" x="717" y="746.2627"/><text fill="#000000" font-family="sans-serif" font-size="14" lengthAdjust="spacing" textLength="36" x="720" y="766.3701">Team</text><line style="stroke:#181818;stroke-width:0.5;" x1="718" x2="758" y1="774.8838" y2="774.8838"/></g><!--class Skill--><g id="elem_Skill"><rect codeLine="62" fill="#F1F1F1" height="55.2422" id="Skill" rx="2.5" ry="2.5" style="stroke:#181818;stroke-width:0.5;" width="47" x="1053.5" y="1098.7627"/><text fill="#000000" font-family="sans-serif" font-size="14" lengthAdjust="spacing" textLength="25" x="1064.5" y="1118.8701">Skill</text><line style="stroke:#181818;stroke-width:0.5;" x1="1054.5" x2="1099.5" y1="1127.3838" y2="1127.3838"/><text fill="#000000" font-family="sans-serif" font-size="14" lengthAdjust="spacing" textLength="35" x="1059.5" y="1146.4912">name</text></g><!--class Job--><g id="elem_Job"><rect codeLine="66" fill="#F1F1F1" height="55.2422" id="Job" rx="2.5" ry="2.5" style="stroke:#181818;stroke-width:0.5;" width="47" x="1170.5" y="1098.7627"/><text fill="#000000" font-family="sans-serif" font-size="14" lengthAdjust="spacing" textLength="22" x="1183" y="1118.8701">Job</text><line style="stroke:#181818;stroke-width:0.5;" x1="1171.5" x2="1216.5" y1="1127.3838" y2="1127.3838"/><text fill="#000000" font-family="sans-serif" font-size="14" lengthAdjust="spacing" textLength="35" x="1176.5" y="1146.4912">name</text></g><!--class Task--><g id="elem_Task"><rect codeLine="70" fill="#F1F1F1" height="73.8633" id="Task" rx="2.5" ry="2.5" style="stroke:#181818;stroke-width:0.5;" width="81" x="363.5" y="500.7627"/><text fill="#000000" font-family="sans-serif" font-size="14" lengthAdjust="spacing" textLength="31" x="388.5" y="520.8701">Task</text><line style="stroke:#181818;stroke-width:0.5;" x1="364.5" x2="443.5" y1="529.3838" y2="529.3838"/><text fill="#000000" font-family="sans-serif" font-size="14" lengthAdjust="spacing" textLength="69" x="369.5" y="548.4912">description</text><text fill="#000000" font-family="sans-serif" font-size="14" lengthAdjust="spacing" textLength="68" x="369.5" y="567.1123">recurrency</text></g><!--class VehicleCheckup--><g id="elem_VehicleCheckup"><rect codeLine="75" fill="#F1F1F1" height="92.4844" id="VehicleCheckup" rx="2.5" ry="2.5" style="stroke:#181818;stroke-width:0.5;" width="108" x="1999" y="718.7627"/><text fill="#000000" font-family="sans-serif" font-size="14" lengthAdjust="spacing" textLength="102" x="2002" y="738.8701">VehicleCheckup</text><line style="stroke:#181818;stroke-width:0.5;" x1="2000" x2="2106" y1="747.3838" y2="747.3838"/><text fill="#000000" font-family="sans-serif" font-size="14" lengthAdjust="spacing" textLength="57" x="2005" y="766.4912">vehicleID</text><text fill="#000000" font-family="sans-serif" font-size="14" lengthAdjust="spacing" textLength="28" x="2005" y="785.1123">date</text><text fill="#000000" font-family="sans-serif" font-size="14" lengthAdjust="spacing" textLength="72" x="2005" y="803.7334">currentKms</text></g><!--class Vehicle--><g id="elem_Vehicle"><rect codeLine="81" fill="#F1F1F1" height="204.2109" id="Vehicle" rx="2.5" ry="2.5" style="stroke:#181818;stroke-width:0.5;" width="133" x="2304.5" y="435.7627"/><text fill="#000000" font-family="sans-serif" font-size="14" lengthAdjust="spacing" textLength="46" x="2348" y="455.8701">Vehicle</text><line style="stroke:#181818;stroke-width:0.5;" x1="2305.5" x2="2436.5" y1="464.3838" y2="464.3838"/><text fill="#000000" font-family="sans-serif" font-size="14" lengthAdjust="spacing" textLength="37" x="2310.5" y="483.4912">brand</text><text fill="#000000" font-family="sans-serif" font-size="14" lengthAdjust="spacing" textLength="38" x="2310.5" y="502.1123">model</text><text fill="#000000" font-family="sans-serif" font-size="14" lengthAdjust="spacing" textLength="27" x="2310.5" y="520.7334">type</text><text fill="#000000" font-family="sans-serif" font-size="14" lengthAdjust="spacing" textLength="25" x="2310.5" y="539.3545">tare</text><text fill="#000000" font-family="sans-serif" font-size="14" lengthAdjust="spacing" textLength="79" x="2310.5" y="557.9756">grossWeight</text><text fill="#000000" font-family="sans-serif" font-size="14" lengthAdjust="spacing" textLength="65" x="2310.5" y="576.5967">currentKm</text><text fill="#000000" font-family="sans-serif" font-size="14" lengthAdjust="spacing" textLength="78" x="2310.5" y="595.2178">registerDate</text><text fill="#000000" font-family="sans-serif" font-size="14" lengthAdjust="spacing" textLength="97" x="2310.5" y="613.8389">acquisitionDate</text><text fill="#000000" font-family="sans-serif" font-size="14" lengthAdjust="spacing" textLength="121" x="2310.5" y="632.46">checkupFrequency</text></g><!--class Machine--><g id="elem_Machine"><rect codeLine="93" fill="#F1F1F1" height="55.2422" id="Machine" rx="2.5" ry="2.5" style="stroke:#181818;stroke-width:0.5;" width="59" x="2472.5" y="510.2627"/><text fill="#000000" font-family="sans-serif" font-size="14" lengthAdjust="spacing" textLength="53" x="2475.5" y="530.3701">Machine</text><line style="stroke:#181818;stroke-width:0.5;" x1="2473.5" x2="2530.5" y1="538.8838" y2="538.8838"/><text fill="#000000" font-family="sans-serif" font-size="14" lengthAdjust="spacing" textLength="35" x="2478.5" y="557.9912">name</text></g><!--class Equipment--><g id="elem_Equipment"><rect codeLine="97" fill="#F1F1F1" height="55.2422" id="Equipment" rx="2.5" ry="2.5" style="stroke:#181818;stroke-width:0.5;" width="73" x="1784.5" y="510.2627"/><text fill="#000000" font-family="sans-serif" font-size="14" lengthAdjust="spacing" textLength="67" x="1787.5" y="530.3701">Equipment</text><line style="stroke:#181818;stroke-width:0.5;" x1="1785.5" x2="1856.5" y1="538.8838" y2="538.8838"/><text fill="#000000" font-family="sans-serif" font-size="14" lengthAdjust="spacing" textLength="35" x="1790.5" y="557.9912">name</text></g><!--class Agenda--><g id="elem_Agenda"><rect codeLine="101" fill="#F1F1F1" height="36.6211" id="Agenda" rx="2.5" ry="2.5" style="stroke:#181818;stroke-width:0.5;" width="55" x="677.5" y="102.2627"/><text fill="#000000" font-family="sans-serif" font-size="14" lengthAdjust="spacing" textLength="49" x="680.5" y="122.3701">Agenda</text><line style="stroke:#181818;stroke-width:0.5;" x1="678.5" x2="731.5" y1="130.8838" y2="130.8838"/></g><!--class AgendaEntry--><g id="elem_AgendaEntry"><rect codeLine="104" fill="#F1F1F1" height="73.8633" id="AgendaEntry" rx="2.5" ry="2.5" style="stroke:#181818;stroke-width:0.5;" width="88" x="661" y="264.7627"/><text fill="#000000" font-family="sans-serif" font-size="14" lengthAdjust="spacing" textLength="82" x="664" y="284.8701">AgendaEntry</text><line style="stroke:#181818;stroke-width:0.5;" x1="662" x2="748" y1="293.3838" y2="293.3838"/><text fill="#000000" font-family="sans-serif" font-size="14" lengthAdjust="spacing" textLength="72" x="667" y="312.4912">timeInterval</text><text fill="#000000" font-family="sans-serif" font-size="14" lengthAdjust="spacing" textLength="28" x="667" y="331.1123">date</text></g><!--class GreenSpacesUserPortal--><g id="elem_GreenSpacesUserPortal"><rect codeLine="109" fill="#F1F1F1" height="36.6211" id="GreenSpacesUserPortal" rx="2.5" ry="2.5" style="stroke:#181818;stroke-width:0.5;" width="159" x="1465.5" y="519.2627"/><text fill="#000000" font-family="sans-serif" font-size="14" lengthAdjust="spacing" textLength="153" x="1468.5" y="539.3701">GreenSpacesUserPortal</text><line style="stroke:#181818;stroke-width:0.5;" x1="1466.5" x2="1623.5" y1="547.8838" y2="547.8838"/></g><!--class Comment--><g id="elem_Comment"><rect codeLine="112" fill="#F1F1F1" height="55.2422" id="Comment" rx="2.5" ry="2.5" style="stroke:#181818;stroke-width:0.5;" width="81" x="1573.5" y="737.2627"/><text fill="#000000" font-family="sans-serif" font-size="14" lengthAdjust="spacing" textLength="60" x="1584" y="757.3701">Comment</text><line style="stroke:#181818;stroke-width:0.5;" x1="1574.5" x2="1653.5" y1="765.8838" y2="765.8838"/><text fill="#000000" font-family="sans-serif" font-size="14" lengthAdjust="spacing" textLength="69" x="1579.5" y="784.9912">description</text></g><!--class Report--><g id="elem_Report"><rect codeLine="115" fill="#F1F1F1" height="55.2422" id="Report" rx="2.5" ry="2.5" style="stroke:#181818;stroke-width:0.5;" width="81" x="1431.5" y="737.2627"/><text fill="#000000" font-family="sans-serif" font-size="14" lengthAdjust="spacing" textLength="43" x="1450.5" y="757.3701">Report</text><line style="stroke:#181818;stroke-width:0.5;" x1="1432.5" x2="1511.5" y1="765.8838" y2="765.8838"/><text fill="#000000" font-family="sans-serif" font-size="14" lengthAdjust="spacing" textLength="69" x="1437.5" y="784.9912">description</text></g><!--class Category--><g id="elem_Category"><rect codeLine="119" fill="#F1F1F1" height="55.2422" id="Category" rx="2.5" ry="2.5" style="stroke:#181818;stroke-width:0.5;" width="81" x="568.5" y="510.2627"/><text fill="#000000" font-family="sans-serif" font-size="14" lengthAdjust="spacing" textLength="58" x="580" y="530.3701">Category</text><line style="stroke:#181818;stroke-width:0.5;" x1="569.5" x2="648.5" y1="538.8838" y2="538.8838"/><text fill="#000000" font-family="sans-serif" font-size="14" lengthAdjust="spacing" textLength="69" x="574.5" y="557.9912">description</text></g><!--class ToDoList--><g id="elem_ToDoList"><rect codeLine="123" fill="#F1F1F1" height="36.6211" id="ToDoList" rx="2.5" ry="2.5" style="stroke:#181818;stroke-width:0.5;" width="63" x="201.5" y="519.2627"/><text fill="#000000" font-family="sans-serif" font-size="14" lengthAdjust="spacing" textLength="57" x="204.5" y="539.3701">ToDoList</text><line style="stroke:#181818;stroke-width:0.5;" x1="202.5" x2="263.5" y1="547.8838" y2="547.8838"/></g><!--class ListOfVehiclesNeedingCheckUp--><g id="elem_ListOfVehiclesNeedingCheckUp"><rect codeLine="127" fill="#F1F1F1" height="36.6211" id="ListOfVehiclesNeedingCheckUp" rx="2.5" ry="2.5" style="stroke:#181818;stroke-width:0.5;" width="205" x="2028.5" y="519.2627"/><text fill="#000000" font-family="sans-serif" font-size="14" lengthAdjust="spacing" textLength="199" x="2031.5" y="539.3701">ListOfVehiclesNeedingCheckUp</text><line style="stroke:#181818;stroke-width:0.5;" x1="2029.5" x2="2232.5" y1="547.8838" y2="547.8838"/></g><!--link SystemUser to HRM--><g id="link_SystemUser_HRM"><path codeLine="131" d="M869.79,157.5527 C913.98,196.3227 968.9497,244.5613 1001.3297,272.9713 " fill="none" id="SystemUser-to-HRM" style="stroke:#181818;stroke-width:1.0;"/><polygon fill="none" points="1014.86,284.8427,1005.2868,268.4612,997.3725,277.4814,1014.86,284.8427" style="stroke:#181818;stroke-width:1.0;"/></g><!--link SystemUser to FM--><g id="link_SystemUser_FM"><path codeLine="132" d="M869.75,128.4027 C1054.07,158.4227 1787.8941,277.9393 1897.0041,295.7093 " fill="none" id="SystemUser-to-FM" style="stroke:#181818;stroke-width:1.0;"/><polygon fill="none" points="1914.77,298.6027,1897.9685,289.7873,1896.0396,301.6313,1914.77,298.6027" style="stroke:#181818;stroke-width:1.0;"/></g><!--link SystemUser to Collaborator--><g id="link_SystemUser_Collaborator"><path codeLine="133" d="M829,176.6027 C829,212.0327 829,259.1227 829,300.7627 C829,300.7627 829,300.7627 829,765.7627 C829,823.7727 859.5234,862.2744 900.6534,896.0744 " fill="none" id="SystemUser-to-Collaborator" style="stroke:#181818;stroke-width:1.0;"/><polygon fill="none" points="914.56,907.5027,904.4628,891.4389,896.8439,900.71,914.56,907.5027" style="stroke:#181818;stroke-width:1.0;"/></g><!--link SystemUser to GSM--><g id="link_SystemUser_GSM"><path codeLine="134" d="M788.17,156.9727 C776.18,166.7227 762.84,177.0227 750,185.7627 C727.63,201.0027 719.97,201.4527 697,215.7627 C614.77,267.0027 606.55,301.7627 517,338.7627 C433.34,373.3227 341.8194,381.844 298.6394,384.364 " fill="none" id="SystemUser-to-GSM" style="stroke:#181818;stroke-width:1.0;"/><polygon fill="none" points="280.67,385.4127,298.989,390.3538,298.2899,378.3742,280.67,385.4127" style="stroke:#181818;stroke-width:1.0;"/></g><!--link SystemUser to GSU--><g id="link_SystemUser_GSU"><path codeLine="135" d="M869.67,135.0727 C980.09,171.2027 1265.2327,264.5144 1341.3227,289.4144 " fill="none" id="SystemUser-to-GSU" style="stroke:#181818;stroke-width:1.0;"/><polygon fill="none" points="1358.43,295.0127,1343.1888,283.712,1339.4566,295.1169,1358.43,295.0127" style="stroke:#181818;stroke-width:1.0;"/></g><!--link GreenSpace to Garden--><g id="link_GreenSpace_Garden"><path codeLine="137" d="M175,792.3027 C175,831.2727 175,884.9327 175,918.0827 " fill="none" id="GreenSpace-to-Garden" style="stroke:#181818;stroke-width:1.0;"/><polygon fill="none" points="175,936.0827,181,918.0827,169,918.0827,175,936.0827" style="stroke:#181818;stroke-width:1.0;"/></g><!--link GreenSpace to MediumSizedPark--><g id="link_GreenSpace_MediumSizedPark"><path codeLine="138" d="M192.08,792.3027 C217.16,831.2727 253.5369,887.7976 274.8769,920.9476 " fill="none" id="GreenSpace-to-MediumSizedPark" style="stroke:#181818;stroke-width:1.0;"/><polygon fill="none" points="284.62,936.0827,279.9219,917.6999,269.8319,924.1953,284.62,936.0827" style="stroke:#181818;stroke-width:1.0;"/></g><!--link GreenSpace to LargeSizedPark--><g id="link_GreenSpace_LargeSizedPark"><path codeLine="139" d="M158.77,792.3027 C134.93,831.2727 100.4934,887.5781 80.2134,920.7281 " fill="none" id="GreenSpace-to-LargeSizedPark" style="stroke:#181818;stroke-width:1.0;"/><polygon fill="none" points="70.82,936.0827,85.3316,923.8592,75.0952,917.597,70.82,936.0827" style="stroke:#181818;stroke-width:1.0;"/></g><!--link Task to GreenSpace--><g id="link_Task_GreenSpace"><path codeLine="141" d="M367.21,574.9127 C321.06,620.2527 243.03,696.9227 202.02,737.2127 " fill="none" id="Task-GreenSpace" style="stroke:#181818;stroke-width:1.0;"/><polygon fill="#000000" points="270.4334,682.9124,278.9452,678.6696,274.8257,674.4769,270.4334,682.9124" style="stroke:#000000;stroke-width:1.0;"/><text fill="#000000" font-family="sans-serif" font-size="13" lengthAdjust="spacing" textLength="53" x="283" y="684.791">occurs in</text><text fill="#000000" font-family="sans-serif" font-size="13" lengthAdjust="spacing" textLength="7" x="353.537" y="596.5372">1</text><text fill="#000000" font-family="sans-serif" font-size="13" lengthAdjust="spacing" textLength="20" x="185.9559" y="725.9101">1..*</text></g><!--link Agenda to AgendaEntry--><g id="link_Agenda_AgendaEntry"><path codeLine="143" d="M705,139.5827 C705,168.5827 705,226.5727 705,264.5127 " fill="none" id="Agenda-AgendaEntry" style="stroke:#181818;stroke-width:1.0;"/><polygon fill="#000000" points="710,230.4082,712.9389,221.3631,707.0611,221.3631,710,230.4082" style="stroke:#000000;stroke-width:1.0;"/><text fill="#000000" font-family="sans-serif" font-size="13" lengthAdjust="spacing" textLength="21" x="719" y="230.791">has</text><text fill="#000000" font-family="sans-serif" font-size="13" lengthAdjust="spacing" textLength="7" x="697.0594" y="161.0433">1</text><text fill="#000000" font-family="sans-serif" font-size="13" lengthAdjust="spacing" textLength="5" x="699.5547" y="253.4299">*</text></g><!--link AgendaEntry to Task--><g id="link_AgendaEntry_Task"><path codeLine="144" d="M660.91,337.0427 C602.78,382.2327 501.28,461.1327 444.83,505.0227 " fill="none" id="AgendaEntry-Task" style="stroke:#181818;stroke-width:1.0;"/><polygon fill="#000000" points="618.0525,390.477,626.9974,387.2458,623.3898,382.6052,618.0525,390.477" style="stroke:#000000;stroke-width:1.0;"/><text fill="#000000" font-family="sans-serif" font-size="13" lengthAdjust="spacing" textLength="41" x="631" y="392.791">defines</text><text fill="#000000" font-family="sans-serif" font-size="13" lengthAdjust="spacing" textLength="7" x="646.0279" y="338.5419">1</text><text fill="#000000" font-family="sans-serif" font-size="13" lengthAdjust="spacing" textLength="7" x="452.4492" y="494.9996">1</text></g><!--link AgendaEntry to Team--><g id="link_AgendaEntry_Team"><path codeLine="145" d="M707.59,338.9327 C714.26,432.1227 731.85,677.8327 736.73,746.0027 " fill="none" id="AgendaEntry-Team" style="stroke:#181818;stroke-width:1.0;"/><polygon fill="#000000" points="733.357,542.8954,735.6426,533.6636,729.7797,534.0833,733.357,542.8954" style="stroke:#000000;stroke-width:1.0;"/><text fill="#000000" font-family="sans-serif" font-size="13" lengthAdjust="spacing" textLength="41" x="742" y="543.291">defines</text><text fill="#000000" font-family="sans-serif" font-size="13" lengthAdjust="spacing" textLength="7" x="700.4393" y="360.5605">1</text><text fill="#000000" font-family="sans-serif" font-size="13" lengthAdjust="spacing" textLength="7" x="728.3288" y="735.1218">1</text></g><!--link FM to Vehicle--><g id="link_FM_Vehicle"><path codeLine="147" d="M1941.3,306.6027 C1986.76,320.0727 2139.25,368.0027 2251,435.7627 C2269.28,446.8427 2287.63,460.6327 2304.29,474.4127 " fill="none" id="FM-Vehicle" style="stroke:#181818;stroke-width:1.0;"/><polygon fill="#000000" points="2201.5385,389.5063,2194.5615,383.0431,2192.095,388.3784,2201.5385,389.5063" style="stroke:#000000;stroke-width:1.0;"/><text fill="#000000" font-family="sans-serif" font-size="13" lengthAdjust="spacing" textLength="50" x="2206" y="392.791">registers</text><text fill="#000000" font-family="sans-serif" font-size="13" lengthAdjust="spacing" textLength="7" x="1953.055" y="302.2594">1</text><text fill="#000000" font-family="sans-serif" font-size="13" lengthAdjust="spacing" textLength="20" x="2256.5674" y="465.0454">0..*</text></g><!--link FM to Machine--><g id="link_FM_Machine"><path codeLine="148" d="M1941.19,304.4027 C2014.86,313.8027 2374.83,362.9827 2455,435.7627 C2476.77,455.5227 2489.25,487.4227 2495.81,510.0827 " fill="none" id="FM-Machine" style="stroke:#181818;stroke-width:1.0;"/><polygon fill="#000000" points="2408.688,389.1467,2401.2292,383.2461,2399.1854,388.7572,2408.688,389.1467" style="stroke:#000000;stroke-width:1.0;"/><text fill="#000000" font-family="sans-serif" font-size="13" lengthAdjust="spacing" textLength="53" x="2413" y="392.791">manages</text><text fill="#000000" font-family="sans-serif" font-size="13" lengthAdjust="spacing" textLength="7" x="1956.9897" y="322.3755">1</text><text fill="#000000" font-family="sans-serif" font-size="13" lengthAdjust="spacing" textLength="5" x="2488.9091" y="499.202">*</text></g><!--link FM to Equipment--><g id="link_FM_Equipment"><path codeLine="149" d="M1914.88,307.6427 C1893.66,316.3027 1852.36,336.5427 1834,368.7627 C1808.73,413.1127 1811.87,475.0627 1816.43,510.0127 " fill="none" id="FM-Equipment" style="stroke:#181818;stroke-width:1.0;"/><polygon fill="#000000" points="1836.8127,391.9044,1843.4124,385.0564,1838.1268,382.485,1836.8127,391.9044" style="stroke:#000000;stroke-width:1.0;"/><text fill="#000000" font-family="sans-serif" font-size="13" lengthAdjust="spacing" textLength="53" x="1848" y="392.791">manages</text><text fill="#000000" font-family="sans-serif" font-size="13" lengthAdjust="spacing" textLength="7" x="1883.8306" y="304.0283">1</text><text fill="#000000" font-family="sans-serif" font-size="13" lengthAdjust="spacing" textLength="5" x="1809.8834" y="499.1167">*</text></g><!--link Vehicle to VehicleCheckup--><g id="link_Vehicle_VehicleCheckup"><path codeLine="150" d="M2304.43,597.6227 C2287.39,611.8927 2268.83,626.7727 2251,639.7627 C2204.12,673.9127 2147.83,708.6027 2107.27,732.5727 " fill="none" id="Vehicle-VehicleCheckup" style="stroke:#181818;stroke-width:1.0;"/><polygon fill="#000000" points="2203.874,682.2324,2212.998,679.5486,2209.678,674.6982,2203.874,682.2324" style="stroke:#000000;stroke-width:1.0;"/><text fill="#000000" font-family="sans-serif" font-size="13" lengthAdjust="spacing" textLength="21" x="2217" y="684.791">has</text><text fill="#000000" font-family="sans-serif" font-size="13" lengthAdjust="spacing" textLength="7" x="2277.5853" y="599.9516">1</text><text fill="#000000" font-family="sans-serif" font-size="13" lengthAdjust="spacing" textLength="20" x="2114.9325" y="724.8851">0..*</text></g><!--link FM to VehicleCheckup--><g id="link_FM_VehicleCheckup"><path codeLine="151" d="M1925.08,320.4427 C1917.38,371.9727 1900.06,525.6227 1946,639.7627 C1957.94,669.4427 1980.05,696.9827 2001.09,718.5327 " fill="none" id="FM-VehicleCheckup" style="stroke:#181818;stroke-width:1.0;"/><polygon fill="#000000" points="1951.9377,542.8195,1953.1281,533.3837,1947.3546,534.4861,1951.9377,542.8195" style="stroke:#000000;stroke-width:1.0;"/><text fill="#000000" font-family="sans-serif" font-size="13" lengthAdjust="spacing" textLength="50" x="1960" y="543.291">requests</text><text fill="#000000" font-family="sans-serif" font-size="13" lengthAdjust="spacing" textLength="7" x="1911.8171" y="341.8657">1</text><text fill="#000000" font-family="sans-serif" font-size="13" lengthAdjust="spacing" textLength="20" x="1963.4095" y="707.5083">0..*</text></g><!--link GSU to Report--><g id="link_GSU_Report"><path codeLine="152" d="M1373.89,320.5027 C1368.45,371.5727 1356.86,522.7727 1394,639.7627 C1405.7,676.6127 1431,713.4127 1449.63,737.2427 " fill="none" id="GSU-Report" style="stroke:#181818;stroke-width:1.0;"/><polygon fill="#000000" points="1399.8941,542.8276,1401.1682,533.4028,1395.3851,534.4538,1399.8941,542.8276" style="stroke:#000000;stroke-width:1.0;"/><text fill="#000000" font-family="sans-serif" font-size="13" lengthAdjust="spacing" textLength="39" x="1408" y="543.291">makes</text><text fill="#000000" font-family="sans-serif" font-size="13" lengthAdjust="spacing" textLength="7" x="1377.1183" y="341.9418">1</text><text fill="#000000" font-family="sans-serif" font-size="13" lengthAdjust="spacing" textLength="20" x="1377.5194" y="725.947">0..*</text></g><!--link GSU to Comment--><g id="link_GSU_Comment"><path codeLine="153" d="M1393.51,305.2227 C1443.2,313.2627 1585.13,343.7527 1642,435.7627 C1701.94,532.7527 1651.45,677.7727 1626.25,737.0527 " fill="none" id="GSU-Comment" style="stroke:#181818;stroke-width:1.0;"/><polygon fill="#000000" points="1677.3722,542.3096,1675.6679,532.953,1670.4937,535.7417,1677.3722,542.3096" style="stroke:#000000;stroke-width:1.0;"/><text fill="#000000" font-family="sans-serif" font-size="13" lengthAdjust="spacing" textLength="39" x="1684" y="543.291">makes</text><text fill="#000000" font-family="sans-serif" font-size="13" lengthAdjust="spacing" textLength="7" x="1409.6691" y="300.9277">1</text><text fill="#000000" font-family="sans-serif" font-size="13" lengthAdjust="spacing" textLength="20" x="1632.4297" y="726.1654">0..*</text></g><!--link GSU to GreenSpacesUserPortal--><g id="link_GSU_GreenSpacesUserPortal"><path codeLine="154" d="M1388.7,320.3527 C1420.02,363.7127 1500.68,475.3927 1532.15,518.9727 " fill="none" id="GSU-GreenSpacesUserPortal" style="stroke:#181818;stroke-width:1.0;"/><polygon fill="#000000" points="1457.9275,391.4616,1455.0141,382.4082,1450.2491,385.8497,1457.9275,391.4616" style="stroke:#000000;stroke-width:1.0;"/><text fill="#000000" font-family="sans-serif" font-size="13" lengthAdjust="spacing" textLength="28" x="1464" y="392.791">uses</text><text fill="#000000" font-family="sans-serif" font-size="13" lengthAdjust="spacing" textLength="7" x="1403.2038" y="341.7515">1</text><text fill="#000000" font-family="sans-serif" font-size="13" lengthAdjust="spacing" textLength="20" x="1491.6753" y="508.083">0..*</text></g><!--link GreenSpacesUserPortal to Report--><g id="link_GreenSpacesUserPortal_Report"><path codeLine="155" d="M1539.27,556.4227 C1526.53,595.6827 1495.79,690.4327 1480.68,737.0027 " fill="none" id="GreenSpacesUserPortal-Report" style="stroke:#181818;stroke-width:1.0;"/><polygon fill="#000000" points="1504.4569,684.1641,1510.0438,676.4676,1504.4529,674.6536,1504.4569,684.1641" style="stroke:#000000;stroke-width:1.0;"/><text fill="#000000" font-family="sans-serif" font-size="13" lengthAdjust="spacing" textLength="21" x="1515" y="684.791">has</text><text fill="#000000" font-family="sans-serif" font-size="13" lengthAdjust="spacing" textLength="7" x="1547.8082" y="577.8403">1</text><text fill="#000000" font-family="sans-serif" font-size="13" lengthAdjust="spacing" textLength="20" x="1486.0788" y="726.1045">0..*</text></g><!--link GreenSpacesUserPortal to Comment--><g id="link_GreenSpacesUserPortal_Comment"><path codeLine="156" d="M1550.41,556.4227 C1562.46,595.6827 1591.51,690.4327 1605.79,737.0027 " fill="none" id="GreenSpacesUserPortal-Comment" style="stroke:#181818;stroke-width:1.0;"/><polygon fill="#000000" points="1595.466,684.1885,1595.6237,674.6792,1590.0042,676.4026,1595.466,684.1885" style="stroke:#000000;stroke-width:1.0;"/><text fill="#000000" font-family="sans-serif" font-size="13" lengthAdjust="spacing" textLength="21" x="1603" y="684.791">has</text><text fill="#000000" font-family="sans-serif" font-size="13" lengthAdjust="spacing" textLength="7" x="1525.7733" y="577.8403">1</text><text fill="#000000" font-family="sans-serif" font-size="13" lengthAdjust="spacing" textLength="20" x="1581.8066" y="726.1045">0..*</text></g><!--link Organization to SystemUser--><g id="link_Organization_SystemUser"><path codeLine="158" d="M606.57,59.7727 C634.71,33.5427 671.37,11.4027 708,23.7627 C738.48,34.0527 766.87,55.8727 788.48,76.2127 " fill="none" id="Organization-SystemUser" style="stroke:#181818;stroke-width:1.0;"/><polygon fill="#000000" points="681.9797,16.8582,673.2359,13.1171,672.7068,18.9711,681.9797,16.8582" style="stroke:#000000;stroke-width:1.0;"/><text fill="#000000" font-family="sans-serif" font-size="13" lengthAdjust="spacing" textLength="21" x="686" y="21.791">has</text><text fill="#000000" font-family="sans-serif" font-size="13" lengthAdjust="spacing" textLength="7" x="614.5115" y="46.6361">1</text><text fill="#000000" font-family="sans-serif" font-size="13" lengthAdjust="spacing" textLength="5" x="775.5482" y="63.477">*</text></g><!--link Organization to Task--><g id="link_Organization_Task"><path codeLine="159" d="M532.42,186.1527 C500.06,274.4827 443,430.2827 417.26,500.5727 " fill="none" id="Organization-Task" style="stroke:#181818;stroke-width:1.0;"/><polygon fill="#000000" points="506.2804,306.6032,512.1508,299.1206,506.6315,297.0991,506.2804,306.6032" style="stroke:#000000;stroke-width:1.0;"/><text fill="#000000" font-family="sans-serif" font-size="13" lengthAdjust="spacing" textLength="30" x="517" y="307.291">owns</text><text fill="#000000" font-family="sans-serif" font-size="13" lengthAdjust="spacing" textLength="7" x="522.7543" y="207.4823">1</text><text fill="#000000" font-family="sans-serif" font-size="13" lengthAdjust="spacing" textLength="20" x="397.8407" y="489.5006">0..*</text></g><!--link Task to Category--><g id="link_Task_Category"><path codeLine="160" d="M444.5,537.7627 C480.32,537.7627 532.33,537.7627 568.23,537.7627 " fill="none" id="Task-Category" style="stroke:#181818;stroke-width:1.0;"/><polygon fill="#000000" points="472,525.4082,462.9549,522.4693,462.9549,528.3471,472,525.4082" style="stroke:#000000;stroke-width:1.0;"/><text fill="#000000" font-family="sans-serif" font-size="13" lengthAdjust="spacing" textLength="74" x="476" y="530.791">cataloged as</text><text fill="#000000" font-family="sans-serif" font-size="13" lengthAdjust="spacing" textLength="7" x="452.6125" y="533.2633">1</text><text fill="#000000" font-family="sans-serif" font-size="13" lengthAdjust="spacing" textLength="7" x="553.6211" y="533.3343">1</text></g><!--link Task to Team--><g id="link_Task_Team"><path codeLine="161" d="M444.69,572.8927 C483.41,604.6427 543.92,652.3827 600,688.7627 C639.8,714.5827 689.25,739.9527 716.85,753.5527 " fill="none" id="Task-Team" style="stroke:#181818;stroke-width:1.0;"/><polygon fill="#000000" points="609.1658,682.1734,603.2552,674.7225,600.0045,679.6197,609.1658,682.1734" style="stroke:#000000;stroke-width:1.0;"/><text fill="#000000" font-family="sans-serif" font-size="13" lengthAdjust="spacing" textLength="79" x="614" y="684.791">carried out by</text><text fill="#000000" font-family="sans-serif" font-size="13" lengthAdjust="spacing" textLength="7" x="452.5613" y="574.7026">1</text><text fill="#000000" font-family="sans-serif" font-size="13" lengthAdjust="spacing" textLength="7" x="694.1503" y="745.374">1</text></g><!--link ToDoList to Task--><g id="link_ToDoList_Task"><path codeLine="162" d="M264.76,537.7627 C292.58,537.7627 333.16,537.7627 363.34,537.7627 " fill="none" id="ToDoList-Task" style="stroke:#181818;stroke-width:1.0;"/><polygon fill="#000000" points="292,525.4082,282.9549,522.4693,282.9549,528.3471,292,525.4082" style="stroke:#000000;stroke-width:1.0;"/><text fill="#000000" font-family="sans-serif" font-size="13" lengthAdjust="spacing" textLength="49" x="296" y="530.791">contains</text><text fill="#000000" font-family="sans-serif" font-size="13" lengthAdjust="spacing" textLength="7" x="272.4731" y="533.0049">1</text><text fill="#000000" font-family="sans-serif" font-size="13" lengthAdjust="spacing" textLength="20" x="335.5827" y="553.1253">0..*</text></g><!--link HRM to Collaborator--><g id="link_HRM_Collaborator"><path codeLine="164" d="M1031.64,320.5127 C1025.35,402.3827 998.98,745.6627 987.92,889.7127 " fill="none" id="HRM-Collaborator" style="stroke:#181818;stroke-width:1.0;"/><polygon fill="#000000" points="1008.6171,684.3935,1012.2401,675.6001,1006.3795,675.1499,1008.6171,684.3935" style="stroke:#000000;stroke-width:1.0;"/><text fill="#000000" font-family="sans-serif" font-size="13" lengthAdjust="spacing" textLength="43" x="1018" y="684.791">creates</text><text fill="#000000" font-family="sans-serif" font-size="13" lengthAdjust="spacing" textLength="7" x="1018.7964" y="341.9545">1</text><text fill="#000000" font-family="sans-serif" font-size="13" lengthAdjust="spacing" textLength="5" x="983.1847" y="878.7274">*</text></g><!--link HRM to Job--><g id="link_HRM_Job"><path codeLine="165" d="M1051.11,317.6827 C1065.22,330.1127 1084.47,348.9327 1097,368.7627 C1113.98,395.6327 1113.75,405.0727 1122,435.7627 C1189.56,687.1127 1194.36,1005.8227 1194.22,1098.7327 " fill="none" id="HRM-Job" style="stroke:#181818;stroke-width:1.0;"/><polygon fill="#000000" points="1186.9011,769.8263,1188.1618,760.3997,1182.3802,761.459,1186.9011,769.8263" style="stroke:#000000;stroke-width:1.0;"/><text fill="#000000" font-family="sans-serif" font-size="13" lengthAdjust="spacing" textLength="43" x="1195" y="770.291">creates</text><text fill="#000000" font-family="sans-serif" font-size="13" lengthAdjust="spacing" textLength="7" x="1058.9308" y="317.2798">1</text><text fill="#000000" font-family="sans-serif" font-size="13" lengthAdjust="spacing" textLength="5" x="1188.6928" y="1087.4347">*</text></g><!--link HRM to Skill--><g id="link_HRM_Skill"><path codeLine="166" d="M1042.28,320.4127 C1061.53,358.6927 1104,452.7027 1104,536.7627 C1104,536.7627 1104,536.7627 1104,955.7627 C1104,1006.8627 1091.88,1065.5727 1083.88,1098.7527 " fill="none" id="HRM-Skill" style="stroke:#181818;stroke-width:1.0;"/><polygon fill="#000000" points="1109.2669,769.9011,1111.7188,760.712,1105.8494,761.0257,1109.2669,769.9011" style="stroke:#000000;stroke-width:1.0;"/><text fill="#000000" font-family="sans-serif" font-size="13" lengthAdjust="spacing" textLength="43" x="1118" y="770.291">creates</text><text fill="#000000" font-family="sans-serif" font-size="13" lengthAdjust="spacing" textLength="7" x="1046.2521" y="341.8276">1</text><text fill="#000000" font-family="sans-serif" font-size="13" lengthAdjust="spacing" textLength="5" x="1079.8929" y="1087.4593">*</text></g><!--link HRM to TeamProposal--><g id="link_HRM_TeamProposal"><path codeLine="167" d="M1014.9,310.0927 C993.31,319.9127 958.13,339.5427 942,368.7627 C915.02,417.6427 922.18,487.1027 927.55,519.2227 " fill="none" id="HRM-TeamProposal" style="stroke:#181818;stroke-width:1.0;"/><polygon fill="#000000" points="945.0729,392.0219,951.2709,384.8083,945.8472,382.5429,945.0729,392.0219" style="stroke:#000000;stroke-width:1.0;"/><text fill="#000000" font-family="sans-serif" font-size="13" lengthAdjust="spacing" textLength="50" x="956" y="392.791">requests</text><text fill="#000000" font-family="sans-serif" font-size="13" lengthAdjust="spacing" textLength="7" x="999.935" y="307.1818">1</text><text fill="#000000" font-family="sans-serif" font-size="13" lengthAdjust="spacing" textLength="7" x="909.1966" y="508.0726">1</text></g><!--link TeamProposal to Team--><g id="link_TeamProposal_Team"><path codeLine="168" d="M915.86,556.4227 C879.78,598.4827 789.08,704.2127 753.07,746.1927 " fill="none" id="TeamProposal-Team" style="stroke:#181818;stroke-width:1.0;"/><polygon fill="#000000" points="818.7445,683.2032,826.8644,678.2515,822.4031,674.4245,818.7445,683.2032" style="stroke:#000000;stroke-width:1.0;"/><text fill="#000000" font-family="sans-serif" font-size="13" lengthAdjust="spacing" textLength="21" x="831" y="684.791">has</text><text fill="#000000" font-family="sans-serif" font-size="13" lengthAdjust="spacing" textLength="7" x="899.313" y="577.8403">1</text><text fill="#000000" font-family="sans-serif" font-size="13" lengthAdjust="spacing" textLength="7" x="763.6571" y="735.0334">1</text></g><!--link Team to Collaborator--><g id="link_Team_Collaborator"><path codeLine="169" d="M739.1,783.5027 C741.28,804.1727 747.76,838.2527 767,859.7627 C805.51,902.8127 867.29,926.9727 914.92,939.9827 " fill="none" id="Team-Collaborator" style="stroke:#181818;stroke-width:1.0;"/><polygon fill="#000000" points="775.735,853.7323,770.9322,845.5236,767.0245,849.9143,775.735,853.7323" style="stroke:#000000;stroke-width:1.0;"/><text fill="#000000" font-family="sans-serif" font-size="13" lengthAdjust="spacing" textLength="21" x="781" y="855.791">has</text><text fill="#000000" font-family="sans-serif" font-size="13" lengthAdjust="spacing" textLength="7" x="726.9175" y="804.9418">1</text><text fill="#000000" font-family="sans-serif" font-size="13" lengthAdjust="spacing" textLength="20" x="879.0967" y="934.819">1..*</text></g><!--link Collaborator to Skill--><g id="link_Collaborator_Skill"><path codeLine="170" d="M1015.42,1019.8527 C1023.85,1035.9427 1033.07,1053.0927 1042,1068.7627 C1047.6,1078.5827 1054.04,1089.1727 1059.86,1098.4927 " fill="none" id="Collaborator-Skill" style="stroke:#181818;stroke-width:1.0;"/><polygon fill="#000000" points="1049.4599,1063.7612,1047.5685,1054.4406,1042.4512,1057.3324,1049.4599,1063.7612" style="stroke:#000000;stroke-width:1.0;"/><text fill="#000000" font-family="sans-serif" font-size="13" lengthAdjust="spacing" textLength="21" x="1056" y="1064.791">has</text><text fill="#000000" font-family="sans-serif" font-size="13" lengthAdjust="spacing" textLength="7" x="1007.1961" y="1041.4991">1</text><text fill="#000000" font-family="sans-serif" font-size="13" lengthAdjust="spacing" textLength="20" x="1029.4856" y="1087.5923">0..*</text></g><!--link Collaborator to Job--><g id="link_Collaborator_Job"><path codeLine="171" d="M1051.21,1010.5627 C1092.15,1043.4427 1141.68,1083.2327 1170.34,1106.2627 " fill="none" id="Collaborator-Job" style="stroke:#181818;stroke-width:1.0;"/><polygon fill="#000000" points="1127.898,1062.5396,1122.687,1054.5837,1119.0059,1059.1661,1127.898,1062.5396" style="stroke:#000000;stroke-width:1.0;"/><text fill="#000000" font-family="sans-serif" font-size="13" lengthAdjust="spacing" textLength="21" x="1133" y="1064.791">has</text><text fill="#000000" font-family="sans-serif" font-size="13" lengthAdjust="spacing" textLength="7" x="1058.8113" y="1012.4979">1</text><text fill="#000000" font-family="sans-serif" font-size="13" lengthAdjust="spacing" textLength="7" x="1151.5033" y="1095.6382">1</text></g><!--link Organization to Agenda--><g id="link_Organization_Agenda"><path codeLine="172" d="M606.86,120.7627 C630.47,120.7627 657.6,120.7627 677.35,120.7627 " fill="none" id="Organization-Agenda" style="stroke:#181818;stroke-width:1.0;"/><polygon fill="#000000" points="634,108.4082,624.9549,105.4693,624.9549,111.3471,634,108.4082" style="stroke:#000000;stroke-width:1.0;"/><text fill="#000000" font-family="sans-serif" font-size="13" lengthAdjust="spacing" textLength="21" x="638" y="113.791">has</text><text fill="#000000" font-family="sans-serif" font-size="13" lengthAdjust="spacing" textLength="7" x="614.5044" y="116.6354">1</text><text fill="#000000" font-family="sans-serif" font-size="13" lengthAdjust="spacing" textLength="7" x="662.3678" y="115.6987">1</text></g><!--link Organization to GreenSpace--><g id="link_Organization_GreenSpace"><path codeLine="173" d="M505.2,135.7427 C400.09,167.9027 161.82,258.3127 81,435.7627 C43.42,518.2727 52.75,553.6127 81,639.7627 C93.54,678.0127 123.33,713.7427 146.03,736.9327 " fill="none" id="Organization-GreenSpace" style="stroke:#181818;stroke-width:1.0;"/><polygon fill="#000000" points="122.4356,391.7005,129.5976,385.4429,124.5517,382.4283,122.4356,391.7005" style="stroke:#000000;stroke-width:1.0;"/><text fill="#000000" font-family="sans-serif" font-size="13" lengthAdjust="spacing" textLength="53" x="134" y="392.791">manages</text><text fill="#000000" font-family="sans-serif" font-size="13" lengthAdjust="spacing" textLength="7" x="490.5641" y="133.722">1</text><text fill="#000000" font-family="sans-serif" font-size="13" lengthAdjust="spacing" textLength="5" x="134.1459" y="726.0192">*</text></g><!--link GSU to GreenSpace--><g id="link_GSU_GreenSpace"><path codeLine="174" d="M1369.14,320.3727 C1343.4,383.7527 1245.82,601.0527 1086,688.7627 C1010.38,730.2627 784.97,711.7427 699,718.7627 C520.4,733.3527 307.69,752.0227 218.12,759.9327 " fill="none" id="GSU-GreenSpace" style="stroke:#181818;stroke-width:1.0;"/><polygon fill="#000000" points="1311.329,539.692,1320.8274,539.2106,1318.7304,533.7196,1311.329,539.692" style="stroke:#000000;stroke-width:1.0;"/><text fill="#000000" font-family="sans-serif" font-size="13" lengthAdjust="spacing" textLength="28" x="1325" y="543.291">uses</text><text fill="#000000" font-family="sans-serif" font-size="13" lengthAdjust="spacing" textLength="7" x="1359.3558" y="341.7768">1</text><text fill="#000000" font-family="sans-serif" font-size="13" lengthAdjust="spacing" textLength="5" x="225.9609" y="754.6741">*</text></g><!--link GSM to GreenSpace--><g id="link_GSM_GreenSpace"><path codeLine="175" d="M243.32,387.9427 C211.07,388.5327 145.6,395.0027 116,435.7627 C48,529.3927 122.26,676.9227 158,736.9827 " fill="none" id="GSM-GreenSpace" style="stroke:#181818;stroke-width:1.0;"/><polygon fill="#000000" points="119.8127,542.7652,124.8154,534.6767,119.1056,533.281,119.8127,542.7652" style="stroke:#000000;stroke-width:1.0;"/><text fill="#000000" font-family="sans-serif" font-size="13" lengthAdjust="spacing" textLength="53" x="130" y="543.291">manages</text><text fill="#000000" font-family="sans-serif" font-size="13" lengthAdjust="spacing" textLength="7" x="228.4184" y="382.3045">1</text><text fill="#000000" font-family="sans-serif" font-size="13" lengthAdjust="spacing" textLength="5" x="148.7344" y="726.0801">*</text></g><!--link ListOfVehiclesNeedingCheckUp to Vehicle--><g id="link_ListOfVehiclesNeedingCheckUp_Vehicle"><path codeLine="176" d="M2233.83,537.7627 C2257.74,537.7627 2282.59,537.7627 2304.46,537.7627 " fill="none" id="ListOfVehiclesNeedingCheckUp-Vehicle" style="stroke:#181818;stroke-width:1.0;"/><polygon fill="#000000" points="2261,525.4082,2251.9549,522.4693,2251.9549,528.3471,2261,525.4082" style="stroke:#000000;stroke-width:1.0;"/><text fill="#000000" font-family="sans-serif" font-size="13" lengthAdjust="spacing" textLength="21" x="2265" y="530.791">has</text><text fill="#000000" font-family="sans-serif" font-size="13" lengthAdjust="spacing" textLength="7" x="2241.6386" y="534.1914">1</text><text fill="#000000" font-family="sans-serif" font-size="13" lengthAdjust="spacing" textLength="5" x="2291.4773" y="533.8128">*</text></g><!--SRC=[XLPBRziu4BxhLn2w62YGehxwKA28csosTHlKoVOybiOIOObKIIg1szt_liENHCcgwuCbpdmSpkEReVI9YmuKjAoLGXQraYqoethCzA3fe3X1XNjpRf0fB0o8gaa1kePIld9HiICq6hFLg6guG7Fka4bbQfcj6ZmQPYHJlAeDAxarnwL8Z1KDQFt16CKFlS67Geez_udiNLRp4bd1LK5dk_SMoMIfisnbk27Njh85BjXEbjYGq1bYZmsOerGj-vMj6BifKHUAT-xCrNzPva5VLGM2_mGh9Y2Zdu0MtSiBc2zzUq3bLgzuqDnuJLTBWOaEwNWwUB1whn35dhA7mQQcG18rg195MEomv7rh8oqVGPs2z3CeoliW3DBzMHjidpMgkQ_U0-SR0L-bAaT7hMD-_r_VThGnhkxInQri6ZX81KP6umTEbIlXx1PGjbnhoj8MGXAWB1LgxTvvkPL5tw8mJrJocIWaAfvqlq_FlTy_krLOFY6qZqfsKaCpbwVh_OatJPg4GVEtF2pAdq2VWYAbWbqJ5NkbK1Jd4VuFrfpuTbjZSUgxiF752n-stapCXDzjFhNwOh_VU50WN45Qnr1wCI5D1fHxLafg_HrjRsIfnSovLt6gkugPX-97pucBIJ4Ax-QTmX_zD8uT53Lruc9AFfATpbPeKVkXGb52cdGl-IYCEeSTXhVu8CYt5sZ6d2pqWRQaVQHH04rYy5QszlZBgaHsVCEEzYpfemKwhvA3FukO9xcLdoc3lv8EjUklnr0a_GMf2KNbYltS-P2pfDbkRlvzRvldGdPtAKeRwK99t5-GFMTPCZ6yq8-8kNW-BERw-TXmfC_NEMdfyVRjcpoTJHic2sAQPZGxtsTPA7Y44pOj-8RLe0cMoWRBkM-l3HNWI6oxXhEDdE8o6aCv2u1tvAAj8qbY0sq6_bkq0xCr6roC_Dwm5WJTLId8sGcuaUifCXwIhmUiSo6Vzt-CtffUfyWbgEj2RIoUYkjTcSKNWlJyjXwTyFVmF3RAdu6B7RTXhDT-svBQHp_zpSnwFuSiN3CpxXpS7lPba-lMiS8L9sc925r2UgEMQSJSLs5X8y7TVnm76rO0kIGhB1bSuAoJbeSREpb1AKuesHjsE9E0i65UB1rB7oM6FZLSCFOspHCgJgvGWYeaRono3hHNr3Mzlzmk4Q69ell3FJbXt4GJh8u5Ze7x9Bjc74vU1pwdSKJa9BPf1up-NeFQfu_xz_LTnubp5JMPOMapsvvOX4JoxtT_j77rNXWtZyF9-Va_]--></g></svg>