<?xml version="1.0" encoding="us-ascii" standalone="no"?><svg xmlns="http://www.w3.org/2000/svg" xmlns:xlink="http://www.w3.org/1999/xlink" contentStyleType="text/css" height="359.4px" preserveAspectRatio="none" style="width:621px;height:359px;background:#FFFFFF;" version="1.1" viewBox="0 0 621 359" width="621.6px" zoomAndPan="magnify"><defs/><g><!--class MS--><g id="elem_MS"><rect codeLine="12" fill="#F1F1F1" height="38.918" id="MS" rx="0.75" ry="0.75" style="stroke:#181818;stroke-width:0.15;" width="30.3" x="321.36" y="16.902"/><text fill="#000000" font-family="sans-serif" font-size="4.2" lengthAdjust="spacing" textLength="6" x="333.51" y="22.9342">MS</text><line style="stroke:#181818;stroke-width:0.15;" x1="321.66" x2="351.36" y1="25.4883" y2="25.4883"/><text fill="#000000" font-family="sans-serif" font-size="4.2" lengthAdjust="spacing" textLength="10.5" x="323.16" y="31.2206">name</text><text fill="#000000" font-family="sans-serif" font-size="4.2" lengthAdjust="spacing" textLength="20.4" x="323.16" y="36.8069">vatNumber</text><text fill="#000000" font-family="sans-serif" font-size="4.2" lengthAdjust="spacing" textLength="14.1" x="323.16" y="42.3932">website</text><text fill="#000000" font-family="sans-serif" font-size="4.2" lengthAdjust="spacing" textLength="26.7" x="323.16" y="47.9795">phoneNumber</text><text fill="#000000" font-family="sans-serif" font-size="4.2" lengthAdjust="spacing" textLength="9.9" x="323.16" y="53.5659">email</text></g><!--class GreenSpace--><g id="elem_GreenSpace"><rect codeLine="21" fill="#F1F1F1" height="16.5727" id="GreenSpace" rx="0.75" ry="0.75" style="stroke:#181818;stroke-width:0.15;" width="25.8" x="53.91" y="235.152"/><text fill="#000000" font-family="sans-serif" font-size="4.2" lengthAdjust="spacing" textLength="24" x="54.81" y="241.1842">GreenSpace</text><line style="stroke:#181818;stroke-width:0.15;" x1="54.21" x2="79.41" y1="243.7383" y2="243.7383"/><text fill="#000000" font-family="sans-serif" font-size="4.2" lengthAdjust="spacing" textLength="7.2" x="55.71" y="249.4706">size</text></g><!--class Garden--><g id="elem_Garden"><rect codeLine="25" fill="#F1F1F1" height="10.9863" id="Garden" rx="0.75" ry="0.75" style="stroke:#181818;stroke-width:0.15;" width="16.2" x="58.71" y="292.152"/><text fill="#000000" font-family="sans-serif" font-size="4.2" lengthAdjust="spacing" textLength="14.4" x="59.61" y="298.1842">Garden</text><line style="stroke:#181818;stroke-width:0.15;" x1="59.01" x2="74.61" y1="300.7383" y2="300.7383"/></g><!--class MediumSizedPark--><g id="elem_MediumSizedPark"><rect codeLine="26" fill="#F1F1F1" height="10.9863" id="MediumSizedPark" rx="0.75" ry="0.75" style="stroke:#181818;stroke-width:0.15;" width="35.4" x="85.41" y="292.152"/><text fill="#000000" font-family="sans-serif" font-size="4.2" lengthAdjust="spacing" textLength="33.6" x="86.31" y="298.1842">MediumSizedPark</text><line style="stroke:#181818;stroke-width:0.15;" x1="85.71" x2="120.51" y1="300.7383" y2="300.7383"/></g><!--class LargeSizedPark--><g id="elem_LargeSizedPark"><rect codeLine="27" fill="#F1F1F1" height="10.9863" id="LargeSizedPark" rx="0.75" ry="0.75" style="stroke:#181818;stroke-width:0.15;" width="31.8" x="16.41" y="292.152"/><text fill="#000000" font-family="sans-serif" font-size="4.2" lengthAdjust="spacing" textLength="30" x="17.31" y="298.1842">LargeSizedPark</text><line style="stroke:#181818;stroke-width:0.15;" x1="16.71" x2="47.91" y1="300.7383" y2="300.7383"/></g><!--class SystemUser--><g id="elem_SystemUser"><rect codeLine="29" fill="#F1F1F1" height="33.3316" id="SystemUser" rx="0.75" ry="0.75" style="stroke:#181818;stroke-width:0.15;" width="24.3" x="381.96" y="19.752"/><text fill="#000000" font-family="sans-serif" font-size="4.2" lengthAdjust="spacing" textLength="22.5" x="382.86" y="25.7842">SystemUser</text><line style="stroke:#181818;stroke-width:0.15;" x1="382.26" x2="405.96" y1="28.3383" y2="28.3383"/><text fill="#000000" font-family="sans-serif" font-size="4.2" lengthAdjust="spacing" textLength="10.5" x="383.76" y="34.0706">name</text><text fill="#000000" font-family="sans-serif" font-size="4.2" lengthAdjust="spacing" textLength="9.9" x="383.76" y="39.6569">email</text><text fill="#000000" font-family="sans-serif" font-size="4.2" lengthAdjust="spacing" textLength="18" x="383.76" y="45.2432">password</text><text fill="#000000" font-family="sans-serif" font-size="4.2" lengthAdjust="spacing" textLength="12" x="383.76" y="50.8295">phone</text></g><!--class HRM--><g id="elem_HRM"><rect codeLine="36" fill="#F1F1F1" height="10.9863" id="HRM" rx="0.75" ry="0.75" style="stroke:#181818;stroke-width:0.15;" width="10.8" x="467.61" y="85.152"/><text fill="#000000" font-family="sans-serif" font-size="4.2" lengthAdjust="spacing" textLength="9" x="468.51" y="91.1842">HRM</text><line style="stroke:#181818;stroke-width:0.15;" x1="467.91" x2="478.11" y1="93.7383" y2="93.7383"/></g><!--class VFM--><g id="elem_VFM"><rect codeLine="38" fill="#F1F1F1" height="10.9863" id="VFM" rx="0.75" ry="0.75" style="stroke:#181818;stroke-width:0.15;" width="10.5" x="363.36" y="85.152"/><text fill="#000000" font-family="sans-serif" font-size="4.2" lengthAdjust="spacing" textLength="8.7" x="364.26" y="91.1842">VFM</text><line style="stroke:#181818;stroke-width:0.15;" x1="363.66" x2="373.56" y1="93.7383" y2="93.7383"/></g><!--class Collaborator--><g id="elem_Collaborator"><rect codeLine="40" fill="#F1F1F1" height="38.918" id="Collaborator" rx="0.75" ry="0.75" style="stroke:#181818;stroke-width:0.15;" width="40.8" x="452.61" y="278.202"/><text fill="#000000" font-family="sans-serif" font-size="4.2" lengthAdjust="spacing" textLength="23.4" x="461.31" y="284.2342">Collaborator</text><line style="stroke:#181818;stroke-width:0.15;" x1="452.91" x2="493.11" y1="286.7883" y2="286.7883"/><text fill="#000000" font-family="sans-serif" font-size="4.2" lengthAdjust="spacing" textLength="16.8" x="454.41" y="292.5206">birthdate</text><text fill="#000000" font-family="sans-serif" font-size="4.2" lengthAdjust="spacing" textLength="27.9" x="454.41" y="298.1069">admissionDate</text><text fill="#000000" font-family="sans-serif" font-size="4.2" lengthAdjust="spacing" textLength="15.3" x="454.41" y="303.6932">address</text><text fill="#000000" font-family="sans-serif" font-size="4.2" lengthAdjust="spacing" textLength="32.1" x="454.41" y="309.2795">idDocumentType</text><text fill="#000000" font-family="sans-serif" font-size="4.2" lengthAdjust="spacing" textLength="37.2" x="454.41" y="314.8659">idDocumentNumber</text></g><!--class GSM--><g id="elem_GSM"><rect codeLine="47" fill="#F1F1F1" height="10.9863" id="GSM" rx="0.75" ry="0.75" style="stroke:#181818;stroke-width:0.15;" width="11.1" x="55.56" y="110.802"/><text fill="#000000" font-family="sans-serif" font-size="4.2" lengthAdjust="spacing" textLength="9.3" x="56.46" y="116.8342">GSM</text><line style="stroke:#181818;stroke-width:0.15;" x1="55.86" x2="66.36" y1="119.3883" y2="119.3883"/></g><!--class GSU--><g id="elem_GSU"><rect codeLine="49" fill="#F1F1F1" height="10.9863" id="GSU" rx="0.75" ry="0.75" style="stroke:#181818;stroke-width:0.15;" width="10.5" x="210.66" y="85.152"/><text fill="#000000" font-family="sans-serif" font-size="4.2" lengthAdjust="spacing" textLength="8.7" x="211.56" y="91.1842">GSU</text><line style="stroke:#181818;stroke-width:0.15;" x1="210.96" x2="220.86" y1="93.7383" y2="93.7383"/></g><!--class TeamProposal--><g id="elem_TeamProposal"><rect codeLine="52" fill="#F1F1F1" height="10.9863" id="TeamProposal" rx="0.75" ry="0.75" style="stroke:#181818;stroke-width:0.15;" width="29.4" x="510.21" y="158.802"/><text fill="#000000" font-family="sans-serif" font-size="4.2" lengthAdjust="spacing" textLength="27.6" x="511.11" y="164.8342">TeamProposal</text><line style="stroke:#181818;stroke-width:0.15;" x1="510.51" x2="539.31" y1="167.3883" y2="167.3883"/></g><!--class Team--><g id="elem_Team"><rect codeLine="55" fill="#F1F1F1" height="22.159" id="Team" rx="0.75" ry="0.75" style="stroke:#181818;stroke-width:0.15;" width="28.8" x="542.61" y="232.302"/><text fill="#000000" font-family="sans-serif" font-size="4.2" lengthAdjust="spacing" textLength="10.8" x="551.61" y="238.3342">Team</text><line style="stroke:#181818;stroke-width:0.15;" x1="542.91" x2="571.11" y1="240.8883" y2="240.8883"/><text fill="#000000" font-family="sans-serif" font-size="4.2" lengthAdjust="spacing" textLength="24.3" x="544.41" y="246.6206">minimumSize</text><text fill="#000000" font-family="sans-serif" font-size="4.2" lengthAdjust="spacing" textLength="25.2" x="544.41" y="252.2069">maximumSize</text></g><!--class Skill--><g id="elem_Skill"><rect codeLine="60" fill="#F1F1F1" height="16.5727" id="Skill" rx="0.75" ry="0.75" style="stroke:#181818;stroke-width:0.15;" width="14.1" x="494.16" y="206.802"/><text fill="#000000" font-family="sans-serif" font-size="4.2" lengthAdjust="spacing" textLength="7.5" x="497.46" y="212.8342">Skill</text><line style="stroke:#181818;stroke-width:0.15;" x1="494.46" x2="507.96" y1="215.3883" y2="215.3883"/><text fill="#000000" font-family="sans-serif" font-size="4.2" lengthAdjust="spacing" textLength="10.5" x="495.96" y="221.1206">name</text></g><!--class Job--><g id="elem_Job"><rect codeLine="64" fill="#F1F1F1" height="16.5727" id="Job" rx="0.75" ry="0.75" style="stroke:#181818;stroke-width:0.15;" width="14.1" x="420.06" y="340.902"/><text fill="#000000" font-family="sans-serif" font-size="4.2" lengthAdjust="spacing" textLength="6.6" x="423.81" y="346.9342">Job</text><line style="stroke:#181818;stroke-width:0.15;" x1="420.36" x2="433.86" y1="349.4883" y2="349.4883"/><text fill="#000000" font-family="sans-serif" font-size="4.2" lengthAdjust="spacing" textLength="10.5" x="421.86" y="355.2206">name</text></g><!--class Task--><g id="elem_Task"><rect codeLine="68" fill="#F1F1F1" height="22.159" id="Task" rx="0.75" ry="0.75" style="stroke:#181818;stroke-width:0.15;" width="24.3" x="550.26" y="153.252"/><text fill="#000000" font-family="sans-serif" font-size="4.2" lengthAdjust="spacing" textLength="9.3" x="557.76" y="159.2842">Task</text><line style="stroke:#181818;stroke-width:0.15;" x1="550.56" x2="574.26" y1="161.8383" y2="161.8383"/><text fill="#000000" font-family="sans-serif" font-size="4.2" lengthAdjust="spacing" textLength="20.7" x="552.06" y="167.5706">description</text><text fill="#000000" font-family="sans-serif" font-size="4.2" lengthAdjust="spacing" textLength="20.4" x="552.06" y="173.1569">recurrency</text></g><!--class VehicleCheckup--><g id="elem_VehicleCheckup"><rect codeLine="73" fill="#F1F1F1" height="22.159" id="VehicleCheckup" rx="0.75" ry="0.75" style="stroke:#181818;stroke-width:0.15;" width="32.4" x="349.71" y="232.302"/><text fill="#000000" font-family="sans-serif" font-size="4.2" lengthAdjust="spacing" textLength="30.6" x="350.61" y="238.3342">VehicleCheckup</text><line style="stroke:#181818;stroke-width:0.15;" x1="350.01" x2="381.81" y1="240.8883" y2="240.8883"/><text fill="#000000" font-family="sans-serif" font-size="4.2" lengthAdjust="spacing" textLength="8.4" x="351.51" y="246.6206">date</text><text fill="#000000" font-family="sans-serif" font-size="4.2" lengthAdjust="spacing" textLength="21.6" x="351.51" y="252.2069">currentKms</text></g><!--class Vehicle--><g id="elem_Vehicle"><rect codeLine="78" fill="#F1F1F1" height="66.8496" id="Vehicle" rx="0.75" ry="0.75" style="stroke:#181818;stroke-width:0.15;" width="39.9" x="304.56" y="130.902"/><text fill="#000000" font-family="sans-serif" font-size="4.2" lengthAdjust="spacing" textLength="13.8" x="317.61" y="136.9342">Vehicle</text><line style="stroke:#181818;stroke-width:0.15;" x1="304.86" x2="344.16" y1="139.4883" y2="139.4883"/><text fill="#000000" font-family="sans-serif" font-size="4.2" lengthAdjust="spacing" textLength="11.1" x="306.36" y="145.2206">brand</text><text fill="#000000" font-family="sans-serif" font-size="4.2" lengthAdjust="spacing" textLength="11.4" x="306.36" y="150.8069">model</text><text fill="#000000" font-family="sans-serif" font-size="4.2" lengthAdjust="spacing" textLength="17.1" x="306.36" y="156.3932">vehicleID</text><text fill="#000000" font-family="sans-serif" font-size="4.2" lengthAdjust="spacing" textLength="8.1" x="306.36" y="161.9795">type</text><text fill="#000000" font-family="sans-serif" font-size="4.2" lengthAdjust="spacing" textLength="7.5" x="306.36" y="167.5659">tare</text><text fill="#000000" font-family="sans-serif" font-size="4.2" lengthAdjust="spacing" textLength="23.7" x="306.36" y="173.1522">grossWeight</text><text fill="#000000" font-family="sans-serif" font-size="4.2" lengthAdjust="spacing" textLength="19.5" x="306.36" y="178.7385">currentKm</text><text fill="#000000" font-family="sans-serif" font-size="4.2" lengthAdjust="spacing" textLength="23.4" x="306.36" y="184.3249">registerDate</text><text fill="#000000" font-family="sans-serif" font-size="4.2" lengthAdjust="spacing" textLength="29.1" x="306.36" y="189.9112">acquisitionDate</text><text fill="#000000" font-family="sans-serif" font-size="4.2" lengthAdjust="spacing" textLength="36.3" x="306.36" y="195.4975">checkupFrequency</text></g><!--class Machine--><g id="elem_Machine"><rect codeLine="91" fill="#F1F1F1" height="16.5727" id="Machine" rx="0.75" ry="0.75" style="stroke:#181818;stroke-width:0.15;" width="17.7" x="243.96" y="156.102"/><text fill="#000000" font-family="sans-serif" font-size="4.2" lengthAdjust="spacing" textLength="15.9" x="244.86" y="162.1342">Machine</text><line style="stroke:#181818;stroke-width:0.15;" x1="244.26" x2="261.36" y1="164.6883" y2="164.6883"/><text fill="#000000" font-family="sans-serif" font-size="4.2" lengthAdjust="spacing" textLength="10.5" x="245.76" y="170.4206">name</text></g><!--class Equipment--><g id="elem_Equipment"><rect codeLine="95" fill="#F1F1F1" height="16.5727" id="Equipment" rx="0.75" ry="0.75" style="stroke:#181818;stroke-width:0.15;" width="21.9" x="272.16" y="156.102"/><text fill="#000000" font-family="sans-serif" font-size="4.2" lengthAdjust="spacing" textLength="20.1" x="273.06" y="162.1342">Equipment</text><line style="stroke:#181818;stroke-width:0.15;" x1="272.46" x2="293.76" y1="164.6883" y2="164.6883"/><text fill="#000000" font-family="sans-serif" font-size="4.2" lengthAdjust="spacing" textLength="10.5" x="273.96" y="170.4206">name</text></g><!--class Agenda--><g id="elem_Agenda"><rect codeLine="99" fill="#F1F1F1" height="10.9863" id="Agenda" rx="0.75" ry="0.75" style="stroke:#181818;stroke-width:0.15;" width="16.5" x="416.76" y="30.852"/><text fill="#000000" font-family="sans-serif" font-size="4.2" lengthAdjust="spacing" textLength="14.7" x="417.66" y="36.8842">Agenda</text><line style="stroke:#181818;stroke-width:0.15;" x1="417.06" x2="432.96" y1="39.4383" y2="39.4383"/></g><!--class AgendaEntry--><g id="elem_AgendaEntry"><rect codeLine="102" fill="#F1F1F1" height="22.159" id="AgendaEntry" rx="0.75" ry="0.75" style="stroke:#181818;stroke-width:0.15;" width="26.4" x="550.41" y="79.602"/><text fill="#000000" font-family="sans-serif" font-size="4.2" lengthAdjust="spacing" textLength="24.6" x="551.31" y="85.6342">AgendaEntry</text><line style="stroke:#181818;stroke-width:0.15;" x1="550.71" x2="576.51" y1="88.1883" y2="88.1883"/><text fill="#000000" font-family="sans-serif" font-size="4.2" lengthAdjust="spacing" textLength="21.6" x="552.21" y="93.9206">timeInterval</text><text fill="#000000" font-family="sans-serif" font-size="4.2" lengthAdjust="spacing" textLength="8.4" x="552.21" y="99.5069">date</text></g><!--class GreenSpacesUserPortal--><g id="elem_GreenSpacesUserPortal"><rect codeLine="107" fill="#F1F1F1" height="10.9863" id="GreenSpacesUserPortal" rx="0.75" ry="0.75" style="stroke:#181818;stroke-width:0.15;" width="47.7" x="148.26" y="158.802"/><text fill="#000000" font-family="sans-serif" font-size="4.2" lengthAdjust="spacing" textLength="45.9" x="149.16" y="164.8342">GreenSpacesUserPortal</text><line style="stroke:#181818;stroke-width:0.15;" x1="148.56" x2="195.66" y1="167.3883" y2="167.3883"/></g><!--class Comment--><g id="elem_Comment"><rect codeLine="110" fill="#F1F1F1" height="16.5727" id="Comment" rx="0.75" ry="0.75" style="stroke:#181818;stroke-width:0.15;" width="24.3" x="188.16" y="235.152"/><text fill="#000000" font-family="sans-serif" font-size="4.2" lengthAdjust="spacing" textLength="18" x="191.31" y="241.1842">Comment</text><line style="stroke:#181818;stroke-width:0.15;" x1="188.46" x2="212.16" y1="243.7383" y2="243.7383"/><text fill="#000000" font-family="sans-serif" font-size="4.2" lengthAdjust="spacing" textLength="20.7" x="189.96" y="249.4706">description</text></g><!--class Report--><g id="elem_Report"><rect codeLine="113" fill="#F1F1F1" height="16.5727" id="Report" rx="0.75" ry="0.75" style="stroke:#181818;stroke-width:0.15;" width="24.3" x="124.56" y="235.152"/><text fill="#000000" font-family="sans-serif" font-size="4.2" lengthAdjust="spacing" textLength="12.9" x="130.26" y="241.1842">Report</text><line style="stroke:#181818;stroke-width:0.15;" x1="124.86" x2="148.56" y1="243.7383" y2="243.7383"/><text fill="#000000" font-family="sans-serif" font-size="4.2" lengthAdjust="spacing" textLength="20.7" x="126.36" y="249.4706">description</text></g><!--class ToDoList--><g id="elem_ToDoList"><rect codeLine="119" fill="#F1F1F1" height="10.9863" id="ToDoList" rx="0.75" ry="0.75" style="stroke:#181818;stroke-width:0.15;" width="18.9" x="354.96" y="158.802"/><text fill="#000000" font-family="sans-serif" font-size="4.2" lengthAdjust="spacing" textLength="17.1" x="355.86" y="164.8342">ToDoList</text><line style="stroke:#181818;stroke-width:0.15;" x1="355.26" x2="373.56" y1="167.3883" y2="167.3883"/></g><!--link SystemUser to HRM--><g id="link_SystemUser_HRM"><path codeLine="124" d="M406.356,51.501 C408,53.088 409.734,54.597 411.51,55.902 C419.202,61.551 422.583,60.417 431.01,64.902 C444.489,72.075 455.1255,78.7424 463.0275,83.8754 " fill="none" id="SystemUser-to-HRM" style="stroke:#181818;stroke-width:0.3;"/><polygon fill="none" points="467.556,86.817,464.0081,82.3659,462.047,85.3849,467.556,86.817" style="stroke:#181818;stroke-width:0.3;"/></g><!--link SystemUser to VFM--><g id="link_SystemUser_VFM"><path codeLine="125" d="M401.043,53.127 C402.438,58.929 402.714,65.319 399.81,70.602 C394.278,80.664 386.3406,84.5987 378.9906,87.0977 " fill="none" id="SystemUser-to-VFM" style="stroke:#181818;stroke-width:0.3;"/><polygon fill="none" points="373.878,88.836,379.57,88.8019,378.4111,85.3935,373.878,88.836" style="stroke:#181818;stroke-width:0.3;"/></g><!--link SystemUser to Collaborator--><g id="link_SystemUser_Collaborator"><path codeLine="126" d="M403.413,53.13 C405.354,56.925 407.274,60.999 408.81,64.902 C439.005,141.615 459.625,232.5568 468.046,272.9158 " fill="none" id="SystemUser-to-Collaborator" style="stroke:#181818;stroke-width:0.3;"/><polygon fill="none" points="469.149,278.202,469.8081,272.5482,466.284,273.2835,469.149,278.202" style="stroke:#181818;stroke-width:0.3;"/></g><!--link SystemUser to GSM--><g id="link_SystemUser_GSM"><path codeLine="127" d="M381.909,44.331 C374.856,48.393 365.67,53.112 356.91,55.902 C329.58,64.602 321.354,60.528 293.01,64.902 C253.995,70.923 244.062,71.574 205.41,79.602 C149.052,91.308 135.348,96.048 79.71,110.802 C75.333,111.963 75.5867,111.8622 71.9027,112.9242 " fill="none" id="SystemUser-to-GSM" style="stroke:#181818;stroke-width:0.3;"/><polygon fill="none" points="66.714,114.42,72.4013,114.6538,71.4041,111.1947,66.714,114.42" style="stroke:#181818;stroke-width:0.3;"/></g><!--link SystemUser to GSU--><g id="link_SystemUser_GSU"><path codeLine="128" d="M381.888,43.98 C374.793,47.958 365.571,52.707 356.91,55.902 C330.057,65.808 322.347,65.361 294.21,70.602 C265.626,75.927 256.119,68.109 229.41,79.602 C226.377,80.907 227.5151,79.5214 225.1721,81.5794 " fill="none" id="SystemUser-to-GSU" style="stroke:#181818;stroke-width:0.3;"/><polygon fill="none" points="221.115,85.143,226.36,82.9317,223.9843,80.227,221.115,85.143" style="stroke:#181818;stroke-width:0.3;"/></g><!--link GreenSpace to Garden--><g id="link_GreenSpace_Garden"><path codeLine="130" d="M66.81,251.742 C66.81,262.86 66.81,277.227 66.81,286.68 " fill="none" id="GreenSpace-to-Garden" style="stroke:#181818;stroke-width:0.3;"/><polygon fill="none" points="66.81,292.08,68.61,286.68,65.01,286.68,66.81,292.08" style="stroke:#181818;stroke-width:0.3;"/></g><!--link GreenSpace to MediumSizedPark--><g id="link_GreenSpace_MediumSizedPark"><path codeLine="131" d="M72.243,251.742 C79.761,262.86 90.0988,278.1532 96.4888,287.6062 " fill="none" id="GreenSpace-to-MediumSizedPark" style="stroke:#181818;stroke-width:0.3;"/><polygon fill="none" points="99.513,292.08,97.9801,286.5982,94.9976,288.6143,99.513,292.08" style="stroke:#181818;stroke-width:0.3;"/></g><!--link GreenSpace to LargeSizedPark--><g id="link_GreenSpace_LargeSizedPark"><path codeLine="132" d="M61.644,251.742 C54.501,262.86 44.7204,278.0836 38.6484,287.5366 " fill="none" id="GreenSpace-to-LargeSizedPark" style="stroke:#181818;stroke-width:0.3;"/><polygon fill="none" points="35.73,292.08,40.1629,288.5094,37.1339,286.5638,35.73,292.08" style="stroke:#181818;stroke-width:0.3;"/></g><!--link Task to GreenSpace--><g id="link_Task_GreenSpace"><path codeLine="134" d="M559.704,175.479 C557.211,183.054 552.699,192.696 545.01,197.802 C525.447,210.798 462.912,203.16 439.71,206.802 C407.406,211.875 400.428,219.024 368.01,223.302 C258.354,237.771 229.128,219.114 119.31,232.302 C105.681,233.94 90.33,237.276 79.764,239.808 " fill="none" id="Task-GreenSpace" style="stroke:#181818;stroke-width:0.3;"/><polygon fill="#000000" points="439.7233,215.2949,442.5299,215.8083,442.2956,214.0606,439.7233,215.2949" style="stroke:#000000;stroke-width:0.3;"/><text fill="#000000" font-family="sans-serif" font-size="3.9" lengthAdjust="spacing" textLength="15.9" x="443.91" y="216.7105">occurs in</text><text fill="#000000" font-family="sans-serif" font-size="3.9" lengthAdjust="spacing" textLength="2.1" x="556.9584" y="182.0493">1</text><text fill="#000000" font-family="sans-serif" font-size="3.9" lengthAdjust="spacing" textLength="6" x="82.1072" y="238.0152">1..*</text></g><!--link Agenda to AgendaEntry--><g id="link_Agenda_AgendaEntry"><path codeLine="136" d="M433.266,39.9 C456.402,48.864 522.027,74.289 550.338,85.26 " fill="none" id="Agenda-AgendaEntry" style="stroke:#181818;stroke-width:0.3;"/><polygon fill="#000000" points="513.4087,68.3376,511.197,66.5351,510.5599,68.1794,513.4087,68.3376" style="stroke:#000000;stroke-width:0.3;"/><text fill="#000000" font-family="sans-serif" font-size="3.9" lengthAdjust="spacing" textLength="6.3" x="514.71" y="69.4105">has</text><text fill="#000000" font-family="sans-serif" font-size="3.9" lengthAdjust="spacing" textLength="2.1" x="435.6507" y="39.2772">1</text><text fill="#000000" font-family="sans-serif" font-size="3.9" lengthAdjust="spacing" textLength="1.5" x="546.5156" y="83.0554">*</text></g><!--link AgendaEntry to Task--><g id="link_AgendaEntry_Task"><path codeLine="137" d="M563.433,101.859 C563.205,115.65 562.815,139.314 562.59,153.135 " fill="none" id="AgendaEntry-Task" style="stroke:#181818;stroke-width:0.3;"/><polygon fill="#000000" points="564.4853,117.8954,565.4115,115.1968,563.6484,115.1678,564.4853,117.8954" style="stroke:#000000;stroke-width:0.3;"/><text fill="#000000" font-family="sans-serif" font-size="3.9" lengthAdjust="spacing" textLength="12.3" x="567.21" y="118.0105">defines</text><text fill="#000000" font-family="sans-serif" font-size="3.9" lengthAdjust="spacing" textLength="2.1" x="561.1298" y="108.3483">1</text><text fill="#000000" font-family="sans-serif" font-size="3.9" lengthAdjust="spacing" textLength="2.1" x="560.3405" y="149.8883">1</text></g><!--link AgendaEntry to Team--><g id="link_AgendaEntry_Team"><path codeLine="138" d="M576.228,101.841 C578.607,104.52 580.791,107.562 582.21,110.802 C602.313,156.684 613.524,179.559 589.11,223.302 C585.312,230.106 578.109,234.864 571.488,238.005 " fill="none" id="AgendaEntry-Team" style="stroke:#181818;stroke-width:0.3;"/><polygon fill="#000000" points="604.3578,165.8947,605.3334,163.2135,603.5711,163.1522,604.3578,165.8947" style="stroke:#000000;stroke-width:0.3;"/><text fill="#000000" font-family="sans-serif" font-size="3.9" lengthAdjust="spacing" textLength="12.3" x="607.11" y="166.0105">defines</text><text fill="#000000" font-family="sans-serif" font-size="3.9" lengthAdjust="spacing" textLength="2.1" x="576.044" y="108.3274">1</text><text fill="#000000" font-family="sans-serif" font-size="3.9" lengthAdjust="spacing" textLength="2.1" x="573.7687" y="235.9557">1</text></g><!--link VFM to Vehicle--><g id="link_VFM_Vehicle"><path codeLine="140" d="M367.173,96.252 C365.316,102.585 361.74,113.43 356.91,121.902 C354.372,126.351 352.86,126.864 349.71,130.902 C347.997,133.098 346.233,135.381 344.466,137.679 " fill="none" id="VFM-Vehicle" style="stroke:#181818;stroke-width:0.3;"/><polygon fill="#000000" points="362.789,117.711,364.8664,115.7553,363.3201,114.9077,362.789,117.711" style="stroke:#000000;stroke-width:0.3;"/><text fill="#000000" font-family="sans-serif" font-size="3.9" lengthAdjust="spacing" textLength="15" x="366.21" y="118.0105">registers</text><text fill="#000000" font-family="sans-serif" font-size="3.9" lengthAdjust="spacing" textLength="2.1" x="364.2048" y="102.7669">1</text><text fill="#000000" font-family="sans-serif" font-size="3.9" lengthAdjust="spacing" textLength="1.5" x="346.8601" y="133.4165">*</text></g><!--link VFM to Machine--><g id="link_VFM_Machine"><path codeLine="142" d="M363.306,92.682 C356.211,94.902 343.227,98.874 332.01,101.802 C314.547,106.359 308.697,103.026 292.41,110.802 C279.387,117.021 275.673,119.439 266.91,130.902 C261.06,138.555 257.145,148.995 254.955,156.102 " fill="none" id="VFM-Machine" style="stroke:#181818;stroke-width:0.3;"/><polygon fill="#000000" points="292.6155,117.1534,295.4027,116.5436,294.5119,115.0217,292.6155,117.1534" style="stroke:#000000;stroke-width:0.3;"/><text fill="#000000" font-family="sans-serif" font-size="3.9" lengthAdjust="spacing" textLength="15.9" x="296.61" y="118.0105">manages</text><text fill="#000000" font-family="sans-serif" font-size="3.9" lengthAdjust="spacing" textLength="2.1" x="357.6108" y="91.6526">1</text><text fill="#000000" font-family="sans-serif" font-size="3.9" lengthAdjust="spacing" textLength="1.5" x="253.7776" y="152.7147">*</text></g><!--link VFM to Equipment--><g id="link_VFM_Equipment"><path codeLine="143" d="M363.282,94.014 C347.268,103.077 300.564,129.558 299.31,130.902 C292.536,138.162 288.027,148.782 285.522,156.033 " fill="none" id="VFM-Equipment" style="stroke:#181818;stroke-width:0.3;"/><polygon fill="#000000" points="332.9373,117.331,335.6085,116.3283,334.509,114.9497,332.9373,117.331" style="stroke:#000000;stroke-width:0.3;"/><text fill="#000000" font-family="sans-serif" font-size="3.9" lengthAdjust="spacing" textLength="15.9" x="336.81" y="118.0105">manages</text><text fill="#000000" font-family="sans-serif" font-size="3.9" lengthAdjust="spacing" textLength="2.1" x="354.0746" y="99.6013">1</text><text fill="#000000" font-family="sans-serif" font-size="3.9" lengthAdjust="spacing" textLength="1.5" x="284.3856" y="152.7655">*</text></g><!--link Vehicle to VehicleCheckup--><g id="link_Vehicle_VehicleCheckup"><path codeLine="144" d="M342.006,197.808 C348.516,210.144 355.461,223.302 360.177,232.239 " fill="none" id="Vehicle-VehicleCheckup" style="stroke:#181818;stroke-width:0.3;"/><polygon fill="#000000" points="357.0101,216.4222,356.5233,213.6109,354.9638,214.4339,357.0101,216.4222" style="stroke:#000000;stroke-width:0.3;"/><text fill="#000000" font-family="sans-serif" font-size="3.9" lengthAdjust="spacing" textLength="6.3" x="359.01" y="216.7105">has</text><text fill="#000000" font-family="sans-serif" font-size="3.9" lengthAdjust="spacing" textLength="2.1" x="337.2443" y="204.3275">1</text><text fill="#000000" font-family="sans-serif" font-size="3.9" lengthAdjust="spacing" textLength="6" x="351.3146" y="228.9163">0..*</text></g><!--link VFM to VehicleCheckup--><g id="link_VFM_VehicleCheckup"><path codeLine="145" d="M373.902,95.889 C377.49,99.588 381.93,105.006 383.91,110.802 C385.503,115.47 384.066,116.97 383.91,121.902 C382.842,155.685 384.939,164.508 379.11,197.802 C377.004,209.826 372.879,223.197 369.798,232.278 " fill="none" id="VFM-VehicleCheckup" style="stroke:#181818;stroke-width:0.3;"/><polygon fill="#000000" points="385.3649,165.895,386.3278,163.2092,384.5652,163.1562,385.3649,165.895" style="stroke:#000000;stroke-width:0.3;"/><text fill="#000000" font-family="sans-serif" font-size="3.9" lengthAdjust="spacing" textLength="15" x="388.11" y="166.0105">requests</text><text fill="#000000" font-family="sans-serif" font-size="3.9" lengthAdjust="spacing" textLength="2.1" x="376.2883" y="95.9385">1</text><text fill="#000000" font-family="sans-serif" font-size="3.9" lengthAdjust="spacing" textLength="6" x="361.3424" y="228.9622">0..*</text></g><!--link GSU to Report--><g id="link_GSU_Report"><path codeLine="146" d="M210.549,92.568 C192.828,97.86 136.716,115.611 126.81,130.902 C105.174,164.298 124.191,215.499 132.903,235.095 " fill="none" id="GSU-Report" style="stroke:#181818;stroke-width:0.3;"/><polygon fill="#000000" points="127.5924,165.7129,129.6648,163.7518,128.1163,162.9082,127.5924,165.7129" style="stroke:#000000;stroke-width:0.3;"/><text fill="#000000" font-family="sans-serif" font-size="3.9" lengthAdjust="spacing" textLength="11.7" x="131.01" y="166.0105">makes</text><text fill="#000000" font-family="sans-serif" font-size="3.9" lengthAdjust="spacing" textLength="2.1" x="203.7912" y="91.527">1</text><text fill="#000000" font-family="sans-serif" font-size="3.9" lengthAdjust="spacing" textLength="6" x="112.1015" y="231.8301">0..*</text></g><!--link GSU to Comment--><g id="link_GSU_Comment"><path codeLine="147" d="M215.901,96.345 C215.793,114.372 214.755,174.558 206.01,223.302 C205.302,227.244 204.123,231.528 203.019,235.098 " fill="none" id="GSU-Comment" style="stroke:#181818;stroke-width:0.3;"/><polygon fill="#000000" points="216.6713,165.8892,217.8001,163.2688,216.0443,163.1058,216.6713,165.8892" style="stroke:#000000;stroke-width:0.3;"/><text fill="#000000" font-family="sans-serif" font-size="3.9" lengthAdjust="spacing" textLength="11.7" x="219.51" y="166.0105">makes</text><text fill="#000000" font-family="sans-serif" font-size="3.9" lengthAdjust="spacing" textLength="2.1" x="219.2258" y="102.7824">1</text><text fill="#000000" font-family="sans-serif" font-size="3.9" lengthAdjust="spacing" textLength="6" x="196.9553" y="231.8338">0..*</text></g><!--link GSU to GreenSpacesUserPortal--><g id="link_GSU_GreenSpacesUserPortal"><path codeLine="148" d="M210.588,95.46 C206.343,99.222 200.46,104.922 196.41,110.802 C185.346,126.873 177.21,148.791 173.832,158.745 " fill="none" id="GSU-GreenSpacesUserPortal" style="stroke:#181818;stroke-width:0.3;"/><polygon fill="#000000" points="197.1566,117.6927,199.2819,115.7891,197.7571,114.9035,197.1566,117.6927" style="stroke:#000000;stroke-width:0.3;"/><text fill="#000000" font-family="sans-serif" font-size="3.9" lengthAdjust="spacing" textLength="8.4" x="200.61" y="118.0105">uses</text><text fill="#000000" font-family="sans-serif" font-size="3.9" lengthAdjust="spacing" textLength="2.1" x="203.7305" y="101.6595">1</text><text fill="#000000" font-family="sans-serif" font-size="3.9" lengthAdjust="spacing" textLength="2.1" x="169.1703" y="155.3862">1</text></g><!--link GreenSpacesUserPortal to Report--><g id="link_GreenSpacesUserPortal_Report"><path codeLine="149" d="M169.731,169.92 C163.656,183.387 147.528,219.132 140.301,235.146 " fill="none" id="GreenSpacesUserPortal-Report" style="stroke:#181818;stroke-width:0.3;"/><polygon fill="#000000" points="153.1931,216.4629,155.1128,214.3521,153.5054,213.6269,153.1931,216.4629" style="stroke:#000000;stroke-width:0.3;"/><text fill="#000000" font-family="sans-serif" font-size="3.9" lengthAdjust="spacing" textLength="6.3" x="156.51" y="216.7105">has</text><text fill="#000000" font-family="sans-serif" font-size="3.9" lengthAdjust="spacing" textLength="2.1" x="143.3978" y="176.4399">1</text><text fill="#000000" font-family="sans-serif" font-size="3.9" lengthAdjust="spacing" textLength="6" x="142.2414" y="231.7573">0..*</text></g><!--link GreenSpacesUserPortal to Comment--><g id="link_GreenSpacesUserPortal_Comment"><path codeLine="150" d="M174.003,169.92 C178.845,183.387 191.694,219.132 197.451,235.146 " fill="none" id="GreenSpacesUserPortal-Comment" style="stroke:#181818;stroke-width:0.3;"/><polygon fill="#000000" points="194.8174,216.5072,194.7292,213.6554,193.0698,214.2519,194.8174,216.5072" style="stroke:#000000;stroke-width:0.3;"/><text fill="#000000" font-family="sans-serif" font-size="3.9" lengthAdjust="spacing" textLength="6.3" x="197.01" y="216.7105">has</text><text fill="#000000" font-family="sans-serif" font-size="3.9" lengthAdjust="spacing" textLength="2.1" x="166.6651" y="176.4399">1</text><text fill="#000000" font-family="sans-serif" font-size="3.9" lengthAdjust="spacing" textLength="6" x="190.0961" y="231.7573">0..*</text></g><!--link MS to SystemUser--><g id="link_MS_SystemUser"><path codeLine="152" d="M351.72,36.402 C361.152,36.402 373.107,36.402 381.915,36.402 " fill="none" id="MS-SystemUser" style="stroke:#181818;stroke-width:0.3;"/><polygon fill="#000000" points="364.41,32.6957,361.6965,31.814,361.6965,33.5773,364.41,32.6957" style="stroke:#000000;stroke-width:0.3;"/><text fill="#000000" font-family="sans-serif" font-size="3.9" lengthAdjust="spacing" textLength="6.3" x="365.61" y="34.3105">has</text><text fill="#000000" font-family="sans-serif" font-size="3.9" lengthAdjust="spacing" textLength="2.1" x="354.1082" y="35.1484">1</text><text fill="#000000" font-family="sans-serif" font-size="3.9" lengthAdjust="spacing" textLength="1.5" x="378.0283" y="35.0455">*</text></g><!--link MS to Task--><g id="link_MS_Task"><path codeLine="153" d="M351.723,44.979 C359.1,48.729 368.19,52.968 376.71,55.902 C447.633,80.328 485.445,55.668 536.31,110.802 C547.758,123.213 555.252,141.576 559.155,153.171 " fill="none" id="MS-Task" style="stroke:#181818;stroke-width:0.3;"/><polygon fill="#000000" points="528.94,91.4393,526.9418,89.4027,526.1263,90.9662,528.94,91.4393" style="stroke:#000000;stroke-width:0.3;"/><text fill="#000000" font-family="sans-serif" font-size="3.9" lengthAdjust="spacing" textLength="9" x="530.31" y="92.3605">owns</text><text fill="#000000" font-family="sans-serif" font-size="3.9" lengthAdjust="spacing" textLength="2.1" x="354.0696" y="44.9088">1</text><text fill="#000000" font-family="sans-serif" font-size="3.9" lengthAdjust="spacing" textLength="6" x="552.0408" y="149.8451">0..*</text></g><!--link MS to Machine--><g id="link_MS_Machine"><path codeLine="154" d="M321.288,42.597 C306.162,49.26 283.488,61.581 271.11,79.602 C254.547,103.716 252.6,140.094 252.612,156.06 " fill="none" id="MS-Machine" style="stroke:#181818;stroke-width:0.3;"/><polygon fill="#000000" points="271.8333,92.0289,273.9926,90.164,272.4841,89.2509,271.8333,92.0289" style="stroke:#000000;stroke-width:0.3;"/><text fill="#000000" font-family="sans-serif" font-size="3.9" lengthAdjust="spacing" textLength="6.3" x="275.31" y="92.3605">has</text><text fill="#000000" font-family="sans-serif" font-size="3.9" lengthAdjust="spacing" textLength="2.1" x="316.8998" y="48.0472">1</text><text fill="#000000" font-family="sans-serif" font-size="3.9" lengthAdjust="spacing" textLength="1.5" x="250.8928" y="152.663">*</text></g><!--link MS to Vehicle--><g id="link_MS_Vehicle"><path codeLine="155" d="M332.913,55.968 C330.3,70.875 326.964,92.07 325.41,110.802 C324.876,117.252 324.564,124.155 324.396,130.785 " fill="none" id="MS-Vehicle" style="stroke:#181818;stroke-width:0.3;"/><polygon fill="#000000" points="330.6403,92.236,331.8233,89.6396,330.0712,89.4402,330.6403,92.236" style="stroke:#000000;stroke-width:0.3;"/><text fill="#000000" font-family="sans-serif" font-size="3.9" lengthAdjust="spacing" textLength="6.3" x="333.51" y="92.3605">has</text><text fill="#000000" font-family="sans-serif" font-size="3.9" lengthAdjust="spacing" textLength="2.1" x="329.0719" y="62.4659">1</text><text fill="#000000" font-family="sans-serif" font-size="3.9" lengthAdjust="spacing" textLength="1.5" x="322.838" y="127.4715">*</text></g><!--link MS to Equipment--><g id="link_MS_Equipment"><path codeLine="156" d="M321.267,50.883 C307.656,64.671 288.678,86.976 280.71,110.802 C275.574,126.162 278.58,145.404 280.998,156.045 " fill="none" id="MS-Equipment" style="stroke:#181818;stroke-width:0.3;"/><polygon fill="#000000" points="298.1736,92.1465,299.9673,89.9277,298.3206,89.2971,298.1736,92.1465" style="stroke:#000000;stroke-width:0.3;"/><text fill="#000000" font-family="sans-serif" font-size="3.9" lengthAdjust="spacing" textLength="6.3" x="301.41" y="92.3605">has</text><text fill="#000000" font-family="sans-serif" font-size="3.9" lengthAdjust="spacing" textLength="2.1" x="316.8758" y="57.4984">1</text><text fill="#000000" font-family="sans-serif" font-size="3.9" lengthAdjust="spacing" textLength="1.5" x="278.8719" y="152.7801">*</text></g><!--link Task to Team--><g id="link_Task_Team"><path codeLine="158" d="M561.666,175.479 C560.634,190.443 558.786,217.29 557.757,232.26 " fill="none" id="Task-Team" style="stroke:#181818;stroke-width:0.3;"/><polygon fill="#000000" points="560.507,216.5921,561.5729,213.9455,559.8138,213.8244,560.507,216.5921" style="stroke:#000000;stroke-width:0.3;"/><text fill="#000000" font-family="sans-serif" font-size="3.9" lengthAdjust="spacing" textLength="23.7" x="563.31" y="216.7105">carried out by</text><text fill="#000000" font-family="sans-serif" font-size="3.9" lengthAdjust="spacing" textLength="2.1" x="561.7186" y="182.0493">1</text><text fill="#000000" font-family="sans-serif" font-size="3.9" lengthAdjust="spacing" textLength="2.1" x="552.9893" y="228.941">1</text></g><!--link ToDoList to Task--><g id="link_ToDoList_Task"><path codeLine="159" d="M365.763,158.748 C367.896,151.182 372.786,137.853 382.11,130.902 C399.552,117.897 408.459,123.447 430.11,121.302 C469.548,117.396 536.286,124.992 545.01,130.902 C552.624,136.062 557.121,145.632 559.629,153.219 " fill="none" id="ToDoList-Task" style="stroke:#181818;stroke-width:0.3;"/><polygon fill="#000000" points="433.1094,116.3529,430.3718,115.5489,430.4221,117.3116,433.1094,116.3529" style="stroke:#000000;stroke-width:0.3;"/><text fill="#000000" font-family="sans-serif" font-size="3.9" lengthAdjust="spacing" textLength="14.7" x="434.31" y="118.0105">contains</text><text fill="#000000" font-family="sans-serif" font-size="3.9" lengthAdjust="spacing" textLength="2.1" x="363.7558" y="155.3901">1</text><text fill="#000000" font-family="sans-serif" font-size="3.9" lengthAdjust="spacing" textLength="6" x="559.668" y="149.9016">0..*</text></g><!--link HRM to Collaborator--><g id="link_HRM_Collaborator"><path codeLine="161" d="M472.671,96.294 C471.564,114.168 468.21,173.916 469.41,223.302 C469.863,241.941 470.955,263.193 471.819,278.142 " fill="none" id="HRM-Collaborator" style="stroke:#181818;stroke-width:0.3;"/><polygon fill="#000000" points="470.903,216.5956,471.7974,213.8863,470.034,213.878,470.903,216.5956" style="stroke:#000000;stroke-width:0.3;"/><text fill="#000000" font-family="sans-serif" font-size="3.9" lengthAdjust="spacing" textLength="15" x="473.61" y="216.7105">registers</text><text fill="#000000" font-family="sans-serif" font-size="3.9" lengthAdjust="spacing" textLength="2.1" x="468.8365" y="102.7177">1</text><text fill="#000000" font-family="sans-serif" font-size="3.9" lengthAdjust="spacing" textLength="1.5" x="470.1067" y="274.8415">*</text></g><!--link HRM to Job--><g id="link_HRM_Job"><path codeLine="162" d="M471.939,96.291 C471.138,100.275 470.028,105.876 469.11,110.802 C452.283,200.94 433.584,310.626 428.466,340.827 " fill="none" id="HRM-Job" style="stroke:#181818;stroke-width:0.3;"/><polygon fill="#000000" points="448.4475,244.9225,449.7905,242.4052,448.0543,242.0965,448.4475,244.9225" style="stroke:#000000;stroke-width:0.3;"/><text fill="#000000" font-family="sans-serif" font-size="3.9" lengthAdjust="spacing" textLength="12.9" x="451.41" y="245.0605">creates</text><text fill="#000000" font-family="sans-serif" font-size="3.9" lengthAdjust="spacing" textLength="2.1" x="472.0946" y="102.7139">1</text><text fill="#000000" font-family="sans-serif" font-size="3.9" lengthAdjust="spacing" textLength="1.5" x="427.0986" y="337.5582">*</text></g><!--link HRM to Skill--><g id="link_HRM_Skill"><path codeLine="163" d="M474.63,96.27 C475.83,100.245 477.462,105.843 478.71,110.802 C487.662,146.346 496.26,189.267 499.668,206.754 " fill="none" id="HRM-Skill" style="stroke:#181818;stroke-width:0.3;"/><polygon fill="#000000" points="482.9415,117.8586,483.2017,115.0173,481.4819,115.407,482.9415,117.8586" style="stroke:#000000;stroke-width:0.3;"/><text fill="#000000" font-family="sans-serif" font-size="3.9" lengthAdjust="spacing" textLength="12.9" x="485.31" y="118.0105">creates</text><text fill="#000000" font-family="sans-serif" font-size="3.9" lengthAdjust="spacing" textLength="2.1" x="475.5497" y="102.7899">1</text><text fill="#000000" font-family="sans-serif" font-size="3.9" lengthAdjust="spacing" textLength="1.5" x="497.638" y="203.3556">*</text></g><!--link HRM to TeamProposal--><g id="link_HRM_TeamProposal"><path codeLine="164" d="M478.485,92.658 C486.204,95.271 500.223,101.076 508.11,110.802 C519.957,125.409 523.497,148.458 524.517,158.766 " fill="none" id="HRM-TeamProposal" style="stroke:#181818;stroke-width:0.3;"/><polygon fill="#000000" points="516.7671,117.6266,515.9401,114.896,514.493,115.9036,516.7671,117.6266" style="stroke:#000000;stroke-width:0.3;"/><text fill="#000000" font-family="sans-serif" font-size="3.9" lengthAdjust="spacing" textLength="15" x="518.61" y="118.0105">requests</text><text fill="#000000" font-family="sans-serif" font-size="3.9" lengthAdjust="spacing" textLength="2.1" x="480.8095" y="91.5907">1</text><text fill="#000000" font-family="sans-serif" font-size="3.9" lengthAdjust="spacing" textLength="2.1" x="519.2076" y="155.4136">1</text></g><!--link TeamProposal to Team--><g id="link_TeamProposal_Team"><path codeLine="165" d="M526.32,169.977 C529.182,180.459 536.163,204.387 545.01,223.302 C546.405,226.287 548.139,229.392 549.849,232.233 " fill="none" id="TeamProposal-Team" style="stroke:#181818;stroke-width:0.3;"/><polygon fill="#000000" points="547.0403,216.4988,546.9057,213.6488,545.2562,214.2722,547.0403,216.4988" style="stroke:#000000;stroke-width:0.3;"/><text fill="#000000" font-family="sans-serif" font-size="3.9" lengthAdjust="spacing" textLength="6.3" x="549.21" y="216.7105">has</text><text fill="#000000" font-family="sans-serif" font-size="3.9" lengthAdjust="spacing" textLength="2.1" x="522.9555" y="176.4095">1</text><text fill="#000000" font-family="sans-serif" font-size="3.9" lengthAdjust="spacing" textLength="2.1" x="535.8314" y="228.9092">1</text></g><!--link Team to Collaborator--><g id="link_Team_Collaborator"><path codeLine="166" d="M542.571,252.933 C529.038,261.585 508.668,274.605 493.467,284.325 " fill="none" id="Team-Collaborator" style="stroke:#181818;stroke-width:0.3;"/><polygon fill="#000000" points="525.1462,267.2036,527.9073,266.4849,526.9575,264.9992,525.1462,267.2036" style="stroke:#000000;stroke-width:0.3;"/><text fill="#000000" font-family="sans-serif" font-size="3.9" lengthAdjust="spacing" textLength="6.3" x="529.11" y="268.0105">has</text><text fill="#000000" font-family="sans-serif" font-size="3.9" lengthAdjust="spacing" textLength="2.1" x="536.9079" y="253.0763">1</text><text fill="#000000" font-family="sans-serif" font-size="3.9" lengthAdjust="spacing" textLength="6" x="495.8171" y="281.9235">1..*</text></g><!--link Skill to Collaborator--><g id="link_Skill_Collaborator"><path codeLine="167" d="M498.456,223.368 C494.124,235.971 485.601,260.769 479.616,278.181 " fill="none" id="Skill-Collaborator" style="stroke:#181818;stroke-width:0.3;"/><polygon fill="#000000" points="495.9224,244.8642,497.6383,242.5846,495.9707,242.0114,495.9224,244.8642" style="stroke:#000000;stroke-width:0.3;"/><text fill="#000000" font-family="sans-serif" font-size="3.9" lengthAdjust="spacing" textLength="23.7" x="499.11" y="245.0605">is atributed to</text><text fill="#000000" font-family="sans-serif" font-size="3.9" lengthAdjust="spacing" textLength="6" x="491.1973" y="229.955">1..*</text><text fill="#000000" font-family="sans-serif" font-size="3.9" lengthAdjust="spacing" textLength="2.1" x="478.1237" y="274.8847">1</text></g><!--link Collaborator to Job--><g id="link_Collaborator_Job"><path codeLine="168" d="M455.658,317.226 C448.194,325.494 439.89,334.695 434.169,341.031 " fill="none" id="Collaborator-Job" style="stroke:#181818;stroke-width:0.3;"/><polygon fill="#000000" points="448.0049,330.2091,450.4776,328.7857,449.1687,327.6041,448.0049,330.2091" style="stroke:#000000;stroke-width:0.3;"/><text fill="#000000" font-family="sans-serif" font-size="3.9" lengthAdjust="spacing" textLength="6.3" x="451.71" y="330.7105">has</text><text fill="#000000" font-family="sans-serif" font-size="3.9" lengthAdjust="spacing" textLength="2.1" x="450.3984" y="323.7196">1</text><text fill="#000000" font-family="sans-serif" font-size="3.9" lengthAdjust="spacing" textLength="2.1" x="436.2918" y="337.5402">1</text></g><!--link MS to Agenda--><g id="link_MS_Agenda"><path codeLine="169" d="M351.675,21.051 C358.089,15.606 366,10.131 374.31,7.302 C390.474,1.8 397.989,6.474 411.51,16.902 C416.304,20.598 420.042,26.481 422.358,30.819 " fill="none" id="MS-Agenda" style="stroke:#181818;stroke-width:0.3;"/><polygon fill="#000000" points="377.2959,5.301,374.7286,4.0562,374.4872,5.8029,377.2959,5.301" style="stroke:#000000;stroke-width:0.3;"/><text fill="#000000" font-family="sans-serif" font-size="3.9" lengthAdjust="spacing" textLength="6.3" x="378.51" y="6.7105">has</text><text fill="#000000" font-family="sans-serif" font-size="3.9" lengthAdjust="spacing" textLength="2.1" x="354.0566" y="17.5427">1</text><text fill="#000000" font-family="sans-serif" font-size="3.9" lengthAdjust="spacing" textLength="2.1" x="419.1243" y="27.4675">1</text></g><!--link MS to GreenSpace--><g id="link_MS_GreenSpace"><path codeLine="170" d="M321.279,37.803 C264.123,42.3 63.936,61.428 29.91,110.802 C1.8,151.593 43.614,213.306 60.375,235.122 " fill="none" id="MS-GreenSpace" style="stroke:#181818;stroke-width:0.3;"/><polygon fill="#000000" points="30.2136,117.3005,32.9097,116.3669,31.8461,114.9604,30.2136,117.3005" style="stroke:#000000;stroke-width:0.3;"/><text fill="#000000" font-family="sans-serif" font-size="3.9" lengthAdjust="spacing" textLength="15.9" x="34.11" y="118.0105">manages</text><text fill="#000000" font-family="sans-serif" font-size="3.9" lengthAdjust="spacing" textLength="2.1" x="312.1023" y="36.7818">1</text><text fill="#000000" font-family="sans-serif" font-size="3.9" lengthAdjust="spacing" textLength="1.5" x="57.2135" y="231.7278">*</text></g><!--link GSU to GreenSpace--><g id="link_GSU_GreenSpace"><path codeLine="171" d="M210.564,92.217 C193.704,96.06 142.332,107.877 135.21,110.802 C119.115,117.414 112.365,117.222 101.61,130.902 C88.392,147.717 73.473,212.298 68.514,235.086 " fill="none" id="GSU-GreenSpace" style="stroke:#181818;stroke-width:0.3;"/><polygon fill="#000000" points="102.0524,165.4594,104.5909,164.1567,103.3404,162.9135,102.0524,165.4594" style="stroke:#000000;stroke-width:0.3;"/><text fill="#000000" font-family="sans-serif" font-size="3.9" lengthAdjust="spacing" textLength="8.4" x="105.81" y="166.0105">uses</text><text fill="#000000" font-family="sans-serif" font-size="3.9" lengthAdjust="spacing" textLength="2.1" x="206.1854" y="90.9926">1</text><text fill="#000000" font-family="sans-serif" font-size="3.9" lengthAdjust="spacing" textLength="1.5" x="67.2227" y="231.8192">*</text></g><!--link GSM to GreenSpace--><g id="link_GSM_GreenSpace"><path codeLine="172" d="M57.816,121.989 C56.406,124.578 54.924,127.794 54.21,130.902 C47.562,159.882 50.19,168.342 54.21,197.802 C56.037,211.188 60.768,226.2 63.885,235.14 " fill="none" id="GSM-GreenSpace" style="stroke:#181818;stroke-width:0.3;"/><polygon fill="#000000" points="55.7903,165.8935,56.5254,163.1366,54.7646,163.2311,55.7903,165.8935" style="stroke:#000000;stroke-width:0.3;"/><text fill="#000000" font-family="sans-serif" font-size="3.9" lengthAdjust="spacing" textLength="15.9" x="58.41" y="166.0105">manages</text><text fill="#000000" font-family="sans-serif" font-size="3.9" lengthAdjust="spacing" textLength="2.1" x="54.5486" y="128.4248">1</text><text fill="#000000" font-family="sans-serif" font-size="3.9" lengthAdjust="spacing" textLength="1.5" x="61.5352" y="231.7499">*</text></g><!--SRC=[VLPDRzms4BtpLn2w12YG87lTWu70JXotSM54TdhcYkCLiIAfa9JTRTh_tk6dAAqINaJEl1aEPzwGiYUXHcQOf58htVL6Iw3EJ41iqOoiEx4ZjEuy03NGEQQEGmsmFUFwLQWZVMQ31V9cLWr2WJkFGBLnlIPl1dXsr6bgnB5tb0llJcXLEUi6Pkq7vumuJ0xkEgrQyG_GzwGN76WdJ8TxXxa4TCajmH6Cw7rBVn2AGp49OVB2t9-JF809grSuME6YPkorWae7aec1aF-ohri3e5eyEYIV5gEerCnmK7bVu6AIFap-mCmfIRymWqahmYHjpzQ1VB9Wrh76249i27pLXi-1-i2Y_UUlzsYOLzy-rQjhFGpie0rpEdi_2CmxP-dGZ4jXBURxPfPm0zQ6kU0tkfiaAFU85Lk9KghoLhTjlV5j-nHMQVa8J3uOFMhBXhKSrr8e8ME-Y6H_btd1jISn37LwYkPtVTYKFp9xIWeEjZDY3ApoQsJOP0oexZp3lq4la4RNFNIdQSo6EISHx_wGzi8YGW-6gL0SgJc4ahr4zTsDNxYKFSTC-1wDjlOly8mdjNiIeZiA98J91M7TzqaWIQiQTJ7AJmQ-JyjZtBEkn_xQpCX7z3FwmcrgFnn1SLRN9ae-AcVEoS892NSAOtjXmvoWZGQndiqFsE1ig1nUQ-ctlonA9irN6D5cIryQ-b7Vw2-Odn-XCKdLEs_V_dlbU-52XXrn8QlxuaA9JDwGFH5ItG1H65j-BLut_rg_lWO2LPjTWrhyl7ltMrFVDNkgEoI8fKBHAq9IdJ8SiNMTzhHd5c6rh7XkObFiCRVFI99VuNnRrZZYhvM6pfjczkyBNoiOtT42p8pSKyaKlXaULb0u2d2cvmAQzcbs1ViUCqIRTSVcamVVkngwXGsTOvqtmCh6M6gJF9h4IH_I2Nu2RpApVueAaytss5CwsMYofOxdNev5d3d0SlvVkTa8kTWHV2e30q8nAlfdGD077zc5PnEoyrKLTJQVYrxRPktCdKgRbJKDKcHpVwG8F3tt_XvanWZWL4-E7iuek2BvViZuEbBySN1CX6Y9VpIRYgQBXt99wZNKlpZep01UVblw-5PT8YegB9x31HiNckHrva0-UanCwDAoyovnlJv9HiQGqjqIMtm94vQoz7_5_S_O5LaaPDw4vlElIxVB5z6QCBJKVQPctU6-LNPRaDmNxJtT1im-_WS0]--></g></svg>